<?xml version="1.0" encoding="UTF-8" standalone="no"?>
<?xml-stylesheet type="text/css" href="/styles/home.css"?><!-- https://www.amcharts.com/svg-maps -->

<svg
   version="1.1"
   id="map-england_and_wales"
   viewBox="0 0 1000 1000"
   width="1000"
   height="1000"
   class=""
   sodipodi:docname="england_and_wales.svg"
   inkscape:version="1.3.1 (91b66b0783, 2023-11-16)"
   xmlns:inkscape="http://www.inkscape.org/namespaces/inkscape"
   xmlns:sodipodi="http://sodipodi.sourceforge.net/DTD/sodipodi-0.dtd"
   xmlns="http://www.w3.org/2000/svg"
   xmlns:svg="http://www.w3.org/2000/svg"
   xmlns:rdf="http://www.w3.org/1999/02/22-rdf-syntax-ns#"
   xmlns:cc="http://creativecommons.org/ns#"
   xmlns:dc="http://purl.org/dc/elements/1.1/">
  <metadata
     id="metadata10">
    <rdf:RDF>
      <cc:Work
         rdf:about="">
        <dc:format>image/svg+xml</dc:format>
        <dc:type
           rdf:resource="http://purl.org/dc/dcmitype/StillImage" />
        <dc:title />
      </cc:Work>
    </rdf:RDF>
  </metadata>
  <sodipodi:namedview
     pagecolor="#ffffff"
     bordercolor="#666666"
     borderopacity="1"
     objecttolerance="10"
     gridtolerance="10"
     guidetolerance="10"
     inkscape:pageopacity="0"
     inkscape:pageshadow="2"
     inkscape:window-width="1920"
     inkscape:window-height="1106"
     id="namedview8"
     showgrid="false"
     showguides="true"
     inkscape:guide-bbox="true"
     inkscape:zoom="2.057538"
     inkscape:cx="167.19011"
     inkscape:cy="787.59177"
     inkscape:window-x="-11"
     inkscape:window-y="-11"
     inkscape:window-maximized="1"
     inkscape:current-layer="map-england_and_wales"
     inkscape:showpageshadow="2"
     inkscape:pagecheckerboard="0"
     inkscape:deskcolor="#d1d1d1">
    <sodipodi:guide
       position="500,534.74502"
       orientation="1,0"
       id="guide817"
       inkscape:locked="false"
       inkscape:label=""
       inkscape:color="rgb(0,0,255)" />
    <sodipodi:guide
       position="86.313716,7.4606124"
       orientation="1,0"
       id="guide1"
       inkscape:locked="false" />
  </sodipodi:namedview>
  <defs
     id="defs4">
    <style
       type="text/css"
       id="style2">
			.land
			{
				fill: #78b967;
				fill-opacity: 1;
				stroke:white;
				stroke-opacity: 1;
				stroke-width:0.5;
			}
         .rectangle:hover {
         fill: #bdbdbd;
         cursor: pointer;
         }
		</style>
  </defs>
  <path
     id="GBFLN"
     class="land"
     d="m 527.27807,0.68738461 -4.57509,1.74490869 -0.43834,0.4341027 -0.65115,0.6554031 -0.22132,1.306557 -0.43409,2.8344144 -0.21702,0.8724544 -0.43836,0.8682057 -2.61314,2.8344134 -0.4341,0.434104 -1.52787,0.655402 -0.65113,0.434103 -1.08952,1.310807 -0.87245,0.651153 -0.43835,0.438352 -0.43411,0.868205 -0.43409,1.310806 -0.65541,1.306557 -5.44753,8.498995 -0.87245,0.868205 -0.87245,0.438352 -1.52361,0.217029 -4.14098,0.217029 -1.0895,0.217031 -0.65116,0.438351 -0.43835,0.434104 v 1.089504 0.655404 l 0.21703,0.651153 0.2213,0.655403 0.4341,0.434103 1.52361,0.872454 0.43836,0.438353 0.21702,0.651153 v 0.655404 l 0.21703,0.651153 0.43836,0.438352 1.08949,1.306556 0.21704,0.434103 0.21703,0.655404 0.21702,0.655403 0.21704,1.306557 1.7449,4.575074 1.74492,3.051466 1.30655,2.17901 0.87246,2.179012 0.21702,0.434103 v 0.655403 0.21703 0.217029 0.655403 0.434102 l 0.21703,0.655404 2.39607,3.485569 0.43834,0.434102 0.21704,0.438352 v 0.651155 0.655401 0.872455 l -0.43835,0.872454 -1.08952,1.306558 -1.30654,1.523608 -2.17902,1.527857 -1.0895,0.434103 -2.83016,0.655403 -1.52786,1.089506 -0.87246,1.306557 -3.047,1.306644 -0.6554,0.655404 -0.65541,1.306557 -0.43409,0.872454 -0.43411,1.740659 -0.65541,0.872455 -0.6554,0.872454 -2.17901,1.306558 -0.8682,0.217029 -0.65541,-0.217029 -0.21702,-0.655404 -1.08952,-0.651154 -0.43835,-0.217029 -1.5236,-0.438352 -2.61311,0.655403 -1.08952,0.434103 -8.93734,8.281942 -5.66458,6.971138 -1.30656,1.089504 -0.4341,0.438353 -0.2213,0.868201 v 1.310806 l 0.2213,0.65115 0.21703,0.6554 0.21703,0.43412 v 0.43835 0.65114 l -0.21703,1.30657 -0.43835,0.87246 -0.65115,0.6554 -1.30656,0.43409 -1.74491,1.52786 -2.39606,3.91968 -1.30656,1.96196 -2.17901,2.17901 -2.83441,1.96196 -4.35803,2.17901 -1.96196,0.43409 -1.30656,1.08952 -2.83441,4.35802 -2.17901,3.26852 -0.4341,0.6554 -0.87245,0.87245 -0.65116,0.65116 -3.26852,1.52786 -0.6554,0.65116 -1.52362,3.9239 -0.43834,0.43411 -0.65115,0.43836 -1.52786,0.43409 -0.87246,-0.21702 -3.70262,-1.96201 -0.6554,-0.21703 -0.65116,0.21703 -0.43834,0.87245 v 4.79213 l -0.21704,0.6554 -1.30656,2.83016 -0.43409,3.26853 0.43409,-0.21703 2.39607,1.30655 v 1.31081 l -1.96196,-0.87246 -1.52361,0.65116 -1.52361,1.0895 -1.96196,0.22131 v 1.30655 h 6.97114 l -1.74069,1.30654 -8.49899,2.61311 -1.96196,-0.21702 -3.92392,-1.30657 -0.65115,-0.65539 -0.6554,-0.65116 -0.87245,-0.6554 -1.08952,-0.43411 -6.53703,1.96196 -1.5236,1.08951 -2.61312,3.04722 5.00918,2.61736 1.30655,0.87245 -4.13672,2.39607 -1.0895,0.21702 -1.74491,-0.65539 -1.08951,-1.30656 -1.08951,-1.0895 -1.96195,0.43834 -2.39606,3.04723 -1.96197,4.79636 -3.48557,10.45669 1.08951,3.05146 -0.87246,3.26851 -1.74066,2.83442 -1.31081,1.74067 -1.08949,0.87245 -2.17903,0.87245 -0.8682,0.6554 -0.65539,1.52363 -1.52361,4.57508 -3.26851,7.84359 -2.83443,13.7295 -2.17901,6.10292 -0.4341,0.43411 -1.08951,1.30656 -0.6554,1.30656 0.87246,1.3108 1.0895,2.39607 0.65116,0.65114 1.52785,0.87247 9.58851,13.51241 2.39606,2.17901 3.48556,7.40525 2.61312,1.08949 0.22129,0.43836 0.21705,1.74066 0.65113,2.61736 -0.21702,1.52361 -0.43409,1.30656 -0.21705,1.52786 0.65116,2.61311 1.30656,2.39607 3.05147,3.92391 3.70687,6.53703 2.17901,2.17902 2.17902,-0.87246 1.52359,-0.43409 2.39606,0.21702 1.52787,-0.6554 -0.87246,-3.48557 0.87246,-4.35803 0.8682,-1.74066 1.52786,-1.0895 v 3.48557 l 0.21702,6.0987 -0.87245,5.01344 -3.48556,1.08949 v 1.08952 l 1.52361,1.30655 0.2213,2.61735 -0.65541,3.04723 -0.21703,2.61735 0.87246,1.30657 1.30655,0.6554 1.30653,0.4341 h 1.74493 l 0.86819,0.87245 3.70687,5.23048 v -1.96195 l -0.21703,-2.39607 0.21703,-1.96196 2.61311,-1.52786 1.08951,-1.74065 1.74491,-3.70688 3.05147,-3.91966 0.4341,-1.30656 0.43411,-1.96196 0.43834,-2.39606 0.43411,-2.40032 -0.43411,-2.39606 1.30656,-0.65115 1.08951,0.65115 0.87245,1.74491 0.87245,1.96195 -0.87245,1.95772 0.4341,2.61737 1.52787,2.61311 1.30654,1.0895 4.57508,-0.21703 1.96196,-1.30655 0.87245,-2.61737 0.65116,-1.74066 1.96196,-1.52785 3.70262,-1.95771 3.05147,-2.61736 1.30655,-1.96197 0.43836,-2.61311 h 0.65116 l 0.22129,3.26851 -1.7449,3.05148 -2.17903,2.17901 -2.17901,0.87245 0.21704,1.74066 1.52786,3.05147 2.39606,4.79211 1.74066,2.61737 -1.95772,4.57508 -1.0895,1.7449 -3.26851,1.30656 -1.52786,1.52361 -1.96196,3.92392 -0.8682,0.87246 -1.08952,0.8682 -0.6554,0.87246 0.21703,1.30654 1.52787,3.92393 0.65113,0.43411 3.05152,-0.43411 1.7449,-0.65541 1.74067,-1.30655 -0.4341,2.83441 -3.48557,3.48558 1.08951,1.96195 -0.65541,0.43412 -0.87245,0.65539 -0.87246,0.87246 -0.4341,1.0895 -0.21704,0.65116 -0.87247,-0.21704 -1.30655,-1.0895 -1.74491,0.21703 -9.3672,3.70687 -2.17902,1.30655 -1.7449,3.05147 1.30656,4.79213 -1.30656,13.07407 0.87245,5.88162 2.83017,3.92392 3.70686,1.74491 8.71606,0.21704 -1.30657,1.74066 -3.70686,2.61735 -0.43411,0.21704 -0.87245,1.96196 -0.87245,0.4341 -5.44753,7.19243 -6.53703,11.11212 -1.30656,2.83441 -0.21704,2.39607 0.43411,2.39605 5.01342,10.89506 6.97115,15.03603 2.39606,3.70262 3.26852,3.70686 3.92389,2.61316 1.08951,0.43411 3.26852,1.31081 3.26852,0.4341 h 1.08949 l 1.96197,-0.87245 0.65115,-2.39606 1.08951,-0.87246 5.23047,-1.08951 h 1.30657 l -0.86822,1.08951 -0.87245,0.43835 -0.87245,0.21702 -0.87246,-0.43834 -0.87246,1.0895 -0.8682,1.0895 -0.2213,1.52786 0.65541,2.17901 -2.83442,1.74066 -1.52361,0.43836 h -1.74491 l -0.65115,-0.21703 -1.52785,-0.6554 h -0.86821 l -0.87245,0.43409 -0.21704,0.65541 -0.2213,0.87246 v 0.21702 l -3.26852,0.21703 -2.83016,-1.30656 -1.74491,-1.52361 -0.87245,-0.87245 -1.74067,-2.39606 -6.10295,-15.90846 -2.39606,-2.83441 -2.39606,-0.21703 -3.70688,3.05147 -1.9577,0.65539 -4.35802,0.65116 -1.96196,1.08951 -1.08951,1.74491 0.21703,2.61311 1.30656,2.61735 3.70687,4.79213 2.6131,5.44754 1.52361,2.61311 1.08952,1.96195 v 2.83442 3.48557 l -0.21703,0.6554 -0.87247,-0.87245 -1.30655,-2.17901 -1.52361,-1.74491 -13.07406,-8.499 -1.08952,-1.30655 -0.87245,-1.74068 -2.179,-1.7449 -3.92393,-1.96197 -3.04721,0.21702 h -0.2213 -1.08951 l -14.38062,7.19246 -5.00917,2.39607 -3.92393,0.87245 -11.76752,0.43411 -1.5236,-1.08951 -1.74491,-2.39605 -2.17901,-1.96197 -2.17902,-0.86821 -1.96194,1.08951 -1.30657,-1.52785 -1.74066,-1.08952 -1.96196,-0.65114 -1.96196,-0.22131 0.87245,2.17901 2.83018,3.05148 1.08949,3.05145 h -3.48555 l -11.11212,4.79213 -2.61311,2.17901 -0.87246,0.65541 -2.39607,0.6554 -2.17901,1.0895 -1.3108,0.86821 -0.8682,-0.21703 -0.65541,-0.4341 -0.87245,-0.21704 -3.26852,0.21704 -3.05146,0.87245 -2.61312,1.74065 -2.39606,2.83442 -1.96199,4.57505 -1.5236,1.74492 -1.74492,0.86821 -1.0895,0.87245 -4.14097,4.79638 -0.21702,0.8682 -0.65541,1.96196 -0.8682,1.30656 -0.43836,-1.08952 -0.21702,-1.0895 -0.65541,-0.4341 -0.86821,0.6554 -0.22129,1.95772 -0.21703,7.19243 -0.43411,3.05146 -0.87245,2.17902 -6.53703,4.35801 -2.17902,3.48558 -8.06065,6.31997 -1.96195,1.08952 -1.96195,0.65115 -1.96197,0.2213 -1.52361,0.86821 -14.16358,16.56388 -1.52785,2.61312 -0.65116,0.87245 0.43411,1.0895 v 0.65115 l -1.08952,1.74492 1.52787,0.87246 1.52361,-0.65541 1.30656,-1.74065 1.52786,-0.87247 5.66458,0.65115 2.39606,-0.65115 0.65539,-0.6554 0.65116,-0.65115 0.6554,-0.6554 1.30657,-0.43411 1.08949,0.43411 1.96196,1.52361 2.17902,0.87245 1.5236,1.74491 1.08951,0.21703 0.87239,-0.43409 0.6554,-0.6554 1.30656,-1.30656 -1.30656,-1.7449 0.21704,-2.17901 0.87245,-1.96197 1.52361,-1.08951 -0.21703,-0.65114 -0.21703,-0.43835 3.48556,-4.13673 1.96196,-1.7449 2.17901,-1.08952 h 6.97113 l 2.179,-1.30655 1.52361,-1.0895 7.40949,-2.17901 5.88591,0.87245 2.83016,-0.22131 2.61736,-1.9577 0.65116,1.9577 1.08949,0.22131 1.08952,-0.87245 1.30655,-1.30656 0.22131,0.65116 0.4341,0.21702 0.6554,0.43836 -6.10293,4.35802 -0.65541,0.65116 -0.21702,1.08949 v 2.40032 l 0.43834,1.30655 0.86822,2.61312 0.22129,2.61736 -1.08951,1.0895 -1.7449,0.65115 -0.43411,1.30657 0.65116,1.52785 1.96196,4.14097 7.62654,9.58425 1.74491,-0.4341 1.74066,-1.30656 2.83442,-0.43834 -1.30656,1.7449 -4.14097,3.26852 -1.30657,0.4341 -0.22129,0.22131 -0.21702,0.65115 -0.65116,2.39605 -0.22131,0.43836 -1.95771,1.30657 -1.96195,3.26851 -1.74492,4.14097 -0.4341,4.14097 1.30652,2.61314 4.57507,6.31998 1.52785,1.30655 2.83017,-0.4341 5.23048,-1.96196 h 2.83442 v 1.08951 0.21703 l -5.23049,3.92392 -1.7449,0.65116 -1.08951,-0.21704 -2.39606,-1.0895 h -0.6554 l -0.65116,1.52361 -0.21702,1.96195 0.21702,1.96197 0.65116,1.52361 -1.30656,2.40031 -1.0895,3.48556 -0.87246,3.91968 -0.86821,6.97538 -1.31081,3.91967 -3.0472,5.66883 -5.8859,8.49474 -12.20163,10.67801 -1.7449,0.43835 -2.17902,0.21703 -1.74066,0.43411 -1.30655,0.87245 -3.05147,3.70261 -1.96196,1.96197 -2.17901,1.30655 -3.05146,0.87246 -0.65116,1.08951 -0.43835,1.0895 -0.65116,0.87246 -1.31081,0.4341 -12.41866,-0.4341 -3.92392,1.96196 0.2213,4.79212 -2.17901,-1.5236 -1.31081,-1.08951 h -1.30654 l -1.96197,2.17901 -2.39607,4.14097 -1.52361,1.74066 -1.96197,1.52785 -3.48556,0.43412 -0.6554,0.6554 -0.21703,1.5236 0.6554,1.96197 v 1.52361 l -0.87245,0.65539 -2.17901,-0.21702 -3.92391,-1.74491 -1.96196,-0.21703 0.6554,2.17901 -2.83441,1.30656 h -1.9577 l -5.44753,-3.05148 -1.31081,-0.21702 -2.61313,-0.21703 -1.7449,0.4341 -1.08951,0.6554 -0.21703,1.30656 1.30656,0.87246 v 1.0895 h -1.52363 l -0.4341,4.35803 -3.05147,2.83016 -4.14097,1.52786 -3.26852,0.4341 -1.30656,0.6554 -3.05146,3.26852 -1.96196,0.65115 -3.70262,0.43836 -0.87246,0.87245 0.87246,2.17901 v 1.08951 l -1.08951,0.4341 -0.21703,0.65541 0.21703,0.43409 0.21703,0.87246 v 1.08951 l -0.6554,0.4341 -0.65115,0.6554 h 1.96196 l 5.66458,-1.0895 1.52361,-1.08951 1.7449,1.08951 4.14097,0.65116 1.74066,1.52785 0.65541,-1.08951 1.52361,1.30656 0.87245,1.96196 0.4341,2.61311 v 2.39606 l 0.65541,4.14097 -0.43411,1.74492 -1.52785,1.5236 -1.74065,0.87238 -3.48982,0.65539 -1.5236,1.52361 -1.0895,1.52361 -1.08951,0.87245 -1.52361,0.21704 -2.179,0.2213 1.95771,0.4341 5.01342,3.92392 v 1.0895 l -0.21703,1.74066 h 1.52361 l 1.0895,-1.30656 -0.87245,-2.6131 1.7449,-0.87245 14.16358,1.96195 h 2.17902 l 8.06064,-1.96195 1.52786,-1.52787 0.21703,-1.95771 -1.30655,-1.3108 0.43409,-2.39607 -0.43409,-1.52361 -1.08952,-0.6554 h -1.7449 l 1.30655,-0.65116 5.66882,-0.65539 3.04721,-1.30656 1.0895,-0.6554 v 1.08949 l -3.91966,1.08952 -1.74492,3.26851 0.65541,4.14097 2.83016,2.83441 v 1.08952 l -1.30656,-0.87245 -1.0895,0.21702 -2.39604,1.7449 -5.01343,1.08951 -3.26851,1.95772 -1.52361,0.43834 -1.30655,-0.21702 -2.83442,-1.08951 -1.52361,0.21703 0.21703,0.4341 0.4341,1.30656 0.2213,0.43836 -7.84785,-1.08952 -0.65115,1.08952 1.96195,2.39606 5.00919,1.30655 1.52786,3.05146 -1.08951,1.74492 2.61312,1.95771 6.53703,2.17901 1.08951,0.65541 0.4341,0.21702 1.08951,-0.4341 0.6554,-1.52786 1.96197,-0.8682 1.0895,-1.08952 0.65115,-1.52784 0.87243,-1.30657 1.74491,-1.08949 1.52361,-0.21704 9.15441,0.21704 1.74066,-1.96197 0.6554,-0.4341 1.30656,1.0895 1.08951,0.4341 1.7449,-4.79211 0.21703,-1.08952 v -0.65541 l 0.21704,-0.43402 h 1.08949 v -4.14097 l 3.48557,-2.39607 0.65541,-0.21703 3.70262,-1.08951 2.83442,-0.2213 7.62653,1.08951 3.91967,-0.21704 3.48982,-1.96194 -1.52786,-1.52361 -0.65115,-1.52362 0.21703,-1.0895 1.96195,-0.43836 0.86821,1.30657 0.87247,0.6554 1.0895,0.4341 0.6554,-0.4341 0.87245,-1.30656 0.65116,-0.65541 0.65539,-1.74065 0.65116,-0.43836 0.65541,1.08952 v 1.52785 l -0.43409,1.52357 -0.6554,1.0895 -0.21703,0.4341 0.87245,1.96196 1.74067,1.0895 1.74491,0.43836 h 1.96195 l -1.08949,1.30655 -1.74494,0.21704 -4.14097,-0.43411 1.30655,3.04722 2.40031,2.83441 2.61312,2.17901 2.39607,0.87246 7.84359,-1.30656 1.52788,-0.87246 5.66458,3.05148 3.92392,0.4341 1.0895,-0.21704 0.8682,-0.43834 1.31081,-1.52361 0.43411,0.21702 v 0.43836 0.8682 1.08951 l -2.17902,3.70687 -4.79212,1.08951 -5.23049,0.4341 -3.05148,1.08951 -0.87245,-0.87246 -0.65115,-0.43411 v -1.0895 h 0.65115 l -0.65115,-1.0895 -0.65541,0.87245 -1.08951,1.96196 -0.43409,0.65116 -3.48983,1.08949 v 2.39607 l 1.08951,2.17902 0.2213,1.7449 -1.96196,1.52362 0.21703,1.08949 0.21703,0.43836 0.21703,0.65115 1.96196,0.2213 5.88588,2.39606 1.30658,0.21704 0.43409,-1.74491 h 0.87253 l 1.08951,0.87245 1.0895,0.21703 1.0895,-0.65116 1.30656,-1.74491 1.08951,-0.87245 1.08951,-0.65116 1.0895,0.21704 2.39606,0.4341 1.08951,0.87245 0.65541,0.21703 0.4341,-0.21703 1.0895,-1.74066 0.2213,-0.22129 h 0.65116 l 0.87245,0.43834 0.6554,0.43411 0.21704,0.65541 0.4341,0.87245 0.43835,-0.22131 0.65115,-0.8682 v -0.2213 h 4.141 l -0.65541,-1.52361 -1.0895,-1.5236 -0.86821,-1.74492 0.21703,-1.52361 0.87246,-0.87245 1.30655,-0.87245 1.52362,-0.65541 7.62653,-1.0895 3.26852,-0.21703 1.30656,0.21703 1.0895,1.0895 1.52786,3.05147 0.87245,1.30656 1.74066,1.0895 0.87246,0.87246 1.30655,2.17901 1.08951,2.83441 0.6554,2.17901 0.43411,0.87245 0.6554,3.26853 h -0.21703 l -0.43835,0.21702 v 0.21703 0.65541 l 1.0895,1.74066 1.96196,1.96207 2.39606,1.0895 1.74491,-0.87245 1.52361,0.21702 5.88587,5.01343 3.04723,4.14097 1.7449,2.3961 1.96197,1.08949 25.49273,2.39607 7.19244,-3.05147 1.52362,0.22131 1.96194,0.65114 1.74492,-2.17901 0.8682,-3.48557 -1.30655,-3.48557 0.65539,-0.43835 1.30656,-0.21702 0.87246,-0.4341 0.43411,-0.87245 0.43834,-1.74493 0.43411,-0.65114 2.61311,-2.83442 1.74491,-1.30658 1.30656,-0.4341 h 0.21702 l 5.88589,-3.92392 0.65115,-1.0895 2.61736,-3.26852 0.87246,-0.65541 0.65116,0.43836 0.43834,1.0895 0.86821,1.30656 1.3108,0.4341 8.71605,-0.65115 4.35802,-1.52786 1.74065,-1.30655 3.92393,-2.61312 4.79213,-1.08951 1.96197,-1.74491 2.83441,-3.26852 6.75407,-8.06064 0.87245,-1.52785 1.08952,-1.08951 5.88163,-4.13672 1.52362,-1.96195 1.31079,-2.17903 1.30656,-1.7449 1.96196,-0.87245 1.95772,-0.21704 2.4003,-0.65115 1.95771,-1.7449 0.43836,-3.05147 1.30656,1.52786 0.4341,1.74065 -0.86821,1.96196 -1.74491,1.52361 -4.35803,1.52786 -1.7449,1.0895 -3.48556,4.79213 -3.70263,3.92392 -2.17901,2.17901 -0.43835,0.87246 -0.65116,1.52361 -0.6554,1.5236 -0.21703,1.31081 -0.4341,1.52361 -0.87245,0.6554 -1.08952,0.4341 -0.87245,0.65541 -7.19243,12.41866 -1.74067,3.05147 -2.179,2.17902 -1.30656,0.65114 -0.65541,0.22131 -2.6131,0.21702 -1.96196,0.65116 -1.74492,1.08951 -1.74066,1.52785 -6.97538,9.15015 -3.70262,3.70687 -3.26852,-0.65541 -2.39606,2.39607 1.74065,1.52786 -0.65114,1.52361 -1.52786,1.52361 -0.87245,1.52785 v 2.61312 l -0.43411,1.52785 -1.0895,0.4341 -1.96197,-0.6554 1.30657,1.96197 0.22129,3.05145 v 6.10294 l 0.21703,1.52361 0.4341,0.87245 0.21703,1.08951 -0.21703,2.17901 -0.4341,1.0895 -1.74489,3.48557 -1.30655,-1.30656 1.30655,-2.17901 -0.65115,-1.0895 -2.83441,1.96196 -4.14098,0.65115 -6.75408,-0.4341 -3.70262,0.4341 -7.19244,2.39607 -11.76751,0.43835 -1.96197,-0.87246 -3.04721,-2.83441 -12.63997,-3.04722 -8.28194,0.21703 -7.40523,-1.96197 -5.88589,-1.5236 -1.74065,0.21704 -3.26852,1.74066 -2.17902,0.43834 h -7.40948 l -1.96197,0.43415 -3.92391,1.30655 -18.5216,1.74492 -7.84361,3.26851 v 0.87246 l 1.0895,0.87246 0.87249,1.30655 0.21702,1.74065 -0.65118,1.74492 -0.87245,0.4341 -3.48557,-0.4341 0.86821,1.5236 1.74491,2.61737 0.21702,0.87246 0.21703,1.30654 1.31081,4.35804 0.65118,1.5236 -1.08953,0.6554 -0.65115,0.87245 -0.43836,1.08952 -0.65115,0.8682 -6.75834,7.84783 -1.52361,1.08952 -2.179,0.65115 -5.88164,-0.65115 -1.08951,-0.43836 -2.17901,-1.52361 -1.0895,-0.43835 h -8.93734 l -0.65116,1.08951 0.21703,2.17902 0.21703,2.4003 0.43835,1.08951 -1.3108,4.13672 -0.86821,1.3108 -0.43825,2.61312 -0.65116,4.14097 0.43412,14.38062 -2.61312,5.44753 -4.35803,3.26852 -1.96195,2.17901 -0.65541,2.83442 -1.30654,2.17901 -7.19245,6.09869 -1.30655,-0.43411 -1.08951,0.87245 -0.43411,1.74066 0.65116,2.39606 -1.52361,2.61737 -1.30656,2.83017 -1.52786,2.4003 -3.04722,1.08951 -7.40947,0.43411 -2.61736,-0.43411 v 0.8682 l 0.43835,1.74492 -0.43835,1.30656 -0.21703,1.52785 1.74492,1.9577 3.26849,1.31081 1.74066,1.08951 1.0895,2.17901 -1.52361,-0.87245 -4.358,-0.21703 -1.74491,-1.08951 -0.43412,0.43409 -0.21703,0.21703 -0.6554,0.43835 -0.21704,-1.74488 -0.21702,-2.17902 -0.43836,-1.96197 -0.65116,-0.87245 -0.65539,0.22131 -1.30658,1.5236 -0.87246,0.6554 h -1.96196 l -2.179,1.52361 -0.86821,2.17902 -0.43835,2.83441 v 3.26851 l -0.87246,6.31574 -1.0895,2.17901 -0.21703,0.87246 -6.97115,3.70686 h -0.87248 l -1.52361,0.21704 -1.08949,0.65115 0.65114,3.26852 0.21703,1.96195 -0.21703,1.96196 -0.21703,0.87246 -1.52361,0.4341 -3.70686,2.61737 -11.76752,12.20161 -3.70261,2.17901 h -3.70262 l -0.43835,0.65115 -0.43411,1.52786 -0.65541,1.52361 -1.52361,2.39606 -1.96194,1.31081 -2.17903,-1.0895 -3.05146,-3.05147 h -2.39607 l -3.92393,2.61312 -3.48558,1.30655 -6.53703,3.70687 -2.83016,1.08951 -0.87245,0.65115 -1.96197,3.26852 -0.21703,0.43835 -0.21702,0.87246 v 1.74065 l 0.65115,2.83442 h 0.21703 l 0.2213,0.4341 0.21703,0.87245 v 0.87245 l -0.43835,0.65116 -0.65116,0.43836 h -1.0895 l 1.0895,5.00917 3.91968,1.3108 5.01342,-0.43832 4.14097,-1.30657 1.52361,-0.87245 1.74491,-1.52361 1.08951,-1.96195 -0.65541,-2.83442 v -2.179 l 1.96196,-1.74066 2.83442,-0.87247 1.95771,-0.21702 1.7449,0.87245 3.48557,1.95772 4.14098,0.87245 6.10293,2.83441 1.95771,1.52362 1.74491,1.96192 2.83441,4.79213 0.65116,1.52786 0.21702,1.30656 -0.21702,1.08951 0.43835,2.17901 0.4341,1.0895 0.4341,0.6554 3.05146,3.48557 1.08952,0.87246 0.87245,0.21703 0.4341,-0.6554 1.0895,-3.91968 3.05147,-3.48981 0.65541,-0.65116 1.30655,-0.21703 1.96196,0.43411 1.08951,-0.21704 2.83017,-4.35802 1.31081,-3.05146 -0.43836,-1.30656 -0.43411,-0.43835 -0.21703,-1.95771 -0.22129,-0.87246 h -0.65116 l -1.0895,0.21703 -0.43835,-0.21703 -1.52363,-0.87248 -0.87247,-0.21702 h -1.08949 l 3.26851,-1.30656 0.87246,-0.87245 0.4341,-1.08951 v -1.30656 -1.0895 l 1.08951,-0.87245 1.0895,-0.87246 0.6554,-0.21703 h 0.87247 l -1.52787,-1.74492 -0.65116,-0.43409 v -1.08951 l 1.30656,-1.74495 v -1.74067 -1.3108 l 1.96197,-0.65115 1.30656,1.0895 0.6554,5.66458 1.30657,1.96197 4.14097,-7.19244 1.30654,-1.52361 4.35804,-1.52786 1.96195,-0.8682 1.74064,-2.40031 1.96196,-0.86821 5.01343,0.86821 1.0895,-1.08952 0.21703,-0.86819 1.08951,-3.05147 v -0.6554 l -0.43835,-1.08951 -0.21704,-0.87246 0.43836,-1.08951 0.8682,-1.08949 0.87246,-1.08952 0.6554,-0.65115 v -1.0895 l -0.6554,-2.17901 1.08952,-1.30656 1.96195,-0.65541 2.17902,-0.21702 0.6554,-0.21703 0.43409,-0.65545 0.65541,-0.4341 0.65116,0.21703 1.52785,4.35802 h 0.4341 l 0.65541,-0.43835 0.21702,-0.4341 v -0.21703 l 16.7767,-1.08952 3.92392,-1.52785 7.40949,-4.57507 4.79212,-0.65115 8.71604,2.39606 1.74492,1.0895 0.8682,2.17902 1.08951,1.96196 2.17903,0.21703 v -1.08952 l -0.4341,-1.08949 v -1.08951 l 0.87245,-0.87245 1.0895,-0.21704 v -1.0895 h -2.83441 l 0.65541,-1.30656 -1.96199,-0.2213 -0.87245,0.2213 v -1.0895 l 3.48559,-0.87246 -2.17903,-1.7449 -5.88161,0.87245 -1.74491,-2.39606 5.01343,0.4341 1.30655,-0.4341 0.87245,-1.30657 0.43411,-1.74491 -0.43411,-1.52361 -1.5236,-1.08949 v -0.87246 h 1.30656 l 1.08949,-0.65541 0.65118,-1.0895 0.22132,-0.43411 0.21702,-1.30655 1.0895,0.86821 1.0895,0.2213 1.96197,-1.08951 -1.08951,2.39607 -1.31081,2.179 -0.21702,0.87245 -0.65116,1.30657 0.86821,2.61311 0.87246,1.7449 0.43835,1.30657 0.65114,0.87245 1.30657,0.87246 1.0895,0.4341 3.70687,-0.4341 -1.30656,3.04722 0.21702,0.6554 0.65116,1.7449 2.40032,1.74067 2.17901,0.6554 -0.43836,1.52361 -0.21702,0.6554 1.7449,1.30656 1.08952,0.6554 1.08949,0.21703 0.86822,-0.43836 1.3108,-1.5236 0.65115,-0.21703 0.87246,-0.43835 2.61311,-1.52361 0.87246,-0.21703 1.30655,0.4341 6.53704,6.31998 6.10293,7.40949 3.70262,3.48557 1.52785,-1.74491 1.52361,0.22131 1.96197,0.8682 2.17901,0.6554 1.7449,-0.21704 4.13672,-1.30654 1.52786,-0.6554 -0.65541,-4.14097 0.43836,-3.70263 1.08951,-3.26852 0.65116,-2.83441 0.87245,-1.5236 2.39606,-0.65541 2.17901,-1.30656 0.65541,-3.48557 1.74066,1.30656 1.52786,0.65541 1.30655,-0.87246 0.6554,-4.14097 0.21703,-0.21704 0.21703,-0.43835 0.87246,-0.4341 0.87245,-0.21702 0.21703,-0.65541 0.87245,-2.83017 v -1.08951 l -4.57932,0.21704 -1.74067,-0.87246 -0.6554,-2.61311 0.6554,-2.17901 1.74067,-1.3108 2.4003,-0.65116 2.17902,-0.21703 -1.74484,-6.75843 v -1.0895 -1.95771 l 1.0895,-4.35803 1.30656,-3.26851 1.52786,-2.83441 1.52362,-2.17901 1.96194,-1.74491 -0.87245,-2.17902 -1.52361,-5.44752 -1.31081,-1.52361 v -0.65541 l 0.22131,-0.8682 0.21703,-0.22129 h 0.65116 l 0.22129,0.43834 0.21703,0.21702 0.43411,0.21704 0.43835,0.65541 1.30655,3.91966 1.08951,2.40031 1.52361,1.30657 1.74491,0.43409 2.17901,0.21703 7.40948,-3.26851 1.52361,-2.17901 0.87246,-2.17901 1.30661,-1.52356 4.14096,-1.0895 3.48557,-1.5236 1.96196,-0.43835 1.08951,0.21702 1.96196,0.87246 1.08951,0.21703 0.8682,-0.43411 1.74491,-1.5236 0.65541,-0.2213 2.179,-1.95772 1.30656,-0.43835 3.70262,1.08951 2.39606,-0.21702 3.70688,-2.39607 1.74065,-0.43835 5.88587,-1.52361 2.39607,0.21703 17.4321,6.53703 21.57305,16.55964 2.17902,3.92392 0.21703,6.10293 h 0.65541 l 1.30654,-2.17901 1.08952,-2.61737 -0.21704,-1.96196 -2.61736,-0.8682 -0.87245,-1.52786 0.6554,-3.48552 1.0895,-3.48557 1.30656,-1.52785 3.70687,-1.30656 2.17901,-0.21703 3.70263,2.179 18.73864,1.96197 7.84358,3.70261 1.74492,0.43835 8.28195,-0.22129 1.74065,-0.8682 -0.21703,-2.40032 3.70262,-4.35803 -0.65116,-0.21702 -1.52785,-1.08951 0.65538,-2.61315 -0.6554,-1.30656 -1.52361,-0.22129 h -1.5236 l -1.96197,-0.43412 -1.30655,-1.30655 -2.17902,-3.92392 -1.0895,0.87246 -1.08951,0.87245 -1.3108,0.4341 -1.30656,0.21703 3.70687,-5.88163 0.86821,-0.87246 0.43834,0.43836 0.87246,1.95771 v 0.2213 l 0.4341,0.65115 0.87245,0.21703 2.61312,-0.21703 3.92393,1.0895 0.21702,0.87249 0.21702,1.52361 0.43836,1.3108 1.08951,-0.87245 1.52363,-1.96196 1.7449,-1.30657 h 0.21704 l 1.96195,-1.0895 1.95771,-0.65541 2.17902,-0.21702 3.92392,0.87245 2.61311,0.4341 1.96196,-0.4341 3.92392,-2.17901 2.17902,-0.65541 h 1.96195 0.21704 l 6.97113,1.30656 2.17902,1.52786 2.179,0.65116 0.21703,-0.65116 3.48982,-6.10293 3.26852,0.43835 h 0.43417 l 1.0895,-0.87245 2.61312,-1.08951 4.79637,-0.87248 v -0.87245 l -0.6554,-0.65115 -0.87245,-0.6554 1.52785,-0.43411 6.53703,-0.6554 2.39606,-0.6554 0.21704,-1.95772 -0.87246,-2.179 -7.84359,-9.1544 -2.61311,-3.05148 h -1.30656 l -1.74489,-1.30654 -1.0895,-0.43411 v -1.08951 l 1.7449,1.08951 11.32916,6.31998 1.96197,2.39606 1.74066,2.17901 1.52786,0.87247 3.26851,1.08949 2.39607,2.17902 3.26851,1.74066 0.6554,1.52786 0.86822,0.8682 1.52784,1.08951 1.96197,0.6554 1.30654,0.21703 1.30657,-1.30653 0.43411,-1.74491 -0.21704,-3.04722 -0.65114,-1.0895 -3.70688,-3.05148 1.52786,-0.43834 6.31574,-0.43411 h 0.22129 l 1.74066,0.87245 -0.65116,2.17902 -1.7449,2.83017 -1.08951,2.83441 2.17901,2.39606 2.61312,-0.4341 1.52786,-3.05147 0.87246,-3.92392 1.30654,-2.83017 1.96197,-0.43834 h 0.65115 2.39607 l 3.26851,0.6554 0.87245,0.4341 1.08951,0.6554 -0.87245,2.17901 0.6554,0.21704 1.30656,-0.87247 0.43835,-0.43409 1.30655,0.65541 1.96197,1.95771 0.86821,0.87245 v 0.87247 l -2.83018,1.30656 -1.30655,1.0895 -0.6554,1.52787 0.6554,1.08949 9.3672,5.88164 2.39606,0.87246 1.96196,-1.30656 0.43835,-1.52786 -0.65543,-3.05147 0.43412,-1.52361 1.0895,-0.21703 0.87245,0.43412 0.87245,0.87245 0.87245,0.21702 16.55965,-5.66458 h 17.64914 l 13.07407,-4.57507 3.70687,1.30655 2.39606,-1.30655 h 0.21702 l 3.48557,0.21703 19.39406,7.19244 1.74491,0.65115 4.35803,0.21703 1.9577,0.6554 1.74491,1.74492 0.87245,0.65115 h 3.70262 1.08951 l 4.57507,1.96195 2.17902,0.21704 h 3.70687 l 3.70261,-5.44754 3.48558,-2.39606 0.22129,-0.65539 1.0895,-1.52362 1.08952,-1.52361 h 0.43409 l 3.92393,-1.74486 22.00716,-4.79213 4.14097,-1.7449 10.0226,-9.80555 4.14098,-1.52362 6.75409,2.39607 7.84358,2.61312 3.48558,-1.52362 -1.08952,-6.31999 -0.21702,-4.14096 0.87245,-1.96196 5.23049,-7.62654 4.13671,-3.70262 1.96196,-1.30656 1.96194,-0.6554 h 6.75409 l 1.96195,-0.87246 0.87246,-0.86821 0.87245,-1.0895 1.08951,-1.0895 1.08951,-0.43835 2.17901,0.21702 1.30655,-0.21702 2.61312,-2.17902 6.97539,-2.39606 2.6131,-3.26852 2.17902,-5.23047 0.87246,-6.09869 -0.87246,-6.53703 -1.7449,-4.35803 -0.65116,-2.61736 -0.43836,-3.70261 0.6554,-0.43836 h 3.48557 l 0.87246,-0.65116 0.4341,-0.6554 0.43836,-1.0895 0.43409,-0.87245 0.87247,-5.44753 -2.39607,-1.52361 -32.90223,3.05146 -12.63997,3.91968 -21.7901,-2.39607 -1.08951,-1.30656 -1.5236,-2.61311 -1.08952,-3.05146 -0.22129,-1.96196 -2.17901,-0.21703 -0.4341,1.74066 0.4341,2.17901 0.87245,1.96196 -4.14097,-1.0895 h -8.9331 l -0.87245,-0.43412 -0.65116,-1.08949 -0.87245,-1.08951 -0.65541,-0.87248 1.74492,-1.30656 3.70262,-0.87245 3.26851,-3.05146 h 1.52786 l 3.70263,0.6554 2.179,-0.21703 1.08952,-0.87246 -0.21705,-1.52786 -1.30655,-2.39606 -1.52786,-1.0895 -16.34258,-2.39607 -2.17901,0.6554 -4.35802,1.30656 -0.43411,0.43411 -0.43411,1.0895 -0.43834,1.30656 -0.87245,0.43835 -6.53705,1.0895 1.52786,-0.87245 1.52362,-0.43409 1.52785,-0.87247 1.30656,-1.7449 0.65116,-1.74067 0.22129,-1.7449 0.65116,-1.08951 6.97539,-1.96195 h 2.17901 l 0.65115,-0.21704 1.52785,1.74491 1.52361,-1.52785 1.30657,-0.21704 h 1.30655 l 1.52785,-0.6554 1.96197,-1.74066 0.21703,-0.21702 0.21702,-0.22131 h 0.4341 1.31081 v 0.22131 l 2.83017,-0.22131 8.06489,1.31081 4.57507,-1.52786 1.30657,-0.87245 4.57506,-2.83016 5.23049,-4.79638 2.83441,-4.57508 -0.43835,-0.87245 -0.87245,-0.4341 -2.83017,0.21703 1.52363,-1.30663 0.87245,-0.6554 0.21703,-1.08951 v -3.70261 l 0.43835,-1.52361 1.08951,-0.87245 -0.87246,-1.96197 -0.43834,-1.30655 -0.21704,-1.30657 0.21704,-0.22129 0.43834,-1.30656 0.43411,-1.52361 -0.21704,-1.30655 -1.5236,-1.74491 -1.96196,0.4341 -2.83441,2.40031 -3.05148,1.30657 -6.53703,1.30654 -3.04722,3.05147 -1.0895,-2.61736 -1.7449,-0.8682 -1.74493,-0.22132 -1.74065,-0.8682 2.39606,-1.3108 4.57508,-1.95771 2.61737,-0.2213 0.8682,0.2213 2.40031,1.08951 h 1.08951 l 1.0895,-0.65541 1.74066,-1.30656 1.0895,-0.43834 0.65541,-0.86821 0.43411,-1.96196 0.21702,-1.96196 v -0.87245 l 0.87245,-0.43411 3.05148,-2.83441 3.92391,-1.96197 1.5236,-1.74065 0.21705,-3.26852 0.87249,2.39607 3.26852,4.57507 1.7449,3.26852 0.86821,0.87245 1.96195,0.21702 7.19244,-1.08949 3.26852,-1.30657 5.23048,-3.70261 5.88164,-5.23049 1.08949,-2.61736 v -3.48557 h -0.43409 l -0.87245,1.74492 -1.08952,1.08949 -3.70686,-0.65539 -1.52361,-0.65115 -1.30656,-0.87246 8.06064,-8.499 0.21703,-3.05146 -1.95771,1.30656 -16.99799,-1.08951 -1.7449,-0.8682 -0.86821,-0.43836 2.61311,-0.43409 4.79213,-1.74492 h 2.40031 l 2.83017,1.74492 1.30656,0.43409 1.08949,-0.21702 2.17902,-0.65541 1.31081,-0.21702 1.95771,0.6554 0.43838,-0.87248 v -2.61312 l -0.43836,-0.6554 -1.08951,-0.6554 -4.57507,-1.08951 -2.17901,-1.52361 -3.70263,-3.48557 v -1.0895 l 2.83017,0.65116 5.01344,3.92391 3.05145,1.08951 6.97115,8.9331 1.08949,-0.43411 1.30657,-1.74491 6.97538,-8.06064 2.61312,-3.70686 0.6554,-0.65116 0.87245,-1.08951 0.21703,-2.17901 0.65115,-1.30656 1.31081,1.08952 1.74066,-1.96197 8.06489,-3.26852 0.65116,-1.0895 v -2.17901 l 1.52785,-4.57507 0.43411,-3.05147 1.74491,-5.66458 0.65115,-3.26852 -0.21703,-7.40948 0.21703,-4.35804 1.08951,-1.7449 1.0895,-1.30655 3.26852,-5.88164 4.35802,-11.98456 0.21702,-1.74491 v -1.52361 l 2.61737,-8.71604 1.30656,-1.52787 0.43411,-1.52361 -2.39607,-7.84358 v -6.10294 l -0.21702,-3.26851 -0.65541,-2.61311 0.65541,-3.48982 -1.30657,-5.00918 -1.7449,-5.01343 -1.96197,-7.84358 -2.39606,-4.14097 -3.05146,-3.48558 -25.27568,-19.6111 -12.41866,-6.31999 -31.37862,-7.62653 v 1.0895 h 1.30656 1.0895 l 1.30656,0.43835 1.0895,0.86822 -4.57508,2.17901 -5.00917,-1.30656 -4.57931,-2.17902 -4.13673,-1.0895 h -8.499 l -2.17901,-0.4341 -2.39606,-1.08951 -2.17901,-0.43835 -2.17902,0.6554 0.86821,1.30656 -5.00918,-0.21703 -5.44753,1.0895 -5.01343,2.39607 -3.70261,3.70687 -1.30656,2.83016 -1.52786,4.14095 -1.30655,4.57508 -0.6554,4.14096 -1.30657,2.17903 -2.61311,3.05145 -1.96195,3.05147 0.43409,2.83017 v 1.08951 l -1.52361,-0.87246 -2.83441,-4.13672 -1.74065,-0.87246 -3.92393,-0.43835 -0.65115,0.22129 -1.52786,0.21704 -1.74066,1.30655 -2.61736,-3.05145 -5.23049,-8.27771 -2.39606,-1.52786 -1.52359,-0.65114 -2.83442,-2.40031 -1.30657,-0.43409 -5.23047,1.08952 -3.05147,-0.21705 -0.21702,-1.96196 1.30656,-2.39606 1.7449,-1.08949 2.39607,-1.08952 1.96195,-2.179 8.06065,-11.98457 1.52785,-1.0895 1.74066,-0.87247 9.15439,-9.15014 1.74067,-1.0895 1.96197,-0.43836 1.08949,-0.4341 0.65541,-1.30656 2.17901,-8.93734 v -7.18819 l -1.52785,-6.53704 -8.2777,-22.87961 -0.43835,-2.39606 -1.08951,-2.83442 -1.74065,-2.17902 -1.74492,-1.52361 0.87246,-1.0895 -3.05147,-2.17902 -0.87245,-0.22129 -0.65116,-0.65116 -0.21702,-1.52785 -0.22131,-1.95771 -0.21703,-1.0895 -1.74065,-1.96197 -1.74498,-0.87247 -1.96197,-0.4341 -1.96195,-0.87245 -7.62653,-6.31999 -2.17902,-1.74491 -4.79213,-6.09868 -1.5236,-0.65541 -3.48982,-0.4341 -1.74066,-1.30656 -3.26852,-3.70686 -4.35803,-2.39607 -1.0895,-1.7449 -6.31998,-9.80555 -1.96196,-3.48558 -2.83016,-1.30655 -18.30455,3.48556 -2.83441,2.39607 -1.52361,0.43835 -1.52785,-0.87246 -1.08952,-1.30655 -4.13673,-3.05147 -2.4003,-0.6554 -3.04722,0.2213 -2.83442,1.30655 -1.52361,2.83018 -0.87245,-0.65116 v -0.21703 l -0.87245,-0.65542 -0.87246,-0.43412 -0.87245,-0.43833 6.97539,-4.57509 2.179,-0.87245 5.88164,0.87245 0.21703,0.21703 2.61737,2.61737 0.65115,0.21702 3.48984,-0.8724 h 6.09868 1.96196 l 12.85701,-4.35803 0.87247,0.21703 3.70261,0.65541 3.48557,2.61311 9.80556,12.63996 1.7449,1.52361 2.17901,1.08951 2.17901,0.6554 2.61311,0.43411 2.17901,-0.65116 3.92393,-2.40031 1.96196,-0.65116 2.17901,0.87245 4.57507,3.26853 1.96196,0.65115 1.74066,1.30657 -0.65116,3.05145 -2.179,5.23048 2.179,-1.7449 0.65116,-0.65116 1.30656,-5.66458 -1.74065,-5.66883 -18.08751,-27.23764 -10.89505,-16.99374 -1.74066,-5.23048 -3.05147,-11.32917 -2.17901,-5.01342 2.61312,-6.75408 3.05146,-3.70688 9.15016,-5.00917 -3.70264,-3.48555 -9.15014,-3.48981 -3.48983,-1.52361 -2.6131,-2.83442 -0.21704,-0.65115 -0.65539,-4.57507 -0.87246,-1.96196 -2.39606,-1.08951 -1.08951,-1.30655 -1.0895,-0.6554 -4.14098,-1.08952 -0.86819,-1.0895 -1.74492,-2.8344 -0.87245,-0.86822 0.21702,-0.6554 0.43836,-1.7449 -1.08951,-0.43412 -0.87245,-0.87245 -0.43411,-1.0895 -0.43834,-1.30656 v -3.48556 l -1.30656,-4.35804 -1.74491,-4.14096 -1.52361,-2.83441 -1.30656,-1.52362 -3.48556,-2.39606 -1.08951,-1.52786 -0.2213,-1.74066 0.2213,-1.30655 -0.2213,-1.74491 -1.30655,-2.39606 -2.83018,-2.83441 -22.01142,-14.16358 -0.8682,-0.4341 -20.9219,-6.75411 -5.00918,-3.26851 -4.35803,-0.65541 -1.96195,-0.6554 -1.7449,-1.52361 -1.74068,-2.39607 -0.87245,5.00917 -0.65539,0.87245 -1.30657,0.21705 0.21704,-0.21705 -0.21704,-0.87245 -0.4341,-0.8682 -0.21702,-0.43835 -0.43837,-0.21702 -0.21704,0.4341 -0.21703,0.6554 -0.21703,0.21703 h -0.87245 -0.21703 l -0.65547,-0.43408 -0.4341,-0.65541 -0.22131,-1.30655 2.40032,-1.08951 1.08951,-0.87245 0.65114,-1.52361 -0.65114,-0.87246 -0.65541,-1.30656 -0.4341,-1.0895 -0.22129,-1.52785 -0.65116,-1.08951 -0.21704,-0.4341 v -0.87246 h 2.17902 v -1.30656 l -5.44753,-2.39605 -1.52785,-1.30657 -0.43411,-0.6554 -3.26852,-3.92392 -2.17902,-5.66458 -4.35802,-16.34257 -1.52785,-5.66458 0.2213,-1.7449 -0.6554,-0.65116 -0.21704,-1.52784 -0.21702,-3.91968 v -1.08951 l 0.21702,-0.87246 v -0.87245 l -0.87245,-1.96196 -2.83441,-3.04722 -0.43411,-0.6554 -1.08951,-0.65541 -0.65539,-2.179 -0.4341,-2.17901 -0.65541,-1.52361 -0.8682,-1.74491 -1.52786,-4.35802 -0.21703,-0.4341 -0.21704,-1.08951 -0.21702,-0.4341 -0.43835,-0.43835 -1.30656,-0.65116 -0.21703,-0.22129 -0.43835,-1.08952 -0.86821,-3.91967 -0.43835,-3.70687 -0.4341,-1.30656 -1.74491,-2.83016 -0.4341,-1.7449 0.4341,-1.52361 0.6554,-1.52787 0.43411,-1.96195 -0.65116,-1.74066 -1.08951,-0.87245 -0.43835,-1.08952 0.65541,-2.39606 -2.17901,-2.61736 -1.30656,-1.95771 -0.6554,-2.17901 -0.21704,-1.089507 -0.43835,-1.089505 -0.21702,-1.310807 0.43835,-1.306556 0.4341,-0.651155 0.4341,-0.872453 0.2213,-0.872455 v -0.872454 l -0.2213,-3.051467 -2.6131,-4.575073 -0.65541,-3.919672 0.22129,-1.527857 v -1.089505 l 0.43401,-2.830166 0.21702,-1.744908 -0.43411,-12.201615 -0.43834,-2.179011 -0.65116,-0.655403 -1.08951,-0.651154 -0.43834,-0.872455 0.87245,-1.527858 v -1.306556 l -1.96196,-1.740661 -0.86821,-0.655401 v -1.306558 l 1.30656,-1.089505 -1.08951,-1.089507 -0.6554,-1.306557 -0.21703,-1.527856 0.65541,-1.089507 V 40.56495 l -6.97539,-5.013427 -2.17902,-0.21703 -3.70261,1.089506 -1.08951,-0.872454 V 34.46204 h 1.96196 l -0.87245,-2.613114 -1.30656,-1.523608 -1.3108,-0.655404 -1.08952,-0.217029 -0.43409,0.434058 -0.43411,0.872455 -0.65541,0.872454 -0.87245,0.434103 -0.4341,-0.651154 -0.43835,-1.310805 -0.65115,-1.306557 -2.17901,-1.523609 -1.08951,-2.179012 -1.52785,-4.358022 L 528.80169,3.3047041 Z M 282.13926,420.14708 l -13.07407,4.57932 -1.74492,1.30656 0.87247,2.61312 0.21703,2.39606 -0.43412,5.66883 v 3.70261 l -0.21702,2.61312 -0.43836,1.74492 v 1.30654 l 1.74492,2.39607 3.48557,6.53703 1.96196,1.96197 0.4341,1.30655 v 1.31081 0.43409 0.43412 1.52785 0.4341 h 0.21702 l 0.87246,-0.21703 0.43835,0.21703 3.26852,2.83442 0.21703,0.65116 1.30656,-0.65116 2.39607,-3.26852 1.52785,-0.87245 1.0895,0.87245 -0.6554,1.52361 -1.0895,1.52786 -0.87245,0.86821 -0.21704,0.65539 -0.21703,1.30656 v 1.74491 l 0.21703,0.87245 0.6554,0.21703 0.65116,-0.21703 0.6554,-0.65541 v -0.43409 l 2.61312,1.30656 1.30655,0.21703 1.08951,-0.43411 6.53703,-3.92392 1.52787,-1.96196 3.70261,-2.61311 0.43836,0.21702 0.21702,-0.21702 0.21703,-1.30656 v -1.3108 -0.65116 l 0.21703,-0.43835 0.43835,-0.65116 1.95773,-2.179 2.40032,-1.96197 2.39606,-1.30655 2.61311,-0.43836 2.39607,-1.30654 3.48982,-6.7541 2.17901,-2.17901 -1.31081,-1.08951 -1.30656,-0.21703 h -3.05146 l -0.43404,-0.21702 -1.30657,-0.87245 -0.65539,-0.21704 -0.65116,0.43411 -0.87245,1.7449 -0.6554,0.43411 h -1.0895 l -2.39607,0.87243 h -1.30656 l -1.30655,-0.21702 -0.43836,-0.87247 -0.21702,-1.52788 -0.43413,-1.9577 -1.74491,-1.96196 v -0.43836 l -0.4341,-0.43409 v -0.87246 l 0.21703,-1.30656 -0.21703,-0.87246 h -0.43836 l -1.5236,-0.87245 -1.30656,-0.8682 0.21704,-0.43836 -0.43836,-1.0895 -0.21703,-1.96197 -0.43411,-2.179 -1.0895,-0.8682 -3.92392,-2.17903 -1.96196,-0.22129 -6.97114,-1.08951 z m -24.62454,17.65339 -2.83016,2.39606 v 1.30657 l 1.74066,2.83441 0.65541,0.43411 3.05146,-0.21705 0.86821,0.21705 0.87246,1.30654 2.179,3.70688 2.17901,1.9577 0.87246,0.43836 0.87245,-0.43836 0.65115,-1.74065 -0.65115,-1.30656 -0.87245,-1.0895 -0.43411,-0.87247 -0.43835,-2.39605 -0.87246,-1.96196 -1.5236,-1.96197 -1.52361,-1.5236 -0.6554,-0.6554 -1.96197,0.21703 h -1.08949 z m 554.55844,313.77765 -1.30657,0.4341 -0.6554,0.87246 -1.30655,4.57506 0.87245,1.96197 1.52361,2.17901 1.74491,1.96196 1.96196,0.65116 11.98456,1.0895 2.61312,-1.0895 0.43834,-1.96197 -0.87245,-2.39607 -2.17901,-2.39606 -1.08951,-0.87245 -1.08949,-0.65115 z m -554.99253,41.40122 -0.65541,0.21702 -0.21702,1.96197 v 2.39606 l 0.87245,1.0895 0.65114,-0.87243 v -1.96196 l -0.21705,-1.08951 v -0.65116 z m 377.40309,59.26741 -2.61311,4.57506 -2.17902,0.87246 v 1.08951 l 8.2777,1.30655 v -1.30655 l -0.65115,-0.4341 -0.87246,-1.08951 -0.6554,-0.6554 v -0.87246 l 0.87245,-0.87245 0.43835,-0.65115 -0.22129,-1.08951 -1.08951,-0.87245 z m -35.29828,9.15014 -2.39606,1.96196 -3.48982,4.14097 -2.39606,1.96196 -2.61312,0.4341 0.21704,-0.65114 0.21702,-1.08952 0.21703,-0.43834 -8.71605,4.14097 -4.13673,3.48557 -2.4003,4.57507 1.74491,-1.08951 1.74491,-0.86821 3.70261,-0.43834 1.30657,0.43834 3.26852,2.61312 0.87245,0.87246 13.29112,9.58849 3.70687,1.08952 11.32916,-3.48982 0.21702,-0.65115 0.21703,-1.96197 -0.21703,-3.48557 0.43836,-0.6554 0.4341,-0.87245 2.83442,-2.39607 1.74065,-0.87245 3.70686,-1.0895 0.4342,-0.43411 0.21703,-0.4341 0.21703,-0.22131 h 0.43835 v -1.30655 l -1.96197,-3.26852 -0.43409,-0.21703 -0.87245,0.21703 h -0.21703 v -0.4341 -1.30655 -0.43836 l -1.31081,-1.0895 -0.86821,-0.21703 -2.61736,0.21703 -15.47012,-6.31999 z M 85.81118,990.83102 v 1.30656 l 0.651155,1.74491 1.089504,0.4341 0.438353,-1.08951 v -1.30656 l -0.655404,-0.43409 -0.217029,-0.21704 -0.655403,-0.43835 z m 5.009178,4.57507 -0.872455,1.08951 -0.21703,2.40031 1.306558,0.43413 1.089505,-0.65543 0.2213,-1.30656 -0.872455,-1.5236 z"
     inkscape:connector-curvature="0"
     style="fill:#78b967;fill-opacity:1;stroke:#ffffff;stroke-width:1.08950567;stroke-opacity:1" />
  <g
     id="stadiums"
     data-country="england_and_wales"
     data-circle-radius="6"
     data-circle-colors="#a149be,#bea149"
     transform="matrix(2.1780847,0,0,2.1780847,29.749989,1.281236)" />
</svg>
