<?xml version="1.0" encoding="UTF-8" standalone="no"?>
<?xml-stylesheet type="text/css" href="/styles/home.css"?><!-- https://www.amcharts.com/svg-maps -->

<svg
   version="1.1"
   id="map-kazakhstan"
   viewBox="0 0 1000 1000"
   width="1000"
   height="1000"
   class=""
   sodipodi:docname="kazakhstan.svg"
   inkscape:version="1.3.1 (91b66b0783, 2023-11-16)"
   xmlns:inkscape="http://www.inkscape.org/namespaces/inkscape"
   xmlns:sodipodi="http://sodipodi.sourceforge.net/DTD/sodipodi-0.dtd"
   xmlns="http://www.w3.org/2000/svg"
   xmlns:svg="http://www.w3.org/2000/svg"
   xmlns:rdf="http://www.w3.org/1999/02/22-rdf-syntax-ns#"
   xmlns:cc="http://creativecommons.org/ns#"
   xmlns:dc="http://purl.org/dc/elements/1.1/">
  <metadata
     id="metadata24">
    <rdf:RDF>
      <cc:Work
         rdf:about="">
        <dc:format>image/svg+xml</dc:format>
        <dc:type
           rdf:resource="http://purl.org/dc/dcmitype/StillImage" />
        <dc:title />
      </cc:Work>
    </rdf:RDF>
  </metadata>
  <sodipodi:namedview
     pagecolor="#ffffff"
     bordercolor="#666666"
     borderopacity="1"
     objecttolerance="10"
     gridtolerance="10"
     guidetolerance="10"
     inkscape:pageopacity="0"
     inkscape:pageshadow="2"
     inkscape:window-width="1920"
     inkscape:window-height="1106"
     id="namedview22"
     showgrid="false"
     showguides="true"
     inkscape:guide-bbox="true"
     inkscape:zoom="0.59546637"
     inkscape:cx="550.82876"
     inkscape:cy="227.55273"
     inkscape:window-x="-11"
     inkscape:window-y="-11"
     inkscape:window-maximized="1"
     inkscape:current-layer="map-kazakhstan"
     inkscape:showpageshadow="2"
     inkscape:pagecheckerboard="0"
     inkscape:deskcolor="#d1d1d1">
    <sodipodi:guide
       position="1346.6068,500"
       orientation="0,1"
       id="guide834"
       inkscape:locked="false"
       inkscape:label=""
       inkscape:color="rgb(0,0,255)" />
    <sodipodi:guide
       position="553.09851,773.74614"
       orientation="0,-1"
       id="guide1"
       inkscape:locked="false" />
  </sodipodi:namedview>
  <defs
     id="defs4">
    <style
       id="style2"
       type="text/css">
			.land
			{
				fill: #87a4c3;
				fill-opacity: 1;
				stroke:white;
				stroke-opacity: 1;
				stroke-width:0.5;
			}
			.water
			{
				fill: #CCCCCC;
				fill-opacity: 1;
				stroke:white;
				stroke-opacity: 1;
				stroke-width:0.5;
			}
         .rectangle:hover {
         fill: #bdbdbd;
         cursor: pointer;
         }
		</style>
    <!-- <amcharts:ammap projection="mercator" leftLongitude="46.488635" topLatitude="55.432742" rightLongitude="87.315881" bottomLatitude="40.549293"></amcharts:ammap> -->
    <!-- All areas are listed in the line below. You can use this list in your script. -->
    <!--{id:"KZ-AKM"},{id:"KZ-AKT"},{id:"KZ-ALM"},{id:"KZ-ATY"},{id:"KZ-KAR"},{id:"KZ-KUS"},{id:"KZ-KZY"},{id:"KZ-MAN"},{id:"KZ-PAV"},{id:"KZ-SEV"},{id:"KZ-VOS"},{id:"KZ-YUZ"},{id:"KZ-ZAP"},{id:"KZ-ZHA"},{id:"KZ-AS"}-->
  </defs>
  <path
     id="KZ-AKM"
     title="Aqmola oblysy"
     class="land"
     d="m 479.19587,351.64457 3.94874,0.23976 2.08162,4.36621 3.65859,-1.62787 4.66785,-0.71928 0.17661,3.88668 h 7.85966 l 2.4853,1.33762 2.71241,0.34072 1.56436,-0.89595 5.1851,1.84239 -0.27755,-8.44219 5.45004,-0.15143 1.43819,1.79192 3.49458,1.41334 3.25488,2.75096 1.42559,-1.41333 -0.6308,-0.88334 0.74434,-1.29978 0.97142,0.74453 3.06564,-3.34406 -0.27754,-1.19881 -1.50129,-0.60572 -0.54248,-2.75096 3.57027,0.0757 0.9588,-2.13264 1.04712,-0.60571 2.69979,0.36595 1.7662,-4.45456 2.77549,-1.16095 0.41632,-1.50167 4.69308,-1.86763 -2.08161,-2.3724 1.3499,0.27763 -1.16066,-4.02549 3.77212,-3.48287 -1.4382,-1.99382 0.8705,-0.27763 0.0883,-1.71619 -0.42894,-1.40072 -1.70312,-0.13881 0.31539,-2.90239 -2.73764,-0.21454 -0.76956,-1.60261 -1.34989,-0.4543 -0.11355,-1.38809 -1.76621,-2.56168 0.74434,-1.14834 1.74098,-0.39119 0.0505,-1.03477 1.24897,-0.94643 0.64341,0.74453 0.75694,-1.50168 -1.1985,0.0757 -0.0757,-2.08215 3.60813,0.10095 0.55509,-0.6562 -1.26157,-2.70049 1.89236,0.13882 0.21448,-1.02215 2.40961,0.17667 0.11354,1.23667 3.45674,-0.25238 -0.0757,-2.10739 2.40962,0.18928 0.0757,1.75406 1.53914,0.30285 0.29016,1.06001 1.02188,0.265 0.50463,3.34406 1.69052,0.47953 0.79481,-1.84239 -1.36252,-0.29023 -0.41632,-1.94335 1.0345,-0.10095 0.45416,-2.05692 1.36252,0.29025 0.58032,-1.17359 1.1985,-0.0757 0.92095,-0.98428 5.32387,0.0884 0.23971,1.94334 1.34989,0.46691 0.27755,4.20216 -0.59294,1.33762 0.83264,0.41643 0.55509,-0.82024 3.04042,0.76976 1.75359,-0.71928 0.21447,2.27143 -1.05973,0.60572 0.27755,1.07262 -1.03449,0.0883 0.10092,1.21144 -0.73172,0.64358 4.79401,-0.1262 1.23635,-0.5931 2.62409,3.86145 0.36586,1.94334 2.38438,-0.31547 -0.45416,-2.97811 2.22039,-0.3281 0.59293,-3.41978 10.35759,-0.29024 -0.13878,3.6343 3.96136,0.70668 0.26494,0.73191 2.16992,0.0252 2.18253,-1.88025 1.52651,-0.21452 0.82004,-1.6531 2.49793,0.0631 -0.15139,1.55215 5.08416,5.52716 -1.77882,4.35359 0.78218,2.15787 -1.56437,0.70667 0.0252,1.38809 1.51391,2.92764 7.15316,0.89596 5.80327,-0.44167 1.14805,-3.00335 4.73093,-1.04738 1.0471,0.98429 2.28347,-1.13572 2.64933,-0.0252 0.79478,-1.13572 0.83264,-0.0757 0.52987,4.29049 1.0345,1.17359 0.68126,7.25597 3.14133,-1.33762 4.69308,2.38502 3.33057,-0.0757 0.30279,1.61524 1.82929,-0.0884 1.75359,3.36931 9.4871,0.70667 v 0 l 0.0757,0.70667 1.28681,0.18928 0.56771,25.18773 0.51725,1.09786 -1.50128,0.29025 -4.21368,3.62167 -0.12616,7.43266 4.49123,-2.20834 1.24896,2.88977 2.88903,0.265 2.397,1.37548 -2.8764,2.25882 -2.49793,-0.70667 -5.46266,3.57121 -0.36585,2.80145 -2.64932,3.12953 v 0 l -4.20107,-1.24929 -1.58959,2.44811 -0.70648,-2.09477 -0.66864,0.23976 0.39109,0.71929 -2.00591,0.56786 -0.66864,-1.09787 -1.18589,0.50477 -0.4037,1.95596 1.07234,0.47953 1.51389,3.3693 -0.2523,0.795 0.8831,0.61834 1.31204,-2.81406 4.45338,1.61524 -3.64597,3.48287 -6.50976,2.10739 0.8705,2.1074 -3.46935,0.8581 -0.99665,1.69095 -3.96137,-1.67834 -1.4382,2.62477 -0.97142,0.21453 0.46679,1.37549 -1.65268,1.93071 -3.54503,0.21453 -0.15139,1.29976 -0.89573,-0.44167 -1.24896,1.16096 0.69386,0.90858 -1.77882,1.57739 2.66193,1.80452 -2.03114,1.06001 -2.81333,-1.81715 -0.97141,1.5143 -1.81668,0.60571 0.54248,3.65954 -1.64006,0.45429 0.34062,1.18619 -3.06564,-2.33453 -5.14725,0.54262 -0.60556,1.23668 -1.5265,-0.50477 2.2456,-3.1674 -0.44155,-1.84239 0.74433,-1.06 -0.97141,-1.26191 1.6779,-2.25881 -2.77548,-2.46073 -1.7662,0.12619 -0.32802,-1.35024 -1.66529,0.63095 -0.35324,-1.1862 -1.13542,0.20191 0.0505,0.98429 -3.6712,1.56477 -0.69387,3.68477 -1.75359,-0.0252 -0.79481,1.55216 -2.19515,-0.23976 -1.91759,1.59 0.51724,1.1862 -3.24227,2.27144 -3.73427,0.90858 -0.31541,8.07622 -1.76621,-3.09168 -5.28602,2.37239 1.52651,3.87406 -0.78217,1.53953 -2.71241,0.36596 -5.50049,3.18001 -1.5139,-0.78238 0.10093,-2.73835 2.18254,-3.18002 -0.51726,-1.17357 -1.14803,0.37858 -0.74433,-2.17049 -7.63257,2.20834 -4.466,0.40382 0.59295,-3.16741 -1.42559,-0.12618 -1.64006,-3.06645 -1.38773,1.33763 -0.45418,-2.14525 -3.33057,1.81715 0.8705,2.82668 -2.01853,1.27453 -1.81668,-0.95906 0.164,3.72264 -1.69051,-0.78238 -3.15396,1.66572 -3.17918,-2.03167 -1.42559,-0.11358 -0.40371,-0.9969 -1.96807,0.64357 -0.84525,-1.5143 1.75359,-1.95595 1.02189,-4.77003 1.08496,-1.69095 -0.54249,-3.29359 1.18588,-0.71929 0.34064,-8.59361 -7.60734,0.21453 -0.75694,1.40072 -2.98995,1.07263 -5.32387,4.00025 -2.3087,-1.80454 -4.92016,0.46691 1.64005,2.22097 0.17663,2.13262 v 0 l -2.91426,2.22097 -10.6856,1.38809 -5.77803,3.67217 -3.48197,-5.38836 2.72501,-1.61524 -1.60219,-3.98764 -2.10685,-0.76977 -6.06821,1.76667 -6.53498,-2.32191 -1.94284,-1.40072 -3.04042,0.80762 -1.2742,-5.12335 -1.87975,0.88334 -0.80741,-0.69405 -1.18589,0.58047 0.0505,-1.46381 -0.85788,0.76977 -0.21446,-3.11693 -4.59215,-2.70049 -1.52652,4.98455 -4.88232,0.55524 -0.93358,-2.00644 1.61483,-7.62193 -5.22295,-5.06026 1.38775,-1.2493 -2.10684,-2.75096 3.49457,-3.11692 -1.16065,-0.89596 2.06899,-6.01931 -2.23299,-4.63121 -3.06565,-0.16405 -1.23635,-4.25264 4.26415,0.41643 6.43407,-3.3062 2.09422,-10.77672 3.00256,-2.5112 z"
     inkscape:connector-curvature="0"
     style="fill:#87a4c3;fill-opacity:1;stroke:#ffffff;stroke-width:0.630873;stroke-opacity:1" />
  <path
     id="KZ-AKT"
     title="Aqtöbe oblysy"
     class="land"
     d="m 307.00266,591.82397 -5.86635,2.46073 -2.29608,4.05073 -1.08495,5.12336 -1.07235,0.54262 -0.87049,2.39762 -45.36645,14.01983 v 0 l -3.51982,-25.9575 -2.20777,-6.12027 v 0 l -2.01853,-3.94978 0.45417,-1.48905 -2.88902,-3.73525 -0.30279,-4.66907 -19.37788,-6.36002 -7.35501,-7.40742 -1.52652,-5.93098 -3.65859,-4.61859 2.8638,-20.51867 -1.66529,-2.8393 -0.54249,-6.82693 -3.82258,-4.27788 0.88311,-3.35667 -2.29608,-7.44527 0.80741,-5.85527 0.7191,-0.56786 -0.11354,-5.91837 -4.40292,-0.37857 -0.0126,-1.56477 -1.84191,-1.33763 -0.80741,1.36287 -1.60221,-0.41643 -0.52986,5.40098 -9.99172,-1.62786 0.98404,-2.49859 -1.04713,-2.38501 0.7065,-2.14525 -1.70314,-8.64409 -1.28681,-0.30285 -1.11019,2.85191 -1.50128,-0.74452 0.36585,-0.99692 -2.97733,-1.35024 -1.94283,-1.79191 v 0 l -0.2271,-3.49549 1.61484,-5.51455 -0.85788,-1.96858 1.52651,0.75715 0.99666,-2.54906 1.89237,-1.70358 2.397,0.0126 0.44155,-1.82977 5.12203,0.31548 2.40961,-1.42595 -0.56771,-1.0474 2.22038,-3.49549 h 2.7124 l -1.4382,-1.75405 2.35915,-4.15168 1.00927,-3.34407 -0.3154,-1.9181 -2.88901,-2.1074 0.36586,-5.90574 -1.84191,-2.56168 2.61146,-2.7762 -0.41632,-1.09786 3.09088,-3.68478 -0.37847,-0.54262 v 0 l 1.21111,0.34071 2.7881,-3.53334 -1.79145,-6.78908 1.24897,-3.24311 2.88903,0.41643 1.31203,1.74143 1.1985,-1.42595 1.53914,-0.15143 0.46678,-1.52691 1.04711,-0.51738 1.24896,1.00953 -1.02187,2.83929 0.88311,1.11048 6.3079,5.55241 3.1918,-0.42905 0.50464,1.18619 4.56692,2.78883 1.02188,-1.59002 5.85373,-2.92762 3.91091,-2.90239 0.0379,-2.92764 1.34989,-3.73525 4.04967,0.88334 0.9588,-2.32192 1.93023,-0.23977 -0.23971,-3.41977 0.82004,-0.93382 3.41889,3.8236 2.32129,0.69405 0.49202,-1.29978 -0.56771,-2.83929 2.52317,-0.13881 1.76621,1.11048 1.32466,-0.84548 1.58959,0.90858 3.93614,-1.69096 0.89571,2.01906 1.741,1.02214 1.43819,3.39454 3.9109,2.00643 0.25233,-1.56476 2.03114,-0.97168 1.24896,0.0127 0.66864,1.23666 1.0345,-0.45428 0.74432,-8.03837 1.56438,-0.37857 1.32465,1.43858 1.32467,-0.60572 0.45416,0.90858 1.38775,0.44167 2.14469,-1.66573 0.40369,1.82977 1.84191,0.42906 0.99665,-1.37549 -0.17661,-1.1231 1.90498,-1.11049 0.83263,0.34073 1.1102,2.86453 3.28012,-0.0757 1.46343,0.75715 0.94618,1.96858 -0.92095,2.68787 0.7948,4.41669 1.32466,0.41643 3.09087,-0.73191 0.18923,2.47334 1.69052,0.80762 1.28682,1.96858 7.56949,0.87072 1.52651,1.07262 0.58032,-0.49214 2.10684,0.50477 2.14469,-0.44168 1.55175,2.13264 -0.59295,0.76976 0.35325,2.68787 7.38025,-2.68787 4.18845,-9.43908 1.58959,-1.41335 2.76286,0.80762 0.30278,2.12001 2.98995,3.73526 3.9109,0.89595 8.61659,0.34072 4.40292,-0.97167 10.25667,-4.17692 0.95879,-1.51429 2.9521,-16.01365 2.05638,-0.69404 v 0 l 1.62744,0.79499 1.80406,-0.79499 1.09757,-1.91811 1.71576,2.65001 1.42558,6.56194 1.9933,0.78238 1.95545,-2.29668 3.63336,2.18311 v 1.51429 l -0.82003,0.13881 -0.82004,2.8393 4.41555,4.30311 -2.77548,1.93072 0.47939,4.4924 3.43151,-1.07262 2.24561,11.43291 3.24227,5.16121 0.49202,1.96857 5.33649,7.97529 0.47939,1.96858 -1.18588,4.1643 -3.88567,-3.19263 -3.91091,3.47025 -0.35325,4.03812 -3.87305,2.35977 0.79481,4.35358 0.79479,1.13573 -2.88902,-0.99691 -2.0816,2.7131 5.7528,9.03529 -0.80741,0.61832 -0.4794,-0.47952 -3.67121,0.5931 -0.63079,1.75405 3.17919,-0.29024 1.7536,6.06979 6.83777,6.76384 5.29864,-2.88978 2.54839,2.27144 0.15139,1.41334 -1.62744,2.17049 0.93357,3.1674 7.99843,2.71311 1.42558,1.60263 3.99922,1.51429 3.97397,2.7762 5.28603,10.09528 v 0 l 4.49123,7.8617 2.233,0.99692 -5.43741,5.99407 -28.91544,20.21581 v 0 l -1.84191,0.5931 -1.07235,-1.53954 -7.05224,-1.09786 1.05973,-2.4481 -6.76206,-8.60624 -3.06566,0.46691 -6.20698,-10.15839 -14.89926,3.43241 -8.43999,22.57558 -10.25665,-0.84549 -0.70648,7.77337 -7.51903,0.61834 -9.87817,9.17408 z"
     inkscape:connector-curvature="0"
     style="fill:#87a4c3;fill-opacity:1;stroke:#ffffff;stroke-width:0.630873;stroke-opacity:1" />
  <path
     id="KZ-ALM"
     title="Almaty oblysy"
     class="land"
     d="m 783.18646,547.4552 4.1506,3.34406 3.09088,0.27763 1.19849,3.07906 10.91269,-1.22406 7.69564,10.78933 11.66962,-4.07597 5.23556,2.17049 -0.10092,2.52382 15.51745,7.67242 7.61995,0.18928 1.37513,2.09477 v 0 l 2.53576,-0.93381 v 0 l 1.51391,2.72573 1.09757,-1.55216 v 0 l 0.71911,0.0127 -0.92096,1.43857 0.82003,0.17667 v 0 l 1.71574,0.68143 1.37514,-1.48905 -0.45419,1.23666 v 0 l -1.23633,0.9212 1.41296,0.16405 -0.87048,1.14833 8.12458,9.52743 v 0 l 1.9176,7.25599 3.97398,4.32835 -0.45417,7.29384 0.89573,0.7824 2.53577,-0.90858 v 0 l 3.48197,2.67525 4.57953,1.38809 0.65603,2.49858 -0.93358,4.45455 -2.59885,3.83621 -4.40292,-3.67217 -1.31205,-0.32809 -7.30454,2.75097 -1.38775,-1.81715 -1.94283,0.15143 -0.74433,-3.53336 -2.40962,-2.08215 -1.55175,0.44167 -3.45673,2.73835 -1.21112,0.20191 -0.52986,-0.64358 -1.17328,1.11049 -1.0345,-0.40382 -0.74432,0.70667 -1.70314,0.0505 -1.45082,1.21144 -1.43819,-0.29024 -0.74434,1.53953 -3.0278,0.25239 -1.48866,1.27452 -3.96137,-1.50167 -0.79479,1.26191 -2.20778,0.93382 -3.33057,-0.25239 -2.18253,2.52382 -1.77883,-0.75715 -2.19515,1.22406 -3.34319,-0.63096 0.0252,1.35025 -0.73172,-0.12619 -5.19771,4.20216 2.92687,0.45429 0.7191,2.13262 0.99665,0.54263 6.09343,-1.32501 0.23971,0.8581 1.26158,-0.18929 0.58032,1.14834 2.88902,1.85501 0.12617,0.90857 -3.09088,1.7162 1.04711,1.61525 -1.50127,4.37883 1.82928,11.98814 2.51054,10.01958 5.52573,12.65696 -2.03114,5.14859 2.34654,0.40381 1.00926,3.81096 -0.55509,1.03477 -4.50384,0.56786 -5.00849,3.07907 0.37848,1.77929 1.93022,1.52692 2.09422,0.54262 0.4794,1.09787 -2.16991,0.31547 -2.48532,1.80453 -3.41889,-0.0379 -0.97141,4.11382 -1.24897,2.25882 1.03449,2.95287 1.6653,1.04739 -1.65267,1.80452 0.44156,3.62169 1.14803,0.82024 -0.29017,0.99691 0.59295,0.82024 -0.21447,1.21143 -0.80742,0.46691 -1.18588,-0.34071 -1.93022,0.84548 0.0379,-2.20834 -0.85788,-1.84239 -2.51056,-1.55215 -1.04711,-1.98121 -1.46343,-0.10095 -0.5551,0.58048 -0.36585,-0.75714 -4.36507,-1.09787 -1.18589,0.83286 -2.59886,-0.15142 -3.70905,-4.39146 -3.41889,-2.15786 -1.00925,-1.76667 v -2.53644 l -1.905,0.44166 -0.6434,1.00953 -1.18588,-1.22405 -2.35916,0.0505 -5.05893,-1.84239 -0.90835,0.3281 -0.69387,-0.93381 -2.51055,-0.58049 -1.50128,-1.23666 -2.13207,0.88333 -0.78218,-0.29024 -1.02188,1.00952 -3.7469,-0.85809 -0.50463,0.78238 -1.22374,-0.21452 -1.18588,0.8581 -0.92096,-0.95906 -1.29943,0.58049 -0.78217,-0.84549 -2.96472,-0.34071 -0.73172,-0.83286 -8.20027,-0.84548 -4.65524,0.74453 -2.05638,-1.53953 -6.04297,-0.78239 -2.03115,0.0252 -2.22039,1.21143 -0.79478,1.36287 -5.10941,-0.45429 -0.70648,0.99691 -3.38104,0.78238 -1.93022,-1.79191 -5.70235,0.31548 -2.64932,-1.48906 -2.77548,0.74453 v 0 l -0.44155,-1.16096 -1.27419,0.55525 -1.36251,-0.8581 -2.37177,0.265 v 0 l -0.27755,-0.54263 1.41296,-0.42905 v 0 l 0.65603,-1.33763 -6.98916,-2.67525 -0.58033,-2.39763 -0.94619,-0.41643 0.34063,-1.4512 -0.93357,-0.55524 0.27755,-2.85191 3.25488,-3.94978 -0.88311,-1.48906 -3.6712,0.45429 0.36586,-1.17357 -2.22038,0.39119 -4.13799,-1.4512 -0.0127,-2.17049 6.29529,-5.53978 0.58032,-1.57739 -0.56771,-2.43548 1.64005,-2.71312 -0.11353,-4.21477 -2.5484,-1.74144 -1.38774,-1.88025 -1.52651,-0.21452 -2.76286,-2.20834 -5.47527,-0.5931 -4.68046,-4.47978 -0.79481,-1.24929 1.12282,-4.13907 -2.34655,-4.05073 -7.87225,-5.51455 -1.43821,-2.65001 -0.20186,-4.21479 -6.87561,-0.17666 -0.44156,-6.44836 7.40549,0.54262 -1.33728,-3.52073 -1.05973,-12.87149 2.33393,-3.93716 v 0 l 4.11276,-7.84908 v 0 l 14.69742,-14.54983 14.01616,-8.06361 5.84111,1.17358 7.4938,-1.3881 8.36429,1.47644 -0.0252,1.03476 v 0 l 1.41298,0.37857 1.6779,-1.98119 v 0 l 0.68125,2.05691 0.75694,-0.92119 2.233,0.80762 0.76957,-1.81715 7.56949,2.57429 -2.64932,-2.67525 1.70313,-0.31547 2.58625,1.325 2.43484,-0.34071 2.44748,1.29977 0.80741,2.06952 1.8419,-0.27761 -0.0379,-2.24621 7.43073,-0.83286 -1.05974,-18.52484 v 0 l 0.66864,-1.23667 6.33314,1.41334 3.5955,-4.03811 3.12872,3.29358 v 0 l 3.94875,-5.03502 z"
     inkscape:connector-curvature="0"
     style="fill:#87a4c3;fill-opacity:1;stroke:#ffffff;stroke-width:0.630873;stroke-opacity:1" />
  <path
     id="KZ-ATY"
     title="Atyraū oblysy"
     class="land"
     d="m 81.860901,584.0506 -0.567711,0.0631 -1.009265,-1.7162 -1.122807,-3.86144 1.71575,0.39119 1.211118,1.36287 0.416322,1.56476 z m 94.315799,-108.04477 1.93022,1.80454 2.97733,1.33761 -0.36586,1.00953 1.48867,0.74453 1.11018,-2.85191 1.28682,0.30286 1.70313,8.64408 -0.70648,2.14525 1.03449,2.38501 -0.97141,2.49859 9.99172,1.62787 0.52987,-5.401 1.6022,0.41643 0.7948,-1.36285 1.85452,1.33761 v 1.56478 l 4.40292,0.37857 0.11355,5.91837 -0.71911,0.55524 -0.80741,5.85527 2.29607,7.44527 -0.8831,3.35667 3.82259,4.27788 0.54248,6.82693 1.66529,2.8393 -2.8638,20.51867 3.65859,4.63121 1.52651,5.93097 7.35502,7.39481 19.37789,6.37264 0.30278,4.66906 2.88902,3.72264 -0.45417,1.48905 2.00591,3.94978 v 0 l -2.19514,-1.31238 -1.91761,0.13881 -1.14803,-1.07262 -1.69052,0.87071 -2.59886,-0.78238 -0.64341,-1.96859 -1.08495,-0.47952 -1.24897,0.8581 -3.07827,-1.27453 -0.0127,-3.06645 -0.84526,-2.53643 -1.19851,-0.16405 -1.80406,1.23667 -1.58959,-0.98429 -2.96471,-4.20216 -5.77804,5.72907 -2.71241,-0.37857 -9.68894,1.00953 -4.69309,1.82977 -3.70904,0.0883 -7.10271,1.62787 -0.49201,0.80762 -3.78474,-0.46691 0.34062,1.56477 -1.32466,2.53644 -5.57619,4.15168 2.57363,1.51431 -4.07491,3.0412 -6.35837,2.59953 -3.78474,-0.50475 -0.78218,1.95595 -8.91938,-1.56476 v 0 l 1.32466,-0.34073 -0.93357,-0.32809 -0.0631,-1.16096 0.68125,-0.9969 1.89238,-0.1893 -1.16066,-1.09785 1.32466,-0.5931 -1.62743,-2.39764 1.64005,-0.89596 -2.59885,-2.25882 1.38773,-0.66881 -1.31204,-1.03477 0.21446,-0.92119 1.76622,-0.39119 -0.61817,-1.42596 1.46343,-1.47644 0.49202,0.56787 0.0883,-0.9843 -0.73171,-0.44166 1.04711,-3.00335 2.19516,-1.855 -0.69388,-0.4543 0.92095,-0.30286 -2.06898,-2.01905 0.0631,-3.20525 0.92096,-0.89595 -0.97143,-0.36597 -0.13876,-2.58691 -1.84191,0.15144 0.7191,-0.7193 -1.26158,-0.84548 0.36586,-1.855 -0.65602,-0.11358 -1.79144,1.69097 -1.1102,1.9181 -0.32802,-2.59954 -1.47604,0.22714 0.26493,-1.26191 -1.66529,-1.14834 1.09758,-0.68142 -0.94619,-1.7793 -3.63335,0.70668 -1.5139,1.31238 -1.29943,-1.13573 -0.66863,3.04122 -1.02189,0.64356 -14.58387,-4.4924 0.15139,1.36287 1.55174,1.4512 -0.60556,2.42286 -0.21447,-2.20834 -1.57698,-1.55215 -0.59295,-2.22096 -2.67454,1.77929 1.27419,-1.04738 0.85788,-2.59953 -2.03115,1.70357 0.52988,-1.43857 -1.40036,-1.61525 -6.39622,-1.16096 -3.51981,2.01906 -0.18924,0.92119 -5.68973,-0.60571 -1.03449,1.07262 -0.80742,-0.0757 -1.77883,2.72573 -0.70648,-0.21452 0.13877,-1.43859 h -0.66864 l -1.42559,1.42596 -1.135406,3.39454 -0.69387,-0.47952 0.15139,-1.35024 -1.185888,0.65619 -0.832644,-2.38501 -1.89237,3.2431 -0.264932,-1.43857 -0.971419,0.40381 -2.333924,4.58074 -0.416322,-2.96549 -2.384389,2.27143 -2.056377,3.73526 -2.56101,-0.0379 -0.971416,1.53953 0.126157,1.19881 -1.387739,1.38811 -1.728367,-0.89596 0.126158,1.74143 1.185887,0.95906 -1.185887,-0.0379 1.299429,1.76668 -2.762863,-1.16096 -0.643406,1.04739 -1.059728,-0.35334 -0.353243,2.10739 -1.576976,-1.85501 1.299428,3.62168 -4.201065,-2.68786 -0.504632,0.44167 -1.097576,-2.46073 1.047113,-0.21452 -1.08496,-1.84239 -1.816677,-0.36596 3.166569,6.04455 -1.097576,1.04739 -0.756948,-0.58049 -1.14804,-4.53025 -2.182535,-1.84239 -1.11019,0.0252 0.56771,1.21143 1.009266,0.0252 0.605559,1.89286 -1.614825,-1.22405 0.441554,1.17358 -0.580327,0.22714 -0.592944,-2.41025 -1.059728,-0.30285 1.614824,3.38192 -9.020305,-4.37883 -1.198502,-2.13263 -2.523162,-0.93381 -0.832643,-1.65311 -1.955451,0.0252 -0.365859,-1.31238 -1.539129,-0.44167 0.756948,-2.68787 1.703135,-1.4512 1.854524,0.10095 2.308693,2.96549 1.211119,0.13882 2.775478,-0.3281 2.232998,-2.6374 -0.845258,-2.42286 -4.642619,-6.28431 -1.17327,-2.71311 -2.207768,-5.91836 -0.870491,-5.86789 -5.563572,-0.69405 -4.857088,-8.84599 -3.179185,-3.07907 -8.931995,0.64358 -6.825153,-2.54906 -0.769564,5.03502 -4.415534,-2.62477 -1.993299,-2.42287 1.135423,-0.76976 -3.532427,-5.9436 3.469349,-2.20834 0.895722,0.0883 0.277548,-0.7319 -2.7124,-0.97168 0.239702,-3.5712 -2.207768,-1.81715 v 0 l 3.709049,1.23666 2.876405,-0.15143 34.100538,4.36622 6.787306,1.90548 12.010253,4.75741 -0.189237,-3.78573 7.632566,0.41643 1.337275,-1.08525 4.125371,0.10096 4.970629,-5.09813 13.473673,-9.04789 1.53913,-0.0379 2.29607,-2.1831 1.00927,0.50476 2.25823,-1.3881 1.36252,-4.27787 5.07154,-0.35334 2.91426,-1.33762 10.37019,1.79191 0.65603,1.33762 -0.84526,0.5931 -0.18923,3.02859 7.85965,1.79191 0.87048,-1.53953 1.07235,-0.15143 5.38695,3.05383 2.6367,-0.0631 1.72838,-1.04738 -0.55511,-1.81715 1.70314,-7.23075 2.96472,-0.12619 -0.37847,-9.02267 2.16991,0.95905 1.46344,-3.40715 1.51389,0.73191 8.51568,0.0126 3.79735,-1.19881 -0.6434,-1.50168 z"
     inkscape:connector-curvature="0"
     style="fill:#87a4c3;fill-opacity:1;stroke:#ffffff;stroke-width:0.630873;stroke-opacity:1" />
  <path
     id="KZ-KAR"
     title="Qaraghandy oblysy"
     class="land"
     d="m 666.71729,396.90929 8.45259,3.06645 0.10093,2.85192 1.07234,1.65309 -1.62743,6.24646 0.13877,3.82358 -1.31205,0.30287 -0.66863,1.3881 1.05972,1.64048 -1.81668,1.7162 3.60813,3.97501 7.15316,-1.23666 1.98069,-1.66573 0.328,1.03477 4.01184,0.78238 1.34988,1.69097 -1.41297,1.09786 1.62745,4.17692 1.71574,-4.30312 3.43152,3.65954 1.41296,0.0631 1.89237,3.25574 -0.85787,0.50476 0.66863,1.90549 2.82595,1.12309 0.4037,1.52692 -0.83264,0.35333 0.36585,0.70667 -4.92015,1.47644 0.0379,0.82023 -1.56437,1.04739 0.84526,2.88978 1.57698,-0.0757 0.46678,1.04739 2.46009,-0.73192 5.07156,-3.6974 1.18588,-1.59 7.19102,0.23976 1.21111,-1.72882 1.17327,-0.45428 1.08496,1.16095 8.6166,-2.37239 3.17919,1.86763 1.16065,-0.27763 1.13543,-3.05381 0.5677,0.42904 1.93023,-1.11048 2.76285,-0.30285 2.75025,1.64048 0.92096,-1.61524 -0.15139,-3.77312 1.52651,-6.0824 2.52317,-2.46073 4.73092,-1.22405 4.33984,4.59335 5.12201,0.2019 4.03707,2.58692 1.45082,5.16121 -1.95545,2.68787 2.82595,2.01906 v 0 l -0.55511,2.15787 -3.60812,3.00335 -1.93021,2.68787 -4.55432,2.34716 -2.23299,0.0631 -0.68126,2.91501 0.74433,1.11048 -0.5677,2.29668 0.6434,1.72881 -2.68716,5.4136 -12.17427,5.13597 -0.36586,2.15787 1.96808,2.25882 -0.0631,1.26191 2.06899,0.68143 3.68383,3.0412 0.0631,2.3724 4.35245,3.62167 -2.34655,0.99692 -0.50462,-0.71929 -2.04376,1.06 -0.35325,3.87406 1.72837,3.44502 10.04218,-1.65311 1.00927,3.00335 -1.00927,5.60289 -4.51646,4.64383 -3.12873,-0.54262 -1.27419,1.17358 0.27755,1.9181 -1.94284,0.5931 0.90834,1.86763 2.11946,0.98429 0.34063,1.61524 4.99586,0.25238 -0.52986,1.29977 -2.15731,0.0884 -0.6434,1.89286 3.15395,2.87715 2.4727,-0.18928 1.74098,1.3881 -4.56692,1.66572 1.46344,2.10739 -1.67792,0.0127 -0.22708,3.02858 -1.21112,-0.0505 -2.68716,8.42957 1.05972,1.70358 1.55176,7.42003 -2.23301,-0.98429 -2.3213,0.36595 0.12615,2.7636 -1.04711,2.54906 -1.93022,0.7319 2.19516,1.13572 1.27418,2.17048 2.38439,1.76668 3.64597,1.36286 1.18589,-3.26835 1.52651,-0.94642 2.88902,1.41333 2.44747,-1.09786 v 0 l 1.05973,18.52484 -7.43072,0.83286 0.0379,2.24621 -1.8419,0.27761 -0.80741,-2.06953 -2.44748,-1.29977 -2.43484,0.34072 -2.58625,-1.32501 -1.70313,0.31548 2.64932,2.67525 -7.56949,-2.5743 -0.76957,1.81716 -2.233,-0.80763 -0.75694,0.9212 -0.68125,-2.05691 v 0 l -1.6779,1.98119 -1.41298,-0.37858 v 0 l 0.0252,-1.03475 -8.36429,-1.47644 -7.4938,1.3881 -5.84111,-1.17358 -14.01616,8.06361 -14.69742,14.54983 v 0 l -2.1447,3.54596 v 0 l -40.52198,-0.46691 -23.47802,0.87073 -58.72661,0.265 v 0 l -46.37573,-0.73191 v 0 l -0.39108,-3.40717 -1.18588,-0.35333 -9.7268,0.54262 -32.00632,-8.69455 -4.52907,-2.52383 -4.46599,-5.04764 -5.1094,-0.44167 -12.32566,-6.63764 -2.52316,-0.0757 -12.30041,-4.80787 -1.07234,-1.08525 -2.37178,1.46381 -7.26671,-4.07597 -3.25488,0.25239 -6.6233,-5.24955 -10.13049,1.88025 6.74946,-5.27478 v 0 l 28.91544,-20.21582 5.43741,-5.99407 -2.233,-0.99691 -4.49123,-7.8617 v 0 l 6.92608,-6.29693 -1.36251,-4.39145 9.14647,-2.01906 -1.87975,-2.41025 0.84525,-1.36285 -0.92095,-2.23358 5.19771,0.2019 1.26158,-9.5022 18.9111,3.12955 1.81668,-1.02216 1.77883,0.23977 2.7881,-0.98429 1.62743,-4.00026 7.63257,-0.27761 7.36763,-8.12671 3.73429,-0.44167 1.58958,-5.59026 3.21703,0.3281 1.31205,-3.25573 3.74689,-3.41978 5.17249,-3.02858 13.61246,-16.36697 -1.14805,-2.32193 0.69388,-0.75715 -0.85787,-1.66572 0.87049,-1.07263 4.08751,-0.52999 4.50386,-1.93072 1.71574,-1.48906 2.18254,-3.39454 -0.41632,-1.00953 -2.64932,-1.48905 -0.11354,-0.80762 -1.40035,-0.90858 v 0 l -0.17663,-2.13262 -1.64005,-2.22097 4.92016,-0.46691 2.3087,1.80454 5.32387,-4.00026 2.98995,-1.07262 0.75694,-1.40072 7.60734,-0.21453 -0.34064,8.59361 -1.18588,0.71929 0.54248,3.29359 -1.08495,1.69095 -1.02189,4.77003 -1.75359,1.95595 0.84525,1.5143 1.96807,-0.64357 0.40371,0.9969 1.42559,0.11358 3.17918,2.03167 3.15396,-1.66572 1.69051,0.78238 -0.164,-3.72264 1.81668,0.95906 2.01853,-1.27453 -0.8705,-2.82668 3.33057,-1.81715 0.45418,2.14525 1.38773,-1.33763 1.64006,3.06645 1.42559,0.12618 -0.59295,3.1674 4.466,-0.40381 7.63257,-2.20834 0.74433,2.17048 1.14803,-0.37857 0.51726,1.17357 -2.18254,3.18002 -0.10093,2.73835 1.5139,0.78238 5.50048,-3.18001 2.71242,-0.36596 0.78217,-1.53953 -1.52651,-3.87406 5.28602,-2.37239 1.76621,3.09168 0.3154,-8.07623 3.73428,-0.90858 3.24226,-2.27143 -0.51724,-1.1862 1.9176,-1.59 2.19515,0.23976 0.79481,-1.55216 1.75359,0.0252 0.69387,-3.68477 3.6712,-1.56477 -0.0505,-0.98429 1.13542,-0.20191 0.35324,1.1862 1.66529,-0.63095 0.32802,1.35024 1.7662,-0.12619 2.77548,2.46073 -1.6779,2.25881 0.97141,1.26191 -0.74433,1.06 0.44155,1.84239 -2.24561,3.1674 1.52651,0.50477 0.60556,-1.23668 5.14725,-0.54262 3.06564,2.33453 -0.34062,-1.1862 1.64005,-0.45428 -0.54247,-3.65954 1.81668,-0.60571 0.97141,-1.5143 2.81333,1.81715 2.03114,-1.06001 -2.66193,-1.80452 1.77882,-1.57739 -0.69386,-0.90858 1.24896,-1.16096 0.89573,0.44167 0.15139,-1.29976 3.54503,-0.21453 1.65268,-1.93072 -0.46679,-1.37549 0.97142,-0.21452 1.4382,-2.62477 3.96137,1.67834 0.99665,-1.69096 3.46935,-0.8581 -0.8705,-2.10739 6.50976,-2.10739 3.64597,-3.48287 -4.45338,-1.61525 -1.31205,2.81407 -0.8831,-0.61834 0.25231,-0.79501 -1.51389,-3.36929 -1.07235,-0.47953 0.40371,-1.95596 1.18589,-0.50477 0.66864,1.09787 2.00591,-0.56786 -0.39109,-0.71929 0.66864,-0.23976 0.70648,2.09476 1.58959,-2.4481 z"
     inkscape:connector-curvature="0"
     style="fill:#87a4c3;fill-opacity:1;stroke:#ffffff;stroke-width:0.630873;stroke-opacity:1" />
  <path
     id="KZ-KUS"
     title="Qostanay oblysy"
     class="land"
     d="m 477.49273,260.68607 2.82594,-0.76977 v 0 l 1.77884,5.53978 -0.70649,1.00953 2.78809,7.67241 -4.70569,1.67835 4.62999,2.90239 1.71576,0.16405 1.33728,3.54597 -9.32308,4.26525 2.561,8.22766 3.14133,-0.68143 0.0505,6.63765 -3.09088,3.44502 1.07235,3.20525 4.13798,0.44167 0.25233,10.92813 3.69642,2.3093 -0.61816,2.72574 -3.59552,-0.75716 -1.6022,1.27453 -2.58624,-0.17666 -1.08496,1.31238 0.88311,4.01288 1.21111,0.0757 0.20185,3.78573 -0.51725,-0.0379 0.16402,4.63122 -2.61148,0.68143 -0.30278,12.90935 v 0 l -0.17662,9.43909 -3.00256,2.51119 -2.09422,10.77672 -6.43407,3.3062 -4.26415,-0.41643 1.23635,4.25264 3.06565,0.16405 2.23299,4.63121 -2.06899,6.01931 1.16065,0.89596 -3.49457,3.11693 2.10684,2.75096 -1.38775,1.24929 5.22295,5.06026 -1.61483,7.62194 0.93358,2.00643 4.88232,-0.55523 1.52652,-4.98456 4.59215,2.7005 0.21446,3.11692 0.85788,-0.76977 -0.0505,1.46381 1.18589,-0.58047 0.80741,0.69405 1.87975,-0.88334 1.2742,5.12335 3.04042,-0.80762 1.94284,1.40072 6.53498,2.32192 6.06821,-1.76668 2.10685,0.76977 1.60219,3.98764 -2.72501,1.61524 3.48197,5.38836 5.77803,-3.67217 10.6856,-1.38809 2.91426,-2.22097 v 0 l 1.40035,0.90858 0.11354,0.80762 2.64932,1.48906 0.41632,1.00953 -2.18254,3.39453 -1.71574,1.48906 -4.50386,1.93072 -4.08751,0.53 -0.87049,1.07262 0.85787,1.66572 -0.69387,0.75715 1.14804,2.32193 -13.61246,16.36697 -5.17248,3.02859 -3.7469,3.41977 -1.31205,3.25573 -3.21703,-0.3281 -1.58958,5.59027 -3.73429,0.44167 -7.36763,8.1267 -7.63257,0.27762 -1.62743,4.00025 -2.7881,0.98429 -1.77883,-0.23976 -1.81668,1.02215 -18.9111,-3.12955 -1.26158,9.50221 -5.19771,-0.20191 0.92095,2.23358 -0.84525,1.36285 1.87975,2.41025 -9.14646,2.01906 1.3625,4.39145 -6.92608,6.29693 v 0 l -5.28603,-10.09528 -3.97397,-2.7762 -3.99922,-1.51429 -1.42558,-1.60263 -7.99843,-2.71311 -0.93357,-3.1674 1.62744,-2.17048 -0.15139,-1.41335 -2.54839,-2.27143 -5.29864,2.88977 -6.83777,-6.76384 -1.7536,-6.06979 -3.17919,0.29024 0.63079,-1.75405 3.67121,-0.5931 0.4794,0.47952 0.80742,-0.61832 -5.75281,-9.03529 2.0816,-2.7131 2.88902,0.99691 -0.79479,-1.13573 -0.79481,-4.35358 3.87305,-2.35977 0.35325,-4.03812 3.91091,-3.47025 3.88567,3.19263 1.18588,-4.1643 -0.47939,-1.96858 -5.33649,-7.97529 -0.49202,-1.96857 -3.24227,-5.16121 -2.2456,-11.43291 -3.43152,1.07262 -0.47939,-4.4924 2.77548,-1.93072 -4.41554,-4.30311 0.82003,-2.8393 0.82003,-0.13881 v -1.51429 l -3.63336,-2.1831 -1.95545,2.29667 -1.9933,-0.78238 -1.42558,-6.56194 -1.71576,-2.65001 -1.09757,1.91811 -1.80406,0.79499 -1.62744,-0.79499 v 0 l -2.88902,-2.99073 -1.70313,-3.41979 -0.78218,-0.21453 -2.44748,1.31239 -4.1632,-2.23358 -4.36508,-0.3281 -1.80406,-3.07905 -0.2397,-2.6374 -7.44333,-0.1388 -3.02779,-0.95906 -2.4727,-2.34715 2.92686,-2.92764 0.22708,-1.03476 -2.82593,-0.58048 -5.46265,-3.57121 0.0631,1.52691 -1.0345,-0.0631 -2.13207,-2.57429 0.29017,-2.33454 5.03371,-0.84548 5.66449,-5.70383 5.36172,-0.53 1.79144,-2.49859 4.13799,-1.67833 2.63671,-2.56169 -2.27085,-4.79526 -0.12616,-1.84238 -3.05302,-0.55524 -0.20185,-4.07597 -3.09088,-1.41335 0.35324,-3.93717 3.06565,-0.87071 1.02188,-1.81715 4.35244,-3.81097 -1.19849,-2.73835 2.23299,0.39119 2.9521,-2.49858 3.29274,1.82978 2.15729,-1.95597 2.59887,1.12311 1.85452,1.79191 1.80406,-1.3881 2.76286,0.0757 1.19851,-0.63095 3.20441,2.41025 3.16658,-2.19573 -0.65602,-4.51764 -4.51647,-0.55524 -3.10349,-1.23667 -3.22965,-3.71001 -1.11019,1.43857 -2.5484,0.11358 -1.33727,-0.40382 -1.6653,-1.76667 -3.73427,-0.25239 -1.46343,-0.93381 -0.61818,-3.69739 1.90499,-2.09477 0.54248,-2.70049 2.93949,0.41643 0.42892,1.09786 1.21113,0.35334 3.29273,-1.74144 0.22708,-1.00953 -0.79479,-2.05691 -1.29943,-0.68144 -2.15731,0.10096 -1.45081,1.22405 -4.85709,-0.40381 -1.31204,-1.23667 -4.59217,-0.71929 0.0757,-2.06953 1.96807,-0.11358 1.00927,1.17358 0.16399,-2.35977 1.55175,-0.73191 2.63671,-3.33144 -0.27755,-1.47644 -1.72836,-2.00644 -3.5829,-0.68144 0.22709,-1.41333 0.92095,-0.94644 2.9521,-0.30285 0.7191,1.56476 1.70314,0.265 0.50463,-2.57429 -0.78218,-1.40072 0.27755,-0.87073 1.22374,-1.64048 2.1573,-0.65619 1.62744,0.21453 0.84525,2.68787 2.10685,0.9969 0.76956,1.7162 1.11019,-2.39763 1.94284,-0.7319 1.32466,1.88024 1.52651,-2.00643 -0.0884,0.95905 1.40035,0.0505 -0.82003,1.75405 2.63672,0.83287 1.47604,-0.37857 -0.95881,-3.05383 1.71576,-1.1231 3.24227,0.94643 5.67711,-0.92119 1.26158,1.19881 -1.85452,1.27453 0.69386,2.44811 2.66194,1.52691 1.05973,-3.53335 5.03371,-4.00025 0.40371,-1.4512 7.46855,0.34071 0.99666,-0.79499 -0.0379,-2.53644 1.34989,-0.65619 4.80662,0.4038 9.77726,-3.54597 3.65859,0.13882 0.87048,-1.50168 0.84526,1.23668 1.18589,-1.5143 2.58624,0.42905 2.63671,-0.97167 3.46934,0.0757 1.00927,-1.42596 1.29943,0.27763 2.28346,-1.65311 2.95211,-0.37856 0.30277,1.95595 5.03371,-2.65001 3.69643,3.40716 2.7124,-0.0757 0.42893,-1.08524 -1.23635,-3.52073 0.27755,-3.06644 3.83521,-2.37239 3.04041,0.34071 -0.7948,-1.84239 0.45418,-1.14833 4.02444,0.22714 3.01518,1.46382 1.16065,-1.08525 0.90834,-2.7131 2.58625,-0.80762 0.63078,0.51738 -0.46679,2.92763 z"
     inkscape:connector-curvature="0"
     style="fill:#87a4c3;fill-opacity:1;stroke:#ffffff;stroke-width:0.630873;stroke-opacity:1" />
  <path
     id="KZ-KZY"
     title="Qyzylorda oblysy"
     class="land"
     d="m 308.26425,606.55046 1.71574,-2.12001 3.25487,1.26192 0.45418,4.06335 -0.74433,2.05691 1.26158,3.54597 1.65268,1.31238 0.42893,2.05692 -12.16164,-8.80813 0.92095,-3.36931 z m 19.94559,-0.90857 h -2.61147 l 0.17662,-4.42931 6.16913,-0.78238 3.12872,0.35334 0.60556,1.29976 4.86971,0.51739 0.35324,0.60571 h -6.52237 l -3.48197,1.91811 z m 51.61129,-72.86271 2.01853,3.84883 3.05302,-0.46691 6.76207,8.60624 -1.05972,2.4481 7.05224,1.11048 1.07234,1.53953 1.85453,-0.5931 -6.74946,5.28741 10.13049,-1.89287 6.61069,5.26217 3.26749,-0.25239 7.2667,4.06336 2.37178,-1.46382 1.07234,1.08524 12.30042,4.8205 2.52317,0.0631 12.32564,6.63764 5.10941,0.44167 4.466,5.04764 4.52908,2.51121 32.01892,8.69455 10.90005,-0.18928 0.0505,6.32217 3.87306,2.99074 0.74433,2.385 -2.18253,3.67216 -2.56102,11.93767 4.65524,3.86145 3.89828,1.66572 0.15139,24.10249 -0.76957,2.80144 2.61148,2.56168 1.48866,-0.47952 2.81333,1.57738 0.0631,1.13572 2.81334,3.41978 6.72423,4.80787 -1.72837,1.7162 -0.94619,-0.76976 -2.75024,1.94334 1.23635,2.61215 -0.29018,3.6343 -1.0471,0.50477 -2.42223,-2.10739 0.0126,5.32526 -2.33393,2.38501 -0.31539,3.8993 -2.48531,0.70667 0.7317,3.24311 1.04713,-0.64357 -0.3911,-2.1074 1.3499,-0.76975 -0.26493,1.52691 1.42559,-0.0631 -0.42895,1.79191 0.94618,2.27144 1.741,-0.46691 -0.10093,1.11049 -10.53421,5.60289 -6.5476,2.42286 -6.13128,4.61859 -6.90085,6.96574 -3.44412,-2.12 -9.90342,10.28456 -2.13206,-0.51738 -0.18923,-19.91294 -6.66116,3.12953 -4.31461,-14.53721 -8.74276,-8.1267 -3.02778,-6.68812 -1.36252,-1.08525 -2.54839,0.29024 -12.14903,5.61551 -27.71694,-2.46073 -33.10389,6.29694 -1.29942,-0.87073 -20.32407,-24.35486 -1.17328,-3.73526 -11.48038,-8.29075 1.96806,-1.48906 1.1985,-4.92145 -1.6022,-6.00669 -0.97142,-1.19881 -1.48867,-0.11358 -2.233,-4.63121 0.56771,-7.54622 -0.56771,-2.05691 -1.14804,-0.8581 1.31204,-5.42621 -0.92094,-3.65955 -1.19851,-1.31238 -0.17662,-2.46073 1.26159,-0.8581 1.48866,-5.51456 3.48196,-0.8581 1.26158,-2.73834 2.28347,-2.12001 2.57362,-0.45428 1.76621,-1.60263 4.69308,-2.28406 1.53914,-2.62477 0.31539,-6.29693 -0.94618,-0.13881 -1.3499,1.08524 -7.15317,-0.54263 -2.42222,-2.96548 0.54247,-5.93097 -2.96471,-1.61526 -3.36842,0.13882 -0.13878,1.21143 4.17583,2.01906 v 1.61524 l -1.89237,1.61525 -1.34989,0.66881 -3.5072,-1.35025 v 3.91193 l -0.90833,0.64357 -0.16401,-4.5555 -0.66863,-1.35024 -1.18589,-1.18619 h -1.69052 l -5.56357,3.71002 -1.00927,1.35024 -0.15139,2.52382 2.15731,3.65954 1.71574,0.74453 6.97655,-1.19883 0.68124,1.31239 2.57364,1.37549 3.88566,-2.68788 0.22709,2.23359 1.94283,3.25573 -0.56771,4.34096 -2.62408,1.65311 -4.63,0.63095 -4.28939,-2.80144 -5.8285,-1.03476 -3.31795,2.68787 -1.71576,0.11357 -0.79479,-0.45429 0.45416,-2.39762 -0.63078,-4.29051 -0.97143,-1.19881 -5.60142,-0.29024 -0.79478,0.17667 0.0631,1.37549 3.31796,5.71645 -0.45416,1.6531 0.56771,4.34098 -0.97143,2.86453 -1.65267,-0.0631 -1.0345,3.02859 -0.90833,0.74453 -1.08496,-0.40382 -4.06229,0.63095 0.17662,-3.48287 2.91424,-4.34097 -1.03449,-0.74453 -1.1985,-0.63096 -2.397,1.94335 -1.53914,0.11356 -2.66192,-0.98429 16.96826,-22.63867 9.87819,-9.17408 7.51902,-0.61834 0.70648,-7.77337 10.26927,0.84549 8.42737,-22.57558 14.89926,-3.44502 z"
     inkscape:connector-curvature="0"
     style="fill:#87a4c3;fill-opacity:1;stroke:#ffffff;stroke-width:0.630873;stroke-opacity:1" />
  <path
     id="KZ-MAN"
     title="Mangghystaū oblysy"
     class="land"
     d="m 100.78461,632.62153 1.08495,-0.0631 -1.70313,1.80452 -0.0127,-3.12953 z m 1.84191,-4.35359 1.05972,-0.90858 0.64341,0.83286 -0.0379,2.06954 1.11018,0.56786 -2.25823,0.23976 0.54248,-0.76976 -0.66864,-0.25239 0.29018,-1.04739 -1.86714,-1.28714 0.59293,-0.8581 -0.27755,0.65619 z m -15.328204,-4.05073 1.400355,0.68143 -1.286813,0.17666 -0.605559,0.80763 0.416322,2.91501 0.857875,0.25238 -0.302779,0.94644 0.605559,0.87071 1.463434,0.73192 1.513898,-0.44167 -0.403706,1.22405 -3.065643,-1.11048 -0.958802,-1.52692 -0.820028,-2.76358 z m 6.560222,-0.50476 0.984034,0.16404 0.353241,2.49858 -2.460082,4.2905 -0.214469,-3.34406 -0.984033,-2.28406 z m 56.733302,-15.5846 0.90833,-0.18928 0.66864,1.79191 0.32801,2.70049 -0.89572,0.23976 0.11354,0.45429 -1.09757,-0.3281 -2.08162,-3.15478 1.41298,-1.29976 -0.37849,-0.8581 z m 4.2263,-9.02266 8.91936,1.56477 0.7822,-1.95596 3.78474,0.50477 6.35836,-2.59954 4.07491,-3.0412 -2.57362,-1.5143 5.57618,-4.15168 1.32466,-2.53645 -0.34062,-1.56476 3.78473,0.46691 0.49202,-0.80763 7.1027,-1.62786 3.70905,-0.0884 4.69308,-1.82977 9.68895,-1.00953 2.7124,0.37858 5.77804,-5.72907 2.96472,4.20216 1.58959,0.98429 1.80406,-1.23668 1.1985,0.16405 0.84526,2.53644 0.0127,3.06644 3.07825,1.27453 1.24897,-0.8581 1.08495,0.47953 0.64341,1.96858 2.59886,0.78239 1.69052,-0.87073 1.14805,1.07263 1.9176,-0.13881 2.19514,1.31239 v 0 l 2.22039,6.12027 3.50719,25.95749 v 0 l -17.35935,5.70383 0.0631,123.20032 -3.25487,-0.12619 -1.43821,1.43858 -1.05973,-0.61833 -2.37177,0.44166 -1.46344,1.40072 -0.99664,-1.41334 -0.74433,1.11048 -1.7536,-0.84548 -5.57618,-6.05717 -4.08754,-8.03837 -2.88901,-3.64692 0.11354,-2.92763 -2.97734,-3.6974 -15.83284,-10.4991 -5.76541,0.17667 -8.99509,1.43858 -13.54938,5.07288 -14.47034,12.24053 1.21112,-4.68169 -1.76621,-5.71645 0.36586,-2.5743 3.29273,-4.93407 2.72501,-8.1898 -0.88311,-2.68786 -2.20777,-2.78883 0.46679,-0.70666 0.18923,1.27453 2.22039,2.27144 0.75695,2.05691 0.93357,-1.52691 -0.0884,-3.47026 -2.11946,-0.88334 -0.84527,0.35334 -0.164,-2.04429 -3.38104,-0.99691 -2.96472,0.12618 -1.53912,1.43859 -1.3499,-2.20834 -1.23635,-0.63097 -2.67455,0.11358 -3.93612,1.32501 -3.53244,-6.54932 -2.82594,-2.67526 -0.12616,-2.51119 -9.27261,0.97166 1.13542,-8.82075 -0.74434,-3.72264 -1.7536,-2.88977 -1.41297,-0.49214 -3.22965,-5.74169 -0.92095,-4.97193 -2.97733,-2.86453 0.18923,-2.24621 -1.13541,-3.5712 -3.87306,-2.39763 -6.434052,-0.82025 -3.267496,-1.855 -0.845259,-1.64048 -0.39109,-6.36004 0.99665,1.33762 1.198501,-3.48287 3.532428,0.70667 3.317948,-0.32809 0.89573,0.71928 2.54838,0.21453 1.90499,-1.03476 2.24562,0.85809 1.18589,1.67834 1.22373,0.13881 -0.0127,1.28715 2.19515,1.5143 2.61148,0.0505 2.09422,-2.27145 2.11945,-0.55524 0.10094,1.00953 0.94618,0.6562 0.83264,-0.78239 2.11946,0.29024 -0.0631,-0.83286 -2.397,-1.38811 -4.01183,0.29025 0.35324,-1.31239 -0.74433,0.31547 0.0505,-1.17357 -2.05638,-3.38192 -4.55431,-3.18001 -0.61818,0.71929 -2.00591,-0.46691 -0.20185,-2.38501 2.30868,-2.97811 2.32132,-0.31548 2.85118,-2.5112 1.75359,0.51738 0.12616,-4.93406 1.61481,-3.30621 2.27086,-2.43549 1.18588,0.60572 2.90165,-0.31547 2.85116,-1.70359 1.07235,-1.62786 4.99586,1.85501 2.58624,-0.6562 5.63927,0.15143 3.99921,-1.00953 3.24227,0.51739 1.72836,2.04429 1.46343,-0.265 2.44747,0.80762 -1.66529,-1.11048 0.44155,-0.47952 -0.9714,-2.23358 0.21446,-1.26191 3.77213,1.67834 2.20776,2.04429 -2.16991,-3.06644 -1.29943,-0.0631 -2.01854,-1.50168 0.90835,-1.41333 2.66192,-0.42906 -0.52985,-1.55215 -2.64932,1.99382 -0.21447,-1.33763 -0.75695,-0.10094 1.46343,-1.94334 2.20777,0.90857 -2.57362,-2.81406 1.09757,-0.66882 -0.49202,-0.63095 1.9933,-0.44167 z"
     inkscape:connector-curvature="0"
     style="fill:#87a4c3;fill-opacity:1;stroke:#ffffff;stroke-width:0.630873;stroke-opacity:1" />
  <path
     id="KZ-PAV"
     title="Pavlodar oblysy"
     class="land"
     d="m 741.85706,271.05896 1.64006,0.23977 0.50463,2.27143 -0.78218,1.19882 0.0757,1.93073 -2.08162,1.74143 -0.21446,1.36287 -2.3087,1.42596 -1.1228,-1.43859 -4.45339,-0.31547 0.11355,1.52691 1.62744,2.19572 1.21111,3.59644 5.2608,5.11074 19.78158,16.01365 8.35167,8.29075 13.04475,21.32628 11.9598,22.92892 5.57619,9.19932 4.65523,10.171 v 0 l -1.84191,0.21453 -0.65602,3.84882 -3.75951,0.95905 0.65602,2.14525 -3.16657,3.1043 -0.68125,-0.82024 -4.90756,0.71928 0.11355,2.34716 1.26158,-0.21452 -0.15139,3.44501 -1.2742,-0.44166 -5.02109,3.19263 -3.10349,0.97167 -0.55509,-1.27452 -1.50129,0.6688 -0.31539,1.41335 -2.64932,1.41333 -0.56771,-0.45428 -2.09424,2.03167 2.93949,4.25264 0.66864,3.91192 1.86714,0.56786 3.12872,3.28096 6.71162,4.21479 -0.88311,8.59361 2.32131,0.65619 0.70648,4.99716 -1.67789,1.74144 -4.21369,7.6598 -3.38104,1.55215 -3.97397,-0.98429 -10.53422,-4.39145 -1.45082,-2.54906 -1.62742,0.95905 v 0 l -2.82595,-2.01906 1.95545,-2.68787 -1.45082,-5.16121 -4.03706,-2.58691 -5.12202,-0.20191 -4.33984,-4.59335 -4.73092,1.22405 -2.52317,2.46073 -1.52651,6.0824 0.15139,3.77312 -0.92095,1.61524 -2.75026,-1.64048 -2.76285,0.30285 -1.93022,1.11048 -0.56771,-0.42904 -1.13543,3.05381 -1.16065,0.27763 -3.17918,-1.86763 -8.61661,2.37239 -1.08495,-1.16095 -1.17328,0.45428 -1.21111,1.72882 -7.19102,-0.23976 -1.18588,1.59 -5.07156,3.6974 -2.46009,0.73192 -0.46678,-1.04739 -1.57698,0.0757 -0.84526,-2.88978 1.56437,-1.04739 -0.0379,-0.82023 4.92015,-1.47644 -0.36585,-0.70667 0.83264,-0.35333 -0.4037,-1.52692 -2.82595,-1.12309 -0.66863,-1.90549 0.85787,-0.50476 -1.89237,-3.25573 -1.41296,-0.0631 -3.43152,-3.65954 -1.71574,4.30312 -1.62744,-4.17692 1.41296,-1.09786 -1.34988,-1.69097 -4.01184,-0.78238 -0.328,-1.03477 -1.98069,1.66573 -7.15315,1.23666 -3.60814,-3.97501 1.81668,-1.7162 -1.05972,-1.64048 0.66863,-1.3881 1.31205,-0.30287 -0.13877,-3.82358 1.62743,-6.24646 -1.07234,-1.65309 -0.10093,-2.85192 -8.45259,-3.06645 v 0 l 2.64932,-3.12953 0.36585,-2.80145 5.46266,-3.57121 2.49793,0.70667 2.8764,-2.25882 -2.397,-1.37548 -2.88903,-0.265 -1.24896,-2.88977 -4.49123,2.20834 0.12616,-7.43266 4.21368,-3.62167 1.50128,-0.29024 -0.51725,-1.09787 -0.5677,-25.18773 -1.28682,-0.18928 -0.0757,-0.70667 v 0 l -0.13878,-1.59 -4.57954,-0.34073 -1.24897,-3.30621 0.50463,-1.50167 1.13544,1.56476 1.79144,0.26501 1.04711,2.2462 1.21112,-0.51739 -0.34063,-3.88668 1.56436,-0.63095 -0.2397,-2.13263 1.24897,-0.66881 -1.37513,-3.72263 -2.42223,0.84547 -1.12281,-0.35333 -1.47605,3.98763 -3.31796,0.0505 -0.61817,-3.24311 1.74098,-2.04429 -0.80741,-1.70358 -2.7124,1.90548 -0.59294,-0.61834 1.46343,-1.19881 2.33392,-4.4293 -0.164,-1.4512 2.59885,-2.25881 -1.14803,-1.79193 -1.2742,0.85811 -0.39109,-0.94643 -1.40036,0.51738 -0.0883,0.88334 -3.5072,3.06644 -0.60556,-3.64692 0.56771,-3.87407 2.06899,1.00953 0.93357,-0.95905 -3.29272,-6.04455 v 0 l 3.17919,-3.11692 0.41632,-1.84239 1.26157,0.31548 0.61818,-2.67525 1.71574,0.20191 2.16993,1.36286 1.70313,-2.56168 4.18845,0.94643 -0.25232,2.85192 2.1447,0.20191 0.45417,-2.13263 1.76621,0.37857 0.97141,4.32835 2.98995,1.1231 1.98069,-4.88359 -1.05974,-0.61834 0.73172,-3.64691 4.1506,0.68143 1.09758,-3.6974 2.09422,-0.12619 0.98404,-2.49859 4.1506,0.27763 0.87049,1.19881 10.69821,-7.6598 0.69387,-1.7162 -2.08161,-2.97811 3.25487,-1.67834 2.00593,0.68144 15.05066,-7.01623 -0.52987,-1.3881 0.69387,-2.04429 5.4248,1.29976 2.51054,-0.93381 2.29609,0.0505 2.04376,-2.97811 4.794,-1.64048 0.0631,1.27452 z"
     inkscape:connector-curvature="0"
     style="fill:#87a4c3;fill-opacity:1;stroke:#ffffff;stroke-width:0.630873;stroke-opacity:1" />
  <path
     id="KZ-SEV"
     title="Soltüstik Qazaqstan oblysy"
     class="land"
     d="m 555.2566,228.43163 0.93357,1.64049 4.27676,-1.32501 2.83856,1.07262 4.37769,-0.0757 4.74354,2.23358 1.95545,3.74787 2.68717,0.66881 2.42223,2.28406 1.65267,0.0505 1.67791,-1.64049 2.68716,-1.16096 1.8293,-3.5081 3.84782,0.95905 1.80407,-1.31239 2.90162,-0.39119 0.82004,2.91502 3.93613,6.71336 0.13877,5.48931 -0.61818,2.35978 1.26158,2.06953 0.29017,2.80144 1.9176,2.7762 2.43485,0.63095 1.60222,1.5143 0.0252,1.69096 -2.54841,1.35024 -0.11354,3.67216 0.93358,4.35359 -0.7191,2.97811 -4.59216,-0.71929 0.18925,1.9812 1.96805,1.08524 -0.83264,2.5112 1.38774,1.32501 0.88311,2.52382 1.18589,0.16405 2.40962,-2.80144 1.09757,-0.22715 3.60812,1.13572 0.32802,1.9812 1.71575,-0.32809 1.72836,0.58047 2.23301,-1.48905 -0.51726,-2.23359 1.02189,-2.35976 6.27005,1.08523 1.80406,2.03169 -0.0757,0.79499 1.90499,0.90858 0.5551,-2.17048 -2.7124,-1.86763 1.07235,-2.47335 -2.18255,-2.83929 2.43486,-0.29024 3.06564,1.82977 0.3154,2.67524 1.13542,0.7193 -0.34063,2.08214 4.50385,2.06954 0.0757,1.1862 -1.50128,-0.3281 -1.5896,0.58048 -0.15139,0.68143 1.38775,2.08215 -1.0345,3.54597 2.52316,1.80453 1.80407,-3.31883 4.11275,1.66573 -1.40036,-4.0255 -3.53242,-0.0127 0.58032,-2.61216 1.38774,-1.02214 9.29785,1.48905 -0.0757,1.85501 1.58958,0.25238 0.65602,2.14524 5.37434,1.7793 2.75024,-0.10095 0.20186,-1.42596 2.87641,1.67834 -0.37848,-2.34716 2.92686,-1.50167 0.0505,-1.35024 2.86379,0.84548 -1.45082,7.97527 -5.53834,-0.83286 -0.82002,1.52692 0.60555,1.32501 -2.6367,0.75714 -0.46679,4.42931 -1.71575,0.27762 0.58033,1.55215 -0.88311,2.91501 3.75951,1.69096 -0.51725,2.2462 1.75361,1.26191 v 0 l 3.29272,6.04455 -0.93357,0.95905 -2.06899,-1.00953 -0.56771,3.87407 0.60556,3.64692 3.5072,-3.06644 0.0883,-0.88334 1.40036,-0.51738 0.39109,0.94643 1.2742,-0.85811 1.14803,1.79193 -2.59885,2.25881 0.164,1.4512 -2.33392,4.4293 -1.46344,1.19881 0.59295,0.61834 2.7124,-1.90548 0.80741,1.70358 -1.74098,2.04429 0.61817,3.24311 3.31796,-0.0505 1.47605,-3.98763 1.12281,0.35333 2.42223,-0.84547 1.37513,3.72263 -1.24897,0.66881 0.2397,2.13263 -1.56436,0.63095 0.34063,3.88668 -1.21112,0.51739 -1.04711,-2.2462 -1.79144,-0.26501 -1.13544,-1.56476 -0.50463,1.50167 1.24897,3.30621 4.57954,0.34073 0.13878,1.59 v 0 l -9.4871,-0.70667 -1.75359,-3.36931 -1.82929,0.0883 -0.30279,-1.61524 -3.33057,0.0757 -4.69308,-2.38502 -3.14133,1.33762 -0.68126,-7.25597 -1.0345,-1.17358 -0.52987,-4.2905 -0.83264,0.0757 -0.79478,1.13572 -2.64933,0.0252 -2.28347,1.13572 -1.0471,-0.98429 -4.73093,1.04738 -1.14805,3.00335 -5.80327,0.44167 -7.15316,-0.89596 -1.51391,-2.92764 -0.0252,-1.38809 1.56437,-0.70667 -0.78218,-2.15786 1.77882,-4.3536 -5.08416,-5.52716 0.15139,-1.55215 -2.49793,-0.0631 -0.82004,1.6531 -1.52651,0.21452 -2.18253,1.88025 -2.16992,-0.0252 -0.26494,-0.73191 -3.96136,-0.70667 0.13878,-3.63431 -10.35759,0.29025 -0.59293,3.41977 -2.22039,0.3281 0.45416,2.97811 -2.38438,0.31547 -0.36586,-1.94334 -2.62409,-3.86145 -1.23635,0.5931 -4.79401,0.1262 0.73172,-0.64358 -0.10092,-1.21143 1.03449,-0.0884 -0.27755,-1.07262 1.05973,-0.60572 -0.21447,-2.27143 -1.75359,0.71929 -3.04042,-0.76977 -0.55509,0.82025 -0.83264,-0.41644 0.59294,-1.33762 -0.27755,-4.20216 -1.34989,-0.46691 -0.23971,-1.94334 -5.32387,-0.0883 -0.92095,0.98429 -1.1985,0.0757 -0.58032,1.17358 -1.36252,-0.29024 -0.45416,2.05691 -1.0345,0.10095 0.41632,1.94335 1.36252,0.29023 -0.79481,1.84239 -1.69052,-0.47953 -0.50463,-3.34406 -1.02188,-0.265 -0.29016,-1.06001 -1.53914,-0.30285 -0.0757,-1.75406 -2.40962,-0.18928 0.0757,2.10739 -3.45674,0.25238 -0.11354,-1.23667 -2.40961,-0.17667 -0.21448,1.02215 -1.89236,-0.13882 1.26157,2.70049 -0.55509,0.6562 -3.60813,-0.10095 0.0757,2.08215 1.1985,-0.0757 -0.75694,1.50168 -0.64341,-0.74453 -1.24897,0.94643 -0.0505,1.03477 -1.74098,0.39119 -0.74434,1.14834 1.76621,2.56168 0.11355,1.38809 1.34989,0.4543 0.76956,1.60262 2.73764,0.21453 -0.31539,2.90239 1.70312,0.13881 0.42894,1.40072 -0.0883,1.71619 -0.8705,0.27763 1.4382,1.99382 -3.77212,3.48287 1.16066,4.02549 -1.3499,-0.27762 2.08161,2.37239 -4.69308,1.86763 -0.41632,1.50167 -2.77549,1.16096 -1.7662,4.45455 -2.69979,-0.36595 -1.04712,0.60572 -0.9588,2.13263 -3.57027,-0.0757 0.54248,2.75096 1.50129,0.60572 0.27754,1.19881 -3.06564,3.34406 -0.97142,-0.74452 -0.74434,1.29977 0.6308,0.88334 -1.42559,1.41333 -3.25488,-2.75096 -3.49458,-1.41334 -1.43819,-1.79191 -5.45004,0.15142 0.27755,8.44219 -5.1851,-1.84239 -1.56436,0.89595 -2.71241,-0.34072 -2.4853,-1.33762 h -7.85966 l -0.17661,-3.88668 -4.66785,0.71929 -3.65859,1.62786 -2.08162,-4.36621 -3.94874,-0.23976 v 0 l 0.30278,-12.90935 2.61148,-0.68143 -0.16402,-4.63122 0.51725,0.0379 -0.20185,-3.78573 -1.21111,-0.0757 -0.88311,-4.01288 1.08496,-1.31238 2.58624,0.17667 1.6022,-1.27454 3.59552,0.75716 0.61816,-2.72573 -3.69642,-2.30931 -0.25233,-10.92813 -4.13798,-0.44167 -1.07235,-3.20525 3.09088,-3.44502 -0.0505,-6.63765 -3.14133,0.68143 -2.561,-8.22766 9.32308,-4.26525 -1.33729,-3.54597 -1.71575,-0.16405 -4.62999,-2.90239 4.70569,-1.67835 -2.78809,-7.67241 0.70649,-1.00952 -1.77884,-5.53979 v 0 l 6.01774,-2.3093 7.64519,-1.88024 1.91761,0.35333 1.52651,-1.71619 6.1439,-0.36596 0.99665,-1.06 4.68046,-0.90858 0.82003,-1.95596 5.84113,1.21143 2.0816,-0.61834 3.06565,-1.27452 0.74433,-2.52382 1.81668,-1.47644 3.80997,1.43859 4.36507,-0.63097 0.42894,-2.75096 1.6779,-1.98121 -2.069,-2.46072 -0.61816,-2.58692 2.77547,-0.44167 1.2742,0.84549 1.09757,-0.79501 4.66785,-0.23976 0.94619,0.55523 0.73172,-2.65001 1.38773,-1.23666 0.50464,-2.59954 1.00926,-0.795 5.60142,3.02858 0.11354,-2.28406 -0.69387,-0.78238 -1.22373,0.0505 -0.11354,-1.77928 0.82002,-1.37549 2.59886,0.54263 z"
     inkscape:connector-curvature="0"
     style="fill:#87a4c3;fill-opacity:1;stroke:#ffffff;stroke-width:0.630873;stroke-opacity:1" />
  <path
     id="KZ-VOS"
     title="Shyghys Qazaqstan oblysy"
     class="land"
     d="m 809.56613,390.09497 12.94382,26.19727 -0.22709,-3.57121 0.55509,0.69405 2.46008,-0.0126 0.17663,-2.86453 1.24896,-0.80763 3.07827,-0.35333 1.29942,-1.47644 0.9588,-0.0126 0.22709,-4.12645 -1.0345,-1.79191 0.11354,-3.07906 4.45339,-0.0379 0.21446,-2.30929 0.98404,-1.64048 5.68973,2.01905 0.13878,0.82024 3.46934,1.7793 1.23635,-1.41334 0.55509,0.2019 0.50463,2.2462 -1.6779,4.27788 -0.37847,3.6343 2.37177,0.0757 4.02445,-1.52692 1.67789,0.0252 1.05974,2.97811 -0.52986,0.71929 1.58959,2.61215 -0.69388,2.72573 0.73172,0.17667 6.95131,-0.53 0.27756,-1.64049 0.45417,0.71929 1.69052,-0.98429 3.06564,0.44167 3.75951,2.34715 1.3625,-0.13881 1.5896,-1.28714 6.56022,0.78238 3.98659,-2.80144 0.64341,-4.11383 0.98403,-0.27762 4.90755,1.31238 2.83856,-2.83929 0.42894,-1.80454 1.38774,0.51739 0.98403,1.36287 1.1102,-0.84549 3.59549,0.37858 0.68126,-0.53001 -0.31539,1.11048 4.01182,0.98429 3.14134,2.15787 2.52316,0.45429 3.70905,3.98763 0.64341,2.82668 6.43406,7.76075 -0.56771,2.39763 1.16066,3.62169 -0.54248,2.13262 2.18253,2.97811 2.10685,0.10095 1.64005,-1.08524 2.00591,1.82977 6.24483,2.58692 0.4794,1.43857 2.397,0.22714 1.61483,1.32502 0.8831,2.01906 -1.1228,0.27762 -0.17662,2.83929 0.85787,1.08525 2.16992,0.65619 2.46009,5.93098 -0.15139,2.85192 1.94283,1.98119 3.48196,0.98429 0.7948,-1.03476 2.40962,-0.46691 3.01518,1.75406 1.93022,-0.51739 1.79144,0.84548 2.27085,-0.22714 0.58033,0.44167 -0.20186,1.70357 1.09758,0.41643 1.32466,-1.00953 1.75359,-0.1388 1.56437,2.08215 0.85788,-0.75715 -0.26493,-1.21142 1.09757,-2.61216 4.60476,-2.09478 4.45339,-4.41668 0.12616,-1.80453 4.64261,0.0126 -0.87049,2.27143 0.37848,1.21144 -2.069,1.37548 -0.73172,-0.22715 -1.16065,1.47644 0.31539,2.2462 4.10015,1.41334 -0.41633,0.6562 0.9462,0.78238 -0.25233,2.12 2.33392,1.32502 -0.16399,2.385 0.984,1.76668 1.43821,0.21453 0.89578,1.53952 3.72166,0.3281 2.24556,1.65311 0.76956,3.87406 -4.35244,-1.90549 -4.06223,1.88025 -2.37182,-0.53001 -1.04712,2.39764 -2.42223,1.88024 0.0883,3.16739 1.89237,3.20526 -1.45082,1.26191 0.27755,2.94026 -1.90498,2.81405 -1.26158,0.51739 -1.1102,3.01597 -3.79735,1.79191 -1.07235,-0.56786 -1.7536,0.32809 -2.53578,2.41025 -4.88231,-0.50476 -4.28938,0.87071 -2.66194,2.18312 -2.9521,7.6724 0.0379,2.68788 -1.71574,5.24954 1.94283,12.05125 -0.42893,3.18 2.53577,5.21169 -0.25231,5.19909 -2.93949,1.4512 -1.14804,4.70692 -7.5064,0.2019 -0.80742,1.67835 -2.93948,2.63738 -2.30869,0.66882 -0.32802,1.52691 -3.82259,1.60263 -2.71239,-0.46691 2.22038,-2.44811 -2.44747,-3.44502 -4.37769,0.95906 -1.90498,-1.16095 -5.24818,0.37856 -4.32722,1.23668 -1.50129,-1.08525 -9.70156,-2.24619 -3.00255,-2.6374 -1.19852,0.34072 -1.41296,-1.85501 -2.61148,-0.15143 -1.71574,-1.62786 -3.5072,0.41643 -0.90834,5.59025 -1.41297,1.56478 -1.12281,4.85835 -2.03114,4.53026 -2.069,9.32551 -4.20106,9.03528 -1.14803,8.73242 -4.80664,10.92815 -0.82002,4.2905 v 0 l -2.53577,0.90858 -0.89573,-0.7824 0.45417,-7.29384 -3.97398,-4.32835 -1.9176,-7.25599 v 0 l -8.12458,-9.52742 0.87048,-1.14834 -1.41296,-0.16405 1.23633,-0.9212 v 0 l 0.45419,-1.23666 -1.37514,1.48905 -1.71574,-0.68143 v 0 l -0.82003,-0.17667 0.92096,-1.43857 -0.71911,-0.0127 v 0 l -1.09757,1.55216 -1.51391,-2.72573 v 0 l -2.53577,0.93381 v 0 l -1.37513,-2.09477 -7.61994,-0.18928 -15.51745,-7.67242 0.10092,-2.52382 -5.23556,-2.17049 -11.66963,4.07597 -7.69563,-10.78933 -10.91269,1.22406 -1.19849,-3.07906 -3.09088,-0.27763 -4.1506,-3.34406 v 0 l -4.13799,-3.48287 -3.94875,5.03502 v 0 l -3.12872,-3.29358 -3.5955,4.03811 -6.33314,-1.41334 -0.66864,1.23667 v 0 l -2.44747,1.09786 -2.88902,-1.41333 -1.52651,0.94642 -1.18589,3.26835 -3.64597,-1.36286 -2.38439,-1.76667 -1.27418,-2.17049 -2.19516,-1.13572 1.93022,-0.7319 1.04711,-2.54906 -0.12615,-2.7636 2.3213,-0.36595 2.23301,0.98429 -1.55176,-7.42003 -1.05972,-1.70358 2.68716,-8.42956 1.21112,0.0505 0.22708,-3.02859 1.67792,-0.0127 -1.46344,-2.10739 4.56692,-1.66572 -1.74098,-1.3881 -2.4727,0.18929 -3.15395,-2.87716 0.6434,-1.89286 2.15731,-0.0884 0.52986,-1.29977 -4.99586,-0.25237 -0.34063,-1.61525 -2.11946,-0.98429 -0.90834,-1.86763 1.94284,-0.59309 -0.27755,-1.9181 1.27419,-1.17359 3.12873,0.54262 4.51646,-4.64383 1.00927,-5.60289 -1.00927,-3.00334 -10.04218,1.6531 -1.72837,-3.44501 0.35325,-3.87407 2.04376,-1.06 0.50462,0.71929 2.34655,-0.99691 -4.35245,-3.62168 -0.0631,-2.37239 -3.68383,-3.04121 -2.06899,-0.68143 0.0631,-1.26191 -1.96808,-2.25882 0.36586,-2.15787 12.17427,-5.13597 2.68716,-5.41359 -0.6434,-1.72882 0.5677,-2.29668 -0.74433,-1.11047 0.68126,-2.91502 2.23299,-0.0631 4.55432,-2.34716 1.93021,-2.68787 3.60812,-3.00335 0.55511,-2.15787 v 0 l 1.62742,-0.95905 1.45082,2.54906 10.53421,4.39145 3.97398,0.98429 3.38104,-1.55214 4.21368,-7.65981 1.6779,-1.74144 -0.70648,-4.99715 -2.32132,-0.6562 0.88311,-8.59361 -6.71161,-4.21478 -3.12872,-3.28097 -1.86714,-0.56786 -0.66864,-3.91192 -2.93949,-4.25264 2.09424,-2.03167 0.56771,0.45429 2.64932,-1.41334 0.31539,-1.41334 1.50129,-0.66881 0.55509,1.27452 3.10349,-0.97166 5.02108,-3.19263 1.27421,0.44166 0.15138,-3.44502 -1.26157,0.21452 -0.11355,-2.34715 4.90756,-0.71929 0.68125,0.82024 3.16657,-3.1043 -0.65602,-2.14525 3.75951,-0.95905 0.65602,-3.84882 1.84191,-0.21452 v 0 z"
     inkscape:connector-curvature="0"
     style="fill:#87a4c3;fill-opacity:1;stroke:#ffffff;stroke-width:0.630873;stroke-opacity:1" />
  <path
     id="KZ-YUZ"
     title="Ongtüstik Qazaqstan oblysy"
     class="land"
     d="m 509.13318,592.79564 46.37573,0.73191 v 0 l 4.44077,7.25599 5.55095,15.77387 3.0278,13.11125 1.40035,1.99382 4.08752,25.3013 -0.92096,0.61834 -0.44154,2.91502 -1.70314,2.66262 -0.4037,3.8993 -3.01518,8.39171 -3.30533,4.73216 2.57362,0.90857 -0.68126,1.06001 1.05973,3.28097 1.87976,-0.54262 -0.27755,1.22405 1.70314,-0.265 2.59885,1.89287 0.75694,-1.86763 0.55511,0.0505 0.47939,1.98119 2.20776,0.20191 0.60558,0.88334 0.87048,-0.34072 0.60555,0.75715 -0.44155,1.47643 1.24897,1.21144 0.90834,-0.60572 0.63079,0.47953 -0.88311,1.56477 1.56436,0.97167 -0.63078,0.63096 0.83264,1.17357 -0.25232,4.36621 0.4794,0.5931 -0.60556,1.59 2.57363,1.59002 1.80406,-0.10096 0.27754,1.11049 1.45083,0.54262 0.13877,1.08523 0.79479,0.21453 1.00927,1.82977 1.33727,0.25238 1.66529,2.91501 1.95546,-0.51738 v 2.0443 l 1.05973,0.0505 1.38773,2.01906 v 0 l -0.22708,2.48597 1.56436,0.16404 -2.46009,2.13263 -1.05972,-0.51739 -0.80741,0.75715 -2.09424,2.54906 -1.22373,3.55859 -1.66528,-0.58048 -0.31539,-1.66573 -3.31797,-2.00643 -0.4794,1.56477 -1.67789,1.59001 0.20184,1.93072 -2.22038,1.13572 -1.96806,3.16739 -2.39702,1.35025 -0.55508,1.29976 -1.1985,-0.7319 -1.00927,2.27143 -1.55174,0.63096 -1.28683,-0.71929 -5.18509,1.99382 -2.59886,3.24311 -2.29607,1.17357 -0.39109,0.68144 0.65602,1.41335 -5.43742,0.0379 -2.35915,2.29668 -0.60557,1.51429 -1.36249,-0.0757 -2.15732,4.83312 -2.01852,1.42595 -3.5829,5.86789 -1.72836,1.00953 -0.27754,-0.8581 0.94618,-0.64357 -1.47605,-0.25239 -0.26494,-0.80762 -1.24896,0.78239 -2.77548,-0.47954 0.0126,0.68144 1.91761,0.1262 0.46678,0.7319 -0.39109,5.75431 4.06229,5.9436 -2.28346,0.90857 -1.2742,-0.0884 -0.42893,0.59309 -2.58625,-0.75714 0.29017,-0.60571 -1.00927,-0.83286 -0.99665,0.265 -2.16992,-1.85502 -2.00591,-0.70666 -1.90499,-2.13263 -4.35246,-2.15786 -0.75695,-1.06001 0.3911,-1.21144 2.1573,-0.0757 -0.0505,-2.76358 0.78218,-0.78239 -0.73172,-1.82977 2.05638,-1.06 -1.46344,-0.79501 -2.83855,1.11048 -4.04967,-3.76049 -9.4871,0.0757 -18.17939,-1.65309 -1.84191,-21.02344 -12.77982,-1.55215 0.65603,-14.01982 3.88567,0.76977 9.90341,-10.27195 3.44412,2.12 6.90085,-6.96574 6.13129,-4.60597 6.5476,-2.42287 10.53421,-5.60289 0.10092,-1.11048 -1.74099,0.46691 -0.94618,-2.27144 0.42894,-1.79191 -1.42559,0.0631 0.26493,-1.51429 -1.33727,0.75715 0.39109,2.12001 -1.04712,0.64357 -0.73171,-3.24311 2.48531,-0.71928 0.30279,-3.88669 2.33393,-2.39763 -0.0127,-5.32526 2.42225,2.10739 1.0471,-0.50476 0.27755,-3.6343 -1.23636,-2.59954 2.75026,-1.94334 0.94618,0.75714 1.72837,-1.71619 -6.73685,-4.80789 -2.81332,-3.41976 -0.0631,-1.14835 -2.81334,-1.57738 -1.48866,0.47952 -2.61147,-2.54905 0.78218,-2.81407 -0.15139,-24.10249 -3.89829,-1.66572 -4.65523,-3.86145 2.54839,-11.93767 2.19515,-3.67216 -0.74433,-2.385 -3.87306,-2.99074 z"
     inkscape:connector-curvature="0"
     style="fill:#87a4c3;fill-opacity:1;stroke:#ffffff;stroke-width:0.630873;stroke-opacity:1" />
  <path
     id="KZ-ZAP"
     title="Batys Qazaqstan oblysy"
     class="land"
     d="m 108.0387,380.28993 3.25488,-0.18928 0.9588,0.69404 5.0211,-0.8581 0.69387,1.04739 1.55174,0.37857 0.17662,1.55215 -0.34063,1.88024 -2.68717,0.40382 0.82003,2.1831 3.75951,0.69405 2.20776,-1.11048 1.14806,-1.96858 0.49201,1.06001 1.00926,-0.0127 0.45418,0.76976 -0.68126,1.35024 0.75695,0.4543 3.57027,-2.13263 -0.94619,-2.66263 2.4727,-3.6343 2.27085,0.15143 1.89237,1.07262 1.96807,-0.16405 1.29943,-1.17357 0.31539,-1.31239 2.14469,0.0757 1.62744,-1.9181 0.84526,0.49214 0.50463,3.81097 2.96472,4.31573 0.23969,1.50168 0.98404,0.66881 -0.0883,1.07262 1.2742,-0.4038 -0.0379,0.68142 0.78218,0.0631 -0.25232,-0.56787 0.71911,0.13882 0.30277,-0.99691 0.70649,1.28715 -0.17661,-0.78238 1.61481,-0.22715 -0.12615,-0.8581 0.58032,0.31548 0.20185,-1.04738 0.97143,1.07262 1.94283,-0.18929 -0.59294,1.09786 1.41296,-0.89595 0.6308,1.48905 0.60556,-0.98429 0.69387,0.3281 1.67789,-0.95905 2.09423,0.37856 -0.39109,-1.33761 1.13543,-0.41643 0.0505,0.92119 1.67789,0.17666 0.4037,0.83286 2.37177,-1.06 2.91426,2.91502 1.96807,0.42904 1.37512,1.55215 -0.0631,0.73191 -0.70649,0.10095 0.66865,0.8455 -0.54248,1.55215 1.69051,3.10429 1.77884,0.90857 1.45082,-0.39119 1.00926,0.8581 1.12281,-0.41643 3.3558,1.53954 0.63079,1.07262 1.98068,0.95905 0.0379,2.24619 0.50464,-0.52999 0.69387,1.02214 -0.60556,0.76977 0.37848,0.9212 2.83855,4.32834 3.57028,0.49215 1.70314,0.9212 -2.19515,8.66932 2.08161,3.21787 1.40035,-0.44167 v 0 l 0.37847,0.54262 -3.09087,3.68478 0.41632,1.09786 -2.61147,2.7762 1.84191,2.56168 -0.36586,5.90574 2.88901,2.1074 0.3154,1.9181 -1.00927,3.34407 -2.35914,4.15168 1.43819,1.75405 h -2.7124 l -2.22038,3.49549 0.56771,1.0474 -2.40961,1.42594 -5.12203,-0.31547 -0.44155,1.82977 -2.397,-0.0126 -1.89237,1.70358 -0.99666,2.54906 -1.5265,-0.75715 0.85787,1.96858 -1.61484,5.51455 0.2271,3.49549 v 0 l -5.55096,5.24955 0.64341,1.50167 -3.79735,1.19882 -8.51568,-0.0127 -1.5139,-0.7319 -1.45082,3.40715 -2.18253,-0.94643 0.37846,9.01005 -2.95209,0.12619 -1.71575,7.21813 0.55509,1.81715 -1.72837,1.04739 -2.6367,0.0631 -5.38694,-3.05383 -1.07235,0.13882 -0.87049,1.53953 -7.85965,-1.79191 0.18923,-3.02859 0.84526,-0.5931 -0.65603,-1.33762 -10.37018,-1.79191 -2.91426,1.33762 -5.07155,0.35334 -1.37512,4.27787 -2.25823,1.3881 -1.00927,-0.50476 -2.28346,2.1831 -1.53914,0.0379 -13.473671,9.04789 -4.97063,5.09813 -4.12537,-0.10096 -1.337275,1.09786 -7.632567,-0.41643 0.189238,3.78573 -11.997637,-4.7574 -6.799922,-1.90549 -34.100538,-4.3662 -2.876406,0.15143 -3.709047,-1.23668 v 0 l -2.245747,-3.14203 -2.9142523,-0.36595 -7.68302889,-3.50811 7.01439089,-18.32295 3.8982863,-2.42287 2.4727,-4.31573 0.340626,-1.70358 -0.756948,-1.64048 -5.8537378,-4.63122 0.9083384,-8.41693 0.9714175,-1.93073 1.1732709,-9.55266 6.232212,-2.46072 4.188449,-6.38528 -1.766214,-4.00025 1.614825,-1.65311 -0.592944,-0.66881 0.416322,-2.75096 2.157305,-0.30286 0.02523,-1.45119 2.460084,-3.00335 1.034497,-0.25239 1.766213,0.93382 2.9521,2.27144 0.592943,1.50167 1.173271,0.32809 3.166569,4.30312 1.084959,2.65001 2.598857,2.19573 0.807411,3.69741 2.144688,3.21787 0.02523,1.37548 2.296077,0.17666 2.031145,2.01906 0.731717,0.30286 0.214469,-1.17358 7.380251,-3.35668 3.494579,-3.67216 -0.63079,-2.3724 -2.371774,-0.94643 0.592944,-2.65001 -1.930219,-4.18955 -1.576977,-9.66622 0.353243,-1.17359 -2.258231,-2.91501 1.829294,-0.55523 1.652671,1.5269 3.04041,0.88335 2.788095,-2.24621 3.784743,-4.80787 7.783955,-2.9024 0.02523,-1.46382 -2.169921,-3.93715 1.349892,-2.25883 -0.176621,-1.59 1.198503,-1.27453 2.043761,0.83286 2.207766,-0.63095 3.469349,0.37857 4.857087,-4.65645 10.609898,-4.13907 -0.832644,-1.70358 0.946186,-0.97168 -0.555096,-0.95905 2.7124,-0.23976 0.0757,-1.38809 h 1.17327 l -0.277548,-3.86145 1.652668,-2.72573 3.64597,0.55524 -1.24897,2.23358 2.72501,-0.80762 0.39109,-2.72573 -1.34989,-1.02214 0.12616,-3.05383 2.92687,0.99691 z"
     inkscape:connector-curvature="0"
     style="fill:#87a4c3;fill-opacity:1;stroke:#ffffff;stroke-width:0.630873;stroke-opacity:1" />
  <path
     id="KZ-ZHA"
     title="Zhambyl oblysy"
     class="land"
     d="m 678.23552,592.85873 -1.96806,4.30312 v 0 l -2.33393,3.93716 1.05973,12.87149 1.33728,3.52073 -7.40549,-0.54262 0.44156,6.44835 6.87561,0.17667 0.20186,4.21479 1.43821,2.65001 7.87225,5.51454 2.34655,4.05074 -1.12282,4.13907 0.79481,1.24929 4.68046,4.47978 5.47527,0.5931 2.76286,2.20834 1.52651,0.21452 1.38774,1.88025 2.5484,1.74144 0.11353,4.21477 -1.64005,2.71312 0.56771,2.43548 -0.58032,1.57739 -6.29529,5.53978 0.0127,2.17049 4.13799,1.4512 2.22038,-0.39119 -0.36586,1.17357 3.6712,-0.45429 0.88311,1.48906 -3.25488,3.94978 -0.27756,2.85191 0.93358,0.55524 -0.34063,1.4512 0.94619,0.41643 0.58033,2.39763 6.98916,2.67525 -0.65603,1.33763 v 0 l -1.41296,0.42905 0.27755,0.54263 v 0 l 2.37177,-0.265 1.36251,0.8581 1.27419,-0.55525 0.44155,1.16096 v 0 l -1.04711,3.18002 -1.33727,1.31238 -2.51055,-0.795 -4.55431,-0.0379 -2.58624,-1.13572 -2.93949,0.49214 -4.81923,-3.26835 -1.95545,-0.55523 -0.32801,-0.88334 -1.81668,-0.76977 -2.37178,0.37858 -3.12872,-4.25265 -2.64932,-1.23667 -0.46679,-0.84548 -3.50718,-0.70667 -1.17328,-1.09786 -3.05302,0.0127 -0.27756,1.76667 -2.59885,0.89595 -2.397,-1.13572 -1.55175,3.1674 -2.75024,-0.37857 -5.38696,2.86454 0.0757,1.06001 -1.50129,2.80144 0.0884,4.12644 -1.95546,5.19908 0.36587,3.84882 1.84191,2.37239 -0.5551,0.97167 -3.55766,-0.59309 -0.8831,-0.73191 -0.29017,-1.88025 -4.68047,-0.97167 -4.79401,0.0127 -2.37177,-1.08525 -1.70313,-2.35976 -3.36842,-1.41334 -2.63671,-0.11357 -5.31125,-2.46073 -3.96137,0.75715 -6.28267,-3.20526 -5.77804,2.25883 -2.68717,-1.47644 -3.11611,0.40381 -0.59294,0.66881 -2.18254,-0.11357 -1.21111,2.90239 -1.29943,0.69405 -0.22708,2.08215 -3.04041,0.35334 -0.76957,0.68143 2.03114,2.81406 -0.82002,0.97167 -1.57698,-1.03477 -0.40371,0.34072 -2.28346,4.80788 v 0 l -1.38773,-2.01906 -1.05973,-0.0505 v -2.0443 l -1.95546,0.51738 -1.66529,-2.91501 -1.33727,-0.25238 -1.00927,-1.82977 -0.79479,-0.21453 -0.13877,-1.08524 -1.45083,-0.54261 -0.27754,-1.11049 -1.80406,0.10096 -2.57363,-1.59002 0.60556,-1.59 -0.4794,-0.5931 0.25232,-4.36621 -0.83264,-1.17357 0.63078,-0.63096 -1.56436,-0.97167 0.88311,-1.56477 -0.63079,-0.47953 -0.90834,0.60571 -1.24897,-1.21143 0.44155,-1.47643 -0.60555,-0.75715 -0.87048,0.34072 -0.60558,-0.88334 -2.20776,-0.20191 -0.47939,-1.98119 -0.55511,-0.0505 -0.75694,1.86763 -2.59885,-1.89287 -1.70314,0.265 0.27755,-1.22405 -1.87976,0.54262 -1.05974,-3.28097 0.68127,-1.06001 -2.57362,-0.90857 3.30533,-4.73216 3.01518,-8.39171 0.4037,-3.8993 1.70314,-2.66263 0.44154,-2.91501 0.92096,-0.61834 -4.08752,-25.3013 -1.40036,-1.99382 -3.02779,-13.11125 -5.55095,-15.77387 -4.44077,-7.25599 v 0 l 58.72661,-0.265 23.47802,-0.87073 z"
     inkscape:connector-curvature="0"
     style="fill:#87a4c3;fill-opacity:1;stroke:#ffffff;stroke-width:0.630873;stroke-opacity:1" />
  <path
     id="KZ-AS"
     title="Aral Sea"
     class="water"
     d="m 350.48937,564.88218 -0.40372,3.77311 -0.13876,2.15787 2.42223,2.96549 7.15316,0.54262 1.34989,-1.08524 0.94619,0.1388 -0.3154,6.29694 -1.53912,2.62477 -4.69309,2.28406 -1.76621,1.60263 -2.57362,0.45429 -2.28346,2.12 v 0 l -1.26158,2.73835 v 0 l -1.94285,0.4038 -1.53912,0.4543 v 0 l -0.29016,1.22406 -1.19851,4.29049 -1.26158,0.85811 0.11354,1.08523 v 0 l 0.0631,1.37548 1.19849,1.31239 0.51726,2.00644 0.40369,1.6531 v 0 l -1.03449,4.17693 v 0 l -0.29016,1.26191 1.14804,0.8581 0.5677,2.05691 -0.5677,7.54622 2.233,4.63121 1.48866,0.11358 0.97142,1.19881 1.60221,6.00669 -1.1985,4.92145 -1.96808,1.48906 -30.06347,-21.70486 -0.0252,0.0126 v 0 l -0.42894,-2.05692 -1.65267,-1.31238 -1.26158,-3.54597 0.74434,-2.05691 -0.45418,-4.06335 -3.25488,-1.26192 -1.71575,2.12001 v 0 h -3.20441 l -0.92095,3.36931 v 0 l -6.06821,-4.37883 -2.25823,0.87072 v 0 l 0.87048,-2.41025 1.08497,-0.54262 1.07234,-5.12335 2.29608,-4.05074 5.82851,-2.44812 0.0379,-0.0127 v 0 l 2.62409,0.9969 v 0 l 1.53914,-0.11356 0.51723,-0.4543 1.89238,-1.48905 1.1985,0.63096 1.0345,0.74453 v 0 l -1.48867,2.17048 v 0 l -0.74433,1.08525 -0.68126,1.08524 -0.17662,3.48287 4.06229,-0.63095 v 0 l 1.08497,0.40382 0.90833,-0.74453 0.51726,-1.37549 0.51724,-1.6531 1.65267,0.0631 0.97142,-2.86454 -0.56771,-4.34098 0.45417,-1.6531 -3.31796,-5.71645 -0.0631,-1.37549 0.7948,-0.17667 5.60142,0.29024 0.97141,1.19881 v 0 l 0.63079,4.29051 v 0 l -0.45417,2.39762 0.7948,0.45429 v 0 l 1.71576,-0.11357 3.31795,-2.68787 5.82851,1.03477 4.28937,2.80144 4.63,-0.63096 2.62409,-1.65311 0.56771,-4.34096 -1.94283,-3.25573 -0.22708,-2.23358 -2.00593,1.37548 -1.89235,1.31239 -2.57364,-1.37549 -0.68126,-1.31238 -6.97654,1.19882 -1.71575,-0.74453 -2.1573,-3.65954 0.15139,-2.52382 1.00926,-1.35024 5.56358,-3.71002 h 1.69052 v 0 l 1.18588,1.18619 0.66865,1.35024 v 0 l 0.16399,4.5555 0.90835,-0.64357 v -3.91193 l 3.50719,1.35025 1.34989,-0.66881 1.89238,-1.61525 v -1.62786 l -2.83856,-1.35024 -1.34989,-0.66882 0.13877,-1.21143 2.1573,-0.13881 h 1.21112 v 0 z m -19.59236,40.24233 3.48197,-1.91811 h 6.52237 l -0.35324,-0.60571 -4.86971,-0.51739 -0.60556,-1.29976 -3.12872,-0.35334 -2.0816,0.17667 -4.08753,0.60571 -0.0883,1.82978 -0.0884,2.61215 h 2.61147 z"
     inkscape:connector-curvature="0"
     style="fill:#cccccc;fill-opacity:1;stroke:#ffffff;stroke-width:0.630873;stroke-opacity:1" />
</svg>
