<?xml version="1.0" encoding="UTF-8" standalone="no"?>
<!-- (c) ammap.com | SVG map of Portugal - Low -->

<svg
   version="1.1"
   id="svg1"
   sodipodi:docname="portugalLow.svg"
   width="792.66583"
   height="387.41196"
   inkscape:version="1.3.1 (91b66b0783, 2023-11-16)"
   xmlns:inkscape="http://www.inkscape.org/namespaces/inkscape"
   xmlns:sodipodi="http://sodipodi.sourceforge.net/DTD/sodipodi-0.dtd"
   xmlns="http://www.w3.org/2000/svg"
   xmlns:svg="http://www.w3.org/2000/svg"
   xmlns:amcharts="http://amcharts.com/ammap">
  <sodipodi:namedview
     id="namedview1"
     pagecolor="#ffffff"
     bordercolor="#666666"
     borderopacity="1.0"
     inkscape:showpageshadow="2"
     inkscape:pageopacity="0.0"
     inkscape:pagecheckerboard="0"
     inkscape:deskcolor="#d1d1d1"
     inkscape:zoom="1.5909903"
     inkscape:cx="481.46115"
     inkscape:cy="154.30641"
     inkscape:window-width="1920"
     inkscape:window-height="1106"
     inkscape:window-x="-11"
     inkscape:window-y="-11"
     inkscape:window-maximized="1"
     inkscape:current-layer="svg1" />
  <defs
     id="defs1">
    <style
       type="text/css"
       id="style1">
			.land
			{
				fill: #CCCCCC;
				fill-opacity: 1;
				stroke:white;
				stroke-opacity: 1;
				stroke-width:0.5;
			}
		</style>
    <amcharts:ammap
       projection="mercator"
       leftLongitude="-31.270171"
       topLatitude="42.155925"
       rightLongitude="-6.187163"
       bottomLatitude="32.400528" />
    <!-- All areas are listed in the line below. You can use this list in your script. -->
    <!--{id:"PT-01"},{id:"PT-02"},{id:"PT-03"},{id:"PT-04"},{id:"PT-05"},{id:"PT-06"},{id:"PT-07"},{id:"PT-08"},{id:"PT-09"},{id:"PT-10"},{id:"PT-11"},{id:"PT-12"},{id:"PT-13"},{id:"PT-14"},{id:"PT-15"},{id:"PT-16"},{id:"PT-17"},{id:"PT-18"},{id:"PT-20"},{id:"PT-30"}-->
  </defs>
  <g
     id="g1"
     transform="translate(0.32802546,-137.96012)">
    <path
       id="PT-01"
       title="Aveiro"
       class="land"
       d="m 714.45,186.3 2.77,0.02 0.91,-1.04 1.06,1.26 0.89,-0.83 -0.82,-0.39 0.2,-0.55 0.93,0.43 0.25,-0.46 1.88,2.17 -0.3,-2.13 1.62,0.49 1.68,-1.65 0.95,0.6 v 0 l 0.85,0.34 -0.12,1.35 1.16,0.63 -0.28,0.67 2.51,0.64 1.34,-1.27 0.06,0.89 -1.37,1.65 0.93,3.38 -0.84,0.75 -1.19,-0.72 -0.73,0.83 -1.28,-0.77 -0.76,0.37 0.57,1.27 -1.13,2.85 -1.88,0.71 0.19,1.19 0.92,0.75 0.08,2.41 1.55,0.78 -1.99,0.83 0.74,2.38 1.1,1.16 -2.7,1.04 0.57,1.85 -1.18,1.34 -0.04,1.72 v 0 l -0.05,0.82 -1.49,-0.19 -0.14,1.16 -1.24,0.26 -0.18,1.58 -2.19,-0.47 -0.2,-1.04 1.42,0.01 0.12,-2.9 -0.74,-1.51 -2.14,0.91 -0.07,-2.67 -1.27,-0.86 -0.64,2.45 -0.88,-0.09 -3.83,-3.8 v 0 l 1.01,-4.22 -0.36,-0.88 2.58,-8.59 z" />
    <path
       id="PT-02"
       title="Beja"
       class="land"
       d="m 729.62,296.49 3.45,-0.34 1.44,1.16 0.89,-0.75 4.5,2.66 2.52,0.21 2.83,1.85 1.09,-0.37 4.33,0.84 0.06,-0.73 2.74,-2.42 0.08,-1.25 1.61,-0.04 0.59,-0.86 1.57,-0.41 1.36,2.72 1.71,0.67 -0.28,0.9 1.24,2.57 1.64,-1.13 v 0 l 0.74,0.75 4.69,-2.03 -1.05,2.15 0.53,0.55 -1.12,2.02 -0.45,3.18 -1.41,0.33 -1.64,-1.18 -0.94,0.57 0.24,0.99 -1.66,0.47 -0.91,-0.42 -1.91,0.94 0.45,1 -1.11,3.42 -1.29,2.12 -3.06,2.26 -0.7,3.75 -1.91,2.37 -0.27,3.12 v 0 l -1.95,-0.11 -1.39,1.47 -1.81,-0.55 -2.83,0.72 -2.87,1.99 -1.12,0.11 -0.51,1.2 -2.35,-0.1 -0.78,1.17 0.51,0.57 -2.37,1.74 -3.88,-0.9 -2.73,-1.79 -0.08,-1.51 -1.34,-0.54 -0.29,0.61 -2.81,0.16 -1.04,1.69 -2.02,-0.08 -1.74,-1.29 -1.45,0.37 -0.74,1.04 -0.78,-1 -2.19,0.22 -0.51,-1.45 -1.47,-0.44 v 0 l 0.33,-3.56 -1.07,-2.64 1.06,-4.55 -0.84,-1.39 0.62,-2.81 v 0 l 0.53,0.58 1.29,-0.39 1.64,2.44 0.71,-0.6 1.38,0.76 0.95,-0.3 0.11,-1.69 1.09,-0.66 0.37,-1.49 3.25,-0.7 3.28,0.95 -0.14,-0.77 1.13,-1.3 0.18,-3.76 -0.8,-1.31 -1.42,0.17 -1.44,-2.03 0.66,-1.69 0.8,0.45 0.94,-2.06 1.34,0.65 0.21,-1.9 1.41,0.29 0.61,-0.93 2.86,-0.86 0.01,-1.69 z" />
    <path
       id="PT-03"
       title="Braga"
       class="land"
       d="m 733.2,152.59 -0.34,2.48 -1.82,3.01 2.6,-0.49 1.52,0.67 -0.26,3.43 3.66,0.65 0.96,-1.14 1.27,1.76 -1.6,2.58 -1.01,-0.07 -0.29,1.02 -1.12,0.48 -1.14,4.31 v 0 l -1.79,2.36 -1.09,-1.02 -0.67,0.58 -1.05,-0.58 -1.45,-2.4 -1.51,-0.48 -2.03,1.78 -0.3,1.19 -0.92,-0.43 -0.3,-1.07 -2.15,0.63 0.31,-0.8 -0.48,-0.14 -1.01,0.89 -0.77,-0.53 -1.44,0.3 -0.54,0.95 -2.91,0.2 v 0 l 0.01,-2.11 v 0 l 0.62,-0.37 -1.88,-0.82 -0.62,-1.07 -0.98,0.13 -2.35,-1.22 v 0 l -1.09,-5.93 v 0 l 1.67,-0.09 1.9,-1.11 1.44,0.4 0.25,-0.98 1.23,0.85 0.85,-0.36 0.46,0.81 0.7,-0.32 -0.21,-1.35 0.81,-0.68 0.63,-2.49 1.27,0.26 2.73,-1.6 2.16,0.38 0.39,-0.83 0.71,0.41 3.37,-1.98 v 0 l 2.25,0.43 z" />
    <path
       id="PT-04"
       title="Bragança"
       class="land"
       d="m 772.71,145.41 0.99,0.22 0.57,1.71 0.76,0.28 3.32,-0.12 1.05,-1.17 1.22,0.97 -0.68,2.58 1.75,0.5 -1.68,5.41 0.86,2.66 1.33,0.98 1.74,-1.17 4.49,0.97 3.57,3.67 -2.17,2.55 0.22,0.58 -1.72,2.12 0.17,0.88 -1.05,0.77 0.49,1.04 -2.27,0.04 0.4,1.06 -1.21,0.48 -0.71,1.79 -1.55,0.58 0.27,0.65 -0.57,0.41 -0.83,-0.4 -1.54,1.53 -0.64,-0.68 -0.26,0.49 -1.53,-0.17 -1.92,3.14 -1.86,1.58 0.44,1.28 -1.73,2.82 -3.87,0.3 v 0 l -1.91,0.18 -3.47,-2.31 0.57,-1.9 -1.47,-0.49 0.41,-1.74 -1.47,2.22 -2.71,-0.79 -1.73,0.23 v 0 l -1.68,-0.35 -1.04,-1.98 -1.31,-0.65 v 0 l 0.56,-1.57 0.85,0.16 -0.13,-1.73 0.93,-0.76 -0.42,-0.44 1.92,-1 -1.48,-1.11 -0.12,-3.17 2.11,-1.01 0.46,-2.15 1.73,-0.3 -0.94,-2.88 1.58,-5.09 1.16,-1.37 0.03,-1.06 -1.24,-1.86 0.31,-2.77 v 0 l 0.86,-1.67 -0.38,-2.25 1.39,-0.78 1.7,0.73 0.49,1 2.08,-0.03 0.85,-0.99 1.1,1.24 1.65,0.2 2.23,-0.26 z" />
    <path
       id="PT-05"
       title="Castelo Branco"
       class="land"
       d="m 741.69,218.88 3.99,-1.81 1.49,-2.06 2.26,0.24 1.58,-3.18 4.49,0.54 0.55,-1.2 1.09,-0.22 0.71,0.34 -0.1,2.5 -1.86,2.21 0.43,0.54 2.49,0.92 0.87,-1.14 1.62,0.72 1.56,-2.31 0.89,1.9 2.2,-0.48 1.98,1.35 v 0 l -0.38,0.79 -1.56,0.53 -0.27,3.36 0.89,1.29 h 1.65 l 2.43,4.13 -1.35,3.62 0.1,2.18 -2.64,2.48 0.33,1.54 -1.23,4.17 -4.29,0.71 -3.16,-0.56 -2.59,1.06 -6.57,-0.93 v 0 l -3.03,1.67 -1.08,-1.07 -1,0.51 -0.6,1.77 -1.03,0.2 -2.21,2.08 v 0 l 0.46,-1.35 -1.71,-2.77 -1.58,-1.24 -1.36,0.29 v 0 l -0.39,-3.43 v 0 l -0.64,0.69 -1.48,-0.79 -0.55,0.49 -0.11,2.61 -0.6,0.54 0.69,1.69 -2.51,0.25 -3.21,-1.38 0.23,-4.42 -0.44,-1.05 -0.71,0.41 -0.62,-1.07 v 0 -0.03 0 l 0.31,-1.91 2.06,-0.35 0.75,-1.25 1.17,-0.16 0.96,-2 v 0 l 0.12,-0.6 1.02,0.07 -0.11,-0.75 1.68,0.19 0.05,-0.99 0.45,0.56 0.11,-0.75 1.59,0.5 0.33,-1.04 1.61,-0.01 -0.44,-1.23 1.63,-1.04 1.77,0.92 0.06,-1.42 v 0 l -0.35,-0.26 v 0 l 0.96,-0.38 0.43,0.89 1.31,-1.72 -2.44,-3.12 z" />
    <path
       id="PT-06"
       title="Coimbra"
       class="land"
       d="m 710.05,206.88 3.83,3.8 0.88,0.09 0.64,-2.45 1.26,0.86 0.08,2.67 2.13,-0.91 0.74,1.51 -0.11,2.9 -1.42,-0.01 0.2,1.04 2.18,0.47 0.18,-1.58 1.24,-0.27 0.14,-1.16 1.49,0.19 0.05,-0.82 v 0 l 1.79,0.38 1.54,1.44 1.83,-0.83 1.86,0.42 5.06,-2.97 4.59,-3.86 v 0 l 1,1.7 -1.62,1.18 0.09,0.61 1.52,0.37 -0.25,2.3 1.48,0.73 -1.46,0.99 -0.68,1.73 1.38,1.48 v 0 l -0.85,1.98 2.44,3.12 -1.31,1.72 -0.43,-0.89 -0.96,0.38 v 0 l 0.35,0.26 v 0 l -0.06,1.42 -1.77,-0.92 -1.63,1.04 0.44,1.23 -1.61,0.01 -0.33,1.04 -1.59,-0.5 -0.11,0.75 -0.45,-0.56 -0.05,0.99 -1.68,-0.19 0.11,0.75 -1.02,-0.07 -0.12,0.6 v 0 l -0.43,-0.24 0.71,-1.3 -1.45,-2.07 0.38,-2.09 -1.11,-0.69 -0.97,1.54 -1.03,-0.62 -1.06,0.9 -0.7,1.48 0.87,0.83 -0.28,1.22 -1.09,-1.2 -1.89,2.66 -1.11,-0.33 0.92,-0.97 -1.46,-2.92 -0.03,1.19 -0.96,-0.83 -1.05,1.3 -1,0.07 -0.52,1.46 -0.73,-3.25 -0.94,0.02 -0.74,1.45 -0.88,0.08 0.06,-0.85 -1.09,-0.78 -2.87,-0.45 -1.08,1.17 -2.15,-0.45 -0.8,-0.86 v 0 l 1.02,-3.83 -1.51,-2.06 z" />
    <path
       id="PT-07"
       title="Évora"
       class="land"
       d="m 727.62,269.61 0.29,0.37 1.38,-1.72 2.24,-0.08 -0.52,0.76 0.55,1.41 1.03,-1.89 1.79,1.39 -0.27,1.64 3.08,-1.37 1.54,2.68 2.72,0.51 1.19,-0.5 0.61,-1.25 1.1,1.08 0.46,-0.69 1.45,0.73 1.05,-1.71 1.96,-0.58 -0.34,-0.99 0.62,-0.64 2.54,1.78 -0.42,1.55 1.37,0.91 0.58,2.21 -0.62,0.03 1.03,1.88 2,-0.1 0.08,-0.86 2.55,-0.91 1.18,0.67 -0.79,1.96 0.91,1.26 v 0 l -1.77,1.12 -0.4,3.43 0.91,0.58 -2.24,4.43 -0.22,1.43 0.67,-0.18 0.05,0.53 -1.17,1.36 1.77,0.65 4.08,5.77 1.35,3.51 v 0 l -1.64,1.13 -1.24,-2.57 0.28,-0.9 -1.71,-0.67 -1.36,-2.72 -1.57,0.41 -0.59,0.86 -1.61,0.04 -0.08,1.25 -2.74,2.42 -0.06,0.73 -4.33,-0.84 -1.09,0.37 -2.83,-1.85 -2.52,-0.21 -4.5,-2.66 -0.89,0.75 -1.44,-1.16 -3.45,0.34 v 0 l -1.05,-0.91 -2.26,-0.44 -0.25,-0.72 -1.43,-0.03 1.22,-1.6 -0.57,-0.49 0.57,-0.06 -1.24,-0.44 0.4,-0.87 -1.85,-3.51 -3.38,1.17 -0.9,-1.24 -0.49,0.19 0.44,0.95 -0.71,0.32 -1.47,-1.48 -2.02,-0.06 -0.45,-2.52 4.81,-4.16 -0.31,-0.82 0.63,-1.03 -1.76,-0.09 v 0 l 1.46,-1.77 0.95,0.5 1.27,-1.58 0.67,0.45 0.99,-1.35 1.14,0.71 0.64,-0.82 0.35,0.58 0.29,-0.93 1.58,1.99 0.9,-0.44 0.55,1.22 0.99,-0.07 -0.13,0.51 1.14,0.62 0.51,-1.23 -0.79,-0.66 -0.3,0.53 -0.87,-1.24 0.91,-1.17 -3.58,-1.66 z" />
    <path
       id="PT-08"
       title="Faro"
       class="land"
       d="m 740.33,348.75 0.55,0.1 -1.95,1.54 z m -3.7,-0.07 2.27,1.68 -1.73,-0.23 -1.68,-1.24 z m 3.92,-0.63 0.37,0.36 -1.61,0.47 z m -13.05,-2.4 -2.1,0.43 -2.13,-1.16 -2.25,0.64 -3.12,-1.28 -2.55,-0.2 -1.53,0.64 -0.09,1.1 -1.87,-0.3 -5.29,1.74 -1.69,1.93 -0.5,-1.25 -1.05,0.11 2.95,-5.64 -0.47,-1.23 1.83,-2.86 -0.56,-2.06 2.58,-4.82 v 0 l 1.47,0.44 0.51,1.45 2.19,-0.22 0.78,1 0.74,-1.04 1.45,-0.37 1.73,1.29 2.02,0.09 1.04,-1.69 2.81,-0.16 0.29,-0.61 1.33,0.54 0.09,1.51 2.73,1.8 3.87,0.89 2.37,-1.74 -0.51,-0.57 0.78,-1.17 2.35,0.11 0.51,-1.2 1.13,-0.11 2.87,-2 2.83,-0.72 1.8,0.56 1.4,-1.48 1.95,0.11 v 0 l 1.54,1.55 1.78,12.48 -1.64,-0.22 -3.2,1.01 -7.37,5.39 -1.02,-0.48 -1.39,0.82 -0.45,1 -1.78,-1.13 -1.33,0.25 -4.04,-2.62 -2.27,-0.8 z" />
    <path
       id="PT-09"
       title="Guarda"
       class="land"
       d="m 753.2,190.22 1.23,0.85 -0.62,0.88 -1.01,-0.59 z m 3.58,-9.08 1.74,-0.23 2.7,0.79 1.47,-2.22 -0.4,1.74 1.46,0.49 -0.56,1.91 3.47,2.31 1.92,-0.18 v 0 l 4.09,7.03 v 0.63 l -0.79,0.22 -0.13,3.64 1.17,3.8 -1.62,3.95 1.41,0.65 0.18,1.61 -1.72,2.48 0.48,1.81 1.69,1.78 -0.41,1.49 -2.12,1.19 -0.3,1.53 -2.54,0.2 v 0 l -1.98,-1.34 -2.2,0.48 -0.89,-1.9 -1.56,2.31 -1.61,-0.72 -0.87,1.14 -2.49,-0.92 -0.43,-0.55 1.86,-2.21 0.1,-2.5 -0.71,-0.33 -1.09,0.22 -0.55,1.19 -4.49,-0.53 -1.58,3.18 -2.26,-0.24 -1.49,2.06 -3.99,1.8 v 0 l -1.37,-1.48 0.68,-1.72 1.46,-1 -1.48,-0.72 0.25,-2.3 -1.52,-0.37 -0.1,-0.61 1.62,-1.18 -0.99,-1.7 v 0 l 5.14,-2.53 2.67,-0.57 1.44,-4.84 -1.76,-0.98 0.64,-1.47 -1.81,-1.34 2.11,-3.77 1.49,0.12 1.91,2.37 1.59,-2.75 0.74,0.41 0.18,-1.82 1.2,-0.9 0.35,-1.58 -1.69,-0.8 -0.01,-0.92 1.31,-0.04 -0.26,-1.34 z" />
    <path
       id="PT-10"
       title="Leiria"
       class="land"
       d="m 713.14,245.57 0.48,0.63 -1.37,1.74 v 0 l -0.61,-0.63 v 0 l 0.14,2.29 v 0 l -5.5,0.58 -1.33,3.05 -1.43,0.58 -0.11,3.25 v 0 l -2.27,-0.53 -3.52,3.99 -0.77,-1.47 0.49,-0.86 -0.42,-1.36 -1.74,-0.63 -1.3,1.39 -1.4,-0.34 v 0 l -0.76,-2.32 -1.39,-0.44 1.98,-0.15 3.33,-2.53 0.93,0.76 -0.36,0.26 1.25,-0.04 -1.39,-1.4 1.77,-2.64 1.08,-0.15 -0.26,-0.7 2.19,-2.7 -0.33,-0.67 1.14,-4.73 4.95,-13.29 v 0 l 0.8,0.86 2.15,0.44 1.07,-1.16 2.87,0.44 1.09,0.78 -0.05,0.85 0.88,-0.08 0.74,-1.45 0.94,-0.01 0.72,3.25 0.52,-1.46 1,-0.06 1.05,-1.3 0.96,0.83 0.03,-1.19 1.46,2.92 -0.91,0.97 1.11,0.33 1.89,-2.66 1.09,1.2 0.28,-1.21 -0.86,-0.83 0.7,-1.48 1.06,-0.9 1.03,0.63 0.97,-1.55 1.12,0.7 -0.39,2.09 1.45,2.07 -0.71,1.3 0.44,0.24 v 0 l -0.96,2 -1.17,0.17 -0.75,1.25 -2.06,0.35 -0.31,1.91 v 0 0 0 l -1.49,-0.28 0.11,1.67 -0.5,-0.51 -1.1,0.92 -0.76,-0.34 -1.54,1.2 -0.77,-4.39 -3.65,2.51 -1.33,-0.53 -1.31,0.66 -0.13,1.11 0.52,0.89 -0.47,0.66 1.43,0.6 -0.49,1.37 -1.67,0.92 v 0 z" />
    <path
       id="PT-11"
       title="Lisboa"
       class="land"
       d="m 698.66,281.01 -4.29,0.26 -1.35,1.03 -2.16,-1.16 -1.09,0.51 -1.88,-0.76 0.45,-1.68 -0.9,-1.24 2.85,-6.36 -0.36,-5.52 2.41,-5.21 0.14,-3.6 v 0 l 1.4,0.34 1.31,-1.39 1.74,0.63 0.43,1.36 -0.48,0.86 0.77,1.47 3.53,-3.99 2.27,0.53 v 0 l 0.61,0.39 -0.19,1.52 2.2,0.59 1.15,-0.64 1.35,1.12 0.2,1.51 -2.73,0.57 3.63,3.07 0.51,1.54 -1.32,1.23 -1.16,-0.03 0.6,0.48 -1.13,1.9 0.84,0.29 -1.28,0.74 -0.63,2.27 -1.82,2.5 v 0 l -0.66,-1.03 -0.18,-3.61 -2.82,4.9 -0.57,3.53 z" />
    <path
       id="PT-12"
       title="Portalegre"
       class="land"
       d="m 749.43,242.2 1.19,2.93 2.19,2.25 1.25,0.2 0.27,1.57 2.77,1.4 -0.9,3.07 0.48,1.84 2.4,2.35 -0.31,2.85 3.37,1.5 -0.29,2.54 1.22,0.38 2.29,-0.73 2.31,2.54 0.27,1.25 -3.19,4.72 0.4,1.71 -5.19,4.57 v 0 l -0.91,-1.26 0.79,-1.96 -1.18,-0.67 -2.55,0.91 -0.08,0.86 -2,0.1 -1.03,-1.88 0.62,-0.03 -0.58,-2.21 -1.37,-0.91 0.42,-1.55 -2.54,-1.78 -0.62,0.64 0.34,0.99 -1.96,0.58 -1.05,1.71 -1.45,-0.73 -0.46,0.69 -1.1,-1.08 -0.61,1.25 -1.19,0.5 -2.72,-0.51 -1.54,-2.68 -3.08,1.37 0.27,-1.64 -1.79,-1.39 -1.03,1.89 -0.55,-1.41 0.52,-0.76 -2.24,0.08 -1.38,1.72 -0.29,-0.37 v 0 l -1.99,-3.77 -1.66,-1.19 1.42,-2.16 3.55,-2.24 1.6,-2.77 1.79,0.35 1.65,-2.59 -0.11,-0.91 1.94,-0.76 0.92,-1.11 -2.2,-2.58 1.69,-3.72 3.29,2.19 0.83,-1.08 v 0 l 2.21,-2.08 1.03,-0.2 0.6,-1.77 1,-0.51 1.08,1.07 3.03,-1.67 v 0 z" />
    <path
       id="PT-13"
       title="Porto"
       class="land"
       d="m 713.01,179.9 -0.84,-1.46 -0.7,-5.37 -1.5,-3.47 0.37,-2.35 v 0 l 2.35,1.22 0.97,-0.13 0.63,1.08 1.88,0.82 -0.62,0.37 v 0 l -0.01,2.1 v 0 l 2.91,-0.19 0.54,-0.95 1.45,-0.3 0.76,0.53 1.01,-0.89 0.48,0.14 -0.31,0.8 2.15,-0.63 0.3,1.07 0.92,0.43 0.3,-1.19 2.03,-1.78 1.5,0.48 1.46,2.4 1.05,0.58 0.67,-0.58 1.09,1.02 1.79,-2.36 v 0 l 0.85,0.95 -0.52,0.97 1.78,1.13 -0.27,1.26 1.28,1.28 -1.15,5.11 v 0 l -1.26,-0.12 -3.19,1.38 -4.79,-0.18 -1.88,1.18 v 0 l -0.95,-0.59 -1.68,1.65 -1.62,-0.49 0.3,2.13 -1.88,-2.17 -0.25,0.46 -0.93,-0.43 -0.2,0.55 0.82,0.39 -0.89,0.83 -1.06,-1.26 -0.91,1.04 -2.77,-0.02 v 0 z" />
    <path
       id="PT-14"
       title="Santarém"
       class="land"
       d="m 703.41,257.06 0.11,-3.25 1.43,-0.58 1.34,-3.05 5.5,-0.58 v 0 l -0.14,-2.29 v 0 l 0.61,0.63 v 0 l 1.36,-1.71 -0.47,-0.66 -0.5,-2.42 v 0 l 1.67,-0.92 0.49,-1.37 -1.43,-0.6 0.47,-0.66 -0.52,-0.89 0.13,-1.11 1.31,-0.65 1.34,0.53 3.65,-2.51 0.77,4.39 1.54,-1.2 0.76,0.34 1.1,-0.92 0.5,0.51 -0.1,-1.67 1.5,0.28 v 0 l 0.01,0.04 v 0 l 0.61,1.07 0.72,-0.42 0.44,1.06 -0.23,4.42 3.21,1.38 2.51,-0.24 -0.69,-1.7 0.6,-0.53 0.1,-2.61 0.55,-0.49 1.48,0.79 0.64,-0.69 v 0 l 0.39,3.44 v 0 l 1.36,-0.29 1.59,1.24 1.71,2.77 -0.46,1.35 v 0 l -0.83,1.08 -3.29,-2.19 -1.69,3.72 2.19,2.58 -0.92,1.11 -1.94,0.76 0.11,0.92 -1.65,2.58 -1.79,-0.34 -1.6,2.76 -3.54,2.24 -1.43,2.16 1.66,1.2 1.99,3.77 v 0 l -1.4,3.24 3.58,1.66 -0.91,1.17 0.87,1.25 0.3,-0.54 0.79,0.66 -0.51,1.23 -1.15,-0.62 0.14,-0.51 -0.99,0.07 -0.56,-1.22 -0.9,0.45 -1.58,-1.99 -0.29,0.93 -0.35,-0.58 -0.64,0.82 -1.14,-0.71 -1,1.35 -0.67,-0.45 -1.27,1.59 -0.95,-0.5 -1.47,1.78 v 0 l -2.09,-0.79 0.53,-2.33 -1.35,1.27 -2.17,-1.45 -1.44,4.14 -1.2,0.35 -1.5,-1.11 -2.17,1.03 -0.58,-0.95 v 0 l -0.6,-0.74 0.31,-1.04 -1.06,-0.91 v 0 l 1.82,-2.5 0.63,-2.27 1.28,-0.73 -0.84,-0.29 1.14,-1.9 -0.6,-0.48 1.16,0.03 1.32,-1.23 -0.51,-1.54 -3.63,-3.07 2.73,-0.57 -0.2,-1.51 -1.35,-1.12 -1.15,0.64 -2.2,-0.59 0.2,-1.52 z" />
    <path
       id="PT-15"
       title="Setúbal"
       class="land"
       d="m 710.19,292.41 3.4,0.11 -1.57,-0.9 -0.66,-4.77 -0.66,1.32 -0.81,-0.64 0.22,1.13 -0.92,0.22 1.7,0.16 -0.71,1.33 -3.75,-1.92 -4.11,2.99 -6.13,1.29 1.3,-3.69 1.19,-0.74 -1.2,0.31 -0.93,-3.58 -1.62,-2.32 3.69,-1.03 -0.01,0.91 1.46,0.68 -0.85,-0.13 0.67,1.27 -0.04,-0.88 0.77,-0.08 1.02,1.63 -0.47,-1.8 -0.82,-0.44 1.57,-0.78 0.11,0.71 0.55,-0.36 0.82,0.77 -0.46,-1.27 1.28,-0.69 -2.53,0.41 0.14,-1.04 3.75,-1.78 v 0 l 0.58,0.95 2.17,-1.03 1.5,1.11 1.2,-0.35 1.44,-4.14 2.17,1.46 1.36,-1.27 -0.53,2.33 2.09,0.79 v 0 l 1.76,0.09 -0.63,1.03 0.31,0.82 -4.81,4.16 0.45,2.53 2.02,0.06 1.47,1.48 0.71,-0.32 -0.44,-0.95 0.49,-0.18 0.9,1.24 3.37,-1.16 1.86,3.51 -0.4,0.87 1.24,0.44 -0.57,0.06 0.57,0.49 -1.23,1.6 1.43,0.03 0.26,0.72 2.26,0.44 1.05,0.91 v 0 l 1.1,2.15 v 1.7 l -2.86,0.86 -0.61,0.92 -1.4,-0.29 -0.22,1.9 -1.34,-0.64 -0.94,2.05 -0.8,-0.45 -0.66,1.69 1.45,2.03 1.42,-0.17 0.8,1.31 -0.18,3.76 -1.13,1.3 0.14,0.78 -3.28,-0.95 -3.24,0.7 -0.37,1.49 -1.09,0.66 -0.1,1.69 -0.95,0.29 -1.38,-0.75 -0.71,0.6 -1.64,-2.45 -1.29,0.39 -0.53,-0.58 v 0 l -0.48,-4.31 -2.52,-0.97 1.58,-2.76 1.56,-4.99 0.12,-7.66 -1.31,-3.37 -2.55,-2.86 2.59,1.92 0.82,2.23 -0.26,-2.13 z" />
    <path
       id="PT-16"
       title="Viana do Castelo"
       class="land"
       d="m 728.77,138.91 0.29,3.29 2.01,-0.73 0.69,0.42 0.44,1.87 -2.53,1.93 -1.7,2.93 0.53,1.67 0.97,-0.11 0.13,2.46 v 0 l -3.37,1.98 -0.71,-0.41 -0.39,0.83 -2.16,-0.38 -2.73,1.6 -1.27,-0.26 -0.63,2.49 -0.81,0.68 0.21,1.35 -0.7,0.32 -0.46,-0.81 -0.85,0.36 -1.23,-0.85 -0.25,0.98 -1.44,-0.4 -1.9,1.11 -1.67,0.09 v 0 l -2.23,-5.8 0.64,-2.55 -0.41,-2.53 3.69,-2.66 0.38,-1.38 2.59,-1.55 0.83,-1.92 2.84,-0.27 0.83,-1.08 5.93,-0.18 2.47,-2.24 0.94,0.14 0.8,-0.89 z" />
    <path
       id="PT-17"
       title="Vila Real"
       class="land"
       d="m 737.79,148.04 0.67,0.12 -0.24,2.74 0.61,0.61 0.87,-1.53 4.56,-1.12 1.48,1.12 2.15,-0.03 -0.81,2.23 2.85,-0.54 0.6,-1.16 1.57,0.18 0.77,2.44 1.97,-1.92 1.6,0.43 3.62,-1.56 v 0 l -0.31,2.77 1.24,1.86 -0.03,1.06 -1.16,1.37 -1.58,5.09 0.94,2.88 -1.73,0.3 -0.46,2.15 -2.11,1.01 0.12,3.17 1.48,1.11 -1.92,1 0.42,0.44 -0.93,0.76 0.13,1.73 -0.85,-0.16 -0.56,1.57 v 0 l -2.24,0.48 -0.65,0.82 -0.77,-0.36 -1.33,1.34 -2.36,-0.27 -1.05,0.89 -3.13,-0.85 -0.53,0.67 -1.9,-0.47 -1.19,1.55 v 0 l 1.14,-5.11 -1.28,-1.28 0.27,-1.25 -1.78,-1.13 0.53,-0.97 -0.85,-0.94 v 0 l 1.14,-4.31 1.12,-0.48 0.29,-1.02 1.01,0.07 1.6,-2.58 -1.27,-1.76 -0.96,1.14 -3.66,-0.65 0.26,-3.43 -1.52,-0.67 -2.6,0.49 1.82,-3.01 0.34,-2.48 v 0 l 1.2,-0.43 1.22,-1.93 1.68,-0.11 z" />
    <path
       id="PT-18"
       title="Viseu"
       class="land"
       d="m 752.75,178.16 1.31,0.65 1.04,1.98 1.67,0.35 v 0 l -1.3,3.89 0.26,1.34 -1.31,0.04 0.01,0.92 1.69,0.8 -0.34,1.58 -1.2,0.9 -0.18,1.82 -0.73,-0.41 -1.59,2.75 -1.91,-2.37 -1.49,-0.12 -2.11,3.77 1.81,1.34 -0.64,1.47 1.77,0.98 -1.44,4.84 -2.67,0.57 -5.14,2.53 v 0 l -4.6,3.86 -5.06,2.98 -1.86,-0.42 -1.83,0.83 -1.54,-1.44 -1.79,-0.37 v 0 l 0.04,-1.72 1.18,-1.34 -0.57,-1.85 2.7,-1.04 -1.1,-1.16 -0.74,-2.37 1.99,-0.83 -1.55,-0.78 -0.08,-2.41 -0.92,-0.75 -0.19,-1.19 1.88,-0.71 1.13,-2.85 -0.57,-1.27 0.76,-0.37 1.28,0.77 0.73,-0.83 1.19,0.72 0.84,-0.75 -0.93,-3.38 1.37,-1.65 -0.06,-0.89 -1.34,1.27 -2.51,-0.64 0.28,-0.67 -1.16,-0.63 0.12,-1.35 -0.85,-0.34 v 0 l 1.88,-1.18 4.79,0.18 3.19,-1.38 1.26,0.12 v 0 l 1.2,-1.55 1.9,0.47 0.53,-0.67 3.13,0.85 1.05,-0.89 2.35,0.27 1.33,-1.34 0.77,0.36 0.65,-0.83 z m 1.68,12.91 -1.23,-0.85 -0.39,1.14 1.01,0.59 z" />
    <path
       id="PT-20"
       title="Açores"
       class="land"
       d="m 195.14,348.31 0.12,0.03 0.1,0.19 0.24,0.06 0.29,-0.04 v -0.2 l 0.07,-0.03 0.35,0.21 -0.06,0.33 0.1,0.18 -0.16,0.23 0.05,0.2 0.09,0.08 0.17,0.06 0.22,0.1 -0.02,0.14 0.39,0.22 -0.12,0.07 0.05,0.19 0.25,-0.04 0.08,0.22 0.13,0.06 -0.08,0.27 -0.04,0.17 0.18,0.31 -0.13,0.28 0.09,0.17 -0.09,0.06 -0.04,-0.08 -0.21,0.02 -0.19,-0.01 -0.46,0.02 -0.34,-0.09 -0.4,0.08 -0.38,-0.39 -0.04,-0.21 -0.27,-0.2 -0.35,-0.09 -0.31,-0.01 -0.3,0.27 -0.15,-0.06 -0.44,0.29 -0.2,-0.27 -0.14,0.15 -0.17,0.1 -0.33,-0.2 -0.14,-0.25 -0.06,-0.68 -0.35,-0.64 0.13,-0.49 0.24,-0.02 0.11,-0.24 0.19,-0.09 0.22,0.06 0.37,-0.3 -0.02,0.2 0.33,0.21 0.21,-0.25 0.36,0.18 0.23,-0.11 0.04,-0.27 0.19,0.11 0.16,-0.15 0.09,0.07 z m -11.04,-32.06 0.11,-0.06 0.02,-0.18 h 0.14 l 0.07,0.09 -0.05,0.22 0.08,0.09 0.22,-0.09 0.51,-0.09 0.33,-0.32 0.26,0.1 0.46,-0.26 0.31,-0.05 0.25,-0.23 0.29,-0.02 0.45,-0.26 0.15,-0.36 0.24,-0.17 0.06,0.22 0.56,0.25 h 0.22 l 0.39,-0.21 0.28,0.05 0.2,-0.14 0.17,0.19 0.54,0.18 0.33,0.01 1.14,-0.24 0.41,0.1 0.22,-0.05 0.79,0.31 0.3,0.94 0.06,0.3 0.11,0.47 -0.24,0.29 -0.06,0.26 0.15,0.49 -0.1,0.44 -0.24,0.49 -0.37,0.44 -0.29,0.2 -0.61,0.01 -0.3,0.24 -0.2,0.04 -0.37,-0.06 -0.79,-0.36 h -0.79 l -0.64,0.29 -0.12,0.1 -0.38,0.12 -0.29,0.11 -0.18,0.23 -0.23,-0.08 -0.8,0.09 -0.52,0.43 -0.71,-0.12 -0.35,0.07 -0.28,-0.07 -0.22,0.11 -0.28,-0.12 -0.14,0.13 -0.39,0.07 -0.41,-0.19 -0.2,0.03 -0.28,-0.01 -0.34,-0.1 -0.13,0.12 -0.29,0.05 -0.15,0.23 -0.29,0.08 -0.25,-0.28 -0.39,-0.09 -0.26,-0.34 -0.76,-0.54 -0.14,-0.23 -0.56,0.14 -0.37,-0.22 -0.36,0.08 -0.31,-0.26 -0.43,0.01 -0.21,0.28 -0.35,0.07 -0.71,0.17 -0.45,0.18 -0.31,-0.09 -0.51,-0.34 -0.23,-0.31 -0.33,-0.12 -0.24,-0.35 -0.71,-0.45 -0.51,-0.34 -0.16,-0.37 -0.19,-0.09 -0.35,-0.25 -0.57,-0.37 -0.15,-0.28 -0.62,-0.43 -0.05,-0.31 -0.35,-0.67 -0.05,-0.27 0.25,-0.21 0.1,-0.26 0.12,-0.26 0.26,-0.01 0.23,-0.3 -0.05,-0.24 0.08,-0.12 0.07,-0.23 0.57,0.16 0.42,-0.31 0.09,-0.2 0.18,-0.05 0.57,0.2 0.4,0.26 0.43,0.21 0.11,0.14 0.48,0.12 0.32,0.4 0.14,0.48 0.18,0.06 0.18,0.77 0.14,0.12 0.2,-0.05 0.09,0.24 0.5,0.19 h 0.41 l 0.34,0.15 0.4,-0.09 0.25,0.1 0.03,-0.05 0.21,0.23 0.23,0.1 0.58,0.29 0.34,-0.07 0.24,-0.09 0.19,0.12 0.27,-0.02 0.86,-0.32 0.2,-0.25 0.56,-0.35 0.28,-0.17 0.08,-0.17 0.08,-0.01 0.17,0.34 0.11,0.21 0.08,0.13 0.16,0.23 0.22,-0.06 0.3,0.15 0.05,-0.19 0.11,-0.02 0.09,0.16 0.2,0.06 z m -94.01,-29.46 0.78,0.12 0.28,0.22 0.39,0.07 0.79,0.48 0.23,0.04 0.23,0.09 0.23,0.19 -0.02,0.13 0.16,0.15 h 0.21 l 0.16,0.18 0.09,0.31 0.25,0.26 0.39,-0.05 0.39,0.32 0.39,0.09 0.45,-0.1 0.35,0.49 0.34,0.13 0.08,0.13 0.36,0.02 0.21,0.18 0.29,0.53 0.3,-0.03 0.33,0.27 0.83,0.01 0.12,0.14 0.28,0.08 1.64,0.21 0.22,-0.05 0.51,0.15 0.04,0.2 0.67,0.4 0.16,0.26 0.02,0.4 -0.46,0.15 h -0.32 l -0.13,0.14 -0.15,-0.03 -0.14,0.13 -0.33,-0.09 -0.14,0.18 h -0.39 l -0.76,-0.26 -1.01,-0.09 -0.2,0.07 -0.67,-0.12 -0.3,0.11 -0.02,0.15 -0.14,0.07 -0.15,0.25 -0.34,0.04 -0.65,0.38 -0.36,0.1 -0.35,-0.21 -0.16,-0.1 v -0.31 l -0.02,-0.26 -0.51,-0.33 -0.99,0.08 -0.86,-0.16 -0.34,0.06 -0.32,-0.12 -0.5,0.14 -1.11,-0.55 -0.38,-0.08 -0.19,0.05 -0.16,0.21 -0.59,0.05 -0.62,-0.5 -0.49,-0.11 -1.16,-0.67 -0.14,-0.52 -0.25,-0.21 -0.35,-0.65 -0.05,-0.22 0.08,-0.25 -0.08,-0.46 0.06,-0.37 0.16,-0.61 0.2,-0.01 -0.02,-0.12 0.26,-0.08 0.04,-0.22 0.42,-0.3 0.07,0.04 0.87,-0.36 0.91,0.22 0.19,-0.16 0.33,0.07 z m -9.46,-3.31 h 0.32 l 0.98,0.36 0.33,0.18 0.05,0.15 0.46,0.41 0.81,0.2 0.71,0.69 -0.17,0.19 -0.15,0.4 0.15,0.4 -0.25,0.32 0.29,0.59 -0.09,0.12 -0.46,0.04 -0.18,0.22 v 0.38 l 0.09,0.02 0.05,0.12 -0.09,0.07 0.14,0.15 -0.11,0.15 -0.12,-0.17 -0.06,0.05 -0.11,0.03 0.04,-0.13 0.17,-0.1 -0.08,-0.12 -0.09,0.08 -0.26,-0.04 -0.35,0.13 -0.68,-0.05 -0.25,0.12 -0.7,0.01 -0.35,0.12 -0.39,-0.02 -0.55,-0.25 -0.31,0.09 -0.02,-0.11 h 0.17 l 0.03,-0.12 -0.08,-0.07 -0.08,-0.73 -0.25,-0.6 -0.22,-0.16 -0.19,0.12 -0.1,-0.07 -0.14,0.04 -0.47,-0.29 -0.61,-0.38 -0.31,-0.4 -0.11,0.03 v -0.27 l -0.19,-0.07 0.05,-0.18 0.43,0.01 0.2,-0.2 0.32,-0.09 0.81,0.02 0.29,-0.11 0.43,0.09 0.38,-0.28 0.47,-0.76 z m 12.54,-4.53 0.91,0.16 0.81,0.29 0.95,0.57 0.14,-0.03 1.63,0.72 1.01,0.3 0.3,0.29 0.25,0.09 0.19,-0.06 0.11,0.22 0.75,0.15 0.48,0.33 0.6,0.19 0.29,-0.2 -0.04,0.19 0.18,0.17 0.35,0.08 0.33,-0.06 0.6,0.47 0.42,0.12 0.46,0.54 0.41,0.04 0.11,0.24 0.57,0.22 0.24,0.21 0.21,-0.06 0.35,0.48 0.45,0.06 0.56,0.23 1.61,0.9 0.29,0.14 0.19,0.13 0.59,0.23 0.1,-0.04 0.09,0.21 0.53,0.19 0.81,0.7 -0.17,0.08 -0.12,0.15 -0.36,0.27 -0.27,-0.08 -1.5,0.15 -0.99,-0.5 -0.25,-0.3 -0.29,-0.09 -0.36,-0.27 -0.69,-0.27 -1.01,-0.81 -0.4,-0.02 -0.49,-0.27 -0.35,0.12 -0.86,-0.32 -0.19,0.08 -0.29,-0.06 -0.3,-0.19 -0.4,-0.44 -0.6,-0.39 -1.23,-0.21 -0.28,-0.23 -0.26,-0.02 -0.02,-0.12 -0.19,-0.15 -0.15,0.03 -0.51,-0.23 -0.61,-0.42 -0.71,-0.28 -0.31,-0.53 -0.29,0.14 -0.11,-0.16 -0.28,0.04 -0.06,-0.1 0.12,-0.1 0.05,-0.22 -0.32,-0.04 0.1,-0.16 -0.13,-0.23 -1.24,-0.61 -0.78,-0.73 -0.32,-0.46 -0.38,-0.28 z m 33.44,-1.9 0.21,0.09 0.13,-0.04 0.17,0.19 0.26,-0.06 0.26,0.22 0.3,-0.01 -0.03,-0.16 0.09,-0.13 0.17,0.1 0.27,-0.11 0.18,0.13 0.17,0.14 0.2,-0.1 0.17,0.14 0.41,0.07 0.45,0.23 0.44,-0.07 0.3,0.17 0.07,0.07 0.67,-0.16 1.3,1 0.09,0.65 0.17,0.2 0.32,0.15 -0.24,0.21 -0.28,0.05 -0.05,0.58 0.35,0.25 0.25,0.23 -0.05,0.16 0.09,0.14 -0.22,0.33 -0.28,0.13 0.06,0.28 -0.37,0.06 -0.27,0.2 0.05,0.34 -0.02,0.2 -0.12,0.33 0.05,0.23 -0.38,0.05 -0.26,-0.24 -0.22,0.18 -0.4,-0.17 -0.47,0.18 -0.32,-0.03 -0.85,-0.41 -0.35,0.09 -0.2,-0.09 -0.26,0.13 -0.36,-0.14 -0.19,0.16 -0.26,-0.11 -0.05,0.12 0.16,0.32 -0.29,0.15 -0.23,-0.19 0.2,-0.26 -0.06,-0.23 -0.37,-0.02 -0.24,-0.02 -0.21,0.1 h -0.38 l -0.29,0.09 -0.31,-0.11 -0.66,-0.51 -0.58,-0.31 -0.22,-0.14 -0.58,-0.32 -0.58,-0.84 -0.14,-0.72 -0.14,-0.21 -0.03,-0.66 0.25,-0.52 -0.19,-0.3 0.23,0.06 0.14,-0.28 -0.04,-0.13 0.15,-0.22 h 0.15 l 0.79,-0.52 1.42,-0.29 0.54,-0.05 z m -24.36,-11.86 0.52,0.17 0.24,0.24 0.17,-0.1 0.19,0.1 -0.13,0.09 0.3,0.17 0.34,0.6 0.06,0.26 0.17,0.03 0.02,0.15 v 0.18 l 0.44,0.4 0.13,0.47 -0.05,0.1 0.18,0.16 v 0.17 l -0.13,0.08 0.09,0.13 h -0.28 l -0.37,0.17 -0.66,-0.21 -0.12,0.07 -0.12,-0.09 -0.02,-0.14 -0.25,-0.09 -0.01,-0.16 -0.87,0.06 -0.36,-0.44 -0.33,-0.85 -0.31,-0.28 -0.01,-0.19 -0.17,-0.02 0.05,-0.17 0.55,-0.51 -0.04,-0.2 0.09,-0.2 0.07,-0.06 0.17,-0.04 0.2,0.02 0.09,-0.08 z M 1.87,247.83 l 0.12,0.04 -0.07,0.2 0.17,0.41 0.59,0.41 0.15,-0.16 0.14,0.05 -0.03,0.09 0.1,0.05 0.27,-0.07 0.14,-0.19 0.06,0.06 0.14,0.22 -0.05,0.22 0.2,0.22 -0.06,0.06 0.07,0.43 0.28,0.19 0.11,0.27 0.28,-0.04 0.09,0.39 -0.09,0.24 -0.35,0.2 -0.19,0.29 -0.01,0.14 0.24,0.33 -0.17,-0.04 -0.2,0.1 -0.06,0.22 0.08,0.4 -0.14,0.37 -0.21,0.22 -0.03,0.33 -0.34,0.21 0.06,0.11 -0.74,0.19 -0.89,-0.12 -0.13,0.15 -0.24,0.04 -0.21,-0.15 -0.29,-0.01 -0.08,-0.23 -0.18,-0.11 0.08,-0.08 -0.12,-0.1 -0.04,-0.21 0.09,-0.08 -0.11,-0.16 0.23,-0.16 0.01,-0.11 -0.16,-0.11 0.01,-0.17 -0.21,-0.25 -0.05,-0.38 0.15,-0.38 -0.12,-0.4 -0.16,-0.18 0.13,-0.16 -0.04,-0.14 h 0.18 l 0.09,-0.19 -0.01,-1.03 0.28,-0.24 0.03,-0.15 0.2,-0.08 0.27,-0.46 -0.11,-0.37 0.74,0.02 z m 3.22,-8.24 0.63,0.28 0.19,0.5 -0.01,0.33 -0.15,0.52 -0.51,0.46 -0.21,0.09 -0.08,0.13 -0.19,0.01 -0.12,-0.05 -0.05,-0.16 0.21,-0.21 -0.05,-0.21 -0.25,-0.33 -0.07,-0.37 0.3,-0.67 -0.06,-0.28 0.19,0.05 z" />
    <path
       id="PT-30"
       title="Madeira"
       class="land"
       d="m 466.72,523 0.33,0.95 0.49,0.83 -0.51,-0.25 -0.17,-0.31 -0.28,-0.84 z m -0.62,-2.95 0.49,1.05 0.06,0.99 -0.77,-1.89 -0.67,-0.54 -0.09,-1.18 0.59,0.7 z m -20.74,-12.62 0.5,0.79 0.77,0.74 0.61,0.03 0.39,0.43 1.32,0.26 1.12,-0.26 0.83,-0.56 0.82,0.14 1.89,-0.41 0.63,0.4 0.64,0.73 0.87,0.75 0.43,0.71 0.77,0.21 0.63,0.18 1.05,0.08 0.55,0.15 0.6,-0.02 0.3,0.14 -0.14,0.35 -0.84,0.04 -0.5,0.12 -0.32,0.56 -0.26,0.11 0.09,0.35 -0.38,0.62 -0.62,0.21 -0.32,0.83 -0.88,0.84 -0.59,0.15 -0.9,-0.34 -0.87,-0.05 -0.35,0.19 -0.92,0.32 -0.27,-0.32 -0.98,-0.36 -0.96,-0.04 -2.19,-1.01 -0.59,0.05 -1.08,-0.94 -2.34,-1.26 -1.03,-1.35 0.06,-0.32 -0.26,-0.75 -0.46,-0.49 2.09,-2.01 z m 27.27,-8.58 0.28,-0.04 -0.17,0.41 0.31,0.41 -0.27,0.24 0.16,0.36 -0.62,-0.14 -0.47,0.11 -1.64,1.38 -0.15,-0.26 -0.28,-0.05 -0.15,-0.32 0.3,-0.02 0.31,-0.5 0.15,-0.58 -0.11,-0.16 0.23,-0.3 0.32,-0.02 0.2,-0.37 0.6,-0.18 0.4,-0.36 z" />
  </g>
</svg>
