<?xml version="1.0" encoding="UTF-8" standalone="no"?>
<!-- (c) ammap.com | SVG map of San Marino - Low -->

<svg
   version="1.1"
   id="svg1"
   sodipodi:docname="san_marino.svg"
   width="1000"
   height="1000"
   inkscape:version="1.3.1 (91b66b0783, 2023-11-16)"
   xmlns:inkscape="http://www.inkscape.org/namespaces/inkscape"
   xmlns:sodipodi="http://sodipodi.sourceforge.net/DTD/sodipodi-0.dtd"
   xmlns="http://www.w3.org/2000/svg"
   xmlns:svg="http://www.w3.org/2000/svg"
   xmlns:amcharts="http://amcharts.com/ammap">
  <sodipodi:namedview
     id="namedview1"
     pagecolor="#ffffff"
     bordercolor="#666666"
     borderopacity="1.0"
     inkscape:showpageshadow="2"
     inkscape:pageopacity="0.0"
     inkscape:pagecheckerboard="0"
     inkscape:deskcolor="#d1d1d1"
     showguides="true"
     inkscape:zoom="0.70710678"
     inkscape:cx="499.92449"
     inkscape:cy="502.75292"
     inkscape:window-width="1920"
     inkscape:window-height="1106"
     inkscape:window-x="-11"
     inkscape:window-y="-11"
     inkscape:window-maximized="1"
     inkscape:current-layer="svg1">
    <sodipodi:guide
       position="500,497.46395"
       orientation="-1,0"
       id="guide1"
       inkscape:locked="false"
       inkscape:label=""
       inkscape:color="rgb(0,134,229)" />
    <sodipodi:guide
       position="93.851599,548.93899"
       orientation="1,0"
       id="guide2"
       inkscape:locked="false" />
  </sodipodi:namedview>
  <defs
     id="defs1">
    <style
       type="text/css"
       id="style1">
			.land
			{
				fill: #CCCCCC;
				fill-opacity: 1;
				stroke:white;
				stroke-opacity: 1;
				stroke-width:0.5;
			}
		</style>
    <amcharts:ammap
       projection="mercator"
       leftLongitude="12.400657"
       topLatitude="43.995696"
       rightLongitude="12.514129"
       bottomLatitude="43.894648" />
    <!-- All areas are listed in the line below. You can use this list in your script. -->
    <!--{id:"SM-01"},{id:"SM-02"},{id:"SM-03"},{id:"SM-04"},{id:"SM-05"},{id:"SM-06"},{id:"SM-07"},{id:"SM-08"},{id:"SM-09"}-->
  </defs>
  <path
     id="SM-01"
     title="Acquaviva"
     class="land"
     d="m 332.18829,400.52049 11.60444,3.02157 7.37424,11.13896 5.94514,28.30471 -4.70384,7.24359 -0.62064,7.09659 5.95329,11.96377 -35.84229,14.19318 -49.82315,-3.25022 19.74633,17.54958 -0.44098,19.66467 v 0 l 11.38395,37.99821 -32.72274,29.99516 -9.30151,5.13666 -7.82341,7.80707 -17.8844,9.54651 -13.50721,13.99719 -8.62371,2.26209 -9.26885,7.28442 -13.66238,2.79291 -11.34311,13.09073 v 0 l -5.0305,1.20863 -3.67487,-5.21017 -3.73204,-8.71353 -0.147,-9.80784 -8.71354,-4.00153 0.58798,-8.45222 -4.40168,-5.84713 -26.24679,-18.26006 -14.51168,-6.23095 -11.7351,-12.74773 -3.870869,-19.20736 1.543448,-40.75845 -4.181193,-15.58148 0.01634,-22.49841 4.066863,-17.20659 8.558371,-7.17009 15.21399,5.43065 15.91629,2.57241 10.89397,5.84714 7.66825,-2.18859 8.90136,0.48998 3.47072,-8.75437 17.98239,-3.25022 27.47991,-43.43704 5.7328,-2.71941 10.10183,0.37566 10.16715,4.53235 33.8497,-2.79292 33.18822,0.79215 z" />
  <path
     id="SM-02"
     title="Chiesanuova"
     class="land"
     d="m 299.44106,817.4556 0.16332,11.19613 2.93174,3.16856 10.15082,3.8872 5.14483,6.45145 3.74837,9.39135 13.13156,9.8405 7.40691,13.23772 1.0208,20.17915 -16.27561,21.26529 0.84113,8.29705 v 0 l -4.29552,1.8456 -9.24436,9.35869 -11.48194,3.27472 -12.28226,-0.82481 -8.82786,-12.41291 -5.71648,2.71941 -6.51678,-1.43728 -18.61936,9.62001 -6.32079,11.84126 -10.67348,9.46485 -13.63787,4.94066 -25.16881,4.67118 -15.13234,0.8738 -13.06622,-5.65931 -6.49228,-0.71864 -14.56884,-9.00752 -13.75221,-3.47072 11.25329,-19.34619 0.61248,-8.44404 5.57765,-11.76777 5.11216,-8.67271 8.37871,-6.0023 2.0416,-7.91323 -14.98533,-39.00268 -18.34987,-68.75285 -1.52712,-6.1493 1.23313,-13.43371 4.82633,-15.87547 9.13819,-14.94449 29.7665,-35.94846 2.80107,-6.59844 -2.49075,-20.71814 5.0305,-1.9191 v 0 l 25.16882,-5.39798 11.53094,0.18783 11.66978,8.60737 15.89996,1.8456 7.26808,3.47072 2.3111,10.94296 10.9593,9.35052 12.85389,-9.01569 1.06163,22.98023 13.60522,-6.30446 4.33634,0.26132 -1.0698,25.31582 -12.95188,2.71941 -11.54728,-0.90648 -11.42479,8.18273 4.40985,4.45068 5.22649,12.03727 0.0817,6.29629 -7.64374,18.97868 0.0817,6.29629 17.55775,16.37362 16.71659,8.7462 z" />
  <path
     id="SM-03"
     title="Domagnano"
     class="land"
     d="m 845.19282,269.15592 0.11433,7.7009 10.33049,15.71214 -16.68395,43.02872 37.6389,57.03408 v 0 l -8.55021,6.49228 -12.74774,16.00612 -12.84573,9.02387 -10.65714,11.58811 -10.42031,26.98175 -4.94067,6.11663 -5.104,-2.9889 -17.28008,1.78028 -2.18859,-1.17596 2.80107,-5.8798 -1.44545,-1.24946 -10.8123,1.13512 -9.52201,-10.23248 -12.33126,-3.61772 -12.9029,4.82634 -6.6066,-8.41138 -7.08027,9.13003 -13.02539,-2.86641 -7.12109,6.33712 -5.74914,0.60431 -4.28736,3.25023 -10.07733,1.01263 -12.86206,9.02386 -11.51461,0.48998 -1.32296,8.56655 -5.58581,12.45375 0.84931,9.70167 -17.0351,17.16575 -11.45745,5.39799 -0.35115,24.53184 -15.69581,12.11076 v 0 l -21.63277,0.8248 -13.7277,-2.07426 -25.43831,-12.78857 -8.64821,-0.48999 2.71125,-11.47377 -3.90354,-19.88516 -12.16792,6.8271 4.04236,-19.99949 -18.85619,-7.1701 -8.65638,0.22866 -15.80197,4.41802 -6.58211,-6.30445 -0.24499,-16.79827 14.81383,-22.53107 2.76841,-7.28442 2.0171,-9.28519 -0.29399,-20.97946 7.69274,-16.19395 1.96809,-12.11893 4.94068,-8.19089 9.99566,-6.63927 v 0 l 28.77019,-5.06317 17.67208,-23.55188 35.84229,-15.58963 1.34745,-5.74098 5.006,-2.59691 4.36902,1.61695 11.78411,16.30828 11.57177,2.98073 3.74837,9.44036 9.42402,3.20938 8.86053,13.81754 4.29553,-1.85377 9.94666,-10.82864 7.15376,-3.55238 11.31045,-15.17315 7.15376,-3.55239 9.17085,-14.91182 12.15159,-6.19012 6.35345,-9.05653 6.53312,2.14775 25.21782,-1.9191 20.02399,-11.17979 14.40552,-2.14776 15.66313,-12.83757 z" />
  <path
     id="SM-04"
     title="Faetano"
     class="land"
     d="m 896.56759,528.01419 -16.45529,3.54422 -8.5012,10.68164 -7.69275,16.18578 -14.48718,14.18503 -1.02896,10.49381 -17.57408,30.52597 -1.98443,11.39212 -5.59398,12.45375 0.2205,14.675 -6.95776,16.82276 -9.2362,10.0365 -13.62153,5.61848 -12.96824,1.32295 -9.29335,4.45068 -12.7314,16.71661 -1.37196,6.45145 -4.96517,4.71201 -10.5183,19.28084 1.70677,18.70921 3.65038,2.40909 0.0654,4.18936 v 0 l -15.8428,1.62511 -37.52457,-1.69861 -1.25762,12.7069 -12.26592,-0.147 -1.45362,-0.53081 -0.90647,-13.19689 -21.73076,-5.47148 -7.43142,-15.32015 -11.55545,-0.8983 -3.22572,-22.75157 -12.14342,7.54575 v 0 l -7.34159,-6.94144 -13.0254,-4.94066 -2.97256,-4.60585 v 0 l 17.19842,-8.06839 2.07426,-5.81448 9.26069,-7.95406 -2.98073,-6.68011 6.45145,-3.47072 -0.90647,-11.08995 3.56054,-3.88721 4.31186,-1.13512 -0.0817,-5.57765 -5.25916,-13.47455 14.871,-18.30088 7.64374,-19.68916 8.45221,-13.47455 -0.32665,-22.33508 -12.21692,4.0342 -9.97116,7.32524 -21.91044,-18.71736 v 0 l 15.69581,-12.11076 0.35115,-24.53184 11.45745,-5.39799 17.0351,-17.16575 -0.84931,-9.70167 5.58581,-12.45375 1.32296,-8.56655 11.51461,-0.48998 12.86206,-9.02386 10.07733,-1.01263 4.28736,-3.25023 5.74914,-0.60431 7.12109,-6.33712 13.02539,2.86641 7.08027,-9.13003 6.6066,8.41138 12.9029,-4.82634 12.33126,3.61772 9.52201,10.23248 10.8123,-1.13512 1.44545,1.24946 -2.80107,5.8798 2.18859,1.17596 17.28008,-1.78028 5.104,2.9889 4.94067,-6.11663 10.42031,-26.98175 10.65714,-11.58811 12.84573,-9.02387 12.74774,-16.00612 8.55021,-6.49228 v 0 l 13.28672,20.30981 14.50351,53.81652 1.10247,26.45911 z" />
  <path
     id="SM-05"
     title="Fiorentino"
     class="land"
     d="m 598.55147,708.24645 2.97256,4.60585 13.0254,4.94066 7.34159,6.94144 v 0 l -2.63775,17.16575 3.23389,16.47978 0.80848,21.35511 -6.23096,4.1077 -7.57841,9.767 -15.96529,8.98303 0.26132,15.72847 13.27855,2.22126 6.50044,-12.7069 16.78194,8.97486 v 13.12338 l -11.91477,9.35869 -1.36378,10.86131 -4.32002,5.61847 -6.50045,2.22126 -2.44175,3.39722 20.31798,36.6916 -5.96964,13.09072 h -10.28148 l -27.87189,32.20009 -0.29399,16.55326 v 0 l -9.83234,1.69861 -6.44328,4.14854 -5.80631,-2.89907 -12.11076,10.36314 -15.03432,7.12926 -4.09953,14.40552 -14.51984,-5.47148 -3.60138,0.34298 -13.63787,3.50339 -9.99567,6.63927 -19.51768,-2.8664 -5.12032,-4.36902 -27.61874,-13.95636 -2.9889,-6.67194 2.71941,-11.46562 -7.95406,-2.67857 -3.65855,-3.12773 -0.8003,-4.1077 3.54421,-5.24282 -2.93173,-2.52341 4.87533,-11.69428 -2.22943,-3.9607 -10.21615,-8.7462 -20.34247,-9.76701 -8.1419,-14.56067 -22.29425,5.09583 -16.34911,15.68763 5.1285,6.44329 -4.23837,5.35715 -2.7684,-2.37642 -3.66672,0.15516 -5.06316,4.78551 -2.22942,-5.35715 -5.055,0.53081 v 0 l -0.84113,-8.29705 16.27561,-21.26529 -1.0208,-20.17915 -7.40691,-13.23772 -13.13156,-9.8405 -3.74837,-9.39135 -5.14483,-6.45145 -10.15082,-3.8872 -2.93174,-3.16856 -0.16332,-11.19613 v 0 l 22.95572,-7.96223 12.9764,-1.32296 27.39824,-0.0326 13.7767,4.859 35.05015,-19.68917 8.67271,1.88644 20.17099,-1.35562 5.81447,2.8664 14.69133,-30.17481 v 0 l 14.40551,-1.46995 23.68255,-8.07656 30.90979,-7.34975 20.72629,-13.36022 22.94757,-8.67271 7.78257,-9.16269 z" />
  <path
     id="SM-06"
     title="Borgo Maggiore"
     class="land"
     d="m 533.71849,372.02796 -9.99566,6.63927 -4.94068,8.19089 -1.96809,12.11893 -7.69274,16.19395 0.29399,20.97946 -2.0171,9.28519 -2.76841,7.28442 -14.81383,22.53107 0.24499,16.79827 6.58211,6.30445 15.80197,-4.41802 8.65638,-0.22866 18.85619,7.1701 -4.04236,19.99949 12.16792,-6.8271 3.90354,19.88516 -2.71125,11.47377 8.64821,0.48999 25.43831,12.78857 13.7277,2.07426 21.63277,-0.8248 v 0 l 21.91044,18.71736 9.97116,-7.32524 12.21692,-4.0342 0.32665,22.33508 -8.45221,13.47455 -7.64374,19.68916 -14.871,18.30088 5.25916,13.47455 0.0817,5.57765 -4.31186,1.13512 -3.56054,3.88721 0.90647,11.08995 -6.45145,3.47072 2.98073,6.68011 -9.26069,7.95406 -2.07426,5.81448 -17.19842,8.06839 v 0 l -17.14942,10.19166 -7.78257,9.16269 -22.94757,8.67271 -20.72629,13.36022 -30.90979,7.34975 -23.68255,8.07656 -14.40551,1.46995 v 0 l 3.50339,-8.0684 1.26579,-11.31862 9.87316,-15.01799 7.11294,-6.33712 -0.76765,-4.10769 v 0 l -1.56794,-8.22356 v 0 l -1.78844,-22.89856 -4.58952,-17.7374 -0.46549,-31.42428 -9.43217,-3.91986 -1.65778,-14.52802 -3.74021,-10.10999 -26.40195,-28.07605 -12.38025,-7.80708 -34.02935,-9.77516 -33.21271,-2.18859 -13.28672,-19.62384 -12.42924,-11.99643 -2.98074,-6.0023 -11.61261,-5.09582 -20.97945,-4.82634 v 0 l 0.44098,-19.66467 -19.74633,-17.54958 49.82315,3.25022 35.84229,-14.19318 -5.95329,-11.96377 0.62064,-7.09659 4.70384,-7.24359 -5.94514,-28.30471 -7.37424,-11.13896 -11.60444,-3.02157 v 0 l 10.60814,-15.09149 8.56654,-5.77364 50.84396,-73.1627 6.41878,-4.14852 15.08332,-5.06316 v 0 l 26.01813,3.62587 19.436,-2.71941 25.77314,-12.45374 10.63263,-12.30675 11.44928,-5.39799 12.41292,9.93033 -1.9191,16.30828 -18.40705,22.9149 11.74327,14.871 -10.5673,15.77747 16.75743,12.26592 z" />
  <path
     id="SM-07"
     title="San Marino"
     class="land"
     d="m 291.38083,517.44689 20.97945,4.82634 11.61261,5.09582 2.98074,6.0023 12.42924,11.99643 13.28672,19.62384 33.21271,2.18859 34.02935,9.77516 12.38025,7.80708 26.40195,28.07605 3.74021,10.10999 1.65778,14.52802 9.43217,3.91986 0.46549,31.42428 4.58952,17.7374 1.78844,22.89856 v 0 l 1.56794,8.22356 v 0 l 0.76764,4.10769 -7.11293,6.33712 -9.87316,15.01799 -1.26579,11.31862 -3.50339,8.0684 v 0 l -14.69133,30.17481 -5.81447,-2.8664 -20.17099,1.35562 -8.67271,-1.88644 -35.05015,19.68917 -13.7767,-4.859 -27.39824,0.0326 -12.9764,1.32296 -22.95572,7.96223 v 0 l -3.01341,-8.07656 -16.71659,-8.7462 -17.55775,-16.37362 -0.0817,-6.29629 7.64374,-18.97868 -0.0817,-6.29629 -5.22649,-12.03727 -4.40985,-4.45068 11.42479,-8.18273 11.54728,0.90648 12.95188,-2.71941 1.0698,-25.31582 -4.33634,-0.26132 -13.60522,6.30446 -1.06163,-22.98023 -12.85389,9.01569 -10.9593,-9.35052 -2.3111,-10.94296 -7.26808,-3.47072 -15.89996,-1.8456 -11.66978,-8.60737 -11.53094,-0.18784 -25.16882,5.39799 v 0 l -1.69861,-16.60227 v 0 l 11.34311,-13.09073 13.66238,-2.79291 9.26885,-7.28442 8.62371,-2.26209 13.50721,-13.99719 17.8844,-9.54651 7.82341,-7.80707 9.30151,-5.13666 32.72274,-29.99516 z" />
  <path
     id="SM-08"
     title="Montegiardino"
     class="land"
     d="m 621.89102,724.7344 12.14342,-7.54575 3.22572,22.75157 11.55545,0.8983 7.43142,15.32015 21.73076,5.47148 0.90647,13.19689 1.45362,0.53081 12.26592,0.147 1.25762,-12.7069 37.52457,1.69861 15.8428,-1.62511 v 0 l -2.0906,5.8063 2.33559,10.26515 -1.85377,21.15912 3.64222,3.12773 0.10615,6.98226 5.77364,0.11434 5.0795,2.97256 0.13883,8.37872 -17.04326,18.55404 -1.9926,11.39212 -6.25546,16.03062 -17.5904,29.07235 -6.16563,22.32691 -4.62217,29.14586 -86.47393,4.75284 -27.29208,6.29629 -13.22138,0.6778 v 0 l 0.29399,-16.55326 27.87189,-32.20009 h 10.28148 l 5.96964,-13.09072 -20.31798,-36.6916 2.44175,-3.39722 6.50045,-2.22126 4.32002,-5.61847 1.36378,-10.86131 11.91477,-9.35869 v -13.12338 l -16.78194,-8.97486 -6.50044,12.7069 -13.27855,-2.22126 -0.26132,-15.72847 15.96529,-8.98303 7.57841,-9.767 6.23096,-4.1077 -0.80848,-21.35511 -3.23389,-16.47978 z" />
  <path
     id="SM-09"
     title="Serravalle"
     class="land"
     d="m 893.65219,34.853989 4.85083,35.499303 -8.63187,1.625112 -10.012,5.9288 -20.44048,31.538606 4.53235,13.51537 4.15669,36.70793 7.47226,18.12122 0.11432,7.70091 -21.36328,18.99503 -20.14648,3.47072 6.12479,23.90303 4.8835,37.2959 v 0 l -23.69887,6.64744 -15.66313,12.83757 -14.40552,2.14776 -20.02399,11.17979 -25.21782,1.9191 -6.53312,-2.14775 -6.35345,9.05653 -12.15159,6.19012 -9.17085,14.91182 -7.15376,3.55239 -11.31045,15.17315 -7.15376,3.55238 -9.94666,10.82864 -4.29553,1.85377 -8.86053,-13.81754 -9.42402,-3.20938 -3.74837,-9.44036 -11.57177,-2.98073 -11.78411,-16.30828 -4.36902,-1.61695 -5.006,2.59691 -1.34745,5.74098 -35.84229,15.58963 -17.67208,23.55188 -28.77019,5.06317 v 0 l -6.68011,-11.9311 -16.75743,-12.26592 10.5673,-15.77747 -11.74327,-14.871 18.40705,-22.9149 1.9191,-16.30828 -12.41292,-9.93033 -11.44928,5.39799 -10.63263,12.30675 -25.77314,12.45374 -19.436,2.71941 -26.01813,-3.62587 v 0 l 22.6454,-28.23122 124.02299,-100.35678 12.87023,-7.62741 11.46562,-3.96887 7.08843,-7.74174 12.88655,-6.9496 16.54511,-3.09506 21.44495,-12.72324 23.79687,-1.06163 9.31785,-3.05423 26.36111,-22.35958 20.91413,-0.0326 4.95699,-6.116631 8.56655,-5.781804 6.30445,-12.576243 6.37796,-6.949599 15.12415,-1.58428 7.83974,-7.096594 10.07733,-1.061631 6.44328,-3.438051 7.77441,-11.326784 -2.9644,-4.605845 0.65331,-3.552381 7.88056,-3.625877 2.74391,-9.366851 4.28736,-3.250224 7.94589,-0.146995 5.61848,-8.950365 7.9459,1.241292 5.65931,-8.9911976 2.14776,-0.1878269 5.9533,11.2941195 2.87457,0.375654 3.53604,-4.5650134 5.06317,-0.5308151 6.54128,4.9488335 5.07133,0.865638 3.54421,-3.16856 0.59615,-9.8568351 4.28735,-1.85377079 4.36086,1.66594379 z" />
</svg>
