<?xml version="1.0" encoding="UTF-8" standalone="no"?>
<!-- (c) ammap.com | SVG map of United Kingdom - Low -->

<svg
   version="1.1"
   id="svg1"
   sodipodi:docname="wales.svg"
   width="1000"
   height="1000"
   inkscape:version="1.3.1 (91b66b0783, 2023-11-16)"
   xmlns:inkscape="http://www.inkscape.org/namespaces/inkscape"
   xmlns:sodipodi="http://sodipodi.sourceforge.net/DTD/sodipodi-0.dtd"
   xmlns="http://www.w3.org/2000/svg"
   xmlns:svg="http://www.w3.org/2000/svg"
   xmlns:amcharts="http://amcharts.com/ammap">
  <sodipodi:namedview
     id="namedview1"
     pagecolor="#ffffff"
     bordercolor="#666666"
     borderopacity="1.0"
     inkscape:showpageshadow="2"
     inkscape:pageopacity="0.0"
     inkscape:pagecheckerboard="0"
     inkscape:deskcolor="#d1d1d1"
     inkscape:zoom="0.35355339"
     inkscape:cx="910.75353"
     inkscape:cy="779.23167"
     inkscape:window-width="1920"
     inkscape:window-height="1106"
     inkscape:window-x="-11"
     inkscape:window-y="-11"
     inkscape:window-maximized="1"
     inkscape:current-layer="g1"
     showguides="true">
    <sodipodi:guide
       position="101.20313,232.89062"
       orientation="-1,0"
       id="guide1"
       inkscape:locked="false"
       inkscape:label=""
       inkscape:color="rgb(0,134,229)" />
  </sodipodi:namedview>
  <defs
     id="defs1">
    <style
       type="text/css"
       id="style1">
			.land
			{
				fill: #CCCCCC;
				fill-opacity: 1;
				stroke:white;
				stroke-opacity: 1;
				stroke-width:0.5;
			}
		</style>
    <amcharts:ammap
       projection="mercator"
       leftLongitude="-10.476971"
       topLatitude="60.846439"
       rightLongitude="1.765388"
       bottomLatitude="49.162400" />
    <!-- All areas are listed in the line below. You can use this list in your script. -->
    <!--{id:"GB-UKC"},{id:"GB-UKD"},{id:"GB-UKE"},{id:"GB-UKF"},{id:"GB-UKG"},{id:"GB-UKH"},{id:"GB-UKI"},{id:"GB-UKJ"},{id:"GB-UKK"},{id:"GB-UKL"},{id:"GB-UKM"},{id:"GB-UKN"},{id:"GG"},{id:"JE"},{id:"IM"},{id:"IE"}-->
  </defs>
  <g
     id="g1"
     transform="translate(-265.50936,-172.6213)">
    <path
       id="path2"
       style="fill:#a0c68b;fill-opacity:1;stroke-width:0.891553;stroke-linejoin:bevel"
       d="m 646.37185,315.18107 c -8.48222,-4.53891 -9.9217,-9.47651 -2.76273,-9.47651 3.67793,0 6.23118,-7.17168 4.49771,-12.63337 -1.60741,-5.0645 -3.47889,-4.25905 -10.76546,4.63325 -5.21533,6.36462 -7.10498,7.62423 -9.03491,6.02254 -1.34218,-1.11391 -2.44032,-3.53184 -2.44032,-5.37317 0,-1.84133 -1.00299,-3.44043 -2.22888,-3.55355 -4.86288,-0.44876 -5.92198,-0.76085 -9.24531,-2.72442 -3.29286,-1.94558 -3.31132,-2.25054 -0.40468,-6.68665 2.38308,-3.63704 2.51494,-4.6481 0.60616,-4.6481 -3.24554,0 -8.34145,-5.7796 -8.34145,-9.46059 0,-1.61641 -1.99861,-4.24847 -4.44135,-5.84902 -2.56035,-1.6776 -5.23261,-5.84852 -6.3096,-9.84818 -1.02753,-3.81595 -2.72555,-6.93809 -3.77338,-6.93809 -1.11629,0 -1.37191,-1.29207 -0.61732,-3.12044 3.53858,-8.57402 4.19964,-15.5903 1.72638,-18.32321 -2.18729,-2.41694 -2.06119,-4.3275 0.93976,-14.23898 3.09469,-10.22106 3.18451,-11.87714 0.83835,-15.45782 -4.35868,-6.6522 -3.36258,-10.32454 2.9202,-10.76597 3.04744,-0.21411 6.65663,-1.31536 8.02043,-2.44721 1.8916,-1.5699 2.47964,-1.53152 2.47964,0.16185 0,1.74127 0.55971,1.75525 2.59655,0.0648 1.42811,-1.18522 3.4341,-1.63731 4.45777,-1.00465 1.02367,0.63266 1.86121,-0.26114 1.86121,-1.98622 0,-2.43951 0.47549,-2.66101 2.13972,-0.99678 3.4219,3.4219 10.5952,2.71661 9.9744,-0.98071 -0.37656,-2.24266 0.85542,-3.27915 4.37959,-3.68465 2.69695,-0.31032 4.90354,0.27142 4.90354,1.29275 0,1.12896 2.18535,1.4199 5.5743,0.74211 4.10259,-0.82052 5.99801,-0.35772 7.17919,1.75292 1.16945,2.0897 2.67823,2.47073 5.56087,1.40437 4.48647,-1.65965 13.0329,0.69663 17.93545,4.94489 2.36337,2.04795 2.97322,4.27269 2.21307,8.0734 -1.31032,6.55161 2.40651,15.34122 6.48729,15.34122 2.59772,0 6.28541,4.07237 6.45869,7.13242 0.0278,0.49035 0.9093,3.15038 1.95894,5.91117 1.04965,2.76079 1.90846,5.76978 1.90846,6.68664 0,0.91687 0.81768,1.66703 1.81708,1.66703 1.02572,0 1.35108,1.85668 0.74707,4.26323 -0.59887,2.38608 -0.184,4.81082 0.94222,5.50686 3.32089,2.05242 20.34902,-2.78295 23.4293,-6.65307 2.56892,-3.22764 3.89973,-3.43563 12.92633,-2.02022 l 10.06257,1.57785 -5.34049,8.02398 c -2.93728,4.41318 -5.34394,9.3119 -5.34813,10.88605 -0.004,1.57414 -4.82203,6.23917 -10.70627,10.36674 -5.88425,4.12756 -10.69863,8.25581 -10.69863,9.17388 0,0.91807 -0.74676,1.66921 -1.65947,1.66921 -3.75016,0 -14.24293,8.25583 -14.313,11.26164 -0.1077,4.62002 -3.37703,10.13563 -6.00782,10.13563 -1.23237,0 -5.78438,3.61079 -10.1156,8.02397 -6.96842,7.1003 -8.77783,8.02397 -15.71842,8.02397 -6.03585,0 -7.62,0.5824 -6.87376,2.52708 0.53336,1.38991 -0.24881,2.9947 -1.73816,3.56622 -3.25036,1.24729 -2.21068,1.4834 -8.6571,-1.96611 z m 290.64611,853.54633 c -0.60611,-0.9807 -3.94016,-1.7831 -7.409,-1.7831 -3.46883,0 -10.68591,-1.273 -16.03796,-2.8289 -5.35206,-1.5559 -10.89172,-2.3835 -12.31039,-1.8391 -4.54887,1.7456 -7.74428,-0.8164 -13.4446,-10.7796 -3.06435,-5.3559 -8.27521,-11.4934 -11.57969,-13.6389 -3.3045,-2.1455 -6.81291,-6.1846 -7.79648,-8.9756 -1.7257,-4.897 -2.12638,-5.0446 -11.44501,-4.2155 -9.56902,0.8513 -9.69728,0.7971 -14.1256,-5.9666 -2.4579,-3.7541 -5.45841,-9.8811 -6.66778,-13.6155 -3.13185,-9.6707 -9.86328,-22.6584 -13.16311,-25.397 -1.54757,-1.2844 -2.81375,-3.2018 -2.81375,-4.2609 0,-1.0591 -2.48138,-4.4858 -5.51417,-7.6149 -4.64475,-4.7921 -5.20627,-6.2644 -3.5614,-9.3379 2.28516,-4.2699 -0.65911,-7.3256 -3.91815,-4.0665 -1.0914,1.0914 -4.68502,1.9844 -7.98584,1.9844 -3.30081,0 -7.75412,0.9455 -9.89623,2.1012 -2.14212,1.1557 -7.18046,1.9052 -11.19631,1.6655 -9.90994,-0.5916 -18.55348,6.3529 -18.55348,14.9064 0,4.3738 -0.91051,6.1125 -3.56443,6.8065 -1.96044,0.5127 -4.01911,0.1965 -4.57481,-0.7027 -0.55858,-0.9038 -2.73015,-0.4303 -4.85629,1.059 -5.25524,3.6809 -10.61556,3.3792 -16.06061,-0.9039 -2.80156,-2.2037 -5.00808,-2.8945 -5.695,-1.7831 -0.61678,0.998 -2.91959,1.8145 -5.11734,1.8145 -4.90384,0 -8.27535,3.142 -8.27535,7.7119 0,2.853 -0.89158,3.2542 -5.28033,2.3765 -3.58025,-0.7161 -6.19129,-0.1451 -8.10979,1.7734 -2.58388,2.5839 -3.60612,2.3466 -11.77764,-2.7331 -4.92152,-3.0593 -9.49667,-5.5625 -10.16705,-5.5625 -0.67036,0 -1.25607,-3.009 -1.30158,-6.6866 -0.0455,-3.6777 -0.76741,-9.0252 -1.60422,-11.8834 -1.25987,-4.3032 -1.05145,-5.0163 1.21215,-4.1477 1.73387,0.6653 4.76608,-1.2467 8.29087,-5.228 3.05647,-3.4524 5.55722,-5.4726 5.55722,-4.4893 0,3.0745 17.00558,4.4347 23.96793,1.9171 3.48968,-1.2619 6.34486,-2.9356 6.34486,-3.7193 0,-0.7837 1.40419,-1.4781 3.12043,-1.5432 1.71624,-0.065 6.73122,-2.7339 11.1444,-5.9306 5.69143,-4.1225 8.19601,-7.2812 8.61575,-10.8658 0.32548,-2.7795 1.77327,-6.8568 3.21732,-9.0607 3.59561,-5.4876 0.37049,-6.9259 -5.3826,-2.4005 -3.15134,2.4788 -4.66736,5.3811 -4.66736,8.9353 0,5.9719 -4.82488,8.742 -15.22668,8.742 -4.90033,0 -6.59596,-0.9997 -8.74528,-5.156 -3.00911,-5.819 -10.8054,-9.2923 -16.1479,-7.1939 -1.96141,0.7703 -7.06224,1.457 -11.33517,1.5259 -6.28923,0.1015 -7.56496,0.657 -6.69787,2.9166 1.96206,5.1131 -6.4073,0.9032 -15.25347,-7.6727 -10.11223,-9.8033 -11.70613,-14.0672 -5.68849,-15.2175 2.35927,-0.451 4.71897,-0.1252 5.24379,0.7239 2.00697,3.2474 5.64731,1.3691 5.64731,-2.9137 0,-3.7982 -0.82455,-4.4618 -5.5722,-4.4851 -9.38169,-0.046 -11.02719,-2.09456 -8.48853,-10.56786 1.20444,-4.02008 1.72321,-8.06437 1.15279,-8.98731 -0.57039,-0.92294 2.20084,-3.32991 6.15831,-5.34887 3.95748,-2.01895 7.19541,-4.4569 7.19541,-5.41767 0,-2.52827 -2.25494,-2.18222 -11.44235,1.75596 -5.52529,2.36843 -8.17181,4.57766 -8.17181,6.8216 0,1.82532 -1.89341,5.09753 -4.20756,7.27157 -3.59827,3.38039 -4.85804,3.65641 -8.69948,1.90613 -2.89191,-1.31765 -4.21223,-3.11623 -3.70669,-5.04941 1.04062,-3.97934 -5.5685,-9.86798 -9.41759,-8.39094 -2.7377,1.05056 -2.74876,1.40469 -0.13398,4.29401 1.62475,1.79531 2.43353,4.74093 1.88141,6.85222 -0.6742,2.5781 0.40136,4.78066 3.54004,7.24955 8.88909,6.99212 -1.62107,9.64572 -22.74083,5.74154 -7.66812,-1.41753 -10.90047,-1.3658 -12.79289,0.20477 -1.39274,1.15591 -5.10837,1.72341 -8.25695,1.26131 -14.15167,-2.07697 -32.99724,7.7129 -30.90378,16.0539 1.07207,4.2714 -1.98021,17.4629 -4.94611,21.3762 -0.92908,1.2259 -4.39937,2.2289 -7.71177,2.2289 -3.62187,0 -6.02808,0.8885 -6.03645,2.2289 -0.0192,3.0678 -9.23986,7.2414 -10.71722,4.8509 -0.62027,-1.0036 -5.23852,-2.3116 -10.26278,-2.9066 -8.77147,-1.0389 -9.42398,-0.8081 -16.39587,5.7984 -3.99347,3.7842 -6.86841,7.9031 -6.38875,9.153 0.52462,1.3672 -0.52649,2.2727 -2.63815,2.2727 -1.93149,0 -3.51025,1.2029 -3.51025,2.6746 0,1.4711 -1.50655,2.6747 -3.34788,2.6747 -1.84133,0 -4.34678,-1.2036 -5.56765,-2.6747 -1.22088,-1.471 -4.84228,-2.6746 -8.04758,-2.6746 -3.2053,0 -9.00138,-1.4209 -12.88017,-3.1575 -5.8929,-2.6383 -6.74256,-3.6486 -5.16798,-6.1448 2.91541,-4.6219 -2.84602,-15.2641 -9.06942,-16.7526 -2.72509,-0.6518 -6.37785,-1.9148 -8.11725,-2.8067 -2.76485,-1.4178 -2.83691,-1.9473 -0.57313,-4.2111 3.47277,-3.4728 5.13082,-3.2646 7.77962,0.9768 1.22492,1.9614 4.14048,3.5662 6.47902,3.5662 4.83212,0 7.70268,-5.126 4.24804,-7.5858 -1.47006,-1.0467 -0.13575,-1.2572 3.7287,-0.5883 3.30989,0.5729 7.39368,1.0417 9.07509,1.0417 1.68141,0 3.96416,1.9907 5.07278,4.4239 1.73456,3.8069 2.83134,4.2693 7.8644,3.3153 3.21681,-0.6098 6.97719,-1.9987 8.35639,-3.0866 2.02039,-1.5936 1.50067,-2.1546 -2.67466,-2.887 -2.85027,-0.5 -4.92908,-1.7036 -4.61959,-2.6747 0.30949,-0.9711 1.71369,-1.5298 3.12043,-1.2416 1.40675,0.2881 2.55773,-0.3137 2.55773,-1.3374 0,-1.0237 1.55743,-1.8612 3.46097,-1.8612 1.90355,0 3.93524,-0.7674 4.51487,-1.7053 0.57964,-0.9379 2.22503,-1.2558 3.65641,-0.7065 1.43139,0.5493 3.06506,-0.2067 3.63037,-1.6798 0.56532,-1.4732 4.61886,-3.5828 9.00789,-4.688 7.7265,-1.9455 9.31571,-5.4853 2.4627,-5.4853 -4.24894,0 -12.46837,-7.48143 -12.46837,-11.34886 0,-1.60378 1.67166,-4.58762 3.7148,-6.63076 2.04314,-2.04315 3.2189,-4.21072 2.61279,-4.81681 -2.29648,-2.2965 -16.2774,-1.83118 -20.14666,0.67052 -5.81125,3.75732 -5.07935,6.59578 1.33734,5.18643 4.37397,-0.96068 5.39883,-0.58011 5.6209,2.08719 0.14938,1.79419 0.36174,4.16562 0.47192,5.2699 0.11017,1.1043 1.38475,4.22089 2.83239,6.92589 2.46307,4.6023 2.37237,5.0905 -1.41261,7.6036 -4.52936,3.0074 -15.49972,4.7638 -26.23521,4.2003 -3.92283,-0.2058 -11.7462,-0.4926 -17.38527,-0.6372 -6.59134,-0.169 -10.25286,-1.0208 -10.25286,-2.3851 0,-1.1672 -1.26475,-3.1718 -2.81056,-4.4548 -2.31868,-1.9243 -3.06864,-1.9149 -4.28535,0.054 -1.9014,3.0765 -11.75778,4.1577 -16.20505,1.7776 -2.88425,-1.5436 -3.44561,-1.2488 -3.44561,1.8091 0,2.0093 1.003,5.2716 2.22888,7.2496 1.83734,2.9647 1.75904,3.8913 -0.44577,5.2752 -2.15896,1.3551 -2.78137,0.4851 -3.22807,-4.5122 -0.30438,-3.4049 -1.51556,-6.1909 -2.69151,-6.1909 -1.17597,0 -3.10296,-1.5449 -4.28224,-3.4333 -1.17927,-1.8883 -3.98007,-3.785 -6.224,-4.2149 -3.60567,-0.6908 -3.51389,-0.8099 0.78968,-1.0245 3.60623,-0.1798 5.15982,-1.3993 5.98839,-4.7005 0.61536,-2.45182 2.09557,-4.45782 3.28936,-4.45782 1.19379,0 4.1158,-2.07589 6.49334,-4.6131 3.41965,-3.6493 5.5017,-4.42297 9.96539,-3.70306 7.78982,1.25635 11.29692,-3.021 11.29692,-13.778 0,-8.88907 -4.26954,-24.48867 -8.34974,-30.50743 -1.32966,-1.96142 -4.60871,-3.70083 -7.28677,-3.86537 -2.67806,-0.16452 -9.25477,-1.2353 -14.6149,-2.37949 -9.27725,-1.98037 -16.72736,-1.73034 -26.96702,0.905 -3.86977,0.99594 -4.57425,0.61047 -4.35378,-2.38229 0.14469,-1.96379 1.31751,-4.84105 2.60628,-6.39393 1.73991,-2.09646 1.83189,-3.43954 0.35727,-5.21636 -2.47688,-2.98446 -0.85337,-4.73947 4.38433,-4.73947 2.21307,0 6.40775,-2.006 9.32152,-4.45777 2.91376,-2.45177 6.98731,-4.45776 9.05233,-4.45776 2.06502,0 3.75459,-0.85971 3.75459,-1.91048 0,-3.60607 5.09891,-7.00505 10.50852,-7.00505 3.64513,0 6.05752,-1.20252 7.38377,-3.68064 1.5666,-2.92723 3.03947,-3.44574 7.19516,-2.533 3.26003,0.71603 5.22533,0.42376 5.22533,-0.77709 0,-1.05864 1.51372,-1.92479 3.36383,-1.92479 2.42725,0 3.60692,-1.6135 4.23693,-5.7951 0.4802,-3.1873 0.12102,-6.0789 -0.79818,-6.42578 -0.91919,-0.34689 -0.30789,-2.13724 1.35848,-3.97854 2.43054,-2.68571 2.59806,-3.86799 0.84705,-5.97784 -4.10331,-4.94418 -0.2857,-6.88064 11.19836,-5.68032 10.63247,1.11132 15.16889,3.89409 11.81517,7.2478 -3.25013,3.25014 -1.67966,4.56183 5.4618,4.56183 8.15632,0 21.34177,-7.56669 21.38633,-12.27291 0.0224,-2.36735 0.31036,-2.43642 1.6086,-0.38594 1.03076,1.62802 5.69539,2.6845 13.39812,3.03453 12.31047,0.55943 12.72362,0.13628 6.70721,-6.86939 -2.39521,-2.78907 -2.35403,-3.4804 0.38778,-6.51007 1.68716,-1.86431 5.65591,-3.8752 8.81943,-4.46869 4.1888,-0.78582 7.54899,-3.48626 12.36517,-9.93733 3.63733,-4.87208 6.61333,-9.92226 6.61333,-11.22265 0,-1.30039 0.91052,-3.27487 2.02338,-4.38775 2.87634,-2.87632 10.04539,2.16903 13.0209,9.1637 l 2.34808,5.51975 1.99642,-5.00375 c 1.57473,-3.94687 1.43274,-6.09377 -0.67221,-10.16431 -1.46775,-2.83831 -2.66863,-5.93849 -2.66863,-6.88929 0,-2.25008 23.85345,-7.67793 27.53436,-6.26542 1.5531,0.59598 4.10404,0.0212 5.66875,-1.27745 2.39523,-1.98786 3.19776,-1.87847 5.07741,0.69207 3.92886,5.37306 11.1158,3.68734 20.19256,-4.73623 4.61635,-4.28412 10.96125,-9.09849 14.09982,-10.69857 3.13856,-1.60009 6.34815,-3.98919 7.13242,-5.30907 0.78426,-1.31991 4.41183,-5.85055 8.06124,-10.06809 5.12136,-5.91864 7.17444,-7.22079 8.99829,-5.70711 4.23966,3.5186 11.40686,1.12763 21.15619,-7.05772 5.26403,-4.41956 12.18245,-9.07427 15.37425,-10.34378 5.96353,-2.37195 16.48553,-12.89797 16.48553,-16.49185 0,-1.10949 1.19936,-3.28815 2.66527,-4.84149 7.9838,-8.45998 12.17718,-15.48807 16.06984,-26.93294 2.38082,-6.9999 6.00313,-15.43629 8.0496,-18.74753 2.04647,-3.31125 3.54112,-7.05916 3.32144,-8.32869 -1.24434,-7.19134 4.52304,-30.92093 8.67008,-35.67261 2.03936,-2.3367 2.37423,-5.36522 1.42937,-12.9275 l -1.2339,-9.87592 h 5.64826 c 5.63845,0 16.0056,-4.86885 16.0056,-7.51688 0,-0.76925 0.71754,-1.39865 1.59452,-1.39865 0.877,0 4.16586,-2.40197 7.30856,-5.33769 4.87678,-4.55559 5.27109,-5.50765 2.69117,-6.49767 -1.66257,-0.63798 -7.15801,0.51507 -12.21209,2.56234 -5.05407,2.04727 -12.87099,4.24049 -17.37088,4.87382 l -8.18168,1.15151 -4.01282,-9.52056 c -2.20706,-5.23631 -5.97276,-12.55054 -8.36823,-16.25386 -3.95649,-6.11656 -4.16988,-7.4222 -2.33007,-14.25481 3.08498,-11.45672 7.94522,-19.64689 13.99858,-23.58952 3.81907,-2.48739 5.47698,-4.98665 5.48055,-8.26178 0.003,-2.83277 1.24305,-5.16118 3.12557,-5.86924 10.99103,-4.13393 28.97545,-18.80175 28.97545,-23.63193 0,-2.65453 -7.98302,-0.17928 -12.47847,3.86914 -1.47286,1.3264 -4.90324,2.96703 -7.62306,3.64584 -2.71982,0.67883 -6.12257,2.91525 -7.56166,4.96984 -1.60362,2.28949 -3.20736,3.07346 -4.14275,2.02514 -3.55623,-3.98558 -27.03652,-41.39558 -27.03652,-43.07596 0,-1.01181 1.47723,-3.75326 3.28274,-6.0921 5.24587,-6.79547 5.78134,-12.12733 1.96849,-19.6011 -6.30811,-12.36495 -4.81934,-14.87103 9.65847,-16.25831 3.74561,-0.35892 6.11063,-2.23374 8.89286,-7.04966 4.45486,-7.7112 3.06995,-10.0981 -4.25486,-7.33329 -4.41547,1.66665 -5.54991,1.50997 -6.93065,-0.95724 -0.90801,-1.62256 -2.2391,-2.36193 -2.95796,-1.6431 -0.71883,0.71886 -2.35075,0.44077 -3.62647,-0.61798 -1.77809,-1.47568 -2.59075,-0.84417 -3.48169,2.70564 -1.53975,6.13485 -7.69547,7.51921 -19.23382,4.32553 -7.51703,-2.08065 -9.97653,-2.12883 -13.6299,-0.26707 -2.45176,1.24942 -7.92069,2.28352 -12.15317,2.29797 -8.70935,0.0298 -14.5934,2.53002 -14.5934,6.20106 0,1.93793 -2.11226,2.26507 -9.6211,1.4901 -8.30792,-0.85746 -9.87551,-0.51762 -11.48501,2.48974 -1.02514,1.91549 -5.08052,4.44643 -9.01194,5.62432 -6.66325,1.99636 -14.45957,9.69709 -14.45957,14.28229 0,1.02991 -1.88949,3.76205 -4.19884,6.0714 -3.18393,3.18393 -3.99701,5.57402 -3.36383,9.88814 0.45926,3.1291 1.54632,5.68928 2.41573,5.68928 0.86939,0 1.58072,1.20359 1.58072,2.67466 0,1.52579 -1.60352,2.67466 -3.73314,2.67466 -2.23355,0 -4.10775,1.43254 -4.66572,3.5662 -1.40795,5.38397 -4.08287,4.2752 -4.08287,-1.69235 0,-6.36574 -8.99308,-14.03705 -18.11107,-15.44917 -5.26925,-0.81606 -6.32572,-0.26725 -9.10576,4.73013 -2.51503,4.52103 -3.96717,5.44693 -7.25041,4.62288 -2.3627,-0.59301 -5.75849,0.12741 -7.99949,1.69705 -2.20329,1.54327 -3.89399,1.90939 -3.89399,0.84325 0,-1.0363 -2.32022,-1.88421 -5.15602,-1.88421 -4.01266,0 -5.40411,0.98853 -6.27483,4.45777 -1.21353,4.83507 -2.30591,5.30067 -6.3853,2.7216 -2.11825,-1.3392 -2.20901,-2.13229 -0.44577,-3.89552 1.21768,-1.21769 2.21397,-3.69476 2.21397,-5.50461 0,-1.80986 2.06821,-5.35886 4.59602,-7.88667 3.35547,-3.35547 4.3089,-5.74005 3.53225,-8.83447 -0.85355,-3.40079 -0.36133,-4.23846 2.4906,-4.23846 2.14586,0 4.65059,-2.1198 6.32063,-5.34931 1.52143,-2.94213 3.94922,-5.34932 5.3951,-5.34932 1.44589,0 2.62887,-1.16584 2.62887,-2.59076 0,-4.95671 4.17103,-11.82354 6.61272,-10.88657 1.39957,0.53707 3.2502,-0.91592 4.41076,-3.46304 1.09969,-2.41359 3.68307,-4.92006 5.74085,-5.56997 2.05775,-0.6499 4.69318,-2.53328 5.85651,-4.18529 1.48554,-2.10959 4.90563,-3.06721 11.48995,-3.2172 8.6029,-0.19594 9.97924,-0.84521 16.71508,-7.88495 4.03713,-4.21927 9.16266,-10.68038 11.39005,-14.35804 2.8849,-4.76326 5.2886,-6.68664 8.35644,-6.68664 4.71698,0 20.46376,-14.92368 25.11003,-23.7975 1.51878,-2.90067 2.68535,-9.9591 2.72295,-16.47524 0.0379,-6.57137 0.76936,-10.96551 1.72681,-10.37377 3.08072,1.90399 6.85414,-3.24024 6.85414,-9.34407 0,-4.55981 0.99632,-6.51471 4.02304,-7.89378 2.21268,-1.00816 5.76474,-4.85928 7.89347,-8.55803 2.12874,-3.69875 6.60456,-8.59846 9.94627,-10.88824 4.32295,-2.96212 6.6706,-6.38699 8.13739,-11.87118 1.64874,-6.16442 3.04694,-7.95079 6.98218,-8.92049 2.70635,-0.66689 7.32781,-2.96768 10.26993,-5.11288 5.23668,-3.81822 12.28252,-4.65326 16.62384,-1.97019 3.25713,2.01302 19.46193,-3.96762 25.88764,-9.55424 3.09781,-2.69328 8.84195,-5.90582 12.76478,-7.13898 3.92284,-1.23317 10.81346,-4.55754 15.3125,-7.38751 4.49904,-2.82997 9.46667,-5.1454 11.03917,-5.1454 1.5725,0 3.355,-0.8024 3.96112,-1.78311 0.60611,-0.98071 2.74876,-1.7831 4.76143,-1.7831 3.25145,0 3.52678,-0.74546 2.46961,-6.68665 -0.76515,-4.30004 -3.22258,-8.48956 -6.88509,-11.73795 -5.4604,-4.843 -5.51143,-5.00946 -1.23751,-4.03634 2.45177,0.55824 4.96598,1.02594 5.58713,1.03933 0.62114,0.0134 1.57767,1.73873 2.12564,3.83409 0.88112,3.36946 1.93166,3.70432 9.09005,2.89746 5.61855,-0.63329 8.7161,-0.16246 10.12866,1.53957 1.11917,1.34852 3.14022,2.45186 4.49118,2.45186 1.35099,0 2.45634,1.07923 2.45634,2.39829 0,5.58015 6.28984,8.30034 19.1927,8.30034 6.96906,0 14.60455,0.73512 16.96777,1.63361 3.37635,1.28369 7.12524,0.33586 17.50136,-4.42487 7.26253,-3.33217 14.29237,-6.07329 15.62185,-6.09138 1.3295,-0.0181 4.76141,-2.00536 7.62649,-4.41616 2.86507,-2.4108 6.22786,-3.99239 7.47284,-3.51464 1.245,0.47775 8.24426,-1.85867 15.5539,-5.19205 12.75789,-5.81793 29.71675,-10.02184 27.77873,-6.88604 -2.22086,3.59341 6.57472,12.70364 20.52338,21.25761 8.28136,5.07852 18.02975,12.28392 21.66305,16.01199 3.6333,3.72808 8.641,8.57995 11.1281,10.78194 5.7303,5.07341 18.6776,11.7435 18.6776,9.62223 0,-2.75763 10.2102,-5.99644 14.5791,-4.62469 4.9602,1.55738 33.5647,29.00819 33.5647,32.2109 0,1.23351 -3.1924,4.50136 -7.0943,7.26191 -3.9019,2.76054 -7.1115,6.06202 -7.1325,7.3366 -0.075,4.56521 5.3234,12.5489 12.131,17.94063 5.4053,4.28103 8.0001,8.42822 11.811,18.87723 2.6862,7.36498 5.0496,16.61446 5.2521,20.55439 0.2695,5.24239 1.841,8.71942 5.8598,12.96523 3.0204,3.19095 6.4185,7.60711 7.5514,9.8137 1.5583,3.03517 3.6213,4.01199 8.4732,4.01199 7.8181,0 17.6357,5.74198 19.0891,11.16455 0.5884,2.19552 1.0809,6.91385 1.0943,10.48518 0.021,5.60862 -0.6438,6.65917 -4.8792,7.71038 -2.697,0.66938 -6.5489,2.75183 -8.5598,4.62769 -3.6287,3.38488 -3.723,3.34222 -12.4818,-5.64264 -11.2682,-11.5591 -15.1145,-13.07142 -26.0903,-10.25841 -8.2802,2.12216 -8.7618,2.03022 -13.5884,-2.59399 -6.9378,-6.64683 -13.1626,-6.1647 -24.1039,1.86692 -4.9908,3.66359 -11.5143,7.9697 -14.4966,9.56914 -3.3117,1.7761 -6.0415,5.06654 -7.0128,8.45321 -0.8746,3.04982 -3.012,5.99636 -4.7496,6.54786 -5.7045,1.81055 -7.4183,5.47849 -5.6136,12.01459 1.4694,5.3217 1.063,6.77447 -3.4008,12.1576 -6.0957,7.35099 -6.3649,11.62514 -1.3978,22.19222 3.3475,7.12151 4.582,8.14589 11.0664,9.18278 4.0142,0.64191 9.1467,3.01518 11.4054,5.27397 2.2588,2.25878 7.4534,5.00799 11.5436,6.10936 4.0902,1.10137 9.4988,4.20743 12.0191,6.90234 2.5203,2.69492 5.6313,5.24818 6.9133,5.67391 4.5203,1.5011 0.1145,6.52775 -6.6727,7.61308 -6.0686,0.97041 -7.1776,1.99523 -10.358,9.57158 -2.1655,5.15845 -3.2621,10.9315 -2.7972,14.72571 0.6601,5.38762 0.023,6.72772 -4.659,9.80192 -4.1272,2.70987 -5.9023,5.7003 -7.4265,12.51099 -1.6254,7.26322 -3.3112,9.89035 -8.9448,13.93986 -7.5934,5.45822 -8.8513,10.88913 -4.3889,18.94792 1.666,3.00873 1.9216,5.71027 0.8156,8.6194 -2.045,5.37882 -0.7164,7.50411 4.6912,7.50411 3.865,0 11.5544,-5.99932 11.5544,-9.01482 0,-1.44283 13.5407,-10.59934 15.6744,-10.59934 0.8173,0 3.2402,2.37268 5.3842,5.27266 3.3237,4.49549 3.5909,5.9473 1.8128,9.84982 -1.1471,2.51746 -4.0125,5.06081 -6.3676,5.65192 -2.3552,0.5911 -5.0062,2.97905 -5.8911,5.30656 -1.423,3.74279 -2.7376,4.23182 -11.3754,4.23182 -7.8916,0 -12.4356,1.37041 -23.6703,7.13858 -17.65582,9.065 -21.9297,13.22821 -21.92107,21.3536 0.008,7.41369 5.41153,17.08416 10.43767,18.67939 1.9568,0.62108 7.0272,4.42593 11.2674,8.45519 22.7384,21.6072 23.7729,22.3919 30.8899,23.4328 3.9228,0.57375 10.3145,0.31703 14.2038,-0.57043 12.0866,-2.758 14.8258,4.67284 3.8816,10.52996 -8.3768,4.48315 -7.8965,23.31652 0.5947,23.31652 6.6843,0 5.1786,3.12524 -1.9674,4.08372 -4.9505,0.66402 -9.007,2.73791 -12.6565,6.47071 -2.954,3.02144 -6.0629,5.49352 -6.9085,5.49352 -0.8457,0 -2.0859,2.18482 -2.7561,4.85516 -0.6702,2.67035 -4.7891,10.37468 -9.1532,17.12073 -6.9918,10.80835 -7.6968,12.7874 -5.9334,16.65769 1.4935,3.27779 2.9023,4.10609 5.553,3.2648 5.7298,-1.81856 4.123,0.20781 -4.469,5.63595 -8.8589,5.59678 -9.7548,7.88837 -4.5101,11.53643 3.4524,2.40132 3.4577,2.62556 0.2876,12.17917 l -3.2295,9.73281 5.4815,3.694 c 6.9536,4.68603 10.1617,10.93053 8.2282,16.01607 -1.139,2.99574 0.3241,6.84595 6.5037,17.11533 4.3854,7.28755 10.6754,16.05846 13.9778,19.49094 3.3024,3.43248 6.5395,8.4187 7.1935,11.08052 0.6541,2.66181 2.7142,5.32366 4.5781,5.91524 1.8639,0.59159 3.389,1.79571 3.389,2.67581 0,0.88013 1.6519,2.48428 3.6708,3.5648 3.034,1.62373 5.1492,1.01589 12.1921,-3.50348 10.7122,-6.874 14.2528,-6.85981 20.8029,0.0833 2.8804,3.0533 8.2773,7.49623 11.9931,9.87318 3.7157,2.37695 7.4958,6.26788 8.4001,8.64651 0.9044,2.37863 3.7883,7.56448 6.4086,11.5241 3.7585,5.67944 5.8637,7.1993 9.9719,7.1993 6.0075,0 17.4987,8.34593 17.4988,12.70919 0,1.59615 -1.1408,3.84894 -2.5352,5.00618 -3.8027,3.15591 -5.3273,15.44536 -2.7024,21.78244 1.909,4.60879 1.7902,6.1804 -0.7984,10.5626 -2.2985,3.8909 -2.5859,5.9987 -1.1772,8.631 1.0252,1.9155 1.8639,5.7822 1.8639,8.5927 0,2.8104 1.003,6.1297 2.2289,7.3762 1.788,1.818 1.4352,2.9151 -1.7831,5.546 -4.6054,3.7647 -5.1456,6.8427 -1.4499,8.2609 1.4091,0.5407 2.1384,2.0872 1.6205,3.4367 -0.5178,1.3494 0.05,5.4571 1.2613,9.128 1.8302,5.5454 1.7822,6.8127 -0.2832,7.4915 -1.3673,0.4494 -4.9502,3.4969 -7.9619,6.7723 -3.5093,3.8166 -7.1387,5.9554 -10.1056,5.9554 -2.5462,0 -10.9144,3.7165 -18.596,8.2589 -7.6815,4.5424 -17.0762,9.3568 -20.8772,10.6986 -9.0706,3.2022 -22.2766,3.1005 -30.2549,-0.2331 -6.055,-2.5299 -6.5022,-2.476 -8.3671,1.0087 -2.1063,3.9356 -22.1615,17.4288 -31.3242,21.0751 -3.7643,1.498 -6.8523,4.8439 -9.6611,10.4677 -3.3755,6.7589 -4.3426,7.6549 -5.304,4.9142 -0.7733,-2.2047 -1.6056,-2.6562 -2.432,-1.3192 -0.6909,1.118 -2.4341,1.5807 -3.8738,1.0282 -1.9485,-0.7476 -2.6175,0.3847 -2.6175,4.4304 0,2.9892 0.8024,5.9308 1.7831,6.5369 0.9807,0.6061 1.7831,4.6114 1.7831,8.9006 0,8.5797 -2.9685,10.935 -11.18311,8.8733 -2.73541,-0.6866 -7.44652,0.3609 -12.67296,2.8176 -5.41022,2.5432 -10.0987,3.5544 -13.40896,2.8924 -3.09062,-0.6181 -6.40205,-0.024 -8.43019,1.5114 -3.84956,2.9152 -23.05459,3.5826 -24.73742,0.8597 z m -411.71347,-668.16763 2.96908,1.10613 -0.17466,3.95877 -1.80474,2.73623 -2.32868,1.10612 -2.79444,2.73622 1.80473,-10.94487 z m 42.44045,-272.63197 5.9964,1.80473 2.79443,-5.12312 -0.46575,6.22925 -0.64038,0.29108 2.79444,4.83205 4.65738,-1.39721 3.3184,2.09582 -0.46574,5.00671 -4.48274,2.50334 2.96908,3.0273 -0.81504,2.61978 4.13343,5.12313 2.67801,1.80473 2.50335,5.0067 0.81503,1.63009 -5.47244,4.30808 -2.67799,-2.50335 -0.17465,2.73622 -2.79443,-0.52396 -5.29779,-4.01699 1.339,-3.90056 -4.48274,-5.64709 2.50335,-5.82174 -10.12982,-3.20195 -4.83204,2.61978 -1.97939,-1.80475 -2.15404,1.39723 -2.32871,-3.72591 2.79444,-4.83205 -6.28748,-3.90056 4.48274,-2.61979 1.33901,-6.52034 5.64707,2.50335 z m 395.76172,-18.57134 3.14373,1.22256 -1.16434,3.72592 2.96909,5.82173 6.11282,5.53064 3.31839,1.39723 1.51366,0.29109 2.67799,3.02729 16.24265,9.54766 13.56465,14.0886 7.9758,4.42452 2.678,4.54095 10.9448,5.64709 -0.1746,-1.80474 5.8217,-1.51364 -10.1298,-3.43483 0.1747,-2.21226 3.8423,-0.40753 1.9212,2.85265 13.0989,-0.29108 10.712,5.82174 26.5471,26.37248 0.9897,7.45181 -14.4379,9.78052 -0.4658,2.21226 6.2293,11.17775 13.2736,10.18803 8.7908,25.03347 2.2123,10.42092 -1.048,5.23956 9.8388,9.7223 4.3664,8.90726 11.4106,-0.40753 13.9139,9.08191 v 0 l 3.202,10.12982 -0.815,14.26326 -9.0238,1.22257 -9.9551,7.97578 -20.9584,-20.31787 -7.6264,-1.10613 -14.6708,4.54096 -10.2463,-9.83874 -9.3148,-0.40753 -19.3864,14.3797 -1.8629,-0.75682 -7.219,6.3457 -2.154,9.31477 -10.4209,5.356 3.7259,13.38999 -9.6059,10.94487 -1.339,5.87995 4.4828,12.57496 2.7362,3.66769 5.2978,2.21226 11.4688,1.45544 4.9485,7.68469 17.2323,3.95878 2.678,6.11282 10.4209,6.17105 0.3493,2.96908 -3.7841,5.18136 -12.7496,2.3869 -6.4621,14.43791 1.1061,14.14682 -10.3627,7.33539 -4.9485,18.22204 -12.9825,9.25656 -0.2328,7.91757 5.1231,10.0716 -3.3766,8.15044 2.7362,1.51364 7.0443,-1.51364 5.4724,-8.44152 17.0578,-11.58527 10.8284,13.62288 -5.0649,11.11952 -8.4416,2.73621 -2.9108,8.15042 -23.6363,1.22258 -12.1674,7.85935 -13.914,5.4142 -5.41417,7.85935 v 9.60587 l 5.41417,10.30448 8.8491,3.26017 7.8011,9.60586 10.8867,7.45183 10.7702,11.52704 13.6811,2.27047 13.8557,-2.96908 5.4142,2.50335 1.1643,4.42452 -1.0479,3.66769 -10.5373,7.0443 -2.678,11.23596 3.2019,5.53064 9.373,2.56157 1.5137,4.48274 -17.6399,2.85266 -4.7156,6.46212 -7.8011,5.41422 -1.9794,7.80113 -15.4858,23.75269 2.7362,5.82173 8.4415,-1.74652 0.1747,4.7156 -16.1845,10.24627 0.7569,3.49304 8.1504,3.49304 -4.7156,6.92787 -3.4348,13.38999 4.4245,0.58218 9.0237,11.00309 0.9315,5.23955 -2.2123,6.57857 10.5373,18.80422 6.695,9.66408 10.3045,9.66407 1.6301,8.55796 6.4039,2.96909 1.9212,4.71561 5.1231,1.45544 14.4379,-9.48943 8.6744,-1.22258 13.5647,13.15713 12.575,7.62647 3.5512,9.37301 8.7909,12.98247 h 11.7599 l 4.5992,6.52035 5.1813,1.10613 1.9212,4.19165 3.2601,-3.55127 v 0 l -0.3492,4.83205 -8.3834,10.88665 -2.0958,11.58525 4.8321,12.28386 -5.2396,6.2875 -0.4076,3.8424 3.7842,6.9278 -0.9314,7.3354 5.2977,7.7429 -8.7908,6.2875 1.5136,2.7944 3.9589,0.6404 -1.5719,7.2189 3.3184,11.5271 v 0 l -0.5823,2.5033 -8.4415,4.9485 -5.4724,8.2669 -11.9346,1.339 -27.8278,16.0679 -16.8832,5.9964 -16.4173,-1.5717 -9.4312,-4.2499 -5.4724,7.6846 -22.7048,14.3215 -10.7702,3.8424 -1.5137,5.0649 -3.7841,3.6095 1.1644,2.2705 -6.4622,7.6846 -2.154,-0.9314 v -4.6574 l -2.5034,2.2705 -2.3287,-1.9794 0.1747,6.1128 4.3081,3.8424 -1.8048,17.3488 -5.8217,2.7943 -10.42089,-1.7465 -10.42092,4.2499 -1.339,3.4348 -4.13342,-1.339 -1.9794,0.233 -1.16435,1.5719 -6.46213,-3.202 -8.96547,5.5889 h -19.03708 l -2.50335,-3.0274 -10.30448,-0.1165 -22.06439,-5.8217 -5.12311,1.339 -6.46214,-1.9794 -11.11951,-18.9206 -2.79444,-0.2911 v -2.0959 l -10.30447,-7.5682 -2.50335,-7.5683 -6.98608,-0.5239 -2.50335,2.7944 -3.49304,-2.678 -2.96909,2.5033 -4.83204,-2.3869 -4.83204,-9.5477 -4.6574,-2.678 0.9897,-1.8629 -4.65738,-15.2529 -7.80114,-14.6126 -2.678,0.2328 -2.15405,-5.1813 -3.95877,0.524 3.31838,-3.4349 -11.7599,-12.1092 4.30808,-8.1504 -5.64707,4.7738 h -12.74962 l -6.98609,4.541 -3.95877,-2.2705 -7.27717,0.4075 -8.15043,3.4348 -4.83205,6.404 -0.3493,7.0442 8.79082,5.065 -3.49304,1.4554 -9.25656,-1.7465 -3.6677,1.9794 -2.96908,-3.202 -9.43122,6.1128 -10.94486,-3.7258 -3.14375,-4.3664 -2.50335,2.9109 -6.98608,-0.2911 -3.49303,3.6094 -0.98971,3.0274 4.48274,4.6574 -1.339,1.7465 -14.4379,-3.0855 -2.50335,1.2225 0.3493,4.7739 -9.60587,-3.0855 -12.92425,-9.0238 -7.80113,-0.2329 5.12312,-4.6573 0.17466,-5.9964 -4.83204,-11.9927 -3.31839,-0.524 5.47243,-2.678 6.11282,0.1165 2.678,-5.4725 4.6574,-2.5034 1.97938,-7.4517 3.95879,2.3869 -0.9897,5.0648 1.63008,-0.6403 0.81505,-0.2911 2.15404,-0.2911 5.93817,3.7259 h 5.6471 l 3.49303,-2.7944 h 1.33901 l 4.94848,-1.339 3.31838,-3.7259 5.82173,-0.6404 3.95879,-4.2499 7.10252,-3.0855 3.95878,-5.5889 -2.67799,-6.1128 2.32868,-0.2911 5.64709,-8.3833 -4.65739,2.387 -0.64039,3.7259 -4.13343,0.5238 1.339,10.6539 -9.14013,3.6095 -12.57496,1.7465 -6.28746,-5.4725 -2.9691,-6.6367 -7.80113,-2.3869 -4.94847,0.6404 -2.50335,2.5615 -12.45851,-0.1165 2.79443,2.678 -3.95878,2.3869 -9.95517,-2.5034 -14.90366,-15.1947 -5.12312,-11.5852 0.34931,-1.8629 3.66769,2.2705 8.44152,-1.4555 1.80474,2.5616 4.30808,0.5239 -3.95879,-2.2705 1.80475,-2.154 -11.93456,-1.5719 -4.30809,-4.54094 4.48274,-13.73931 -1.51364,-5.356 13.27355,-6.92787 -0.64039,-0.11636 -13.27357,5.58885 -1.51365,6.17105 -8.44151,9.7223 -13.44822,-5.76351 3.14375,-5.356 -5.29779,-4.83204 -2.79443,0.29109 5.29778,4.13343 -3.49305,6.69499 10.12983,8.96549 -4.13343,5.06493 -11.75992,1.7465 -23.22874,-4.01702 -6.63677,4.13352 -10.42091,-1.9794 -17.23234,4.4245 -7.62647,8.1504 2.67799,6.4039 1.16434,0.9314 -3.66769,5.5889 -1.339,5.1814 2.15404,0.9315 -6.46211,7.0442 1.33899,2.678 -13.91395,-0.6404 0.46573,4.3664 -6.11282,0.815 -1.68831,3.7259 -7.10251,-1.8629 0.17464,-2.2705 -6.28746,0.4075 v -2.154 h -10.94488 l -1.33899,2.2705 1.80473,1.8629 -4.30808,0.524 -8.61617,8.6744 2.79444,4.2498 -7.97579,0.1164 -1.16435,6.8114 -6.46212,-0.524 -8.26687,-6.1127 -10.77022,0.4075 -6.46213,-4.3664 -7.80113,-1.2225 -1.16435,-4.2499 3.3184,-2.3868 0.3493,-4.017 -3.84234,-9.082 -10.94487,-2.678 -4.30808,-3.0855 -0.98971,-0.9315 -2.15403,-3.3184 5.29777,-1.6301 -1.80473,-2.9108 2.96908,-0.4076 7.45183,1.2226 1.16434,5.4724 7.80113,0.6404 1.16436,-3.3184 -3.78415,-1.7465 2.15406,-3.3184 6.46211,-0.1164 0.34932,-1.863 2.50335,3.493 11.29417,0.9315 -0.81505,2.2705 2.79444,5.0649 10.77021,-1.2225 1.80473,-1.7465 -5.29778,0.291 -7.97577,-4.017 4.83204,-2.5615 0.64039,-2.9109 4.6574,1.5719 -0.46575,-1.7465 3.31839,-2.2705 4.13344,1.8629 4.13343,-3.6095 4.30808,0.1165 1.9794,-4.4245 5.12313,0.1163 1.33899,-1.339 8.79082,-1.7465 -3.78412,-0.9315 -11.11952,3.0856 -0.17465,-6.2874 3.31839,-0.524 -7.10252,-4.017 2.79443,-12.80787 4.94847,-2.67799 -0.64038,-1.22257 -6.81144,4.017 -3.78411,-4.65739 -4.48275,1.63009 -4.94848,3.60948 -0.17465,0.64039 7.80112,-3.20196 4.6574,4.24987 -1.339,1.45544 1.51365,6.17102 -1.80474,1.33901 5.47244,6.52028 -2.50335,9.7224 -3.78414,-0.4075 -3.84234,3.2019 -3.66769,-2.2705 -3.95879,2.678 -4.13343,-1.2225 -8.96548,3.7259 -9.60586,-4.2499 -0.34931,-0.4075 -3.78412,-0.524 -4.6574,1.4555 -2.678,-1.863 -0.98968,1.4555 -3.95879,0.4075 h -0.46573 l -2.50335,-0.1166 -2.79443,-6.9278 -2.50335,-1.339 -0.17466,3.7259 -2.79444,2.7944 -2.96908,-3.2019 -2.96908,2.2704 h -5.82175 l -4.48273,-2.678 0.52396,4.9485 5.64708,2.387 -2.15405,0.6985 -0.17464,6.404 -3.95878,0.4075 -1.63009,3.3184 -3.84234,-4.7739 0.17464,-9.0819 -4.83205,-1.2225 0.34932,-2.9108 -3.6677,-2.7945 -2.79444,-0.1163 -1.33899,0.4075 -7.45182,-4.8321 -0.17466,-2.7944 13.09892,1.9793 2.15403,-10.12978 5.12313,0.29109 7.62647,-8.44152 7.45183,-0.40751 4.83204,2.15403 3.14375,-2.91087 1.63009,-3.08552 -0.34932,-15.07829 -1.16435,-5.47244 -1.97939,-0.29109 -1.63008,-11.52703 -5.29778,-7.21896 -6.28747,2.27047 -1.9794,-2.3869 -4.83204,1.45543 0.17466,-3.08552 -9.14014,0.11648 -1.80473,-2.79442 -8.26687,0.29108 h -2.50335 l -1.51365,1.74651 -2.15404,-1.339 -7.10252,3.49304 -2.15405,-0.29107 -4.83204,2.3869 -1.9794,-1.33899 3.78414,-5.9964 -2.678,-4.83203 3.49304,-0.69862 2.678,-3.7259 -2.79444,-4.30809 -2.67799,0.52395 1.97939,-2.96909 5.47243,-3.08551 1.339,1.339 8.09221,-2.15405 6.81144,-6.81144 7.10251,-1.33899 -0.64038,-2.79444 4.13344,-1.63008 0.17464,-1.74653 0.52396,-2.27048 11.75991,0.93148 5.29779,-7.91755 9.4312,1.22256 0.81505,-3.20195 6.28748,-0.69861 -1.16435,-4.83204 1.9794,-2.79444 -2.79444,-0.29109 -1.339,-3.3766 6.28747,-4.83205 -2.67799,-0.52396 0.81504,-2.96908 -3.49305,-1.6301 5.64709,-5.64707 -2.15404,-0.81504 1.63009,-1.45544 10.94486,1.22257 4.48273,1.339 1.97939,0.40751 8.44153,-0.11637 0.17464,4.30808 1.68831,0.81505 -2.96908,5.87996 4.65738,0.40752 1.51366,-0.29109 3.6677,0.69861 9.25656,-5.87996 1.6883,-1.22256 3.6677,-2.678 -2.50335,-3.08553 2.79443,-3.90056 4.65739,1.86296 0.17465,3.60948 2.15405,1.339 8.96547,-1.339 8.79083,1.86295 -6.28748,-8.20864 0.52396,-2.85265 7.62646,-6.57858 9.78052,-2.03759 12.74962,-17.0577 -1.51366,-4.19165 3.95879,-2.27048 1.63008,-4.42452 11.75991,7.27717 3.3184,8.20866 1.6883,-6.46213 -1.97939,-2.44513 -1.16435,-2.67801 -2.15405,-4.71561 1.51366,-4.83204 24.39308,-5.64707 6.28748,1.7465 4.83204,-3.37659 3.66769,0.93147 2.96909,3.90056 8.61617,-0.52395 13.44822,-12.10921 1.63008,-6.05461 3.31839,2.678 6.98609,-4.19165 16.41729,-19.03709 3.78413,-1.86295 4.30809,4.71561 4.48274,-2.67799 2.79443,1.10612 19.56103,-16.88304 7.62649,-1.92117 8.26685,-6.3457 5.6471,-8.26685 0.46573,-4.59919 4.94847,-2.15404 1.97939,-5.93817 6.81144,-7.68469 9.25657,-26.54713 6.63678,-9.89695 -1.63008,-4.07523 3.66768,-12.34207 0.34931,-9.373 4.65738,-12.45851 3.31841,-1.92118 -1.80475,-23.63625 2.15404,-1.10613 1.97939,2.96908 h 7.27718 l 10.12983,-5.82173 -0.81505,-2.15405 2.50335,-0.93148 0.3493,-2.96908 3.31838,2.15404 3.95879,-5.29779 3.95878,-1.10612 0.46574,-0.93147 -6.28748,-0.11649 -14.4379,6.11282 -18.04738,2.3287 -11.29418,-24.33486 -6.63678,-8.96548 3.49303,-14.14682 6.46214,-14.14682 11.7599,-9.14013 -0.81503,-9.43121 h 2.50334 l 3.6677,-0.69862 6.98609,-5.99638 5.29778,-1.339 7.27716,-7.39361 6.98609,-6.28747 v -0.9897 l -5.99639,2.44512 -4.65738,4.36632 -11.58527,3.43482 -3.6677,5.7053 -4.48272,1.10613 -30.33126,-46.74855 7.80112,-8.61617 2.79443,-9.60588 -7.27716,-14.90363 -0.46575,-6.86967 10.24626,-3.31838 9.25657,0.29109 6.98608,-11.35239 -0.17464,-0.40752 -6.11282,0.81505 -7.45184,6.69499 -3.14373,-1.39721 3.31838,-5.6471 -0.98969,-2.0376 -3.3184,1.63008 -2.67799,-2.44513 -2.79444,7.80113 -5.93817,1.39722 0.81505,2.03761 -22.87943,-6.28748 -1.16434,2.03761 -9.43122,2.44513 -15.89334,0.81504 -2.15405,1.80475 -0.64038,6.46212 -16.76661,-2.3287 -4.65739,1.63009 -1.339,4.3663 -11.75991,3.84236 -6.98608,4.24986 0.3493,2.21226 -3.78414,2.85265 2.15405,5.06491 -7.27716,4.13344 -2.67801,5.06491 1.80474,1.51365 -1.51365,5.76352 5.29777,2.85265 -0.64039,6.69501 -1.339,1.7465 -2.15403,-2.03759 -4.94848,1.10613 -0.98971,5.47243 -3.14372,2.21226 -4.6574,-4.24988 1.33901,-8.32508 -10.42092,-7.91755 -8.26686,-2.85266 -2.96909,0.98969 -3.3184,6.40391 -6.28746,5.18135 -5.29779,-3.14374 -7.97577,5.87996 -2.15405,-3.43482 -6.46214,-1.339 -4.13343,10.94486 -7.62646,-3.26018 -3.49306,-4.89026 4.94848,-3.66768 0.34931,-5.35601 3.95879,-7.10251 4.48273,-2.3287 -1.16435,-9.19835 8.96547,-2.61977 1.9794,-7.51005 6.63678,-2.44513 v -4.24986 l 5.29778,-9.0237 5.29778,0.29108 3.84235,-7.97577 6.63678,-1.92118 5.64708,-6.46212 2.50335,-0.29109 0.52395,-4.3663 2.96909,5.23956 11.58527,-1.22257 8.26686,-7.56826 2.678,-5.18134 3.66768,-0.81504 3.14375,-7.56826 6.63678,-7.97578 8.15043,0.81505 6.11283,-8.38331 10.12983,-8.67439 4.83203,-10.18803 1.339,-12.92427 -3.66769,-17.87273 3.14373,-4.24987 5.64709,0.69861 -4.65738,3.72592 3.6677,8.15042 1.80473,-0.98969 2.15403,-2.91087 -0.34929,-12.10921 9.25655,-4.6574 6.28749,-11.17773 13.4482,-10.18805 0.81504,-9.66408 4.94849,-5.64708 8.96548,-2.73622 11.58525,-9.14012 2.67799,2.73621 2.50335,-0.40752 4.94848,-1.51366 2.15405,3.60949 11.4106,-2.91087 10.24626,-5.23957 7.97577,-7.45183 15.7187,-4.7156 14.729,-10.24626 4.13343,1.22257 4.94847,-5.00669 3.95879,0.40751 -1.9794,-11.46882 -10.30447,-6.52034 -0.46573,-3.0273 2.96908,-2.09584 11.4106,2.50335 0.64039,5.93818 3.14374,1.51365 13.09892,-2.79444 3.49303,5.0067 7.10253,1.92117 0.52396,5.64709 6.46211,4.30809 h 24.85882 l 6.98609,2.21226 29.69086,-13.39 0.81504,1.10613 4.94849,-5.12314 5.47243,-2.50334 7.10253,0.11649 21.54041,-10.3627 z m -329.97608,-36.73516 6.46213,1.68829 0.64039,2.61979 1.97938,-2.21226 8.26688,0.6986 2.96908,4.71562 6.28748,-2.38692 13.44822,3.72591 1.97938,2.91087 3.49303,2.09583 1.51367,5.82173 -3.49304,7.04431 4.94847,4.59917 -0.34931,3.60947 10.42092,1.39723 -1.63009,3.60947 2.32869,3.20196 -1.6883,1.80474 2.79444,1.10612 1.33899,9.43122 4.83204,2.61979 -3.31838,7.0443 2.3287,2.21226 18.74598,-4.83204 2.3287,-4.83205 4.83203,-2.32869 13.91397,3.31839 4.94848,-1.22257 4.94847,2.3287 -5.47243,4.42452 v 3.0273 l -2.79444,1.10613 -5.64708,9.14013 -0.34931,6.22926 -21.19112,15.19473 -0.81505,5.12313 -4.83203,-0.9897 -1.80474,2.91088 -7.80113,3.72591 -2.678,12.28386 -7.80113,3.14374 -16.068,15.31116 -7.80113,1.92118 0.52397,-1.80473 -5.47244,-0.40753 0.64039,4.017 -6.28747,3.43482 9.60586,2.21226 v 1.6301 l -9.14012,-2.50335 -11.93457,-7.04431 -4.13343,5.93818 -1.51366,-0.69861 2.96909,-5.23957 -2.79444,-7.97577 6.28749,-4.01701 2.50335,0.69861 2.15403,-6.75321 -1.63008,-4.94848 -16.88304,18.62957 -1.80474,-4.83205 -1.97939,0.6986 -0.81505,-8.96547 -2.3287,-1.51365 -6.46211,3.60947 -0.34931,-4.83204 -5.93818,-0.52396 0.81505,-6.34569 2.79443,-3.7259 -2.67799,0.6986 1.16434,-2.73621 -6.98608,-7.04431 0.81504,-4.30808 -9.95516,-7.45183 -1.16435,-7.0443 -1.9794,-4.83205 -1.97939,1.10614 -3.31839,-2.61979 5.93818,-11.64347 0.34929,-8.15042 -6.81143,-7.21896 4.48274,-2.91088 1.339,-7.91756 -1.80475,-0.69861 3.31841,-2.79443 1.63009,-6.92787 -3.78414,-5.29777 -2.15404,-10.24626 3.31839,-1.92117 2.15403,1.6883 8.09222,-1.22257 0.3493,-2.50334 2.67801,0.29108 2.32869,-2.91087 1.51366,4.13343 1.97938,-2.38691 3.84236,0.69862 -0.52396,-3.49305 3.66769,-1.80473 2.50334,4.01699 6.28748,0.29108 -1.51365,-2.09581 -0.46573,-1.92118 z" />
  </g>
</svg>
