<?xml version="1.0" encoding="UTF-8" standalone="no"?>
<!-- (c) ammap.com | SVG map of United Kingdom - Low -->

<svg
   version="1.1"
   id="svg1"
   sodipodi:docname="wales.svg"
   width="1000"
   height="1000"
   inkscape:version="1.4 (86a8ad7, 2024-10-11)"
   xmlns:inkscape="http://www.inkscape.org/namespaces/inkscape"
   xmlns:sodipodi="http://sodipodi.sourceforge.net/DTD/sodipodi-0.dtd"
   xmlns="http://www.w3.org/2000/svg"
   xmlns:svg="http://www.w3.org/2000/svg"
   xmlns:amcharts="http://amcharts.com/ammap">
  <sodipodi:namedview
     id="namedview1"
     pagecolor="#ffffff"
     bordercolor="#666666"
     borderopacity="1.0"
     inkscape:showpageshadow="2"
     inkscape:pageopacity="0.0"
     inkscape:pagecheckerboard="0"
     inkscape:deskcolor="#d1d1d1"
     inkscape:zoom="0.140625"
     inkscape:cx="-931.55555"
     inkscape:cy="800"
     inkscape:window-width="1920"
     inkscape:window-height="1017"
     inkscape:window-x="-8"
     inkscape:window-y="-8"
     inkscape:window-maximized="1"
     inkscape:current-layer="g1" />
  <defs
     id="defs1">
    <style
       type="text/css"
       id="style1">
			.land
			{
				fill: #CCCCCC;
				fill-opacity: 1;
				stroke:white;
				stroke-opacity: 1;
				stroke-width:0.5;
			}
		</style>
    <amcharts:ammap
       projection="mercator"
       leftLongitude="-10.476971"
       topLatitude="60.846439"
       rightLongitude="1.765388"
       bottomLatitude="49.162400" />
    <!-- All areas are listed in the line below. You can use this list in your script. -->
    <!--{id:"GB-UKC"},{id:"GB-UKD"},{id:"GB-UKE"},{id:"GB-UKF"},{id:"GB-UKG"},{id:"GB-UKH"},{id:"GB-UKI"},{id:"GB-UKJ"},{id:"GB-UKK"},{id:"GB-UKL"},{id:"GB-UKM"},{id:"GB-UKN"},{id:"GG"},{id:"JE"},{id:"IM"},{id:"IE"}-->
  </defs>
  <g
     id="g1"
     transform="translate(-164.18347,-172.57854)">
    <path
       id="GB-UKL"
       title="Wales"
       class="land"
       d="m 424.81114,501.07382 2.96021,1.10282 -0.17413,3.94695 -1.79935,2.72805 -2.32173,1.10282 -2.78609,2.72804 1.79934,-10.91217 z m 42.31366,-271.81746 5.97848,1.79934 2.78609,-5.10781 -0.46436,6.21064 -0.63847,0.29021 2.78609,4.81761 4.64347,-1.39304 3.30848,2.08956 -0.46435,4.99175 -4.46934,2.49587 2.96021,3.01825 -0.81261,2.61195 4.12108,5.10783 2.67001,1.79934 2.49587,4.99174 0.8126,1.62522 -5.45609,4.29521 -2.66999,-2.49587 -0.17413,2.72804 -2.78608,-0.52239 -5.28196,-4.00499 1.335,-3.88891 -4.46935,-5.63022 2.49587,-5.80434 -10.09956,-3.19239 -4.8176,2.61196 -1.97348,-1.79936 -2.1476,1.39305 -2.32175,-3.71478 2.78609,-4.81761 -6.2687,-3.88891 4.46935,-2.61196 1.33501,-6.50086 5.6302,2.49587 z m 394.57935,-18.51585 3.13433,1.2189 -1.16086,3.71479 2.96022,5.80434 6.09456,5.51412 3.30847,1.39305 1.50914,0.29022 2.66999,3.01825 16.19413,9.51913 13.52412,14.04651 7.95194,4.4113 2.67001,4.52739 10.91216,5.63022 -0.17413,-1.79935 5.80435,-1.50912 -10.09957,-3.42457 0.17414,-2.20565 3.83087,-0.40631 1.91543,2.84413 13.05977,-0.29022 10.68,5.80435 26.46781,26.29369 0.98674,7.42955 -14.39477,9.7513 -0.46436,2.20565 6.21066,11.14435 13.2339,10.1576 8.76456,24.95868 2.20566,10.38978 -1.0448,5.22391 9.80938,9.69325 4.3533,8.88065 11.3765,-0.40631 13.8724,9.05478 v 0 l 3.1924,10.09955 -0.8126,14.22065 -8.9968,1.21892 -9.9254,7.95195 -20.8957,-20.25717 -7.60368,-1.10282 -14.62696,4.52739 -10.21564,-9.80935 -9.28695,-0.40631 -19.32847,14.33674 -1.85739,-0.75456 -7.19738,6.32674 -2.14761,9.28694 -10.38978,5.34 3.71478,13.34999 -9.57717,10.91217 -1.335,5.86238 4.46935,12.53739 2.72804,3.65674 5.28195,2.20565 11.43456,1.45109 4.93369,7.66173 17.18086,3.94695 2.67001,6.09456 10.38977,6.15261 0.34826,2.96021 -3.77283,5.16588 -12.71151,2.37977 -6.44283,14.39478 1.10283,14.10455 -10.33172,7.31348 -4.93371,18.1676 -12.94368,9.2289 -0.23217,7.89392 5.10783,10.04151 -3.36653,8.12609 2.72804,1.50912 7.02326,-1.50912 5.45608,-8.4163 17.00674,-11.55066 10.79608,13.58218 -5.04979,11.0863 -8.4163,2.72804 -2.90216,8.12607 -23.56564,1.21892 -12.13109,7.83587 -13.87238,5.39803 -5.39804,7.83587 v 9.57717 l 5.39804,10.27369 8.8226,3.25043 7.77782,9.57716 10.85413,7.42957 10.73804,11.4926 13.64021,2.26369 13.81434,-2.96021 5.39803,2.49587 1.16087,4.4113 -1.04478,3.65674 -10.50586,7.02325 -2.67,11.20239 3.19239,5.51412 9.34499,2.55392 1.50914,4.46934 -17.58717,2.84414 -4.70152,6.44281 -7.77782,5.39805 -1.97348,7.77782 -15.43955,23.68173 2.72804,5.80434 8.4163,-1.74131 0.17413,4.70152 -16.13608,10.21565 0.75456,3.48261 8.12609,3.4826 -4.70152,6.90717 -3.42457,13.34999 4.41131,0.58044 8.99673,10.97022 0.9287,5.2239 -2.20565,6.55891 10.50586,18.74804 6.675,9.63521 10.27369,9.6352 1.62521,8.53239 6.38478,2.96022 1.91543,4.70152 5.10783,1.45109 14.39477,-9.46108 8.64848,-1.21892 13.52417,13.11782 12.5374,7.60368 3.5406,9.34501 8.7646,12.94368 h 11.7248 l 4.5854,6.50087 5.1659,1.10283 1.9154,4.17913 3.2504,-3.54066 v 0 l -0.3482,4.81761 -8.3583,10.85412 -2.0896,11.55064 4.8177,12.24717 -5.2239,6.2687 -0.4064,3.8309 3.7729,6.9071 -0.9287,7.3135 5.2819,7.7198 -8.7645,6.2687 1.5091,2.7861 3.947,0.6384 -1.5672,7.1974 3.3085,11.4926 v 0 l -0.5805,2.4959 -8.4163,4.9337 -5.4561,8.2422 -11.8989,1.335 -27.7447,16.0199 -16.83269,5.9785 -16.36825,-1.5671 -9.40304,-4.2372 -5.45608,7.6617 -22.63695,14.2787 -10.73803,3.8309 -1.50913,5.0498 -3.77282,3.5987 1.16087,2.2637 -6.44283,7.6617 -2.1476,-0.9287 v -4.6434 l -2.49587,2.2637 -2.32174,-1.9735 0.17412,6.0945 4.29523,3.8309 -1.79936,17.297 -5.80434,2.786 -10.38977,-1.7413 -10.38978,4.2372 -1.335,3.4245 -4.12108,-1.335 -1.97348,0.2323 -1.16087,1.5672 -6.44283,-3.1924 -8.93868,5.5722 h -18.98021 l -2.49587,-3.0184 -10.27369,-0.1161 -21.99847,-5.8043 -5.10781,1.335 -6.44283,-1.9735 -11.08629,-18.8641 -2.78609,-0.2902 v -2.0896 l -10.27369,-7.5456 -2.49587,-7.5457 -6.96521,-0.5224 -2.49587,2.7861 -3.4826,-2.67 -2.96022,2.4958 -4.8176,-2.3797 -4.81761,-9.5192 -4.64348,-2.67 0.98674,-1.8574 -4.64347,-15.2073 -7.77783,-14.5689 -2.67,0.2321 -2.14761,-5.1658 -3.94695,0.5224 3.30847,-3.4246 -11.72477,-12.0731 4.29521,-8.126 -5.6302,4.7595 h -12.71153 l -6.96521,4.5274 -3.94695,-2.2637 -7.25543,0.4063 -8.12608,3.4246 -4.81761,6.3848 -0.34826,7.0232 8.76456,5.0498 -3.4826,1.4511 -9.22891,-1.7413 -3.65674,1.9735 -2.96021,-3.1924 -9.40304,6.0945 -10.91217,-3.7147 -3.13435,-4.3533 -2.49587,2.9022 -6.96521,-0.2902 -3.4826,3.5986 -0.98675,3.0183 4.46935,4.6435 -1.335,1.7413 -14.39477,-3.0763 -2.49587,1.2189 0.34826,4.7596 -9.57717,-3.0763 -12.88564,-8.9968 -7.77782,-0.2322 5.10781,-4.6434 0.17414,-5.9785 -4.81761,-11.9569 -3.30847,-0.5224 5.45608,-2.67 6.09456,0.1161 2.67,-5.4561 4.64348,-2.4959 1.97347,-7.4295 3.94696,2.3798 -0.98674,5.0497 1.62521,-0.6384 0.81261,-0.2902 2.14761,-0.2903 5.92043,3.7148 h 5.63022 l 3.4826,-2.7861 h 1.33501 l 4.93369,-1.335 3.30847,-3.7147 5.80434,-0.6385 3.94696,-4.2372 7.0813,-3.0763 3.94695,-5.5722 -2.66999,-6.0945 2.32173,-0.2903 5.63022,-8.3582 -4.64348,2.3798 -0.63848,3.7148 -4.12108,0.5223 1.335,10.622 -9.11282,3.5987 -12.53739,1.7413 -6.26868,-5.4561 -2.96023,-6.6169 -7.77782,-2.3798 -4.93369,0.6385 -2.49587,2.5539 -12.42129,-0.1162 2.78608,2.67 -3.94695,2.3798 -9.92543,-2.4959 -14.85913,-15.1493 -5.10781,-11.5506 0.34826,-1.8574 3.65673,2.2637 8.4163,-1.4511 1.79935,2.5539 4.29521,0.5224 -3.94696,-2.2637 1.79936,-2.1476 -11.89891,-1.5672 -4.29522,-4.52738 4.46935,-13.69826 -1.50912,-5.34 13.2339,-6.90717 -0.63848,-0.11602 -13.23391,5.57216 -1.50913,6.15261 -8.41629,9.69325 -13.40804,-5.74629 3.13435,-5.34 -5.28196,-4.8176 -2.78608,0.29022 5.28195,4.12108 -3.48261,6.67499 10.09956,8.9387 -4.12108,5.04981 -11.72478,1.7413 -23.15934,-4.00504 -6.61695,4.12114 -10.38977,-1.9735 -17.18086,4.4113 -7.60369,8.1261 2.66999,6.3847 1.16087,0.9287 -3.65674,5.5722 -1.335,5.1659 2.14761,0.9287 -6.44281,7.0232 1.33499,2.67 -13.87238,-0.6385 0.46434,4.3533 -6.09456,0.8126 -1.68326,3.7148 -7.08129,-1.8574 0.17412,-2.2637 -6.26868,0.4063 v -2.1476 h -10.91218 l -1.33499,2.2637 1.79934,1.8574 -4.29521,0.5224 -8.59043,8.6485 2.78609,4.2371 -7.95196,0.116 -1.16087,6.7911 -6.44282,-0.5224 -8.24217,-6.0945 -10.73804,0.4063 -6.44282,-4.3533 -7.77783,-1.2189 -1.16087,-4.2372 3.30849,-2.3797 0.34825,-4.005 -3.83086,-9.0548 -10.91217,-2.67 -4.29521,-3.0763 -0.98675,-0.9287 -2.1476,-3.3085 5.28195,-1.6252 -1.79934,-2.9022 2.96021,-0.4063 7.42956,1.2189 1.16087,5.4561 7.77782,0.6385 1.16088,-3.3085 -3.77284,-1.7413 2.14762,-3.3085 6.44281,-0.1161 0.34827,-1.8574 2.49587,3.4826 11.26043,0.9287 -0.81261,2.2637 2.78609,5.0498 10.73803,-1.2189 1.79934,-1.7413 -5.28195,0.2902 -7.95195,-4.005 4.81761,-2.5539 0.63847,-2.9022 4.64349,1.5672 -0.46436,-1.7413 3.30848,-2.2637 4.12109,1.8574 4.12108,-3.5987 4.29521,0.1161 1.97348,-4.4113 5.10783,0.116 1.33499,-1.335 8.76456,-1.7413 -3.77282,-0.9287 -11.0863,3.0764 -0.17413,-6.2687 3.30848,-0.5224 -7.0813,-4.00504 2.78608,-12.76956 4.93369,-2.66999 -0.63847,-1.21892 -6.79109,4.005 -3.77281,-4.64347 -4.46935,1.62522 -4.9337,3.59869 -0.17413,0.63848 7.77782,-3.19239 4.64348,4.23717 -1.335,1.45109 1.50913,6.15259 -1.79935,1.33501 5.45609,6.50082 -2.49587,9.6933 -3.77283,-0.4063 -3.83086,3.1924 -3.65674,-2.2637 -3.94696,2.67 -4.12108,-1.2189 -8.93869,3.7148 -9.57717,-4.2372 -0.34826,-0.4063 -3.77282,-0.5224 -4.64348,1.4511 -2.67,-1.8574 -0.98673,1.4511 -3.94696,0.4063 h -0.46434 l -2.49587,-0.1162 -2.78608,-6.9071 -2.49587,-1.335 -0.17414,3.7147 -2.78609,2.7861 -2.96021,-3.1924 -2.96021,2.2637 h -5.80436 l -4.46933,-2.67 0.52239,4.9337 5.63021,2.3798 -2.14761,0.6965 -0.17412,6.3848 -3.94696,0.4063 -1.62522,3.3085 -3.83086,-4.7596 0.17412,-9.0548 -4.81761,-1.2189 0.34827,-2.9021 -3.65674,-2.7861 -2.78609,-0.116 -1.33499,0.4063 -7.42956,-4.8176 -0.17413,-2.7861 13.05978,1.9734 2.1476,-10.09952 5.10782,0.29022 7.60369,-8.4163 7.42956,-0.4063 4.81761,2.1476 3.13435,-2.90217 1.62522,-3.07631 -0.34827,-15.03324 -1.16087,-5.45609 -1.97348,-0.29022 -1.62521,-11.49259 -5.28195,-7.19739 -6.26869,2.26368 -1.97348,-2.37977 -4.81761,1.45109 0.17414,-3.07631 -9.11283,0.11614 -1.79934,-2.78608 -8.24217,0.29021 h -2.49587 l -1.50913,1.7413 -2.14761,-1.335 -7.0813,3.4826 -2.14761,-0.2902 -4.81761,2.37977 -1.97348,-1.33499 3.77283,-5.97848 -2.67,-4.8176 3.48261,-0.69653 2.67,-3.71477 -2.78609,-4.29522 -2.66999,0.52239 1.97347,-2.96022 5.45608,-3.0763 1.335,1.335 8.06804,-2.14761 6.79109,-6.79109 7.08129,-1.33499 -0.63847,-2.78609 4.12109,-1.62521 0.17412,-1.74131 0.52239,-2.2637 11.72478,0.9287 5.28196,-7.8939 9.40303,1.21891 0.81261,-3.19239 6.2687,-0.69652 -1.16087,-4.8176 1.97348,-2.78609 -2.78609,-0.29022 -1.335,-3.36652 6.26869,-4.81761 -2.66999,-0.52239 0.8126,-2.96021 -3.48261,-1.62523 5.63022,-5.6302 -2.14761,-0.81261 1.62522,-1.45109 10.91216,1.21892 4.46934,1.335 1.97348,0.40629 8.41631,-0.11602 0.17412,4.29521 1.68326,0.81261 -2.96021,5.86239 4.64347,0.40631 1.50914,-0.29022 3.65674,0.69652 9.2289,-5.86239 1.68326,-1.21891 3.65674,-2.67 -2.49587,-3.07631 2.78608,-3.88891 4.64348,1.8574 0.17413,3.59869 2.14761,1.335 8.93869,-1.335 8.76456,1.85739 -6.26869,-8.18412 0.52239,-2.84413 7.60368,-6.55892 9.7513,-2.03151 12.71153,-17.00673 -1.50914,-4.17913 3.94696,-2.2637 1.62521,-4.4113 11.72478,7.25543 3.30848,8.18414 1.68326,-6.44283 -1.97348,-2.43782 -1.16087,-2.67001 -2.14761,-4.70152 1.50913,-4.81761 24.32021,-5.6302 6.26869,1.74129 4.81761,-3.36651 3.65673,0.92869 2.96022,3.88891 8.59043,-0.52239 13.40804,-12.07303 1.62521,-6.03652 3.30848,2.67 6.96521,-4.17913 16.36825,-18.98021 3.77282,-1.85739 4.29522,4.70152 4.46935,-2.66999 2.78608,1.10282 19.50259,-16.8326 7.6037,-1.91543 8.24216,-6.32674 5.63022,-8.24216 0.46434,-4.58544 4.93369,-2.14761 1.97348,-5.92043 6.79109,-7.66173 9.22891,-26.46782 6.61695,-9.86738 -1.62521,-4.06305 3.65673,-12.3052 0.34826,-9.345 4.64347,-12.42129 3.30849,-1.91544 -1.79935,-23.56563 2.1476,-1.10283 1.97348,2.96021 h 7.25543 l 10.09957,-5.80434 -0.81261,-2.14761 2.49587,-0.9287 0.34825,-2.96021 3.30847,2.14761 3.94696,-5.28196 3.94696,-1.10282 0.46434,-0.92869 -6.26869,-0.11614 -14.39477,6.09456 -17.99346,2.32174 -11.26044,-24.26216 -6.61695,-8.93869 3.4826,-14.10456 6.44283,-14.10455 11.72477,-9.11282 -0.8126,-9.40304 h 2.49586 l 3.65674,-0.69653 6.96522,-5.97847 5.28195,-1.335 7.25542,-7.37152 6.96522,-6.26868 v -0.98675 l -5.97847,2.43782 -4.64347,4.35327 -11.55066,3.42456 -3.65674,5.68826 -4.46933,1.10282 -30.24064,-46.60888 7.77781,-8.59043 2.78609,-9.57718 -7.25542,-14.85911 -0.46436,-6.84914 10.21565,-3.30847 9.22891,0.29022 6.96521,-11.31847 -0.17412,-0.4063 -6.09456,0.81261 -7.42957,6.67499 -3.13434,-1.39304 3.30847,-5.63022 -0.98674,-2.03152 -3.30848,1.62521 -2.66999,-2.43782 -2.78609,7.77782 -5.92043,1.39305 0.81261,2.03152 -22.81107,-6.2687 -1.16087,2.03153 -9.40304,2.43782 -15.84586,0.81261 -2.14761,1.79935 -0.63847,6.44282 -16.71652,-2.32174 -4.64347,1.62522 -1.335,4.35325 -11.72478,3.83088 -6.96521,4.23716 0.34826,2.20565 -3.77283,2.84413 2.14761,5.04978 -7.25542,4.12109 -2.67001,5.04978 1.79935,1.50913 -1.50913,5.7463 5.28195,2.84413 -0.63848,6.675 -1.335,1.74129 -2.1476,-2.03151 -4.93369,1.10283 -0.98675,5.45608 -3.13433,2.20565 -4.64349,-4.23718 1.33501,-8.30021 -10.38978,-7.8939 -8.24217,-2.84413 -2.96022,0.98673 -3.30848,6.38478 -6.26868,5.16587 -5.28196,-3.13435 -7.95194,5.86239 -2.14762,-3.42456 -6.44283,-1.335 -4.12108,10.91217 -7.60368,-3.25044 -3.48262,-4.87565 4.93369,-3.65673 0.34827,-5.34 3.94696,-7.0813 4.46934,-2.32174 -1.16087,-9.17087 8.93869,-2.61194 1.97348,-7.48761 6.61695,-2.43783 v -4.23716 l 5.28196,-8.99674 5.28195,0.29021 3.83087,-7.95194 6.61695,-1.91544 5.63021,-6.44282 2.49587,-0.29022 0.52239,-4.35325 2.96021,5.2239 11.55066,-1.21891 8.24216,-7.54565 2.67,-5.16586 3.65673,-0.81261 3.13435,-7.54565 6.61696,-7.95195 8.12608,0.81261 6.09456,-8.35826 10.09957,-8.64847 4.81759,-10.1576 1.335,-12.88565 -3.65673,-17.81934 3.13434,-4.23717 5.63022,0.69652 -4.64347,3.71479 3.65674,8.12607 1.79934,-0.98673 2.1476,-2.90218 -0.34825,-12.07303 9.2289,-4.64348 6.2687,-11.14434 13.40802,-10.15761 0.81261,-9.63521 4.9337,-5.63021 8.9387,-2.72804 11.55064,-9.11282 2.66999,2.72804 2.49587,-0.4063 4.93369,-1.50914 2.14762,3.5987 11.37651,-2.90217 10.21565,-5.22392 7.95194,-7.42956 15.67174,-4.70151 14.68499,-10.21565 4.12108,1.21892 4.93369,-4.99174 3.94696,0.4063 -1.97348,-11.43456 -10.27369,-6.50086 -0.46434,-3.01826 2.96021,-2.08957 11.37651,2.49587 0.63848,5.92044 3.13435,1.50912 13.05978,-2.78609 3.4826,4.99174 7.08131,1.91543 0.52239,5.63022 6.44281,4.29522 h 24.78455 l 6.96522,2.20565 29.60215,-13.34999 0.81261,1.10282 4.9337,-5.10783 5.45608,-2.49586 7.08131,0.11614 21.47606,-10.33174 z m -328.99025,-36.62542 6.44282,1.68325 0.63848,2.61196 1.97347,-2.20565 8.24218,0.69652 2.96021,4.70153 6.26869,-2.37979 13.40804,3.71478 1.97347,2.90217 3.4826,2.08957 1.50914,5.80434 -3.4826,7.02326 4.93369,4.58543 -0.34827,3.59869 10.38979,1.39305 -1.62522,3.59869 2.32173,3.19239 -1.68326,1.79935 2.78609,1.10282 1.33499,9.40304 4.81761,2.61196 -3.30847,7.02326 2.32174,2.20565 18.68998,-4.81761 2.32174,-4.81761 4.8176,-2.32173 13.8724,3.30847 4.93369,-1.21891 4.93369,2.32174 -5.45608,4.4113 v 3.01826 l -2.78609,1.10282 -5.63021,9.11282 -0.34827,6.21065 -21.12781,15.14934 -0.81261,5.10782 -4.8176,-0.98674 -1.79935,2.90218 -7.77782,3.71478 -2.67,12.24716 -7.77782,3.13435 -16.02,15.26542 -7.77782,1.91544 0.5224,-1.79934 -5.45609,-0.40631 0.63848,4.005 -6.26869,3.42455 9.57717,2.20565 v 1.62523 l -9.11282,-2.49587 -11.89891,-7.02326 -4.12108,5.92044 -1.50914,-0.69653 2.96022,-5.22391 -2.78609,-7.95194 6.2687,-4.00501 2.49587,0.69652 2.1476,-6.73303 -1.62521,-4.9337 -16.8326,18.57391 -1.79935,-4.81761 -1.97348,0.69651 -0.81261,-8.93868 -2.32174,-1.50913 -6.44281,3.59869 -0.34826,-4.81761 -5.92044,-0.52239 0.81261,-6.32673 2.78608,-3.71477 -2.66999,0.69651 1.16087,-2.72804 -6.96521,-7.02326 0.8126,-4.29521 -9.92542,-7.42957 -1.16087,-7.02325 -1.97348,-4.81761 -1.97348,1.10283 -3.30848,-2.61196 5.92044,-11.60869 0.34825,-8.12607 -6.79108,-7.19739 4.46935,-2.90218 1.335,-7.89391 -1.79936,-0.69652 3.30849,-2.78608 1.62522,-6.90717 -3.77283,-5.28195 -2.14761,-10.21565 3.30848,-1.91543 2.1476,1.68326 8.06804,-1.21892 0.34826,-2.49586 2.67,0.29021 2.32174,-2.90217 1.50914,4.12108 1.97346,-2.37978 3.83088,0.69653 -0.52239,-3.48261 3.65673,-1.79934 2.49586,4.00499 6.2687,0.29021 -1.50913,-2.08955 -0.46434,-1.91544 z"
       style="fill:#a0c68b;stroke-linejoin:bevel;stroke-width:0.5;fill-opacity:1" />
    <path
       style="fill:#a0c68b;stroke-width:0.888889;stroke-linejoin:bevel;fill-opacity:1"
       d="m 671.11111,994.66666 c -0.6043,-0.97777 -3.92839,-1.77777 -7.38686,-1.77777 -3.45847,0 -10.65399,-1.26919 -15.99005,-2.82043 -5.33607,-1.55124 -10.85918,-2.37634 -12.27361,-1.83356 -4.53528,1.74033 -7.72114,-0.81403 -13.40443,-10.74738 -3.0552,-5.33991 -8.25049,-11.45911 -11.5451,-13.59822 -3.29462,-2.13911 -6.79255,-6.16607 -7.77318,-8.94877 -1.72055,-4.88234 -2.12003,-5.02949 -11.41082,-4.20291 -9.54043,0.84876 -9.66831,0.79475 -14.0834,-5.94873 -2.45056,-3.74292 -5.4421,-9.85159 -6.64786,-13.57486 -3.12249,-9.64182 -9.83381,-22.59072 -13.12378,-25.32116 -1.54295,-1.28053 -2.80535,-3.1922 -2.80535,-4.24814 0,-1.05595 -2.47396,-4.47239 -5.49769,-7.59209 -4.63088,-4.77783 -5.19072,-6.24576 -3.55076,-9.31008 2.27833,-4.25707 -0.65714,-7.30365 -3.90645,-4.05433 -1.08814,1.08814 -4.67102,1.97844 -7.96198,1.97844 -3.29095,0 -7.73095,0.94275 -9.86666,2.095 -2.13572,1.15225 -7.15901,1.89947 -11.16286,1.66046 -9.88034,-0.58978 -18.49805,6.33396 -18.49805,14.86189 0,4.36076 -0.90779,6.09424 -3.55378,6.78618 -1.95459,0.51113 -4.00711,0.19586 -4.56115,-0.7006 -0.55691,-0.90109 -2.72199,-0.42898 -4.84178,1.05579 -5.23954,3.6699 -10.58384,3.36915 -16.01262,-0.90112 -2.79319,-2.19712 -4.99312,-2.88592 -5.67799,-1.77778 -0.61494,0.99498 -2.91087,1.80906 -5.10205,1.80906 -4.88919,0 -8.25063,3.13257 -8.25063,7.68889 0,2.84439 -0.88891,3.24445 -5.26455,2.36932 -3.56956,-0.71392 -6.1728,-0.14466 -8.08556,1.76811 -2.57616,2.57616 -3.59535,2.33964 -11.74246,-2.72488 -4.90681,-3.05024 -9.4683,-5.54588 -10.13667,-5.54588 -0.66836,0 -1.25232,-3 -1.29769,-6.66667 -0.0454,-3.66666 -0.76512,-8.9982 -1.59943,-11.84785 -1.25611,-4.29035 -1.04831,-5.00139 1.20853,-4.13535 1.72869,0.66336 4.75184,-1.24295 8.2661,-5.21239 3.04734,-3.44202 5.54062,-5.45619 5.54062,-4.47591 0,3.06532 16.95477,4.42148 23.89632,1.91138 3.47925,-1.25812 6.3259,-2.92677 6.3259,-3.70813 0,-0.78135 1.4,-1.47376 3.11111,-1.53866 1.71111,-0.0649 6.71111,-2.72567 11.11111,-5.9128 5.67442,-4.11024 8.17152,-7.25949 8.59001,-10.83334 0.3245,-2.77121 1.76797,-6.83637 3.2077,-9.03368 3.58487,-5.4712 0.36939,-6.90523 -5.36652,-2.39334 -3.14192,2.47142 -4.65341,5.36509 -4.65341,8.90866 0,5.95406 -4.81047,8.71586 -15.18119,8.71586 -4.88569,0 -6.57625,-0.99671 -8.71915,-5.14059 -3.00012,-5.80163 -10.77312,-9.26453 -16.09966,-7.17246 -1.95555,0.76805 -7.04114,1.45271 -11.30131,1.52142 -6.27044,0.10116 -7.54235,0.65502 -6.67785,2.90788 1.95619,5.09777 -6.38816,0.90042 -15.2079,-7.64982 -10.08202,-9.77397 -11.67116,-14.02513 -5.6715,-15.17205 2.35222,-0.44965 4.70487,-0.12484 5.22813,0.72181 2.00097,3.23766 5.63043,1.365 5.63043,-2.90508 0,-3.78679 -0.82208,-4.44848 -5.55555,-4.47166 -9.35366,-0.0458 -10.99424,-2.08831 -8.46317,-10.53629 1.20084,-4.00807 1.71806,-8.04028 1.14935,-8.96046 -0.56869,-0.92018 2.19426,-3.31996 6.13991,-5.33289 3.94566,-2.01292 7.17391,-4.44359 7.17391,-5.40149 0,-2.52071 -2.2482,-2.1757 -11.40816,1.75072 -5.50879,2.36135 -8.1474,4.56398 -8.1474,6.80122 0,1.81986 -1.88775,5.0823 -4.19499,7.24984 -3.58752,3.37029 -4.84353,3.64549 -8.67349,1.90044 -2.88327,-1.31371 -4.19964,-3.10692 -3.69561,-5.03433 1.03751,-3.96745 -5.55187,-9.83849 -9.38946,-8.36587 -2.72952,1.04742 -2.74055,1.4005 -0.13358,4.28118 1.6199,1.78995 2.42626,4.72677 1.87579,6.83175 -0.67218,2.5704 0.40016,4.76638 3.52946,7.22789 8.86254,6.97127 -1.61622,9.61693 -22.67289,5.72439 -7.64521,-1.41329 -10.8679,-1.36172 -12.75467,0.20416 -1.38857,1.15241 -5.0931,1.71831 -8.23228,1.25759 -14.10939,-2.07081 -32.89865,7.68977 -30.81145,16.00584 1.06887,4.25867 -1.97429,17.41076 -4.93133,21.31241 -0.92631,1.22223 -4.38623,2.22223 -7.68873,2.22223 -3.61105,0 -6.01007,0.88581 -6.01842,2.22222 -0.0191,3.05861 -9.21225,7.21973 -10.6852,4.83646 -0.61842,-1.00064 -5.22287,-2.30473 -10.23212,-2.89801 -8.74526,-1.03573 -9.39582,-0.80567 -16.34688,5.78114 -3.98154,3.77289 -6.84789,7.87945 -6.36967,9.12567 0.52306,1.36308 -0.52491,2.26585 -2.63027,2.26585 -1.92572,0 -3.49976,1.19936 -3.49976,2.66667 0,1.46666 -1.50205,2.66666 -3.33788,2.66666 -1.83583,0 -4.33379,-1.2 -5.55101,-2.66666 C 208.56055,889.2 204.94996,888 201.75424,888 c -3.19572,0 -8.97449,-1.41661 -12.84169,-3.148 -5.87529,-2.63045 -6.72241,-3.63769 -5.15254,-6.12645 2.9067,-4.60809 -2.83752,-15.21856 -9.04232,-16.70258 -2.71695,-0.64982 -6.3588,-1.90907 -8.093,-2.79835 -2.75659,-1.41355 -2.82844,-1.94149 -0.57142,-4.19852 3.46239,-3.4624 5.11549,-3.25483 7.75638,0.9739 1.22126,1.95555 4.12811,3.55555 6.45966,3.55555 4.81768,0 7.67967,-5.11066 4.23535,-7.56309 -1.46567,-1.04359 -0.13534,-1.25349 3.71756,-0.58658 3.3,0.5712 7.37159,1.03856 9.04798,1.03856 1.67638,0 3.95231,1.98482 5.05762,4.41071 1.72938,3.79557 2.82288,4.25655 7.84091,3.30538 3.2072,-0.60791 6.95634,-1.99273 8.33142,-3.07735 2.01435,-1.58889 1.49619,-2.14818 -2.66667,-2.87842 -2.84175,-0.49849 -4.91435,-1.69849 -4.60579,-2.66666 0.30857,-0.96818 1.70857,-1.52525 3.11111,-1.23794 1.40255,0.28731 2.55009,-0.31269 2.55009,-1.33333 0,-1.02064 1.55278,-1.85572 3.45063,-1.85572 1.89786,0 3.92348,-0.76507 4.50138,-1.70014 0.57791,-0.93508 2.21838,-1.25207 3.64549,-0.70443 1.42711,0.54763 3.0559,-0.20604 3.61952,-1.67481 0.56363,-1.46878 4.60506,-3.57205 8.98098,-4.67392 7.70341,-1.93973 9.28788,-5.46892 2.45534,-5.46892 -4.23624,0 -12.43112,-7.4591 -12.43112,-11.31497 0,-1.59899 1.66667,-4.57392 3.7037,-6.61095 2.03704,-2.03705 3.20929,-4.19814 2.60499,-4.80242 -2.28962,-2.28964 -16.22877,-1.82571 -20.08647,0.66852 -5.79389,3.74609 -5.06418,6.57607 1.33334,5.17093 4.3609,-0.95781 5.3827,-0.57838 5.60411,2.08096 0.14893,1.78882 0.36066,4.15317 0.47051,5.25415 0.10984,1.101 1.38061,4.2083 2.82393,6.90517 2.45571,4.58854 2.36528,5.07529 -1.40839,7.58091 -4.51583,2.9984 -15.45342,4.74955 -26.15683,4.1878 -3.91111,-0.20526 -11.71111,-0.49116 -17.33333,-0.63536 -6.57165,-0.16851 -10.22223,-1.01776 -10.22223,-2.37799 0,-1.16371 -1.26097,-3.16234 -2.80216,-4.44142 -2.31176,-1.91859 -3.05948,-1.90923 -4.27255,0.0535 -1.89572,3.06734 -11.72265,4.14531 -16.15664,1.77232 -2.87563,-1.53899 -3.43531,-1.24514 -3.43531,1.80371 0,2.00322 1,5.25577 2.22222,7.2279 1.83185,2.9558 1.75378,3.87969 -0.44444,5.25945 -2.15251,1.35105 -2.77306,0.48366 -3.21843,-4.49869 C 144.03366,842.77762 142.8261,840 141.65366,840 c -1.17245,0 -3.09369,-1.54037 -4.26944,-3.42304 -1.17575,-1.88267 -3.96818,-3.77373 -6.20541,-4.20235 -3.5949,-0.68871 -3.50339,-0.80743 0.78732,-1.0214 3.59546,-0.17929 5.14441,-1.39515 5.9705,-4.68654 0.61352,-2.44445 2.08931,-4.44445 3.27954,-4.44445 1.19022,0 4.1035,-2.06969 6.47394,-4.59932 3.40943,-3.6384 5.48526,-4.40976 9.93561,-3.692 7.76655,1.2526 11.26317,-3.01197 11.26317,-13.73684 0,-8.86251 -4.25678,-24.4155 -8.32479,-30.41628 -1.32569,-1.95556 -4.59494,-3.68978 -7.265,-3.85382 -2.67006,-0.16403 -9.22712,-1.23161 -14.57124,-2.37239 -9.24953,-1.97445 -16.67738,-1.72517 -26.88645,0.9023 -3.85821,0.99297 -4.56059,0.60865 -4.34077,-2.37517 0.14425,-1.95792 1.31357,-4.82659 2.59849,-6.37483 1.73471,-2.0902 1.82642,-3.42926 0.3562,-5.20078 -2.46948,-2.97554 -0.85082,-4.72531 4.37123,-4.72531 2.20646,0 6.38861,-2 9.29367,-4.44445 2.90506,-2.44444 6.96644,-4.44444 9.02529,-4.44444 2.05885,0 3.74337,-0.85714 3.74337,-1.90477 0,-3.5953 5.08368,-6.98412 10.47713,-6.98412 3.63424,0 6.03942,-1.19893 7.36171,-3.66965 1.56192,-2.91848 3.03039,-3.43544 7.17366,-2.52543 3.25029,0.71389 5.20972,0.42249 5.20972,-0.77477 0,-1.05548 1.5092,-1.91904 3.35378,-1.91904 2.42,0 3.59614,-1.60868 4.22427,-5.77778 0.47877,-3.17778 0.12066,-6.06074 -0.79579,-6.40659 -0.91645,-0.34585 -0.30697,-2.13085 1.35442,-3.96665 2.42328,-2.67769 2.5903,-3.85643 0.84452,-5.95998 -4.09105,-4.92941 -0.28485,-6.86008 11.1649,-5.66335 10.60071,1.108 15.12357,3.88246 11.77987,7.22615 -3.24042,3.24043 -1.67464,4.5482 5.44548,4.5482 8.13196,0 21.27801,-7.54409 21.32244,-12.23625 0.0223,-2.36027 0.30943,-2.42914 1.6038,-0.38478 1.02768,1.62315 5.67837,2.67648 13.35809,3.02546 12.27369,0.55776 12.6856,0.13587 6.68717,-6.84887 -2.38806,-2.78073 -2.347,-3.47 0.38662,-6.49062 1.68212,-1.85874 5.63901,-3.86362 8.79308,-4.45534 4.17629,-0.78347 7.52644,-3.47584 12.32823,-9.90764 3.62646,-4.85752 6.59357,-9.89261 6.59357,-11.18912 0,-1.2965 0.9078,-3.26509 2.01734,-4.37464 2.86774,-2.86773 10.01538,2.16255 12.982,9.13632 l 2.34106,5.50326 1.99046,-4.9888 c 1.57002,-3.93508 1.42846,-6.07556 -0.67021,-10.13394 -1.46336,-2.82983 -2.66065,-5.92075 -2.66065,-6.86871 0,-2.24336 23.78218,-7.65499 27.4521,-6.2467 1.54846,0.5942 4.09177,0.0211 5.65181,-1.27364 2.38807,-1.98192 3.18821,-1.87285 5.06224,0.69001 3.91712,5.357 11.08259,3.67632 20.13223,-4.72208 4.60256,-4.27132 10.92851,-9.07131 14.0577,-10.66661 3.12918,-1.59531 6.32918,-3.97727 7.11111,-5.29321 0.78192,-1.31597 4.39865,-5.83307 8.03716,-10.03801 5.10606,-5.90096 7.153,-7.19922 8.9714,-5.69006 4.227,3.50809 11.37278,1.12426 21.09299,-7.03663 5.2483,-4.40636 12.14605,-9.04716 15.32832,-10.31288 5.94571,-2.36486 16.43627,-12.85944 16.43627,-16.44258 0,-1.10617 1.19578,-3.27833 2.65731,-4.82702 7.95995,-8.43471 12.1408,-15.4418 16.02183,-26.85248 2.37371,-6.97899 5.9852,-15.39017 8.02555,-18.69152 2.04036,-3.30136 3.53054,-7.03807 3.31152,-8.30381 -1.24062,-7.16985 4.50953,-30.82855 8.64418,-35.56603 2.03326,-2.32972 2.36713,-5.34919 1.4251,-12.88888 l -1.23022,-9.84642 h 5.63139 c 5.6216,0 15.95778,-4.8543 15.95778,-7.49442 0,-0.76695 0.7154,-1.39447 1.58976,-1.39447 0.87438,0 4.15341,-2.39479 7.28672,-5.32174 4.86221,-4.54198 5.25534,-5.4912 2.68313,-6.47826 -1.6576,-0.63607 -7.13662,0.51353 -12.17561,2.55468 -5.03897,2.04116 -12.83253,4.22783 -17.31898,4.85926 l -8.15723,1.14807 -4.00084,-9.49211 c -2.20046,-5.22067 -5.95491,-12.51305 -8.34323,-16.2053 -3.94466,-6.09829 -4.15742,-7.40003 -2.3231,-14.21223 3.07576,-11.42249 7.92148,-19.58819 13.95675,-23.51904 3.80766,-2.47996 5.46062,-4.97175 5.46418,-8.2371 0.003,-2.8243 1.23934,-5.14576 3.11623,-5.8517 C 494.06931,355.12295 512,340.49895 512,335.6832 c 0,-2.6466 -7.95917,-0.17874 -12.44119,3.85758 -1.46846,1.32244 -4.88859,2.95817 -7.60029,3.63495 -2.71169,0.6768 -6.10428,2.90654 -7.53907,4.95499 -1.59883,2.28265 -3.19778,3.06428 -4.13037,2.01909 -3.54561,-3.97367 -26.95575,-41.27191 -26.95575,-42.94727 0,-1.00878 1.47282,-3.74204 3.27294,-6.0739 5.23019,-6.77516 5.76406,-12.09109 1.9626,-19.54254 -6.28926,-12.328 -4.80494,-14.8266 9.62962,-16.20973 3.73442,-0.35785 6.09237,-2.22707 8.86629,-7.0286 4.44155,-7.68816 3.06078,-10.06793 -4.24215,-7.31138 -4.40228,1.66167 -5.53333,1.50546 -6.90994,-0.95438 -0.9053,-1.61771 -2.23241,-2.35488 -2.94912,-1.63819 -0.71669,0.71671 -2.34373,0.43945 -3.61564,-0.61614 -1.77278,-1.47127 -2.58301,-0.84164 -3.47129,2.69756 -1.53515,6.11652 -7.67248,7.49675 -19.17636,4.31261 -7.49457,-2.07444 -9.94672,-2.12247 -13.58917,-0.26628 -2.44444,1.24569 -7.89703,2.2767 -12.11687,2.29111 -8.68333,0.0297 -14.5498,2.52246 -14.5498,6.18253 0,1.93214 -2.10595,2.25831 -9.59235,1.48565 -8.2831,-0.8549 -9.84601,-0.51607 -11.4507,2.4823 -1.02208,1.90977 -5.06534,4.43315 -8.98502,5.60752 C 359.77303,274.61108 352,282.2888 352,286.8603 c 0,1.02683 -1.88384,3.75081 -4.18629,6.05326 -3.17442,3.17442 -3.98507,5.55737 -3.35378,9.8586 0.45788,3.11975 1.5417,5.67228 2.40851,5.67228 0.86679,0 1.576,1.2 1.576,2.66667 0,1.52123 -1.59873,2.66667 -3.72199,2.66667 -2.22688,0 -4.09548,1.42826 -4.65178,3.55555 -1.40374,5.36788 -4.07067,4.26242 -4.07067,-1.6873 0,-6.34672 -8.96622,-13.99511 -18.05696,-15.40301 -5.25351,-0.81362 -6.30683,-0.26645 -9.07856,4.716 -2.50752,4.50752 -3.95532,5.43065 -7.22875,4.60907 -2.35564,-0.59124 -5.74128,0.12702 -7.97559,1.69198 -2.19671,1.53865 -3.88236,1.90368 -3.88236,0.84073 0,-1.03321 -2.31328,-1.87858 -5.14061,-1.87858 -4.00067,0 -5.38797,0.98557 -6.25609,4.44445 -1.2099,4.82062 -2.29902,5.28483 -6.36622,2.71347 -2.11192,-1.3352 -2.20241,-2.12592 -0.44444,-3.88389 1.21405,-1.21405 2.20736,-3.68372 2.20736,-5.48816 0,-1.80445 2.06203,-5.34285 4.58229,-7.86311 3.34544,-3.34544 4.29602,-5.7229 3.52169,-8.80807 -0.851,-3.39063 -0.36025,-4.2258 2.48316,-4.2258 2.13945,0 4.6367,-2.11347 6.30175,-5.33333 1.51689,-2.93334 3.93742,-5.33334 5.37898,-5.33334 1.44157,0 2.62102,-1.16236 2.62102,-2.58302 0,-4.9419 4.15857,-11.78821 6.59296,-10.85404 1.39539,0.53546 3.24049,-0.91319 4.39758,-3.4527 1.09641,-2.40638 3.67207,-4.90536 5.7237,-5.55333 2.05161,-0.64795 4.67916,-2.52571 5.83902,-4.17278 1.4811,-2.10329 4.89097,-3.05805 11.45562,-3.20759 8.5772,-0.19536 9.94943,-0.84269 16.66514,-7.86139 4.02507,-4.20667 9.13529,-10.64848 11.35602,-14.31515 2.87628,-4.74903 5.2728,-6.66666 8.33148,-6.66666 4.70288,0 20.40262,-14.8791 25.03501,-23.7264 1.51424,-2.89201 2.67733,-9.92935 2.71481,-16.42602 0.0378,-6.55174 0.76706,-10.93275 1.72165,-10.34278 3.07152,1.8983 6.83367,-3.23056 6.83367,-9.31615 0,-4.54619 0.99334,-6.49525 4.01102,-7.8702 2.20607,-1.00515 5.74752,-4.84476 7.86989,-8.53246 2.12238,-3.6877 6.58482,-8.57277 9.91655,-10.85571 4.31003,-2.95327 6.65067,-6.36791 8.11308,-11.83572 1.64381,-6.146 3.03784,-7.92703 6.96132,-8.89384 2.69826,-0.66489 7.30592,-2.95881 10.23925,-5.0976 5.22103,-3.80681 12.24582,-4.63936 16.57417,-1.9643 3.2474,2.007 19.40379,-3.955775 25.8103,-9.525701 3.08855,-2.685233 8.81553,-5.888179 12.72664,-7.117655 3.91112,-1.229477 10.78116,-4.543925 15.26676,-7.36544 4.4856,-2.821514 9.43838,-5.130026 11.00619,-5.130026 1.5678,0 3.34497,-0.8 3.94928,-1.777778 0.6043,-0.977778 2.74055,-1.777778 4.74721,-1.777778 3.24173,0 3.51624,-0.743234 2.46223,-6.666667 -0.76287,-4.287198 -3.21295,-8.464196 -6.86452,-11.702888 -5.44409,-4.828532 -5.49497,-4.99449 -1.23381,-4.024275 2.44444,0.556571 4.95114,1.02287 5.57043,1.036222 0.61929,0.01335 1.57296,1.733538 2.11929,3.822637 0.87849,3.359394 1.92589,3.693247 9.0629,2.888801 5.60176,-0.631399 8.69006,-0.161971 10.0984,1.53497 1.11582,1.344494 3.13083,2.444533 4.47776,2.444533 1.34695,0 2.449,1.076011 2.449,2.391133 0,5.56347 6.27105,8.275534 19.13536,8.275534 6.94824,0 14.56092,0.732932 16.91708,1.628736 3.36626,1.279854 7.10395,0.334853 17.44907,-4.411655 7.24083,-3.322217 14.24967,-6.055148 15.57518,-6.073182 1.32553,-0.01803 4.74718,-1.999367 7.6037,-4.402964 2.85651,-2.403598 6.20926,-3.980459 7.45052,-3.504136 1.24128,0.476323 8.21963,-1.853122 15.50743,-5.176544 12.71977,-5.800543 29.62797,-9.991898 27.69574,-6.865468 -2.21423,3.582675 6.55507,12.665685 20.46206,21.194106 8.25662,5.063345 17.97587,12.247214 21.59834,15.964151 3.62248,3.716937 8.61515,8.554316 11.09483,10.749731 5.71323,5.058249 18.6218,11.708413 18.6218,9.593481 0,-2.74939 10.17973,-5.978526 14.53561,-4.610875 4.94531,1.552722 33.46439,28.921527 33.46439,32.114667 0,1.22982 -3.18292,4.48791 -7.07316,7.24021 -3.89024,2.7523 -7.09024,6.04391 -7.11111,7.31469 -0.0748,4.55157 5.30745,12.5114 12.09474,17.88703 5.3891,4.26824 7.97614,8.40304 11.77571,18.82083 2.67814,7.34298 5.03453,16.56482 5.23643,20.49298 0.26866,5.22673 1.83543,8.69337 5.84226,12.9265 3.01132,3.18141 6.39929,7.58438 7.5288,9.78438 1.55363,3.0261 3.61049,4 8.44793,4 7.79473,0 17.583,5.72483 19.03203,11.1312 0.58669,2.18896 1.07764,6.89319 1.09099,10.45385 0.021,5.59186 -0.64185,6.63927 -4.86462,7.68734 -2.68889,0.66738 -6.5293,2.74361 -8.53423,4.61387 -3.61777,3.37477 -3.71185,3.33223 -12.44444,-5.62578 -11.23454,-11.52457 -15.06937,-13.03237 -26.01237,-10.22777 -8.25549,2.11582 -8.73558,2.02416 -13.54783,-2.58624 -6.91704,-6.62697 -13.12327,-6.14628 -24.03184,1.86135 -4.97589,3.65264 -11.47987,7.94589 -14.45329,9.54055 -3.30183,1.77079 -6.02342,5.0514 -6.99181,8.42795 -0.87205,3.04071 -3.003,5.97845 -4.73545,6.5283 -5.68746,1.80514 -7.3961,5.46212 -5.5968,11.9787 1.46502,5.3058 1.05984,6.75423 -3.39068,12.12127 -6.07746,7.32903 -6.34585,11.59041 -1.39358,22.12592 3.33751,7.10024 4.56832,8.12156 11.03331,9.15535 4.00222,0.63999 9.11933,3.00617 11.37136,5.25821 2.25204,2.25203 7.43111,4.99303 11.50907,6.09111 4.07797,1.09808 9.4704,4.19486 11.9832,6.88172 2.51278,2.68687 5.61449,5.2325 6.89267,5.65696 4.50674,1.49661 0.11412,6.50825 -6.65276,7.59033 -6.05049,0.96751 -7.1562,1.98927 -10.32713,9.54299 -2.15895,5.14304 -3.25227,10.89884 -2.7888,14.68171 0.65812,5.37153 0.0231,6.70762 -4.64505,9.77264 -4.11491,2.70177 -5.88473,5.68327 -7.40434,12.47361 -1.62058,7.24152 -3.30129,9.8608 -8.91806,13.89821 -7.5707,5.44192 -8.82492,10.8566 -4.37584,18.89132 1.66105,2.99974 1.91591,5.69321 0.81318,8.59364 -2.03892,5.36275 -0.71426,7.48169 4.67717,7.48169 3.85346,0 11.51989,-5.98139 11.51989,-8.98788 0,-1.43852 13.50025,-10.56768 15.62756,-10.56768 0.81486,0 3.23054,2.3656 5.36816,5.25691 3.31374,4.48206 3.58012,5.92953 1.80732,9.82039 -1.14359,2.50994 -4.00046,5.04569 -6.34858,5.63504 -2.34811,0.58933 -4.99117,2.97015 -5.87344,5.2907 -1.41874,3.73161 -2.72939,4.21918 -11.34144,4.21918 -7.86804,0 -12.39848,1.36632 -23.59956,7.11725 -17.60309,9.03792 -21.8642,13.18869 -21.85559,21.28981 0.008,7.39154 5.39536,17.03312 10.40647,18.62358 1.95102,0.61923 7.00622,4.41271 11.23376,8.42993 22.67051,21.54265 23.70183,22.325 30.79756,23.36279 3.91112,0.57204 10.28374,0.31609 14.16141,-0.56872 12.05045,-2.74976 14.78147,4.65888 3.87003,10.4985 -8.35181,4.46976 -7.87293,23.24686 0.59287,23.24686 6.66433,0 5.1632,3.1159 -1.96153,4.07152 -4.9357,0.66203 -8.98007,2.72973 -12.61869,6.45138 -2.94517,3.01241 -6.04471,5.4771 -6.88784,5.4771 -0.84313,0 -2.07966,2.1783 -2.74787,4.84066 -0.66822,2.66237 -4.77481,10.34368 -9.1258,17.06958 -6.97098,10.77606 -7.67381,12.7492 -5.91566,16.60792 1.489,3.268 2.89362,4.09383 5.53636,3.25505 5.71267,-1.81313 4.11068,0.20719 -4.45565,5.61911 -8.83246,5.58006 -9.72565,7.8648 -4.49659,11.50196 3.44203,2.39415 3.44731,2.61772 0.28672,12.14279 l -3.21985,9.70373 5.46515,3.68296 c 6.9328,4.67203 10.13129,10.89788 8.20356,15.96823 -1.13558,2.98679 0.32311,6.82549 6.48434,17.06419 4.37224,7.26578 10.64343,16.01049 13.93598,19.43271 3.29255,3.42223 6.51998,8.39355 7.17205,11.04742 0.65209,2.65385 2.70606,5.30775 4.56441,5.89756 1.85836,0.58983 3.37883,1.79035 3.37883,2.66782 0,0.8775 1.64695,2.47686 3.65987,3.55415 3.02491,1.61888 5.13385,1.01286 12.15565,-3.49301 10.68019,-6.85347 14.21022,-6.83932 20.74076,0.0831 2.87182,3.04418 8.25257,7.47383 11.95721,9.84368 3.70466,2.36985 7.47344,6.24916 8.37509,8.62068 0.90166,2.37152 3.77689,7.54188 6.38941,11.48967 3.74725,5.66247 5.84617,7.17779 9.94213,7.17779 5.98955,0 17.44642,8.321 17.44649,12.67122 4e-5,1.59138 -1.1374,3.83744 -2.52764,4.99122 -3.79128,3.14649 -5.3114,15.39922 -2.69435,21.71737 1.90332,4.59502 1.78489,6.16195 -0.796,10.53105 -2.29156,3.87929 -2.57819,5.98084 -1.17365,8.60521 1.02209,1.90983 1.85836,5.765 1.85836,8.56706 0,2.80206 1,6.11143 2.22222,7.35417 1.7826,1.81253 1.4309,2.90642 -1.77778,5.52942 -4.59162,3.75351 -5.13024,6.82226 -1.44558,8.2362 1.40493,0.53913 2.132,2.08103 1.6157,3.42645 -0.51628,1.34542 0.0496,5.44077 1.25749,9.10075 1.8247,5.52885 1.77693,6.79234 -0.28236,7.46912 -1.36322,0.44802 -4.93538,3.48647 -7.93813,6.7521 -3.49881,3.80512 -7.1173,5.93755 -10.07535,5.93755 -2.53866,0 -10.88186,3.70541 -18.54042,8.23422 -7.65858,4.52884 -17.02527,9.32884 -20.81487,10.66667 -9.04352,3.19264 -22.21004,3.09122 -30.16448,-0.23236 -6.03692,-2.52238 -6.48277,-2.46864 -8.34213,1.00562 -2.09995,3.92379 -22.09523,17.3767 -31.23059,21.01207 -3.75309,1.49353 -6.83186,4.82937 -9.6322,10.4365 -3.36549,6.73876 -4.32964,7.63205 -5.28816,4.89954 -0.77106,-2.19813 -1.60089,-2.64825 -2.42473,-1.31524 -0.68887,1.11462 -2.42688,1.57593 -3.86224,1.02514 -1.94268,-0.74547 -2.60972,0.38354 -2.60972,4.41716 0,2.98024 0.8,5.91304 1.77777,6.51735 0.97778,0.6043 1.77778,4.5976 1.77778,8.87401 0,8.55404 -2.95961,10.90236 -11.1497,8.84677 -2.72724,-0.6845 -7.42427,0.3598 -12.6351,2.80917 -5.39406,2.53552 -10.06853,3.54382 -13.3689,2.88375 -3.08139,-0.61628 -6.38292,-0.0244 -8.405,1.5069 -3.83806,2.90647 -22.98571,3.57193 -24.66352,0.85717 z"
       id="path1"
       transform="translate(164.18347,172.57854)" />
    <path
       style="fill:#a0c68b;fill-opacity:1;stroke-width:0.888889;stroke-linejoin:bevel"
       d="m 381.33333,143.67041 c -8.45687,-4.52534 -9.89205,-9.44819 -2.75447,-9.44819 3.66694,0 6.21256,-7.15026 4.48427,-12.59563 -1.60261,-5.04937 -3.4685,-4.24633 -10.7333,4.61941 -5.19975,6.3456 -7.08375,7.60145 -9.00791,6.00454 -1.33817,-1.11058 -2.43303,-3.52128 -2.43303,-5.35711 0,-1.83583 -1,-3.43015 -2.22222,-3.54294 -4.84836,-0.44741 -5.90429,-0.75857 -9.21769,-2.71628 -3.28303,-1.93976 -3.30143,-2.24381 -0.40347,-6.66667 2.37596,-3.62617 2.50742,-4.63421 0.60434,-4.63421 -3.23584,0 -8.31652,-5.76234 -8.31652,-9.432331 0,-1.611579 -1.99264,-4.235772 -4.42809,-5.831541 -2.5527,-1.672594 -5.21697,-5.831051 -6.29074,-9.818761 -1.02446,-3.80455 -2.71741,-6.917364 -3.76211,-6.917364 -1.11296,0 -1.36781,-1.288202 -0.61548,-3.111111 3.52801,-8.548412 4.1871,-15.543723 1.72123,-18.268475 -2.18076,-2.409715 -2.05504,-4.314568 0.93695,-14.19644 3.08544,-10.190523 3.17499,-11.84165 0.83584,-15.411638 -4.34566,-6.632318 -3.35253,-10.293692 2.91148,-10.733802 3.03833,-0.213473 6.63674,-1.311428 7.99647,-2.439902 1.88595,-1.565203 2.47223,-1.526936 2.47223,0.161368 0,1.736075 0.55804,1.750007 2.58879,0.06463 1.42384,-1.181678 3.42384,-1.63242 4.44445,-1.001649 C 351.16496,13.027086 352,12.135958 352,10.41603 c 0,-2.4322208 0.47407,-2.653067 2.13333,-0.9938078 3.41168,3.4116818 10.56355,2.7084928 9.9446,-0.9777778 -0.37543,-2.2359633 0.85286,-3.2693489 4.36651,-3.6736396 2.68889,-0.3093908 4.88889,0.2706092 4.88889,1.2888889 0,1.1255875 2.17882,1.4156538 5.55764,0.7398894 4.09034,-0.8180676 5.98009,-0.3566516 7.15774,1.7476868 1.16596,2.0834501 2.67023,2.4633471 5.54426,1.4001742 4.47307,-1.6546973 12.99396,0.6945509 17.88187,4.9301109 2.35631,2.041839 2.96433,4.259926 2.20646,8.049288 -1.30641,6.532028 2.39932,15.295379 6.4679,15.295379 2.58996,0 6.26664,4.060206 6.4394,7.111111 0.0277,0.488889 0.90658,3.140969 1.95309,5.893511 1.04651,2.752541 1.90275,5.752541 1.90275,6.666667 0,0.914124 0.81524,1.662044 1.81165,1.662044 1.02266,0 1.34705,1.851133 0.74484,4.2505 -0.59708,2.378953 -0.18345,4.796444 0.93941,5.490405 3.31097,2.046292 20.28822,-2.774634 23.3593,-6.633196 2.56125,-3.217998 3.88808,-3.425364 12.88771,-2.014181 l 10.03251,1.573139 -5.32454,8 c -2.9285,4.4 -5.32797,9.284087 -5.33215,10.853527 -0.004,1.56944 -4.80762,6.220535 -10.67428,10.335767 -5.86667,4.115232 -10.66667,8.231145 -10.66667,9.146474 0,0.91533 -0.74453,1.66423 -1.65451,1.66423 -3.73896,0 -14.20038,8.23116 -14.27024,11.22799 -0.10738,4.60622 -3.36694,10.10535 -5.98987,10.10535 -1.22869,0 -5.7671,3.6 -10.08538,8 -6.9476,7.07908 -8.7516,8 -15.67146,8 -6.01782,0 -7.59723,0.58066 -6.85322,2.51953 0.53176,1.38575 -0.24807,2.98575 -1.73297,3.55556 -3.24065,1.24356 -2.20408,1.47897 -8.63124,-1.96024 z"
       id="path2"
       transform="translate(164.18347,172.57854)" />
  </g>
</svg>
