<?xml version="1.0" encoding="UTF-8" standalone="no"?>
<!-- <?xml-stylesheet type="text/css" href="/styles/home.css"?> -->
<!-- https://www.amcharts.com/svg-maps -->

<svg version="1.1" xmlns="http://www.w3.org/2000/svg" id="map-germany"
   viewBox="0 0 791.99896 791.99896" width="791.99896" height="791.99896" class="">

   <defs
      id="defs4">
      <style
         type="text/css"
         id="style2">
         .land
         {
         fill: #49bea1;
         fill-opacity: 1;
         stroke:white;
         stroke-opacity: 1;
         stroke-width:0.5;
         }
         .rectangle:hover {
         fill: #bdbdbd;
         cursor: pointer;
         }
      </style>
      <!-- <amcharts:ammap
       projection="mercator"
       leftLongitude="5.864765"
       topLatitude="55.051693"
       rightLongitude="15.043380"
       bottomLatitude="47.269299" /> -->
      <!-- All areas are listed in the line below. You can use this list in your script. -->
      <!--{id:"DE-BW"},{id:"DE-BY"},{id:"DE-BE"},{id:"DE-BB"},{id:"DE-HB"},{id:"DE-HH"},{id:"DE-HE"},{id:"DE-MV"},{id:"DE-NI"},{id:"DE-NW"},{id:"DE-RP"},{id:"DE-SL"},{id:"DE-SN"},{id:"DE-ST"},{id:"DE-SH"},{id:"DE-TH"}-->
   </defs>
   <rect id="background" class="rectangle" stroke-width="0" stroke="#000" width="791.99896" height="791.99896" y="0" x="0" fill="#d3d3d3" />
   <path
      id="DE-BW"
      title="Baden-Wurttemberg"
      class="land"
      d="m 280.38658,750.02432 0.58,2.09 -3.47,0.13 z m 25.41,-179.5 8.66,-0.33 4.12,-7.25 6.54,0.95 0.83,-6.5 -2.07,-1.9 -1.84,2.62 0.97,-2.42 -4.96,-0.95 1.24,-2.93 11.93,-2.03 3.81,4.36 0.36,-3.78 5.23,-0.86 -1.54,8.57 1.8,1.69 3.63,-3.95 1.67,3.87 3.98,-4.23 4.61,11.83 -3.88,5.45 3.04,0.98 3.58,-3.6 0.77,9.54 5.81,-0.09 2.95,-6.01 3.68,3.64 -1.77,6.05 4.31,5.07 -3.48,1.64 3.18,9.66 -2.99,2.1 0.91,5.72 7.87,4.93 -2.46,4.64 2.62,0.9 -0.01,5 6.23,1.2 6.94,10.77 -2.17,1.09 1.94,4.53 -2.36,10.79 4.98,5.72 -5.35,2.5 1.74,-3.05 -1.91,-0.44 -3.02,4.26 -5.88,-4.76 -0.89,3.63 4.3,5.42 -0.75,8.22 -4.84,1.1 -4.09,5.13 -4.1,-1.88 -4.39,1.77 -4.24,7.74 6.02,9.22 4.53,16.17 -3.72,23.3 3.8,5.37 -4.73,2.12 3.47,2.57 0.82,7.82 -3.45,3.6 -3.16,-4.43 -3.99,3.28 -7.15,-2.49 -6.35,6.24 -7.29,0.87 -2.47,5.16 v 0 l -32.49,-12.44 -12.39,2.97 -5.46,-8.47 -2.45,1.83 1.4,4.16 -4.17,-1.79 -0.25,-6.73 -1.86,0.82 -2.53,-4.15 -1.61,3.9 -0.73,-3.78 -3.23,-0.87 0.58,2.52 -5.88,1.11 -4.98,9.09 4.45,3.28 8.21,-3.17 1.48,2.35 -3.33,4.98 -3.59,-3.6 -4,2.98 1.93,2.27 -6.63,1.06 -11.33,-5.16 -7.36,5.95 -9.36,1.3 -3.24,-4.09 -4.44,-0.06 -8.25,5.23 -3.72,-2.72 3.29,-0.43 0.41,-3.27 -6.5,1.03 -5.01,-10.15 2.32,-3.43 0.55,-13.76 4.19,-8.82 -3.37,-5.92 0.47,-8.22 7.41,-17.3 3.29,-2.43 -0.78,-6.43 6.8,-23.67 8.46,-11.19 7.49,-4.36 9.11,-15.81 v 0 l 8.06,-13.06 2.02,-13.01 6.23,-5.87 -2.43,-2.9 3.64,-10.75 -4.12,-1.49 -1.29,-13.08 v 0 l 3.37,0.03 5.46,6.77 3.5,-2.61 -1.32,-6.75 6.19,-1.33 0.61,8.58 7.72,1.09 0.59,3.21 4.26,-1.08 -1.4,3.51 -3.26,-0.13 -1.54,5.66 3.08,1.47 6.37,-5.89 0.1,-4.73 11.14,-1.27 -3.41,-4.71 z" />
   <path
      id="DE-BY"
      title="Bavaria"
      class="land"
      d="m 365.62658,477.59432 4.25,-4.74 2.19,2.1 3.89,-1.14 1.81,4.31 6.26,1.71 4.13,9.98 3.64,-0.78 2.5,4.63 3.37,-0.87 3.52,3.02 0.5,10.28 6.97,2.54 0.94,-4.64 7.33,0.69 -0.07,-3.07 -8.25,-4.52 -0.16,-2.5 7.57,-4.63 6.6,0.01 3.12,4.44 8.31,-1.88 2.71,3.6 -0.75,4.46 6.71,1.7 2.11,-9.14 -2.34,-11.84 2.75,0.32 3.51,-4.51 5.42,0.95 -0.67,6.69 1.44,2.45 2.55,-1.03 2.5,5.53 16.4,-4.45 2.9,3 6.28,-3.38 v 0 l 3.8,3.49 -0.37,3.76 7.87,3.25 v 0 l 2.5,4.21 -3.09,2.61 7.91,8.04 -1.03,5.88 4.81,3.26 -0.89,1.79 14.6,7.63 -0.77,4.46 4.43,1.51 -4.77,13.22 -4.4,4.33 7.52,5.51 0.4,6.7 2.07,-0.15 1.87,8 3.46,1.41 0.84,8.72 6.38,3.88 1.46,4.67 10.43,0.29 5.41,3.9 9.56,16.27 7.05,1.8 6.64,6.3 0.63,6.49 5.86,4.4 2.33,-3.17 6.21,2.41 2.69,6.67 4.23,-0.57 6.49,11.07 -2.89,5.43 2.73,1.62 -0.91,8.1 -5.83,9.56 -14.19,-7.22 -4.46,3.03 v 12.24 l -6.67,10.02 -19.95,6.51 -16.76,12.54 0.27,5.1 7.15,10.44 4.06,1.87 4.17,8.89 -6.09,11.9 h 6.95 l 4.05,3.45 -2.17,18.38 -2.78,2.65 -13.12,-8.67 -1.03,-2.42 2.8,-2.92 -4.17,-3.65 1.51,-2.1 -11.35,0.07 -1.85,3.78 -5,0.73 -3.74,-6.59 -11.77,1.51 -0.21,-6.02 -5.66,4.03 2.53,8.84 -12.33,-1.8 -10.45,4.07 -13.25,-1.19 -4.09,7.47 -8.91,0.16 -3.14,3.85 2.39,2.61 -5.37,-0.43 -4.41,4.9 -2.84,0.19 1.85,-3.09 -3.03,-0.54 -5.74,3.51 -8.86,-0.17 -2.64,-7.74 -4.22,-0.14 3.08,-2.9 -1.9,-2.25 -6.96,2.15 -11.39,-5.13 -1.67,3.29 -3.1,-0.12 -4.33,-1.93 1.62,-2.79 -2.72,0.08 2.39,14.2 -2.53,4.84 -6.74,7.14 -9.84,3.33 3.89,-10.54 -3.45,-1 -5.4,3.54 -0.33,-9.22 -5.93,-2.78 -1.93,-5.95 -6.19,1.69 -3.75,-1.87 -0.9,-4.44 -4.14,5.81 -8.67,-1.35 v 0 l 2.47,-5.17 7.29,-0.86 6.35,-6.25 7.15,2.49 3.99,-3.28 3.16,4.43 3.45,-3.6 -0.82,-7.82 -3.47,-2.57 4.73,-2.12 -3.8,-5.37 3.72,-23.3 -4.52,-16.17 -6.02,-9.23 4.24,-7.74 4.39,-1.77 4.1,1.88 4.09,-5.13 4.84,-1.1 0.75,-8.22 -4.3,-5.43 0.88,-3.63 5.88,4.76 3.02,-4.27 1.91,0.45 -1.74,3.05 5.35,-2.5 -4.98,-5.73 2.36,-10.79 -1.95,-4.53 2.18,-1.09 -6.95,-10.77 -6.23,-1.2 0.01,-5 -2.62,-0.9 2.46,-4.64 -7.88,-4.93 -0.91,-5.72 2.99,-2.11 -3.18,-9.65 3.48,-1.64 -4.31,-5.08 1.77,-6.04 -3.69,-3.64 -2.95,6.01 -5.8,0.08 -0.78,-9.53 -3.57,3.59 -3.04,-0.98 3.88,-5.45 -4.61,-11.82 -3.98,4.22 -1.67,-3.87 -3.62,3.95 -1.8,-1.69 1.54,-8.57 -5.23,0.86 -0.37,3.78 -3.8,-4.36 -11.93,2.03 -1.24,2.93 4.96,0.95 -0.97,2.42 1.84,-2.61 2.06,1.89 -0.83,6.51 -6.54,-0.96 -4.13,7.25 -8.65,0.34 v 0 l -2.3,-4.13 5.15,-11.93 -2.58,-1.76 1.73,-2.3 -2.82,-0.9 -0.28,-5.44 -3.17,0.25 -1.15,-13.21 1.99,-1.54 -1.31,-4.63 -3.33,-0.76 1.35,-4.32 7.75,-3.44 2.06,3.45 4.43,-5.69 9.48,1.75 4.06,4.65 4.99,-1.01 -0.77,-14.57 10.46,0.81 -0.65,-3.75 5.89,-3.85 0.98,-11.51 8.92,2.13 7.45,-6.29 z" />
   <path
      id="DE-BE"
      title="Berlin"
      class="land"
      d="m 584.52658,257.29432 0.07,0.04 v 0 l 2.92,2.46 -0.93,5.5 9.39,6.55 -2.93,6.07 9.42,2.98 -7.05,10.9 -0.25,-3.99 -10.46,-1.97 -0.85,-2.5 -2.96,1.03 -0.02,3.55 -7.8,-4.23 -10.81,2.69 -2.33,-2.25 4.92,-10.18 -3.18,-0.79 0.74,-7.26 5.6,-0.14 0.26,-4.21 2.74,0.06 1.23,-3.52 4.88,3.9 7.07,-2.89 -0.73,-1.92 v 0 l 0.91,-0.53 v 0 l 0.38,0.11 v 0 z" />
   <path
      id="DE-BB"
      title="Brandenburg"
      class="land"
      d="m 443.69658,209.44432 8.02,1.19 1.8,-3.16 7.08,1.66 1.2,-8.96 7.4,-3.75 4.06,2.84 5.54,-0.75 -1.38,-3.02 4.06,0.48 10.37,-5.54 1.53,-7.65 7.88,3.47 3.88,-2.05 1.78,3.73 8.55,2.52 3.33,5.44 13.8,-0.45 1.43,2.9 4.58,0.3 0.85,3.82 12.47,-1.39 -1.35,2.75 3.96,0.87 9.22,-8.82 5.16,3.63 4.42,-6.82 6.74,3.41 1.96,-5.34 3.03,0.62 2.39,-2.91 1.82,-8.42 4.82,-1.24 5.59,-7.61 6.29,-0.43 -2.43,-3.12 1.17,-4.79 5.37,5.8 2.49,8.85 20.64,-0.67 -0.89,7.39 -8.17,10.37 10.43,0.28 3.57,-5.47 6.01,-2.08 v 0 l 2.24,7.22 -4.5,6.74 -0.82,12.83 -13.97,12.39 1.04,8.08 -2.41,4.88 14.57,9.2 18.26,18.7 -2.18,4.03 1.88,4.48 -6.32,9.97 3.71,12.6 7.73,3.9 -2.04,12.46 4.91,5.25 -4.07,16.95 -6.63,7.67 10.62,17.16 -1.73,7.98 v 0 l -2.12,-1.61 -1.12,4.56 -4.09,0.3 -3.03,-3.09 -11.42,3.93 -3.51,3.93 -12.47,-4.08 -3.16,6.77 -3.47,0.11 1.82,3.13 -4.07,7.31 -2.52,-2.38 -11.84,3.46 -14.67,-0.7 -9.17,-8.53 -1.34,2.87 -3.49,-1.17 -3.59,5.3 -3.34,-1.15 -2.51,-3.24 2.05,-9.8 -4.06,-4.59 1.12,-2.54 -6.89,-5.4 v 0 l 8.48,-7.22 -2.99,-16.74 -6.2,0.89 0.25,-2.97 -4.62,0.05 -0.97,-3.69 h -6.75 l -0.47,-3.38 -4.14,0.53 -6.92,-5.08 -3.75,3.09 -4.62,-0.36 -3.86,-4.92 -2.84,1.76 -13.81,-15.78 5.04,-6.12 -3.3,-2.48 3.94,-9.8 -2.16,-7.13 3.66,-6.58 -5.64,-4.62 -3.65,2.66 0.29,-3.85 -2.94,0.24 1.64,-9.97 3.81,-0.42 -1.96,-9.34 3.75,-9.1 -1.54,-5.94 -2.51,-1.75 -4.4,2.67 -0.12,-4.27 -9.2,1.93 -9.36,-3.58 0.63,-4.53 -6.5,-3.88 -3.03,1.23 -1.1,-3.25 -3.23,-0.37 0.88,-2.82 -2.52,0.24 v 0 l -9.3,-4.54 -7.29,2.44 z m 140.5,49.65 -7.07,2.89 -4.88,-3.9 -1.23,3.52 -2.74,-0.06 -0.25,4.21 -5.6,0.15 -0.75,7.26 3.18,0.78 -4.92,10.19 2.33,2.25 10.8,-2.69 7.8,4.23 0.02,-3.55 2.96,-1.03 0.85,2.5 10.45,1.97 0.25,3.99 7.05,-10.9 -9.42,-2.97 2.93,-6.08 -9.39,-6.55 0.93,-5.5 -2.92,-2.46 v 0 l 0.17,-0.58 v 0 l -0.38,-0.1 v 0 l -0.91,0.52 z" />
   <path
      id="DE-HB"
      title="Bremen"
      class="land"
      d="m 266.72658,198.37432 0.72,-0.1 v 0 l 6.18,1.69 -1.23,2.18 2.79,2.05 13.14,0.83 2.17,3.48 5.17,-2.19 2.46,2.73 -2.24,1.09 2.65,2.01 -0.55,5.41 -2.93,3.42 -4.4,-2.78 -2.81,2.1 -3.19,-3.5 -3.43,1.47 -6.32,-13.54 -6.92,-3.24 v 0 0 0 l -1.31,-3.24 v 0 z m 1.94,-40.43 8.9,-0.44 -2.71,3.76 0.96,8.47 -3.74,1 -1.17,-3.99 v 0 l 1.42,-1.84 z" />
   <path
      id="DE-HH"
      title="Hamburg"
      class="land"
      d="m 345.72658,163.15432 2.61,-8.03 4.15,4.85 4.48,-7.05 4.61,0.65 1.28,-3.73 4.24,0.34 1,-4.55 5.61,-1.96 1.53,1.58 -3.13,4.92 4.96,4.72 -1.46,5.15 -3.06,1.35 0.71,5.43 3.14,0.19 7.34,7.69 -1.13,1.65 v 0 l -4.43,3.98 h -4.1 l -7.81,-7.18 -4.28,5.05 -4.43,0.25 -0.76,-4.51 -2.67,2.8 -3.48,-3.55 -2.09,-9.68 z" />
   <path
      id="DE-HE"
      title="Hesse"
      class="land"
      d="m 327.96658,363.22432 11.14,1.08 4.06,6.03 -3.83,-0.73 1.07,3.33 -2.62,-0.98 -1.26,4.53 3.64,4.73 0.08,5.32 -4.2,1.73 -0.61,3.99 -2.36,-0.51 1.91,2.26 11,5.05 2.46,-4.22 -2.13,1.75 -2.36,-4.51 6.16,-2.2 -0.19,-2.29 4.43,3.72 -0.92,-4.38 3.25,-0.31 1.67,4.3 v 0 l 2.82,9.23 5.3,0.6 0.84,5.28 10.73,4.15 -2.43,7.39 -2.1,-4.07 -2.95,1.4 3.51,2.32 -2.13,5.74 4.11,2.46 -0.06,2.77 -10.53,-0.53 -1.26,3.19 2.79,3.71 -7.2,0.25 2.39,1.06 -1.03,2.39 2.57,-1.39 3.09,3.96 -2.12,4.84 -4.75,1.35 -4.87,18.15 5.32,1.09 -0.4,-3.79 6.4,-0.38 1.82,4.86 -2.89,1.19 0.3,9.46 v 0 l -1.5,4.94 -7.45,6.29 -8.92,-2.13 -0.98,11.51 -5.89,3.85 0.65,3.75 -10.46,-0.81 0.77,14.57 -4.99,1.01 -4.06,-4.65 -9.48,-1.75 -4.43,5.69 -2.06,-3.45 -7.75,3.44 -1.35,4.32 3.33,0.76 1.31,4.63 -1.99,1.54 1.15,13.21 3.17,-0.25 0.28,5.44 2.82,0.9 -1.73,2.3 2.58,1.76 -5.15,11.93 2.3,4.13 v 0 l -1.96,1.23 3.41,4.71 -11.13,1.28 -0.1,4.72 -6.37,5.89 -3.08,-1.47 1.54,-5.66 3.26,0.13 1.4,-3.52 -4.26,1.08 -0.59,-3.21 -7.72,-1.09 -0.61,-8.57 -6.19,1.33 1.32,6.75 -3.5,2.61 -5.46,-6.77 -3.37,-0.03 v 0 l -4.03,-10.64 7.65,-6.89 -3.54,-0.63 -2.79,-5.35 -3.66,-15.14 -8.81,-5.8 -19.02,6.26 -7.13,-8.48 4.11,-2.6 0.88,-4.28 4.97,2.41 0.16,-4.11 -3.07,-2.41 1.65,-3.47 4.97,-3.42 2.85,2.17 0.24,-5.47 4.47,1.05 0.81,-3.84 -3.78,-7.48 -6.13,-3.66 2.98,-4.24 -0.99,-7.16 3.08,-3.27 3.8,2.4 2.06,-1.74 -0.71,-13.47 v 0 l 2.73,-4.88 -2.14,-5.56 8.47,-9.18 5.87,1.98 6.45,-5.83 -0.11,-4.74 5.03,-5.41 -2.22,-6.13 13.89,-3.02 -1.54,-2.78 4.54,-7.26 -2.9,-6.58 -8.05,2.7 -2.45,-3.07 4.01,-5.97 4.72,-4.13 15.56,-1.29 0.58,-3.9 -3.57,-5.54 8.12,-3.7 4.64,2.32 0.28,5.16 7.68,-1.48 9.92,-13.47 -2.21,-2.4 z" />
   <path
      id="DE-MV"
      title="Mecklenburg-Vorpommern"
      class="land"
      d="m 605.73658,97.354318 4.16,7.290002 9.15,5.19 13.36,13.4 -2.67,1.61 1.77,4.97 -11.17,-0.75 -6.21,3.27 -0.74,-3.29 -1.09,3.36 -5.44,-0.79 7.1,-6.32 -1.86,-8.65 3.52,0.01 -0.37,5.89 1.59,-2.95 3.65,2.11 0.45,-4.57 -4.91,-8.62 -3.86,0.08 1.03,5.1 -0.28,-2.04 -3.95,3.73 -0.23,-5.16 -5.59,3.1 2.7,-9.62 -4.04,-5.480002 z m -70.44,-28.49 1.61,1.44 -3.42,-0.11 z m -11.01,-5.81 2.05,3.08 22.51,0.9 0.62,1.97 -7.87,2.04 -10.53,-1.85 -6.48,6.64 10.89,-5.09 -1.95,4.42 1.53,-3.05 2.24,3.08 3.26,-2.78 1.61,5.67 7.15,-7.56 6.79,-2.47 -0.25,4.24 4.26,3.17 0.76,9.39 4.76,1.33 -2.24,1.82 2.73,-1.42 6.5,3.42 2.33,5.54 2.84,0.23 -3.42,2.36 6.37,-1.55 -2.24,3.23 1.8,-1.25 3.69,7.510002 2.08,0.08 -0.64,-4.17 14.05,-4.860002 -0.8,2.15 6.6,5.510002 -3.72,7.61 10.86,11.49 -5.72,4.9 -0.46,3.65 18.19,11.06 10.48,-0.91 -3.31,4.93 4.15,1.7 8.41,38.14 v 0 l -6.01,2.08 -3.57,5.47 -10.43,-0.31 8.17,-10.36 0.89,-7.39 -20.64,0.67 -2.49,-8.85 -5.37,-5.8 -1.17,4.79 2.43,3.12 -6.29,0.43 -5.59,7.61 -4.82,1.24 -1.82,8.42 -2.39,2.91 -3.03,-0.62 -1.96,5.34 -6.74,-3.41 -4.42,6.82 -5.16,-3.63 -9.22,8.82 -3.96,-0.87 1.35,-2.75 -12.47,1.39 -0.85,-3.82 -4.58,-0.3 -1.43,-2.9 -13.8,0.45 -3.33,-5.44 -8.55,-2.52 -1.78,-3.73 -3.88,2.05 -7.88,-3.47 -1.53,7.65 -10.37,5.54 -4.06,-0.48 1.38,3.02 -5.54,0.75 -4.06,-2.84 -7.4,3.75 -1.2,8.96 -7.08,-1.66 -1.8,3.16 -8.02,-1.19 v 0 l -5.31,-1.53 0.82,-4.63 -6.83,-3.55 -6.5,-12.73 -4.42,-1.59 -5.27,4.67 -8.65,-7.03 -6.65,0.68 v 0 l 2.42,-9.56 12.25,-6.35 -0.17,-6.55 5.62,0.36 2.65,-8.29 -1.86,-5.47 -4.63,-0.29 -5.85,-5.36 0.85,-13.02 6.93,-5.62 1.96,2.87 3.45,-1.03 -4.59,-1.62 0.66,-3.64 v 0 l 8.62,-5.35 8.99,-0.97 5.08,3.39 -0.13,5.23 4.98,-2.57 7.9,6.75 1.52,-7.62 -2.42,0.9 -0.06,-4.29 -0.86,3.95 -2.75,-0.41 -0.14,-3.94 6.66,-2.2 -0.02,5.96 1.88,-6.97 3.46,-0.25 3.28,-6.13 -1.35,-1.37 -4.67,5.94 -0.27,-2.75 9.71,-8.540002 10.65,0.8 17.71,-4.2 3.87,-5.85 9.57,-6.35 z m 39.24,-13.18 -5.16,15.79 2.21,-14.48 z m 18.18,-8.92 -3.58,5.45 2.77,6.09 13.64,-0.74 2.81,2.3 -6.61,12.74 2.47,4.76 3.76,0.38 5.99,6.49 -3.54,7.89 -0.54,-3 -3.58,-0.14 3.71,-3.18 -5.99,1.1 4.77,-3.81 -4.41,2.36 -1.98,-2.54 -5.2,1.21 -9.55,7.89 0.34,2.53 0.46,-1.89 3.38,1.09 -1.64,3.56 -6.46,-3.18 1.98,0.57 0.78,-3.61 -4.17,2.7 -4.35,-1.79 -0.39,-2.88 -3.42,1.6 2.85,-2 -4.49,-3.49 0.83,-4.21 8.47,-1.45 -3.12,-4.98 -3.91,0.79 1.8,-3.63 -3.64,0.9 3.07,-4.87 3.67,0.83 -1.8,4.08 4.56,-3.56 -2.7,-0.61 0.18,-2.75 -3.88,0.31 -1.65,-4.21 6.37,-0.96 3.81,4.46 -0.45,-4.24 3.66,-2.99 -1.02,3.48 2.34,-1.22 2.35,7.22 2.45,2.46 3.33,-1.08 0.54,-9.21 -4.2,1.51 -4.83,-6.9 -8.04,6.07 2.62,-9.48 -7.86,9.54 5.41,-10.88 z" />
   <path
      id="DE-NI"
      title="Lower Saxony"
      class="land"
      d="m 159.79658,158.65432 -6.04,1.6 1.74,3.04 -5.74,-3.15 6.06,-3.78 z m 37.47,-14.63 2.35,1.9 -4.99,-0.89 z m 11.29,-2.53 3.35,1.47 -10.55,2.34 0.91,-3.27 z m 9.23,-2.46 6,1.1 -9.43,1.86 z m 11.02,-1.43 4.77,2.17 -7.91,-1.23 z m 50.56,-10.5 5.23,5.99 7.84,1.37 8.04,-1.86 -1.01,-3.55 v 0 l 13.06,-0.56 6.67,2.83 12.21,17.13 2.84,8.25 11.48,6.46 v 0 l 2.83,0.35 2.08,9.69 3.48,3.54 2.68,-2.8 0.75,4.5 4.44,-0.25 4.28,-5.05 7.81,7.18 h 4.1 l 4.43,-3.98 v 0 l 18.28,7.39 v 0 l 6.65,-0.68 8.65,7.03 5.27,-4.67 4.42,1.59 6.5,12.73 6.83,3.55 -0.82,4.63 5.31,1.53 v 0 l 4.55,7.01 7.29,-2.44 9.3,4.54 v 0 l -2.7,3.89 -2.98,-0.7 -0.45,6.88 -12.05,6.6 -19.61,-3.49 -4.16,6.16 -11.02,1.12 1.98,13.53 1.93,-0.26 5.79,11.2 3.61,-1.46 -2.47,5.88 4.52,7.55 -4.03,0.18 -0.71,3.44 8.97,8.94 -5.84,3.47 6.5,11.69 -4.59,3.15 2.97,2.63 -0.96,4.01 -6.47,3.21 1.43,4.79 -16.92,0.71 -8.8,4.69 5.67,4.84 -2.42,1.99 2.34,4.9 -4.6,4.32 -0.2,3.87 8.03,17.4 v 0 l -3.96,2.24 1.14,6.25 -3.23,-2.15 -5.53,2.62 -5.49,-3.91 -4.01,0.48 -4.54,9.57 -4.16,2.37 -2,-1.58 -3.07,5.57 -5.45,1.37 -1.4,-1.95 -7.55,6.33 v 0 l -1.67,-4.3 -3.25,0.31 0.92,4.38 -4.44,-3.72 0.19,2.28 -6.15,2.2 2.35,4.52 2.14,-1.75 -2.47,4.21 -11,-5.05 -1.91,-2.26 2.36,0.51 0.61,-3.99 4.2,-1.72 -0.08,-5.32 -3.63,-4.73 1.26,-4.53 2.61,0.98 -1.06,-3.33 3.82,0.73 -4.05,-6.03 -11.14,-1.08 v 0 l -4.86,-0.35 0.01,-9.56 4.54,-5.24 0.89,-6.85 -8.64,0.73 1.04,-5.53 -4.3,-2.48 0.06,-4.22 -4.21,1.27 -2.11,-2.07 1.21,-9.22 -3.83,-2.61 1.27,-3.61 -9.09,-0.57 -1.66,-6.2 3.7,1.13 -0.5,-4.2 2.61,-0.77 -7.08,-5.01 10.03,-12.94 -1.83,-4.11 2.7,-3.43 -2.38,-2.18 -3,-0.29 -7.38,10.27 -5.19,1.29 -9.48,-0.64 -0.33,-11.32 -3.23,-2.83 -6.02,3.41 -3.47,-1.36 -5.41,7.04 -7.26,-1.47 0.85,5.74 8.13,4.31 -0.09,15.3 4.74,3.12 -7.04,7.64 -7.68,-2.54 -5.97,6.44 -10.21,0.4 -3.27,3.45 -6.11,-4.99 7.84,-3.25 1.17,-4.9 -7.94,-4.33 3.57,-6.49 -1.59,-3.61 3.82,-0.74 -3.51,-5.79 -14.26,-3.71 -1.57,-5.4 -5.14,-2.29 -2.74,4.46 2.44,1.08 -1.28,4.74 -18.29,11.56 -14.88,2.32 v 0 l -2.39,-5.02 3.02,-8.69 -5.28,-9.79 -3.12,3.39 -11.76,-2.84 -3.81,-2.53 -1.13,-6.92 5.53,-1.08 -3.48,-6.68 2.53,-2.25 19.34,0.57 2.08,-21.73 8.28,-16.56 -2.42,-13.97 3.04,-4.26 -1.13,-6.84 2.29,-8.14 4.02,-0.19 -18.76,-2.27 1.21,-20.46 4.21,3.68 -3.7,-3.96 4.04,2.69 2.51,-3.23 -3.45,-3.97 9.89,-9.75 7.43,-1.81 10.45,1.73 11.38,-5.21 0.02,2.11 6.55,-1.16 1.8,-2.54 -1.58,2.92 13.81,-0.12 1.09,7.07 4.65,0.61 3.51,10.82 -7.1,3.26 0.18,3.1 8.78,7.68 4.21,-0.14 2.93,-5.51 -0.19,-6.81 -5.28,0.11 3.42,-9.74 3.58,-0.12 8.07,6.35 3.47,-0.63 2.41,3.76 v 0 l 1.17,3.99 3.74,-1 -0.96,-8.47 2.71,-3.76 -8.9,0.44 v 0 l -2.48,-9.53 4.18,-12.99 4.08,-7.1 z m -12.7,71.15 v 0 l 1.31,3.24 6.92,3.24 6.32,13.54 3.43,-1.47 3.19,3.5 2.81,-2.1 4.4,2.78 2.93,-3.42 0.55,-5.41 -2.65,-2.01 2.24,-1.09 -2.46,-2.73 -5.17,2.19 -2.17,-3.48 -13.14,-0.83 -2.79,-2.05 1.23,-2.18 -6.18,-1.69 z" />
   <path
      id="DE-NW"
      title="North Rhine-Westphalia"
      class="land"
      d="m 175.77658,301.82432 14.88,-2.32 18.3,-11.56 1.28,-4.74 -2.44,-1.08 2.74,-4.46 5.13,2.29 1.57,5.4 14.26,3.71 3.51,5.78 -3.82,0.74 1.59,3.61 -3.57,6.49 7.94,4.33 -1.17,4.9 -7.84,3.25 6.1,5 3.27,-3.45 10.21,-0.41 5.97,-6.44 7.68,2.54 7.03,-7.64 -4.74,-3.12 0.09,-15.3 -8.13,-4.31 -0.85,-5.74 7.26,1.47 5.41,-7.03 3.48,1.35 6.02,-3.4 3.23,2.83 0.33,11.32 9.48,0.64 5.19,-1.3 7.38,-10.26 3,0.29 2.38,2.18 -2.7,3.44 1.83,4.1 -10.03,12.94 7.08,5.01 -2.62,0.76 0.5,4.21 -3.7,-1.13 1.65,6.19 9.09,0.57 -1.27,3.62 3.83,2.6 -1.21,9.22 2.11,2.08 4.22,-1.27 -0.06,4.22 4.3,2.48 -1.04,5.53 8.64,-0.73 -0.89,6.85 -4.55,5.24 v 9.56 l 4.86,0.35 v 0 l -7.26,3.29 2.21,2.4 -9.92,13.47 -7.68,1.48 -0.28,-5.16 -4.64,-2.32 -8.12,3.7 3.57,5.54 -0.58,3.9 -15.56,1.29 -4.72,4.13 -4.01,5.97 2.45,3.07 8.05,-2.7 2.9,6.58 -4.54,7.26 1.54,2.78 -13.89,3.02 2.22,6.13 -5.03,5.41 0.11,4.74 -6.45,5.83 -5.87,-1.98 -8.47,9.18 2.14,5.56 -2.73,4.88 v 0 l -5.36,-1.2 -4.62,-7.84 0.02,-7.08 -8.95,-3.7 1.41,-4.59 -3.66,-1.46 -3.63,2.45 1.72,7.38 -6.5,2.42 0.69,3.96 -5.05,4.21 -13.86,2.12 -2.5,7.95 -7.81,1.6 -0.74,-2.52 -3.47,4.83 -2.01,-1.19 -1.65,2.63 -2.16,-2.02 -3.7,4.15 -4.31,0.42 0.04,2.65 -3.1,0.63 1.15,5.86 -2.71,1.59 -3.64,-3.9 -3.55,1.88 3.46,11.26 -6.21,2.43 -2.06,-3.42 -1.96,2.62 -2.3,-4.32 -9.54,5.1 -2.53,-5.23 -0.52,6.63 v 0 l -4.01,-5.74 2.24,-5.62 -1.63,-5.27 -7.93,-0.66 -3.04,-4.68 5.77,-8.43 -5.84,0.01 -3.58,-9.37 -5.24,0.06 -0.84,-5.47 -3.35,-2.29 3.27,-1.88 -0.38,-3.1 3.51,-0.07 1.33,-7.54 -4.81,-1.31 0.35,-4.99 -8.12,0.91 -2.070004,-7.38 3.070004,-1.86 2.9,3.09 3.29,-5.64 10.45,-6.65 -2.21,-1.59 1.64,-2.16 -5.31,2.25 -0.68,-7.12 9.83,-12.19 -0.79,-15.33 -7.81,-9.58 1.61,-5.16 -5.36,-1.84 0.74,-4.4 -5.65,-2.24 2.27,-4.54 -2.89,-4.21 7.58,-4.18 6.49,2.45 -3,-6.27 18.07,7.7 -0.65,-4.87 4.94,2.16 13.68,-6.58 3.04,1.9 6.25,-9.05 -9.13,-5.46 0.43,-3.21 2.73,-0.49 1.54,-4.49 6.01,-0.21 8.23,-10.89 z" />
   <path
      id="DE-RP"
      title="Rhineland-Palatinate"
      class="land"
      d="m 133.79658,496.97432 0.52,-6.63 2.53,5.23 9.54,-5.1 2.3,4.32 1.96,-2.62 2.06,3.42 6.21,-2.43 -3.46,-11.26 3.55,-1.88 3.64,3.9 2.71,-1.59 -1.15,-5.86 3.1,-0.63 -0.04,-2.65 4.31,-0.42 3.7,-4.15 2.16,2.02 1.65,-2.63 2.01,1.19 3.47,-4.83 0.74,2.52 7.81,-1.6 2.5,-7.95 13.86,-2.12 5.05,-4.21 -0.69,-3.96 6.5,-2.42 -1.72,-7.38 3.63,-2.45 3.66,1.46 -1.41,4.59 8.95,3.7 -0.02,7.08 4.62,7.84 5.36,1.2 v 0 l 0.71,13.47 -2.06,1.74 -3.8,-2.4 -3.08,3.27 0.99,7.16 -2.98,4.24 6.13,3.66 3.78,7.48 -0.81,3.84 -4.47,-1.05 -0.24,5.47 -2.85,-2.17 -4.97,3.42 -1.65,3.47 3.07,2.41 -0.16,4.11 -4.97,-2.41 -0.88,4.28 -4.11,2.6 7.13,8.48 19.02,-6.26 8.81,5.8 3.66,15.14 2.79,5.35 3.54,0.63 -7.65,6.89 4.03,10.64 v 0 l 1.28,13.08 4.13,1.49 -3.64,10.74 2.43,2.9 -6.24,5.87 -2.02,13.01 -8.05,13.06 v 0 l -19.05,-8.91 -4.3,2.37 -4.6,-3.12 -7.69,2.06 -9.27,-5.09 -2.18,-6.93 -3.72,0.42 0.46,-1.87 -5.09,2.48 v 0 l -4.64,-7.79 6.12,-5.44 0.98,-7.39 -7.04,-1.9 -2.51,-4.33 3.43,-4.06 -2.38,-10.71 -3.4,1.83 -11.87,-7.29 -5.57,0.5 -21.24,11.39 -14.54,-3.2 v 0 l -1.42,-2.03 4.65,-9.5 5.51,-5.34 0.74,-8.53 -6.24,-0.1 -4.37,-3.94 -2.51,1.23 -5.65,-6.03 -0.69,-4.96 -2.92,-0.36 -4.21,-10.5 1.97,-10.81 3.16,-1.41 -0.92,-5.22 6.59,-3.15 1.95,-5.26 3.23,1.61 z" />
   <path
      id="DE-SL"
      title="Saarland"
      class="land"
      d="m 132.17658,573.10432 14.54,3.2 21.24,-11.39 5.57,-0.5 11.87,7.29 3.4,-1.83 2.38,10.71 -3.43,4.06 2.51,4.33 7.04,1.9 -0.98,7.39 -6.12,5.44 4.64,7.79 v 0 l -4.41,4.21 -8.72,-0.54 -3.77,-3.42 -2.7,4.12 -1.36,-7.56 -6.88,-3.18 -5.58,1.02 -0.16,5.8 -6.17,-1.08 -4.4,-11.26 -6.57,-6.53 2.15,-1.83 -3.89,-3.57 0.79,-2.22 -7.87,-5.01 -3.92,0.55 z" />
   <path
      id="DE-SN"
      title="Saxony"
      class="land"
      d="m 508.45658,419.95432 -5.55,-5.31 0.26,-9.71 -3.36,-8.49 3.14,-0.86 -3.05,-13.56 3.69,-2.93 1.66,-7.39 12.24,-1.9 1.11,-2.78 2.77,1.47 8.91,-3.21 -1.06,1.6 5.25,-5.54 5.1,1.77 4.67,-3.84 6.26,4.77 2.38,-3.17 4.69,2.33 v 0 l 6.89,5.4 -1.11,2.53 4.06,4.59 -2.06,9.8 2.51,3.24 3.34,1.16 3.6,-5.3 3.49,1.17 1.34,-2.87 9.17,8.53 14.67,0.71 11.84,-3.47 2.52,2.39 4.07,-7.31 -1.82,-3.13 3.48,-0.12 3.16,-6.77 12.47,4.08 3.51,-3.94 11.42,-3.92 3.04,3.09 4.08,-0.3 1.12,-4.56 2.12,1.6 v 0 l 0.38,5.69 13.71,5.78 1.7,12.97 4.11,7.04 -4.12,19.95 -11.58,25.85 -11.26,-3.76 1.94,-7.4 -5.38,1.31 2.1,-6.83 -6.39,-3.63 0.19,-2.46 -0.58,2.34 -5.26,0.46 -6.82,-3.67 -2.72,6.85 4.17,0.26 -0.92,3.04 5.5,1.87 -0.65,3.84 -7.67,0.31 -12.09,8.35 -11.27,1.88 -0.13,4.89 -2.66,1.71 -21.03,2.21 -0.11,6.64 -3.7,3.6 -6.04,-4.67 -3.14,7.03 -4.82,-1.24 -3.31,8.86 -10.41,-0.64 -0.71,6.13 -4.7,4.54 -8.16,-5.65 -0.58,2.84 -0.96,-1.79 -3.81,1.68 -1.84,3.51 -2.14,-1.95 -10.22,1.99 -11.58,15.47 0.38,6.85 -2.99,-0.4 0.24,-4.38 -3.45,-2.49 0.98,-2.48 -3.45,-0.18 -1.04,-4.95 -5.32,0.41 v 0 l -7.87,-3.25 0.37,-3.76 -3.8,-3.49 v 0 l -1.8,-2.5 3.45,-0.52 1.04,-3.31 -6.08,-5.09 8.36,-9.64 3.5,8.32 1.51,-2.54 5.29,-0.05 -0.86,-5.28 2.6,1.63 0.6,-2.53 4.06,0.85 3.4,-3.35 -3.52,-3.11 0.25,-4.32 -2.54,-0.09 4.03,-4.49 -2.46,-3.79 6.15,-0.26 1.72,-3.08 4.25,1.09 2.71,-5.19 10.89,-2.5 -2.96,-7.75 -6.41,-2.08 -0.25,-4.63 -10.6,-4.05 z" />
   <path
      id="DE-ST"
      title="Saxony-Anhalt"
      class="land"
      d="m 464.84658,218.54432 2.52,-0.24 -0.88,2.82 3.23,0.37 1.1,3.26 3.03,-1.23 6.5,3.88 -0.63,4.52 9.36,3.59 9.2,-1.93 0.12,4.26 4.4,-2.66 2.51,1.75 1.54,5.93 -3.75,9.11 1.96,9.34 -3.8,0.42 -1.65,9.97 2.94,-0.24 -0.28,3.84 3.64,-2.66 5.64,4.62 -3.66,6.58 2.16,7.12 -3.94,9.81 3.3,2.48 -5.04,6.12 13.81,15.78 2.83,-1.75 3.86,4.91 4.62,0.36 3.75,-3.08 6.92,5.08 4.15,-0.53 0.47,3.38 h 6.75 l 0.97,3.69 4.62,-0.05 -0.26,2.97 6.21,-0.89 2.98,16.74 -8.48,7.22 v 0 l -4.69,-2.33 -2.38,3.17 -6.26,-4.77 -4.67,3.84 -5.1,-1.77 -5.25,5.54 1.06,-1.6 -8.91,3.21 -2.77,-1.47 -1.11,2.78 -12.24,1.9 -1.66,7.39 -3.69,2.93 3.05,13.56 -3.14,0.86 3.36,8.49 -0.26,9.71 5.55,5.31 v 0 l -2.12,5.26 2.62,1.79 -4.8,8.2 -1.98,-3.7 -10.62,0.86 -8.06,-8.86 -8.4,1.3 -5.74,-6.99 -11.7,0.87 -0.95,-9.14 -6.6,-2.85 6.98,-7.67 -5.06,-8.68 -4.93,-2.99 -20.91,-0.77 -2.95,-12.22 -3.82,-4.16 0.52,-2.41 2.25,1.08 -0.53,-2.73 -14.05,-2.44 v 0 l -8.03,-17.4 0.21,-3.86 4.59,-4.33 -2.34,-4.9 2.42,-1.99 -5.66,-4.84 8.8,-4.69 16.92,-0.71 -1.43,-4.79 6.47,-3.21 0.96,-4.01 -2.97,-2.64 4.59,-3.15 -6.49,-11.7 5.83,-3.46 -8.97,-8.95 0.71,-3.44 4.03,-0.18 -4.52,-7.55 2.46,-5.88 -3.61,1.46 -5.79,-11.2 -1.93,0.26 -1.98,-13.53 11.02,-1.11 4.16,-6.17 19.61,3.49 12.05,-6.6 0.44,-6.88 2.99,0.69 z" />
   <path
      id="DE-SH"
      title="Schleswig-Holstein"
      class="land"
      d="m 266.21658,66.184318 2.35,2.45 -1.94,1.67 -2.67,-4.29 z m 165.67,-8.51 9.41,2.94 5.37,11.14 -7.81,-2.19 -4.48,2.14 -2.14,-4.95 -4.11,0.5 1.58,1.6 -2.51,-1.5 1.31,-7.3 z m -165.12,-0.29 -0.91,4.28 -1.17,-5.25 z m 13.62,-2.66 -0.17,6.25 -5.39,1.13 -1.84,-4.51 z m -9.55,-2.29 1.27,2.23 -4.19,-2.04 z m -10.98,-6.66 0.94,2.71 -2.42,0.45 -4.45,-6.2 4.47,-5.15 -1.37,2.73 z m 9.08,-12.85 3.91,1.16 -1.25,7.3 -10.71,-2.42 1.81,-5.03 z m -5.57,-32.59999986 1.77,0.6 -4.43,0.13999996 2.81,3.28 -5.56,5.21 1.11,7.5799999 3.58,2.32 11.07,-1.05 2.19,-2.65 19.86,0.96 18.37,5.74 0.89,4.46 2.86,0.97 3.16,0.14 4.19,-4.6 1.73,5.88 11.27,-9.7 -0.47,5.07 12.03,3.77 3.84,4.81 3.35,-1.14 -0.01,-3.72 3.27,1.96 5.13,10.28 -2.49,-0.09 2.35,1.88 -0.49,13.02 -4,5.24 -8.35,3.2 2.07,2.87 16.57,-4.02 4.75,3.21 -4.27,15.75 3.28,-1.77 2.68,-9.43 6.21,-2.37 17.55,7.84 6.6,6.44 5.49,-0.85 8.99,-7.58 6.01,1.51 5.56,-3.27 0.84,2.82 -4.37,2.11 2.28,16.93 -14.19,12.240002 -3.89,-2.32 -3.69,6.28 2.12,5.41 5.44,0.71 2.12,3.81 v 0 l -0.66,3.64 4.59,1.62 -3.45,1.03 -1.96,-2.87 -6.93,5.62 -0.85,13.02 5.85,5.36 4.63,0.29 1.86,5.47 -2.65,8.29 -5.62,-0.36 0.17,6.55 -12.25,6.35 -2.42,9.56 v 0 l -18.28,-7.39 v 0 l 1.13,-1.65 -7.34,-7.69 -3.15,-0.18 -0.71,-5.44 3.07,-1.35 1.46,-5.15 -4.96,-4.72 3.12,-4.92 -1.53,-1.58 -5.61,1.96 -1,4.55 -4.24,-0.34 -1.27,3.73 -4.62,-0.65 -4.48,7.05 -4.14,-4.86 -2.61,8.04 v 0 l -11.48,-6.46 -2.84,-8.25 -12.21,-17.13 -6.67,-2.83 -13.06,0.56 v 0 l -6.27,-6.5 -1.5,-7.38 -4.91,-2.29 4.75,-2.33 5.01,1.18 1.7,-2.38 -3.64,-7.99 -4.47,1.29 -3.12,-5.670002 1.94,-12.13 -8.27,-0.65 -2.03,2.44 -6.23,-4.6 1.71,-5.06 2.16,1.62 3.1,-1.96 -5.35,-1.38 0.8,-2.11 16.15,-2.02 11.39,-7.45 -3.03,-0.39 -1.19,-4.4 -5.54,6.62 -5.8,-1.17 5.53,-13.43 -0.83,-1.84 -4.22,1.34 2.68,-2.28 -10.42,-11.71 -5.97,-17.46 -11.77,4.01 -4.71,-3.58 -3.78,14.22 1.04,-17.71 6.25,-15.66999986 z" />
   <path
      id="DE-TH"
      title="Thuringia"
      class="land"
      d="m 407.60658,363.70432 14.05,2.44 0.53,2.73 -2.25,-1.08 -0.52,2.41 3.82,4.16 2.95,12.22 20.91,0.77 4.93,2.99 5.06,8.68 -6.98,7.67 6.6,2.85 0.95,9.14 11.7,-0.87 5.74,6.99 8.4,-1.3 8.06,8.86 10.62,-0.86 1.98,3.7 4.8,-8.2 -2.62,-1.79 2.12,-5.26 v 0 l 3.44,-1.33 10.6,4.05 0.25,4.63 6.41,2.08 2.96,7.75 -10.89,2.5 -2.71,5.19 -4.25,-1.09 -1.72,3.08 -6.15,0.26 2.46,3.79 -4.03,4.49 2.54,0.09 -0.25,4.32 3.52,3.11 -3.4,3.35 -4.06,-0.85 -0.6,2.53 -2.6,-1.63 0.86,5.28 -5.29,0.05 -1.51,2.54 -3.5,-8.32 -8.36,9.64 6.08,5.09 -1.04,3.31 -3.45,0.52 1.8,2.5 v 0 l -6.28,3.38 -2.9,-3 -16.4,4.45 -2.5,-5.53 -2.55,1.03 -1.44,-2.45 0.67,-6.69 -5.42,-0.95 -3.51,4.51 -2.75,-0.32 2.34,11.84 -2.11,9.14 -6.71,-1.7 0.75,-4.46 -2.71,-3.6 -8.31,1.88 -3.12,-4.44 -6.6,-0.01 -7.57,4.63 0.16,2.5 8.25,4.52 0.07,3.07 -7.33,-0.69 -0.94,4.64 -6.97,-2.54 -0.5,-10.28 -3.52,-3.02 -3.37,0.87 -2.5,-4.63 -3.64,0.78 -4.13,-9.98 -6.26,-1.71 -1.81,-4.31 -3.89,1.14 -2.19,-2.1 -4.25,4.74 v 0 l -0.3,-9.46 2.89,-1.19 -1.82,-4.86 -6.4,0.38 0.4,3.79 -5.32,-1.09 4.87,-18.15 4.75,-1.35 2.12,-4.84 -3.09,-3.96 -2.57,1.39 1.03,-2.39 -2.39,-1.06 7.2,-0.25 -2.79,-3.71 1.26,-3.19 10.53,0.53 0.06,-2.77 -4.11,-2.46 2.13,-5.74 -3.51,-2.32 2.95,-1.4 2.1,4.07 2.43,-7.39 -10.73,-4.15 -0.84,-5.28 -5.3,-0.6 -2.82,-9.23 v 0 l 7.55,-6.32 1.4,1.94 5.45,-1.36 3.08,-5.57 1.99,1.58 4.16,-2.37 4.54,-9.57 4.01,-0.48 5.48,3.91 5.54,-2.62 3.23,2.15 -1.14,-6.26 z" />
   <g
      id="stadiums"
      data-country="germany"
      data-circle-radius="12"
      data-circle-colors="#a149be,#bea149">
      <!-- <circle cx="100" cy="100" r="10" fill="#000000" id="Berlin" data-lat="52.514628"
            data-lng="13.239624" data-football-api-venue-id="694" data-stadium="Olympiastadion Berlin"
            data-city="Berlin" data-stadium-capacity="70 000" class="city" /> -->
   </g>
</svg>