<?xml version="1.0" encoding="UTF-8" standalone="no"?>
<!-- (c) ammap.com | SVG map of Albania - Low -->

<svg
   version="1.1"
   id="svg1"
   sodipodi:docname="albaniaLow.svg"
   width="355.88525"
   height="792.52643"
   inkscape:version="1.3.1 (91b66b0783, 2023-11-16)"
   xmlns:inkscape="http://www.inkscape.org/namespaces/inkscape"
   xmlns:sodipodi="http://sodipodi.sourceforge.net/DTD/sodipodi-0.dtd"
   xmlns="http://www.w3.org/2000/svg"
   xmlns:svg="http://www.w3.org/2000/svg"
   xmlns:amcharts="http://amcharts.com/ammap">
  <sodipodi:namedview
     id="namedview1"
     pagecolor="#ffffff"
     bordercolor="#666666"
     borderopacity="1.0"
     inkscape:showpageshadow="2"
     inkscape:pageopacity="0.0"
     inkscape:pagecheckerboard="0"
     inkscape:deskcolor="#d1d1d1"
     inkscape:zoom="0.79549513"
     inkscape:cx="-182.27641"
     inkscape:cy="360.15305"
     inkscape:window-width="1920"
     inkscape:window-height="1106"
     inkscape:window-x="-11"
     inkscape:window-y="-11"
     inkscape:window-maximized="1"
     inkscape:current-layer="svg1" />
  <defs
     id="defs1">
    <style
       type="text/css"
       id="style1">
			.land
			{
				fill: #CCCCCC;
				fill-opacity: 1;
				stroke:white;
				stroke-opacity: 1;
				stroke-width:0.5;
			}
		</style>
    <amcharts:ammap
       projection="mercator"
       leftLongitude="19.266289"
       topLatitude="42.660316"
       rightLongitude="21.056942"
       bottomLatitude="39.645057" />
    <!-- All areas are listed in the line below. You can use this list in your script. -->
    <!--{id:"AL-01"},{id:"AL-09"},{id:"AL-02"},{id:"AL-03"},{id:"AL-04"},{id:"AL-05"},{id:"AL-06"},{id:"AL-07"},{id:"AL-08"},{id:"AL-10"},{id:"AL-11"},{id:"AL-12"}-->
  </defs>
  <g
     id="g1"
     transform="translate(-0.13023063,0.27410584)">
    <path
       id="AL-01"
       title="Berat"
       class="land"
       d="m 110.046,476.906 0.318,3.268 1.548,0.522 v 0 l 4.069,-0.104 v 0 l -3.592,2.301 2.719,1.411 0.556,4.467 5.042,-9.224 7.88,-1.308 6.868,-4.157 8.476,0.497 2.461,-2.72 4.546,-0.654 2.064,18.795 5.339,-3.789 0.278,3.214 1.985,2.012 4.148,-0.627 6.253,13.918 4.665,3.627 -0.238,3.289 5.895,0.783 5.419,-2.244 6.749,6.209 13.061,-2.348 v 0 l 3.236,4.383 7.324,17.7 4.546,3.569 1.171,6.928 2.58,1.927 4.546,-0.781 5.538,1.198 -0.675,4.868 -3.891,7.625 3.097,4.812 3.017,19.73 v 0 l -8.932,1.715 -5.003,-1.221 -2.381,4.936 1.647,7.945 -5.181,-1.013 -9.091,1.506 -1.866,1.609 2.025,3.038 -6.531,4.359 -9.746,-11.523 -1.488,-4.519 -6.888,-0.623 -0.338,-4.806 -4.367,-7.145 -4.545,-4.939 -6.67,-3.9 -4.902,0.807 -1.211,5.25 -4.327,-5.51 -3.871,1.508 -7.622,-1.535 -5.38,2.496 -12.227,-3.848 v 0 l -0.536,-6.319 -3.057,-4.137 -3.215,0.025 -0.04,-1.795 -2.699,-2.654 -1.192,-5.961 -4.486,-6.77 -1.448,-0.13 3.85,-5.862 -1.429,-9.122 -9.15,-12.125 -2.661,-12.552 -4.168,-6.919 0.1,-6.504 1.587,0.887 1.727,-1.75 -1.667,-1.437 2.243,-2.561 -1.946,-1.228 1.707,-1.438 -0.218,-1.933 3.653,-0.654 1.786,2.169 z" />
    <path
       id="AL-09"
       title="Dibër"
       class="land"
       d="m 190.06,210.776 3.156,1.541 4.168,-1.355 10.422,-6.135 0.277,-3.136 1.549,-0.239 6.173,5.287 -0.953,11.525 4.01,5.839 2.6,0.982 10.123,-3.185 0.457,-6.37 17.586,0.425 5.935,-1.567 -1.607,-4.01 3.414,1.222 v 0 l -0.02,11.574 2.342,9.366 -4.942,0.079 -0.258,2.175 -2.6,1.007 0.416,2.122 -2.898,4.798 -1.211,6.997 2.879,9.668 -2.64,7.228 2.124,2.726 -0.219,3.731 3.474,3.863 1.945,4.92 0.735,5.684 -6.849,4.467 -11.771,1.85 1.926,2.114 -0.079,2.167 -3.355,4.517 0.119,2.298 4.248,1.77 -0.139,2.086 3.632,2.455 3.415,10.504 -0.556,2.453 6.233,1.926 -0.378,1.978 3.593,2.954 0.655,2.294 -3.017,6.247 1.211,2.451 -4.744,5.612 -0.278,2.555 -1.885,1.949 -3.554,-2.634 -1.488,3.819 3.85,11.531 v 0 l -15.641,1.553 -4.109,-5.027 -6.669,3.869 -4.407,0.447 2.184,-3.632 0.615,-8.109 -7.364,-5.636 0.615,-5.322 -4.129,-3.426 -6.61,0.422 -9.488,7.773 -3.712,1.132 v 0 l -1.985,-4.425 -7.563,-0.027 -10.123,-13.258 -2.6,0.474 -5.3,6.644 -0.695,-4.139 -2.898,-3.797 -8.694,-4.035 -3.017,-8.284 -4.287,-6.071 -8.278,-6.389 -4.248,-0.475 v 0 l -13.736,-17.44 v 0 l -1.488,-9.731 -3.891,-5.53 -0.019,-8.204 -6.332,-7.759 4.902,-2.596 4.288,-4.583 4.625,5.219 6.55,0.398 5.32,-2.199 9.944,3.973 1.926,-4.159 5.697,-3.391 2.759,0.927 2.322,3.577 2.402,0.344 2.144,-1.457 0.357,-2.887 3.275,-2.968 3.077,-5.911 20.882,-2.28 -1.152,-9.733 -3.175,-1.884 0.436,-7.909 2.759,-1.486 1.608,-5.602 z" />
    <path
       id="AL-02"
       title="Durrës"
       class="land"
       d="m 42.339,289.626 7.166,1.375 8.893,-1.876 v 0 l 22.549,7.532 6.193,0.555 18.758,-4.308 9.25,-5.181 v 0 l 13.736,17.439 v 0 l -0.179,3.855 -9.409,13.065 -3.374,-1.24 -2.601,1.979 -6.431,0.923 -11.434,9.23 -5.22,0.369 -3.99,-2.979 -0.496,-11.924 -2.799,1.452 0.457,2.902 -3.99,1.952 -3.375,-1.688 -2.898,1.82 -1.628,-0.501 -1.409,2.321 0.457,12.524 3.731,6.482 -1.23,7.507 1.429,8.293 -7.979,12.262 -3.831,-3.236 -7.007,1.368 -5.359,-1.052 v 0 l -1.688,-5.025 -4.684,-6.37 -6.412,-1.5 -0.417,3.054 -6.153,-5.792 0.477,-14.7 -6.332,-8.462 4.704,3.981 5.657,-0.843 2.719,-5.036 -0.377,-3.376 -1.806,-0.105 0.953,4.404 -2.064,-5.275 7.96,-3.64 5.796,-8.313 1.31,-3.749 -0.615,-9.692 -9.885,-5.945 -3.533,-8.221 z" />
    <path
       id="AL-03"
       title="Elbasan"
       class="land"
       d="m 188.571,348.945 3.712,-1.132 9.488,-7.773 6.61,-0.422 4.129,3.426 -0.615,5.322 7.364,5.636 -0.615,8.109 -2.184,3.632 4.407,-0.447 6.669,-3.869 4.109,5.027 15.641,-1.553 v 0 l 0.338,6.657 1.945,4.577 -1.35,3.786 4.01,8.727 4.565,1.735 6.868,13.895 0.437,2.652 -2.461,4.62 3.453,5.248 v 0 l 2.383,6.872 -2.541,14.917 -2.283,-3.983 -9.627,-0.839 -8.417,2.044 -8.455,5.555 -5.34,0.917 -1.449,2.07 -1.885,11.286 -3.831,4.685 2.54,6.699 5.28,6.172 8.436,14.638 -1.29,10.37 -2.997,6.214 -2.997,1.957 -1.529,3.759 -5.657,-1.932 -9.627,-0.574 -3.553,4.254 -6.967,-0.757 1.27,2.922 v 0 l -13.061,2.348 -6.749,-6.209 -5.419,2.244 -5.895,-0.783 0.238,-3.289 -4.665,-3.627 -6.253,-13.918 -4.148,0.627 -1.985,-2.012 -0.278,-3.214 -5.339,3.789 -2.064,-18.795 -4.546,0.654 -2.461,2.72 -8.476,-0.497 -6.868,4.157 -7.88,1.308 -5.042,9.224 -0.556,-4.467 -2.719,-1.411 3.592,-2.301 v 0 l -4.069,0.104 v 0 l -1.548,-0.522 -0.318,-3.268 v 0 l 1.41,-1.229 -0.755,-4.603 -4.367,-3.897 2.104,-9.472 -2.5,-12.228 2.203,-5.763 -13.974,-3.485 -5.816,0.549 -6.928,-9.724 v 0 l 5.776,-3.515 2.065,-6.243 6.51,-5.3 0.874,-4.488 1.727,-1.628 2.144,-0.263 3.89,2.941 4.506,-2.022 2.66,0.42 3.712,-3.597 2.639,0.368 1.47,-3.913 4.029,-3.887 9.845,-3.915 10.679,-8.384 8.198,-14.043 2.978,-0.842 4.684,2.946 4.407,0.316 9.409,-6.367 -0.636,-6.001 1.072,-2.528 13.319,-6.162 z" />
    <path
       id="AL-04"
       title="Fier"
       class="land"
       d="m 34.181,440.762 4.784,-1.258 -1.608,-5.372 2.025,-2.019 -0.318,-1.73 2.501,1.39 -1.767,-3.277 3.037,-1.259 3.99,5.296 0.814,-4.325 1.409,1.914 2.005,-1.888 7.404,1.861 0.278,-3.802 3.553,-0.314 0.595,-2.309 3.871,-1.127 1.846,2.098 2.184,-2.124 0.993,0.288 -0.596,2.099 2.184,-1.601 0.933,2.597 3.792,-2.124 3.334,3.278 v 0 l 6.928,9.725 5.816,-0.55 13.974,3.485 -2.203,5.763 2.501,12.229 -2.104,9.472 4.367,3.897 0.754,4.603 -1.409,1.229 v 0 l -3.156,4.914 -1.787,-2.169 -3.652,0.653 0.218,1.934 -1.707,1.438 1.945,1.229 -2.243,2.561 1.667,1.438 -1.727,1.75 -1.588,-0.888 -0.1,6.504 4.168,6.919 2.66,12.553 9.15,12.125 1.429,9.122 -3.851,5.861 1.449,0.13 4.486,6.771 1.191,5.961 2.699,2.654 0.04,1.795 3.215,-0.025 3.057,4.137 0.536,6.319 v 0 l -4.843,0.261 -11.175,11.697 -3.573,6.91 -5.657,3.091 v 0 l -3.514,-3.662 -0.317,-2.364 -4.764,-2.182 2.024,-6.81 -0.337,-4.783 -5.161,1.118 -1.25,-1.092 3.018,-8.14 -7.702,-0.131 -13.696,-8.638 -1.727,-0.104 -1.965,2.187 -2.62,-2.967 -1.25,1.483 -1.826,-0.417 -0.278,-3.695 -1.667,-0.911 1.787,-2.005 -2.521,-1.302 -3.93,2.733 -0.874,-5.624 -4.108,-0.625 -0.735,-2.813 -6.451,0.025 1.667,-3.959 -4.387,-2.163 -1.905,0.417 -1.33,-2.11 0.278,-3.675 -5.915,2.476 -1.012,3.102 -2.858,-1.199 -2.164,-3.908 -7.384,-2.477 -2.997,0.704 -3.275,3.414 -2.719,-0.651 v 0 l -1.072,-1.877 1.985,-2.268 2.064,-0.417 4.844,-5.319 3.533,-7.276 0.159,-11.326 0.397,-2.141 1.608,0.183 0.278,-2.585 -1.528,-3.056 1.727,-6.582 0.754,1.176 1.509,-0.967 1.449,-0.94 -1.33,-1.568 -3.553,1.385 5.399,-11.081 2.978,-0.55 -2.581,-6.563 -0.457,4.315 -0.635,-8.632 3.633,1.544 -0.437,-1.334 -1.122,-0.979 -1.468,-0.132 0.584,-1.376 2.442,-2.172 7.682,0.393 -0.258,-1.832 1.21,0.785 -1.409,-2.303 3.513,-4.686 -3.255,1.57 3.911,-3.849 0.477,-5.08 -1.032,-2.41 -3.017,-2.698 -2.422,-0.209 1.945,1.388 -1.012,-0.025 z" />
    <path
       id="AL-05"
       title="Gjirokastër"
       class="land"
       d="m 128.149,570.59 12.227,3.848 5.38,-2.496 7.622,1.535 3.871,-1.508 4.327,5.51 1.211,-5.25 4.902,-0.807 6.67,3.9 4.545,4.939 4.367,7.145 0.338,4.806 6.888,0.623 1.488,4.519 9.746,11.523 6.531,-4.359 -2.025,-3.038 1.866,-1.609 9.091,-1.506 5.181,1.013 -1.647,-7.945 2.381,-4.936 5.003,1.221 8.932,-1.715 v 0 l -1.687,11.636 2.421,4.386 4.566,4.076 -4.248,9.91 3.216,4.823 0.417,9.306 6.709,18.778 6.868,8.799 -0.358,5.277 5.34,5.87 2.858,8.196 3.613,3.617 v 0 l -1.787,1.886 -9.389,1.343 -7.959,-4.857 -4.506,5.013 -5.181,-2.817 -2.243,0.234 -6.173,3.306 -1.826,2.609 0.615,3.332 -3.315,5.706 -0.813,5.369 -4.447,1.781 -11.751,-0.465 6.531,11.351 -1.41,5.879 4.863,3.609 1.747,4.304 1.946,1.16 1.448,5.358 5.4,7.315 -1.092,7.516 -5.796,6.459 -6.015,-4.554 -9.329,-3.5 v 0 l -2.521,-5.509 -3.513,-1.314 -4.069,-11.334 -5.062,-5.747 0.357,-8.765 -7.463,-2.322 -4.486,-4.9 -6.392,-3.174 -5.578,-5.626 -1.191,-3.433 -12.405,-12.681 -2.839,1.989 -6.154,-4.107 -4.704,3.694 -2.322,-0.543 -8.139,-17.498 -9.15,-6.931 -3.434,-11.155 -5.002,-7.948 -0.477,-4.922 -2.262,-4.223 1.845,-3.369 -2.818,-1.114 -1.231,-3.837 -10.203,-11.307 11.354,-11.781 -3.434,-3.116 -2.084,-4.492 v 0 l 5.658,-3.091 3.572,-6.91 11.176,-11.697 z" />
    <path
       id="AL-06"
       title="Korçë"
       class="land"
       d="m 267.354,417.165 11.989,1.495 12.029,45.299 14.987,3.349 3.057,-1.648 4.883,-8.766 11.036,5.312 8.258,-1.387 3.97,3.166 3.334,4.683 0.576,25.59 -1.271,3.16 -4.327,3.186 5.201,2.14 0.178,6.473 7.861,7.279 6.65,11.369 -0.08,11.441 -2.025,2.292 -0.972,5.599 0.278,8.773 -7.067,1.197 -1.687,5.126 -5.757,3.668 -0.158,7.749 -3.116,4.056 0.833,1.195 -5.875,2.002 -4.01,-3.457 -6.967,1.247 -5.697,-2.391 -4.387,10.473 -2.024,-0.234 -5.141,3.688 1.31,3.455 -1.072,3.168 0.655,9.993 -2.66,1.557 0.357,2.153 -3.772,3.139 1.053,3.787 -2.005,2.022 -3.533,0.674 -5.241,8.97 0.14,4.068 2.203,1.839 -0.159,9.428 -2.918,4.505 -5.578,2.614 -0.595,6.236 3.692,3.39 -3.534,6.44 0.497,7.885 -10.441,1.396 -3.553,3.669 v 0 l -3.613,-3.617 -2.858,-8.196 -5.34,-5.87 0.358,-5.277 -6.868,-8.799 -6.709,-18.778 -0.417,-9.306 -3.216,-4.823 4.248,-9.91 -4.566,-4.076 -2.421,-4.386 1.687,-11.636 v 0 l -3.017,-19.73 -3.097,-4.812 3.891,-7.625 0.675,-4.868 -5.538,-1.198 -4.546,0.781 -2.58,-1.927 -1.171,-6.928 -4.546,-3.569 -7.324,-17.7 -3.236,-4.383 v 0 l -1.27,-2.922 6.967,0.757 3.553,-4.254 9.627,0.574 5.657,1.932 1.529,-3.759 2.997,-1.957 2.997,-6.214 1.29,-10.37 -8.436,-14.638 -5.28,-6.172 -2.54,-6.699 3.831,-4.685 1.885,-11.286 1.449,-2.07 5.34,-0.917 8.455,-5.555 8.417,-2.044 9.627,0.839 2.283,3.983 2.541,-14.917 -2.383,-6.872 v 0 z" />
    <path
       id="AL-07"
       title="Kukës"
       class="land"
       d="m 168.742,35.784 10.321,5.689 0.08,2.602 6.014,8.929 -0.972,2.869 5.398,4.716 1.39,4.743 -3.593,4.473 6.193,5.57 1.072,2.811 -0.258,4.416 -1.509,1.231 1.986,3.424 -0.338,2.836 2.68,1.605 6.53,-1.418 3.057,2.327 4.188,-3.316 3.613,0.802 1.648,4.172 8.098,2.915 2.144,3.529 10.679,3.715 12.783,15.654 3.791,13.932 2.899,3.628 1.925,6.427 -1.231,3.866 0.933,2.772 -2.143,4.104 3.116,6.021 4.744,4.608 0.615,5.883 5.717,15.3 -1.41,6.142 -8.416,6.273 3.474,10.308 -6.59,2.258 v 0 l -3.414,-1.222 1.607,4.01 -5.935,1.567 -17.586,-0.425 -0.457,6.37 -10.123,3.185 -2.6,-0.982 -4.01,-5.839 0.953,-11.525 -6.173,-5.287 -1.549,0.239 -0.277,3.136 -10.422,6.135 -4.168,1.355 -3.156,-1.541 v 0 l 1.588,-12.964 9.329,-9.997 -1.925,-9.336 1.31,-4.631 -4.188,-5.271 v 0 l -5.022,-1.65 -1.152,-4.474 -4.386,-7.086 -4.606,4.609 -4.664,-1.146 5.538,-5.409 -0.893,-6.823 2.223,-4.666 2.878,-3.92 7.126,-5.176 1.35,-5.39 -2.66,0.134 -7.662,-3.844 -1.429,-2.696 -7.543,-0.535 -4.109,-4.245 -5.697,-0.668 -7.999,-6.01 -4.029,-0.107 -2.839,-4.223 -12.644,2.192 -6.829,-1.897 -4.446,5.344 -3.99,0.855 -1.766,1.949 -5.479,-4.701 -0.496,-2.485 2.382,-8.554 -2.322,-5.134 -1.072,-8.373 -3.196,-6.049 1.846,-7.657 -3.752,-9.375 3.295,-9.382 v 0 l 1.767,-3.297 5.955,-0.885 1.945,-3.755 3.871,2.869 1.767,-5.579 5.141,-2.602 14.152,1.61 2.263,-8.453 6.471,-2.228 1.608,-2.31 6.193,1.96 2.402,4.725 z" />
    <path
       id="AL-08"
       title="Lezhë"
       class="land"
       d="m 196.174,168.577 4.188,5.271 -1.31,4.63 1.925,9.337 -9.329,9.996 -1.588,12.965 v 0 l -5.697,1.116 -1.608,5.602 -2.759,1.486 -0.437,7.909 3.176,1.884 1.151,9.733 -20.882,2.28 -3.077,5.911 -3.275,2.968 -0.357,2.888 -2.144,1.457 -2.402,-0.344 -2.322,-3.577 -2.759,-0.927 -5.697,3.391 -1.925,4.159 -9.945,-3.973 -5.319,2.199 -6.55,-0.397 -4.625,-5.219 -4.288,4.583 -4.903,2.596 6.332,7.759 0.02,8.205 3.891,5.529 1.489,9.731 v 0 l -9.25,5.181 -18.758,4.308 -6.193,-0.555 -22.549,-7.532 v 0 l 2.322,-2.644 0.199,-3.411 2.68,-0.026 1.409,-5.687 2.402,4.708 0.754,-5.21 -0.576,-3.757 -1.528,-1.323 -2.164,-1.111 -2.878,1.138 -1.151,-1.799 3.593,-15.25 -3.354,-12.64 1.826,-3.367 4.427,-0.132 0.437,-8.726 -1.747,-3.502 -3.216,0.451 -8.099,-6.13 -8.714,-3.902 v 0 l 1.667,-5.522 -1.032,-5.684 -7.503,-6.909 -0.516,-2.923 5.419,-1.25 12.406,9.7 4.387,1.806 2.044,-2.178 -1.767,-5.208 1.25,-2.206 -0.774,-5.875 3.077,-2.074 9.012,2.632 0.317,5.423 12.307,-0.266 4.744,2.206 4.466,5.208 4.784,-4.57 1.429,-6.512 3.811,-1.037 1.925,-2.526 1.807,0.027 3.334,3.111 2.7,0.16 4.685,-1.941 1.111,-2.818 2.64,-1.702 5.419,0.984 4.367,-3.378 7.007,23.419 4.744,-1.753 6.432,3.294 6.907,-13.126 7.444,-5.237 2.243,-7.979 z" />
    <path
       id="AL-10"
       title="Shkodër"
       class="land"
       d="m 96.429,8.658 0.556,3.655 4.287,5.32 0.417,2.955 -4.665,0.672 -0.774,1.987 1.132,2.712 -2.005,5.611 3.057,5.636 0.973,5.178 2.978,1.556 2.501,3.862 7.245,4.183 v 0 l -3.295,9.381 3.751,9.375 -1.846,7.657 3.196,6.048 1.072,8.373 2.322,5.134 -2.382,8.554 0.496,2.485 5.479,4.702 1.767,-1.95 3.99,-0.855 4.446,-5.344 6.828,1.897 12.645,-2.191 2.838,4.222 4.029,0.107 8,6.01 5.697,0.668 4.109,4.246 7.543,0.534 1.429,2.696 7.662,3.844 2.66,-0.133 -1.35,5.39 -7.126,5.175 -2.878,3.92 -2.223,4.666 0.893,6.823 -5.538,5.409 4.665,1.146 4.605,-4.609 4.387,7.086 1.151,4.474 5.022,1.65 v 0 l -28.861,13.52 -2.243,7.979 -7.444,5.237 -6.907,13.126 -6.432,-3.294 -4.744,1.753 -7.007,-23.419 -4.367,3.378 -5.419,-0.984 -2.64,1.702 -1.111,2.818 -4.685,1.941 -2.7,-0.16 -3.334,-3.111 -1.807,-0.027 -1.925,2.526 -3.811,1.037 -1.429,6.512 -4.784,4.57 -4.466,-5.208 -4.744,-2.206 -12.307,0.266 -0.317,-5.423 -9.012,-2.632 -3.077,2.074 0.774,5.875 -1.25,2.206 1.767,5.208 -2.044,2.178 -4.387,-1.806 -12.406,-9.7 -5.419,1.25 0.516,2.923 7.503,6.909 1.032,5.684 -1.667,5.522 v 0 l -15.105,-3.584 -2.501,0.558 -3.156,3.558 -3.156,-0.956 2.064,-9.188 -7.665,-6.187 5.816,-3.827 -4.128,-4.679 0.02,-4.121 7.364,-2.527 -2.263,-2.553 1.032,-3.485 -1.926,-4.869 -0.496,-8.732 2.044,-9.429 4.248,-7.968 -23.978,-20.296 13.498,-16.154 1.568,-4.275 5.002,-6.227 0.536,-3.983 7.444,-8.611 -1.608,-6.234 1.786,-1.338 0.695,-4.39 2.402,-2.784 6.709,-2.812 5.221,-10.474 3.99,-2.84 3.851,-6.541 4.248,-7.696 0.854,-4.936 10.56,-7.461 -0.933,-9.397 9.667,-13.3 L 82.933,8.442 87.419,1.559 91.05,0 l 1.826,0.86 1.886,4.087 2.898,1.156 z" />
    <path
       id="AL-11"
       title="Tiranë"
       class="land"
       d="m 128.883,305.163 4.248,0.475 8.278,6.389 4.287,6.071 3.017,8.284 8.694,4.035 2.898,3.797 0.695,4.139 5.3,-6.644 2.6,-0.474 10.123,13.258 7.563,0.027 1.985,4.425 v 0 l -1.191,2.002 -13.319,6.162 -1.072,2.528 0.636,6.001 -9.409,6.367 -4.407,-0.316 -4.684,-2.946 -2.978,0.842 -8.198,14.043 -10.679,8.384 -9.845,3.915 -4.029,3.887 -1.47,3.913 -2.639,-0.368 -3.712,3.597 -2.66,-0.42 -4.506,2.022 -3.89,-2.941 -2.144,0.263 -1.727,1.628 -0.874,4.488 -6.51,5.3 -2.065,6.243 -5.776,3.515 v 0 l -3.335,-3.279 -3.791,2.124 -0.933,-2.596 -2.183,1.6 0.595,-2.098 -0.992,-0.288 -2.184,2.124 -1.846,-2.098 -3.871,1.127 -0.595,2.309 -3.553,0.314 -0.278,3.802 -7.404,-1.862 -2.005,1.888 -1.409,-1.914 -0.814,4.325 -3.99,-5.296 -3.037,1.259 1.767,3.277 -2.501,-1.389 0.318,1.73 -2.025,2.019 1.608,5.372 -4.784,1.258 v 0 l 3.95,-22.206 -0.476,-7.899 -3.494,-8.558 4.228,-0.526 2.382,-2.836 2.303,-10.509 4.903,-5.625 1.905,-4.707 0.437,-7.048 v 0 l 5.359,1.052 7.007,-1.368 3.831,3.236 7.98,-12.262 -1.43,-8.294 1.231,-7.507 -3.732,-6.482 -0.456,-12.524 1.409,-2.322 1.628,0.502 2.898,-1.82 3.374,1.688 3.99,-1.952 -0.456,-2.902 2.798,-1.452 0.497,11.924 3.989,2.979 5.221,-0.369 11.433,-9.23 6.431,-0.924 2.601,-1.979 3.374,1.241 9.409,-13.065 z" />
    <path
       id="AL-12"
       title="Vlorë"
       class="land"
       d="m 3.354,570.356 2.481,2.496 -1.469,5.121 -3.652,-5.407 -0.297,-4.811 z m 5.678,-38.554 2.719,0.651 3.275,-3.414 2.997,-0.704 7.384,2.477 2.164,3.908 2.858,1.199 1.012,-3.102 5.915,-2.476 -0.278,3.675 1.33,2.11 1.905,-0.417 4.387,2.163 -1.667,3.959 6.451,-0.025 0.735,2.813 4.108,0.625 0.874,5.624 3.93,-2.733 2.521,1.302 -1.787,2.005 1.667,0.911 0.278,3.695 1.826,0.417 1.25,-1.483 2.62,2.967 1.965,-2.187 1.727,0.104 13.696,8.638 7.702,0.131 -3.018,8.14 1.25,1.092 5.161,-1.118 0.337,4.783 -2.024,6.81 4.764,2.182 0.317,2.364 3.514,3.662 v 0 l 2.084,4.492 3.434,3.116 -11.354,11.781 10.203,11.307 1.231,3.837 2.818,1.114 -1.846,3.369 2.263,4.223 0.477,4.922 5.002,7.948 3.434,11.154 9.15,6.932 8.139,17.498 2.322,0.543 4.704,-3.694 6.154,4.107 2.838,-1.989 12.406,12.681 1.191,3.434 5.578,5.626 6.392,3.174 4.486,4.9 7.463,2.321 -0.357,8.766 5.062,5.747 4.069,11.334 3.514,1.313 2.521,5.509 v 0 l -2.977,3.114 3.513,5.738 -2.978,4.425 5.935,8.974 -7.682,4.936 -3.255,4.034 -0.337,6.243 -3.751,-3.135 -2.998,-0.333 -2.362,4.777 1.905,3.698 -1.012,1.181 -6.57,0.334 -12.148,-2.567 -7.483,-6.858 -2.858,0.257 -2.243,-2.158 -5.519,-0.591 -1.29,-2.286 -5.28,1.824 -0.635,2.106 -1.191,-0.796 -2.283,-0.129 -0.357,-4.65 2.799,-5.372 -0.556,-4.269 1.469,-2.108 -1.092,-0.617 -0.933,2.263 -0.655,1.286 -1.826,-0.694 -0.794,-2.494 2.144,-4.038 2.223,0.849 2.263,-3.756 -0.814,-3.087 -1.925,-0.258 v -1.157 l 1.568,-0.618 2.243,-4.658 -0.576,-4.531 2.303,-2.188 -0.338,-4.172 -1.389,-3.117 -2.144,1.263 -2.64,-1.521 -0.913,0.953 -0.437,-1.623 -4.446,-1.7 -0.635,-3.272 -3.533,0.489 -0.913,-2.087 -3.771,0.438 -0.953,-2.706 1.866,0.593 1.092,-3.557 2.938,-1.187 -0.536,-3.971 -14.728,-24.339 -5.478,-3.771 -7.781,1.188 -0.596,-1.757 2.005,-0.465 -2.58,-1.679 v -1.603 l -2.68,-0.904 -0.178,3.592 -1.787,-5.788 -3.573,0.13 0.417,-4.756 -3.533,-0.465 -3.771,-3.283 -2.838,-0.025 -0.159,-2.224 -8.238,-1.241 -3.454,-3.905 -9.746,-5.303 -2.7,-3.001 -8.773,-3.235 -12.744,-7.921 -17.785,-21.427 -1.508,-2.359 1.33,-1.841 -2.878,-9.441 -8.059,-11.783 -6.848,-6.231 6.372,-4.546 7.464,4.338 9.329,11.709 0.417,9.134 2.779,5.188 6.689,-1.426 5.498,-4.903 -0.973,-7.914 1.211,-2.518 -1.271,-3.219 3.077,-8.674 v -4.079 l -6.451,-3.456 -6.888,-9.176 -4.804,-1.664 -2.917,-4.863 0.476,-1.535 -2.064,-1.457 -0.139,-8.795 -7.841,-15.104 z" />
  </g>
</svg>
