<?xml version="1.0" encoding="UTF-8" standalone="no"?>
<!-- (c) ammap.com | SVG map of Albania - Low -->

<svg
   version="1.1"
   id="svg1"
   sodipodi:docname="albania.svg"
   width="1000"
   height="1000"
   inkscape:version="1.3.1 (91b66b0783, 2023-11-16)"
   xmlns:inkscape="http://www.inkscape.org/namespaces/inkscape"
   xmlns:sodipodi="http://sodipodi.sourceforge.net/DTD/sodipodi-0.dtd"
   xmlns="http://www.w3.org/2000/svg"
   xmlns:svg="http://www.w3.org/2000/svg"
   xmlns:amcharts="http://amcharts.com/ammap">
  <sodipodi:namedview
     id="namedview1"
     pagecolor="#ffffff"
     bordercolor="#666666"
     borderopacity="1.0"
     inkscape:showpageshadow="2"
     inkscape:pageopacity="0.0"
     inkscape:pagecheckerboard="0"
     inkscape:deskcolor="#d1d1d1"
     inkscape:zoom="0.56250002"
     inkscape:cx="273.77777"
     inkscape:cy="717.33331"
     inkscape:window-width="1920"
     inkscape:window-height="1106"
     inkscape:window-x="-11"
     inkscape:window-y="-11"
     inkscape:window-maximized="1"
     inkscape:current-layer="g1"
     showguides="true">
    <sodipodi:guide
       position="500,777.49707"
       orientation="-1,0"
       id="guide1"
       inkscape:locked="false"
       inkscape:label=""
       inkscape:color="rgb(0,134,229)" />
    <sodipodi:guide
       position="276.18055,284.55557"
       orientation="-1,0"
       id="guide2"
       inkscape:locked="false"
       inkscape:label=""
       inkscape:color="rgb(0,134,229)" />
  </sodipodi:namedview>
  <defs
     id="defs1">
    <style
       type="text/css"
       id="style1">
			.land
			{
				fill: #CCCCCC;
				fill-opacity: 1;
				stroke:white;
				stroke-opacity: 1;
				stroke-width:0.5;
			}
		</style>
    <amcharts:ammap
       projection="mercator"
       leftLongitude="19.266289"
       topLatitude="42.660316"
       rightLongitude="21.056942"
       bottomLatitude="39.645057" />
    <!-- All areas are listed in the line below. You can use this list in your script. -->
    <!--{id:"AL-01"},{id:"AL-09"},{id:"AL-02"},{id:"AL-03"},{id:"AL-04"},{id:"AL-05"},{id:"AL-06"},{id:"AL-07"},{id:"AL-08"},{id:"AL-10"},{id:"AL-11"},{id:"AL-12"}-->
  </defs>
  <g
     id="g1"
     transform="matrix(1.2617174,0,0,1.2617174,275.149,0.34584412)"
     style="fill:#f7b7b7;fill-opacity:1">
    <path
       id="AL-01"
       title="Berat"
       class="land"
       d="m 110.17964,476.93253 0.31801,3.26819 1.54809,0.52203 v 0 l 4.06923,-0.10401 v 0 l -3.5922,2.30113 2.71915,1.41108 0.55603,4.46724 5.04228,-9.22451 7.88044,-1.30807 6.86838,-4.15723 8.47647,0.49702 2.46114,-2.72015 4.54625,-0.65403 2.06411,18.79604 5.3393,-3.78921 0.27802,3.21418 1.98511,2.01211 4.14823,-0.62703 6.25335,13.91877 4.66526,3.6272 -0.23802,3.28919 5.89533,0.78304 5.4193,-2.24413 6.74938,6.20935 13.06172,-2.34813 v 0 l 3.23618,4.38324 7.32441,17.70099 4.54625,3.5692 1.17107,6.92838 2.58014,1.92711 4.54625,-0.78105 5.53831,1.19807 -0.67504,4.86827 -3.89121,7.62543 3.09717,4.81226 3.01717,19.7311 v 0 l -8.9325,1.7151 -5.00328,-1.22107 -2.38113,4.93627 1.64709,7.94544 -5.18129,-1.01305 -9.0915,1.50608 -1.86611,1.60909 2.02512,3.03817 -6.53137,4.35924 -9.74654,-11.52364 -1.48808,-4.51925 -6.88838,-0.62303 -0.33802,-4.80627 -4.36725,-7.1454 -4.54525,-4.93927 -6.67037,-3.90022 -4.90227,0.80704 -1.21107,5.2503 -4.32724,-5.51031 -3.87121,1.50808 -7.62243,-1.53508 -5.3803,2.49614 -12.22768,-3.84822 v 0 l -0.53603,-6.31935 -3.05717,-4.13723 -3.21518,0.025 -0.04,-1.7951 -2.69915,-2.65414 -1.19206,-5.96134 -4.48625,-6.77037 -1.44808,-0.13001 3.85021,-5.86233 -1.42908,-9.1225 -9.15051,-12.12568 -2.66115,-12.55269 -4.168228,-6.91939 0.100006,-6.50436 1.587088,0.88705 1.727094,-1.7501 -1.667091,-1.43708 2.243121,-2.56114 -1.9461,-1.22807 1.70709,-1.43808 -0.21801,-1.93311 3.6532,-0.65403 1.7861,2.16912 z"
       style="fill:#f7b7b7;fill-opacity:1" />
    <path
       id="AL-09"
       title="Dibër"
       class="land"
       d="m 190.19809,210.78774 3.15617,1.54108 4.16823,-1.35507 10.42258,-6.13534 0.27702,-3.13618 1.54908,-0.23901 6.17335,5.28729 -0.95306,11.52564 4.01023,5.83933 2.60014,0.98205 10.12356,-3.18517 0.45703,-6.37036 17.58698,0.42503 5.93533,-1.56709 -1.60709,-4.01022 3.41419,1.22206 v 0 l -0.02,11.57465 2.34213,9.36652 -4.94228,0.079 -0.25801,2.17512 -2.60015,1.00706 0.41603,2.12212 -2.89816,4.79826 -1.21107,6.99739 2.87916,9.66854 -2.64015,7.2284 2.12412,2.72615 -0.21901,3.73121 3.47419,3.86322 1.94511,4.92027 0.73504,5.68432 -6.84938,4.46724 -11.77166,1.85011 1.92611,2.11411 -0.079,2.16712 -3.35519,4.51726 0.11901,2.29812 4.24823,1.7701 -0.139,2.08612 3.6322,2.45513 3.41519,10.50459 -0.55603,2.45313 6.23334,1.92611 -0.37802,1.97811 3.5932,2.95417 0.65504,2.29412 -3.01717,6.24735 1.21107,2.45114 -4.74427,5.61231 -0.27801,2.55514 -1.88511,1.94911 -3.55419,-2.63415 -1.48809,3.81922 3.85022,11.53164 v 0 l -15.64187,1.55308 -4.10923,-5.02728 -6.66937,3.86922 -4.40725,0.44702 2.18412,-3.6322 0.61504,-8.10945 -7.36441,-5.63631 0.61503,-5.3223 -4.12923,-3.42619 -6.61036,0.42202 -9.48853,7.77344 -3.71221,1.13206 v 0 l -1.98511,-4.42525 -7.56342,-0.027 -10.12356,-13.25873 -2.60015,0.47402 -5.30029,6.64437 -0.69504,-4.13923 -2.89816,-3.79721 -8.69448,-4.03522 -3.01717,-8.28447 -4.28724,-6.07133 -8.27846,-6.38936 -4.24824,-0.47502 v 0 l -13.73676,-17.44097 v 0 l -1.48808,-9.73155 -3.89122,-5.5303 -0.019,-8.20446 -6.33235,-7.75943 4.90227,-2.59614 4.28824,-4.58326 4.62526,5.21929 6.55036,0.39802 5.3203,-2.19912 9.94455,3.97322 1.92611,-4.15923 5.69731,-3.39119 2.75916,0.92705 2.32213,3.5772 2.40213,0.34402 2.14412,-1.45708 0.35702,-2.88716 3.27518,-2.96817 3.07717,-5.91132 20.88316,-2.28013 -1.15206,-9.73354 -3.17518,-1.88411 0.43603,-7.90944 2.75915,-1.48608 1.60809,-5.60231 z"
       style="fill:#f7b7b7;fill-opacity:1" />
    <path
       id="AL-02"
       title="Durrës"
       class="land"
       d="m 42.468872,289.64212 7.166398,1.37508 8.893495,-1.87611 v 0 l 22.550254,7.53242 6.193344,0.55503 18.759047,-4.30824 9.25051,-5.18128 v 0 l 13.73676,17.43997 v 0 l -0.17901,3.85521 -9.40952,13.06573 -3.37419,-1.24007 -2.60114,1.97911 -6.43136,0.92305 -11.434635,9.23051 -5.22029,0.36902 -3.990222,-2.97916 -0.496027,-11.92467 -2.799156,1.45208 0.457025,2.90217 -3.990221,1.9521 -3.375188,-1.68809 -2.898161,1.8201 -1.628091,-0.50103 -1.409078,2.32113 0.457025,12.5247 3.731208,6.48236 -1.230069,7.50742 1.42908,8.29346 -7.979444,12.26268 -3.831213,-3.23618 -7.007389,1.36808 -5.359298,-1.05206 v 0 l -1.688094,-5.02528 -4.684261,-6.37036 -6.412356,-1.50008 -0.417023,3.05417 -6.153342,-5.79232 0.477026,-14.70082 -6.332352,-8.46247 4.704262,3.98122 5.657314,-0.84305 2.719151,-5.03628 -0.377021,-3.37618 -1.8061,-0.10501 0.953053,4.40425 -2.064115,-5.2753 7.960443,-3.6402 5.796322,-8.31346 1.310073,-3.74921 -0.615034,-9.69254 -9.88555,-5.94533 -3.533196,-8.22146 z"
       style="fill:#f7b7b7;fill-opacity:1" />
    <path
       id="AL-03"
       title="Elbasan"
       class="land"
       d="m 188.709,348.96442 3.71221,-1.13206 9.48853,-7.77344 6.61036,-0.42202 4.12923,3.42619 -0.61503,5.3223 7.36441,5.63631 -0.61504,8.10945 -2.18412,3.6322 4.40725,-0.44702 6.66937,-3.86922 4.10923,5.02728 15.64187,-1.55308 v 0 l 0.33802,6.65737 1.9451,4.57725 -1.35007,3.78621 4.01022,8.72749 4.56526,1.73509 6.86838,13.89578 0.43702,2.65214 -2.46113,4.62026 3.45319,5.24829 v 0 l 2.38313,6.87238 -2.54114,14.91783 -2.28313,-3.98322 -9.62753,-0.83904 -8.41747,2.04411 -8.45547,5.55531 -5.3403,0.91705 -1.44908,2.07011 -1.8851,11.28663 -3.83122,4.68526 2.54014,6.69937 5.2803,6.17235 8.43647,14.63881 -1.29008,10.37058 -2.99716,6.21434 -2.99717,1.95711 -1.52908,3.75921 -5.65732,-1.93211 -9.62753,-0.57403 -3.5532,4.25424 -6.96739,-0.75704 1.27007,2.92216 v 0 l -13.06172,2.34813 -6.74938,-6.20935 -5.4193,2.24413 -5.89533,-0.78304 0.23802,-3.28919 -4.66526,-3.6272 -6.25335,-13.91877 -4.14823,0.62703 -1.98511,-2.01211 -0.27802,-3.21418 -5.3393,3.78921 -2.06411,-18.79604 -4.54625,0.65403 -2.46114,2.72015 -8.47647,-0.49702 -6.86838,4.15723 -7.88044,1.30807 -5.04228,9.22451 -0.55603,-4.46724 -2.71915,-1.41108 3.5922,-2.30113 v 0 l -4.06923,0.10401 v 0 l -1.54809,-0.52203 -0.31801,-3.26819 v 0 l 1.41007,-1.22906 -0.75504,-4.60326 -4.36724,-3.89722 2.10412,-9.47252 -2.50014,-12.22868 2.20312,-5.76332 -13.974776,-3.4852 -5.816324,0.54903 -6.928385,-9.72454 v 0 l 5.776321,-3.51519 2.065115,-6.24335 6.510362,-5.30029 0.874049,-4.48825 1.727096,-1.62809 2.144122,-0.26302 3.89021,2.94116 4.50625,-2.02211 2.66015,0.42003 3.71221,-3.5972 2.63914,0.36802 1.47009,-3.91322 4.02922,-3.88722 9.84555,-3.91522 10.67959,-8.38446 8.19846,-14.04378 2.97816,-0.84205 4.68426,2.94616 4.40725,0.31602 9.40952,-6.36735 -0.63603,-6.00134 1.07206,-2.52814 13.31974,-6.16234 z"
       style="fill:#f7b7b7;fill-opacity:1" />
    <path
       id="AL-04"
       title="Fier"
       class="land"
       d="m 34.310418,440.78652 4.784266,-1.25807 -1.608089,-5.37229 2.025113,-2.01912 -0.318018,-1.73009 2.501139,1.39007 -1.767098,-3.27718 3.037169,-1.25907 3.990221,5.2963 0.814046,-4.32524 1.409078,1.9141 2.005111,-1.8881 7.404412,1.8611 0.278016,-3.80221 3.553197,-0.31402 0.595033,-2.30913 3.871215,-1.12706 1.846103,2.09812 2.184122,-2.12412 0.993055,0.28802 -0.596033,2.09911 2.184121,-1.60109 0.933052,2.59715 3.792211,-2.12412 3.334185,3.27818 v 0 l 6.928385,9.72554 5.816324,-0.55003 13.974776,3.4852 -2.20312,5.76332 2.50114,12.22968 -2.10412,9.47252 4.36724,3.89722 0.75404,4.60326 -1.40907,1.22906 v 0 l -3.15618,4.91428 -1.7871,-2.16912 -3.6522,0.65303 0.21801,1.93411 -1.70709,1.43808 1.9451,1.22907 -2.243121,2.56114 1.667091,1.43808 -1.727094,1.7501 -1.588088,-0.88805 -0.100006,6.50436 4.168228,6.91939 2.66015,12.55369 9.15051,12.12568 1.42908,9.12251 -3.85121,5.86132 1.44908,0.13001 4.48625,6.77137 1.19106,5.96134 2.69915,2.65414 0.04,1.7951 3.21518,-0.025 3.05717,4.13723 0.53603,6.31935 v 0 l -4.84327,0.26102 -11.17562,11.69765 -3.5732,6.91038 -5.65731,3.09117 v 0 l -3.514196,-3.6622 -0.317018,-2.36413 -4.764265,-2.18212 2.024113,-6.81038 -0.337019,-4.78327 -5.161287,1.11807 -1.250069,-1.09207 3.018167,-8.14045 -7.702428,-0.13101 -13.696761,-8.63848 -1.727096,-0.104 -1.96511,2.18712 -2.620145,-2.96716 -1.25007,1.48308 -1.826101,-0.41703 -0.278016,-3.6952 -1.667092,-0.91105 1.787099,-2.00511 -2.52114,-1.30208 -3.930219,2.73316 -0.874048,-5.62432 -4.108229,-0.62503 -0.735041,-2.81316 -6.451358,0.025 1.667092,-3.95922 -4.387244,-2.16312 -1.905105,0.41703 -1.330074,-2.11012 0.278015,-3.6752 -5.915329,2.47613 -1.012056,3.10218 -2.858159,-1.19907 -2.16412,-3.90822 -7.384411,-2.47714 -2.997167,0.70404 -3.275182,3.41419 -2.7191508,-0.65103 v 0 l -1.0720596,-1.87711 1.9851104,-2.26812 2.064115,-0.41703 4.844269,-5.31929 3.533197,-7.27641 0.159008,-11.32663 0.397022,-2.14112 1.60809,0.18301 0.278015,-2.58514 -1.528085,-3.05617 1.727096,-6.58237 0.754042,1.17607 1.509084,-0.96705 1.449081,-0.94006 -1.330074,-1.56808 -3.553198,1.38507 5.3993,-11.08161 2.978166,-0.55003 -2.581144,-6.56337 -0.457025,4.31524 -0.635035,-8.63248 3.633202,1.54409 -0.437025,-1.33408 -1.122062,-0.97905 -1.468082,-0.13201 0.584033,-1.37607 2.442136,-2.17213 7.682427,0.39303 -0.258015,-1.83211 1.210068,0.78505 -1.409079,-2.30313 3.513196,-4.68626 -3.255181,1.57009 3.911217,-3.84922 0.477027,-5.08028 -1.032058,-2.41013 -3.017167,-2.69815 -2.422135,-0.20901 1.945108,1.38807 -1.012056,-0.025 z"
       style="fill:#f7b7b7;fill-opacity:1" />
    <path
       id="AL-05"
       title="Gjirokastër"
       class="land"
       d="m 128.28364,570.62174 12.22768,3.84822 5.3803,-2.49614 7.62243,1.53508 3.87121,-1.50808 4.32724,5.51031 1.21107,-5.2503 4.90227,-0.80704 6.67037,3.90022 4.54525,4.93927 4.36725,7.1454 0.33802,4.80627 6.88838,0.62303 1.48808,4.51925 9.74654,11.52364 6.53137,-4.35924 -2.02512,-3.03817 1.86611,-1.60909 9.0915,-1.50608 5.18129,1.01305 -1.64709,-7.94544 2.38113,-4.93627 5.00328,1.22107 8.9325,-1.7151 v 0 l -1.6871,11.63665 2.42114,4.38624 4.56625,4.07623 -4.24823,9.91055 3.21617,4.82327 0.41703,9.30651 6.70937,18.77905 6.86838,8.79949 -0.35802,5.27729 5.3403,5.87033 2.85816,8.19645 3.6132,3.6172 v 0 l -1.7871,1.88611 -9.38952,1.34307 -7.95944,-4.85727 -4.50625,5.01328 -5.18129,-2.81715 -2.24313,0.23401 -6.17334,3.30618 -1.8261,2.60915 0.61503,3.33218 -3.31518,5.70632 -0.81305,5.3693 -4.44724,1.7811 -11.75166,-0.46503 6.53136,11.35163 -1.41007,5.87933 4.86327,3.6092 1.74709,4.30424 1.94611,1.16006 1.44808,5.3583 5.4003,7.31541 -1.09206,7.51642 -5.79632,6.45936 -6.01533,-4.55426 -9.32952,-3.50019 v 0 l -2.52114,-5.50931 -3.5132,-1.31407 -4.06922,-11.33463 -5.06229,-5.74732 0.35702,-8.76549 -7.46341,-2.32213 -4.48625,-4.90027 -6.39236,-3.17418 -5.57831,-5.62631 -1.19106,-3.43319 -12.40569,-12.68171 -2.83916,1.98912 -6.15434,-4.10723 -4.70426,3.6942 -2.32213,-0.54303 -8.13946,-17.49897 -9.1505,-6.93139 -3.4342,-11.15562 -5.00227,-7.94844 -0.47703,-4.92227 -2.26213,-4.22324 1.84511,-3.36918 -2.81816,-1.11407 -1.23107,-3.83721 -10.203565,-11.30763 11.354635,-11.78165 -3.43419,-3.11618 -2.08412,-4.49225 v 0 l 5.65831,-3.09117 3.5722,-6.91038 11.17662,-11.69765 z"
       style="fill:#f7b7b7;fill-opacity:1" />
    <path
       id="AL-06"
       title="Korçë"
       class="land"
       d="m 267.49638,417.18821 11.98967,1.49509 12.02967,45.30151 14.98783,3.34919 3.05717,-1.64809 4.88327,-8.76649 11.03662,5.3123 8.25846,-1.38708 3.97022,3.16618 3.33418,4.68326 0.57603,25.59142 -1.27107,3.16017 -4.32724,3.18618 5.20129,2.14012 0.17801,6.47336 7.86144,7.27941 6.65037,11.36963 -0.08,11.44163 -2.02511,2.29213 -0.97205,5.59931 0.27801,8.77349 -7.06739,1.19707 -1.68709,5.12628 -5.75732,3.66821 -0.15801,7.74943 -3.11618,4.05622 0.83305,1.19507 -5.87533,2.00211 -4.01022,-3.45719 -6.96739,1.24707 -5.69731,-2.39114 -4.38725,10.47359 -2.02411,-0.23402 -5.14129,3.68821 1.31008,3.45519 -1.07206,3.16818 0.65503,9.99355 -2.66014,1.55709 0.35702,2.15312 -3.77221,3.13917 1.05305,3.78721 -2.00511,2.02212 -3.53319,0.67403 -5.24129,8.9705 0.14,4.06823 2.20313,1.8391 -0.15901,9.42852 -2.91817,4.50526 -5.57831,2.61414 -0.59503,6.23635 3.69221,3.39019 -3.5342,6.44035 0.49703,7.88544 -10.44158,1.39608 -3.5532,3.6692 v 0 l -3.6132,-3.6172 -2.85816,-8.19645 -5.3403,-5.87033 0.35802,-5.27729 -6.86838,-8.79949 -6.70937,-18.77905 -0.41703,-9.30651 -3.21617,-4.82327 4.24823,-9.91055 -4.56625,-4.07623 -2.42114,-4.38624 1.6871,-11.63665 v 0 l -3.01717,-19.7311 -3.09717,-4.81226 3.89121,-7.62543 0.67504,-4.86827 -5.53831,-1.19807 -4.54625,0.78105 -2.58014,-1.92711 -1.17107,-6.92838 -4.54625,-3.5692 -7.32441,-17.70099 -3.23618,-4.38324 v 0 l -1.27007,-2.92216 6.96739,0.75704 3.5532,-4.25424 9.62753,0.57403 5.65732,1.93211 1.52908,-3.75921 2.99717,-1.95711 2.99716,-6.21434 1.29008,-10.37058 -8.43647,-14.63881 -5.2803,-6.17235 -2.54014,-6.69937 3.83122,-4.68526 1.8851,-11.28663 1.44908,-2.07011 5.3403,-0.91705 8.45547,-5.55531 8.41747,-2.04411 9.62753,0.83904 2.28313,3.98322 2.54114,-14.91783 -2.38313,-6.87238 v 0 z"
       style="fill:#f7b7b7;fill-opacity:1" />
    <path
       id="AL-07"
       title="Kukës"
       class="land"
       d="m 168.8789,35.786008 10.32157,5.689316 0.08,2.602145 6.01433,8.929496 -0.97205,2.86916 5.3983,4.716262 1.39008,4.743264 -3.5932,4.473249 6.19334,5.570309 1.07206,2.811157 -0.25801,4.416245 -1.50909,1.231069 1.98611,3.42419 -0.33802,2.836158 2.68015,1.605089 6.53037,-1.418079 3.05717,2.327129 4.18823,-3.316184 3.6132,0.802045 1.64809,4.172232 8.09845,2.915162 2.14412,3.529198 10.67959,3.7152 12.78371,15.65487 3.79122,13.93278 2.89916,3.6282 1.9251,6.42736 -1.23106,3.86621 0.93305,2.77216 -2.14312,4.10423 3.11617,6.02133 4.74427,4.60826 0.61503,5.88332 5.71732,15.30085 -1.41008,6.14235 -8.41647,6.27334 3.47419,10.30858 -6.59036,2.25812 v 0 l -3.41419,-1.22206 1.60709,4.01022 -5.93533,1.56709 -17.58698,-0.42503 -0.45703,6.37036 -10.12356,3.18517 -2.60014,-0.98205 -4.01023,-5.83933 0.95306,-11.52564 -6.17335,-5.28729 -1.54908,0.23901 -0.27702,3.13618 -10.42258,6.13534 -4.16823,1.35507 -3.15617,-1.54108 v 0 l 1.58808,-12.96472 9.32952,-9.99756 -1.9251,-9.33652 1.31007,-4.63126 -4.18823,-5.27129 v 0 l -5.02228,-1.65009 -1.15207,-4.47425 -4.38624,-7.08639 -4.60626,4.60925 -4.66426,-1.14606 5.53831,-5.4093 -0.89305,-6.82338 2.22312,-4.66626 2.87816,-3.92022 7.1264,-5.17629 1.35008,-5.3903 -2.66015,0.13401 -7.66243,-3.84421 -1.42908,-2.69615 -7.54342,-0.53503 -4.10923,-4.24524 -5.69731,-0.66803 -7.99945,-6.01034 -4.02922,-0.107 -2.83916,-4.22324 -12.6447,2.19212 -6.82938,-1.8971 -4.44625,5.34429 -3.99022,0.85505 -1.7661,1.94911 -5.4793,-4.70126 -0.49603,-2.48514 2.38213,-8.554475 -2.32213,-5.134286 -1.07206,-8.373465 -3.19617,-6.049337 1.8461,-7.657425 -3.75221,-9.375522 3.29518,-9.382521 v 0 l 1.7671,-3.297184 5.95533,-0.885049 1.94511,-3.755209 3.87122,2.86916 1.76709,-5.57931 5.14129,-2.602145 14.15279,1.61009 2.26312,-8.45347 6.47136,-2.228124 1.60809,-2.310129 6.19335,1.960109 2.40213,4.725263 z"
       style="fill:#f7b7b7;fill-opacity:1" />
    <path
       id="AL-08"
       title="Lezhë"
       class="land"
       d="m 196.31243,168.58639 4.18823,5.27129 -1.31007,4.63026 1.9251,9.33752 -9.32952,9.99656 -1.58808,12.96572 v 0 l -5.69732,1.11606 -1.60809,5.60231 -2.75915,1.48608 -0.43703,7.90944 3.17618,1.88411 1.15106,9.73354 -20.88316,2.28013 -3.07717,5.91132 -3.27518,2.96817 -0.35702,2.88816 -2.14412,1.45708 -2.40213,-0.34402 -2.32213,-3.5772 -2.75916,-0.92705 -5.69731,3.39119 -1.92511,4.15923 -9.94555,-3.97322 -5.3193,2.19912 -6.55036,-0.39702 -4.62526,-5.21929 -4.28824,4.58326 -4.90327,2.59614 6.33235,7.75943 0.02,8.20546 3.89122,5.5293 1.48908,9.73155 v 0 l -9.25051,5.18128 -18.759047,4.30824 -6.193344,-0.55503 -22.550254,-7.53242 v 0 l 2.322129,-2.64414 0.199011,-3.41119 2.680149,-0.026 1.409078,-5.68732 2.402134,4.70826 0.754042,-5.21029 -0.576032,-3.75721 -1.528085,-1.32307 -2.16412,-1.11106 -2.87816,1.13806 -1.151064,-1.7991 3.593199,-15.25085 -3.354186,-12.6407 1.826101,-3.36719 4.427246,-0.132 0.437025,-8.72649 -1.747097,-3.50219 -3.216179,0.45102 -8.09945,-6.13034 -8.714485,-3.90222 v 0 l 1.667093,-5.5223 -1.032058,-5.68432 -7.503417,-6.90938 -0.516029,-2.92317 5.419302,-1.25007 12.40669,9.70054 4.387243,1.8061 2.044114,-2.17812 -1.767098,-5.20829 1.250069,-2.20612 -0.774043,-5.87533 3.077171,-2.07411 9.012501,2.63214 0.317018,5.42331 12.307684,-0.26602 4.744264,2.20612 4.466248,5.20829 4.784266,-4.57025 1.429081,-6.51236 3.81121,-1.03706 1.92511,-2.52614 1.8071,0.027 3.33418,3.11117 2.70015,0.16001 4.68526,-1.94111 1.11107,-2.81815 2.64014,-1.7021 5.4193,0.98406 4.36725,-3.37819 7.00739,23.4203 4.74426,-1.7531 6.43236,3.29419 6.90738,-13.12673 7.44442,-5.23729 2.24312,-7.97945 z"
       style="fill:#f7b7b7;fill-opacity:1" />
    <path
       id="AL-10"
       title="Shkodër"
       class="land"
       d="m 96.561879,8.6584998 0.556031,3.6552032 4.28724,5.320296 0.41702,2.955164 -4.665258,0.672037 -0.774043,1.987111 1.132063,2.712151 -2.005111,5.611312 3.05717,5.636313 0.973054,5.178288 2.978165,1.556086 2.50114,3.862215 7.2454,4.183233 v 0 l -3.29518,9.381521 3.75121,9.375522 -1.8461,7.657425 3.19617,6.048337 1.07206,8.373465 2.32213,5.134286 -2.38213,8.554475 0.49603,2.48514 5.4793,4.70226 1.7671,-1.95011 3.99022,-0.85505 4.44625,-5.34429 6.82838,1.8971 12.6457,-2.19112 2.83816,4.22224 4.02922,0.107 8.00045,6.01034 5.69731,0.66803 4.10923,4.24624 7.54342,0.53403 1.42908,2.69615 7.66243,3.84421 2.66015,-0.13301 -1.35008,5.3903 -7.1264,5.17529 -2.87816,3.92022 -2.22312,4.66626 0.89305,6.82338 -5.53831,5.4093 4.66526,1.14606 4.60526,-4.60925 4.38724,7.08639 1.15107,4.47425 5.02228,1.65009 v 0 l -28.86261,13.52075 -2.24312,7.97945 -7.44442,5.23729 -6.90738,13.12673 -6.43236,-3.29419 -4.74426,1.7531 -7.00739,-23.4203 -4.36725,3.37819 -5.4193,-0.98406 -2.64014,1.7021 -1.11107,2.81815 -4.68526,1.94111 -2.70015,-0.16001 -3.33418,-3.11117 -1.8071,-0.027 -1.92511,2.52614 -3.81121,1.03706 -1.42908,6.51236 -4.784266,4.57025 -4.466249,-5.20829 -4.744264,-2.20612 -12.307684,0.26602 -0.317017,-5.42331 -9.012502,-2.63214 -3.077171,2.07411 0.774043,5.87533 -1.250069,2.20612 1.767098,5.20829 -2.044113,2.17812 -4.387244,-1.8061 -12.40669,-9.70054 -5.419301,1.25007 0.516028,2.92317 7.503417,6.90938 1.032058,5.68432 -1.667093,5.5223 v 0 l -15.10584,-3.5842 -2.501139,0.55803 -3.156175,3.5582 -3.156176,-0.95605 2.064115,-9.18851 -7.665426,-6.18735 5.816323,-3.82721 -4.128229,-4.67926 0.02,-4.12123 7.364409,-2.52714 -2.263126,-2.55314 1.032058,-3.48519 -1.926107,-4.86927 -0.496028,-8.73249 2.044114,-9.42952 4.248236,-7.96845 -23.9793332,-20.29713 13.4987502,-16.15489 1.568087,-4.27524 5.002279,-6.22735 0.536029,-3.98322 7.444414,-8.611479 -1.608089,-6.234346 1.786099,-1.338075 0.695039,-4.390244 2.402133,-2.784154 6.709373,-2.812157 5.221291,-10.474582 3.990222,-2.840158 3.851214,-6.541364 4.248236,-7.696428 0.854047,-4.936274 L 70.122409,31.759784 69.189358,22.362262 78.856895,9.0615222 83.065129,8.4424878 87.551378,1.5591051 91.18258,1.8401652e-5 93.008682,0.86006622 94.894787,4.9472935 97.792948,6.1033577 Z"
       style="fill:#f7b7b7;fill-opacity:1" />
    <path
       id="AL-11"
       title="Tiranë"
       class="land"
       d="m 129.01768,305.17999 4.24824,0.47502 8.27846,6.38936 4.28724,6.07133 3.01717,8.28447 8.69448,4.03522 2.89816,3.79721 0.69504,4.13923 5.30029,-6.64437 2.60015,-0.47402 10.12356,13.25873 7.56342,0.027 1.98511,4.42525 v 0 l -1.19106,2.00211 -13.31974,6.16234 -1.07206,2.52814 0.63603,6.00134 -9.40952,6.36735 -4.40725,-0.31602 -4.68426,-2.94616 -2.97816,0.84205 -8.19846,14.04378 -10.67959,8.38446 -9.84555,3.91522 -4.02922,3.88722 -1.47009,3.91322 -2.63914,-0.36802 -3.71221,3.5972 -2.66015,-0.42003 -4.50625,2.02211 -3.89021,-2.94116 -2.144122,0.26302 -1.727096,1.62809 -0.874049,4.48825 -6.510362,5.30029 -2.065115,6.24335 -5.776321,3.51519 v 0 l -3.335185,-3.27918 -3.791211,2.12412 -0.933052,-2.59615 -2.183121,1.60009 0.595033,-2.09811 -0.992055,-0.28802 -2.184122,2.12412 -1.846103,-2.09812 -3.871215,1.12706 -0.595033,2.30913 -3.553197,0.31402 -0.278016,3.80221 -7.404412,-1.8621 -2.005111,1.8881 -1.409078,-1.9141 -0.814046,4.32524 -3.990221,-5.2963 -3.037169,1.25907 1.767098,3.27718 -2.501139,-1.38907 0.318018,1.73009 -2.025113,2.01912 1.608089,5.37229 -4.784266,1.25807 v 0 l 3.95022,-22.20723 -0.476026,-7.89944 -3.494195,-8.55847 4.228235,-0.52603 2.382133,-2.83616 2.303128,-10.50959 4.903272,-5.62531 1.905106,-4.70726 0.437025,-7.04839 v 0 l 5.359298,1.05206 7.007389,-1.36808 3.831213,3.23618 7.980444,-12.26268 -1.43008,-8.29446 1.231069,-7.50742 -3.732208,-6.48236 -0.456025,-12.5247 1.409078,-2.32213 1.628091,0.50203 2.898161,-1.8201 3.374188,1.68809 3.990221,-1.9521 -0.456025,-2.90217 2.798156,-1.45208 0.497027,11.92467 3.989222,2.97916 5.22129,-0.36902 11.433635,-9.23051 6.43136,-0.92405 2.60114,-1.97911 3.37419,1.24107 9.40952,-13.06573 z"
       style="fill:#f7b7b7;fill-opacity:1" />
    <path
       id="AL-12"
       title="Vlorë"
       class="land"
       d="m 3.4817044,570.38773 2.481138,2.49614 -1.4690817,5.12128 -3.65220307,-5.4073 -0.29701651,-4.81126 z m 5.6783157,-38.55614 2.7191509,0.65103 3.275182,-3.41419 2.997167,-0.70404 7.384411,2.47714 2.16412,3.90822 2.858159,1.19907 1.012056,-3.10218 5.915329,-2.47613 -0.278016,3.6752 1.330074,2.11012 1.905106,-0.41703 4.387244,2.16312 -1.667092,3.95922 6.451358,-0.025 0.735041,2.81316 4.108229,0.62503 0.874048,5.62432 3.930219,-2.73316 2.52114,1.30208 -1.7871,2.00511 1.667093,0.91105 0.278016,3.6952 1.826101,0.41703 1.25007,-1.48308 2.620145,2.96716 1.96511,-2.18712 1.727096,0.104 13.696761,8.63848 7.702428,0.13101 -3.018168,8.14045 1.25007,1.09207 5.161287,-1.11807 0.337019,4.78327 -2.024113,6.81038 4.764265,2.18212 0.317018,2.36413 3.514196,3.6622 v 0 l 2.08411,4.49225 3.4342,3.11618 -11.354635,11.78165 10.203565,11.30763 1.23107,3.83721 2.81816,1.11407 -1.84611,3.36918 2.26313,4.22324 0.47703,4.92227 5.00227,7.94844 3.4342,11.15462 9.1505,6.93239 8.13946,17.49897 2.32213,0.54303 4.70426,-3.6942 6.15434,4.10723 2.83816,-1.98912 12.40669,12.68171 1.19106,3.43419 5.57831,5.62631 6.39236,3.17418 4.48625,4.90027 7.46341,2.32113 -0.35702,8.76649 5.06229,5.74732 4.06922,11.33463 3.5142,1.31307 2.52114,5.50931 v 0 l -2.97717,3.11417 3.5132,5.73832 -2.97817,4.42525 5.93533,8.9745 -7.68243,4.93627 -3.25518,4.03422 -0.33702,6.24335 -3.7512,-3.13517 -2.99817,-0.33302 -2.36213,4.77726 1.9051,3.69821 -1.01205,1.18107 -6.57037,0.33401 -12.14867,-2.56714 -7.48342,-6.85838 -2.85816,0.25701 -2.24312,-2.15812 -5.51931,-0.59103 -1.29007,-2.28613 -5.2803,1.82411 -0.63503,2.10611 -1.19107,-0.79604 -2.28312,-0.12901 -0.35702,-4.65026 2.79915,-5.3723 -0.55603,-4.26923 1.46908,-2.10812 -1.09206,-0.61704 -0.93305,2.26313 -0.65504,1.28607 -1.8261,-0.69404 -0.79404,-2.49413 2.14412,-4.03823 2.22312,0.84905 2.26313,-3.75621 -0.81405,-3.08717 -1.92511,-0.25802 v -1.15706 l 1.56809,-0.61804 2.24313,-4.65825 -0.57604,-4.53126 2.30313,-2.18812 -0.33802,-4.17223 -1.38907,-3.11717 -2.14412,1.26307 -2.64015,-1.52109 -0.91305,0.95306 -0.43702,-1.6231 -4.44625,-1.70009 -0.63504,-3.27218 -3.53319,0.48903 -0.91305,-2.08712 -3.77121,0.43802 -0.95306,-2.70615 1.86611,0.59304 1.09206,-3.5572 2.93816,-1.18707 -0.53603,-3.97122 -14.72882,-24.34035 -5.4783,-3.77121 -7.78144,1.18806 -0.59603,-1.75709 2.00511,-0.46503 -2.58014,-1.67909 V 683.141 l -2.68015,-0.90405 -0.17801,3.5922 -1.787098,-5.78832 -3.573199,0.13 0.417023,-4.75626 -3.533196,-0.46503 -3.77121,-3.28318 -2.838158,-0.025 -0.159009,-2.22412 -8.238458,-1.24107 -3.454192,-3.90522 -9.746542,-5.3033 -2.70015,-3.00116 -8.773488,-3.23518 -12.744708,-7.92144 -17.785989,-21.42819 -1.508084,-2.35913 1.330074,-1.84111 -2.87816,-9.44152 -8.059448,-11.78366 -6.8483807,-6.23134 6.3723547,-4.54626 7.464415,4.33824 9.329518,11.70966 0.417023,9.1345 2.779155,5.18829 6.689372,-1.42608 5.498306,-4.90327 -0.973055,-7.91444 1.211068,-2.51814 -1.271071,-3.21918 3.077171,-8.67448 v -4.07923 l -6.451358,-3.45619 -6.888383,-9.17651 -4.804268,-1.66409 -2.917162,-4.86327 0.476027,-1.53509 -2.064115,-1.45708 -0.139008,-8.79549 -7.841436,-15.10484 z"
       style="fill:#f7b7b7;fill-opacity:1" />
  </g>
</svg>
