<?xml version="1.0" encoding="UTF-8" standalone="no"?>
<?xml-stylesheet type="text/css" href="/styles/home.css"?><!-- https://www.amcharts.com/svg-maps -->

<svg
   version="1.1"
   id="map-albania"
   viewBox="0 0 1000 1000"
   width="1000"
   height="1000"
   class=""
   sodipodi:docname="albania.svg"
   inkscape:version="1.3.1 (91b66b0783, 2023-11-16)"
   xmlns:inkscape="http://www.inkscape.org/namespaces/inkscape"
   xmlns:sodipodi="http://sodipodi.sourceforge.net/DTD/sodipodi-0.dtd"
   xmlns="http://www.w3.org/2000/svg"
   xmlns:svg="http://www.w3.org/2000/svg"
   xmlns:rdf="http://www.w3.org/1999/02/22-rdf-syntax-ns#"
   xmlns:cc="http://creativecommons.org/ns#"
   xmlns:dc="http://purl.org/dc/elements/1.1/">
  <metadata
     id="metadata21">
    <rdf:RDF>
      <cc:Work
         rdf:about="">
        <dc:format>image/svg+xml</dc:format>
        <dc:type
           rdf:resource="http://purl.org/dc/dcmitype/StillImage" />
        <dc:title />
      </cc:Work>
    </rdf:RDF>
  </metadata>
  <sodipodi:namedview
     pagecolor="#ffffff"
     bordercolor="#666666"
     borderopacity="1"
     objecttolerance="10"
     gridtolerance="10"
     guidetolerance="10"
     inkscape:pageopacity="0"
     inkscape:pageshadow="2"
     inkscape:window-width="1920"
     inkscape:window-height="1106"
     id="namedview19"
     showgrid="false"
     showguides="true"
     inkscape:guide-bbox="true"
     inkscape:zoom="0.29778187"
     inkscape:cx="-544.02237"
     inkscape:cy="737.11674"
     inkscape:window-x="-11"
     inkscape:window-y="-11"
     inkscape:window-maximized="1"
     inkscape:current-layer="map-albania"
     inkscape:showpageshadow="2"
     inkscape:pagecheckerboard="0"
     inkscape:deskcolor="#d1d1d1">
    <sodipodi:guide
       position="500,636.38736"
       orientation="1,0"
       id="guide4531"
       inkscape:locked="false"
       inkscape:label=""
       inkscape:color="rgb(0,0,255)" />
    <sodipodi:guide
       position="275.45125,292.96889"
       orientation="1,0"
       id="guide1"
       inkscape:locked="false" />
  </sodipodi:namedview>
  <defs
     id="defs4">
    <style
       type="text/css"
       id="style2">
         .land {
            fill: #f7b7b7;
            fill-opacity: 1;
            stroke: white;
            stroke-opacity: 1;
            stroke-width: 0.5;
         }

         .rectangle:hover {
            fill: #bdbdbd;
            cursor: pointer;
         }
      </style>
    <!-- <amcharts:ammap projection="mercator" leftLongitude="19.266289" topLatitude="42.660316"
		rightLongitude="21.056942" bottomLatitude="39.645057"></amcharts:ammap> -->
    <!-- All areas are listed in the line below. You can use this list in your script. -->
    <!--{id:"AL-01"},{id:"AL-09"},{id:"AL-02"},{id:"AL-03"},{id:"AL-04"},{id:"AL-05"},{id:"AL-06"},{id:"AL-07"},{id:"AL-08"},{id:"AL-10"},{id:"AL-11"},{id:"AL-12"}-->
  </defs>
  <rect
     id="background"
     class="rectangle"
     width="1000"
     height="1000"
     y="-0"
     x="0"
     style="fill:#d3d3d3;stroke:#000000;stroke-width:0" />
  <path
     d="m 414.23432,602.00464 0.40121,4.12309 1.95304,0.65857 v 0 l 5.13366,-0.13121 v 0 l -4.53186,2.90307 3.43043,1.78019 0.70148,5.6358 6.36125,-11.63749 9.94183,-1.65023 8.66502,-5.24469 10.69377,0.62704 3.10493,-3.4317 5.73548,-0.82512 2.60405,23.71276 6.73595,-4.7804 0.35075,4.05495 2.50438,2.53845 5.23333,-0.79106 7.88911,17.55968 5.88562,4.57601 -0.30028,4.14958 7.43744,0.98787 6.83689,-2.83115 8.5149,7.83361 16.47844,-2.96237 v 0 l 4.08271,5.52982 9.24035,22.33125 5.73547,4.50284 1.47739,8.74073 3.25507,2.43121 5.73546,-0.98536 6.98704,1.51147 -0.85161,6.14172 -4.9091,9.6201 3.90734,6.07108 3.80641,24.8924 v 0 l -11.26908,2.16374 -6.31205,-1.54048 -3.004,6.22751 2.07795,10.02383 -6.53662,-1.27806 -11.46969,1.90006 -2.35424,2.02999 2.55484,3.83291 -8.23985,5.49954 -12.29606,-14.53802 -1.87734,-5.70141 -8.69026,-0.78601 -0.42645,-6.0635 -5.50963,-9.01451 -5.73421,-6.2313 -8.41523,-4.92045 -6.18461,1.01815 -1.52786,6.62368 -5.45917,-6.9517 -4.88387,1.90257 -9.61631,-1.93664 -6.78768,3.14908 -15.42623,-4.85484 v 0 l -0.67626,-7.97238 -3.85686,-5.21945 -4.05622,0.0316 -0.0504,-2.26468 -3.4052,-3.34842 -1.50389,-7.52072 -5.65978,-8.54138 -1.82687,-0.16402 4.85737,-7.3958 -1.8029,-11.50879 -11.54413,-15.29755 -3.35726,-15.83626 -5.25856,-8.72937 0.12616,-8.20578 2.00225,1.11907 2.17886,-2.20789 -2.10316,-1.81299 2.82989,-3.23109 -2.45519,-1.54931 2.15365,-1.81425 -0.27505,-2.43878 4.60882,-0.82513 2.25332,2.73654 z"
     class="land"
     title="Berat"
     id="AL-01"
     inkscape:connector-curvature="0"
     style="fill:#f7b7b7;fill-opacity:1;stroke:#ffffff;stroke-width:0.63082629;stroke-opacity:1" />
  <path
     d="m 515.18419,266.24105 3.98177,1.94421 5.25856,-1.70954 13.14896,-7.74024 0.34947,-3.95654 1.9543,-0.30153 7.78818,6.67035 -1.20235,14.54054 5.05922,7.36679 3.28029,1.23895 12.77171,-4.01837 0.57659,-8.03672 22.18741,0.5362 7.48792,-1.97701 -2.02748,-5.05923 4.30728,1.54175 v 0 l -0.0253,14.60236 2.9548,11.81663 -6.23509,0.0996 -0.32551,2.74411 -3.28029,1.27048 0.52484,2.67722 -3.65627,6.05341 -1.52786,8.82778 3.6323,12.19766 -3.33077,9.11923 2.67975,3.43926 -0.27629,4.70723 4.38298,4.87376 2.45391,6.20733 0.92731,7.17123 -8.64105,5.6358 -14.85092,2.33406 2.42995,2.66714 -0.0996,2.734 -4.23284,5.69888 0.15013,2.89928 5.3595,2.23313 -0.17537,2.6318 4.58233,3.09736 4.30854,13.2524 -0.70149,3.09483 7.86389,2.42995 -0.47691,2.49554 4.53312,3.72692 0.82638,2.89423 -3.80641,7.88154 1.52787,3.09232 -5.98529,7.08039 -0.35073,3.22353 -2.37822,2.45895 -4.4839,-3.32319 -1.87735,4.81826 4.85736,14.54811 v 0 l -19.73351,1.95935 -5.18412,-6.34233 -8.41397,4.88133 -5.5601,0.56396 2.75545,-4.58232 0.77592,-10.23074 -9.29081,-7.11068 0.77591,-6.71451 -5.20936,-4.32243 -8.33952,0.53242 -11.97056,9.80683 -4.68325,1.42819 v 0 l -2.50438,-5.58281 -9.54189,-0.0341 -12.77171,-16.727 -3.28029,0.59803 -6.68675,8.38241 -0.87685,-5.22197 -3.65627,-4.7905 -10.96881,-5.09077 -3.80641,-10.45153 -5.4087,-7.65949 -10.44396,-8.06069 -5.3595,-0.59929 v 0 L 420.67,363.32139 v 0 l -1.87734,-12.27714 -4.90909,-6.97694 -0.024,-10.3506 -7.98878,-9.78916 6.18463,-3.27525 5.40996,-5.78215 5.83514,6.58457 8.26383,0.50213 6.71199,-2.77438 12.54587,5.01255 2.42995,-5.24721 7.18763,-4.27827 3.4809,1.16956 2.92956,4.51293 3.03048,0.434 2.70499,-1.83822 0.45041,-3.64239 4.13191,-3.74459 3.88211,-7.45762 26.34582,-2.87658 -1.45342,-12.27966 -4.00575,-2.37696 0.55009,-9.9784 3.48089,-1.87481 2.02874,-7.06779 z"
     class="land"
     title="Dibër"
     id="AL-09"
     inkscape:connector-curvature="0"
     style="fill:#f7b7b7;fill-opacity:1;stroke:#ffffff;stroke-width:0.63082629;stroke-opacity:1" />
  <path
     d="m 328.81161,365.72235 9.041,1.73478 11.21988,-2.36686 v 0 l 28.449,9.50276 7.81341,0.70022 23.66609,-5.4352 11.67028,-6.53662 v 0 l 17.33006,22.00195 v 0 l -0.22583,4.86367 -11.8709,16.48349 -4.25681,-1.56444 -3.28155,2.49681 -8.11369,1.16451 -14.42574,11.64505 -6.58583,0.46555 -5.03399,-3.75847 -0.62578,-15.04394 -3.53137,1.83191 0.57658,3.66133 -5.034,2.46274 -4.25807,-2.12966 -3.65627,2.2962 -2.05398,-0.63209 -1.77766,2.92829 0.57658,15.80095 4.70723,8.17802 -1.55184,9.47123 1.8029,10.46289 -10.06673,15.47037 -4.83338,-4.0827 -8.8404,1.72594 -6.7612,-1.32725 v 0 l -2.12967,-6.33981 -5.90958,-8.03673 -8.08972,-1.89247 -0.52611,3.85308 -7.76295,-7.30749 0.60182,-18.54629 -7.98879,-10.6761 5.93481,5.02263 7.13717,-1.06357 3.43043,-6.35369 -0.47564,-4.25933 -2.27855,-0.13248 1.20236,5.55632 -2.60405,-6.65522 10.04276,-4.59241 7.31253,-10.48812 1.65277,-4.72994 -0.77592,-12.22793 -12.47144,-7.50052 -4.45741,-10.37205 z"
     class="land"
     title="Durrës"
     id="AL-02"
     inkscape:connector-curvature="0"
     style="fill:#f7b7b7;fill-opacity:1;stroke:#ffffff;stroke-width:0.63082629;stroke-opacity:1" />
  <path
     d="m 513.30559,440.56232 4.68325,-1.42819 11.97056,-9.80683 8.33952,-0.53242 5.20936,4.32243 -0.77591,6.71451 9.29081,7.11068 -0.77592,10.23074 -2.75545,4.58232 5.5601,-0.56396 8.41397,-4.88133 5.18412,6.34233 19.73351,-1.95935 v 0 l 0.42645,8.39882 2.45391,5.77458 -1.70323,4.77663 5.05922,11.01043 5.75945,2.18897 8.66502,17.53066 0.55135,3.3459 -3.10493,5.82884 4.35649,6.62115 v 0 l 3.00652,8.67008 -3.20587,18.82006 -2.88034,-5.02515 -12.14594,-1.05853 -10.61933,2.57882 -10.66727,7.00848 -6.73723,1.15693 -1.82813,2.61162 -2.37821,14.23902 -4.8334,5.91084 3.20461,8.45181 6.66152,7.78692 10.64331,18.46807 -1.62754,13.08333 -3.78117,7.83991 -3.78117,2.46905 -1.92907,4.74256 -7.13717,-2.43751 -12.14593,-0.7242 -4.48266,5.36707 -8.78993,-0.95506 1.6023,3.68654 v 0 l -16.47844,2.96237 -8.5149,-7.83361 -6.83689,2.83115 -7.43744,-0.98787 0.30028,-4.14958 -5.88562,-4.57601 -7.88911,-17.55968 -5.23333,0.79106 -2.50438,-2.53845 -0.35075,-4.05495 -6.73595,4.7804 -2.60405,-23.71276 -5.73548,0.82512 -3.10493,3.4317 -10.69377,-0.62704 -8.66502,5.24469 -9.94183,1.65023 -6.36125,11.63749 -0.70148,-5.6358 -3.43043,-1.78019 4.53186,-2.90307 v 0 l -5.13366,0.13121 v 0 l -1.95304,-0.65857 -0.40121,-4.12309 v 0 l 1.77893,-1.55057 -0.95255,-5.80738 -5.50964,-4.91667 2.65452,-11.95037 -3.15413,-15.42749 2.77942,-7.27089 -17.63034,-4.39687 -7.33776,0.69264 -8.74074,-12.2683 v 0 l 7.28731,-4.43471 2.60531,-7.8765 8.21336,-6.68675 1.10269,-5.6623 2.17887,-2.05397 2.70498,-0.33181 4.90783,3.71051 5.68501,-2.55105 3.356,0.52989 4.68325,-4.53817 3.3295,0.46429 1.85463,-4.93685 5.0832,-4.90404 12.42097,-4.93937 13.47319,-10.57769 10.34302,-17.71739 3.75721,-1.06231 5.90957,3.71682 5.56011,0.39869 11.87089,-8.03295 -0.80241,-7.57117 1.35248,-3.18946 16.80395,-7.7743 z"
     class="land"
     title="Elbasan"
     id="AL-03"
     inkscape:connector-curvature="0"
     style="fill:#f7b7b7;fill-opacity:1;stroke:#ffffff;stroke-width:0.63082629;stroke-opacity:1" />
  <path
     d="m 318.51905,556.40348 6.03574,-1.58716 -2.02874,-6.7776 2.55485,-2.54728 -0.4012,-2.18266 3.15539,1.7537 -2.22934,-4.13444 3.83164,-1.58842 5.03399,6.68171 1.02699,-5.45664 1.77767,2.4148 2.52961,-2.382 9.34128,2.34794 0.35073,-4.79681 4.48265,-0.39615 0.75069,-2.91316 4.88386,-1.42188 2.329,2.64694 2.75545,-2.67975 1.25283,0.36336 -0.75194,2.64821 2.75545,-2.01991 1.17711,3.27651 4.78419,-2.67975 4.20635,4.1357 v 0 l 8.74072,12.26957 7.33778,-0.69391 17.63034,4.39687 -2.77942,7.27089 3.15538,15.42875 -2.65451,11.95037 5.50964,4.91667 0.95128,5.80738 -1.77767,1.55057 v 0 l -3.98178,6.19976 -2.25456,-2.73652 -4.60756,0.82386 0.27504,2.44004 -2.15364,1.81425 2.45391,1.55057 -2.82988,3.23109 2.10317,1.81426 -2.17887,2.20789 -2.00351,-1.12035 -0.12617,8.20579 5.25857,8.72938 3.356,15.83752 11.54412,15.29754 1.8029,11.5088 -4.85862,7.39454 1.82813,0.16401 5.65978,8.54265 1.50262,7.52072 3.40521,3.34842 0.0504,2.26466 4.05621,-0.0316 3.85688,5.21945 0.67624,7.97238 v 0 l -6.11018,0.32929 -14.09897,14.75756 -4.50789,8.71802 -7.13717,3.89976 v 0 l -4.43344,-4.62017 -0.39994,-2.98255 -6.01052,-2.75293 2.55359,-8.59185 -0.42518,-6.03448 -6.51139,1.41053 -1.57706,-1.37773 3.80767,-10.26985 -9.71725,-0.16528 -17.27959,-10.89815 -2.17888,-0.13121 -2.47915,2.75923 -3.30552,-3.74332 -1.57708,1.87103 -2.30377,-0.52611 -0.35074,-4.66181 -2.10317,-1.14936 2.25457,-2.52961 -3.18062,-1.64268 -4.9583,3.4481 -1.10269,-7.09554 -5.18286,-0.78852 -0.92732,-3.54903 -8.13892,0.0316 2.10318,-4.99489 -5.53488,-2.72895 -2.40344,0.52611 -1.678,-2.66209 0.35074,-4.63657 -7.46268,3.12385 -1.27679,3.91365 -3.6058,-1.51272 -2.73022,-4.93054 -9.31604,-3.12511 -3.78118,0.88819 -4.1319,4.30729 -3.43044,-0.82134 v 0 l -1.35249,-2.36812 2.50439,-2.86143 2.60405,-0.5261 6.11144,-6.71074 4.45742,-9.17978 0.2006,-14.28947 0.50087,-2.70121 2.02874,0.23088 0.35074,-3.26136 -1.92781,-3.85561 2.17888,-8.3042 0.95129,1.48371 1.90383,-1.22003 1.82814,-1.18595 -1.678,-1.97827 -4.48265,1.74738 6.81166,-13.98036 3.7572,-0.69391 -3.25633,-8.28023 -0.57657,5.44404 -0.80115,-10.89059 4.58358,1.94799 -0.55134,-1.68305 -1.41557,-1.23515 -1.85211,-0.16654 0.73681,-1.73603 3.08095,-2.74031 9.69201,0.49583 -0.3255,-2.31136 1.5266,0.99041 -1.77767,-2.90559 4.43219,-5.9121 -4.10668,1.98079 4.93432,-4.85611 0.60181,-6.40919 -1.30202,-3.04058 -3.80641,-3.40393 -3.05573,-0.2637 2.45392,1.75118 -1.27679,-0.0316 z"
     class="land"
     title="Fier"
     id="AL-04"
     inkscape:connector-curvature="0"
     style="fill:#f7b7b7;fill-opacity:1;stroke:#ffffff;stroke-width:0.63082629;stroke-opacity:1" />
  <path
     d="m 437.07402,720.20129 15.42623,4.85484 6.78768,-3.14908 9.61631,1.93664 4.88387,-1.90257 5.45917,6.9517 1.52786,-6.62368 6.18461,-1.01815 8.41523,4.92045 5.73421,6.2313 5.50963,9.01451 0.42645,6.0635 8.69026,0.78601 1.87734,5.70141 12.29606,14.53802 8.23985,-5.49954 -2.55484,-3.83291 2.35424,-2.02999 11.46969,-1.90006 6.53662,1.27806 -2.07795,-10.02383 3.004,-6.22751 6.31205,1.54048 11.26908,-2.16374 v 0 l -2.12841,14.68059 3.05447,5.5336 5.7607,5.1425 -5.3595,12.50298 4.05747,6.08495 0.52611,11.74093 8.46442,23.69132 8.66504,11.10128 -0.45168,6.65774 6.73723,7.4059 3.6058,10.3405 4.55836,4.5634 v 0 l -2.25458,2.37948 -11.84565,1.6944 -10.04149,-6.12785 -5.68501,6.32466 -6.53663,-3.55407 -2.82989,0.29523 -7.78818,4.17102 -2.30377,3.29165 0.77592,4.20382 -4.18238,7.199 -1.02572,6.77381 -5.61057,2.247 -14.82569,-0.58667 8.23986,14.32102 -1.77893,7.41726 6.13541,4.55331 2.20411,5.43014 2.45518,1.46352 1.82687,6.75994 6.81293,9.22899 -1.37773,9.48257 -7.31254,8.14902 -7.58884,-5.74556 -11.76995,-4.41579 v 0 l -3.18064,-6.95045 -4.43218,-1.65781 -5.13366,-14.29957 -6.38649,-7.25071 0.45042,-11.05839 -9.41572,-2.92956 -5.65978,-6.18209 -8.06448,-4.00449 -7.0375,-7.09806 -1.50262,-4.33125 -15.6508,-15.99902 -3.58184,2.50944 -7.7642,-5.18162 -5.93481,4.66055 -2.92956,-0.68507 -10.2686,-22.0764 -11.54412,-8.74452 -4.33251,-14.07373 -6.31079,-10.02762 -0.6018,-6.20985 -2.85386,-5.32796 2.32774,-4.25051 -3.55533,-1.40548 -1.55309,-4.84096 -12.87265,-14.2655 14.32481,-14.86353 -4.33252,-3.93131 -2.62928,-5.66734 v 0 l 7.13843,-3.89977 4.50662,-8.71802 14.10023,-14.75755 z"
     class="land"
     title="Gjirokastër"
     id="AL-05"
     inkscape:connector-curvature="0"
     style="fill:#f7b7b7;fill-opacity:1;stroke:#ffffff;stroke-width:0.63082629;stroke-opacity:1" />
  <path
     d="m 612.70236,526.63226 15.12595,1.88617 15.17642,57.1516 18.90838,4.22527 3.85688,-2.0792 6.16065,-11.05965 13.92359,6.7019 10.41873,-1.74991 5.00876,3.99439 4.20635,5.90832 0.72671,32.28568 -1.60355,3.98683 -5.45918,4.01962 6.56185,2.69994 0.22458,8.16667 9.91785,9.18358 8.38999,14.34373 -0.10093,14.43457 -2.55485,2.8917 -1.22632,7.06399 0.35074,11.06848 -8.9161,1.5102 -2.12841,6.46723 -7.26334,4.62773 -0.19934,9.77655 -3.93131,5.11727 1.05096,1.50767 -7.4122,2.52583 -5.05924,-4.36154 -8.78993,1.57329 -7.18763,-3.01661 -5.53488,13.21328 -2.55358,-0.29522 -6.48616,4.65297 1.65277,4.35901 -1.35249,3.99692 0.82638,12.60769 -3.35599,1.96439 0.4504,2.71634 -4.75894,3.96033 1.32851,4.77787 -2.52961,2.55107 -4.45742,0.85035 -6.61232,11.31703 0.17663,5.1324 2.77942,2.32018 -0.2006,11.89486 -3.68151,5.68374 -7.03749,3.29797 -0.75068,7.86765 4.65802,4.27701 -4.45868,8.12504 0.62704,9.94813 -13.17291,1.76127 -4.48265,4.629 v 0 l -4.55836,-4.5634 -3.6058,-10.3405 -6.73723,-7.4059 0.45168,-6.65774 -8.66504,-11.10128 -8.46442,-23.69132 -0.52611,-11.74093 -4.05747,-6.08495 5.3595,-12.50298 -5.7607,-5.1425 -3.05447,-5.5336 2.12841,-14.68059 v 0 l -3.80641,-24.8924 -3.90734,-6.07108 4.9091,-9.6201 0.85161,-6.14172 -6.98704,-1.51147 -5.73546,0.98536 -3.25507,-2.43121 -1.47739,-8.74073 -5.73547,-4.50284 -9.24035,-22.33125 -4.08271,-5.52982 v 0 l -1.6023,-3.68654 8.78993,0.95506 4.48266,-5.36707 12.14593,0.7242 7.13717,2.43751 1.92907,-4.74256 3.78117,-2.46905 3.78117,-7.83991 1.62754,-13.08333 -10.64331,-18.46807 -6.66152,-7.78692 -3.20461,-8.45181 4.8334,-5.91084 2.37821,-14.23902 1.82813,-2.61162 6.73723,-1.15693 10.66727,-7.00848 10.61933,-2.57882 12.14594,1.05853 2.88034,5.02515 3.20587,-18.82006 -3.00652,-8.67008 v 0 z"
     class="land"
     title="Korçë"
     id="AL-06"
     inkscape:connector-curvature="0"
     style="fill:#f7b7b7;fill-opacity:1;stroke:#ffffff;stroke-width:0.63082629;stroke-opacity:1" />
  <path
     d="m 488.28828,45.461956 13.02151,7.177542 0.10094,3.282819 7.58758,11.265296 -1.22633,3.619682 6.81039,5.949953 1.7537,5.984018 -4.53312,5.643371 7.81342,7.027405 1.35249,3.546504 -0.3255,5.571454 -1.90384,1.5531 2.50565,4.31989 -0.42645,3.57805 3.38124,2.02495 8.23858,-1.78902 3.85688,2.93586 5.2838,-4.18364 4.55835,1.01185 2.0792,5.26361 10.21686,3.67772 2.70498,4.45237 13.47319,4.68704 16.1277,19.74991 4.78293,17.57734 3.65754,4.57728 2.42867,8.10864 -1.55309,4.87755 1.17713,3.4973 -2.70372,5.17782 3.9313,7.59641 5.98528,5.8137 0.77592,7.42229 7.21287,19.30329 -1.77893,7.74907 -10.61807,7.91434 4.38298,13.00512 -8.31429,2.84882 v 0 l -4.30728,-1.54175 2.02748,5.05923 -7.48792,1.97701 -22.18741,-0.5362 -0.57659,8.03672 -12.77171,4.01837 -3.28029,-1.23895 -5.05922,-7.36679 1.20235,-14.54054 -7.78818,-6.67035 -1.9543,0.30153 -0.34947,3.95654 -13.14896,7.74024 -5.25856,1.70954 -3.98177,-1.94421 v 0 l 2.0035,-16.35606 11.76995,-12.61274 -2.42867,-11.77879 1.65276,-5.84272 -5.2838,-6.65017 v 0 l -6.33602,-2.08172 -1.45342,-5.64463 -5.53361,-8.94007 -5.81118,5.81496 -5.88434,-1.44586 6.98703,-6.82428 -1.12666,-8.60826 2.80466,-5.88687 3.63103,-4.94567 8.99054,-6.53031 1.70323,-6.80031 -3.35599,0.16905 -9.66678,-4.84978 -1.80291,-3.40142 -9.51665,-0.67498 -5.18412,-5.35572 -7.18764,-0.84278 -10.09196,-7.58253 -5.08319,-0.135 -3.58184,-5.32796 -15.95233,2.76554 -8.61582,-2.39336 -5.60931,6.74228 -5.034,1.07871 -2.22807,2.45896 -6.91259,-5.93103 -0.62579,-3.1352 3.00526,-10.79218 -2.92956,-6.47732 -1.35249,-10.56382 -4.03224,-7.631734 2.32901,-9.66047 -4.73372,-11.827993 4.15714,-11.836824 v 0 l 2.22935,-4.159668 7.51313,-1.116563 2.45392,-4.737505 4.88385,3.619681 2.22935,-7.038759 6.48615,-3.28282 17.85491,2.03126 2.85511,-10.664749 8.16416,-2.810962 2.02874,-2.914417 7.81341,2.472839 3.03049,5.961308 z"
     class="land"
     title="Kukës"
     id="AL-07"
     inkscape:connector-curvature="0"
     style="fill:#f7b7b7;fill-opacity:1;stroke:#ffffff;stroke-width:0.63082629;stroke-opacity:1" />
  <path
     d="m 522.89793,213.00057 5.2838,6.65017 -1.65276,5.84146 2.42867,11.78005 -11.76995,12.61148 -2.0035,16.35732 v 0 l -7.18764,1.408 -2.02874,7.06779 -3.48089,1.87481 -0.55135,9.9784 4.00701,2.37696 1.45216,12.27966 -26.34582,2.87658 -3.88211,7.45762 -4.13191,3.74459 -0.45041,3.64365 -2.70499,1.83822 -3.03048,-0.434 -2.92956,-4.51294 -3.4809,-1.16954 -7.18763,4.27826 -2.42869,5.24721 -12.54714,-5.01255 -6.71072,2.77438 -8.26383,-0.50088 -5.83514,-6.58456 -5.40996,5.78215 -6.18588,3.27525 7.98878,9.78917 0.0253,10.35185 4.90909,6.97568 1.8786,12.27714 v 0 l -11.67028,6.53662 -23.66609,5.43521 -7.81341,-0.70022 -28.449,-9.50278 v 0 l 2.92955,-3.3358 0.25107,-4.3035 3.38123,-0.0328 1.77767,-7.17501 3.03049,5.93985 0.95129,-6.57321 -0.72671,-4.74003 -1.92781,-1.66916 -2.73022,-1.40169 -3.63103,1.43575 -1.45216,-2.26971 4.53312,-19.2402 -4.23159,-15.94729 2.30378,-4.24799 5.58533,-0.16653 0.55135,-11.00918 -2.20411,-4.41831 -4.05747,0.56901 -10.21813,-7.73394 -10.99404,-4.92297 v 0 l 2.10317,-6.96683 -1.30201,-7.17124 -9.46619,-8.71675 -0.65101,-3.68781 6.83689,-1.57708 15.65207,12.23804 5.53486,2.27854 2.57883,-2.74788 -2.22935,-6.57068 1.57707,-2.78321 -0.97652,-7.41221 3.8821,-2.61667 11.37002,3.32067 0.39994,6.84194 15.52716,-0.33559 5.98528,2.7832 5.63454,6.57069 6.03574,-5.76575 1.8029,-8.21589 4.80816,-1.30833 2.42868,-3.18693 2.27982,0.0341 4.20634,3.925 3.40646,0.20187 5.91084,-2.44887 1.4017,-3.55533 3.33076,-2.14734 6.8369,1.24146 5.50963,-4.26186 8.84041,29.54664 5.98527,-2.21168 8.11495,4.15589 8.71424,-16.56045 9.39174,-6.60728 2.82989,-10.06672 z"
     class="land"
     title="Lezhë"
     id="AL-08"
     inkscape:connector-curvature="0"
     style="fill:#f7b7b7;fill-opacity:1;stroke:#ffffff;stroke-width:0.63082629;stroke-opacity:1" />
  <path
     d="m 397.05439,11.23837 0.70149,4.611339 5.4087,6.711992 0.52611,3.728183 -5.88561,0.847831 -0.97652,2.506903 1.42819,3.421602 -2.52961,7.079132 3.85686,7.110674 1.2276,6.532837 3.7572,1.963131 3.15539,4.872502 9.14067,5.277493 v 0 l -4.15714,11.835562 4.73246,11.827993 -2.32901,9.660472 4.03224,7.630474 1.35249,10.56381 2.92956,6.47733 -3.00526,10.79217 0.62579,3.13521 6.91259,5.93228 2.22933,-2.46021 5.034,-1.07872 5.6093,-6.74226 8.61457,2.39335 15.9536,-2.76429 3.58057,5.3267 5.08319,0.135 10.09322,7.58253 7.18764,0.84278 5.18413,5.35699 9.51665,0.67371 1.8029,3.40142 9.66678,4.8498 3.35599,-0.16781 -1.70323,6.80031 -8.99053,6.52905 -3.63104,4.94568 -2.80466,5.88688 1.12666,8.60825 -6.98703,6.82428 5.88561,1.44585 5.80991,-5.81496 5.53486,8.94007 1.45217,5.64463 6.33602,2.08173 v 0 l -36.41256,17.05754 -2.82988,10.06673 -9.39174,6.60727 -8.71423,16.56045 -8.11495,-4.15587 -5.98529,2.21167 -8.8404,-29.54664 -5.50964,4.26186 -6.83689,-1.24147 -3.33076,2.14734 -1.4017,3.55534 -5.91084,2.44886 -3.40646,-0.20186 -4.20635,-3.925 -2.2798,-0.0341 -2.42868,3.18694 -4.80816,1.30833 -1.8029,8.21588 -6.03575,5.76575 -5.63454,-6.57069 -5.98528,-2.7832 -15.52716,0.3356 -0.39995,-6.84194 -11.37001,-3.32067 -3.8821,2.61667 0.97652,7.4122 -1.57707,2.78321 2.22935,6.57069 -2.57883,2.74787 -5.53486,-2.27854 -15.65206,-12.23803 -6.8369,1.57707 0.65101,3.68781 9.46618,8.71676 1.30203,7.17123 -2.10318,6.96685 v 0 l -19.05726,-4.52177 -3.15539,0.704 -3.98178,4.48896 -3.98177,-1.20614 2.60405,-11.59206 -9.67057,-7.80584 7.33777,-4.82835 -5.2081,-5.90327 0.0253,-5.19927 9.2908,-3.1882 -2.85512,-3.22099 1.30203,-4.39687 -2.42994,-6.14298 -0.62578,-11.01675 2.57882,-11.89613 5.3595,-10.05284 -30.25191,-25.6065 17.02978,-20.38073 1.97827,-5.39357 6.31079,-7.85631 0.67624,-5.02516 9.39175,-10.86409 -2.02874,-7.86514 2.25332,-1.6881 0.87685,-5.538642 3.03048,-3.512442 8.46443,-3.547768 6.58708,-13.214548 5.034,-3.583093 4.85862,-8.252469 5.3595,-9.709679 1.07745,-6.227516 13.32305,-9.41319 -1.17711,-11.855749 12.19639,-16.779978 5.30903,-0.780964 5.65978,-8.683954 4.58106,-1.96691633 2.30377,1.08502123 2.37949,5.156374 3.65627,1.4584703 z"
     class="land"
     title="Shkodër"
     id="AL-10"
     inkscape:connector-curvature="0"
     style="fill:#f7b7b7;fill-opacity:1;stroke:#ffffff;stroke-width:0.63082629;stroke-opacity:1" />
  <path
     d="m 438.00007,385.32465 5.3595,0.59929 10.44396,8.06069 5.4087,7.65949 3.80641,10.45153 10.96881,5.09077 3.65627,4.7905 0.87685,5.22197 6.68675,-8.38241 3.28029,-0.59803 12.77171,16.727 9.54189,0.0341 2.50438,5.58281 v 0 l -1.50264,2.52583 -16.80395,7.7743 -1.35248,3.18946 0.80241,7.57117 -11.87089,8.03295 -5.56011,-0.39869 -5.90957,-3.71682 -3.75721,1.06231 -10.34302,17.71739 -13.47319,10.57769 -12.42097,4.93937 -5.0832,4.90404 -1.85463,4.93685 -3.3295,-0.46429 -4.68325,4.53817 -3.356,-0.52989 -5.68501,2.55105 -4.90783,-3.71051 -2.70498,0.33181 -2.17887,2.05397 -1.10269,5.6623 -8.21336,6.68675 -2.60531,7.8765 -7.28731,4.43471 v 0 l -4.2076,-4.13696 -4.78293,2.67975 -1.17712,-3.27525 -2.75418,2.01865 0.75068,-2.64695 -1.25157,-0.36336 -2.75545,2.67975 -2.329,-2.64694 -4.88386,1.42188 -0.75069,2.91316 -4.48265,0.39615 -0.35073,4.79681 -9.34128,-2.3492 -2.52961,2.382 -1.77767,-2.4148 -1.02699,5.45664 -5.03399,-6.68171 -3.83164,1.58842 2.22934,4.13444 -3.15539,-1.75244 0.4012,2.18266 -2.55485,2.54728 2.02874,6.7776 -6.03574,1.58716 v 0 l 4.98352,-28.01626 -0.60054,-9.9658 -4.40821,-10.79722 5.33426,-0.66363 3.00526,-3.57805 2.90558,-13.25871 6.18588,-7.09679 2.40346,-5.9386 0.55134,-8.89212 v 0 l 6.7612,1.32725 8.8404,-1.72593 4.83338,4.0827 10.06799,-15.47038 -1.80416,-10.46415 1.55309,-9.47122 -4.70848,-8.17803 -0.57532,-15.80094 1.77767,-2.92956 2.05397,0.63335 3.65627,-2.29621 4.25681,2.12967 5.034,-2.46274 -0.57532,-3.66132 3.53011,-1.83192 0.62704,15.04395 5.03273,3.75846 6.58709,-0.46555 14.42448,-11.64505 8.11369,-1.16577 3.28155,-2.49681 4.25681,1.56571 11.8709,-16.48349 z"
     class="land"
     title="Tiranë"
     id="AL-11"
     inkscape:connector-curvature="0"
     style="fill:#f7b7b7;fill-opacity:1;stroke:#ffffff;stroke-width:0.63082629;stroke-opacity:1" />
  <path
     d="m 279.62608,719.90607 3.13017,3.14908 -1.85337,6.46093 -4.60756,-6.82176 -0.37471,-6.0698 z m 7.16367,-48.64175 3.43043,0.82134 4.13192,-4.30728 3.78117,-0.88821 9.31604,3.12511 2.73021,4.93054 3.60581,1.51272 1.27679,-3.91365 7.46267,-3.12385 -0.35073,4.63657 1.67799,2.6621 2.40345,-0.52612 5.53487,2.72896 -2.10317,4.99488 8.13891,-0.0316 0.92732,3.54903 5.18287,0.78854 1.10268,7.09553 4.9583,-3.4481 3.18062,1.64267 -2.25457,2.52961 2.10318,1.14937 0.35073,4.66181 2.30379,0.52611 1.57706,-1.87104 3.30553,3.74333 2.47915,-2.75924 2.17887,0.13121 17.2796,10.89816 9.71724,0.16528 -3.80767,10.26985 1.57707,1.37772 6.51138,-1.41052 0.42519,6.03448 -2.55359,8.59186 6.01051,2.75292 0.39995,2.98255 4.43345,4.62017 v 0 l 2.62928,5.66734 4.33251,3.93131 -14.3248,14.86353 12.87265,14.2655 1.55309,4.84097 3.55533,1.40548 -2.32901,4.2505 2.85512,5.32796 0.60181,6.20986 6.31078,10.02762 4.33252,14.07246 11.54412,8.74578 10.26859,22.07639 2.92956,0.68509 5.93482,-4.66055 7.7642,5.18161 3.58057,-2.50943 15.65206,15.99902 1.50263,4.33251 7.0375,7.09806 8.06448,4.00448 5.65978,6.1821 9.41571,2.92829 -0.45041,11.05965 6.38648,7.25072 5.13367,14.29957 4.43345,1.65655 3.18062,6.95044 v 0 l -3.75594,3.92878 4.43218,7.23937 -3.75719,5.58281 7.4879,11.32207 -9.69201,6.22751 -4.10668,5.08951 -0.42518,7.8765 -4.73246,-3.95528 -3.78243,-0.42013 -2.98002,6.02691 2.40344,4.6656 -1.27678,1.49005 -8.28906,0.4213 -15.32656,-3.23862 -9.44095,-8.65241 -3.6058,0.32425 -2.82988,-2.72265 -6.96307,-0.74563 -1.62753,-2.88415 -6.66152,2.30126 -0.80115,2.65704 -1.50263,-1.00428 -2.88036,-0.16275 -0.4504,-5.86668 3.53136,-6.7776 -0.70147,-5.38599 1.85336,-2.65957 -1.37773,-0.77843 -1.17711,2.85511 -0.82639,1.62249 -2.30378,-0.87559 -1.00175,-3.14655 2.70498,-5.09457 2.80466,1.07115 2.85512,-4.73877 -1.02699,-3.89472 -2.42867,-0.32551 v -1.45972 l 1.97826,-0.77971 2.82989,-5.87678 -0.72671,-5.71654 2.90559,-2.7605 -0.42645,-5.26361 -1.75243,-3.93258 -2.70499,1.59348 -3.33076,-1.91898 -1.15189,1.20235 -0.55134,-2.04766 -5.60931,-2.14481 -0.80114,-4.12813 -4.45742,0.61696 -1.15189,-2.63308 -4.7577,0.55261 -1.20235,-3.41403 2.35424,0.74816 1.37774,-4.4877 3.70672,-1.49758 -0.67624,-5.01002 -18.58162,-30.70736 -6.91134,-4.7577 -9.81691,1.49885 -0.75195,-2.21673 2.52961,-0.58666 -3.25505,-2.11832 v -2.02243 l -3.38123,-1.14054 -0.22458,4.53186 -2.25457,-7.30244 -4.50788,0.16401 0.5261,-6.00042 -4.45741,-0.58666 -4.7577,-4.14201 -3.58057,-0.0316 -0.2006,-2.8059 -10.39349,-1.56572 -4.35775,-4.92675 -12.29606,-6.69054 -3.40647,-3.78623 -11.06847,-4.08144 -16.0785,-9.99355 -22.43849,-27.03343 -1.90257,-2.97623 1.67799,-2.32271 -3.63103,-11.91127 -10.16767,-14.86604 -8.63979,-7.86136 8.03925,-5.73547 9.41697,5.47304 11.76996,14.7727 0.52611,11.52393 3.50614,6.54545 8.43918,-1.79911 6.93658,-6.18588 -1.2276,-9.98472 1.52786,-3.17685 -1.60356,-4.06126 3.88211,-10.94357 v -5.14628 l -8.13892,-4.36027 -8.69026,-11.57693 -6.06099,-2.09939 -3.68024,-6.13541 0.60056,-1.93664 -2.60405,-1.83823 -0.17537,-11.09623 -9.89262,-19.056 z"
     class="land"
     title="Vlorë"
     id="AL-12"
     inkscape:connector-curvature="0"
     style="fill:#f7b7b7;fill-opacity:1;stroke:#ffffff;stroke-width:0.63082629;stroke-opacity:1" />
  <g
     id="stadiums"
     data-country="albania"
     data-circle-radius="5"
     data-circle-colors="#a149be,#bea149"
     transform="translate(0,207.47357)" />
</svg>
