<?xml version="1.0" encoding="UTF-8" standalone="no"?>
<?xml-stylesheet type="text/css" href="/styles/home.css"?><!-- https://www.amcharts.com/svg-maps -->

<svg
   version="1.1"
   id="map-andorra"
   viewBox="0 0 999.99994 999.99999"
   width="999.99994"
   height="1000"
   sodipodi:docname="andorra.svg"
   inkscape:version="1.3.1 (91b66b0783, 2023-11-16)"
   xmlns:inkscape="http://www.inkscape.org/namespaces/inkscape"
   xmlns:sodipodi="http://sodipodi.sourceforge.net/DTD/sodipodi-0.dtd"
   xmlns="http://www.w3.org/2000/svg"
   xmlns:svg="http://www.w3.org/2000/svg"
   xmlns:rdf="http://www.w3.org/1999/02/22-rdf-syntax-ns#"
   xmlns:cc="http://creativecommons.org/ns#"
   xmlns:dc="http://purl.org/dc/elements/1.1/">
  <metadata
     id="metadata15">
    <rdf:RDF>
      <cc:Work
         rdf:about="">
        <dc:format>image/svg+xml</dc:format>
        <dc:type
           rdf:resource="http://purl.org/dc/dcmitype/StillImage" />
      </cc:Work>
    </rdf:RDF>
  </metadata>
  <sodipodi:namedview
     pagecolor="#ffffff"
     bordercolor="#666666"
     borderopacity="1"
     objecttolerance="10"
     gridtolerance="10"
     guidetolerance="10"
     inkscape:pageopacity="0"
     inkscape:pageshadow="2"
     inkscape:window-width="1920"
     inkscape:window-height="1106"
     id="namedview13"
     showgrid="false"
     showguides="true"
     inkscape:guide-bbox="true"
     inkscape:zoom="0.36457949"
     inkscape:cx="-142.63007"
     inkscape:cy="272.91716"
     inkscape:window-x="-11"
     inkscape:window-y="-11"
     inkscape:window-maximized="1"
     inkscape:current-layer="map-andorra"
     inkscape:showpageshadow="2"
     inkscape:pagecheckerboard="0"
     inkscape:deskcolor="#d1d1d1">
    <sodipodi:guide
       position="-298.36208,500"
       orientation="0,1"
       id="guide827"
       inkscape:locked="false"
       inkscape:label=""
       inkscape:color="rgb(0,0,255)" />
    <sodipodi:guide
       position="353.14658,908.11331"
       orientation="0,-1"
       id="guide1"
       inkscape:locked="false" />
  </sodipodi:namedview>
  <defs
     id="defs4">
    <style
       type="text/css"
       id="style2">
         .land {
            fill: #f5c32c;
            fill-opacity: 1;
            stroke: white;
            stroke-opacity: 1;
            stroke-width: 0.5;
         }
      </style>
    <!-- <amcharts:ammap
       projection="mercator"
       leftLongitude="1.409457"
       topLatitude="42.654913"
       rightLongitude="1.786852"
       bottomLatitude="42.426982" /> -->
    <!-- All areas are listed in the line below. You can use this list in your script. -->
    <!--{id:"AD-02"},{id:"AD-03"},{id:"AD-04"},{id:"AD-05"},{id:"AD-06"},{id:"AD-07"},{id:"AD-08"}-->
  </defs>
  <path
     d="m 618.79218,192.41671 25.56288,4.10065 4.05018,13.05904 3.83569,3.75998 3.06602,2.6749 15.83487,6.49794 3.62118,-1.58977 5.58951,-6.61153 2.99034,-0.54256 7.72185,1.91785 4.41609,-0.41638 5.19836,-2.03139 3.07866,-2.58658 5.51381,-0.52991 5.95541,-6.27088 7.93636,-1.66548 3.40669,0.25233 21.92906,8.31488 16.81901,-0.50469 8.28964,7.29285 9.70277,2.71276 21.0711,16.57927 17.92933,-0.66874 6.16991,-3.0534 7.16669,-0.70658 7.34331,2.46039 6.42227,0.22712 14.52264,-4.99649 2.6875,3.14172 2.95248,14.43434 -15.12828,15.78437 -6.4601,17.48772 -9.76587,8.10037 -4.1259,15.75915 0.50469,21.87859 1.26175,2.13235 3.93663,2.76319 13.55109,-0.90845 26.50919,2.58658 29.92848,15.40586 32.30056,8.95835 30.72339,-4.65582 6.38442,-2.5361 6.77554,0.2145 5.3624,12.57955 2.82629,2.97771 5.47591,13.38707 -5.9049,7.05313 -9.48829,8.55461 -7.87325,4.0502 -11.65849,8.30224 -12.76881,5.33716 -9.60186,-1.33744 -26.62272,0.47945 -15.45633,2.64966 -13.36184,10.90144 -16.57927,19.01444 v 0 l -32.67909,0.54255 -56.3872,-6.8134 h -10.40936 l -8.1887,-2.13235 -20.47804,-0.42899 -6.61153,1.70334 -2.83891,4.2647 -4.10066,3.4067 -4.7189,-2.13234 -3.4698,-5.96804 -3.45718,-1.27436 -6.62413,0.42899 -5.66522,7.2424 -12.92023,9.37473 -22.32018,22.43376 -14.48481,6.3844 -12.84451,-2.04402 -9.5766,-7.87327 -12.4534,-0.66872 -14.16935,-14.30815 -3.21742,-0.64348 -3.49504,0.76967 -3.78521,2.54872 -19.58223,4.22683 -10.20747,8.56723 -5.40025,8.51673 -4.40347,0.68135 -2.15758,-1.21128 -8.54199,2.10711 -6.19515,6.43489 -3.4067,1.5267 -5.66522,-0.34068 -5.03434,-1.70334 -4.71892,-6.51058 -8.31487,-4.59273 -112.58513,4.46656 v 0 l 14.82545,-9.31165 4.95863,-2.00617 3.00295,-5.11005 4.88294,-19.17846 v -7.88589 l -2.20804,-8.30225 -3.30577,-6.61152 -4.54226,-3.19221 -1.79168,-3.07863 -1.89261,-15.2166 -3.68427,-8.17609 1.79167,-29.25978 -2.17019,-12.79403 -2.05664,-1.40055 1.04724,-4.92078 3.07865,-2.66228 3.6969,-1.05986 5.89234,-6.33393 8.50412,-5.75353 4.54226,-8.70602 0.75705,-4.21421 -0.85798,-5.82926 2.83892,-17.00826 8.97096,-10.49768 18.06814,-5.00913 2.92722,-3.52023 4.25209,-2.76323 2.8263,-4.47917 6.93957,-6.80078 2.82631,-5.5769 5.99326,-5.75354 20.0112,-5.12267 7.39381,-0.21449 1.99353,-7.68401 -0.71918,-4.16373 -2.99032,-3.8357 -0.34068,-4.21422 2.38471,-10.40935 -5.66524,-9.29903 -1.22388,-4.97126 v 0 l 4.55488,-1.50149 9.37475,-8.80695 4.83247,0.82015 3.78521,5.53905 11.49447,-0.21451 6.53582,2.66226 16.47832,-3.48239 9.14763,0.25234 9.16024,-2.29637 4.83246,-5.32453 10.13177,-3.88617 9.22335,7.36858 z"
     class="land"
     title="Canillo"
     id="AD-02"
     inkscape:connector-curvature="0"
     style="fill:#f5c32c;fill-opacity:1;stroke:#ffffff;stroke-width:0.630871;stroke-opacity:1" />
  <path
     d="m 399.21143,481.56986 112.58513,-4.46656 8.31487,4.59273 4.71892,6.51058 5.03434,1.70334 5.66522,0.34068 3.4067,-1.5267 6.19515,-6.43489 8.54199,-2.10711 2.15758,1.21128 4.40347,-0.68135 5.40025,-8.51673 10.20747,-8.56723 19.58223,-4.22683 3.78521,-2.54872 3.49504,-0.76967 3.21742,0.64348 14.16935,14.30815 12.4534,0.66872 9.5766,7.87327 12.84451,2.04402 14.48481,-6.3844 22.32018,-22.43376 12.92023,-9.37473 5.66522,-7.2424 6.62413,-0.42899 3.45718,1.27436 3.4698,5.96804 4.7189,2.13234 4.10066,-3.4067 2.83891,-4.2647 6.61153,-1.70334 20.47804,0.42899 8.1887,2.13235 h 10.40936 l 56.3872,6.8134 32.67909,-0.54255 v 0 l -1.81692,3.31838 -1.50146,8.68076 -7.45689,9.81636 -1.00939,4.76936 1.51408,8.35274 -2.77582,23.01416 2.14496,24.41468 -5.17314,11.24212 -5.03436,5.28669 -2.77582,9.87943 -7.30547,8.85743 -8.32751,12.78143 -3.64641,2.53609 -0.12619,10.00559 10.83835,6.2961 1.89262,43.60577 -2.27114,4.51702 -15.88532,8.51676 -10.53553,17.10921 -10.25794,13.37445 -9.95514,6.97741 -5.28669,1.70336 -4.54227,-0.34067 -28.0359,-22.81228 -6.30867,-2.72535 -5.16054,-0.51733 -10.58601,2.72538 -14.97685,1.16081 -14.95163,3.60856 -12.22628,0.51731 -9.564,-1.3753 -6.19513,2.7506 -1.41315,3.19221 v 0 l -14.91378,-2.29638 -24.45255,-6.81339 -10.0813,-1.36267 -25.96661,-7.83542 -13.34924,-1.70335 -8.70601,-3.14173 -14.96424,-8.56723 h -7.39379 l -6.77556,6.39702 -10.56077,2.54873 -17.80316,-4.68107 -7.3812,-7.30548 -23.80903,-13.34921 -27.40502,-25.76473 -9.92989,-6.59892 -21.7398,-18.01767 -3.6212,-0.21448 -8.03729,4.47916 -6.61152,-3.19219 -6.13206,0.84537 -3.99973,3.24268 -5.76613,8.89526 -5.98067,3.1922 -6.62414,0.6435 -6.13205,-1.27437 -5.82924,-4.89555 -4.73154,-6.18252 -2.20804,-6.8134 -2.20804,-16.18815 v 0 l 4.7189,-6.68721 0.32805,-4.80725 -1.72858,-10.64908 1.56456,-5.32455 6.62414,-8.31486 9.45044,-8.51677 9.13499,-13.42492 2.83893,-14.2072 3.07865,-7.48214 v 0 z"
     class="land"
     title="Encamp"
     id="AD-03"
     inkscape:connector-curvature="0"
     style="fill:#f5c32c;fill-opacity:1;stroke:#ffffff;stroke-width:0.630871;stroke-opacity:1" />
  <path
     d="m 157.42404,265.50935 8.15084,11.015 12.04962,2.87677 4.25206,4.69368 5.66523,1.07248 14.6488,5.79138 2.37207,4.65584 4.40348,2.13234 7.70924,-1.82954 7.25501,3.53289 4.26468,10.01821 -0.79489,12.27673 3.02818,12.69314 -0.75705,14.939 1.5141,13.7025 2.72534,5.72831 4.07544,4.30254 4.69367,11.65847 8.16346,12.85714 9.37474,8.52938 10.88883,3.88615 2.72535,4.28992 4.54227,12.27676 6.19515,2.86414 3.63381,5.52643 0.75705,5.52641 -1.51409,3.46978 v 11.67112 l 3.33098,4.90816 0.85799,5.24886 2.47302,3.81045 14.3586,-2.10711 2.11975,1.42577 6.80076,0.82013 12.85714,4.30253 8.98361,5.0722 6.85124,1.81691 7.60828,-2.42255 8.0373,-0.20187 4.56752,-3.20481 7.07836,-1.70337 15.29228,3.19221 5.84188,3.83567 v 0 l -3.07865,7.48214 -2.83893,14.2072 -9.13499,13.42492 -9.45044,8.51677 -6.62414,8.31486 -1.56456,5.32455 1.72858,10.64908 -0.32805,4.80725 -4.7189,6.68721 v 0 l -1.65288,-2.0314 -2.76322,0.5804 -3.36885,3.19222 -16.85686,3.1922 -8.66815,-1.70335 -8.74387,-4.08805 -13.77821,0.89585 -4.46657,4.05018 v 0 l -5.36239,-2.76322 -5.98065,1.48884 -5.58951,8.73126 -4.58012,4.05019 -19.84719,2.11973 -4.08803,5.53904 -5.3624,4.26467 -8.1887,0.41638 -5.19838,1.50148 -3.93663,4.68107 -3.15435,1.70333 h -10.86358 l -7.25502,-1.48884 -12.9076,1.27435 -15.12828,5.75356 -9.61446,2.13234 -10.54816,6.59888 -9.04668,2.05663 v 0 l 0.95892,-1.69072 -1.36267,-6.53582 -13.14735,-31.07668 -8.02467,-13.488 -9.37474,-10.2201 -4.07542,-6.75033 -3.17958,-8.59244 -1.36269,-6.53582 0.30284,-5.32455 3.02815,-6.75031 0.0126,-6.62413 -2.11974,-2.86415 -18.534976,-10.75005 -4.504416,-1.79166 -9.526142,-1.07248 -4.239451,0.71918 -26.054947,14.16936 -7.053131,1.22389 -4.226832,2.15758 -13.664653,10.68693 -6.497966,0.82015 -4.731528,-1.48886 -1.059862,-5.3624 0.529932,-6.0942 5.867096,-6.48535 5.740919,-9.81636 3.028178,-3.06602 -0.340671,-16.80638 12.983315,-28.28824 9.261177,-10.75003 29.133595,-12.89499 4.504416,-2.86415 8.46628,-9.67755 0.794898,-7.87325 -3.444554,-9.67758 -2.637039,-1.79166 -11.92345,-2.15758 -9.273794,-5.0091 -18.270008,-27.22837 -1.059863,-3.58334 3.974485,-15.41848 9.803725,-3.93663 9.791108,-10.04345 6.624141,-4.28993 5.564276,-5.74093 3.444553,-15.05255 3.431935,-7.5326 0.794896,-10.68694 14.308148,-0.0631 7.40641,2.15759 11.70896,1.13558 4.23945,-1.22391 2.86415,-2.2585 3.48239,-9.00884 8.16348,-0.47945 3.44456,-2.86416 z"
     class="land"
     title="La Massana"
     id="AD-04"
     inkscape:connector-curvature="0"
     style="fill:#f5c32c;fill-opacity:1;stroke:#ffffff;stroke-width:0.630871;stroke-opacity:1" />
  <path
     d="m 510.16891,199.24273 1.22388,4.97126 5.66524,9.29903 -2.38471,10.40935 0.34068,4.21422 2.99032,3.8357 0.71918,4.16373 -1.99353,7.68401 -7.39381,0.21449 -20.0112,5.12267 -5.99326,5.75354 -2.82631,5.5769 -6.93957,6.80078 -2.8263,4.47917 -4.25209,2.76323 -2.92722,3.52023 -18.06814,5.00913 -8.97096,10.49768 -2.83892,17.00826 0.85798,5.82926 -0.75705,4.21421 -4.54226,8.70602 -8.50412,5.75353 -5.89234,6.33393 -3.6969,1.05986 -3.07865,2.66228 -1.04724,4.92078 2.05664,1.40055 2.17019,12.79403 -1.79167,29.25978 3.68427,8.17609 1.89261,15.2166 1.79168,3.07863 4.54226,3.19221 3.30577,6.61152 2.20804,8.30225 v 7.88589 l -4.88294,19.17846 -3.00295,5.11005 -4.95863,2.00617 -14.82545,9.31165 v 0 l -4.70629,-1.11036 v 0 l -5.84188,-3.83567 -15.29228,-3.19221 -7.07836,1.70337 -4.56752,3.20481 -8.0373,0.20187 -7.60828,2.42255 -6.85124,-1.81691 -8.98361,-5.0722 -12.85714,-4.30253 -6.80076,-0.82013 -2.11975,-1.42577 -14.3586,2.10711 -2.47302,-3.81045 -0.85799,-5.24886 -3.33098,-4.90816 V 443.9952 l 1.51409,-3.46978 -0.75705,-5.52641 -3.63381,-5.52643 -6.19515,-2.86414 -4.54227,-12.27676 -2.72535,-4.28992 -10.88883,-3.88615 -9.37474,-8.52938 -8.16346,-12.85714 -4.69367,-11.65847 -4.07544,-4.30254 -2.72534,-5.72831 -1.5141,-13.7025 0.75705,-14.939 -3.02818,-12.69314 0.79489,-12.27673 -4.26468,-10.01821 -7.25501,-3.53289 -7.70924,1.82954 -4.40348,-2.13234 -2.37207,-4.65584 -14.6488,-5.79138 -5.66523,-1.07248 -4.25206,-4.69368 -12.04962,-2.87677 -8.15084,-11.015 v 0 l 3.44456,-6.09421 16.86946,-21.87858 -6.96481,-15.56989 -1.93046,-11.8856 -3.75999,-7.1036 -5.19835,-3.331 1.77903,-10.87619 -2.05663,-5.80401 -3.94925,-4.06281 -0.75705,-4.70629 3.01557,-6.96482 1.05986,-6.76291 5.75353,-6.96482 4.20161,-0.75705 8.65553,-10.61123 0.45423,-18.43405 3.21743,-2.71273 0.25237,-15.31753 1.66548,-2.46039 26.15589,-0.51732 1.94308,-3.368845 4.8451,-1.640276 6.19515,0.69397 6.08158,8.617681 8.74386,16.13767 3.70952,2.87677 11.11594,1.07248 23.16557,-2.63706 15.35536,2.73801 3.78523,-4.70632 2.97772,-6.51056 14.4343,-9.05931 5.58952,-1.2365 10.4346,6.76293 5.2993,-1.48885 7.83542,-8.06254 4.40347,-0.89583 22.23188,-9.828961 4.69368,-0.214476 17.5382,12.289337 4.84508,-0.20188 5.74091,-5.740898 7.12884,-0.264979 6.00588,11.544927 4.83247,5.94279 4.8451,3.88617 12.64263,-1.28698 4.13851,9.69017 v 9.42522 l 1.96833,2.44776 5.28669,-0.39113 1.00938,3.02816 -0.12617,10.16964 5.74092,9.42521 10.4472,9.00883 18.44665,1.22387 5.28671,3.48241 16.64236,23.75858 z"
     class="land"
     title="Ordino"
     id="AD-05"
     inkscape:connector-curvature="0"
     style="fill:#f5c32c;fill-opacity:1;stroke:#ffffff;stroke-width:0.630871;stroke-opacity:1" />
  <path
     d="m 108.93533,656.25787 11.58278,9.76587 24.45254,16.09981 12.45339,9.7785 23.30434,14.27029 25.52502,22.13093 7.87327,4.03757 6.93957,1.28697 9.135,-3.62119 5.34978,-2.34684 12.92023,-9.7911 12.28937,1.70333 22.97628,8.94576 38.91209,1.70336 23.31699,2.97769 10.39672,-0.64348 v 0 l 0.63087,9.36211 2.04402,7.24239 3.15436,4.89556 14.88853,2.14496 1.96832,1.67813 1.72861,14.04317 16.85684,19.78408 4.05019,7.39381 v 0 l -2.90201,3.92402 -1.37529,8.54199 2.51086,12.52908 -0.89582,10.88881 2.044,12.59218 -0.8706,4.73153 -9.22331,1.51408 -4.3404,3.1922 -1.56455,35.08902 -2.76322,2.13234 -7.87326,1.05987 -5.90493,-2.66229 -7.8859,2.13236 h -7.87326 l -3.54549,-1.60242 h -3.93664 l -2.75058,3.19222 -10.8636,-1.16081 -4.22683,1.07247 H 313.8042 l -4.75677,4.87033 -10.23273,2.13234 -10.24533,4.78201 -24.02355,-3.19221 -8.26438,-4.78201 -1.42578,-2.17019 -13.4754,-6.63675 -10.59862,-2.51087 -30.44581,1.79168 -10.88881,-2.77584 -11.93608,-4.70629 -16.54142,-2.66227 -2.48561,-1.95571 -33.68849,-1.19865 -4.52965,-2.44776 -8.39058,-0.69397 -3.16696,-1.43838 -4.7694,-2.49825 -9.803718,-11.44399 -4.23945,-6.78816 v -1.07248 l 1.324828,-0.3659 5.728299,0.49207 -1.943076,-11.3052 -1.665499,-2.2459 -1.955697,-7.75971 -4.088039,-4.08802 -0.832751,-17.28587 13.765603,-15.368 -0.794901,-3.58334 -13.51325,-10.3715 -2.902002,-5.00912 -1.324829,-26.47133 2.473011,-8.706 -1.779055,-3.43195 -20.604227,-21.96689 -23.253883,-0.37854 -8.163462,-1.91785 -6.359174,1.79169 -2.523482,-0.93369 -3.633814,-5.96805 -7.557825,0.34068 -3.2805283,1.87999 -2.132341,-0.34065 -3.0281781,-3.58335 -1.5140892,-5.27408 1.8926113,-3.74737 9.8289603,-7.3181 7.30548,-8.68079 7.065748,-3.74737 8.314872,-0.17663 9.841578,-2.47302 27.026489,0.46686 8.579836,-1.69074 4.517033,-4.30255 9.336881,-1.82953 6.182541,-2.72535 z"
     class="land"
     title="Sant Julià de Lòria"
     id="AD-06"
     inkscape:connector-curvature="0"
     style="fill:#f5c32c;fill-opacity:1;stroke:#ffffff;stroke-width:0.630871;stroke-opacity:1" />
  <path
     d="m 298.19645,563.96153 2.20805,7.88588 5.51381,12.13795 8.02468,1.70336 8.35272,12.13793 2.6749,10.2201 6.62412,13.8413 3.30577,11.49446 -0.63087,4.25207 -5.51382,2.99033 -2.20803,3.60856 3.30576,12.35244 2.68751,2.97772 8.65554,19.69578 4.10066,1.48884 3.78522,11.91084 8.97097,11.92345 6.62414,12.13795 v 3.60857 l -8.31488,12.22628 v 0 l -10.39672,0.64348 -23.31699,-2.97769 -38.91209,-1.70336 -22.97628,-8.94576 -12.28937,-1.70333 -12.92023,9.7911 -5.34978,2.34684 -9.135,3.62119 -6.93957,-1.28697 -7.87327,-4.03757 -25.52502,-22.13093 -23.30434,-14.27029 -12.45339,-9.7785 -24.45254,-16.09981 -11.58278,-9.76587 v 0 l 2.25852,-2.66228 1.57718,-7.60829 11.99915,-11.74681 9.46307,-5.36241 17.31107,-16.85686 v 0 l 9.04668,-2.05663 10.54816,-6.59888 9.61446,-2.13234 15.12828,-5.75356 12.9076,-1.27435 7.25502,1.48884 h 10.86358 l 3.15435,-1.70333 3.93663,-4.68107 5.19838,-1.50148 8.1887,-0.41638 5.3624,-4.26467 4.08803,-5.53904 19.84719,-2.11973 4.58012,-4.05019 5.58951,-8.73126 5.98065,-1.48884 z"
     class="land"
     title="Andorra la Vella"
     id="AD-07"
     inkscape:connector-curvature="0"
     style="fill:#f5c32c;fill-opacity:1;stroke:#ffffff;stroke-width:0.630871;stroke-opacity:1" />
  <path
     d="m 298.19645,563.96153 4.46657,-4.05018 13.77821,-0.89585 8.74387,4.08805 8.66815,1.70335 16.85686,-3.1922 3.36885,-3.19222 2.76322,-0.5804 1.65288,2.0314 v 0 l 2.20804,16.18815 2.20804,6.8134 4.73154,6.18252 5.82924,4.89555 6.13205,1.27437 6.62414,-0.6435 5.98067,-3.1922 5.76613,-8.89526 3.99973,-3.24268 6.13206,-0.84537 6.61152,3.19219 8.03729,-4.47916 3.6212,0.21448 21.7398,18.01767 9.92989,6.59892 27.40502,25.76473 23.80903,13.34921 7.3812,7.30548 17.80316,4.68107 10.56077,-2.54873 6.77556,-6.39702 h 7.39379 l 14.96424,8.56723 8.70601,3.14173 13.34924,1.70335 25.96661,7.83542 10.0813,1.36267 24.45255,6.81339 14.91378,2.29638 v 0 l -1.72859,5.85447 -0.23973,35.7325 -2.59919,10.32104 0.22712,2.66228 3.07864,6.05635 3.74738,4.97126 v 3.93662 l -8.36535,6.54845 -7.51998,14.19458 -4.23945,2.15759 -12.45338,0.70657 -10.32104,-3.93662 -13.38706,7.99942 -7.19193,-1.5267 -3.4067,-5.2236 -4.65581,-0.56779 -11.59541,9.70278 -1.43839,4.55489 -3.39408,1.22388 -4.12589,-0.3659 -1.65289,-1.72858 -15.78438,-6.48534 -5.93017,4.22682 -11.92344,-1.42577 -6.0816,0.3533 -11.92345,2.86414 -13.23566,-3.58333 -7.94897,-6.0816 -9.79111,1.07247 -1.79168,2.08188 -15.0778,4.83246 -4.65582,4.59274 -10.0813,16.84423 -7.59568,25.29792 -2.64965,5.00911 -3.43194,2.14496 -5.14791,-0.92107 -12.33982,-13.38708 -8.73123,-11.79729 -2.42257,-5.57687 -3.05341,-2.95248 -7.00266,-0.40377 -4.18897,3.97449 -7.87327,-0.68133 v 0 l -4.05019,-7.39381 -16.85684,-19.78408 -1.72861,-14.04317 -1.96832,-1.67813 -14.88853,-2.14496 -3.15436,-4.89556 -2.04402,-7.24239 -0.63087,-9.36211 v 0 l 8.31488,-12.22628 v -3.60857 l -6.62414,-12.13795 -8.97097,-11.92345 -3.78522,-11.91084 -4.10066,-1.48884 -8.65554,-19.69578 -2.68751,-2.97772 -3.30576,-12.35244 2.20803,-3.60856 5.51382,-2.99033 0.63087,-4.25207 -3.30577,-11.49446 -6.62412,-13.8413 -2.6749,-10.2201 -8.35272,-12.13793 -8.02468,-1.70336 -5.51381,-12.13795 z"
     class="land"
     title="Escaldes-Engordany"
     id="AD-08"
     inkscape:connector-curvature="0"
     style="fill:#f5c32c;fill-opacity:1;stroke:#ffffff;stroke-width:0.630871;stroke-opacity:1" />
  <g
     id="stadiums"
     data-country="andorra"
     data-circle-radius="6"
     transform="matrix(1.0000709,0,0,1.0000709,-0.57643084,352.72185)" />
</svg>
