<?xml version="1.0" encoding="UTF-8" standalone="no"?>
<?xml-stylesheet type="text/css" href="/styles/home.css"?><!-- https://www.amcharts.com/svg-maps -->

<svg
   version="1.1"
   id="map-armenia"
   viewBox="0 0 1000 1000"
   width="1000"
   height="1000"
   class=""
   sodipodi:docname="armenia.svg"
   inkscape:version="1.3.1 (91b66b0783, 2023-11-16)"
   xmlns:inkscape="http://www.inkscape.org/namespaces/inkscape"
   xmlns:sodipodi="http://sodipodi.sourceforge.net/DTD/sodipodi-0.dtd"
   xmlns="http://www.w3.org/2000/svg"
   xmlns:svg="http://www.w3.org/2000/svg"
   xmlns:rdf="http://www.w3.org/1999/02/22-rdf-syntax-ns#"
   xmlns:cc="http://creativecommons.org/ns#"
   xmlns:dc="http://purl.org/dc/elements/1.1/">
  <metadata
     id="metadata20">
    <rdf:RDF>
      <cc:Work
         rdf:about="">
        <dc:format>image/svg+xml</dc:format>
        <dc:type
           rdf:resource="http://purl.org/dc/dcmitype/StillImage" />
        <dc:title />
      </cc:Work>
    </rdf:RDF>
  </metadata>
  <sodipodi:namedview
     pagecolor="#ffffff"
     bordercolor="#666666"
     borderopacity="1"
     objecttolerance="10"
     gridtolerance="10"
     guidetolerance="10"
     inkscape:pageopacity="0"
     inkscape:pageshadow="2"
     inkscape:window-width="1920"
     inkscape:window-height="1106"
     id="namedview18"
     showgrid="false"
     showguides="true"
     inkscape:guide-bbox="true"
     inkscape:zoom="1.6651181"
     inkscape:cx="115.30714"
     inkscape:cy="85.579514"
     inkscape:window-x="-11"
     inkscape:window-y="-11"
     inkscape:window-maximized="1"
     inkscape:current-layer="map-armenia"
     inkscape:showpageshadow="2"
     inkscape:pagecheckerboard="0"
     inkscape:deskcolor="#d1d1d1">
    <sodipodi:guide
       position="500,404.77498"
       orientation="1,0"
       id="guide827"
       inkscape:locked="false"
       inkscape:label=""
       inkscape:color="rgb(0,0,255)" />
    <sodipodi:guide
       position="1055.781,500"
       orientation="0,1"
       id="guide829"
       inkscape:locked="false"
       inkscape:label=""
       inkscape:color="rgb(0,0,255)" />
    <sodipodi:guide
       position="6.5822088,886.19149"
       orientation="1,0"
       id="guide1"
       inkscape:locked="false" />
  </sodipodi:namedview>
  <defs
     id="defs4">
    <style
       type="text/css"
       id="style2">
         .land {
            fill: #c45340;
            fill-opacity: 1;
            stroke: white;
            stroke-opacity: 1;
            stroke-width: 0.5;
         }

         .rectangle:hover {
            fill: #bdbdbd;
            cursor: pointer;
         }
      </style>
    <!-- <amcharts:ammap projection="mercator" leftLongitude="43.454090" topLatitude="41.300808" rightLongitude="46.632730" bottomLatitude="38.832890"></amcharts:ammap> -->
    <!-- All areas are listed in the line below. You can use this list in your script. -->
    <!--{id:"AM-AG"},{id:"AM-AR"},{id:"AM-AV"},{id:"AM-ER"},{id:"AM-GR"},{id:"AM-KT"},{id:"AM-LO"},{id:"AM-SH"},{id:"AM-SU"},{id:"AM-TV"},{id:"AM-VD"}-->
  </defs>
  <path
     d="m 236.22821,221.54374 8.25896,-1.08539 5.1525,2.89438 8.83286,10.65431 h 12.88748 l 1.83393,-9.19464 6.26286,-0.97311 h 5.52676 l 14.34715,8.70809 6.26284,-2.89438 7.73499,8.22154 -0.32436,14.18497 v 0 l -0.41172,2.74466 8.09679,10.1553 2.57001,6.76187 11.04107,13.04967 26.87283,5.78876 -3.30607,17.37876 -9.94321,15.44502 h -4.41642 l 1.09787,13.98535 -5.8761,12.52569 -1.84641,20.70979 -9.9432,-0.47408 -2.94429,7.69756 -22.4564,23.09268 -1.09787,3.36845 1.83394,3.36846 12.88748,-2.40782 2.20821,3.84254 0.73607,4.81565 -5.37706,12.68787 v 0 l -6.40008,10.85393 v 5.87609 0 l -35.51854,-13.6485 -9.04495,-10.08043 -14.89608,13.5487 -8.50848,-2.08345 -5.0527,-6.5997 -2.93181,1.03549 1.59691,25.00148 -3.73026,2.76962 -27.93327,-0.68617 -42.03092,-10.41728 -12.23874,-1.03549 -13.57364,-11.11592 -3.99225,-1.03549 -0.79845,-5.90104 -17.55342,-2.08346 -9.58141,-4.51623 -17.827899,1.38481 -8.658194,6.27531 v 0 l -10.005576,-4.4788 -2.470205,-13.19938 -14.384576,-15.80681 10.978688,-20.87199 -2.594963,-12.02665 -4.890506,-4.6909 v 0 l 18.139787,-3.85502 20.934361,-19.33745 11.889433,-1.08539 11.49019,-4.29167 11.49021,5.37706 13.5362,-2.69477 10.2551,5.91351 h 8.62076 l 9.43169,-5.37705 h 5.33964 l 5.73885,1.60937 7.38567,7.53537 5.73885,0.53646 6.97397,-3.23123 16.82984,1.60938 12.71282,-4.82812 4.51623,-4.30415 h 3.69283 l 1.64679,-8.59581 -6.98643,-8.07183 -0.39922,-4.84061 v -6.99891 l 3.69283,-9.68121 -14.77132,-2.14583 -1.23511,-12.38846 -9.43169,-14.54675 -0.41169,-5.926 1.22261,-5.926 10.26757,-9.70616 15.99395,-2.15831 z"
     class="land"
     title="Aragac̣otn"
     id="AM-AG"
     inkscape:connector-curvature="0"
     style="fill:#c45340;fill-opacity:1;stroke:#ffffff;stroke-width:0.62378907;stroke-opacity:1" />
  <path
     d="m 297.09755,529.88269 -5.18992,-6.77435 -12.00171,-4.7408 v 0 l 2.22069,-23.31723 -7.44803,-9.70617 0.26197,-8.65818 10.1054,-2.43278 13.57364,0.34932 12.7253,3.1439 v 0 l 8.23401,8.17163 11.04108,2.39535 12.88748,9.58141 8.09679,-8.14668 9.56891,-1.9088 13.26176,-10.55451 6.4375,-10.31748 v 0 l -0.73607,17.26649 4.04216,6.23788 14.35961,1.92128 2.5825,-0.96064 1.83394,-6.71198 h 4.41643 l 6.62464,-4.80317 4.41642,0.48655 4.05463,-8.63323 21.90747,-1.19768 5.1525,-11.51514 5.51429,-2.40783 5.88857,0.48656 6.63713,-2.88191 31.22687,-0.1497 v 0 l 1.70918,3.26865 -4.41642,23.99093 v 12.4633 l 26.13676,39.74784 1.47215,32.52437 -1.83395,15.78186 2.47022,4.41642 v 0 l -9.46913,7.5229 -4.05462,6.67455 -2.81954,14.64656 v 0 l -10.08042,5.37707 -6.26285,11.88941 -14.20991,7.28586 -64.01324,7.28586 -1.04797,-7.85974 -7.24842,-1.53452 -5.75135,-11.9518 -5.26477,0.0499 2.13336,-8.23401 -2.89438,-2.25812 -7.14862,2.34544 -16.70508,-11.15334 1.22263,-5.20241 -7.44805,1.13531 -1.44718,-10.08043 -10.18024,-10.86642 -2.07099,-10.66679 -10.74165,-9.14474 -10.67926,-15.61969 -7.18605,-2.08345 -14.43448,-12.0516 z"
     class="land"
     title="Ararat"
     id="AM-AR"
     inkscape:connector-curvature="0"
     style="fill:#c45340;fill-opacity:1;stroke:#ffffff;stroke-width:0.62378907;stroke-opacity:1" />
  <path
     d="m 74.055517,424.13796 8.658194,-6.27531 17.827899,-1.38481 9.58141,4.51623 17.55342,2.08346 0.79845,5.90104 3.99225,1.03549 13.57364,11.11592 12.23874,1.03549 42.03092,10.41728 27.93327,0.68617 3.73026,-2.76962 -1.59691,-25.00148 2.93181,-1.03549 5.0527,6.5997 8.50848,2.08345 14.89608,-13.5487 9.04495,10.08043 35.51854,13.6485 v 0 l 5.98838,10.64185 -2.13336,14.55923 2.27059,1.57196 -1.11034,7.64765 v 0 l -12.7253,-3.1439 -13.57364,-0.34932 -10.1054,2.43278 -0.26197,8.65818 7.44803,9.70617 -2.22069,23.31723 v 0 l -4.45385,-2.43277 -5.28974,1.38481 -6.21293,-5.10259 -6.08819,-0.64875 -10.23014,2.88191 -2.1583,2.55754 -8.67067,0.43665 -1.27254,3.15637 -19.52459,-0.14971 -3.13143,-2.27059 -14.80875,3.38093 -24.14065,-0.57389 -7.34822,3.21877 -19.8864,0.12475 -31.06469,-16.26843 -11.11592,-8.44609 -15.919106,-0.0624 -7.148623,-6.27531 -10.329948,-4.26672 -4.391475,-5.60162 0.548934,-9.0699 4.129484,-5.71391 15.607203,-4.20434 -1.996125,-5.40201 -17.80294,-16.44308 0.88578,-3.28113 9.057417,-0.66122 -0.07486,-11.60248 z"
     class="land"
     title="Armavir"
     id="AM-AV"
     inkscape:connector-curvature="0"
     style="fill:#c45340;fill-opacity:1;stroke:#ffffff;stroke-width:0.62378907;stroke-opacity:1" />
  <path
     d="m 306.32962,443.32571 v -5.87609 l 6.40008,-10.85393 v 0 l 4.64099,5.09012 14.35963,-0.48655 16.19356,-5.76381 8.47106,1.44719 2.57,8.15915 20.98427,16.33081 3.68036,6.23789 -2.75715,9.35683 v 0 l -6.4375,10.31748 -13.26176,10.55451 -9.56891,1.9088 -8.09679,8.14668 -12.88748,-9.58141 -11.04108,-2.39535 -8.23401,-8.17163 v 0 l 1.11034,-7.64765 -2.27059,-1.57196 2.13336,-14.55923 z"
     class="land"
     title="Erevan"
     id="AM-ER"
     inkscape:connector-curvature="0"
     style="fill:#c45340;fill-opacity:1;stroke:#ffffff;stroke-width:0.62378907;stroke-opacity:1" />
  <path
     d="m 641.36674,289.63656 -4.44138,-1.16025 -4.8905,-18.46416 7.99698,-12.25121 10.95374,1.35985 6.0757,6.7993 -1.33491,10.10539 -8.4461,4.66594 -2.80705,7.38566 z m -211.72648,-22.74335 13.84811,0.23703 16.74251,-15.96899 17.91521,10.89135 7.54785,1.17273 14.82123,-2.86943 19.49965,-20.67237 11.40286,-5.45192 21.25873,-3.5556 18.58891,4.26672 9.7436,4.65347 18.77605,17.64075 v 0 l -2.08346,7.44804 7.80985,7.84727 -1.16026,9.59388 5.15251,4.79069 8.88275,0.38676 7.41062,7.95954 -4.89052,6.98644 1.63434,4.85308 -3.25618,5.23983 1.18519,6.59969 4.76575,6.98644 15.12065,10.26757 0.83587,6.33769 6.36265,6.97396 11.70229,6.97397 8.2964,-0.58636 4.59109,2.90686 10.51708,9.88082 1.03548,5.22735 4.7408,6.38759 13.47385,0.19961 6.83673,5.22737 14.18496,3.09399 6.77435,8.17163 25.52545,7.31082 6.35017,6.949 14.3721,-0.37427 8.44611,6.18799 0.0374,7.22348 -5.78876,1.58442 -0.17466,2.8819 12.78768,16.77993 -4.65346,10.4048 -2.05851,23.09267 -15.68206,7.87222 1.17272,12.37598 -8.60829,21.54567 -11.14087,3.55561 -1.87136,6.68701 -2.07098,0.7735 -14.35962,-13.47385 -4.7408,1.92127 -24.989,-1.09786 -6.36264,-2.12089 -6.51237,3.46827 -10.21766,0.18713 -2.79457,2.66982 -1.78403,8.30888 -7.3233,0.0998 v 0 l -6.26284,-4.46633 -9.9432,-0.47408 -2.20821,7.18605 -7.36071,5.73886 -15.4575,3.83007 -35.70568,1.92126 -29.44285,10.51709 -16.19356,12.43836 -12.88748,14.33467 -7.46052,3.46826 v 0 l -2.48269,-4.4289 1.84642,-15.76938 -1.47214,-32.52437 -26.13676,-39.74784 v -12.4633 l 4.41642,-23.99094 -1.70918,-3.26864 v 0 l -1.42223,-3.20629 -6.26285,-3.84254 -4.77823,0.48656 -4.41643,-2.39535 -5.51428,-7.68508 -2.20822,-14.89609 -4.7408,-8.03439 -12.77521,-59.52196 9.78102,-12.81263 -12.88748,-3.36846 -7.26091,-6.59969 -7.77241,-24.50244 -10.36738,-5.07764 -0.23703,-36.16729 v 0 z"
     class="land"
     title="Geġark'unik'"
     id="AM-GR"
     inkscape:connector-curvature="0"
     style="fill:#c45340;fill-opacity:1;stroke:#ffffff;stroke-width:0.62378907;stroke-opacity:1" />
  <path
     d="m 427.93108,266.46903 0.23704,36.1673 10.36737,5.07763 7.77241,24.50244 7.26091,6.5997 12.88748,3.36845 -9.78102,12.81264 12.7752,59.52194 4.74081,8.03441 2.20821,14.89608 5.51429,7.68508 4.41642,2.39535 4.79071,-0.47408 6.25036,3.84254 1.42224,3.20629 v 0 l -31.22687,0.1497 -6.63713,2.88191 -5.88857,-0.48656 -5.51429,2.40783 -5.1525,11.51514 -21.90747,1.19768 -4.05463,8.63323 -4.41642,-0.48655 -6.62464,4.80317 h -4.41643 l -1.83394,6.71198 -2.5825,0.96064 -14.35961,-1.92128 -4.04216,-6.23788 0.73607,-17.26649 v 0 l 2.75715,-9.35683 -3.68036,-6.23789 -20.98427,-16.33081 -2.57,-8.15915 -8.47106,-1.44719 -16.19356,5.76381 -14.35963,0.48655 -4.64099,-5.09012 v 0 l 5.37706,-12.68787 -0.73607,-4.81565 -2.20821,-3.84254 -12.88748,2.40782 -1.83394,-3.36846 1.09787,-3.36845 22.4564,-23.09268 2.94429,-7.69756 9.9432,0.47408 1.84641,-20.70979 5.8761,-12.52569 -1.09787,-13.98535 h 4.41642 l 9.94321,-15.44502 3.30607,-17.37876 -26.87283,-5.78876 -11.04107,-13.04967 -2.57001,-6.76187 -8.09679,-10.1553 0.41172,-2.74466 v 0 l 15.40758,-11.27811 23.56675,-1.4472 5.88858,2.89438 h 5.88856 l 3.68036,-2.4203 h 5.52676 l 47.86959,21.25874 v 0 l 2.94427,4.37899 v 0 z"
     class="land"
     title="Kotayk'"
     id="AM-KT"
     inkscape:connector-curvature="0"
     style="fill:#c45340;fill-opacity:1;stroke:#ffffff;stroke-width:0.62378907;stroke-opacity:1" />
  <path
     d="m 450.43739,15.880478 3.2437,7.373188 8.25897,4.304144 2.35793,3.90492 -0.87331,3.904919 -7.38567,8.209065 -9.14475,3.131421 -6.49988,6.250367 6.06322,7.086244 19.1129,11.876945 5.55173,7.048816 -1.89632,7.635179 -4.3291,5.863618 -11.65237,6.312756 -22.76831,5.86361 -5.77628,10.85392 1.65927,12.31361 7.11119,4.6909 21.32112,5.51429 3.66788,5.71391 v 4.10453 l -1.67175,3.80511 -6.10067,3.95483 -7.33575,27.07244 -10.7666,9.49408 -14.65904,8.1342 -5.11508,8.77048 -0.88577,7.44804 9.55644,6.42502 -5.77628,5.98838 0.54893,3.5057 9.34436,12.66292 -4.76574,15.969 v 0 l -47.86959,-21.25874 h -5.52676 l -3.68036,2.4203 h -5.88856 l -5.88858,-2.89438 -23.56675,1.4472 -15.40758,11.27811 v 0 l 0.32436,-14.18497 -7.73499,-8.22154 -6.26284,2.89438 -14.34715,-8.70809 h -5.52676 l -6.26286,0.97311 -1.83393,9.19464 h -12.88748 l -8.83286,-10.65431 -5.1525,-2.89438 -8.25896,1.08539 v 0 -2.61991 l -18.87586,1.08538 -0.4117,-7.56032 -9.43168,-4.31662 -10.2551,1.62186 -6.57475,-11.87695 -1.22262,-19.44975 2.86943,-5.95094 10.25509,-7.56032 11.07849,-1.62185 4.51625,-3.25618 2.86942,-3.78016 -1.6468,-9.7436 h 5.75134 l 4.10453,-4.32909 5.32716,-12.98729 -4.91546,-2.70724 -16.82983,0.53646 -0.4117,-17.86534 -3.28114,-4.87802 -4.50376,-1.63432 -3.69282,-10.841464 -11.0785,-3.243702 -6.97396,-6.512358 -0.4117,-23.329713 3.16885,-8.957611 v 0 l 11.04106,-4.22929 27.47167,-0.174661 7.14863,-21.645481 7.75994,3.979774 6.76187,-0.785975 9.61882,9.31941 5.0028,1.472141 8.64571,-1.971172 7.64766,5.888568 3.50569,-0.237039 4.26672,-13.124523 7.51042,4.279192 7.78489,8.845331 6.59969,2.008601 9.49407,6.811776 5.11507,-0.586361 9.74358,-5.551724 6.18798,-11.65238 2.10842,-0.436652 1.44719,0.873305 -1.99613,11.178301 13.77327,-5.002789 4.3291,5.302207 6.66206,-19.711735 10.21766,2.495157 10.87889,-1.759086 3.55559,7.947074 8.37125,0.810925 2.81954,5.302207 6.10065,-5.414489 20.33552,-0.935684 10.45471,4.391475 11.32801,1.010538 5.09012,-1.958697 -1.53453,-3.842541 -6.63711,0.698644 -13.79821,-4.316621 -6.93653,-7.847267 -0.71112,-10.828978 2.79457,-9.2695055 5.80124,-0.54893443 6.40007,7.93459603 12.43836,4.1544359 z"
     class="land"
     title="Loṙy"
     id="AM-LO"
     inkscape:connector-curvature="0"
     style="fill:#c45340;fill-opacity:1;stroke:#ffffff;stroke-width:0.62378907;stroke-opacity:1" />
  <path
     d="M 87.080235,202.19382 85.845132,196.81675 78.584227,186.68642 76.962375,177.3171 78.733936,162.88262 76.076595,149.808 59.633514,135.14896 47.170208,127.62607 40.433286,126.70286 30.889312,118.20684 17.016243,116.32299 13.747588,111.00832 13.198654,93.155471 7.4597943,86.91758 6.3244981,81.577945 11.526899,70.973531 l 6.000851,0.01247 21.321112,-7.809841 6.562261,0.486556 10.691744,6.861681 4.815653,-1.958699 18.875857,-0.499031 21.433403,10.779076 10.30499,-13.24928 15.45751,-9.281982 28.13287,-3.917395 10.18023,3.430838 9.9931,-7.348235 10.35491,1.285006 v 0 l -3.16885,8.957611 0.4117,23.329713 6.97396,6.512358 11.0785,3.243702 3.69282,10.841471 4.50376,1.63432 3.28114,4.87802 0.4117,17.86534 16.82983,-0.53646 4.91546,2.70724 -5.32716,12.98729 -4.10453,4.32909 h -5.75134 l 1.6468,9.7436 -2.86942,3.78016 -4.51625,3.25618 -11.07849,1.62185 -10.25509,7.56032 -2.86943,5.95094 1.22262,19.44975 6.57475,11.87695 10.2551,-1.62186 9.43168,4.31662 0.4117,7.56032 18.87586,-1.08538 v 2.61991 0 l -1.23511,14.11011 -15.99395,2.15831 -10.26757,9.70616 -1.22261,5.92599 0.41169,5.92601 9.43169,14.54675 1.23511,12.38846 14.77132,2.14583 -3.69283,9.68121 v 6.99891 l 0.39922,4.84061 6.98643,8.07183 -1.64679,8.59581 h -3.69283 l -4.51623,4.30415 -12.71282,4.82812 -16.82984,-1.60938 -6.97397,3.23123 -5.73885,-0.53646 -7.38567,-7.53537 -5.73885,-1.60937 h -5.33964 l -9.43169,5.37705 h -8.62076 l -10.2551,-5.91351 -13.5362,2.69477 -11.49021,-5.37706 -11.49019,4.29167 -11.889433,1.08539 -20.934361,19.33745 -18.139787,3.85502 v 0 l -6.649592,-6.57473 -5.763811,-1.34738 -3.568074,-7.0114 2.894381,-1.01053 0.411701,-4.56614 18.364351,-13.46137 3.630452,1.70918 1.546998,-7.2609 5.015264,2.38287 -1.858892,-11.21572 8.69562,-2.61992 5.776288,-6.7993 10.504607,-20.98426 2.3704,-10.69175 6.275318,-8.54591 -2.570012,-14.98341 2.145836,-7.64766 z"
     class="land"
     title="Širak"
     id="AM-SH"
     inkscape:connector-curvature="0"
     style="fill:#c45340;fill-opacity:1;stroke:#ffffff;stroke-width:0.62378907;stroke-opacity:1" />
  <path
     d="m 741.9465,715.31024 -2.81952,-11.16583 -6.67455,-6.32522 -19.79906,-4.67842 v 0 l -1.6468,-33.68461 4.96536,-12.85005 -3.54312,-14.08516 0.94815,-11.9518 18.91328,-27.59644 8.93267,-5.46439 v 0 l 4.45385,12.35103 15.84425,4.22929 11.26563,7.66013 15.53235,1.54699 3.40589,2.12089 6.64959,7.48548 2.75714,8.67067 7.43557,6.949 2.40783,6.28779 7.87222,4.903 -1.62186,3.61796 1.1852,4.40396 1.92128,1.73412 5.62657,-4.02967 3.11895,0.57389 10.95373,11.88942 9.18217,6.31275 2.10842,4.30414 1.14776,17.57838 6.0757,-5.4145 19.53708,0.57389 18.801,-12.43835 15.51988,-1.17272 3.21874,9.26949 4.99032,-0.5614 6.69949,-7.09873 1.78404,0.76103 -1.33491,18.95071 1.77156,3.25619 6.91158,1.98364 2.69477,-2.39535 4.52872,1.53452 3.66787,-3.094 15.71949,-1.98364 10.90383,5.87609 5.17745,6.31275 0.59884,7.64765 -9.90578,-2.7821 -13.91049,10.96621 1.1852,6.82425 12.16389,13.63603 -10.94126,-2.49516 -4.81566,-4.36652 -11.66485,13.93544 -16.45555,-2.37039 -6.72446,11.9518 0.64874,11.55257 6.67455,12.7752 20.95931,14.09764 8.78295,-5.926 8.90771,11.73971 0.13724,3.54312 -3.99225,5.71391 8.9077,14.33467 8.64572,3.00666 4.3291,8.42115 11.73971,2.70725 -17.19163,3.21876 -0.21208,5.53924 -10.44224,14.06021 -2.66981,-1.89631 -2.66981,-13.12453 -3.55561,-1.28501 -2.50764,3.08152 0.43666,7.33576 -11.72724,-7.04881 -6.4375,-0.19962 -2.29554,2.61991 2.69476,15.30778 8.39621,3.46827 4.81565,-2.0585 2.66982,1.6468 -2.33298,7.39814 5.09012,3.49323 1.30996,7.14862 7.80984,7.07377 -4.30415,8.25897 7.69756,3.50569 -4.20433,7.64765 3.25618,14.62162 -7.54785,2.64486 1.03548,9.29447 -6.51235,5.12753 -0.14972,2.84449 0.44914,4.1669 9.76853,15.73197 2.47022,9.95568 -3.10648,2.30801 -2.93181,-0.89825 -2.03355,-6.53732 -10.6668,1.72167 -9.20713,-4.55367 -8.88276,0.5115 -3.91739,2.65735 -14.8836,-11.00364 -7.54785,-1.32243 -9.48159,7.01139 -9.33189,-0.76103 -0.13723,8.33384 -2.22069,3.03161 -2.66981,-0.18714 0.58635,-7.19853 -3.10646,-2.64486 -3.70531,10.21766 h -5.17745 l -1.1852,2.84448 2.89439,7.61023 -1.48464,1.52204 -3.43084,-3.84256 v 0 l -0.24951,-0.66123 v 0 l -5.80123,-1.74658 -6.36264,7.57283 -2.95676,-1.50959 0.13723,-4.74079 -2.07098,-1.50958 -2.98171,8.73304 -4.56614,-0.39925 1.48462,-19.51209 -8.29639,-20.46028 -3.81759,-30.79023 -7.58528,-6.30028 -0.73607,-18.22711 -1.92126,-3.41837 -13.14948,-7.90964 0.18713,-12.33855 -6.00085,-8.08431 1.47214,-8.90771 -4.32909,-4.39147 -1.0355,-11.47771 -0.32436,-13.59861 3.63045,-4.55367 0.58636,-6.10065 -2.47021,-8.44611 -10.32994,-2.48268 -31.87562,-22.94296 -14.59667,-1.84641 -6.35017,-5.38954 -0.76103,-8.97009 14.34716,-22.29423 -1.68423,-9.781 -4.25425,-6.44999 0.97311,-12.92491 z"
     class="land"
     title="Syunik'"
     id="AM-SU"
     inkscape:connector-curvature="0"
     style="fill:#c45340;fill-opacity:1;stroke:#ffffff;stroke-width:0.62378907;stroke-opacity:1" />
  <path
     d="m 599.79744,257.23696 -18.76357,-17.64075 -9.74359,-4.65347 -18.58891,-4.26672 -21.27121,3.5556 -11.40286,5.45192 -19.49966,20.6599 -14.82122,2.86942 -7.54786,-1.16025 -17.91522,-10.89135 -16.74249,15.95652 -13.86059,-0.22456 v 0 l -5.86363,-1.4472 v 0 l -2.94427,-4.37899 v 0 l 4.76574,-15.969 -9.34436,-12.66292 -0.54893,-3.5057 5.77628,-5.98838 -9.55644,-6.42502 0.88577,-7.44804 5.11508,-8.77048 14.65904,-8.1342 10.7666,-9.49408 7.33575,-27.07244 6.10067,-3.95483 1.67175,-3.80511 v -4.10453 l -3.66788,-5.71391 -21.32112,-5.51429 -7.11119,-4.6909 -1.65927,-12.31361 5.77628,-10.85392 22.76831,-5.86361 11.65237,-6.312756 4.3291,-5.863618 1.89632,-7.635179 -5.55173,-7.048816 -19.1129,-11.876945 -6.06322,-7.086244 6.49988,-6.250367 9.14475,-3.131421 7.38567,-8.209065 0.87331,-3.904919 -2.35793,-3.90492 -8.25897,-4.304144 -3.2437,-7.373188 v 0 l 1.82146,-5.514295 5.43943,5.82619 12.82512,1.784037 5.50181,-7.610227 12.93738,-9.91824627 11.88943,19.96125027 -2.24565,12.014178 -5.78876,4.329097 0.38676,2.95676 h 6.15055 l 9.25703,9.40674 3.48075,-0.0998 3.56807,-5.838666 8.12173,-3.867492 12.38845,13.947923 8.9701,1.472144 2.50762,2.644865 0.74856,5.9759 -5.66401,6.774349 -13.79822,5.090119 -15.29531,1.846415 -3.74273,2.732197 -8.55839,18.127308 4.14196,6.874146 3.95483,-0.27446 5.93846,-4.26671 7.94709,0.23703 -0.262,-12.912425 4.20434,-2.557536 8.02192,5.863618 -0.66122,10.666783 5.56421,-0.66122 8.95761,3.33103 9.43169,13.12452 5.43944,-1.88383 3.85501,-6.64959 4.69091,-1.04796 7.92211,13.7483 9.34437,-0.57389 6.13808,2.24565 16.45555,-10.59195 7.36072,-0.91072 2.98171,3.13141 -1.39729,2.93181 -10.14281,9.08239 3.54312,9.09484 4.40395,1.4971 7.75995,-2.53258 8.28391,9.95566 -0.73607,6.83674 7.33576,0.97309 6.2878,6.83674 10.72917,4.09205 2.37039,5.86362 6.66207,-3.23123 3.97978,3.48076 3.50569,15.12064 -3.78016,8.67067 -7.99698,7.3108 -6.73692,11.49021 -2.58249,2.73219 -11.70228,1.26005 -8.14668,7.41061 -15.39513,3.05657 -9.76852,6.02581 -2.52012,3.50569 1.18521,7.78488 -2.07098,2.14585 -2.52012,-2.91934 -3.40589,0.38675 z"
     class="land"
     title="Tavuš"
     id="AM-TV"
     inkscape:connector-curvature="0"
     style="fill:#c45340;fill-opacity:1;stroke:#ffffff;stroke-width:0.62378907;stroke-opacity:1" />
  <path
     d="m 515.72315,616.95118 -7.73499,-1.809 v 0 l 2.81954,-14.64656 4.05462,-6.67455 9.46913,-7.5229 v 0 l 7.46051,-3.46826 12.88748,-14.33467 16.19356,-12.43836 29.45533,-10.51709 35.70568,-1.90878 15.4575,-3.83008 7.36071,-5.73885 2.20821,-7.18605 9.9432,0.47407 6.26284,4.46634 v 0 l 7.473,-0.0124 1.92126,7.79736 2.08346,1.16026 13.76078,-0.57389 13.62357,2.69477 8.88275,7.49794 16.87973,2.69477 4.31662,7.95955 -3.7053,6.35017 6.81177,12.11398 1.9088,8.00945 v 0 l -8.93267,5.46439 -18.91328,27.59645 -0.94815,11.95179 3.54312,14.08516 -4.96536,12.85005 1.6468,33.68461 v 0 l -7.58528,-2.86942 -6.6995,6.76187 -7.83478,1.74661 -7.54786,5.93847 -11.55256,-1.72166 -6.51237,8.98256 -7.69755,2.10841 -3.59303,5.78876 -14.80875,12.43834 -9.44416,-0.72359 -7.34824,-11.87694 -6.82425,0.21209 -4.65347,-3.54312 -11.10345,0.37427 -2.95676,-1.70918 -8.74552,-8.0344 -6.0258,-14.24734 -5.46439,-4.02968 -8.78295,-1.18519 -2.75715,1.49709 -7.1112,10.61689 -3.71778,0.41169 -9.06989,-4.1669 0.11228,-17.94018 2.24564,-4.84061 -2.95676,-2.68228 -0.14971,-4.97784 3.14388,-3.68036 -2.09592,-6.49988 -8.99504,-9.76854 -9.05741,-17.99007 z"
     class="land"
     title="Vayoc Jor"
     id="AM-VD"
     inkscape:connector-curvature="0"
     style="fill:#c45340;fill-opacity:1;stroke:#ffffff;stroke-width:0.62378907;stroke-opacity:1" />
  <g
     id="stadiums"
     data-country="armenia"
     data-circle-radius="6"
     data-circle-colors="#a149be,#bea149"
     transform="matrix(1.0039648,0,0,1.0039648,-1.7165958,195.58638)" />
</svg>
