<?xml version="1.0" encoding="UTF-8" standalone="no"?>
<?xml-stylesheet type="text/css" href="/styles/home.css"?><!-- https://www.amcharts.com/svg-maps -->

<svg
   xmlns:dc="http://purl.org/dc/elements/1.1/"
   xmlns:cc="http://creativecommons.org/ns#"
   xmlns:rdf="http://www.w3.org/1999/02/22-rdf-syntax-ns#"
   xmlns:svg="http://www.w3.org/2000/svg"
   xmlns="http://www.w3.org/2000/svg"
   xmlns:sodipodi="http://sodipodi.sourceforge.net/DTD/sodipodi-0.dtd"
   xmlns:inkscape="http://www.inkscape.org/namespaces/inkscape"
   version="1.1"
   id="map-bulgaria"
   viewBox="0 0 1000 1000"
   width="1000"
   height="1000"
   class=""
   sodipodi:docname="bulgaria.svg"
   inkscape:version="0.92.4 (5da689c313, 2019-01-14)">
  <metadata
     id="metadata37">
    <rdf:RDF>
      <cc:Work
         rdf:about="">
        <dc:format>image/svg+xml</dc:format>
        <dc:type
           rdf:resource="http://purl.org/dc/dcmitype/StillImage" />
        <dc:title></dc:title>
      </cc:Work>
    </rdf:RDF>
  </metadata>
  <sodipodi:namedview
     pagecolor="#ffffff"
     bordercolor="#666666"
     borderopacity="1"
     objecttolerance="10"
     gridtolerance="10"
     guidetolerance="10"
     inkscape:pageopacity="0"
     inkscape:pageshadow="2"
     inkscape:window-width="1920"
     inkscape:window-height="1017"
     id="namedview35"
     showgrid="false"
     showguides="true"
     inkscape:guide-bbox="true"
     inkscape:zoom="0.38527441"
     inkscape:cx="504.25879"
     inkscape:cy="178.2271"
     inkscape:window-x="-8"
     inkscape:window-y="-8"
     inkscape:window-maximized="1"
     inkscape:current-layer="map-bulgaria">
    <sodipodi:guide
       position="1414.5762,5000"
       orientation="0,1"
       id="guide844"
       inkscape:locked="false"
       inkscape:label=""
       inkscape:color="rgb(0,0,255)" />
    <sodipodi:guide
       position="1245.8653,500"
       orientation="0,1"
       id="guide846"
       inkscape:locked="false"
       inkscape:label=""
       inkscape:color="rgb(0,0,255)" />
  </sodipodi:namedview>
  <defs
     id="defs4">
    <style
       type="text/css"
       id="style2">
			.land
			{
				fill: #f37a8b;
				fill-opacity: 1;
				stroke:white;
				stroke-opacity: 1;
				stroke-width:0.5;
			}
         .rectangle:hover {
         fill: #bdbdbd;
         cursor: pointer;
         }
		</style>
    <!-- <amcharts:ammap projection="mercator" leftLongitude="22.356421" topLatitude="44.212643" rightLongitude="28.610539" bottomLatitude="41.235569"></amcharts:ammap> -->
    <!-- All areas are listed in the line below. You can use this list in your script. -->
    <!--{id:"BG-01"},{id:"BG-02"},{id:"BG-03"},{id:"BG-04"},{id:"BG-05"},{id:"BG-06"},{id:"BG-07"},{id:"BG-08"},{id:"BG-09"},{id:"BG-10"},{id:"BG-11"},{id:"BG-12"},{id:"BG-13"},{id:"BG-14"},{id:"BG-15"},{id:"BG-16"},{id:"BG-17"},{id:"BG-18"},{id:"BG-19"},{id:"BG-20"},{id:"BG-21"},{id:"BG-22"},{id:"BG-23"},{id:"BG-24"},{id:"BG-25"},{id:"BG-26"},{id:"BG-28"},{id:"BG-27"}-->
  </defs>
  <path
     d="m 181.11268,642.18179 9.48551,-0.3755 4.24481,-3.31422 6.36722,-18.93839 h 10.7263 l 3.13463,6.25294 5.51825,2.49791 4.13053,-1.19182 -1.3061,-6.08966 h 4.44073 v 0 l -1.19181,8.13044 3.60808,2.17138 1.71425,18.57921 3.85298,3.00402 -6.43251,3.80399 -5.81213,7.49373 4.03257,28.08105 3.83666,4.31012 9.82836,3.46114 16.86496,10.87324 21.76281,19.88531 v 0 l 1.73057,3.70604 -5.1754,7.26516 -3.23259,19.93427 v 0 l 1.69793,12.34261 -3.78768,3.00402 -3.804,-0.27755 -1.33874,-2.82443 -7.11822,6.2366 -9.50184,-9.01205 -3.47749,6.41619 -14.62827,2.88974 -5.48559,8.63655 -14.66092,-2.93871 -4.70194,6.61211 -4.58767,0.70202 -5.89375,-3.10197 -4.76725,0.66937 -3.59176,-3.68972 -14.22011,-0.32653 -5.38765,0.96325 -9.84468,7.80392 -3.24892,-7.42841 -6.20395,-0.11429 -8.09779,5.35499 -0.22857,5.68151 -3.86931,5.15908 -10.82426,2.41628 -8.63655,-0.21224 -9.04472,-4.31012 -14.073176,-0.93059 4.06522,-3.41217 0.293872,-8.40799 -2.318319,-5.02847 4.261143,-6.07335 -3.232593,-10.26917 2.269341,-14.25277 -3.281565,-5.48559 -0.6857,-9.69776 1.697924,-2.88973 4.097863,-0.29387 1.37141,-5.30602 6.46517,-8.17942 -3.78767,-11.93444 -7.248832,-1.51834 -4.424398,-15.62417 -3.29789,-6.18762 -2.171384,-0.17959 -1.208138,-8.31003 -3.199933,-4.31012 -0.897941,-16.78332 v 0 l 6.399867,-3.08565 3.412174,-15.68947 3.069324,-2.23668 4.048895,9.77939 6.122336,-0.27755 3.67339,4.7999 15.4609,-3.88564 9.87734,-7.6733 25.55049,7.15087 4.96316,3.57543 10.9059,-2.95504 z"
     class="land"
     title="Blagoevgrad"
     id="BG-01"
     inkscape:connector-curvature="0"
     style="fill:#f37a8b;fill-opacity:1;stroke:#ffffff;stroke-width:0.81630957;stroke-opacity:1" />
  <path
     d="m 759.22309,459.06723 9.76307,-5.43662 16.16292,1.56731 23.54237,16.21192 9.09369,-1.12651 3.83665,2.61219 7.19985,-4.88154 23.91787,2.13874 3.70604,1.28976 -0.4408,4.27746 8.06514,4.7346 6.69373,1.66528 12.91402,-2.17139 v 0 l 2.87341,14.12216 -1.84486,4.66929 1.4367,10.90589 -27.21575,-1.64894 -2.61219,7.19984 4.88153,3.44483 -3.4285,0.26123 -1.38772,2.72647 -2.9877,-1.25712 -2.4326,3.13463 -4.65297,-0.48979 -2.23669,3.37952 -0.098,9.69776 2.67749,5.07745 -5.40396,-2.25302 -5.33868,0.21225 -3.88562,2.8734 -6.49783,-1.01222 -4.44072,6.00803 -1.15917,9.35491 -4.22848,-0.79998 -1.42037,5.43662 2.72647,2.7428 0.47346,5.20806 1.74691,-7.78759 5.82844,7.03658 3.83665,-6.02437 6.39987,2.39996 0.9959,-3.7387 3.83666,3.98359 2.61219,-0.58775 0.27754,-2.53055 1.55099,2.39995 2.26934,-0.52244 -0.96325,5.91008 2.3673,2.54689 2.44893,0.48978 3.72237,-3.82032 0.9959,3.67339 3.90196,-0.16327 -3.34687,2.82444 2.46526,4.14685 -1.86119,3.29789 4.09788,7.28148 7.65698,-1.50201 -2.07343,3.29789 3.4285,2.92238 -6.1713,4.32645 1.66527,4.71827 -2.02444,0.58774 0.0163,3.10198 13.76298,11.93444 3.13463,4.26114 -0.9306,1.63261 6.82435,5.0448 3.00402,6.79169 5.15908,1.50201 3.54278,8.93044 3.62441,0.14693 6.93864,16.50578 -4.14686,1.19181 -4.96316,-2.39996 -2.72647,2.75913 -4.1142,-1.69792 -3.52645,2.66117 -1.92649,-4.24481 -6.35089,-2.88974 -0.63673,3.08566 -0.73467,-2.39996 -1.02856,2.62852 -2.20403,-1.63262 -1.91017,2.51424 2.64485,8.24472 -3.29789,-1.3061 -0.0163,2.53057 -1.87751,-2.28567 h -3.93462 l 1.12651,-2.39995 -6.74271,-0.83264 -0.86529,-2.48158 -6.22029,0.35917 0.76734,1.4857 -2.85708,-0.098 -2.12241,3.37953 -7.9182,-0.81631 1.19181,1.79588 -2.33464,2.13873 -1.50201,-1.50201 -2.57955,3.46115 -2.33464,-1.25712 0.29387,3.72238 -2.15505,0.96324 1.55099,1.94282 -1.84487,0.39183 -8.26105,-11.72221 -6.46517,0.0653 -6.13864,-6.92231 -6.28559,-2.97136 -4.19583,-10.88957 -5.07744,-0.66937 -1.59998,-4.50604 -5.306,-3.64073 -8.39167,-1.66528 -2.88973,1.42038 -3.72237,4.09788 0.48978,4.17949 -3.19993,-2.23668 -7.90188,0.63672 -3.67339,-4.09787 -6.54681,-1.48568 -4.8652,2.18771 v 0 l -16.39149,-15.68947 -0.55509,-3.46116 4.55501,-5.37131 -4.0489,-10.12225 2.59586,-8.24472 -12.81606,-14.43235 -1.58364,-6.92231 2.08976,-2.48158 11.75485,-2.00812 3.11831,-7.78759 -11.50997,-0.91427 -20.70161,-39.99917 -13.42013,-15.26498 v 0 l 0.60407,-5.91008 -4.75093,-9.01207 -8.7345,-2.84075 -4.45706,-5.46927 1.79589,-9.68143 -2.51424,-15.73846 -5.07744,-0.0816 v 0 l 10.20387,-0.39183 0.83263,6.43252 12.40791,-0.11429 10.31815,-7.2978 13.12625,-0.58775 6.38355,2.6775 9.06103,-1.77955 8.22841,6.1713 11.82016,-6.35089 z"
     class="land"
     title="Burgas"
     id="BG-02"
     inkscape:connector-curvature="0"
     style="fill:#f37a8b;fill-opacity:1;stroke:#ffffff;stroke-width:0.81630957;stroke-opacity:1" />
  <path
     d="m 810.66692,315.6743 9.27327,9.06103 2.69383,10.72631 3.91828,-0.098 9.4692,-7.70596 3.39584,-0.44081 3.00402,2.69383 0.049,8.37533 8.44063,4.24481 8.65289,-0.40815 19.99958,25.84436 9.37124,-9.27329 6.72638,0.34286 15.62417,17.92616 v 0 l -7.9835,19.42817 -9.97531,1.99179 -3.31422,5.15908 -2.67749,-1.51834 1.86118,0.6857 -0.29387,3.95094 5.0448,1.24079 -5.40397,23.10156 -3.804,5.12642 2.61219,23.68931 -0.55509,16.14659 -3.11831,3.95095 v 0 l -12.91402,2.17138 -6.69373,-1.66527 -8.06514,-4.7346 0.4408,-4.27745 -3.70604,-1.28978 -23.91787,-2.12241 -7.21618,4.88154 -3.82032,-2.59586 -9.09369,1.12651 -23.54237,-16.21192 -16.16292,-1.56731 -9.76307,5.43662 v 0 l 0.45713,-6.38354 -8.21207,-9.11001 4.37542,-4.14686 22.10566,-4.71827 -2.54688,-14.28541 -4.03258,-4.40807 1.63262,-6.22029 14.66093,-8.65287 -5.77948,-22.85667 0.73469,-1.94282 4.48969,1.43671 3.13463,-2.80811 -1.64894,-17.68126 8.31003,-12.60382 -0.75101,-2.88974 -3.06932,-0.66937 3.13463,-8.21207 -4.32644,-1.92649 0.0163,-5.77948 15.55886,-4.96316 z"
     class="land"
     title="Varna"
     id="BG-03"
     inkscape:connector-curvature="0"
     style="fill:#f37a8b;fill-opacity:1;stroke:#ffffff;stroke-width:0.81630957;stroke-opacity:1" />
  <path
     d="m 484.30636,309.27444 9.87735,-2.1714 v 0 l 3.804,3.13464 4.13052,-1.94282 0.57142,3.90196 -3.13463,6.25293 5.94274,15.0201 8.42432,7.98351 -2.38363,10.20387 16.06497,8.78348 7.31413,-4.1795 11.98343,8.53859 7.42841,-0.39182 9.37124,3.68971 7.49372,-3.03667 3.06932,7.28148 8.13044,1.82854 v 0 l 10.84059,10.38346 -1.55098,4.73459 8.66921,11.41201 -0.0816,2.80811 -5.07744,3.54278 -3.13463,10.0406 0.71836,16.53844 6.9876,7.39576 -6.07334,7.86922 18.2037,6.38355 v 0 l -4.31011,6.56312 -18.69349,9.92633 0.50611,9.14267 -11.13446,8.84879 -9.15899,-2.39995 -9.51817,2.35098 -8.57125,-1.58365 v 0 l -10.82426,-0.70203 -15.3303,7.11822 v 0 l -4.78357,-3.78767 -3.62442,-10.12224 6.33456,-5.81212 0.55509,-3.34687 -3.31422,-1.63262 -0.11428,-5.92641 -6.90598,-0.88162 -3.26523,-3.4938 0.14693,-7.72229 6.56313,-6.28558 -1.04487,-4.62031 -10.77529,-5.33867 -10.2202,-2.20403 -5.37132,1.15916 -3.9999,-3.44483 -11.46099,0.57141 -1.24079,-3.31421 2.20403,-6.90598 -1.6816,-2.07342 -12.60381,3.78767 -10.17123,-2.62852 -9.99162,-9.86101 -0.84897,-6.36722 v 0 l 5.58357,-0.97957 0.17958,-6.26926 4.60399,-6.84067 0.39182,-5.64886 v 0 l 11.73854,-11.95078 1.71424,-5.74682 -1.28976,-3.44482 -6.35089,-1.24079 1.7469,-10.82426 -11.29772,1.22446 -2.10608,-3.39585 1.79588,-2.97137 10.70998,-4.91418 2.17139,-13.63237 -3.96727,-6.57945 2.75913,-10.41612 -1.92649,-6.57945 9.37123,-7.83657 v 0 l 13.17524,11.23242 z"
     class="land"
     title="Veliko Tarnovo"
     id="BG-04"
     inkscape:connector-curvature="0"
     style="fill:#f37a8b;fill-opacity:1;stroke:#ffffff;stroke-width:0.81630957;stroke-opacity:1" />
  <path
     d="m 52.217392,177.86492 10.62835,3.15095 9.893672,9.37124 18.056767,11.44466 16.799659,3.00401 2.39995,2.12241 0.6857,6.26926 -5.51825,9.30593 -12.669135,2.1224 -7.918203,5.24071 -6.465171,21.322 2.465255,7.62434 3.379521,3.13462 28.227993,8.48962 v 0 l -2.95505,3.59176 -13.093605,1.69793 0.60407,4.63664 13.828285,5.30601 1.82854,5.64887 -20.86488,9.37123 -6.661086,17.40371 -5.779472,5.7958 -4.93051,11.57527 -7.06924,4.62031 -0.751005,10.08959 -5.926407,8.60391 v 0 l -8.097791,-0.45714 -3.118302,-7.15087 -9.681432,-1.95915 -3.591762,-5.84477 -6.644759,-1.74691 -7.477396,-20.39141 0.767331,-8.24473 -2.253014,-4.63663 1.861186,-3.82033 L 8.8387028,291.85438 6.716298,284.68719 7.744848,278.271 0.77356453,266.64674 5.344898,253.79804 l 0.3591762,-12.52219 3.1019762,-2.90606 0.3428501,-14.30175 5.5345785,-2.85709 13.567064,-0.751 2.334646,-3.03667 -1.616293,-3.85298 13.991546,-2.71014 -1.665272,-9.71409 2.857083,-11.24875 -2.367297,-1.69792 3.477478,-2.20404 -1.257116,-1.91016 1.991795,-0.3755 0.734679,-5.09377 z"
     class="land"
     title="Vidin"
     id="BG-05"
     inkscape:connector-curvature="0"
     style="fill:#f37a8b;fill-opacity:1;stroke:#ffffff;stroke-width:0.81630957;stroke-opacity:1" />
  <path
     d="m 251.29897,281.3893 7.70596,0.45713 32.09729,13.50176 27.29739,-3.39585 v 0 l -3.44483,15.55886 -2.71014,-1.73057 -0.60408,3.29789 -2.95503,-4.17951 -2.84076,0.17959 -9.30593,11.83649 -5.27336,-2.12241 -2.23668,1.3061 2.88973,21.10977 11.3467,4.7999 -2.64485,11.16711 -16.88127,2.1224 -2.95505,8.5386 -17.8935,1.58364 -3.85298,2.84076 -2.97137,24.89744 3.37953,3.28156 6.59578,-2.0571 3.26524,3.90196 v 0 l 1.5673,20.58733 -8.86511,-0.0163 0.16326,10.87324 v 0 l -1.59997,6.54681 -7.83657,-3.98359 -15.64049,-0.42448 -4.16318,-3.08566 -15.26499,7.00394 -8.2284,-3.91828 -15.96701,14.07318 -4.32645,-2.82444 -9.63245,-14.69357 -1.38772,-8.359 5.8611,-10.79162 -14.0895,-2.35097 v 0 l -1.77956,-8.58758 2.28567,-2.8081 6.0407,0.0816 0.39182,-5.66519 -5.4203,-3.64073 -11.13446,-2.31832 -3.98359,-5.25703 8.66921,-8.76716 6.23661,-12.08139 -0.96325,-11.13446 6.31824,-10.23652 3.02034,-1.45304 13.58339,2.82444 4.39174,-6.82435 h 7.5427 l -1.07752,-5.40397 -7.82025,-7.83658 10.38346,-18.74246 -1.12651,-28.0484 v 0 l 14.79153,-2.4326 19.03634,9.99164 z"
     class="land"
     title="Vratsa"
     id="BG-06"
     inkscape:connector-curvature="0"
     style="fill:#f37a8b;fill-opacity:1;stroke:#ffffff;stroke-width:0.81630957;stroke-opacity:1" />
  <path
     d="m 439.24607,404.29286 0.84897,6.36722 9.99162,9.86101 10.17123,2.62852 12.60381,-3.78767 1.6816,2.07342 -2.20403,6.90598 1.24079,3.31421 11.46099,-0.57141 3.9999,3.44483 5.37132,-1.15916 10.2202,2.20403 10.77529,5.33867 1.04487,4.62031 -6.56313,6.28558 -0.14693,7.72229 3.26523,3.4938 6.90598,0.88162 0.11428,5.92641 3.31422,1.63262 -0.55509,3.34687 -6.33456,5.81212 3.62442,10.12224 4.78357,3.78767 v 0 l -0.3102,2.71015 -3.804,1.56731 -5.27336,-4.57132 -7.73861,3.90195 -5.7958,-1.30609 -4.70194,-4.76725 -5.12643,-0.39183 0.70203,5.91008 -1.89384,1.6816 -19.46082,-5.38765 -6.04069,0.91428 -10.18755,-6.15498 -17.2731,8.11411 -11.73853,-1.48568 v 0 l 0.84896,-6.67741 -4.62032,-9.11001 -7.37943,-9.89367 -8.06515,-3.90197 -2.79177,-15.88538 4.78357,-10.31816 7.29781,-2.57953 -1.59996,-15.86906 6.22027,-6.87333 -0.45713,-14.61193 z"
     class="land"
     title="Gabrovo"
     id="BG-07"
     inkscape:connector-curvature="0"
     style="fill:#f37a8b;fill-opacity:1;stroke:#ffffff;stroke-width:0.81630957;stroke-opacity:1" />
  <path
     d="m 894.48558,234.01069 6.98761,25.59946 18.84042,9.79572 19.91795,8.9141 17.68127,1.33875 15.86906,4.13053 21.24037,-1.14284 -0.098,7.44475 -2.30199,3.67339 2.44892,10.85691 -1.64894,8.32636 6.51411,13.09361 -8.65284,20.22815 -9.28961,8.45696 -4.94683,10.80795 -2.98769,-4.65297 -18.04044,-7.608 -21.8118,4.09787 -6.857,-1.76323 -10.43243,6.98761 -5.63254,14.36705 v 0 l -15.62417,-17.92616 -6.72639,-0.34285 -9.37123,9.27328 -19.99958,-25.84436 -8.65289,0.40815 -8.44063,-4.24481 -0.049,-8.37533 -3.00402,-2.69383 -3.39584,0.44081 -9.4692,7.70596 -3.91828,0.098 -2.69383,-10.72631 -9.27327,-9.06103 v 0 l -4.22849,-7.75495 -11.3467,6.61211 -2.44892,-0.94692 -6.95497,-9.68142 -7.37943,-1.02856 -4.06523,-4.83255 v 0 l 3.11831,-1.76323 -1.74691,-9.99162 11.36304,-12.97933 9.30592,-1.95914 15.85273,-14.93846 5.25704,3.37952 3.24891,-0.60408 8.13044,-13.97521 4.01625,4.31012 4.97949,0.62039 0.0163,-4.53869 6.08966,-8.7345 11.36304,-5.48561 v 0 l 4.99582,3.78768 17.38738,-2.82444 11.60793,-9.20797 4.32644,5.35499 z"
     class="land"
     title="Dobrich"
     id="BG-08"
     inkscape:connector-curvature="0"
     style="fill:#f37a8b;fill-opacity:1;stroke:#ffffff;stroke-width:0.81630957;stroke-opacity:1" />
  <path
     d="m 468.63322,673.83827 -2.15506,7.2325 5.07744,20.08122 9.01206,-8.40798 3.83666,9.20797 12.04873,6.80801 13.84461,4.26114 9.6651,-2.85708 3.6081,4.53868 4.84887,16.42415 -2.25301,7.37943 1.66527,4.21216 3.90195,-2.4979 6.106,2.71014 8.97941,-8.11411 9.53449,1.27344 2.69383,8.71818 -6.84068,5.33866 -2.95504,14.25277 8.47329,6.84067 -1.0612,10.98753 13.81196,13.15892 2.4326,9.76306 v 0 l -8.45696,3.2489 -2.25302,-1.77955 0.3102,-3.16728 -7.64066,-3.93461 -7.24883,5.40397 -9.32225,0.76733 -2.08976,5.55091 -7.88555,-4.76726 -7.1672,2.08976 -8.34268,-2.79178 -4.8652,8.45697 -8.8488,-2.23669 -7.67331,4.7999 -9.64878,1.04488 -5.07744,3.90195 -5.89376,-0.88161 -2.0571,2.23668 -8.44064,-2.57953 -1.76323,-6.95495 -8.32635,-6.90598 v 0 l 0.52244,-3.7387 -3.31422,-1.73058 -1.92649,-9.38756 6.12231,-7.86922 -4.9305,-2.12241 2.13873,-7.52637 -1.14283,-4.01625 -6.08967,-4.22848 -9.04471,4.34276 -8.24473,-3.06931 -3.02034,-13.28953 1.35507,-5.25702 11.68955,-4.27747 3.4285,-3.99991 1.66527,-17.77923 -4.06522,-16.63638 v 0 l 9.43654,-7.60801 8.68554,-15.64049 z"
     class="land"
     title="Kardzhali"
     id="BG-09"
     inkscape:connector-curvature="0"
     style="fill:#f37a8b;fill-opacity:1;stroke:#ffffff;stroke-width:0.81630957;stroke-opacity:1" />
  <path
     d="m 19.548684,514.24975 6.546802,5.46928 9.697757,3.21626 5.893756,15.49356 9.142667,4.84887 0.685699,10.31815 6.873327,10.8406 2.024448,7.46106 9.305929,1.66527 3.444825,5.15909 h 4.652965 l 0.702026,4.40807 4.881532,-2.77546 6.791695,4.03257 2.0571,-5.97539 5.436622,-1.86118 3.575426,-4.53868 11.06918,7.00394 5.09377,-0.86529 5.02846,-6.38355 1.73058,7.13456 9.30593,5.32233 5.07744,0.71836 4.86521,-3.68972 v 0 l 13.74665,2.66116 3.75503,11.55894 10.69365,8.66921 v 2.22036 l -7.99984,2.97138 -4.0489,9.68142 3.06933,2.57954 10.74264,-3.54278 2.79177,9.19164 11.60792,4.97949 -0.34284,3.91829 -6.33456,6.04069 v 0 l -4.94684,4.62031 -10.9059,2.95504 -4.96316,-3.57543 -25.55049,-7.15087 -9.87734,7.6733 -15.4609,3.88564 -3.67339,-4.7999 -6.122336,0.27755 -4.048895,-9.77939 -3.069324,2.23668 -3.412174,15.68947 -6.399867,3.08565 v 0 l -2.661169,-2.28566 -4.359093,0.71834 -3.999917,-5.01213 -3.689718,1.61629 -6.742718,-1.76323 -3.199933,-4.4897 -6.318236,0.50611 -17.27311,-11.18344 -8.685533,-7.55903 -1.681598,-8.89777 -5.093772,-1.76323 -3.395847,-8.86512 -14.0568506,-15.19969 7.020262,-3.90195 4.4407236,1.71424 3.101976,-2.15505 4.065222,-12.94667 6.579455,-1.11018 6.138648,-17.51801 -5.893755,-10.1059 -8.212074,-7.42842 -5.028467,-1.19182 z"
     class="land"
     title="Kyustendil"
     id="BG-10"
     inkscape:connector-curvature="0"
     style="fill:#f37a8b;fill-opacity:1;stroke:#ffffff;stroke-width:0.81630957;stroke-opacity:1" />
  <path
     d="m 269.30676,398.28482 11.42833,-2.15506 10.61202,-5.56722 10.38346,2.71014 9.95898,-1.01222 9.59979,-2.97137 5.50193,-5.87743 1.86119,3.51013 4.60398,1.01223 5.55091,5.37131 28.53818,3.65707 1.8122,-11.60792 5.15908,5.66519 3.95094,-7.19985 13.84462,-8.70186 7.47738,0.39182 11.88547,5.71418 8.24473,-2.7428 6.00803,-5.86111 4.06523,-8.99573 2.46526,0.83264 5.04478,12.60381 12.70178,7.49373 v 0 l -0.39182,5.64886 -4.60399,6.84067 -0.17958,6.26926 -5.58357,0.97957 v 0 l -18.79144,-4.73459 0.45713,14.61193 -6.22027,6.87333 1.59996,15.86906 -7.29781,2.57953 -4.78357,10.31816 2.79177,15.88538 8.06515,3.90197 7.37943,9.89367 4.62032,9.11001 -0.84896,6.67741 v 0 l -15.83641,6.97128 -10.12224,-3.03666 -14.98745,2.48158 -4.32643,-1.25712 -3.77135,-7.13455 -6.88966,-5.42029 -20.84854,-2.46525 -6.04069,7.44474 -15.1507,0.27754 v 0 l -16.14661,-4.65297 -20.19549,-1.38771 6.59578,-11.16712 -4.26114,-3.19994 -0.6204,-7.73861 -5.1101,-3.60809 5.1101,-5.15907 -11.16712,-5.97539 -1.40404,-10.25285 -7.98351,-3.98359 -0.94693,-5.77947 -9.94264,-0.50612 v 0 l -0.16326,-10.87324 8.86511,0.0163 z"
     class="land"
     title="Lovech"
     id="BG-11"
     inkscape:connector-curvature="0"
     style="fill:#f37a8b;fill-opacity:1;stroke:#ffffff;stroke-width:0.81630957;stroke-opacity:1" />
  <path
     d="m 171.85572,258.30406 13.95889,3.64074 10.93855,8.27738 8.70186,0.79998 v 0 l 1.12651,28.0484 -10.38346,18.74246 7.82025,7.83658 1.07752,5.40397 h -7.5427 l -4.39174,6.82435 -13.58339,-2.82444 -3.02034,1.45304 -6.31824,10.23652 0.96325,11.13446 -6.23661,12.08139 -8.66921,8.76716 3.98359,5.25703 11.13446,2.31832 5.4203,3.64073 -0.39182,5.66519 -6.0407,-0.0816 -2.28567,2.8081 1.77956,8.58758 v 0 l -10.44876,-0.60408 -7.1672,7.75495 -31.80342,2.18771 -19.24859,-18.4486 -7.42841,2.17138 v 0 l -6.693739,-4.78357 -4.571333,-8.89777 -3.150955,-1.89384 -3.526456,-12.0324 -15.444577,-13.56706 v 0 l 5.926407,-8.60391 0.751005,-10.08959 7.06924,-4.62031 4.93051,-11.57527 5.779472,-5.7958 6.661086,-17.40371 20.86488,-9.37123 -1.82854,-5.64887 -13.828285,-5.30601 -0.60407,-4.63664 13.093605,-1.69793 2.95505,-3.59176 v 0 l 14.35071,-2.57954 20.53835,-8.58757 z"
     class="land"
     title="Montana"
     id="BG-12"
     inkscape:connector-curvature="0"
     style="fill:#f37a8b;fill-opacity:1;stroke:#ffffff;stroke-width:0.81630957;stroke-opacity:1" />
  <path
     d="m 227.85456,621.02305 12.66912,-9.76306 8.39166,-11.11815 3.55911,4.47338 5.20805,-2.79178 -2.39994,-7.62433 3.26523,-10.10591 11.67323,-4.89786 6.02436,-12.63647 -2.38362,-5.24071 -8.22839,3.55911 -5.7958,-1.69792 -6.12233,-9.69776 -1.30609,-14.87316 9.45286,-2.08974 10.43244,4.81622 9.86102,-10.67733 7.75494,0.14693 1.79588,-8.03249 14.43235,-3.85298 10.00796,3.95095 5.15907,15.82008 4.70195,-2.77546 4.16318,3.88564 v 0 l -0.97958,7.608 -5.27336,5.5509 -0.89793,4.34278 6.84067,21.43628 7.41209,8.04881 0.3102,6.54681 -3.053,2.49791 2.80811,17.74656 8.57124,15.03642 -1.20814,2.02445 -8.27738,1.68159 -2.49791,14.20379 1.02856,16.11395 -4.14686,12.93035 v 0 l -2.15505,11.29772 -9.61612,5.84478 -3.90197,5.24071 0.35918,13.89359 -9.55082,6.33456 -9.58348,-2.39996 -14.46501,1.97548 -1.97546,13.06095 v 0 l -21.76281,-19.88531 -16.86496,-10.87324 -9.82836,-3.46114 -3.83666,-4.31012 -4.03257,-28.08105 5.81213,-7.49373 6.43251,-3.80399 -3.85298,-3.00402 -1.71425,-18.57921 -3.60808,-2.17138 z"
     class="land"
     title="Pazardzhik"
     id="BG-13"
     inkscape:connector-curvature="0"
     style="fill:#f37a8b;fill-opacity:1;stroke:#ffffff;stroke-width:0.81630957;stroke-opacity:1" />
  <path
     d="m 43.254313,467.73644 9.240624,5.69784 2.628517,-3.65707 6.987609,-0.26122 2.089753,-2.0571 v 0 l 2.906062,7.29781 6.546803,-0.45713 5.191729,8.50595 19.460819,6.79168 3.232581,5.12643 8.7182,3.75503 2.20403,3.47748 v 0 l 10.31816,12.0977 6.51414,3.98359 1.91017,10.51407 -1.55099,3.59176 7.37944,1.27344 6.18762,9.27328 4.22849,-0.88161 0.40816,2.6775 v 0 l -6.28559,14.98744 1.86119,21.77914 v 0 l -4.86521,3.68972 -5.07744,-0.71836 -9.30593,-5.32233 -1.73058,-7.13456 -5.02846,6.38355 -5.09377,0.86529 -11.06918,-7.00394 -3.575426,4.53868 -5.436622,1.86118 -2.0571,5.97539 -6.791695,-4.03257 -4.881532,2.77546 -0.702026,-4.40807 h -4.652965 l -3.444825,-5.15909 -9.305929,-1.66527 -2.024448,-7.46106 -6.873327,-10.8406 -0.685699,-10.31815 -9.142667,-4.84887 -5.893756,-15.49356 -9.697757,-3.21626 -6.546802,-5.46928 v 0 l -2.285666,-2.17138 6.057016,-7.29781 0.473459,-3.90196 -6.285583,-7.99982 -3.216259,-10.02429 10.448761,-5.77947 4.326441,-6.57946 6.399867,3.54278 1.58364,-5.9917 z"
     class="land"
     title="Pernik"
     id="BG-14"
     inkscape:connector-curvature="0"
     style="fill:#f37a8b;fill-opacity:1;stroke:#ffffff;stroke-width:0.81630957;stroke-opacity:1" />
  <path
     d="m 380.60239,294.97268 11.60793,-5.69783 12.73442,0.88161 11.9671,-5.11009 6.17131,0.53876 9.17532,7.64065 7.00393,1.69793 13.25687,-3.13463 12.55484,4.45705 v 0 l -9.37123,7.83657 1.92649,6.57945 -2.75913,10.41612 3.96727,6.57945 -2.17139,13.63237 -10.70999,4.91418 -1.79587,2.97137 2.10607,3.39585 11.29773,-1.22446 -1.7469,10.82426 6.35089,1.24079 1.28976,3.44482 -1.71424,5.74682 -11.73854,11.95078 v 0 l -12.70178,-7.49373 -5.04478,-12.60381 -2.46526,-0.83264 -4.06523,8.99573 -6.00803,5.86111 -8.24473,2.7428 -11.88547,-5.71418 -7.47738,-0.39182 -13.84462,8.70186 -3.95094,7.19985 -5.15908,-5.66519 -1.8122,11.60792 -28.53818,-3.65707 -5.55091,-5.37131 -4.60398,-1.01223 -1.86119,-3.51013 -5.50193,5.87743 -9.59979,2.97137 -9.95898,1.01222 -10.38346,-2.71014 -10.61202,5.56722 -11.42833,2.15506 v 0 l -3.26524,-3.90196 -6.59578,2.0571 -3.37953,-3.28156 2.97137,-24.89744 3.85298,-2.84076 17.8935,-1.58364 2.95505,-8.5386 16.88127,-2.1224 2.64485,-11.16711 -11.3467,-4.7999 -2.88973,-21.10977 2.23668,-1.3061 5.27336,2.12241 9.30593,-11.83649 2.84076,-0.17959 2.95503,4.17951 0.60408,-3.29789 2.71014,1.73057 3.44483,-15.55886 v 0 l 9.71409,-8.34268 16.81597,-5.92641 18.8894,4.53868 9.76306,9.45286 z"
     class="land"
     title="Pleven"
     id="BG-15"
     inkscape:connector-curvature="0"
     style="fill:#f37a8b;fill-opacity:1;stroke:#ffffff;stroke-width:0.81630957;stroke-opacity:1" />
  <path
     d="m 328.24431,493.13999 15.1507,-0.27754 6.04069,-7.44474 20.84854,2.46525 6.88966,5.42029 3.77135,7.13455 4.32643,1.25712 14.98745,-2.48158 10.12224,3.03666 15.83641,-6.97128 v 0 0 0 l -1.66528,3.83665 0.73469,19.19961 -5.19174,11.55894 2.88974,12.24465 4.88153,8.58757 5.61621,2.25301 17.04454,-5.82845 3.78768,5.76315 -0.65305,4.16318 -6.77536,6.84068 4.68561,10.33448 -6.71007,-1.6163 -1.15915,2.61219 -0.0163,19.91796 7.51004,5.6162 -16.17925,6.98761 -1.01223,13.97522 11.55895,6.44885 15.37928,-2.53056 6.2366,-4.03258 11.44466,13.10994 v 0 l -6.49783,16.88128 0.6857,17.07719 -4.1795,5.15908 v 0 l -15.1507,8.97941 -8.68554,15.64049 -9.43654,7.60801 v 0 l -9.6651,-9.51818 -3.03667,2.72648 -0.48979,10.75896 -6.15497,7.13454 -11.23242,-0.34284 -10.05693,11.36302 -4.97949,-10.74263 2.15505,-8.09779 -2.22036,-3.82033 -2.57954,2.18771 -2.17138,-3.99992 3.93461,-11.44466 -3.39585,-6.74271 -16.97924,-2.5469 -18.61185,5.22439 -7.70596,-10.02428 -4.39176,0.47346 -6.97128,-3.08565 v 0 l 4.14686,-12.93035 -1.02856,-16.11395 2.49791,-14.20379 8.27738,-1.68159 1.20814,-2.02445 -8.57124,-15.03642 -2.80811,-17.74656 3.053,-2.49791 -0.3102,-6.54681 -7.41209,-8.04881 -6.84067,-21.43628 0.89793,-4.34278 5.27336,-5.5509 0.97958,-7.608 v 0 l 9.40388,-1.64895 3.8693,-9.95898 -8.27738,-8.22839 -12.75075,-7.03659 -0.58774,-5.09378 z"
     class="land"
     title="Plovdiv"
     id="BG-16"
     inkscape:connector-curvature="0"
     style="fill:#f37a8b;fill-opacity:1;stroke:#ffffff;stroke-width:0.81630957;stroke-opacity:1" />
  <path
     d="m 641.4786,238.67998 15.03643,0.91427 3.83665,6.1713 10.98752,-1.3061 4.08155,5.40397 1.28977,7.06924 20.8159,6.18763 4.32643,-0.97957 2.07343,3.62442 7.03659,-5.64887 6.15497,7.52637 7.19985,2.23669 4.63664,8.70187 5.7305,0.62039 2.23669,6.66109 6.80801,6.33456 v 0 l 1.51834,7.52637 -2.39995,3.60809 -7.00394,3.46115 -5.25702,6.64476 -9.32227,-2.64485 -1.53466,6.90598 -9.33858,7.93454 0.50612,9.87734 -10.64468,10.2855 0.52244,5.7305 7.93452,6.857 -6.93862,7.11821 v 0 l -8.62023,0.6857 -3.24892,-2.69382 -3.67339,7.19985 -9.2243,-0.88161 -8.81614,-3.85298 -7.86923,3.55911 -4.84888,-0.86529 0.53877,3.39584 -6.51415,8.73452 -0.29387,4.26113 -6.75904,3.24891 -1.91017,-3.13463 2.22037,-4.29379 -2.10608,-3.29789 -5.15909,-1.82852 -1.15915,-3.91829 16.03231,-12.84872 0.94693,-10.33447 -8.65289,-2.07343 -4.04889,-10.36713 -6.59578,-1.43671 -10.82427,-10.64467 -5.35499,1.0612 -3.70604,5.15908 -11.82016,0.14693 -2.88974,-1.95914 v 0 l -5.77947,-11.31405 0.65304,-5.4203 10.80795,-2.82443 7.05292,-8.6039 6.05701,1.35507 11.42834,8.70186 14.00787,-4.65296 8.99572,2.04077 9.63245,-1.19181 5.30602,-8.13044 -0.0163,-11.13446 -5.8611,-9.38756 -6.49782,-1.19181 -5.97539,-5.28969 -5.22438,2.51423 -1.28976,-2.07342 -7.24884,1.1918 -8.11412,-2.79177 0.11429,-4.88153 5.97539,-4.70195 4.71827,-14.39969 z"
     class="land"
     title="Razgrad"
     id="BG-17"
     inkscape:connector-curvature="0"
     style="fill:#f37a8b;fill-opacity:1;stroke:#ffffff;stroke-width:0.81630957;stroke-opacity:1" />
  <path
     d="m 636.13994,217.9947 1.84485,7.28148 6.75905,6.57945 -3.26524,6.82435 v 0 l -5.32233,7.65699 -4.71828,14.39969 -5.97539,4.70195 -0.11428,4.88153 8.11412,2.79177 7.24884,-1.1918 1.28976,2.07342 5.22438,-2.51423 5.97539,5.28969 6.49782,1.19181 5.8611,9.38756 0.0163,11.13446 -5.30602,8.13044 -9.63245,1.19181 -8.99572,-2.04077 -14.00787,4.65296 -11.42834,-8.70186 -6.05701,-1.35507 -7.05292,8.6039 -10.80795,2.82443 -0.65304,5.4203 5.77947,11.31405 v 0 l -10.31815,4.94684 -2.75913,13.97521 -9.30592,11.9018 8.08146,6.88965 -0.71836,7.93453 v 0 l -8.13044,-1.82854 -3.06932,-7.28148 -7.49372,3.03667 -9.37124,-3.68971 -7.42841,0.39182 -11.98343,-8.53859 -7.31413,4.1795 -16.06497,-8.78348 2.38363,-10.20387 -8.42432,-7.98351 -5.94274,-15.0201 3.13463,-6.25293 -0.57142,-3.90196 -4.13052,1.94282 -3.804,-3.13464 v 0 l 6.2366,-3.1183 11.91812,-0.21224 16.19559,-9.82836 11.34669,-0.3755 8.34268,-4.45706 4.55501,-8.03249 10.69366,-7.16719 11.9671,-18.30166 16.58741,-10.18755 8.1631,-13.22421 6.56312,-4.04889 8.40799,-0.0163 z"
     class="land"
     title="Ruse"
     id="BG-18"
     inkscape:connector-curvature="0"
     style="fill:#f37a8b;fill-opacity:1;stroke:#ffffff;stroke-width:0.81630957;stroke-opacity:1" />
  <path
     d="m 757.91699,195.02375 5.45295,-0.42448 12.01608,5.06112 10.79161,-1.76323 3.29789,11.54261 10.49774,3.82033 6.93863,9.95898 11.52629,-2.23669 22.26893,2.15505 5.11009,-7.88554 4.70195,3.91828 4.71827,12.21199 v 0 l -11.36304,5.48561 -6.08966,8.7345 -0.0163,4.53869 -4.97949,-0.62039 -4.01625,-4.31012 -8.13044,13.97521 -3.24891,0.60408 -5.25704,-3.37952 -15.85273,14.93846 -9.30592,1.95914 -11.36304,12.97933 1.74691,9.99162 -3.11831,1.76323 v 0 l -7.00393,0.27755 -8.99573,-11.10181 -14.51399,4.97949 v 0 l -6.80801,-6.33456 -2.23669,-6.66109 -5.7305,-0.62039 -4.63664,-8.70187 -7.19985,-2.23669 -6.15497,-7.52637 -7.03659,5.64887 -2.07343,-3.62442 -4.32643,0.97957 -20.8159,-6.18763 -1.28977,-7.06924 -4.08155,-5.40397 -10.98752,1.3061 -3.83665,-6.1713 -15.03643,-0.91427 v 0 l 3.26524,-6.82435 -6.75905,-6.57945 -1.84485,-7.28148 v 0 l 7.90187,-2.17139 9.58348,1.87752 14.85683,-4.09787 10.18755,0.62039 14.87316,-5.20806 10.4161,-0.34285 23.91787,-12.29362 13.3385,-0.37551 11.64058,-3.47747 z"
     class="land"
     title="Silistra"
     id="BG-19"
     inkscape:connector-curvature="0"
     style="fill:#f37a8b;fill-opacity:1;stroke:#ffffff;stroke-width:0.81630957;stroke-opacity:1" />
  <path
     d="m 611.89554,455.27956 8.13045,-6.93864 3.21625,-9.51817 8.44065,-1.68159 1.73058,7.93453 4.13052,-3.90197 7.86922,4.71828 16.16293,-3.41218 16.48945,2.53056 v 0 l -10.48141,9.27328 -0.89794,4.60399 1.95915,2.36729 v 0 l 5.07744,0.098 2.51423,15.72212 -1.79588,9.68143 4.45705,5.46927 8.75084,2.84077 4.73459,9.01205 -0.60406,5.92641 v 0 l -4.21216,-1.89384 3.06932,7.28148 -0.049,6.51415 -4.71827,5.89376 -3.4285,-3.77136 -4.63663,7.44475 -7.90188,0.79998 -14.31807,8.94675 -8.93043,-1.46935 -6.4815,5.33866 3.10198,2.12241 0.55509,3.55911 -7.39576,8.0488 -6.69374,0.86529 -2.38362,3.28157 -11.03651,-3.05299 -2.15506,1.35507 0.44081,9.68142 -6.74272,-2.54688 3.62442,8.03249 6.87333,-5.76315 1.3714,2.69383 -1.02856,13.17523 -9.43653,21.06079 v 0 l -16.75067,-10.04061 -6.02437,4.06522 -0.049,-3.28157 -13.66502,-8.94675 -4.58766,-15.78742 -6.13865,-7.4774 3.91829,-9.56715 -5.82845,-13.50176 4.94683,-10.661 -4.96316,-8.34268 -1.92649,-11.5916 -6.56312,-13.09361 -0.6204,-11.24874 v 0 l 8.57125,1.58365 9.51817,-2.35098 9.15899,2.39995 11.13446,-8.84879 -0.50611,-9.14267 18.69349,-9.92633 z"
     class="land"
     title="Sliven"
     id="BG-20"
     inkscape:connector-curvature="0"
     style="fill:#f37a8b;fill-opacity:1;stroke:#ffffff;stroke-width:0.81630957;stroke-opacity:1" />
  <path
     d="m 330.80751,675.56885 6.97128,3.08565 4.39176,-0.47346 7.70596,10.02428 18.61185,-5.22439 16.97924,2.5469 3.39585,6.74271 -3.93461,11.44466 2.17138,3.99992 2.57954,-2.18771 2.22036,3.82033 -2.15505,8.09779 4.97949,10.74263 10.05693,-11.36302 11.23242,0.34284 6.15497,-7.13454 0.48979,-10.75896 3.03667,-2.72648 9.6651,9.51818 v 0 l 4.06522,16.63638 -1.66527,17.77923 -3.4285,3.99991 -11.68955,4.27747 -1.35507,5.25702 3.02034,13.28953 8.24473,3.06931 9.04471,-4.34276 6.08967,4.22848 1.14283,4.01625 -2.13873,7.52637 4.9305,2.12241 -6.12231,7.86922 1.92649,9.38756 3.31422,1.73058 -0.52244,3.7387 v 0 l -8.57125,-5.63254 -6.04069,-0.21225 -3.82034,-5.01213 -17.94248,-4.55501 -4.57133,-4.55501 -6.35089,3.49381 -8.81614,-1.97547 -0.40816,9.68143 -2.20403,1.73058 -9.01206,-7.31414 -2.69382,-7.28148 -7.33047,-1.92649 -3.9346,1.64895 -0.62039,-3.82033 -7.06925,1.84485 -2.20403,-8.06513 -3.77136,-2.46526 -2.08974,-5.69784 -1.01223,-10.08958 -4.19584,-3.70604 -8.40799,3.46114 -3.80399,6.36722 -7.31414,-3.804 -3.29789,0.65304 -2.93871,4.09788 -4.32644,-1.94282 -5.71417,3.16728 -0.19591,-5.66518 -6.35089,-7.4774 -5.15907,5.19173 -3.18361,-0.45713 -3.86931,7.55902 -4.29379,-4.53868 -3.98359,0.48979 -4.91418,-3.46116 -6.56314,5.33866 v 0 l 3.23259,-19.93427 5.1754,-7.26516 -1.73057,-3.70604 v 0 l 1.97546,-13.06095 14.46501,-1.97548 9.58348,2.39996 9.55082,-6.33456 -0.35918,-13.89359 3.90197,-5.24071 9.61612,-5.84478 z"
     class="land"
     title="Smolyan"
     id="BG-21"
     inkscape:connector-curvature="0"
     style="fill:#f37a8b;fill-opacity:1;stroke:#ffffff;stroke-width:0.81630957;stroke-opacity:1" />
  <path
     d="m 93.8002,399.98274 7.42841,-2.17138 19.24859,18.4486 31.80342,-2.18771 7.1672,-7.75495 10.44876,0.60408 v 0 l 14.0895,2.35097 -5.8611,10.79162 1.38772,8.359 9.63245,14.69357 4.32645,2.82444 15.96701,-14.07318 8.2284,3.91828 15.26499,-7.00394 4.16318,3.08566 15.64049,0.42448 7.83657,3.98359 1.59997,-6.54681 v 0 l 9.94264,0.50612 0.94693,5.77947 7.98351,3.98359 1.40404,10.25285 11.16712,5.97539 -5.1101,5.15907 5.1101,3.60809 0.6204,7.73861 4.26114,3.19994 -6.59578,11.16712 20.19549,1.38771 16.14661,4.65297 v 0 l -6.4162,14.69357 0.58774,5.09378 12.75075,7.03659 8.27738,8.22839 -3.8693,9.95898 -9.40388,1.64895 v 0 l -4.16318,-3.88564 -4.70195,2.77546 -5.15907,-15.82008 -10.00796,-3.95095 -14.43235,3.85298 -1.79588,8.03249 -7.75494,-0.14693 -9.86102,10.67733 -10.43244,-4.81622 -9.45286,2.08974 1.30609,14.87316 6.12233,9.69776 5.7958,1.69792 8.22839,-3.55911 2.38362,5.24071 -6.02436,12.63647 -11.67323,4.89786 -3.26523,10.10591 2.39994,7.62433 -5.20805,2.79178 -3.55911,-4.47338 -8.39166,11.11815 -12.66912,9.76306 v 0 h -4.44073 l 1.3061,6.08966 -4.13053,1.19182 -5.51825,-2.49791 -3.13463,-6.25294 h -10.7263 l -6.36722,18.93839 -4.24481,3.31422 -9.48551,0.3755 v 0 l 6.33456,-6.04069 0.34284,-3.91829 -11.60792,-4.97949 -2.79177,-9.19164 -10.74264,3.54278 -3.06933,-2.57954 4.0489,-9.68142 7.99984,-2.97138 v -2.22036 l -10.69365,-8.66921 -3.75503,-11.55894 -13.74665,-2.66116 v 0 l -1.86119,-21.77914 6.28559,-14.98744 v 0 l 8.58757,3.46114 14.88949,16.08131 2.75912,-1.6163 3.68972,-14.57929 4.44073,0.50612 5.91008,11.28139 1.17548,13.95889 3.03667,-1.15915 7.46107,2.8081 9.73041,-3.52646 -7.37944,-21.68118 -7.46107,-9.63246 -0.60407,-17.76289 -7.47739,-4.09787 1.04487,-3.98359 3.59177,-1.40406 1.8775,-6.44884 7.90189,-4.08155 4.60398,-17.43637 -2.0571,-8.04881 -9.25695,3.62442 -12.83239,-8.32637 -21.53424,4.24481 -4.97949,-9.04471 -4.73459,-3.29789 -11.37936,28.86471 2.3673,3.85298 -1.15916,3.78768 -4.60398,-1.48568 -3.80401,2.17138 -19.1996,0.44081 v 0 l -2.20403,-3.47748 -8.7182,-3.75503 -3.232581,-5.12643 -19.460819,-6.79168 -5.191729,-8.50595 -6.546803,0.45713 -2.906062,-7.29781 v 0 l 4.1142,-8.03248 -1.534662,-3.49381 2.236689,-7.46107 10.203868,-4.68562 7.771268,-6.84067 3.836654,-10.10591 9.893667,-6.4815 2.31833,-9.99163 -1.76324,-2.04077 3.21627,-5.53458 -4.865209,-2.84075 z"
     class="land"
     title="Sofia-Grad"
     id="BG-22"
     inkscape:connector-curvature="0"
     style="fill:#f37a8b;fill-opacity:1;stroke:#ffffff;stroke-width:0.81630957;stroke-opacity:1" />
  <path
     d="m 112.46104,501.95614 19.1996,-0.44081 3.80401,-2.17138 4.60398,1.48568 1.15916,-3.78768 -2.3673,-3.85298 11.37936,-28.86471 4.73459,3.29789 4.97949,9.04471 21.53424,-4.24481 12.83239,8.32637 9.25695,-3.62442 2.0571,8.04881 -4.60398,17.43637 -7.90189,4.08155 -1.8775,6.44884 -3.59177,1.40406 -1.04487,3.98359 7.47739,4.09787 0.60407,17.76289 7.46107,9.63246 7.37944,21.68118 -9.73041,3.52646 -7.46107,-2.8081 -3.03667,1.15915 -1.17548,-13.95889 -5.91008,-11.28139 -4.44073,-0.50612 -3.68972,14.57929 -2.75912,1.6163 -14.88949,-16.08131 -8.58757,-3.46114 v 0 l -0.40816,-2.6775 -4.22849,0.88161 -6.18762,-9.27328 -7.37944,-1.27344 1.55099,-3.59176 -1.91017,-10.51407 -6.51414,-3.98359 z"
     class="land"
     title="Sofia"
     id="BG-23"
     inkscape:connector-curvature="0"
     style="fill:#f37a8b;fill-opacity:1;stroke:#ffffff;stroke-width:0.81630957;stroke-opacity:1" />
  <path
     d="m 524.86062,494.54404 15.33029,-7.11822 10.82427,0.70203 v 0 l 0.6204,11.24874 6.56312,13.09361 1.92649,11.5916 4.96316,8.34268 -4.94683,10.661 5.82845,13.50176 -3.91829,9.56715 6.13865,7.4774 4.58766,15.78742 13.66502,8.94675 0.049,3.28156 6.02437,-4.06521 16.75067,10.0406 v 0 l 5.87742,3.65708 v 0 l -13.20789,12.99564 5.53459,25.17498 -9.69777,0.73469 -5.306,5.63253 -3.41218,-0.96324 -6.82435,-13.94257 -6.95495,-0.86528 -3.83666,-3.70606 -5.5509,-0.16325 -4.50603,-3.4285 -2.20404,1.46935 -2.4979,9.40389 -15.65682,5.69784 -9.74673,-20.45672 -10.85693,5.73049 -0.22856,-14.35072 -2.02445,-4.01624 -11.57527,9.92632 2.98769,0.97957 -1.51833,2.95505 -9.19165,-2.97138 -0.66937,5.32235 -5.61621,7.44474 -13.95889,-5.14275 v 0 l -11.44466,-13.10994 -6.2366,4.03258 -15.37928,2.53056 -11.55895,-6.44885 1.01223,-13.97522 16.17925,-6.98761 -7.51004,-5.6162 0.0163,-19.91796 1.15915,-2.61219 6.71007,1.6163 -4.68561,-10.33448 6.77536,-6.84068 0.65305,-4.16318 -3.78768,-5.76315 -17.04454,5.82845 -5.61621,-2.25301 -4.88153,-8.58757 -2.88974,-12.24465 5.19174,-11.55894 -0.73469,-19.19961 1.66528,-3.83665 v 0 l 11.73853,1.48568 17.2731,-8.11411 10.18755,6.15498 6.04069,-0.91428 19.46082,5.38765 1.89384,-1.6816 -0.70203,-5.91008 5.12643,0.39183 4.70194,4.76725 5.7958,1.30609 7.73861,-3.90195 5.27336,4.57132 3.804,-1.56731 z"
     class="land"
     title="Stara Zagora"
     id="BG-24"
     inkscape:connector-curvature="0"
     style="fill:#f37a8b;fill-opacity:1;stroke:#ffffff;stroke-width:0.81630957;stroke-opacity:1" />
  <path
     d="m 597.41421,328.52301 2.88974,1.95914 11.82016,-0.14693 3.70604,-5.15908 5.35499,-1.0612 10.82427,10.64467 6.59578,1.43671 4.04889,10.36713 8.65289,2.07343 -0.94693,10.33447 -16.03231,12.84872 1.15915,3.91829 5.15909,1.82852 2.10608,3.29789 -2.22037,4.29379 1.91017,3.13463 6.75904,-3.24891 0.29387,-4.26113 6.51415,-8.73452 -0.53877,-3.39584 4.84888,0.86529 7.86923,-3.55911 8.81614,3.85298 9.2243,0.88161 3.67339,-7.19985 3.24892,2.69382 8.62023,-0.6857 v 0 l -2.00813,2.59586 1.07753,12.83239 5.32234,4.86521 0.79998,4.1142 -9.48552,10.00795 -3.52645,9.91 -6.49782,0.44081 4.44072,15.78742 -8.65288,8.86513 0.0653,7.47739 -5.24071,2.61219 v 0 l -16.48945,-2.53056 -16.16293,3.41218 -7.86922,-4.71828 -4.13052,3.90197 -1.73058,-7.93453 -8.44065,1.68159 -3.21625,9.51817 -8.13045,6.93864 v 0 l -18.2037,-6.38355 6.07334,-7.86922 -6.9876,-7.39576 -0.71836,-16.53844 3.13463,-10.0406 5.07744,-3.54278 0.0816,-2.80811 -8.66921,-11.41201 1.55098,-4.73459 -10.84059,-10.38346 v 0 l 0.71836,-7.93453 -8.08146,-6.88965 9.30592,-11.9018 2.75913,-13.97521 z"
     class="land"
     title="Targovishte"
     id="BG-25"
     inkscape:connector-curvature="0"
     style="fill:#f37a8b;fill-opacity:1;stroke:#ffffff;stroke-width:0.81630957;stroke-opacity:1" />
  <path
     d="m 615.14445,611.25999 11.9671,5.04479 5.35499,4.88152 9.74674,2.54689 4.01624,-2.30199 4.09788,3.26524 6.35089,-1.50201 2.54688,4.50603 5.92641,-0.65305 -0.73468,22.46484 -3.98359,3.8693 -0.11429,4.52236 12.21199,18.36696 v 0 l 3.46116,4.75093 -2.53056,3.88562 2.08975,2.8571 -6.53047,10.4161 -27.73821,1.3061 -5.84477,14.17114 -0.0816,3.03666 4.68561,5.24071 -11.77118,0.0327 -8.71819,-6.12232 -4.73458,1.25712 -4.45706,-3.19993 -7.78759,4.04889 -1.77955,3.68972 -6.84068,0.84896 -1.30609,4.3591 1.84485,8.78349 3.72237,4.34276 6.57946,-1.28976 2.66117,5.84477 -0.94692,10.59569 4.76724,0.53877 1.28978,7.4121 -5.07745,8.09779 7.52637,9.50184 -4.97949,0.73467 -1.82852,2.44894 0.11428,6.18762 -4.52235,7.68964 -15.18336,1.12651 -4.4897,1.50201 -1.45304,3.70604 -9.76306,1.07753 v 0 l -2.4326,-9.76306 -13.81196,-13.15892 1.0612,-10.98753 -8.47329,-6.84067 2.95504,-14.25277 6.84068,-5.33866 -2.69383,-8.71818 -9.53449,-1.27344 -8.97941,8.11411 -6.106,-2.71014 -3.90195,2.4979 -1.66527,-4.21216 2.25301,-7.37943 -4.84887,-16.42415 -3.60809,-4.53868 -9.66511,2.85708 -13.84461,-4.26114 -12.04873,-6.80801 -3.83666,-9.20797 -9.01206,8.40798 -5.07744,-20.08122 2.15506,-7.2325 v 0 l 4.1795,-5.15908 -0.6857,-17.07719 6.49783,-16.88128 v 0 l 13.95889,5.14275 5.61621,-7.44474 0.66937,-5.32235 9.19165,2.97138 1.51833,-2.95505 -2.98769,-0.97957 11.57527,-9.92632 2.02445,4.01624 0.22856,14.35072 10.85693,-5.73049 9.74673,20.45672 15.65682,-5.69784 2.4979,-9.40389 2.20404,-1.46935 4.50603,3.4285 5.5509,0.16325 3.83666,3.70606 6.95495,0.86528 6.82435,13.94257 3.41218,0.96324 5.306,-5.63253 9.69777,-0.73468 -5.53459,-25.17499 z"
     class="land"
     title="Haskovo"
     id="BG-26"
     inkscape:connector-curvature="0"
     style="fill:#f37a8b;fill-opacity:1;stroke:#ffffff;stroke-width:0.81630957;stroke-opacity:1" />
  <path
     d="m 691.7796,510.00495 13.42012,15.26498 20.71794,39.98285 11.49364,0.91426 -3.10197,7.7876 -11.77119,2.00812 -2.08976,2.46525 1.58365,6.92231 12.81606,14.43235 -2.59587,8.2284 4.0489,10.12224 -4.55501,5.37132 0.55509,3.46114 16.3915,15.68947 v 0 l -2.33465,0.47347 0.78366,4.29379 -3.16729,4.50602 -4.22848,0.35918 0.45714,3.72237 -3.55911,4.99582 -14.69358,1.53466 -4.34276,4.55501 -8.65288,-4.37542 -5.76314,6.75904 -13.94257,-1.6163 -6.64477,-3.00401 -10.07326,11.412 v 0 l -12.21199,-18.36696 0.11429,-4.52236 3.98359,-3.8693 0.73468,-22.46484 -5.92641,0.65305 -2.54688,-4.50603 -6.35089,1.50201 -4.09788,-3.26524 -4.01624,2.30199 -9.74674,-2.54689 -5.35499,-4.88152 -11.9671,-5.04479 v 0 l -5.87742,-3.65708 v 0 l 9.43653,-21.06078 1.02856,-13.17523 -1.3714,-2.69383 -6.87333,5.76315 -3.62442,-8.03249 6.74272,2.54688 -0.44081,-9.68142 2.15506,-1.35507 11.03651,3.05299 2.38362,-3.28157 6.69374,-0.86529 7.39576,-8.0488 -0.55509,-3.55911 -3.10198,-2.12241 6.4815,-5.33866 8.93043,1.46935 14.31807,-8.94675 7.90188,-0.79998 4.63663,-7.44475 3.4285,3.77136 4.71827,-5.89376 0.049,-6.51415 -3.06932,-7.28148 z"
     class="land"
     title="Yambol"
     id="BG-28"
     inkscape:connector-curvature="0"
     style="fill:#f37a8b;fill-opacity:1;stroke:#ffffff;stroke-width:0.81630957;stroke-opacity:1" />
  <path
     d="m 743.72953,292.19724 14.51399,-4.97949 8.99573,11.10181 7.00393,-0.27755 v 0 l 4.06523,4.83255 7.37943,1.02856 6.95497,9.68142 2.44892,0.94692 11.3467,-6.61211 4.22849,7.75495 v 0 l -3.19994,4.57133 -15.55886,4.96316 -0.0163,5.77948 4.32644,1.92649 -3.13463,8.21207 3.06932,0.66937 0.75101,2.88974 -8.31003,12.60382 1.64894,17.68126 -3.13463,2.80811 -4.48969,-1.43671 -0.73469,1.94282 5.77948,22.85667 -14.66093,8.65288 -1.63262,6.22028 4.03258,4.40807 2.54688,14.28541 -22.10566,4.71827 -4.37542,4.14686 8.21207,9.11001 -0.45713,6.38354 v 0 l -8.19575,0.94692 -11.82016,6.35089 -8.2284,-6.1713 -9.06103,1.77955 -6.36722,-2.67749 -13.12626,0.58774 -10.31815,7.31413 -12.42424,0.098 -0.83263,-6.43252 -10.20386,0.39183 v 0 l -1.95915,-2.36729 0.89794,-4.60399 10.48141,-9.27328 v 0 l 5.24071,-2.61219 -0.0653,-7.47739 8.65288,-8.86513 -4.44072,-15.78742 6.49782,-0.44081 3.52646,-9.91 9.48551,-10.00795 -0.79998,-4.1142 -5.32234,-4.86521 -1.07753,-12.83239 2.00813,-2.59586 v 0 l 6.93862,-7.11821 -7.93452,-6.857 -0.52244,-5.7305 10.64468,-10.2855 -0.50612,-9.87734 9.33858,-7.93454 1.53466,-6.90598 9.32227,2.64485 5.25702,-6.64476 7.00394,-3.46115 2.39995,-3.60809 z"
     class="land"
     title="Shumen"
     id="BG-27"
     inkscape:connector-curvature="0"
     style="fill:#f37a8b;fill-opacity:1;stroke:#ffffff;stroke-width:0.81630957;stroke-opacity:1" />
  <g
     id="stadiums"
     data-country="bulgaria"
     data-circle-radius="6"
     data-circle-colors="#a149be,#bea149"
     transform="translate(0,387.44958)" />
</svg>
