<?xml version="1.0" encoding="UTF-8" standalone="no"?>
<?xml-stylesheet type="text/css" href="/styles/home.css"?><!-- https://www.amcharts.com/svg-maps -->

<svg
   version="1.1"
   id="map-croatia"
   viewBox="0 0 1000 1000"
   width="1000"
   height="1000"
   class=""
   sodipodi:docname="croatia.svg"
   inkscape:version="1.3.1 (91b66b0783, 2023-11-16)"
   xmlns:inkscape="http://www.inkscape.org/namespaces/inkscape"
   xmlns:sodipodi="http://sodipodi.sourceforge.net/DTD/sodipodi-0.dtd"
   xmlns="http://www.w3.org/2000/svg"
   xmlns:svg="http://www.w3.org/2000/svg"
   xmlns:rdf="http://www.w3.org/1999/02/22-rdf-syntax-ns#"
   xmlns:cc="http://creativecommons.org/ns#"
   xmlns:dc="http://purl.org/dc/elements/1.1/">
  <metadata
     id="metadata30">
    <rdf:RDF>
      <cc:Work
         rdf:about="">
        <dc:format>image/svg+xml</dc:format>
        <dc:type
           rdf:resource="http://purl.org/dc/dcmitype/StillImage" />
      </cc:Work>
    </rdf:RDF>
  </metadata>
  <sodipodi:namedview
     pagecolor="#ffffff"
     bordercolor="#666666"
     borderopacity="1"
     objecttolerance="10"
     gridtolerance="10"
     guidetolerance="10"
     inkscape:pageopacity="0"
     inkscape:pageshadow="2"
     inkscape:window-width="1920"
     inkscape:window-height="1106"
     id="namedview28"
     showgrid="false"
     showguides="true"
     inkscape:guide-bbox="true"
     inkscape:zoom="0.77124714"
     inkscape:cx="255.43044"
     inkscape:cy="348.13743"
     inkscape:window-x="-11"
     inkscape:window-y="-11"
     inkscape:window-maximized="1"
     inkscape:current-layer="map-croatia"
     inkscape:showpageshadow="2"
     inkscape:pagecheckerboard="0"
     inkscape:deskcolor="#d1d1d1">
    <sodipodi:guide
       position="640.86804,500"
       orientation="0,1"
       id="guide840"
       inkscape:locked="false"
       inkscape:label=""
       inkscape:color="rgb(0,0,255)" />
    <sodipodi:guide
       position="493.45807,988.37111"
       orientation="0,-1"
       id="guide1"
       inkscape:locked="false" />
  </sodipodi:namedview>
  <defs
     id="defs4">
    <style
       type="text/css"
       id="style2">
			.land
			{
				fill: #f8934f;
				fill-opacity: 1;
				stroke:white;
				stroke-opacity: 1;
				stroke-width:0.5;
			}
         .rectangle:hover {
         fill: #bdbdbd;
         cursor: pointer;
         }
		</style>
    <!-- <amcharts:ammap projection="mercator" leftLongitude="13.492149" topLatitude="46.542610" rightLongitude="19.400320" bottomLatitude="42.403920"></amcharts:ammap> -->
    <!-- All areas are listed in the line below. You can use this list in your script. -->
    <!--{id:"HR-01"},{id:"HR-02"},{id:"HR-03"},{id:"HR-04"},{id:"HR-05"},{id:"HR-06"},{id:"HR-07"},{id:"HR-08"},{id:"HR-09"},{id:"HR-10"},{id:"HR-11"},{id:"HR-12"},{id:"HR-13"},{id:"HR-14"},{id:"HR-15"},{id:"HR-16"},{id:"HR-17"},{id:"HR-18"},{id:"HR-19"},{id:"HR-20"},{id:"HR-21"}-->
  </defs>
  <path
     d="m 467.75237,126.7119 3.8399,10.98047 2.95754,2.46733 6.7811,-3.46407 v 0 l 11.30726,6.40528 3.5948,-1.20917 2.54903,1.92813 0.62093,3.33336 3.61113,1.71569 0.80066,7.15692 5.75166,-3.39873 1.37257,2.28762 4.902,-0.63726 9.01966,9.36281 2.3693,-1.74837 3.72551,2.35295 5.14709,-2.59807 6.27456,1.48694 v 0 l 1.01308,12.71252 -2.87584,6.45429 0.93138,3.66015 -3.08825,-2.32028 -4.44447,1.25818 -0.9804,-2.7778 -1.14381,3.1863 -5.70265,2.7778 0.66994,6.29089 -4.6569,-2.71243 -11.91184,1.16013 1.27452,3.31701 -2.23858,2.05885 3.5131,2.67976 -3.25166,8.03927 6.60135,4.98369 5.14709,0.098 2.50002,5.99678 2.46734,-1.01308 3.7582,4.951 v 0 h 0.13071 v 0 l -4.59153,11.01316 -7.82685,1.89543 -12.00989,12.59813 -2.95753,-6.38892 -6.96084,-2.00983 -3.82355,-7.43469 -7.23861,1.81374 -1.634,-6.01311 -7.41835,3.61113 -1.99348,3.38238 -2.46734,-1.32354 -5.29415,6.24188 -17.51646,-9.26478 -12.64715,16.58508 6.42161,6.4543 -0.0654,17.38574 -4.19937,3.46408 -6.14384,-8.30071 -4.03597,-1.16015 -5.29415,4.36279 -9.03601,-0.53923 v 0 l -0.39216,-0.0491 v 0 l -2.41832,-3.00656 0.8987,-6.81377 -3.18631,-3.8399 -5.34316,0.29413 -0.39216,-3.98696 -4.902,-0.45752 -7.71247,6.47063 -8.28437,-9.853 0.7353,-8.69288 -3.38238,2.84316 -18.95438,-8.39875 -13.88898,11.55237 -1.40524,-2.51635 2.17322,-5.06541 -4.9837,-0.0816 0.91504,-7.74515 -9.15039,-5.19611 -2.97388,-7.61444 -5.53925,-0.63727 -2.66341,-6.3399 -10.01641,-4.64056 1.66668,-8.36607 v 0 l 11.06216,-5.45756 10.49027,-0.62092 -1.25818,-5.21245 4.26474,-2.99022 1.8791,2.33662 3.97061,-0.35948 2.30394,-6.02945 3.59479,2.40197 2.09152,-3.33336 11.79747,7.95758 3.93794,-5.03271 6.68305,-0.8987 -3.41505,-4.28107 -0.78432,-9.85302 4.60786,-4.75493 0.0817,-11.63408 v 0 l 9.10138,-0.098 1.35621,2.00982 2.23858,-5.35953 5.63729,-0.0654 14.52625,7.2223 7.1079,6.6667 0.52287,5.42489 v 0 l -19.01973,12.50008 -2.84316,5.45755 2.90851,9.82034 -3.41505,4.21571 8.85626,5.84971 -1.17647,4.91833 -2.90852,2.25493 -8.02293,-5.19612 -5.06539,6.87914 1.40523,6.22552 15.08182,7.17325 6.07846,5.99678 -0.58824,5.39219 h 6.11116 l 3.43139,-2.84315 5.81704,-12.36936 1.48694,-9.70595 4.03597,-0.7353 1.92811,-6.71573 17.36941,-10.91512 1.76472,-3.77453 9.05234,2.58172 0.83334,-8.02293 5.01639,-2.59806 -5.17979,-11.97721 -4.11767,-1.89543 -0.27778,-9.65694 -3.79088,-7.84321 v 0 l 0.21243,-5.03272 5.42487,-4.00328 -0.817,-2.97389 5.65364,-0.94771 -3.10461,-7.59809 3.64382,0.35948 z"
     class="land"
     title="Zagrebačka županija"
     id="HR-01"
     inkscape:connector-curvature="0"
     style="fill:#f8934f;fill-opacity:1;stroke:#ffffff;stroke-width:0.816999;stroke-opacity:1" />
  <path
     d="m 401.65714,76.711544 2.41832,10.228829 7.69614,2.565377 2.53269,4.722255 6.84645,1.568638 v 0 l 7.05888,2.107862 v 0 l 11.14386,-2.401982 3.46408,0.35948 1.37256,3.317017 5.42488,0.212426 3.31701,-4.885662 5.58827,-2.075177 1.42158,1.683017 -2.17322,2.450994 8.987,0.931382 -2.81048,3.83991 3.66016,4.70591 -2.02616,14.37919 2.17321,6.29089 v 0 l -6.01311,4.31376 -3.64382,-0.35948 3.1046,7.59809 -5.65363,0.94771 0.817,2.97389 -5.42487,4.00328 -0.21243,5.03272 v 0 l -6.50331,-0.14706 -1.1438,3.10462 -5.71899,0.58823 -21.40538,11.438 v 0 l -0.52288,-5.42489 -7.10789,-6.6667 -14.52625,-7.2223 -5.63729,0.0654 -2.23858,5.35952 -1.35621,-2.00981 -9.10138,0.098 v 0 l -1.14379,-7.30397 5.14709,-10.58831 -2.8595,-3.66017 -9.39548,-2.69609 -1.99349,-4.06865 -4.37911,-0.35948 -2.84316,-6.48697 1.20916,-5.13076 -2.46733,-2.22224 2.90851,-1.68302 -1.65034,-2.59805 6.89548,-5.996789 0.58824,-7.254951 5.26148,-2.581718 8.25168,2.810476 3.61113,-1.274517 -0.0327,2.630736 2.7778,0.310461 5.76802,-7.124233 -1.38889,-4.281075 z"
     class="land"
     title="Krapinsko-zagorska županija"
     id="HR-02"
     inkscape:connector-curvature="0"
     style="fill:#f8934f;fill-opacity:1;stroke:#ffffff;stroke-width:0.816999;stroke-opacity:1" />
  <path
     d="m 397.55581,329.88326 -7.45103,-6.73209 1.83008,-6.32356 3.44773,-2.40198 -6.7811,-13.57852 0.91505,-3.90526 9.15039,-5.01638 -1.92812,-10.55563 2.71244,-6.74841 -3.07192,-1.51962 3.15362,-3.75819 6.43795,-2.64708 5.6373,5.04906 1.35622,-1.48694 v 0 l 0.39216,0.0491 v 0 l 9.036,0.53923 5.29416,-4.36279 4.03597,1.16015 6.14384,8.30071 4.19937,-3.46408 0.0654,-17.38574 -6.42161,-6.4543 12.64715,-16.58508 17.51646,9.26478 5.29415,-6.24188 2.46734,1.32354 1.99348,-3.38238 7.41835,-3.61113 1.634,6.01311 7.23861,-1.81374 3.82355,7.43469 6.96083,2.00983 2.95754,6.38892 12.00989,-12.59813 7.82685,-1.89543 4.59153,-11.01316 v 0 l 0.29413,0.0164 v 0 l 6.19285,-1.17647 1.01308,3.44774 8.90529,1.97714 2.63073,5.32683 10.81707,0.84968 3.12093,12.5491 6.6177,4.28108 2.56539,5.58827 -2.33663,4.10133 -3.64382,-0.99673 -1.07843,1.73203 4.06866,3.62748 2.74511,-1.53595 7.0262,7.84319 4.23205,-3.39872 v 0 l 3.64381,6.09482 6.6994,-0.0817 3.33336,2.71244 2.2549,6.92814 3.70919,-2.8595 -0.44119,-3.52943 2.30395,0.42484 1.17648,3.70918 -3.16996,6.3399 10.86609,4.93468 3.56211,6.76476 7.22227,-1.17648 v 0 l -0.049,13.23538 -10.53929,10.40857 -6.79743,2.72877 -1.3889,3.80723 7.17326,5.66997 5.55559,10.73537 v 0 l -16.01318,-9.34647 -2.48368,-5.71899 -4.49349,2.33662 1.92811,-4.902 -2.59805,-0.55556 -2.0425,4.01963 -2.8595,-1.51962 -5.96409,0.31046 -0.58824,-4.16669 2.89217,-3.03925 -3.49675,-4.60786 -9.18308,10.60464 -1.73203,-0.98039 -5.68631,4.91834 1.4706,5.00003 -4.03598,2.38564 -15.00009,-5.31051 -6.17653,2.5327 -15.8171,-8.05561 -8.10463,2.17322 -3.66016,-1.43792 -6.73207,4.26475 -5.04905,16.17656 -11.22557,6.96085 1.35621,5.21245 -7.82685,14.16676 -0.45751,6.79744 -7.53273,0.84968 -14.03605,-2.59806 -1.35622,-4.57519 -12.15695,-11.68309 -11.14387,-5.27782 -6.99351,-17.67986 -5.24514,-0.4085 2.25493,-3.79087 -1.20916,-4.08499 -7.6798,-3.77455 -6.22553,4.68958 -2.12419,-6.51966 -5.0654,0.60458 0.2451,2.53271 z"
     class="land"
     title="Sisačko-moslavačka županija"
     id="HR-03"
     inkscape:connector-curvature="0"
     style="fill:#f8934f;fill-opacity:1;stroke:#ffffff;stroke-width:0.816999;stroke-opacity:1" />
  <path
     d="m 314.15655,198.16666 -1.66668,8.36607 10.01641,4.64056 2.66341,6.3399 5.53925,0.63727 2.97388,7.61444 9.15039,5.19611 -0.91504,7.74515 4.9837,0.0816 -2.17322,5.06541 1.40524,2.51634 13.88898,-11.55236 18.95438,8.39875 3.38238,-2.84316 -0.7353,8.69288 8.28437,9.853 7.71247,-6.47063 4.90199,0.45752 0.39217,3.98696 5.34316,-0.29413 3.18631,3.8399 -0.8987,6.81377 2.41832,3.00656 v 0 0 0 l -1.35622,1.48694 -5.6373,-5.04906 -6.43795,2.64708 -3.15362,3.75819 3.07192,1.51962 -2.71244,6.74841 1.92812,10.55563 -9.15039,5.01638 -0.91505,3.90526 6.7811,13.57852 -3.44773,2.40198 -1.83008,6.32356 7.45103,6.73209 v 0 l -13.33343,14.08507 3.52943,12.67981 -6.16016,11.99355 6.55233,13.98703 0.29412,7.63077 -5.66997,1.04576 -2.38564,9.41183 v 0 l -4.57519,3.66014 -8.67654,-5.8497 -8.56214,3.48042 -7.30398,-7.76149 -6.19285,8.18632 5.98044,7.5164 -1.17648,2.40198 -6.76476,-8.36608 -12.79421,-2.69609 -12.97393,-19.13412 -10.65368,-3.79088 -2.5327,-4.62421 -13.43146,-9.78765 -2.09152,-5.719 -5.96409,2.14055 -3.8399,5.68631 -7.92489,-2.59806 -4.03598,-5.52291 -9.50987,-3.9216 v 0 l -6.91181,-10.2942 2.82682,-8.59482 0.0654,-11.56871 -4.03597,-4.85297 3.33336,-2.23858 1.71569,-7.12423 4.11768,-1.69937 3.25165,4.96737 7.46737,0.63725 0.5719,3.28434 2.8595,0.83334 3.77453,-5.26147 9.21576,-2.41832 -0.71897,-4.29741 9.19941,-16.07855 -0.70262,-7.67979 v 0 l 3.48043,-6.37259 4.88565,-3.02291 9.86935,3.1046 9.47718,-8.34973 -14.37918,-11.79747 -0.45752,-11.27457 -3.66015,-4.9837 5.13075,-2.2876 -0.83333,-4.26474 8.23534,-1.45425 -0.66994,-2.40198 6.84645,2.10785 3.41506,-2.58172 -6.38893,-10.29418 -3.41505,4.29741 2.33661,-5.57193 -0.96406,-4.64056 -3.07192,0.0817 -3.28434,4.19937 0.34315,5.44121 -1.91178,-5.89873 -2.1242,2.58171 -2.5327,-5.4412 -7.48371,-2.82683 z"
     class="land"
     title="Karlovačka županija"
     id="HR-04"
     inkscape:connector-curvature="0"
     style="fill:#f8934f;fill-opacity:1;stroke:#ffffff;stroke-width:0.816999;stroke-opacity:1" />
  <path
     d="m 456.00393,49.799594 4.31375,1.879098 8.15366,-2.663418 2.27125,3.921595 2.9412,-0.522878 v 0 l 6.84646,3.594796 5.24513,8.676529 6.19285,0.03268 1.99347,2.271258 6.09481,-3.267997 1.07845,3.055577 9.50987,1.977137 0.29412,-1.732038 4.8203,0.26144 3.0719,-4.199375 7.41836,5.669973 13.00663,-3.398715 3.54578,3.317016 5.65362,-4.232056 -0.93138,4.624215 6.536,1.225499 v 0 l -0.70263,11.045828 -13.15368,13.790945 -8.03926,0.620919 -4.8203,-2.205898 -11.63406,6.274554 0.96406,3.856252 -19.15047,1.07843 -1.2255,3.54578 -8.00659,5.62095 -6.96082,22.77794 v 0 l -6.7811,3.46407 -2.95754,-2.46733 -3.8399,-10.98047 v 0 l -2.17321,-6.29089 2.02616,-14.37919 -3.66016,-4.70591 2.81048,-3.839911 -8.987,-0.931382 2.17322,-2.450994 -1.42158,-1.683017 -5.58827,2.075177 -3.31701,4.885662 -5.42488,-0.212426 -1.37256,-3.317017 -3.46408,-0.35948 -11.14386,2.401982 v 0 l -7.05888,-2.107862 v 0 l -6.84645,-1.568639 -2.53269,-4.722254 -7.69614,-2.565377 -2.41832,-10.228829 v 0 l 6.0458,-4.607875 7.77782,0.04902 6.0458,-5.228795 5.719,-0.04902 3.97061,-5.686314 5.93143,-0.588239 -3.08827,-11.699427 9.64059,1.029417 5.44121,-5.702653 z"
     class="land"
     title="Varaždinska županija"
     id="HR-05"
     inkscape:connector-curvature="0"
     style="fill:#f8934f;fill-opacity:1;stroke:#ffffff;stroke-width:0.816999;stroke-opacity:1" />
  <path
     d="m 570.3021,58.982663 2.7778,2.810477 1.0621,14.379185 11.42164,8.67653 3.33336,-0.604579 0.58825,4.460815 5.99677,0.915039 12.35302,8.480447 3.25166,-0.457515 3.9216,4.640568 5.65363,-0.3268 -0.049,2.74511 3.87258,1.89544 -0.91504,10.35956 6.02944,-1.35623 -0.49019,3.64382 3.77453,-0.049 -2.27125,4.18304 2.84315,0.75164 -0.6536,4.57518 6.61769,0.84968 -2.82681,6.48698 6.99352,0.80066 -6.25822,3.12093 3.98696,3.05559 4.10134,-0.22877 -1.66668,4.31377 v 0 l -13.97069,0.44117 -15.22887,25.34332 v 0 l -9.59157,-6.19285 -2.72877,-7.56542 -11.02949,1.33989 1.56864,-6.14384 -5.45755,-5.83339 -11.99355,-0.8987 5.29416,-8.88894 -3.69285,-0.0164 -5.24513,-9.0687 0.63726,-3.98695 -6.48697,-3.95427 -2.05884,9.96739 -7.54907,2.71243 1.22549,-3.05558 -2.27125,-1.07843 -9.06868,5.52291 -2.76147,8.74188 -0.96406,18.64394 v 0 l -6.27456,-1.48694 -5.14709,2.59807 -3.72551,-2.35295 -2.3693,1.74837 -9.01966,-9.36281 -4.902,0.63726 -1.37257,-2.28762 -5.75166,3.39873 -0.80066,-7.15692 -3.61113,-1.71569 -0.62093,-3.33336 -2.54903,-1.92813 -3.5948,1.20917 -11.30726,-6.40528 v 0 l 6.96082,-22.77794 8.00659,-5.62095 1.2255,-3.54578 19.15047,-1.07843 -0.96406,-3.856251 11.63406,-6.274554 4.8203,2.205898 8.03926,-0.620919 13.15368,-13.790944 0.70263,-11.045828 v 0 l 2.94119,-1.519619 0.8987,2.271257 2.40198,-3.120936 0.84968,6.176513 3.93794,-0.588239 4.00329,-16.307303 v 0 z"
     class="land"
     title="Koprivničko-križevačka županija"
     id="HR-06"
     inkscape:connector-curvature="0"
     style="fill:#f8934f;fill-opacity:1;stroke:#ffffff;stroke-width:0.816999;stroke-opacity:1" />
  <path
     d="m 542.37707,163.13373 0.96406,-18.64394 2.76147,-8.74188 9.06868,-5.52291 2.27125,1.07843 -1.2255,3.05558 7.54908,-2.71243 2.05884,-9.96739 6.48697,3.95427 -0.63726,3.98695 5.24513,9.0687 3.69285,0.0163 -5.29416,8.88894 11.99354,0.8987 5.45756,5.83339 -1.56864,6.14384 11.02949,-1.33989 2.72877,7.56542 9.59157,6.19285 v 0 l 10.26152,5.16343 2.56537,5.89875 7.54908,5.57193 5.42487,1.02942 1.83008,7.90855 4.77128,1.09478 0.39215,4.13402 2.84316,1.29084 1.68301,-4.03597 2.9412,2.59806 -1.56864,10.03275 4.01964,-3.23531 2.18956,6.47063 9.05235,-6.0458 1.58497,3.41506 7.90856,3.72551 -8.3334,14.90207 0.0327,6.19286 -3.92159,2.28759 0.0654,5.17978 2.99021,-0.93138 v 0 l 1.48695,2.25491 -2.18957,9.36282 -5.06539,4.28107 -7.81051,-1.32355 -0.68628,-2.30392 -10.60465,1.30719 -1.7157,2.14054 -9.98373,-0.29413 -7.22227,-6.14383 -3.69284,4.2484 -6.71573,-1.92811 -6.87913,4.47715 -4.47716,-3.90525 -6.14382,3.66015 -8.5785,-2.66341 -1.12745,-6.89548 -4.95102,8.39875 0.78432,7.95757 v 0 l -4.23205,3.39872 -7.0262,-7.84319 -2.74511,1.53595 -4.06866,-3.62748 1.07843,-1.73203 3.64382,0.99673 2.33663,-4.10133 -2.56539,-5.58827 -6.6177,-4.28108 -3.12093,-12.5491 -10.81707,-0.84968 -2.63073,-5.32683 -8.90529,-1.97714 -1.01308,-3.44774 -6.19285,1.17647 v 0 l -0.42484,-0.0164 v 0 l -3.7582,-4.951 -2.46734,1.01308 -2.50002,-5.99678 -5.14709,-0.098 -6.60135,-4.98369 3.25166,-8.03927 -3.5131,-2.67976 2.23858,-2.05885 -1.27452,-3.31701 11.91184,-1.16013 4.6569,2.71243 -0.66994,-6.29089 5.70265,-2.7778 1.1438,-3.1863 0.98041,2.7778 4.44447,-1.25818 3.08825,2.32028 -0.93138,-3.66015 2.87584,-6.45429 z"
     class="land"
     title="Bjelovarsko-bilogorska županija"
     id="HR-07"
     inkscape:connector-curvature="0"
     style="fill:#f8934f;fill-opacity:1;stroke:#ffffff;stroke-width:0.816999;stroke-opacity:1" />
  <path
     d="m 179.61312,511.77993 5.19612,4.39546 -6.71572,-0.47387 -1.76473,-2.8268 2.23858,-2.451 z m -37.46756,-12.04256 -3.93794,3.28434 -3.23531,-5.35953 z m -8.5785,-41.16041 1.20916,5.53925 -4.46082,-1.35622 3.52945,14.78768 -7.87588,-5.53925 2.66342,-1.43792 -1.45425,-6.09481 z m 10.68635,-6.24188 8.80726,4.5752 0.83334,17.48378 8.18632,14.67331 15.572,14.13408 -1.40524,4.82029 -13.3661,-11.22557 -0.60458,-1.43792 -0.9804,-4.01963 -1.42158,-4.4935 -1.29085,1.11112 -2.2876,-3.18629 -2.79413,4.78761 -4.26475,-1.68302 0.65361,-6.43795 3.36603,-3.49676 -7.14056,-9.82033 z m 84.57575,5.99677 -12.64715,-13.33343 9.72229,7.97393 z m -28.21915,-26.45443 13.74193,11.20923 -13.00664,-3.70918 -3.98695,-5.3595 z m 27.07535,-12.95761 -1.19281,6.22554 -4.52619,-6.1275 z m -18.25176,0.19608 4.11768,-0.26144 2.00981,2.41832 -3.85624,5.6373 15.04913,14.5099 6.63403,12.18963 -5.22879,1.09478 -9.72229,-11.32361 -11.97722,-8.13731 -1.73203,-5.98043 4.78762,1.5523 -8.21902,-9.98374 7.58175,2.33662 z m 6.35625,-5.89873 3.25166,4.29742 -5.66998,-0.31047 -2.54903,-3.6438 1.58498,-2.61441 z m 2.451,-13.6112 6.51966,4.21572 3.39871,7.56541 -11.47067,-6.92815 -0.53922,-5.11442 z m -41.5199,-11.27459 3.48042,5.78436 -3.00655,0.26143 -8.64385,-6.38894 6.35625,-1.56862 z m -35.01658,-45.67025 5.32685,2.22224 2.27125,4.13401 -2.95753,7.2713 7.79416,24.67337 5.75167,7.59809 6.11116,-0.68629 2.82681,6.536 -4.33009,0.62093 -2.48367,18.17005 3.82354,20.42498 -2.81047,-1.30719 -0.80066,2.20588 5.32683,9.78766 -2.64707,4.29741 2.41832,7.82686 5.99677,7.41834 -1.56864,5.719 2.35296,-1.06209 0.62092,2.79413 4.11767,0.0327 -7.92489,6.91182 -6.81377,-5.21246 -11.37262,-16.4707 1.04575,-11.92819 -4.59153,-2.66342 -0.62092,-11.30726 -2.27125,-3.62748 -2.90853,0.84968 -0.47385,-9.42817 -4.88566,-13.97068 -0.47386,-5.6373 2.27126,-3.79087 8.02294,11.6504 4.75493,0.3268 1.94445,-2.38563 -2.99021,-7.25496 1.29085,-3.13727 4.18304,2.23857 -1.27452,-3.08825 -2.87584,-0.11438 -2.36929,-7.28764 -4.55886,-2.84315 1.5523,-5.83338 -1.97713,-6.19285 -7.30398,-4.05232 -2.45099,-7.10789 -2.451,-1.14379 -0.76798,-3.93795 4.86931,-10.11444 z m 40.22903,-16.83018 4.6569,0.88236 1.74837,3.1046 -3.25164,-0.62093 8.36606,14.90207 -4.29742,-1.24185 -1.66667,4.70593 6.65037,-2.48368 5.24514,3.36604 1.99348,3.317 -2.89218,9.98373 1.7974,3.31703 4.96735,3.07191 2.50002,-1.51962 4.73859,4.19939 -0.4085,4.26473 13.03931,13.43146 -2.09152,3.8399 -9.15039,-1.45426 0.9804,7.09155 -4.26474,1.02942 -7.69613,-3.36604 -1.92811,-3.70918 -4.28108,0.24511 -5.47389,-3.33336 0.86602,-14.65697 -2.90853,2.95754 2.07519,3.25166 -6.96083,-3.02289 -2.90852,3.26799 -6.09482,-0.66994 -6.14383,-2.54904 -9.01966,-9.96739 -0.098,-5.73534 5.81701,-1.53595 1.04577,-7.04253 4.93467,2.90852 3.74186,-1.96081 -0.76798,-6.29089 3.98694,-3.98695 -1.87909,-7.77784 2.84316,-1.86275 -2.46733,-6.84646 z m 2.22225,-102.79484 6.38893,1.55231 -3.08826,8.75823 16.32364,12.04257 -0.27777,12.09158 4.55884,-1.8791 13.21906,7.63077 3.38236,10.19616 15.35959,-4.06866 0.93138,-10.03275 3.07192,-2.48368 8.64385,7.36933 17.51646,3.88892 0.16339,3.97062 12.1733,10.06542 3.87258,0.39216 2.05882,-3.15361 4.902,2.25492 v 0 l 0.68629,7.67979 -9.19942,16.07855 0.73531,4.29741 -9.21575,2.41832 -3.77454,5.27781 -2.8595,-0.83334 -0.5719,-3.28434 -7.46737,-0.65359 -3.25165,-4.96737 -4.10134,1.69937 -1.73203,7.12423 -3.33337,2.25491 4.03598,4.83664 -0.0654,11.58505 -2.82682,8.57848 6.89547,10.2942 v 0 l 2.46734,8.75823 -3.4314,5.53925 -10.32686,1.17648 -1.53596,-4.0033 -3.54578,4.65691 -3.85623,0.60456 -1.58498,5.17978 v 0 l -6.43795,-15.14716 0.84968,-4.75494 -2.40198,1.86277 0.0654,-1.83008 -3.39872,0.29412 -17.09162,-8.52948 -10.06543,-12.36936 -13.59486,-11.12752 -1.634,-7.95758 2.79414,0.26144 -1.79741,-2.72878 -5.5229,-3.57845 3.80721,5.53925 -2.87583,1.27451 -7.61444,-4.10132 -2.77779,-4.83664 -25.76815,-9.70595 -7.85953,12.14061 -9.46085,36.73227 v 0 l -4.15036,-2.72877 1.19282,-11.30727 -2.6144,-10.76804 1.0621,-10.75171 3.44773,-3.95428 -5.17977,-13.7746 3.23532,-5.47391 -12.92493,-8.219 -2.82681,-4.96736 -0.0327,-7.09155 v 0 l 14.65696,1.7974 2.99021,-7.28763 3.88893,-1.29086 3.07191,4.72225 3.87257,-1.63399 6.89548,5.49023 15.0818,-8.67653 2.54903,0.6536 9.52621,-7.40201 2.56538,-16.32365 5.5556,-1.78105 z"
     class="land"
     title="Primorsko-goranska županija"
     id="HR-08"
     inkscape:connector-curvature="0"
     style="fill:#f8934f;fill-opacity:1;stroke:#ffffff;stroke-width:0.816999;stroke-opacity:1" />
  <path
     d="m 238.02857,512.84204 12.56545,12.64714 -12.35304,-8.61116 -2.30393,-3.51311 z m -15.83345,-44.67352 14.34651,17.33672 -2.56538,-8.16999 6.47064,-1.3889 -0.29413,2.25493 8.46412,5.75167 4.50982,10.34321 11.37264,4.4935 4.4935,9.1994 -5.2288,-2.6961 0.21241,-2.18955 -6.14382,0.19607 -1.25819,-3.82355 -14.9184,-8.26804 -0.0327,2.32029 3.05558,0.78432 18.2681,21.73218 1.53596,-2.18957 -1.74838,-6.71573 12.12427,8.74189 4.16669,7.32031 6.20919,3.25166 1.7157,4.85297 2.61441,-0.26144 7.74514,6.74842 1.5523,6.35625 -14.60794,-10.2942 10.96413,10.96414 -3.97062,0.11438 1.92812,3.69283 -14.75501,-6.8301 7.09156,10.1798 -11.12754,-6.68305 -3.1863,-4.83664 2.18957,-2.46734 -3.08826,-2.97387 4.75494,-4.03598 -5.8007,-4.68957 -2.54903,-0.098 0.049,2.35297 -4.49349,-0.96406 -0.4902,-3.92159 -7.22227,-8.80726 -6.65038,-3.56212 0.34314,-2.00982 -2.82681,1.47061 -5.27782,-4.4935 -1.30719,-2.8595 3.57845,-0.83334 -8.44777,-11.25824 1.7974,-2.41832 -15.76808,-16.92822 -9.62425,-17.72889 z m 35.16364,-114.15111 9.52621,3.9216 4.01964,5.52291 7.92489,2.59806 3.8399,-5.68632 5.96409,-2.14054 2.07518,5.73534 13.43146,9.78765 2.5327,4.62421 10.65368,3.79088 12.97393,19.13412 12.81055,2.69609 6.76476,8.38241 1.16014,-2.40198 -5.9641,-7.51639 6.19285,-8.18632 7.30398,7.76149 8.56214,-3.48042 8.67654,5.84971 4.57519,-3.66016 v 0 l 2.02616,13.92167 5.68632,5.62096 -4.8203,4.13402 -5.81704,0.16339 -1.09477,2.71243 10.47392,16.38901 6.7811,6.20919 13.64388,-5.98043 4.18304,5.86605 5.83337,2.46734 3.26799,9.24843 9.36282,4.52618 4.19937,10.11445 -3.1863,0.37581 0.44119,4.36278 -5.21246,1.27452 3.66016,7.4837 16.04586,8.0883 3.16995,8.34973 -1.07843,7.28763 v 0 l -7.53274,2.69611 v 0 l -5.49023,-2.85951 -0.45753,7.43469 -3.20262,-3.08825 v 0 l 0.34313,-4.91833 -5.37585,-6.8628 v 0 l -10.52294,-2.51636 v 0 l -8.80725,7.77784 v 0 h -3.54579 l -1.02942,3.54577 -19.11777,11.32361 5.49023,1.48694 1.60132,2.97387 -4.23206,5.03272 v 0 l 1.60132,3.20264 v 0 l 5.71899,-0.11438 1.94447,3.20263 -2.8595,13.61121 -3.08827,2.05884 -14.41185,0.45752 -9.49353,-4.46082 -8.57849,0.11438 -4.91834,-2.40198 -4.0033,-8.34973 -6.87913,-5.24513 v 0 l -30.8172,-14.36285 -5.91507,11.83016 v 0 l -17.59817,-19.95113 -8.36607,-6.02945 -5.93141,-9.75497 -18.6766,-14.3465 -4.68958,-13.39879 -10.9968,-15.67004 -2.43466,-35.06561 7.53273,-25.49037 -1.4706,-5.19611 -3.72551,-2.92487 -2.48368,-11.17654 v 0 l 1.58498,-5.17978 3.85623,-0.58822 3.54578,-4.65691 1.53596,4.0033 10.32686,-1.17648 3.4314,-5.53925 z"
     class="land"
     title="Ličko-senjska županija"
     id="HR-09"
     inkscape:connector-curvature="0"
     style="fill:#f8934f;fill-opacity:1;stroke:#ffffff;stroke-width:0.816999;stroke-opacity:1" />
  <path
     d="m 653.24385,149.65323 -1.33988,7.66347 6.4543,-1.24183 1.30719,3.9706 3.1863,-2.00981 0.45753,2.23859 3.57845,0.52286 0.29411,-5.34316 15.71906,3.87258 6.51966,-0.63726 9.42818,8.10462 7.20593,16.07854 12.58178,1.86277 3.23531,4.34643 3.5131,-1.16014 5.75167,3.08825 1.83009,-1.47059 6.45429,10.76805 5.16344,-5.3922 3.93793,-0.17973 v 0 l 3.59479,13.61119 10.91511,3.98696 4.91834,19.19948 3.18629,0.50654 -9.29744,14.82036 0.49019,4.68958 -4.67323,2.0425 -5.49024,10.67001 -8.39874,3.98695 v 0 l -0.94772,-0.39216 v 0 l -15.91515,2.02616 2.33662,-2.25491 -3.67649,-3.10461 -25.26162,-4.134 -6.22554,-8.17 -4.10133,-0.45752 -6.58501,-6.11115 -3.21898,0.049 -2.12419,4.01963 -6.73208,-5.49023 -2.48368,1.3072 v 0 l -2.99021,0.93138 -0.0654,-5.17978 3.92159,-2.28759 -0.0327,-6.19286 8.3334,-14.90207 -7.90856,-3.72551 -1.58497,-3.41506 -9.05235,6.0458 -2.18956,-6.47063 -4.01964,3.23531 1.56864,-10.03275 -2.9412,-2.59806 -1.68301,4.03597 -2.84316,-1.29084 -0.39215,-4.13402 -4.77128,-1.09478 -1.83008,-7.90855 -5.42487,-1.02942 -7.54908,-5.57193 -2.56537,-5.89875 -10.26152,-5.16343 v 0 l 15.22887,-25.34332 13.97069,-0.44118 v 0 l 4.39545,-1.1438 -2.46734,4.64056 3.20264,0.60458 0.91504,-6.9445 z"
     class="land"
     title="Virovitičko-podravska županija"
     id="HR-10"
     inkscape:connector-curvature="0"
     style="fill:#f8934f;fill-opacity:1;stroke:#ffffff;stroke-width:0.816999;stroke-opacity:1" />
  <path
     d="m 742.83598,267.87302 1.8791,7.50005 7.53273,1.25818 13.49682,11.14386 7.53273,-0.42482 6.53599,3.48041 0.62092,7.18959 -3.93793,2.90852 3.77453,2.81048 2.7778,8.12097 -7.04253,7.8105 v 0 l -15.09814,-4.06865 -15.26155,0.35948 -4.55885,6.06213 1.29085,2.95754 -6.65037,8.41509 -6.09481,-1.78106 -3.38239,5.00004 1.51963,1.634 -6.58501,0.78432 -7.79417,-3.00657 3.18629,-4.16669 -3.36604,-12.23865 -20.96419,-2.20589 -12.18963,-8.59483 -2.71243,-7.43469 -4.52618,-1.29086 -9.86935,-10.08177 -10.21249,1.07843 -0.80066,3.44774 -3.36603,1.20917 -12.81054,-6.04579 -11.33996,8.72554 v 0 l -7.22227,1.17648 -3.56211,-6.76476 -10.86609,-4.93467 3.16996,-6.33991 -1.17648,-3.70918 -2.30395,-0.42484 0.44119,3.52944 -3.70919,2.85949 -2.2549,-6.92814 -3.33336,-2.71244 -6.6994,0.0817 -3.64381,-6.09482 v 0 l -0.78432,-7.95756 4.95102,-8.39876 1.12745,6.89548 8.5785,2.66341 6.14382,-3.66015 4.47716,3.90525 6.87913,-4.47715 6.71573,1.92811 3.69284,-4.2484 7.22228,6.14383 9.98372,0.29413 1.7157,-2.14054 10.60465,-1.30719 0.68628,2.30392 7.81051,1.32355 5.06539,-4.28107 2.18957,-9.36282 -1.48695,-2.2549 v 0 l 2.48368,-1.30721 6.73208,5.49023 2.12419,-4.01963 3.21898,-0.049 6.58501,6.11115 4.10133,0.45752 6.22554,8.17 25.26162,4.13401 3.67649,3.1046 -2.33662,2.25491 15.91515,-2.02616 v 0 z"
     class="land"
     title="Požeško-slavonska županija"
     id="HR-11"
     inkscape:connector-curvature="0"
     style="fill:#f8934f;fill-opacity:1;stroke:#ffffff;stroke-width:0.816999;stroke-opacity:1" />
  <path
     d="m 624.42012,298.42879 11.33996,-8.72554 12.81054,6.04579 3.36603,-1.20917 0.80066,-3.44774 10.21249,-1.07843 9.86935,10.08177 4.52618,1.29086 2.71243,7.43469 12.18963,8.59483 20.96419,2.20589 3.36604,12.23865 -3.18629,4.16669 7.79417,3.00657 6.58501,-0.78432 -1.51963,-1.634 3.38239,-5.00004 6.09481,1.78106 6.65037,-8.41509 -1.29085,-2.95754 4.55885,-6.06213 15.26155,-0.35948 15.09814,4.06865 v 0 l 5.40853,3.61115 4.91834,-0.53923 1.7157,2.95753 7.09154,0.58825 4.72226,4.70591 8.5785,-1.3889 5.21245,-4.11767 10.34321,-1.02942 12.81053,7.14057 13.3171,2.15688 5.44121,3.98695 v 0 l -8.93797,16.11123 3.12093,6.6177 3.44774,1.07843 v 0 l 2.59805,4.5752 -3.25165,6.94448 -1.1438,-3.8889 -9.01966,-1.04577 -8.13732,-10.52295 -17.3694,1.61766 -2.30393,-3.31702 -4.23206,0.26145 -1.16014,-4.55886 -3.13727,-1.32354 -7.40202,3.85623 1.634,6.25823 -3.00655,3.85623 -13.97069,0.21242 -8.31705,-6.48697 2.48368,-3.03925 -2.72877,-5.08173 -3.66017,-0.0491 -2.1242,3.97062 -4.62421,-6.38894 -3.69284,1.5523 -3.56211,7.1896 -5.3922,1.69936 0.65361,6.40527 -15.04913,8.82358 -30.26165,-21.48707 -12.12427,6.69939 -3.69282,-2.09151 -3.66016,1.58497 -0.94773,-5.01637 -3.08825,4.98369 -7.81051,-0.0491 1.38889,-6.48697 -7.04253,2.12418 -0.47386,-7.85952 -5.3595,6.06213 -9.15039,-0.78432 -5.719,-3.41506 -0.098,-3.39871 -2.92485,0.1634 -0.19607,-2.9412 -3.98696,0.53922 -2.05884,-2.99022 -5.00004,10.32687 -11.32361,-0.35947 -5.37585,-3.66016 v 0 l -5.55559,-10.73537 -7.17326,-5.66997 1.3889,-3.80723 6.79743,-2.72877 10.53929,-10.40857 z"
     class="land"
     title="Brodsko-posavska županija"
     id="HR-12"
     inkscape:connector-curvature="0"
     style="fill:#f8934f;fill-opacity:1;stroke:#ffffff;stroke-width:0.816999;stroke-opacity:1" />
  <path
     d="m 341.29726,653.67634 1.7974,2.02616 -3.16997,0.37582 -2.50001,-3.5948 z m -40.35976,-37.15712 9.49353,4.85298 5.80069,6.65036 2.76146,-0.37581 2.43466,6.97717 11.0785,9.62425 -0.68627,2.3693 -11.30728,-6.56868 0.0327,1.78106 -4.15036,-1.04576 -1.42158,-5.04905 -7.33664,-5.08173 -9.50988,-13.62755 z m -35.75189,-6.07847 4.78762,7.85952 -5.32683,-3.66015 z m 3.30068,-9.34648 11.74845,12.5001 3.46407,7.43468 -15.29422,-13.49682 z m 3.6765,-13.25172 14.93475,10.31053 2.58171,6.40527 8.80725,6.79744 -0.91504,5.57194 -5.24513,-7.85955 -3.21898,3.44774 -14.08506,-17.56548 -8.43143,-5.73533 -0.4085,-6.60135 z m -29.31392,-6.06213 3.62747,4.34643 -9.65693,-6.9935 z m -10.42492,-1.74838 7.97392,6.65038 1.97713,4.67323 4.0033,0.9804 0.26143,3.77452 8.3334,5.39221 -0.0327,-2.09153 2.0425,0.96407 -1.33989,2.14054 3.88892,2.51635 6.19286,14.67331 6.14383,5.34317 0.16339,-2.87583 3.75821,2.71243 -0.70262,2.10786 8.98698,7.17326 0.75164,3.30067 8.46411,4.91833 -2.17321,3.88893 -7.48372,-3.43141 -4.47714,-5.52291 -1.69936,1.07843 11.86281,9.96739 0.16342,3.20265 -16.47071,-14.41188 -18.70928,-30.04922 -17.76156,-17.25502 -2.30394,-1.29086 0.14706,2.63074 -8.38241,-5.16343 -0.91504,-2.6144 2.18957,-1.89543 0.39215,4.36277 4.46082,2.40197 -2.61441,-3.26799 1.78107,-0.37583 4.03597,2.61441 -3.79088,-8.4968 z m 14.06873,-6.79744 13.67657,12.50009 0.50653,4.46082 -9.73862,-7.15692 -4.7386,-6.7484 z m -23.6603,-14.86938 12.46741,10.65367 0.9804,-3.10458 2.63074,1.78105 -1.38891,1.02942 3.07192,1.74837 -2.74511,3.36604 -13.74193,-8.95432 4.72226,7.50005 -2.1242,0.70263 -7.07521,-13.39879 z m -17.89228,-6.37259 4.83663,3.61114 -3.43139,0.11438 -3.31702,-3.31702 z m 14.4282,2.64708 2.46734,2.17321 -2.40198,1.58498 -3.59479,-2.33661 0.66994,3.92159 -5.32683,-5.66998 4.06866,0.57191 -1.48695,-3.90526 z m 42.22252,-10.75171 10.57197,2.81047 5.83337,5.8824 -2.32027,1.2255 -0.0654,-2.40197 -4.11767,-1.66668 -7.4347,3.41505 -5.47389,-7.82685 0.39215,-1.92812 z m -69.78807,-2.48367 8.17,7.58175 -12.23865,-7.40202 -2.5327,-4.10133 1.48695,-1.27453 z m 11.25825,-18.26811 3.15362,3.5131 -0.66994,6.12749 3.1863,1.58498 1.12745,4.0033 -5.06539,-2.17322 -2.15687,-7.28763 -3.97062,-1.37256 0.45752,-3.3497 z m 18.08836,-1.17647 2.6961,3.98695 -2.90852,3.9216 4.54251,6.87913 -1.02941,3.10459 -11.74844,-6.19285 5.35951,-2.59806 -2.89218,-8.87261 z m 211.58643,-3.4314 1.71569,2.05883 0.45753,-7.43469 5.49023,2.85951 v 0 l 7.53274,-2.69611 v 0 l 0.58824,6.3726 3.75819,5.08173 -8.12097,1.20916 0.78432,3.93794 14.15042,5.00004 1.42158,2.72877 -0.47385,15.2452 3.30067,16.29096 v 0 l -9.19942,3.08826 v 0 l -4.23205,0.11437 -2.05883,4.46082 -0.11438,11.32361 v 0 l -3.88892,3.08826 v 0 l -3.77454,2.17321 -16.12756,-7.43468 -3.31701,-7.4347 v 0 l -3.20263,-0.22875 -6.97718,11.78112 -7.32032,7.43469 -3.88891,0.80066 v 0 l -2.05884,4.80396 -8.23535,-0.80066 v 0 l 1.94446,2.85949 v 0 l 9.036,4.11769 0.22878,3.54577 v 0 l -3.08827,4.11768 1.60132,3.66014 -4.80396,4.46082 v 0 l -4.11767,1.14379 4.39546,6.30725 -4.50983,1.48693 v 0 l -3.57847,1.99348 2.30394,2.38564 -3.03924,5.04905 -3.92159,1.96081 0.1634,5.62094 v 0 l -0.47386,3.1046 -5.70266,-3.25166 v 0 l -5.09807,-2.07517 -7.22227,3.41506 -3.31702,-1.02943 v 0 l -5.58828,-5.03272 -5.9314,3.52945 -4.36277,-6.07848 -11.37264,-5.75167 -2.00981,-5.57194 -5.98044,-4.21571 -10.81706,-14.78769 -7.56542,-3.61113 1.81374,-1.8791 -4.42813,-2.25492 -3.1046,-7.6471 -6.87914,-4.18305 -0.62091,-3.92159 -3.07192,-0.76798 1.09477,-3.44773 -11.22556,-11.51969 2.99022,-1.97714 1.35621,-5.83337 -9.55889,-7.32032 2.48368,-4.37911 3.31702,-0.11438 5.99678,9.03602 5.47388,-4.0033 -3.90524,-5.94777 3.74185,0.32682 -0.73531,-2.72879 12.79422,10.94779 2.77779,-0.98039 -3.21898,-7.15692 3.00656,0.52288 1.12745,-2.20589 -7.58175,-7.67979 2.33662,-2.92487 8.72556,6.66671 0.27778,2.82682 12.36936,7.90856 7.18959,-0.98041 10.24517,2.89219 1.48694,9.67326 -6.63403,2.63074 7.43469,6.74841 9.37916,-2.2876 4.68956,5.83338 1.7157,7.54907 2.63074,-0.80066 -2.74512,-12.46741 -13.83996,-10.63733 1.33987,-8.38241 -5.47389,-3.03923 -4.52617,1.12746 -10.0491,-10.16348 -21.94458,-11.83013 v 0 l 5.88239,-11.86284 30.8172,14.36285 v 0 l 6.87913,5.24513 4.0033,8.34973 4.91834,2.40198 8.57849,-0.11438 9.49353,4.46082 14.41185,-0.45752 3.08827,-2.05884 2.8595,-13.61121 -1.94447,-3.20263 -5.71899,0.11438 v 0 l -1.60132,-3.20264 v 0 l 4.23205,-5.03272 -1.60131,-2.97387 -5.49023,-1.48694 19.11777,-11.32361 1.02942,-3.54577 h 3.54579 v 0 l 8.80724,-7.77783 v 0 l 10.52295,2.51635 v 0 l 5.37585,6.86279 -0.34314,4.91833 v 0 z"
     class="land"
     title="Zadarska županija"
     id="HR-13"
     inkscape:connector-curvature="0"
     style="fill:#f8934f;fill-opacity:1;stroke:#ffffff;stroke-width:0.816999;stroke-opacity:1" />
  <path
     d="m 882.83694,164.44094 14.41186,8.44776 2.43466,-0.32679 0.7353,-7.20593 1.89543,1.50327 1.22551,7.41836 4.55885,3.57845 -1.01307,13.2844 5.81703,6.51966 3.92159,16.65044 9.73863,7.02619 -4.67323,12.84323 -6.01311,1.83007 1.92811,3.57846 -3.25166,8.80725 10.24518,7.25495 5.62095,-1.76471 1.50328,-3.49676 3.83989,-0.17974 2.00981,5.3105 11.38898,5.00003 -3.07191,6.60135 -14.21579,-1.60131 -1.81375,9.77131 1.61766,3.15362 v 0 l -8.36606,0.80066 -5.73533,-7.82687 -10.16348,-3.51309 -0.84968,2.18956 -9.00333,2.43466 3.28434,10.47392 -3.25166,0.24511 -0.17973,3.16996 -4.3301,0.93138 -3.23532,-2.95755 -17.67987,5.86605 -0.0327,8.48046 -4.44447,2.48368 1.1438,6.56868 -6.74841,0.50652 -2.8595,4.4935 -4.7386,-0.83334 -4.67323,2.84316 -0.0163,10.73537 10.53929,3.95428 -1.32355,7.12423 -3.44773,1.12745 v 0 l -5.44121,-3.98695 -13.3171,-2.15688 -12.81053,-7.14057 -10.34321,1.02942 -5.21245,4.11767 -8.5785,1.3889 -4.72226,-4.70591 -7.09154,-0.58825 -1.7157,-2.95753 -4.91834,0.53923 -5.40853,-3.61115 v 0 l 7.04253,-7.8105 -2.7778,-8.12097 -3.77453,-2.81048 3.93793,-2.90852 -0.62092,-7.18959 -6.53599,-3.48041 -7.53273,0.42482 -13.49682,-11.14386 -7.53273,-1.25818 -1.8791,-7.50005 v 0 l 0.93138,0.37582 v 0 l 8.39874,-3.98695 5.49024,-10.67001 4.67323,-2.0425 -0.49019,-4.68958 9.29744,-14.82036 -3.18629,-0.50654 -4.91834,-19.19948 -10.91511,-3.98696 -3.59479,-13.61119 v 0 l 14.03604,-1.7157 14.24847,7.09155 3.64382,-0.93138 3.16995,-4.91834 7.85953,3.12094 2.99022,-2.74511 7.30398,2.09151 2.40197,4.10134 8.9543,0.31046 6.89548,3.38238 4.49349,-6.40528 7.20594,7.90855 6.86279,0.80066 -0.22876,-5.89874 6.01311,-1.01307 1.56864,-6.84645 5.1471,2.67975 6.24186,-4.8203 2.66343,0.63727 -0.0163,-3.4314 8.30071,-5.94776 1.3889,-8.83992 1.30719,2.10785 2.54904,-1.92811 -2.07517,-3.07192 5.01637,-5.57194 z"
     class="land"
     title="Osječko-baranjska županija"
     id="HR-14"
     inkscape:connector-curvature="0"
     style="fill:#f8934f;fill-opacity:1;stroke:#ffffff;stroke-width:0.816999;stroke-opacity:1" />
  <path
     d="m 359.02613,696.11127 8.79091,1.92813 3.90526,5.26147 7.67979,3.3497 -12.23864,-2.2059 -5.3105,-5.89874 -3.56212,-0.50653 -0.75163,-2.82683 z m 23.742,-5.68631 3.83989,4.15037 -5.00003,-1.97716 -0.2451,-4.49348 z m 17.50012,0.34314 2.27125,8.34973 -8.21901,-8.59482 2.51637,0.27777 0.63725,-2.72877 z m -30.6048,-4.96736 9.13406,6.37261 -1.12745,4.7059 -4.01964,-2.12419 -0.39216,-1.74838 2.64708,0.37582 z m 14.55893,-2.36929 3.48042,2.90851 -2.04249,-0.21241 1.07843,2.45099 -4.1667,-4.68958 z m 8.03928,0.94772 -2.32028,1.16013 -1.7974,-5.40853 z m -34.11789,-23.87272 -0.21241,2.81047 4.00329,4.95102 2.66342,-0.93138 3.74186,7.89222 -6.91182,-2.23858 -10.27785,-13.70925 4.18304,2.40197 1.25817,-3.10458 z m -62.45141,-11.35628 4.59154,1.50328 -1.43792,2.59805 21.7812,19.83674 -9.26478,-3.21898 -4.67323,-3.268 0.29412,-2.23856 -7.43469,-4.06866 -6.61769,-9.77131 z m 5.17978,-4.13402 4.951,1.78105 -2.00981,0.42485 1.92811,2.17321 3.25166,0.42485 0.17975,-3.20264 9.39549,15.52298 -15.8988,-13.2027 -3.12094,-0.31047 -1.1438,-1.634 z m 180.75288,-51.66703 4.64055,6.78109 9.75498,-0.21241 2.59806,12.3857 10.00006,0.80066 6.69939,15.78442 v 0 l -7.17325,-0.39215 -8.17,5.68632 -6.53598,0.86602 1.5523,4.93466 -10.52296,-1.35621 -2.71243,8.77457 16.65044,15.75174 -15.19618,11.83015 2.00981,4.68957 -3.268,3.5131 3.36604,4.41179 -4.96735,5.58828 -12.9576,-0.94772 -3.1046,4.37911 -7.59809,-0.62092 -1.99348,5.40854 -7.2713,0.21242 -5.14708,8.21901 -4.77128,1.07843 -5.01638,5.42488 2.17323,5.49024 4.60786,0.76798 1.09479,6.09481 -7.46738,1.83007 -1.02942,4.05232 -4.08499,1.83008 v 0 l -2.84316,3.1863 0.0491,-2.79414 -5.42488,1.16014 -3.268,-3.268 6.60136,-2.38563 -1.51962,-4.13403 -3.07191,0.63726 -0.31047,-1.50328 -5.88238,-2.97386 3.34969,-1.25818 -0.19608,-2.67977 -4.33009,-0.098 2.32028,-3.61114 -2.46734,-1.11112 1.51961,-4.90199 -2.30393,-3.54578 9.82033,-1.09478 -11.56872,-3.62747 4.31377,-1.5523 3.75818,3.28434 -0.5392,-4.39546 -8.69288,-9.39549 -2.2059,1.04576 -16.78115,-14.62428 -6.48698,1.19281 -2.54904,-2.89217 -5.96409,-0.098 -1.73205,-4.23206 -7.63076,-4.05232 -4.15036,-5.27781 2.72878,3.00657 3.82355,-1.42159 4.70592,4.60788 0.0654,-4.52618 -9.62425,-6.4543 -5.83337,-0.99674 -2.56538,-4.39545 -2.61439,1.74838 -0.37583,-2.38563 4.29741,-4.3301 5.58828,5.03271 v 0 l 3.31702,1.02943 7.22227,-3.41506 5.09807,2.07517 v 0 l 5.70266,3.25166 0.47386,-3.1046 v 0 l -0.1634,-5.6046 3.9216,-1.96082 3.03923,-5.04904 -2.30394,-2.38564 3.57847,-1.99348 v 0 l 4.50982,-1.48693 -4.39545,-6.30725 4.11767,-1.14379 v 0 l 4.80396,-4.46082 -1.60132,-3.66015 3.08826,-4.11767 v 0 l -0.22877,-3.54578 -9.036,-4.11767 v 0 l -1.94446,-2.8595 v 0 l 8.23535,0.80066 2.05884,-4.80396 v 0 l 3.88891,-0.80066 7.32032,-7.43469 6.97718,-11.78113 3.20263,0.22876 v 0 l 3.31701,7.43469 16.1439,7.43469 3.77454,-2.17321 v 0 l 3.88892,-3.08826 v 0 l 0.11438,-11.32361 2.05883,-4.46081 4.23205,-0.11438 v 0 l 9.19942,-3.08826 v 0 l 6.24187,9.90204 9.15039,7.71246 z"
     class="land"
     title="Šibensko-kninska županija"
     id="HR-15"
     inkscape:connector-curvature="0"
     style="fill:#f8934f;fill-opacity:1;stroke:#ffffff;stroke-width:0.816999;stroke-opacity:1" />
  <path
     d="m 855.56551,337.74278 3.44773,-1.12745 1.32355,-7.12423 -10.5393,-3.95428 0.0163,-10.73537 4.67324,-2.84316 4.7386,0.83334 2.8595,-4.4935 6.74841,-0.50652 -1.1438,-6.56868 4.44447,-2.48368 0.0327,-8.48046 17.67987,-5.86605 3.23532,2.95755 4.3301,-0.93138 0.17973,-3.16996 3.25166,-0.24511 -3.28434,-10.47392 9.00333,-2.43466 0.84968,-2.18956 10.16348,3.51309 5.73533,7.82687 8.36606,-0.80066 v 0 l 4.085,3.38237 -0.0654,3.07192 -8.00659,8.7092 8.4968,7.66346 11.5687,2.51636 3.268,9.34646 23.54591,12.30401 25.01653,2.66341 -0.21245,14.52625 -6.84642,0.9804 -6.63405,-7.63077 -3.98696,0.37582 -1.25817,6.45429 h -3.85624 l -14.39553,-7.32031 1.16014,7.27129 -6.87913,10.06544 -9.08503,0.29411 3.97061,18.66026 -2.97387,3.10459 -0.42485,9.86936 -6.9935,4.36277 10.09811,1.60132 4.902,-2.43466 2.07516,6.07847 -1.99347,2.82682 -6.53599,2.79413 -4.15036,5.04906 -11.63406,1.66668 2.35296,11.07851 -29.23223,0.29411 -14.8367,-12.28766 1.40523,-3.54577 -3.4314,-4.91834 6.0458,1.56864 2.99021,-1.65034 -3.39871,-5.99678 1.66667,-6.01311 -11.33994,-0.63725 1.37255,-5.24514 -11.43798,-10.75171 3.15362,-3.46407 -1.69936,-3.5131 -3.54577,1.7157 -0.37583,6.86279 -8.16999,-2.00982 4.72225,-4.98369 -0.6536,-2.2059 -3.67649,3.3497 -6.40527,-3.15362 0.55556,6.63403 -1.74839,-3.6765 -5.04905,-2.59805 v 0 l -3.44774,-1.07843 -3.12093,-6.6177 z"
     class="land"
     title="Vukovarsko-srijemska županija"
     id="HR-16"
     inkscape:connector-curvature="0"
     style="fill:#f8934f;fill-opacity:1;stroke:#ffffff;stroke-width:0.816999;stroke-opacity:1" />
  <path
     d="m 456.00393,833.49784 2.23857,1.51962 -2.25491,3.12094 1.66668,0.71897 3.97062,-3.69285 3.90524,2.02616 2.33662,-1.89544 -0.14705,4.91833 -4.11768,5.04906 -19.77138,5.37585 -7.38567,-0.16339 3.75819,-3.64382 0.14707,-3.4314 -1.60132,-2.2876 -2.95754,1.56864 -2.18957,-3.36603 7.6798,-4.26474 z m 85.99733,-4.08499 8.25169,2.72877 -4.55886,1.86277 -8.70922,-1.66668 z m -57.68015,-17.43476 4.95102,2.7778 3.23532,-1.06211 0.31046,2.66343 -6.06214,0.60457 -5.88239,-2.8595 z m 35.86627,-13.12101 1.73204,-0.098 -1.04576,3.00656 2.30394,3.10459 4.47714,-2.84315 10.31054,1.3889 -0.4902,3.3987 5.76801,4.52619 -4.47715,-0.80066 8.93798,5.73533 3.83988,-1.96079 15.83345,2.05884 6.11114,-1.38891 3.51311,2.41832 34.9839,4.18304 6.78109,-1.51962 8.59483,3.5131 -13.97068,2.56537 -29.93485,0.42484 -27.54921,-3.62748 -18.57856,1.40525 -20.67007,-4.34643 -10.60466,-5.29416 -2.33661,1.38889 -16.96091,-8.66019 8.92163,0.21241 9.16673,-3.90524 9.13405,1.68302 6.89548,5.68631 5.00003,-1.2255 -3.4314,-1.22549 -3.36603,-6.7811 -3.00656,1.76472 -3.1863,-3.25166 z m -20.08185,-36.89567 17.63085,0.22875 39.00354,7.23861 0.4085,1.94446 2.67975,-1.25817 3.39872,1.89543 0.42484,1.3889 1.7157,1.8791 1.5523,-2.28761 10.13079,7.41836 -2.17322,0.84968 1.40523,2.0425 -2.22223,0.7353 -0.0817,3.10459 -2.87584,-0.88236 -1.48694,3.43141 -10.84975,2.12419 -26.42174,1.53596 -17.85961,-3.33336 -12.97395,-6.73207 -1.5523,-1.11112 -5.80068,-2.92485 -0.3268,-3.98696 2.81047,2.66341 3.90526,-0.70262 -2.50002,-4.50983 4.7386,-1.81373 -5.22881,-7.2713 z m -34.03617,-5.39221 8.74189,2.41832 0.8987,2.43466 4.59153,-0.49021 11.92819,15.39227 -3.05558,0.60459 -12.7125,-6.42162 0.47386,-1.66667 -17.40208,-5.91507 -0.78432,-5.8007 z m -26.09495,-9.54255 1.35621,1.97715 -1.81373,2.35295 -5.70265,-2.54903 z m 8.66019,-0.65358 4.28107,0.37581 0.31046,5.35951 -10.00007,0.86602 z m 23.64395,-13.02298 18.82366,6.42162 -13.08832,1.19281 -7.2713,-2.41832 -4.52618,3.07193 -6.86279,-3.52944 8.62751,0.17974 0.47387,-3.41506 -3.08827,-1.19282 z m -44.52645,3.03925 4.10133,-1.83009 1.02942,-4.03598 7.48372,-1.83007 -1.09479,-6.09481 -4.59152,-0.76798 -2.15689,-5.49024 5.01638,-5.42488 4.77128,-1.06209 5.14709,-8.21901 7.27129,-0.21242 1.99348,-5.40854 7.59809,0.63726 3.1046,-4.37911 12.9576,0.94772 4.96735,-5.58828 -3.36603,-4.41179 3.26799,-3.5131 -2.00981,-4.68957 15.21252,-11.83015 -16.63411,-15.75174 2.71244,-8.77457 10.52296,1.35621 -1.55231,-4.93466 6.53599,-0.86602 8.17,-5.68632 7.17325,0.39215 v 0 l 27.5002,23.28448 1.43791,9.70596 4.4118,7.2386 10.19615,4.55885 4.65689,8.13732 13.33342,11.7321 23.2518,30.24531 5.13075,-0.34313 12.61447,12.1406 13.72559,-0.53922 5.40853,3.6765 4.44447,9.33013 -4.90199,14.1831 12.90859,24.06879 1.37255,7.32031 8.75823,1.634 4.46082,3.44774 3.74186,6.79744 -0.84968,4.95101 2.46734,0.62092 v 0 l -5.83338,5.45755 -8.59483,-2.1242 -3.54578,1.78106 0.27779,3.30068 5.83337,1.87909 -0.098,4.70592 -4.36278,4.88566 v 0 l -2.32028,-4.29741 -7.85952,-3.59481 -5.09808,-5.60461 -14.41187,-5.24513 -10.44125,-7.92489 -1.02941,-4.29742 -4.64056,-1.50328 -4.62421,-8.51313 -27.56556,-30.31066 -27.69627,-2.9412 -5.75166,-7.0262 -8.07196,1.20916 -19.77138,-13.66022 -23.51323,-2.54903 8.54581,-4.67324 6.16018,0.37581 -0.98041,-2.22223 -19.80406,-3.5131 -9.82032,6.02946 -14.01971,3.48041 -13.21904,-2.10786 -2.6144,1.81375 9.70595,2.46734 0.4902,2.07516 -10.55563,5.0654 -7.94122,-3.20263 -1.30721,2.27125 -3.69283,-0.76798 0.86602,-2.76145 -4.7386,1.09477 z"
     class="land"
     title="Splitsko-dalmatinska županija"
     id="HR-17"
     inkscape:connector-curvature="0"
     style="fill:#f8934f;fill-opacity:1;stroke:#ffffff;stroke-width:0.816999;stroke-opacity:1" />
  <path
     d="m 44.171024,401.12557 5.637294,4.44448 -4.199375,0.26144 -0.522879,-2.51636 -3.333357,-1.78106 z m 45.327111,-140.11534 8.578491,6.56868 7.843194,0.71895 v 0 l 0.0327,7.09155 2.82681,4.96736 12.92493,8.219 -3.23532,5.47391 5.17977,13.77461 -3.44773,3.95426 -1.0621,10.75172 2.6144,10.76804 -1.17648,11.30727 4.15036,2.72877 v 0 l -8.20267,16.84652 -2.09152,2.1242 -1.97713,-1.61766 -1.19283,2.79414 2.10787,2.14054 -0.62093,7.36934 2.84315,9.96738 -3.8889,6.79744 -7.00986,-3.05558 -7.140573,6.07847 1.388898,-5.94775 3.611135,-1.53596 -2.924854,-6.73207 -3.921599,0.21241 -1.454257,-9.1994 -1.339879,10.08176 5.212454,1.35623 1.258175,3.79086 -2.009814,0.049 -2.009818,7.22227 -0.375819,2.33661 -3.823556,7.82687 -3.725517,2.90851 -4.166694,-2.28761 0.01634,2.28761 3.921597,1.99348 -4.248396,10.53928 4.035975,8.77458 -9.10137,0.0163 -6.699393,-6.37259 -1.372558,2.97388 3.937936,3.44773 -0.555559,6.40527 -2.483677,1.78106 -0.53922,-9.59156 -8.022931,-1.51962 -1.388899,-1.97714 2.124198,-2.23858 -4.673235,-0.0163 0.669939,-4.08499 -6.617693,-3.03924 -0.14706,-3.03924 6.830114,2.72879 1.960797,-4.68959 -5.065394,1.56864 -3.839897,-3.12093 3.169957,-5.68632 -8.594831,-16.91189 h -4.656895 l -4.199374,-5.55558 0.343139,-3.23532 -3.823556,-0.26144 -0.17974,-6.47064 -10.686348,-4.52617 1.960798,-0.35948 0.522879,-6.12749 -5.833373,-4.34643 -1.601318,-6.2092 2.401977,-4.18303 -3.758196,-4.13402 2.663417,-0.93137 -4.052316,-4.42814 3.398717,-10.76806 -4.624216,-5.04905 1.617659,-3.07191 3.660156,0.098 -6.094813,-5.27781 3.725516,0.31045 3.986955,-4.00329 -9.26477,-0.21243 0.653599,-1.78105 -4.0359749,-1.634 -0.2124198,-5.32683 2.8431567,-1.53596 -2.1241975,-0.6536 -1.0947789,-9.67327 -3.3823762,-3.46408 1.3398785,-5.16343 -2.3039375,-0.93138 -0.1143798,-7.58176 -3.1699566,-3.97061 2.1241977,-3.62747 3.9542757,0.88236 25.0491926,13.97068 12.712506,-6.78109 7.598091,3.1046 2.075179,6.01311 10.768048,2.02615 5.424874,-6.53599 6.993512,-1.19282 3.529437,2.14054 2.598057,-2.14054 0.686279,-6.51965 -5.179775,-4.95101 1.192819,-2.14055 5.245134,1.06211 1.241839,-2.84316 z"
     class="land"
     title="Istarska županija"
     id="HR-18"
     inkscape:connector-curvature="0"
     style="fill:#f8934f;fill-opacity:1;stroke:#ffffff;stroke-width:0.816999;stroke-opacity:1" />
  <path
     d="m 765.48319,926.30894 0.66994,3.66016 -5.73534,-3.1863 z m -8.72554,-1.94445 1.89543,2.04249 -4.37911,0.86602 -4.15036,-3.48042 2.41831,0.63727 1.56864,-2.6144 z m -26.89562,-14.31383 6.17651,2.53269 v 2.32028 l -5.78436,-4.18303 z m 4.65689,-1.58498 3.5131,0.1634 10.24517,7.41836 -0.52288,5.50656 z m -162.84426,-3.46408 11.17654,0.27779 0.53923,3.97061 -5.6373,5.78435 -3.05558,0.86603 -3.16995,-3.1863 -4.42814,3.25166 -4.83664,-5.78436 2.05885,0.62092 1.61766,-7.20592 z m 85.09863,-6.86279 4.41179,-0.17973 -4.34643,2.15687 1.27451,1.29086 10.3759,-0.17973 26.38906,9.68959 0.45753,1.92813 7.30397,-0.24511 1.22549,1.92812 3.16996,-1.5523 0.47387,2.48368 12.85956,3.69284 0.83334,4.62421 -17.89229,-6.32357 -23.10473,-3.62748 -8.72554,-4.83663 -2.46734,1.99348 -5.80071,-4.13402 -3.49675,-0.94772 -0.0817,2.41832 -9.72229,-4.21572 0.55557,-2.64707 z m -114.20014,-43.97089 26.17665,8.03928 9.95105,-3.21898 23.56226,-2.23859 -0.44118,1.58498 10.96413,3.41506 4.36277,-1.07844 4.11768,8.20267 7.25495,2.5327 -14.21578,2.32028 -12.28767,-3.90526 -12.46741,-0.71896 -18.7583,7.99026 -2.74512,-0.96406 0.88236,-2.07519 -13.2844,0.50655 -17.54915,-5.76802 -1.12746,3.1046 -3.9706,-4.80396 5.06539,-1.47059 -1.0621,-2.32028 8.03927,-0.8987 -9.36281,-6.50332 -1.65033,2.59806 -2.94121,-2.5327 z m 53.0069,-12.51642 10.49027,5.09807 16.53606,-0.37582 22.38578,5.27781 24.13416,11.76479 1.06209,5.44121 6.83011,4.28107 6.65037,1.61766 -2.25491,-4.85297 1.76473,-0.13072 20.53934,12.25499 5.26147,0.27779 8.79093,8.31705 2.14053,-0.21244 -7.63078,-7.67978 -8.0556,-4.28108 1.55229,-2.69609 5.49024,-6.01312 5.78435,0.99674 10.53929,6.99352 4.1667,-6.58502 5.94775,4.96736 3.57846,13.51315 3.93793,1.25819 -0.89871,5.42488 9.8857,2.66341 7.64712,4.80396 2.09151,5.04906 5.6373,1.24183 10.88243,8.13731 -0.17975,5.57193 6.99352,1.92812 2.00981,5.34317 4.59154,-0.57189 11.91185,14.21578 12.09158,-5.58827 7.36933,0.96406 11.63407,11.87916 3.00656,13.1537 -1.45427,6.55232 11.50336,13.13736 -1.3072,4.08498 -9.36282,-11.0785 -3.82354,-0.22876 -32.66363,-23.85637 -2.05884,-3.80723 1.12746,-5.70264 -3.70917,-5.13076 -4.67325,1.73204 -9.1994,-5.88239 -11.04582,-2.46734 1.91177,-4.15036 -32.89238,-21.43807 1.86275,-5.68629 -3.54577,2.61439 -3.93794,-6.29089 -8.03927,-0.94773 -2.17321,4.64057 -6.71574,-5.16345 4.44448,7.14058 -1.68302,3.9216 -3.52944,-7.15692 -5.29415,-0.8987 -5.14709,-4.59154 -3.31702,0.94772 -35.40875,-12.61447 -2.97387,-1.74837 3.70917,-3.93793 -5.53925,-4.28108 -9.46086,-0.60458 -24.57532,-15.58835 -14.11774,1.68302 -11.0295,-2.41832 -8.95431,-5.11441 3.15362,-4.10133 -3.23532,-0.80066 z m 79.21624,-26.37274 27.46751,16.78117 12.17329,26.83025 -16.63411,7.14057 -12.97395,-0.098 -10.94778,-10.8661 1.53596,-3.26799 -3.6765,-5.16343 -4.54252,2.23858 -1.50327,-12.04257 -2.43466,6.20919 -10.22882,-12.10793 v 0 l 4.36277,-4.88564 0.098,-4.70593 -5.83337,-1.87909 -0.26143,-3.30068 3.54577,-1.78105 8.59483,2.12419 5.83338,-5.45755 v 0 z"
     class="land"
     title="Dubrovačko-neretvanska županija"
     id="HR-19"
     inkscape:connector-curvature="0"
     style="fill:#f8934f;fill-opacity:1;stroke:#ffffff;stroke-width:0.816999;stroke-opacity:1" />
  <path
     d="m 493.03033,14.031372 14.86939,5.457555 5.39219,6.911812 22.17335,4.134016 10.621,16.993581 2.84315,-1.764718 4.24839,4.983694 6.47063,-1.486938 9.44451,7.941231 v 0 l -4.00329,16.307303 -3.93794,0.588238 -0.84968,-6.176512 -2.40198,3.120936 -0.8987,-2.271257 -2.94119,1.519618 v 0 l -6.536,-1.225499 0.93138,-4.624215 -5.65362,4.232056 -3.54578,-3.317016 -13.00663,3.398715 -7.41836,-5.669973 -3.0719,4.199375 -4.8203,-0.26144 -0.29412,1.732038 -9.50987,-1.977137 -1.07845,-3.055577 -6.09481,3.267997 -1.99347,-2.271258 -6.19285,-0.03268 -5.24513,-8.676529 -6.84646,-3.594796 v 0 l 2.92485,-6.225534 -6.19285,-7.630771 -3.46408,-15.081804 3.02291,-5.702654 11.99353,-2.924857 0.91505,-3.071916 3.36603,-0.3268 1.69936,2.794137 3.20264,-3.284336 z"
     class="land"
     title="Međimurska županija"
     id="HR-20"
     inkscape:connector-curvature="0"
     style="fill:#f8934f;fill-opacity:1;stroke:#ffffff;stroke-width:0.816999;stroke-opacity:1" />
  <path
     d="m 450.72611,151.22187 3.79088,7.84321 0.27778,9.65694 4.11767,1.89543 5.17979,11.97721 -5.01639,2.59806 -0.83334,8.02293 -9.05234,-2.58172 -1.76473,3.77453 -17.3694,10.91512 -1.92811,6.71573 -4.03598,0.7353 -1.48693,9.70595 -5.81704,12.36936 -3.43139,2.84315 h -6.11116 l 0.58824,-5.39219 -6.07846,-5.99678 -15.08182,-7.17325 -1.40524,-6.22552 5.0654,-6.87914 8.02293,5.19612 2.90852,-2.25493 1.17647,-4.91833 -8.85626,-5.84971 3.41505,-4.21571 -2.90851,-9.82034 2.84316,-5.45755 19.01973,-12.50008 v 0 l 21.40538,-11.438 5.71899,-0.58823 1.1438,-3.10462 z"
     class="land"
     title="Grad Zagreb"
     id="HR-21"
     inkscape:connector-curvature="0"
     style="fill:#f8934f;fill-opacity:1;stroke:#ffffff;stroke-width:0.816999;stroke-opacity:1" />
  <g
     id="stadiums"
     data-country="croatia"
     data-circle-radius="6"
     data-circle-colors="#a149be,#bea149"
     transform="matrix(1.0000122,0,0,1.0000122,-6.3073466e-6,388.37194)" />
</svg>
