<?xml version="1.0" encoding="UTF-8" standalone="no"?>
<?xml-stylesheet type="text/css" href="/styles/home.css"?><!-- https://www.amcharts.com/svg-maps -->

<svg
   version="1.1"
   id="map-croatia"
   viewBox="0 0 1000 1000"
   width="1000"
   height="1000"
   class=""
   sodipodi:docname="croatia.svg"
   inkscape:version="1.3.1 (91b66b0783, 2023-11-16)"
   xmlns:inkscape="http://www.inkscape.org/namespaces/inkscape"
   xmlns:sodipodi="http://sodipodi.sourceforge.net/DTD/sodipodi-0.dtd"
   xmlns="http://www.w3.org/2000/svg"
   xmlns:svg="http://www.w3.org/2000/svg"
   xmlns:rdf="http://www.w3.org/1999/02/22-rdf-syntax-ns#"
   xmlns:cc="http://creativecommons.org/ns#"
   xmlns:dc="http://purl.org/dc/elements/1.1/">
  <metadata
     id="metadata30">
    <rdf:RDF>
      <cc:Work
         rdf:about="">
        <dc:format>image/svg+xml</dc:format>
        <dc:type
           rdf:resource="http://purl.org/dc/dcmitype/StillImage" />
        <dc:title />
      </cc:Work>
    </rdf:RDF>
  </metadata>
  <sodipodi:namedview
     pagecolor="#ffffff"
     bordercolor="#666666"
     borderopacity="1"
     objecttolerance="10"
     gridtolerance="10"
     guidetolerance="10"
     inkscape:pageopacity="0"
     inkscape:pageshadow="2"
     inkscape:window-width="1920"
     inkscape:window-height="1106"
     id="namedview28"
     showgrid="false"
     showguides="true"
     inkscape:guide-bbox="true"
     inkscape:zoom="98.719634"
     inkscape:cx="493.43781"
     inkscape:cy="14.308197"
     inkscape:window-x="-11"
     inkscape:window-y="-11"
     inkscape:window-maximized="1"
     inkscape:current-layer="map-croatia"
     inkscape:showpageshadow="2"
     inkscape:pagecheckerboard="0"
     inkscape:deskcolor="#d1d1d1">
    <sodipodi:guide
       position="640.86804,500"
       orientation="0,1"
       id="guide840"
       inkscape:locked="false"
       inkscape:label=""
       inkscape:color="rgb(0,0,255)" />
    <sodipodi:guide
       position="493.97469,987.81397"
       orientation="0,-1"
       id="guide1"
       inkscape:locked="false" />
  </sodipodi:namedview>
  <defs
     id="defs4">
    <style
       type="text/css"
       id="style2">
			.land
			{
				fill: #f8934f;
				fill-opacity: 1;
				stroke:white;
				stroke-opacity: 1;
				stroke-width:0.5;
			}
         .rectangle:hover {
         fill: #bdbdbd;
         cursor: pointer;
         }
		</style>
    <!-- <amcharts:ammap projection="mercator" leftLongitude="13.492149" topLatitude="46.542610" rightLongitude="19.400320" bottomLatitude="42.403920"></amcharts:ammap> -->
    <!-- All areas are listed in the line below. You can use this list in your script. -->
    <!--{id:"HR-01"},{id:"HR-02"},{id:"HR-03"},{id:"HR-04"},{id:"HR-05"},{id:"HR-06"},{id:"HR-07"},{id:"HR-08"},{id:"HR-09"},{id:"HR-10"},{id:"HR-11"},{id:"HR-12"},{id:"HR-13"},{id:"HR-14"},{id:"HR-15"},{id:"HR-16"},{id:"HR-17"},{id:"HR-18"},{id:"HR-19"},{id:"HR-20"},{id:"HR-21"}-->
  </defs>
  <path
     d="m 467.74667,127.2642 3.83985,10.98034 2.95751,2.4673 6.78101,-3.46403 v 0 l 11.30713,6.4052 3.59475,-1.20915 2.549,1.9281 0.62092,3.33332 3.61109,1.71567 0.80065,7.15684 5.75159,-3.39869 1.37255,2.28759 4.90194,-0.63725 9.01955,9.36269 2.36927,-1.74835 3.72547,2.35292 5.14703,-2.59803 6.27448,1.48692 v 0 l 1.01307,12.71236 -2.87581,6.45421 0.93137,3.66011 -3.08821,-2.32025 -4.44442,1.25816 -0.98039,-2.77776 -1.14379,3.18626 -5.70258,2.77776 0.66993,6.29082 -4.65684,-2.7124 -11.9117,1.16012 1.27451,3.31697 -2.23856,2.05882 3.51306,2.67973 -3.25162,8.03917 6.60127,4.98363 5.14703,0.098 2.49999,5.9967 2.46731,-1.01306 3.75815,4.95094 v 0 h 0.13071 v 0 l -4.59147,11.01302 -7.82676,1.89541 -12.00974,12.59798 -2.9575,-6.38885 -6.96075,-2.0098 -3.82351,-7.4346 -7.23852,1.81372 -1.63398,-6.01304 -7.41826,3.61109 -1.99345,3.38233 -2.46731,-1.32352 -5.29409,6.2418 -17.51624,-9.26466 -12.647,16.58488 6.42153,6.45422 -0.0654,17.38552 -4.19932,3.46404 -6.14376,-8.30061 -4.03592,-1.16013 -5.29409,4.36273 -9.0359,-0.53922 v 0 l -0.39215,-0.0491 v 0 l -2.41829,-3.00652 0.89869,-6.81369 -3.18627,-3.83985 -5.3431,0.29412 -0.39215,-3.98691 -4.90194,-0.45751 -7.71238,6.47055 -8.28427,-9.85288 0.73529,-8.69277 -3.38234,2.84312 -18.95415,-8.39865 -13.88881,11.55223 -1.40522,-2.51632 2.17319,-5.06534 -4.98364,-0.0816 0.91503,-7.74506 -9.15027,-5.19605 -2.97385,-7.61434 -5.53918,-0.63726 -2.66338,-6.33983 -10.01629,-4.6405 1.66666,-8.36597 v 0 l 11.06203,-5.45749 10.49014,-0.62091 -1.25816,-5.21239 4.26468,-2.99018 1.87908,2.33659 3.97056,-0.35948 2.30391,-6.02938 3.59475,2.40195 2.0915,-3.33332 11.79732,7.95748 3.93789,-5.03265 6.68297,-0.89869 -3.41501,-4.28102 -0.78431,-9.8529 4.60781,-4.75487 0.0817,-11.63394 v 0 l 9.10126,-0.098 1.3562,2.0098 2.23855,-5.35946 5.63722,-0.0654 14.52607,7.22221 7.10782,6.66662 0.52286,5.42482 v 0 l -19.0195,12.49993 -2.84312,5.45748 2.90847,9.82022 -3.41501,4.21566 8.85616,5.84964 -1.17646,4.91827 -2.90848,2.2549 -8.02284,-5.19605 -5.06532,6.87905 1.40521,6.22545 15.08163,7.17316 6.07839,5.9967 -0.58823,5.39213 h 6.11108 l 3.43135,-2.84312 5.81697,-12.36921 1.48692,-9.70583 4.03592,-0.73529 1.92809,-6.71565 17.3692,-10.91498 1.7647,-3.77449 9.05223,2.58169 0.83333,-8.02283 5.01632,-2.59803 -5.17972,-11.97706 -4.11762,-1.89541 -0.27778,-9.65682 -3.79083,-7.84312 v 0 l 0.21242,-5.03265 5.42481,-4.00324 -0.81699,-2.97385 5.65357,-0.9477 -3.10457,-7.598 3.64377,0.35948 z"
     class="land"
     title="Zagrebačka županija"
     id="HR-01"
     inkscape:connector-curvature="0"
     style="fill:#f8934f;fill-opacity:1;stroke:#ffffff;stroke-width:0.81698918;stroke-opacity:1" />
  <path
     d="m 401.65225,77.264457 2.41829,10.228704 7.69604,2.565346 2.53266,4.722197 6.84637,1.568619 v 0 l 7.05879,2.107836 v 0 l 11.14373,-2.401952 3.46403,0.359475 1.37255,3.316977 5.42481,0.212423 3.31697,-4.885602 5.5882,-2.075152 1.42157,1.682997 -2.1732,2.450964 8.98689,0.93137 -2.81044,3.839861 3.66011,4.70586 -2.02613,14.37901 2.17318,6.29081 v 0 l -6.01304,4.31371 -3.64377,-0.35948 3.10456,7.598 -5.65356,0.9477 0.81699,2.97385 -5.42481,4.00324 -0.21242,5.03265 v 0 l -6.50323,-0.14705 -1.14379,3.10458 -5.71892,0.58822 -21.40512,11.43786 v 0 l -0.52287,-5.42482 -7.10781,-6.66662 -14.52607,-7.22221 -5.63722,0.0654 -2.23855,5.35945 -1.3562,-2.00979 -9.10126,0.098 v 0 l -1.14378,-7.30388 5.14703,-10.58818 -2.85947,-3.66012 -9.39536,-2.69606 -1.99347,-4.0686 -4.37906,-0.35948 -2.84312,-6.48689 1.20914,-5.13069 -2.4673,-2.22222 2.90848,-1.683 -1.65032,-2.59802 6.89539,-5.996711 0.58824,-7.254863 5.26141,-2.581686 8.25158,2.810442 3.61109,-1.274502 -0.0327,2.630704 2.77777,0.310457 5.76794,-7.124146 -1.38887,-4.281023 z"
     class="land"
     title="Krapinsko-zagorska županija"
     id="HR-02"
     inkscape:connector-curvature="0"
     style="fill:#f8934f;fill-opacity:1;stroke:#ffffff;stroke-width:0.81698918;stroke-opacity:1" />
  <path
     d="m 397.55097,330.43308 -7.45094,-6.732 1.83005,-6.32349 3.44769,-2.40195 -6.78101,-13.57835 0.91503,-3.90521 9.15028,-5.01632 -1.92809,-10.5555 2.7124,-6.74833 -3.07188,-1.5196 3.15358,-3.75815 6.43787,-2.64704 5.63723,5.04899 1.35621,-1.48692 v 0 l 0.39215,0.0491 v 0 l 9.03589,0.53922 5.2941,-4.36273 4.03592,1.16013 6.14376,8.30061 4.19932,-3.46404 0.0654,-17.38552 -6.42153,-6.45422 12.647,-16.58488 17.51624,9.26466 5.29409,-6.2418 2.46731,1.32352 1.99345,-3.38233 7.41826,-3.61109 1.63398,6.01304 7.23852,-1.81372 3.82351,7.4346 6.96074,2.0098 2.95751,6.38885 12.00974,-12.59798 7.82676,-1.89541 4.59147,-11.01302 v 0 l 0.29413,0.0164 v 0 l 6.19277,-1.17646 1.01307,3.4477 8.90518,1.97711 2.6307,5.32677 10.81694,0.84967 3.12089,12.54895 6.61762,4.28102 2.56535,5.58821 -2.3366,4.10128 -3.64377,-0.99672 -1.07842,1.73201 4.06861,3.62743 2.74508,-1.53593 7.02611,7.8431 4.232,-3.39868 v 0 l 3.64377,6.09474 6.69931,-0.0817 3.33332,2.71241 2.25488,6.92806 3.70914,-2.85947 -0.44118,-3.52939 2.30392,0.42484 1.17646,3.70913 -3.16992,6.33983 10.86596,4.93462 3.56207,6.76467 7.22218,-1.17646 v 0 l -0.049,13.23522 -10.53916,10.40844 -6.79735,2.72874 -1.38888,3.80718 7.17317,5.6699 5.55552,10.73524 v 0 l -16.01298,-9.34636 -2.48365,-5.71892 -4.49344,2.33659 1.92809,-4.90194 -2.59802,-0.55555 -2.04247,4.01958 -2.85947,-1.5196 -5.96402,0.31046 -0.58823,-4.16664 2.89214,-3.03921 -3.49671,-4.60781 -9.18297,10.60451 -1.73201,-0.98038 -5.68624,4.91828 1.47058,4.99997 -4.03593,2.38561 -14.99991,-5.31044 -6.17645,2.53267 -15.81691,-8.05551 -8.10453,2.17319 -3.66011,-1.4379 -6.73199,4.26469 -5.04899,16.17637 -11.22543,6.96076 1.35619,5.21239 -7.82675,14.16659 -0.45751,6.79735 -7.53264,0.84967 -14.03587,-2.59803 -1.35621,-4.57513 -12.1568,-11.68295 -11.14373,-5.27775 -6.99343,-17.67965 -5.24507,-0.40849 2.2549,-3.79083 -1.20915,-4.08494 -7.6797,-3.7745 -6.22546,4.68952 -2.12416,-6.51958 -5.06534,0.60458 0.2451,2.53267 z"
     class="land"
     title="Sisačko-moslavačka županija"
     id="HR-03"
     inkscape:connector-curvature="0"
     style="fill:#f8934f;fill-opacity:1;stroke:#ffffff;stroke-width:0.81698918;stroke-opacity:1" />
  <path
     d="m 314.15272,198.71809 -1.66666,8.36597 10.01629,4.6405 2.66338,6.33983 5.53918,0.63726 2.97385,7.61434 9.15027,5.19605 -0.91503,7.74506 4.98364,0.0816 -2.17319,5.06534 1.40522,2.51631 13.88881,-11.55222 18.95415,8.39865 3.38234,-2.84312 -0.73529,8.69277 8.28427,9.85288 7.71238,-6.47055 4.90193,0.45751 0.39216,3.98691 5.3431,-0.29412 3.18627,3.83985 -0.89869,6.81369 2.41829,3.00652 v 0 0 0 l -1.35621,1.48692 -5.63723,-5.04899 -6.43787,2.64704 -3.15358,3.75815 3.07188,1.5196 -2.7124,6.74833 1.92809,10.5555 -9.15028,5.01632 -0.91503,3.90521 6.78101,13.57835 -3.44769,2.40195 -1.83005,6.32349 7.45094,6.732 v 0 l -13.33327,14.0849 3.52939,12.67966 -6.16009,11.9934 6.55225,13.98686 0.29412,7.63068 -5.6699,1.04574 -2.38561,9.41172 v 0 l -4.57514,3.6601 -8.67643,-5.84963 -8.56204,3.48037 -7.30389,-7.76139 -6.19277,8.18622 5.98036,7.51631 -1.17646,2.40195 -6.76468,-8.36598 -12.79405,-2.69606 -12.97378,-19.13388 -10.65355,-3.79084 -2.53266,-4.62415 -13.4313,-9.78753 -2.09149,-5.71893 -5.96402,2.14052 -3.83986,5.68624 -7.92479,-2.59803 -4.03593,-5.52284 -9.50975,-3.92155 v 0 l -6.91173,-10.29407 2.82679,-8.59472 0.0654,-11.56857 -4.03593,-4.85291 3.33332,-2.23855 1.71567,-7.12415 4.11763,-1.69934 3.25161,4.9673 7.46728,0.63725 0.5719,3.2843 2.85946,0.83333 3.77448,-5.26141 9.21565,-2.41829 -0.71896,-4.29736 9.1993,-16.07835 -0.70261,-7.6797 v 0 l 3.48038,-6.37251 4.88559,-3.02287 9.86923,3.10456 9.47707,-8.34963 -14.37901,-11.79732 -0.45751,-11.27444 -3.66011,-4.98364 5.13069,-2.28757 -0.83332,-4.26469 8.23524,-1.45423 -0.66993,-2.40195 6.84637,2.10783 3.41501,-2.58169 -6.38885,-10.29406 -3.41501,4.29736 2.33659,-5.57186 -0.96405,-4.64051 -3.07188,0.0817 -3.2843,4.19932 0.34314,5.44115 -1.91176,-5.89866 -2.12417,2.58168 -2.53267,-5.44114 -7.48362,-2.82679 z"
     class="land"
     title="Karlovačka županija"
     id="HR-04"
     inkscape:connector-curvature="0"
     style="fill:#f8934f;fill-opacity:1;stroke:#ffffff;stroke-width:0.81698918;stroke-opacity:1" />
  <path
     d="m 455.99837,50.352835 4.3137,1.879075 8.15356,-2.663385 2.27122,3.921547 2.94117,-0.522872 v 0 l 6.84637,3.594752 5.24507,8.676424 6.19277,0.03268 1.99345,2.27123 6.09474,-3.267957 1.07843,3.05554 9.50976,1.977113 0.29411,-1.732017 4.82024,0.261437 3.07187,-4.199324 7.41827,5.669904 13.00647,-3.398674 3.54573,3.316976 5.65356,-4.232004 -0.93137,4.624158 6.53592,1.225484 v 0 l -0.70262,11.045693 -13.15352,13.790777 -8.03917,0.620912 -4.82024,-2.205871 -11.63392,6.274477 0.96405,3.8562 -19.15023,1.07842 -1.22549,3.54574 -8.00649,5.62088 -6.96074,22.77766 v 0 l -6.78101,3.46403 -2.95751,-2.4673 -3.83985,-10.98034 v 0 l -2.17318,-6.29081 2.02613,-14.37901 -3.66011,-4.70586 2.81044,-3.839861 -8.98689,-0.93137 2.1732,-2.450964 -1.42157,-1.682997 -5.5882,2.075152 -3.31697,4.885602 -5.42481,-0.212423 -1.37255,-3.316977 -3.46403,-0.359475 -11.14373,2.401952 v 0 l -7.05879,-2.107836 v 0 l -6.84637,-1.56862 -2.53266,-4.722196 -7.69604,-2.565346 -2.41829,-10.228704 v 0 l 6.04572,-4.607819 7.77773,0.04902 6.04572,-5.228731 5.71893,-0.04902 3.97057,-5.686245 5.93135,-0.588232 -3.08823,-11.699284 9.64047,1.029405 5.44115,-5.702584 z"
     class="land"
     title="Varaždinska županija"
     id="HR-05"
     inkscape:connector-curvature="0"
     style="fill:#f8934f;fill-opacity:1;stroke:#ffffff;stroke-width:0.81698918;stroke-opacity:1" />
  <path
     d="m 570.29515,59.535792 2.77776,2.810443 1.06209,14.379009 11.4215,8.676425 3.33332,-0.604572 0.58824,4.460761 5.9967,0.915027 12.35287,8.480344 3.25162,-0.45751 3.92155,4.640511 5.65356,-0.3268 -0.049,2.74508 3.87254,1.89542 -0.91503,10.35943 6.02937,-1.35621 -0.49019,3.64377 3.77449,-0.049 -2.27123,4.18299 2.84312,0.75163 -0.65359,4.57513 6.61761,0.84967 -2.82678,6.4869 6.99343,0.80065 -6.25814,3.12089 3.98691,3.05555 4.10129,-0.22876 -1.66666,4.31371 v 0 l -13.97052,0.44117 -15.22868,25.34301 v 0 l -9.59145,-6.19277 -2.72874,-7.56533 -11.02936,1.33987 1.56862,-6.14376 -5.45748,-5.83332 -11.9934,-0.89869 5.29409,-8.88883 -3.6928,-0.0164 -5.24507,-9.06859 0.63725,-3.9869 -6.48689,-3.95423 -2.05881,9.96727 -7.54898,2.7124 1.22548,-3.05554 -2.27123,-1.07842 -9.06857,5.52284 -2.76143,8.74178 -0.96405,18.64371 v 0 l -6.27448,-1.48692 -5.14703,2.59803 -3.72547,-2.35292 -2.36927,1.74835 -9.01955,-9.36269 -4.90194,0.63725 -1.37255,-2.28759 -5.75159,3.39869 -0.80065,-7.15684 -3.61109,-1.71567 -0.62092,-3.33332 -2.549,-1.9281 -3.59475,1.20915 -11.30713,-6.4052 v 0 l 6.96074,-22.77766 8.00649,-5.62088 1.22549,-3.54574 19.15023,-1.07842 -0.96405,-3.8562 11.63392,-6.274477 4.82024,2.205871 8.03917,-0.620912 13.15352,-13.790776 0.70262,-11.045693 v 0 l 2.94115,-1.5196 0.89869,2.271229 2.40195,-3.120898 0.84967,6.176438 3.93789,-0.588232 4.00324,-16.307104 v 0 z"
     class="land"
     title="Koprivničko-križevačka županija"
     id="HR-06"
     inkscape:connector-curvature="0"
     style="fill:#f8934f;fill-opacity:1;stroke:#ffffff;stroke-width:0.81698918;stroke-opacity:1" />
  <path
     d="m 542.37046,163.68559 0.96405,-18.64371 2.76143,-8.74178 9.06857,-5.52284 2.27123,1.07842 -1.22549,3.05554 7.54899,-2.7124 2.05881,-9.96727 6.48689,3.95423 -0.63725,3.9869 5.24507,9.06859 3.6928,0.0163 -5.29409,8.88883 11.99339,0.89869 5.45749,5.83332 -1.56862,6.14376 11.02936,-1.33987 2.72874,7.56533 9.59145,6.19277 v 0 l 10.26139,5.16337 2.56534,5.89867 7.54899,5.57187 5.4248,1.0294 1.83006,7.90846 4.77122,1.09476 0.39215,4.13397 2.84312,1.29083 1.68299,-4.03592 2.94117,2.59803 -1.56862,10.03262 4.01959,-3.23527 2.18953,6.47055 9.05224,-6.04572 1.58495,3.41502 7.90846,3.72546 -8.33329,14.90189 0.0327,6.19278 -3.92155,2.28757 0.0654,5.17971 2.99018,-0.93137 v 0 l 1.48693,2.25489 -2.18954,9.3627 -5.06533,4.28102 -7.81042,-1.32353 -0.68627,-2.3039 -10.60452,1.30718 -1.71568,2.14051 -9.98361,-0.29412 -7.22218,-6.14376 -3.69279,4.24835 -6.71565,-1.92809 -6.87905,4.4771 -4.4771,-3.90521 -6.14375,3.66011 -8.57839,-2.66338 -1.12744,-6.89539 -4.95096,8.39864 0.78431,7.95748 v 0 l -4.232,3.39868 -7.02611,-7.8431 -2.74508,1.53593 -4.06861,-3.62743 1.07842,-1.73201 3.64377,0.99672 2.3366,-4.10128 -2.56535,-5.58821 -6.61762,-4.28102 -3.12089,-12.54895 -10.81694,-0.84967 -2.6307,-5.32677 -8.90518,-1.97711 -1.01307,-3.4477 -6.19277,1.17646 v 0 l -0.42484,-0.0164 v 0 l -3.75815,-4.95094 -2.46731,1.01306 -2.49999,-5.9967 -5.14703,-0.098 -6.60127,-4.98363 3.25162,-8.03917 -3.51306,-2.67973 2.23856,-2.05882 -1.27451,-3.31697 11.9117,-1.16012 4.65684,2.7124 -0.66993,-6.29082 5.70258,-2.77776 1.14378,-3.18626 0.9804,2.77776 4.44442,-1.25816 3.08821,2.32025 -0.93137,-3.66011 2.87581,-6.45421 z"
     class="land"
     title="Bjelovarsko-bilogorska županija"
     id="HR-07"
     inkscape:connector-curvature="0"
     style="fill:#f8934f;fill-opacity:1;stroke:#ffffff;stroke-width:0.81698918;stroke-opacity:1" />
  <path
     d="m 179.61094,512.32754 5.19605,4.3954 -6.71564,-0.47386 -1.7647,-2.82677 2.23855,-2.45097 z m -37.46711,-12.04242 -3.93789,3.2843 -3.23527,-5.35946 z m -8.57839,-41.15991 1.20914,5.53919 -4.46076,-1.35621 3.5294,14.7875 -7.87578,-5.53918 2.66339,-1.4379 -1.45424,-6.09474 z m 10.68622,-6.2418 8.80715,4.57514 0.83333,17.48357 8.18622,14.67313 15.57181,14.13391 -1.40522,4.82023 -13.36594,-11.22543 -0.60457,-1.4379 -0.98039,-4.01959 -1.42156,-4.49344 -1.29084,1.11111 -2.28757,-3.18626 -2.7941,4.78756 -4.26469,-1.683 0.6536,-6.43787 3.36599,-3.49672 -7.14048,-9.82021 z m 84.57471,5.9967 -12.64699,-13.33327 9.72217,7.97383 z m -28.2188,-26.45411 13.74176,11.20909 -13.00648,-3.70913 -3.9869,-5.35944 z m 27.07502,-12.95745 -1.1928,6.22546 -4.52613,-6.12742 z m -18.25154,0.19608 4.11763,-0.26144 2.00979,2.41829 -3.8562,5.63723 15.04895,14.50972 6.63395,12.18948 -5.22873,1.09477 -9.72217,-11.32347 -11.97707,-8.13721 -1.73201,-5.98036 4.78756,1.55228 -8.21892,-9.98362 7.58166,2.3366 z m 6.35617,-5.89866 3.25162,4.29737 -5.66991,-0.31047 -2.549,-3.64376 1.58496,-2.61437 z m 2.45097,-13.61104 6.51958,4.21567 3.39867,7.56532 -11.47053,-6.92807 -0.53921,-5.11435 z m -41.51939,-11.27445 3.48038,5.78429 -3.00652,0.26143 -8.64374,-6.38886 6.35617,-1.56861 z m -35.01615,-45.66969 5.32678,2.22221 2.27122,4.13396 -2.95749,7.27121 7.79407,24.67307 5.7516,7.598 6.11108,-0.68628 2.82678,6.53592 -4.33004,0.62092 -2.48364,18.16983 3.82349,20.42473 -2.81043,-1.30718 -0.80065,2.20586 5.32676,9.78754 -2.64704,4.29736 2.41829,7.82676 5.9967,7.41825 -1.56862,5.71893 2.35293,-1.06208 0.62091,2.7941 4.11762,0.0327 -7.92479,6.91173 -6.81369,-5.21239 -11.37248,-16.4705 1.04574,-11.92805 -4.59147,-2.66338 -0.62092,-11.30713 -2.27122,-3.62743 -2.90849,0.84967 -0.47385,-9.42806 -4.8856,-13.97051 -0.47385,-5.63723 2.27123,-3.79082 8.02284,11.65026 4.75487,0.32679 1.94443,-2.3856 -2.99017,-7.25487 1.29083,-3.13723 4.18299,2.23854 -1.2745,-3.08821 -2.87581,-0.11438 -2.36926,-7.28755 -4.5588,-2.84312 1.55228,-5.8333 -1.97711,-6.19278 -7.30389,-4.05227 -2.45096,-7.1078 -2.45097,-1.14378 -0.76797,-3.9379 4.86925,-10.11432 z m 40.22854,-16.82998 4.65684,0.88235 1.74835,3.10456 -3.2516,-0.62092 8.36596,14.90189 -4.29737,-1.24183 -1.66665,4.70587 6.65029,-2.48365 5.24507,3.366 1.99346,3.31696 -2.89215,9.98361 1.79738,3.31698 4.96729,3.07188 2.49999,-1.5196 4.73853,4.19933 -0.40849,4.26468 13.03915,13.4313 -2.09149,3.83985 -9.15028,-1.45424 0.98039,7.09146 -4.26469,1.02941 -7.69604,-3.366 -1.92809,-3.70913 -4.28102,0.2451 -5.47383,-3.33332 0.86601,-14.65679 -2.90849,2.95751 2.07516,3.25162 -6.96074,-3.02286 -2.90849,3.26795 -6.09474,-0.66993 -6.14376,-2.54901 -9.01955,-9.96726 -0.098,-5.73527 5.81694,-1.53594 1.04576,-7.04244 4.93461,2.90848 3.74181,-1.96078 -0.76797,-6.29081 3.9869,-3.98691 -1.87907,-7.77774 2.84312,-1.86273 -2.4673,-6.84637 z m 2.22222,-102.79358 6.38885,1.55229 -3.08822,8.75812 16.32344,12.04242 -0.27777,12.09144 4.55879,-1.87908 13.2189,7.63068 3.38232,10.19603 15.3594,-4.06861 0.93137,-10.03263 3.07188,-2.48364 8.64374,7.36924 17.51625,3.88887 0.16339,3.97057 12.17315,10.0653 3.87253,0.39215 2.0588,-3.15357 4.90194,2.25489 v 0 l 0.68628,7.6797 -9.19931,16.07835 0.7353,4.29736 -9.21564,2.41829 -3.77449,5.27775 -2.85946,-0.83333 -0.5719,-3.2843 -7.46728,-0.65359 -3.25161,-4.9673 -4.10129,1.69934 -1.73201,7.12415 -3.33332,2.25488 4.03593,4.83658 -0.0654,11.58491 -2.82679,8.57838 6.89539,10.29407 v 0 l 2.46731,8.75812 -3.43136,5.53919 -10.32674,1.17646 -1.53594,-4.00325 -3.54573,4.65685 -3.85619,0.60456 -1.58496,5.17971 v 0 l -6.43787,-15.14697 0.84967,-4.75488 -2.40195,1.86274 0.0654,-1.83006 -3.39868,0.29412 -17.09141,-8.52937 -10.06531,-12.36921 -13.59469,-11.12739 -1.63398,-7.95748 2.7941,0.26144 -1.79738,-2.72875 -5.52284,-3.57841 3.80717,5.53919 -2.8758,1.27449 -7.61434,-4.10127 -2.77776,-4.83658 -25.76784,-9.70583 -7.85943,12.14046 -9.46074,36.73182 v 0 l -4.1503,-2.72874 1.1928,-11.30713 -2.61437,-10.76791 1.06209,-10.75158 3.44769,-3.95423 -5.17971,-13.77443 3.23528,-5.47384 -12.92477,-8.2189 -2.82678,-4.9673 -0.0327,-7.09146 v 0 l 14.65679,1.79737 2.99017,-7.28754 3.88888,-1.29084 3.07187,4.72219 3.87253,-1.63397 6.89539,5.49016 15.08162,-8.67642 2.549,0.65359 9.52609,-7.40192 2.56535,-16.32345 5.55553,-1.78103 z"
     class="land"
     title="Primorsko-goranska županija"
     id="HR-08"
     inkscape:connector-curvature="0"
     style="fill:#f8934f;fill-opacity:1;stroke:#ffffff;stroke-width:0.81698918;stroke-opacity:1" />
  <path
     d="m 238.02567,513.38963 12.5653,12.64699 -12.35289,-8.61106 -2.3039,-3.51306 z m -15.83325,-44.67297 14.34633,17.33651 -2.56535,-8.16989 6.47056,-1.38889 -0.29412,2.2549 8.46401,5.7516 4.50977,10.34309 11.3725,4.49344 4.49344,9.19929 -5.22873,-2.69607 0.21241,-2.18952 -6.14375,0.19607 -1.25817,-3.8235 -14.91822,-8.26794 -0.0327,2.32026 3.05554,0.78431 18.26788,21.73191 1.53594,-2.18954 -1.74836,-6.71565 12.12412,8.74179 4.16664,7.32022 6.20912,3.25162 1.71568,4.85291 2.61437,-0.26144 7.74505,6.74834 1.55228,6.35617 -14.60776,-10.29407 10.96399,10.964 -3.97057,0.11438 1.9281,3.69279 -14.75483,-6.83002 7.09147,10.17967 -11.1274,-6.68296 -3.18626,-4.83658 2.18954,-2.46731 -3.08822,-2.97384 4.75488,-4.03593 -5.80063,-4.68951 -2.549,-0.098 0.049,2.35294 -4.49343,-0.96405 -0.4902,-3.92154 -7.22218,-8.80715 -6.6503,-3.56208 0.34314,-2.00979 -2.82678,1.47059 -5.27775,-4.49345 -1.30718,-2.85946 3.57841,-0.83333 -8.44767,-11.25811 1.79738,-2.41829 -15.76789,-16.92801 -9.62413,-17.72867 z m 35.16321,-114.14972 9.52609,3.92155 4.01959,5.52284 7.92479,2.59803 3.83986,-5.68625 5.96402,-2.14051 2.07515,5.73527 13.4313,9.78753 2.53266,4.62415 10.65355,3.79084 12.97378,19.13388 12.81039,2.69606 6.76468,8.38231 1.16012,-2.40195 -5.96402,-7.5163 6.19277,-8.18622 7.30389,7.76139 8.56204,-3.48037 8.67643,5.84963 4.57514,-3.66011 v 0 l 2.02613,13.9215 5.68625,5.62089 -4.82024,4.13397 -5.81697,0.16339 -1.09476,2.7124 10.4738,16.38881 6.78101,6.20911 13.64372,-5.98036 4.18299,5.86598 5.8333,2.46731 3.26795,9.24832 9.3627,4.52612 4.19932,10.11433 -3.18626,0.37581 0.44118,4.36272 -5.21239,1.27451 3.66011,7.48361 16.04567,8.0882 3.16991,8.34962 -1.07842,7.28755 v 0 l -7.53265,2.69607 v 0 l -5.49016,-2.85947 -0.45752,7.4346 -3.20259,-3.08822 v 0 l 0.34313,-4.91827 -5.37578,-6.86271 v 0 l -10.52282,-2.51633 v 0 l -8.80714,7.77774 v 0 h -3.54574 l -1.02941,3.54573 -19.11754,11.32347 5.49016,1.48692 1.6013,2.97384 -4.232,5.03266 v 0 l 1.6013,3.2026 v 0 l 5.71892,-0.11438 1.94444,3.20259 -2.85946,13.61104 -3.08823,2.05882 -14.41168,0.45751 -9.49341,-4.46076 -8.57839,0.11438 -4.91828,-2.40195 -4.00325,-8.34963 -6.87905,-5.24507 v 0 l -30.81682,-14.36267 -5.915,11.83001 v 0 l -17.59795,-19.95088 -8.36597,-6.02938 -5.93134,-9.75485 -18.67637,-14.34633 -4.68952,-13.39862 -10.99667,-15.66985 -2.43463,-35.06518 7.53264,-25.49006 -1.47058,-5.19605 -3.72547,-2.92483 -2.48365,-11.17641 v 0 l 1.58496,-5.17971 3.85619,-0.58822 3.54573,-4.65685 1.53594,4.00325 10.32674,-1.17646 3.43136,-5.53919 z"
     class="land"
     title="Ličko-senjska županija"
     id="HR-09"
     inkscape:connector-curvature="0"
     style="fill:#f8934f;fill-opacity:1;stroke:#ffffff;stroke-width:0.81698918;stroke-opacity:1" />
  <path
     d="m 653.23589,150.20525 -1.33987,7.66338 6.45422,-1.24182 1.30718,3.97056 3.18626,-2.00979 0.45752,2.23856 3.57841,0.52286 0.29411,-5.3431 15.71887,3.87253 6.51958,-0.63725 9.42806,8.10452 7.20584,16.07835 12.58163,1.86274 3.23527,4.34638 3.51306,-1.16012 5.7516,3.08821 1.83006,-1.47057 6.45422,10.76791 5.16337,-5.39213 3.93788,-0.17973 v 0 l 3.59475,13.61103 10.91498,3.98691 4.91828,19.19924 3.18625,0.50654 -9.29733,14.82018 0.49019,4.68952 -4.67318,2.04247 -5.49017,10.66988 -8.39864,3.98691 v 0 l -0.94771,-0.39216 v 0 l -15.91495,2.02614 2.33659,-2.25489 -3.67645,-3.10457 -25.26131,-4.13395 -6.22546,-8.1699 -4.10128,-0.45751 -6.58493,-6.11108 -3.21894,0.049 -2.12417,4.01958 -6.73199,-5.49016 -2.48365,1.30718 v 0 l -2.99018,0.93137 -0.0654,-5.17971 3.92155,-2.28757 -0.0327,-6.19278 8.33329,-14.90189 -7.90846,-3.72546 -1.58495,-3.41502 -9.05224,6.04572 -2.18953,-6.47055 -4.01959,3.23527 1.56862,-10.03262 -2.94117,-2.59803 -1.68299,4.03592 -2.84312,-1.29083 -0.39215,-4.13397 -4.77122,-1.09476 -1.83006,-7.90846 -5.4248,-1.0294 -7.54899,-5.57187 -2.56534,-5.89867 -10.26139,-5.16337 v 0 l 15.22868,-25.34301 13.97052,-0.44118 v 0 l 4.3954,-1.14378 -2.46731,4.6405 3.2026,0.60457 0.91503,-6.94441 z"
     class="land"
     title="Virovitičko-podravska županija"
     id="HR-10"
     inkscape:connector-curvature="0"
     style="fill:#f8934f;fill-opacity:1;stroke:#ffffff;stroke-width:0.81698918;stroke-opacity:1" />
  <path
     d="m 742.82692,268.4236 1.87908,7.49996 7.53264,1.25816 13.49665,11.14373 7.53264,-0.42482 6.53591,3.48037 0.62092,7.1895 -3.93789,2.90849 3.77449,2.81044 2.77776,8.12087 -7.04244,7.81041 v 0 l -15.09796,-4.0686 -15.26136,0.35947 -4.55879,6.06206 1.29083,2.9575 -6.65029,8.41499 -6.09474,-1.78104 -3.38234,4.99998 1.51961,1.63398 -6.58493,0.78431 -7.79408,-3.00653 3.18625,-4.16664 -3.36599,-12.2385 -20.96394,-2.20586 -12.18948,-8.59473 -2.7124,-7.4346 -4.52612,-1.29084 -9.86923,-10.08165 -10.21237,1.07842 -0.80065,3.4477 -3.36599,1.20915 -12.81038,-6.04572 -11.33982,8.72544 v 0 l -7.22218,1.17646 -3.56207,-6.76467 -10.86596,-4.93461 3.16992,-6.33984 -1.17646,-3.70913 -2.30392,-0.42484 0.44118,3.5294 -3.70914,2.85946 -2.25488,-6.92806 -3.33332,-2.71241 -6.69931,0.0817 -3.64377,-6.09474 v 0 l -0.78431,-7.95747 4.95096,-8.39865 1.12744,6.89539 8.57839,2.66338 6.14375,-3.66011 4.4771,3.90521 6.87905,-4.4771 6.71565,1.92809 3.69279,-4.24835 7.22219,6.14376 9.9836,0.29412 1.71568,-2.14051 10.60452,-1.30718 0.68627,2.3039 7.81042,1.32353 5.06533,-4.28102 2.18954,-9.3627 -1.48693,-2.25488 v 0 l 2.48365,-1.30719 6.73199,5.49016 2.12417,-4.01958 3.21894,-0.049 6.58493,6.11108 4.10128,0.45751 6.22546,8.1699 25.26131,4.13396 3.67645,3.10456 -2.33659,2.25489 15.91495,-2.02614 v 0 z"
     class="land"
     title="Požeško-slavonska županija"
     id="HR-11"
     inkscape:connector-curvature="0"
     style="fill:#f8934f;fill-opacity:1;stroke:#ffffff;stroke-width:0.81698918;stroke-opacity:1" />
  <path
     d="m 624.41251,298.979 11.33982,-8.72544 12.81038,6.04572 3.36599,-1.20915 0.80065,-3.4477 10.21237,-1.07842 9.86923,10.08165 4.52612,1.29084 2.7124,7.4346 12.18948,8.59473 20.96394,2.20586 3.36599,12.2385 -3.18625,4.16664 7.79408,3.00653 6.58493,-0.78431 -1.51961,-1.63398 3.38234,-4.99998 6.09474,1.78104 6.65029,-8.41499 -1.29083,-2.9575 4.55879,-6.06206 15.26136,-0.35947 15.09796,4.0686 v 0 l 5.40846,3.6111 4.91828,-0.53922 1.71568,2.9575 7.09146,0.58824 4.7222,4.70585 8.57839,-1.38888 5.21239,-4.11762 10.34308,-1.02941 12.81038,7.14048 13.31693,2.15686 5.44115,3.9869 v 0 l -8.93786,16.11103 3.12089,6.61762 3.4477,1.07842 v 0 l 2.59802,4.57514 -3.25161,6.9444 -1.14379,-3.88886 -9.01955,-1.04575 -8.13722,-10.52282 -17.36919,1.61764 -2.3039,-3.31698 -4.23201,0.26144 -1.16013,-4.5588 -3.13723,-1.32352 -7.40193,3.85618 1.63398,6.25815 -3.00651,3.85618 -13.97052,0.21242 -8.31695,-6.48689 2.48365,-3.03921 -2.72874,-5.08167 -3.66012,-0.0491 -2.12417,3.97057 -4.62416,-6.38886 -3.69279,1.55228 -3.56207,7.18951 -5.39213,1.69934 0.6536,6.40519 -15.04895,8.82348 -30.26128,-21.48681 -12.12412,6.69931 -3.69278,-2.09149 -3.66011,1.58495 -0.94772,-5.0163 -3.08821,4.98362 -7.81042,-0.0491 1.38888,-6.48689 -7.04245,2.12416 -0.47385,-7.85943 -5.35944,6.06206 -9.15028,-0.78431 -5.71893,-3.41502 -0.098,-3.39867 -2.92482,0.1634 -0.19607,-2.94116 -3.98691,0.53921 -2.05881,-2.99018 -4.99998,10.32674 -11.32347,-0.35947 -5.37579,-3.66011 v 0 l -5.55552,-10.73524 -7.17317,-5.6699 1.38888,-3.80718 6.79735,-2.72874 10.53916,-10.40844 z"
     class="land"
     title="Brodsko-posavska županija"
     id="HR-12"
     inkscape:connector-curvature="0"
     style="fill:#f8934f;fill-opacity:1;stroke:#ffffff;stroke-width:0.81698918;stroke-opacity:1" />
  <path
     d="m 341.2931,654.22221 1.79738,2.02614 -3.16993,0.37581 -2.49998,-3.59475 z m -40.35927,-37.15666 9.49342,4.85292 5.80062,6.65028 2.76142,-0.37581 2.43463,6.97709 11.07837,9.62413 -0.68626,2.36927 -11.30714,-6.5686 0.0327,1.78104 -4.15031,-1.04575 -1.42157,-5.04899 -7.33655,-5.08167 -9.50976,-13.62738 z m -35.75145,-6.0784 4.78756,7.85943 -5.32676,-3.66011 z m 3.30064,-9.34636 11.74831,12.49994 3.46403,7.43459 -15.29404,-13.49665 z m 3.67646,-13.25156 14.93456,10.3104 2.58168,6.40519 8.80714,6.79736 -0.91502,5.57187 -5.24507,-7.85945 -3.21894,3.4477 -14.08489,-17.56527 -8.43133,-5.73526 -0.40849,-6.60127 z m -29.31357,-6.06206 3.62743,4.34638 -9.65681,-6.99342 z m -10.42479,-1.74836 7.97382,6.6503 1.97711,4.67317 4.00325,0.98039 0.26143,3.77448 8.3333,5.39214 -0.0327,-2.0915 2.04247,0.96405 -1.33987,2.14052 3.88887,2.51632 6.19278,14.67313 6.14376,5.3431 0.16339,-2.87579 3.75816,2.7124 -0.70261,2.10783 8.98687,7.17317 0.75163,3.30063 8.46401,4.91827 -2.17319,3.88888 -7.48362,-3.43136 -4.47709,-5.52285 -1.69934,1.07842 11.86267,9.96727 0.16341,3.20261 -16.4705,-14.4117 -18.70906,-30.04886 -17.76134,-17.25481 -2.30391,-1.29084 0.14706,2.63071 -8.38231,-5.16337 -0.91503,-2.61437 2.18954,-1.89541 0.39215,4.36272 4.46076,2.40194 -2.61437,-3.26795 1.78104,-0.37582 4.03593,2.61437 -3.79084,-8.49669 z m 14.06856,-6.79735 13.6764,12.49993 0.50653,4.46077 -9.73851,-7.15683 -4.73854,-6.74832 z m -23.66001,-14.8692 12.46726,10.65354 0.98038,-3.10455 2.63071,1.78103 -1.38889,1.02941 3.07188,1.74835 -2.74508,3.366 -13.74176,-8.95421 4.7222,7.49996 -2.12417,0.70262 -7.07512,-13.39863 z m -17.89206,-6.37252 4.83657,3.6111 -3.43135,0.11438 -3.31698,-3.31698 z m 14.42802,2.64705 2.46731,2.17319 -2.40195,1.58496 -3.59475,-2.33659 0.66993,3.92155 -5.32676,-5.66991 4.06861,0.5719 -1.48693,-3.90521 z m 42.222,-10.75158 10.57185,2.81044 5.83329,5.88233 -2.32024,1.22548 -0.0654,-2.40194 -4.11762,-1.66666 -7.43461,3.41501 -5.47382,-7.82675 0.39215,-1.9281 z m -69.78721,-2.48364 8.1699,7.58166 -12.2385,-7.40193 -2.53267,-4.10128 1.48693,-1.27451 z m 11.25811,-18.26788 3.15358,3.51305 -0.66993,6.12742 3.18626,1.58496 1.12744,4.00325 -5.06533,-2.17319 -2.15685,-7.28754 -3.97057,-1.37255 0.45752,-3.34966 z m 18.08814,-1.17646 2.69607,3.9869 -2.90849,3.92155 4.54246,6.87905 -1.0294,3.10455 -11.7483,-6.19277 5.35945,-2.59803 -2.89215,-8.8725 z m 211.58385,-3.43136 1.71567,2.05881 0.45752,-7.4346 5.49016,2.85947 v 0 l 7.53265,-2.69607 v 0 l 0.58823,6.37252 3.75815,5.08167 -8.12087,1.20914 0.78431,3.93789 14.15025,4.99998 1.42156,2.72874 -0.47385,15.24501 3.30063,16.29076 v 0 l -9.1993,3.08823 v 0 l -4.232,0.11437 -2.05881,4.46076 -0.11438,11.32347 v 0 l -3.88887,3.08823 v 0 l -3.77449,2.17318 -16.12737,-7.43459 -3.31697,-7.43461 v 0 l -3.20259,-0.22875 -6.97709,11.78098 -7.32023,7.4346 -3.88886,0.80065 v 0 l -2.05882,4.8039 -8.23525,-0.80065 v 0 l 1.94444,2.85946 v 0 l 9.03589,4.11763 0.22877,3.54573 v 0 l -3.08823,4.11763 1.6013,3.6601 -4.8039,4.46076 v 0 l -4.11762,1.14378 4.39541,6.30717 -4.50978,1.48691 v 0 l -3.57842,1.99346 2.30391,2.38561 -3.0392,5.04899 -3.92155,1.96078 0.1634,5.62088 v 0 l -0.47385,3.10456 -5.70259,-3.25162 v 0 l -5.09801,-2.07515 -7.22218,3.41502 -3.31698,-1.02942 v 0 l -5.58821,-5.03265 -5.93133,3.5294 -4.36272,-6.0784 -11.3725,-5.7516 -2.00979,-5.57188 -5.98036,-4.21565 -10.81693,-14.78751 -7.56533,-3.61109 1.81372,-1.87908 -4.42808,-2.25489 -3.10456,-7.64701 -6.87905,-4.18299 -0.62091,-3.92155 -3.07188,-0.76797 1.09476,-3.44769 -11.22543,-11.51955 2.99019,-1.97711 1.35619,-5.8333 -9.55877,-7.32023 2.48365,-4.37906 3.31698,-0.11438 5.9967,9.03591 5.47382,-4.00325 -3.9052,-5.94769 3.74181,0.32681 -0.7353,-2.72876 12.79406,10.94766 2.77776,-0.98038 -3.21894,-7.15683 3.00652,0.52287 1.12744,-2.20586 -7.58166,-7.6797 2.33659,-2.92483 8.72545,6.66663 0.27778,2.82678 12.36921,7.90847 7.1895,-0.9804 10.24505,2.89215 1.48692,9.67315 -6.63395,2.6307 7.4346,6.74833 9.37904,-2.28757 4.68951,5.83331 1.71568,7.54898 2.6307,-0.80065 -2.74508,-12.46726 -13.83979,-10.6372 1.33985,-8.38231 -5.47382,-3.03919 -4.52612,1.12744 -10.04897,-10.16335 -21.94432,-11.82999 v 0 l 5.88232,-11.86269 30.81683,14.36267 v 0 l 6.87904,5.24507 4.00325,8.34963 4.91828,2.40195 8.57839,-0.11438 9.49341,4.46076 14.41168,-0.45751 3.08823,-2.05882 2.85946,-13.61104 -1.94444,-3.20259 -5.71892,0.11438 v 0 l -1.6013,-3.2026 v 0 l 4.232,-5.03266 -1.6013,-2.97383 -5.49016,-1.48693 19.11754,-11.32347 1.02941,-3.54573 h 3.54574 v 0 l 8.80714,-7.77773 v 0 l 10.52282,2.51632 v 0 l 5.37578,6.86271 -0.34313,4.91827 v 0 z"
     class="land"
     title="Zadarska županija"
     id="HR-13"
     inkscape:connector-curvature="0"
     style="fill:#f8934f;fill-opacity:1;stroke:#ffffff;stroke-width:0.81698918;stroke-opacity:1" />
  <path
     d="m 882.82618,164.99278 14.41168,8.44766 2.43463,-0.32679 0.73529,-7.20584 1.89541,1.50325 1.22549,7.41827 4.5588,3.57841 -1.01306,13.28424 5.81696,6.51958 3.92154,16.65023 9.73851,7.02611 -4.67317,12.84307 -6.01304,1.83005 1.92809,3.57842 -3.25162,8.80714 10.24505,7.25486 5.62089,-1.76469 1.50326,-3.49672 3.83984,-0.17973 2.00979,5.31043 11.38884,4.99997 -3.07188,6.60127 -14.21561,-1.60129 -1.81373,9.77119 1.61764,3.15358 v 0 l -8.36596,0.80065 -5.73526,-7.82677 -10.16335,-3.51305 -0.84967,2.18953 -9.00322,2.43463 3.2843,10.4738 -3.25162,0.2451 -0.17973,3.16992 -4.33005,0.93137 -3.23528,-2.95751 -17.67965,5.86598 -0.0327,8.48035 -4.44442,2.48365 1.14379,6.5686 -6.74833,0.50652 -2.85947,4.49344 -4.73854,-0.83333 -4.67317,2.84313 -0.0163,10.73524 10.53916,3.95423 -1.32353,7.12414 -3.44769,1.12744 v 0 l -5.44115,-3.9869 -13.31693,-2.15686 -12.81038,-7.14048 -10.34308,1.02941 -5.21239,4.11762 -8.57839,1.38888 -4.7222,-4.70585 -7.09146,-0.58824 -1.71568,-2.9575 -4.91828,0.53922 -5.40846,-3.6111 v 0 l 7.04244,-7.81041 -2.77776,-8.12087 -3.77449,-2.81044 3.93789,-2.90849 -0.62092,-7.1895 -6.53591,-3.48037 -7.53264,0.42482 -13.49665,-11.14373 -7.53264,-1.25816 -1.87908,-7.49996 v 0 l 0.93137,0.37582 v 0 l 8.39864,-3.98691 5.49017,-10.66988 4.67318,-2.04247 -0.49019,-4.68952 9.29733,-14.82018 -3.18625,-0.50654 -4.91828,-19.19924 -10.91498,-3.98691 -3.59475,-13.61103 v 0 l 14.03587,-1.71568 14.2483,7.09147 3.64377,-0.93137 3.16992,-4.91828 7.85943,3.1209 2.99018,-2.74508 7.30389,2.09149 2.40195,4.10129 8.95419,0.31045 6.89539,3.38234 4.49344,-6.4052 7.20585,7.90846 6.86271,0.80065 -0.22876,-5.89867 6.01304,-1.01306 1.56862,-6.84637 5.14703,2.67972 6.24179,-4.82024 2.66339,0.63726 -0.0163,-3.43136 8.30061,-5.94768 1.38889,-8.83982 1.30717,2.10783 2.54901,-1.92809 -2.07515,-3.07188 5.01631,-5.57187 z"
     class="land"
     title="Osječko-baranjska županija"
     id="HR-14"
     inkscape:connector-curvature="0"
     style="fill:#f8934f;fill-opacity:1;stroke:#ffffff;stroke-width:0.81698918;stroke-opacity:1" />
  <path
     d="m 359.02176,696.65663 8.7908,1.9281 3.90521,5.26141 7.6797,3.34966 -12.23849,-2.20588 -5.31044,-5.89866 -3.56207,-0.50653 -0.75163,-2.82679 z m 23.74171,-5.68624 3.83984,4.15031 -4.99997,-1.97713 -0.2451,-4.49343 z m 17.4999,0.34313 2.27123,8.34963 -8.21891,-8.59472 2.51633,0.27777 0.63725,-2.72874 z m -30.60442,-4.9673 9.13395,6.37253 -1.12744,4.70585 -4.01959,-2.12417 -0.39216,-1.74836 2.64705,0.37582 z m 14.55875,-2.36926 3.48038,2.90848 -2.04247,-0.21241 1.07842,2.45096 -4.16665,-4.68952 z m 8.03918,0.94771 -2.32025,1.16012 -1.79738,-5.40847 z m -34.11747,-23.87243 -0.21241,2.81044 4.00324,4.95096 2.66339,-0.93137 3.74181,7.89212 -6.91173,-2.23855 -10.27773,-13.70908 4.18299,2.40194 1.25816,-3.10455 z m -62.45065,-11.35614 4.59148,1.50326 -1.4379,2.59802 21.78093,19.8365 -9.26466,-3.21894 -4.67318,-3.26796 0.29412,-2.23854 -7.4346,-4.06861 -6.61761,-9.77119 z m 5.17972,-4.13397 4.95094,1.78103 -2.00979,0.42484 1.92809,2.17319 3.25162,0.42484 0.17974,-3.2026 9.39538,15.52279 -15.89861,-13.20254 -3.1209,-0.31046 -1.14378,-1.63398 z m 180.75067,-51.6664 4.64049,6.78101 9.75486,-0.21241 2.59803,12.38555 9.99994,0.80065 6.69931,15.78423 v 0 l -7.17316,-0.39215 -8.1699,5.68625 -6.5359,0.86601 1.55228,4.9346 -10.52283,-1.35619 -2.7124,8.77446 16.65024,15.75155 -15.196,11.83 2.00979,4.68952 -3.26796,3.51305 3.366,4.41174 -4.96729,5.58821 -12.95745,-0.94771 -3.10456,4.37906 -7.598,-0.62091 -1.99345,5.40847 -7.27121,0.21242 -5.14702,8.21891 -4.77122,1.07842 -5.01632,5.42481 2.1732,5.49017 4.60781,0.76797 1.09477,6.09474 -7.46728,1.83005 -1.02941,4.05227 -4.08494,1.83005 v 0 l -2.84313,3.18627 0.0491,-2.79411 -5.42481,1.16013 -3.26796,-3.26796 6.60128,-2.38561 -1.5196,-4.13397 -3.07188,0.63725 -0.31046,-1.50326 -5.88231,-2.97383 3.34965,-1.25816 -0.19608,-2.67974 -4.33004,-0.098 2.32025,-3.61109 -2.46731,-1.11111 1.5196,-4.90193 -2.30391,-3.54574 9.82021,-1.09476 -11.56857,-3.62743 4.31371,-1.55228 3.75814,3.2843 -0.5392,-4.39541 -8.69277,-9.39537 -2.20587,1.04574 -16.78095,-14.6241 -6.4869,1.1928 -2.54901,-2.89214 -5.96402,-0.098 -1.73202,-4.232 -7.63067,-4.05227 -4.15031,-5.27775 2.72875,3.00653 3.8235,-1.42157 4.70586,4.60782 0.0654,-4.52612 -9.62413,-6.45422 -5.8333,-0.99673 -2.56535,-4.3954 -2.61436,1.74836 -0.37582,-2.3856 4.29736,-4.33005 5.58821,5.03265 v 0 l 3.31698,1.02942 7.22218,-3.41502 5.09801,2.07515 v 0 l 5.70259,3.25162 0.47385,-3.10456 v 0 l -0.1634,-5.60454 3.92155,-1.96079 3.0392,-5.04898 -2.30391,-2.38561 3.57842,-1.99346 v 0 l 4.50977,-1.48691 -4.3954,-6.30717 4.11762,-1.14378 v 0 l 4.8039,-4.46076 -1.6013,-3.66011 3.08822,-4.11762 v 0 l -0.22876,-3.54574 -9.03589,-4.11762 v 0 l -1.94444,-2.85946 v 0 l 8.23525,0.80065 2.05882,-4.8039 v 0 l 3.88886,-0.80065 7.32023,-7.4346 6.97709,-11.78099 3.20259,0.22876 v 0 l 3.31697,7.4346 16.14371,7.4346 3.77449,-2.17319 v 0 l 3.88887,-3.08822 v 0 l 0.11438,-11.32347 2.05881,-4.46076 4.232,-0.11437 v 0 l 9.1993,-3.08823 v 0 l 6.2418,9.90192 9.15028,7.71237 z"
     class="land"
     title="Šibensko-kninska županija"
     id="HR-15"
     inkscape:connector-curvature="0"
     style="fill:#f8934f;fill-opacity:1;stroke:#ffffff;stroke-width:0.81698918;stroke-opacity:1" />
  <path
     d="m 855.55508,338.29251 3.44769,-1.12744 1.32353,-7.12414 -10.53917,-3.95423 0.0163,-10.73524 4.67318,-2.84313 4.73854,0.83333 2.85947,-4.49344 6.74833,-0.50652 -1.14379,-6.5686 4.44442,-2.48365 0.0327,-8.48035 17.67965,-5.86598 3.23528,2.95751 4.33005,-0.93137 0.17973,-3.16992 3.25162,-0.2451 -3.2843,-10.4738 9.00322,-2.43463 0.84967,-2.18953 10.16335,3.51305 5.73526,7.82677 8.36596,-0.80065 v 0 l 4.08495,3.38233 -0.0654,3.07188 -8.00649,8.7091 8.49669,7.66336 11.56856,2.51633 3.26796,9.34635 23.54563,12.30386 25.01622,2.66338 -0.21245,14.52607 -6.84633,0.98039 -6.63397,-7.63068 -3.98691,0.37582 -1.25816,6.45421 h -3.85619 l -14.39535,-7.32022 1.16012,7.2712 -6.87905,10.06531 -9.08491,0.29411 3.97056,18.66003 -2.97384,3.10456 -0.42484,9.86923 -6.99342,4.36272 10.09799,1.6013 4.90194,-2.43463 2.07514,6.0784 -1.99345,2.82678 -6.53591,2.7941 -4.15031,5.049 -11.63392,1.66666 2.35293,11.07837 -29.23187,0.29411 -14.83652,-12.28751 1.40521,-3.54573 -3.43135,-4.91828 6.04572,1.56862 2.99018,-1.65032 -3.39867,-5.9967 1.66665,-6.01304 -11.3398,-0.63724 1.37253,-5.24508 -11.43784,-10.75158 3.15358,-3.46403 -1.69934,-3.51305 -3.54573,1.71568 -0.37582,6.8627 -8.16989,-2.00979 4.72219,-4.98363 -0.65359,-2.20588 -3.67645,3.34966 -6.40519,-3.15358 0.55555,6.63395 -1.74836,-3.67645 -5.04899,-2.59802 v 0 l -3.4477,-1.07842 -3.12089,-6.61762 z"
     class="land"
     title="Vukovarsko-srijemska županija"
     id="HR-16"
     inkscape:connector-curvature="0"
     style="fill:#f8934f;fill-opacity:1;stroke:#ffffff;stroke-width:0.81698918;stroke-opacity:1" />
  <path
     d="m 455.99837,834.04152 2.23855,1.5196 -2.25489,3.1209 1.66666,0.71896 3.97057,-3.6928 3.9052,2.02614 2.33659,-1.89542 -0.14705,4.91827 -4.11763,5.049 -19.77114,5.37578 -7.38558,-0.16339 3.75815,-3.64377 0.14706,-3.43136 -1.6013,-2.28757 -2.9575,1.56862 -2.18954,-3.36599 7.6797,-4.26469 z m 85.99628,-4.08494 8.25159,2.72874 -4.5588,1.86274 -8.70911,-1.66666 z m -57.67944,-17.43455 4.95096,2.77777 3.23528,-1.0621 0.31045,2.6634 -6.06206,0.60456 -5.88232,-2.85946 z m 35.86583,-13.12085 1.73202,-0.098 -1.04575,3.00653 2.30391,3.10455 4.47709,-2.84312 10.31041,1.38889 -0.49019,3.39866 5.76794,4.52613 -4.4771,-0.80065 8.93787,5.73526 3.83984,-1.96077 15.83325,2.05882 6.11107,-1.38889 3.51307,2.41829 34.98347,4.18299 6.78101,-1.51961 8.59472,3.51306 -13.97051,2.56534 -29.93448,0.42483 -27.54888,-3.62743 -18.57833,1.40523 -20.66982,-4.34638 -10.60453,-5.29409 -2.33658,1.38887 -16.9607,-8.66008 8.92152,0.21241 9.16662,-3.9052 9.13394,1.683 6.89539,5.68624 4.99997,-1.22548 -3.43136,-1.22548 -3.36599,-6.78101 -3.00652,1.76469 -3.18626,-3.25162 z m -20.0816,-36.89522 17.63063,0.22875 39.00306,7.23852 0.4085,1.94444 2.67972,-1.25816 3.39868,1.89541 0.42483,1.38888 1.71568,1.87908 1.55228,-2.28758 10.13067,7.41827 -2.1732,0.84967 1.40522,2.04247 -2.22221,0.73529 -0.0817,3.10456 -2.8758,-0.88235 -1.48692,3.43136 -10.84962,2.12417 -26.42142,1.53594 -17.85939,-3.33332 -12.97379,-6.73199 -1.55228,-1.1111 -5.80061,-2.92482 -0.3268,-3.98691 2.81044,2.66338 3.90521,-0.70261 -2.49999,-4.50978 4.73854,-1.81371 -5.22874,-7.27121 z m -34.03576,-5.39214 8.74178,2.41829 0.89869,2.43463 4.59148,-0.4902 11.92804,15.39208 -3.05554,0.60458 -12.71235,-6.42154 0.47386,-1.66665 -17.40187,-5.915 -0.78431,-5.80063 z m -26.09463,-9.54243 1.35619,1.97712 -1.81371,2.35292 -5.70258,-2.549 z m 8.66008,-0.65358 4.28102,0.37581 0.31046,5.35944 -9.99995,0.86601 z m 23.64366,-13.02282 18.82343,6.42154 -13.08816,1.1928 -7.27121,-2.41829 -4.52612,3.07189 -6.86271,-3.5294 8.62741,0.17974 0.47386,-3.41502 -3.08823,-1.1928 z m -44.5259,3.03921 4.10128,-1.83006 1.02941,-4.03593 7.48362,-1.83005 -1.09477,-6.09474 -4.59147,-0.76797 -2.15686,-5.49017 5.01632,-5.42481 4.77122,-1.06208 5.14703,-8.21891 7.2712,-0.21242 1.99345,-5.40847 7.598,0.63725 3.10456,-4.37906 12.95745,0.94771 4.96729,-5.58821 -3.36599,-4.41174 3.26795,-3.51305 -2.00979,-4.68952 15.21234,-11.83 -16.63391,-15.75155 2.71241,-8.77446 10.52283,1.35619 -1.55229,-4.9346 6.53591,-0.86601 8.1699,-5.68625 7.17316,0.39215 v 0 l 27.49986,23.28419 1.4379,9.70584 4.41174,7.23852 10.19603,4.55879 4.65683,8.13722 13.33326,11.73196 23.25151,30.24494 5.13069,-0.34313 12.61432,12.14045 13.72542,-0.53921 5.40846,3.67646 4.44442,9.33001 -4.90193,14.18293 12.90843,24.0685 1.37254,7.32022 8.75812,1.63398 4.46076,3.44769 3.74182,6.79736 -0.84967,4.95095 2.46731,0.62091 v 0 l -5.83331,5.45749 -8.59472,-2.12418 -3.54574,1.78104 0.27778,3.30064 5.8333,1.87907 -0.098,4.70586 -4.36272,4.8856 v 0 l -2.32025,-4.29736 -7.85943,-3.59476 -5.09802,-5.60454 -14.41169,-5.24507 -10.44112,-7.92479 -1.0294,-4.29737 -4.6405,-1.50326 -4.62416,-8.51303 -27.56522,-30.31029 -27.69593,-2.94116 -5.75159,-7.02612 -8.07186,1.20915 -19.77114,-13.66006 -23.51295,-2.549 8.54571,-4.67318 6.1601,0.37581 -0.98039,-2.22221 -19.80382,-3.51305 -9.8202,6.02938 -14.01954,3.48037 -13.21888,-2.10783 -2.61437,1.81372 9.70583,2.46731 0.4902,2.07514 -10.5555,5.06534 -7.94113,-3.20259 -1.30719,2.27122 -3.69279,-0.76797 0.86601,-2.76142 -4.73854,1.09476 z"
     class="land"
     title="Splitsko-dalmatinska županija"
     id="HR-17"
     inkscape:connector-curvature="0"
     style="fill:#f8934f;fill-opacity:1;stroke:#ffffff;stroke-width:0.81698918;stroke-opacity:1" />
  <path
     d="m 44.170491,401.67453 5.637226,4.44442 -4.199324,0.26144 -0.522873,-2.51633 -3.333316,-1.78104 z m 45.326558,-140.11364 8.578387,6.5686 7.843094,0.71895 v 0 l 0.0327,7.09146 2.82678,4.9673 12.92477,8.2189 -3.23528,5.47384 5.17971,13.77444 -3.44769,3.95422 -1.06209,10.75158 2.61437,10.76791 -1.17646,11.30713 4.1503,2.72874 v 0 l -8.20257,16.84632 -2.09149,2.12417 -1.97711,-1.61764 -1.19281,2.79411 2.10784,2.14051 -0.62092,7.36925 2.84312,9.96726 -3.88886,6.79735 -7.00977,-3.05554 -7.140487,6.0784 1.388881,-5.94768 3.611096,-1.53594 -2.924823,-6.73199 -3.921551,0.21241 -1.45424,-9.19929 -1.339862,10.08164 5.21239,1.35621 1.25816,3.79082 -2.00979,0.049 -2.009793,7.22219 -0.375815,2.33658 -3.823509,7.82677 -3.725471,2.90848 -4.166644,-2.28758 0.01634,2.28758 3.921549,1.99345 -4.248344,10.53915 4.035926,8.77448 -9.101259,0.0163 -6.699311,-6.37252 -1.372542,2.97385 3.937888,3.44769 -0.555552,6.40519 -2.483647,1.78104 -0.539213,-9.59145 -8.022833,-1.5196 -1.388882,-1.97711 2.124172,-2.23856 -4.673178,-0.0163 0.669931,-4.08494 -6.617612,-3.0392 -0.147059,-3.0392 6.830031,2.72875 1.960773,-4.68953 -5.065332,1.56862 -3.83985,-3.12089 3.169918,-5.68625 -8.594726,-16.91168 h -4.656838 l -4.199323,-5.55552 0.343135,-3.23528 -3.82351,-0.26143 -0.179737,-6.47056 -10.686218,-4.52612 1.960774,-0.35947 0.522873,-6.12742 -5.833302,-4.34638 -1.601299,-6.20912 2.401948,-4.18298 -3.75815,-4.13397 2.663384,-0.93136 -4.052266,-4.42808 3.398675,-10.76793 -4.624159,-5.04899 1.617639,-3.07187 3.660111,0.098 -6.094738,-5.27774 3.72547,0.31045 3.986907,-4.00325 -9.264657,-0.21242 0.653591,-1.78103 -4.0359259,-1.63398 -0.2124172,-5.32677 2.8431221,-1.53594 -2.1241717,-0.65359 -1.0947655,-9.67315 -3.382335,-3.46404 1.3398622,-5.16337 -2.3039094,-0.93137 -0.1143784,-7.58166 -3.16991792,-3.97056 2.12417182,-3.62743 3.9542274,0.88235 25.0488875,13.97051 12.71235,-6.78101 7.597999,3.10456 2.075153,6.01304 10.767917,2.02613 5.424808,-6.53591 6.993427,-1.19281 3.529393,2.14051 2.598026,-2.14051 0.68627,-6.51957 -5.179711,-4.95095 1.192804,-2.14052 5.24507,1.06209 1.241824,-2.84312 z"
     class="land"
     title="Istarska županija"
     id="HR-18"
     inkscape:connector-curvature="0"
     style="fill:#f8934f;fill-opacity:1;stroke:#ffffff;stroke-width:0.81698918;stroke-opacity:1" />
  <path
     d="m 765.47386,926.85149 0.66993,3.66011 -5.73527,-3.18626 z m -8.72544,-1.94443 1.89541,2.04247 -4.37906,0.86601 -4.15031,-3.48038 2.41829,0.63726 1.56862,-2.61437 z m -26.89529,-14.31365 6.17644,2.53266 v 2.32025 l -5.78429,-4.18298 z m 4.65684,-1.58496 3.51305,0.16339 10.24505,7.41827 -0.52288,5.5065 z m -162.84228,-3.46404 11.17641,0.27778 0.53922,3.97057 -5.63723,5.78428 -3.05554,0.86601 -3.16992,-3.18626 -4.42808,3.25162 -4.83658,-5.78429 2.05882,0.62092 1.61764,-7.20584 z m 85.09759,-6.86271 4.41174,-0.17973 -4.34638,2.15685 1.2745,1.29084 10.37577,-0.17973 26.38874,9.68948 0.45752,1.9281 7.30388,-0.2451 1.22548,1.92809 3.16992,-1.55228 0.47386,2.48365 12.85941,3.6928 0.83333,4.62415 -17.89207,-6.32349 -23.10445,-3.62744 -8.72544,-4.83657 -2.46731,1.99345 -5.80063,-4.13396 -3.49671,-0.94771 -0.0817,2.41829 -9.72217,-4.21567 0.55556,-2.64704 z m -114.19874,-43.97035 26.17633,8.03918 9.95093,-3.21894 23.56197,-2.23856 -0.44118,1.58496 10.964,3.41502 4.36272,-1.07843 4.11763,8.20257 7.25486,2.53267 -14.21561,2.32025 -12.28752,-3.90521 -12.46726,-0.71895 -18.75807,7.99016 -2.74508,-0.96405 0.88235,-2.07516 -13.28424,0.50654 -17.54894,-5.76795 -1.12744,3.10456 -3.97056,-4.8039 5.06533,-1.47057 -1.06209,-2.32025 8.03918,-0.89869 -9.3627,-6.50324 -1.65031,2.59803 -2.94117,-2.53267 z m 53.00625,-12.51627 10.49014,5.09801 16.53586,-0.37582 22.38551,5.27775 24.13386,11.76465 1.06208,5.44114 6.83003,4.28102 6.65029,1.61764 -2.25489,-4.85291 1.76471,-0.13072 20.53909,12.25484 5.26141,0.27778 8.79082,8.31695 2.1405,-0.21243 -7.63068,-7.67969 -8.05551,-4.28103 1.55228,-2.69606 5.49017,-6.01304 5.78428,0.99673 10.53916,6.99343 4.16665,-6.58494 5.94768,4.9673 3.57841,13.51299 3.93788,1.25817 -0.89869,5.42481 9.88558,2.66338 7.64702,4.8039 2.09149,5.049 5.63723,1.24182 10.88229,8.13721 -0.17974,5.57186 6.99343,1.9281 2.00979,5.3431 4.59148,-0.57188 11.91171,14.2156 12.09143,-5.5882 7.36924,0.96405 11.63393,11.87902 3.00652,13.15353 -1.45425,6.55224 11.50322,13.1372 -1.30719,4.08493 -9.3627,-11.07836 -3.8235,-0.22876 -32.66323,-23.85608 -2.05881,-3.80718 1.12744,-5.70257 -3.70912,-5.1307 -4.67319,1.73202 -9.19929,-5.88232 -11.04569,-2.46731 1.91175,-4.15031 -32.89198,-21.4378 1.86273,-5.68623 -3.54573,2.61436 -3.93789,-6.29081 -8.03917,-0.94772 -2.17319,4.64051 -6.71565,-5.16338 4.44442,7.14049 -1.683,3.92155 -3.52939,-7.15683 -5.29409,-0.89869 -5.14703,-4.59148 -3.31698,0.94771 -35.40831,-12.61432 -2.97384,-1.74835 3.70913,-3.93788 -5.53919,-4.28103 -9.46074,-0.60457 -24.57502,-15.58816 -14.11757,1.683 -11.02936,-2.41829 -8.9542,-5.11435 3.15358,-4.10128 -3.23528,-0.80065 z m 79.21527,-26.37242 27.46718,16.78097 12.17314,26.82992 -16.63391,7.14048 -12.97379,-0.098 -10.94764,-10.86596 1.53594,-3.26795 -3.67646,-5.16337 -4.54246,2.23855 -1.50326,-12.04242 -2.43463,6.20911 -10.22869,-12.10778 v 0 l 4.36272,-4.88558 0.098,-4.70587 -5.8333,-1.87907 -0.26143,-3.30064 3.54573,-1.78103 8.59472,2.12417 5.83331,-5.45749 v 0 z"
     class="land"
     title="Dubrovačko-neretvanska županija"
     id="HR-19"
     inkscape:connector-curvature="0"
     style="fill:#f8934f;fill-opacity:1;stroke:#ffffff;stroke-width:0.81698918;stroke-opacity:1" />
  <path
     d="m 493.02432,14.58505 14.86921,5.457488 5.39212,6.911728 22.17308,4.133965 10.62087,16.993374 2.84312,-1.764697 4.24834,4.983634 6.47055,-1.48692 9.44439,7.941134 v 0 l -4.00324,16.307104 -3.93789,0.588231 -0.84967,-6.176437 -2.40195,3.120898 -0.89869,-2.271229 -2.94115,1.519599 v 0 l -6.53592,-1.225484 0.93137,-4.624158 -5.65356,4.232004 -3.54573,-3.316976 -13.00647,3.398674 -7.41827,-5.669904 -3.07187,4.199324 -4.82024,-0.261437 -0.29411,1.732017 -9.50976,-1.977113 -1.07843,-3.05554 -6.09474,3.267957 -1.99345,-2.27123 -6.19277,-0.03268 -5.24507,-8.676424 -6.84637,-3.594752 v 0 l 2.92481,-6.225458 -6.19277,-7.630678 -3.46404,-15.08162 3.02287,-5.702584 11.99339,-2.924821 0.91504,-3.071879 3.36598,-0.326796 1.69934,2.794103 3.2026,-3.284296 z"
     class="land"
     title="Međimurska županija"
     id="HR-20"
     inkscape:connector-curvature="0"
     style="fill:#f8934f;fill-opacity:1;stroke:#ffffff;stroke-width:0.81698918;stroke-opacity:1" />
  <path
     d="m 450.72062,151.77387 3.79083,7.84312 0.27778,9.65682 4.11762,1.89541 5.17972,11.97706 -5.01632,2.59803 -0.83333,8.02283 -9.05223,-2.58169 -1.76471,3.77449 -17.36919,10.91498 -1.92809,6.71565 -4.03593,0.73529 -1.48691,9.70583 -5.81697,12.36921 -3.43135,2.84312 h -6.11108 l 0.58823,-5.39213 -6.07839,-5.9967 -15.08163,-7.17316 -1.40522,-6.22545 5.06533,-6.87905 8.02284,5.19605 2.90848,-2.2549 1.17646,-4.91827 -8.85616,-5.84964 3.41501,-4.21566 -2.90847,-9.82022 2.84312,-5.45748 19.0195,-12.49993 v 0 l 21.40512,-11.43786 5.71892,-0.58822 1.14379,-3.10458 z"
     class="land"
     title="Grad Zagreb"
     id="HR-21"
     inkscape:connector-curvature="0"
     style="fill:#f8934f;fill-opacity:1;stroke:#ffffff;stroke-width:0.81698918;stroke-opacity:1" />
  <g
     id="stadiums"
     data-country="croatia"
     data-circle-radius="6"
     data-circle-colors="#a149be,#bea149"
     transform="translate(0,388.92105)" />
</svg>
