<?xml version="1.0" encoding="UTF-8" standalone="no"?>
<?xml-stylesheet type="text/css" href="/styles/home.css"?><!-- https://www.amcharts.com/svg-maps -->

<svg
   xmlns:dc="http://purl.org/dc/elements/1.1/"
   xmlns:cc="http://creativecommons.org/ns#"
   xmlns:rdf="http://www.w3.org/1999/02/22-rdf-syntax-ns#"
   xmlns:svg="http://www.w3.org/2000/svg"
   xmlns="http://www.w3.org/2000/svg"
   xmlns:sodipodi="http://sodipodi.sourceforge.net/DTD/sodipodi-0.dtd"
   xmlns:inkscape="http://www.inkscape.org/namespaces/inkscape"
   version="1.1"
   id="map-czechRepublic"
   viewBox="0 0 1000 1000"
   width="1000"
   height="1000"
   class=""
   sodipodi:docname="czechRepublic.svg"
   inkscape:version="0.92.4 (5da689c313, 2019-01-14)">
  <metadata
     id="metadata23">
    <rdf:RDF>
      <cc:Work
         rdf:about="">
        <dc:format>image/svg+xml</dc:format>
        <dc:type
           rdf:resource="http://purl.org/dc/dcmitype/StillImage" />
        <dc:title></dc:title>
      </cc:Work>
    </rdf:RDF>
  </metadata>
  <sodipodi:namedview
     pagecolor="#ffffff"
     bordercolor="#666666"
     borderopacity="1"
     objecttolerance="10"
     gridtolerance="10"
     guidetolerance="10"
     inkscape:pageopacity="0"
     inkscape:pageshadow="2"
     inkscape:window-width="1920"
     inkscape:window-height="1017"
     id="namedview21"
     showgrid="false"
     showguides="true"
     inkscape:guide-bbox="true"
     inkscape:zoom="0.38522935"
     inkscape:cx="914.45724"
     inkscape:cy="540.35957"
     inkscape:window-x="-8"
     inkscape:window-y="-8"
     inkscape:window-maximized="1"
     inkscape:current-layer="map-czechRepublic">
    <sodipodi:guide
       position="926.72067,500"
       orientation="0,1"
       id="guide830"
       inkscape:locked="false"
       inkscape:label=""
       inkscape:color="rgb(0,0,255)" />
  </sodipodi:namedview>
  <defs
     id="defs4">
    <style
       type="text/css"
       id="style2">
			.land
			{
				fill: #97d3b7;
				fill-opacity: 1;
				stroke:white;
				stroke-opacity: 1;
				stroke-width:0.5;
			}
         .rectangle:hover {
         fill: #bdbdbd;
         cursor: pointer;
         }
		</style>
    <!-- <amcharts:ammap projection="mercator" leftLongitude="12.090946" topLatitude="51.055243" rightLongitude="18.859518" bottomLatitude="48.551226"></amcharts:ammap> -->
    <!-- All areas are listed in the line below. You can use this list in your script. -->
    <!--{id:"CZ-JC"},{id:"CZ-JM"},{id:"CZ-KA"},{id:"CZ-KR"},{id:"CZ-LI"},{id:"CZ-MO"},{id:"CZ-OL"},{id:"CZ-PA"},{id:"CZ-ZL"},{id:"CZ-PL"},{id:"CZ-PR"},{id:"CZ-ST"},{id:"CZ-US"},{id:"CZ-VY"}-->
  </defs>
  <path
     d="m 247.42002,569.69351 15.77679,-2.44981 8.86831,5.34059 9.63593,-3.98503 6.09187,-9.39095 5.03027,0.71862 -0.11432,6.35318 7.77406,0.29397 12.47771,-0.96359 2.54781,-6.99012 7.03912,-0.80028 8.47635,8.98264 12.15106,-2.35181 -1.09425,-4.8833 8.59067,6.15719 1.87819,-3.25007 12.24906,3.25007 4.279,-2.89078 -1.06158,5.81422 7.65974,-0.27764 1.86185,3.62572 5.2916,-7.90472 7.8394,-2.33549 -0.93094,-11.04049 5.6019,-5.5529 11.51412,10.45253 4.67097,-2.53147 2.09051,7.59442 6.07553,0.70227 v 0 l 1.50255,5.86322 -6.20618,2.12317 4.83429,7.12078 -6.64716,24.2368 6.66349,4.71997 -4.31167,5.1446 11.05681,13.09833 7.52909,-4.81796 10.99149,6.1082 -0.55529,4.62198 -3.75638,-0.9146 7.12079,1.25757 2.38448,5.86321 7.54541,-3.38074 9.08064,6.9738 13.21265,-2.53147 -0.73494,11.30179 12.90233,10.94249 2.53148,-3.36441 3.90337,3.0541 14.6662,-2.12316 4.377,12.08573 -6.41851,-0.40831 -2.82545,11.49779 -6.82681,6.28785 14.51922,10.95882 v 0 l -6.67982,9.09697 v 0 l -10.66484,-9.79925 -27.99318,-9.66858 -2.54781,9.26027 -14.91118,2.49882 -0.66961,-11.38346 -23.66518,-4.93229 -1.73121,38.70702 -4.58931,9.9789 3.36441,6.51649 -24.61244,-2.30282 -0.19598,10.09323 -11.98774,10.41986 -3.78905,23.3712 -5.42224,0.11432 -7.87207,-10.43619 -7.38209,5.42225 -8.67233,-2.82545 -4.8343,-6.9248 -3.83803,1.15957 -2.00885,12.11841 -6.36951,-1.04526 0.29397,4.67098 -4.63831,-0.53896 -3.51139,5.03027 -9.17862,-6.5165 -30.23068,-3.10308 -8.34569,-9.81558 7.26777,-7.80673 -27.42155,-20.79073 -9.08063,-1.51889 -10.99149,-24.97175 -9.78291,1.35557 -6.17352,-15.40115 -3.13577,2.46615 -4.14834,-7.30044 -4.37699,0.57162 v 0 l -0.97994,-11.57944 8.86832,-8.21503 -2.31915,-20.3661 6.15719,2.28649 9.4236,-6.14086 -0.32664,-5.38958 4.03403,-1.86186 -4.00136,-6.50017 5.40592,-7.52909 -4.26267,-4.89961 3.98502,0.32664 -0.66961,-7.39844 7.36577,-3.18475 2.67845,-8.98265 -4.67097,-7.79039 4.21367,-7.97005 -5.66722,-11.82443 z"
     class="land"
     title="Jihočeský"
     id="CZ-JC"
     inkscape:connector-curvature="0"
     style="fill:#97d3b7;fill-opacity:1;stroke:#ffffff;stroke-width:0.81660372;stroke-opacity:1" />
  <path
     d="m 820.77386,718.75637 -14.94385,8.52533 -13.8986,-6.58182 -13.08199,7.18611 -6.38584,-6.90847 -18.5859,-7.05546 -22.29329,24.51445 -15.27049,32.92547 -3.31541,-1.38823 -2.43348,-21.19903 -15.0255,2.66213 -11.12215,-7.13713 -6.33685,2.18851 -2.69479,-11.80809 -10.32187,-0.24499 -7.87206,-7.10445 -13.47396,3.13576 -10.30554,15.79312 -5.6019,-3.95236 -1.46989,3.39707 -33.79107,-3.05411 -16.16875,-7.48009 -6.35318,-5.92854 0.99626,-4.01769 -9.43994,-2.56413 -7.98639,-9.53793 -8.93363,0.60428 -3.95238,5.1936 -8.85197,-0.8656 -11.00782,-9.12963 -11.31813,-2.66213 v 0 l 6.69615,-9.09696 v 0 l 3.88704,-2.2375 5.35691,4.62198 1.87819,-5.76523 6.61449,-0.89825 3.41341,4.70363 13.04932,-14.3559 8.39469,0.37565 1.45356,-6.69615 4.78529,2.15583 6.36951,-6.0592 5.2426,6.63082 5.42224,-4.7363 7.87207,3.77271 23.86116,-15.49914 3.28274,-6.5165 -1.48621,-3.4624 -3.60939,1.71487 -1.4209,-6.17352 7.1208,-8.08439 -5.35693,-2.66213 2.2375,-9.06429 5.1936,-1.12692 -4.21368,-7.62708 4.45866,-7.56175 14.37222,-7.79039 -3.20108,-19.01055 3.64205,-7.41475 -5.27526,-5.30793 4.71997,1.45356 4.83429,-6.94114 -6.74514,-6.3695 2.67846,-6.85948 v 0 l 2.20483,1.95985 5.30792,-6.02653 14.60088,2.1395 2.22116,-9.22762 36.7635,7.13712 v 0 l -1.33923,5.74888 -7.34943,-1.79652 -1.3229,8.85198 14.24157,2.61314 -6.69616,4.9976 1.35557,11.92242 4.60564,4.70364 -4.70363,5.40592 9.30928,6.9738 7.67608,-11.87343 -4.54032,-10.41986 8.68866,-2.09051 8.83566,21.62367 6.09186,1.71487 1.53521,-4.11568 -2.89077,9.35827 15.87477,8.59067 2.87445,11.33446 v 0 l -4.34433,6.6635 5.43858,12.31438 -2.98877,3.42974 8.32936,0.22865 -13.47397,21.80332 15.35216,-3.34808 1.12691,13.4413 20.38243,5.97754 -0.94726,6.23885 6.0102,-0.94726 5.6999,7.15345 9.5706,-3.95237 7.57808,4.80164 -1.46989,5.5529 9.22762,2.72746 z"
     class="land"
     title="Jihomoravský"
     id="CZ-JM"
     inkscape:connector-curvature="0"
     style="fill:#97d3b7;fill-opacity:1;stroke:#ffffff;stroke-width:0.81660372;stroke-opacity:1" />
  <path
     d="m 118.39665,359.61403 8.29669,6.09185 v 0 l 22.1953,5.12828 2.5478,8.13337 13.84958,-3.18475 4.05035,5.86322 -2.31915,21.41134 4.98128,3.60939 -3.21742,4.426 4.13201,0.55529 3.82171,8.65599 -3.18475,2.46615 2.51514,4.58931 -7.85574,0.83294 6.53284,1.38823 4.14834,6.5165 v 0 l -2.92343,0.0653 -0.049,10.76283 -7.18611,0.68595 0.098,11.93876 -20.08844,-8.68867 -20.31709,14.01292 0.89825,6.99013 -5.66722,5.11193 -20.61109,-4.44231 -12.526696,3.23374 -3.315412,7.8884 -5.079275,-5.69989 -7.610747,5.20992 -6.418506,-2.71112 v 0 l -11.775426,-8.72133 2.727456,-8.59067 -4.360663,-3.18475 -4.181011,2.41714 -0.146989,-4.08302 -15.254159,-6.89213 -1.551547,-4.65464 -8.329358,-1.2739 2.057841,-4.14836 -11.138475,-7.54541 2.384483,-13.62095 -9.6849208,-15.46648 -8.63966777,-3.15209 7.15344887,-6.0592 -5.7815546,-9.75024 12.3143843,-0.94727 2.417147,11.48145 7.986385,0.4083 1.649539,4.6873 -3.919697,1.04526 7.986385,5.78155 -0.555291,10.14222 6.941132,0.93094 -0.898264,-15.87478 4.311668,-0.0817 5.830551,-18.42259 13.326973,-6.3695 3.348076,-10.95882 23.681509,-4.60565 4.981282,4.52398 4.24634,-8.13337 8.835659,-3.9197 2.22116,4.16468 1.33923,-6.58182 z"
     class="land"
     title="Karlovarský"
     id="CZ-KA"
     inkscape:connector-curvature="0"
     style="fill:#97d3b7;fill-opacity:1;stroke:#ffffff;stroke-width:0.81660372;stroke-opacity:1" />
  <path
     d="m 512.4406,279.43986 21.42769,9.29296 16.16876,-4.24635 6.7778,18.7819 19.05954,-2.28649 4.65464,12.57569 -5.20993,3.8707 5.38958,3.36442 11.72643,-14.91119 12.46137,8.24769 4.62198,-1.56788 2.36816,-8.60699 15.97277,2.13949 15.04183,19.33718 -5.86321,2.36815 -0.55529,9.39095 -5.91221,6.17352 -7.05546,-1.17591 -17.24667,17.09969 12.39604,15.17249 3.72371,-3.64205 8.31304,0.80027 3.25007,11.64477 7.7904,1.81286 18.12861,22.94657 3.5114,17.94895 v 0 l -13.81694,-5.17727 -2.56413,6.61449 -19.05954,9.92991 1.7802,3.69104 -6.50016,3.72371 3.18475,4.80164 -12.44504,-0.48997 -0.14699,-2.93977 -7.49643,3.7727 -17.88362,-11.04047 -1.6332,-5.7979 -7.85573,0.0817 -2.84178,-10.46886 -10.87716,-3.1031 -12.1184,9.24396 -8.93365,-10.10956 -12.75535,11.3508 -6.0102,-3.46241 -9.17863,1.63321 -2.67846,-3.87069 -6.72882,3.3644 -0.0817,4.21368 -11.72642,2.69478 v 0 l -3.9687,-7.83939 -9.9299,-1.3229 7.08812,-11.44879 -2.7438,-20.52941 -3.96868,-3.65839 -6.54917,4.29534 -14.7152,-3.21742 1.38823,-5.40591 -12.60836,-6.07554 -4.09935,-7.38209 7.97005,-7.18612 -6.43484,-21.83598 4.57298,-4.60565 v 0 l 11.54678,6.54916 6.38585,-7.36576 15.23782,7.18612 1.60054,-2.98878 1.84553,6.54916 7.34943,-2.0415 -0.81661,-7.59442 5.99388,-5.74889 8.65599,7.57808 14.22524,-2.10684 -9.04797,-13.53929 4.55665,-7.7414 -5.43858,-5.30792 1.27391,-22.88124 -5.89589,-10.19122 v 0 z"
     class="land"
     title="Královéhradecký"
     id="CZ-KR"
     inkscape:connector-curvature="0"
     style="fill:#97d3b7;fill-opacity:1;stroke:#ffffff;stroke-width:0.81660372;stroke-opacity:1" />
  <path
     d="m 432.67475,221.75497 12.49404,3.07044 -0.0163,5.03028 5.47124,-0.5063 4.0177,-6.59816 3.00509,9.32562 7.56176,-4.279 7.56175,10.45253 -3.52773,5.0956 1.35556,9.79924 13.3433,12.77169 0.78394,13.2943 9.50527,-6.99012 14.2579,6.54916 v 0 l 5.89589,10.19122 -1.27391,22.88124 5.43858,5.30792 -4.55665,7.7414 9.04797,13.53929 -14.22524,2.10684 -8.65599,-7.57808 -5.99388,5.74889 0.81661,7.59442 -7.34943,2.0415 -1.84553,-6.54916 -1.60054,2.98878 -15.23782,-7.18612 -6.38585,7.36576 -11.54678,-6.54916 v 0 l -6.51649,-2.22116 -5.30793,-8.93364 -3.77271,1.40455 -5.01394,-9.17863 -5.55291,2.95612 -6.4185,-6.28785 -20.39877,25.1024 -8.94998,-2.02518 -5.1936,8.81932 -14.84586,1.61687 -1.82919,-8.54167 -4.47498,3.44606 -5.38959,-3.11942 -1.43722,3.96869 -2.53147,-3.0051 v 0 l -15.30316,-21.91765 -4.57298,-17.49165 4.34433,-3.57672 -0.0817,-6.76148 7.70874,-3.64206 -0.34297,-7.00645 4.39333,-3.34808 -2.00885,-7.21878 15.98911,3.16842 2.41714,-9.35827 7.56175,-4.76897 v 0 l 22.06463,9.09697 4.36067,-0.65328 4.94862,-11.95509 25.08607,1.51889 -1.82919,-13.09832 4.78529,-10.30555 -7.88839,-5.45491 z"
     class="land"
     title="Liberecký"
     id="CZ-LI"
     inkscape:connector-curvature="0"
     style="fill:#97d3b7;fill-opacity:1;stroke:#ffffff;stroke-width:0.81660372;stroke-opacity:1" />
  <path
     d="m 833.95384,389.64871 -1.92719,10.10956 5.86322,4.83429 -0.94726,6.81047 -24.44912,10.76284 8.46002,11.17114 6.9738,-1.25757 4.86696,4.36067 6.97379,17.93262 7.48009,2.02517 6.12453,8.73766 7.46376,-1.2249 12.49403,-9.24396 5.99388,3.07043 -0.098,-7.16978 -5.92855,-0.50629 4.328,-6.25518 8.21504,5.06294 3.93603,11.2528 5.63456,2.79278 7.75773,-3.59305 1.20858,5.97754 9.24395,1.69853 6.15719,11.31813 4.91596,-4.426 -2.76012,-3.25008 14.22523,2.41715 8.72134,7.77406 12.34705,-3.95236 -1.02893,9.40728 5.81422,4.27901 -5.0956,7.67607 8.1007,23.99182 12.34705,4.09935 4.85063,6.48383 10.10955,0.55529 7.18612,28.09118 -2.5968,6.64714 -12.51037,7.00647 -28.09117,-4.08302 -13.29431,22.4076 -10.46886,2.93978 v 0 l -5.84689,-2.09051 0.17966,-6.04287 -10.12588,-13.27797 -14.3069,0.21232 -11.04049,-6.9738 -19.10852,3.82171 -3.6094,-7.74141 -8.54167,-0.16331 v 0 l -1.60055,-5.89589 -7.44742,2.97244 1.33923,-6.74515 -17.44266,-21.72165 -7.85572,-0.0817 0.65328,-13.29432 -9.30928,-3.8217 -5.60191,4.19734 -8.94997,-6.22252 -2.20483,4.71997 -5.45492,-4.19734 -7.98638,0.63695 -10.53419,-12.86968 -4.98128,3.28275 -10.77917,-6.38584 -5.16094,1.7802 1.2739,-9.37462 -5.69989,3.26641 -5.66724,-7.62707 7.77408,-18.27559 -6.66349,-5.69989 11.88975,-18.25927 1.04526,-18.56957 10.14222,-10.17488 4.40966,0.70228 5.66722,-8.72133 5.79789,3.02143 1.95985,-10.35453 v 0 l 9.39094,-4.80163 17.68764,2.00884 10.77917,-7.92106 -0.0326,-6.27151 z"
     class="land"
     title="Moravskoslezský"
     id="CZ-MO"
     inkscape:connector-curvature="0"
     style="fill:#97d3b7;fill-opacity:1;stroke:#ffffff;stroke-width:0.81660372;stroke-opacity:1" />
  <path
     d="m 712.75351,356.51093 8.47634,6.0102 19.99047,3.07043 4.93229,5.55291 8.91731,-1.11058 -0.42463,4.91595 7.05544,7.3821 6.48385,3.36441 8.52534,-2.35182 0.0817,14.55188 6.01021,-4.08302 5.96121,6.59816 v 0 l -1.95985,10.35453 -5.79789,-3.02143 -5.66722,8.72133 -4.40966,-0.70228 -10.14222,10.17488 -1.04526,18.56957 -11.88975,18.25927 6.66349,5.69989 -7.77408,18.27559 5.66724,7.62707 5.69989,-3.26641 -1.2739,9.37462 5.16094,-1.7802 10.77917,6.38584 4.98128,-3.28275 10.53419,12.86968 7.98638,-0.63695 5.45492,4.19734 2.20483,-4.71997 8.94997,6.22252 5.60191,-4.19734 9.30928,3.8217 -0.65328,13.29432 7.85572,0.0817 17.44266,21.72165 -1.33923,6.74515 7.44742,-2.97244 1.60055,5.89589 v 0 l -2.20483,6.17351 -8.55801,-2.62946 -9.60326,14.53555 v 0 l -0.76761,4.80163 v 0 l -7.67607,-0.0653 -4.09935,-5.68356 -4.19735,5.35692 -2.30282,-2.74379 v 0 l -3.74004,0.5063 4.05035,7.61074 v 0 l -3.13575,3.64205 -18.52058,-0.50629 1.7312,4.09935 -6.18985,6.45117 -3.77271,-5.38958 -10.90983,-0.31031 -0.71862,-7.69241 -5.30792,6.95747 3.29908,9.03163 -9.12963,9.42361 -14.74786,1.17591 -2.43348,6.4675 -2.79279,-1.53522 v 0 l -2.89078,-11.33446 -15.87477,-8.59067 2.9071,-9.35828 -1.53521,4.11569 -6.09186,-1.71487 -8.83565,-21.62367 -8.67233,2.07417 4.52398,10.41987 -7.67608,11.88975 -9.29294,-6.9738 4.6873,-5.40591 -4.60565,-4.71997 -1.35556,-11.92242 6.67982,-4.98129 -14.24157,-2.61313 1.3229,-8.85197 7.34943,1.79652 1.35556,-5.74889 v 0 l -0.16332,-12.77168 6.33685,-5.76523 0.17965,-8.00271 -8.59067,-2.46615 2.20483,-9.29294 -10.07689,-14.06193 4.67097,-10.55052 -8.1987,-28.25448 5.42225,0.96359 9.34195,-8.46002 -0.99626,-17.57331 8.88465,-20.79073 v 0 l 16.38107,-10.61585 3.42974,6.53283 4.29533,-3.11943 -3.67472,-16.64238 -8.26403,-3.03777 -5.56923,-17.05068 -7.48009,-4.23001 3.29908,-8.14971 z"
     class="land"
     title="Olomoucký"
     id="CZ-OL"
     inkscape:connector-curvature="0"
     style="fill:#97d3b7;fill-opacity:1;stroke:#ffffff;stroke-width:0.81660372;stroke-opacity:1" />
  <path
     d="m 704.96311,413.19957 0.22865,0.0326 v 0 l -8.88465,20.79073 0.99626,17.57331 -9.34195,8.46002 -5.42225,-0.96359 8.1987,28.25448 -4.67097,10.55052 10.07689,14.06193 -2.20483,9.29294 8.59067,2.46615 -0.17965,8.00271 -6.33685,5.76523 0.16332,12.77168 v 0 l -36.77983,-7.13712 -2.20483,9.22763 -14.60087,-2.13951 -5.32426,6.02654 -2.20483,-1.95985 v 0 l -28.98943,-22.22795 -13.35964,-0.9146 -15.13983,-12.59203 -5.87955,11.02415 -6.17353,1.2739 -10.56685,-7.52909 2.33549,-5.99386 -13.09833,-2.66213 1.04525,-5.50391 -6.58182,0.32664 -10.61585,-8.32936 -10.77917,1.71487 -14.15991,-12.26539 v 0 l 5.06294,-23.09356 -23.97548,-17.45899 4.96495,-1.97618 -3.20109,-3.0051 4.86696,-0.62062 -1.50256,-5.61823 3.59307,-0.24498 -3.0541,-3.78904 5.16094,-0.16333 v 0 l 11.72642,-2.69478 0.0817,-4.21368 6.72882,-3.3644 2.67846,3.87069 9.17863,-1.63321 6.0102,3.46241 12.75535,-11.3508 8.93365,10.10956 12.1184,-9.24396 10.87716,3.1031 2.84178,10.46886 7.85573,-0.0817 1.6332,5.7979 17.88362,11.04047 7.49643,-3.7727 0.14699,2.93977 12.44504,0.48997 -3.18475,-4.80164 6.50016,-3.72371 -1.7802,-3.69104 19.05954,-9.92991 2.56413,-6.61449 13.81694,5.17727 v 0 l 18.32458,10.59952 11.53045,-11.10582 4.34433,-10.71384 z"
     class="land"
     title="Pardubický"
     id="CZ-PA"
     inkscape:connector-curvature="0"
     style="fill:#97d3b7;fill-opacity:1;stroke:#ffffff;stroke-width:0.81660372;stroke-opacity:1" />
  <path
     d="m 926.70369,594.28961 0.17966,-6.04287 -10.12588,-13.27797 -14.3069,0.21232 -11.04049,-6.9738 -19.10852,3.82171 -3.6094,-7.74141 -8.54167,-0.16331 v 0 l -2.20483,6.17351 -8.55801,-2.62946 -9.60326,14.53555 v 0 l -0.76761,4.80163 v 0 l -7.67607,-0.0653 -4.09935,-5.68356 -4.19735,5.35692 -2.30282,-2.74379 v 0 l -3.52773,0.4083 3.83804,7.70874 v 0 l -3.13575,3.64205 -18.52058,-0.50629 1.7312,4.09935 -6.18985,6.45117 -3.77271,-5.38958 -10.90983,-0.31031 -0.71862,-7.69241 -5.30792,6.95747 3.29908,9.03163 -9.12963,9.42361 -14.74786,1.17591 -2.43348,6.4675 -2.79279,-1.53522 v 0 l -4.34433,6.66349 5.43858,12.29805 -2.98877,3.42974 8.32936,0.22865 -13.4903,21.80332 15.36849,-3.34808 1.11058,13.4413 20.38243,5.96121 -0.94726,6.23885 6.0102,-0.94726 5.6999,7.16979 9.5706,-3.95237 7.57808,4.80163 -1.46989,5.5529 9.22762,2.72747 6.87581,12.88601 v 0 l 8.16604,-1.3229 11.6611,-14.3559 14.82952,-0.78394 7.00646,-21.11737 20.62741,-3.54407 6.84314,-12.75535 4.50766,-34.62399 5.66722,-9.01531 26.70294,-8.49268 5.61824,-6.07553 0.14699,-10.28921 z"
     class="land"
     title="Zlínský"
     id="CZ-ZL"
     inkscape:connector-curvature="0"
     style="fill:#97d3b7;fill-opacity:1;stroke:#ffffff;stroke-width:0.81660372;stroke-opacity:1" />
  <path
     d="m 178.89063,436.09714 4.8343,2.76012 3.13576,-3.42974 2.43348,5.48758 5.53657,-2.61313 v 0 l 3.07043,6.25518 -4.62198,6.90846 17.05068,-2.15583 3.13577,2.33549 -4.98129,1.02892 9.92991,7.4311 14.48654,-0.5063 4.8833,7.46375 6.9248,-0.19598 -0.58796,5.73256 13.00033,2.90711 0.37564,13.55563 -3.8707,0.0489 -3.70738,24.36746 5.34059,1.61687 -21.65633,13.09833 1.25757,4.65464 6.9248,-0.68595 -5.97754,3.8217 4.44232,3.82172 -1.38823,3.75637 6.77782,1.87818 -2.44981,17.09969 3.96869,-0.0817 0.26131,7.23511 v 0 l -2.48247,6.15719 5.66722,11.82443 -4.21367,7.97005 4.67097,7.79039 -2.67845,8.98265 -7.36577,3.18475 0.66961,7.39844 -3.98502,-0.32664 4.26267,4.89961 -5.40592,7.52909 4.00136,6.50017 -4.03403,1.86186 0.32664,5.38958 -9.4236,6.14086 -6.15719,-2.28649 2.31915,20.3661 -8.86832,8.21503 0.97994,11.57944 v 0 l -6.35319,-0.32664 -1.7802,6.25519 -13.66994,-10.20755 -1.48622,-15.04185 -15.36848,-14.58454 -7.93739,1.04525 -8.39467,-5.20992 -1.01259,-8.00273 -20.41509,-20.75806 -0.70228,-8.93365 -8.41101,-6.76147 -28.1565,-2.89078 -3.527734,-10.87716 -14.764196,-8.98265 -1.959849,-20.21911 -8.019049,-3.26641 -4.344332,-18.53691 -4.768966,0.34298 -0.930929,-15.49914 -11.775426,-3.90337 -5.650897,-8.88465 -0.261313,-4.14834 10.452528,-5.87955 0.342973,-11.22014 11.285464,-15.92377 v 0 l 6.418506,2.71112 7.610746,-5.20992 5.079276,5.69989 3.315412,-7.8884 12.526696,-3.23374 20.61109,4.44231 5.66722,-5.11193 -0.89825,-6.99013 20.31709,-14.01292 20.08843,8.68867 -0.098,-11.93876 7.18611,-0.68595 0.049,-10.76283 z"
     class="land"
     title="Plzeňský"
     id="CZ-PL"
     inkscape:connector-curvature="0"
     style="fill:#97d3b7;fill-opacity:1;stroke:#ffffff;stroke-width:0.81660372;stroke-opacity:1" />
  <path
     d="m 360.47064,419.78139 0.27765,0.52262 v 0 l 4.34433,2.67847 -2.38448,2.38448 6.84314,-1.79652 0.93093,5.52024 15.35215,8.65599 -0.71861,4.65465 -8.78666,3.51139 2.93977,2.53148 v 0 l 1.14325,6.25518 v 0 l -4.06669,5.74889 -8.52534,-5.12828 -7.90473,1.25758 -9.9299,8.75399 -8.93364,0.68595 -0.70228,6.33684 -10.58319,-3.98502 2.74379,-7.41477 -5.17727,-1.11058 -0.62061,-7.7904 -8.2477,-6.87581 6.79414,-4.08302 -10.50152,-5.66722 12.11839,-6.27152 1.01259,3.38074 7.44744,-0.39197 0.70227,-7.3331 24.25314,-5.38959 v 0 z"
     class="land"
     title="Prague"
     id="CZ-PR"
     inkscape:connector-curvature="0"
     style="fill:#97d3b7;fill-opacity:1;stroke:#ffffff;stroke-width:0.81660372;stroke-opacity:1" />
  <path
     d="m 353.38253,342.41635 2.53147,3.0051 1.43722,-3.98502 5.38959,3.11943 4.47498,-3.44608 1.82919,8.54168 14.84586,-1.61688 5.1936,-8.81932 8.94998,2.04152 20.41509,-25.1024 6.40218,6.28785 5.55291,-2.93978 5.01394,9.16229 3.77271,-1.38822 5.30793,8.91731 6.51649,2.22116 v 0 l -4.57298,4.60565 6.43484,21.83598 -7.97005,7.18612 4.09935,7.38209 12.60836,6.05921 -1.38823,5.42224 14.7152,3.20108 6.54917,-4.29533 3.96868,3.65839 2.7438,20.51309 -7.08812,11.44878 9.9299,1.33923 3.9687,7.82307 v 0 l -5.16094,0.16331 3.0541,3.78905 -3.59307,0.24497 1.48623,5.61824 -4.85063,0.62062 3.20109,3.0051 -4.98129,1.97618 23.97549,17.45899 -5.06295,23.09356 v 0 l -11.31812,6.63082 0.16332,9.09696 -5.79789,-1.6822 -5.1446,6.9738 -18.60224,3.78904 -6.40217,14.7152 1.14325,4.50765 7.18611,0.88193 1.11059,9.43994 -10.55053,2.07417 -1.30657,5.53658 -6.61449,-4.8833 -9.1133,3.78905 -11.23646,-2.71112 0.99625,5.87954 -6.8268,0.17965 -1.06159,6.5655 v 0 l -6.07553,-0.70228 -2.09051,-7.61075 -4.67096,2.5478 -11.51412,-10.45252 -5.61824,5.55291 0.94727,11.04047 -7.8394,2.33549 -5.30793,7.92106 -1.86185,-3.62572 -7.64342,0.27765 1.04526,-5.81423 -4.26267,2.87445 -12.24906,-3.25008 -1.87819,3.25008 -8.59067,-6.15719 1.09425,4.88329 -12.13474,2.35182 -8.49267,-8.98264 -7.0228,0.80027 -2.54779,6.99012 -12.47771,0.97993 -7.77407,-0.29398 0.098,-6.35317 -5.01396,-0.71862 -6.09185,9.39095 -9.63593,3.98503 -8.86832,-5.35692 -15.77679,2.4498 v 0 l -0.26131,-7.2351 -3.96869,0.098 2.44981,-17.09969 -6.77781,-1.89451 1.38822,-3.75638 -4.44232,-3.8217 5.97754,-3.82172 -6.9248,0.68595 -1.25757,-4.63831 21.65633,-13.09832 -5.34059,-1.61687 3.70739,-24.36747 3.8707,-0.0489 -0.37564,-13.55562 -13.01667,-2.90711 0.58796,-5.74889 -6.9248,0.21232 -4.86696,-7.46377 -14.48655,0.5063 -9.9299,-7.4311 4.99761,-1.02891 -3.15209,-2.33549 -17.03435,2.15583 4.62198,-6.90846 -3.07043,-6.27152 v 0 l 2.30282,-4.29534 5.48757,0.57163 1.15958,-5.97755 2.93978,1.12692 -0.35931,-8.9663 8.63967,-5.84689 9.0643,-0.13066 9.22762,-9.5216 11.74277,2.20483 9.30928,-9.04796 7.72507,4.65463 1.84552,-6.18986 11.56311,-4.94862 -0.53895,-3.57672 5.81421,0.83294 -1.40455,-6.95746 3.77271,-2.95611 35.4406,4.06668 3.93603,-5.91221 13.4413,0.68595 -0.9636,-17.96528 9.14596,1.61688 0.24499,-7.18612 7.31677,0.88194 -2.43348,-10.99149 z m 25.88633,106.02784 v 0 l -2.92344,-2.51514 8.77033,-3.51141 0.71861,-4.65463 -15.33582,-8.65601 -0.94726,-5.52023 -6.84314,1.79652 2.38448,-2.38448 -4.36066,-2.66213 v 0 l -0.4573,-0.89827 v 0 l -24.25313,5.40592 -0.70228,7.3331 -7.44743,0.39198 -0.99626,-3.38074 -12.11839,6.27152 10.50152,5.66722 -6.79414,4.08302 8.2477,6.87581 0.62061,7.7904 5.17727,1.09425 -2.74379,7.41475 10.58319,3.98503 0.68595,-6.33684 8.93365,-0.68595 9.92989,-8.75399 7.90473,-1.25757 8.54167,5.12827 4.06669,-5.74889 z"
     class="land"
     title="Středočeský"
     id="CZ-ST"
     inkscape:connector-curvature="0"
     style="fill:#97d3b7;fill-opacity:1;stroke:#ffffff;stroke-width:0.81660372;stroke-opacity:1" />
  <path
     d="m 331.53021,218.06393 4.05035,-1.24124 8.18237,6.14086 5.32426,-4.05036 5.63456,2.93978 1.15958,-5.45491 -0.29397,5.76522 9.73391,2.90711 5.35692,6.9248 -5.1446,14.38856 12.44504,-3.03777 -4.49132,17.14868 v 0 l -7.56175,4.76897 -2.41714,9.35827 -15.98911,-3.16842 2.00885,7.21878 -4.39333,3.34808 0.34297,7.00645 -7.70874,3.64206 0.0817,6.76148 -4.34433,3.57672 4.57298,17.49165 15.30316,21.91765 v 0 l -4.13202,2.04151 2.43348,10.99149 -7.30044,-0.88193 -0.26131,7.1861 -9.12963,-1.61687 0.96359,17.98162 -13.4413,-0.70228 -3.93603,5.91221 -35.4406,-4.06669 -3.75638,2.9561 1.40456,6.9738 -5.83055,-0.83293 0.53896,3.57672 -11.56311,4.94862 -1.84553,6.18986 -7.72507,-4.65465 -9.30928,9.06431 -11.72643,-2.22116 -9.22763,9.53792 -9.08062,0.13066 -8.63968,5.84689 0.35931,8.94998 -2.93977,-1.12692 -1.15958,5.97754 -5.50391,-0.57162 -2.30282,4.29534 v 0 l -5.53657,2.61313 -2.43348,-5.48758 -3.13576,3.42974 -4.8343,-2.76012 v 0 l -4.14834,-6.5165 -6.53284,-1.38823 7.85574,-0.83294 -2.51514,-4.58931 3.18475,-2.46615 -3.82171,-8.65599 -4.13201,-0.55529 3.21742,-4.426 -4.98128,-3.60939 2.31915,-21.41134 -4.05035,-5.86322 -13.84958,3.18475 -2.5478,-8.13337 -22.1953,-5.12828 v 0 l 10.71384,-10.14221 1.64954,-14.19257 7.92106,2.35181 6.81047,-4.36066 9.37461,3.49507 7.67606,-20.52942 11.15481,2.87444 0.37563,-6.38583 7.59442,-4.65465 -0.68594,-5.25892 13.99659,10.82816 8.558,-8.34569 0.26131,-15.36848 20.4151,-6.07554 6.30418,3.34807 2.89077,-3.83803 19.0922,1.43722 6.17353,-3.95236 0.29397,-11.33446 5.48758,0.66961 7.72507,-6.8268 5.94488,3.65838 6.95746,-1.86185 21.70533,-11.18748 1.38823,-6.35317 4.91595,-1.79654 5.47125,2.58048 12.31438,-3.31542 1.50255,-8.86831 -12.73902,-4.34434 2.12318,-7.03912 -9.70126,-0.73494 2.07417,-12.00408 6.07554,-3.78904 z"
     class="land"
     title="Ústecký"
     id="CZ-US"
     inkscape:connector-curvature="0"
     style="fill:#97d3b7;fill-opacity:1;stroke:#ffffff;stroke-width:0.81660372;stroke-opacity:1" />
  <path
     d="m 503.09866,490.59727 14.15991,12.26539 10.77917,-1.71487 10.61585,8.32936 6.58182,-0.32664 -1.04525,5.50391 13.09833,2.66213 -2.33549,5.99386 10.56685,7.52909 6.17353,-1.2739 5.87955,-11.02415 15.13983,12.59203 13.35964,0.9146 28.98943,22.22795 v 0 l -2.66213,6.85947 6.74515,6.36951 -4.8343,6.94114 -4.71997,-1.45356 5.27526,5.30793 -3.65838,7.41475 3.21742,19.01054 -14.37222,7.7904 -4.45867,7.56175 4.19735,7.62708 -5.1936,1.12692 -2.2375,9.06429 5.35693,2.66213 -7.1208,8.08439 1.4209,6.17352 3.60939,-1.71487 1.48621,3.47873 -3.28274,6.5165 -23.86116,15.49913 -7.87207,-3.7727 -5.42224,4.75264 -5.2426,-6.63083 -6.35318,6.0592 -4.78529,-2.15584 -1.45355,6.69615 -8.39469,-0.39196 -13.06566,14.37222 -3.41341,-4.71997 -6.61449,0.89827 -1.87819,5.76522 -5.35691,-4.62198 -3.88704,2.25383 v 0 l -14.51922,-10.95882 6.82681,-6.28785 2.82545,-11.49779 6.41851,0.40831 -4.377,-12.08573 -14.6662,2.12316 -3.90337,-3.0541 -2.53148,3.36441 -12.90233,-10.94249 0.73494,-11.30179 -13.21265,2.53147 -9.08064,-6.9738 -7.54541,3.38074 -2.38448,-5.86321 -7.12079,-1.25757 3.75638,0.9146 0.55529,-4.62198 -10.99149,-6.1082 -7.52909,4.81796 -11.05681,-13.09833 4.31167,-5.1446 -6.66349,-4.71997 6.64716,-24.2368 -4.83429,-7.12078 6.20618,-2.12317 -1.50255,-5.86322 v 0 l 1.06158,-6.54916 6.82681,-0.19598 -0.99626,-5.87955 11.23647,2.71113 9.11331,-3.80538 6.61448,4.89963 1.3229,-5.55291 10.55053,-2.07418 -1.11059,-9.4236 -7.18611,-0.89827 -1.12692,-4.50765 6.40218,-14.69887 18.60223,-3.78904 5.1446,-6.9738 5.7979,1.68221 -0.16333,-9.1133 z"
     class="land"
     title="Vysočina"
     id="CZ-VY"
     inkscape:connector-curvature="0"
     style="fill:#97d3b7;fill-opacity:1;stroke:#ffffff;stroke-width:0.81660372;stroke-opacity:1" />
  <g
     id="stadiums"
     data-country="czech_republic"
     data-circle-radius="6"
     data-circle-colors="#a149be,#bea149"
     transform="translate(0,387.20585)" />
</svg>
