<?xml version="1.0" encoding="UTF-8" standalone="no"?>
<?xml-stylesheet type="text/css" href="/styles/home.css"?><!-- https://www.amcharts.com/svg-maps -->

<svg
   xmlns:dc="http://purl.org/dc/elements/1.1/"
   xmlns:cc="http://creativecommons.org/ns#"
   xmlns:rdf="http://www.w3.org/1999/02/22-rdf-syntax-ns#"
   xmlns:svg="http://www.w3.org/2000/svg"
   xmlns="http://www.w3.org/2000/svg"
   xmlns:sodipodi="http://sodipodi.sourceforge.net/DTD/sodipodi-0.dtd"
   xmlns:inkscape="http://www.inkscape.org/namespaces/inkscape"
   version="1.1"
   id="map-denmark"
   viewBox="0 0 1000 1000"
   width="1000"
   height="1000"
   class=""
   sodipodi:docname="denmark.svg"
   inkscape:version="0.92.4 (5da689c313, 2019-01-14)">
  <metadata
     id="metadata14">
    <rdf:RDF>
      <cc:Work
         rdf:about="">
        <dc:format>image/svg+xml</dc:format>
        <dc:type
           rdf:resource="http://purl.org/dc/dcmitype/StillImage" />
        <dc:title></dc:title>
      </cc:Work>
    </rdf:RDF>
  </metadata>
  <sodipodi:namedview
     pagecolor="#ffffff"
     bordercolor="#666666"
     borderopacity="1"
     objecttolerance="10"
     gridtolerance="10"
     guidetolerance="10"
     inkscape:pageopacity="0"
     inkscape:pageshadow="2"
     inkscape:window-width="1920"
     inkscape:window-height="1017"
     id="namedview12"
     showgrid="false"
     showguides="true"
     inkscape:guide-bbox="true"
     inkscape:zoom="0.68079375"
     inkscape:cx="553.89073"
     inkscape:cy="571.70274"
     inkscape:window-x="-8"
     inkscape:window-y="-8"
     inkscape:window-maximized="1"
     inkscape:current-layer="map-denmark">
    <sodipodi:guide
       position="1316.1108,500"
       orientation="0,1"
       id="guide16"
       inkscape:locked="false"
       inkscape:label=""
       inkscape:color="rgb(0,0,255)" />
  </sodipodi:namedview>
  <defs
     id="defs4">
    <style
       type="text/css"
       id="style2">
			.land
			{
				fill: #07bada;
				fill-opacity: 1;
				stroke:white;
				stroke-opacity: 1;
				stroke-width:0.5;
			}
         .rectangle:hover {
         fill: #bdbdbd;
         cursor: pointer;
         }
		</style>
    <!-- <amcharts:ammap projection="mercator" leftLongitude="8.074878" topLatitude="57.751786" rightLongitude="15.157522" bottomLatitude="54.559212"></amcharts:ammap> -->
    <!-- All areas are listed in the line below. You can use this list in your script. -->
    <!--{id:"DK-84"},{id:"DK-82"},{id:"DK-81"},{id:"DK-85"},{id:"DK-83"}-->
  </defs>
  <path
     d="m 945.25676,720.94001 -0.13241,1.38525 3.93167,3.16774 2.58715,5.96879 7.14015,3.77888 1.25283,2.2714 5.31691,2.13899 1.93527,1.92509 1.13062,0.48891 3.62609,-1.33432 2.79087,5.19469 4.4715,4.2576 2.9844,1.21209 6.55956,5.22525 4.21686,1.7723 2.69921,-0.18334 1.1306,2.44455 1.20197,0.19353 0.18333,2.54642 -1.71124,2.49548 1.94553,7.36423 -2.71964,3.58536 0.0815,2.86216 -1.47692,0.17316 -0.56022,2.36308 -1.99638,1.80286 1.60933,3.05569 -0.1426,3.03533 -5.31692,6.34566 -16.76558,-3.77888 -4.03352,-2.73994 -1.50748,0.0917 -5.44933,-4.17613 -5.87712,-2.58715 -1.62971,0.32594 -5.28635,-3.16774 -2.52604,0.35649 -4.50206,-2.71957 -2.85199,-3.86036 -4.67521,-2.89272 0.97782,-1.07969 -0.62133,-1.08986 0.76392,-1.76212 -0.0917,-3.65665 1.15098,-2.11862 -0.91671,-13.02745 1.57877,-9.71712 5.76508,-11.20422 0.68245,-2.29177 -0.80467,-2.414 3.03533,-2.92329 z m -287.53092,-82.5242 -0.78429,-2.70939 0.75373,-0.37686 0.49911,-5.83638 3.64646,-2.18991 1.50748,2.98439 0.53984,9.40136 0.92689,0.65188 -0.69262,1.13061 1.35469,1.38525 -4.26779,0.96764 -1.40562,-3.71777 -1.5584,0.43799 z m -14.97291,-15.5535 0.4278,0.69263 -2.1288,1.67045 1.38524,2.4853 -0.80467,-2.3427 1.4973,-1.13062 0.50928,1.15099 0.79448,0.27502 0.58058,0.92689 -1.40561,1.83341 -1.1408,-0.58058 0.22409,1.6297 3.50386,6.5392 -0.36669,0.93708 2.99459,0.31576 0.73337,0.96764 0.0713,3.80942 -1.62971,2.28159 0.713,2.64828 1.00837,0.36668 -2.52604,2.51585 -4.52243,1.34451 -5.66322,5.4697 -3.95204,-1.33432 -0.96763,-3.55479 -2.26122,0.4991 -1.79267,-1.01857 -2.25104,-4.37983 -0.45835,-3.58536 6.13176,-7.97537 2.23066,-5.13357 5.13357,-5.69378 0.50928,-3.31033 2.35289,-0.0407 0.48891,0.83522 z m -91.28386,-55.79702 2.6279,-0.44817 2.82143,1.9862 0.32594,1.76211 -3.54461,4.61411 -0.48891,4.67521 0.55002,1.2121 4.01315,1.80287 1.2019,8.96337 1.9964,1.40562 -1.59915,0.86578 -0.0815,1.83342 0.41762,0.73336 2.09824,-0.30556 -0.81486,3.20848 2.03714,4.4715 -1.66027,2.50567 1.1408,0.98801 -0.15279,5.69378 -2.14917,-0.81485 -5.63267,2.59735 -0.0917,-2.94366 -1.44636,0.70281 -0.77411,-2.21028 -1.34451,2.6279 v 0 l -6.93643,-3.78907 -3.78906,3.48349 -4.1252,-1.61952 v 0 l -2.66864,0.33614 -0.0917,-3.93167 -0.79449,0.31575 -0.65188,-1.29357 0.97782,0.15278 0.75374,-1.69082 0.87597,-8.51521 2.01676,-1.29358 -0.12223,-3.12699 4.98079,-1.61953 1.17134,0.96764 2.77051,-1.24265 2.68901,-7.49664 -2.11862,-4.8993 -1.61951,-0.85559 -0.34632,-4.34928 -4.10482,-6.64105 0.51947,-4.90948 8.27075,2.05749 z m 45.77434,-53.34229 5.53081,1.43618 5.08264,4.65484 6.99755,2.04732 8.92264,0.46854 5.85675,2.90291 9.36062,9.05505 2.53623,1.17135 -1.33432,0.41761 0.15278,1.36488 -2.65846,4.83819 -4.62428,4.4002 -6.57994,18.43604 7.76147,18.5379 0.68245,9.0856 2.62789,5.8975 -0.49909,3.42238 1.24264,3.73813 -2.93346,6.85496 1.0593,1.23245 -0.48891,2.852 0.87597,0.76392 1.66027,-3.22886 2.93346,1.97602 -0.20371,0.84541 -1.42599,1.17136 -2.16955,-0.72319 0.84541,1.33432 -1.45654,0.27502 1.23245,3.78906 -0.94726,2.94365 -4.43076,3.94185 -1.31395,3.9113 -1.01857,2.06769 -2.07787,1.84359 0.051,-1.51765 -3.53443,0.50928 -1.78248,4.0437 1.38524,1.24266 -1.81304,3.52423 -6.01972,-0.90652 -0.53984,-1.98621 -0.31576,-0.75374 -5.64285,-0.24445 -0.98801,0.46853 -0.65188,0.91672 1.31395,1.10005 -5.13357,3.05569 v 0 l -1.13062,-1.0593 v 0 l -2.54641,-2.38345 -8.59669,-3.55479 -4.66503,2.0575 -1.13061,-1.78249 -2.79087,0.84541 -0.80467,3.2696 -7.01791,-2.0575 1.00837,-5.32711 -1.36488,0.0713 -0.94726,-9.24859 4.94004,-4.28815 3.74832,0.25464 5.45952,-5.28636 -5.12339,-4.59373 1.80286,-3.34089 -2.60753,-2.61771 -5.87712,0.92689 -10.94959,-8.49484 v 0 l -2.23066,-1.42599 0.68245,-3.16774 -1.41581,-2.33252 -0.73336,-4.94004 -0.7843,0.16297 -0.98801,-3.60572 -1.20191,-0.46855 0.65188,-3.49368 2.49549,-0.51946 0.3565,-4.39002 -2.87235,-5.64286 0.23426,-3.63627 -4.2576,-11.35701 -5.8262,-1.79268 -6.14195,4.25761 -5.99935,2.04731 -2.75013,-0.81484 -0.74355,0.8454 -1.74175,-1.10005 -1.39543,-5.2558 1.69082,-2.43437 21.59359,-13.68952 7.54757,-7.1096 16.50076,-12.30427 15.16645,-5.32709 3.18811,-0.0611 z"
     class="land"
     title="Hovedstaden"
     id="DK-84"
     inkscape:connector-curvature="0"
     style="fill:#07bada;fill-opacity:1;stroke:#ffffff;stroke-width:0.50928289;stroke-opacity:1" />
  <path
     d="m 317.97306,603.07158 -0.82503,5.57156 -2.09825,1.47692 -3.72795,-1.65008 -4.77707,0.31576 -1.71119,-1.23247 1.95564,-2.46493 3.58535,0.63152 3.67702,-1.01857 -0.44816,-1.65007 2.00657,-6.01973 z m -33.72471,-15.00347 1.80287,1.14079 -2.69921,1.9149 -2.66863,-1.19171 -0.89635,-2.09825 2.35289,-1.06949 z m 51.47831,-29.7523 -2.22047,1.23246 -1.30376,-0.32595 -3.72796,-3.75849 8.46428,1.92508 z M 8.6142919,544.80963 l 3.3001521,11.53016 2.047317,1.58896 -0.499096,5.44933 1.008378,0.87597 0.101857,3.27978 -0.753738,2.47511 1.863975,4.79745 -0.621326,2.16954 2.454744,2.50567 -3.147368,4.85856 0.224085,4.80763 1.965832,1.99639 v 0 l -2.648271,0.48891 v 0 L 9.4800719,556.38053 6.1697337,545.56336 Z m 345.1613481,14.14788 3.25942,4.21686 6.55956,3.12699 -1.16116,1.46674 -1.92509,-0.88615 -2.86217,1.66026 1.13061,3.95203 1.76211,0.5704 -0.66206,1.10005 0.97782,1.78249 1.65007,0.95745 4.70578,-2.35289 0.25464,3.16774 -2.86216,2.75013 -2.50568,5.6123 0.20372,10.14491 -3.07608,8.12816 -5.74471,-1.35469 -4.03352,0.23426 -1.99638,-2.23066 -1.31395,-4.17611 0.23427,-14.24974 2.64826,-3.03533 3.96223,-0.33612 0.95744,-0.91672 2.38345,-9.5032 -0.8454,-3.02515 -2.22048,-2.90291 -3.07606,-1.95565 -2.95384,0.40743 -0.96764,-1.58896 -0.94727,-9.12635 5.58174,-5.90769 1.3445,10.60327 z M 82.236221,397.88152 l -0.743553,1.13061 -1.54822,-0.12223 1.599149,1.93527 -2.526044,4.35947 0.427797,7.24199 -2.332515,2.61772 1.415807,-2.61772 -2.505672,-7.40496 3.839993,-6.91607 z m -10.246771,-27.28737 1.120422,2.18991 -1.395435,1.3445 -1.588963,5.13357 2.047317,3.2696 1.578777,0.66207 0.397241,-2.80105 -1.884346,-0.77411 0.916709,-2.414 2.86217,-0.23428 2.658456,1.25284 1.497291,-0.72318 -1.731562,3.8298 1.028752,1.63989 -0.743552,2.90292 1.130608,2.11861 -3.962222,-3.88073 -2.128802,-0.23427 -1.171351,9.13653 -5.316913,0.17316 -2.739941,1.80286 0.112042,1.701 2.668643,1.04913 0.468539,1.15098 -3.503866,-0.74355 -1.925088,-2.16955 -4.491876,-11.43849 -7.99574,-7.73092 -3.137183,-1.5584 v 0 l 0.16297,-1.39544 v 0 l 2.882541,1.34451 2.597343,-2.50567 3.595537,-1.19173 1.018566,0.56022 0.926895,2.78068 3.300153,1.26303 4.552988,-4.17613 1.721376,0.10186 0.784296,-1.35469 2.414001,0.7843 0.743553,-1.52785 z m 432.28947,-12.64041 1.85379,0.46854 -6.50864,4.64466 -5.88731,7.29293 -5.09283,0.0408 -4.33908,-7.00773 3.43257,-2.4853 4.51224,0.84541 z m -364.10668,-16.69429 6.47807,4.4002 -0.76393,1.88435 0.50929,2.32233 2.88254,7.43553 6.17251,8.26057 -5.72435,4.56317 -1.96583,3.20849 -0.38705,2.7705 -2.90291,-0.24446 1.13061,6.26418 -3.0557,0.18334 -4.07427,3.98259 -1.701,8.71893 1.75193,5.82619 0.23428,1.85379 -0.93708,0.36668 1.08986,1.29359 2.60753,-0.0204 2.22047,-3.15756 0.44817,-8.6578 2.80105,-1.27321 1.25284,1.76212 1.61952,0.32594 2.2714,-2.57697 0.0204,-2.29177 -3.54461,0.71299 -2.28159,-1.08986 3.85018,-3.45294 1.95564,-5.46969 0.63151,2.50566 -0.80467,2.5566 2.89273,3.52424 2.10844,0.16297 3.50386,-2.29177 7.51702,0.41761 -0.84541,0.36668 0.62132,0.99819 1.34451,-0.62132 1.76211,0.8556 1.51767,3.26959 -0.69263,-0.0509 -0.051,1.79267 -4.6854,2.38345 -1.60934,4.87892 1.38525,0.62133 0.74355,4.05389 1.97602,2.9131 2.9844,2.6992 1.81304,0.051 -1.19172,3.31033 5.14376,-5.16412 4.67522,1.40561 -0.5704,-4.16593 1.25284,-3.85017 -2.38345,0.11204 -2.70939,2.16954 -4.15574,1.47692 -1.75194,-0.30556 -1.36487,-2.81125 1.47692,-8.06704 -0.77411,-2.53623 2.67882,-2.71957 0.13242,-4.60392 1.83342,-4.58354 -0.75374,-5.10301 v 0 l 4.85855,0.20371 1.58897,2.24085 4.31871,-0.70282 -0.16297,3.04552 5.0521,3.59553 3.49368,0.6417 3.05569,-9.64582 2.15936,-0.16297 0.4278,-1.82323 4.20667,0.44816 -0.35649,2.30197 1.44636,0.14259 1.20191,1.96583 -1.83342,1.73157 0.39724,1.47692 5.19469,0.62132 -0.57041,3.42238 4.66504,1.58897 4.04371,-0.7843 6.29473,0.89634 0.77411,3.60572 -4.45113,1.51767 -0.13242,7.27255 4.7567,-2.59734 5.03173,1.27321 5.31691,7.58832 6.35584,-1.58897 5.21507,2.85199 6.50863,-1.43619 1.33432,-4.63446 8.52539,-1.74175 1.48711,-3.99278 2.71957,1.45654 8.91245,-2.72975 6.40678,-4.45113 4.01315,-1.18154 1.03893,-5.77527 4.96042,-1.47692 -0.23427,-3.17792 5.63267,-3.58535 -0.3565,-1.51766 v 0 l 1.51766,0.64169 6.56975,-4.16594 4.59373,1.23247 3.57517,-1.96583 4.07426,-0.10186 2.03714,2.2103 1.42599,7.96517 -1.86398,0.93708 1.30377,4.87894 -2.21029,4.05389 -6.38641,3.55479 -2.21029,4.56318 -2.51585,0.80466 -2.5566,2.59735 -1.52785,4.94004 -2.05751,0.92689 -0.85559,3.06588 1.79267,10.06344 -2.04731,6.89569 -11.89685,4.56317 -1.33432,-0.48892 -0.3565,-1.49728 -4.07426,-0.45835 -7.40498,3.00477 0.051,0.30556 7.61887,-2.39363 5.9688,2.09825 7.62905,-3.33071 4.71597,-1.39544 4.26779,1.78249 6.27436,-0.4278 -7.75128,-1.26302 -0.89635,-1.42599 -0.36667,-10.2977 1.62969,-7.05866 1.51767,-0.79448 0.051,-2.02695 2.82143,-4.41038 4.16593,-3.79926 -0.0305,-4.05389 1.16116,0.17316 1.10005,1.43617 3.4835,1.36488 1.4871,6.98736 7.37442,8.96338 3.03532,2.05751 11.29589,3.09644 7.3948,-0.37687 15.67572,-3.89092 9.93101,-0.7843 3.6261,-1.31395 9.78842,1.87417 3.48349,3.32051 2.23066,7.78185 6.74291,4.36965 3.51404,3.46312 1.15098,2.87236 -0.43798,2.08805 -2.81124,1.11024 -1.40562,3.09644 0.33612,3.2696 -0.99819,0.74354 -0.81485,6.52902 -0.0305,8.92263 -7.19107,11.09218 -4.46132,3.6974 -2.90291,7.15033 -2.7705,3.30015 -3.38164,1.04912 -2.30196,2.14918 -1.67044,3.02513 -0.72319,3.27979 0.80467,6.68178 -3.61591,9.63564 -3.53442,0.16297 -1.27321,-1.18154 -0.32594,-2.30196 -4.60391,-3.64646 -1.05932,-2.42419 -0.0305,-2.04732 2.50567,1.02876 1.99639,-1.66026 1.11024,-3.62609 -1.86398,-4.56318 -1.2121,-0.91671 -5.73452,-0.59077 -4.04371,2.13899 -1.26302,4.26779 -4.79744,5.36784 -1.36488,4.42058 2.66864,4.15574 0.68245,8.668 -1.67046,2.86217 -4.59373,1.86397 -4.43076,-11.37737 1.37507,-1.61953 3.63628,0.2852 1.67044,-5.79564 -1.1306,-1.17135 -2.11862,1.19173 -7.37441,-3.49368 -2.20011,1.0593 -2.55659,3.83999 -3.5548,0.0204 -2.28159,-1.61952 -0.87596,-4.39002 -3.58536,-2.00658 0.3565,-1.8436 1.53804,0.58058 6.57993,-2.14917 0.40743,-2.52605 2.49548,-0.81485 1.82324,0.31576 -2.09825,2.54641 1.31394,1.97602 4.44096,0.57039 2.08806,-1.99638 -1.76212,-3.43257 0.40742,-1.16116 -1.83341,-1.17136 -1.31395,1.50748 -0.24446,-1.02875 3.96222,-4.14556 1.38525,-3.9826 3.14737,-0.30556 -0.28521,-3.37145 -3.44275,-1.99639 -0.89633,0.63151 -2.89273,-0.70281 -0.12222,-3.10663 -1.01857,1.01857 -2.50568,-1.11024 -1.66025,1.49729 -3.66684,-0.75374 -1.07968,0.83523 0.93708,2.81124 -1.89454,2.14917 -2.01675,-0.52965 -2.23066,2.29178 1.02875,3.77887 -1.32414,1.15098 -0.65188,-0.67225 -0.24445,2.86217 -4.42058,2.29177 -3.53443,6.49845 -5.3984,3.34089 -2.15935,4.65485 0.75374,0.73337 -2.414,1.60933 -0.0713,1.76212 1.87416,-1.41581 -1.22228,4.0437 3.18812,-1.82322 0.65187,-2.37326 0.61115,1.06949 0.0407,1.13061 -5.8873,3.51405 5.49006,10.67457 3.22886,13.26172 -0.51947,4.08445 -1.58896,0.81486 -0.19353,-1.29358 -1.40563,0.43798 -2.41399,3.06589 -1.90472,0.78429 3.39182,-0.0815 1.79268,-2.90291 3.4122,-0.53984 0.90652,0.75374 -3.95204,6.91607 -0.10185,3.35107 1.89453,5.44933 -1.20191,11.80518 -2.7705,0.82504 -4.27797,5.24561 -2.15936,0.23427 0.28519,3.84 1.47692,2.85198 -1.74174,1.73156 0.85559,2.71957 -0.80466,1.03893 -4.71596,-2.25103 -2.40382,-2.79087 0.30557,-3.96222 -1.60933,-1.93527 -1.97602,2.52604 0.051,2.75013 -2.11862,-0.43798 -3.21867,3.17792 -6.04009,1.5584 -0.20371,-2.23066 3.03533,-4.50205 7.78183,1.37506 0.51948,-1.76212 -1.01857,-2.8418 -5.44933,-0.38705 -4.92986,2.08806 -8.75966,-1.06949 -0.8556,0.20371 -0.90652,3.03533 0.65188,2.04731 -4.77707,-0.64169 -2.33252,0.90652 -3.36126,-3.01496 0.18334,-1.2732 1.21209,-0.12224 -0.44817,-0.5602 -6.33548,-0.56021 0.20372,1.01857 2.47511,0.68243 2.49549,-0.58059 0.68243,2.70939 -2.09824,0.58059 -0.84541,1.40561 0.44817,2.31215 2.00657,1.28339 15.16645,4.29835 2.79087,-2.40381 -0.48891,2.02694 0.71299,0.45835 -1.00837,1.88435 2.3325,-1.54821 3.19831,0.49909 1.79267,3.36127 -6.50863,6.89568 -0.33614,3.74833 1.10006,1.74175 7.30311,1.45655 0.73338,1.83341 -3.99278,-0.0713 -2.48531,2.79087 -4.94004,1.65007 -0.20371,2.26121 2.73994,0.80467 1.4871,4.72615 -2.414,-1.19172 -5.22524,1.54821 -7.64943,0.57041 -5.54099,1.5584 -5.11321,3.31034 -3.7585,1.12042 -1.51766,-2.26122 -3.50387,-0.89633 -5.22524,0.27501 -4.35947,-5.52063 -2.24084,-0.10185 -3.88074,-2.26122 v 0 l 1.76212,-5.92805 -0.4176,-3.39182 -4.16594,-2.52605 -0.58058,1.426 -3.27978,-1.10006 -3.15756,1.56859 -2.43437,-3.01495 1.67045,-2.22048 -1.54822,-2.09824 -0.87597,1.65008 -5.66323,0.36668 0.23427,-2.58716 -2.91309,-0.51946 -2.32233,-10.33844 -2.93347,-0.0713 0.0611,-1.3445 -5.08264,-0.4991 1.17135,-3.84 -2.17974,-0.94726 2.82144,-2.02694 -10.38937,-14.3516 -0.0407,-1.61951 v 0 l -5.27616,-3.4122 -0.50929,0.69263 v 0 l 0.0204,0.0713 v 0 l -0.68245,0.40743 v 0 l -0.51946,0.55003 v 0 l -3.75851,-1.70101 -0.89635,0.53984 v 0 l -3.21865,-0.34631 -3.32053,-3.81963 -5.3271,-0.30557 -3.41219,6.01973 0.0815,3.51405 -6.44753,8.33187 -4.56316,3.57516 -2.85199,-1.98619 -3.72795,8.20963 -1.70101,-1.55841 -1.76211,3.57517 -2.28159,-1.03893 -2.9131,2.48529 -7.25219,-3.72795 1.08987,-9.85971 -11.84592,-2.71957 -2.31215,0.0815 -1.34451,3.79925 -2.25102,-0.38705 -2.32233,8.59669 -4.0437,2.42418 4.55298,4.60393 -9.55414,3.33071 -5.143756,-1.94547 -2.026946,-5.98917 -4.48169,-2.63808 -11.723691,3.36127 -3.25941,-3.1983 -5.296542,1.62971 1.976018,4.71596 -1.334321,2.32233 -3.391824,0.70281 0.173156,5.6836 -2.709385,2.69919 -6.386407,0.0815 -1.222279,-2.9131 -3.605722,-1.8436 1.263021,-0.89634 -6.213251,-0.62132 -4.115005,-5.19469 -4.084449,5.33728 -5.306727,-0.12222 -1.833419,1.07968 -6.671605,-5.19469 0.122228,-2.14918 -6.294736,-1.02874 v 0 l 0.77411,-5.05209 1.660262,-0.37687 1.670447,-2.5566 -0.173155,-2.29177 -1.833419,-1.67045 2.505672,-0.59077 -1.028752,-1.73156 0.84541,-2.47512 2.923283,0.53985 0.06111,1.14079 -1.334321,-0.13242 2.86217,3.54461 0.672253,-1.37506 1.497292,-0.39724 2.923283,1.39543 -2.668641,3.08626 -0.356498,4.88911 1.670447,1.22229 0.794482,-1.84361 7.272559,-4.98079 7.944812,-9.09579 -1.935275,-3.18811 0.926896,-1.16116 -0.03056,-5.74471 -8.912449,-12.74227 -1.487106,-10.60326 0.244455,-4.95023 -10.348628,-8.74948 -9.880086,-3.03533 -4.766888,-3.42238 2.760313,4.86874 -2.1084311,3.66685 -1.0389368,11.81536 1.4972918,7.16051 1.3546921,0.44817 -2.1593593,0.94726 -1.1306079,-0.4889 -0.9167092,1.56859 -2.2510302,-11.23478 0.8046668,-15.49239 3.4529379,-26.46233 0.2342701,-10.11437 -2.200102,-30.93384 2.2612159,0.0713 0.4583548,0.57039 -0.162971,0.29538 0.723182,0.91671 -1.6908191,3.96223 0.3972406,5.1845 4.8789296,-2.23066 0.488911,3.4835 3.218668,-0.93709 2.281587,1.70101 4.288161,-0.33613 -0.376869,1.82324 1.252836,3.17792 -1.487105,0.79447 1.456548,2.25104 1.028751,0.43799 3.697394,-2.40382 3.442752,-5.56137 0.02037,-0.80467 -1.527847,1.39544 -5.999353,-3.20848 1.425992,-1.19173 -0.906524,-3.11681 -2.271401,-2.88254 -7.089218,-5.50025 -3.351079,-8.46428 0.967636,-1.00839 -0.712996,-4.73632 -2.434371,0.87596 -2.1899171,-1.82323 -0.2138987,1.45655 -0.8148527,-0.20372 1.0898654,3.18812 -1.2426501,1.14078 1.0898653,3.30016 0.030557,1.24266 0.6111398,2.50566 -1.5685917,-0.26482 1.0185657,1.36488 -1.3852493,1.3445 1.2732071,0.37687 -0.1018565,1.0695 -2.138988,0.42779 1.4158063,-25.66785 -1.3750637,-13.01728 1.1713505,-8.64762 6.3965927,-25.93268 4.80763,-10.80698 1.40562,-1.68063 1.303765,0.49909 -0.03056,4.59373 1.15098,1.54822 -3.63628,4.48169 1.884347,2.67882 -1.650077,0.74356 -1.446363,-0.87596 -1.212093,5.97897 1.701005,-0.4889 4.451132,2.13899 -0.05093,4.89929 1.94546,1.16117 8.04667,1.72137 0.590768,1.91491 -3.18811,0.82503 2.312144,4.96042 -0.407426,2.97422 1.609333,0.61114 v -5.29655 l 2.913098,-1.56859 3.269596,0.67225 5.072457,-0.93708 14.107136,6.76328 3.778878,2.8418 2.648271,-1.50748 2.984398,-3.82981 1.609334,-4.76688 0.193527,4.74651 1.252836,2.00658 -0.366684,2.85198 1.639892,1.22228 2.617713,5.12339 -2.933469,4.6854 -0.550026,-0.91671 -3.992778,0.28519 -1.252835,4.16594 0.886152,0.73337 1.232465,-3.76869 5.856753,1.43617 1.843603,-1.9149 0.01018,3.75851 1.487106,2.7705 5.082643,1.83341 11.143109,-3.73813 0.875967,-4.62429 -1.344507,-8.03649 3.921477,-5.38821 -1.425992,-3.19829 -7.354044,-5.93824 -1.263021,-4.69559 -2.240845,-0.91671 0.855596,-3.90111 6.51882,0.56021 4.298348,-4.22704 2.352891,-3.76869 1.425994,-5.06228 4.03351,-5.09283 1.20191,-0.12222 2.1288,2.00658 2.1288,-1.6399 2.40382,0.51947 -0.0305,-1.70101 1.71119,-1.02875 1.58896,2.46493 3.75851,-1.63989 -0.46854,-2.26121 -1.89453,-0.75374 -1.76211,0.72318 -0.70282,-2.35289 -1.17135,3.02515 -1.88434,-1.7112 -1.69082,1.16116 -3.63629,0.0917 4.07427,-9.31988 2.44456,-2.70938 -1.19172,-2.61772 2.94365,-0.17315 11.34682,-9.51341 9.57452,4.49188 1.18153,-1.40563 -2.1288,-2.67882 z m -4.04371,-11.25515 5.20487,0.77411 -2.24085,1.86397 0.3565,1.69082 2.24084,0.30558 -3.19829,2.88253 -1.12043,-0.77411 -2.43436,0.35651 -1.01857,3.96221 -1.80286,0.47873 0.0305,1.49729 -4.39003,-3.94185 -2.09824,-4.44094 -1.87416,-1.15098 0.76393,-1.13061 z"
     class="land"
     title="Midtjylland"
     id="DK-82"
     inkscape:connector-curvature="0"
     style="fill:#07bada;fill-opacity:1;stroke:#ffffff;stroke-width:0.50928289;stroke-opacity:1" />
  <path
     d="m 143.71684,320.80665 -3.38163,-2.83161 1.96583,-2.94365 2.77049,3.91128 -0.58058,2.20011 z m -25.56599,-18.92495 -0.4278,2.50567 2.1288,7.16052 -1.93528,2.63808 -2.42418,10.89866 -1.01857,1.2732 0.27501,-5.25579 -2.2001,0.4176 -1.58896,-1.87416 -2.21029,0.37688 -2.13899,3.98259 1.90472,9.40136 1.44637,3.53443 3.10661,3.37144 -0.45835,3.00477 -2.27139,0.67226 -0.14261,1.25284 1.52785,1.39543 -3.50386,3.06588 0.12222,5.17431 -1.59914,0.75374 0.16297,1.99639 -4.47151,3.16774 -4.379823,5.87713 1.069489,2.50567 -6.396588,3.63627 -3.677022,-0.61113 -8.67818,3.52424 -1.690819,-3.70758 0.63151,-2.46493 -3.25941,-3.46313 0.193527,-2.24084 -1.568591,-0.15278 -1.24265,-0.56022 0.550026,-1.4871 -0.835225,-1.96584 -1.853789,0.0713 -0.183342,2.08807 1.904718,0.24445 -1.344506,1.20191 1.273207,2.18991 -3.850179,1.50748 -1.100051,-4.63447 2.118617,-0.81486 -4.165934,-4.17611 -5.225242,4.56317 1.00838,-6.22344 6.793834,-3.00477 -2.587158,-7.36423 1.629706,-1.03894 1.568591,1.36488 1.690819,-2.36307 1.680634,-0.28519 4.756701,1.17134 6.284551,-3.56498 -0.397241,-2.94365 -7.445716,-1.29358 1.741748,-3.05569 2.566786,0.8454 1.049122,-0.67225 0.08148,-1.53803 -2.373259,0.0204 2.424187,-4.02334 -0.437983,-6.29473 -1.089866,-1.40563 4.552989,-1.47692 2.566786,0.76393 5.347469,-1.01856 1.446364,0.66206 2.892727,-2.3427 8.494836,-1.46673 1.88435,-7.00773 2.91309,-3.4122 1.18154,-3.10663 1.20191,1.50748 4.14557,-0.0917 2.99457,-3.48349 0.33614,-2.73995 0.83522,0.0611 -0.23427,2.414 z m 133.48303,-25.67804 -2.04732,0.40742 -2.66865,-1.22227 -1.43617,-3.44276 6.26418,-0.32594 2.39363,2.26121 z m 23.50849,-5.45951 1.79268,4.03352 3.99278,3.16774 3.88073,3.44275 6.20307,6.80401 7.62905,5.57156 5.64287,2.13899 9.82915,-0.97782 -0.30557,4.43076 -1.29358,0.0102 -0.99819,1.72137 1.24265,1.11025 -2.72976,4.3289 -1.43618,11.41812 2.02694,23.19275 3.02515,12.54872 5.01135,7.955 -0.0713,3.90111 -1.15098,1.05931 -3.46312,-1.73157 -6.61049,-0.47872 -3.67702,-1.84361 -3.30016,2.10844 -0.56021,1.53803 -2.2001,0.70281 -2.59734,-1.33432 -0.4278,-2.90292 -2.70938,-0.26482 -5.40858,2.6992 -0.6417,2.44456 -2.57697,1.69082 -2.94366,-2.07788 -5.14375,1.93528 -1.59916,2.02694 0.24446,1.34451 -4.13538,0.65188 -3.13718,3.33071 -2.04732,-0.27501 -0.12222,1.71119 -4.52244,2.30196 -13.28209,1.24265 -3.11682,1.95565 6.71235,0.36667 1.80287,-1.85379 9.20783,-0.29538 2.04732,-1.10005 1.2019,0.59077 2.78069,-1.99639 2.05751,0.61114 1.43617,-3.13718 1.24265,-0.0305 1.24265,-1.54822 2.95384,-0.33612 2.68902,-4.60392 1.18153,-0.22408 2.50567,2.34269 1.46674,-0.13241 3.52423,-3.50386 1.37507,-2.96403 4.44094,0.9269 1.53804,-0.39725 4.23723,5.56137 v 0 l 0.3565,1.51767 -5.63267,3.59553 0.23427,3.17793 -4.96041,1.47692 -1.03894,5.77527 -4.01315,1.18153 -6.39659,4.45114 -8.91245,2.72975 -2.71957,-1.45655 -1.48711,3.99278 -8.52539,1.74175 -1.33433,4.63447 -6.50863,1.43618 -5.21505,-2.85199 -6.34567,1.58897 -5.31692,-7.58832 -5.03171,-1.2732 -4.7567,2.59733 0.13242,-7.27255 4.46131,-1.51767 -0.77411,-3.60572 -6.29473,-0.89634 -4.04371,0.7843 -4.66504,-1.58897 0.57041,-3.42237 -5.19469,-0.62133 -0.39724,-1.47692 1.83342,-1.73156 -1.20191,-1.96583 -1.44636,-0.1426 0.35649,-2.30196 -4.19649,-0.44817 -0.4278,1.83342 -2.15935,0.16297 -3.0557,9.64582 -3.49368,-0.6417 -5.05208,-3.59554 0.16297,-3.04551 -4.31872,0.70281 -1.58897,-2.24085 -4.85855,-0.2037 v 0 l -2.01676,-5.20488 -3.31035,-1.61951 -4.23723,2.49548 -2.30196,0.11204 -7.57812,5.83638 -0.8556,0.2139 -2.30196,-3.27978 0.0815,-1.22227 2.08807,-1.04914 2.40382,-3.69738 3.9011,-3.35109 2.47511,-4.17612 0.91671,-3.8298 -1.62971,-4.02334 -4.61409,-1.66026 -2.08807,0.23427 0.4991,-5.17432 -2.7705,-4.95022 5.65304,-9.23839 0.3565,-4.99098 -1.58896,-3.14736 -4.50207,-3.08626 -0.31575,-1.74175 1.79267,-6.41696 2.63809,-3.0557 0.24446,-1.701 4.22705,-3.59554 1.96583,-4.41039 4.91967,-1.52785 2.6279,-6.55956 18.56846,-4.8993 11.6422,1.06949 10.30788,6.47808 -2.57697,4.54281 1.01857,2.67882 -1.00839,1.23247 -1.17134,-2.51586 -0.97783,-0.16297 -1.69082,2.54641 4.18631,7.83277 1.42599,-6.05027 0.51947,-2.03714 5.40858,-3.30015 1.59916,-4.56317 1.3445,-0.40743 4.28816,-5.72434 0.37687,-4.78726 3.46312,-2.93347 11.28572,-2.91309 9.16708,2.32232 3.55479,-2.86216 3.54461,-0.91672 2.04733,0.13241 3.06588,2.139 2.06769,-0.15279 2.01676,-0.82503 2.23066,-4.07427 3.23903,-2.50567 z m 142.37512,-35.41553 -0.0713,2.24084 -5.21506,1.27321 -0.53983,-0.713 1.52785,-2.36307 z m 23.30479,-27.9087 -1.07968,5.67341 -1.41581,-0.75374 -1.60933,0.74355 -7.65962,0.0305 -5.36784,2.63808 -0.32594,2.07787 2.50567,0.38707 -1.11023,6.48825 -2.78069,3.08626 0.19352,0.4278 -1.1306,1.54822 -7.67999,4.30853 -2.09824,-0.50928 -1.82324,0.96763 -1.32413,-4.55298 -2.90291,-0.68245 -0.72318,-2.21028 -2.6279,-0.58059 -1.701,0.76393 -5.53082,-3.50387 0.0611,-1.94545 4.6854,-3.76869 2.2103,-3.79926 3.70757,-2.21028 8.85133,-1.02875 2.72976,-3.16774 12.60985,-0.30558 3.92148,-2.15935 7.15033,1.24264 z m -84.07242,-104.83078 -1.12043,1.03894 -1.01855,-0.72318 -0.8556,0.71299 -0.72318,0.31576 -3.70758,3.15756 -8.75967,10.95976 -6.42715,11.07181 -2.57697,10.85791 3.16774,11.49961 12.36539,17.08135 1.56859,4.88911 2.08806,0.77411 -0.77411,2.03713 -1.78249,0.0102 -0.58058,1.04912 -1.76213,1.9862 0.30558,3.01496 -1.88434,8.8717 1.04912,10.00231 1.76211,3.17792 -1.0695,2.07788 2.57698,13.28209 0.22409,11.96815 -4.90949,4.63447 -2.66864,1.10005 -7.20127,9.0245 -5.67341,12.97653 -3.69739,18.43604 -3.26959,9.7273 -3.08626,5.81601 -4.30854,-1.36488 -5.91786,1.97602 -5.05208,-0.84541 -5.85676,-4.50207 -10.05325,-10.28751 -4.39001,-2.17973 -8.56614,-8.26056 -1.94545,-0.63152 -3.21867,1.32414 -3.58536,3.66684 0.0305,3.2696 -2.83161,1.06949 -8.71893,-4.21686 -5.08264,-5.52063 -8.40317,-4.46132 0.41762,1.95565 -3.10663,7.51702 -1.96583,1.43617 -6.02991,0.97782 -5.07246,-3.09644 -2.11862,0.82504 0.051,-2.9131 2.64828,-0.70281 1.5584,-1.9862 0.0611,-0.73337 -2.15935,0.19353 -3.95204,1.73157 -3.79925,3.46312 1.69082,1.60933 2.65845,0.1426 -2.53622,1.75193 -1.7723,3.06588 -3.28998,-0.19352 -1.81304,2.45474 -4.23723,-1.00838 -6.91607,0.75374 -1.13061,-1.03894 -8.30131,2.29178 -17.07115,6.42715 -7.26238,5.17431 -4.85856,-0.76393 -1.80286,-1.22227 -10.77642,-10.27733 -10.07362,4.3289 -2.52604,3.77888 -1.43618,-0.16297 -0.0407,-2.56679 -0.94727,-0.96764 -3.55479,0.33614 -2.39363,0.96763 -2.5566,3.57517 -2.98441,-0.75374 -2.6177,1.46673 -2.01676,4.95023 -2.08807,-0.0102 -1.12042,-2.48529 -3.44275,-0.97783 -1.79267,-0.16297 -3.21867,0.65189 -0.12223,1.73156 2.50567,1.80286 0.10186,1.71119 -7.77165,3.34089 -0.89634,2.02695 -3.351081,1.44637 -7.822583,-1.67046 -5.49007,0.66207 -1.476921,4.13538 0.723183,2.6992 -3.126998,3.08626 -0.03056,3.14736 -2.077875,2.9131 0.814853,3.08625 -0.967638,2.15937 1.263023,0.88615 -3.249225,5.84656 -4.970601,5.95861 -5.714154,0.31576 0.09167,2.98439 -2.189916,-0.19352 -4.512246,2.71957 -2.587158,3.76869 4.400205,6.79383 -1.568591,1.93527 -1.466736,6.28455 -2.760312,2.56679 3.463123,-0.96763 4.532618,0.55002 0.611138,1.16117 -1.354692,2.80105 1.751933,-0.98801 0.753739,0.5704 -2.149173,2.70938 0.275012,2.75014 -8.657809,-4.62429 -3.890921,1.97601 -1.120422,1.94547 -1.955646,-0.25465 -0.590768,1.76212 0.784296,0.0611 v 0 l -0.162971,1.40562 v 0 l -6.854947,-1.76211 -1.100051,-3.96223 -4.379833,-5.816 -2.495486,-10.90885 -2.414001,-2.89272 -3.595537,-2.15936 -1.283392,19.77036 -1.263022,-0.16297 0.01018,-2.80106 -1.517663,-2.71956 -1.038937,-0.0611 2.352887,-20.79911 4.929858,-13.94416 12.609843,-25.80028 2.689014,-1.53803 4.17612,-5.31691 7.985554,-13.9238 1.283393,-1.34451 3.738137,-0.68243 4.043706,-4.7567 8.270753,-14.75902 1.252836,0.57039 3.147368,-1.72137 16.796148,7.06885 2.128803,0.0102 15.370143,-4.67521 16.43965,-10.47086 3.30016,0.60095 3.61591,-0.81485 10.30789,4.02334 11.74406,1.36488 9.52359,-1.05932 9.41154,-3.23903 6.52901,-0.50928 4.53262,-1.84361 19.74999,-16.11371 14.03583,-21.04357 10.89866,-19.08791 11.02087,-25.29099 9.72731,-10.26714 10.03287,-17.63137 2.6992,-2.23066 3.27978,-1.33433 3.52424,1.43619 11.83574,0.65188 10.36899,-1.24265 12.01907,-4.66503 11.03107,-6.61049 32.9608,-28.051305 7.42534,-2.383443 5.30673,1.996389 z"
     class="land"
     title="Nordjylland"
     id="DK-81"
     inkscape:connector-curvature="0"
     style="fill:#07bada;fill-opacity:1;stroke:#ffffff;stroke-width:0.50928289;stroke-opacity:1" />
  <path
     d="m 483.87705,815.05548 -2.89273,1.08986 4.71596,5.41877 -1.61951,-0.80466 -3.73815,0.95745 -0.60095,-2.94366 2.03713,-0.64169 -2.49548,-3.21867 z m -34.04047,-10.82735 4.13537,2.75012 3.60573,5.31692 5.7549,1.8436 0.23427,4.62429 3.09644,3.44275 6.66142,3.14737 -0.60095,1.68064 0.88615,0.65187 1.92508,-1.14078 2.39363,0.59076 0.76393,1.01857 -0.1426,4.7567 3.51405,0.32594 0.0407,1.66026 8.73929,0.59077 1.44637,1.34451 3.50387,-0.75374 0.4278,-0.93708 -2.37327,-0.8556 -2.10842,-2.90291 0.43798,-1.5584 2.75012,-1.2834 3.53443,2.1288 6.04009,-2.40381 -1.26302,-2.75013 0.7843,-4.56318 -1.59915,-3.75851 3.1983,0.66208 7.41516,6.49844 4.17611,-0.13241 0.76393,0.81485 -1.46674,2.99459 1.76212,4.92986 5.63267,1.8436 -1.24265,2.82142 0.18334,3.33071 2.52604,3.04552 3.09644,1.07968 5.0419,5.09283 1.07968,7.84296 -2.59733,2.46492 -1.86399,0.0815 -2.53622,-2.08805 -0.10186,2.86216 1.15098,1.05932 -2.22047,1.03893 1.22228,2.52604 6.21325,3.04552 -1.69082,6.21325 -4.33909,1.69082 2.39363,1.83341 -2.47512,1.17136 -1.82323,0.47872 -10.58289,-2.14917 0.74354,-1.0695 -1.12042,-1.9149 -0.7741,0.63151 0.45835,1.87416 -1.72137,0.90653 -1.00839,-2.00658 -2.31214,-1.07968 -2.52604,0.65188 -1.65009,1.12043 -2.42418,-1.23247 -4.70577,0.70281 -2.37326,-1.31395 -1.12042,0.51947 0.83522,1.19172 -2.7705,1.41581 -2.55659,0.1426 -1.0695,2.78068 -6.5392,1.12042 -5.04189,5.81602 6.86513,3.53441 2.33251,-0.61113 0.0611,0.94727 -3.97241,0.0305 -21.82786,-14.52475 -6.529,-7.44571 -4.82801,-3.94185 -21.12505,-8.79022 -8.46428,-2.51586 -7.10959,-3.81962 -5.65304,-9.74767 0.0815,-0.44818 1.9862,2.3427 2.92329,-0.31575 2.15935,-2.44455 -4.02334,-3.30016 7.39479,2.60753 1.07969,2.85198 3.55479,-0.17315 1.37506,-1.73157 -1.71118,-1.74175 0.22408,-2.00656 2.27139,2.62789 1.11025,-0.29539 0.83522,-2.24084 1.79268,-0.72318 -0.34632,-1.51766 2.5566,-0.10185 -0.35649,-0.79449 -4.70579,0.91671 -1.87415,-0.89634 v -3.28997 h -1.32414 l -0.23426,-1.92508 -1.62971,-1.29358 -1.47692,-1.5584 -2.10844,-0.75374 -1.78248,-2.39364 -0.29539,-2.09824 1.71119,-5.9688 7.76147,-7.08921 3.33071,0.35649 0.70281,-1.42599 0.81485,-0.62132 1.7825,-0.5704 1.83341,0.56022 5.44933,-2.81125 z m 20.71763,-2.90291 2.14917,1.45655 3.39182,-0.4278 2.92329,4.02333 -0.26483,1.22228 -5.03171,-0.39724 -4.62429,5.61229 -4.03352,-3.37144 -1.26303,-5.41878 -1.2019,0.0102 -0.62133,-2.61771 2.26122,1.0593 0.61114,3.59554 1.426,-1.54822 3.33071,1.93528 0.988,-1.29358 z m 60.37039,2.22047 5.46969,3.94185 -0.58057,1.11023 2.08806,1.72138 0.18333,2.42419 2.00658,1.17134 2.15936,-0.12222 0.84541,-5.47988 1.13061,1.06949 4.72614,-0.75374 1.96583,1.50748 0.53984,6.95681 2.64827,2.09824 7.71055,1.76211 2.04731,-1.16116 6.73272,1.57878 0.94727,4.76688 4.03352,4.85856 1.36487,3.2696 -0.85558,1.39543 -3.51406,1.44637 -2.60752,5.4697 -4.97061,2.86216 -5.72434,7.69018 -3.48349,8.35224 -3.96222,3.46311 -2.31215,4.25761 -1.38525,9.89027 1.80287,18.08974 -0.46855,3.88073 -7.46608,-3.66684 0.73336,-1.30376 -0.37687,-3.58535 -7.63924,-15.13589 1.73156,-7.85314 4.55299,-6.60031 -5.75489,-2.52604 0.71299,-3.54461 1.32413,-1.42599 -2.35288,-3.0557 -0.79448,-3.39182 -3.58535,-3.21867 -0.80467,-2.35289 -2.65845,-0.57039 -2.22048,-2.23066 2.59735,-4.94005 -1.45655,-2.00657 0.31575,-1.701 -3.23904,-2.51586 -4.00296,-0.39724 0.43798,-1.33432 -1.25284,-2.44456 1.04912,-2.53623 -1.40561,-1.01857 -0.90653,-2.69919 2.08806,-5.66323 -1.42599,-2.43438 -5.72433,-0.66206 2.29176,-2.97421 2.21029,0.56021 0.48892,-1.1408 -1.33433,-0.72318 1.84361,-2.68901 h 3.25941 l 2.31214,1.42599 2.49549,4.51224 3.04551,-1.88434 0.94727,-3.69739 -0.86579,-2.04732 z m 37.2795,-0.45836 -1.11023,1.55841 -0.63151,0.37687 -2.17973,1.30376 -2.25104,-1.22228 z m -82.59549,-7.39478 4.41039,0.82504 2.58716,3.86036 -4.15575,6.32529 -3.23904,-6.11139 -2.44455,-2.16955 z m 86.4966,0.73336 -2.21029,4.37983 -1.25284,-0.39724 -0.47872,1.16117 -0.25464,-1.22228 1.86397,-1.9149 -0.53984,-1.03894 z m 14.79976,-17.14246 -2.63809,6.14195 -4.35945,-1.74174 -0.95746,-1.50749 2.47511,-0.48891 2.71958,-2.57697 z m 6.04009,3.77888 1.40563,1.97602 3.78906,1.83341 20.55466,1.17136 8.41335,3.70758 3.5548,6.63086 0.76392,3.81962 -1.62971,4.6141 -4.49187,0.69263 -12.77281,-4.59373 -8.34206,-0.53984 -6.10121,2.68901 -4.72614,3.84 -10.64402,13.75063 -3.74832,0.74355 -5.43914,-0.73336 -2.38344,-4.35946 2.43437,0.88615 0.80467,-1.21209 -5.57155,-0.41762 -14.87107,-4.828 -1.2732,-2.79087 0.31575,-2.00657 -1.80286,-1.86398 1.37506,-1.90472 2.22048,5.64285 1.68063,0.34632 1.59915,-1.39544 5.2558,0.0204 2.68901,2.97422 -1.80286,4.03352 4.0437,1.15098 2.54642,-0.98801 -1.82324,-1.96583 1.40563,-3.82981 3.83999,-2.52605 -2.31214,-0.95744 -1.20191,-2.79087 5.88731,-3.27978 2.56679,0.97782 -2.00658,-4.65485 4.21686,1.46673 1.33433,3.44275 9.92082,-4.16593 1.01857,0.86579 -2.45474,4.16593 0.96764,0.49909 2.44455,-0.95744 2.95385,-3.36128 5.56136,-1.44635 -7.242,-0.75374 -2.05751,1.52784 -0.79447,-0.88615 -1.2834,-3.40201 1.69082,-4.09464 -2.92328,-4.78725 -1.18154,-1.05931 -2.42418,0.52965 -0.58059,-1.23246 0.38706,-1.6297 3.77887,-2.92329 z m -77.73693,-23.152 -1.5584,3.37146 -0.63152,-3.08626 1.03894,-2.75012 z m -77.63508,-8.20963 0.34632,0.97782 -2.34271,2.0575 -1.73156,4.50206 -2.42418,-4.86875 6.42714,-4.12519 z m 70.83106,-2.23066 0.34631,5.04189 -2.94365,-0.94726 -1.95565,-3.16774 2.36308,0.46854 z m 5.82619,-0.9982 -0.78429,2.90292 -1.43618,-0.66207 -2.15936,0.62132 1.76213,-7.39478 4.24741,1.62969 z m -74.81365,-13.9849 -1.07968,0.86577 -0.61114,-0.56021 -0.15278,1.9149 2.32233,2.24085 1.86398,5.99935 -1.41581,1.05931 -3.127,-1.15098 0.10186,-10.67457 -0.8556,-1.6297 0.55003,-0.60096 1.54822,0.91671 z m 164.39651,-88.40133 0.93708,0.82505 v 0 l -1.27321,0.77411 z m -148.60874,-42.94273 0.5704,1.01857 -1.91491,-1.26302 -1.7723,-3.87055 0.66207,-2.56679 1.46673,1.47692 -0.70281,1.32413 1.9964,2.26123 z m 76.62671,-3.27978 -1.34451,6.4679 -3.03534,1.65007 -1.74173,-1.90472 -1.38526,-0.11204 -2.47511,-6.06047 2.15935,-0.77411 1.1408,-1.701 2.51585,2.44456 1.50749,-6.65123 2.08805,3.11681 z m -95.79612,-26.17714 3.51405,4.04371 3.13719,1.74174 0.47873,2.33252 -1.57878,-1.68063 -8.67818,-3.67702 -3.94185,-5.15395 -4.41039,-2.00657 -0.81485,-3.70758 5.20486,1.88434 0.99821,2.13899 z m 25.84102,-22.92791 4.66503,2.82142 5.15394,1.3547 8.93282,0.34631 5.60212,2.29177 9.76804,-2.61771 2.39363,4.00297 3.30015,1.69082 9.56433,-2.25104 10.84773,-7.25218 2.18992,7.00773 -1.79268,-1.16117 -3.51405,3.28997 -0.8556,4.09463 0.44817,4.79745 -2.53622,1.53803 -3.22886,-1.21209 -0.52965,-2.28159 -2.66865,0.29538 -1.2732,-0.8454 -1.90472,4.98078 0.36669,3.49368 3.26958,1.74175 2.43438,3.30015 3.13718,6.21325 0.32594,3.91129 -2.6279,3.67703 -0.58057,-1.10005 -6.66142,-1.9251 -2.05751,2.4242 0.99819,1.2019 -1.23246,0.51947 -0.051,1.82324 -5.00116,2.44455 -0.17315,1.18154 2.9844,2.0575 2.81123,-0.30557 11.42831,-5.90768 1.68064,1.82323 0.73337,3.78907 1.61951,2.14917 -1.10005,0.66207 -0.48891,-1.96584 -1.15098,1.77231 0.9269,1.65008 3.09644,1.47692 0.0305,1.66026 -6.83457,2.11861 -8.34206,0.45836 -1.45654,0.79448 0.73336,1.47692 -0.67225,0.97783 1.56859,0.36668 0.10185,0.9269 6.90588,-1.52785 7.955,0.34631 0.75374,-1.39544 -1.54822,-1.40562 1.14079,0.26482 2.97421,4.61411 -0.12222,3.25941 1.59914,0.33613 0.51948,2.68901 -2.48531,1.37506 v 2.61772 l -1.85379,0.67225 -0.77411,2.51585 3.95204,-1.1306 0.62132,0.66207 1.37507,-3.33071 3.33071,-2.46493 0.51947,-5.7549 2.36307,-6.16232 2.60753,-1.61952 v 0 l 4.12519,1.61952 3.79925,-3.48349 6.93643,3.78906 v 0 l -0.0917,3.42238 -7.11977,13.6386 0.36668,3.57516 1.27321,-3.38164 1.56858,-0.71299 -0.13241,-2.9844 6.40678,-0.65189 -0.92689,-2.94364 -1.43618,-0.82505 1.56859,-1.15098 -0.051,-2.18991 0.51946,1.01857 1.85379,-0.6417 -1.16116,3.10662 0.86578,0.37687 1.12042,-1.28339 0.79448,0.77411 1.66026,-0.44817 1.78249,1.19172 -0.39723,1.32413 1.65007,0.88616 -0.32594,0.83523 -1.88435,-1.13062 -1.85379,0.46855 -3.60572,-2.18992 -0.2852,1.01856 1.26302,0.0305 0.93708,2.92329 -0.69262,1.43618 4.00296,-0.88615 0.95745,0.83522 0.44817,-1.10005 1.83342,-0.23428 -0.33613,4.06408 3.39182,1.83342 1.4973,-5.03172 -1.25283,0.12224 -1.61953,-2.59735 1.20191,-2.13898 0.89633,-0.29539 0.93709,1.34451 0.45835,-2.10844 -1.8436,0.38707 0.17315,-0.76393 2.17973,-0.3565 1.50748,-1.7723 0.60096,-1.55841 -1.69082,-0.34631 v -2.13899 l 2.46493,-2.39363 -1.48711,-1.01857 -1.90472,-2.65846 0.76393,-3.11681 -2.15937,-2.46493 0.57041,-3.75851 v 0 l 10.94957,8.49485 5.87713,-0.9269 2.60753,2.6279 -1.80286,3.34089 5.12338,4.59374 -5.45951,5.28635 -3.73814,-0.25464 -4.94003,4.29835 0.94726,9.24857 1.36488,-0.0713 -1.00839,5.3271 7.01792,2.0575 0.80467,-3.2696 2.80106,-0.84541 1.13061,1.7825 4.66502,-2.04732 8.5967,3.55479 2.54641,2.38345 v 0 l -0.47872,1.86397 -7.87352,4.08445 -7.86332,7.97537 -6.56975,18.36474 0.81485,2.75012 -0.56021,1.51767 0.713,2.46493 3.80943,4.4715 10.6542,5.56137 8.75967,0.89634 7.24199,6.91606 3.9826,5.27617 0.33612,3.20848 1.02876,0.98801 -1.32414,4.02334 1.40563,5.19468 -0.36669,2.18992 -5.42895,6.0299 -2.56679,1.63989 -3.6261,-0.11204 -2.22047,4.46132 -11.39775,-1.4871 -11.34682,4.39001 -3.70759,2.97421 -0.86577,-0.4889 -7.35405,9.5847 0.58059,8.49483 -1.95565,1.56859 -1.77231,0.19354 -1.15098,-1.17136 0.87597,-6.01972 1.701,-2.92328 -0.67225,-0.62133 -4.21686,0.47873 -4.43076,2.15935 -2.66864,4.39003 1.04912,1.30376 2.43438,0.60096 0.65188,1.701 -0.67226,2.7705 1.701,-0.7843 1.17136,1.35469 1.69082,-2.40381 2.56678,0.0611 0.0102,1.81305 2.16955,-0.15278 0.36667,-0.88616 1.37507,0.66207 2.33251,-1.82323 4.91967,1.78249 2.26123,2.42418 -1.51767,6.62068 -2.25103,2.79087 -2.6992,-1.60933 -1.70101,0.94726 -0.37687,-1.3445 -2.91309,-1.63989 0.4991,1.60933 1.81304,0.18334 -0.0713,2.01676 1.46674,0.3565 -1.57878,1.38525 0.95746,0.051 1.24264,3.03533 -0.43798,1.9862 2.31215,0.45835 -0.68245,1.85379 4.50206,8.45409 -0.28519,2.46493 -6.70216,-0.27501 -6.23363,5.95861 -3.5446,1.98621 -3.75851,-0.0407 -6.67161,-3.4122 -3.40201,-4.89929 -5.84657,-2.03714 -0.6315,0.45836 1.36487,0.60095 0.1426,1.33432 -3.00477,0.18335 -9.61526,-7.25219 -2.77049,-3.35108 -11.21442,-4.22705 -7.04847,-4.14557 -7.62906,-2.04731 -0.81485,-0.75374 17.8962,4.6141 11.04126,5.63268 1.07967,-1.2834 -3.35108,-6.19288 -4.87893,-3.60572 -1.01857,0.71299 1.62971,1.91491 -2.54642,-0.20372 -1.76211,-2.69919 1.16116,0.0305 0.87597,-1.59915 -2.75013,0.2139 -3.27978,-4.88912 0.62132,-3.83999 0.97783,0.82504 -0.45835,1.32413 4.4715,0.34632 2.61772,-3.42238 4.09462,0.92689 1.44637,-1.52785 -1.08987,-3.66683 -2.08805,-0.94727 -2.29178,1.73156 -1.14079,-0.77411 0.28519,-1.57878 -4.48169,0.0408 -1.07968,0.96764 -2.35288,-0.97783 -0.24445,-3.1983 3.96221,-2.73994 -0.64169,-1.0593 -1.55841,0.78429 -0.44817,-0.67225 2.94366,-3.37145 -1.30376,0.18333 -3.22886,-2.92327 -3.80944,0.55002 -4.41039,4.58355 0.16297,1.6297 -2.33251,1.23246 -5.97898,-3.36126 -2.32233,0.48891 -10.85791,-2.88254 -1.46674,0.53984 -0.6315,-1.81304 -2.99459,0.0917 0.13241,-1.29357 -1.59914,-1.65009 -1.24266,0.69263 -2.49548,-1.32413 -2.17973,3.14737 0.38706,0.82504 1.39543,-0.88616 2.38345,0.43798 1.68063,4.07427 -3.09644,0.61114 -6.65124,-0.88615 1.1408,-1.67046 3.79925,1.4973 -1.27321,-4.01315 -2.22047,-0.63151 -4.03352,2.70938 -2.30196,-2.90291 -2.16955,2.36307 -0.90652,-2.30196 -1.96584,0.051 -0.66206,2.22048 0.66206,1.15098 -2.96402,0.71299 -1.96583,-1.89453 -3.35108,-0.22409 -1.88435,-1.63989 -0.95745,-2.61771 1.96583,-1.01856 -2.4853,-5.22525 0.80467,-0.59077 1.07968,1.41581 4.80763,1.13061 3.56498,-7.77165 -0.68244,-2.89273 -2.02695,1.3445 -0.47872,4.13538 1.0593,0.80467 -2.50567,1.68063 -0.91671,2.00657 -1.26302,-2.02694 -2.68901,-0.68244 0.83522,-3.25941 -1.41581,-5.77527 -8.49483,-4.83818 -3.38164,-3.63629 -2.87236,-1.37506 -0.17315,-1.59914 0.90652,-0.56022 2.65846,1.76212 4.7567,0.33613 0.3565,-1.26302 2.09825,-1.17136 -0.1426,-2.13898 -3.36128,-2.24085 -2.16953,-0.0713 -1.20191,1.04912 0.93708,2.96402 -3.08626,0.79449 -4.53262,-3.32053 -2.35289,0.35649 2.98441,-5.77526 0.88615,1.33432 4.33909,-0.69262 3.72795,-2.97422 3.49368,-0.75374 1.84361,-3.70758 -2.83162,-5.11319 1.31395,-6.36604 -3.76869,-7.93463 -0.53984,-5.21505 -4.57337,-4.58355 -2.5566,-4.27798 -1.10005,1.05932 0.35651,1.50747 0.87596,-0.2852 -1.57878,2.7705 -2.58715,0.37687 -1.97602,-1.04912 2.1288,-5.23543 6.31511,-0.0917 2.42418,-5.09283 -1.01856,-7.05866 -2.90291,-6.74291 -2.6992,-2.82142 -10.06343,-6.3966 -13.46544,-2.36307 -1.44636,-1.1306 -0.14261,-1.69082 1.18154,-0.86578 3.36128,1.36488 4.81781,-0.23428 8.2402,1.88435 3.8298,-0.96764 0.39724,1.03894 2.05751,-1.11024 0.25463,-0.81485 -1.97601,-0.39724 1.73156,-1.43618 -4.29835,-1.00838 -1.46674,-0.57039 -5.20486,-3.85018 -4.17612,-6.46789 -1.45655,-0.77411 -10.57272,-0.4278 -5.69378,-3.52424 10.77642,-2.10843 5.8262,1.24264 8.41336,3.67703 4.91967,-0.84541 6.56975,-4.24742 4.55299,0.27501 2.52604,-0.8454 -0.19353,1.80286 2.8418,3.83999 2.23066,-0.15279 0.91671,-1.79267 -0.58059,-1.25283 1.0695,-0.75375 4.81782,4.49188 4.10481,-2.49549 0.78431,-3.44275 0.72318,-0.18334 1.00837,2.85198 0.83523,-2.80105 5.60211,-0.88615 2.99458,-2.68901 1.70101,-5.1845 -0.9269,-2.24085 -0.41761,-8.87171 -1.2121,-2.07788 -1.38524,0.26483 0.38705,-0.75374 0.78429,-0.48891 4.3391,3.74833 7.5985,-4.20668 6.26418,0.1426 3.35108,-4.56318 1.29358,-4.6854 0.18334,-8.20964 -1.34451,-3.86037 -7.79202,-4.3289 -11.94778,-1.01857 -5.74471,-4.03351 -5.33729,-1.48711 -2.90291,-8.89207 3.63629,5.3882 z"
     class="land"
     title="Sjælland"
     id="DK-85"
     inkscape:connector-curvature="0"
     style="fill:#07bada;fill-opacity:1;stroke:#ffffff;stroke-width:0.50928289;stroke-opacity:1" />
  <path
     d="m 359.82593,817.43893 -0.44817,1.87415 -2.29177,1.13061 -2.08806,-5.90768 3.6974,-0.92689 z m -19.16941,-3.7687 0.31576,0.97783 -2.38345,-0.65189 0.90653,-1.88435 z m 1.87417,-4.14556 1.24264,1.88435 -1.83341,0.18334 -0.43799,-1.83342 0.73337,-1.06949 z m 22.98902,-6.24381 4.64466,0.85559 0.52965,2.02696 -1.60933,0.0102 z m -23.76314,-1.43618 -1.72137,1.96583 -1.24265,-2.08806 z m -41.08894,-1.27321 2.33252,0.63152 0.3565,2.21028 4.07426,4.15575 4.08445,0.82504 5.89749,6.08084 1.70101,3.60572 3.9011,1.29358 0.95746,2.49549 1.79267,-0.47873 3.27979,-4.07426 -2.31216,-1.87417 0.6417,-0.77411 2.59735,2.87236 -1.18154,1.36488 2.07787,4.828 2.30196,2.58715 1.68064,1.03894 1.88435,-3.19829 2.89272,2.76031 0.60095,-0.41761 -3.5446,-4.91967 1.47692,-0.27501 6.98736,7.15033 -0.15279,3.21867 -8.83096,1.33431 -1.99639,1.20191 -1.22228,2.9131 -1.93527,1.47692 -6.77346,-5.08265 -7.3948,-9.62544 -4.57335,-2.96402 -5.84657,-7.43553 -1.02875,-5.54101 -3.88074,-4.01314 z m 30.54678,-3.08624 2.51587,3.46311 -2.00658,1.90472 -5.37803,-3.67702 -2.2001,1.59915 -1.62971,-1.47692 2.92329,-1.2834 0.65189,0.91671 5.05208,0.94727 z m 6.09103,-6.77347 3.62609,2.38344 -2.16954,-0.46853 -1.12042,1.30376 -1.71119,-0.20371 -0.32594,-1.63989 1.4871,-2.09826 z m -27.02255,-2.75013 3.58535,0.86578 2.50568,1.84361 2.83161,-1.1408 0.38706,2.61772 -1.40563,0.34631 -4.85856,-3.32052 -5.41876,0.0305 -3.01496,-3.23903 0.46854,-1.52785 1.85379,-0.55003 z m 50.32734,-7.92444 1.68062,2.44456 -0.6315,2.1288 2.57697,0.72318 0.35649,2.25103 -1.47692,1.12043 -1.44636,5.35765 -0.65188,0.9269 -0.74356,-0.56021 -0.76392,1.68062 1.52785,2.139 3.02514,0.69262 1.69082,-1.69082 0.4991,-2.31214 2.95384,-0.52966 -0.46854,5.59193 -5.1132,0.56021 -4.56318,5.77527 -5.11319,-1.81305 -1.0695,0.17316 1.76212,1.83341 -2.46493,-0.32594 -2.38344,1.36488 1.40561,-2.02694 -2.06769,-0.18334 0.12224,-2.45475 -2.9131,-2.43437 -0.79448,-5.08265 0.68243,-0.95744 -1.73155,-0.8556 -0.22408,-1.97602 2.45473,0.0204 1.68064,-2.37325 7.43552,-4.81782 3.97241,-3.75851 z m 9.83934,-0.14259 1.00838,0.64168 1.31395,5.79565 -2.14917,-0.95745 -4.80763,0.82503 0.38705,-1.78249 -2.90291,-0.36668 -0.4278,-2.42419 0.84541,-0.73336 2.42419,0.44816 z m -76.24983,1.5584 2.07787,0.50929 0.76393,1.32413 -1.38525,1.49729 -3.27978,1.00838 -2.95384,-3.23904 -0.15279,-2.28158 2.18992,-1.5686 -0.11204,1.95565 z m 15.00348,-1.52785 -3.67703,-1.80286 -0.58058,-2.04732 z m -59.99353,1.55841 8.03649,7.19106 4.03351,0.31576 3.23905,1.42599 6.6716,7.02811 6.71235,12.95615 0.73336,5.47989 2.37327,3.81962 0.73336,4.06408 -0.95745,0.88615 -6.08084,0.23427 -4.6141,4.87892 -6.52901,-0.30556 -4.71595,-2.59735 -2.54642,-0.16297 -3.07607,-3.64645 4.33909,-4.09464 2.44456,3.09643 4.91967,2.40382 0.32594,1.42599 2.37326,0.17316 2.61771,2.83161 1.10006,-1.02874 -2.54642,-4.60393 -9.89027,-6.54938 -2.46493,-0.51946 -1.69082,2.18991 -1.18154,-0.26482 -5.57155,2.67882 -5.05208,-2.04731 -1.81305,-2.11862 -0.2139,-2.26121 -1.72138,-0.76392 -1.44636,-12.87468 -1.15098,-1.58896 1.22228,-1.20191 1.92508,2.94366 2.79087,0.8454 5.14376,7.19108 3.37145,-1.01857 -2.5566,-1.57878 2.95384,-1.11023 -3.37144,-0.97782 1.43617,-2.23066 1.82323,-0.16298 -4.66503,-3.11681 -5.34747,-0.81485 -0.0407,-2.14917 -0.60096,-0.40742 -0.49909,-1.5686 2.17973,-0.89634 0.27501,-1.6297 -13.19042,0.7843 -5.42896,-3.57518 -0.12223,-1.80286 3.54461,-0.92688 1.55841,-1.426 1.17135,0.37687 -0.10186,1.23247 1.95565,0.10185 -1.23247,-1.82323 -1.65007,-0.16297 1.17135,-1.32414 -1.36488,0.11204 -1.42599,1.46674 0.26482,0.41762 -1.17134,0.35649 -5.07246,-0.95745 -0.75374,-1.34451 0.0611,-1.63989 3.97241,-3.60572 4.53262,-2.86217 6.29473,-1.54822 3.38164,0.76392 6.84476,3.97241 z m -37.91101,-15.66555 -2.64828,0.62132 -1.10004,-3.36126 0.62132,-1.4871 1.74175,0.26482 1.38525,2.01676 z m 195.06552,-8.10778 -2.81124,15.67573 -5.7549,21.55285 -5.21506,6.6716 -3.86036,8.64762 -0.50928,3.73814 -1.29358,1.9862 -0.40743,5.64286 -5.41877,13.79138 -5.70397,20.89078 -2.69919,3.94186 -3.15756,1.3445 -3.74832,-4.4002 -0.13241,-2.16955 1.28338,-2.25103 -2.23065,-5.2558 -0.22409,-4.31872 -3.22885,-5.01134 -4.63448,-3.04551 -0.97781,-2.05751 7.28274,2.04732 1.7723,-3.88073 1.39544,-0.38706 -0.91671,-0.89634 1.14079,-7.40497 1.54822,-0.20371 0.4991,1.92508 2.26122,1.0695 0.52965,-1.54822 3.09644,-0.24446 -2.9131,-4.73633 -0.051,-2.48529 -1.2732,2.48529 -1.60934,-0.92689 -0.87597,0.70281 -0.69262,-2.99459 1.49729,-3.2594 9.95139,-12.783 1.90472,-1.7112 2.56678,0.28521 2.95384,-3.1983 2.57697,-6.35585 2.72976,-3.40202 4.20668,-16.62299 3.14737,-5.76507 0.38705,-3.18812 5.38821,-6.42714 1.77231,1.42599 z m -168.94949,-31.04589 0.68243,4.08446 1.16116,-1.13062 -0.96763,-1.29357 2.23065,-0.97782 -0.40742,1.73156 -2.414,3.17793 -2.83161,0.0917 -1.95565,-2.37325 1.04912,-0.74356 -0.85559,-1.94545 2.81124,-1.05932 z m 8.91244,-13.51636 1.41581,4.08445 -0.34632,2.36307 -4.08445,1.36488 -1.21209,-5.1132 0.81485,-2.43437 1.39544,0.65188 z m -14.97291,-6.94662 -1.9149,0.9982 -1.84361,-1.45656 1.46674,-1.63989 1.67044,-0.25463 1.68063,1.81304 z m -192.946902,-25.65767 0.794481,1.2732 0.621326,-2.06768 2.332515,-1.86398 3.279781,0.22409 2.067689,0.93708 -0.550026,7.34386 0.743553,1.42599 1.38525,1.07968 2.729756,-3.18811 2.057503,1.40562 1.660262,6.49845 -2.648271,2.83161 2.79087,4.29835 0.814853,5.37802 1.375064,-0.19352 -1.588963,3.32053 0.437983,0.89633 -3.300153,-0.49909 -3.56498,-2.77051 -7.12996,-15.69609 -6.192879,-6.21325 -0.448169,-4.24743 4.277976,-3.01495 z m 191.215332,-3.99278 -1.81304,-0.37687 -1.84361,-3.72794 0.53984,-2.28159 1.80286,0.65188 1.68064,2.82143 1.54822,0.27501 0.17315,1.65008 z m 128.76708,-33.74508 0.3565,-2.26121 0.90652,1.21209 8.20964,15.13588 3.22885,3.74833 -0.33612,2.78068 1.50748,4.21687 3.62609,3.86036 1.40562,3.31034 -1.69082,1.89453 -3.43257,-0.41761 -5.55117,2.90291 -1.10006,3.28997 -1.80286,0.95745 -2.67883,-1.37506 0.29539,1.31394 -1.26302,0.26483 -2.76032,-2.5566 -3.64647,-1.42599 -0.0917,0.89633 -3.75851,1.11025 0.58058,1.20191 -0.45836,1.02874 -1.61951,-0.14259 0.13241,1.06948 4.52243,4.73634 0.94727,-1.44636 -1.1408,-5.56137 1.81305,-1.68064 7.22164,4.73634 3.93166,-2.95384 13.53673,15.38033 3.97241,7.15034 3.92148,12.03945 2.96402,2.56677 0.43799,0.70282 0.95745,2.0575 -3.49368,0.96764 0.82504,-0.98801 -0.65188,-1.72138 -1.10005,-0.72318 -0.51948,0.86579 -2.50567,-2.50568 -1.5584,-0.16297 0.38706,1.95565 -0.0713,1.72137 -0.10186,4.5428 3.89092,10.32826 -1.19172,12.43669 -2.16955,4.18631 -2.88254,13.21079 0.63151,2.13899 -2.65845,1.25284 -1.83342,6.75309 -5.3984,2.93347 0.18335,-1.03894 -2.40382,-0.63151 -0.74356,1.36487 -5.91786,0.73338 -0.83523,-1.16117 -3.01495,-0.63151 -0.17316,2.09824 -2.21029,1.5686 -11.47924,5.1132 -3.87054,-1.1408 -2.56678,-2.72975 -7.8226,0.70281 -4.10481,-2.33252 0.3565,-1.24265 -2.05751,-2.73994 -2.75012,3.56498 -4.84838,-0.82504 -0.18334,-2.10843 -2.97421,-0.95745 -1.96583,-3.35108 -6.35585,-3.14737 -1.44637,-1.99639 -2.79087,1.72137 2.04732,1.38525 0.86579,2.68902 -2.29178,2.8418 -1.52785,-0.1426 -2.38344,-3.0557 -3.49369,-0.20372 -4.20667,-2.56678 -7.87351,3.52424 -0.70282,-2.57697 1.88436,-4.94005 2.92328,-0.0102 1.79267,-2.38344 4.10482,-1.03894 1.65008,-0.36668 2.43437,-1.58897 -1.67045,-0.97782 -2.6992,-5.22525 -1.28339,-0.1324 -0.2139,-3.01496 -2.89272,-5.71416 -0.81485,-0.12222 -0.94728,1.73155 -0.8454,-0.38705 -1.23247,2.05751 -5.28636,-0.27502 -4.06407,-1.0593 -0.17316,-3.43257 -3.35107,-1.57878 -0.65189,0.72318 1.86398,2.15937 -0.98801,1.60933 -0.91671,-0.60096 -0.44817,2.60753 1.32413,-0.99819 0.31576,3.41219 2.0575,1.39544 4.50206,6.54937 -2.72975,3.22886 -6.49845,-3.01496 1.76211,-3.62609 -1.30376,-4.88912 0.47873,-9.80878 -2.73994,-2.86217 -5.32711,-0.13242 -2.80105,-4.29835 -2.31214,-1.92509 1.00837,-1.83341 -2.51585,-3.55479 1.22228,-0.72319 0.48891,-9.03468 -2.21029,-6.54937 0.14261,-1.81305 2.28157,1.08987 0.57041,-1.13061 -2.48531,-0.91672 -0.80466,-3.34089 -1.85379,1.4871 -3.10662,0.15279 -7.51702,-3.27978 0.41761,-2.83162 4.13538,-0.38705 2.97421,-1.96583 0.0815,-1.72137 -2.38344,-2.78069 -4.9706,-2.0575 1.40562,-1.15098 3.67702,0.56021 0.19353,-2.50567 -4.828,-2.18992 -6.72254,-0.67225 0.40743,-2.6992 -4.20668,-5.69378 0.7843,-1.22228 0.82504,1.81304 7.90407,6.60031 4.04371,1.77231 1.72137,-0.62133 -2.61772,-2.24085 -0.38705,-1.58896 -1.11023,0.22409 -2.68901,-1.97602 0.48891,-1.13061 2.28158,0.98801 -0.9269,-1.61952 -0.90652,0.19353 -0.89634,-1.32414 -2.65845,0.61114 -2.3427,-1.52785 -1.74175,-4.83818 -3.9113,-0.41762 -2.85198,-3.07606 -0.46853,-2.18992 2.71956,-0.59077 3.60572,2.45475 3.20849,0.4278 3.36127,-5.99936 -1.83342,-3.03533 h 3.81962 l 3.22885,-2.31214 3.94185,-0.66206 1.96583,1.03893 0.13242,6.34567 2.30196,2.86216 7.1707,1.08987 3.25941,-0.64169 11.80518,-8.5254 1.7723,-2.68902 5.28635,-1.17134 4.52244,-3.13719 4.5428,-0.68244 5.72434,-3.00477 2.14917,0.14261 1.15098,-0.70281 1.17136,-2.18992 10.19583,-1.93528 -0.41761,0.7843 0.87597,2.54641 -0.79448,2.7705 4.79744,-0.24446 0.30557,-0.94726 -1.74174,-1.59915 0.0713,-3.58535 -1.73157,-2.85198 2.7705,-0.48892 14.62661,8.33188 4.96041,5.03171 12.41632,9.2995 3.20847,3.74832 -1.08986,0.62133 -4.16593,-5.64285 -4.06408,-2.87236 -0.64169,0.59077 0.85559,1.66026 -1.2019,0.27501 -0.77411,0.83523 -1.58897,0.79448 -0.11204,1.21209 1.85379,1.47692 0.051,2.18991 2.79087,3.09645 -1.56858,1.03893 -1.18154,-0.58058 -0.78429,1.34451 1.46672,1.82323 -4.45112,-1.07968 -0.44817,2.57697 -1.52785,-0.31575 -0.72318,2.50567 -0.22409,1.20191 -0.18334,3.16774 -1.53803,3.32052 2.63808,0.45835 1.88435,-1.73156 2.26121,1.38525 3.54461,-3.64646 -1.00837,-2.00658 -1.17136,-2.99459 5.65305,1.90472 2.3427,-2.66864 2.67883,1.13061 0.0203,-0.88615 2.16955,-0.44817 0.84541,-1.36487 2.49549,-0.43799 1.92508,1.45655 1.7723,-2.13899 -0.59076,-4.27797 -7.47627,-3.81963 0.11204,-1.10005 2.94366,-1.95564 3.69738,3.71776 1.96583,-0.61114 -1.45654,-2.66864 0.33613,-3.78906 -2.09825,-3.28997 -1.33432,-6.29474 0.20372,-0.12223 4.10481,6.67161 1.23246,-2.43437 -1.81304,-1.48711 1.35469,-0.36668 -0.53984,-3.66683 -1.72137,-4.61411 -1.30377,0.82503 -2.64827,-2.03712 0.36668,-1.85379 1.08987,1.81304 z m -62.82513,-9.00411 2.87236,0.88615 0.26482,1.4871 -1.39543,1.71119 0.83522,5.2558 -0.713,1.03894 -0.33612,-5.84657 -2.57697,-4.58354 z m -122.03436,-72.61356 1.30376,0.15278 0.53984,1.19173 1.42599,-0.37687 0.87597,0.89634 0.50928,-0.69263 v 0 l 0.51947,-0.55002 v 0 l 1.39543,-0.0204 -0.71299,-0.38705 v 0 l -0.0102,-0.0713 v 0 l 5.78546,2.71957 v 0 l 0.0407,1.61952 10.38937,14.36177 -2.82143,2.02695 2.17973,0.94727 -1.16116,3.83999 5.08264,0.4991 -0.0611,1.34451 2.93347,0.0713 2.32233,10.33844 2.91309,0.51948 -0.22408,2.58715 5.66323,-0.36668 0.87596,-1.65008 1.54822,2.09825 -1.67044,2.22047 2.43437,3.01496 3.15755,-1.56859 3.28997,1.11023 0.58058,-1.42599 4.16593,2.52604 0.4278,3.39182 -1.76211,5.92806 v 0 l -13.00709,1.95565 -3.04551,-1.55841 -0.24445,2.88254 4.45113,2.26121 8.08741,-1.03893 1.42599,1.06949 1.69082,-1.22228 5.23543,7.40498 1.11023,-0.34631 3.59554,1.99638 1.23247,6.35586 1.81304,2.51585 6.67161,-1.35469 7.48646,0.82504 -9.13654,7.56793 -0.70281,3.02515 -2.85198,3.43257 -0.27501,3.16774 -1.73157,-0.79449 -3.12699,0.38706 -0.50929,3.65665 1.50748,6.0299 -2.35289,0.12224 -7.11977,-2.36308 -4.65485,4.62429 -1.93527,-1.14079 -2.57697,0.80467 -0.4278,-2.32234 -5.12339,-1.92508 -0.67225,0.85559 0.99819,1.63989 2.52604,0.14261 -1.66025,1.42599 0.91671,3.50386 -5.94843,0.15279 -3.78906,-1.13061 -4.56318,2.73994 4.49187,1.58896 7.78185,-2.25103 2.42419,1.71119 2.36307,-2.76031 3.14737,-0.45836 9.54396,9.36063 -5.62248,6.07065 -7.75129,2.53622 -0.80467,1.87416 4.115,7.97537 -2.86216,6.36604 -1.53803,-2.47511 -2.47512,-0.84542 -1.31396,0.56021 1.58898,2.42419 6.8855,1.44636 3.20847,3.60573 0.44818,3.60572 -2.53623,3.66683 1.47692,-0.0815 4.13538,6.77347 -6.14196,-1.03894 -2.43437,3.81962 -3.8298,0.99819 -0.15279,2.83162 -1.54822,0.15278 -1.13061,2.37326 3.62609,-2.26121 v -2.70939 l 3.09645,-0.67225 3.41219,-3.50387 1.47692,1.17135 1.66026,-0.66207 7.67998,5.20487 0.91672,2.80106 -0.95745,1.91491 0.51946,1.35468 -3.46312,4.44095 0.33613,6.10121 -7.78184,4.19649 -1.27321,-2.86217 -5.58174,-0.96764 -3.96222,3.87055 -8.87171,5.14376 0.91671,5.24561 1.99638,2.06769 -6.32528,-1.0593 -1.44637,1.67044 -0.12223,1.08987 -0.80466,1.45655 2.92328,-1.04912 0.56021,0.93708 1.27321,-1.16118 2.24084,2.09826 1.82324,0.35649 2.72976,4.33909 1.65007,0.56021 -0.0611,3.49368 -7.05866,7.39479 -4.79745,-0.74355 -3.43257,1.86397 -1.88435,-0.50928 -0.31574,-0.9982 -0.46855,1.57878 -0.10186,0.55003 -0.14259,1.11024 0.4991,2.1288 1.29357,0.79448 0.96764,-0.89634 1.77231,2.22047 5.42895,0.36669 7.83277,-4.11501 3.59553,-0.69262 0.0917,-1.94547 1.19172,-0.40742 3.40201,2.08806 3.33071,6.18269 3.2594,1.04913 5.66323,4.43076 6.254,0.11204 0.22408,3.2696 1.76212,1.96583 0.40742,9.10597 1.27322,0.81486 0.49909,2.37326 2.10843,1.20191 -0.63151,1.85379 -3.00477,1.54821 -6.54938,-1.55841 -1.19172,1.86398 0.22408,1.29358 3.08626,0.37687 2.10843,1.89454 0.37687,2.87235 2.23066,1.9149 0.39724,2.76032 -1.22228,2.47511 -3.59554,1.2834 -3.16774,-2.852 0.25465,-1.38524 -3.66684,-1.17135 -3.15755,0.50928 -2.70939,-1.40562 -0.34631,-1.44636 2.00658,-1.41581 0.87596,-2.0575 -2.06769,-1.02876 -0.75374,-2.05749 -5.36784,-3.00477 5.4697,-2.37327 1.57878,0.12224 1.02875,1.61951 2.6279,-1.15098 -2.90291,-3.28996 -4.56318,-1.95565 -1.42599,4.67522 -2.3427,-0.61115 -0.79448,0.98802 1.18153,-0.0305 0.61114,1.1408 -3.89092,2.15935 0.48891,2.6279 -1.61951,2.58716 -1.31395,0.78429 -2.5566,-1.32413 -0.37687,1.21209 -1.71119,-0.0611 -0.58059,1.20191 -1.46673,0.1426 -3.38164,5.65303 -7.50683,3.93167 -1.98621,-0.0102 0.0102,-1.42599 -1.31395,-1.08986 -3.63629,0.80467 -1.24265,4.4002 -2.49548,1.44636 -1.80286,3.66684 -2.00658,-1.30377 -5.05209,-0.80467 -1.32413,-0.17315 -1.93527,-0.61114 -2.87236,0.61114 -2.00658,-5.26598 1.27322,-3.08626 -0.65189,-1.49729 -12.2839,-5.19468 -14.83032,-0.20372 -4.70578,-3.54461 -9.31987,-3.9011 -7.90407,-0.58059 -4.60391,1.99639 -4.99098,-2.46493 -3.5446,0.51947 -3.106624,2.93348 -3.106626,-1.02876 -3.819622,1.00838 -6.600305,-4.30854 -6.416965,-0.28519 3.147368,-12.6404 0.162971,-5.6836 -3.850179,-13.1395 2.047317,-12.16167 5.092829,-10.10417 -0.621326,-1.24265 1.161166,-2.08806 -1.884347,-0.87597 -9.065234,0.713 -7.364231,-1.19172 -0.814852,1.88434 1.252836,4.828 -1.181536,5.18451 2.617713,3.98259 -3.137182,2.51586 -3.126997,-0.34632 1.660262,2.78068 -1.47692,0.70281 -2.913098,0.90653 -1.038938,-0.87597 -4.848372,-6.96699 v -2.91309 l 2.169545,-18.66013 1.069494,-1.83342 0.967638,-3.98259 1.507477,-1.47692 2.964026,-0.47873 -0.641696,1.97602 7.425344,0.6417 2.4853,2.14917 -0.753739,2.6279 -1.935274,1.82324 -0.641697,4.56317 8.841151,1.38525 4.787258,-0.713 0.967638,-1.6297 2.32233,0.81485 0.417612,-1.32414 -0.84541,-0.76393 -2.678828,-14.67752 -0.499097,1.36488 -0.896338,-0.27501 1.324135,-4.46133 -1.089865,-0.55002 0.05093,-2.92329 0.998195,-1.00838 -1.527849,-1.37506 1.273207,-0.44816 -2.811241,-2.12881 1.089865,-2.24084 1.232465,0.53983 -0.835224,-4.20668 0.743553,-2.79087 -2.220473,-0.74354 -7.954998,4.78725 -2.363073,5.24561 -3.595537,0.52966 -1.751933,-1.87416 0.05093,-2.13898 2.159359,-2.852 1.976017,-0.67225 4.165934,0.61114 7.252187,-4.36965 2.444559,0.76393 1.375064,-3.73813 0.142599,-2.25103 -1.92509,-4.02334 -4.787259,-19.08792 -9.951386,-7.08922 -4.563175,0.75374 -6.691977,-1.6297 -0.835224,1.72137 -3.524237,-1.54822 1.161165,-0.0917 -0.183342,-0.65189 -2.485301,-0.0611 0.77411,-1.41581 -2.770498,-4.18629 -14.066393,-15.70629 -3.340895,-5.06227 0.478725,-1.87417 2.617715,-1.29357 0.05093,-0.93709 -3.615909,-2.88253 -3.014954,-0.25464 -2.831613,3.69739 -1.650076,3.52423 0.03056,2.92329 2.15936,4.22705 2.495486,1.03893 -1.364878,2.44456 1.24265,1.99639 5.204871,4.85856 0.0713,3.75851 -1.792676,1.06949 L 16.956344,663.72717 0.41483739,655.85366 12.372799,617.52503 14.654386,602.3484 13.890461,591.63309 v 0 l 2.648271,-0.48891 v 0 l -1.395435,-3.31034 v 0 l 6.294737,1.02875 -0.122229,2.14917 6.671605,5.19469 1.833419,-1.07968 5.316913,0.12223 4.084449,-5.33729 4.115005,5.19469 6.213251,0.62133 -1.263022,0.89633 3.605723,1.85379 1.222279,2.9131 6.386407,-0.0815 2.709385,-2.69921 -0.162971,-5.68359 3.391824,-0.69262 1.334321,-2.32234 -1.976018,-4.71595 5.306728,-1.62971 3.25941,3.20848 11.723692,-3.36127 4.481689,2.63809 2.026946,5.98917 5.143757,1.94546 9.564323,-3.33071 -4.55298,-4.60392 4.0437,-2.42419 2.32233,-8.59669 2.25103,0.38706 1.34451,-3.79926 2.31214,-0.0815 11.84592,2.71957 -1.08986,9.8699 7.25219,3.72796 2.91309,-2.48531 2.28159,1.03894 1.76212,-3.57516 1.701,1.5584 3.72795,-8.20964 2.85199,1.9862 4.56317,-3.57516 6.44752,-8.33187 -0.0815,-3.50387 3.41219,-6.01972 5.3271,0.30557 3.32052,3.81962 z"
     class="land"
     title="Syddanmark"
     id="DK-83"
     inkscape:connector-curvature="0"
     style="fill:#07bada;fill-opacity:1;stroke:#ffffff;stroke-width:0.50928289;stroke-opacity:1" />
  <g
     id="stadiums"
     data-country="denmark"
     data-circle-radius="6"
     data-circle-colors="#a149be,#bea149"
     transform="matrix(0.99743365,0,0,0.99743365,0.62396519,18.972751)" />
</svg>
