<?xml version="1.0" encoding="UTF-8" standalone="no"?>
<?xml-stylesheet type="text/css" href="/styles/home.css"?><!-- https://www.amcharts.com/svg-maps -->

<svg
   xmlns:dc="http://purl.org/dc/elements/1.1/"
   xmlns:cc="http://creativecommons.org/ns#"
   xmlns:rdf="http://www.w3.org/1999/02/22-rdf-syntax-ns#"
   xmlns:svg="http://www.w3.org/2000/svg"
   xmlns="http://www.w3.org/2000/svg"
   xmlns:sodipodi="http://sodipodi.sourceforge.net/DTD/sodipodi-0.dtd"
   xmlns:inkscape="http://www.inkscape.org/namespaces/inkscape"
   version="1.1"
   id="map-estonia"
   viewBox="0 0 1000 1000"
   width="1000"
   height="1000"
   class=""
   sodipodi:docname="estonia.svg"
   inkscape:version="0.92.4 (5da689c313, 2019-01-14)">
  <metadata
     id="metadata24">
    <rdf:RDF>
      <cc:Work
         rdf:about="">
        <dc:format>image/svg+xml</dc:format>
        <dc:type
           rdf:resource="http://purl.org/dc/dcmitype/StillImage" />
        <dc:title></dc:title>
      </cc:Work>
    </rdf:RDF>
  </metadata>
  <sodipodi:namedview
     pagecolor="#ffffff"
     bordercolor="#666666"
     borderopacity="1"
     objecttolerance="10"
     gridtolerance="10"
     guidetolerance="10"
     inkscape:pageopacity="0"
     inkscape:pageshadow="2"
     inkscape:window-width="1920"
     inkscape:window-height="1017"
     id="namedview22"
     showgrid="false"
     showguides="true"
     inkscape:guide-bbox="true"
     inkscape:zoom="1.0912541"
     inkscape:cx="51.596041"
     inkscape:cy="407.93376"
     inkscape:window-x="-8"
     inkscape:window-y="-8"
     inkscape:window-maximized="1"
     inkscape:current-layer="map-estonia">
    <sodipodi:guide
       position="1149.1366,500"
       orientation="0,1"
       id="guide836"
       inkscape:locked="false"
       inkscape:label=""
       inkscape:color="rgb(0,0,255)" />
  </sodipodi:namedview>
  <defs
     id="defs4">
    <style
       type="text/css"
       id="style2">
			.land
			{
				fill: #7795cb;
				fill-opacity: 1;
				stroke:white;
				stroke-opacity: 1;
				stroke-width:0.5;
			}
         .rectangle:hover {
         fill: #bdbdbd;
         cursor: pointer;
         }
		</style>
    <!-- <amcharts:ammap projection="mercator" leftLongitude="21.770501" topLatitude="59.668926" rightLongitude="28.208948" bottomLatitude="57.509646"></amcharts:ammap> -->
    <!-- All areas are listed in the line below. You can use this list in your script. -->
    <!--{id:"EE-84"},{id:"EE-65"},{id:"EE-44"},{id:"EE-78"},{id:"EE-51"},{id:"EE-86"},{id:"EE-67"},{id:"EE-59"},{id:"EE-39"},{id:"EE-57"},{id:"EE-82"},{id:"EE-49"},{id:"EE-70"},{id:"EE-74"},{id:"EE-37"}-->
  </defs>
  <path
     d="m 622.88146,474.97729 0.57227,6.99814 -2.30546,4.38201 3.51542,0.62134 0.88294,5.86993 -1.65143,2.86139 -2.64882,0.049 -3.0249,2.50167 1.25901,2.32181 11.34745,1.84764 8.45336,-1.78224 10.95503,4.65998 1.30807,3.66258 -1.50428,2.40357 1.89669,1.04644 -0.0327,2.9922 1.58603,-0.35972 2.92679,2.79599 3.71163,-2.73059 0.71943,10.301 8.51877,7.32515 1.84763,-1.48792 8.35526,8.96024 v 0 l 2.27276,3.31921 0.16351,4.57822 4.21851,11.21665 -2.66518,-0.44147 -2.17467,1.71683 -2.10924,5.26495 -14.86288,15.84392 3.66258,60.98845 v 0 l -7.04719,0.0982 -1.22631,2.43626 -6.01709,1.52063 -0.0981,1.74953 -2.35452,1.47158 -6.01709,-0.26162 -0.68673,-5.51021 -2.84504,-5.19956 -4.85619,-3.1884 -3.48271,0.0163 2.33816,5.34671 -5.1178,2.50166 0.17986,2.81234 0.88295,1.19361 1.84763,-3.58082 0.85025,5.60832 -2.55073,-0.0654 0.39242,1.84764 -3.25381,1.24266 0.14716,1.89669 -2.41992,-0.44147 -0.75213,2.58343 -1.19361,-0.78484 -2.59978,2.59977 -5.15049,-0.35971 1.63508,2.06019 -9.48347,11.41286 -2.27275,-2.55073 h -9.36901 l -1.27536,1.65143 3.56447,8.61687 -5.69007,11.65811 v 0 l -2.37087,-4.38201 -3.17205,3.23746 -1.06281,-3.15571 -4.83983,1.78225 -1.32441,-0.8666 1.16091,-3.33556 -5.49387,1.29171 -6.37682,-5.49386 3.38462,-2.71424 -2.0929,-2.84503 -6.55666,-4.44742 -6.98179,-0.34336 -4.51282,-8.32256 -6.94909,-7.03084 -4.26756,5.65738 6.40951,9.04198 -0.57227,10.93868 -2.53438,1.20996 -4.03865,-0.9974 -4.67632,-6.75288 2.55073,-0.70308 -1.73319,-1.52062 -1.53697,0.85024 -1.01375,-5.26495 1.48792,-3.36827 -1.55332,0.78484 -1.81494,-4.65997 1.0955,-4.18581 -1.88034,-1.73319 -2.32181,0.85025 0.55592,2.06019 -12.86807,-0.47417 -0.57227,3.28651 -3.51543,0.0818 -5.49387,7.48867 v 0 l -1.71683,-2.0929 -0.80118,-6.1479 -2.33817,-1.27536 1.58603,-5.41212 6.2787,-3.51541 -1.52062,-2.20736 0.40877,-2.74694 6.37681,0.0818 1.58602,2.0275 0.75214,-1.92939 1.68413,0.0163 0.65403,1.94574 0.9974,-4.95428 -4.64362,-3.49908 0.0818,-2.58343 2.0929,0.35973 0.8993,-1.68414 -1.17726,-4.36566 1.22631,-1.17725 1.20996,2.04384 1.03009,5.88629 2.01116,-1.94574 -1.25902,-5.0851 2.73059,-0.9974 0.55592,-2.9922 h -2.2237 l 0.0981,-1.65143 2.91044,-1.84763 4.38201,0.85024 3.48272,-3.43367 2.91044,3.87514 0.0327,-2.20736 2.27276,-1.29171 0.0654,-5.72278 -2.22372,-6.1806 4.67634,-2.64883 -1.34077,-7.07989 -13.424,-2.20735 -3.84243,-8.58417 -2.59978,-1.58603 -5.1505,2.45262 -0.91564,-3.80973 -1.12821,1.27536 -7.53771,-2.66518 -9.1728,2.04385 -1.35712,-6.1152 2.41992,-16.04012 -0.45782,-8.15905 2.04385,1.0628 2.84504,-3.80973 -0.86659,-14.56856 3.0249,-1.73318 0.65402,-4.26756 5.82088,-0.81754 1.43887,-3.1884 6.39317,-1.0955 3.94053,-4.62728 1.91305,1.88035 2.27276,-1.7332 -0.0654,-4.95428 2.61613,-1.71683 -0.58862,-2.38722 9.10738,-1.89669 -2.24006,-1.71683 -0.93199,-9.00929 -2.17466,0.53958 0.50688,-3.80974 5.03604,-2.61613 v 0 l 1.40617,2.32182 6.72018,0.88293 1.71683,1.96211 5.64102,-1.66778 1.43887,2.97584 2.76329,0.24526 3.84243,-2.10926 9.12375,1.9621 2.09289,-1.63507 -0.76848,-1.7986 3.95689,-0.0163 3.97324,-4.43106 2.27276,3.41732 1.9948,-1.48792 -1.56968,-1.52063 2.74694,-2.14195 5.42846,1.1282 3.38461,-3.77703 5.44482,-0.75214 2.35451,-5.59197 8.73133,-0.68674 8.09363,-3.43366 z"
     class="land"
     title="Viljandimaa"
     id="EE-84"
     inkscape:connector-curvature="0"
     style="fill:#7795cb;fill-opacity:1;stroke:#ffffff;stroke-width:0.81753957;stroke-opacity:1" />
  <path
     d="m 753.7532,643.4722 5.23224,-1.73319 -0.32701,-2.76328 2.68153,-2.81234 -2.45262,-1.37346 0.32701,-1.50428 2.32182,0.40877 -2.9922,-4.18579 0.71943,-4.0877 5.80453,1.40617 5.96805,-3.76069 1.78224,3.61353 -1.19361,3.67892 1.92939,-1.94574 1.71683,1.22631 0.50688,-1.73319 4.56187,-2.66517 3.0903,-0.17986 1.81493,2.32181 -0.19621,-2.10925 6.19696,-4.97064 1.01374,-7.58677 4.10405,-6.40952 1.30807,-0.44146 1.63507,2.51802 0.27797,4.1531 2.27276,-3.41732 2.86139,0.76849 1.17726,-1.79858 3.123,0.65403 0.34336,4.0877 4.13675,-1.25902 1.43887,-2.09289 1.17726,2.3545 2.63248,-2.56706 0.71943,-7.50502 4.26756,1.53697 1.96209,3.79339 7.11259,-1.76589 0.85025,-4.88889 1.81493,0.17987 3.04125,3.97323 11.06949,0.0982 0.52322,1.76589 5.55927,0.63768 -1.27536,6.2787 12.18134,2.55072 0.89929,-1.40616 5.44482,3.67893 3.90784,-0.88295 1.86399,4.49647 15.6477,1.9294 v 0 l 11.02044,19.88255 5.44482,6.31141 -4.13675,13.47305 1.96209,13.30954 5.64102,3.49908 -0.78484,-6.83463 6.19696,4.03864 0.85023,4.43107 -2.86139,4.92158 1.0301,3.72799 -4.16945,1.70048 4.07135,6.06614 -0.0981,2.59978 5.1832,1.14455 -0.37607,2.9595 -2.79599,1.22631 1.55332,1.60237 3.8915,-1.56967 5.36306,3.64622 3.45001,-1.56968 3.59718,0.57229 0.89929,2.37086 -1.32442,1.34076 0.67039,6.72018 -3.38461,3.46636 0.44147,2.56708 -1.06281,-0.67038 -1.99479,2.87774 -2.38722,-0.52323 -3.02489,1.78224 -5.06875,-4.80714 -3.62987,3.25381 -9.35266,-1.71683 -11.82162,2.35452 v 0 l -6.91639,0.52322 -9.27089,-2.51802 -7.39056,0.42512 -3.04125,0.85024 -3.89149,5.1832 -0.55592,-2.22371 -1.70049,0.62133 -1.60238,-2.27276 -2.53436,-0.22891 -0.63769,-3.58082 -5.03604,-0.21256 2.71424,-9.07469 1.83128,0.63768 4.72538,-4.98699 0.35971,-2.28911 -4.56187,-2.10926 0.52323,-3.12299 -1.76589,-0.0817 -0.65403,5.51022 -4.98699,-3.0576 -3.48272,0.83389 -4.44741,-2.76329 0.24526,-1.25901 -4.41471,0.91565 -1.07916,-3.1884 -2.94314,0.96469 -3.1557,-7.14529 -2.92679,0.32701 -1.03011,-2.95949 -4.38201,4.44742 -2.27275,-1.63508 -2.41992,3.02489 4.87253,9.00929 -5.2486,-1.04646 -0.049,-1.22631 -7.96284,-0.0817 -0.60497,-1.40617 -0.85025,1.25901 -2.69788,-1.60237 -0.60498,-6.01709 -11.26569,6.75288 v -2.63248 l -1.58603,-0.0327 -4.33296,1.32441 -2.45262,-0.94835 -5.1832,2.77964 -2.25641,-3.90784 h -3.31921 l -2.74693,2.30546 -0.88295,-2.48532 -3.2538,-0.19621 -3.53178,-3.04125 -3.97323,2.77964 -3.85879,0.16351 -0.78485,-1.38982 -4.65997,1.56967 -3.59717,-2.97584 0.45782,-1.55332 -3.61352,0.24526 -0.17987,-2.97585 -1.45522,-0.35971 v 0 l 3.09031,-9.36901 -2.94314,-4.44742 3.43366,-5.11779 0.22891,-4.82349 -1.61873,-0.67038 0.68673,-4.65997 -1.94574,0.88294 -0.45782,-4.13675 3.71163,-5.88629 2.15831,-9.27089 z"
     class="land"
     title="Põlvamaa"
     id="EE-65"
     inkscape:connector-curvature="0"
     style="fill:#7795cb;fill-opacity:1;stroke:#ffffff;stroke-width:0.81753957;stroke-opacity:1" />
  <path
     d="m 775.6142,230.84363 20.38944,16.00742 8.10998,3.31921 15.77852,1.0955 26.65179,-3.13935 24.21553,-0.98105 24.36268,6.06615 1.24266,1.61872 8.04458,2.32182 22.48234,-0.35972 3.07395,4.20216 7.35786,1.94574 8.43701,-2.40357 8.4043,0.35972 3.15571,-1.61873 9.02563,-7.66852 7.63582,-12.19769 1.04645,2.22371 7.07989,3.53177 4.26756,4.44742 2.45262,5.75547 9.25454,7.16165 1.66785,3.95689 -0.098,5.98439 -5.96805,8.84578 -6.16424,13.26049 -11.06949,-0.0654 -10.95503,5.10145 -4.3166,0.53957 -7.83204,8.48606 -3.28651,18.13303 -3.77703,7.3088 -9.05834,10.72612 0.68674,5.00334 -3.25381,4.70904 0.42512,6.57301 -2.58342,3.00854 -1.06281,8.40431 -3.27015,1.47157 -1.19361,14.76476 -44.55591,43.85283 v 0 l -18.65625,-6.91638 -21.41954,-2.87774 -38.01559,-0.17986 -2.50167,-1.01375 -1.83129,-4.21851 -3.87514,-2.73058 -8.76402,-1.34077 -0.88295,2.79599 -11.98512,2.12561 -2.9595,-7.55407 0.88295,-6.09885 -2.28912,-1.71683 1.47158,-3.54812 -4.20216,-2.97584 -0.45782,-2.61613 v 0 l 3.9569,-3.51542 7.50501,-1.32441 2.97584,-4.0877 -0.31066,-8.87848 3.2538,-2.97585 -2.10925,-2.43626 1.56968,-24.90226 1.83129,0.88294 4.44741,-5.31401 5.73913,-0.67038 0.67038,-2.20736 2.10925,3.09031 3.23746,-0.14716 1.0955,-8.42065 1.79859,-0.0982 -0.73578,-4.95429 -2.9595,-0.932 1.66778,-3.38461 -1.78224,-4.055 -12.68821,-6.65477 1.11185,-1.48792 -1.06279,-8.48606 -13.21145,7.3088 -1.37346,-8.12634 -1.65144,0.0981 1.25901,-6.94909 -1.06279,-1.38982 3.51542,-3.76067 1.81493,-6.98179 1.48792,0.35971 0.75214,-2.86138 2.94315,0.76849 1.35711,-2.76329 -6.45856,-3.61353 -5.64103,0.81755 -1.79858,-2.43627 -2.10925,1.88034 -1.9948,-1.42252 8.2081,-7.66852 -3.90785,-8.06094 4.31661,-2.01115 2.06021,2.71423 3.53177,0.60499 -1.12821,-16.87402 -4.1858,-8.42066 0.0163,-3.0249 v 0 z"
     class="land"
     title="Ida-Virumaa"
     id="EE-44"
     inkscape:connector-curvature="0"
     style="fill:#7795cb;fill-opacity:1;stroke:#ffffff;stroke-width:0.81753957;stroke-opacity:1" />
  <path
     d="m 874.91256,475.45147 23.38163,95.76658 -10.18654,18.52545 0.39241,22.8257 5.83723,11.1676 v 0 l -15.6477,-1.9294 -1.86399,-4.49647 -3.90784,0.88295 -5.44482,-3.67893 -0.89929,1.40616 -12.18134,-2.55072 1.27536,-6.2787 -5.55927,-0.63768 -0.52322,-1.76589 -11.06949,-0.0982 -3.04125,-3.97323 -1.81493,-0.17987 -0.85025,4.88889 -7.11259,1.76589 -1.96209,-3.79339 -4.26756,-1.53697 -0.71943,7.50502 -2.63248,2.56706 -1.17726,-2.3545 -1.43887,2.09289 -4.13675,1.25902 -0.34336,-4.0877 -3.123,-0.65403 -1.17726,1.79858 -2.86139,-0.76849 -2.27276,3.41732 -0.27797,-4.1531 -1.63507,-2.51802 -1.30807,0.44147 -4.10405,6.40951 -1.01374,7.58677 -6.19696,4.97064 0.19621,2.10925 -1.81493,-2.32181 -3.0903,0.17986 -4.56187,2.66518 -0.50688,1.73318 -1.71683,-1.22631 -1.92939,1.94574 1.19361,-3.67892 -1.78224,-3.61353 -5.96805,3.76069 -5.80453,-1.40617 -0.71943,4.0877 2.9922,4.1858 -2.32182,-0.40878 -0.32701,1.50428 2.45262,1.37346 -2.68153,2.81234 0.32701,2.76328 -5.23224,1.73319 v 0 l -0.37608,-1.63508 -2.92679,0.40877 -0.0327,-3.97324 -5.06874,-1.81494 -0.0654,-3.43367 -1.73319,-1.52062 -10.08844,-0.17986 -1.55332,2.76329 -2.91044,0.34336 -4.07134,3.13935 -1.65144,-1.22631 -1.86399,0.88295 -1.50427,-7.58677 -1.73318,0.98104 -3.84244,-1.91304 -6.04979,11.80527 -6.85098,-1.40617 -2.0929,6.83464 -18.91787,-1.38982 -0.73579,-1.96209 -3.40096,0.91564 -0.9647,2.07655 -0.932,-2.51802 -3.27015,1.14456 -3.04125,-1.50428 v 0 l -3.66257,-60.98845 14.86287,-15.84392 2.10924,-5.26495 2.17467,-1.71683 2.66518,0.44147 -4.21851,-11.21665 -0.16351,-4.57822 -2.27276,-3.31921 v 0 l -0.14716,-2.58342 1.55333,-0.53958 1.58602,-4.88889 3.27016,3.41731 2.61613,-1.92939 2.77963,1.68413 13.4567,-10.07208 4.03865,-1.22631 1.34076,-2.69788 5.70643,2.14195 0.67039,4.38201 2.68152,1.55333 -0.88294,-1.84764 1.78224,-4.88889 2.45262,-1.92939 5.72278,-0.24526 4.64362,2.51802 1.17726,-1.53697 -1.79859,-1.12821 1.91304,-1.68413 7.01449,-0.80119 -3.38462,3.53178 4.1531,2.04384 2.51803,-2.46897 7.12894,6.1152 6.40951,-3.56448 -1.45522,-1.65142 0.19622,-3.20476 3.67892,-5.26496 -1.0628,-2.10924 7.96284,7.66852 4.16945,-2.22372 0.29431,-2.68153 2.51803,1.63509 2.68153,-2.04385 3.49906,1.0301 1.84764,-2.33817 3.41732,-0.47417 -0.68674,-2.50167 3.9569,-0.26161 1.71683,-16.89037 10.61167,3.30286 4.79078,4.46377 1.11185,-1.43887 2.07655,1.45522 0.67039,-2.48532 3.05759,3.17205 0.16351,2.41992 3.61352,0.81753 0.24527,-3.67892 -2.37087,-4.79078 1.12821,-2.22371 -0.98105,-1.84764 -2.32182,0.55592 -0.19621,-1.96209 6.49127,-1.60237 2.68153,-3.22112 2.58342,1.40617 1.55332,-3.51541 -0.98104,-2.28912 47.97322,-15.30433 v 0 z"
     class="land"
     title="Tartumaa"
     id="EE-78"
     inkscape:connector-curvature="0"
     style="fill:#7795cb;fill-opacity:1;stroke:#ffffff;stroke-width:0.81753957;stroke-opacity:1" />
  <path
     d="m 553.42329,384.09959 2.0275,-5.29766 1.70048,-0.60497 2.63248,2.10925 4.10405,-4.62728 1.48792,-11.26569 -3.35191,-5.29765 4.56188,-4.07135 2.40355,0.932 3.82609,5.93533 4.43107,-9.46711 -6.73653,-4.00595 2.43627,-5.73912 -1.55333,-3.23746 8.63322,-11.24935 3.90784,-10.18654 -3.74433,-9.94128 -5.42847,-6.60571 5.24861,-0.11446 4.61092,1.96209 7.48866,-3.56446 8.94388,5.75547 2.25642,-1.42252 -0.0327,-4.51282 4.34931,-0.0654 3.2211,-2.97584 6.90004,0.45783 4.95429,-4.25121 16.12188,2.55073 4.49647,5.2486 v 0 l 0.58862,2.59978 -2.20735,0.73578 0.049,2.1256 4.48012,0.47417 -0.78485,8.63322 3.0249,-1.38982 3.13936,2.09291 -1.60239,3.62987 -2.45261,1.14456 1.34077,2.09291 -1.63508,2.3218 3.13935,0.0327 2.74693,2.73059 2.71424,-2.1583 2.09289,0.58862 1.47157,7.12895 -4.33296,3.45001 -1.71683,8.56782 -2.61612,-0.17986 -2.25642,2.41992 -1.65143,10.5299 -3.45001,4.07135 1.43887,2.94315 1.48792,-2.71424 2.32182,3.04125 2.14195,-3.30286 4.88888,4.93794 5.34671,-1.24266 1.58603,0.9647 1.9948,2.17466 1.74953,7.83202 4.13675,1.29171 0.85024,4.0877 7.2107,4.25121 -0.76848,3.98959 2.17465,5.91899 2.07655,0.81753 -0.80119,5.31401 1.71683,3.74434 -2.55072,6.57301 0.93199,2.64883 v 0 l -0.0818,2.63248 -2.1583,-1.04645 -4.055,6.3768 1.55333,1.19361 0.89929,6.0498 -12.90077,1.61873 -3.23747,1.76588 -1.88033,-1.01375 -1.53698,5.0524 -5.1178,-0.76849 -2.74692,2.66518 2.2237,7.22705 -0.21256,5.31401 -6.16425,4.43106 -1.40616,-3.94054 -3.72799,-2.55073 -2.50167,0.34337 0.40877,3.69528 -2.79598,3.10665 -5.1178,-0.35972 1.17726,5.91899 -4.62728,3.0903 -0.31066,1.88035 -1.74954,-0.40878 -2.38721,7.2434 v 0 l -2.09291,2.46897 -8.09363,3.43366 -8.73133,0.68674 -2.35451,5.59197 -5.44482,0.75214 -3.38461,3.77703 -5.42846,-1.1282 -2.74694,2.14195 1.56968,1.52063 -1.9948,1.48792 -2.27276,-3.41732 -3.97324,4.43106 -3.95689,0.0163 0.76848,1.7986 -2.09289,1.63507 -9.12375,-1.9621 -3.84243,2.10926 -2.76329,-0.24526 -1.43887,-2.97584 -5.64102,1.66778 -1.71683,-1.96211 -6.72018,-0.88293 -1.40617,-2.32182 v 0 l 1.83129,-1.48792 7.43962,-21.7302 -7.48867,-4.13675 -8.78038,-1.37347 v 0 l 2.01116,-11.2657 2.56706,-1.45522 -5.64101,-10.13749 0.99739,-2.1256 3.2538,1.04646 2.33817,-4.93795 3.48272,-2.56707 -1.1609,-1.73318 4.00593,-7.88108 -2.12559,-2.79599 -2.0275,0.0981 -2.35452,-3.80974 3.31921,-7.12895 7.03084,-4.20215 1.42252,-10.87327 -3.85879,-5.91899 z"
     class="land"
     title="Järvamaa"
     id="EE-51"
     inkscape:connector-curvature="0"
     style="fill:#7795cb;fill-opacity:1;stroke:#ffffff;stroke-width:0.81753957;stroke-opacity:1" />
  <path
     d="m 745.00551,691.75609 1.45522,0.35971 0.17987,2.97585 3.61352,-0.24526 -0.45782,1.55332 3.59717,2.97584 4.65998,-1.56967 0.78484,1.38982 3.85879,-0.16351 3.97323,-2.77964 3.53178,3.04125 3.2538,0.19621 0.88295,2.48532 2.74693,-2.30546 h 3.31921 l 2.25641,3.90784 5.1832,-2.77964 2.45262,0.94835 4.33296,-1.32441 1.58603,0.0327 v 2.63248 l 11.26569,-6.75288 0.60498,6.01709 2.69788,1.60237 0.85025,-1.25901 0.60497,1.40617 7.96284,0.0817 0.049,1.22631 5.2486,1.04646 -4.87253,-9.00929 2.41992,-3.02489 2.27275,1.63508 4.38201,-4.44742 1.03011,2.95949 2.92679,-0.32701 3.1557,7.14529 2.94314,-0.96469 1.07916,3.1884 4.41471,-0.91565 -0.24526,1.25901 4.44741,2.76329 3.48272,-0.83389 4.98699,3.0576 0.65403,-5.51022 1.76589,0.0817 -0.52323,3.12299 4.56187,2.10926 -0.35971,2.28911 -4.72538,4.98699 -1.83128,-0.63768 -2.71424,9.07469 5.03604,0.21256 0.63769,3.58082 2.53436,0.22891 1.60238,2.27276 1.70049,-0.62133 0.55592,2.22371 3.89149,-5.1832 3.04125,-0.85024 7.39056,-0.42512 9.27089,2.51802 6.91639,-0.52322 v 0 l 1.61873,0.65402 -0.71943,2.37087 -1.22632,-0.0818 1.35712,2.1583 -2.95949,2.28911 0.16351,4.13675 -6.246,1.30807 2.71423,3.74432 -0.71944,2.91044 3.0903,2.55073 -2.30546,1.76588 2.58342,0.17987 -0.13081,2.58342 2.43627,2.0275 -2.74693,1.50427 -0.58862,5.57563 -2.19102,-0.78485 -1.73318,1.56968 -0.78484,-5.16685 -4.07134,4.52917 -2.86139,-2.15831 -2.68153,2.20736 -0.21256,2.76329 -2.45262,0.0327 -6.246,9.69601 1.71683,3.12301 -0.52323,2.81234 2.9922,2.89409 -1.56968,4.69267 2.43627,1.50427 -3.95689,4.13676 -4.23486,0.65402 -4.59457,5.44482 4.20216,17.05388 -10.93868,-5.69008 -2.69788,-3.13935 -3.49907,0.45782 -1.92939,-1.73318 -4.9216,0.67037 -11.36379,-2.74693 -5.96805,-4.56187 -6.09884,-1.35711 -1.53697,-1.0955 1.1282,-3.41732 -1.97844,-2.1583 -5.52657,-0.11446 -2.59978,-2.17466 -1.48792,2.41992 -3.35191,0.70308 -1.07915,-1.99479 1.47157,-3.0903 -3.82609,-3.79338 -2.71423,-0.0817 -6.63842,5.0197 -0.86659,6.60571 -3.72799,2.86139 -5.05239,0.24526 -1.20996,2.46897 -1.30806,-0.0981 -1.52062,3.79339 -2.9595,-0.45783 2.19101,-3.72798 -5.52657,-3.30286 -0.80119,5.1178 -3.2211,0.52322 -1.86399,-1.32441 -0.16351,1.40616 -3.51542,0.29432 -0.68673,1.32441 1.34077,1.06281 -4.25121,0.60498 -5.73913,7.48866 -0.049,5.51022 -3.74434,-2.10926 -0.58862,-6.32775 -3.38462,2.92679 -0.78483,4.75808 -9.18915,-3.53177 -4.70903,-14.68302 v 0 l 2.71423,-4.62727 -5.82088,-0.52322 0.67038,-1.29171 2.04385,0.83389 4.72538,-8.73133 -8.69862,-7.29245 9.74507,-12.54105 -0.71944,-3.71164 -1.73318,-0.17985 0.0327,-2.89409 -2.84503,1.76588 -0.049,-2.95949 -3.2538,-4.52917 0.55592,-1.94574 3.58083,-0.34338 2.79599,-2.3218 -1.81495,-5.23226 2.06021,-0.68673 0.0817,-3.40097 -3.17205,-1.52062 -5.77183,2.73058 -0.35973,-3.2538 -3.30285,-3.36826 2.17466,-3.58083 -2.51803,-7.2434 3.54812,-3.33556 -2.66518,-4.0223 -3.56447,-0.17985 -3.92419,-2.68154 3.30287,-1.22631 0.93198,-3.87514 2.79599,-2.53436 -0.52322,-5.33036 -2.55073,-2.10926 1.73318,-3.54812 3.66259,1.63508 3.58081,-2.01114 4.72539,0.80118 0.17986,-2.91044 1.94574,-1.63508 2.24006,1.29171 z"
     class="land"
     title="Võrumaa"
     id="EE-86"
     inkscape:connector-curvature="0"
     style="fill:#7795cb;fill-opacity:1;stroke:#ffffff;stroke-width:0.81753957;stroke-opacity:1" />
  <path
     d="m 346.71659,633.64537 3.123,0.91565 -2.1583,10.48085 -2.59978,4.48012 -3.1557,1.07915 -2.76328,-6.18059 1.47157,-9.45077 z m 21.40319,-20.45484 -2.28912,4.93795 -3.49906,0.99739 0.68672,-2.84504 1.68413,0.40878 4.41472,-6.44222 z m -1.20996,-140.78032 8.55146,7.35787 7.35786,-2.56708 23.28352,8.33891 4.75808,-4.93795 6.73653,-2.64883 2.14196,-2.68153 1.48792,-7.42326 6.08249,-3.49906 2.84504,-3.54813 6.42585,4.9543 -2.59977,2.59978 0.71944,2.63247 4.43106,-0.65403 9.59792,-5.24861 3.95688,-7.76662 3.94055,1.84763 2.50167,-0.98104 6.81828,4.51282 3.98959,-1.30806 1.0955,1.37346 2.58343,-0.65403 2.40357,-3.67893 4.46377,-2.82868 8.58416,6.96544 -1.56967,13.06428 2.1583,7.86472 1.35711,0.47418 2.22371,-1.04645 1.1936,-5.54292 5.86995,-8.04459 2.191,0.47418 2.64883,-1.94576 1.47157,2.02751 2.81234,-0.75214 2.99219,-4.33296 -0.85025,-1.11186 13.94723,3.00856 7.53771,-1.84765 v 0 l 8.76403,1.37347 7.50502,4.1531 -7.45597,21.71385 -1.83129,1.48792 v 0 l -5.01968,2.61613 -0.50688,3.80974 2.17466,-0.53958 0.93198,9.00929 2.25642,1.73318 -9.10739,1.89669 0.58862,2.37087 -2.61612,1.71683 0.0817,4.95428 -2.28911,1.71685 -1.91305,-1.864 -3.94053,4.62727 -6.39316,1.09551 -1.43887,3.17205 -5.82088,0.83389 -0.65403,4.26756 -3.0249,1.71683 0.86659,14.56855 -2.84504,3.80974 -2.04384,-1.0628 0.45782,8.15905 -2.41993,16.04012 1.35712,6.11519 9.1728,-2.04384 7.53771,2.64883 1.12821,-1.27536 0.91564,3.80972 5.13415,-2.45261 2.61613,1.58603 3.84243,8.58416 13.40766,2.20736 1.35711,7.06354 -4.69268,2.64883 2.24006,6.1806 -0.0654,5.73912 -2.27277,1.29172 -0.0327,2.20736 -2.89409,-3.87514 -3.48271,3.43366 -4.38201,-0.85024 -2.91045,1.84764 -0.0981,1.65143 h 2.2237 l -0.55592,2.99219 -2.73058,0.99741 1.25901,5.0851 -2.01114,1.94574 -1.03011,-5.86994 -1.20996,-2.0602 -1.22631,1.17726 1.17726,4.38201 -0.8993,1.66778 -2.09289,-0.35972 -0.0981,2.58343 4.65998,3.49906 -1.01376,4.9543 -0.65402,-1.92939 -1.66778,-0.0327 -0.76849,1.92939 -1.58603,-2.02751 -6.3768,-0.0817 -0.40878,2.76329 1.52062,2.20736 -6.2787,3.51541 -1.58602,5.42847 2.33816,1.25901 0.78483,6.1479 1.71684,2.10925 v 0 l -5.62468,7.52136 -8.73132,0.62133 -16.07283,10.64437 -2.71423,0.73578 -3.46636,-5.08509 -10.2356,2.27276 -0.14715,5.16685 -4.38201,0.9974 -3.38462,4.15309 -2.81234,-3.46636 -3.84243,0.34336 -4.0877,5.11781 -5.86993,-5.72278 -6.60573,4.79078 -3.04124,-0.26161 -1.91304,4.52916 -7.47231,1.78224 -2.48533,4.23485 2.20736,1.27537 -1.0955,2.53437 1.06279,5.13415 -7.2761,4.02229 -1.12819,-1.78223 -7.75028,-0.75213 0.63768,-5.82088 4.15309,-8.30621 0.27798,-7.99554 2.50166,-8.10999 2.56708,-6.19695 3.62988,-2.82869 5.55927,-18.52545 v -5.54291 l -2.25642,-3.25381 1.88034,-4.59457 -0.50687,-3.84244 1.30806,-0.32702 -1.71683,-3.20475 1.0628,-1.88034 -1.9948,-7.2761 -2.09289,0.37607 3.05759,-9.99034 -1.45522,-1.61873 2.48532,-2.58342 0.60498,-4.30026 -2.40357,-2.86139 13.12969,-9.15644 3.92419,-4.52917 1.40617,-8.01189 -0.98105,-3.71163 -7.35786,-10.41546 -6.78558,-2.06019 -1.91304,-2.68153 -9.51615,-1.47157 -16.15459,2.30545 -2.86139,4.75809 -0.32702,11.21665 -4.05499,12.32849 1.07915,1.97845 -11.38015,2.02749 -2.37087,1.65143 -1.73318,-1.83129 -2.87774,5.10145 -5.01969,3.64623 -0.71944,3.59717 -0.52322,-3.20476 -6.19695,-3.30285 -9.63062,-20.50389 -2.07655,0.37606 0.47418,6.98179 -1.9621,-4.1204 -1.20995,-0.80119 0.1308,2.24006 -4.52917,-6.45857 -2.20736,1.71684 -3.85879,-2.77963 -1.42252,4.90523 -4.03863,-2.46897 -6.13156,-11.00408 -2.50166,3.58082 0.89929,2.56708 -1.63508,0.37606 -2.74694,-2.3872 -1.07915,0.91563 -3.53177,-3.84243 -0.70309,6.34411 -2.01114,-0.8339 -2.17465,-3.48271 0.86659,-3.69529 -4.26756,-7.25975 -5.93534,-17.92046 2.20736,-10.54626 -1.66779,-2.76328 1.61874,-2.61613 -1.864,-2.95949 0.8993,-4.70904 -1.60237,0.76849 -0.49053,-1.83128 -1.1282,3.59717 -2.10926,0.76849 0.21256,-1.38982 -1.83129,0.39242 -4.1858,-5.64103 -0.67038,0.71944 v 0 l 2.81234,-3.77703 3.89148,2.61613 2.30547,-2.40357 4.02229,-0.71943 2.64883,0.26161 4.88889,4.10405 1.81493,-2.28912 3.35192,1.30807 1.35711,-2.22371 4.75808,-1.56968 0.96469,-2.64882 5.67373,2.07655 1.43887,-1.71684 5.06875,0.57228 2.56707,1.78223 -0.0654,-4.00593 -6.94909,-11.82163 -0.31066,-1.42252 2.41991,-1.48792 -3.66257,-7.58677 1.0628,-0.62133 3.61352,3.0903 -0.34336,1.48792 8.63322,5.03604 2.02749,-4.85618 4.64362,-2.32181 -1.66778,-13.93087 3.0249,-1.73318 1.88035,3.30285 5.49386,1.11186 -0.53958,-1.34077 8.02825,-1.30806 z"
     class="land"
     title="Pärnumaa"
     id="EE-67"
     inkscape:connector-curvature="0"
     style="fill:#7795cb;fill-opacity:1;stroke:#ffffff;stroke-width:0.81753957;stroke-opacity:1" />
  <path
     d="m 651.96952,190.37542 1.81493,-0.70309 2.06021,2.10926 -1.81495,1.92939 2.40357,0.0327 0.27796,2.69788 3.82609,-2.45262 0.50687,-2.24005 2.46897,1.53697 2.51803,-1.78224 -1.66779,3.58083 2.73058,3.40096 5.82088,1.9948 -2.40356,0.94834 1.78224,3.67893 26.60273,-0.14716 8.78039,9.02564 5.72276,-0.39242 1.65144,1.89669 9.66331,1.79859 -0.29431,1.58602 4.95429,1.8967 1.65143,3.27016 4.54552,3.30285 0.75213,-0.98104 -1.96209,-1.43887 6.90004,-1.0628 0.91564,1.43887 3.80973,-1.34077 2.69789,-5.03605 -3.17206,-3.48271 2.86139,0.73579 1.30807,-0.32702 1.43887,-1.0628 2.95949,2.04385 3.77703,-0.0327 2.74693,2.99219 3.48272,0.14716 3.84243,2.32181 0.8993,2.9922 3.59717,-1.06281 0.94835,2.41992 -1.07916,1.43887 2.63248,2.95949 v 0 l -0.0163,3.0249 4.18581,8.42066 1.1282,16.87402 -3.53177,-0.60499 -2.0602,-2.71423 -4.31661,2.01115 3.90784,8.06094 -8.2081,7.66853 1.9948,1.42252 2.10925,-1.88035 1.79859,2.43627 5.65737,-0.81755 6.45857,3.61353 -1.35712,2.76329 -2.94314,-0.75214 -0.73579,2.86139 -1.48792,-0.35972 -1.81493,6.98179 -3.49908,3.76068 1.0628,1.38981 -1.25901,6.94909 1.65143,-0.0981 1.38982,8.12635 13.21144,-7.30881 1.0628,8.48606 -1.11186,1.48793 12.70457,6.65476 1.78223,4.055 -1.66777,3.38461 2.95949,0.932 0.75214,4.95429 -1.79859,0.0982 -1.07915,8.437 -3.23745,0.14716 -2.10926,-3.07395 -0.67038,2.20736 -5.73913,0.67038 -4.43106,5.31401 -1.8313,-0.8666 -1.56967,24.90226 2.10926,2.43626 -3.25381,2.97586 0.31066,8.87848 -2.97584,4.0877 -7.50502,1.3244 -3.95689,3.51543 v 0 l -3.23746,-1.40617 -19.44109,10.21924 -3.51541,-0.17986 0.26161,-3.00854 -1.94575,-1.22631 -6.2133,1.11185 0.31066,1.61873 -2.82868,1.32442 0.47418,3.30285 -2.91044,0.50687 1.37346,5.13416 -2.64883,1.89669 0.26161,2.69788 -4.13675,0.83389 -1.89669,2.84504 -7.14529,-1.19361 -4.61092,-7.47231 1.34075,-0.83389 -0.99739,-3.80974 -6.70383,1.11185 -1.1282,2.12561 -2.68154,-0.83389 -0.50687,4.41471 -3.41731,1.19361 -13.57116,1.32442 v 0 l -0.93199,-2.63248 2.55072,-6.57302 -1.70048,-3.74433 0.78484,-5.31401 -2.06021,-0.81754 -2.191,-5.91898 0.78483,-3.9896 -7.21069,-4.23485 -0.83389,-4.0877 -4.13675,-1.29172 -1.74953,-7.83202 -1.99481,-2.17466 -1.58602,-0.96469 -5.3467,1.24265 -4.8889,-4.93793 -2.14194,3.3192 -2.32182,-3.04124 -1.47157,2.71423 -1.43887,-2.95949 3.45001,-4.07135 1.66779,-10.52991 2.2564,-2.41992 2.61613,0.17986 1.71683,-8.58417 4.33296,-3.45001 -1.47157,-7.12894 -2.07654,-0.57228 -2.71424,2.14195 -2.74693,-2.71423 -3.13935,-0.0327 1.63508,-2.32181 -1.34077,-2.09291 2.46897,-1.14455 1.60238,-3.62987 -3.1557,-2.09291 -3.00856,1.38982 0.78485,-8.63322 -4.46377,-0.49052 -0.0654,-2.12561 2.20735,-0.71943 -0.57227,-2.59978 v 0 l 6.54032,-2.06019 -2.59978,-9.85953 -0.45783,-12.2631 -1.12819,-4.70903 -6.72018,-11.73986 1.89669,-7.34151 -2.35451,-1.76588 -0.39243,-2.46897 -5.16684,-0.21256 -2.41992,-18.75436 -2.0275,-5.10145 -2.61613,-0.73578 -0.50687,-4.75809 5.54291,-2.2891 1.47157,-2.56708 -1.65142,-2.50167 v 0 l 6.13155,-2.84504 -0.45783,-15.92567 1.66778,2.63248 5.54292,-0.27796 1.65143,4.93793 -2.04385,2.97584 0.8993,3.22112 5.05239,1.1609 2.99219,-1.37347 1.30807,-4.34931 z"
     class="land"
     title="Lääne-Virumaa"
     id="EE-59"
     inkscape:connector-curvature="0"
     style="fill:#7795cb;fill-opacity:1;stroke:#ffffff;stroke-width:0.81753957;stroke-opacity:1" />
  <path
     d="m 199.82108,449.27384 -1.04645,3.28652 -1.91304,-2.84504 1.53697,-2.38722 z m -10.10479,-11.62541 0.78483,2.73059 2.50168,1.01375 -0.19621,4.43106 -0.78484,-3.28651 -3.49907,-3.13935 z m -18.5745,-3.123 2.84504,2.01116 -2.87774,2.12559 2.01114,6.91639 -2.66518,1.01375 0.21257,-1.29171 h -2.20736 l -1.22631,1.37347 0.78484,1.70048 -2.91044,-0.94835 -1.9948,3.71163 0.89929,1.97844 -2.97584,-1.58602 -2.68153,-0.53957 -0.49052,-5.37942 1.0955,-0.80119 2.63248,-2.0275 0.58863,-5.62467 3.27015,0.57228 2.50168,0.17986 z m 30.72313,-0.58862 1.43887,2.59978 -1.76588,4.39836 -1.43887,-1.61873 2.12561,-1.83129 -1.71684,-3.49907 z m 8.94388,-2.69788 2.48533,2.69788 -2.94314,1.29171 -1.73319,-3.74433 1.35712,-1.12821 z m -19.50648,-28.7774 6.00073,3.9569 0.78485,3.59717 -1.7986,2.97584 -3.20475,-3.69527 -0.049,-4.23486 z m -63.14676,-46.22368 4.0877,1.89669 5.67373,-1.89669 6.26234,4.61092 -1.73318,8.19175 1.14456,7.4069 2.48532,3.67893 3.92419,1.0301 2.91044,-1.40617 12.31214,4.41471 1.29172,-2.69788 3.59717,1.8313 1.56967,4.83983 2.10926,1.65143 2.2237,-2.191 0.45783,2.1583 2.0929,0.24526 3.74433,-2.07655 -1.86399,3.0903 4.03864,4.56187 -2.87774,0.75214 0.68674,3.87513 4.75808,7.42327 4.1531,0.50687 3.51542,5.03604 1.11185,3.89149 -0.932,1.47157 3.80974,3.9896 -0.1635,2.37085 3.51541,6.44222 -6.67112,3.95689 -0.83389,-6.67112 -3.36826,2.99219 -2.43627,-2.77963 -3.9896,-1.34077 -2.27275,2.33817 2.14195,3.49906 -0.58863,1.40617 -3.10664,-1.32441 -2.02751,-4.43107 -0.70308,7.42326 -2.07655,-2.59977 -6.246,-2.0929 -0.13081,2.51802 -4.74172,1.61873 -0.932,-1.25901 -4.16945,2.37086 -0.13081,1.48793 -1.38982,-1.97845 -2.40357,0.26161 0.32703,3.23746 -2.37087,-2.0602 -1.63508,3.58082 1.43887,0.57228 0.65403,3.20476 -4.54552,-4.62728 -3.0903,8.79673 2.37087,1.63508 -7.03084,13.5221 -2.37087,8.43701 -15.61501,3.2211 -5.73912,-2.24005 -1.20997,0.86659 -6.88367,-4.26756 0.71943,-2.14195 -1.20996,-1.27536 -1.42252,-1.58603 5.26496,-0.39242 1.25901,-2.0929 -3.36826,-3.07395 -0.44148,-2.68153 -3.33556,-0.32701 2.76329,-2.27277 0.1308,-4.54552 -5.52656,-3.85879 2.79598,-3.2865 -0.70308,-2.48533 v -1.11184 l -1.40617,-0.8012 1.48793,-4.36566 -0.58864,-4.31661 -3.02489,-3.74433 -1.11186,-4.72538 -5.003339,-6.08249 -4.823483,-2.12561 -5.755479,1.25902 -0.964697,2.55072 -1.913042,0.50687 -3.777032,-2.87774 -3.842437,3.12301 -13.505754,0.14716 -5.052394,-3.71164 -0.62133,-3.80973 -11.494607,-4.41472 -1.259011,0.81755 -2.240058,-2.51803 1.814938,-3.05759 -1.209959,-0.98105 6.654772,-1.79859 2.87774,1.97845 4.267557,-0.42512 11.151239,2.48532 5.281306,-0.53957 5.624672,-3.58083 3.270158,1.14456 2.501671,-1.58603 9.646967,4.83983 3.368263,-0.53957 4.104049,-5.95169 -1.35711,-4.1531 1.66778,-0.0327 2.61612,3.1884 1.81494,-0.57227 -0.37607,-2.30547 1.0628,1.71683 1.94575,-0.57227 -4.69268,-6.37682 -0.16351,-2.97584 4.95429,0.39243 2.64883,3.87513 2.30546,-1.71683 -3.04125,-1.74954 2.24006,-2.89409 -2.10925,-0.9974 0.0163,-2.07654 -0.80119,-1.50428 -0.45782,-2.58342 2.32181,-0.68674 7.1126,2.86139 0.78484,-2.61612 -1.52063,-1.864 5.96804,0.60499 1.58603,-1.65143 0.65403,-16.66146 z"
     class="land"
     title="Hiiumaa"
     id="EE-39"
     inkscape:connector-curvature="0"
     style="fill:#7795cb;fill-opacity:1;stroke:#ffffff;stroke-width:0.81753957;stroke-opacity:1" />
  <path
     d="m 260.23725,432.6778 5.16685,2.77963 -0.35972,2.73058 -2.2237,-0.14715 -0.57228,1.47157 -2.50168,-2.33817 -1.04644,-3.77703 z m -38.52246,-62.32922 8.69862,1.47157 -0.52322,2.04385 1.65142,0.0327 1.34077,3.04124 1.91304,-2.91044 1.40617,1.79859 2.35451,-4.03864 1.35712,2.71422 2.61612,-2.76327 2.84504,4.30026 1.73319,0.29431 0.73578,3.90783 3.64623,4.44743 -1.9294,5.5102 -4.02229,-2.64882 -2.81233,0.65403 -1.06281,3.25381 -2.38722,-1.25902 -0.99739,-0.32701 -2.35451,0.8666 0.45781,4.02229 3.35192,1.07915 -3.87514,-0.17986 -4.77443,-5.64102 -5.80453,-2.58343 0.34337,6.37681 -4.97065,-2.97584 0.31068,4.0877 -2.30547,-0.0654 -1.66778,-0.11446 -2.28911,-4.72538 2.94314,-0.45782 0.0327,-1.97844 -2.0275,-0.53959 -2.46897,-4.95428 -2.06019,-0.65404 -1.8967,-6.3768 2.0275,-4.51282 2.61613,0.78483 2.92679,-3.67892 z m 72.22144,-62.65624 1.91305,3.72799 3.38461,2.02749 5.44482,-2.55072 v 0 l 0.24526,9.35265 h 7.71757 l 0.11445,9.71238 7.71758,-0.24527 1.68413,4.83984 3.48272,-0.45783 6.98178,9.48346 0.71944,-1.84763 3.40097,0.17985 1.97844,-1.68413 13.40765,1.24266 13.09699,6.31141 0.35971,2.38722 -2.81234,2.46896 1.29172,2.81233 -1.35712,0.49053 9.43441,10.3337 -12.18134,12.05053 0.94835,7.37421 v 0 l -3.54813,6.16425 2.20736,6.91638 3.9569,6.18061 3.77702,1.79858 -1.0955,7.86473 3.64623,0.65403 -1.22631,3.59717 2.48532,1.71685 -0.85024,2.58341 3.2538,2.15831 -0.81753,2.40356 1.99479,-0.89929 1.60238,2.73059 -0.91564,3.80973 -6.81829,-1.07915 -1.0955,0.98104 0.78484,2.27277 -2.25641,5.08509 2.61613,3.41732 3.36826,0.0981 0.21257,1.70048 -4.52918,0.932 -5.59196,6.42586 -3.38462,0.60498 -0.45782,2.86139 2.12559,1.99479 3.64624,-1.1282 2.01114,2.81233 3.87514,-4.03864 1.45522,2.0602 1.20996,2.92679 -5.60832,11.1676 v 0 l -6.13155,6.01709 -8.02824,1.30806 0.53957,1.34077 -5.49385,-1.09551 -1.88035,-3.30286 -3.0249,1.73318 1.66778,13.93087 -4.64362,2.32182 -2.0275,4.85618 -8.63321,-5.01969 0.34336,-1.48792 -3.61353,-3.0903 -1.06279,0.62133 3.66257,7.58676 -2.41991,1.48792 0.31066,1.42252 6.94909,11.82163 0.0654,4.00594 -2.56707,-1.78223 -5.06875,-0.55593 -1.43887,1.71683 -5.67373,-2.07654 -0.96469,2.64882 -4.75809,1.56967 -1.3571,2.22371 -3.35192,-1.30806 -1.81494,2.28912 -4.88888,-4.0877 -2.64883,-0.26162 -4.0223,0.71943 -2.30546,2.40357 -3.89148,-2.61612 -2.81234,3.77703 v 0 l -2.22371,-0.80119 1.19361,-2.07655 -1.96209,-1.19361 -2.25642,1.37347 1.06281,-4.07135 -2.41992,-1.84763 2.81233,-5.19956 -3.10665,0.0327 -1.0628,-3.89149 -1.81494,0.65404 2.24006,3.123 -1.9948,3.89149 1.89669,1.09549 -1.03009,3.53178 -1.38982,0.80118 0.0327,-3.74432 -2.73058,-0.65404 -2.68153,1.66779 -1.60238,-3.12301 3.25381,-1.38982 1.11185,-5.67371 1.88034,0.0654 -0.45782,-1.37347 -2.01115,0.29432 0.70309,-4.93795 -4.28391,-12.08323 1.06281,-5.41211 -1.58603,-0.80119 0.83388,-1.9948 -1.1609,-1.94574 -1.37347,-0.24526 4.43106,-1.09551 -0.27796,-4.46376 2.82869,2.24005 5.93533,-1.30805 1.29172,-1.63509 -7.60312,-3.94053 1.04646,-2.77964 -1.7986,-1.55332 2.92679,-0.44148 6.22966,3.82609 2.45262,-0.21256 6.55667,-2.41992 2.82868,1.25901 0.9974,-0.94835 -1.9621,-0.32701 0.67039,-3.00855 1.66778,0.8993 0.9647,-1.61873 2.0929,1.01374 1.11185,-1.19361 5.82088,3.40098 1.20996,-1.19361 2.14195,1.73318 -0.60497,1.70048 1.47157,1.16091 3.31921,1.52062 2.74693,-2.89409 2.15831,0.98105 0.81753,-6.1479 -2.40357,-0.24527 0.68674,-1.66777 -4.39836,-0.53958 -2.01115,-5.67372 1.84764,-2.81234 -3.87514,2.0602 -3.98959,-3.85878 -6.09885,4.33296 -10.3664,-3.35192 -5.85358,1.61873 -4.39836,3.53177 -6.16426,-2.17465 -11.20028,3.61352 2.74693,-4.0877 -1.25901,-3.71162 3.23746,0.53957 -0.9647,-0.71944 1.0301,-2.30546 1.20996,0.71943 1.37347,-1.43887 -1.68413,-1.79858 0.2289,-4.31661 1.71684,1.83129 -1.03011,0.0654 0.67039,2.15831 3.33556,1.88034 3.59718,-3.46637 -1.70049,-1.25901 -0.27796,-5.44481 -3.0576,-3.46637 -4.57822,-7.70123 -5.03605,-4.34931 0.24527,-1.14455 1.38982,1.25901 0.14716,-4.43107 -2.24007,0.932 -2.2237,-1.04645 1.30805,-6.1479 -1.04644,-5.57562 2.33816,1.14456 2.0275,-1.73318 3.123,3.41731 5.57562,-3.41731 2.97585,0.89929 -2.07656,-6.67112 5.77183,5.314 3.58083,-2.30546 2.20735,0.63768 2.55072,-3.0903 -0.99739,-2.69788 0.57228,-1.68413 1.63507,1.53697 1.86399,-1.19361 4.62728,3.97325 1.2263,-6.55666 -3.17205,-2.32182 1.09551,-1.22631 -4.48012,-2.46897 -2.22371,0.0981 -1.37347,0.24527 -2.24005,0.27796 -0.11445,-1.71683 -1.84765,0.53957 -0.44147,7.52137 1.19361,1.0301 -1.07915,2.37087 -2.71424,-1.11186 0.0327,1.58603 -7.06354,-4.56187 -5.4121,1.43887 -7.53772,-7.45596 -2.86139,-7.16165 1.0955,-0.78484 4.72538,2.79598 1.17726,-2.68153 -1.1609,-2.10924 1.66778,-1.40617 -3.74434,-0.50688 1.04646,-10.57896 6.83463,1.25901 4.51282,-6.81828 5.06874,1.25901 -2.51803,-8.60052 1.06281,-3.62987 -1.88034,-1.56968 -1.29172,-8.87848 -3.04124,-2.38721 -1.01375,-4.77444 0.81754,-5.86993 3.13935,-1.60238 0.11446,-3.98959 4.2512,3.59718 6.09884,-0.11446 z m -46.37084,-16.97212 5.1178,1.63508 3.20475,3.00855 1.79859,2.91044 -2.50168,0.0327 -1.92939,-1.84764 -3.49906,-0.49052 z"
     class="land"
     title="Läänemaa"
     id="EE-57"
     inkscape:connector-curvature="0"
     style="fill:#7795cb;fill-opacity:1;stroke:#ffffff;stroke-width:0.81753957;stroke-opacity:1" />
  <path
     d="m 668.07504,642.70371 3.04125,1.50428 3.27015,-1.14456 0.932,2.51802 0.9647,-2.07655 3.40096,-0.91564 0.73579,1.96209 18.91787,1.38982 2.0929,-6.83464 6.85098,1.40617 6.04979,-11.80527 3.84244,1.91304 1.73318,-0.98104 1.50427,7.58677 1.86399,-0.88295 1.65144,1.22631 4.07134,-3.13935 2.91044,-0.34336 1.55332,-2.76329 10.08844,0.17986 1.73319,1.52062 0.0654,3.43367 5.06874,1.81494 0.0327,3.97324 2.92679,-0.40877 0.37607,1.63508 v 0 l -2.40356,0.78484 -2.15831,9.27089 -3.71163,5.88629 0.45782,4.13675 1.94574,-0.88294 -0.68673,4.65997 1.61873,0.67038 -0.22891,4.82349 -3.43366,5.11779 2.94314,4.44742 -3.09031,9.36901 v 0 l -8.4697,1.84763 -2.24006,-1.29171 -1.94574,1.63508 -0.17986,2.91044 -4.72539,-0.80118 -3.58081,2.01114 -3.66259,-1.63508 -1.73318,3.54813 2.55073,2.10925 0.52322,5.33036 -2.79599,2.53436 -0.93198,3.87514 -3.30287,1.22631 3.92419,2.68154 3.56447,0.17985 2.66518,4.0223 -3.54812,3.33556 2.51803,7.2434 -2.17466,3.58083 3.30285,3.36826 0.35973,3.2538 5.77183,-2.73058 3.17205,1.52062 -0.0817,3.40097 -2.06021,0.68673 1.81495,5.23226 -2.79599,2.3218 -3.58083,0.34338 -0.55592,1.94574 3.2538,4.52917 0.049,2.95949 2.84503,-1.76588 -0.0327,2.89409 1.73318,0.17985 0.71944,3.71164 -9.74507,12.54105 8.69862,7.29246 -4.72538,8.73132 -2.04385,-0.83389 -0.67038,1.29171 5.82088,0.52322 -2.71423,4.62727 v 0 l -7.68487,1.12821 -11.52731,-3.41731 -2.94314,1.32441 -2.43627,-4.03864 -3.54813,0.31066 -2.01114,-1.84764 -4.43106,-5.95168 0.37606,-5.29766 -2.24005,-3.0576 1.30806,-0.73579 -0.31067,-2.28911 -3.87513,-2.0275 -0.47418,-4.07134 -4.82348,-2.24006 2.99219,-7.58677 -1.07915,-1.79858 -7.70122,-3.45002 -1.42252,-5.19955 -8.81307,-4.59458 -3.36826,1.16091 -3.00856,-2.58343 -2.68152,1.07916 0.34336,-5.98439 4.64363,-12.3285 0.52322,-5.41211 -5.11779,0.29431 -3.41732,-3.82608 -6.00074,4.2512 -4.67633,-2.1256 -6.93274,1.34077 -1.76588,-5.23226 -2.48532,2.50168 -6.44221,-1.71683 -6.26235,-14.01264 -6.37681,-3.2211 -4.88889,5.49386 -3.58082,-0.11446 -0.47417,-2.27275 -4.9543,-1.11186 -2.51801,-4.75807 -7.30881,-3.41733 1.55333,-4.20215 v 0 l 5.69007,-11.65811 -3.56447,-8.61687 1.27536,-1.65143 h 9.36901 l 2.27275,2.55073 9.48347,-11.41286 -1.63508,-2.06019 5.15049,0.35971 2.59978,-2.59977 1.19361,0.78484 0.75213,-2.58343 2.41992,0.44147 -0.14716,-1.89669 3.25381,-1.24266 -0.39242,-1.84764 2.55073,0.0654 -0.85025,-5.60832 -1.84763,3.58082 -0.88295,-1.19361 -0.17986,-2.81234 5.1178,-2.50166 -2.33816,-5.34671 3.48271,-0.0163 4.85619,3.1884 2.84504,5.19956 0.68673,5.51021 6.01709,0.26162 2.35452,-1.47158 0.0981,-1.74953 6.01709,-1.52063 1.22631,-2.43626 z"
     class="land"
     title="Valgamaa"
     id="EE-82"
     inkscape:connector-curvature="0"
     style="fill:#7795cb;fill-opacity:1;stroke:#ffffff;stroke-width:0.81753957;stroke-opacity:1" />
  <path
     d="m 681.33553,415.46041 13.57117,-1.32441 3.40096,-1.20996 0.52322,-4.39837 2.68153,0.8339 1.12821,-2.12561 6.70382,-1.11185 0.9974,3.80973 -1.34077,0.8339 4.61093,7.47231 7.1453,1.19361 1.89669,-2.84504 4.13675,-0.8339 -0.26161,-2.69788 2.64882,-1.89669 -1.35711,-5.13415 2.91044,-0.50687 -0.47418,-3.30286 2.82869,-1.32441 -0.31066,-1.61873 6.19694,-1.11186 1.94575,1.24267 -0.26162,2.99219 3.51543,0.17986 19.45743,-10.2029 3.23747,1.40617 v 0 l 0.47417,2.61613 4.20215,2.97585 -1.47157,3.54811 2.27276,1.70048 -0.88294,6.09886 2.95949,7.55406 11.98513,-2.12561 0.88295,-2.79599 8.76402,1.35712 3.89149,2.73058 1.83129,4.21851 2.50167,1.01375 37.99924,0.17986 21.41953,2.87774 18.65626,6.91638 v 0 l -13.88183,13.44035 4.13675,19.4084 v 0 l -47.97322,15.30433 0.98104,2.28912 -1.55332,3.51541 -2.58342,-1.40617 -2.68153,3.22112 -6.49127,1.60237 0.19621,1.96209 2.32182,-0.55592 0.98105,1.84764 -1.12821,2.22371 2.37086,4.79078 -0.24526,3.67892 -3.61352,-0.81753 -0.16351,-2.41992 -3.05759,-3.17205 -0.67039,2.48532 -2.07655,-1.45522 -1.11185,1.43887 -4.79078,-4.46377 -10.61167,-3.30286 -1.71683,16.89037 -3.9569,0.26161 0.68674,2.50167 -3.41732,0.47417 -1.84764,2.33817 -3.49906,-1.0301 -2.68153,2.04385 -2.51803,-1.63509 -0.29431,2.68153 -4.16945,2.22372 -7.96284,-7.66852 1.0628,2.10924 -3.67892,5.26496 -0.19622,3.20476 1.45522,1.65142 -6.40951,3.56447 -7.12894,-6.11519 -2.51803,2.46897 -4.1531,-2.04384 3.38462,-3.53178 -7.01449,0.80119 -1.91304,1.68413 1.79859,1.12821 -1.17726,1.53697 -4.64362,-2.51802 -5.72278,0.24526 -2.45262,1.92939 -1.78224,4.88889 0.88294,1.84764 -2.68152,-1.55333 -0.67039,-4.38201 -5.70643,-2.14195 -1.34076,2.69788 -4.03865,1.22631 -13.4567,10.07208 -2.77963,-1.68413 -2.61613,1.92939 -3.27016,-3.41731 -1.58602,4.88889 -1.55333,0.53958 0.14716,2.58342 v 0 l -8.35526,-8.96024 -1.84763,1.48792 -8.51877,-7.32515 -0.71943,-10.301 -3.71163,2.73059 -2.92679,-2.79599 -1.58603,0.35972 0.0327,-2.9922 -1.89669,-1.04644 1.50428,-2.40357 -1.30807,-3.66258 -10.95503,-4.65998 -8.45336,1.78224 -11.34745,-1.84764 -1.25901,-2.32181 3.02489,-2.50167 2.64883,-0.049 1.65143,-2.86139 -0.88294,-5.86993 -3.51542,-0.62134 2.30546,-4.38201 -0.57227,-6.99814 v 0 l 2.38721,-7.2434 1.74953,0.40878 0.31067,-1.88035 4.62728,-3.0903 -1.17726,-5.91899 5.1178,0.35972 2.79598,-3.10665 -0.40877,-3.69528 2.50167,-0.34337 3.72799,2.55073 1.40616,3.94054 6.16425,-4.43106 0.21256,-5.31401 -2.2237,-7.22705 2.74692,-2.66518 5.1178,0.76849 1.53698,-5.0524 1.88033,1.01375 3.23747,-1.76588 12.90077,-1.61874 -0.89929,-6.04979 -1.55333,-1.19361 4.055,-6.3768 2.1583,1.04645 z"
     class="land"
     title=" Jõgevamaa"
     id="EE-49"
     inkscape:connector-curvature="0"
     style="fill:#7795cb;fill-opacity:1;stroke:#ffffff;stroke-width:0.81753957;stroke-opacity:1" />
  <path
     d="m 360.89273,385.70197 2.06019,-0.52322 -0.39241,-2.15831 3.33555,-1.68413 4.39837,-7.16165 2.63248,1.97845 4.57822,-3.97324 3.87514,5.11779 7.09624,-2.191 1.63508,3.69527 2.53437,1.11186 -0.63768,-4.44742 3.1557,-1.25901 -1.2263,-3.38461 3.0903,-4.65997 1.17725,0.89929 2.33816,-1.65143 0.50688,1.22631 2.84504,-1.55333 -1.32442,-4.77442 -2.63247,0.31066 1.94574,-1.63508 -0.44147,-4.33296 3.56447,1.89669 0.57228,-1.35712 10.07209,-0.27796 7.43961,-2.74693 11.96877,1.99479 0.0163,-8.92753 -2.24005,0.17986 -2.59978,-3.84243 5.69008,-1.8967 -3.00855,-3.98959 1.70048,-10.97138 4.46377,0.88295 7.71757,-9.31996 4.62728,0.65404 2.07655,-1.14456 3.82609,2.84504 1.65142,-3.33557 2.9922,3.94054 2.89409,0.21256 2.1583,3.59718 1.73319,0.17986 0.83388,-7.76663 6.13155,0.11446 5.23225,-1.81494 4.39837,1.07915 2.50167,-1.01375 -1.16091,11.4619 0.26161,2.17466 2.81234,-0.60498 0.14716,8.68227 5.78818,3.20476 3.66258,-0.70309 2.06019,2.33817 1.88035,-1.16091 7.50501,11.87067 6.85099,2.50168 5.3794,-0.9974 1.20996,2.32181 1.74953,-0.71944 6.91639,2.89409 -2.87774,4.31661 3.28651,5.26496 -1.86399,0.9974 1.29171,3.90783 5.10145,0.91565 -1.30806,1.79859 7.03084,1.20996 -0.8993,2.22371 4.52917,2.58342 0.0817,2.9268 6.13154,0.86658 v 0 l -7.16165,5.0851 3.85879,5.91899 -1.42252,10.87327 -7.03084,4.20215 -3.31921,7.12895 2.35452,3.80974 2.0275,-0.0981 2.12559,2.79599 -4.00593,7.88108 1.16091,1.73318 -3.48273,2.56707 -2.33817,4.93795 -3.2538,-1.04646 -0.99739,2.1256 5.64101,10.13749 -2.56706,1.45522 -2.01116,11.2657 v 0 l -7.53771,1.84765 -13.94723,-3.00856 0.85025,1.09551 -2.9922,4.33296 -2.81233,0.73579 -1.47157,-2.02751 -2.66519,1.94575 -2.17465,-0.47417 -5.86994,8.04459 -1.1936,5.54292 -2.22371,1.04644 -1.35712,-0.49052 -2.14195,-7.86472 1.55333,-13.06429 -8.58417,-6.94908 -4.46376,2.82868 -2.40357,3.67893 -2.58343,0.65403 -1.07915,-1.37346 -3.98959,1.30806 -6.81828,-4.49647 -2.50168,0.98104 -3.94054,-1.84763 -3.95688,7.75027 -9.58157,5.26496 -4.43106,0.65402 -0.70309,-2.63246 2.59977,-2.59978 -6.42585,-4.9543 -2.84504,3.56448 -6.08249,3.48271 -1.48792,7.42326 -2.14196,2.68153 -6.73653,2.66518 -4.75808,4.93795 -23.28352,-8.33891 -7.35786,2.56708 -8.55146,-7.37422 v 0 l 5.60832,-11.15123 -1.20996,-2.92679 -1.47157,-2.06021 -3.87514,4.0223 -2.01115,-2.79598 -3.64623,1.1282 -2.1256,-1.99479 0.45782,-2.87774 3.38462,-0.58863 5.59197,-6.42586 4.52917,-0.932 -0.21257,-1.70048 -3.36826,-0.0981 -2.61612,-3.40098 2.25641,-5.08509 -0.80119,-2.27276 1.11185,-0.99739 6.81829,1.07914 0.91563,-3.79337 -1.60237,-2.73059 -1.9948,0.89929 0.83389,-2.38721 -3.27016,-2.15831 0.85025,-2.58343 -2.46897,-1.70048 1.22631,-3.61352 -3.66258,-0.65403 1.11185,-7.86473 -3.77703,-1.79858 -3.95689,-6.18061 -2.20736,-6.91639 z"
     class="land"
     title="Raplamaa"
     id="EE-70"
     inkscape:connector-curvature="0"
     style="fill:#7795cb;fill-opacity:1;stroke:#ffffff;stroke-width:0.81753957;stroke-opacity:1" />
  <path
     d="m 227.56837,730.94893 5.67372,4.80713 0.27797,7.78298 -3.69528,-0.67038 -3.04124,-2.92679 -2.15831,1.37346 -0.44147,-6.2787 1.76588,-1.37346 -1.0301,-0.67039 0.85024,-2.14195 1.42252,-1.01375 z m -113.27828,-104.04008 1.55333,1.94574 1.73318,1.07915 0.49052,1.53698 -0.75213,2.46897 2.0929,1.94574 -5.13416,7.65217 -1.88033,-6.19695 -2.28911,1.06281 z m 10.88963,-9.89223 4.10405,2.20735 -1.29172,2.84504 -0.21256,-1.43887 -2.22371,0.55593 0.63769,-2.43627 -2.07656,0.0327 z M 4.5435774,581.12663 l 2.5507236,1.27536 -4.0386455,0.73578 -0.1635079,-1.73318 -2.20735694,-0.17986 1.20995854,-2.04384 z m 17.7079086,-17.00482 1.095503,2.89409 -3.809735,1.17725 -1.160906,-1.47157 -3.139351,3.25381 -3.777034,-0.70308 -1.8639904,1.12821 -3.5644731,-3.80974 6.4258615,-2.92679 5.428464,2.41992 -1.046451,-3.10666 2.338163,1.76589 2.48532,-1.8967 z m 227.226944,-40.01039 2.33816,4.44741 -5.77182,0.40878 1.76588,-4.85619 z m -18.65626,-3.46637 2.15831,0.11446 0.73578,1.68413 -2.17465,3.74433 -1.60237,-2.14196 z m 28.18877,-3.09029 1.27537,1.45522 -3.66259,1.52062 0.60499,-2.61613 z m -0.71944,-26.66815 1.03011,-0.35972 0.76849,2.32182 -1.73319,1.96209 -2.87774,-1.96209 z m -138.622,2.32182 3.1884,-2.46898 2.28912,1.12821 8.92753,15.82757 7.17799,0.94835 2.63248,-6.68748 3.97325,2.55072 -0.13081,3.74433 5.05239,1.9948 3.56448,-12.00149 3.45001,-3.48271 7.52136,2.97584 4.97065,-2.97584 3.66257,2.91044 h 8.82942 l 0.21257,2.20736 9.3036,4.83983 2.1583,5.19956 1.48793,-1.19361 3.23745,1.88034 1.11186,2.82868 2.74692,-0.32701 0.11447,1.52062 7.178,1.48793 0.19621,1.84763 -1.35712,0.47417 0.0981,1.8967 -0.0163,1.89669 1.68413,4.00595 2.92679,1.71683 -1.01375,1.37346 5.36306,-1.42252 6.2787,4.88889 6.58938,1.71684 2.61613,3.89148 2.12559,0.0817 -0.29431,2.66518 1.30807,0.29432 -1.07916,2.77963 3.1884,-0.21256 1.38982,1.60238 -0.70308,2.10926 -1.89669,0.14715 -0.29432,5.98439 -2.17465,-3.43366 0.35972,-2.87774 -3.10665,-1.27536 0.57227,-2.17466 -0.0654,-4.20216 -1.92939,-0.98104 0.11445,6.96544 -1.73318,0.98104 0.50687,-1.94574 -6.32775,0.0654 2.99219,4.64362 2.48533,-0.62132 -1.61874,2.2237 2.32182,0.21256 -2.01115,2.81234 -4.055,-1.89669 -1.35711,-0.50687 -0.31066,-3.61353 -1.7659,1.92939 0.65404,-3.25381 -1.52062,-1.94574 -0.44147,-1.94574 3.66257,-0.73579 0.35971,-1.32441 -4.36566,-0.47417 -2.09289,-0.14716 -0.9647,2.63247 -1.71683,-0.0654 1.1609,-1.74954 -1.25901,-2.2564 -2.40357,5.29765 1.81495,4.92159 -3.07396,0.47417 1.32441,2.73059 -1.61872,0.91564 -0.85024,2.63247 -2.48532,1.78225 -1.47157,-1.32442 0.67038,-2.33816 -4.51282,-0.26162 -0.86659,4.16946 1.01374,5.15049 1.22632,0.26162 0.58863,4.54552 -3.35192,-1.50427 -2.191,1.79858 -1.11186,-2.48532 3.8915,-0.85024 -1.22632,-1.53697 -2.77963,0.91564 -1.71683,3.43367 1.40617,0.94834 -0.32703,2.06021 -1.56967,1.03009 1.37346,2.30546 -3.12299,-0.52322 -2.1256,0.21256 -3.25382,-1.71683 -2.91044,-6.03345 -1.97844,0.47418 -1.35712,5.42846 3.1557,1.24266 0.67039,3.40097 -3.35192,0.35971 0.16351,3.62988 -0.0327,0.94834 -1.24265,1.89669 -0.94835,-0.58862 0.53957,2.97584 -2.63247,0.70309 0.70308,4.12039 -5.44482,0.94835 -1.50427,-0.73578 -0.0817,-2.30547 -0.13081,-1.97844 -1.0628,1.0955 -2.1256,-0.96469 -0.52323,3.07394 1.52063,1.32442 -5.06875,2.30545 -0.53957,7.09625 -1.53697,2.38722 -1.97845,-2.94314 -7.43961,-0.14716 -3.76069,-2.79599 -4.64362,1.61873 -0.58862,3.56448 5.91898,6.32775 1.25901,3.67892 0.24526,2.17466 -2.61612,2.17465 -3.22111,1.17726 -4.87254,-2.17465 -3.123,-5.19955 -2.2891,5.41211 -1.42252,-5.88628 0.88293,-1.50428 1.61873,0.9974 -1.04644,-1.70048 1.68413,-0.70308 -1.37347,-1.76589 -2.04385,0.96469 -1.76589,-0.55592 -1.47157,1.43887 0.49053,4.1204 -2.74693,3.00854 -1.30807,-0.0654 -0.58863,-3.87514 -4.67633,4.88889 -1.25901,-0.40877 -0.65402,-10.00669 -2.32182,0.8012 -3.20475,11.26569 -0.67038,-1.88035 -1.8967,-0.0327 0.78484,-3.41731 -1.76588,-2.58343 -1.66779,0.8339 0.26162,-2.17466 -1.19361,-0.0327 -2.20736,1.40617 -1.11186,4.85619 -3.123,2.1256 -3.907832,-0.21256 -0.882943,1.29171 -2.28911,-2.25641 -4.202154,0.44147 -7.505013,3.82608 -5.510216,5.00335 -2.109253,4.20216 -0.604979,7.4069 2.011148,5.54292 -1.831289,1.84764 -0.833891,10.38275 -4.087697,4.57822 0.882942,5.96804 -6.801929,12.2958 2.975844,8.68227 -3.90784,3.94054 -4.005944,0.45782 -3.499069,3.38461 -5.346708,7.178 -2.697881,0.9974 -4.529169,7.43961 1.062801,-4.0877 -1.896692,-0.32702 -1.86399,1.94575 -1.765885,-1.94575 -2.812337,-4.75807 0.457823,-3.17206 -3.368263,-2.82868 -0.899294,-7.2107 2.746933,-1.45522 0.981048,1.96209 2.665178,-1.63508 0.228912,-6.09884 3.482718,-1.29171 -0.784837,-4.93795 3.041247,-1.48792 -0.784839,-2.0275 2.174655,-2.07655 0.899295,-7.75027 2.779634,-3.22111 2.436268,-0.55593 -0.327016,-1.74953 4.300258,1.76588 0.637681,4.25121 4.709028,0.52323 0.441472,-8.96023 4.365661,-9.43441 4.365661,-3.10665 -2.223707,-5.65738 -8.600517,1.07916 -1.651429,-1.88035 0.0981,-3.0249 -3.809734,-1.14455 -1.128205,1.53698 -0.523226,-1.52063 -1.602377,0.26162 0.163507,-1.88035 -3.53177,-1.43887 0.588628,2.87774 -2.616126,-0.0817 -1.45522,-5.55927 -2.158305,-2.35451 0.294314,-1.9621 0.931995,-0.78484 -3.51542,-4.49646 -0.719435,-3.67893 -4.185802,-3.123 -1.160906,0.70309 1.128205,3.27015 -6.066145,-0.14715 -2.191006,-2.35452 -7.815678,-1.65143 v -2.17466 l -2.370865,-0.32701 -1.553325,-0.62133 -2.550724,-3.23746 0.228912,-1.91304 -2.894091,-0.32702 1.896693,-3.05759 -2.5670758,-2.09291 1.0464518,-3.48272 1.880341,-0.65403 7.521364,4.72538 -0.490524,-1.83128 2.48532,-1.43887 -5.951688,-8.99295 0.01635,-1.58602 2.141954,0.14716 5.673724,3.85879 1.013749,4.62727 2.812337,1.76588 0.654031,-1.17725 0.964697,-1.0301 0.441471,-1.68413 -4.087697,-8.82943 0.735785,-1.61873 3.71163,3.27016 0.62133,-1.32441 3.400965,4.07135 2.027498,-2.30547 -0.621331,-2.04385 -2.452618,-2.89409 0.01635,-2.74693 2.092902,0.44147 4.937939,1.45522 -2.354514,-3.45001 -2.321812,-0.7685 0.310665,-2.12559 -1.536975,-1.47157 0.703084,-0.94835 -0.376067,-1.38982 -1.43887,-0.80119 -1.340766,1.32441 -0.752136,-1.94574 -2.158304,-0.50687 -0.130807,-3.69528 -1.929393,-1.03011 1.422519,-1.79858 -5.98439,-7.16165 -0.981048,-5.51022 -4.005944,-1.32441 -1.962094,2.22371 -3.744331,-3.46637 -0.359718,-6.09885 5.820882,5.72278 2.616127,0.26161 4.790781,-3.35191 -2.289111,-4.34931 1.22631,-3.90784 7.357856,3.38462 4.414713,-1.01375 2.518023,1.01375 6.180599,11.44556 4.414714,14.12707 4.480117,0.73579 1.782236,-2.15831 -1.0301,-2.92679 1.0301,-13.80006 2.975844,-4.97065 1.340765,-0.80118 2.256409,1.96209 0.441472,-3.82608 5.951687,-2.19101 0.228912,-9.51616 2.468969,0.0654 2.763284,3.27016 1.602377,13.84912 6.491264,0.83389 4.005944,-10.31734 -1.814938,-5.78818 -2.321812,-0.0817 -0.179859,-8.99294 4.218504,1.60239 7.472312,-3.67894 4.267557,1.27537 13.21144,-2.40357 9.09105,-10.52991 z m 74.83757,-4.79078 1.97845,0.21256 1.79858,5.91898 -5.59197,-1.52062 z m 27.10961,-11.2003 24.54254,11.49461 1.43887,4.93793 -2.87774,3.04125 0.21256,2.94314 7.07989,10.35006 2.32182,6.86733 -1.07916,3.46637 -5.2486,3.41731 -0.22891,-1.68413 -4.13675,-0.65403 -2.14195,-5.85359 -2.89409,6.83464 0.0163,-4.25121 -1.78224,3.17205 -2.50167,-3.94053 -2.59978,-0.0327 -4.1204,8.19174 -0.35971,-1.81494 -2.04386,0.47417 -0.0163,-4.44741 -1.04644,1.1282 0.35971,-1.99479 -1.30806,0.62133 -0.932,-2.25641 -0.89929,1.45522 -1.91305,-2.10926 -0.98104,-2.33815 1.88034,0.62132 -0.45782,-2.19101 -1.0628,0.62134 -3.84244,-4.987 -3.84243,1.71684 -6.55667,-3.59718 -2.58343,-3.53176 1.27536,-4.75809 -1.55332,-1.70048 2.04385,0.17986 2.81234,-2.40356 5.96804,1.78223 1.50427,-2.22371 -1.68413,-7.47231 0.86659,-5.75548 1.94575,-2.20735 1.73318,1.1282 z"
     class="land"
     title="Saaremaa"
     id="EE-74"
     inkscape:connector-curvature="0"
     style="fill:#7795cb;fill-opacity:1;stroke:#ffffff;stroke-width:0.81753957;stroke-opacity:1" />
  <path
     d="m 333.08002,277.57419 2.9922,3.00854 -3.17205,-0.42512 5.0524,5.16686 0.91563,3.79337 -2.17465,2.48533 -2.61612,-1.06281 -8.99294,-12.93347 6.2787,-1.16091 z m 13.1624,-0.24527 1.71683,9.99034 -5.72278,-0.17986 -1.42252,-5.62467 -2.73058,-3.46637 -2.33817,-0.32702 4.00595,-4.74173 z m 187.60898,-69.91598 3.31921,-0.80119 2.45262,5.26496 -2.33817,-2.41992 -2.27275,0.39242 z m -69.04939,1.58603 -2.35452,-0.27797 -1.27537,-2.14195 0.27798,-1.71683 3.51541,-1.47157 1.60238,2.02749 z m -38.83314,-10.46451 3.84244,7.25975 3.64623,13.45671 -6.0498,-0.35973 -4.1531,-3.23745 -2.61613,-5.72278 z m 71.61647,-12.72092 7.22705,4.10405 3.41732,5.85358 -1.52063,2.35452 -4.69267,-3.123 -2.71423,2.91044 -1.06281,-2.84504 2.92679,-1.61872 0.57229,-2.07656 -4.62729,-3.64622 z m 112.70601,-6.32775 1.83128,-0.27796 -0.81753,2.33815 1.73318,2.91045 1.91304,-2.30546 4.1204,3.71162 1.81494,2.20736 -1.37347,1.37347 0.58863,2.55073 3.64623,2.17465 -2.32181,3.22111 1.65143,4.10404 -0.70309,7.22705 8.3062,2.66518 v 0 l 1.65143,2.50167 -1.47157,2.56708 -5.54292,2.28911 0.50688,4.77443 2.61612,0.73578 2.0275,5.10146 2.41992,18.75435 5.16685,0.21256 0.39241,2.46897 2.35452,1.76589 -1.89669,7.3415 6.72017,11.73987 1.12821,4.70902 0.45783,12.27945 2.61612,9.85953 -6.54031,2.0602 v 0 l -4.49647,-5.24861 -16.12189,-2.55072 -4.95428,4.25121 -6.90004,-0.45783 -3.20475,2.97584 -4.34931,0.0654 0.0327,4.51282 -2.27277,1.42252 -8.94388,-5.75547 -7.48866,3.58081 -4.61092,-1.96209 -5.24861,0.11446 5.42847,6.60571 3.74433,9.94128 -3.89149,10.2029 -8.64957,11.24934 1.55333,3.23746 -2.43627,5.73912 6.73653,4.00595 -4.41472,9.46711 -3.84244,-5.93533 -2.40356,-0.932 -4.56188,4.07135 3.35192,5.29765 -1.47157,11.26569 -4.1204,4.64364 -2.61613,-2.10926 -1.70048,0.60498 -2.0275,5.29765 v 0 l -6.13155,-0.86658 -0.0817,-2.91044 -4.52917,-2.58343 0.8993,-2.22371 -7.03084,-1.20996 1.32441,-1.79859 -5.10145,-0.89928 -1.29171,-3.90785 1.86399,-0.9974 -3.28651,-5.28131 2.87774,-4.31661 -6.90004,-2.89409 -1.74953,0.71944 -1.20996,-2.32181 -5.3794,0.9974 -6.85099,-2.50167 -7.50501,-11.87068 -1.88035,1.14456 -2.04384,-2.32182 -3.67893,0.70309 -5.77183,-3.20476 -0.14716,-8.68227 -2.81233,0.60499 -0.26162,-2.17466 1.16091,-11.47826 -2.50167,1.0301 -4.41471,-1.0955 -5.23226,1.81494 -6.13155,-0.11445 -0.83388,7.78297 -1.71684,-0.17986 -2.1583,-3.59718 -2.89409,-0.21255 -2.99219,-3.94055 -1.65143,3.33557 -3.80974,-2.84504 -2.07655,1.14456 -4.64363,-0.67039 -7.71757,9.31996 -4.44741,-0.88295 -1.70048,10.97139 3.00854,3.98958 -5.69008,1.8967 2.61613,3.84243 2.24006,-0.17986 -0.0164,8.92753 -11.96877,-1.99479 -7.45596,2.74693 -10.05574,0.27797 -0.57228,1.35711 -3.56447,-1.89669 0.44147,4.34931 -1.94574,1.63508 2.63248,-0.29431 1.32441,4.75808 -2.84504,1.56967 -0.50688,-1.24266 -2.33815,1.65143 -1.16091,-0.89929 -3.10665,4.67632 1.22631,3.36826 -3.15571,1.25902 0.63769,4.44741 -2.59978,-1.17726 -1.63508,-3.69527 -7.11259,2.191 -3.85879,-5.11779 -4.57822,3.97324 -2.63248,-1.9948 -4.39837,7.16165 -3.33555,1.68413 0.39241,2.17466 -2.06019,0.50687 v 0 l -0.94835,-7.37421 12.18134,-12.05053 -9.43441,-10.3337 1.35712,-0.47418 -1.29172,-2.81233 2.81234,-2.46896 -0.35971,-2.38722 -13.09699,-6.31141 -13.40765,-1.24266 -1.97845,1.68413 -3.40096,-0.17985 -0.71944,1.84763 -6.98179,-9.48346 -3.48271,0.45783 -1.68413,-4.83984 -7.71758,0.24527 -0.11445,-9.71238 h -7.71757 l -0.24526,-9.35265 v 0 l 2.15829,-4.65998 -2.06019,-2.30546 0.0654,-4.26755 5.37941,1.42251 3.00855,-4.61092 5.72278,-1.35712 8.437,4.1204 0.75214,2.30547 4.0877,-3.48273 6.72017,2.94315 3.28651,-2.58342 10.05574,-3.48272 1.45522,1.76588 1.07914,-0.85024 1.60239,1.79859 2.84504,-0.17986 -1.37347,3.27016 0.71943,1.27536 2.09291,-0.71943 5.06874,-10.95504 -3.31921,-6.73652 -8.69862,-7.16165 -1.66778,-11.52731 6.44221,1.0301 11.08584,5.86994 1.71683,3.2211 6.52396,4.38201 6.0498,-0.91564 1.1282,-3.92419 -2.53437,-6.14789 -8.09364,-6.0825 1.1609,0.21256 1.19361,-3.07394 1.71684,0.27796 -0.47417,1.91304 1.38981,1.0955 3.28651,0.55592 16.66145,-9.18914 1.63509,-3.95689 -0.37608,-7.83203 2.15831,-1.68412 -0.44148,-1.66779 16.08919,1.37346 4.80713,6.37682 7.55406,3.48271 5.10146,-3.59717 -0.71944,-4.055 14.4868,10.05574 2.63248,-2.64883 0.44146,-3.23745 -4.87253,-4.1531 -0.98105,-2.71424 3.51543,2.28912 3.56446,-0.11446 0.8012,-2.37087 -1.79859,-3.69528 2.76329,1.34077 0.58862,-2.81234 1.07916,3.30287 2.30545,1.34075 -4.36566,5.42847 2.33817,-1.16091 1.48792,2.14196 0.78483,-0.94835 3.10666,2.32182 6.32775,1.1936 7.2107,-12.55741 -4.72537,-6.06614 0.99739,-2.56707 -1.55333,-1.83129 -1.06279,0.67038 -0.34337,-16.77591 0.70308,2.45261 3.71163,0.88295 1.29171,2.32181 2.91044,-0.39242 1.01375,2.04386 4.0223,-0.57229 1.99479,3.0249 -0.80118,2.77963 3.56447,3.20476 -0.0654,5.65737 8.94388,3.66258 4.75808,-1.86399 0.34337,-3.38462 7.47231,2.17466 5.41211,-2.01115 1.40617,3.90784 2.01114,1.58603 1.66778,-0.63768 0.50688,2.35451 3.95689,1.8967 4.43107,-7.43961 -0.70309,-2.64883 -2.04384,0.21256 -3.17206,-4.82348 0.932,-5.23226 6.81828,5.31401 2.06019,6.13155 6.26236,-1.47157 4.41472,-5.91899 0.40876,5.44482 7.57042,4.33296 3.66258,0.94834 3.45001,-1.06281 5.75548,2.28912 5.93534,-1.09551 2.94314,-3.27016 -0.57228,-3.90784 11.11855,-0.85023 4.10404,-7.06355 -4.12039,-5.59197 -0.68674,-4.95429 -4.93794,-8.28985 -0.0163,-7.61947 1.50427,-3.0903 -1.1609,-2.55072 4.1531,1.50428 -0.94835,6.3441 1.66778,2.45262 3.54812,1.68413 2.89409,-1.86399 1.50428,4.16945 4.13675,0.42512 2.17465,6.32776 8.28985,4.70902 5.51022,-4.88888 -0.98105,-1.86399 1.73318,-5.13415 -4.67632,-5.1832 -0.24526,-5.1505 1.63508,-3.2211 -3.35191,-3.00855 4.33296,-2.69788 z"
     class="land"
     title="Harjumaa"
     id="EE-37"
     inkscape:connector-curvature="0"
     style="fill:#7795cb;fill-opacity:1;stroke:#ffffff;stroke-width:0.81753957;stroke-opacity:1" />
  <g
     id="stadiums"
     data-country="estonia"
     data-circle-radius="6"
     data-circle-colors="#a149be,#bea149"
     transform="matrix(1.6350792,0,0,1.6350792,-2.4704135e-8,6.5294993)" />
</svg>
