<svg xmlns="http://www.w3.org/2000/svg" width="2200" height="260"><path d="m238.181 178.256-2.762 6.15 25.589-.469-3.023-6.097-1.394.052.326 6.071-5.264.157.013-6.111-5.38.143.077 6.02-5.706.13.117-6.084z" style="fill:none;stroke:#000;stroke-width:.333545;stroke-linecap:butt;stroke-linejoin:miter;stroke-miterlimit:4;stroke-dasharray:none;stroke-opacity:1"/><g style="display:inline"><path d="m1189.194 155.57 7.122-56.028c7.194-10.256 15.231-10.809 24.216-.474l6.885 56.028.237 10.92-38.697.475z" style="fill:#607a98;fill-opacity:1;stroke:none;stroke-width:.58526009;stroke-linecap:butt;stroke-linejoin:miter;stroke-miterlimit:4;stroke-dasharray:none;stroke-opacity:1" transform="translate(461.017 56.922)"/><path d="m1215.309 94.082 3.798-4.51-5.223-5.461s29.676-30.863 30.626-30.388 9.971 6.884 9.971 6.884l-32.05 32.525zM1201.776 94.082l-.712-6.41-32.525-32.762-6.41 9.496 28.964 31.338 6.41-5.223zM1221.903 109.87l3.14-3.918 29.913 29.439-5.698 11.158-26.352-27.54zM1192.864 126.607l-19.34 20.417-10.208-5.935 31.681-32.165z" style="fill:#607a98;fill-opacity:1;stroke:none;stroke-width:.58526009;stroke-linecap:butt;stroke-linejoin:miter;stroke-miterlimit:4;stroke-dasharray:none;stroke-opacity:1" transform="translate(461.017 56.922)"/><path d="M1920.712 167.878c-9.35-40.988-12.183-99.02 19.432-140.509 33.714 29.663 29.688 102.46 23.951 140.598z" style="fill:#607a98;fill-opacity:1;stroke:none;stroke-width:.662931;stroke-linecap:butt;stroke-linejoin:miter;stroke-miterlimit:4;stroke-dasharray:none;stroke-opacity:1" transform="translate(0 60.32)"/><path d="m593.74 130.918 3.728-3.807-.079-4.045 3.173-2.221.158-14.119.714-.08.318-4.52 1.03-.08.239 4.363 1.903-.08.08-2.258 2.5-.079.215 2.468 3.407 1.983 1.168-9.756-1.104-.23.04-.873 1.23-.555.416-3.53 1.19-.04.654 3.59 1.11.615.04.733-.991.258.218 6.227 2.519-2.36.079-4.521h2.538l.238 4.204 6.822.079v-5.156l8.407.08-.116-3.649 1.25-.098-.103-2.599 1.507-.08-.158-3.013.849-.047-.075-2.911.653-.056.051 2.94 1.377-.005.159 8.249h2.855l.08 1.507 1.19.317 1.348 42.118-.476 20.781-54.81 1.666z" style="fill:#607a98;fill-opacity:1;stroke:none;stroke-width:.35895401;stroke-linecap:butt;stroke-linejoin:miter;stroke-miterlimit:4;stroke-dasharray:none;stroke-opacity:1" transform="translate(0 60.32)"/><g style="fill:#607a98;fill-opacity:1;stroke:none"><path d="M131.31 74.092c-.09-.16-.248-.233-.041-.839-.007-.168-.213-.253.013-.757-.105-.043-.256.111-.273-.17l.157-.116c-.053-.218-.316-.413.137-.591.094.097.268.237.382.425.118.192.176.432.293.61.125-.02.172-.072.45.095 0 .055-.037.205.017.284.058.084.255.053.246.085-.025.084-.177.015-.277.028-.093.011-.184.147-.205.229-.055.205-.013.523-.054.73l-.355-.074c.025-.385-.063-.558-.163-.71-.397-.15-.237.487-.328.771" style="fill:#607a98;fill-opacity:1;stroke:none;stroke-width:.0304305px;stroke-linecap:butt;stroke-linejoin:miter;stroke-opacity:1" transform="translate(15.536 -100.533)scale(3.58954)"/><path d="M132.633 74.153c-.196-.659.238-1.79 1.295-1.773 1.197-.009 1.5 1.053 1.488 1.788z" style="fill:#607a98;fill-opacity:1;stroke:none;stroke-width:.0304305px;stroke-linecap:butt;stroke-linejoin:miter;stroke-opacity:1" transform="translate(15.536 -100.533)scale(3.58954)"/><path d="m123.725 85.086.012-9.53-.436.004-.003-.695 3.486.01.002-.415 3.857.04.038-.324 6.863.02.03.332 4.006.013.007.355 3.275.015.01.6-.226.024-.004 8.594-1.406-.02-.094-3.886h-2.06l-.023 6.24-1.395.04.001-6.28h-2.083l.066 4.089-1.397 1.129-.012-5.217-4.076.03-.057 5.355-1.554.002-.024-5.388-1.761-.015-.057 6.73-1.555-.042.066-6.613-2.132-.016-.035 4.824z" style="fill:#607a98;fill-opacity:1;stroke:none;stroke-width:.05;stroke-linecap:butt;stroke-linejoin:miter;stroke-miterlimit:4;stroke-dasharray:none;stroke-opacity:1" transform="translate(15.536 -100.533)scale(3.58954)"/><path d="m133.928 72.38-.007-.354c-.488-.332-.405-.593-.007-.784l-.002-.161-.788-.685-.014-.327.396.007.47.49.45-.49.362-.02v.34l-.703.689c.024.026 0 .134.026.15.535.332.283.498-.026.785l-.005.352z" style="fill:#607a98;fill-opacity:1;stroke:none;stroke-width:.0304305px;stroke-linecap:butt;stroke-linejoin:miter;stroke-opacity:1" transform="translate(15.536 -100.533)scale(3.58954)"/><path d="M136.686 74.113c.088-.16.24-.232.04-.838.007-.17.207-.254-.013-.757.102-.043.249.11.265-.17l-.153-.117c.052-.218.308-.412-.132-.591-.092.097-.261.238-.372.425-.114.192-.17.433-.284.61-.122-.02-.167-.071-.438.095 0 .055.036.206-.016.284-.056.085-.248.053-.239.085.024.084.172.016.269.028.09.012.178.147.2.229.053.205.012.524.052.73l.344-.074c-.024-.384.062-.558.16-.71.384-.15.23.487.317.771" style="fill:#607a98;fill-opacity:1;stroke:none;stroke-width:.0299987px;stroke-linecap:butt;stroke-linejoin:miter;stroke-opacity:1" transform="translate(15.536 -100.533)scale(3.58954)"/></g><path d="m447.446 146 2.244-1.346v-8.189l1.234 1.57.224 5.049 5.497-4.487 11.666 6.842.112 4.039 6.281 1.01 3.478-4.376 2.692.113v-2.468l-1.122.056 1.627-2.131 1.85 1.934-1.121.028v2.02l9.086-.337 7.067 6.618.224 4.375h1.683l-.337-7.067 10.096-9.31 5.833 4.15v4.711l7.964.113.673-6.73 8.077-3.254 6.73 2.805.336 5.496 2.805-1.683-.785-12.45 7.29.111 1.908 44.533-103.985 1.234z" style="fill:#325bad;fill-opacity:1;stroke:none;stroke-width:.35895401;stroke-linecap:butt;stroke-linejoin:miter;stroke-miterlimit:4;stroke-dasharray:none;stroke-opacity:1" transform="translate(0 60.32)"/><path d="M282.828 166.924c-.317-2.538.963-51.87.963-51.87l8.25-.317c.591-3.01-2.648-10.897 6.98-18.719l.512-7.694c1.21-.905 1.05-2.837 1.119-4.597l.594-.018c.14 1.833.26 3.814 1.04 4.435l.727 8.093c1.303-.019 2.895 1.473 3.814 2.416l.135-9.754 1.418-.178c-.377-6.871 2.945-13.115 10.787-18.957l.076-11.157 1.565-4.44.646-4.246.589-.027.78 4.27 1.361 4.297.536 11.382c8.945 4.44 10.227 11.836 10.787 19.512l1.586.08.318 9.795c.788-1.087 1.398-2.615 3.688-2.974v-8.487c.421-1.27 1.123-1.695 1.067-4.397l.777.02c-.085 1.683.13 2.945.892 4.417l.238 7.733c7.97 4.555 7.905 12.48 7.448 19.505l6.512.166 2.69 52.203z" style="fill:#607a98;fill-opacity:1;stroke:none;stroke-width:.35895401;stroke-linecap:butt;stroke-linejoin:miter;stroke-miterlimit:4;stroke-dasharray:none;stroke-opacity:1" transform="translate(0 60.32)"/><path d="m208.528 143.218 8.31-13.648-.097-10.385 4.671-.82 9.835-33.004-2.36-3.408.194-1.73 3.277-2.351c4.872-29.738 7.851-99.79 7.851-99.79l-1.98-.73.026-4.43 1.902-.469-.052-1.355h-1.173l.287-2.944 3.376-.915.064-4.18.858-.684.405-13.413-.847.039.13-.743 2.02-.039.157.769-.795-.026.276 13.344.896.414.154 4.449 3.625.828.495 3.258-1.355.078.078 1.224 1.876.287-.312 4.404-1.772.938c1.95 33.494 2.675 66.049 7.921 99.542l3.023 2.502v1.928l-1.98 2.971 10.006 33.667 4.899.209-.521 10.11L284 150.294l2.063 2.653 1.623 7.907-18.658.104c-.156-1.563.135-9.763.135-9.763-5.005-5.199-10.08-9.91-18.58-12.778-3.596-.647-7.169-1.315-12.217.023-9.285 1.964-16.746 8.535-22.496 17.567l.417 5.837-12.04-.208.261-16.938 4.378-.156z" style="fill:#325bad;fill-opacity:1;stroke:none;stroke-width:.333545;stroke-linecap:butt;stroke-linejoin:miter;stroke-miterlimit:4;stroke-dasharray:none;stroke-opacity:1" transform="translate(0 60.32)"/><path d="m541.447 140.56 1.29.168-.056-7.74 1.851.224-.28-11.834 1.738.28-.526-20.3 1.002.278-.42-6.338 1.066.168-.112-5.44.898.224.56-8.637 2.132 6.394 4.865-34.367v-3.127l-1.963.028v-1.052l1.935-.014-.014-2.958.855-.014.113 2.916 1.85.014.03 1.094-1.823.014-.042 3.127 4.458 34.339 1.74-6.955.28 9.03.953-.225v5.553l1.346-.112v6.618h.784l-.112 5.272h1.402l.954-24.005 1.29 24.005 1.346-.112-.056-5.945h1.01l-.28-5.945 1.233-.056-.28-4.936 1.01.112.448-9.142 1.935 6.829 4.487-37.242-1.837-.028v-.925l1.893-.028.154-3.253.743-.014.098 3.253 1.81-.014.041.995-1.71.056 4.781 37.158 1.57-6.73 1.178 8.973.954-.112-.224 5.048h1.065l-.112 6.562 1.178-.112-.449 20.696 1.29-.169v11.666l1.627-.224.28 8.637 1.178-.28-.449 12.732-53.787-.057z" style="fill:#325bad;fill-opacity:1;stroke:none;stroke-width:.35895401;stroke-linecap:butt;stroke-linejoin:miter;stroke-miterlimit:4;stroke-dasharray:none;stroke-opacity:1" transform="translate(0 60.32)"/><path d="m401.135 118.348.56-45.542-1.401-1.683.056-2.86-1.359-.393.032-6.391 3.12-.62.225-2.748 1.682-.112.561-3.814 1.346-.673-.334-3.023.794-1.903-2.896.297-1.447-.476c.267-.632.137-.986.932-1.09l2.776-.318c.66-.22 1.108-.682 1.031-1.745-.925-.307-1.85-.195-2.776-1.427-1.546.155-1.443-.57-1.983-.952 1.117-.241 2.484.391 3.331-.793.16-.767-.028-1.614-.555-2.539.613-.893 1.385-.67 2.221 0l-.159 1.666c.72 1.097 1.121 1.111 1.745.238l1.27-1.904.238 1.091-.476 2.479c-.2 1.753-.814 3.057-1.646 4.124l.377 3.966-1.27-.238.15 2.353 1.077 1.046.112 3.504 1.642.191.262 3.051 3.49.472.247 6.357-1.52.519.014 2.495-.905 1.844-.046 48.762-10.63-.397z" style="fill:#607a98;fill-opacity:1;stroke:none;stroke-width:.35895401;stroke-linecap:butt;stroke-linejoin:miter;stroke-miterlimit:4;stroke-dasharray:none;stroke-opacity:1" transform="translate(0 60.32)"/><path d="m294.447 161.508.449-9.332c.952-.476 24.43-17.133 23.954-18.244-.476-1.11.317-4.917.317-4.917l16.181-10.946 28.08-.318 3.33-21.416 2.856 19.037 3.8-5.564-.151-13.79 3.014-9.835 1.586-29.824 2.22 28.872 2.698 10.946-.476 13.642s4.442 5.87 4.759 5.235 1.745-19.195 1.745-19.195l4.283 22.051h27.92v-4.918l-1.903-.793.01-3.658 2.398.065.21-17.11 2.618-9.597 7.932-.158.634-14.436 1.428 14.277 3.49.317.952-5.076 1.745 1.27 3.807 12.849.793 17.926h2.38v2.538l-1.904 1.745 1.844 32.85 1.862 29.21-58.02-.171-96.359.25z" style="fill:#325bad;fill-opacity:1;stroke:none;stroke-width:.35895401;stroke-linecap:butt;stroke-linejoin:miter;stroke-miterlimit:4;stroke-dasharray:none;stroke-opacity:1" transform="translate(0 60.32)"/><path d="M94.725 129.78c.238-.952-.476-21.179-.476-21.179l1.03-3.49.04-46.877 1.31-.555 1.903-8.566 2.102 8.526 9.637.04 2.42-8.17 2.18 8.05 1.23.596.04 47.274 7.773-9.796.634-5.592.635 5.71 7.614 10.47.02-47.769 1.52-.578 1.008-8.39 2.203 8.392 11.235-.056 1.492-8.241 1.559 7.941 1.596.617.307 46.022 1.745 2.221-.158 24.272z" style="fill:#607a98;fill-opacity:1;stroke:none;stroke-width:.35895401;stroke-linecap:butt;stroke-linejoin:miter;stroke-miterlimit:4;stroke-dasharray:none;stroke-opacity:1" transform="translate(0 60.32)"/><path d="M19.82 167.246c-.318-1.27-.649-62.069-.649-62.069l2.632-.037.079 9.518 1.19-.08-.08-3.727 2.102-.08.04-2.38h.873l.02 2.32 1.962-.02.16 3.808h1.189l.08-9.121 2.565-.033.052 16.372 13.087-.238-.093-16.148 2.454-.033.177 9.598 1.745-.08-.013-4.091 4.688-.075.192 4.195 1.872-.023-.076-9.524 2.202-.004.207 21.817h5.047l-.714-47.75 1.15-.079.219-4.977 1.368-.04.357 4.859 1.289-.02.535 11.6 3.49-7.059 1.348-2.538-.135-14.498-4.562.033-.116-2.957 5.607-.028.158 17.45 5.196 9.677-.04-11.105 1.15-.119.555-5.116 1.27-.04.436 4.997 1.19-.04-.318 47.75h1.721v-3.096h1.627v3.096h4.15l.014-3.32 1.472-.015.113 3.335h4.459l-.099-3.265h1.445l.112 3.265h4.248l-.098-3.32h1.515l.098 3.32h4.893l-.056-3.265 1.515-.056.056 3.321h4.038l-.013-3.317 1.386-.003.085 3.32h2.805l-.337-8.48 1.234-.056-.056-9.703 1.273-.39.017-2.751h2.019l-.056 2.86 1.122.225.112 9.59 1.17.087-.105 8.619h2.02l-.057-3.49 1.627.057.056 3.433h4.094l-.08-3.38 1.545-.05.05 3.43h2.467c-.112 0-.056-21.605-.056-21.605l2.468-.057-.112 8.862 1.346.056 2.524-3.87 2.468 3.926 1.57.056-.224-8.973h2.524l.201 17.48 2.3-1.824 3.411-.238.066-1.223 2.393-.046.238 2.935 4.978-.14-.265-16.438 2.267-.08.397 8.726 1.535-.04 2.395-4.038 2.494 4.157 1.349-.08.122-8.57 2.294.037.28 20.987h2.222l-.08-4.521h1.349l.158 4.52h4.68l-.628-36.524 4.907-13.368-.075-10.072 3.648-6.583.318-11.66.952 11.66 3.014 6.186.08 9.836 4.837 13.96-.237 59.727.634 15.387z" style="fill:#325bad;fill-opacity:1;stroke:none;stroke-width:.35895401;stroke-linecap:butt;stroke-linejoin:miter;stroke-miterlimit:4;stroke-dasharray:none;stroke-opacity:1" transform="translate(0 60.32)"/><path d="M720.359 116.8c.79-4.9 4.38-51.789 4.38-51.789l4.486.224.898-15.48 22.21 1.347-1.122 15.48 5.16.224-4.71 55.638-3.142 37.466-29.165-.225h-3.814zM842.841 160.187c.159-.635 5.595-119.226 5.595-119.226l1.322-.958.326-5.883-1.509-.015.046-1.06 1.5-.04.117-2.86.84-.017.018 2.889 1.417-.023.085 1.116-1.397.007.21 5.872 1.269.853 1.82 41.057 2.062-.158 3.37-51.676-.99-.04.039-1.15 1.15-.119.723-7.69-1.619-.226-.036-1.23 1.753-.022.323-2.412.945-.03.227 2.477 1.78.102.077 1.232-1.772.119.413 7.6 1.15.12.03 1.093-1.02.136 4.197 70.945 3.144-.043.789-4.988 1.427-.04.033-1.524-1.271-.014-.043-.95 1.412.037.089-1.6.699-.014.079 1.609 1.491.018.003.943-1.379.037.045 1.47 1.458.147.396 4.481 4.297-.234 2.865-69.987-.871-.123.036-1.14 1.026-.083.28-7.967-1.14.034.032-1.403 1.318.018.197-2.184 1.03.014.271 2.095 1.286-.02.09 1.463-1.267-.003.497 7.669 1.162.077.097 1.227-.91.067 3.85 52.35 1.913-.117 1.76-41.017 1.245-.715.05-6.761-1.505.025.06-1.316 1.478-.073.156-1.87 1.224-.029.062 1.886 1.424-.062.07 1.398-1.395.071.269 6.727 1.194.276 8.147 118.879z" style="fill:#607a98;fill-opacity:1;stroke:none;stroke-width:.35895401;stroke-linecap:butt;stroke-linejoin:miter;stroke-miterlimit:4;stroke-dasharray:none;stroke-opacity:1" transform="translate(0 60.32)"/><path d="M855.476 87.278v8.469h1.01l-.112-8.582z" style="fill:#fff;fill-opacity:1;stroke:none;stroke-width:.35895401;stroke-linecap:butt;stroke-linejoin:miter;stroke-miterlimit:4;stroke-dasharray:none;stroke-opacity:1" transform="translate(0 60.32)"/><path d="M855.532 100.234h.786v4.823h-.842z" style="fill:#607a98;fill-opacity:1;stroke:none;stroke-width:.35895401;stroke-linecap:butt;stroke-linejoin:miter;stroke-miterlimit:4;stroke-dasharray:none;stroke-opacity:1" transform="translate(0 60.32)"/><path d="m867.086 105.113 3.197.028.029 3.365-3.281.028zM876.453 105.113h3.309l.029 3.113-3.253.196zM866.862 115.601l3.646-.056.056 3.814-3.618.028zM876.116 115.657h3.814l-.029 3.562-3.673.028zM890.19 87.132V95.6h1.01l-.112-8.581zM890.253 100.15h.786v4.824h-.842z" style="fill:#fff;fill-opacity:1;stroke:none;stroke-width:.35895401;stroke-linecap:butt;stroke-linejoin:miter;stroke-miterlimit:4;stroke-dasharray:none;stroke-opacity:1" transform="translate(0 60.32)"/><path d="M734.607 157.861c.225-.897 0-7.852 0-7.852l3.59-2.02-.449-6.057 1.57-.673-.672-37.914c13.907-6.503 32.231-8.296 49.027-11.718l4.143 2.07c1.73-.128 3.78.383 4.935-.896l3.365-1.795c10.118-.718 20.235-1.879 30.353-.791l.159 3.034 3.181 2.72 6.017 29.318h6.607l1.838 3.978 3.367-.183 2.676-3.795c6.915.496 14.166.741 20.3 1.824.274 10.637-.548 22.005.883 31.872z" style="fill:#325bad;fill-opacity:1;stroke:none;stroke-width:.35895401;stroke-linecap:butt;stroke-linejoin:miter;stroke-miterlimit:4;stroke-dasharray:none;stroke-opacity:1" transform="translate(0 60.32)"/><path d="M770.251 122.431h2.538l-.158-3.41h-2.3zM776.857 118.33l2.992-.103.018 3.672-3.219.085zM783.63 121.49l3.028-.168.029-3.14-2.945.055zM790.937 121.206l3.029-.168.028-3.14-2.944.055zM784.375 126.002l3.028-.169.03-3.14-2.945.056zM790.572 125.918l3.029-.169.029-3.14-2.945.056zM798.34 120.702l4.095-.057-.084-3.617h-3.87zM797.583 125.665l3.029-.168.029-3.14-2.945.055zM806.36 120.533l3.73-.196.03-3.14-3.647.083zM805.239 125.3h2.356l.056-3.252-2.355.056zM809.628 125.385l2.145-.028.029-3.225h-2.216z" style="fill:#fff;fill-opacity:1;stroke:none;stroke-width:.35895401;stroke-linecap:butt;stroke-linejoin:miter;stroke-miterlimit:4;stroke-dasharray:none;stroke-opacity:1" transform="translate(0 60.32)"/><path d="M1024.095 134.442c.112-1.234.336-10.32.336-10.32h-1.458l.112-9.647-2.131-.449.224-4.487 17.723-.449 16.041-4.374 4.936.448.224 2.468 4.263-.56 3.365.336 4.5.284 1.31.912 2.28 1.114 2.605-.323 2.194-.642 2.043-.526 2.274.214 1.639.537 1.795 1.346h2.916l.112 4.487-1.952-.072.27 9.046-1.515-.112.603 34.75-4.262-.224c.112-.449.35-34.638.35-34.638l-3.702.112.345 31.74-3.814-.168-.85-31.46-5.017.073.363 26.624h-4.039l-.336-26.753-5.497-.056.832 33.563-4.038-.225-.327-33.506-4.88-.112.314 33.694-4.206-.056-.145-33.695h-3.926v9.591l-4.151.112.056-9.646-5.665.056.056 9.366-3.702.112-.056-9.366h-3.701l-.225 11.89-4.823.112z" style="fill:#607a98;fill-opacity:1;stroke:none;stroke-width:.35895401;stroke-linecap:butt;stroke-linejoin:miter;stroke-miterlimit:4;stroke-dasharray:none;stroke-opacity:1" transform="translate(0 60.32)"/><path d="m878.766 158.316 1.903-17.926 1.23-11.938 1.07-8.368 1.19 7.139.794 4.68 11.977-.555s.238-4.125.317-4.125.952-8.25 1.27-7.615c.316.635.911 7.615.911 7.615l.357 7.853s10.232.396 10.074.079c-.16-.317.158-10.708.158-10.708l2.221-.238-.04-12.294.754-.635.635-10.073 1.03 10.311.834.436.356 13.841s2.063-3.172 2.063-3.49v-5.79l4.997.066-.08-9.505-2.108-.06-.028-1.66 2.593.023.163 11.187 4.694-.13.238 4.68 1.586 4.362.714-13.246.793-.635.833-10.747.992 10.827.872.555.476 10.867 1.666 1.824.317 7.694 1.904-.159-.317-7.535 3.093-27.92 2.618 24.43.555 11.184h2.141l.102-7.624.274-3.004 1.182 3.387.881-.014.534-2.43 2.183-1.103v-13.801c3.09-7.325 6.322-12.821 11.104-16.974l-.34-5.355 1.26-1.7.508-18.644 1.983 18.64 1.138 1.535.145 5.286c5.801 6.23 9.128 12.005 10.932 16.974l.159 13.008 2.121 1.745.496 3.173.873-.08.158-4.124.923 3.052.505 7.973 2.062-.634s2.063-34.9 2.063-34.266 3.57 34.028 3.57 34.028 2.061.714 2.061.317-.118-8.05-.118-8.05l1.705.198 2.3-25.144 2.221 25.54 2.42-7.813h4.362l-.159-9.756-2.141-.08-.04-1.546h2.975l.357 11.422 4.124.08 1.27 7.217 2.696-25.302 2.856 25.699 1.665-.198-.079 10.589 11.343-.476.317-10.788 1.586 8.646 11.74-.159 1.11-8.725 2.697 16.34 1.428.952v14.674l-.493 19.078-168.035-4.936zM1097.954 148.423l.476-11.58.159-10.63-1.11-3.49 1.586.16.555-3.967 2.22-2.935-.237-7.852c-4.467-5.838-2.426-9.052-.476-12.453l6.821-8.963.476-13.326 1.428 13.485 6.663 8.249c4.227 5.908 1.936 8.79.475 12.056v4.283s3.808-5.235 3.808-6.028l.634-13.008.793 13.167 1.428 3.014 1.11-4.6-1.11-2.222 1.745-2.22c1.697-3.09 2.527-6.85 3.332-10.63.46-2.826.82-5.67.396-8.645l-1.586-.634.159-1.983 1.665-.635s6.98-20.147 7.297-21.099c.318-.951.16-6.94.16-6.94-2.95-4.198-4.181-7.784 1.268-12.612l.952-9.002 1.07 9.002c7.545 5.608 2.477 9.403 1.944 12.414l.159 7.297c1.32 7.248 3.753 14.25 5.949 21.297l2.022.159.278 1.705-1.428 1.11.476 6.822c.422 3.318.887 6.626 3.648 9.36l.476 16.974 3.49-4.284.476-10.47.952 10.788 3.966 6.345c.977-1.265.812-2.72.952-4.124-2.199-1.92-4.768-3.228-3.649-10.63 2.462-1.656 4.733-3.795 7.615-6.662l1.989-14.304 1.706 13.735c1.879 2.859 4.4 5.266 8.361 7.232.446 3.949.242 7.716-3.014 10.629-1.096 1.606-.825 4.384-.952 6.821l3.014 5.552-1.269 12.691 3.268 1.242-.098 1.621-1.726.408 1.77 5.382.352 10.962 2.32.637.662 10.025 5.73.426-.37 12.908-3.51 4.685-86.923-23.39c.318-.634-.793-13.325-.793-13.325" style="fill:#325bad;fill-opacity:1;stroke:none;stroke-width:.35895401;stroke-linecap:butt;stroke-linejoin:miter;stroke-miterlimit:4;stroke-dasharray:none;stroke-opacity:1" transform="translate(0 60.32)"/><path d="m617.738 158.871-.159-7.614 4.125-2.697c.431-5.3.136-10.91-.476-16.657l1.903.159-.119-8.765 3.139-.94 5.705-6.794 5.264 6.814 5.254.12-.121-5.88 5.467-8.51.402-3.927.811.046.532 3.881 4.88 8.269.038 6.009 2.062-.159-.317-17.609h2.333c.835-8.303 2.177-15.332 13.306-22.459l.92-10.313 1.804-.613 1.345-2.924.182-4.338-1.347-.02.052-.795 1.388-.043.184-1.559.871.019.111 1.542 1.411.13.018.754-1.46.003-.063 4.395.93 2.77 1.69 1.05.959 9.3c15.338 8.28 11.328 15.26 13.344 22.579l2.314.364.206 17.842 1.698-.075.085-6.036 4.992-7.765.317-3.458 1.381.027.523 3.43 4.589 7.588.328 6.848 4.256.02 6.214-7.317 5.077 6.187 3.331.318.476 9.2 2.062.12-.793 37.953-111.522-.158z" style="display:inline;fill:#325bad;fill-opacity:1;stroke:none;stroke-width:.35895401;stroke-linecap:butt;stroke-linejoin:miter;stroke-miterlimit:4;stroke-dasharray:none;stroke-opacity:1" transform="translate(0 60.32)"/><path d="m596.58 152.843.73 3.814.841-10.545.841.056.337 4.88.953-.897v-3.646l3.141-2.889.168-4.318.449 4.262 2.748 2.216.228 4.662.782-.795.351-3.546.711-.198.677 8.402 3.87-.112.616-4.207h.954l.336 9.423 2.3-1.458-.224-6.17 3.028.056.056 14.022s-25.351.953-25.351.505c0-.45-.673-13.405-.673-13.405zM1047.616 154.998h2.58l2.805-4.374 2.243 4.823 5.024-.013.131-4.065-1.419.011 6.123-5.818.011-3.126 6.843-4.487 6.282 4.374.056 3.197 7.571 5.665-1.682.224.111 3.478h3.59l-.224-4.711 5.608-5.16 2.132 2.692h7.852l.224 25.912-55.638-.673z" style="fill:#325bad;fill-opacity:1;stroke:none;stroke-width:.35895401;stroke-linecap:butt;stroke-linejoin:miter;stroke-miterlimit:4;stroke-dasharray:none;stroke-opacity:1" transform="translate(0 60.32)"/><path d="m-14.707 146.898 217.167 2.916 11.331 15.075 62.292-.147 1.996-6.674 252.375-.226 14.923-8.569 47.31.498 5.927 12.388 83.492-5.304 345.948-3.285 7.854 6.89 139.895.246 27.242 25.677v18.396l-1217.752-.224Z" style="fill:#325bad;fill-opacity:1;stroke:none;stroke-width:.35895401;stroke-linecap:butt;stroke-linejoin:miter;stroke-miterlimit:4;stroke-dasharray:none;stroke-opacity:1" transform="translate(0 60.32)"/><path d="m2067.373 163.791 2.207-94.955-9.673-3.567-.088-1.295 1.958.047.12-3.142h4.321V57.86l-2.332-1.097-.206-16.258h7.134l-.068-6.311-1.911-1.104-.011-6.58 3.567-2.743-.275-43.355h3.019l-.308 43.419 3.487 2.437.065 6.536-1.468 1.403.137 6.274 6.593-.114-.206 16.601-1.44 1.098v2.744l4.938-.275v3.019h1.647v1.372l-10.976 3.841 1.646 94.94z" style="fill:#607a98;fill-opacity:1;stroke:none;stroke-width:.113838;stroke-linecap:butt;stroke-linejoin:miter;stroke-miterlimit:4;stroke-dasharray:none;stroke-opacity:1" transform="translate(0 60.32)"/><g style="fill:#325bad;fill-opacity:1;stroke:none"><path d="m1579.308 454.76-.288-6.615 3.308-3.739.107-3.954 1.618-.79-.546-42.155 3.218.009.438-1.525 2.304-.202 2.782-.99 1.288-5.683 5.287-.124.142 1.589 1.458-.047.35 1.567h.808l-.13 44.685 2.013 1.15.073 11.755 3.379-.108-.576-25.02 1.366-3.379.071-44.79-4.026-5.464.288-5.78-2.098-.246-.347-1.883 7.334-.287v-5.608l2.39.014.054-4.903 5.437-.157.171-3.438h8.915l.144-2.3 11.106.26 2.842 2.328.144 1.582h-2.876v1.581l4.026.144.288 4.026 2.978.473.33 6.806 4.744-.09-.932 1.466-2.088.548.144 5.608-2.588 5.176.288 44.72 2.156 3.306.144 25.164 3.883.143.287 8.197.288 1.869h16.68l.719-2.732 7.19-.432.28-4.779 14.96-.11-.43-12.51 1.24-2.82 2.478-.22.328-3.669 2.725-.569-.055-3.546.842-.576-.513-39.357h-2.3l.143-4.89 3.451-1.006h4.026l-.074-5.3 4.458.288.116 4.999 4.704.013v-1.869l9.059.144.431 2.013 3.451.432v3.594l1.294.144-1.15 1.726.288 38.104 1.006 1.438.144 3.595 1.438 2.588v3.882h5.608l.158-5.82.855-.582.11-4.696 1.139-.557.19-1.649 4.388-.124.45 1.786.92.126.472 5.258 1.24.65-.288 5.464 3.163.144-.863-10.64 2.013-6.902.576-47.02-2.876-4.314h10.21l-2.446 4.314.144 47.307 2.157 7.046-.431 10.21 4.026.287-.432 15.673-.01 27.443-178.174-1.876z" style="fill:#325bad;fill-opacity:1;stroke:none;stroke-width:.438432;stroke-linecap:butt;stroke-linejoin:miter;stroke-miterlimit:4;stroke-dasharray:none;stroke-opacity:1" transform="translate(471.382 -215.49)"/><path d="m1590.942 446.719-.223-2.038-1.558-.07-.069-5.069-1.233-.548.068-40.692 2.055-.41.548-1.165 3.974-.548 1.918 1.507-.343 40.35-1.37.616-.548 4.453-2.038.274-.102 3.409zM1613.549 449.545l-.274-25.279-1.165-3.22-.342-45.076 2.466-5-.07-5.618 5.139.068.136 4.316 3.015 6.371.342 44.871-1.439 4.179.275 18.633h-1.576l.068 2.466-3.151-.136.137 3.493zM1630.203 445.265l-.281-20.896-1.782-3.323.181-45.152 2.131-4.844v-5.716h3.537l2.858.048.29 4.796 2.132 6.588.29 43.112-1.744 4.36.776 18.213-5.547.145-.194 2.495zM1702.822 427.435c-.097-.582-.29-34.2-.29-34.2l.968-.096.075-4.696 4.48.046.193 3.584 1.26 1.163.29 33.811-1.647.097-.04 4.884-4.08-.014.052-4.29zM1714.254 427.047c-.29-.678-.097-33.908-.097-33.908l.724-.616.05-4.325h4.434l.12 4.94.969.291v34.006h-1.163l-.04 4.314-3.59.04.047-4.355z" style="fill:#325bad;fill-opacity:1;stroke:none;stroke-width:.438432;stroke-linecap:butt;stroke-linejoin:miter;stroke-miterlimit:4;stroke-dasharray:none;stroke-opacity:1" transform="translate(471.382 -215.49)"/></g><path d="m202.46 149.814 2.356.224 15.34 10.124.056-4.992 4.458-.084-.224-4.262 3.365-4.712 3.366 4.824-.027 4.15 3.307-.084.028 2.608 2.104-.056-.14-4.6 4.038-5.944 7.403-.113.224-4.262 1.26-.02.113 4.487 4.058 4.395.178 6.169 1.947.046-.151-6.585.672-1.65.112-5.945h1.795l-.112 5.16 4.15-5.945 5.945 8.189-.112 7.403 3.926.112 1.234 2.468 1.94.053-.033-9.251 16.377.336 4.829 10.572-.903 28.465-93.103 1.121z" style="fill:#325bad;fill-opacity:1;stroke:none;stroke-width:.35895401;stroke-linecap:butt;stroke-linejoin:miter;stroke-miterlimit:4;stroke-dasharray:none;stroke-opacity:1" transform="translate(0 60.32)"/><path d="m239.173 92.191-5.942 25.745 19.804-.416-4.898-25.329zM223.694 140.92c.074-.369 5.601-11.35 5.601-11.35h29.113l6.265 11.94c-15.459-8.636-29.058-8.658-40.98-.59" style="fill:#fff;fill-opacity:.77647101;stroke:none;stroke-width:.333545;stroke-linecap:butt;stroke-linejoin:miter;stroke-miterlimit:4;stroke-dasharray:none;stroke-opacity:1" transform="translate(0 60.32)"/><path d="M240.94 73.481c1.789-23.745 2.15-54.68 3.17-85.718 1.22 28.728 1.692 59.117 3.308 85.74z" style="fill:#fff;fill-opacity:.77659601;stroke:none;stroke-width:.333545;stroke-linecap:butt;stroke-linejoin:miter;stroke-miterlimit:4;stroke-dasharray:none;stroke-opacity:1" transform="translate(0 60.32)"/><path d="m230.47 124.086 2.761-6.15 2.593-.039-.117 6.085zM235.824 117.897l5.511-.065.079 6.02-5.707.13z" style="fill:#fff;fill-opacity:.77647101;stroke:#000;stroke-width:.333545;stroke-linecap:butt;stroke-linejoin:miter;stroke-miterlimit:4;stroke-dasharray:none;stroke-opacity:1" transform="translate(0 60.32)"/><path d="m241.335 117.832 5.381-.143-.013 6.11-5.29.053zM246.716 117.689l4.925-.117.326 6.071-5.264.157z" style="fill:#fff;fill-opacity:.77647101;stroke:#000;stroke-width:.333545;stroke-linecap:butt;stroke-linejoin:miter;stroke-miterlimit:4;stroke-dasharray:none;stroke-opacity:1" transform="translate(0 60.32)"/><path d="m251.641 117.572 1.394-.052 3.023 6.097-4.09.026z" style="fill:#fff;fill-opacity:.77647101;stroke:#000;stroke-width:.333545;stroke-linecap:butt;stroke-linejoin:miter;stroke-miterlimit:4;stroke-dasharray:none;stroke-opacity:1" transform="translate(0 60.32)"/><path d="m1531.547 184.423 2.655-106.984-1.593-.53-.163-4.716 1.799-.36.126-2.147c-6.498-3.43-12.728-12.58-2.082-19.724l-.382-2.945 1.645-.356-.084-1.56-1.397-.348-.21-1.65 1.434-.814-.075-4.907-1.248-.805-.118-2.009 3.681.001.14-10.567.882-.429-.132-19.288.72-1.056.144-40.157h2.127V3.254l.674 1.147-.361 19.16 1.033.43.02 10.718 3.534-.086-.022 1.946-1.29.666.118 5.423 2.109.53.109 2.18-1.262.188.112 1.723-.448.06.215 2.738c7.99 2.321 9.813 15.58-2.042 19.718l.106 2.01 1.936.39-.36 4.856-1.259.54 1.798 106.907z" style="display:inline;fill:#607a98;fill-opacity:1;stroke:none;stroke-width:.39876726;stroke-linecap:butt;stroke-linejoin:miter;stroke-miterlimit:4;stroke-dasharray:none;stroke-opacity:1" transform="translate(0 60.32)"/><path d="m1771.447 118.777 1.214-.04.122-3.778.356.021.392 3.697.874.024.356 2.711 1.468.013-.118-5.71-.857-.129-.079-1.93 1.757.053-.114-5.696 1.145-.318-.112-4.158.89-.045.09-4.995.944.025.16 4.843 1.26.214-.023 4.127.849.304-.1 5.733h1.832l-.13 1.87-1.205.295.04 2.358.713.177.01 4.749 1.209-1.89.122-2.258 1.31-.021.63-2.477 1.25-1.038.188-3.7 9.228.132-.02-3.98.903-.172-.209-5.537.77-.56.03-1.954-1.016-.107.312-.352 1.083-.06.122-.688.694.062-.11.691 1.025.48.192.298-.709.148-.466 1.267-.04 1.112.71.331-.17 4.69 1.023.331.051 4.226 13.875.307.086-9.691.092-11.851.776-.394.69-11.181-.023-2.128 1.559-.123-.078-7.603.663-.05-.086-3.09 1.486-.34.82-9.404-.804-.124.027-.918.986.01.075-1.693h.666l.063 1.725 1.033.083-.01.866-.867.051.094 9.402 1.321.271.033 3.026.689.208-.107 7.22h1.056l.251 2.211 1.207 11.647.792.427-.06 9.7.604 11.663 12.99-.308-.05-4.072 1.359-.132-.327-5.598.678-.604.164-1.478-.37-.231.067-.452.483-.03.478-.818.542.02.153.88.9.04.01.565-1.005.07-.428 1.422.982.22-.114 1.7.788.176-.122 4.056 1.045.362.048 3.904 7.746-.05 1.987 6.217 1.6.45.198 4.285 1.573-.066.249-6.34-1.207-1.194.071-1.764 1.619-.03v-5.735l1.101-.216-.05-4.077.965-.242.101-4.752.807.078.377 4.688.957.245.075 4.002.82.284-.112 5.733 1.65.017-.07 1.835-1.15 1.017.153 4.262 1.583-.1.252-1.684.925-.158.061-4.21.64-.015.264 4.201 1.534.135.598 4.999 1.58-.064 1.548-10.107 10.377.049 1.802 9.72 3.142-.05c.201-.804 1.132-7.189 1.132-7.189l2.447-.19v-4.648l2.662.092-.028 2.053-1.646-.071.014 2.626 2.429.138 2.224 9.496 2.686.49.248 3.903 1.396.215-.061 2.735-1.114-.075.221 43.37-164.76.293.302-8.446-.804-2.513.276-32.375-.967-.538-.033-2.417 1.746-.513.212-3.009 1.877-.409 3.115-10.023 2.905-.3.033-3.105-1.15.052.01-1.881 1.842-.02-.1 4.982 2.508.041 1.652 7.094 2.794-.06 1.991-9.34 10.516.155 1.5 9.507 1.717-.042.258-1.433 1.16-.156z" style="fill:#607a98;fill-opacity:1;stroke:#607a98;stroke-width:.31530321;stroke-linecap:butt;stroke-linejoin:miter;stroke-miterlimit:4;stroke-dasharray:none;stroke-opacity:1" transform="translate(0 60.32)"/><path d="m1841.414 165.223-.24-13.017h14.462v12.776h2.892l-.723-46.28 12.052-.241-.025-55.456 1.065.043v-3.92l8.182.085-.17-18.578 3.152-.085.088-11.274 3.616-3.375-.241-40.735 1.175.03.668 40.747 3.658 3.658.1 11.074 3.262.1.268 18.475 10.153-.03.24 5.489h1.206l-.241 54.053 13.98-.06.723 46.762 2.471-.06-.034-1.9-1.024-.3v-6.297l27.027.12.079 22.206-112.815.033.17-14.043z" style="fill:#325bad;fill-opacity:1;stroke:none;stroke-width:.37795275;stroke-linecap:butt;stroke-linejoin:miter;stroke-miterlimit:4;stroke-dasharray:none;stroke-opacity:1" transform="translate(0 60.32)"/><path d="m1939.738 173.124-.825-75.163-9.737-9.926-.125-2.753 8.265-.25.227-7.584-3.664-1.508-.124-2.59 3.917-.124.185-4.85 104.249.705v5.635l3.874.352v2.466l-2.298 1.654.288 6.841 7.293-.042-.082 3.187-8.745 8.95.374 74.15-38.68.374-.25-41.933c-4.206-17.401-20.986-17.4-24.113-.352l.104 42.43z" style="fill:#325bad;fill-opacity:1;stroke:none;stroke-width:.55224121;stroke-linecap:butt;stroke-linejoin:miter;stroke-miterlimit:4;stroke-dasharray:none;stroke-opacity:1" transform="translate(0 60.32)"/><path d="m2151.632-128.074-.273-25.01 4.059-7.947 23.397-17.813 14.037.386 14.422 14.885 51.52.54v-8.253l1.85-1.542-.462-26.223 5.09.078v-.964c-3.178-3.83-7.91-10.204 2.777-14.23l-.309-8.02-1.812-.232-.074-3.45 1.842-.728-.263-8.702h2.313v-6.787l1.697-.153-.231-12.803 2.545-.154-.178-13.252h1.32l-.024 1.33 2.236-.039v3.085l-1.928-.038.038 3.317 2.044.153-.076 3.625-1.89-.038.078 1.697 2.815.193.076 12.88 1.466.115.025 6.359.198 4.24 1.83.175.205 4.277.018 4.212-1.605.228.19 8.655c7.103 1.894 10.718 7.637 2.924 13.854l.085 1.182 5.89-.064.31 25.606 1.687 1.676-.018 8.886 46.862-.034 17.832-14.603 9.984-.335 23.123 16.143 5.235 9.598v34.685l-243.01-1.309z" style="fill:red;fill-opacity:1;stroke:red;stroke-width:.18100069;stroke-linecap:butt;stroke-linejoin:miter;stroke-miterlimit:4;stroke-dasharray:none;stroke-opacity:1" transform="translate(0 60.32)"/><path d="m1182.51 161.585 10.877-.655 34.553-1.196.473-3.61.563-1.44-1.011-.641.775-1.704 1.75-.581.22 7.912 35.027.13.228-4.904 1.418-1.394-1.489-.818-.045-2.039 1.698-2.722 3.69-.044 1.338 4.164.411 7.695 35.558.016-.053-4.804-1.215-.175.226-1.995 2.183-.442.32 7.492 34.938-.098.288-4.828 1.27-.291-.387-3.996 2.17-3.377 4.105 4.125-.877 3.724 1.41 4.58 34.006.119.104-8.162 2.05.024.677 8.103 34.582-.034.07-24.84-1.374-.335-.012-2.057 2.104-.404.037-10.485 2.107-.062.31 2.987 1.275.14.156-7.056 1.127.043-.126-4.85 1.127.043-.027-4.703 1.077-.056.04-10.288 1.175-.007.234 6.564 7.643.053.06-6.565 1.42-.008.01 10.141-.076 3.626 1.127.14.024 4.164 1.08.19-.025 4.36 1.52.139.073 4.164 1.37-.204-.017-3.135 1.616-.108.01 10.093 2.113 1.213.058 1.518-1.758.99v8.45l1.363-.047 1.212-3.518 2.351-.014.4 3.41 1.592.027.706-3.498 2.017-.116.549 3.572 1.35-.09.232-3.517 2.364-.037.837 3.498.98-.063-.097-9.941 1.225-.462-.31-17.924-2.475-1.322-.064-7.935 1.269-.84.049-8.427 2.055-.502.434 7.346 2.255.183-.366-12.441.975-.79.354-22.746 1.475.003.47 5.67 6.573.111.023-5.798 1.948-.035.288 22.051 1.514.67.13 12.624 2.389.1-.179-6.89 2.052.16.09 7.503 1.191.936.042 9.248-1.75 2.361.43 8.589 1.559.553-.133 6.917-1.56 1.283.549 27.139.812 38.797-75.64.738-.431-6.766 2.73-2.367c-4.237-9.512-11.372-15.25-20.733-16.977l-15.424-.06c-14.547 4.493-16.397 11.811-18.31 19.115l2.556 1.553.035 6.075-30.375.176-.618-5.288 3.703-3.549-.017-2.94c-6.213-5.685-11.3-12.86-20.66-14.382l-13.032-.022c-11.363 1.668-15.05 8.942-20.786 14.72l.416 4.113 2.362 1.75.13 5.584-29.981.37-.33-6.074 1.946-2.46c-2.648-9.509-10.11-13.915-18.131-17.73l-14.013-.114c-15.122 2.737-19.23 11.397-22.639 16.2l.017 2.94 2.455.965.135 6.368-21.362.495z" style="fill:#325bad;fill-opacity:1;stroke:none;stroke-width:.114976;stroke-linecap:butt;stroke-linejoin:miter;stroke-miterlimit:4;stroke-dasharray:none;stroke-opacity:1" transform="translate(0 60.32)"/><path d="m1662.087 168.792.3-19.866 3.759-.709.037-6.089-3.652-4.455-.176-4.34 2.836-.106-.551-22.065-2.675-3.579.126-4.908 3.134-.283-.056-16.386-3.088-1.732-.076-8.285 2.711-.301.067-13.684-2.18-.78-.072-3.687 1.982-.636.127-14.428 2.11-1.807V25.602l-2.11-2.41.302-3.615 6.251-.076.076 4.293-1.506 2.41.226 15.139 1.882.829.302 9.339 1.506 1.807-.452 22.445h2.712l.15 8.284-2.41 2.41.076 16.043 3.84-.15.302 7.305-2.127 2.976-.177 20.773 5.654-.143.19-16.488-2.147-.716-.113-5.686 2.071-1.733-.037-11.636-2.711-3.916-.301-3.314 3.012-3.088.302-8.06-1.959-.978-.226-3.314 1.28-.226-.3-14.16 1.807-1.807-.076-8.285-2.033-2.862.451-3.163h6.101l.376 3.464-.979 2.26.377 17.624h1.506l.072 22.4 3.544-.106-.088 3.758-2.252 2.196.156 12.913 2.033 1.28.113 4.67-2.372.79-.076 17.85 3 .089.088 3.677-2.26 1.883.15 3.917 3.992-.15 1.13-5.574c1.085-4.453 3.684-8.01 10.168-9.264l.246-7.415 4.875-3.355.527-3.39 5.273-.376c.12-10.777 9.565-14.509 20.787-18.942l-.15-7.645 1.958-.037.037-6.477h1.619l.15 6.289 2.034.226v7.645c12.813 5.4 18.065 11.238 19.959 18.941l4.975.229 1.953 4.428 4.995 1.418-.475 7.181 10.617 8.19.548 7.726 3.1.194-.249-10.191 2.304-.195-.428-15.29-1.808-.978.076-5.423 1.883-.904.226-11.674-2.41-1.13.076-6.401 1.807-.98.031-20.203 2.003-1.186-.035-16.57-2.001-.333-.127-2.924 6.717-.055.124 2.179-1.666 1.434-.321 15.986 1.187 1.788.038 20.337 3.163 1.958.226 4.142-2.109.226.527 14.009 1.582.452-.076 3.841-2.184 2.712.678 14.686 1.451 1.79.092 4.397-2.145.441.283 2.785 2.87.171.542 3.747 2.33-.075.426-5.319-1.895-.192.264-6.238 2.41-.301v-19.281l-3.916-6.93v-1.807l4.218.603-.301-18.378-1.951-.175.024-7.127 2.354-.37-.429-22.205 1.81-.106-.139-13.221 1.456-.592.226-12.917-1.958.037.15-6.703 1.763.418.538 2.806.975-.413.182-2.458 1.965.288.826 3.734-1.956 2.216.076 9.49.1 9.294.916.044.671 30.465 3.137.13.179 6.777-2.18.39.302 17.37 3.013.301-.302 6.327-3.314 3.012 1.205 18.98 3.917 1.205-.602 5.122h-3.616l1.507 29.524z" style="fill:#325bad;fill-opacity:1;stroke:none;stroke-width:.17675667;stroke-linecap:butt;stroke-linejoin:miter;stroke-miterlimit:4;stroke-dasharray:none;stroke-opacity:1" transform="translate(0 60.32)"/><path d="M1502.155 161.712c0-1.939.127-48.826.127-48.826l1.846-.084.063-3.514 4.178-.972.239-7.322 2.675-.714.02-4.31 2.49-.505.083-2.087 2.361-.158-.099-1.301-2.148-.417-.02-3.644 4.6-2.37-.042-13.328 5.552-.088.528 15.332 4.004 1.571.105 2.662-2.082.878.088 2.203h3.701v3.146l1.757-.17.12 4.36 1.14.135 5.878 12.884 2.716-.02.632-5.267 3.701-2.467-.088-6.345 1.366-.396.133-5.155 4.054-.793v-6.873l3.7-1.587.089-13.13 6.477.089.044 13.923 2.908 1.233-.044 6.345h2.863l1.41 2.467 5.155-.088-.044-18.945 3.275-.81.073-2.363-2.048-.242-.11-5.75 1.732-.22-.25-7.497 1.528-.037-.022-10.13 2.81-.134.063 6.21h1.938l-.092 11.52 2.19.104-.39 5.806-2.342.539.016 1.49 3.968.985-.31 3.312-1.714.374-.016 15.712 8.34-.144.308-1.807 4.565-.193.105-3.331-2.496-1.372 4.964-4.268.035-13.323 4.993.24.27 13.083 4.865 3.995-1.704.94.123 3.842 3.395.117.182 1.68 18.681-.176v-1.938l3.258.014.015-2.082-2.468-.782.048-1.287 6.297-3.119.082-2.438h-1.233l.04-12.287 5.29.039.029 14.716 4.158.528.176 7.05h3.42l-.11 6.867 2.794.03.24 5.087 7.207 4.876-.046 50.004-5.064.053.194-14.222c-2.746-3.665-5.798-4.661-9.517.176l-.128 13.935-3.878.111-.223-14.046c-2.951-3.975-6.045-4.464-9.34 0l-.623 14.11-3.766.048.13-13.553c-4.655-6.124-7.206-3.512-9.665-.517l-.176 13.976-4.335.023-.247-13.735c-5.029-5.772-7.694-2.837-9.87-.176l.218 13.929-3.437-.035.223-13.1c-3.267-4.113-6.723-5.759-10.627-.294l-.264 13.282-4.048.035.224-13.817c-3.212-3.375-6.507-5.62-10.398.353l.11 13.458-3.812.106.053-13.247c-3.568-5.6-7.466-4.146-9.67.1v13.23l-4.317-.03.105-13.97c-1.404-3.211-7.378-5.78-10.045 0-.088.353-.018 13.911-.018 13.911l-3.795-.023-.223-13.206c-3.823-5.424-7.143-4.545-9.828-.13l.17 13.23-4.37.053-.148-13.553c-2.61-3.703-6.39-5.441-9.722-.194l-.37 13.735-4.153.077.182-13.071c-.959-2.018-5.514-7.171-9.382-.083l.235 13.189z" style="fill:#325bad;fill-opacity:1;stroke:none;stroke-width:.14623044;stroke-linecap:butt;stroke-linejoin:miter;stroke-miterlimit:4;stroke-dasharray:none;stroke-opacity:1" transform="translate(0 60.32)"/><path d="m1488.194 160.902 190.27.186 9.159 4.962 168.575-.096 113.496 1.448 17.372-4.366 122.012-.634-.125 39.25-621.198-1.073z" style="fill:#325bad;fill-opacity:1;stroke:none;stroke-width:1px;stroke-linecap:butt;stroke-linejoin:miter;stroke-opacity:1" transform="translate(0 60.32)"/><path d="m2108.285 286.426 2.355.224 15.34 10.124.056-4.992 4.459-.084-.224-4.263 3.365-4.711 3.365 4.823-.026 4.15 3.307-.084.028 2.609 2.103-.057-.14-4.599 4.038-5.945 7.404-.112.224-4.263 1.26-.02.113 4.487 4.057 4.395.179 6.17 1.946.046-.15-6.585.672-1.65.112-5.945h1.795l-.112 5.16 4.15-5.946 5.945 8.19-.112 7.403 3.926.112 1.234 2.468 1.94.053-.033-9.252 16.377.337 4.829 10.572-.903 28.464-93.104 1.122z" style="display:inline;fill:#325bad;fill-opacity:1;stroke:none;stroke-width:.35895401;stroke-linecap:butt;stroke-linejoin:miter;stroke-miterlimit:4;stroke-dasharray:none;stroke-opacity:1" transform="translate(0 60.32)"/><path d="M1482.184 164.175c.353-.708 9.9-15.026 9.9-15.026l4.772 5.48 9.37.176v9.37zM1812.09 167.646l-.14-4.599 4.037-5.945 7.404-.112.224-4.263 1.26-.02.113 4.488 4.057 4.394.179 6.17z" style="fill:#325bad;fill-opacity:1;stroke:none;stroke-width:1px;stroke-linecap:butt;stroke-linejoin:miter;stroke-opacity:1" transform="translate(0 60.32)"/></g></svg>