<svg xmlns="http://www.w3.org/2000/svg" width="900" height="260"><path d="m238.181 178.256-2.762 6.15 25.589-.469-3.023-6.097-1.394.052.326 6.071-5.264.157.013-6.111-5.38.143.077 6.02-5.706.13.117-6.084z" style="fill:none;stroke:#000;stroke-width:.333545;stroke-linecap:butt;stroke-linejoin:miter;stroke-miterlimit:4;stroke-dasharray:none;stroke-opacity:1"/><g style="display:inline"><path d="m593.74 130.918 3.728-3.807-.079-4.045 3.173-2.221.158-14.119.714-.08.318-4.52 1.03-.08.239 4.363 1.903-.08.08-2.258 2.5-.079.215 2.468 3.407 1.983 1.168-9.756-1.104-.23.04-.873 1.23-.555.416-3.53 1.19-.04.654 3.59 1.11.615.04.733-.991.258.218 6.227 2.519-2.36.079-4.521h2.538l.238 4.204 6.822.079v-5.156l8.407.08-.116-3.649 1.25-.098-.103-2.599 1.507-.08-.158-3.013.849-.047-.075-2.911.653-.056.051 2.94 1.377-.005.159 8.249h2.855l.08 1.507 1.19.317 1.348 42.118-.476 20.781-54.81 1.666z" style="fill:#607a98;fill-opacity:1;stroke:none;stroke-width:.358954;stroke-linecap:butt;stroke-linejoin:miter;stroke-miterlimit:4;stroke-dasharray:none;stroke-opacity:1" transform="translate(0 60.32)"/><g style="fill:#607a98;fill-opacity:1;stroke:none"><path d="M131.31 74.092c-.09-.16-.248-.233-.041-.839-.007-.168-.213-.253.013-.757-.105-.043-.256.111-.273-.17l.157-.116c-.053-.218-.316-.413.137-.591.094.097.268.237.382.425.118.192.176.432.293.61.125-.02.172-.072.45.095 0 .055-.037.205.017.284.058.084.255.053.246.085-.025.084-.177.015-.277.028-.093.011-.184.147-.205.229-.055.205-.013.523-.054.73l-.355-.074c.025-.385-.063-.558-.163-.71-.397-.15-.237.487-.328.771" style="fill:#607a98;fill-opacity:1;stroke:none;stroke-width:.0304305px;stroke-linecap:butt;stroke-linejoin:miter;stroke-opacity:1" transform="translate(15.536 -100.533)scale(3.58954)"/><path d="M132.633 74.153c-.196-.659.238-1.79 1.295-1.773 1.197-.009 1.5 1.053 1.488 1.788z" style="fill:#607a98;fill-opacity:1;stroke:none;stroke-width:.0304305px;stroke-linecap:butt;stroke-linejoin:miter;stroke-opacity:1" transform="translate(15.536 -100.533)scale(3.58954)"/><path d="m123.725 85.086.012-9.53-.436.004-.003-.695 3.486.01.002-.415 3.857.04.038-.324 6.863.02.03.332 4.006.013.007.355 3.275.015.01.6-.226.024-.004 8.594-1.406-.02-.094-3.886h-2.06l-.023 6.24-1.395.04.001-6.28h-2.083l.066 4.089-1.397 1.129-.012-5.217-4.076.03-.057 5.355-1.554.002-.024-5.388-1.761-.015-.057 6.73-1.555-.042.066-6.613-2.132-.016-.035 4.824z" style="fill:#607a98;fill-opacity:1;stroke:none;stroke-width:.05;stroke-linecap:butt;stroke-linejoin:miter;stroke-miterlimit:4;stroke-dasharray:none;stroke-opacity:1" transform="translate(15.536 -100.533)scale(3.58954)"/><path d="m133.928 72.38-.007-.354c-.488-.332-.405-.593-.007-.784l-.002-.161-.788-.685-.014-.327.396.007.47.49.45-.49.362-.02v.34l-.703.689c.024.026 0 .134.026.15.535.332.283.498-.026.785l-.005.352z" style="fill:#607a98;fill-opacity:1;stroke:none;stroke-width:.0304305px;stroke-linecap:butt;stroke-linejoin:miter;stroke-opacity:1" transform="translate(15.536 -100.533)scale(3.58954)"/><path d="M136.686 74.113c.088-.16.24-.232.04-.838.007-.17.207-.254-.013-.757.102-.043.249.11.265-.17l-.153-.117c.052-.218.308-.412-.132-.591-.092.097-.261.238-.372.425-.114.192-.17.433-.284.61-.122-.02-.167-.071-.438.095 0 .055.036.206-.016.284-.056.085-.248.053-.239.085.024.084.172.016.269.028.09.012.178.147.2.229.053.205.012.524.052.73l.344-.074c-.024-.384.062-.558.16-.71.384-.15.23.487.317.771" style="fill:#607a98;fill-opacity:1;stroke:none;stroke-width:.0299987px;stroke-linecap:butt;stroke-linejoin:miter;stroke-opacity:1" transform="translate(15.536 -100.533)scale(3.58954)"/></g><path d="m447.446 146 2.244-1.346v-8.189l1.234 1.57.224 5.049 5.497-4.487 11.666 6.842.112 4.039 6.281 1.01 3.478-4.376 2.692.113v-2.468l-1.122.056 1.627-2.131 1.85 1.934-1.121.028v2.02l9.086-.337 7.067 6.618.224 4.375h1.683l-.337-7.067 10.096-9.31 5.833 4.15v4.711l7.964.113.673-6.73 8.077-3.254 6.73 2.805.336 5.496 2.805-1.683-.785-12.45 7.29.111 1.908 44.533-103.985 1.234z" style="fill:#325bad;fill-opacity:1;stroke:none;stroke-width:.358954;stroke-linecap:butt;stroke-linejoin:miter;stroke-miterlimit:4;stroke-dasharray:none;stroke-opacity:1" transform="translate(0 60.32)"/><path d="M282.828 166.924c-.317-2.538.963-51.87.963-51.87l8.25-.317c.591-3.01-2.648-10.897 6.98-18.719l.512-7.694c1.21-.905 1.05-2.837 1.119-4.597l.594-.018c.14 1.833.26 3.814 1.04 4.435l.727 8.093c1.303-.019 2.895 1.473 3.814 2.416l.135-9.754 1.418-.178c-.377-6.871 2.945-13.115 10.787-18.957l.076-11.157 1.565-4.44.646-4.246.589-.027.78 4.27 1.361 4.297.536 11.382c8.945 4.44 10.227 11.836 10.787 19.512l1.586.08.318 9.795c.788-1.087 1.398-2.615 3.688-2.974v-8.487c.421-1.27 1.123-1.695 1.067-4.397l.777.02c-.085 1.683.13 2.945.892 4.417l.238 7.733c7.97 4.555 7.905 12.48 7.448 19.505l6.512.166 2.69 52.203z" style="fill:#607a98;fill-opacity:1;stroke:none;stroke-width:.358954;stroke-linecap:butt;stroke-linejoin:miter;stroke-miterlimit:4;stroke-dasharray:none;stroke-opacity:1" transform="translate(0 60.32)"/><path d="m208.528 143.218 8.31-13.648-.097-10.385 4.671-.82 9.835-33.004-2.36-3.408.194-1.73 3.277-2.351c4.872-29.738 7.851-99.79 7.851-99.79l-1.98-.73.026-4.43 1.902-.469-.052-1.355h-1.173l.287-2.944 3.376-.915.064-4.18.858-.684.405-13.413-.847.039.13-.743 2.02-.039.157.769-.795-.026.276 13.344.896.414.154 4.449 3.625.828.495 3.258-1.355.078.078 1.224 1.876.287-.312 4.404-1.772.938c1.95 33.494 2.675 66.049 7.921 99.542l3.023 2.502v1.928l-1.98 2.971 10.006 33.667 4.899.209-.521 10.11L284 150.294l2.063 2.653 1.623 7.907-18.658.104c-.156-1.563.135-9.763.135-9.763-5.005-5.199-10.08-9.91-18.58-12.778-3.596-.647-7.169-1.315-12.217.023-9.285 1.964-16.746 8.535-22.496 17.567l.417 5.837-12.04-.208.261-16.938 4.378-.156z" style="fill:#325bad;fill-opacity:1;stroke:none;stroke-width:.333545;stroke-linecap:butt;stroke-linejoin:miter;stroke-miterlimit:4;stroke-dasharray:none;stroke-opacity:1" transform="translate(0 60.32)"/><path d="m541.447 140.56 1.29.168-.056-7.74 1.851.224-.28-11.834 1.738.28-.526-20.3 1.002.278-.42-6.338 1.066.168-.112-5.44.898.224.56-8.637 2.132 6.394 4.865-34.367v-3.127l-1.963.028v-1.052l1.935-.014-.014-2.958.855-.014.113 2.916 1.85.014.03 1.094-1.823.014-.042 3.127 4.458 34.339 1.74-6.955.28 9.03.953-.225v5.553l1.346-.112v6.618h.784l-.112 5.272h1.402l.954-24.005 1.29 24.005 1.346-.112-.056-5.945h1.01l-.28-5.945 1.233-.056-.28-4.936 1.01.112.448-9.142 1.935 6.829 4.487-37.242-1.837-.028v-.925l1.893-.028.154-3.253.743-.014.098 3.253 1.81-.014.041.995-1.71.056 4.781 37.158 1.57-6.73 1.178 8.973.954-.112-.224 5.048h1.065l-.112 6.562 1.178-.112-.449 20.696 1.29-.169v11.666l1.627-.224.28 8.637 1.178-.28-.449 12.732-53.787-.057z" style="fill:#325bad;fill-opacity:1;stroke:none;stroke-width:.358954;stroke-linecap:butt;stroke-linejoin:miter;stroke-miterlimit:4;stroke-dasharray:none;stroke-opacity:1" transform="translate(0 60.32)"/><path d="m401.135 118.348.56-45.542-1.401-1.683.056-2.86-1.359-.393.032-6.391 3.12-.62.225-2.748 1.682-.112.561-3.814 1.346-.673-.334-3.023.794-1.903-2.896.297-1.447-.476c.267-.632.137-.986.932-1.09l2.776-.318c.66-.22 1.108-.682 1.031-1.745-.925-.307-1.85-.195-2.776-1.427-1.546.155-1.443-.57-1.983-.952 1.117-.241 2.484.391 3.331-.793.16-.767-.028-1.614-.555-2.539.613-.893 1.385-.67 2.221 0l-.159 1.666c.72 1.097 1.121 1.111 1.745.238l1.27-1.904.238 1.091-.476 2.479c-.2 1.753-.814 3.057-1.646 4.124l.377 3.966-1.27-.238.15 2.353 1.077 1.046.112 3.504 1.642.191.262 3.051 3.49.472.247 6.357-1.52.519.014 2.495-.905 1.844-.046 48.762-10.63-.397z" style="fill:#607a98;fill-opacity:1;stroke:none;stroke-width:.358954;stroke-linecap:butt;stroke-linejoin:miter;stroke-miterlimit:4;stroke-dasharray:none;stroke-opacity:1" transform="translate(0 60.32)"/><path d="m294.447 161.508.449-9.332c.952-.476 24.43-17.133 23.954-18.244-.476-1.11.317-4.917.317-4.917l16.181-10.946 28.08-.318 3.33-21.416 2.856 19.037 3.8-5.564-.151-13.79 3.014-9.835 1.586-29.824 2.22 28.872 2.698 10.946-.476 13.642s4.442 5.87 4.759 5.235 1.745-19.195 1.745-19.195l4.283 22.051h27.92v-4.918l-1.903-.793.01-3.658 2.398.065.21-17.11 2.618-9.597 7.932-.158.634-14.436 1.428 14.277 3.49.317.952-5.076 1.745 1.27 3.807 12.849.793 17.926h2.38v2.538l-1.904 1.745 1.844 32.85 1.862 29.21-58.02-.171-96.359.25z" style="fill:#325bad;fill-opacity:1;stroke:none;stroke-width:.358954;stroke-linecap:butt;stroke-linejoin:miter;stroke-miterlimit:4;stroke-dasharray:none;stroke-opacity:1" transform="translate(0 60.32)"/><path d="M94.725 129.78c.238-.952-.476-21.179-.476-21.179l1.03-3.49.04-46.877 1.31-.555 1.903-8.566 2.102 8.526 9.637.04 2.42-8.17 2.18 8.05 1.23.596.04 47.274 7.773-9.796.634-5.592.635 5.71 7.614 10.47.02-47.769 1.52-.578 1.008-8.39 2.203 8.392 11.235-.056 1.492-8.241 1.559 7.941 1.596.617.307 46.022 1.745 2.221-.158 24.272z" style="fill:#607a98;fill-opacity:1;stroke:none;stroke-width:.358954;stroke-linecap:butt;stroke-linejoin:miter;stroke-miterlimit:4;stroke-dasharray:none;stroke-opacity:1" transform="translate(0 60.32)"/><path d="M19.82 167.246c-.318-1.27-.649-62.069-.649-62.069l2.632-.037.079 9.518 1.19-.08-.08-3.727 2.102-.08.04-2.38h.873l.02 2.32 1.962-.02.16 3.808h1.189l.08-9.121 2.565-.033.052 16.372 13.087-.238-.093-16.148 2.454-.033.177 9.598 1.745-.08-.013-4.091 4.688-.075.192 4.195 1.872-.023-.076-9.524 2.202-.004.207 21.817h5.047l-.714-47.75 1.15-.079.219-4.977 1.368-.04.357 4.859 1.289-.02.535 11.6 3.49-7.059 1.348-2.538-.135-14.498-4.562.033-.116-2.957 5.607-.028.158 17.45 5.196 9.677-.04-11.105 1.15-.119.555-5.116 1.27-.04.436 4.997 1.19-.04-.318 47.75h1.721v-3.096h1.627v3.096h4.15l.014-3.32 1.472-.015.113 3.335h4.459l-.099-3.265h1.445l.112 3.265h4.248l-.098-3.32h1.515l.098 3.32h4.893l-.056-3.265 1.515-.056.056 3.321h4.038l-.013-3.317 1.386-.003.085 3.32h2.805l-.337-8.48 1.234-.056-.056-9.703 1.273-.39.017-2.751h2.019l-.056 2.86 1.122.225.112 9.59 1.17.087-.105 8.619h2.02l-.057-3.49 1.627.057.056 3.433h4.094l-.08-3.38 1.545-.05.05 3.43h2.467c-.112 0-.056-21.605-.056-21.605l2.468-.057-.112 8.862 1.346.056 2.524-3.87 2.468 3.926 1.57.056-.224-8.973h2.524l.201 17.48 2.3-1.824 3.411-.238.066-1.223 2.393-.046.238 2.935 4.978-.14-.265-16.438 2.267-.08.397 8.726 1.535-.04 2.395-4.038 2.494 4.157 1.349-.08.122-8.57 2.294.037.28 20.987h2.222l-.08-4.521h1.349l.158 4.52h4.68l-.628-36.524 4.907-13.368-.075-10.072 3.648-6.583.318-11.66.952 11.66 3.014 6.186.08 9.836 4.837 13.96-.237 59.727.634 15.387z" style="fill:#325bad;fill-opacity:1;stroke:none;stroke-width:.358954;stroke-linecap:butt;stroke-linejoin:miter;stroke-miterlimit:4;stroke-dasharray:none;stroke-opacity:1" transform="translate(0 60.32)"/><path d="M720.359 116.8c.79-4.9 4.38-51.789 4.38-51.789l4.486.224.898-15.48 22.21 1.347-1.122 15.48 5.16.224-4.71 55.638-3.142 37.466-29.165-.225h-3.814zM842.841 160.187c.159-.635 5.595-119.226 5.595-119.226l1.322-.958.326-5.883-1.509-.015.046-1.06 1.5-.04.117-2.86.84-.017.018 2.889 1.417-.023.085 1.116-1.397.007.21 5.872 1.269.853 1.82 41.057 2.062-.158 3.37-51.676-.99-.04.039-1.15 1.15-.119.723-7.69-1.619-.226-.036-1.23 1.753-.022.323-2.412.945-.03.227 2.477 1.78.102.077 1.232-1.772.119.413 7.6 1.15.12.03 1.093-1.02.136 4.197 70.945 3.144-.043.789-4.988 1.427-.04.033-1.524-1.271-.014-.043-.95 1.412.037.089-1.6.699-.014.079 1.609 1.491.018.003.943-1.379.037.045 1.47 1.458.147.396 4.481 4.297-.234 2.865-69.987-.871-.123.036-1.14 1.026-.083.28-7.967-1.14.034.032-1.403 1.318.018.197-2.184 1.03.014.271 2.095 1.286-.02.09 1.463-1.267-.003.497 7.669 1.162.077.097 1.227-.91.067 3.85 52.35 1.913-.117 1.76-41.017 1.245-.715.05-6.761-1.505.025.06-1.316 1.478-.073.156-1.87 1.224-.029.062 1.886 1.424-.062.07 1.398-1.395.071.269 6.727 1.194.276 8.147 118.879z" style="fill:#607a98;fill-opacity:1;stroke:none;stroke-width:.358954;stroke-linecap:butt;stroke-linejoin:miter;stroke-miterlimit:4;stroke-dasharray:none;stroke-opacity:1" transform="translate(0 60.32)"/><path d="M855.476 87.278v8.469h1.01l-.112-8.582z" style="fill:#fff;fill-opacity:1;stroke:none;stroke-width:.358954;stroke-linecap:butt;stroke-linejoin:miter;stroke-miterlimit:4;stroke-dasharray:none;stroke-opacity:1" transform="translate(0 60.32)"/><path d="M855.532 100.234h.786v4.823h-.842z" style="fill:#607a98;fill-opacity:1;stroke:none;stroke-width:.358954;stroke-linecap:butt;stroke-linejoin:miter;stroke-miterlimit:4;stroke-dasharray:none;stroke-opacity:1" transform="translate(0 60.32)"/><path d="m867.086 105.113 3.197.028.029 3.365-3.281.028zM876.453 105.113h3.309l.029 3.113-3.253.196zM866.862 115.601l3.646-.056.056 3.814-3.618.028zM876.116 115.657h3.814l-.029 3.562-3.673.028zM890.19 87.132V95.6h1.01l-.112-8.581zM890.253 100.15h.786v4.824h-.842z" style="fill:#fff;fill-opacity:1;stroke:none;stroke-width:.358954;stroke-linecap:butt;stroke-linejoin:miter;stroke-miterlimit:4;stroke-dasharray:none;stroke-opacity:1" transform="translate(0 60.32)"/><path d="M734.607 157.861c.225-.897 0-7.852 0-7.852l3.59-2.02-.449-6.057 1.57-.673-.672-37.914c13.907-6.503 32.231-8.296 49.027-11.718l4.143 2.07c1.73-.128 3.78.383 4.935-.896l3.365-1.795c10.118-.718 20.235-1.879 30.353-.791l.159 3.034 3.181 2.72 6.017 29.318h6.607l1.838 3.978 3.367-.183 2.676-3.795c6.915.496 14.166.741 20.3 1.824.274 10.637-.548 22.005.883 31.872z" style="fill:#325bad;fill-opacity:1;stroke:none;stroke-width:.358954;stroke-linecap:butt;stroke-linejoin:miter;stroke-miterlimit:4;stroke-dasharray:none;stroke-opacity:1" transform="translate(0 60.32)"/><path d="M770.251 122.431h2.538l-.158-3.41h-2.3zM776.857 118.33l2.992-.103.018 3.672-3.219.085zM783.63 121.49l3.028-.168.029-3.14-2.945.055zM790.937 121.206l3.029-.168.028-3.14-2.944.055zM784.375 126.002l3.028-.169.03-3.14-2.945.056zM790.572 125.918l3.029-.169.029-3.14-2.945.056zM798.34 120.702l4.095-.057-.084-3.617h-3.87zM797.583 125.665l3.029-.168.029-3.14-2.945.055zM806.36 120.533l3.73-.196.03-3.14-3.647.083zM805.239 125.3h2.356l.056-3.252-2.355.056zM809.628 125.385l2.145-.028.029-3.225h-2.216z" style="fill:#fff;fill-opacity:1;stroke:none;stroke-width:.358954;stroke-linecap:butt;stroke-linejoin:miter;stroke-miterlimit:4;stroke-dasharray:none;stroke-opacity:1" transform="translate(0 60.32)"/><path d="M1024.095 134.442c.112-1.234.336-10.32.336-10.32h-1.458l.112-9.647-2.131-.449.224-4.487 17.723-.449 16.041-4.374 4.936.448.224 2.468 4.263-.56 3.365.336 4.5.284 1.31.912 2.28 1.114 2.605-.323 2.194-.642 2.043-.526 2.274.214 1.639.537 1.795 1.346h2.916l.112 4.487-1.952-.072.27 9.046-1.515-.112.603 34.75-4.262-.224c.112-.449.35-34.638.35-34.638l-3.702.112.345 31.74-3.814-.168-.85-31.46-5.017.073.363 26.624h-4.039l-.336-26.753-5.497-.056.832 33.563-4.038-.225-.327-33.506-4.88-.112.314 33.694-4.206-.056-.145-33.695h-3.926v9.591l-4.151.112.056-9.646-5.665.056.056 9.366-3.702.112-.056-9.366h-3.701l-.225 11.89-4.823.112z" style="fill:#607a98;fill-opacity:1;stroke:none;stroke-width:.358954;stroke-linecap:butt;stroke-linejoin:miter;stroke-miterlimit:4;stroke-dasharray:none;stroke-opacity:1" transform="translate(0 60.32)"/><path d="m878.766 158.316 1.903-17.926 1.23-11.938 1.07-8.368 1.19 7.139.794 4.68 11.977-.555s.238-4.125.317-4.125.952-8.25 1.27-7.615c.316.635.911 7.615.911 7.615l.357 7.853s10.232.396 10.074.079c-.16-.317.158-10.708.158-10.708l2.221-.238-.04-12.294.754-.635.635-10.073 1.03 10.311.834.436.356 13.841s2.063-3.172 2.063-3.49v-5.79l4.997.066-.08-9.505-2.108-.06-.028-1.66 2.593.023.163 11.187 4.694-.13.238 4.68 1.586 4.362.714-13.246.793-.635.833-10.747.992 10.827.872.555.476 10.867 1.666 1.824.317 7.694 1.904-.159-.317-7.535 3.093-27.92 2.618 24.43.555 11.184h2.141l.102-7.624.274-3.004 1.182 3.387.881-.014.534-2.43 2.183-1.103v-13.801c3.09-7.325 6.322-12.821 11.104-16.974l-.34-5.355 1.26-1.7.508-18.644 1.983 18.64 1.138 1.535.145 5.286c5.801 6.23 9.128 12.005 10.932 16.974l.159 13.008 2.121 1.745.496 3.173.873-.08.158-4.124.923 3.052.505 7.973 2.062-.634s2.063-34.9 2.063-34.266 3.57 34.028 3.57 34.028 2.061.714 2.061.317-.118-8.05-.118-8.05l1.705.198 2.3-25.144 2.221 25.54 2.42-7.813h4.362l-.159-9.756-2.141-.08-.04-1.546h2.975l.357 11.422 4.124.08 1.27 7.217 2.696-25.302 2.856 25.699 1.665-.198-.079 10.589 11.343-.476.317-10.788 1.586 8.646 11.74-.159 1.11-8.725 2.697 16.34 1.428.952v14.674l-.493 19.078-168.035-4.936z" style="fill:#325bad;fill-opacity:1;stroke:none;stroke-width:.358954;stroke-linecap:butt;stroke-linejoin:miter;stroke-miterlimit:4;stroke-dasharray:none;stroke-opacity:1" transform="translate(0 60.32)"/><path d="m617.738 158.871-.159-7.614 4.125-2.697c.431-5.3.136-10.91-.476-16.657l1.903.159-.119-8.765 3.139-.94 5.705-6.794 5.264 6.814 5.254.12-.121-5.88 5.467-8.51.402-3.927.811.046.532 3.881 4.88 8.269.038 6.009 2.062-.159-.317-17.609h2.333c.835-8.303 2.177-15.332 13.306-22.459l.92-10.313 1.804-.613 1.345-2.924.182-4.338-1.347-.02.052-.795 1.388-.043.184-1.559.871.019.111 1.542 1.411.13.018.754-1.46.003-.063 4.395.93 2.77 1.69 1.05.959 9.3c15.338 8.28 11.328 15.26 13.344 22.579l2.314.364.206 17.842 1.698-.075.085-6.036 4.992-7.765.317-3.458 1.381.027.523 3.43 4.589 7.588.328 6.848 4.256.02 6.214-7.317 5.077 6.187 3.331.318.476 9.2 2.062.12-.793 37.953-111.522-.158z" style="display:inline;fill:#325bad;fill-opacity:1;stroke:none;stroke-width:.358954;stroke-linecap:butt;stroke-linejoin:miter;stroke-miterlimit:4;stroke-dasharray:none;stroke-opacity:1" transform="translate(0 60.32)"/><path d="m596.58 152.843.73 3.814.841-10.545.841.056.337 4.88.953-.897v-3.646l3.141-2.889.168-4.318.449 4.262 2.748 2.216.228 4.662.782-.795.351-3.546.711-.198.677 8.402 3.87-.112.616-4.207h.954l.336 9.423 2.3-1.458-.224-6.17 3.028.056.056 14.022s-25.351.953-25.351.505c0-.45-.673-13.405-.673-13.405zM1047.616 154.998h2.58l2.805-4.374 2.243 4.823 5.024-.013.131-4.065-1.419.011 6.123-5.818.011-3.126 6.843-4.487 6.282 4.374.056 3.197 7.571 5.665-1.682.224.111 3.478h3.59l-.224-4.711 5.608-5.16 2.132 2.692h7.852l.224 25.912-55.638-.673z" style="fill:#325bad;fill-opacity:1;stroke:none;stroke-width:.358954;stroke-linecap:butt;stroke-linejoin:miter;stroke-miterlimit:4;stroke-dasharray:none;stroke-opacity:1" transform="translate(0 60.32)"/><path d="m-14.707 146.898 217.167 2.916 11.331 15.075 62.292-.147 1.996-6.674 252.375-.226 14.923-8.569 47.31.498 5.927 12.388 83.492-5.304 345.948-3.285 7.854 6.89 139.895.246 27.242 25.677v18.396l-1217.752-.224Z" style="fill:#325bad;fill-opacity:1;stroke:none;stroke-width:.358954;stroke-linecap:butt;stroke-linejoin:miter;stroke-miterlimit:4;stroke-dasharray:none;stroke-opacity:1" transform="translate(0 60.32)"/><path d="m202.46 149.814 2.356.224 15.34 10.124.056-4.992 4.458-.084-.224-4.262 3.365-4.712 3.366 4.824-.027 4.15 3.307-.084.028 2.608 2.104-.056-.14-4.6 4.038-5.944 7.403-.113.224-4.262 1.26-.02.113 4.487 4.058 4.395.178 6.169 1.947.046-.151-6.585.672-1.65.112-5.945h1.795l-.112 5.16 4.15-5.945 5.945 8.189-.112 7.403 3.926.112 1.234 2.468 1.94.053-.033-9.251 16.377.336 4.829 10.572-.903 28.465-93.103 1.121z" style="fill:#325bad;fill-opacity:1;stroke:none;stroke-width:.358954;stroke-linecap:butt;stroke-linejoin:miter;stroke-miterlimit:4;stroke-dasharray:none;stroke-opacity:1" transform="translate(0 60.32)"/><path d="m239.173 92.191-5.942 25.745 19.804-.416-4.898-25.329zM223.694 140.92c.074-.369 5.601-11.35 5.601-11.35h29.113l6.265 11.94c-15.459-8.636-29.058-8.658-40.98-.59" style="fill:#fff;fill-opacity:.776471;stroke:none;stroke-width:.333545;stroke-linecap:butt;stroke-linejoin:miter;stroke-miterlimit:4;stroke-dasharray:none;stroke-opacity:1" transform="translate(0 60.32)"/><path d="M240.94 73.481c1.789-23.745 2.15-54.68 3.17-85.718 1.22 28.728 1.692 59.117 3.308 85.74z" style="fill:#fff;fill-opacity:.776596;stroke:none;stroke-width:.333545;stroke-linecap:butt;stroke-linejoin:miter;stroke-miterlimit:4;stroke-dasharray:none;stroke-opacity:1" transform="translate(0 60.32)"/><path d="m230.47 124.086 2.761-6.15 2.593-.039-.117 6.085zM235.824 117.897l5.511-.065.079 6.02-5.707.13z" style="fill:#fff;fill-opacity:.776471;stroke:#000;stroke-width:.333545;stroke-linecap:butt;stroke-linejoin:miter;stroke-miterlimit:4;stroke-dasharray:none;stroke-opacity:1" transform="translate(0 60.32)"/><path d="m241.335 117.832 5.381-.143-.013 6.11-5.29.053zM246.716 117.689l4.925-.117.326 6.071-5.264.157z" style="fill:#fff;fill-opacity:.776471;stroke:#000;stroke-width:.333545;stroke-linecap:butt;stroke-linejoin:miter;stroke-miterlimit:4;stroke-dasharray:none;stroke-opacity:1" transform="translate(0 60.32)"/><path d="m251.641 117.572 1.394-.052 3.023 6.097-4.09.026z" style="fill:#fff;fill-opacity:.776471;stroke:#000;stroke-width:.333545;stroke-linecap:butt;stroke-linejoin:miter;stroke-miterlimit:4;stroke-dasharray:none;stroke-opacity:1" transform="translate(0 60.32)"/></g></svg>