<svg xmlns="http://www.w3.org/2000/svg" width="600" height="260"><g style="display:inline"><path d="m4.013 129.504 3.728-3.807-.079-4.046 3.173-2.22.158-14.12.714-.079.318-4.52 1.03-.08.239 4.362 1.903-.079.08-2.258 2.5-.08.215 2.469 3.406 1.982 1.169-9.756-1.104-.23.04-.872 1.23-.555.416-3.53 1.19-.04.654 3.59 1.11.614.04.734-.991.258.218 6.226 2.519-2.36.079-4.52h2.538l.238 4.203 6.821.08v-5.156l8.408.08-.116-3.65 1.25-.097-.103-2.6 1.507-.078-.159-3.015.85-.046-.075-2.912.653-.056.051 2.94 1.377-.005.159 8.25h2.855l.08 1.506 1.19.318 1.348 42.118-.476 20.781-54.81 1.666z" style="fill:#607a98;fill-opacity:1;stroke:none;stroke-width:.358954;stroke-linecap:butt;stroke-linejoin:miter;stroke-miterlimit:4;stroke-dasharray:none;stroke-opacity:1" transform="translate(0 60.32)"/><g style="fill:#607a98;fill-opacity:1;stroke:none"><path d="M131.31 74.092c-.09-.16-.248-.233-.041-.839-.007-.168-.213-.253.013-.757-.105-.043-.256.111-.273-.17l.157-.116c-.053-.218-.316-.413.137-.591.094.097.268.237.382.425.118.192.176.432.293.61.125-.02.172-.072.45.095 0 .055-.037.205.017.284.058.084.255.053.246.085-.025.084-.177.015-.277.028-.093.011-.184.147-.205.229-.055.205-.013.523-.054.73l-.355-.074c.025-.385-.063-.558-.163-.71-.397-.15-.237.487-.328.771" style="fill:#607a98;fill-opacity:1;stroke:none;stroke-width:.0304305px;stroke-linecap:butt;stroke-linejoin:miter;stroke-opacity:1" transform="translate(-574.19 -101.948)scale(3.58954)"/><path d="M132.633 74.153c-.196-.659.238-1.79 1.295-1.773 1.197-.009 1.5 1.053 1.488 1.788z" style="fill:#607a98;fill-opacity:1;stroke:none;stroke-width:.0304305px;stroke-linecap:butt;stroke-linejoin:miter;stroke-opacity:1" transform="translate(-574.19 -101.948)scale(3.58954)"/><path d="m123.725 85.086.012-9.53-.436.004-.003-.695 3.486.01.002-.415 3.857.04.038-.324 6.863.02.03.332 4.006.013.007.355 3.275.015.01.6-.226.024-.004 8.594-1.406-.02-.094-3.886h-2.06l-.023 6.24-1.395.04.001-6.28h-2.083l.066 4.089-1.397 1.129-.012-5.217-4.076.03-.057 5.355-1.554.002-.024-5.388-1.761-.015-.057 6.73-1.555-.042.066-6.613-2.132-.016-.035 4.824z" style="fill:#607a98;fill-opacity:1;stroke:none;stroke-width:.05;stroke-linecap:butt;stroke-linejoin:miter;stroke-miterlimit:4;stroke-dasharray:none;stroke-opacity:1" transform="translate(-574.19 -101.948)scale(3.58954)"/><path d="m133.928 72.38-.007-.354c-.488-.332-.405-.593-.007-.784l-.002-.161-.788-.685-.014-.327.396.007.47.49.45-.49.362-.02v.34l-.703.689c.024.026 0 .134.026.15.535.332.283.498-.026.785l-.005.352z" style="fill:#607a98;fill-opacity:1;stroke:none;stroke-width:.0304305px;stroke-linecap:butt;stroke-linejoin:miter;stroke-opacity:1" transform="translate(-574.19 -101.948)scale(3.58954)"/><path d="M136.686 74.113c.088-.16.24-.232.04-.838.007-.17.207-.254-.013-.757.102-.043.249.11.265-.17l-.153-.117c.052-.218.308-.412-.132-.591-.092.097-.261.238-.372.425-.114.192-.17.433-.284.61-.122-.02-.167-.071-.438.095 0 .055.036.206-.016.284-.056.085-.248.053-.239.085.024.084.172.016.269.028.09.012.178.147.2.229.053.205.012.524.052.73l.344-.074c-.024-.384.062-.558.16-.71.384-.15.23.487.317.771" style="fill:#607a98;fill-opacity:1;stroke:none;stroke-width:.0299987px;stroke-linecap:butt;stroke-linejoin:miter;stroke-opacity:1" transform="translate(-574.19 -101.948)scale(3.58954)"/></g><path d="m-142.28 144.586 2.243-1.346v-8.189l1.234 1.57.224 5.048 5.497-4.486 11.666 6.842.112 4.038 6.281 1.01 3.478-4.375 2.692.112v-2.468l-1.122.057 1.627-2.132 1.85 1.935-1.121.028v2.02l9.086-.337 7.067 6.618.224 4.375h1.683l-.337-7.067 10.096-9.31 5.833 4.15v4.711l7.964.112.673-6.73 8.077-3.253 6.73 2.804.336 5.497 2.805-1.683-.786-12.451 7.292.112 1.907 44.533-103.985 1.234z" style="fill:#325bad;fill-opacity:1;stroke:none;stroke-width:.358954;stroke-linecap:butt;stroke-linejoin:miter;stroke-miterlimit:4;stroke-dasharray:none;stroke-opacity:1" transform="translate(0 60.32)"/><path d="m-48.28 139.146 1.29.168-.056-7.74 1.851.224-.28-11.834 1.738.28-.526-20.301 1.002.28-.42-6.34 1.066.169-.112-5.44.898.224.56-8.637 2.132 6.393 4.865-34.367V49.1l-1.963.028v-1.052l1.935-.014-.014-2.959.855-.014.113 2.917 1.85.014.03 1.094-1.823.014-.042 3.126 4.458 34.34 1.74-6.955.28 9.03.953-.225v5.553l1.346-.112v6.618h.784l-.112 5.272h1.402l.954-24.005 1.29 24.005 1.346-.112-.056-5.945h1.01l-.281-5.946 1.234-.056-.28-4.935 1.01.112.448-9.142 1.935 6.828 4.487-37.241-1.837-.028v-.926l1.893-.028.154-3.253.743-.014.098 3.253 1.81-.014.041.996-1.71.056 4.781 37.157 1.57-6.73 1.178 8.974.954-.112-.224 5.048h1.065l-.112 6.562 1.178-.113-.449 20.696 1.29-.168v11.666l1.627-.224.28 8.637 1.178-.28-.449 12.731-53.787-.056z" style="fill:#325bad;fill-opacity:1;stroke:none;stroke-width:.358954;stroke-linecap:butt;stroke-linejoin:miter;stroke-miterlimit:4;stroke-dasharray:none;stroke-opacity:1" transform="translate(0 60.32)"/><path d="M130.632 115.385c.79-4.9 4.38-51.788 4.38-51.788l4.486.224.898-15.48 22.21 1.346-1.122 15.48 5.16.225-4.711 55.638-3.14 37.465-29.166-.224h-3.814zM253.114 158.772c.159-.634 5.595-119.225 5.595-119.225l1.321-.958.327-5.884-1.509-.014.046-1.06 1.5-.04.117-2.861.84-.016.018 2.889 1.417-.023.085 1.116-1.397.007.21 5.872 1.269.853 1.82 41.057 2.062-.158 3.37-51.676-.99-.04.039-1.15 1.15-.12.723-7.69-1.619-.225-.036-1.231 1.753-.022.323-2.411.944-.03.228 2.477 1.78.102.077 1.232-1.772.118.413 7.601 1.15.12.03 1.093-1.02.136 4.196 70.945 3.145-.043.789-4.989 1.427-.04.032-1.523-1.27-.014-.043-.95 1.412.037.089-1.6.699-.014.079 1.609 1.491.018.003.942-1.379.037.045 1.47 1.458.147.396 4.482 4.297-.234 2.865-69.987-.871-.123.035-1.14 1.027-.083.28-7.968-1.14.034.032-1.402 1.318.018.197-2.184 1.03.014.271 2.094 1.286-.018.09 1.462-1.267-.003.497 7.668 1.162.077.097 1.228-.911.066 3.85 52.35 1.914-.116 1.76-41.018 1.245-.714.05-6.762-1.505.026.06-1.317 1.478-.072.156-1.87 1.224-.03.062 1.887 1.424-.062.07 1.398-1.395.07.269 6.728 1.194.276 8.147 118.879z" style="fill:#607a98;fill-opacity:1;stroke:none;stroke-width:.358954;stroke-linecap:butt;stroke-linejoin:miter;stroke-miterlimit:4;stroke-dasharray:none;stroke-opacity:1" transform="translate(0 60.32)"/><path d="M265.75 85.863v8.47h1.009l-.112-8.582z" style="fill:#fff;fill-opacity:1;stroke:none;stroke-width:.358954;stroke-linecap:butt;stroke-linejoin:miter;stroke-miterlimit:4;stroke-dasharray:none;stroke-opacity:1" transform="translate(0 60.32)"/><path d="M265.805 98.82h.786v4.823h-.842z" style="fill:#607a98;fill-opacity:1;stroke:none;stroke-width:.358954;stroke-linecap:butt;stroke-linejoin:miter;stroke-miterlimit:4;stroke-dasharray:none;stroke-opacity:1" transform="translate(0 60.32)"/><path d="m277.36 103.699 3.196.028.029 3.365-3.281.028zM286.726 103.699h3.309l.028 3.113-3.253.196zM277.135 114.187l3.645-.056.056 3.814-3.617.028zM286.39 114.243h3.813l-.029 3.562-3.673.028zM300.463 85.718v8.469h1.01l-.112-8.581zM300.526 98.736h.786v4.823h-.842z" style="fill:#fff;fill-opacity:1;stroke:none;stroke-width:.358954;stroke-linecap:butt;stroke-linejoin:miter;stroke-miterlimit:4;stroke-dasharray:none;stroke-opacity:1" transform="translate(0 60.32)"/><path d="M144.88 156.447c.225-.898 0-7.852 0-7.852l3.59-2.02-.449-6.057 1.57-.673-.672-37.914c13.907-6.504 32.23-8.296 49.027-11.719l4.143 2.072c1.73-.129 3.78.382 4.935-.898l3.365-1.794c10.118-.718 20.235-1.879 30.353-.791l.159 3.034 3.181 2.72 6.017 29.317h6.607l1.837 3.979 3.368-.184 2.676-3.795c6.915.497 14.166.742 20.3 1.825.274 10.637-.548 22.005.883 31.871z" style="fill:#325bad;fill-opacity:1;stroke:none;stroke-width:.358954;stroke-linecap:butt;stroke-linejoin:miter;stroke-miterlimit:4;stroke-dasharray:none;stroke-opacity:1" transform="translate(0 60.32)"/><path d="M180.524 121.017h2.538l-.158-3.41h-2.3zM187.13 116.916l2.992-.103.018 3.672-3.219.085zM193.902 120.076l3.029-.168.029-3.141-2.945.056zM201.21 119.792l3.028-.168.03-3.141-2.945.056zM194.648 124.588l3.028-.169.03-3.14-2.945.056zM200.845 124.503l3.029-.168.029-3.14-2.945.055zM208.613 119.287l4.095-.056-.084-3.617h-3.87zM207.856 124.251l3.029-.168.029-3.141-2.945.056zM216.634 119.12l3.73-.197.028-3.141-3.646.084zM215.512 123.886h2.356l.056-3.253-2.356.057zM219.9 123.97l2.146-.027.029-3.225h-2.216z" style="fill:#fff;fill-opacity:1;stroke:none;stroke-width:.358954;stroke-linecap:butt;stroke-linejoin:miter;stroke-miterlimit:4;stroke-dasharray:none;stroke-opacity:1" transform="translate(0 60.32)"/><path d="M434.368 133.027c.112-1.234.336-10.32.336-10.32h-1.458l.112-9.646-2.131-.45.224-4.486 17.723-.449 16.04-4.375 4.937.45.224 2.467 4.263-.56 3.365.336 4.499.284 1.31.912 2.28 1.114 2.606-.323 2.194-.642 2.043-.526 2.274.214 1.639.537 1.795 1.346h2.916l.112 4.487-1.952-.073.27 9.047-1.515-.112.603 34.75-4.262-.224c.112-.45.35-34.638.35-34.638l-3.702.112.345 31.74-3.814-.168-.85-31.46-5.017.072.363 26.625h-4.039l-.336-26.753-5.497-.056.832 33.562-4.038-.224-.327-33.506-4.88-.113.314 33.694-4.206-.056-.146-33.694h-3.926v9.591l-4.15.112.056-9.647-5.665.056.056 9.367-3.702.112-.056-9.366h-3.701l-.225 11.89-4.823.112z" style="fill:#607a98;fill-opacity:1;stroke:none;stroke-width:.358954;stroke-linecap:butt;stroke-linejoin:miter;stroke-miterlimit:4;stroke-dasharray:none;stroke-opacity:1" transform="translate(0 60.32)"/><path d="m289.039 156.902 1.903-17.926 1.23-11.938 1.07-8.368 1.19 7.139.794 4.68 11.977-.556s.238-4.124.317-4.124.952-8.25 1.27-7.615c.316.635.911 7.615.911 7.615l.357 7.852s10.232.397 10.074.08c-.16-.318.158-10.708.158-10.708l2.221-.238-.04-12.295.754-.634.635-10.074 1.03 10.312.834.436.356 13.841s2.063-3.173 2.063-3.49v-5.79l4.997.066-.08-9.505-2.108-.06-.028-1.66 2.592.022.164 11.188 4.694-.13.238 4.68 1.586 4.362.714-13.246.793-.635.833-10.747.992 10.827.872.555.476 10.866 1.666 1.825.317 7.694 1.904-.159-.318-7.535 3.094-27.92 2.617 24.43.556 11.184h2.141l.102-7.624.274-3.004 1.182 3.386.881-.013.534-2.43 2.183-1.103v-13.801c3.09-7.325 6.322-12.822 11.104-16.974l-.34-5.356 1.26-1.7.508-18.644 1.983 18.64 1.138 1.536.145 5.286c5.801 6.23 9.127 12.005 10.932 16.974l.159 13.008 2.121 1.745.496 3.173.873-.08.158-4.124.923 3.052.505 7.973 2.062-.634s2.063-34.9 2.063-34.266 3.569 34.028 3.569 34.028 2.062.713 2.062.317c0-.397-.119-8.051-.119-8.051l1.706.198 2.3-25.144 2.221 25.54 2.42-7.812h4.362l-.159-9.756-2.142-.08-.039-1.546h2.975l.357 11.422 4.124.079 1.27 7.218 2.696-25.303 2.856 25.7 1.665-.199-.079 10.59 11.343-.477.317-10.787 1.586 8.646 11.74-.159 1.11-8.725 2.697 16.34 1.428.952v14.673l-.493 19.079-168.035-4.936zM508.227 147.008l.476-11.58.159-10.629-1.11-3.49 1.586.159.555-3.966 2.22-2.935-.237-7.852c-4.467-5.838-2.426-9.052-.476-12.453l6.821-8.963.476-13.326 1.428 13.484 6.663 8.25c4.227 5.907 1.936 8.789.475 12.056v4.283s3.808-5.235 3.808-6.028l.634-13.008.793 13.167 1.428 3.014 1.11-4.6-1.11-2.222 1.745-2.22c1.697-3.09 2.527-6.85 3.332-10.63.46-2.827.82-5.67.396-8.645l-1.586-.635.159-1.983 1.665-.634s6.98-20.147 7.297-21.099c.318-.952.16-6.94.16-6.94-2.951-4.198-4.181-7.784 1.268-12.612l.952-9.002 1.07 9.002c7.545 5.608 2.477 9.403 1.944 12.414l.159 7.297c1.32 7.247 3.753 14.25 5.949 21.297l2.022.158.278 1.706-1.428 1.11.476 6.822c.422 3.318.887 6.626 3.648 9.36l.476 16.973 3.49-4.283.476-10.47.952 10.787 3.966 6.346c.977-1.265.812-2.72.952-4.125-2.199-1.92-4.768-3.227-3.649-10.628 2.462-1.657 4.733-3.796 7.615-6.663l1.989-14.305 1.706 13.736c1.879 2.859 4.4 5.265 8.361 7.232.446 3.949.242 7.716-3.014 10.628-1.096 1.606-.825 4.385-.952 6.822l3.014 5.552-1.269 12.691 3.268 1.242-.098 1.621-1.726.408 1.77 5.382.352 10.962 2.32.636.662 10.026 5.73.425-.37 12.909-3.51 4.684-86.923-23.389c.318-.635-.793-13.325-.793-13.325" style="fill:#325bad;fill-opacity:1;stroke:none;stroke-width:.358954;stroke-linecap:butt;stroke-linejoin:miter;stroke-miterlimit:4;stroke-dasharray:none;stroke-opacity:1" transform="translate(0 60.32)"/><path d="m28.01 157.457-.158-7.614 4.125-2.697c.431-5.3.136-10.91-.476-16.657l1.903.158-.119-8.764 3.139-.94 5.705-6.794 5.264 6.814 5.254.12-.121-5.88 5.467-8.51.402-3.927.811.046.532 3.881 4.88 8.269.038 6.009 2.062-.16-.317-17.608h2.333c.835-8.303 2.176-15.332 13.306-22.459l.92-10.313 1.804-.613 1.345-2.924.182-4.338-1.347-.02.052-.795 1.388-.043.184-1.559.871.019.111 1.542 1.411.13.018.754-1.46.003-.063 4.395.93 2.77 1.69 1.05.959 9.3c15.338 8.28 11.328 15.26 13.344 22.579l2.314.363.206 17.843 1.698-.075.085-6.036 4.992-7.766.317-3.458 1.381.028.523 3.43 4.589 7.588.328 6.848 4.256.02 6.214-7.317 5.077 6.187 3.331.317.476 9.201 2.062.12-.793 37.953-111.522-.159z" style="display:inline;fill:#325bad;fill-opacity:1;stroke:none;stroke-width:.358954;stroke-linecap:butt;stroke-linejoin:miter;stroke-miterlimit:4;stroke-dasharray:none;stroke-opacity:1" transform="translate(0 60.32)"/><path d="m6.854 151.429.729 3.813.841-10.544.841.056.337 4.88.953-.898v-3.645l3.141-2.889.168-4.318.449 4.262 2.748 2.216.228 4.662.782-.795.351-3.547.711-.197.677 8.402 3.87-.112.616-4.207h.954l.336 9.423 2.3-1.459-.225-6.17 3.03.057.055 14.022s-25.351.953-25.351.504-.673-13.404-.673-13.404zM457.89 153.584h2.58l2.804-4.375 2.243 4.824 5.024-.013.131-4.065-1.419.01 6.123-5.817.011-3.127 6.843-4.487 6.282 4.375.056 3.197 7.571 5.665-1.682.224.111 3.478h3.59l-.224-4.712 5.608-5.16 2.132 2.693h7.852l.224 25.912-55.638-.673z" style="fill:#325bad;fill-opacity:1;stroke:none;stroke-width:.358954;stroke-linecap:butt;stroke-linejoin:miter;stroke-miterlimit:4;stroke-dasharray:none;stroke-opacity:1" transform="translate(0 60.32)"/><path d="m-209.869 180.839 150.596-24.411 14.923-8.57 47.31.499 5.927 12.388 83.492-5.305 345.948-3.284 7.854 6.89 139.895.246 27.242 25.676v18.397l-821.772-.932z" style="fill:#325bad;fill-opacity:1;stroke:none;stroke-width:.358954;stroke-linecap:butt;stroke-linejoin:miter;stroke-miterlimit:4;stroke-dasharray:none;stroke-opacity:1" transform="translate(0 60.32)"/></g></svg>