<?xml version="1.0" encoding="UTF-8" standalone="no"?>
<?xml-stylesheet type="text/css" href="/styles/home.css"?><!-- https://www.amcharts.com/svg-maps -->

<svg
   version="1.1"
   id="map-france"
   viewBox="0 0 999.99999 999.99999"
   width="1000"
   height="1000"
   class=""
   sodipodi:docname="france.svg"
   inkscape:version="1.3.1 (91b66b0783, 2023-11-16)"
   xmlns:inkscape="http://www.inkscape.org/namespaces/inkscape"
   xmlns:sodipodi="http://sodipodi.sourceforge.net/DTD/sodipodi-0.dtd"
   xmlns="http://www.w3.org/2000/svg"
   xmlns:svg="http://www.w3.org/2000/svg"
   xmlns:rdf="http://www.w3.org/1999/02/22-rdf-syntax-ns#"
   xmlns:cc="http://creativecommons.org/ns#"
   xmlns:dc="http://purl.org/dc/elements/1.1/">
  <metadata
     id="metadata31">
    <rdf:RDF>
      <cc:Work
         rdf:about="">
        <dc:format>image/svg+xml</dc:format>
        <dc:type
           rdf:resource="http://purl.org/dc/dcmitype/StillImage" />
        <dc:title />
      </cc:Work>
    </rdf:RDF>
  </metadata>
  <sodipodi:namedview
     pagecolor="#ffffff"
     bordercolor="#666666"
     borderopacity="1"
     objecttolerance="10"
     gridtolerance="10"
     guidetolerance="10"
     inkscape:pageopacity="0"
     inkscape:pageshadow="2"
     inkscape:window-width="1920"
     inkscape:window-height="1106"
     id="namedview29"
     showgrid="false"
     inkscape:zoom="50.715045"
     inkscape:cx="504.26851"
     inkscape:cy="10.381535"
     inkscape:window-x="-11"
     inkscape:window-y="-11"
     inkscape:window-maximized="1"
     inkscape:current-layer="map-france"
     showguides="true"
     inkscape:guide-bbox="true"
     inkscape:showpageshadow="2"
     inkscape:pagecheckerboard="0"
     inkscape:deskcolor="#d1d1d1">
    <sodipodi:guide
       position="981.56901,500"
       orientation="0,1"
       id="guide838"
       inkscape:locked="false"
       inkscape:label=""
       inkscape:color="rgb(0,0,255)" />
    <sodipodi:guide
       position="513.89089,989.54944"
       orientation="0,-1"
       id="guide1"
       inkscape:locked="false" />
  </sodipodi:namedview>
  <defs
     id="defs4">
    <style
       type="text/css"
       id="style2">
			.land
			{
				fill: #c2d234;
				fill-opacity: 1;
				stroke:white;
				stroke-opacity: 1;
				stroke-width:0.5;
			}
         .rectangle:hover {
            fill: #bdbdbd;
            cursor: pointer;
            }
		</style>
    <!-- <amcharts:ammap
       projection="mercator"
       leftLongitude="-4.778054"
       topLatitude="51.089515"
       rightLongitude="9.560176"
       bottomLatitude="41.363289" /> -->
    <!-- All areas are listed in the line below. You can use this list in your script. -->
    <!--{id:"FR-A"},{id:"FR-B"},{id:"FR-C"},{id:"FR-D"},{id:"FR-E"},{id:"FR-F"},{id:"FR-G"},{id:"FR-H"},{id:"FR-I"},{id:"FR-J"},{id:"FR-K"},{id:"FR-L"},{id:"FR-M"},{id:"FR-N"},{id:"FR-O"},{id:"FR-P"},{id:"FR-Q"},{id:"FR-R"},{id:"FR-S"},{id:"FR-T"},{id:"FR-U"},{id:"FR-V"}-->
  </defs>
  <path
     d="m 809.68989,359.37135 5.80893,-2.87088 -1.61173,-4.24757 3.3074,-11.29887 9.28421,-11.43318 -1.20879,-3.72711 9.73751,-17.22532 -1.34311,-3.07235 -7.25276,-1.32632 2.87089,-12.77628 -1.91393,-3.05557 3.08914,0.60441 -4.8016,-2.78695 10.69447,-2.93805 6.0104,-11.31565 -4.33151,-3.37455 5.03663,-7.92432 -3.82784,-5.79214 -7.43744,-2.43438 -5.23812,6.41333 -1.89713,-6.27901 3.07235,-1.94751 -9.78787,-3.27382 -0.7555,-4.21399 6.1615,-2.41758 4.60013,-12.84344 1.96429,7.57175 11.71858,3.39134 2.21613,3.22345 8.79733,-2.65263 5.90966,3.81106 6.96736,-12.82666 v 0 l 10.9463,-1.30952 5.03665,3.42492 4.70087,-2.58548 20.81811,9.73751 -9.95576,17.29247 -8.19294,4.76803 -9.25062,12.22225 -7.42067,25.88835 0.85623,7.03451 -3.5928,2.65263 -8.10899,18.9042 -0.50367,8.9988 3.67675,6.46368 -4.58334,9.63679 -0.6044,15.04277 -2.53511,3.76069 4.98628,12.54124 -5.87609,3.72711 2.19934,1.19202 -2.93805,4.66728 -3.97894,-1.32632 1.67888,2.48475 -4.81839,3.99573 -9.97255,1.10807 -5.1038,-2.31686 2.21613,-5.15416 -4.83518,-0.92338 v 0 l -3.24025,-9.25064 -5.62425,-0.95696 2.16576,-12.44051 -11.88648,-6.16149 z"
     class="land"
     title="Alsace"
     id="FR-A"
     inkscape:connector-curvature="0"
     style="fill:#c2d234;fill-opacity:1;stroke:#ffffff;stroke-width:0.83944046;stroke-opacity:1" />
  <path
     d="m 377.1598,573.63014 10.10686,4.24756 -1.62851,4.93592 4.21399,4.24757 3.96216,-4.75124 1.98108,2.14897 8.42798,-0.95696 4.68408,7.90753 5.65782,0.52045 -3.17308,4.9527 12.03758,4.1972 -2.58547,3.07235 4.73443,2.30007 -6.11112,5.62425 -0.65477,4.88555 3.52566,1.7964 -3.49208,4.91912 4.26437,1.54457 -2.36723,2.2497 3.69354,3.22345 7.21919,0.80587 -2.36723,1.9475 4.88555,8.41119 v 0 l -2.63585,1.51099 2.18255,12.40694 -9.87182,8.15936 1.22558,5.45636 -11.66822,6.86662 -3.03878,9.41852 -8.5455,2.8541 5.54031,17.25889 -8.36083,1.99787 -3.1563,-3.49207 -1.88034,6.88341 5.67462,3.4585 -3.07235,8.0922 -3.71033,0.63798 2.83731,4.46582 -7.30313,-0.55403 0.62118,3.1395 -9.43531,8.37762 -4.93591,-5.40599 -20.39841,8.6966 -4.85196,-3.02198 -5.18774,4.75123 -2.06503,-2.78694 -4.96948,3.895 0.23504,6.2958 -5.57388,-3.17308 1.93071,-2.4008 -3.0052,-2.92125 -4.14683,5.3892 -5.82572,-1.04091 -4.18042,4.01253 3.71033,2.82052 -0.48687,5.60746 -2.30007,0.16789 2.21612,6.81626 -3.84463,2.88767 -2.08182,8.52872 2.8541,3.42491 9.90539,0.0503 5.43959,10.52658 -3.3074,0.85623 -0.10073,4.98627 4.63371,-3.2906 2.11538,9.46888 -5.28847,4.28115 2.01466,2.95483 -3.89501,4.54977 0.36935,4.38187 -3.45849,-0.28541 -5.27168,6.26223 0.90659,5.92645 -7.53817,4.41546 -1.77961,14.79094 v 0 l -5.67462,4.78481 -7.77323,-2.6862 -3.18987,4.68407 -12.55802,-11.2485 -1.54458,-6.78268 -13.196,1.39347 -11.92006,-6.71552 -1.94749,1.52778 -11.61786,-5.74177 2.66942,-4.75124 -5.1038,2.26649 -0.67155,6.27901 -5.99361,-1.67888 -2.30007,-3.99573 6.36297,-9.58641 -0.4533,-6.54764 -10.2076,-3.42492 -5.1038,3.99574 -1.10806,-5.25489 -7.31992,1.00732 -4.01253,-5.20453 -0.11751,-2.23291 8.44477,-1.42705 4.68407,-4.28114 10.71126,-20.54951 10.42586,-54.26143 2.78694,-32.30167 4.39866,-11.19813 13.2128,2.23291 -4.54977,-5.87608 2.48475,-0.0336 -9.301,-7.75643 -5.54032,15.69754 -1.05769,-1.74604 7.28634,-82.91993 4.3483,-8.00826 2.33365,-1.71246 -0.40293,6.1447 18.28301,16.38588 7.9579,26.72778 6.63157,6.4637 -5.12058,-11.86969 -3.25703,-19.49181 v 0 l 8.34404,0.70513 0.57082,-2.5519 1.56136,4.9527 9.75429,1.77962 2.95484,13.29674 1.42705,-2.60228 12.00399,7.43745 7.18562,-2.68621 3.05555,2.26649 3.64318,-10.24117 3.32418,-2.4176 5.50673,2.06503 9.14991,-8.9988 -1.30954,-7.15203 3.82786,-8.91486 1.96429,1.71245 7.0513,-4.33151 5.07021,-6.49726 0.4533,-8.05864 3.79427,-0.0503 z m -49.57735,228.07597 v 0 l -2.43438,4.11326 2.8373,1.88035 z m -2.80374,12.32299 2.90447,-2.08181 -2.36722,-4.46582 z"
     class="land"
     title="Aquitaine"
     id="FR-B"
     inkscape:connector-curvature="0"
     style="fill:#c2d234;fill-opacity:1;stroke:#ffffff;stroke-width:0.83944046;stroke-opacity:1" />
  <path
     d="m 492.17994,502.54632 5.59066,-9.75429 12.25584,-0.25184 5.43957,-3.45849 -3.10593,-10.69447 4.02931,0.0335 -0.25183,-3.20666 6.37975,-5.57388 3.1563,2.87088 5.94324,-0.88981 5.18773,-6.81625 7.70607,-0.20147 v 0 l 11.73538,12.004 4.83517,-4.11326 5.42279,3.34098 5.13737,-3.03878 2.51833,6.32939 7.25276,-3.79428 1.94751,-7.37029 2.53511,0.70514 7.79,15.47927 0.38615,6.41333 6.76589,0.73871 2.0986,4.36509 5.64104,-0.48688 3.45849,3.13951 0.33577,13.53178 -7.35349,5.18774 v 0 l -9.1499,3.69355 4.39866,24.05836 -9.03237,2.95483 -0.55403,3.94537 4.29793,4.39866 -4.56655,9.4521 20.63345,29.33005 -1.49422,5.92645 -5.17095,4.04611 1.0577,6.02718 3.03877,-4.14684 4.88555,4.75123 0.16788,-2.11538 3.52566,1.32631 5.13737,-4.75123 6.14471,-0.52045 9.35136,5.22131 -2.50153,1.82999 2.73658,1.61172 -1.511,2.65264 v 0 h 6.02719 v 0 l 3.81105,5.12058 -2.31685,10.25796 -5.82572,-2.45117 1.74603,3.82786 -3.62637,2.80373 2.30007,3.92858 -5.80894,1.69567 1.20879,4.54977 -6.19506,0.97374 -4.76802,8.8477 -8.49514,0.0671 -0.43651,3.79426 -5.50673,0.65476 -1.79641,5.70821 -4.33151,2.384 v 0 l -8.2433,-9.20026 -5.35563,0.92338 -2.5519,-5.15416 -2.53511,0.53723 -0.35256,4.86877 -7.70606,1.6285 -7.45424,-16.25156 -5.96003,4.73445 -3.05556,-0.85623 -3.47528,7.16882 -4.214,-4.02932 -10.42585,25.36789 v 0 l -8.51192,-22.497 -6.04397,1.81319 -2.50154,-8.37761 -9.21706,9.36815 -3.10592,12.30619 -5.32205,6.78268 -9.1667,0.99055 -3.99573,-2.71979 -5.45636,1.77961 -0.87302,3.1563 -5.20454,-7.70607 2.92126,-8.98201 -5.60746,-8.31046 -2.06502,-10.02292 v 0 l 5.67462,-2.50153 -3.08915,-5.75856 5.18774,-2.18255 0.4533,-5.40599 3.67675,-2.80374 -2.66942,-5.54031 11.5507,-11.38281 -0.77229,-7.43744 9.20027,4.14684 3.32419,-2.18255 -2.83731,-2.68621 2.11539,-13.39747 -3.92859,-4.14684 4.214,-4.58334 0.13431,-6.76589 -9.43531,-11.46675 11.73538,-8.81412 0.53724,-4.29795 3.2906,-1.52778 -0.68834,-6.2958 -8.32725,-24.57881 -12.55803,-6.34617 2.19934,-2.92126 -3.24025,-0.92338 z"
     class="land"
     title="Auvergne"
     id="FR-C"
     inkscape:connector-curvature="0"
     style="fill:#c2d234;fill-opacity:1;stroke:#ffffff;stroke-width:0.83944046;stroke-opacity:1" />
  <path
     d="m 545.61871,303.41426 -2.2329,5.67462 2.2329,5.77534 -7.67249,9.03238 v 0 l 6.44691,3.10593 1.41026,6.24544 5.22131,4.51619 0.23505,5.92645 -8.27688,6.91698 1.12485,12.35657 -12.10474,3.05557 -0.26862,4.18041 5.45637,3.62638 3.50886,11.60106 -8.94844,3.22346 5.75857,10.27475 -4.39867,10.22438 7.9411,7.85717 2.51833,20.18014 4.18041,4.13005 -3.24024,23.28608 v 0 l 11.73538,12.004 4.83517,-4.11326 5.42279,3.34098 5.13737,-3.03878 2.51833,6.32939 7.25276,-3.79428 1.94751,-7.37029 2.53511,0.70514 7.79,15.47927 0.38615,6.41333 6.76589,0.73871 2.0986,4.36509 5.64104,-0.48688 3.45849,3.13951 0.33577,13.53178 -7.35349,5.18774 v 0 l -0.6044,6.17828 5.74177,1.17522 1.15844,3.35776 15.21065,-2.53511 4.71766,3.82785 6.78268,-2.97162 2.30006,-11.03025 6.84984,2.83731 4.4994,-2.65263 3.47528,2.8541 4.29794,-4.07968 5.45636,13.44783 12.74271,-34.85356 8.07541,3.47528 7.73965,-3.52565 4.71765,6.1615 5.47316,1.17521 v 0 l 7.15203,-3.08914 -4.11326,-8.61265 5.79214,-7.62212 -5.64104,-9.31779 2.13218,-4.11327 -4.44904,-4.56655 9.65357,-2.5519 -4.63371,-5.27169 -4.86876,0.50367 -2.45116,-5.30527 -2.08182,1.10806 -0.67155,-5.03664 4.44904,-3.54244 -2.40081,-3.69353 7.0513,-3.37456 3.77749,-6.36295 5.57388,-16.20121 -3.47528,-1.35989 1.02412,-7.87395 -3.59281,0.0336 0.45329,-5.94324 -5.00306,-1.44384 9.08275,-9.35136 -3.89501,-7.68928 -4.8016,2.56869 v 0 l -4.56655,-0.4533 -3.82785,3.37455 0.53724,-4.68408 -5.97682,-3.08914 0.35258,-2.90446 -4.24757,3.49207 -6.21186,-6.61479 -4.19721,2.51832 -0.67156,-7.85716 -3.02197,-0.53725 5.33884,-4.23078 -6.21186,-11.73537 -4.98628,1.27594 2.35043,-3.27381 -5.62425,-2.28328 0.5876,-4.51619 -14.94203,-2.4008 -2.97162,2.35044 1.29274,3.99574 -16.73844,0.70512 -1.511,3.77749 -3.35776,-0.53724 -1.27595,-4.34831 -1.67888,3.17309 -2.45117,-1.88035 -3.97895,3.49207 -3.49207,-2.04823 -1.07448,2.13218 -10.44264,-0.41972 1.29274,-5.23811 -1.30953,-2.26649 -2.9884,1.93071 1.41026,-3.32418 -5.62425,-10.69447 -3.59281,-1.52779 0.60439,-3.47528 -5.65783,2.68621 -2.56868,-5.20453 -3.59281,0.55403 2.78694,-8.78055 -8.04183,-10.22438 -5.27169,0.82265 -0.97375,-3.3074 z"
     class="land"
     title="Bourgogne"
     id="FR-D"
     inkscape:connector-curvature="0"
     style="fill:#c2d234;fill-opacity:1;stroke:#ffffff;stroke-width:0.83944046;stroke-opacity:1" />
  <path
     d="m 106.87675,404.14711 12.97775,7.52139 -0.94017,2.85409 -11.38282,-1.67888 z m 1.61173,-154.15484 0.35256,3.7439 9.35137,-3.79427 v 5.1038 l 5.13737,-0.31899 -2.21612,4.53298 8.00827,2.58548 -1.15843,3.65996 8.93164,7.58854 -0.33577,5.62424 7.53818,4.14684 -1.86356,3.27382 1.96429,-0.82265 2.703,4.70086 -0.60441,-4.70086 3.84465,1.10806 5.07022,-8.17615 5.64104,-2.4008 -1.04091,-2.36722 3.57602,-0.80586 1.20879,2.46795 7.0681,-6.24543 2.43438,2.13217 -3.72713,5.08701 6.51407,-2.5519 1.32631,9.9054 1.96429,-6.37974 1.17522,3.64317 1.99786,-4.39867 1.8132,1.82997 -1.91393,-3.4417 7.28635,-0.57082 5.22132,9.98935 -0.87302,5.10379 3.25703,-2.61906 -3.35776,-6.69873 2.73657,1.46063 -0.94017,-2.23291 -5.03665,-4.56656 2.90447,-5.13737 10.32512,-3.03878 -1.74604,7.8068 6.2958,3.57601 14.33765,-3.18987 v 0 l 5.80892,15.26103 4.68409,2.95482 4.70086,-0.83944 6.98414,-7.87395 12.80986,3.74391 v 0 l 1.72926,18.78668 -3.89501,6.54763 5.90966,27.39934 -9.65356,3.97895 -6.37975,19.50859 -16.16762,-6.07754 0.40292,3.34096 -10.39226,4.07969 -2.63585,5.57388 -13.9515,0.10074 -6.61479,3.84463 -1.27595,-2.31685 -7.57176,4.53297 -1.14164,12.05437 -4.13004,1.15843 -0.43651,3.27381 -9.40173,-2.71978 -1.30953,5.67462 -7.38708,-1.62852 -2.4008,2.97162 v 0 l -2.61906,-0.20146 -0.4365,-4.33151 4.23078,-0.63799 -4.78482,-2.66941 -21.32178,3.91179 -14.58948,-10.89594 0.33578,2.56869 -7.2024,-0.21825 -0.31899,5.74177 3.35777,4.63371 -3.59281,-0.45329 -1.27595,-12.59162 -9.51925,-9.26742 -5.187729,-0.0671 -0.369357,-2.56869 -6.111127,1.54457 -5.137376,-7.01772 -13.968288,-4.26436 -8.864492,1.47742 -6.362958,-11.56749 -2.988409,1.98108 1.007329,2.98841 -11.970421,-0.23505 -3.122719,6.24544 -12.272619,0.0168 0.654764,-9.48568 -4.38188,-7.73964 -6.245437,-4.44904 -15.7479037,-3.50886 1.5613592,-2.65262 20.7677585,-4.41547 7.773218,1.84677 2.635844,-4.23078 -3.374552,-7.72285 -10.308329,-3.65996 -6.631579,7.16883 1.074484,-8.20973 -5.456363,-0.55403 -0.470087,-2.63585 4.079681,-0.26862 -0.117522,-5.07023 2.736576,-1.07447 -0.218255,5.96002 2.501533,-2.85409 -0.218254,3.18987 3.542438,-1.64531 3.727116,2.28328 6.34617,-2.41758 3.24024,1.84676 2.719787,-3.50886 -8.041839,-0.13431 2.400799,-1.62851 -1.074484,-3.34097 -3.827848,3.77748 -5.943239,-0.0168 4.046103,-5.92645 -1.645303,-1.30953 -12.809862,6.0104 -5.1373759,-1.77962 -6.41332496,2.71979 -0.2854098,-19.49181 3.27381776,-4.26436 8.3272499,-2.13217 4.768023,-6.36296 9.821453,-0.0503 -2.467956,-1.8132 6.312592,-2.384 3.492073,1.32632 0.01679,3.25702 7.017722,-1.91393 -1.897136,-0.72191 2.518322,-2.97162 8.864492,1.10806 3.592804,-5.38921 2.585477,0.0168 -0.117521,5.60746 2.803731,1.19201 0.41972,-3.79427 0.13431,2.60226 5.389208,1.42705 1.578149,-6.19507 12.507662,2.46796 -1.024118,3.91179 2.467955,-2.88767 2.870887,1.67888 2.333644,-7.89074 -2.66942,-6.44691 2.249701,1.52778 3.508861,-5.03663 7.403864,4.13004 z"
     class="land"
     title="Bretagne"
     id="FR-E"
     inkscape:connector-curvature="0"
     style="fill:#c2d234;fill-opacity:1;stroke:#ffffff;stroke-width:0.83944046;stroke-opacity:1" />
  <path
     d="m 437.90171,242.35336 6.7659,10.67768 0.25183,18.40054 12.87701,11.71858 1.00733,9.11632 4.75123,2.75337 4.21399,-1.74603 -0.16788,5.33884 3.45849,0.47008 0.73871,3.97895 -1.09127,7.82358 13.31352,-1.09127 2.75336,-4.76802 2.93805,4.76802 5.75856,-3.6096 5.33884,1.8132 1.3599,5.84251 6.51405,3.52565 0.0336,6.11113 -5.15416,4.49939 18.24943,0.0503 3.39134,-2.28327 -1.24237,-2.23292 4.36509,-0.20147 1.42704,4.0461 8.19294,-3.45849 v 0 l 6.44691,3.10593 1.41026,6.24544 5.22132,4.51619 0.23504,5.92645 -8.27688,6.91698 1.12485,12.35657 -12.10474,3.05557 -0.26862,4.18041 5.45637,3.62638 3.50886,11.60106 -8.94844,3.22346 5.75857,10.27475 -4.39867,10.22438 7.9411,7.85717 2.51833,20.18014 4.18041,4.13005 -3.24024,23.28608 v 0 l -7.70607,0.20147 -5.18773,6.81625 -5.94324,0.88981 -3.1563,-2.87088 -6.37975,5.57388 0.25183,3.20666 -4.02931,-0.0335 3.10593,10.69447 -5.43957,3.45849 -12.25584,0.25184 -5.59066,9.75429 v 0 l -13.38069,0.99054 -7.63891,-3.34097 -9.73751,1.74603 -3.91179,-3.10593 -3.76069,6.68195 -3.02199,-2.83731 -3.97895,3.05557 -1.32631,-3.35776 -4.49941,2.90446 -1.32631,-3.44171 -7.70606,8.12579 -4.28115,-5.40601 -3.50886,2.8541 -8.74697,-1.35988 v 0 0 0 0 0 l 2.35043,-4.91913 -4.26436,-1.4942 -0.45329,-5.90966 -16.28515,-9.48568 0.16789,-12.72591 -14.50552,-17.89688 -0.88982,-7.18561 -8.62944,-3.29061 2.13217,4.98628 -19.13924,2.703 -1.42704,-12.3062 -8.67982,-0.80586 0.23504,-5.74177 -7.08487,-0.40293 -1.82999,-4.58335 v 0 l 1.59494,-12.02079 7.31992,-10.25796 -2.04823,-1.81319 4.78481,-10.35869 -1.91392,-4.01254 2.6862,-6.78268 10.56017,3.59281 -0.0336,-7.55496 4.60013,2.51832 10.22439,-5.43957 1.59494,-2.18255 -2.31687,-2.5519 8.07543,-5.07022 4.66728,-6.73231 -0.57082,-7.08487 3.52566,1.27594 2.61905,-5.35563 -0.47009,-9.301 -3.13951,-0.77228 -0.25183,-3.47529 3.44171,-0.25183 -2.06503,-2.78694 2.61906,-3.52565 4.51619,-0.57082 -8.22652,-5.77535 v 0 l 2.26649,-2.01465 -4.1972,-11.36604 10.03971,-5.27168 4.31472,-7.08487 -2.78695,-3.79428 2.13219,-4.93591 -10.27475,-9.28421 -0.23505,-6.09433 v 0 l 4.24757,-4.78481 9.28422,-1.04091 3.7439,-3.47528 3.62638,1.24236 0.43651,-4.51619 14.6902,2.97163 2.78695,-2.09861 -0.72192,-5.62425 6.84984,-3.96216 -0.85623,-5.45636 z"
     class="land"
     title="Centre"
     id="FR-F"
     inkscape:connector-curvature="0"
     style="fill:#c2d234;fill-opacity:1;stroke:#ffffff;stroke-width:0.83944046;stroke-opacity:1" />
  <path
     d="m 670.25883,112.29043 4.23078,1.89714 -5.32205,7.77322 1.47741,2.92125 -3.59281,7.48781 6.88342,6.39654 -2.87088,4.61692 0.31898,7.9411 10.02292,-0.75549 6.90021,4.01253 5.01984,7.47101 7.26956,-0.26862 4.26436,4.4994 -1.22558,4.58335 5.70819,-0.57081 v 0 l -9.301,8.00827 -10.44264,-5.40602 -3.72712,9.80469 3.62639,4.56655 -2.38402,5.90966 1.67888,2.60227 -3.2906,1.15842 -0.23504,9.93899 -6.93378,3.94537 2.85409,2.9884 -3.67675,2.56869 4.53298,12.33978 -2.71978,5.00305 4.95269,-0.21824 -2.92125,4.21399 3.13951,1.05769 -7.3535,6.21186 0.25184,7.67248 -3.25703,4.63372 8.32725,5.97681 -0.7555,13.31353 4.0629,-1.77961 0.97374,3.82784 3.34098,0.0503 6.46369,7.0513 8.0922,1.96429 9.78788,9.04917 -5.27169,3.34097 3.37455,1.24237 -1.0577,5.01986 6.81627,-1.72925 4.4826,7.72285 1.57816,-1.86355 2.93803,2.50152 -0.85623,2.73658 6.1615,4.58334 -3.42492,1.94751 -0.68833,7.40386 -2.97163,2.38402 10.37549,5.3892 0.75549,8.39441 4.14684,-2.4008 2.63584,5.15416 v 0 l -3.96216,7.62212 -4.68407,-0.75549 -1.32632,4.07968 -3.52565,-0.084 -0.0168,14.06901 -6.54764,1.29274 -2.04823,-3.64317 -2.92125,3.55923 -8.02505,-0.1511 -2.65264,7.2024 v 0 l -4.56655,-0.4533 -3.82785,3.37455 0.53724,-4.68408 -5.97682,-3.08914 0.35258,-2.90446 -4.24757,3.49207 -6.21186,-6.61479 -4.19721,2.51832 -0.67156,-7.85716 -3.02197,-0.53725 5.33884,-4.23078 -2.68622,-6.07754 v 0 0 0 l -3.52564,-5.65783 -4.98628,1.27594 2.35043,-3.27381 -5.62425,-2.28328 0.5876,-4.51619 -6.48047,-1.86356 -8.46156,-0.53724 -2.97162,2.35044 1.29274,3.99574 -16.73844,0.70512 -1.511,3.77749 -3.35776,-0.53724 -1.27595,-4.34831 -1.67888,3.17309 -2.45117,-1.88035 -3.97895,3.49207 -3.49207,-2.04823 -1.07448,2.13218 -10.44264,-0.41972 1.29274,-5.23811 -1.30953,-2.26649 -2.9884,1.93071 1.41026,-3.32418 -5.62425,-10.69447 -3.59281,-1.52779 0.60439,-3.47528 -5.65783,2.68621 -2.56868,-5.20453 -3.59281,0.55403 2.78694,-8.78055 -8.04183,-10.22438 -5.27169,0.82265 -0.97375,-3.3074 v 0 l -2.19934,-9.41852 3.79427,-1.12485 -2.18254,-3.92858 5.18774,-1.44384 -1.12485,-3.02199 6.61479,-4.83517 -1.76282,-3.12272 -5.79214,1.17521 1.192,-10.81199 -5.13737,-2.13217 3.40813,-3.35776 -2.78695,-1.93072 5.84251,-0.55403 -0.13431,-4.02931 v 0 l 13.43105,-17.12459 -1.88035,-3.07235 -4.56655,0.65477 3.69353,-4.26436 -2.60226,-4.4994 1.4942,-3.27383 8.79734,-0.8898 -6.58121,-5.74177 -0.6044,-10.72805 9.25063,-4.56656 5.12058,1.22558 0.3022,-3.77747 4.75124,-2.83731 7.87395,4.96948 2.88767,-22.58097 -3.79426,-5.45634 6.37974,-1.192 0.78907,-4.8352 8.61267,-8.49514 -3.05557,-2.46795 3.2906,-9.51926 -1.47741,-9.77108 v 0 l 5.42278,-1.12485 9.50247,3.42491 17.15817,-6.27901 0.65476,-10.76163 z"
     class="land"
     title="Champagne-Ardenne"
     id="FR-G"
     inkscape:connector-curvature="0"
     style="fill:#c2d234;fill-opacity:1;stroke:#ffffff;stroke-width:0.83944046;stroke-opacity:1" />
  <path
     d="m 944.87338,969.07375 2.03145,-4.4994 7.77322,-4.28114 -9.36815,-1.12485 -0.47009,-3.84464 -8.09221,0.0671 5.00306,-3.35775 -1.29273,-2.40081 4.16362,-0.87302 -1.46063,-3.12272 3.64318,-4.70087 -3.82786,-3.54243 -9.78787,3.69354 -1.05769,-6.66516 3.895,-0.31899 0.82266,-4.09646 6.07754,-3.47529 -3.30739,-5.85929 -2.83731,1.10806 -7.10167,-4.21399 2.50153,-2.1154 -3.72711,-6.49727 10.7952,-2.75335 -6.31259,-3.64318 0.73871,-4.14684 -4.33152,1.4942 -0.57082,-3.8782 7.72286,-3.77749 1.72925,-5.03665 -2.16576,-0.90659 4.98628,-4.39866 0.38614,-5.60747 4.39867,2.93804 0.92338,-4.60013 14.85809,-3.65996 7.63891,-8.52872 6.76589,-0.35256 5.35563,5.5403 3.20666,-5.60746 -2.46794,-9.18347 3.60958,-8.61266 -1.47741,-6.63158 5.79214,-1.64531 2.82052,2.36723 2.04824,17.02385 -3.27383,12.4573 6.04398,11.9872 1.81321,33.1579 -0.65478,8.61266 -9.56962,14.01865 -1.76283,28.64172 -7.5046,4.56655 0.62118,1.98108 2.13219,-2.78694 3.55923,0.99054 -6.64837,5.92645 0.33577,6.1447 -4.83518,4.71766 3.50887,-0.0336 -5.5571,4.58335 -6.02718,-2.77016 1.89713,-4.02931 -3.52564,-0.6044 0.65476,-3.40812 -2.78695,2.26649 -2.85409,-3.08915 -5.45637,0.0839 -5.40599,-2.65263 0.77229,-2.70301 -4.63372,-0.82265 z"
     class="land"
     title="Corse"
     id="FR-H"
     inkscape:connector-curvature="0"
     style="fill:#c2d234;fill-opacity:1;stroke:#ffffff;stroke-width:0.83944046;stroke-opacity:1" />
  <path
     d="m 743.42446,348.57615 3.37455,-5.33884 1.15843,4.31473 6.29581,-7.01773 6.64836,-1.6453 4.8016,9.06596 12.89381,-2.97162 6.19506,7.79 8.7134,-6.26222 16.18441,12.86022 v 0 l 2.0986,4.07969 11.88648,6.16149 -2.16576,12.44051 5.62425,0.95696 3.24025,9.25064 v 0 l -10.42585,0.92338 1.30952,4.16363 -4.29794,2.13217 -4.26435,8.22652 9.56962,-2.06502 2.73658,4.01252 -7.84038,4.78481 0.85623,4.56656 -17.59467,16.41945 1.14164,3.17308 -20.04584,12.50767 2.2497,3.97895 -0.82265,11.56748 -23.82332,20.07942 3.22345,3.17309 -6.41332,13.02812 v 0 l -13.59895,15.22744 -10.05649,0.38615 -0.80586,-4.86875 -4.93591,-3.55924 -7.25277,7.6557 -4.54976,0.41973 0.11752,-5.15418 -3.55923,-3.25702 -1.42704,3.76069 -1.86357,-7.21918 -5.42278,-3.10593 1.07449,-3.34098 v 0 l 7.15203,-3.08914 -4.11326,-8.61265 5.79214,-7.62212 -5.64104,-9.31779 2.13218,-4.11327 -4.44904,-4.56655 9.65357,-2.5519 -4.63371,-5.27169 -4.86876,0.50367 -2.45116,-5.30527 -2.08182,1.10806 -0.67155,-5.03664 4.44904,-3.54244 -2.40081,-3.69353 7.0513,-3.37456 3.77749,-6.36295 5.57388,-16.20121 -3.47528,-1.35989 1.02412,-7.87395 -3.59281,0.0336 0.45329,-5.94324 -5.00306,-1.44384 9.08275,-9.35136 -3.89501,-7.68928 -4.8016,2.56869 v 0 l 2.65264,-7.2024 8.02505,0.1511 2.92125,-3.55923 2.04823,3.64317 6.54764,-1.29274 0.0168,-14.06901 3.52565,0.084 1.32632,-4.07968 4.68407,0.75549 z"
     class="land"
     title="Franche-Comté"
     id="FR-I"
     inkscape:connector-curvature="0"
     style="fill:#c2d234;fill-opacity:1;stroke:#ffffff;stroke-width:0.83944046;stroke-opacity:1" />
  <path
     d="m 451.98753,211.47874 3.54243,5.97681 8.96523,1.3599 13.7836,-5.05343 6.24545,4.96948 3.34097,-1.67887 1.00733,2.9884 5.62425,-3.7439 12.30619,8.47835 4.33152,-1.93072 2.16575,4.73445 3.44171,-3.03878 7.0513,5.03664 5.17096,-3.81106 3.03876,2.80373 8.15937,-2.2497 1.30953,2.16576 5.50672,-1.4942 0.23505,-3.37455 4.76802,1.15843 3.62639,5.94323 -1.62852,4.01253 6.76589,7.77321 2.80373,-1.0409 1.67888,4.29794 2.68621,-2.14898 1.07448,5.96003 5.43958,3.62638 1.67888,-1.54456 v 0 l 0.13431,4.02931 -5.84251,0.55403 2.78695,1.93072 -3.40813,3.35776 5.13737,2.13217 -1.192,10.81199 5.79214,-1.17521 1.76282,3.12272 -6.61479,4.83517 1.12485,3.02199 -5.18774,1.44384 2.18254,3.92858 -3.79427,1.12485 2.19934,9.41852 v 0 l -25.56936,3.22346 -2.2329,5.67462 2.2329,5.77534 -7.67249,9.03238 v 0 l -8.19294,3.45849 -1.42704,-4.0461 -4.36509,0.20147 1.24237,2.23292 -3.39134,2.28327 -18.24943,-0.0503 5.15416,-4.49939 -0.0336,-6.11113 -6.51405,-3.52565 -1.3599,-5.84251 -5.33884,-1.8132 -5.75856,3.6096 -2.93805,-4.76802 -2.75336,4.76802 -13.31352,1.09127 1.09127,-7.82358 -0.73871,-3.97895 -3.45849,-0.47008 0.16788,-5.33884 -4.21399,1.74603 -4.75123,-2.75337 -1.00733,-9.11632 -12.87701,-11.71858 -0.25183,-18.40054 -6.7659,-10.67768 v 0 l 1.24237,-4.0461 -3.39134,0.28541 -1.54456,-8.22652 2.80373,0.3022 1.47741,-3.69354 h 7.84038 z"
     class="land"
     title="Île-de-France"
     id="FR-J"
     inkscape:connector-curvature="0"
     style="fill:#c2d234;fill-opacity:1;stroke:#ffffff;stroke-width:0.83944046;stroke-opacity:1" />
  <path
     d="m 541.06894,678.62735 10.42585,-25.36789 4.19721,4.02932 3.49207,-7.15203 3.05556,0.85622 5.94324,-4.73444 7.47103,16.25157 7.70606,-1.61173 0.33577,-4.86875 2.53511,-0.53724 2.56869,5.13737 5.35563,-0.90659 8.2433,9.18347 v 0 l 2.90447,14.62306 11.56749,18.38374 -1.46063,8.37761 5.7082,-1.71245 8.88128,6.95057 4.81839,-7.11846 4.58334,-0.78907 0.25184,5.43957 2.95482,0.70513 1.0577,-5.35563 3.62638,-0.52045 10.03971,7.10166 v 0 l 5.01985,8.05863 -0.0671,10.24118 4.60013,1.52778 4.0461,7.40386 -14.11939,11.83611 1.79641,2.0986 -2.75337,15.3114 -9.92218,-1.12485 -4.14684,7.0345 3.18987,1.10807 -0.72191,2.21612 -8.93165,5.17095 -1.39348,-1.86355 0.68835,2.60226 -5.70819,2.77016 -0.73871,3.77748 v 0 l -6.64837,-2.46796 -1.9475,-6.39653 -9.40174,0.70512 -22.88314,15.52965 -9.56962,11.08062 -12.12152,-2.08181 -10.57695,11.13098 -9.48568,19.74364 -1.04091,24.67954 1.27595,15.44571 6.53085,2.26649 2.30006,7.63891 -6.16149,0.87302 -3.17308,-4.48262 -6.51406,-0.83944 -11.76895,6.598 -7.21919,0.67156 -0.18468,6.02718 -6.63158,-1.66209 -3.24024,2.4008 -6.78268,-5.6914 -12.27262,-4.19721 -7.06809,1.3599 -9.68714,7.08488 -5.74177,-9.85504 -14.33765,-3.97894 0.65476,-5.72499 3.35777,-1.74604 v 0 l 13.0449,-4.06289 1.69567,-4.18041 12.47408,-1.88034 -6.39653,-6.64838 -5.62425,1.69567 -6.32938,-2.31685 -3.79427,-6.19507 1.12485,-2.75337 7.75642,-1.71246 -0.4365,-5.60746 -3.20666,-1.2088 5.07022,-1.93071 -4.51619,-8.41119 0.7387,-5.85929 -17.00706,-7.40387 0.95696,-14.37122 6.36296,0.0336 -0.83944,-4.90233 3.52565,-4.78481 2.95483,4.44903 9.92219,-3.81106 2.45117,3.81106 6.81625,-1.98108 3.08915,3.12272 3.02198,-7.25277 9.63677,4.16363 14.72379,-1.39347 4.21399,-3.7439 0.43651,-4.39868 -4.09647,-4.85196 2.0986,-8.98202 7.62212,4.39868 16.01652,-9.08275 5.28848,1.54457 0.20147,-13.6493 10.44264,2.01465 3.57601,-7.77322 5.50673,0.0503 1.00733,-5.32205 5.79214,-4.78481 -3.69354,-5.69141 -8.79733,-3.39134 4.14683,-1.46062 2.83731,-8.96523 -10.99667,0.99054 1.81319,-3.92858 -4.83517,-1.39347 -0.6212,-2.95483 -2.18254,1.24237 1.64531,-17.07422 -5.43958,-6.27902 1.32632,-5.48993 z m -68.34724,210.4813 -1.67888,-3.7439 -2.03144,2.75337 z"
     class="land"
     title="Languedoc-Roussillon"
     id="FR-K"
     inkscape:connector-curvature="0"
     style="fill:#c2d234;fill-opacity:1;stroke:#ffffff;stroke-width:0.83944046;stroke-opacity:1" />
  <path
     d="m 415.35434,506.05519 8.74697,1.35988 3.50886,-2.8541 4.28115,5.40601 7.70606,-8.12579 1.32631,3.44171 4.49941,-2.90446 1.32631,3.35776 3.97895,-3.05557 3.02199,2.83731 3.76069,-6.68195 3.91179,3.10593 9.73751,-1.74603 7.63891,3.34097 13.38069,-0.99054 v 0 l 0.48686,3.86143 3.24025,0.92338 -2.19934,2.92126 12.55803,6.34617 8.32725,24.57881 0.68834,6.2958 -3.2906,1.52778 -0.53724,4.29795 -11.73538,8.81412 9.43531,11.46675 -0.13431,6.76589 -4.214,4.58334 3.92859,4.14684 -2.11539,13.39747 2.83731,2.68621 -3.32419,2.18255 -9.20027,-4.14684 0.77229,7.43744 -11.5507,11.38281 2.66942,5.54031 -3.67675,2.80374 -0.4533,5.40599 -5.18774,2.18255 3.08915,5.75856 -5.67462,2.50153 v 0 l -7.89074,2.31686 -2.77016,-2.48475 -7.38707,5.38921 -10.84557,-10.39227 -7.55497,-1.82998 -6.27901,2.65263 v 0 l -4.88555,-8.41119 2.36723,-1.9475 -7.2192,-0.80587 -3.71032,-3.20666 2.38401,-2.26649 -4.28115,-1.54457 3.49208,-4.90233 -3.52566,-1.81319 0.65477,-4.88555 6.11112,-5.62425 -4.73443,-2.30007 2.56868,-3.07235 -12.03758,-4.1972 3.17309,-4.9527 -5.64104,-0.52045 -4.70087,-7.90753 -8.42798,0.95696 -1.98108,-2.14897 -3.94537,4.75124 -4.23078,-4.24757 1.62852,-4.93592 -10.09008,-4.24756 v 0 l 5.89287,-5.18774 -0.21825,-4.18042 4.93591,1.25917 2.01466,-13.9683 4.88554,0.88982 4.53298,-4.75124 -1.54457,-4.0461 -7.68928,-4.04611 -0.28541,-7.28634 2.58548,-1.41026 -3.7607,-7.52139 7.63891,-7.6389 7.18562,0.83944 2.9884,-8.29367 5.67462,1.51099 z"
     class="land"
     title="Limousin"
     id="FR-L"
     inkscape:connector-curvature="0"
     style="fill:#c2d234;fill-opacity:1;stroke:#ffffff;stroke-width:0.83944046;stroke-opacity:1" />
  <path
     d="m 710.92132,171.99144 3.77749,11.01347 5.8425,-3.4417 3.82785,2.43438 2.14898,-4.58335 7.21918,1.2088 1.89714,-2.60228 6.66515,6.90021 6.79947,0.57082 1.07448,4.54977 8.24331,-0.26862 1.88035,-4.23078 7.79,-2.23292 8.76376,5.77536 4.46582,-1.76283 8.91486,5.87608 -1.17521,2.03145 4.26436,3.91179 -2.35044,1.98108 7.16882,7.15203 4.81839,12.3062 6.74911,1.17522 0.18467,-6.32938 6.98414,-1.07448 6.63158,3.42491 1.2088,8.15936 3.32418,-4.41546 4.02932,3.7607 9.53604,0.58761 4.9527,-5.99361 5.55709,-1.29273 -0.62118,2.01465 4.06289,-0.4533 2.38401,7.57176 7.58854,4.61691 v 0 l -6.96736,12.82666 -5.90966,-3.81106 -8.79733,2.65263 -2.21613,-3.22345 -11.71858,-3.39134 -1.96429,-7.57175 -4.60013,12.84344 -6.1615,2.41758 0.7555,4.21399 9.78787,3.27382 -3.07235,1.94751 1.89713,6.27901 5.23812,-6.41333 7.43744,2.43438 3.82784,5.79214 -5.03663,7.92432 4.33151,3.37455 -6.0104,11.31565 -10.69447,2.93805 4.8016,2.78695 -3.08914,-0.60441 1.91393,3.05557 -2.87089,12.77628 7.25276,1.32632 1.34311,3.07235 -9.73751,17.22532 1.20879,3.72711 -9.28421,11.43318 -3.3074,11.29887 1.61173,4.24757 -5.80893,2.87088 v 0 l -16.18441,-12.86022 -8.7134,6.26222 -6.19506,-7.79 -12.89381,2.97162 -4.8016,-9.06596 -6.64836,1.6453 -6.29581,7.01773 -1.15843,-4.31473 -3.37455,5.33884 v 0 l -2.63584,-5.15416 -4.14684,2.4008 -0.75549,-8.39441 -10.37549,-5.3892 2.97163,-2.38402 0.68833,-7.40386 3.42492,-1.94751 -6.1615,-4.58334 0.85623,-2.73658 -2.93803,-2.50152 -1.57816,1.86355 -4.4826,-7.72285 -6.81627,1.72925 1.0577,-5.01986 -3.37455,-1.24237 5.27169,-3.34097 -9.78788,-9.04917 -8.0922,-1.96429 -6.46369,-7.0513 -3.34098,-0.0503 -0.97374,-3.82784 -4.0629,1.77961 0.7555,-13.31353 -8.32725,-5.97681 3.25703,-4.63372 -0.25184,-7.67248 7.3535,-6.21186 -3.13951,-1.05769 2.92125,-4.21399 -4.95269,0.21824 2.71978,-5.00305 -4.53298,-12.33978 3.67675,-2.56869 -2.85409,-2.9884 6.93378,-3.94537 0.23504,-9.93899 3.2906,-1.15842 -1.67888,-2.60227 2.38402,-5.90966 -3.62639,-4.56655 3.72712,-9.80469 10.44264,5.40602 9.301,-8.00827 v 0 z"
     class="land"
     title="Lorraine"
     id="FR-M"
     inkscape:connector-curvature="0"
     style="fill:#c2d234;fill-opacity:1;stroke:#ffffff;stroke-width:0.83944046;stroke-opacity:1" />
  <path
     d="m 325.53421,807.44789 2.13218,4.4994 -2.90446,2.08181 z m 1.29274,-0.0336 0.084,-6.02719 z m 107.36444,-165.55445 6.27901,-2.65263 7.55497,1.82998 10.84557,10.39227 7.38707,-5.38921 2.77016,2.48475 7.89074,-2.31686 v 0 l 2.06502,10.02292 5.60746,8.29368 -2.92126,8.99879 5.20454,7.68928 0.88981,-3.1563 5.45636,-1.77961 3.99573,2.71979 9.1667,-0.99055 5.32205,-6.76589 3.10593,-12.30619 9.23384,-9.36815 2.50153,8.37761 6.04397,-1.81319 8.51193,22.497 v 0 l 7.23598,8.31046 -1.32632,5.48994 5.43958,6.27901 -1.6453,17.07423 2.18253,-1.24238 0.6212,2.95484 4.83518,1.39347 -1.8132,3.92858 10.99667,-0.99054 -2.83731,8.96522 -4.14684,1.46063 8.79735,3.39134 3.69353,5.6914 -5.79214,4.78482 -1.00732,5.32205 -5.50674,-0.0503 -3.57601,7.77321 -10.44264,-2.01466 -0.20147,13.6493 -5.28848,-1.54456 -16.01651,9.08274 -7.62212,-4.39867 -2.09861,8.98202 4.09647,4.85196 -0.43651,4.39867 -4.21399,3.7439 -14.72379,1.39348 -9.63677,-4.16363 -3.02198,7.25277 -3.08914,-3.12272 -6.81626,1.98108 -2.45117,-3.81107 -9.92218,3.81107 -2.95484,-4.44904 -3.52565,4.78481 0.83945,4.90233 -6.36297,-0.0335 -0.95696,14.37122 17.00707,7.40386 -0.73871,5.8593 4.51618,8.41119 -5.07021,1.93071 3.20666,1.2088 0.43651,5.60746 -7.75643,1.71245 -1.12485,2.75337 3.79427,6.19507 6.32938,2.31686 5.62426,-1.69567 6.39653,6.64837 -12.47409,1.88034 -1.69567,4.18042 -13.0449,4.06289 v 0 l -4.24757,-1.51099 0.68835,-2.51833 -12.89381,-3.65996 -4.91912,0.38615 -2.95484,4.60013 -5.62425,-10.97988 -13.02811,1.00733 -6.27902,-7.53818 -10.67768,-0.084 -15.19387,-6.86663 -4.43225,7.42066 2.13219,8.6966 -17.66184,0.0336 -4.34829,-3.13952 -4.58335,4.78481 -8.24331,-5.9936 -16.23478,4.23078 -7.20239,-9.98934 -10.62732,-4.86875 v 0 l 1.77961,-14.79095 7.53818,-4.41545 -0.9066,-5.92645 5.27168,-6.26223 3.45851,0.28541 -0.36936,-4.38188 3.895,-4.54977 -2.01465,-2.95482 5.28847,-4.28115 -2.11539,-9.46889 -4.63371,3.29061 0.10073,-4.98628 3.3074,-0.85623 -5.43957,-10.52658 -9.9054,-0.0503 -2.8541,-3.42491 2.08181,-8.52872 3.84464,-2.88768 -2.21612,-6.81626 2.30006,-0.16788 0.48688,-5.60746 -3.71033,-2.82052 4.18041,-4.01253 5.82572,1.0409 4.14683,-5.3892 3.0052,2.92126 -1.93071,2.40079 5.57389,3.17308 -0.23505,-6.2958 4.96949,-3.895 2.06502,2.78694 5.18774,-4.75124 4.85197,3.02199 20.3984,-8.6966 4.93591,5.40599 9.43531,-8.37761 -0.62118,-3.1395 7.30313,0.55403 -2.83731,-4.46583 3.71033,-0.63797 3.07235,-8.09221 -5.67461,-3.45849 1.88034,-6.88341 3.1563,3.49207 8.36082,-1.99787 -5.5403,-17.2589 8.5455,-2.85409 3.03877,-9.41853 11.66823,-6.86662 -1.22559,-5.45636 9.87182,-8.15936 -2.18254,-12.40694 z"
     class="land"
     title="Midi-Pyrénées"
     id="FR-N"
     inkscape:connector-curvature="0"
     style="fill:#c2d234;fill-opacity:1;stroke:#ffffff;stroke-width:0.83944046;stroke-opacity:1" />
  <path
     d="m 511.78926,13.656175 4.93591,11.903266 -2.90446,3.055564 0.65476,7.722852 2.48474,4.096469 6.11113,0.235044 4.96949,9.468888 7.8068,3.542438 3.20666,-6.564423 13.83398,-4.180414 2.78694,7.118454 4.83518,2.585478 -1.49421,4.78481 3.64318,14.623052 5.89286,3.626384 6.88342,-4.583345 3.07235,1.057695 -1.27595,3.962159 7.52139,-0.956963 3.62637,4.297936 -0.11751,9.452099 3.47528,7.017727 2.75336,-5.019858 10.77842,2.635843 8.5455,-3.492073 7.89074,10.996683 1.72925,-3.391345 3.22346,1.863554 -5.57389,15.042771 5.00307,0.0671 2.09859,6.9002 -4.88554,2.28328 -1.27595,7.40386 v 0 l -11.33245,-1.47741 0.11753,-5.48994 -6.59801,3.76069 -1.07447,-3.05556 -10.97989,-3.49207 -7.01772,4.8016 -4.88554,-3.20667 -3.69354,3.96216 -8.8645,-2.01466 -13.31352,2.73658 -11.01346,-5.13737 -10.47622,4.18041 -0.4365,-6.16149 -7.70606,3.64317 2.31685,-7.30313 -3.55923,-1.57816 -1.81319,4.85197 -8.91486,-3.47528 0.13431,-2.90446 -3.08914,2.8373 -3.60959,-2.65262 -4.3483,5.52351 -2.97163,-2.4008 0.82266,-4.76802 7.45423,-4.43225 -3.03877,-3.895 -6.4637,2.60226 -1.82997,-3.52565 -0.36936,2.82052 -3.97895,-1.71245 -8.4112,4.18041 -4.4826,-1.12485 -0.62119,-5.59067 -9.08275,-3.878225 0.0672,-4.700866 -2.703,2.132178 -7.21919,-5.35563 -9.73751,3.357761 -1.62851,-2.417588 v 0 l -6.11112,-5.271685 2.2497,-15.042774 3.37455,2.736576 -4.09648,-6.127916 -0.95696,-17.174952 3.55923,-8.545504 -2.26649,-7.420653 20.19694,-10.912725 -2.04824,-0.386143 18.58521,-3.424917 3.69354,-3.794271 1.39347,4.029314 1.15843,-4.029314 12.82665,-0.856229 11.34924,-4.734445 z"
     class="land"
     title="Nord-Pas-de-Calais"
     id="FR-O"
     inkscape:connector-curvature="0"
     style="fill:#c2d234;fill-opacity:1;stroke:#ffffff;stroke-width:0.83944046;stroke-opacity:1" />
  <path
     d="m 198.45972,158.49324 22.07728,7.30313 -0.33577,2.48476 0.87301,-2.36724 8.44477,-1.192 0.97375,-3.08914 14.50553,0.084 2.51832,9.58641 -5.60746,6.36297 9.95576,15.04277 -2.43437,7.75644 3.27381,-2.98841 2.71979,1.99786 2.87089,-4.90233 7.62212,-0.80586 14.63984,5.17096 25.18322,1.69566 11.97042,5.59068 15.42892,-4.70086 15.66395,-10.99668 -7.85716,-0.33577 12.1551,-0.18468 v 0 l 1.76282,15.91579 5.17096,-0.21826 -4.39867,3.97895 5.15416,4.01253 -0.65476,6.01039 3.34097,1.3599 -0.94018,6.95056 -3.64316,2.40081 5.60745,3.92858 -4.44902,10.97987 4.81838,3.52566 11.33245,0.10073 -0.41972,4.81838 10.27475,6.84984 1.10807,3.12271 -3.20667,3.24025 6.1447,3.87822 v 0 l 0.25184,6.09433 10.27474,9.28421 -2.13217,4.93591 2.78694,3.77749 -4.29794,7.10166 -10.05649,5.27168 4.1972,11.36604 -2.26648,2.01465 v 0 l -4.16363,0.62119 -5.87609,-7.89075 -1.02412,3.20666 -7.20239,-1.64529 -3.20666,-6.41333 -6.78268,-1.22558 -0.68835,-10.77842 -5.67462,-5.87608 -10.89593,2.43437 -6.04398,8.34404 -4.11325,-2.06502 -3.49208,2.38401 0.0168,-8.02505 -6.69874,-0.6044 -1.88035,-5.62425 1.96429,-1.82998 -4.31472,-3.7439 -2.92125,-0.0671 -1.54457,5.97682 -3.47528,-1.57815 -2.23292,4.01252 -3.03877,-2.70299 -7.89075,0.10073 -9.87182,6.79946 -0.83944,-4.31472 -4.65049,1.24237 1.17521,2.46796 -3.22345,1.46062 -5.96002,-6.63157 -15.63038,-0.92338 v 0 l -12.80987,-3.74392 -6.98414,7.87396 -4.70087,0.83944 -4.68408,-2.95483 -5.80892,-15.26103 v 0 l 15.19387,0.23505 -4.04611,-2.82052 1.76283,-1.72925 -4.26436,2.14896 -8.47835,-9.67035 -0.3022,-7.89074 -2.78693,-1.41026 5.12058,-10.22438 -1.15842,-10.00613 3.69353,0.63797 -3.895,-1.88035 -1.24238,4.02931 -1.51099,-4.0461 -1.04091,-19.08887 3.25703,-0.31898 -3.27382,-1.37669 -0.85623,2.63584 -5.60745,-12.70913 -7.15204,-4.70087 -5.43957,-17.25888 3.29061,-3.94539 -0.55403,-6.46368 -6.88342,-4.70089 z"
     class="land"
     title="Basse-Normandie"
     id="FR-P"
     inkscape:connector-curvature="0"
     style="fill:#c2d234;fill-opacity:1;stroke:#ffffff;stroke-width:0.83944046;stroke-opacity:1" />
  <path
     d="m 429.28905,122.06152 4.96949,-0.62118 0.25183,3.30739 18.09834,16.5034 5.15416,13.39747 -2.5519,-0.10073 -4.1972,7.37029 h 4.3483 l -3.77748,5.43957 -0.0671,6.63157 3.64317,4.75126 -2.16576,3.67675 5.08701,0.0168 -5.32205,10.30834 6.26222,14.20333 -1.0409,3.03878 -2.16576,-2.80374 -3.39134,0.82266 -0.38614,3.50885 v 0 l -5.67461,15.49608 h -7.84038 l -1.47741,3.71032 -2.80374,-0.30219 1.54457,8.22651 3.39134,-0.26862 -1.24237,4.0461 v 0 l -3.71033,1.76282 0.85623,5.47316 -6.84983,3.94537 0.72192,5.62425 -2.78695,2.11539 -14.707,-2.97161 -0.41971,4.51618 -3.62639,-1.24237 -3.7439,3.47528 -9.28421,1.02412 -4.24757,4.8016 v 0 l -6.14471,-3.87822 3.20667,-3.24023 -1.10806,-3.12272 -10.27476,-6.84983 0.41973,-4.81839 -11.33245,-0.10074 -4.81839,-3.52565 4.44904,-10.97988 -5.60746,-3.92858 3.64317,-2.4008 0.94017,-6.95057 -3.34098,-1.3599 0.65476,-6.01039 -5.15416,-4.01252 4.39867,-3.97895 -5.17096,0.21825 -1.76282,-15.91579 v 0 l 0.68835,-1.89713 -12.6084,-2.0986 -3.32419,-4.26436 6.02719,-14.53912 -2.03144,-2.70301 2.19932,1.00734 3.6096,-5.62426 26.45917,-15.42892 26.02264,-7.47101 9.36817,1.0577 -0.4533,-2.1154 z"
     class="land"
     title="Haute-Normandie"
     id="FR-Q"
     inkscape:connector-curvature="0"
     style="fill:#c2d234;fill-opacity:1;stroke:#ffffff;stroke-width:0.83944046;stroke-opacity:1" />
  <path
     d="m 175.96271,440.86423 2.75337,1.93072 -0.99055,3.4417 5.22133,2.63585 0.50366,5.55709 -4.07968,-6.46369 -6.43011,-3.39134 -0.47009,-3.40813 z m 82.70167,-153.0132 15.63039,0.92338 5.96003,6.63158 3.22344,-1.46063 -1.17521,-2.46795 4.65049,-1.24237 0.83945,4.31472 9.87182,-6.79947 7.89074,-0.10073 3.03877,2.70301 2.23292,-4.01254 3.47528,1.57816 1.54457,-5.97682 2.92125,0.0671 4.31473,3.74391 -1.9643,1.82998 1.88035,5.62425 6.69873,0.6044 -0.0168,8.02505 3.49208,-2.38401 4.11326,2.06502 6.04397,-8.34404 10.89594,-2.43437 5.67461,5.87608 0.68835,10.77842 6.78268,1.22558 3.20666,6.41332 7.20239,1.64531 1.02412,-3.20667 5.87609,7.89074 4.16362,-0.62118 v 0 l 8.22652,5.77534 -4.51619,0.57082 -2.61906,3.52566 2.06503,2.80373 -3.44171,0.25183 0.25183,3.47528 3.12272,0.77229 0.47009,9.30099 -2.61905,5.35564 -3.50887,-1.27595 0.55403,7.10167 -4.65049,6.73231 -8.07543,5.07022 2.30007,2.5519 -1.57814,2.18254 -10.24117,5.43958 -4.60015,-2.51832 0.0336,7.57174 -10.54338,-3.59279 -2.6862,6.78267 1.91392,4.01253 -4.78481,10.3419 2.04823,1.82999 -7.31992,10.25796 -1.59494,12.02079 v 0 l -4.33151,0.40292 -2.03144,7.5214 -3.49207,-1.44384 -3.0052,4.75122 -3.47528,-1.64529 2.5519,-3.39134 -2.88768,-0.50367 -14.80773,1.74604 -5.89288,3.86143 1.511,-2.8709 -2.45117,-0.20146 -4.29793,1.98108 0.8898,3.22345 -3.84464,3.62639 -13.11205,-0.85623 -7.55497,3.15629 6.16149,5.47315 -1.61172,3.67675 9.26742,7.60533 -1.4942,5.47316 5.79213,9.31778 -1.51099,2.73658 2.98842,1.47741 -1.88035,22.61453 2.48474,-1.62851 4.63371,2.92125 -12.72592,8.36082 -7.65569,-3.99573 -6.98415,3.20667 -2.06502,-1.24238 2.19933,-4.88554 -12.97775,5.48993 v 0 l -5.97681,0.1679 -0.28541,4.53297 -7.63891,-6.4469 1.41026,4.31472 -3.34097,-5.13737 -8.66302,-0.0168 -3.25704,-6.19507 -9.36815,-1.62851 -11.46676,-7.53818 -3.08915,-11.75217 -19.87794,-21.47288 -0.68834,-6.84984 2.88767,-0.25183 9.25064,-13.96829 -8.42798,-8.78055 -10.27475,-1.82997 5.64104,-3.64318 -0.35257,-9.78788 -8.91486,3.22346 -5.30527,-4.6505 -3.91179,2.04823 -7.89075,-3.25703 2.73658,-4.91912 -3.7439,-3.69354 7.0513,-7.57175 v 0 l 2.4008,-2.97162 7.38708,1.62852 1.30953,-5.67462 9.40173,2.71978 0.43651,-3.27381 4.13004,-1.15843 1.14164,-12.05437 7.57176,-4.53297 1.27595,2.31685 6.61479,-3.84463 13.9515,-0.10074 2.63585,-5.57388 10.39226,-4.07969 -0.40292,-3.34096 16.16762,6.07754 6.37975,-19.50859 9.65356,-3.97895 -5.90966,-27.39934 3.89501,-6.54763 z"
     class="land"
     title="Pays de la Loire"
     id="FR-R"
     inkscape:connector-curvature="0"
     style="fill:#c2d234;fill-opacity:1;stroke:#ffffff;stroke-width:0.83944046;stroke-opacity:1" />
  <path
     d="m 446.68226,90.028469 0.99054,0.789074 v 0 l 1.62851,2.417588 9.73751,-3.357762 7.21919,5.355631 2.703,-2.13218 -0.0671,4.700865 9.08275,3.878225 0.62119,5.59067 4.4826,1.12486 8.4112,-4.18042 3.97895,1.71246 0.36936,-2.82052 1.82997,3.52564 6.4637,-2.60226 3.03877,3.895 -7.45423,4.43225 -0.82266,4.76802 2.97163,2.4008 4.3483,-5.52352 3.60959,2.65264 3.08914,-2.83731 -0.13431,2.90446 8.91486,3.47528 1.81319,-4.85196 3.55923,1.57815 -2.31685,7.30313 7.70606,-3.64317 0.4365,6.16149 10.47622,-4.18041 11.01346,5.13737 13.31352,-2.73658 8.8645,2.01466 3.69354,-3.96216 4.88554,3.20667 7.01772,-4.8016 10.97989,3.49207 1.07447,3.05556 6.59801,-3.7607 -0.11753,5.48995 11.33245,1.47741 v 0 l 6.21186,2.21613 v 0 l 1.47742,9.77108 -3.29061,9.51926 3.05557,2.46796 -8.61267,8.49513 -0.77228,4.8352 -6.37975,1.192 3.79427,5.45634 -2.88767,22.58097 -7.87396,-4.96948 -4.75122,2.83731 -0.3022,3.77748 -5.1206,-1.22558 -9.23384,4.56655 0.6044,10.72805 6.58121,5.72498 -8.81412,0.9066 -1.4942,3.27382 2.60226,4.4994 -3.69354,4.26436 4.56656,-0.65477 1.89714,3.05556 -13.43106,17.12459 v 0 l -1.67888,1.54457 -5.45636,-3.62639 -1.07448,-5.96002 -2.703,2.13218 -1.67888,-4.29793 -2.80373,1.0409 -6.78268,-7.77322 1.62852,-4.01252 -3.62639,-5.94324 -4.76802,-1.15843 -0.23505,3.37454 -5.50672,1.49422 -1.30953,-2.18255 -8.14258,2.26649 -3.03876,-2.80373 -5.18775,3.79427 -7.03452,-5.03664 -3.4417,3.03876 -2.16575,-4.73443 -4.33152,1.93071 -12.30619,-8.47835 -5.62425,3.74391 -1.00734,-2.98842 -3.34096,1.67888 -6.24544,-4.96948 -13.8004,5.05344 -8.96523,-1.34311 -3.52564,-5.97682 v 0 l 0.38613,-3.50886 3.39134,-0.82266 2.16576,2.80374 1.0409,-3.03877 -6.26222,-14.20334 5.32205,-10.30833 -5.08701,-0.0168 2.16576,-3.67675 -3.64317,-4.75126 0.0671,-6.63157 3.77748,-5.43958 h -4.3483 l 4.19721,-7.37029 2.5519,0.10074 -5.15416,-13.39748 -18.09834,-16.50339 -0.25184,-3.3074 -4.96949,0.62119 v 0 l 10.09008,-15.47928 11.5507,2.03144 -10.40906,-9.334581 1.14164,-9.485677 z"
     class="land"
     title="Picardie"
     id="FR-S"
     inkscape:connector-curvature="0"
     style="fill:#c2d234;fill-opacity:1;stroke:#ffffff;stroke-width:0.83944046;stroke-opacity:1" />
  <path
     d="m 235.16005,539.91821 11.81932,6.43011 3.59281,12.40694 -3.10593,6.01039 -2.65263,-8.109 -8.20973,-7.28634 z m -7.2024,-21.01959 2.5519,2.35043 -3.25703,0.47009 1.34311,2.53511 6.1447,-2.61905 -0.85623,2.90446 4.18042,-0.7555 7.97468,4.63372 -4.02931,1.99787 -15.64718,-5.94324 -1.96429,-4.18042 z m 27.48328,-5.94324 12.97775,-5.48993 -2.19933,4.88554 2.06502,1.24236 6.98415,-3.20665 7.65569,3.99573 12.72592,-8.36082 -4.63371,-2.92126 -2.48474,1.62852 1.88035,-22.61453 -2.98842,-1.47741 1.51099,-2.73658 -5.79213,-9.31779 1.4942,-5.47315 -9.26742,-7.60533 1.61172,-3.67675 -6.16149,-5.47315 7.55497,-3.15629 13.11205,0.85622 3.84464,-3.62638 -0.8898,-3.22346 4.29793,-1.98108 2.45117,0.20147 -1.511,2.87089 5.89288,-3.86142 14.80773,-1.74605 2.88768,0.50367 -2.5519,3.39134 3.47528,1.6453 3.0052,-4.75123 3.49207,1.44383 2.03144,-7.52138 4.33151,-0.40293 v 0 l 1.82999,4.58335 7.08487,0.40293 -0.23504,5.74177 8.67982,0.80586 1.42704,12.3062 19.13924,-2.703 -2.11538,-4.98628 8.62944,3.3074 0.88981,7.16882 14.50553,17.91366 -0.16789,12.72592 16.28515,9.46889 0.45329,5.90966 4.26436,1.51099 -2.35043,4.91912 v 0 l -3.35776,3.74391 -5.65783,-1.49421 -2.98841,8.29367 -7.18561,-0.83944 -7.63891,7.63891 3.7607,7.52139 -2.58548,1.41026 0.28541,7.28634 7.70607,4.04611 1.52777,4.0461 -4.53298,4.75123 -4.88554,-0.90659 -2.01465,13.96828 -4.93592,-1.25916 0.20147,4.1972 -5.89287,5.18775 v 0 l -4.51619,7.60532 -3.79427,0.0503 -0.4533,8.05862 -5.07022,6.49727 -7.0513,4.33151 -1.96429,-1.71246 -3.82785,8.91487 1.30953,7.15203 -9.14991,8.9988 -5.50672,-2.06502 -3.32419,2.41758 -3.64317,10.24117 -3.05556,-2.26649 -7.18561,2.68622 -12.004,-7.43744 -1.42704,2.60226 -2.95484,-13.29673 -9.75429,-1.77963 -1.56137,-4.95269 -0.57082,2.5519 -8.34403,-0.70514 v 0 l -7.26956,-16.25156 -10.47621,-6.76589 -3.72712,-6.17828 -14.80774,-6.93378 -0.10072,-9.301 7.21919,-1.67888 -3.15631,-5.01986 4.43225,-0.57082 2.78695,-4.86875 -3.12272,-9.51926 4.71766,0.0336 -5.33885,-12.44051 -3.1395,-1.09127 1.64529,-1.93072 -6.12791,-0.65476 8.88128,-9.67036 z"
     class="land"
     title="Poitou-Charentes"
     id="FR-T"
     inkscape:connector-curvature="0"
     style="fill:#c2d234;fill-opacity:1;stroke:#ffffff;stroke-width:0.83944046;stroke-opacity:1" />
  <path
     d="m 681.08761,700.35207 0.68834,0.77229 v 0 l 4.93592,3.54243 -5.8593,8.14258 -6.79947,-1.14164 -1.09127,-4.38188 4.83517,-6.22865 v 0 0 0 l 3.15631,-0.90659 v 0 z m 24.44451,116.17856 2.23291,-7.65569 -4.51619,-6.3126 -5.62425,3.12272 -12.4405,0.36936 -5.57389,-9.58641 -5.28848,1.9475 -2.28328,-4.76802 1.15843,4.23078 -3.4417,-1.82999 2.30006,2.68621 -3.86142,1.51099 5.05343,2.8541 2.68621,-2.33364 -5.60746,5.05343 -17.72899,-3.10593 0.58761,-5.89287 -3.99574,-2.87089 -21.12031,-0.77228 v 0 l 0.7387,-3.77748 5.7082,-2.77016 -0.68835,-2.60226 1.39348,1.86355 8.93165,-5.17095 0.72191,-2.21613 -3.18987,-1.10806 4.14683,-7.0345 9.92219,1.12485 2.75336,-15.3114 -1.7964,-2.0986 14.11939,-11.83611 -4.0461,-7.40387 -4.60014,-1.52777 0.0671,-10.24118 -5.01985,-8.05863 v 0 l 0.0839,-5.77534 9.61999,1.6285 2.11539,8.32726 16.78881,-7.77323 3.39134,2.92126 4.06289,-3.62638 -1.02412,8.05862 14.13618,1.72925 1.9475,5.72499 5.01985,3.49207 6.02718,-1.29274 4.19721,-5.69141 5.33884,4.34831 -2.46796,-2.43438 3.0052,-2.38401 0.0168,-6.86663 -5.47315,-3.81105 1.47741,-2.65263 -9.48568,-0.40294 -4.38187,-3.6096 -0.78908,-4.88554 5.48995,-1.17521 -2.80373,-6.02718 10.87914,2.70299 3.47528,-3.00519 -4.66728,-4.04611 3.20666,-10.50979 10.20759,-0.1511 2.8541,-3.60959 -2.19933,-1.56137 1.96429,-5.18774 8.64623,-0.10073 2.03145,-2.06503 -2.14896,-2.28327 4.75122,-3.02198 2.703,1.91391 5.406,-4.73443 7.90753,1.20879 3.07235,-2.14897 4.48262,1.86356 -2.21613,-14.11939 -8.32724,-1.71246 2.87088,-10.27475 6.11112,-0.26862 2.19934,5.22132 6.01039,1.79641 4.14684,-5.64104 8.39441,0.0335 v 0 l 2.95482,8.89807 4.93591,0.55403 0.47009,10.69447 7.84038,5.406 5.01985,-1.14164 6.04397,3.79427 -1.57815,3.35776 5.30526,10.34191 -7.9411,0.58761 0.36935,5.62425 -7.82358,8.78055 6.48048,9.6032 -3.87822,0.80586 -0.36935,5.74177 8.31046,12.2894 12.57481,3.34098 11.81933,8.31046 22.79921,-5.75856 1.47741,12.82665 -14.53911,16.36909 2.41759,8.6966 -13.34711,6.7491 -0.40293,3.49207 -1.24237,-2.92125 -11.04704,5.12059 -2.45117,6.34617 1.62852,3.34097 -3.25702,-1.81319 -4.16363,3.42492 -5.28848,-0.67156 -4.98627,10.812 -10.17402,0.57082 -1.99787,7.15203 -9.87182,7.21918 8.54551,0.53725 -3.50886,9.4521 -5.96004,-2.04823 -4.51618,3.64316 -7.8068,0.6212 -1.42705,5.52351 -12.33978,-2.71979 -2.21612,8.37762 -4.18041,-0.20147 2.03145,-4.78481 -7.18562,0.10074 -6.86662,-4.41546 -2.78694,2.11539 4.63371,3.27381 -8.32725,1.72925 -2.46795,-1.7964 1.05769,-4.41546 -7.89074,-2.70299 -0.63797,-3.44171 -4.49941,-0.63798 -1.24236,2.53511 -4.76803,-5.18774 z"
     class="land"
     title="Provence-Alpes-Côte d'Azur"
     id="FR-U"
     inkscape:connector-curvature="0"
     style="fill:#c2d234;fill-opacity:1;stroke:#ffffff;stroke-width:0.83944046;stroke-opacity:1" />
  <path
     d="m 605.01752,517.03506 -0.6044,6.17828 5.74177,1.17522 1.15844,3.35776 15.21065,-2.53511 4.71766,3.82785 6.78268,-2.97162 2.30006,-11.04704 6.84984,2.83731 4.48261,-2.63584 3.47528,2.8541 4.29794,-4.07968 5.47315,13.44783 12.72592,-34.85356 8.07541,3.47528 7.73965,-3.52565 4.71765,6.1615 5.47316,1.17521 v 0 l -1.07449,3.34098 5.42278,3.10593 1.86357,7.21918 1.42705,-3.76069 3.55922,3.25702 -0.10073,5.15418 4.54976,-0.41973 7.25277,-7.6557 4.93591,3.55924 0.80586,4.86875 10.05649,-0.38615 13.61574,-15.21065 v 0 l 7.33671,4.95269 -4.71766,8.2433 1.56135,3.42492 -10.05649,3.4585 -1.57815,8.86449 11.90327,-1.12485 11.63464,-8.56229 0.99054,-3.10593 -3.40812,0.47008 -2.80374,-6.07754 2.23292,-4.85197 18.58521,-9.77109 20.98601,3.02199 -3.4417,7.21918 6.54763,7.48782 -4.71766,14.32085 7.06809,1.30952 -1.59494,7.63891 4.11326,-1.62851 7.15203,11.04703 -2.87088,8.24332 -12.27262,3.50885 -0.92339,11.0974 7.53818,7.3535 5.89287,1.17522 0.0168,13.38069 13.02812,9.82144 -5.37242,7.75644 1.72925,7.06809 -16.87276,8.66302 -0.0168,3.12271 -8.74697,-2.2497 -9.51925,4.88555 v 0 l -8.39441,-0.0335 -4.14684,5.64103 -6.01039,-1.7964 -2.19933,-5.22132 -6.11112,0.26863 -2.87089,10.27474 8.32725,1.71246 2.21612,14.11939 -4.48261,-1.86356 -3.07236,2.14897 -7.90753,-1.20879 -5.40599,4.73444 -2.703,-1.91392 -4.75123,3.02198 2.14897,2.28328 -2.03145,2.06503 -8.64623,0.10073 -1.9643,5.18773 2.19934,1.56137 -2.8541,3.6096 -10.2076,0.15109 -3.20666,10.50979 4.66729,4.04611 -3.47529,3.00519 -10.87914,-2.70299 2.80373,6.02718 -5.48995,1.17521 0.78908,4.88555 4.38188,3.60959 9.48568,0.40293 -1.47742,2.65264 5.47315,3.81105 -0.0168,6.86663 -3.00519,2.38401 2.46795,2.43438 -5.33883,-4.34831 -4.19721,5.69141 -6.02718,1.29274 -5.01985,-3.49207 -1.9475,-5.72499 -14.13618,-1.72925 1.02411,-8.05862 -4.06289,3.62639 -3.39134,-2.92126 -16.78881,7.77322 -2.11539,-8.32726 -9.61999,-1.6285 -0.0839,5.77534 v 0 l -10.0397,-7.10166 -3.62639,0.52045 -1.05769,5.35563 -2.95483,-0.70513 -0.25183,-5.43957 -4.58336,0.78907 -4.81838,7.11846 -8.88128,-6.95057 -5.70819,1.71245 1.46062,-8.37761 -11.56749,-18.38374 -2.90446,-14.62306 v 0 l 4.33151,-2.38401 1.79641,-5.70819 5.50672,-0.65477 0.4533,-3.79427 8.49514,-0.084 4.75123,-8.8477 6.19507,-0.97374 -1.20879,-4.54977 5.80893,-1.69567 -2.30008,-3.92858 3.62639,-2.80373 -1.74604,-3.82786 5.82572,2.45117 2.31686,-10.24117 -3.81107,-5.13737 v 0 h -6.04396 v 0 l 1.51098,-2.65264 -2.73656,-1.61172 2.50153,-1.82999 -9.33458,-5.20452 -6.14471,0.50366 -5.13737,4.75123 -3.50887,-1.30952 -0.16788,2.09859 -4.90234,-4.75123 -3.02198,4.14684 -1.05769,-6.02718 5.17095,-4.02932 1.49421,-5.92644 -20.63345,-29.34685 4.56655,-9.4521 -4.29793,-4.39866 0.53723,-3.92859 9.03238,-2.95482 -4.39866,-24.05837 z m 75.9022,183.09875 v 0 l -4.85196,1.46064 -3.12272,5.67461 1.09127,4.38188 6.79947,1.14164 5.8593,-8.14258 -4.93592,-3.54243 z"
     class="land"
     title="Rhône-Alpes"
     id="FR-V"
     inkscape:connector-curvature="0"
     style="fill:#c2d234;fill-opacity:1;stroke:#ffffff;stroke-width:0.83944046;stroke-opacity:1" />
  <g
     id="stadiums"
     data-country="france"
     data-circle-radius="8"
     data-circle-colors="#d234c2,#34c2d2"
     transform="matrix(1.6788809,0,0,1.6788809,-0.10361479,-0.01501908)" />
</svg>
