<?xml version="1.0" encoding="UTF-8" standalone="no"?>
<?xml-stylesheet type="text/css" href="/styles/home.css"?>
<!-- https://www.amcharts.com/svg-maps -->

<svg version="1.1" xmlns="http://www.w3.org/2000/svg" id="map-france"
   viewBox="0 0 595.64178 595.64178" width="595.64178" height="595.64178" class="">
  <defs
     id="defs4">
    <style
       type="text/css"
       id="style2">
			.land
			{
				fill: #c2d234;
				fill-opacity: 1;
				stroke:white;
				stroke-opacity: 1;
				stroke-width:0.5;
			}
         .rectangle:hover {
            fill: #bdbdbd;
            cursor: pointer;
            }
		</style>
    <!-- <amcharts:ammap
       projection="mercator"
       leftLongitude="-4.778054"
       topLatitude="51.089515"
       rightLongitude="9.560176"
       bottomLatitude="41.363289" /> -->
    <!-- All areas are listed in the line below. You can use this list in your script. -->
    <!--{id:"FR-A"},{id:"FR-B"},{id:"FR-C"},{id:"FR-D"},{id:"FR-E"},{id:"FR-F"},{id:"FR-G"},{id:"FR-H"},{id:"FR-I"},{id:"FR-J"},{id:"FR-K"},{id:"FR-L"},{id:"FR-M"},{id:"FR-N"},{id:"FR-O"},{id:"FR-P"},{id:"FR-Q"},{id:"FR-R"},{id:"FR-S"},{id:"FR-T"},{id:"FR-U"},{id:"FR-V"}-->
  </defs>
  <rect id="background" class="rectangle" stroke-width="0" stroke="#000" width="595.64178" height="595.64178" y="0" x="0" fill="#d3d3d3" />
  <path
     d="m 482.34125,214.06305 3.46,-1.71 -0.96,-2.53 1.97,-6.73 5.53,-6.81 -0.72,-2.22 5.8,-10.26 -0.8,-1.83 -4.32,-0.79 1.71,-7.61 -1.14,-1.82 1.84,0.36 -2.86,-1.66 6.37,-1.75 3.58,-6.74 -2.58,-2.01 3,-4.72 -2.28,-3.45 -4.43,-1.45 -3.12,3.82 -1.13,-3.74 1.83,-1.16 -5.83,-1.95 -0.45,-2.51 3.67,-1.44 2.74,-7.65 1.17,4.51 6.98,2.02 1.32,1.92 5.24,-1.58 3.52,2.27 4.15,-7.64 v 0 l 6.52,-0.78 3,2.04 2.8,-1.54 12.4,5.8 -5.93,10.3 -4.88,2.84 -5.51,7.28 -4.42,15.42 0.51,4.19 -2.14,1.58 -4.83,11.26 -0.3,5.36 2.19,3.85 -2.73,5.74 -0.36,8.96 -1.51,2.24 2.97,7.47 -3.5,2.22 1.31,0.71 -1.75,2.78 -2.37,-0.79 1,1.48 -2.87,2.38 -5.94,0.66 -3.04,-1.38 1.32,-3.07 -2.88,-0.55 v 0 l -1.93,-5.51 -3.35,-0.57 1.29,-7.41 -7.08,-3.67 z"
     class="land"
     title="Alsace"
     id="FR-A" />
  <path
     d="m 224.71125,341.68305 6.02,2.53 -0.97,2.94 2.51,2.53 2.36,-2.83 1.18,1.28 5.02,-0.57 2.79,4.71 3.37,0.31 -1.89,2.95 7.17,2.5 -1.54,1.83 2.82,1.37 -3.64,3.35 -0.39,2.91 2.1,1.07 -2.08,2.93 2.54,0.92 -1.41,1.34 2.2,1.92 4.3,0.48 -1.41,1.16 2.91,5.01 v 0 l -1.57,0.9 1.3,7.39 -5.88,4.86 0.73,3.25 -6.95,4.09 -1.81,5.61 -5.09,1.7 3.3,10.28 -4.98,1.19 -1.88,-2.08 -1.12,4.1 3.38,2.06 -1.83,4.82 -2.21,0.38 1.69,2.66 -4.35,-0.33 0.37,1.87 -5.62,4.99 -2.94,-3.22 -12.15,5.18 -2.89,-1.8 -3.09,2.83 -1.23,-1.66 -2.96,2.32 0.14,3.75 -3.32,-1.89 1.15,-1.43 -1.79,-1.74 -2.47,3.21 -3.47,-0.62 -2.49,2.39 2.21,1.68 -0.29,3.34 -1.37,0.1 1.32,4.06 -2.29,1.72 -1.24,5.08 1.7,2.04 5.9,0.03 3.24,6.27 -1.97,0.51 -0.06,2.97 2.76,-1.96 1.26,5.64 -3.15,2.55 1.2,1.76 -2.32,2.71 0.22,2.61 -2.06,-0.17 -3.14,3.73 0.54,3.53 -4.49,2.63 -1.06,8.81 v 0 l -3.38,2.85 -4.63,-1.6 -1.9,2.79 -7.48,-6.7 -0.92,-4.04 -7.86,0.83 -7.1,-4 -1.16,0.91 -6.92,-3.42 1.59,-2.83 -3.04,1.35 -0.4,3.74 -3.57,-1 -1.37,-2.38 3.79,-5.71 -0.27,-3.9 -6.08,-2.04 -3.04,2.38 -0.66,-3.13 -4.36,0.6 -2.39,-3.1 -0.07,-1.33 5.03,-0.85 2.79,-2.55 6.38,-12.24 6.21,-32.32 1.66,-19.24 2.62,-6.67 7.87,1.33 -2.71,-3.5 1.48,-0.02 -5.54,-4.62 -3.3,9.35 -0.63,-1.04 4.34,-49.39 2.59,-4.77 1.39,-1.02 -0.24,3.66 10.89,9.76 4.74,15.92 3.95,3.85 -3.05,-7.07 -1.94,-11.61 v 0 l 4.97,0.42 0.34,-1.52 0.93,2.95 5.81,1.06 1.76,7.92 0.85,-1.55 7.15,4.43 4.28,-1.6 1.82,1.35 2.17,-6.1 1.98,-1.44 3.28,1.23 5.45,-5.36 -0.78,-4.26 2.28,-5.31 1.17,1.02 4.2,-2.58 3.02,-3.87 0.27,-4.8 2.26,-0.03 z m -29.53,135.85 v 0 l -1.45,2.45 1.69,1.12 z m -1.67,7.34 1.73,-1.24 -1.41,-2.66 z"
     class="land"
     title="Aquitaine"
     id="FR-B" />
  <path
     d="m 293.22125,299.34305 3.33,-5.81 7.3,-0.15 3.24,-2.06 -1.85,-6.37 2.4,0.02 -0.15,-1.91 3.8,-3.32 1.88,1.71 3.54,-0.53 3.09,-4.06 4.59,-0.12 v 0 l 6.99,7.15 2.88,-2.45 3.23,1.99 3.06,-1.81 1.5,3.77 4.32,-2.26 1.16,-4.39 1.51,0.42 4.64,9.22 0.23,3.82 4.03,0.44 1.25,2.6 3.36,-0.29 2.06,1.87 0.2,8.06 -4.38,3.09 v 0 l -5.45,2.2 2.62,14.33 -5.38,1.76 -0.33,2.35 2.56,2.62 -2.72,5.63 12.29,17.47 -0.89,3.53 -3.08,2.41 0.63,3.59 1.81,-2.47 2.91,2.83 0.1,-1.26 2.1,0.79 3.06,-2.83 3.66,-0.31 5.57,3.11 -1.49,1.09 1.63,0.96 -0.9,1.58 v 0 h 3.59 v 0 l 2.27,3.05 -1.38,6.11 -3.47,-1.46 1.04,2.28 -2.16,1.67 1.37,2.34 -3.46,1.01 0.72,2.71 -3.69,0.58 -2.84,5.27 -5.06,0.04 -0.26,2.26 -3.28,0.39 -1.07,3.4 -2.58,1.42 v 0 l -4.91,-5.48 -3.19,0.55 -1.52,-3.07 -1.51,0.32 -0.21,2.9 -4.59,0.97 -4.44,-9.68 -3.55,2.82 -1.82,-0.51 -2.07,4.27 -2.51,-2.4 -6.21,15.11 v 0 l -5.07,-13.4 -3.6,1.08 -1.49,-4.99 -5.49,5.58 -1.85,7.33 -3.17,4.04 -5.46,0.59 -2.38,-1.62 -3.25,1.06 -0.52,1.88 -3.1,-4.59 1.74,-5.35 -3.34,-4.95 -1.23,-5.97 v 0 l 3.38,-1.49 -1.84,-3.43 3.09,-1.3 0.27,-3.22 2.19,-1.67 -1.59,-3.3 6.88,-6.78 -0.46,-4.43 5.48,2.47 1.98,-1.3 -1.69,-1.6 1.26,-7.98 -2.34,-2.47 2.51,-2.73 0.08,-4.03 -5.62,-6.83 6.99,-5.25 0.32,-2.56 1.96,-0.91 -0.41,-3.75 -4.96,-14.64 -7.48,-3.78 1.31,-1.74 -1.93,-0.55 z"
     class="land"
     title="Auvergne"
     id="FR-C" />
  <path
     d="m 325.05125,180.73305 -1.33,3.38 1.33,3.44 -4.57,5.38 v 0 l 3.84,1.85 0.84,3.72 3.11,2.69 0.14,3.53 -4.93,4.12 0.67,7.36 -7.21,1.82 -0.16,2.49 3.25,2.16 2.09,6.91 -5.33,1.92 3.43,6.12 -2.62,6.09 4.73,4.68 1.5,12.02 2.49,2.46 -1.93,13.87 v 0 l 6.99,7.15 2.88,-2.45 3.23,1.99 3.06,-1.81 1.5,3.77 4.32,-2.26 1.16,-4.39 1.51,0.42 4.64,9.22 0.23,3.82 4.03,0.44 1.25,2.6 3.36,-0.29 2.06,1.87 0.2,8.06 -4.38,3.09 v 0 l -0.36,3.68 3.42,0.7 0.69,2 9.06,-1.51 2.81,2.28 4.04,-1.77 1.37,-6.57 4.08,1.69 2.68,-1.58 2.07,1.7 2.56,-2.43 3.25,8.01 7.59,-20.76 4.81,2.07 4.61,-2.1 2.81,3.67 3.26,0.7 v 0 l 4.26,-1.84 -2.45,-5.13 3.45,-4.54 -3.36,-5.55 1.27,-2.45 -2.65,-2.72 5.75,-1.52 -2.76,-3.14 -2.9,0.3 -1.46,-3.16 -1.24,0.66 -0.4,-3 2.65,-2.11 -1.43,-2.2 4.2,-2.01 2.25,-3.79 3.32,-9.65 -2.07,-0.81 0.61,-4.69 -2.14,0.02 0.27,-3.54 -2.98,-0.86 5.41,-5.57 -2.32,-4.58 -2.86,1.53 v 0 l -2.72,-0.27 -2.28,2.01 0.32,-2.79 -3.56,-1.84 0.21,-1.73 -2.53,2.08 -3.7,-3.94 -2.5,1.5 -0.4,-4.68 -1.8,-0.32 3.18,-2.52 -3.7,-6.99 -2.97,0.76 1.4,-1.95 -3.35,-1.36 0.35,-2.69 -8.9,-1.43 -1.77,1.4 0.77,2.38 -9.97,0.42 -0.9,2.25 -2,-0.32 -0.76,-2.59 -1,1.89 -1.46,-1.12 -2.37,2.08 -2.08,-1.22 -0.64,1.27 -6.22,-0.25 0.77,-3.12 -0.78,-1.35 -1.78,1.15 0.84,-1.98 -3.35,-6.37 -2.14,-0.91 0.36,-2.07 -3.37,1.6 -1.53,-3.1 -2.14,0.33 1.66,-5.23 -4.79,-6.09 -3.14,0.49 -0.58,-1.97 z"
     class="land"
     title="Bourgogne"
     id="FR-D" />
  <path
     d="m 63.721246,240.73305 7.73,4.48 -0.56,1.7 -6.78,-1 z m 0.96,-91.82 0.21,2.23 5.57,-2.26 v 3.04 l 3.06,-0.19 -1.32,2.7 4.77,1.54 -0.69,2.18 5.32,4.52 -0.2,3.35 4.49,2.47 -1.11,1.95 1.17,-0.49 1.61,2.8 -0.36,-2.8 2.29,0.66 3.02,-4.87 3.36,-1.43 -0.62,-1.41 2.13,-0.48 0.72,1.47 4.210004,-3.72 1.45,1.27 -2.22,3.03 3.88,-1.52 0.79,5.9 1.17,-3.8 0.7,2.17 1.19,-2.62 1.08,1.09 -1.14,-2.05 4.34,-0.34 3.11,5.95 -0.52,3.04 1.94,-1.56 -2,-3.99 1.63,0.87 -0.56,-1.33 -3,-2.72 1.73,-3.06 6.15,-1.81 -1.04,4.65 3.75,2.13 8.54,-1.9 v 0 l 3.46,9.09 2.79,1.76 2.8,-0.5 4.16,-4.69 7.63,2.23 v 0 l 1.03,11.19 -2.32,3.9 3.52,16.32 -5.75,2.37 -3.8,11.62 -9.63,-3.62 0.24,1.99 -6.19,2.43 -1.57,3.32 -8.31,0.06 -3.94,2.29 -0.76,-1.38 -4.51,2.7 -0.68,7.18 -2.46,0.69 -0.26,1.95 -5.6,-1.62 -0.78,3.38 -4.400004,-0.97 -1.43,1.77 v 0 l -1.56,-0.12 -0.26,-2.58 2.52,-0.38 -2.85,-1.59 -12.7,2.33 -8.69,-6.49 0.2,1.53 -4.29,-0.13 -0.19,3.42 2,2.76 -2.14,-0.27 -0.76,-7.5 -5.67,-5.52 -3.09,-0.04 -0.22,-1.53 -3.64,0.92 -3.06,-4.18 -8.32,-2.54 -5.28,0.88 -3.79,-6.89 -1.78,1.18 0.6,1.78 -7.13,-0.14 -1.86,3.72 -7.31,0.01 0.39,-5.65 -2.61,-4.61 -3.72,-2.65 -9.38,-2.09 0.93,-1.58 12.37,-2.63 4.63,1.1 1.57,-2.52 -2.01,-4.6 -6.14,-2.18 -3.95,4.27 0.64,-4.89 -3.25,-0.33 -0.28,-1.57 2.43,-0.16 -0.07,-3.02 1.63,-0.64 -0.13,3.55 1.49,-1.7 -0.13,1.9 2.11,-0.98 2.22,1.36 3.78,-1.44 1.93,1.1 1.62,-2.09 -4.79,-0.08 1.43,-0.97 -0.64,-1.99 -2.28,2.25 -3.54,-0.01 2.41,-3.53 -0.98,-0.78 -7.63,3.58 -3.06,-1.06 -3.82,1.62 -0.17,-11.61 1.95,-2.54 4.96,-1.27 2.84,-3.79 5.85,-0.03 -1.47,-1.08 3.76,-1.42 2.08,0.79 0.01,1.94 4.18,-1.14 -1.13,-0.43 1.5,-1.77 5.28,0.66 2.14,-3.21 1.54,0.01 -0.07,3.34 1.67,0.71 0.25,-2.26 0.08,1.55 3.21,0.85 0.94,-3.69 7.45,1.47 -0.61,2.33 1.47,-1.72 1.71,1 1.39,-4.7 -1.59,-3.84 1.34,0.91 2.09,-3 4.41,2.46 z"
     class="land"
     title="Bretagne"
     id="FR-E" />
  <path
     d="m 260.89125,144.36305 4.03,6.36 0.15,10.96 7.67,6.98 0.6,5.43 2.83,1.64 2.51,-1.04 -0.1,3.18 2.06,0.28 0.44,2.37 -0.65,4.66 7.93,-0.65 1.64,-2.84 1.75,2.84 3.43,-2.15 3.18,1.08 0.81,3.48 3.88,2.1 0.02,3.64 -3.07,2.68 10.87,0.03 2.02,-1.36 -0.74,-1.33 2.6,-0.12 0.85,2.41 4.88,-2.06 v 0 l 3.84,1.85 0.84,3.72 3.11,2.69 0.14,3.53 -4.93,4.12 0.67,7.36 -7.21,1.82 -0.16,2.49 3.25,2.16 2.09,6.91 -5.33,1.92 3.43,6.12 -2.62,6.09 4.73,4.68 1.5,12.02 2.49,2.46 -1.93,13.87 v 0 l -4.59,0.12 -3.09,4.06 -3.54,0.53 -1.88,-1.71 -3.8,3.32 0.15,1.91 -2.4,-0.02 1.85,6.37 -3.24,2.06 -7.3,0.15 -3.33,5.81 v 0 l -7.97,0.59 -4.55,-1.99 -5.8,1.04 -2.33,-1.85 -2.24,3.98 -1.8,-1.69 -2.37,1.82 -0.79,-2 -2.68,1.73 -0.79,-2.05 -4.59,4.84 -2.55,-3.22 -2.09,1.7 -5.21,-0.81 v 0 0 0 0 0 l 1.4,-2.93 -2.54,-0.89 -0.27,-3.52 -9.7,-5.65 0.1,-7.58 -8.64,-10.66 -0.53,-4.28 -5.14,-1.96 1.27,2.97 -11.4,1.61 -0.85,-7.33 -5.17,-0.48 0.14,-3.42 -4.22,-0.24 -1.09,-2.73 v 0 l 0.95,-7.16 4.36,-6.11 -1.22,-1.08 2.85,-6.17 -1.14,-2.39 1.6,-4.04 6.29,2.14 -0.02,-4.5 2.74,1.5 6.09,-3.24 0.95,-1.3 -1.38,-1.52 4.81,-3.02 2.78,-4.01 -0.34,-4.22 2.1,0.76 1.56,-3.19 -0.28,-5.54 -1.87,-0.46 -0.15,-2.07 2.05,-0.15 -1.23,-1.66 1.56,-2.1 2.69,-0.34 -4.9,-3.44 v 0 l 1.35,-1.2 -2.5,-6.77 5.98,-3.14 2.57,-4.22 -1.66,-2.26 1.27,-2.94 -6.12,-5.53 -0.14,-3.63 v 0 l 2.53,-2.85 5.53,-0.62 2.23,-2.07 2.16,0.74 0.26,-2.69 8.75,1.77 1.66,-1.25 -0.43,-3.35 4.08,-2.36 -0.51,-3.25 z"
     class="land"
     title="Centre"
     id="FR-F" />
  <path
     d="m 399.29125,66.893048 2.52,1.13 -3.17,4.63 0.88,1.74 -2.14,4.46 4.1,3.81 -1.71,2.75 0.19,4.73 5.97,-0.45 4.11,2.39 2.99,4.45 4.33,-0.16 2.54,2.68 -0.73,2.729992 3.4,-0.33999 v 0 l -5.54,4.77 -6.22,-3.22001 -2.22,5.84001 2.16,2.72 -1.42,3.52 1,1.55 -1.96,0.69 -0.14,5.92 -4.13,2.35 1.7,1.78 -2.19,1.53 2.7,7.35 -1.62,2.98 2.95,-0.13 -1.74,2.51 1.87,0.63 -4.38,3.7 0.15,4.57 -1.94,2.76 4.96,3.56 -0.45,7.93 2.42,-1.06 0.58,2.28 1.99,0.03 3.85,4.2 4.82,1.17 5.83,5.39 -3.14,1.99 2.01,0.74 -0.63,2.99 4.06,-1.03 2.67,4.6 0.94,-1.11 1.75,1.49 -0.51,1.63 3.67,2.73 -2.04,1.16 -0.41,4.41 -1.77,1.42 6.18,3.21 0.45,5 2.47,-1.43 1.57,3.07 v 0 l -2.36,4.54 -2.79,-0.45 -0.79,2.43 -2.1,-0.05 -0.01,8.38 -3.9,0.77 -1.22,-2.17 -1.74,2.12 -4.78,-0.09 -1.58,4.29 v 0 l -2.72,-0.27 -2.28,2.01 0.32,-2.79 -3.56,-1.84 0.21,-1.73 -2.53,2.08 -3.7,-3.94 -2.5,1.5 -0.4,-4.68 -1.8,-0.32 3.18,-2.52 -1.6,-3.62 v 0 0 0 l -2.1,-3.37 -2.97,0.76 1.4,-1.95 -3.35,-1.36 0.35,-2.69 -3.86,-1.11 -5.04,-0.32 -1.77,1.4 0.77,2.38 -9.97,0.42 -0.9,2.25 -2,-0.32 -0.76,-2.59 -1,1.89 -1.46,-1.12 -2.37,2.08 -2.08,-1.22 -0.64,1.27 -6.22,-0.25 0.77,-3.12 -0.78,-1.35 -1.78,1.15 0.84,-1.98 -3.35,-6.37 -2.14,-0.91 0.36,-2.07 -3.37,1.6 -1.53,-3.1 -2.14,0.33 1.66,-5.23 -4.79,-6.09 -3.14,0.49 -0.58,-1.97 v 0 l -1.31,-5.61 2.26,-0.67 -1.3,-2.34 3.09,-0.86 -0.67,-1.8 3.94,-2.88 -1.05,-1.86 -3.45,0.7 0.71,-6.44 -3.06,-1.27 2.03,-2 -1.66,-1.15 3.48,-0.33 -0.08,-2.4 v 0 l 8,-10.2 -1.12,-1.83 -2.72,0.39 2.2,-2.54 -1.55,-2.68 0.89,-1.95 5.24,-0.53 -3.92,-3.42 -0.36,-6.39 5.51,-2.72 3.05,0.73 0.18,-2.25 2.83,-1.69 4.69,2.96 1.72,-13.45001 -2.26,-3.24999 3.8,-0.71 0.47,-2.880002 5.13,-5.06 -1.82,-1.47 1.96,-5.67 -0.88,-5.82 v 0 l 3.23,-0.67 5.66,2.04 10.22,-3.74 0.39,-6.41 z"
     class="land"
     title="Champagne-Ardenne"
     id="FR-G" />
  <path
     d="m 562.86125,577.22305 1.21,-2.68 4.63,-2.55 -5.58,-0.67 -0.28,-2.29 -4.82,0.04 2.98,-2 -0.77,-1.43 2.48,-0.52 -0.87,-1.86 2.17,-2.8 -2.28,-2.11 -5.83,2.2 -0.63,-3.97 2.32,-0.19 0.49,-2.44 3.62,-2.07 -1.97,-3.49 -1.69,0.66 -4.23,-2.51 1.49,-1.26 -2.22,-3.87 6.43,-1.64 -3.76,-2.17 0.44,-2.47 -2.58,0.89 -0.34,-2.31 4.6,-2.25 1.03,-3 -1.29,-0.54 2.97,-2.62 0.23,-3.34 2.62,1.75 0.55,-2.74 8.85,-2.18 4.55,-5.08 4.03,-0.21 3.19,3.3 1.91,-3.34 -1.47,-5.47 2.15,-5.13 -0.88,-3.95 3.45,-0.98 1.68,1.41 1.22,10.14 -1.95,7.42 3.6,7.14 1.08,19.75 -0.39,5.13 -5.7,8.35 -1.05,17.06 -4.47,2.72 0.37,1.18 1.27,-1.66 2.12,0.59 -3.96,3.53 0.2,3.66 -2.88,2.81 2.09,-0.02 -3.31,2.73 -3.59,-1.65 1.13,-2.4 -2.1,-0.36 0.39,-2.03 -1.66,1.35 -1.7,-1.84 -3.25,0.05 -3.22,-1.58 0.46,-1.61 -2.76,-0.49 z"
     class="land"
     title="Corse"
     id="FR-H" />
  <path
     d="m 442.87125,207.63305 2.01,-3.18 0.69,2.57 3.75,-4.18 3.96,-0.98 2.86,5.4 7.68,-1.77 3.69,4.64 5.19,-3.73 9.64,7.66 v 0 l 1.25,2.43 7.08,3.67 -1.29,7.41 3.35,0.57 1.93,5.51 v 0 l -6.21,0.55 0.78,2.48 -2.56,1.27 -2.54,4.9 5.7,-1.23 1.63,2.39 -4.67,2.85 0.51,2.72 -10.48,9.78 0.68,1.89 -11.94,7.45 1.34,2.37 -0.49,6.89 -14.19,11.96 1.92,1.89 -3.82,7.76 v 0 l -8.1,9.07 -5.99,0.23 -0.48,-2.9 -2.94,-2.12 -4.32,4.56 -2.71,0.25 0.07,-3.07 -2.12,-1.94 -0.85,2.24 -1.11,-4.3 -3.23,-1.85 0.64,-1.99 v 0 l 4.26,-1.84 -2.45,-5.13 3.45,-4.54 -3.36,-5.55 1.27,-2.45 -2.65,-2.72 5.75,-1.52 -2.76,-3.14 -2.9,0.3 -1.46,-3.16 -1.24,0.66 -0.4,-3 2.65,-2.11 -1.43,-2.2 4.2,-2.01 2.25,-3.79 3.32,-9.65 -2.07,-0.81 0.61,-4.69 -2.14,0.02 0.27,-3.54 -2.98,-0.86 5.41,-5.57 -2.32,-4.58 -2.86,1.53 v 0 l 1.58,-4.29 4.78,0.09 1.74,-2.12 1.22,2.17 3.9,-0.77 0.01,-8.38 2.1,0.05 0.79,-2.43 2.79,0.45 z"
     class="land"
     title="Franche-Comté"
     id="FR-I" />
  <path
     d="m 269.28125,125.97305 2.11,3.56 5.34,0.81 8.21,-3.01 3.72,2.96 1.99,-1 0.6,1.78 3.35,-2.23 7.33,5.05 2.58,-1.15 1.29,2.82 2.05,-1.81 4.2,3 3.08,-2.27 1.81,1.67 4.86,-1.34 0.78,1.29 3.28,-0.89 0.14,-2.01 2.84,0.69 2.16,3.54 -0.97,2.39 4.03,4.63 1.67,-0.62 1,2.56 1.6,-1.28 0.64,3.55 3.24,2.16 1,-0.92 v 0 l 0.08,2.4 -3.48,0.33 1.66,1.15 -2.03,2 3.06,1.27 -0.71,6.44 3.45,-0.7 1.05,1.86 -3.94,2.88 0.67,1.8 -3.09,0.86 1.3,2.34 -2.26,0.67 1.31,5.61 v 0 l -15.23,1.92 -1.33,3.38 1.33,3.44 -4.57,5.38 v 0 l -4.88,2.06 -0.85,-2.41 -2.6,0.12 0.74,1.33 -2.02,1.36 -10.87,-0.03 3.07,-2.68 -0.02,-3.64 -3.88,-2.1 -0.81,-3.48 -3.18,-1.08 -3.43,2.15 -1.75,-2.84 -1.64,2.84 -7.93,0.65 0.65,-4.66 -0.44,-2.37 -2.06,-0.28 0.1,-3.18 -2.51,1.04 -2.83,-1.64 -0.6,-5.43 -7.67,-6.98 -0.15,-10.96 -4.03,-6.36 v 0 l 0.74,-2.41 -2.02,0.17 -0.92,-4.9 1.67,0.18 0.88,-2.2 h 4.67 z"
     class="land"
     title="Île-de-France"
     id="FR-J" />
  <path
     d="m 322.34125,404.22305 6.21,-15.11 2.5,2.4 2.08,-4.26 1.82,0.51 3.54,-2.82 4.45,9.68 4.59,-0.96 0.2,-2.9 1.51,-0.32 1.53,3.06 3.19,-0.54 4.91,5.47 v 0 l 1.73,8.71 6.89,10.95 -0.87,4.99 3.4,-1.02 5.29,4.14 2.87,-4.24 2.73,-0.47 0.15,3.24 1.76,0.42 0.63,-3.19 2.16,-0.31 5.98,4.23 v 0 l 2.99,4.8 -0.04,6.1 2.74,0.91 2.41,4.41 -8.41,7.05 1.07,1.25 -1.64,9.12 -5.91,-0.67 -2.47,4.19 1.9,0.66 -0.43,1.32 -5.32,3.08 -0.83,-1.11 0.41,1.55 -3.4,1.65 -0.44,2.25 v 0 l -3.96,-1.47 -1.16,-3.81 -5.6,0.42 -13.63,9.25 -5.7,6.6 -7.22,-1.24 -6.3,6.63 -5.65,11.76 -0.62,14.7 0.76,9.2 3.89,1.35 1.37,4.55 -3.67,0.52 -1.89,-2.67 -3.88,-0.5 -7.01,3.93 -4.3,0.4 -0.11,3.59 -3.95,-0.99 -1.93,1.43 -4.04,-3.39 -7.31,-2.5 -4.21,0.81 -5.77,4.22 -3.42,-5.87 -8.54,-2.37 0.39,-3.41 2,-1.04 v 0 l 7.77,-2.42 1.01,-2.49 7.43,-1.12 -3.81,-3.96 -3.35,1.01 -3.77,-1.38 -2.26,-3.69 0.67,-1.64 4.62,-1.02 -0.26,-3.34 -1.91,-0.72 3.02,-1.15 -2.69,-5.01 0.44,-3.49 -10.13,-4.41 0.57,-8.56 3.79,0.02 -0.5,-2.92 2.1,-2.85 1.76,2.65 5.91,-2.27 1.46,2.27 4.06,-1.18 1.84,1.86 1.8,-4.32 5.74,2.48 8.77,-0.83 2.51,-2.23 0.26,-2.62 -2.44,-2.89 1.25,-5.35 4.54,2.62 9.54,-5.41 3.15,0.92 0.12,-8.13 6.22,1.2 2.13,-4.63 3.28,0.03 0.6,-3.17 3.45,-2.85 -2.2,-3.39 -5.24,-2.02 2.47,-0.87 1.69,-5.34 -6.55,0.59 1.08,-2.34 -2.88,-0.83 -0.37,-1.76 -1.3,0.74 0.98,-10.17 -3.24,-3.74 0.79,-3.27 z m -40.71,125.37 -1,-2.23 -1.21,1.64 z"
     class="land"
     title="Languedoc-Roussillon"
     id="FR-K" />
  <path
     d="m 247.46125,301.43305 5.21,0.81 2.09,-1.7 2.55,3.22 4.59,-4.84 0.79,2.05 2.68,-1.73 0.79,2 2.37,-1.82 1.8,1.69 2.24,-3.98 2.33,1.85 5.8,-1.04 4.55,1.99 7.97,-0.59 v 0 l 0.29,2.3 1.93,0.55 -1.31,1.74 7.48,3.78 4.96,14.64 0.41,3.75 -1.96,0.91 -0.32,2.56 -6.99,5.25 5.62,6.83 -0.08,4.03 -2.51,2.73 2.34,2.47 -1.26,7.98 1.69,1.6 -1.98,1.3 -5.48,-2.47 0.46,4.43 -6.88,6.78 1.59,3.3 -2.19,1.67 -0.27,3.22 -3.09,1.3 1.84,3.43 -3.38,1.49 v 0 l -4.7,1.38 -1.65,-1.48 -4.4,3.21 -6.46,-6.19 -4.5,-1.09 -3.74,1.58 v 0 l -2.91,-5.01 1.41,-1.16 -4.3,-0.48 -2.21,-1.91 1.42,-1.35 -2.55,-0.92 2.08,-2.92 -2.1,-1.08 0.39,-2.91 3.64,-3.35 -2.82,-1.37 1.53,-1.83 -7.17,-2.5 1.89,-2.95 -3.36,-0.31 -2.8,-4.71 -5.02,0.57 -1.18,-1.28 -2.35,2.83 -2.52,-2.53 0.97,-2.94 -6.01,-2.53 v 0 l 3.51,-3.09 -0.13,-2.49 2.94,0.75 1.2,-8.32 2.91,0.53 2.7,-2.83 -0.92,-2.41 -4.58,-2.41 -0.17,-4.34 1.54,-0.84 -2.24,-4.48 4.55,-4.55 4.28,0.5 1.78,-4.94 3.38,0.9 z"
     class="land"
     title="Limousin"
     id="FR-L" />
  <path
     d="m 423.51125,102.45304 2.25,6.56001 3.48,-2.05 2.28,1.45 1.28,-2.73 4.3,0.72 1.13,-1.55001 3.97,4.11001 4.05,0.34 0.64,2.71 4.91,-0.16 1.12,-2.52 4.64,-1.33 5.22,3.44 2.66,-1.05 5.31,3.5 -0.7,1.21 2.54,2.33 -1.4,1.18 4.27,4.26 2.87,7.33 4.02,0.7 0.11,-3.77 4.16,-0.64 3.95,2.04 0.72,4.86 1.98,-2.63 2.4,2.24 5.68,0.35 2.95,-3.57 3.31,-0.77 -0.37,1.2 2.42,-0.27 1.42,4.51 4.52,2.75 v 0 l -4.15,7.64 -3.52,-2.27 -5.24,1.58 -1.32,-1.92 -6.98,-2.02 -1.17,-4.51 -2.74,7.65 -3.67,1.44 0.45,2.51 5.83,1.95 -1.83,1.16 1.13,3.74 3.12,-3.82 4.43,1.45 2.28,3.45 -3,4.72 2.58,2.01 -3.58,6.74 -6.37,1.75 2.86,1.66 -1.84,-0.36 1.14,1.82 -1.71,7.61 4.32,0.79 0.8,1.83 -5.8,10.26 0.72,2.22 -5.53,6.81 -1.97,6.73 0.96,2.53 -3.46,1.71 v 0 l -9.64,-7.66 -5.19,3.73 -3.69,-4.64 -7.68,1.77 -2.86,-5.4 -3.96,0.98 -3.75,4.18 -0.69,-2.57 -2.01,3.18 v 0 l -1.57,-3.07 -2.47,1.43 -0.45,-5 -6.18,-3.21 1.77,-1.42 0.41,-4.41 2.04,-1.16 -3.67,-2.73 0.51,-1.63 -1.75,-1.49 -0.94,1.11 -2.67,-4.6 -4.06,1.03 0.63,-2.99 -2.01,-0.74 3.14,-1.99 -5.83,-5.39 -4.82,-1.17 -3.85,-4.2 -1.99,-0.03 -0.58,-2.28 -2.42,1.06 0.45,-7.93 -4.96,-3.56 1.94,-2.76 -0.15,-4.57 4.38,-3.7 -1.87,-0.63 1.74,-2.51 -2.95,0.13 1.62,-2.98 -2.7,-7.35 2.19,-1.53 -1.7,-1.78 4.13,-2.35 0.14,-5.92 1.96,-0.69 -1,-1.55 1.42,-3.52 -2.16,-2.72 2.22,-5.84001 6.22,3.22001 5.54,-4.77 v 0 z"
     class="land"
     title="Lorraine"
     id="FR-M" />
  <path
     d="m 193.96125,480.95305 1.27,2.68 -1.73,1.24 z m 0.77,-0.02 0.05,-3.59 z m 63.95,-98.61 3.74,-1.58 4.5,1.09 6.46,6.19 4.4,-3.21 1.65,1.48 4.7,-1.38 v 0 l 1.23,5.97 3.34,4.94 -1.74,5.36 3.1,4.58 0.53,-1.88 3.25,-1.06 2.38,1.62 5.46,-0.59 3.17,-4.03 1.85,-7.33 5.5,-5.58 1.49,4.99 3.6,-1.08 5.07,13.4 v 0 l 4.31,4.95 -0.79,3.27 3.24,3.74 -0.98,10.17 1.3,-0.74 0.37,1.76 2.88,0.83 -1.08,2.34 6.55,-0.59 -1.69,5.34 -2.47,0.87 5.24,2.02 2.2,3.39 -3.45,2.85 -0.6,3.17 -3.28,-0.03 -2.13,4.63 -6.22,-1.2 -0.12,8.13 -3.15,-0.92 -9.54,5.41 -4.54,-2.62 -1.25,5.35 2.44,2.89 -0.26,2.62 -2.51,2.23 -8.77,0.83 -5.74,-2.48 -1.8,4.32 -1.84,-1.86 -4.06,1.18 -1.46,-2.27 -5.91,2.27 -1.76,-2.65 -2.1,2.85 0.5,2.92 -3.79,-0.02 -0.57,8.56 10.13,4.41 -0.44,3.49 2.69,5.01 -3.02,1.15 1.91,0.72 0.26,3.34 -4.62,1.02 -0.67,1.64 2.26,3.69 3.77,1.38 3.35,-1.01 3.81,3.96 -7.43,1.12 -1.01,2.49 -7.77,2.42 v 0 l -2.53,-0.9 0.41,-1.5 -7.68,-2.18 -2.93,0.23 -1.76,2.74 -3.35,-6.54 -7.76,0.6 -3.74,-4.49 -6.36,-0.05 -9.05,-4.09 -2.64,4.42 1.27,5.18 -10.52,0.02 -2.59,-1.87 -2.73,2.85 -4.91,-3.57 -9.67,2.52 -4.29,-5.95 -6.33,-2.9 v 0 l 1.06,-8.81 4.49,-2.63 -0.54,-3.53 3.14,-3.73 2.06,0.17 -0.22,-2.61 2.32,-2.71 -1.2,-1.76 3.15,-2.55 -1.26,-5.64 -2.76,1.96 0.06,-2.97 1.97,-0.51 -3.24,-6.27 -5.9,-0.03 -1.7,-2.04 1.24,-5.08 2.29,-1.72 -1.32,-4.06 1.37,-0.1 0.29,-3.34 -2.21,-1.68 2.49,-2.39 3.47,0.62 2.47,-3.21 1.79,1.74 -1.15,1.43 3.32,1.89 -0.14,-3.75 2.96,-2.32 1.23,1.66 3.09,-2.83 2.89,1.8 12.15,-5.18 2.94,3.22 5.62,-4.99 -0.37,-1.87 4.35,0.33 -1.69,-2.66 2.21,-0.38 1.83,-4.82 -3.38,-2.06 1.12,-4.1 1.88,2.08 4.98,-1.19 -3.3,-10.28 5.09,-1.7 1.81,-5.61 6.95,-4.09 -0.73,-3.25 5.88,-4.86 -1.3,-7.39 z"
     class="land"
     title="Midi-Pyrénées"
     id="FR-N" />
  <path
     d="m 304.90125,8.1430475 2.94,7.0899995 -1.73,1.820001 0.39,4.6 1.48,2.44 3.64,0.14 2.96,5.64 4.65,2.11 1.91,-3.91 8.24,-2.49 1.66,4.24 2.88,1.54 -0.89,2.85 2.17,8.71 3.51,2.16 4.1,-2.73 1.83,0.63 -0.76,2.36 4.48,-0.57 2.16,2.56 -0.07,5.63 2.07,4.18 1.64,-2.99 6.42,1.57 5.09,-2.08 4.7,6.55 1.03,-2.02 1.92,1.11 -3.32,8.96 2.98,0.04 1.25,4.11 -2.91,1.36 -0.76,4.41 v 0 l -6.75,-0.88 0.07,-3.27 -3.93,2.24 -0.64,-1.82 -6.54,-2.08 -4.18,2.86 -2.91,-1.91 -2.2,2.36 -5.28,-1.2 -7.93,1.63 -6.56,-3.06 -6.24,2.49 -0.26,-3.67 -4.59,2.17 1.38,-4.35 -2.12,-0.94 -1.08,2.89 -5.31,-2.07 0.08,-1.73 -1.84,1.69 -2.15,-1.58 -2.59,3.29 -1.77,-1.43 0.49,-2.84 4.44,-2.64 -1.81,-2.32 -3.85,1.55 -1.09,-2.1 -0.22,1.68 -2.37,-1.02 -5.01,2.49 -2.67,-0.67 -0.37,-3.33 -5.41,-2.31 0.04,-2.8 -1.61,1.27 -4.3,-3.19 -5.8,2 -0.97,-1.44 v 0 l -3.64,-3.14 1.34,-8.96 2.01,1.63 -2.44,-3.65 -0.57,-10.23 2.12,-5.09 -1.35,-4.42 12.03,-6.500001 -1.22,-0.23 11.07,-2.04 2.2,-2.2599995 0.83,2.3999995 0.69,-2.3999995 7.64,-0.51 6.76,-2.82 z"
     class="land"
     title="Nord-Pas-de-Calais"
     id="FR-O" />
  <path
     d="m 118.27125,94.413048 13.15,4.35 -0.2,1.480002 0.52,-1.410002 5.03,-0.71 0.58,-1.84 8.64,0.05 1.5,5.709992 -3.34,3.79001 5.93,8.96 -1.45,4.62 1.95,-1.78 1.62,1.19 1.71,-2.92 4.54,-0.48 8.72,3.08 15,1.01 7.13,3.33 9.19,-2.8 9.33,-6.55 -4.68,-0.2 7.24,-0.11 v 0 l 1.05,9.48 3.08,-0.13 -2.62,2.37 3.07,2.39 -0.39,3.58 1.99,0.81 -0.56,4.14 -2.17,1.43 3.34,2.34 -2.65,6.54 2.87,2.1 6.75,0.06 -0.25,2.87 6.12,4.08 0.66,1.86 -1.91,1.93 3.66,2.31 v 0 l 0.15,3.63 6.12,5.53 -1.27,2.94 1.66,2.25 -2.56,4.23 -5.99,3.14 2.5,6.77 -1.35,1.2 v 0 l -2.48,0.37 -3.5,-4.7 -0.61,1.91 -4.29,-0.98 -1.91,-3.82 -4.04,-0.73 -0.41,-6.42 -3.38,-3.5 -6.49,1.45 -3.6,4.97 -2.45,-1.23 -2.08,1.42 0.01,-4.78 -3.99,-0.36 -1.12,-3.35 1.17,-1.09 -2.57,-2.23 -1.74,-0.04 -0.92,3.56 -2.07,-0.94 -1.33,2.39 -1.81,-1.61 -4.7,0.06 -5.88,4.05 -0.5,-2.57 -2.77,0.74 0.7,1.47 -1.92,0.87 -3.55,-3.95 -9.31,-0.55 v 0 l -7.63,-2.23 -4.16,4.69 -2.8,0.5 -2.79,-1.76 -3.46,-9.09 v 0 l 9.05,0.14 -2.41,-1.68 1.05,-1.03 -2.54,1.28 -5.05,-5.76 -0.18,-4.7 -1.66,-0.84 3.05,-6.09 -0.69,-5.96 2.2,0.38 -2.32,-1.12 -0.74,2.4 -0.9,-2.41 -0.62,-11.37 1.94,-0.19 -1.95,-0.82 -0.51,1.57 -3.34,-7.57 -4.26,-2.8 -3.24,-10.28 1.96,-2.35001 -0.33,-3.84999 -4.1,-2.800002 z"
     class="land"
     title="Basse-Normandie"
     id="FR-P" />
  <path
     d="m 255.76125,72.713048 2.96,-0.37 0.15,1.97 10.78,9.83 3.07,7.98 -1.52,-0.06 -2.5,4.39 h 2.59 l -2.25,3.24 -0.04,3.949992 2.17,2.83001 -1.29,2.19 3.03,0.01 -3.17,6.14 3.73,8.46 -0.62,1.81 -1.29,-1.67 -2.02,0.49 -0.23,2.09 v 0 l -3.38,9.23 h -4.67 l -0.88,2.21 -1.67,-0.18 0.92,4.9 2.02,-0.16 -0.74,2.41 v 0 l -2.21,1.05 0.51,3.26 -4.08,2.35 0.43,3.35 -1.66,1.26 -8.76,-1.77 -0.25,2.69 -2.16,-0.74 -2.23,2.07 -5.53,0.61 -2.53,2.86 v 0 l -3.66,-2.31 1.91,-1.93 -0.66,-1.86 -6.12,-4.08 0.25,-2.87 -6.75,-0.06 -2.87,-2.1 2.65,-6.54 -3.34,-2.34 2.17,-1.43 0.56,-4.14 -1.99,-0.81 0.39,-3.58 -3.07,-2.39 2.62,-2.37 -3.08,0.13 -1.05,-9.48 v 0 l 0.41,-1.13 -7.51,-1.25 -1.98,-2.54 3.59,-8.660002 -1.21,-1.61 1.31,0.6 2.15,-3.35 15.76,-9.19 15.5,-4.45 5.58,0.63 -0.27,-1.26 z"
     class="land"
     title="Haute-Normandie"
     id="FR-Q" />
  <path
     d="m 104.87125,262.60305 1.64,1.15 -0.59,2.05 3.11,1.57 0.3,3.31 -2.43,-3.85 -3.83,-2.02 -0.28,-2.03 z m 49.26,-91.14 9.31,0.55 3.55,3.95 1.92,-0.87 -0.7,-1.47 2.77,-0.74 0.5,2.57 5.88,-4.05 4.7,-0.06 1.81,1.61 1.33,-2.39 2.07,0.94 0.92,-3.56 1.74,0.04 2.57,2.23 -1.17,1.09 1.12,3.35 3.99,0.36 -0.01,4.78 2.08,-1.42 2.45,1.23 3.6,-4.97 6.49,-1.45 3.38,3.5 0.41,6.42 4.04,0.73 1.91,3.82 4.29,0.98 0.61,-1.91 3.5,4.7 2.48,-0.37 v 0 l 4.9,3.44 -2.69,0.34 -1.56,2.1 1.23,1.67 -2.05,0.15 0.15,2.07 1.86,0.46 0.28,5.54 -1.56,3.19 -2.09,-0.76 0.33,4.23 -2.77,4.01 -4.81,3.02 1.37,1.52 -0.94,1.3 -6.1,3.24 -2.74,-1.5 0.02,4.51 -6.28,-2.14 -1.6,4.04 1.14,2.39 -2.85,6.16 1.22,1.09 -4.36,6.11 -0.95,7.16 v 0 l -2.58,0.24 -1.21,4.48 -2.08,-0.86 -1.79,2.83 -2.07,-0.98 1.52,-2.02 -1.72,-0.3 -8.82,1.04 -3.51,2.3 0.9,-1.71 -1.46,-0.12 -2.56,1.18 0.53,1.92 -2.29,2.16 -7.81,-0.51 -4.5,1.88 3.67,3.26 -0.96,2.19 5.52,4.53 -0.89,3.26 3.45,5.55 -0.9,1.63 1.78,0.88 -1.12,13.47 1.48,-0.97 2.76,1.74 -7.58,4.98 -4.56,-2.38 -4.16,1.91 -1.23,-0.74 1.31,-2.91 -7.73,3.27 v 0 l -3.56,0.1 -0.17,2.7 -4.55,-3.84 0.84,2.57 -1.99,-3.06 -5.16,-0.01 -1.94,-3.69 -5.58,-0.97 -6.83,-4.49 -1.84,-7 -11.84,-12.79 -0.41,-4.08 1.72,-0.15 5.51,-8.32 -5.02,-5.23 -6.12,-1.09 3.36,-2.17 -0.21,-5.83 -5.31,1.92 -3.160004,-2.77 -2.33,1.22 -4.7,-1.94 1.63,-2.93 -2.23,-2.2 4.2,-4.51 v 0 l 1.43,-1.77 4.400004,0.97 0.78,-3.38 5.6,1.62 0.26,-1.95 2.46,-0.69 0.68,-7.18 4.51,-2.7 0.76,1.38 3.94,-2.29 8.31,-0.06 1.57,-3.32 6.19,-2.43 -0.24,-1.99 9.63,3.62 3.8,-11.62 5.75,-2.37 -3.52,-16.32 2.32,-3.9 z"
     class="land"
     title="Pays de la Loire"
     id="FR-R" />
  <path
     d="m 266.12125,53.633048 0.59,0.47 v 0 l 0.97,1.44 5.8,-2 4.3,3.19 1.61,-1.27 -0.04,2.8 5.41,2.31 0.37,3.33 2.67,0.67 5.01,-2.49 2.37,1.02 0.22,-1.68 1.09,2.1 3.85,-1.55 1.81,2.32 -4.44,2.64 -0.49,2.84 1.77,1.43 2.59,-3.29 2.15,1.58 1.84,-1.69 -0.08,1.73 5.31,2.07 1.08,-2.89 2.12,0.94 -1.38,4.35 4.59,-2.17 0.26,3.67 6.24,-2.49 6.56,3.06 7.93,-1.63 5.28,1.2 2.2,-2.36 2.91,1.91 4.18,-2.86 6.54,2.08 0.64,1.82 3.93,-2.24 -0.07,3.27 6.75,0.88 v 0 l 3.7,1.32 v 0 l 0.88,5.82 -1.96,5.67 1.82,1.47 -5.13,5.06 -0.46,2.880002 -3.8,0.71 2.26,3.24999 -1.72,13.45001 -4.69,-2.96 -2.83,1.69 -0.18,2.25 -3.05,-0.73 -5.5,2.72 0.36,6.39 3.92,3.41 -5.25,0.54 -0.89,1.95 1.55,2.68 -2.2,2.54 2.72,-0.39 1.13,1.82 -8,10.2 v 0 l -1,0.92 -3.25,-2.16 -0.64,-3.55 -1.61,1.27 -1,-2.56 -1.67,0.62 -4.04,-4.63 0.97,-2.39 -2.16,-3.54 -2.84,-0.69 -0.14,2.01 -3.28,0.89 -0.78,-1.3 -4.85,1.35 -1.81,-1.67 -3.09,2.26 -4.19,-3 -2.05,1.81 -1.29,-2.82 -2.58,1.15 -7.33,-5.05 -3.35,2.23 -0.6,-1.78 -1.99,1 -3.72,-2.96 -8.22,3.01 -5.34,-0.8 -2.1,-3.56 v 0 l 0.23,-2.09 2.02,-0.49 1.29,1.67 0.62,-1.81 -3.73,-8.46 3.17,-6.14 -3.03,-0.01 1.29,-2.19 -2.17,-2.83001 0.04,-3.949992 2.25,-3.24 h -2.59 l 2.5,-4.39 1.52,0.06 -3.07,-7.98 -10.78,-9.83 -0.15,-1.97 -2.96,0.37 v 0 l 6.01,-9.22 6.88,1.21 -6.2,-5.56 0.68,-5.65 z"
     class="land"
     title="Picardie"
     id="FR-S" />
  <path
     d="m 140.13125,321.60305 7.04,3.83 2.14,7.39 -1.85,3.58 -1.58,-4.83 -4.89,-4.34 z m -4.29,-12.52 1.52,1.4 -1.94,0.28 0.8,1.51 3.66,-1.56 -0.51,1.73 2.49,-0.45 4.75,2.76 -2.4,1.19 -9.32,-3.54 -1.17,-2.49 z m 16.37,-3.54 7.73,-3.27 -1.31,2.91 1.23,0.74 4.16,-1.91 4.56,2.38 7.58,-4.98 -2.76,-1.74 -1.48,0.97 1.12,-13.47 -1.78,-0.88 0.9,-1.63 -3.45,-5.55 0.89,-3.26 -5.52,-4.53 0.96,-2.19 -3.67,-3.26 4.5,-1.88 7.81,0.51 2.29,-2.16 -0.53,-1.92 2.56,-1.18 1.46,0.12 -0.9,1.71 3.51,-2.3 8.82,-1.04 1.72,0.3 -1.52,2.02 2.07,0.98 1.79,-2.83 2.08,0.86 1.21,-4.48 2.58,-0.24 v 0 l 1.09,2.73 4.22,0.24 -0.14,3.42 5.17,0.48 0.85,7.33 11.4,-1.61 -1.26,-2.97 5.14,1.97 0.53,4.27 8.64,10.67 -0.1,7.58 9.7,5.64 0.27,3.52 2.54,0.9 -1.4,2.93 v 0 l -2,2.23 -3.37,-0.89 -1.78,4.94 -4.28,-0.5 -4.55,4.55 2.24,4.48 -1.54,0.84 0.17,4.34 4.59,2.41 0.91,2.41 -2.7,2.83 -2.91,-0.54 -1.2,8.32 -2.94,-0.75 0.12,2.5 -3.51,3.09 v 0 l -2.69,4.53 -2.26,0.03 -0.27,4.8 -3.02,3.87 -4.2,2.58 -1.17,-1.02 -2.28,5.31 0.78,4.26 -5.45,5.36 -3.28,-1.23 -1.98,1.44 -2.17,6.1 -1.82,-1.35 -4.28,1.6 -7.15,-4.43 -0.85,1.55 -1.76,-7.92 -5.81,-1.06 -0.93,-2.95 -0.34,1.52 -4.97,-0.42 v 0 l -4.33,-9.68 -6.24,-4.03 -2.22,-3.68 -8.82,-4.13 -0.06,-5.54 4.3,-1 -1.88,-2.99 2.64,-0.34 1.66,-2.9 -1.86,-5.67 2.81,0.02 -3.18,-7.41 -1.87,-0.65 0.98,-1.15 -3.65,-0.39 5.29,-5.76 z"
     class="land"
     title="Poitou-Charentes"
     id="FR-T" />
  <path
     d="m 405.74125,417.16305 0.41,0.46 v 0 l 2.94,2.11 -3.49,4.85 -4.05,-0.68 -0.65,-2.61 2.88,-3.71 v 0 0 0 l 1.88,-0.54 v 0 z m 14.56,69.2 1.33,-4.56 -2.69,-3.76 -3.35,1.86 -7.41,0.22 -3.32,-5.71 -3.15,1.16 -1.36,-2.84 0.69,2.52 -2.05,-1.09 1.37,1.6 -2.3,0.9 3.01,1.7 1.6,-1.39 -3.34,3.01 -10.56,-1.85 0.35,-3.51 -2.38,-1.71 -12.58,-0.46 v 0 l 0.44,-2.25 3.4,-1.65 -0.41,-1.55 0.83,1.11 5.32,-3.08 0.43,-1.32 -1.9,-0.66 2.47,-4.19 5.91,0.67 1.64,-9.12 -1.07,-1.25 8.41,-7.05 -2.41,-4.41 -2.74,-0.91 0.04,-6.1 -2.99,-4.8 v 0 l 0.05,-3.44 5.73,0.97 1.26,4.96 10,-4.63 2.02,1.74 2.42,-2.16 -0.61,4.8 8.42,1.03 1.16,3.41 2.99,2.08 3.59,-0.77 2.5,-3.39 3.18,2.59 -1.47,-1.45 1.79,-1.42 0.01,-4.09 -3.26,-2.27 0.88,-1.58 -5.65,-0.24 -2.61,-2.15 -0.47,-2.91 3.27,-0.7 -1.67,-3.59 6.48,1.61 2.07,-1.79 -2.78,-2.41 1.91,-6.26 6.08,-0.09 1.7,-2.15 -1.31,-0.93 1.17,-3.09 5.15,-0.06 1.21,-1.23 -1.28,-1.36 2.83,-1.8 1.61,1.14 3.22,-2.82 4.71,0.72 1.83,-1.28 2.67,1.11 -1.32,-8.41 -4.96,-1.02 1.71,-6.12 3.64,-0.16 1.31,3.11 3.58,1.07 2.47,-3.36 5,0.02 v 0 l 1.76,5.3 2.94,0.33 0.28,6.37 4.67,3.22 2.99,-0.68 3.6,2.26 -0.94,2 3.16,6.16 -4.73,0.35 0.22,3.35 -4.66,5.23 3.86,5.72 -2.31,0.48 -0.22,3.42 4.95,7.32 7.49,1.99 7.04,4.95 13.58,-3.43 0.88,7.64 -8.66,9.75 1.44,5.18 -7.95,4.02 -0.24,2.08 -0.74,-1.74 -6.58,3.05 -1.46,3.78 0.97,1.99 -1.94,-1.08 -2.48,2.04 -3.15,-0.4 -2.97,6.44 -6.06,0.34 -1.19,4.26 -5.88,4.3 5.09,0.32 -2.09,5.63 -3.55,-1.22 -2.69,2.17 -4.65,0.37 -0.85,3.29 -7.35,-1.62 -1.32,4.99 -2.49,-0.12 1.21,-2.85 -4.28,0.06 -4.09,-2.63 -1.66,1.26 2.76,1.95 -4.96,1.03 -1.47,-1.07 0.63,-2.63 -4.7,-1.61 -0.38,-2.05 -2.68,-0.38 -0.74,1.51 -2.84,-3.09 z"
     class="land"
     title="Provence-Alpes-Côte d'Azur"
     id="FR-U" />
  <path
     d="m 360.43125,307.97305 -0.36,3.68 3.42,0.7 0.69,2 9.06,-1.51 2.81,2.28 4.04,-1.77 1.37,-6.58 4.08,1.69 2.67,-1.57 2.07,1.7 2.56,-2.43 3.26,8.01 7.58,-20.76 4.81,2.07 4.61,-2.1 2.81,3.67 3.26,0.7 v 0 l -0.64,1.99 3.23,1.85 1.11,4.3 0.85,-2.24 2.12,1.94 -0.06,3.07 2.71,-0.25 4.32,-4.56 2.94,2.12 0.48,2.9 5.99,-0.23 8.11,-9.06 v 0 l 4.37,2.95 -2.81,4.91 0.93,2.04 -5.99,2.06 -0.94,5.28 7.09,-0.67 6.93,-5.1 0.59,-1.85 -2.03,0.28 -1.67,-3.62 1.33,-2.89 11.07,-5.82 12.5,1.8 -2.05,4.3 3.9,4.46 -2.81,8.53 4.21,0.78 -0.95,4.55 2.45,-0.97 4.26,6.58 -1.71,4.91 -7.31,2.09 -0.55,6.61 4.49,4.38 3.51,0.7 0.01,7.97 7.76,5.85 -3.2,4.62 1.03,4.21 -10.05,5.16 -0.01,1.86 -5.21,-1.34 -5.67,2.91 v 0 l -5,-0.02 -2.47,3.36 -3.58,-1.07 -1.31,-3.11 -3.64,0.16 -1.71,6.12 4.96,1.02 1.32,8.41 -2.67,-1.11 -1.83,1.28 -4.71,-0.72 -3.22,2.82 -1.61,-1.14 -2.83,1.8 1.28,1.36 -1.21,1.23 -5.15,0.06 -1.17,3.09 1.31,0.93 -1.7,2.15 -6.08,0.09 -1.91,6.26 2.78,2.41 -2.07,1.79 -6.48,-1.61 1.67,3.59 -3.27,0.7 0.47,2.91 2.61,2.15 5.65,0.24 -0.88,1.58 3.26,2.27 -0.01,4.09 -1.79,1.42 1.47,1.45 -3.18,-2.59 -2.5,3.39 -3.59,0.77 -2.99,-2.08 -1.16,-3.41 -8.42,-1.03 0.61,-4.8 -2.42,2.16 -2.02,-1.74 -10,4.63 -1.26,-4.96 -5.73,-0.97 -0.05,3.44 v 0 l -5.98,-4.23 -2.16,0.31 -0.63,3.19 -1.76,-0.42 -0.15,-3.24 -2.73,0.47 -2.87,4.24 -5.29,-4.14 -3.4,1.02 0.87,-4.99 -6.89,-10.95 -1.73,-8.71 v 0 l 2.58,-1.42 1.07,-3.4 3.28,-0.39 0.27,-2.26 5.06,-0.05 2.83,-5.27 3.69,-0.58 -0.72,-2.71 3.46,-1.01 -1.37,-2.34 2.16,-1.67 -1.04,-2.28 3.47,1.46 1.38,-6.1 -2.27,-3.06 v 0 h -3.6 v 0 l 0.9,-1.58 -1.63,-0.96 1.49,-1.09 -5.56,-3.1 -3.66,0.3 -3.06,2.83 -2.09,-0.78 -0.1,1.25 -2.92,-2.83 -1.8,2.47 -0.63,-3.59 3.08,-2.4 0.89,-3.53 -12.29,-17.48 2.72,-5.63 -2.56,-2.62 0.32,-2.34 5.38,-1.76 -2.62,-14.33 z m 45.21,109.06 v 0 l -2.89,0.87 -1.86,3.38 0.65,2.61 4.05,0.68 3.49,-4.85 -2.94,-2.11 z"
     class="land"
     title="Rhône-Alpes"
     id="FR-V" />
  <g
     id="stadiums"
     data-country="france"
     data-circle-radius="8"
     data-circle-colors="#d234c2,#34c2d2" />
</svg>
