<?xml version="1.0" encoding="UTF-8" standalone="no"?>
<?xml-stylesheet type="text/css" href="/styles/home.css"?><!-- https://www.amcharts.com/svg-maps -->

<svg
   xmlns:dc="http://purl.org/dc/elements/1.1/"
   xmlns:cc="http://creativecommons.org/ns#"
   xmlns:rdf="http://www.w3.org/1999/02/22-rdf-syntax-ns#"
   xmlns:svg="http://www.w3.org/2000/svg"
   xmlns="http://www.w3.org/2000/svg"
   xmlns:sodipodi="http://sodipodi.sourceforge.net/DTD/sodipodi-0.dtd"
   xmlns:inkscape="http://www.inkscape.org/namespaces/inkscape"
   version="1.1"
   id="map-france"
   viewBox="0 0 999.99999 999.99999"
   width="1000"
   height="1000"
   class=""
   sodipodi:docname="france2.svg"
   inkscape:version="0.92.4 (5da689c313, 2019-01-14)">
  <metadata
     id="metadata31">
    <rdf:RDF>
      <cc:Work
         rdf:about="">
        <dc:format>image/svg+xml</dc:format>
        <dc:type
           rdf:resource="http://purl.org/dc/dcmitype/StillImage" />
        <dc:title></dc:title>
      </cc:Work>
    </rdf:RDF>
  </metadata>
  <sodipodi:namedview
     pagecolor="#ffffff"
     bordercolor="#666666"
     borderopacity="1"
     objecttolerance="10"
     gridtolerance="10"
     guidetolerance="10"
     inkscape:pageopacity="0"
     inkscape:pageshadow="2"
     inkscape:window-width="1920"
     inkscape:window-height="1017"
     id="namedview29"
     showgrid="false"
     inkscape:zoom="0.35355339"
     inkscape:cx="-92.411389"
     inkscape:cy="850.9451"
     inkscape:window-x="-8"
     inkscape:window-y="-8"
     inkscape:window-maximized="1"
     inkscape:current-layer="map-france" />
  <defs
     id="defs4">
    <style
       type="text/css"
       id="style2">
			.land
			{
				fill: #c2d234;
				fill-opacity: 1;
				stroke:white;
				stroke-opacity: 1;
				stroke-width:0.5;
			}
         .rectangle:hover {
            fill: #bdbdbd;
            cursor: pointer;
            }
		</style>
    <!-- <amcharts:ammap
       projection="mercator"
       leftLongitude="-4.778054"
       topLatitude="51.089515"
       rightLongitude="9.560176"
       bottomLatitude="41.363289" /> -->
    <!-- All areas are listed in the line below. You can use this list in your script. -->
    <!--{id:"FR-A"},{id:"FR-B"},{id:"FR-C"},{id:"FR-D"},{id:"FR-E"},{id:"FR-F"},{id:"FR-G"},{id:"FR-H"},{id:"FR-I"},{id:"FR-J"},{id:"FR-K"},{id:"FR-L"},{id:"FR-M"},{id:"FR-N"},{id:"FR-O"},{id:"FR-P"},{id:"FR-Q"},{id:"FR-R"},{id:"FR-S"},{id:"FR-T"},{id:"FR-U"},{id:"FR-V"}-->
  </defs>
  <rect
     id="background"
     class="rectangle"
     width="1000.0027"
     height="1000.0027"
     y="-0.0027567341"
     x="3.3908549e-07"
     style="fill:#d3d3d3;stroke:#000000;stroke-width:0" />
  <path
     d="m 809.78634,359.38043 5.80888,-2.87086 -1.61172,-4.24753 3.30737,-11.29876 9.28413,-11.43309 -1.20878,-3.72708 9.73742,-17.22516 -1.3431,-3.07233 -7.25269,-1.3263 2.87085,-12.77617 -1.9139,-3.05554 3.08912,0.6044 -4.80157,-2.78692 10.69438,-2.93802 6.01034,-11.31555 -4.33147,-3.37452 5.03659,-7.92426 -3.82781,-5.79209 -7.43738,-2.43434 -5.23806,6.41326 -1.89711,-6.27896 3.07232,-1.94748 -9.78779,-3.27379 -0.75549,-4.21396 6.16143,-2.41756 4.6001,-12.84333 1.96427,7.57169 11.71849,3.3913 2.2161,3.22343 8.79726,-2.65261 5.90961,3.81103 6.9673,-12.82654 v 0 l 10.9462,-1.30952 5.03659,3.42489 4.70083,-2.58545 20.81794,9.73742 -9.95568,17.29232 -8.19286,4.76798 -9.25056,12.22215 -7.42058,25.88811 0.85622,7.03444 -3.59277,2.65261 -8.10892,18.90404 -0.50366,8.99872 3.67671,6.46363 -4.5833,9.63669 -0.6044,15.04265 -2.53508,3.76065 4.98623,12.54113 -5.87603,3.72708 2.19931,1.192 -2.93801,4.66725 -3.97892,-1.32631 1.67887,2.48473 -4.81835,3.99569 -9.97246,1.10806 -5.10376,-2.31684 2.21612,-5.15411 -4.83514,-0.92338 v 0 l -3.24021,-9.25055 -5.6242,-0.95695 2.16573,-12.44041 -11.88637,-6.16144 z"
     class="land"
     title="Alsace"
     id="FR-A"
     inkscape:connector-curvature="0"
     style="fill:#c2d234;fill-opacity:1;stroke:#ffffff;stroke-width:0.83943301;stroke-opacity:1" />
  <path
     d="m 377.26009,573.63732 10.10677,4.24753 -1.6285,4.93586 4.21395,4.24754 3.96212,-4.75119 1.98107,2.14894 8.42791,-0.95695 4.68403,7.90746 5.65778,0.52045 -3.17305,4.95265 12.03746,4.19716 -2.58545,3.07233 4.7344,2.30005 -6.11107,5.6242 -0.65476,4.8855 3.52562,1.79639 -3.49204,4.91907 4.26431,1.54455 -2.36719,2.24969 3.6935,3.22343 7.21912,0.80585 -2.36719,1.94748 4.8855,8.41112 v 0 l -2.63583,1.51098 2.18253,12.40682 -9.87173,8.15929 1.22557,5.45631 -11.66812,6.86656 -3.03874,9.41844 -8.54544,2.85408 5.54027,17.25873 -8.36076,1.99786 -3.15626,-3.49204 -1.88034,6.88335 5.67457,3.45847 -3.07232,8.09212 -3.7103,0.63798 2.83728,4.46578 -7.30307,-0.55402 0.62119,3.13948 -9.43523,8.37754 -4.93586,-5.40596 -20.39823,8.69653 -4.85192,-3.02196 -5.18769,4.75119 -2.06501,-2.78691 -4.96945,3.89497 0.23504,6.29575 -5.57383,-3.17306 1.9307,-2.40078 -3.00517,-2.92122 -4.1468,5.38915 -5.82567,-1.0409 -4.18037,4.0125 3.71029,2.82049 -0.48687,5.60741 -2.30005,0.16789 2.21611,6.81619 -3.84461,2.88765 -2.08179,8.52865 2.85408,3.42488 9.9053,0.0503 5.43953,10.52648 -3.30737,0.85623 -0.10074,4.98623 4.63368,-3.29058 2.11536,9.46881 -5.28842,4.28111 2.01464,2.9548 -3.89497,4.54973 0.36935,4.38183 -3.45846,-0.2854 -5.27164,6.26217 0.90659,5.9264 -7.53811,4.41542 -1.7796,14.7908 v 0 l -5.67457,4.78477 -7.77315,-2.68619 -3.18984,4.68405 -12.55792,-11.24841 -1.54456,-6.78262 -13.19588,1.39346 -11.91995,-6.71546 -1.94749,1.52777 -11.61775,-5.74173 2.66939,-4.75119 -5.10375,2.26647 -0.67155,6.27896 -5.99354,-1.67887 -2.30005,-3.9957 6.3629,-9.58633 -0.45329,-6.54757 -10.20751,-3.42488 -5.10375,3.9957 -1.10806,-5.25485 -7.31985,1.00731 -4.01249,-5.20448 -0.11752,-2.2329 8.4447,-1.42703 4.68403,-4.28111 10.71117,-20.54932 10.42576,-54.26094 2.78691,-32.30139 4.39863,-11.19804 13.21268,2.23289 -4.54972,-5.87602 2.48472,-0.0335 -9.30092,-7.75637 -5.54026,15.69741 -1.05769,-1.74602 7.28628,-82.9192 4.34826,-8.00819 2.33363,-1.71244 -0.40293,6.14464 18.28285,16.38574 7.95783,26.72755 6.63152,6.46363 -5.12054,-11.86959 -3.257,-19.49163 v 0 l 8.34396,0.70512 0.57082,-2.55188 1.56134,4.95266 9.75421,1.7796 2.95481,13.29662 1.42703,-2.60224 12.00389,7.43738 7.18555,-2.68619 3.05554,2.26647 3.64314,-10.24108 3.32416,-2.41757 5.50667,2.06501 9.14982,-8.99873 -1.30951,-7.15196 3.82782,-8.91478 1.96426,1.71244 7.05124,-4.33148 5.07018,-6.49721 0.45329,-8.05855 3.79423,-0.0504 z m -49.57692,228.07395 v 0 l -2.43435,4.11322 2.83728,1.88032 z m -2.80371,12.32287 2.90444,-2.08179 -2.3672,-4.46578 z"
     class="land"
     title="Aquitaine"
     id="FR-B"
     inkscape:connector-curvature="0"
     style="fill:#c2d234;fill-opacity:1;stroke:#ffffff;stroke-width:0.83943301;stroke-opacity:1" />
  <path
     d="m 492.27919,502.55413 5.59063,-9.75421 12.25572,-0.25184 5.43953,-3.45845 -3.10591,-10.69438 4.02928,0.0335 -0.25183,-3.20664 6.3797,-5.57384 3.15626,2.87087 5.94319,-0.88981 5.1877,-6.8162 7.70599,-0.20145 v 0 l 11.73527,12.00389 4.83514,-4.11322 5.42274,3.34094 5.13732,-3.03875 2.51831,6.32933 7.25269,-3.79424 1.94749,-7.37022 2.53509,0.70512 7.78994,15.47915 0.38613,6.41326 6.76584,0.73871 2.09858,4.36504 5.64099,-0.48687 3.45846,3.13948 0.33578,13.53167 -7.35343,5.18769 v 0 l -9.14983,3.6935 4.39863,24.05816 -9.0323,2.9548 -0.55402,3.94534 4.29789,4.39863 -4.56651,9.45201 20.63326,29.32979 -1.49419,5.9264 -5.17091,4.04607 1.05769,6.02713 3.03874,-4.14681 4.8855,4.7512 0.16789,-2.11537 3.52562,1.3263 5.13733,-4.75119 6.14465,-0.52045 9.35128,5.22128 -2.50151,1.82996 2.73656,1.6117 -1.51098,2.65261 v 0 h 6.02713 v 0 l 3.81102,5.12054 -2.31683,10.25788 -5.82567,-2.45114 1.74602,3.82781 -3.62635,2.80371 2.30004,3.92855 -5.80887,1.69565 1.20879,4.54972 -6.19502,0.97375 -4.76798,8.84762 -8.49506,0.0672 -0.43651,3.79423 -5.50668,0.65476 -1.79639,5.70814 -4.33147,2.384 v 0 l -8.24323,-9.2002 -5.35558,0.92338 -2.55188,-5.15411 -2.53509,0.53724 -0.35256,4.8687 -7.70599,1.6285 -7.45417,-16.25142 -5.95998,4.7344 -3.05553,-0.85622 -3.47525,7.16876 -4.21396,-4.02928 -10.42575,25.36766 v 0 l -8.51186,-22.49679 -6.04392,1.81316 -2.5015,-8.37754 -9.21698,9.36808 -3.1059,12.30609 -5.322,6.78261 -9.16661,0.99054 -3.99571,-2.71977 -5.45631,1.7796 -0.87301,3.15627 -5.20449,-7.70599 2.92123,-8.98194 -5.60741,-8.31038 -2.06501,-10.02284 v 0 l 5.67457,-2.5015 -3.08912,-5.75852 5.1877,-2.18253 0.4533,-5.40594 3.67672,-2.8037 -2.6694,-5.54026 11.55059,-11.38271 -0.77228,-7.43738 9.2002,4.14679 3.32414,-2.18252 -2.83728,-2.68619 2.11537,-13.39735 -3.92854,-4.1468 4.21396,-4.5833 0.1343,-6.76583 -9.43523,-11.46665 11.73528,-8.81405 0.53723,-4.2979 3.29058,-1.52776 -0.68833,-6.29576 -8.32718,-24.57859 -12.55791,-6.34612 2.19931,-2.92122 -3.24021,-0.92338 z"
     class="land"
     title="Auvergne"
     id="FR-C"
     inkscape:connector-curvature="0"
     style="fill:#c2d234;fill-opacity:1;stroke:#ffffff;stroke-width:0.83943301;stroke-opacity:1" />
  <path
     d="m 545.7175,303.42383 -2.23289,5.67457 2.23289,5.7753 -7.67241,9.0323 v 0 l 6.44684,3.10589 1.41024,6.24539 5.22128,4.51615 0.23504,5.92639 -8.27681,6.91694 1.12484,12.35644 -12.10462,3.05555 -0.26862,4.18037 5.45631,3.62635 3.50883,11.60097 -8.94836,3.22341 5.75852,10.27467 -4.39863,10.22429 7.94103,7.8571 2.5183,20.17997 4.18038,4.13 -3.24021,23.28588 v 0 l 11.73527,12.00389 4.83514,-4.11322 5.42274,3.34094 5.13732,-3.03875 2.51831,6.32933 7.25269,-3.79424 1.94749,-7.37022 2.53509,0.70512 7.78994,15.47915 0.38613,6.41326 6.76584,0.73871 2.09858,4.36504 5.64099,-0.48687 3.45846,3.13948 0.33578,13.53167 -7.35343,5.18769 v 0 l -0.6044,6.17823 5.74172,1.17521 1.15842,3.35773 15.21053,-2.53509 4.7176,3.82782 6.78263,-2.9716 2.30005,-11.03015 6.84977,2.83729 4.49935,-2.65261 3.47526,2.85406 4.29789,-4.07964 5.45632,13.44772 12.74259,-34.85326 8.07535,3.47526 7.73957,-3.52563 4.71762,6.16145 5.4731,1.1752 v 0 l 7.15197,-3.08911 -4.11323,-8.61258 5.79209,-7.62206 -5.64098,-9.3177 2.13215,-4.11323 -4.44899,-4.56651 9.65348,-2.55188 -4.63367,-5.27163 -4.86871,0.50365 -2.45115,-5.30522 -2.08179,1.10806 -0.67155,-5.03659 4.449,-3.54242 -2.40078,-3.6935 7.05124,-3.37452 3.77744,-6.36291 5.57384,-16.20105 -3.47525,-1.35988 1.02411,-7.87389 -3.59278,0.0335 0.4533,-5.94319 -5.00302,-1.44382 9.08266,-9.35129 -3.89496,-7.6892 -4.80157,2.56866 v 0 l -4.56651,-0.45329 -3.82781,3.37452 0.53724,-4.68403 -5.97677,-3.08912 0.35256,-2.90444 -4.24753,3.49204 -6.2118,-6.61473 -4.19717,2.5183 -0.67155,-7.85709 -3.02195,-0.53724 5.33879,-4.23074 -6.21181,-11.73528 -4.98622,1.27594 2.35041,-3.27378 -5.62421,-2.28327 0.5876,-4.51615 -14.9419,-2.40077 -2.97159,2.35041 1.29272,3.9957 -16.73829,0.70513 -1.51098,3.77745 -3.35773,-0.53725 -1.27594,-4.34825 -1.67886,3.17305 -2.45116,-1.88033 -3.9789,3.49204 -3.49205,-2.04821 -1.07447,2.13216 -10.44254,-0.41972 1.29272,-5.23806 -1.30951,-2.26647 -2.98839,1.93069 1.41025,-3.32415 -5.6242,-10.69437 -3.59277,-1.52778 0.60439,-3.47525 -5.65778,2.68619 -2.56867,-5.20448 -3.59277,0.55403 2.78692,-8.78048 -8.04177,-10.22429 -5.27164,0.82264 -0.97374,-3.30737 z"
     class="land"
     title="Bourgogne"
     id="FR-D"
     inkscape:connector-curvature="0"
     style="fill:#c2d234;fill-opacity:1;stroke:#ffffff;stroke-width:0.83943301;stroke-opacity:1" />
  <path
     d="m 106.97944,404.15579 12.97763,7.52132 -0.94017,2.85407 -11.38271,-1.67886 z m 1.6117,-154.15348 0.35257,3.74387 9.35128,-3.79423 v 5.10375 l 5.13733,-0.31898 -2.2161,4.53293 8.00819,2.58545 -1.15842,3.65994 8.93157,7.58847 -0.33578,5.6242 7.53811,4.1468 -1.86354,3.27378 1.96428,-0.82264 2.70297,4.70083 -0.60439,-4.70083 3.8446,1.10806 5.07018,-8.17609 5.64099,-2.40077 -1.04089,-2.36721 3.57597,-0.80585 1.20879,2.46794 7.06803,-6.24539 2.43435,2.13216 -3.72708,5.08697 6.514,-2.55188 1.32631,9.90531 1.96428,-6.37969 1.1752,3.64314 1.99785,-4.39863 1.81318,1.82997 -1.91391,-3.44168 7.28628,-0.57082 5.22127,9.98926 -0.87301,5.10375 3.25699,-2.61903 -3.35772,-6.69868 2.73655,1.46061 -0.94017,-2.23289 -5.03659,-4.56651 2.90444,-5.13733 10.32502,-3.03875 -1.74602,7.80673 6.29575,3.57598 14.33751,-3.18984 v 0 l 5.80888,15.26089 4.68404,2.9548 4.70082,-0.83943 6.98408,-7.87388 12.80975,3.74387 v 0 l 1.72924,18.78651 -3.89498,6.54758 5.90961,27.39909 -9.65348,3.97892 -6.37969,19.50842 -16.16747,-6.0775 0.40292,3.34095 -10.39219,4.07964 -2.63581,5.57383 -13.95137,0.10074 -6.61474,3.8446 -1.27593,-2.31684 -7.5717,4.53294 -1.14162,12.05426 -4.13001,1.15842 -0.43651,3.27378 -9.40165,-2.71975 -1.30951,5.67456 -7.38702,-1.6285 -2.40078,2.97159 v 0 l -2.61903,-0.20146 -0.4365,-4.33148 4.23074,-0.63796 -4.78477,-2.6694 -21.3216,3.91176 -14.58934,-10.89584 0.33576,2.56867 -7.20233,-0.21826 -0.31898,5.74172 3.35774,4.63367 -3.59278,-0.45329 -1.27594,-12.5915 -9.51917,-9.26734 -5.187697,-0.0672 -0.369351,-2.56867 -6.111072,1.54456 -5.137331,-7.01766 -13.968165,-4.26431 -8.864413,1.47739 -6.362902,-11.56738 -2.988381,1.98106 1.007319,2.98838 -11.970315,-0.23505 -3.12269,6.24539 -12.272511,0.0168 0.654758,-9.48559 -4.38184,-7.73958 -6.245382,-4.44899 -15.7477634,-3.50884 1.5613454,-2.6526 20.767573,-4.41541 7.773149,1.84674 2.63582,-4.23074 -3.37452,-7.72279 -10.308238,-3.65992 -6.631521,7.16876 1.074474,-8.20966 -5.456314,-0.55402 -0.470083,-2.63583 4.079645,-0.26861 -0.117521,-5.07017 2.736552,-1.07448 -0.218252,5.95998 2.501509,-2.85408 -0.218252,3.18984 3.542408,-1.64528 3.727082,2.28326 6.346113,-2.41757 3.240211,1.84675 2.719764,-3.50883 -8.041768,-0.1343 2.400778,-1.6285 -1.074474,-3.34095 -3.827814,3.77744 -5.943186,-0.0168 4.046067,-5.9264 -1.645289,-1.30951 -12.809748,6.01034 -5.1373298,-1.7796 -6.41326827,2.71976 -0.28540722,-19.49163 3.27378869,-4.26432 8.3271756,-2.13216 4.767979,-6.3629 9.821366,-0.0504 -2.467932,-1.81317 6.312536,-2.384 3.492041,1.32631 0.01679,3.257 7.017659,-1.91391 -1.897118,-0.72191 2.518299,-2.97159 8.864413,1.10805 3.592773,-5.38916 2.585454,0.0168 -0.11752,5.60741 2.803705,1.19199 0.419717,-3.79423 0.134309,2.60224 5.38916,1.42703 1.578134,-6.19501 12.507553,2.46793 -1.024109,3.91176 2.467933,-2.88765 2.870861,1.67887 2.333623,-7.89067 -2.669397,-6.44685 2.249681,1.52777 3.50883,-5.0366 7.403799,4.13001 z"
     class="land"
     title="Bretagne"
     id="FR-E"
     inkscape:connector-curvature="0"
     style="fill:#c2d234;fill-opacity:1;stroke:#ffffff;stroke-width:0.83943301;stroke-opacity:1" />
  <path
     d="m 438.00146,242.36347 6.76582,10.67759 0.25183,18.40037 12.87691,11.71849 1.00732,9.11624 4.75119,2.75334 4.21395,-1.74602 -0.16788,5.33879 3.45847,0.47009 0.73869,3.97891 -1.09127,7.82352 13.31341,-1.09127 2.75335,-4.76798 2.93801,4.76798 5.75851,-3.60956 5.3388,1.81318 1.35988,5.84245 6.514,3.52561 0.0335,6.11108 -5.15412,4.49936 18.24927,0.0504 3.39131,-2.28325 -1.24236,-2.2329 4.36505,-0.20145 1.42704,4.04605 8.19287,-3.45845 v 0 l 6.44684,3.10589 1.41024,6.24539 5.22128,4.51615 0.23504,5.92639 -8.27681,6.91694 1.12484,12.35644 -12.10462,3.05555 -0.26862,4.18037 5.45631,3.62635 3.50883,11.60097 -8.94836,3.22341 5.75852,10.27467 -4.39863,10.22429 7.94103,7.8571 2.5183,20.17997 4.18038,4.13 -3.24021,23.28588 v 0 l -7.70599,0.20145 -5.1877,6.8162 -5.94319,0.88981 -3.15626,-2.87087 -6.3797,5.57384 0.25183,3.20664 -4.02928,-0.0335 3.10591,10.69438 -5.43953,3.45845 -12.25572,0.25184 -5.59063,9.75421 v 0 l -13.38056,0.99053 -7.63884,-3.34095 -9.73742,1.74602 -3.91176,-3.10589 -3.76066,6.68188 -3.02196,-2.83728 -3.97891,3.05553 -1.3263,-3.35773 -4.49936,2.90444 -1.32631,-3.44167 -7.70599,8.12571 -4.28111,-5.40595 -3.50883,2.85407 -8.74689,-1.35988 v 0 0 0 0 0 l 2.35041,-4.91908 -4.26432,-1.49419 -0.4533,-5.90961 -16.285,-9.48559 0.16789,-12.72581 -14.50541,-17.89671 -0.88979,-7.18555 -8.62938,-3.29057 2.13217,4.98623 -19.13907,2.70297 -1.42704,-12.30609 -8.67974,-0.80585 0.23504,-5.74172 -7.08481,-0.40293 -1.82997,-4.5833 v 0 l 1.59493,-12.02069 7.31985,-10.25786 -2.04822,-1.81318 4.78477,-10.3586 -1.9139,-4.0125 2.68618,-6.78261 10.56007,3.59277 -0.0335,-7.5549 4.60009,2.51831 10.2243,-5.43953 1.59492,-2.18253 -2.31684,-2.55187 8.07535,-5.07018 4.66725,-6.73226 -0.57082,-7.08481 3.52563,1.27594 2.61903,-5.35558 -0.47009,-9.30092 -3.13948,-0.77228 -0.25182,-3.47526 3.44166,-0.25182 -2.06499,-2.78692 2.61902,-3.52562 4.51615,-0.57081 -8.22644,-5.7753 v 0 l 2.26647,-2.01464 -4.19716,-11.36592 10.03961,-5.27165 4.31469,-7.08481 -2.78692,-3.79423 2.13217,-4.93587 -10.27467,-9.28413 -0.23504,-6.09428 v 0 l 4.24753,-4.78477 9.28413,-1.04089 3.74387,-3.47526 3.62635,1.24236 0.43651,-4.51615 14.69008,2.97159 2.78692,-2.09858 -0.72192,-5.62421 6.84977,-3.96212 -0.85622,-5.45631 z"
     class="land"
     title="Centre"
     id="FR-F"
     inkscape:connector-curvature="0"
     style="fill:#c2d234;fill-opacity:1;stroke:#ffffff;stroke-width:0.83943301;stroke-opacity:1" />
  <path
     d="m 670.35652,112.3017 4.23074,1.89712 -5.32201,7.77315 1.47741,2.92123 -3.59278,7.48774 6.88335,6.39648 -2.87086,4.61688 0.31898,7.94104 10.02284,-0.75549 6.90013,4.01248 5.01981,7.47097 7.26949,-0.26863 4.26433,4.49936 -1.22558,4.58331 5.70814,-0.5708 v 0 l -9.30091,8.00819 -10.44255,-5.40596 -3.72708,9.80459 3.62635,4.56652 -2.38399,5.90961 1.67886,2.60224 -3.29057,1.15842 -0.23504,9.93889 -6.93372,3.94533 2.85408,2.98838 -3.67672,2.56866 4.53293,12.33967 -2.71976,5.00302 4.95265,-0.21825 -2.92122,4.21395 3.13948,1.05768 -7.35343,6.21181 0.25183,7.67242 -3.257,4.63367 8.32717,5.97676 -0.75549,13.31341 4.06286,-1.7796 0.97374,3.82782 3.34094,0.0503 6.46364,7.05124 8.09213,1.96427 9.78779,9.04909 -5.27164,3.34095 3.37452,1.24235 -1.05768,5.01981 6.81619,-1.72922 4.48257,7.72277 1.57814,-1.86354 2.93802,2.50152 -0.85623,2.73654 6.16144,4.58331 -3.42489,1.94748 -0.68833,7.4038 -2.97159,2.384 10.37539,5.38915 0.75548,8.39434 4.14681,-2.40078 2.63582,5.15411 v 0 l -3.96212,7.62206 -4.68405,-0.7555 -1.3263,4.07966 -3.52561,-0.084 -0.0168,14.0689 -6.54757,1.29272 -2.04822,-3.64313 -2.92123,3.55918 -8.02498,-0.15109 -2.65261,7.20233 v 0 l -4.56651,-0.45329 -3.82781,3.37452 0.53724,-4.68403 -5.97677,-3.08912 0.35256,-2.90444 -4.24753,3.49204 -6.2118,-6.61473 -4.19717,2.5183 -0.67155,-7.85709 -3.02195,-0.53724 5.33879,-4.23074 -2.68618,-6.07749 v 0 0 0 l -3.52563,-5.65779 -4.98622,1.27594 2.35041,-3.27378 -5.62421,-2.28327 0.5876,-4.51615 -6.48041,-1.86354 -8.46149,-0.53723 -2.97159,2.35041 1.29272,3.9957 -16.73829,0.70513 -1.51098,3.77745 -3.35773,-0.53725 -1.27594,-4.34825 -1.67886,3.17305 -2.45116,-1.88033 -3.9789,3.49204 -3.49205,-2.04821 -1.07447,2.13216 -10.44254,-0.41972 1.29272,-5.23806 -1.30951,-2.26647 -2.98839,1.93069 1.41025,-3.32415 -5.6242,-10.69437 -3.59277,-1.52778 0.60439,-3.47525 -5.65778,2.68619 -2.56867,-5.20448 -3.59277,0.55403 2.78692,-8.78048 -8.04177,-10.22429 -5.27164,0.82264 -0.97374,-3.30737 v 0 l -2.19932,-9.41844 3.79424,-1.12483 -2.18252,-3.92855 5.1877,-1.44383 -1.12485,-3.02196 6.61474,-4.83512 -1.76281,-3.1227 -5.79209,1.17521 1.19199,-10.8119 -5.13733,-2.13216 3.4081,-3.35773 -2.78692,-1.93069 5.84246,-0.55403 -0.13432,-4.02928 v 0 l 13.43093,-17.12443 -1.88032,-3.07233 -4.56652,0.65476 3.6935,-4.26432 -2.60224,-4.49937 1.4942,-3.27378 8.79726,-0.8898 -6.58116,-5.74172 -0.60439,-10.72795 9.25054,-4.56652 5.12055,1.22557 0.30219,-3.77745 4.75119,-2.83728 7.87389,4.96944 2.88765,-22.58076 -3.79424,-5.4563 6.37969,-1.19199 0.78907,-4.83515 8.61258,-8.49507 -3.05553,-2.46793 3.29057,-9.51917 -1.4774,-9.771 v 0 l 5.42274,-1.12485 9.50238,3.4249 17.15801,-6.27896 0.65475,-10.76154 z"
     class="land"
     title="Champagne-Ardenne"
     id="FR-G"
     inkscape:connector-curvature="0"
     style="fill:#c2d234;fill-opacity:1;stroke:#ffffff;stroke-width:0.83943301;stroke-opacity:1" />
  <path
     d="m 944.96863,969.07742 2.03143,-4.49936 7.77315,-4.28111 -9.36807,-1.12484 -0.47009,-3.8446 -8.09213,0.0672 5.00302,-3.35773 -1.29273,-2.40078 4.16359,-0.873 -1.46062,-3.1227 3.64315,-4.70083 -3.82782,-3.5424 -9.78778,3.6935 -1.0577,-6.6651 3.89498,-0.31898 0.82264,-4.09643 6.07749,-3.47526 -3.30736,-5.85923 -2.83728,1.10804 -7.10161,-4.21395 2.50151,-2.11537 -3.72708,-6.49721 10.79511,-2.75334 -6.31254,-3.64314 0.73871,-4.1468 -4.33148,1.49419 -0.57081,-3.87818 7.72278,-3.77745 1.72923,-5.0366 -2.16574,-0.90658 4.98623,-4.39863 0.38615,-5.60742 4.39862,2.93802 0.92338,-4.60009 14.85796,-3.65994 7.63884,-8.52863 6.76584,-0.35256 5.35558,5.54026 3.20663,-5.60742 -2.46793,-9.1834 3.60956,-8.61258 -1.4774,-6.63152 5.79208,-1.64529 2.82051,2.3672 2.04821,17.02371 -3.27379,12.45718 6.04392,11.9871 1.81318,33.15761 -0.65477,8.61258 -9.56953,14.01853 -1.76282,28.64146 -7.50452,4.56651 0.62118,1.98106 2.13216,-2.78691 3.55919,0.99053 -6.6483,5.9264 0.33577,6.14465 -4.83514,4.7176 3.50883,-0.0335 -5.55704,4.58331 -6.02713,-2.77013 1.89712,-4.02928 -3.52562,-0.60439 0.65475,-3.40811 -2.78691,2.26648 -2.85407,-3.08912 -5.45631,0.084 -5.40596,-2.65261 0.77228,-2.70297 -4.63367,-0.82265 z"
     class="land"
     title="Corse"
     id="FR-H"
     inkscape:connector-curvature="0"
     style="fill:#c2d234;fill-opacity:1;stroke:#ffffff;stroke-width:0.83943301;stroke-opacity:1" />
  <path
     d="m 743.5215,348.58532 3.37452,-5.33879 1.15842,4.31468 6.29574,-7.01765 6.64831,-1.64529 4.80156,9.06588 12.89369,-2.9716 6.19501,7.78994 8.71332,-6.26217 16.18427,12.86011 v 0 l 2.09858,4.07964 11.88637,6.16144 -2.16573,12.44041 5.6242,0.95695 3.24021,9.25055 v 0 l -10.42576,0.92338 1.30951,4.16358 -4.29789,2.13217 -4.26432,8.22644 9.56953,-2.06501 2.73656,4.01249 -7.84031,4.78477 0.85622,4.56652 -17.59451,16.4193 1.14163,3.17306 -20.04566,12.50755 2.24967,3.97892 -0.82264,11.56738 -23.82311,20.07924 3.22343,3.17306 -6.41327,13.028 v 0 l -13.59882,15.22731 -10.0564,0.38614 -0.80586,-4.86871 -4.93587,-3.55919 -7.2527,7.65562 -4.54972,0.41972 0.11752,-5.15412 -3.5592,-3.257 -1.42703,3.76066 -1.86354,-7.21912 -5.42274,-3.10591 1.07447,-3.34094 v 0 l 7.15197,-3.08911 -4.11323,-8.61258 5.79209,-7.62206 -5.64098,-9.3177 2.13215,-4.11323 -4.44899,-4.56651 9.65348,-2.55188 -4.63367,-5.27163 -4.86871,0.50365 -2.45115,-5.30522 -2.08179,1.10806 -0.67155,-5.03659 4.449,-3.54242 -2.40078,-3.6935 7.05124,-3.37452 3.77744,-6.36291 5.57384,-16.20105 -3.47525,-1.35988 1.02411,-7.87389 -3.59278,0.0335 0.4533,-5.94319 -5.00302,-1.44382 9.08266,-9.35129 -3.89496,-7.6892 -4.80157,2.56866 v 0 l 2.65261,-7.20233 8.02498,0.15109 2.92123,-3.55918 2.04822,3.64313 6.54757,-1.29272 0.0168,-14.0689 3.52561,0.084 1.3263,-4.07966 4.68405,0.7555 z"
     class="land"
     title="Franche-Comté"
     id="FR-I"
     inkscape:connector-curvature="0"
     style="fill:#c2d234;fill-opacity:1;stroke:#ffffff;stroke-width:0.83943301;stroke-opacity:1" />
  <path
     d="m 452.08714,211.48912 3.54241,5.97677 8.96514,1.35988 13.7835,-5.05339 6.24538,4.96945 3.34094,-1.67887 1.00732,2.98838 5.6242,-3.74387 12.30608,8.47828 4.33149,-1.9307 2.16573,4.7344 3.44167,-3.03874 7.05124,5.03659 5.17091,-3.81103 3.03875,2.80371 8.15929,-2.24968 1.30951,2.16574 5.50669,-1.49419 0.23504,-3.37452 4.76798,1.15842 3.62634,5.94318 -1.62849,4.01249 6.76582,7.77314 2.80371,-1.04088 1.67887,4.29789 2.68618,-2.14895 1.07447,5.95997 5.43953,3.62636 1.67886,-1.54456 v 0 l 0.13432,4.02928 -5.84246,0.55403 2.78692,1.93069 -3.4081,3.35773 5.13733,2.13216 -1.19199,10.8119 5.79209,-1.17521 1.76281,3.1227 -6.61474,4.83512 1.12485,3.02196 -5.1877,1.44383 2.18252,3.92855 -3.79424,1.12483 2.19932,9.41844 v 0 l -25.56913,3.22343 -2.23289,5.67457 2.23289,5.7753 -7.67241,9.0323 v 0 l -8.19287,3.45845 -1.42704,-4.04605 -4.36505,0.20145 1.24236,2.2329 -3.39131,2.28325 -18.24927,-0.0503 5.15412,-4.49936 -0.0335,-6.11108 -6.514,-3.52561 -1.35988,-5.84245 -5.3388,-1.81318 -5.75851,3.60956 -2.93801,-4.76798 -2.75335,4.76798 -13.31341,1.09127 1.09127,-7.82352 -0.73869,-3.97891 -3.45847,-0.47009 0.16788,-5.33879 -4.21395,1.74602 -4.75119,-2.75334 -1.00732,-9.11624 -12.87691,-11.71849 -0.25182,-18.40037 -6.76583,-10.67759 v 0 l 1.24236,-4.04607 -3.39132,0.28541 -1.54455,-8.22644 2.80371,0.3022 1.4774,-3.69351 h 7.8403 z"
     class="land"
     title="Île-de-France"
     id="FR-J"
     inkscape:connector-curvature="0"
     style="fill:#c2d234;fill-opacity:1;stroke:#ffffff;stroke-width:0.83943301;stroke-opacity:1" />
  <path
     d="m 541.16778,678.63359 10.42575,-25.36766 4.19717,4.02928 3.49204,-7.15197 3.05553,0.85622 5.94319,-4.7344 7.47096,16.25143 7.70599,-1.61172 0.33577,-4.86871 2.53509,-0.53724 2.56867,5.13733 5.35558,-0.90658 8.24323,9.1834 v 0 l 2.90444,14.62292 11.56739,18.38358 -1.46062,8.37754 5.70814,-1.71244 8.88121,6.9505 4.81834,-7.11839 4.58331,-0.78907 0.25183,5.43953 2.9548,0.70512 1.05768,-5.35558 3.62636,-0.52044 10.03961,7.1016 v 0 l 5.01981,8.05855 -0.0672,10.24108 4.60009,1.52778 4.04607,7.40379 -14.11926,11.836 1.79638,2.09859 -2.75334,15.31126 -9.92209,-1.12484 -4.14681,7.03444 3.18986,1.10806 -0.72192,2.2161 -8.93156,5.17091 -1.39346,-1.86355 0.68833,2.60225 -5.70815,2.77013 -0.7387,3.77745 v 0 l -6.6483,-2.46793 -1.94749,-6.39648 -9.40165,0.70512 -22.88294,15.52951 -9.56954,11.08051 -12.12141,-2.08179 -10.57686,11.13088 -9.48559,19.74347 -1.0409,24.67933 1.27594,15.44557 6.53078,2.26646 2.30005,7.63884 -6.16144,0.87302 -3.17305,-4.48258 -6.514,-0.83943 -11.76885,6.59795 -7.21913,0.67154 -0.18467,6.02713 -6.63153,-1.66208 -3.24021,2.40078 -6.78261,-5.69135 -12.27252,-4.19717 -7.06802,1.35988 -9.68706,7.08481 -5.74171,-9.85494 -14.33752,-3.97891 0.65476,-5.72493 3.35773,-1.74602 v 0 l 13.04479,-4.06286 1.69565,-4.18037 12.47397,-1.88033 -6.39647,-6.64832 -5.62421,1.69566 -6.32932,-2.31684 -3.79424,-6.19501 1.12484,-2.75334 7.75637,-1.71245 -0.43651,-5.60741 -3.20664,-1.20879 5.07018,-1.93069 -4.51615,-8.41112 0.73871,-5.85924 -17.00692,-7.4038 0.95695,-14.37109 6.3629,0.0335 -0.83943,-4.90229 3.52562,-4.78476 2.95481,4.44899 9.92209,-3.81102 2.45114,3.81102 6.8162,-1.98106 3.08912,3.12269 3.02196,-7.2527 9.63669,4.16359 14.72365,-1.39346 4.21396,-3.74387 0.4365,-4.39863 -4.09644,-4.85192 2.09859,-8.98194 7.62205,4.39863 16.01638,-9.08266 5.28844,1.54455 0.20145,-13.64917 10.44255,2.01463 3.57599,-7.77315 5.50667,0.0503 1.00732,-5.32199 5.79209,-4.78478 -3.6935,-5.69135 -8.79726,-3.39131 4.1468,-1.46061 2.83729,-8.96515 -10.99658,0.99053 1.81317,-3.92854 -4.83513,-1.39346 -0.62118,-2.9548 -2.18252,1.24235 1.64529,-17.07406 -5.43953,-6.27896 1.3263,-5.48989 z m -68.34664,210.47944 -1.67887,-3.74387 -2.03142,2.75334 z"
     class="land"
     title="Languedoc-Roussillon"
     id="FR-K"
     inkscape:connector-curvature="0"
     style="fill:#c2d234;fill-opacity:1;stroke:#ffffff;stroke-width:0.83943301;stroke-opacity:1" />
  <path
     d="m 415.45429,506.06296 8.74689,1.35988 3.50883,-2.85407 4.28111,5.40595 7.70599,-8.12571 1.32631,3.44167 4.49936,-2.90444 1.3263,3.35773 3.97891,-3.05553 3.02196,2.83728 3.76066,-6.68188 3.91176,3.10589 9.73742,-1.74602 7.63884,3.34095 13.38056,-0.99053 v 0 l 0.48688,3.86139 3.24021,0.92338 -2.19931,2.92122 12.55791,6.34612 8.32718,24.57859 0.68833,6.29576 -3.29058,1.52776 -0.53723,4.2979 -11.73528,8.81405 9.43523,11.46665 -0.1343,6.76583 -4.21396,4.5833 3.92854,4.1468 -2.11537,13.39735 2.83728,2.68619 -3.32414,2.18252 -9.2002,-4.14679 0.77228,7.43738 -11.55059,11.38271 2.6694,5.54026 -3.67672,2.8037 -0.4533,5.40594 -5.1877,2.18253 3.08912,5.75852 -5.67457,2.5015 v 0 l -7.89067,2.31684 -2.77013,-2.48472 -7.387,5.38916 -10.84548,-10.39218 -7.5549,-1.82997 -6.27896,2.65261 v 0 l -4.8855,-8.41112 2.3672,-1.94748 -7.21912,-0.80585 -3.71029,-3.20664 2.38399,-2.26648 -4.28111,-1.54455 3.49204,-4.90229 -3.52562,-1.81317 0.65476,-4.8855 6.11107,-5.6242 -4.7344,-2.30005 2.56866,-3.07233 -12.03747,-4.19716 3.17306,-4.95265 -5.64099,-0.52045 -4.70082,-7.90746 -8.42791,0.95695 -1.98106,-2.14894 -3.94534,4.75119 -4.23074,-4.24754 1.6285,-4.93586 -10.08998,-4.24753 v 0 l 5.89281,-5.1877 -0.21824,-4.18038 4.93586,1.25915 2.01463,-13.96816 4.8855,0.88979 4.53295,-4.75118 -1.54456,-4.04607 -7.68921,-4.04607 -0.2854,-7.28628 2.58545,-1.41024 -3.76067,-7.52133 7.63885,-7.63884 7.18554,0.83944 2.98839,-8.2936 5.67457,1.51098 z"
     class="land"
     title="Limousin"
     id="FR-L"
     inkscape:connector-curvature="0"
     style="fill:#c2d234;fill-opacity:1;stroke:#ffffff;stroke-width:0.83943301;stroke-opacity:1" />
  <path
     d="m 711.01865,172.00218 3.77744,11.01338 5.84247,-3.44168 3.82781,2.43436 2.14894,-4.5833 7.21913,1.20878 1.89712,-2.60226 6.66509,6.90015 6.79942,0.57082 1.07447,4.54972 8.24323,-0.26861 1.88033,-4.23074 7.78994,-2.2329 8.76368,5.7753 4.46578,-1.76281 8.91478,5.87603 -1.1752,2.03143 4.26432,3.91176 -2.35042,1.98106 7.16876,7.15197 4.81835,12.30608 6.74904,1.17521 0.18467,-6.32932 6.98409,-1.07447 6.63152,3.42488 1.20878,8.1593 3.32416,-4.41543 4.02927,3.76066 9.53597,0.58761 4.95264,-5.99356 5.55705,-1.29272 -0.62118,2.01464 4.06286,-0.45329 2.38398,7.57168 7.58849,4.61688 v 0 l -6.9673,12.82654 -5.90961,-3.81103 -8.79726,2.65261 -2.2161,-3.22343 -11.71849,-3.3913 -1.96427,-7.57169 -4.6001,12.84333 -6.16143,2.41756 0.75549,4.21396 9.78779,3.27379 -3.07232,1.94748 1.89711,6.27896 5.23806,-6.41326 7.43738,2.43434 3.82781,5.79209 -5.03659,7.92426 4.33147,3.37452 -6.01034,11.31555 -10.69438,2.93802 4.80157,2.78692 -3.08912,-0.6044 1.9139,3.05554 -2.87085,12.77617 7.25269,1.3263 1.3431,3.07233 -9.73742,17.22516 1.20878,3.72708 -9.28413,11.43309 -3.30737,11.29876 1.61172,4.24753 -5.80888,2.87086 v 0 l -16.18427,-12.86011 -8.71332,6.26217 -6.19501,-7.78994 -12.89369,2.9716 -4.80156,-9.06588 -6.64831,1.64529 -6.29574,7.01765 -1.15842,-4.31468 -3.37452,5.33879 v 0 l -2.63582,-5.15411 -4.14681,2.40078 -0.75548,-8.39434 -10.37539,-5.38915 2.97159,-2.384 0.68833,-7.4038 3.42489,-1.94748 -6.16144,-4.58331 0.85623,-2.73654 -2.93802,-2.50152 -1.57814,1.86354 -4.48257,-7.72277 -6.81619,1.72922 1.05768,-5.01981 -3.37452,-1.24235 5.27164,-3.34095 -9.78779,-9.04909 -8.09213,-1.96427 -6.46364,-7.05124 -3.34094,-0.0503 -0.97374,-3.82782 -4.06286,1.7796 0.75549,-13.31341 -8.32717,-5.97676 3.257,-4.63367 -0.25183,-7.67242 7.35343,-6.21181 -3.13948,-1.05768 2.92122,-4.21395 -4.95265,0.21825 2.71976,-5.00302 -4.53293,-12.33967 3.67672,-2.56866 -2.85408,-2.98838 6.93372,-3.94533 0.23504,-9.93889 3.29057,-1.15842 -1.67886,-2.60224 2.38399,-5.90961 -3.62635,-4.56652 3.72708,-9.80459 10.44255,5.40596 9.30091,-8.00819 v 0 z"
     class="land"
     title="Lorraine"
     id="FR-M"
     inkscape:connector-curvature="0"
     style="fill:#c2d234;fill-opacity:1;stroke:#ffffff;stroke-width:0.83943301;stroke-opacity:1" />
  <path
     d="m 325.63495,807.45299 2.13216,4.49936 -2.90444,2.08179 z m 1.29273,-0.0335 0.084,-6.02713 z m 107.36348,-165.55298 6.27896,-2.65261 7.5549,1.82997 10.84548,10.39218 7.387,-5.38916 2.77013,2.48472 7.89067,-2.31684 v 0 l 2.06501,10.02284 5.60741,8.29359 -2.92123,8.99873 5.20449,7.6892 0.88979,-3.15626 5.45632,-1.77961 3.9957,2.71977 9.16661,-0.99053 5.32201,-6.76583 3.1059,-12.30609 9.23376,-9.36808 2.50152,8.37754 6.04391,-1.81316 8.51185,22.49679 v 0 l 7.23591,8.31039 -1.3263,5.48989 5.43953,6.27896 -1.64529,17.07408 2.18252,-1.24237 0.62119,2.9548 4.83512,1.39346 -1.81316,3.92855 10.99656,-0.99053 -2.83728,8.96515 -4.1468,1.4606 8.79726,3.39132 3.69351,5.69136 -5.79209,4.78476 -1.00733,5.32201 -5.50667,-0.0503 -3.57599,7.77315 -10.44255,-2.01464 -0.20146,13.64918 -5.28842,-1.54456 -16.01639,9.08267 -7.62205,-4.39862 -2.09858,8.98193 4.09643,4.85192 -0.4365,4.39863 -4.21396,3.74387 -14.72366,1.39346 -9.63669,-4.16359 -3.02196,7.2527 -3.0891,-3.12269 -6.8162,1.98106 -2.45115,-3.81102 -9.92209,3.81102 -2.95481,-4.449 -3.52561,4.78478 0.83943,4.90229 -6.36291,-0.0335 -0.95695,14.3711 17.00691,7.4038 -0.7387,5.85925 4.51615,8.41111 -5.07018,1.9307 3.20664,1.20878 0.43651,5.60741 -7.75636,1.71244 -1.12485,2.75335 3.79424,6.19501 6.32932,2.31683 5.62421,-1.69564 6.39648,6.6483 -12.47398,1.88033 -1.69565,4.18038 -13.0448,4.06285 v 0 l -4.24752,-1.51098 0.68833,-2.5183 -12.89369,-3.65992 -4.91908,0.38613 -2.9548,4.6001 -5.62421,-10.97979 -13.02799,1.00733 -6.27896,-7.53811 -10.67759,-0.084 -15.19374,-6.86656 -4.4322,7.42059 2.13215,8.69653 -17.66167,0.0335 -4.34825,-3.13948 -4.58331,4.78477 -8.24324,-5.99355 -16.23463,4.23074 -7.20234,-9.98925 -10.62721,-4.86871 v 0 l 1.77959,-14.79081 7.53811,-4.41542 -0.90659,-5.92639 5.27165,-6.26217 3.45846,0.2854 -0.36936,-4.38185 3.89498,-4.54972 -2.01464,-2.9548 5.28842,-4.28111 -2.11537,-9.46881 -4.63367,3.29059 0.10074,-4.98624 3.30736,-0.85622 -5.43953,-10.52649 -9.90531,-0.0503 -2.85406,-3.42488 2.08178,-8.52865 3.84461,-2.88765 -2.21611,-6.81619 2.30005,-0.16789 0.48687,-5.60741 -3.71028,-2.82049 4.18037,-4.01249 5.82567,1.04089 4.14679,-5.38915 3.00517,2.92122 -1.93069,2.40078 5.57383,3.17306 -0.23504,-6.29576 4.96945,-3.89496 2.065,2.78692 5.18769,-4.75119 4.85193,3.02195 20.39822,-8.69652 4.93587,5.40595 9.43522,-8.37754 -0.62118,-3.13949 7.30307,0.55403 -2.83729,-4.46578 3.7103,-0.63797 3.07233,-8.09213 -5.67457,-3.45847 1.88033,-6.88335 3.15626,3.49205 8.36075,-1.99786 -5.54025,-17.25874 8.54543,-2.85407 3.03874,-9.41844 11.66813,-6.86656 -1.22558,-5.45632 9.87173,-8.15928 -2.18252,-12.40682 z"
     class="land"
     title="Midi-Pyrénées"
     id="FR-N"
     inkscape:connector-curvature="0"
     style="fill:#c2d234;fill-opacity:1;stroke:#ffffff;stroke-width:0.83943301;stroke-opacity:1" />
  <path
     d="m 511.88835,13.668325 4.93587,11.903159 -2.90444,3.055536 0.65476,7.722785 2.48472,4.096432 6.11107,0.235042 4.96944,9.468804 7.80673,3.542408 3.20663,-6.564367 13.83386,-4.180376 2.78691,7.118392 4.83514,2.585454 -1.49419,4.784768 3.64314,14.622923 5.89282,3.62635 6.88335,-4.583304 3.07232,1.057685 -1.27593,3.962125 7.52132,-0.956955 3.62635,4.297898 -0.11752,9.452016 3.47525,7.017659 2.75334,-5.019809 10.77832,2.63582 8.54543,-3.492042 7.89067,10.996572 1.72923,-3.391309 3.22342,1.863542 -5.57383,15.042647 5.00302,0.0672 2.09858,6.90014 -4.8855,2.28325 -1.27594,7.4038 v 0 l -11.33235,-1.4774 0.11752,-5.48989 -6.59793,3.76066 -1.07448,-3.05554 -10.97978,-3.49204 -7.01767,4.80155 -4.88549,-3.20662 -3.69351,3.96212 -8.86441,-2.01464 -13.31341,2.73655 -11.01336,-5.13733 -10.47613,4.18038 -0.4365,-6.16144 -7.70599,3.64314 2.31683,-7.30307 -3.5592,-1.57813 -1.81317,4.85192 -8.91478,-3.47525 0.13431,-2.90444 -3.08912,2.83728 -3.60956,-2.65261 -4.34826,5.52348 -2.97159,-2.40079 0.82264,-4.76797 7.45417,-4.43221 -3.03875,-3.89497 -6.46363,2.60225 -1.82997,-3.52563 -0.36935,2.8205 -3.97891,-1.71244 -8.41112,4.18037 -4.48258,-1.12484 -0.62117,-5.59062 -9.08267,-3.878183 0.0672,-4.700825 -2.70297,2.13216 -7.21912,-5.355582 -9.73742,3.357731 -1.6285,-2.417566 v 0 l -6.11108,-5.27164 2.24969,-15.042639 3.37452,2.736551 -4.09643,-6.127862 -0.95696,-17.174798 3.5592,-8.545428 -2.26648,-7.420588 20.19676,-10.91263 -2.04821,-0.386139 18.58505,-3.424887 3.6935,-3.794237 1.39346,4.029278 1.15842,-4.029278 12.82653,-0.856221 11.34914,-4.7344022 z"
     class="land"
     title="Nord-Pas-de-Calais"
     id="FR-O"
     inkscape:connector-curvature="0"
     style="fill:#c2d234;fill-opacity:1;stroke:#ffffff;stroke-width:0.83943301;stroke-opacity:1" />
  <path
     d="m 198.56158,158.5041 22.07709,7.30306 -0.33578,2.48474 0.87302,-2.36722 8.4447,-1.19199 0.97374,-3.08912 14.5054,0.084 2.5183,9.58632 -5.60742,6.36292 9.95568,15.04265 -2.43436,7.75635 3.27379,-2.98837 2.71977,1.99785 2.87086,-4.90229 7.62205,-0.80586 14.63971,5.1709 25.18299,1.69566 11.97031,5.59063 15.42878,-4.70083 15.66382,-10.99657 -7.85708,-0.33577 12.15498,-0.18468 v 0 l 1.76282,15.91565 5.1709,-0.21826 -4.39863,3.97892 5.15412,4.01249 -0.65476,6.01034 3.34095,1.35988 -0.94017,6.95051 -3.64314,2.40077 5.60742,3.92855 -4.449,10.97979 4.81835,3.52561 11.33234,0.10073 -0.41971,4.81836 10.27465,6.84977 1.10806,3.12268 -3.20664,3.24021 6.14465,3.87819 v 0 l 0.25183,6.09428 10.27466,9.28413 -2.13216,4.93587 2.78691,3.77744 -4.29789,7.1016 -10.0564,5.27165 4.19716,11.36592 -2.26647,2.01464 v 0 l -4.16358,0.62118 -5.87604,-7.89067 -1.02411,3.20663 -7.20233,-1.64529 -3.20664,-6.41326 -6.78262,-1.22558 -0.68833,-10.77832 -5.67457,-5.87602 -10.89584,2.43435 -6.04392,8.34397 -4.11322,-2.06501 -3.49204,2.38398 0.0168,-8.02497 -6.69868,-0.60439 -1.88033,-5.6242 1.96428,-1.82997 -4.31469,-3.74388 -2.92122,-0.0672 -1.54456,5.97675 -3.47526,-1.57812 -2.23289,4.01248 -3.03874,-2.70297 -7.89067,0.10073 -9.87174,6.79941 -0.83943,-4.31469 -4.65045,1.24236 1.1752,2.46793 -3.22342,1.46062 -5.95998,-6.63152 -15.63024,-0.92337 v 0 l -12.80975,-3.74387 -6.98409,7.87387 -4.70082,0.83944 -4.68403,-2.95481 -5.80888,-15.26089 v 0 l 15.19373,0.23504 -4.04606,-2.8205 1.76281,-1.72922 -4.26432,2.14894 -8.47827,-9.67026 -0.3022,-7.89067 -2.78692,-1.41025 5.12055,-10.22429 -1.15842,-10.00605 3.6935,0.63797 -3.89496,-1.88033 -1.24237,4.02928 -1.51098,-4.04607 -1.0409,-19.08871 3.257,-0.31898 -3.27378,-1.37667 -0.85622,2.63582 -5.60742,-12.70901 -7.15196,-4.70083 -5.43953,-17.25875 3.29057,-3.94534 -0.55402,-6.46362 -6.88335,-4.70084 z"
     class="land"
     title="Basse-Normandie"
     id="FR-P"
     inkscape:connector-curvature="0"
     style="fill:#c2d234;fill-opacity:1;stroke:#ffffff;stroke-width:0.83943301;stroke-opacity:1" />
  <path
     d="m 429.38888,122.0727 4.96944,-0.62118 0.25183,3.30737 18.09818,16.50326 5.15411,13.39734 -2.55187,-0.10073 -4.19717,7.37023 h 4.34826 l -3.77744,5.43951 -0.0672,6.63153 3.64314,4.75121 -2.16574,3.67672 5.08697,0.0168 -5.32201,10.30824 6.26217,14.20321 -1.04089,3.03874 -2.16574,-2.8037 -3.39131,0.82264 -0.38614,3.50883 v 0 l -5.67457,15.49594 h -7.84031 l -1.47739,3.71029 -2.80371,-0.3022 1.54456,8.22645 3.39131,-0.26862 -1.24237,4.04607 v 0 l -3.71029,1.76281 0.85623,5.4731 -6.84978,3.94533 0.72191,5.62421 -2.78691,2.11537 -14.70687,-2.9716 -0.41972,4.51615 -3.62635,-1.24236 -3.74387,3.47525 -9.28413,1.02411 -4.24754,4.80155 v 0 l -6.14465,-3.87817 3.20664,-3.24021 -1.10804,-3.1227 -10.27467,-6.84977 0.41972,-4.81834 -11.33235,-0.10073 -4.81834,-3.52563 4.44899,-10.97978 -5.60741,-3.92854 3.64314,-2.40079 0.94016,-6.95049 -3.34094,-1.35989 0.65476,-6.01034 -5.15413,-4.01249 4.39863,-3.97891 -5.1709,0.21825 -1.76281,-15.91565 v 0 l 0.68834,-1.89711 -12.60829,-2.09858 -3.32416,-4.26433 6.02713,-14.53899 -2.03142,-2.70298 2.19932,1.00732 3.60956,-5.6242 26.45893,-15.42878 26.02242,-7.47095 9.36807,1.05769 -0.45329,-2.11538 z"
     class="land"
     title="Haute-Normandie"
     id="FR-Q"
     inkscape:connector-curvature="0"
     style="fill:#c2d234;fill-opacity:1;stroke:#ffffff;stroke-width:0.83943301;stroke-opacity:1" />
  <path
     d="m 176.06478,440.87259 2.75334,1.9307 -0.99053,3.44168 5.22128,2.63581 0.50365,5.55705 -4.07964,-6.46364 -6.43006,-3.39131 -0.47009,-3.40809 z m 82.70094,-153.01185 15.63024,0.92338 5.95998,6.63152 3.22342,-1.46061 -1.17521,-2.46794 4.65047,-1.24236 0.83943,4.31469 9.87173,-6.79941 7.89067,-0.10074 3.03875,2.70298 2.23289,-4.01249 3.47525,1.57814 1.54455,-5.97677 2.92124,0.0672 4.31468,3.74387 -1.96427,1.82996 1.88033,5.6242 6.69867,0.60439 -0.0168,8.02499 3.49204,-2.384 4.11321,2.06501 6.04392,-8.34396 10.89584,-2.43436 5.67457,5.87604 0.68834,10.77831 6.78261,1.22557 3.20664,6.41327 7.20233,1.64529 1.02411,-3.20663 5.87603,7.89067 4.16359,-0.62119 v 0 l 8.22644,5.7753 -4.51615,0.57082 -2.61902,3.52561 2.06499,2.80372 -3.44166,0.25183 0.25182,3.47525 3.1227,0.77227 0.47008,9.30093 -2.61904,5.35558 -3.50883,-1.27594 0.55403,7.1016 -4.65046,6.73226 -8.07535,5.07017 2.30005,2.55187 -1.57813,2.18253 -10.24109,5.43953 -4.60008,-2.51831 0.0335,7.5717 -10.54328,-3.59278 -2.68618,6.78262 1.9139,4.01249 -4.78477,10.34182 2.04822,1.82996 -7.31985,10.25787 -1.59493,12.02069 v 0 l -4.33147,0.40292 -2.03143,7.52132 -3.49204,-1.44383 -3.00517,4.75119 -3.47526,-1.64529 2.55188,-3.3913 -2.88765,-0.50366 -14.80759,1.74602 -5.89283,3.86139 1.51098,-2.87086 -2.45114,-0.20147 -4.2979,1.98106 0.88981,3.22343 -3.84461,3.62634 -13.11194,-0.85621 -7.5549,3.15626 6.16144,5.4731 -1.61171,3.67672 9.26734,7.60527 -1.49419,5.4731 5.79209,9.31771 -1.51098,2.73655 2.98837,1.4774 -1.88033,22.61433 2.48473,-1.6285 4.63366,2.92122 -12.72579,8.36075 -7.65563,-3.99569 -6.98409,3.20663 -2.065,-1.24236 2.19931,-4.8855 -12.97763,5.48989 v 0 l -5.97676,0.16788 -0.28541,4.53295 -7.63885,-6.44685 1.41025,4.31468 -3.34094,-5.13732 -8.66295,-0.0168 -3.257,-6.19502 -9.36807,-1.6285 -11.46665,-7.53811 -3.08912,-11.75206 -19.87777,-21.4727 -0.68834,-6.84977 2.88766,-0.25183 9.25054,-13.96816 -8.4279,-8.78047 -10.27467,-1.82997 5.641,-3.64314 -0.35256,-9.78778 -8.91478,3.22341 -5.30522,-4.65045 -3.91177,2.04822 -7.89067,-3.257 2.73655,-4.91909 -3.74387,-3.69349 7.05124,-7.5717 v 0 l 2.40078,-2.97159 7.38702,1.6285 1.30951,-5.67456 9.40165,2.71975 0.43651,-3.27378 4.13001,-1.15842 1.14162,-12.05426 7.5717,-4.53294 1.27593,2.31684 6.61474,-3.8446 13.95137,-0.10074 2.63581,-5.57383 10.39219,-4.07964 -0.40292,-3.34095 16.16747,6.0775 6.37969,-19.50842 9.65348,-3.97892 -5.90961,-27.39909 3.89498,-6.54758 z"
     class="land"
     title="Pays de la Loire"
     id="FR-R"
     inkscape:connector-curvature="0"
     style="fill:#c2d234;fill-opacity:1;stroke:#ffffff;stroke-width:0.83943301;stroke-opacity:1" />
  <path
     d="m 446.78193,90.03994 0.99053,0.789067 v 0 l 1.6285,2.417567 9.73742,-3.357732 7.21912,5.355582 2.70297,-2.13216 -0.0672,4.700825 9.08267,3.878181 0.62117,5.59063 4.48258,1.12484 8.41112,-4.18039 3.97891,1.71245 0.36935,-2.82049 1.82997,3.52561 6.46363,-2.60224 3.03875,3.89497 -7.45417,4.43221 -0.82264,4.76798 2.97159,2.40077 4.34826,-5.52346 3.60956,2.65261 3.08912,-2.83729 -0.13431,2.90444 8.91478,3.47525 1.81317,-4.85192 3.5592,1.57813 -2.31683,7.30307 7.70599,-3.64313 0.4365,6.16143 10.47613,-4.18037 11.01336,5.13733 13.31341,-2.73656 8.86441,2.01465 3.69351,-3.96214 4.88549,3.20664 7.01767,-4.80155 10.97978,3.49204 1.07448,3.05553 6.59793,-3.76066 -0.11752,5.48989 11.33235,1.47741 v 0 l 6.21181,2.2161 v 0 l 1.4774,9.771 -3.29058,9.51917 3.05554,2.46793 -8.61258,8.49506 -0.77229,4.83516 -6.37969,1.19199 3.79424,5.45629 -2.88765,22.58078 -7.87388,-4.96945 -4.75119,2.83728 -0.30219,3.77745 -5.12054,-1.22557 -9.23377,4.56652 0.60439,10.72795 6.58116,5.72493 -8.81405,0.90659 -1.49419,3.27379 2.60225,4.49936 -3.69351,4.26432 4.56651,-0.65476 1.89713,3.05553 -13.43094,17.12444 v 0 l -1.67887,1.54456 -5.45631,-3.62635 -1.07447,-5.95997 -2.70297,2.13215 -1.67888,-4.29789 -2.8037,1.04089 -6.78261,-7.77315 1.62849,-4.01248 -3.62634,-5.9432 -4.76798,-1.15841 -0.23504,3.37452 -5.50669,1.49419 -1.30951,-2.18253 -8.1425,2.26648 -3.03876,-2.80371 -5.18769,3.79424 -7.03445,-5.0366 -3.44167,3.03874 -2.16574,-4.73439 -4.33147,1.93069 -12.30609,-8.47828 -5.6242,3.74387 -1.00733,-2.98837 -3.34093,1.67886 -6.24539,-4.96944 -13.80028,5.05339 -8.96514,-1.3431 -3.52562,-5.97676 v 0 l 0.38614,-3.50883 3.39131,-0.82265 2.16574,2.80371 1.0409,-3.03875 -6.26217,-14.2032 5.32199,-10.30824 -5.08695,-0.0168 2.16573,-3.67672 -3.64314,-4.7512 0.0672,-6.63152 3.77746,-5.43953 h -4.34826 l 4.19716,-7.37023 2.55188,0.10074 -5.15413,-13.39735 -18.09817,-16.50325 -0.25183,-3.30737 -4.96945,0.62119 v 0 l 10.08999,-15.47916 11.5506,2.03144 -10.40897,-9.334504 1.14163,-9.485591 z"
     class="land"
     title="Picardie"
     id="FR-S"
     inkscape:connector-curvature="0"
     style="fill:#c2d234;fill-opacity:1;stroke:#ffffff;stroke-width:0.83943301;stroke-opacity:1" />
  <path
     d="m 235.26159,539.92569 11.81922,6.43005 3.59277,12.40682 -3.1059,6.01035 -2.6526,-8.10893 -8.20966,-7.28628 z m -7.20233,-21.01941 2.55187,2.35042 -3.257,0.47008 1.3431,2.53509 6.14465,-2.61904 -0.85623,2.90444 4.18038,-0.75548 7.97462,4.63366 -4.02929,1.99786 -15.64702,-5.94319 -1.96427,-4.18038 z m 27.48304,-5.94319 12.97763,-5.48988 -2.19931,4.88549 2.065,1.24237 6.98409,-3.20664 7.65563,3.99571 12.72579,-8.36075 -4.63366,-2.92124 -2.48473,1.6285 1.88033,-22.61432 -2.98837,-1.4774 1.51098,-2.73656 -5.79209,-9.3177 1.49419,-5.4731 -9.26734,-7.60527 1.61171,-3.67671 -6.16144,-5.4731 7.5549,-3.15628 13.11194,0.85623 3.84461,-3.62636 -0.88981,-3.22341 4.2979,-1.98107 2.45114,0.20146 -1.51097,2.87086 5.89282,-3.86139 14.80759,-1.74602 2.88765,0.50366 -2.55188,3.39131 3.47526,1.6453 3.00517,-4.7512 3.49204,1.44382 2.03143,-7.52132 4.33147,-0.40292 v 0 l 1.82997,4.5833 7.08481,0.40293 -0.23504,5.74172 8.67974,0.80585 1.42704,12.30609 19.13907,-2.70297 -2.11537,-4.98623 8.62937,3.30736 0.8898,7.16876 14.5054,17.9135 -0.16789,12.72581 16.285,9.4688 0.45329,5.90961 4.26433,1.51098 -2.35041,4.91908 v 0 l -3.35774,3.74387 -5.65778,-1.4942 -2.98838,8.29361 -7.18555,-0.83943 -7.63883,7.63883 3.76065,7.52132 -2.58545,1.41025 0.28541,7.28628 7.706,4.04607 1.52776,4.04606 -4.53293,4.7512 -4.8855,-0.90659 -2.01465,13.96816 -4.93586,-1.25915 0.20147,4.19717 -5.89283,5.18769 v 0 l -4.51615,7.60527 -3.79424,0.0503 -0.45329,8.05856 -5.07017,6.49721 -7.05124,4.33148 -1.96427,-1.71245 -3.82782,8.91478 1.30951,7.15197 -9.14982,8.99872 -5.50667,-2.06501 -3.32416,2.41757 -3.64314,10.24108 -3.05553,-2.26646 -7.18555,2.68618 -12.0039,-7.43737 -1.42703,2.60223 -2.9548,-13.29661 -9.75421,-1.7796 -1.56135,-4.95265 -0.57082,2.55188 -8.34396,-0.70513 v 0 l -7.26949,-16.25142 -10.47613,-6.76584 -3.72708,-6.17822 -14.80759,-6.93372 -0.10073,-9.30092 7.21912,-1.67886 -3.15627,-5.01981 4.43221,-0.57081 2.78691,-4.86871 -3.12269,-9.51917 4.71762,0.0335 -5.3388,-12.4404 -3.13947,-1.09126 1.64528,-1.93069 -6.12786,-0.65477 8.88121,-9.67026 z"
     class="land"
     title="Poitou-Charentes"
     id="FR-T"
     inkscape:connector-curvature="0"
     style="fill:#c2d234;fill-opacity:1;stroke:#ffffff;stroke-width:0.83943301;stroke-opacity:1" />
  <path
     d="m 681.1852,700.35813 0.68834,0.77227 v 0 l 4.93586,3.54241 -5.85924,8.1425 -6.79941,-1.14163 -1.09126,-4.38184 4.83513,-6.22859 v 0 0 0 l 3.15627,-0.90659 v 0 z m 24.44429,116.17752 2.2329,-7.65562 -4.51616,-6.31254 -5.6242,3.12269 -12.4404,0.36935 -5.57383,-9.58632 -5.28842,1.94747 -2.28327,-4.76797 1.15842,4.23074 -3.44168,-1.82996 2.30005,2.68618 -3.86139,1.51098 5.05338,2.85408 2.68619,-2.33363 -5.60741,5.05339 -17.72883,-3.10591 0.5876,-5.89281 -3.99569,-2.87087 -21.12014,-0.77228 v 0 l 0.7387,-3.77744 5.70815,-2.77013 -0.68834,-2.60225 1.39346,1.86355 8.93157,-5.17091 0.72191,-2.2161 -3.18985,-1.10806 4.1468,-7.03444 9.92211,1.12483 2.75333,-15.31125 -1.79638,-2.09859 14.11925,-11.836 -4.04605,-7.4038 -4.6001,-1.52776 0.0672,-10.24109 -5.01982,-8.05856 v 0 l 0.084,-5.7753 9.6199,1.6285 2.11537,8.32718 16.78866,-7.77315 3.39131,2.92123 4.06286,-3.62635 -1.02411,8.05855 14.13605,1.72923 1.94749,5.72494 5.0198,3.49204 6.02713,-1.29273 4.19717,-5.69136 5.33879,4.34827 -2.46793,-2.43435 3.00517,-2.384 0.0168,-6.86656 -5.4731,-3.81103 1.47739,-2.6526 -9.48558,-0.40293 -4.38185,-3.60956 -0.78906,-4.8855 5.48988,-1.17521 -2.8037,-6.02712 10.87905,2.70297 3.47526,-3.00517 -4.66725,-4.04607 3.20663,-10.5097 10.20751,-0.15109 2.85407,-3.60958 -2.19931,-1.56134 1.96427,-5.1877 8.64616,-0.10073 2.03143,-2.065 -2.14895,-2.28326 4.75119,-3.02196 2.70298,1.91391 5.40594,-4.7344 7.90746,1.20878 3.07233,-2.14894 4.48257,1.86354 -2.21611,-14.11927 -8.32717,-1.71244 2.87086,-10.27466 6.11108,-0.26862 2.19931,5.22127 6.01034,1.79639 4.14679,-5.64099 8.39434,0.0335 v 0 l 2.9548,8.89799 4.93587,0.55402 0.47008,10.69438 7.8403,5.40595 5.01981,-1.14163 6.04392,3.79424 -1.57813,3.35772 5.30522,10.34183 -7.94104,0.5876 0.36935,5.6242 -7.82352,8.78047 6.48043,9.60311 -3.87819,0.80585 -0.36935,5.74173 8.31039,12.2893 12.57471,3.34094 11.81922,8.31039 22.79899,-5.75852 1.47741,12.82654 -14.53898,16.36895 2.41757,8.69652 -13.34699,6.74904 -0.40293,3.49205 -1.24236,-2.92123 -11.04694,5.12054 -2.45114,6.34612 1.6285,3.34093 -3.257,-1.81317 -4.16359,3.42489 -5.28842,-0.67154 -4.98624,10.81189 -10.17393,0.57082 -1.99785,7.15196 -9.87173,7.21912 8.54543,0.53724 -3.50883,9.45203 -5.95998,-2.04822 -4.51615,3.64313 -7.80672,0.62119 -1.42704,5.52346 -12.33967,-2.71976 -2.2161,8.37754 -4.18037,-0.20146 2.03143,-4.78477 -7.18555,0.10073 -6.86656,-4.41541 -2.78692,2.11536 4.63366,3.27379 -8.32716,1.72923 -2.46795,-1.79638 1.0577,-4.41541 -7.89067,-2.70299 -0.63798,-3.44167 -4.49936,-0.63797 -1.24235,2.53509 -4.76798,-5.1877 z"
     class="land"
     title="Provence-Alpes-Côte d'Azur"
     id="FR-U"
     inkscape:connector-curvature="0"
     style="fill:#c2d234;fill-opacity:1;stroke:#ffffff;stroke-width:0.83943301;stroke-opacity:1" />
  <path
     d="m 605.11579,517.04274 -0.6044,6.17823 5.74172,1.17521 1.15842,3.35773 15.21053,-2.53509 4.7176,3.82782 6.78263,-2.9716 2.30005,-11.04694 6.84977,2.83729 4.48257,-2.63582 3.47525,2.85406 4.2979,-4.07964 5.4731,13.44772 12.72581,-34.85326 8.07535,3.47526 7.73956,-3.52563 4.71762,6.16145 5.4731,1.1752 v 0 l -1.07447,3.34094 5.42274,3.10591 1.86354,7.21912 1.42703,-3.76066 3.5592,3.257 -0.10073,5.15412 4.54972,-0.41972 7.2527,-7.65562 4.93587,3.55919 0.80586,4.86871 10.0564,-0.38614 13.61561,-15.21052 v 0 l 7.33664,4.95265 -4.71762,8.24324 1.56136,3.42488 -10.05642,3.45846 -1.57812,8.86441 11.90315,-1.12483 11.63454,-8.56222 0.99054,-3.10591 -3.40811,0.47009 -2.8037,-6.07749 2.2329,-4.85193 18.58504,-9.771 20.98582,3.02196 -3.44167,7.21912 6.54757,7.48775 -4.7176,14.32072 7.06801,1.30952 -1.59491,7.63884 4.11322,-1.6285 7.15197,11.04694 -2.87086,8.24323 -12.27252,3.50884 -0.92337,11.09729 7.5381,7.35343 5.89283,1.17522 0.0168,13.38056 13.028,9.82136 -5.37237,7.75636 1.72924,7.06803 -16.8726,8.66295 -0.0168,3.12269 -8.7469,-2.24968 -9.51917,4.8855 v 0 l -8.39433,-0.0335 -4.1468,5.64099 -6.01034,-1.79639 -2.19932,-5.22127 -6.11106,0.26862 -2.87087,10.27466 8.32718,1.71245 2.21611,14.11925 -4.48258,-1.86354 -3.07232,2.14895 -7.90746,-1.20877 -5.40595,4.73439 -2.70297,-1.9139 -4.75119,3.02196 2.14894,2.28326 -2.03142,2.06499 -8.64617,0.10074 -1.96427,5.1877 2.19931,1.56134 -2.85406,3.60956 -10.20751,0.1511 -3.20664,10.5097 4.66725,4.04607 -3.47525,3.00517 -10.87905,-2.70297 2.8037,6.02713 -5.48989,1.1752 0.78906,4.8855 4.38185,3.60956 9.48559,0.40293 -1.4774,2.65261 5.4731,3.81102 -0.0168,6.86656 -3.00517,2.384 2.46794,2.43435 -5.33879,-4.34826 -4.19718,5.69135 -6.02712,1.29273 -5.01981,-3.49204 -1.94748,-5.72493 -14.13605,-1.72924 1.02411,-8.05855 -4.06286,3.62635 -3.39132,-2.92123 -16.78865,7.77315 -2.11538,-8.32717 -9.61989,-1.6285 -0.084,5.7753 v 0 l -10.03962,-7.1016 -3.62635,0.52044 -1.05769,5.35558 -2.9548,-0.70512 -0.25183,-5.43953 -4.5833,0.78907 -4.81835,7.11839 -8.8812,-6.9505 -5.70814,1.71244 1.4606,-8.37754 -11.56738,-18.38358 -2.90443,-14.62292 v 0 l 4.33147,-2.384 1.79638,-5.70814 5.50669,-0.65476 0.45329,-3.79423 8.49506,-0.084 4.75119,-8.84762 6.19501,-0.97375 -1.20878,-4.54972 5.80888,-1.69565 -2.30005,-3.92855 3.62635,-2.80371 -1.74602,-3.82781 5.82566,2.45114 2.31684,-10.24109 -3.81102,-5.13733 v 0 h -6.04392 v 0 l 1.51098,-2.65261 -2.73655,-1.6117 2.50151,-1.82996 -9.3345,-5.20449 -6.14465,0.50366 -5.13733,4.75119 -3.50882,-1.30952 -0.1679,2.09859 -4.90228,-4.7512 -3.02196,4.14681 -1.05769,-6.02713 5.17091,-4.02928 1.49419,-5.9264 -20.63326,-29.34658 4.56651,-9.45201 -4.29789,-4.39863 0.53723,-3.92855 9.0323,-2.9548 -4.39863,-24.05816 z m 75.90152,183.09713 v 0 l -4.85191,1.46061 -3.1227,5.67457 1.09126,4.38184 6.79941,1.14163 5.85924,-8.1425 -4.93586,-3.54241 z"
     class="land"
     title="Rhône-Alpes"
     id="FR-V"
     inkscape:connector-curvature="0"
     style="fill:#c2d234;fill-opacity:1;stroke:#ffffff;stroke-width:0.83943301;stroke-opacity:1" />
  <g
     id="stadiums"
     data-country="france"
     data-circle-radius="8"
     data-circle-colors="#d234c2,#34c2d2"
     transform="translate(0,404.35822)" />
</svg>
