<?xml version="1.0" encoding="UTF-8" standalone="no"?>
<?xml-stylesheet type="text/css" href="/styles/home.css"?><!-- https://www.amcharts.com/svg-maps -->

<svg
   xmlns:dc="http://purl.org/dc/elements/1.1/"
   xmlns:cc="http://creativecommons.org/ns#"
   xmlns:rdf="http://www.w3.org/1999/02/22-rdf-syntax-ns#"
   xmlns:svg="http://www.w3.org/2000/svg"
   xmlns="http://www.w3.org/2000/svg"
   xmlns:sodipodi="http://sodipodi.sourceforge.net/DTD/sodipodi-0.dtd"
   xmlns:inkscape="http://www.inkscape.org/namespaces/inkscape"
   version="1.1"
   id="map-georgia"
   viewBox="0 0 1000 1000"
   width="1000"
   height="1000"
   class=""
   sodipodi:docname="georgia.svg"
   inkscape:version="0.92.4 (5da689c313, 2019-01-14)">
  <metadata
     id="metadata21">
    <rdf:RDF>
      <cc:Work
         rdf:about="">
        <dc:format>image/svg+xml</dc:format>
        <dc:type
           rdf:resource="http://purl.org/dc/dcmitype/StillImage" />
        <dc:title></dc:title>
      </cc:Work>
    </rdf:RDF>
  </metadata>
  <sodipodi:namedview
     pagecolor="#ffffff"
     bordercolor="#666666"
     borderopacity="1"
     objecttolerance="10"
     gridtolerance="10"
     guidetolerance="10"
     inkscape:pageopacity="0"
     inkscape:pageshadow="2"
     inkscape:window-width="1920"
     inkscape:window-height="1017"
     id="namedview19"
     showgrid="false"
     showguides="true"
     inkscape:guide-bbox="true"
     inkscape:zoom="0.59563919"
     inkscape:cx="647.46905"
     inkscape:cy="541.46392"
     inkscape:window-x="-8"
     inkscape:window-y="-8"
     inkscape:window-maximized="1"
     inkscape:current-layer="map-georgia">
    <sodipodi:guide
       position="1303.4791,500"
       orientation="0,1"
       id="guide831"
       inkscape:locked="false"
       inkscape:label=""
       inkscape:color="rgb(0,0,255)" />
  </sodipodi:namedview>
  <defs
     id="defs4">
    <style
       type="text/css"
       id="style2">
			.land
			{
				fill: #c46a76;
				fill-opacity: 1;
				stroke:white;
				stroke-opacity: 1;
				stroke-width:0.5;
			}
         .rectangle:hover {
         fill: #bdbdbd;
         cursor: pointer;
         }
		</style>
    <!-- <amcharts:ammap
       projection="mercator"
       leftLongitude="40.011506"
       topLatitude="43.584733"
       rightLongitude="46.721888"
       bottomLatitude="41.064411" /> -->
    <!-- All areas are listed in the line below. You can use this list in your script. -->
    <!--{id:"GE-AB"},{id:"GE-AJ"},{id:"GE-GU"},{id:"GE-IM"},{id:"GE-KA"},{id:"GE-KK"},{id:"GE-MM"},{id:"GE-RL"},{id:"GE-SJ"},{id:"GE-SK"},{id:"GE-SZ"},{id:"GE-TB"}-->
  </defs>
  <path
     d="m 40.488249,248.88232 1.577481,1.43866 2.019176,-0.32811 1.034828,0.44169 3.28116,2.95304 3.028764,-0.56789 2.852086,1.33771 5.931329,0.70671 1.400803,-0.0505 2.852086,-1.98132 2.877325,1.8425 3.003524,0.39121 2.700648,2.68803 1.527001,0.65623 9.073672,2.46088 2.271572,-1.24937 4.896502,-5.24986 2.296812,-0.61837 2.51135,-1.75416 2.47349,0.23978 3.697612,4.74506 6.90306,1.76678 5.07318,3.63452 8.59411,4.75768 7.04189,0.0757 1.93083,1.18626 0.95911,1.80464 -0.44169,2.52397 4.4548,3.19282 1.52701,3.47046 1.98131,0.69409 2.33467,-0.18929 1.33771,-0.45432 1.4639,-1.5901 2.01918,0.27764 4.98484,3.23068 1.74154,2.65017 0.15143,2.49873 2.70065,1.7163 5.95657,0.94649 2.73851,-3.53356 2.90256,0.0757 11.92576,4.35384 5.01008,3.14235 4.6441,0.89601 2.56183,1.79201 1.57748,2.19586 2.91519,0.2524 5.52749,-5.89347 1.51438,0.63099 4.32861,-0.59313 1.85512,1.70368 0.78243,9.65418 7.92527,1.81726 3.73547,3.82381 6.18373,3.52095 1.3377,2.44825 2.82685,1.07269 1.37556,1.66582 2.47349,0.42907 4.69458,2.10752 4.0005,-1.46391 5.12366,2.73851 2.29681,0.32812 1.23674,-0.65623 1.76678,-2.67541 1.26199,-0.27764 4.01311,3.48308 8.5184,2.41039 6.43612,-2.42301 0.69409,-1.45128 -1.04745,-2.90257 0.79505,-1.75416 0.84553,-0.25239 0.93387,0.17667 1.8425,1.89298 3.93739,1.72892 3.82382,0.61837 2.47349,3.16758 3.07924,-1.06006 5.61583,0.0883 3.12973,3.58403 1.42604,0.4417 1.4008,0.1262 3.48308,-2.10752 4.74506,-0.63099 3.5588,-2.68803 2.72589,0.3786 v 0 l -3.79858,9.7299 -0.0126,5.0858 1.52701,4.06359 -0.94649,3.58404 -3.92478,8.69507 -5.67893,5.07318 -2.06965,5.51488 -3.53356,1.22412 -8.27862,1.03483 -4.15193,1.99394 -6.52446,1.23674 -3.09187,1.43866 -0.70671,0.94649 1.53962,4.98485 3.73548,0.73195 -0.60575,8.48054 2.12013,2.34729 0.50479,3.57142 1.29985,1.7794 -1.7794,3.84905 -3.3695,1.51438 -2.43563,3.50832 2.0318,2.42301 0.70671,2.83947 0.82029,5.77989 0.17667,10.19684 1.32509,3.26854 2.97828,3.054 1.86774,3.05401 v 4.8334 l -1.61534,5.67893 -2.17061,1.57748 -2.52397,0.85815 -5.212,7.59715 -6.33516,7.05449 -8.46792,5.80513 -9.47751,4.61887 -6.37302,1.85512 -6.81472,8.12718 -10.63853,5.3382 v 0 l -2.92781,-22.23618 -2.81422,-15.11858 -6.75162,-21.90805 -3.39474,-6.78948 -1.19889,-1.33771 -2.23371,0.32812 -2.30943,-3.3064 -1.7794,-1.07269 -9.35131,-2.47349 -2.48611,-0.0505 -3.64714,-2.63755 -10.00754,-3.14234 -3.63451,0.32812 -2.61231,1.80464 -4.59363,-0.89601 -1.32508,-3.04139 -5.0858,-6.07014 -3.72286,-20.31796 -3.81119,-8.66985 -2.23371,-2.42301 -1.45129,-0.56789 -2.34729,0.84553 -3.06662,-0.22716 -2.68803,2.82685 -1.53962,-0.0631 -0.98435,-1.9687 -3.5588,-3.26854 -2.35991,-4.29075 -3.1802,-2.65016 -2.8647,-4.73245 -3.10449,-2.32205 -5.54012,-1.29984 -2.77637,-0.27764 -1.69106,0.56789 -5.62845,-1.24936 -9.64156,0.22715 -6.701139,-2.9278 -5.047939,1.62796 -4.429567,0.45431 -2.814226,-2.65016 -3.306401,-5.24986 -2.978284,-2.43563 -5.956568,-0.39122 -1.489143,0.84553 -1.413423,-1.75416 -3.760714,-1.23674 -5.754651,-3.96263 -3.142343,0.34073 -1.362943,0.79505 -2.978285,3.16759 -0.08834,1.23674 -0.656232,0.0631 -4.593625,-4.92174 -1.943456,-0.61837 -2.940425,-3.23069 -1.615341,-15.33312 -1.489142,-6.44874 -1.817258,-4.02574 -5.792511,-3.1171 -6.62542,-1.86774 -4.341228,-3.34426 -2.397771,-0.40383 -5.338196,-3.73548 -10.19683756,-1.5901 0.73195128,-8.79603 3.28116058,-5.84299 1.0726872,-5.1489 2.5870689,-3.28116 0.6309924,-2.25895 4.1393102,-4.12669 0.504794,-1.19889 -0.795051,-4.53052 1.236746,-2.20848 4.883881,0.20192 6.171106,-2.22109 5.363436,0.51741 2.170614,-1.28722 3.25592,-0.66886 2.170614,0.34074 z"
     class="land"
     title="Abkhazia"
     id="GE-AB"
     inkscape:connector-curvature="0"
     style="fill:#c46a76;fill-opacity:1;stroke:#ffffff;stroke-width:0.63099241;stroke-opacity:1" />
  <path
     d="m 262.16852,586.75355 22.26141,1.60272 3.28116,1.56486 0.71933,1.03483 0.46693,5.74203 6.78948,0.36597 3.16758,3.4957 5.76728,1.75416 1.13578,3.14234 7.92527,-2.95304 5.80513,-0.0379 4.8334,1.7163 2.23371,4.18979 7.77383,-1.9687 7.62239,0.1262 3.58403,-3.4326 5.09842,-3.31902 4.44219,-0.23978 1.527,0.36598 2.18324,2.08227 3.04138,5.19938 6.28468,0.30288 v 0 l 2.59969,6.90305 -0.11358,5.3382 -3.054,3.78595 0.85815,4.74507 4.24027,6.75162 4.02573,2.53659 1.56486,3.01614 3.28116,3.38212 2.62493,8.49316 v 0 l -1.4008,1.26198 -0.35336,4.31599 -1.84249,3.77334 0.64361,2.85208 -1.94346,1.27461 -1.12317,2.18323 -1.94345,-0.16406 -0.631,0.54266 -0.17667,1.04744 -2.13276,1.41343 -0.89601,2.08227 1.60272,2.71327 0.36598,1.57748 -0.44169,1.36294 -0.99697,0.0505 -1.36295,-1.12316 -4.93436,1.19888 -3.62189,-0.20192 -4.82079,-3.31902 -1.04744,-1.85511 -5.42654,0.40383 -2.82684,-1.66582 -2.71327,0.3786 -6.739,-4.56839 -3.67238,0.21454 -2.13275,-0.80767 -6.83996,0.69409 -0.83291,-2.43563 -2.14537,-1.70368 -1.85512,-0.0757 -2.88995,1.11055 -4.7072,0.68147 -0.29026,-1.4008 -0.99696,-0.17668 -1.43867,0.88339 -2.23371,-0.47956 -5.80513,3.40736 -4.42957,-2.17061 -3.84905,-0.22716 -0.51742,-1.89298 -1.79201,-1.80463 -3.25593,0.13881 -1.16102,1.5901 -3.64714,2.53659 -2.29681,0.66886 -1.6532,2.65016 -0.0757,1.53963 -2.57445,3.60927 -3.97525,1.27461 -1.57748,2.8647 -2.0318,1.12317 -0.68147,-0.0252 -1.80464,-2.78899 -3.09186,-1.13578 -0.3786,-1.40081 -0.9591,-0.53003 -4.0636,-1.89298 -5.71679,-0.27763 -0.31549,-0.631 1.18626,-2.28419 -0.41645,-0.89601 -1.4639,-0.66885 -6.71376,2.59969 -2.63755,-0.36598 -5.67893,-4.26551 -3.7481,-1.38818 -0.60575,-0.99697 -4.54315,-1.23674 0.1262,-1.47652 0.53003,-1.32509 1.37557,-0.93387 0.98435,-9.5406 2.68802,-5.01008 3.73548,-4.69459 3.4326,-2.97828 1.2746,0.11358 0.5048,1.88036 h 1.4008 l 0.3786,-1.11055 0.90862,0.50479 0.87077,-0.60575 6.94092,-10.1085 3.64714,-10.76473 1.94345,-2.59969 2.43563,-7.40785 1.08531,-10.67639 z"
     class="land"
     title="Ajaria"
     id="GE-AJ"
     inkscape:connector-curvature="0"
     style="fill:#c46a76;fill-opacity:1;stroke:#ffffff;stroke-width:0.63099241;stroke-opacity:1" />
  <path
     d="m 259.88432,540.85516 4.90912,-1.42605 v 0 h 10.87831 v 0 l 7.95051,-1.67844 3.16758,-1.32508 7.15545,0.0126 4.85865,-1.08531 1.82987,0.99697 7.81169,1.95608 5.83037,5.23723 12.78391,1.61534 v 0 l 2.59969,1.03483 v 0 l 0.82029,1.72892 v 0 l -2.17062,1.35033 -1.50176,2.13275 0.1262,2.46087 2.32205,3.88691 1.98132,0.87077 5.07318,0.23978 4.54314,2.27157 1.69106,-0.27763 2.54921,-3.64714 4.9596,0.0379 3.89953,1.14841 4.97222,11.96361 4.32861,0.36598 3.54618,1.69106 5.19938,4.15193 4.37908,1.43866 3.35688,2.80161 10.20946,0.42907 2.28419,3.5588 0.0505,10.70163 0.85815,5.06056 v 0 l -4.02573,-0.0379 -1.48914,0.60575 -1.64058,1.7794 -1.13579,3.96263 -1.12316,1.37557 -3.8112,0.75719 -3.93739,-2.30943 -7.86217,0.79505 v 0 l -6.28468,-0.30288 -3.04138,-5.19938 -2.18324,-2.08227 -1.527,-0.36598 -4.44219,0.23978 -5.09842,3.31902 -3.58403,3.4326 -7.62239,-0.1262 -7.77383,1.9687 -2.23371,-4.18979 -4.8334,-1.7163 -5.80513,0.0379 -7.92527,2.95304 -1.13578,-3.14234 -5.76728,-1.75416 -3.16758,-3.4957 -6.78948,-0.36597 -0.46693,-5.74203 -0.71933,-1.03483 -3.28116,-1.56486 -22.26141,-1.60272 v 0 l -1.61535,-19.81317 -0.83291,-2.82684 0.54266,-2.54921 -0.90863,1.7163 -2.56183,-3.83644 -4.55577,-9.76776 1.19889,-1.55224 1.03483,3.60928 -0.29026,1.11054 1.41342,0.21454 0.53004,0.94649 0.45431,-0.66885 -0.32811,-1.32509 0.61837,-0.44169 -0.49218,-0.5048 0.82029,-0.83291 -3.43259,-2.82684 6.00704,-1.50176 0.49218,-3.00353 1.527,-0.55527 z"
     class="land"
     title="Guria"
     id="GE-GU"
     inkscape:connector-curvature="0"
     style="fill:#c46a76;fill-opacity:1;stroke:#ffffff;stroke-width:0.63099241;stroke-opacity:1" />
  <path
     d="m 387.88745,462.24612 1.96869,2.86471 -0.82029,5.99442 1.5901,3.4957 -0.11357,5.48964 3.10448,0.0883 6.39826,-2.27157 3.06662,-3.88691 4.89651,0.92125 3.33164,2.25895 4.15193,-0.76981 0.60575,-0.45432 1.17364,-4.01311 1.14841,-0.16406 2.81423,1.13579 2.10751,2.53659 3.98787,1.23675 2.90257,1.89297 6.70114,6.58756 1.53962,3.4957 0.21454,3.47046 0.93387,2.35991 5.45177,0.49218 3.19282,1.61534 5.31296,4.16455 2.82685,-1.88036 4.54314,-0.85815 2.52397,0.34074 5.54011,-2.12014 4.54315,-3.50832 2.33467,-3.77333 5.3382,-2.68803 2.28419,-2.34729 16.25437,-0.69409 10.18421,2.44825 9.38917,-2.32205 7.93789,3.79857 5.56535,1.09793 v 0 l 3.21806,2.90256 9.50275,1.76678 3.92477,-1.66582 4.30337,-2.88994 3.10448,-0.0631 1.7794,0.78243 2.01917,3.96263 -3.1171,8.29124 0.99697,4.12669 -4.9596,1.12317 -3.53356,2.05703 -5.43915,0.32812 -3.91216,4.50528 -3.72285,2.2211 -1.7794,4.60624 1.55224,5.35082 -0.0252,4.24027 -0.85815,4.17717 -3.78595,2.19585 -2.75113,8.65722 -3.52094,5.12366 -7.43309,4.15193 -0.78243,3.41997 -0.10096,12.00148 -8.55626,7.33213 -0.9591,2.76375 0.82029,4.24027 v 0 l -4.88388,0.97173 -4.77031,3.4957 -5.60321,1.1484 -7.00402,4.20241 -11.98885,3.45784 -10.90355,5.18676 -3.50832,-1.79202 -20.31796,2.57445 -2.75112,2.18323 -1.79202,0.0757 -5.96919,-2.32205 -6.04491,-0.13882 -3.33164,-1.43866 -3.64713,-0.1262 -5.61584,2.44825 -3.31902,2.81423 -3.19282,0.17667 -4.17717,-1.51438 -2.57445,-0.0883 -4.26551,-4.74506 v 0 l -0.85815,-5.06056 -0.0505,-10.70163 -2.28419,-3.5588 -10.20946,-0.42907 -3.35688,-2.80161 -4.37908,-1.43866 -5.19938,-4.15193 -3.54618,-1.69106 -4.32861,-0.36598 -4.97222,-11.96361 -3.89953,-1.14841 -4.9596,-0.0379 -2.54921,3.64714 -1.69106,0.27763 -4.54314,-2.27157 -5.07318,-0.23978 -1.98132,-0.87077 -2.32205,-3.88691 -0.1262,-2.46087 1.50176,-2.13275 2.17062,-1.35033 v 0 l 4.82078,0.45432 3.28116,-2.32206 0.99697,-5.62845 -0.0126,-14.15947 -0.631,-3.31902 4.46743,-1.56486 -0.16406,-4.21503 6.5497,-10.3609 3.69762,-7.28165 6.34778,-5.50225 4.24027,-5.11104 0.27764,-10.72687 3.79857,-2.86471 0.40384,-5.56535 3.14234,-2.46087 2.28419,-3.5588 7.02926,-0.1262 2.90256,-1.48914 z"
     class="land"
     title="Imereti"
     id="GE-IM"
     inkscape:connector-curvature="0"
     style="fill:#c46a76;fill-opacity:1;stroke:#ffffff;stroke-width:0.63099241;stroke-opacity:1" />
  <path
     d="m 987.2293,744.3376 -3.04139,-0.0757 -1.19888,1.0222 -1.69106,-0.17667 -2.37253,-2.71327 -6.96616,-2.20847 -2.88995,2.04441 -6.28468,10.02016 -2.0318,0.50479 -3.39473,-4.50528 -0.68148,-4.24027 -3.39474,-1.36294 -3.23068,1.70368 h -2.71326 l -11.54717,-14.77785 -4.41694,-4.07621 -8.66984,-0.34073 -5.94395,0.68147 -3.39474,-1.69106 h -2.37253 l -0.76981,0.90863 -2.78899,0.74457 -1.04744,3.84905 -2.0318,1.13579 -4.24027,-1.23675 -7.16807,-0.13882 -4.31599,0.88339 -4.82078,-0.31549 -10.44924,-6.83996 -4.31599,-1.64058 -3.57141,0.13882 -4.9596,-1.47652 -10.46186,-6.82734 -6.08276,-8.90962 0.47955,-1.527 0.80767,-0.17668 3.04138,-4.31598 3.72286,-0.54266 1.12317,-0.78243 -3.39474,-3.91215 -0.85815,-0.0631 -3.12973,1.94346 -2.57445,-0.61838 -5.65369,-2.81422 -5.33819,1.00959 -2.48611,-0.97173 -1.62796,-1.57748 -1.21151,-4.59363 -9.81824,-3.12972 -5.72941,-5.16152 -3.02877,-0.3155 -3.55879,4.01312 -3.15497,0.63099 -6.96615,-4.69458 -2.24634,-2.37254 v 0 l -3.20544,-6.94091 1.08531,-2.90257 -0.59313,-1.1484 -3.3064,-2.83947 -10.84045,-1.86774 -2.33468,-3.81119 0.58052,-4.20241 -2.18324,-4.36647 -0.0505,-1.28722 5.2751,-6.33517 0.88339,-2.04441 -2.97828,-10.20946 -0.17668,-4.78292 -3.14234,-7.55929 -1.60272,-0.58052 -6.56233,0.46694 -7.29427,-11.71122 -2.83946,-2.57445 v 0 l -0.10096,-3.19282 -1.03483,-2.08228 -5.55273,-3.40736 7.19331,-6.95353 2.62493,0.59313 4.10145,3.69762 4.9596,1.57748 3.21806,-1.29985 6.43612,-1.04744 -1.45128,-3.21807 -3.71023,-3.49569 -10.0454,-1.91822 -5.69156,-1.85512 -0.896,-5.47701 3.79857,-5.69155 -2.39777,-5.64108 -2.68803,-3.07924 1.69106,-4.20241 -2.72589,-5.75465 2.96567,-3.77334 0.98435,-9.52798 1.69106,-5.85561 3.72285,-4.24027 0.34074,-6.95354 4.85864,-4.94698 2.53659,-3.88691 7.44571,-2.15799 2.25895,-3.65976 0.21454,-1.67844 -0.89601,-3.4326 -2.22109,-4.90912 0.0126,-5.64107 7.00401,-5.98181 0.0757,-7.58453 -1.47652,-5.37606 4.92174,-8.99795 3.1171,-3.98787 v 0 l 2.88995,4.68196 1.35032,1.14841 2.73851,0.73195 8.37958,-2.66279 12.12767,0.32812 3.78596,-0.20192 3.97525,-1.67844 4.46743,0.27764 4.79554,4.16455 15.88839,8.60674 6.37302,-0.15144 1.38818,0.95911 1.06007,1.37556 1.07269,3.63452 -0.32812,4.00049 -6.19634,10.14636 -0.74457,2.7385 0.64361,5.62846 -0.92125,2.63754 2.83947,2.94043 0.23977,2.22109 -1.527,1.60272 -3.16758,1.36295 -6.07015,1.45128 -1.00959,-0.0379 -1.74153,-1.3377 -2.0318,0.15143 -5.1489,14.12161 0.95911,1.50177 1.86774,0.60575 2.56183,2.75113 3.40736,1.07268 9.32606,6.04491 1.86774,1.62796 0.66885,2.0318 1.8425,0.89601 1.7163,2.12013 5.99443,2.91519 6.14587,-0.3786 5.04793,2.14537 3.33164,2.86471 0.36598,5.18676 2.29681,3.4326 0.99697,2.82684 2.33467,1.08531 3.77334,-3.01614 3.77333,0.73195 2.59969,-1.04745 1.06007,1.09793 0.54265,2.48611 0.71933,0.30287 1.76678,-0.56789 2.62493,-3.06662 1.93084,1.17364 1.4008,6.09539 3.15496,2.59969 0.83291,-0.2524 0.69409,-3.89953 1.28723,-1.32509 1.61534,0.79505 4.78292,5.17414 3.92477,0.20192 5.13628,-2.77637 2.24634,-0.0883 2.66278,4.17717 4.54315,4.21503 0.88339,1.67844 1.88036,0.94649 0.15143,1.91822 2.37254,0.1893 0.60575,-0.51742 1.02221,-3.4326 1.53962,0.29026 1.82988,1.95608 2.17061,-2.56183 1.3377,-0.40384 1.35033,8.01361 4.01311,2.44825 -0.51741,5.55273 -2.3473,5.69155 -3.3064,3.69762 -5.56535,3.3695 -6.4866,5.84299 -7.47095,1.55224 -6.63804,2.42301 -3.92477,5.12366 2.12013,10.87831 2.10751,6.33516 0.30288,9.36393 2.71327,3.31902 4.22765,-4.22765 2.58707,0.3786 4.30336,2.19585 1.16103,2.30943 -0.64361,1.69106 0.35335,2.14538 5.12366,7.8243 -0.0631,4.58101 0.64362,1.1484 1.43866,1.24937 8.87175,3.54618 0.30288,2.65016 4.66934,0.95911 2.56183,3.64714 4.00049,2.90256 10.77735,4.08883 0.36598,0.92125 4.46743,1.43867 0.79505,0.94648 0.54265,-1.32508 0.50479,0.0252 0.5048,0.61837 -0.36598,2.34729 1.43867,-0.47955 1.4008,1.4639 0.54265,-1.41342 0.80767,0.42907 0.49218,0.93387 -0.75719,1.61534 -1.43867,0.3786 -0.54265,1.11055 1.82988,0.25239 0.79505,0.83291 1.00959,-3.34426 0.70671,0.21454 0.34073,2.97829 -0.53003,0.80767 1.62796,0.34073 -0.0631,2.24633 3.26854,-0.0126 -0.10096,3.77334 1.5901,1.98132 -0.13881,1.42604 3.89953,0.45431 0.8077,1.07269 0.05,0.87077 -2.14542,1.527 -2.35991,3.00353 -0.13882,4.02573 -2.6123,2.63755 -3.16759,5.01008 1.60272,4.40432 -0.54265,0.5048 v 2.30943 l -0.97173,0.51741 -0.49217,1.53962 0.29025,5.90609 z"
     class="land"
     title="K'akheti"
     id="GE-KA"
     inkscape:connector-curvature="0"
     style="fill:#c46a76;fill-opacity:1;stroke:#ffffff;stroke-width:0.63099241;stroke-opacity:1" />
  <path
     d="m 727.15946,613.24261 4.11407,-3.63452 0.46693,-4.90912 4.46743,-6.66328 5.94395,2.0318 4.8965,0.20191 2.66279,1.16103 3.3695,-1.67844 v 0 l 2.83946,2.57445 7.29427,11.71122 6.56233,-0.46694 1.60272,0.58052 3.14234,7.55929 0.17668,4.78292 2.97828,10.20946 -0.88339,2.04441 -5.2751,6.33517 0.0505,1.28722 2.18324,4.36647 -0.58052,4.20241 2.33468,3.81119 10.84045,1.86774 3.3064,2.83947 0.59313,1.1484 -1.08531,2.90257 3.20544,6.94091 v 0 l -3.44521,-1.32508 -2.67541,1.51438 -4.21503,0.27764 -0.98435,1.11054 -1.23674,3.59666 -3.31902,2.0318 -2.52397,2.56183 -5.11104,1.4008 -4.10145,4.31599 -6.17111,8.88437 -5.07318,2.13276 -3.3695,2.49873 -8.70769,3.1171 -4.61887,4.08883 -1.64058,3.88691 -2.97828,0.0757 -3.3695,-0.89601 -2.53659,0.39122 -2.96567,-2.42301 -2.48611,-0.29026 -2.63755,-1.18627 -1.89297,-3.57141 -0.49218,-0.5048 -1.04744,0.34074 -1.07269,3.1802 0.78243,1.4639 -1.14841,1.00959 -0.29025,2.61231 2.6123,4.44219 6.07015,2.49873 1.55224,1.3377 -0.20191,0.85815 -4.37909,0.0757 -5.01008,-2.10751 -9.59109,1.41342 -3.01614,1.6532 -0.80767,-0.42908 -0.13882,-1.66582 -1.11055,-0.74457 -3.76071,0.5048 -0.85815,-0.2524 -2.01918,-2.56183 -4.5179,0.0883 -2.59969,-0.64361 -1.5901,2.85208 -0.97173,5.48964 -1.06007,1.0222 -1.04744,0.3786 -0.46694,-3.57142 -6.37302,2.53659 -5.84299,-0.88339 -4.90912,2.0318 -2.08228,0.13882 -1.79202,-0.66886 -7.24379,-5.62845 -5.99443,-3.44522 -1.5901,0.55528 -0.64361,3.38212 -0.97173,1.23674 -3.89953,-1.50176 -7.57191,-0.26502 -1.07269,-3.62189 -2.18323,-1.89298 -2.32206,1.95608 -2.25895,-0.30288 -1.81726,-1.66582 -0.85815,0.0379 -0.84553,1.29984 1.26199,3.63452 -1.64058,3.89953 -1.74154,1.36295 -3.3064,0.68147 -11.71122,-0.13882 -7.24379,2.56183 -4.20241,3.97525 v 0 l -1.81726,-6.75162 -0.20192,-6.28468 -4.35385,-6.19635 -1.00958,-2.85208 0.11357,-3.38212 2.95305,-5.94395 -0.0126,-6.04491 -2.30943,-6.22158 -3.39474,-0.5679 -0.59314,-0.68147 -0.0252,-10.58805 -0.79505,-3.41998 0.3786,-2.46087 -4.99746,-3.10448 0.40383,-5.45178 -7.55928,-3.79857 -6.03229,2.13275 -4.40433,0.82029 -12.05195,-0.0252 0.12619,-3.82381 3.45784,-2.18324 1.07269,-3.77333 0.0883,-7.00402 -0.78243,-3.38212 1.527,-5.40129 0.0883,-7.30689 0.98435,-2.73851 1.60272,-0.89601 3.33164,0.0126 10.76473,2.9278 7.15545,-6.72638 2.33467,-3.23068 v 0 l 6.83996,0.15144 3.79858,1.50176 12.51889,0.11358 10.17159,1.61534 2.66279,-0.17668 4.74507,-2.23371 3.04138,0.10096 3.60928,1.60272 5.83037,0.82029 14.76522,-6.66328 5.85561,5.86823 11.8248,0.20192 1.7163,-0.36598 1.6532,-2.30943 -0.70672,-2.96566 v 0 l 7.34476,1.0853 6.18372,2.27158 3.20544,5.74203 3.07925,2.97828 6.6759,0.63099 3.53355,-4.26551 v 0 l 3.63452,1.45129 -1.13579,3.65975 0.42908,0.80767 6.56232,0.0883 4.55577,0.88339 6.71376,5.22462 6.05752,0.3155 7.69811,3.74809 7.82431,-0.87077 4.68196,-2.54921 1.43866,-2.71327 1.57748,-6.60018 -1.09792,-0.44169 -2.78899,0.30288 -2.34729,3.72285 -2.41039,1.48914 -3.8743,-0.1893 -5.86822,-3.31902 -0.58052,-1.09792 -0.11358,-3.79858 -1.61534,-3.33164 -3.86167,-3.23068 0.56789,-1.3377 2.85209,-1.94346 z"
     class="land"
     title="Kvemo Kartli"
     id="GE-KK"
     inkscape:connector-curvature="0"
     style="fill:#c46a76;fill-opacity:1;stroke:#ffffff;stroke-width:0.63099241;stroke-opacity:1" />
  <path
     d="m 749.98876,427.08722 5.57798,0.79505 7.07973,-1.80464 3.82382,0.3786 1.64058,0.78243 13.21298,16.50676 4.9596,4.24027 1.00959,1.55224 1.07268,5.17414 v 0 l -3.1171,3.98787 -4.92174,8.99795 1.47652,5.37606 -0.0757,7.58453 -7.00401,5.98181 -0.0126,5.64107 2.22109,4.90912 0.89601,3.4326 -0.21454,1.67844 -2.25895,3.65976 -7.44571,2.15799 -2.53659,3.88691 -4.85864,4.94698 -0.34074,6.95354 -3.72285,4.24027 -1.69106,5.85561 -0.98435,9.52798 -2.96567,3.77334 2.72589,5.75465 -1.69106,4.20241 2.68803,3.07924 2.39777,5.64108 -3.79857,5.69155 0.896,5.47701 5.69156,1.85512 10.0454,1.91822 3.71023,3.49569 1.45128,3.21807 -6.43612,1.04744 -3.21806,1.29985 -4.9596,-1.57748 -4.10145,-3.69762 -2.62493,-0.59313 -7.19331,6.95353 5.55273,3.40736 1.03483,2.08228 0.10096,3.19282 v 0 l -3.3695,1.67844 -2.66279,-1.16103 -4.8965,-0.20191 -5.94395,-2.0318 -4.46743,6.66328 -0.46693,4.90912 -4.11407,3.63452 v 0 l -3.72286,-0.88339 -4.74506,-3.58404 -4.40433,-1.53962 -2.95304,6.13325 -2.86471,2.04441 -1.69106,0.66885 -3.39474,-1.24936 -1.86774,0.82029 -0.35335,1.22412 0.68147,3.8112 -4.45481,2.06965 -1.72892,3.25592 v 0 l -3.53355,4.26551 -6.6759,-0.63099 -3.07925,-2.97828 -3.20544,-5.74203 -6.18372,-2.27158 -7.34476,-1.0853 v 0 l -1.16102,-4.61887 3.95001,-2.95304 v -4.69459 l -0.79505,-3.89953 0.95911,-3.60928 5.52749,-0.35335 3.72286,0.56789 1.72892,-3.34426 0.0126,-3.77333 -3.1171,-4.35385 -4.66935,-4.8334 -2.47349,-5.11104 -0.22716,-8.88438 -4.84602,-4.8965 -5.50225,0.0126 -9.11153,-2.28419 -2.27158,-0.0252 -3.054,1.06007 -2.41039,4.12669 -3.77334,2.20847 -0.26501,-6.46136 -2.0949,-0.3155 -2.68802,0.61838 -0.5048,-0.42908 0.0757,-4.61886 2.25895,-5.56536 -0.79505,-7.14283 1.53962,-4.44219 -0.55527,-3.47046 2.0318,-3.76071 3.38212,-2.23371 2.6123,-5.61584 4.42957,-2.10751 0.88339,-3.23068 0.0631,-4.20241 -3.97525,-7.2438 0.0505,-5.79251 2.17061,-2.10751 0.0757,-2.81423 -1.9687,-3.76071 -4.07621,-2.25895 -1.19888,-8.12719 -2.65017,-1.29984 -0.41646,-0.89601 1.14841,-3.7481 2.62493,-2.23371 0.47955,-3.33164 3.31902,-3.15496 -2.15799,-4.44219 -3.19282,-1.37556 -1.95608,-2.70065 -0.93387,-1.95608 -0.35335,-3.45783 -2.58707,-0.98435 -4.27813,-0.2524 -3.48308,-3.28116 -1.99394,-3.78595 -0.90862,-3.64714 v 0 l 3.15496,-0.70671 1.82988,-1.40081 1.2746,-4.5179 2.85209,-4.98484 1.13578,-1.60272 3.31902,-2.30943 6.56232,-2.66279 3.15497,-0.54266 7.11759,0.71934 3.14234,-0.26502 9.08629,-6.03229 4.79555,-1.61534 14.36138,1.57748 8.87176,-1.29984 3.72285,0.87077 2.92781,1.5901 3.06662,3.53355 2.83947,15.45932 0.97173,2.14537 2.22109,1.57748 2.30943,0.0505 2.19585,-1.29984 5.04794,-14.10899 4.17717,-6.57494 2.70065,-2.57445 7.34475,-1.16103 6.48661,1.64058 9.52798,8.75818 z"
     class="land"
     title="Mtskheta-Mtianeti"
     id="GE-MM"
     inkscape:connector-curvature="0"
     style="fill:#c46a76;fill-opacity:1;stroke:#ffffff;stroke-width:0.63099241;stroke-opacity:1" />
  <path
     d="m 498.4878,388.44524 6.83996,-1.28722 9.27559,1.02221 3.59665,1.56486 2.53659,2.09489 8.24076,1.36295 6.39827,4.78292 1.7794,4.13931 4.21503,4.48005 1.56486,0.51741 2.23371,-0.61837 2.76375,0.80767 4.99746,4.68196 10.18421,4.68197 1.9056,2.97828 0.0126,3.41998 -5.48963,10.95403 -3.67238,2.49873 -1.36294,1.88036 -0.2524,3.00352 5.77989,8.03884 6.37303,-1.12316 2.13275,2.78898 1.14841,0.3786 3.39474,-1.80464 2.70064,2.19585 2.53659,0.16406 2.32205,0.97173 v 0 l 1.55225,5.22462 -1.70368,6.4235 -10.00754,5.75465 -2.12014,5.23724 -7.35737,2.34729 -7.06712,0.80767 -9.37654,0.0126 -9.35131,2.41039 -1.57748,1.17365 -0.82029,5.86823 v 0 l -5.56535,-1.09793 -7.93789,-3.79857 -9.38917,2.32205 -10.18421,-2.44825 -16.25437,0.69409 -2.28419,2.34729 -5.3382,2.68803 -2.33467,3.77333 -4.54315,3.50832 -5.54011,2.12014 -2.52397,-0.34074 -4.54314,0.85815 -2.82685,1.88036 -5.31296,-4.16455 -3.19282,-1.61534 -5.45177,-0.49218 -0.93387,-2.35991 -0.21454,-3.47046 -1.53962,-3.4957 -6.70114,-6.58756 -2.90257,-1.89297 -3.98787,-1.23675 -2.10751,-2.53659 -2.81423,-1.13579 -1.14841,0.16406 -1.17364,4.01311 -0.60575,0.45432 -4.15193,0.76981 -3.33164,-2.25895 -4.89651,-0.92125 -3.06662,3.88691 -6.39826,2.27157 -3.10448,-0.0883 0.11357,-5.48964 -1.5901,-3.4957 0.82029,-5.99442 -1.96869,-2.86471 v 0 l -2.96567,-7.24379 -8.53102,-13.02369 0.0631,-7.62239 4.05098,-3.1171 -5.55274,-6.94092 -7.33213,-4.10145 -4.82078,-1.22412 -2.18324,-1.28723 -3.23068,-3.00352 -5.42653,-3.16758 -3.07925,-3.685 4.71983,-8.93485 11.59764,-1.45128 2.13275,-2.97829 1.24937,-5.22461 4.24027,-0.23978 6.94091,3.1171 6.90306,0.17668 4.55577,0.90863 6.6759,3.09186 5.31295,0.0505 3.19282,0.70671 8.63198,-5.28772 4.45481,2.10752 6.24682,1.93084 4.48005,3.79857 7.44571,-1.42604 7.77383,-0.0252 3.58403,-0.74457 1.32509,1.47652 0.95911,3.6219 1.41342,0.40383 2.90256,-1.06007 1.95608,-2.08227 0.42908,-10.03278 3.48307,-1.26199 2.43563,-5.09841 7.38262,-5.75466 2.04441,1.24937 v 0 l 10.95403,3.02876 8.74556,4.12669 1.3377,1.40081 2.03179,0.93387 z"
     class="land"
     title="Rach'a-Lechkhumi-Kvemo Svaneti"
     id="GE-RL"
     inkscape:connector-curvature="0"
     style="fill:#c46a76;fill-opacity:1;stroke:#ffffff;stroke-width:0.63099241;stroke-opacity:1" />
  <path
     d="m 508.79822,583.9898 4.53052,-0.66885 2.91519,1.37556 3.65975,0.3155 2.54921,1.99393 3.04139,0.3786 3.19282,1.527 0.83291,1.13579 0.1893,4.16455 3.58403,3.1171 1.29985,5.32558 8.61935,0.30287 -0.0126,2.68803 1.12317,3.41998 3.34426,0.29025 1.7794,0.80768 4.50528,3.76071 4.69459,0.0126 3.1802,-1.48914 5.88085,0.0252 6.47398,1.7794 3.1171,1.77939 0.0126,4.27813 v 0 l -2.33467,3.23068 -7.15545,6.72638 -10.76473,-2.9278 -3.33164,-0.0126 -1.60272,0.89601 -0.98435,2.73851 -0.0883,7.30689 -1.527,5.40129 0.78243,3.38212 -0.0883,7.00402 -1.07269,3.77333 -3.45784,2.18324 -0.12619,3.82381 12.05195,0.0252 4.40433,-0.82029 6.03229,-2.13275 7.55928,3.79857 -0.40383,5.45178 4.99746,3.10448 -0.3786,2.46087 0.79505,3.41998 0.0252,10.58805 0.59314,0.68147 3.39474,0.5679 2.30943,6.22158 0.0126,6.04491 -2.95305,5.94395 -0.11357,3.38212 1.00958,2.85208 4.35385,6.19635 0.20192,6.28468 1.81726,6.75162 v 0 l -2.158,-0.21454 -2.8647,-1.527 h -15.15644 l -10.05802,5.57798 -4.78292,5.03532 -5.74203,-2.0318 -4.56839,-3.20544 -5.79251,2.52397 -3.47046,-0.0379 -5.77989,-4.32861 -1.3377,-0.36598 -3.60928,0.10096 -7.59715,3.82382 h -2.87732 l -2.30944,-6.20897 -2.72588,-3.62189 -4.77031,-1.74154 -4.54314,-2.68803 -2.87733,0.11358 -12.06457,3.87429 -7.13022,1.09793 1.04745,-2.20848 -0.26502,-1.0853 -5.90609,-11.71122 -2.39777,-0.5048 -3.38212,1.79202 -4.37908,-1.67844 7.59715,-4.13931 3.89953,-3.87429 -0.3155,-1.75416 -2.12013,-0.95911 -3.69762,-0.41645 -0.71933,-0.99697 -3.79857,-0.46694 -4.17717,-7.24379 -5.24986,-2.81423 -2.83947,-0.18929 -3.34426,-1.67844 -2.25895,-3.76072 -2.39777,-1.94346 -1.4008,-3.89953 -1.57748,-1.35032 v -2.49873 l -0.58052,-1.03483 -3.67237,-1.32508 -2.0318,-2.85209 -3.98787,-1.62796 -0.36598,-3.63452 -0.99697,-0.89601 -2.90256,0.17668 -1.45128,0.73195 -0.71933,2.99091 -1.40081,2.22109 -0.73195,0.0379 -5.57797,-3.97525 -0.35336,-2.08228 -2.04441,-2.63755 0.63099,-1.71629 3.44522,-2.13276 -0.36598,-4.31599 3.02877,-2.58707 -0.36598,-2.41039 -1.03483,-0.99697 -5.36343,-0.12619 -1.45129,2.04441 -6.4866,-3.16758 -4.71982,-0.75719 -4.53053,0.13882 -8.40482,2.57445 -2.12013,-0.30288 -2.67541,2.65017 v 0 l -2.62493,-8.49316 -3.28116,-3.38212 -1.56486,-3.01614 -4.02573,-2.53659 -4.24027,-6.75162 -0.85815,-4.74507 3.054,-3.78595 0.11358,-5.3382 -2.59969,-6.90305 v 0 l 7.86217,-0.79505 3.93739,2.30943 3.8112,-0.75719 1.12316,-1.37557 1.13579,-3.96263 1.64058,-1.7794 1.48914,-0.60575 4.02573,0.0379 v 0 l 4.26551,4.74506 2.57445,0.0883 4.17717,1.51438 3.19282,-0.17667 3.31902,-2.81423 5.61584,-2.44825 3.64713,0.1262 3.33164,1.43866 6.04491,0.13882 5.96919,2.32205 1.79202,-0.0757 2.75112,-2.18323 20.31796,-2.57445 3.50832,1.79202 10.90355,-5.18676 11.98885,-3.45784 7.00402,-4.20241 5.60321,-1.1484 4.77031,-3.4957 z"
     class="land"
     title="Samtskhe-Javakheti"
     id="GE-SJ"
     inkscape:connector-curvature="0"
     style="fill:#c46a76;fill-opacity:1;stroke:#ffffff;stroke-width:0.63099241;stroke-opacity:1" />
  <path
     d="m 622.23804,442.28152 0.90862,3.64714 1.99394,3.78595 3.48308,3.28116 4.27813,0.2524 2.58707,0.98435 0.35335,3.45783 0.93387,1.95608 1.95608,2.70065 3.19282,1.37556 2.15799,4.44219 -3.31902,3.15496 -0.47955,3.33164 -2.62493,2.23371 -1.14841,3.7481 0.41646,0.89601 2.65017,1.29984 1.19888,8.12719 4.07621,2.25895 1.9687,3.76071 -0.0757,2.81423 -2.17061,2.10751 -0.0505,5.79251 3.97525,7.2438 -0.0631,4.20241 -0.88339,3.23068 -4.42957,2.10751 -2.6123,5.61584 -3.38212,2.23371 -2.0318,3.76071 0.55527,3.47046 -1.53962,4.44219 0.79505,7.14283 -2.25895,5.56536 -0.0757,4.61886 0.5048,0.42908 2.68802,-0.61838 2.0949,0.3155 0.26501,6.46136 3.77334,-2.20847 2.41039,-4.12669 3.054,-1.06007 2.27158,0.0252 9.11153,2.28419 5.50225,-0.0126 4.84602,4.8965 0.22716,8.88438 2.47349,5.11104 4.66935,4.8334 3.1171,4.35385 -0.0126,3.77333 -1.72892,3.34426 -3.72286,-0.56789 -5.52749,0.35335 -0.95911,3.60928 0.79505,3.89953 v 4.69459 l -3.95001,2.95304 1.16102,4.61887 v 0 l 0.70672,2.96566 -1.6532,2.30943 -1.7163,0.36598 -11.8248,-0.20192 -5.85561,-5.86823 -14.76522,6.66328 -5.83037,-0.82029 -3.60928,-1.60272 -3.04138,-0.10096 -4.74507,2.23371 -2.66279,0.17668 -10.17159,-1.61534 -12.51889,-0.11358 -3.79858,-1.50176 -6.83996,-0.15144 v 0 l -0.0126,-4.27813 -3.1171,-1.77939 -6.47398,-1.7794 -5.88085,-0.0252 -3.1802,1.48914 -4.69459,-0.0126 -4.50528,-3.76071 -1.7794,-0.80768 -3.34426,-0.29025 -1.12317,-3.41998 0.0126,-2.68803 -8.61935,-0.30287 -1.29985,-5.32558 -3.58403,-3.1171 -0.1893,-4.16455 -0.83291,-1.13579 -3.19282,-1.527 -3.04139,-0.3786 -2.54921,-1.99393 -3.65975,-0.3155 -2.91519,-1.37556 -4.53052,0.66885 v 0 l -0.82029,-4.24027 0.9591,-2.76375 8.55626,-7.33213 0.10096,-12.00148 0.78243,-3.41997 7.43309,-4.15193 3.52094,-5.12366 2.75113,-8.65722 3.78595,-2.19585 0.85815,-4.17717 0.0252,-4.24027 -1.55224,-5.35082 1.7794,-4.60624 3.72285,-2.2211 3.91216,-4.50528 5.43915,-0.32812 3.53356,-2.05703 4.9596,-1.12317 -0.99697,-4.12669 3.1171,-8.29124 -2.01917,-3.96263 -1.7794,-0.78243 -3.10448,0.0631 -4.30337,2.88994 -3.92477,1.66582 -9.50275,-1.76678 -3.21806,-2.90256 v 0 l 0.82029,-5.86823 1.57748,-1.17365 9.35131,-2.41039 9.37654,-0.0126 7.06712,-0.80767 7.35737,-2.34729 2.12014,-5.23724 10.00754,-5.75465 1.70368,-6.4235 -1.55225,-5.22462 v 0 l 7.04188,2.33467 2.27157,-0.66885 6.72638,-6.82734 2.75113,-1.9056 3.77333,0.46694 7.93789,-2.47349 3.16758,0.92125 2.13276,-0.20192 z"
     class="land"
     title="Shida Kartli"
     id="GE-SK"
     inkscape:connector-curvature="0"
     style="fill:#c46a76;fill-opacity:1;stroke:#ffffff;stroke-width:0.63099241;stroke-opacity:1" />
  <path
     d="m 241.72436,525.66086 1.19889,0.71933 0.65623,-0.27764 0.70671,1.50177 -1.61534,2.39777 -0.49218,-0.16406 z m 122.17275,-205.77926 -0.56789,1.50176 0.70671,1.38818 9.23773,2.78899 12.05196,7.07973 4.15193,1.33771 1.5901,1.38818 7.04187,2.81423 0.45432,-2.23372 -1.82988,-4.05097 0.93387,-1.2115 3.25592,0.41645 9.45227,-2.72588 2.19585,-0.0505 1.67844,0.32811 2.75113,1.99394 4.60624,-0.60575 3.3064,1.16102 4.42957,0.27764 0.97173,3.68499 4.7072,2.78899 -0.84553,4.65672 8.98533,1.12317 7.90003,3.91215 0.13882,0.74458 -2.2842,4.05097 0.36598,3.48307 1.38818,2.32206 3.57142,3.81119 7.92527,5.45178 8.15242,7.40786 3.04138,3.93739 v 0 l -2.05703,-1.24937 -7.38262,5.74204 -2.42301,5.09841 -3.49569,1.27461 -0.42908,10.02016 -1.95608,2.08227 -2.90256,1.06007 -1.41342,-0.40383 -0.97173,-3.60928 -1.32509,-1.47652 -3.58403,0.74457 -7.76121,0.0126 -7.44571,1.42604 -4.48005,-3.79857 -6.25944,-1.93084 -4.45481,-2.10751 -8.61936,5.28771 -3.19282,-0.69409 -5.31295,-0.0631 -6.6759,-3.09186 -4.55577,-0.90863 -6.91568,-0.17668 -6.92829,-3.1171 -4.25289,0.23978 -1.24937,5.22461 -2.13275,2.99091 -11.59764,1.45128 -4.71982,8.93485 3.07924,3.685 5.42653,3.16758 3.2433,3.01614 2.18324,1.28723 4.80816,1.22412 7.33213,4.10145 5.55274,6.95354 -4.0636,3.10448 -0.0505,7.62239 8.53102,13.02369 2.96567,7.25641 v 0 l -3.96264,-0.1262 -2.91518,1.47652 -7.01664,0.1262 -2.28419,3.5588 -3.14234,2.46087 -0.40384,5.56535 -3.79857,2.86471 -0.27764,10.72687 -4.24027,5.11104 -6.34778,5.50225 -3.685,7.26904 -6.5497,10.37351 0.16406,4.21503 -4.46743,1.56486 0.631,3.31902 0.0126,14.15947 -0.99697,5.62845 -3.28116,2.32206 -4.8334,-0.45432 v 0 l -0.82029,-1.72892 v 0 l -2.58707,-1.03483 v 0 l -12.78391,-1.61534 -5.83037,-5.23723 -7.81169,-1.94346 -1.82987,-0.99697 -4.85865,1.08531 -7.15545,-0.0126 -3.16758,1.3377 -7.95051,1.67844 v 0 h -10.87831 v 0 l -4.90912,1.42605 v 0 l -2.32205,-1.67844 -4.26551,0.22715 -1.41342,-0.55527 -1.32509,0.44169 1.28723,1.89298 0.45431,3.88692 0.94649,1.99393 -0.20192,1.06007 -1.11054,0.71933 -6.17111,-7.88741 -0.49217,-2.72588 -1.32509,-0.83291 1.19889,-2.05704 -2.10752,-4.06359 1.74154,-3.39474 1.32509,-0.27763 -4.63149,-2.83947 1.45129,-3.00352 0.20191,-3.18021 -2.72588,-12.14029 -4.79555,-13.99541 -4.84602,-3.12973 0.61837,-2.6754 2.48611,-0.27764 0.36598,-0.61837 -3.06662,0.78243 -0.58052,2.46087 -1.03482,-3.07924 v 0 l 10.63853,-5.3382 6.81472,-8.12718 6.37302,-1.85512 9.47751,-4.61887 8.46792,-5.80513 6.34778,-7.05449 5.212,-7.60977 2.52397,-0.84553 2.17061,-1.57748 1.61534,-5.67893 0.0126,-4.8334 -1.88036,-3.05401 -2.97828,-3.06662 -1.32509,-3.25592 -0.16405,-10.19684 -0.82029,-5.77989 -0.71933,-2.83947 -2.0318,-2.42301 2.43563,-3.50832 3.3695,-1.51438 1.7794,-3.84905 -1.31247,-1.7794 -0.50479,-3.57142 -2.12013,-2.34729 0.60575,-8.48054 -3.73548,-0.73195 -1.53962,-4.98485 0.70671,-0.94649 3.10449,-1.43866 6.52446,-1.23675 4.15193,-1.99393 8.27862,-1.03483 3.53356,-1.23674 2.06965,-5.50226 5.67893,-5.07318 3.92478,-8.69507 0.93387,-3.58404 -1.52701,-4.07621 0.0126,-5.07318 3.8112,-9.7299 v 0 l 4.8334,0.16405 3.79857,-2.41039 1.21151,-0.0126 2.94042,0.82029 3.4326,3.23069 3.63452,0.34073 4.40433,-3.67237 4.20241,0.11357 1.89297,-3.04138 5.22462,-0.69409 4.79554,-1.99394 2.42301,0.3155 3.31902,2.49873 0.23978,0.98435 z"
     class="land"
     title="Samegrelo-Zemo Svaneti"
     id="GE-SZ"
     inkscape:connector-curvature="0"
     style="fill:#c46a76;fill-opacity:1;stroke:#ffffff;stroke-width:0.63099241;stroke-opacity:1" />
  <path
     d="m 695.66031,626.01389 1.72892,-3.25592 4.45481,-2.06965 -0.68147,-3.8112 0.35335,-1.22412 1.86774,-0.82029 3.39474,1.24936 1.69106,-0.66885 2.86471,-2.04441 2.95304,-6.13325 4.40433,1.53962 4.74506,3.58404 3.72286,0.88339 v 0 l -2.59969,3.04138 -2.85209,1.94346 -0.56789,1.3377 3.86167,3.23068 1.61534,3.33164 0.11358,3.79858 0.58052,1.09792 5.86822,3.31902 3.8743,0.1893 2.41039,-1.48914 2.34729,-3.72285 2.78899,-0.30288 1.09792,0.44169 -1.57748,6.60018 -1.43866,2.71327 -4.68196,2.54921 -7.82431,0.87077 -7.69811,-3.74809 -6.05752,-0.3155 -6.71376,-5.22462 -4.55577,-0.88339 -6.56232,-0.0883 -0.42908,-0.80767 1.13579,-3.65975 z"
     class="land"
     title="Tbilisi"
     id="GE-TB"
     inkscape:connector-curvature="0"
     style="fill:#c46a76;fill-opacity:1;stroke:#ffffff;stroke-width:0.63099241;stroke-opacity:1" />
  <g
     id="stadiums"
     data-country="georgia"
     data-circle-radius="6"
     data-circle-colors="#a149be,#bea149"
     transform="matrix(1.2619849,0,0,1.2619849,0.02494337,-6.325297)" />
</svg>
