<?xml version="1.0" encoding="UTF-8" standalone="no"?>
<!-- (c) ammap.com | SVG map of Germany -->

<svg
   xmlns:amcharts="http://amcharts.com/ammap"
   xmlns:dc="http://purl.org/dc/elements/1.1/"
   xmlns:cc="http://creativecommons.org/ns#"
   xmlns:rdf="http://www.w3.org/1999/02/22-rdf-syntax-ns#"
   xmlns:svg="http://www.w3.org/2000/svg"
   xmlns="http://www.w3.org/2000/svg"
   xmlns:sodipodi="http://sodipodi.sourceforge.net/DTD/sodipodi-0.dtd"
   xmlns:inkscape="http://www.inkscape.org/namespaces/inkscape"
   version="1.1"
   id="svg24"
   sodipodi:docname="germanyLow.svg"
   width="739.34473"
   height="1000"
   inkscape:version="0.92.4 (5da689c313, 2019-01-14)">
  <metadata
     id="metadata28">
    <rdf:RDF>
      <cc:Work
         rdf:about="">
        <dc:format>image/svg+xml</dc:format>
        <dc:type
           rdf:resource="http://purl.org/dc/dcmitype/StillImage" />
        <dc:title></dc:title>
      </cc:Work>
    </rdf:RDF>
  </metadata>
  <sodipodi:namedview
     pagecolor="#ffffff"
     bordercolor="#666666"
     borderopacity="1"
     objecttolerance="10"
     gridtolerance="10"
     guidetolerance="10"
     inkscape:pageopacity="0"
     inkscape:pageshadow="2"
     inkscape:window-width="1920"
     inkscape:window-height="1017"
     id="namedview26"
     showgrid="false"
     fit-margin-top="0"
     fit-margin-left="0"
     fit-margin-right="0"
     fit-margin-bottom="0"
     inkscape:zoom="0.5"
     inkscape:cx="982.21671"
     inkscape:cy="652.65246"
     inkscape:window-x="-8"
     inkscape:window-y="-8"
     inkscape:window-maximized="1"
     inkscape:current-layer="svg24" />
  <defs
     id="defs4">
    <style
       type="text/css"
       id="style2">
			.land
			{
				fill: #CCCCCC;
				fill-opacity: 1;
				stroke:white;
				stroke-opacity: 1;
				stroke-width:0.5;
			}
		</style>
    <amcharts:ammap
       projection="mercator"
       leftLongitude="5.864765"
       topLatitude="55.051693"
       rightLongitude="15.043380"
       bottomLatitude="47.269299" />
    <!-- All areas are listed in the line below. You can use this list in your script. -->
    <!--{id:"DE-BW"},{id:"DE-BY"},{id:"DE-BE"},{id:"DE-BB"},{id:"DE-HB"},{id:"DE-HH"},{id:"DE-HE"},{id:"DE-MV"},{id:"DE-NI"},{id:"DE-NW"},{id:"DE-RP"},{id:"DE-SL"},{id:"DE-SN"},{id:"DE-ST"},{id:"DE-SH"},{id:"DE-TH"}-->
  </defs>
  <path
     style="fill:#cccccc;fill-opacity:1;stroke:#ffffff;stroke-width:0.63137263;stroke-opacity:1"
     inkscape:connector-curvature="0"
     d="m 228.87496,946.99667 0.7324,2.63914 -4.38173,0.16416 z m 32.08634,-226.66294 10.93536,-0.41671 5.20251,-9.15491 8.25835,1.19961 1.04808,-8.20785 -2.61388,-2.39922 -2.32345,3.3084 1.22486,-3.05585 -6.26321,-1.19961 1.5658,-3.69985 15.06454,-2.56337 4.81106,5.50557 0.45459,-4.77318 6.60415,-1.08596 -1.94463,10.82174 2.27294,2.13404 4.58376,-4.98785 2.10879,4.88683 5.02572,-5.34142 5.82125,14.93829 -4.89945,6.88196 3.83875,1.2375 4.52062,-4.54589 0.97231,12.0466 7.33655,-0.11365 3.7251,-7.5891 4.64689,4.59639 -2.23505,7.63962 5.44243,6.40212 -4.39435,2.0709 4.01552,12.19813 -3.7756,2.65177 1.14909,7.22291 9.9378,6.22534 -3.10635,5.85914 3.30839,1.13647 -0.0126,6.31373 7.8669,1.5153 8.76345,13.59977 -2.74016,1.3764 2.44973,5.72024 -2.98008,13.62503 6.28847,7.22291 -6.75569,3.15686 2.19718,-3.85137 -2.41184,-0.55561 -3.81349,5.3793 -7.42494,-6.01067 -1.12384,4.58376 5.4298,6.84409 -0.94706,10.37977 -6.11168,1.38902 -5.16462,6.47789 -5.17726,-2.37396 -5.54344,2.23506 -5.35404,9.77365 7.60172,11.64252 5.72023,20.41861 -4.69741,29.42199 4.79843,6.78094 -5.97278,2.67703 4.38172,3.24525 1.03545,9.87468 -4.35646,4.54589 -3.99028,-5.59397 -5.03835,4.14181 -9.02862,-3.14424 -8.01843,7.87954 -9.2054,1.09858 -3.11898,6.51578 v 0 l -41.02657,-15.70857 -15.6454,3.75036 -6.89458,-10.69546 -3.09373,2.31082 1.76784,5.25303 -5.26564,-2.26032 -0.31569,-8.49828 -2.3487,1.03545 -3.19474,-5.24039 -2.03302,4.92471 -0.92181,-4.77318 -4.07866,-1.09859 0.73239,3.18212 -7.42494,1.40164 -6.28846,11.47837 5.61921,4.14181 10.36713,-4.00291 1.86886,2.96745 -4.20494,6.28848 -4.53325,-4.54589 -5.05098,3.76299 2.4371,2.86643 -8.37199,1.33851 -14.3069,-6.51577 -9.2938,7.51334 -11.81928,1.64157 -4.0913,-5.16463 -5.60658,-0.0758 -10.41764,6.60417 -4.69741,-3.43467 4.15443,-0.54298 0.51772,-4.12918 -8.20784,1.30062 -6.32635,-12.81687 2.92957,-4.33122 0.69451,-17.37539 5.2909,-11.13742 -4.25545,-7.47546 0.59349,-10.37977 9.35694,-21.84551 4.15443,-3.06847 -0.98494,-8.11946 8.58666,-29.8892 10.68281,-14.13013 9.45796,-5.50558 11.5036,-19.96401 v 0 l 10.17772,-16.49147 2.55075,-16.42833 7.86689,-7.41232 -3.06847,-3.66196 4.59639,-13.57452 -5.2025,-1.88149 -1.62894,-16.51672 v 0 l 4.25545,0.0379 6.89458,8.54879 4.41961,-3.29577 -1.66683,-8.52353 7.81639,-1.67946 0.77027,10.83437 9.74839,1.37639 0.74502,4.05341 5.37929,-1.36376 -1.76784,4.43224 -4.11655,-0.16416 -1.94462,7.14714 3.88925,1.85624 8.04368,-7.43757 0.12628,-5.97279 14.06697,-1.60369 -4.30596,-5.94754 z"
     class="land"
     title="Baden-Wurttemberg"
     id="DE-BW" />
  <path
     style="fill:#cccccc;fill-opacity:1;stroke:#ffffff;stroke-width:0.63137263;stroke-opacity:1"
     inkscape:connector-curvature="0"
     d="m 336.5113,602.98672 5.36666,-5.98542 2.76541,2.65177 4.91208,-1.43953 2.28556,5.44244 7.90478,2.15929 5.21514,12.60221 4.59639,-0.98494 3.15686,5.84651 4.25545,-1.09859 4.44486,3.8135 0.63137,12.98103 8.80133,3.20737 1.18698,-5.85914 9.25591,0.8713 -0.0884,-3.87663 -10.41764,-5.70762 -0.20204,-3.15686 9.55898,-5.84652 8.33411,0.0126 3.93976,5.60659 10.49341,-2.37396 3.42204,4.54589 -0.94706,5.63184 8.47301,2.14667 2.66439,-11.5415 -2.95482,-14.95091 3.47255,0.40408 4.43223,-5.69499 6.84408,1.19961 -0.84604,8.44777 1.81835,3.09373 3.22,-1.30063 3.15686,6.98299 20.70901,-5.61922 3.66195,3.78824 7.93004,-4.26809 v 0 l 4.79843,4.40699 -0.46722,4.74792 9.9378,4.10393 v 0 l 3.15686,5.31616 -3.90188,3.29577 9.98831,10.15248 -1.30063,7.42494 6.0738,4.11656 -1.12384,2.26031 18.43607,9.63476 -0.97231,5.63184 5.59395,1.90675 -6.02329,16.69351 -5.55607,5.46769 9.49584,6.95773 0.50509,8.4604 2.61388,-0.18941 2.36134,10.10197 4.36909,1.78047 1.06071,11.01115 8.05631,4.89945 1.8436,5.89703 13.17043,0.36619 6.83144,4.92471 12.07184,20.54488 8.90235,2.27295 8.38462,7.9553 0.79553,8.19522 7.39968,5.55608 2.9422,-4.0029 7.84164,3.04322 3.39678,8.42251 5.34141,-0.71976 8.19521,13.9786 -3.64933,6.85671 3.44729,2.04565 -1.14909,10.22824 -7.3618,12.07186 -17.91835,-9.11703 -5.63184,3.82612 v 15.45601 l -8.4225,12.65272 -25.19175,8.22048 -21.1636,15.83484 0.34094,6.44 9.02862,13.18307 5.12675,2.36134 5.26564,11.22581 -7.69011,15.02668 h 8.77607 l 5.11412,4.35647 -2.74016,23.20928 -3.51043,3.34628 -16.56721,-10.94801 -1.30062,-3.05585 3.53568,-3.68722 -5.26564,-4.60902 1.90674,-2.65177 -14.33215,0.0884 -2.33607,4.77319 -6.31373,0.9218 -4.72266,-8.3215 -14.8625,1.90675 -0.26518,-7.60173 -7.14713,5.08886 3.19474,11.16268 -15.56964,-2.27294 -13.19568,5.13937 -16.73136,-1.50266 -5.16462,9.43271 -11.25106,0.20204 -3.96501,4.86157 3.01796,3.29577 -6.78094,-0.54298 -5.5687,6.18746 -3.5862,0.23992 2.33608,-3.90189 -3.82612,-0.68188 -7.24815,4.43224 -11.18791,-0.21467 -3.33365,-9.77365 -5.32878,-0.17679 3.88925,-3.66196 -2.39921,-2.84118 -8.7887,2.7149 -14.38266,-6.47789 -2.10879,4.15444 -3.9145,-0.15153 -5.46769,-2.4371 2.04565,-3.52306 -3.43467,0.10102 3.01796,17.93099 -3.19474,6.1117 -8.5109,9.016 -12.4254,4.20495 4.91207,-13.30935 -4.35646,-1.26274 -6.81882,4.47012 -0.41671,-11.64252 -7.48807,-3.51044 -2.4371,-7.51334 -7.81639,2.13405 -4.73529,-2.36134 -1.13647,-5.60659 -5.22776,7.33655 -10.948,-1.70471 v 0 l 3.11898,-6.52839 9.20541,-1.08596 8.01843,-7.89217 9.02862,3.14424 5.03835,-4.14181 3.99027,5.59397 4.35647,-4.54589 -1.03545,-9.87467 -4.38172,-3.24526 5.97278,-2.67702 -4.79843,-6.78095 4.69741,-29.42199 -5.70761,-20.4186 -7.60172,-11.65515 5.35404,-9.77366 5.54345,-2.23506 5.17725,2.37397 5.16462,-6.47789 6.11169,-1.38902 0.94705,-10.37978 -5.4298,-6.85671 1.11122,-4.58377 7.42493,6.01067 3.81349,-5.39192 2.41184,0.56823 -2.19717,3.85138 6.75568,-3.15687 -6.28847,-7.23553 2.98008,-13.62503 -2.46235,-5.72024 2.75278,-1.3764 -8.77607,-13.59977 -7.8669,-1.5153 0.0126,-6.31373 -3.30839,-1.13647 3.10635,-5.85914 -9.95043,-6.22534 -1.14909,-7.22291 3.7756,-2.66439 -4.01552,-12.18551 4.39435,-2.0709 -5.44243,-6.41475 2.23505,-7.62699 -4.65952,-4.59639 -3.7251,7.5891 -7.32392,0.10102 -0.98494,-12.03397 -4.50799,4.53326 -3.83875,-1.23749 4.89945,-6.88197 -5.82125,-14.92566 -5.02572,5.32879 -2.10879,-4.88683 -4.57113,4.98785 -2.27294,-2.13404 1.94463,-10.82174 -6.60416,1.08596 -0.46721,4.77319 -4.79843,-5.50558 -15.06454,2.56338 -1.56581,3.69984 6.26322,1.19961 -1.22487,3.05585 2.32345,-3.29577 2.60126,2.38659 -1.04808,8.22048 -8.25835,-1.21224 -5.21513,9.15491 -10.92274,0.42934 v 0 l -2.90431,-5.21515 6.50313,-15.06456 -3.25788,-2.22243 2.18455,-2.90432 -3.56094,-1.13647 -0.35357,-6.86934 -4.0029,0.31569 -1.45216,-16.68088 2.51287,-1.94463 -1.6542,-5.84651 -4.20494,-0.95969 1.70471,-5.45506 9.78627,-4.34385 2.60125,4.35647 5.59396,-7.18502 11.97081,2.2098 5.12675,5.87177 6.30109,-1.27537 -0.97231,-18.39821 13.2083,1.02282 -0.82078,-4.7353 7.43756,-4.86157 1.23749,-14.53421 11.26368,2.68965 9.40745,-7.94267 z"
     class="land"
     title="Bavaria"
     id="DE-BY" />
  <path
     style="fill:#cccccc;fill-opacity:1;stroke:#ffffff;stroke-width:0.63137263;stroke-opacity:1"
     inkscape:connector-curvature="0"
     d="m 612.92605,324.80373 0.0884,0.0505 v 0 l 3.68721,3.10636 -1.17435,6.9451 11.85717,8.27099 -3.69984,7.66487 11.89505,3.76298 -8.90235,13.76394 -0.31568,-5.03836 -13.20831,-2.48761 -1.07333,-3.15687 -3.73773,1.30063 -0.0252,4.48275 -9.84941,-5.34141 -13.65027,3.39678 -2.94219,-2.84118 6.2127,-12.85475 -4.01552,-0.99757 0.93443,-9.16754 7.07137,-0.17678 0.32831,-5.31617 3.45992,0.0758 1.55317,-4.44487 6.1622,4.92471 8.9276,-3.64933 -0.9218,-2.42448 v 0 l 1.14909,-0.66925 v 0 l 0.47985,0.1389 v 0 z"
     class="land"
     title="Berlin"
     id="DE-BE" />
  <path
     style="fill:#cccccc;fill-opacity:1;stroke:#ffffff;stroke-width:0.63137263;stroke-opacity:1"
     inkscape:connector-curvature="0"
     d="m 435.09375,264.38133 10.12721,1.50267 2.27294,-3.99028 8.94023,2.09616 1.51529,-11.31421 9.34431,-4.7353 5.12675,3.5862 6.9956,-0.94706 -1.74259,-3.81349 5.12674,0.60612 13.09466,-6.99562 1.932,-9.66001 9.95043,4.38173 4.89945,-2.58863 2.24768,4.71005 10.79647,3.18212 4.20494,6.86934 17.42587,-0.56824 1.80572,3.66197 5.78337,0.37882 1.07333,4.82369 15.74643,-1.75522 -1.70471,3.47255 5.00047,1.09859 11.6425,-11.13742 6.51577,4.58377 5.58133,-8.61193 8.51089,4.30597 2.47498,-6.74307 3.82612,0.7829 3.01796,-3.67459 2.29819,-10.63232 6.08643,-1.56581 7.05874,-9.60949 7.94266,-0.54299 -3.06847,-3.93976 1.47741,-6.04856 6.78094,7.32393 3.14424,11.1753 26.06304,-0.84604 -1.12384,9.3317 -10.31662,13.09468 13.17042,0.35357 4.508,-6.90723 7.58909,-2.62651 v 0 l 2.82855,9.11703 -5.68235,8.51091 -1.03545,16.20103 -17.64054,15.64543 1.31325,10.20299 -3.04321,6.1622 18.39819,11.61726 23.05771,23.61336 -2.75278,5.08886 2.37395,5.65711 -7.98054,12.58958 4.68478,15.9106 9.76102,4.92471 -2.576,15.73382 6.20007,6.62942 -5.13937,21.40354 -8.37199,9.68527 13.41034,21.66872 -2.18455,10.07672 v 0 l -2.67701,-2.03303 -1.41428,5.75813 -5.16462,0.37882 -3.82612,-3.90188 -14.42054,4.96259 -4.43223,4.96259 -15.74642,-5.152 -3.99028,8.54879 -4.38172,0.1389 2.2982,3.9524 -5.13937,9.23067 -3.18212,-3.00534 -14.95089,4.36911 -18.52446,-0.88393 -11.57937,-10.77122 -1.69208,3.62408 -4.40698,-1.47741 -4.53325,6.69255 -4.21756,-1.45216 -3.16949,-4.09129 2.58862,-12.37492 -5.12674,-5.796 1.41427,-3.20738 -8.7003,-6.81883 v 0 l 10.70807,-9.11702 -3.77561,-21.13838 -7.82901,1.12385 0.31568,-3.75036 -5.83388,0.0631 -1.22486,-4.65953 h -8.52352 l -0.59349,-4.26809 -5.22776,0.66926 -8.7382,-6.41475 -4.73529,3.90188 -5.83388,-0.45458 -4.87419,-6.21272 -3.58619,2.22244 -17.4385,-19.92614 6.36423,-7.728 -4.16706,-3.13161 4.97521,-12.37492 -2.72752,-9.00338 4.62164,-8.30887 -7.12188,-5.83388 -4.60901,3.3589 0.36619,-4.86157 -3.71247,0.30306 2.0709,-12.58958 4.81106,-0.53036 -2.47498,-11.79405 4.73529,-11.49099 -1.94462,-7.50071 -3.16949,-2.2098 -5.55608,3.37153 -0.15153,-5.39193 -11.61725,2.4371 -11.81928,-4.52063 0.79553,-5.72024 -8.20784,-4.89946 -3.82612,1.55318 -1.38902,-4.10392 -4.07866,-0.46722 1.11121,-3.56094 -3.18211,0.30306 v 0 l -11.74353,-5.73287 -9.2054,3.0811 z m 177.41559,62.69535 -8.9276,3.64933 -6.1622,-4.92471 -1.55317,4.44487 -3.45992,-0.0758 -0.31569,5.31617 -7.07137,0.18941 -0.94705,9.16754 4.01552,0.98494 -6.2127,12.86738 2.94219,2.84118 13.63764,-3.39679 9.84941,5.34142 0.0253,-4.48275 3.73772,-1.30063 1.07333,3.15687 13.19568,2.48761 0.31569,5.03835 8.90234,-13.76393 -11.89505,-3.75035 3.69984,-7.6775 -11.85717,-8.27099 1.17436,-6.9451 -3.68722,-3.10636 v 0 l 0.21467,-0.73239 v 0 l -0.47984,-0.12628 v 0 l -1.1491,0.65663 z"
     class="land"
     title="Brandenburg"
     id="DE-BB" />
  <path
     style="fill:#cccccc;fill-opacity:1;stroke:#ffffff;stroke-width:0.63137263;stroke-opacity:1"
     inkscape:connector-curvature="0"
     d="m 211.62587,250.40273 0.90918,-0.12628 v 0 l 7.80376,2.13404 -1.55317,2.75279 3.52305,2.58863 16.59246,1.04808 2.74016,4.39436 6.52839,-2.76542 3.10635,3.4473 -2.82855,1.37639 3.34627,2.53812 -0.69451,6.83146 -3.69984,4.31859 -5.55607,-3.51043 -3.54831,2.65176 -4.02816,-4.41961 -4.33121,1.85624 -7.98055,-17.09758 -8.73819,-4.0913 v 0 0 0 l -1.65419,-4.0913 v 0 z m 2.44973,-51.05283 11.23842,-0.55561 -3.42203,4.74793 1.21223,10.69546 -4.72266,1.26274 -1.47741,-5.03835 v 0 l 1.79309,-2.32346 z"
     class="land"
     title="Bremen"
     id="DE-HB" />
  <path
     style="fill:#cccccc;fill-opacity:1;stroke:#ffffff;stroke-width:0.63137263;stroke-opacity:1"
     inkscape:connector-curvature="0"
     d="m 311.38268,205.92881 3.29577,-10.13986 5.24038,6.12432 5.6571,-8.90236 5.82125,0.82079 1.61631,-4.71005 5.35404,0.42934 1.26274,-5.7455 7.084,-2.47498 1.932,1.99514 -3.95239,6.21271 6.26321,5.96016 -1.8436,6.50315 -3.864,1.7047 0.89655,6.85671 3.96501,0.23993 9.26855,9.71051 -1.4269,2.08354 v 0 l -5.59396,5.02573 h -5.17725 l -9.86204,-9.06652 -5.40454,6.37687 -5.59396,0.31568 -0.95969,-5.69498 -3.37152,3.53569 -4.39436,-4.48275 -2.63913,-12.22339 z"
     class="land"
     title="Hamburg"
     id="DE-HH" />
  <path
     style="fill:#cccccc;fill-opacity:1;stroke:#ffffff;stroke-width:0.63137263;stroke-opacity:1"
     inkscape:connector-curvature="0"
     d="m 288.95634,458.56644 14.06697,1.36376 5.12675,7.61436 -4.83631,-0.9218 1.35113,4.20494 -3.30839,-1.23749 -1.59106,5.72024 4.59639,5.97279 0.10102,6.71781 -5.30352,2.18455 -0.77028,5.03836 -2.98007,-0.644 2.41184,2.85381 13.89019,6.37686 3.10635,-5.32878 -2.68965,2.2098 -2.98008,-5.69498 7.77851,-2.77805 -0.23992,-2.89168 5.59396,4.69741 -1.16173,-5.53083 4.10392,-0.39145 2.10878,5.42981 v 0 l 3.56094,11.65515 6.69255,0.75765 1.0607,6.6673 13.54925,5.24039 -3.06847,9.3317 -2.65176,-5.13938 -3.7251,1.76784 4.43224,2.92958 -2.68965,7.24816 5.18988,3.10635 -0.0758,3.49781 -13.2967,-0.66925 -1.59106,4.02816 3.52306,4.68478 -9.09176,0.31569 3.01796,1.33851 -1.30063,3.01797 3.24525,-1.75522 3.90188,5.00047 -2.67702,6.1117 -5.99803,1.7047 -6.14957,22.91885 6.7178,1.37639 -0.5051,-4.78581 8.08157,-0.47984 2.29819,6.13694 -3.64933,1.50267 0.37883,11.94558 v 0 l -1.89412,6.23797 -9.40745,7.94267 -11.26368,-2.68965 -1.23749,14.53421 -7.43756,4.86157 0.82078,4.7353 -13.2083,-1.02282 0.97231,18.39821 -6.30109,1.27537 -5.12675,-5.87177 -11.97081,-2.2098 -5.59396,7.18502 -2.60125,-4.35647 -9.78627,4.34385 -1.70471,5.45506 4.20494,0.95969 1.6542,5.84651 -2.51287,1.94463 1.45216,16.68088 4.0029,-0.31569 0.35357,6.86934 3.56094,1.13647 -2.18455,2.90432 3.25788,2.22243 -6.50313,15.06456 2.90431,5.21515 v 0 l -2.47498,1.55317 4.30596,5.94754 -14.05435,1.61631 -0.12627,5.96017 -8.04368,7.43757 -3.88926,-1.85624 1.94463,-7.14714 4.11655,0.16416 1.76784,-4.44487 -5.37929,1.36377 -0.74502,-4.05342 -9.74839,-1.37639 -0.77027,-10.82174 -7.81639,1.67946 1.66682,8.52353 -4.4196,3.29577 -6.89459,-8.54879 -4.25545,-0.0379 v 0 l -5.08886,-13.43562 9.66,-8.70033 -4.47012,-0.79553 -3.52305,-6.75569 -4.62165,-19.11798 -11.12478,-7.32392 -24.01739,7.90479 -9.00337,-10.70809 5.18988,-3.28314 1.11121,-5.40455 6.27584,3.04321 0.20204,-5.18988 -3.87662,-3.04322 2.08352,-4.38173 6.27584,-4.31859 3.59883,2.74016 0.30305,-6.90722 5.64447,1.32588 1.02282,-4.84895 -4.77317,-9.44534 -7.74062,-4.62165 3.76298,-5.35404 -1.25012,-9.04127 3.88925,-4.12918 4.79843,3.0306 2.60125,-2.19718 -0.89654,-17.00919 v 0 l 3.44729,-6.16221 -2.70228,-7.02086 10.69545,-11.59201 7.41231,2.50023 8.1447,-7.36181 -0.1389,-5.98541 6.3516,-6.83146 -2.80329,-7.74064 17.53952,-3.81349 -1.94463,-3.51043 5.73286,-9.16754 -3.66196,-8.30887 -10.16509,3.40941 -3.09372,-3.87663 5.0636,-7.53859 5.96016,-5.21514 19.6483,-1.62895 0.73239,-4.92471 -4.508,-6.99561 10.25349,-4.67216 5.85913,2.92957 0.35357,6.51577 9.69788,-1.86886 12.52642,-17.0092 -2.79066,-3.03059 z"
     class="land"
     title="Hesse"
     id="DE-HE" />
  <path
     style="fill:#cccccc;fill-opacity:1;stroke:#ffffff;stroke-width:0.63137263;stroke-opacity:1"
     inkscape:connector-curvature="0"
     d="m 639.70885,122.84011 5.25302,9.20542 11.55411,6.55365 16.87027,16.9208 -3.37153,2.03302 2.23506,6.27585 -14.10486,-0.94706 -7.84164,4.12918 -0.93443,-4.15444 -1.37639,4.24283 -6.86933,-0.99757 8.96548,-7.98055 -2.3487,-10.92276 4.44486,0.0126 -0.46722,7.43757 2.00777,-3.7251 4.60901,2.6644 0.56824,-5.77075 -6.20008,-10.88488 -4.87419,0.10102 1.30063,6.44001 -0.35357,-2.576 -4.98784,4.71004 -0.29043,-6.51577 -7.05874,3.91451 3.40941,-12.14762 -5.10149,-6.91984 z m -88.94771,-35.975643 2.03302,1.818355 -4.31859,-0.138902 z m -13.90282,-7.336555 2.58863,3.889258 28.42437,1.136472 0.78291,2.48761 -9.9378,2.576002 -13.2967,-2.336081 -8.18258,8.384635 13.75128,-6.427378 -2.46235,5.581338 1.932,-3.851376 2.82855,3.889259 4.11654,-3.510435 2.03302,7.159771 9.02862,-9.546361 8.57404,-3.118983 -0.31569,5.354044 5.37929,4.002905 0.95969,11.857188 6.01066,1.67945 -2.82854,2.2982 3.44729,-1.7931 8.20784,4.31859 2.94219,6.99562 3.5862,0.29043 -4.31859,2.98008 8.04368,-1.95726 -2.82855,4.07867 2.27294,-1.57843 4.65953,9.48322 2.62651,0.10102 -0.80816,-5.26565 17.74156,-6.13695 -1.01019,2.71491 8.33411,6.95773 -4.69741,9.6095 13.7134,14.50895 -7.22289,6.18746 -0.58087,4.60902 22.96932,13.96598 13.23357,-1.1491 -4.17969,6.22534 5.24039,2.14666 10.61968,48.16114 v 0 l -7.58909,2.62652 -4.508,6.90722 -13.17042,-0.39145 10.31662,-13.08205 1.12384,-9.3317 -26.06304,0.84604 -3.14424,-11.1753 -6.78094,-7.32393 -1.47741,6.04855 3.06847,3.93977 -7.94266,0.54298 -7.05874,9.6095 -6.08643,1.56581 -2.29819,10.63232 -3.01796,3.67459 -3.82612,-0.7829 -2.47498,6.74306 -8.51089,-4.30596 -5.58133,8.61193 -6.51577,-4.58377 -11.6425,11.13742 -5.00047,-1.09859 1.70471,-3.47255 -15.74643,1.75522 -1.07333,-4.82369 -5.78337,-0.37883 -1.80572,-3.66196 -17.42587,0.56823 -4.20494,-6.86933 -10.79647,-3.18213 -2.24768,-4.71004 -4.89945,2.58863 -9.95043,-4.38173 -1.932,9.66001 -13.09466,6.99561 -5.12674,-0.60611 1.74259,3.81349 -6.9956,0.94706 -5.12675,-3.5862 -9.34431,4.7353 -1.51529,11.3142 -8.94023,-2.09615 -2.27294,3.99027 -10.12721,-1.50266 v 0 l -6.70517,-1.93201 1.03545,-5.84651 -8.62455,-4.48275 -8.20783,-16.07476 -5.58133,-2.00777 -6.65467,5.89703 -10.92274,-8.87711 -8.39725,0.85867 v 0 l 3.05584,-12.07185 15.46862,-8.01844 -0.21466,-8.27099 7.09662,0.45459 3.34627,-10.46817 -2.3487,-6.90722 -5.84651,-0.36619 -7.38705,-6.76832 1.07333,-16.44096 8.75082,-7.09663 2.47498,3.62408 4.35647,-1.30063 -5.796,-2.04565 0.83341,-4.5964 v 0 l 10.88486,-6.75569 11.35207,-1.22486 6.41474,4.28071 -0.16416,6.60416 6.28847,-3.24526 9.97568,8.52354 1.91937,-9.62213 -3.05584,1.13648 -0.0758,-5.41719 -1.08596,4.98785 -3.47255,-0.51772 -0.17678,-4.97522 8.40987,-2.77805 -0.0253,7.52597 2.37396,-8.80134 4.36909,-0.31569 4.14181,-7.74063 -1.70471,-1.72996 -5.89702,7.50071 -0.34094,-3.47255 12.26125,-10.78385 13.44823,1.01019 22.3632,-5.30353 4.88682,-7.38707 12.08447,-8.01844 z m 49.55009,-16.642995 -6.51576,19.938762 2.79067,-18.284565 z m 22.9567,-11.263696 -4.52063,6.881966 3.4978,7.690125 17.22384,-0.934432 3.54831,2.904316 -8.34674,16.087386 3.11898,6.010672 4.74792,0.479844 7.56383,8.195223 -4.47011,9.963069 -0.68188,-3.78824 -4.52063,-0.17678 4.68478,-4.01554 -7.56383,1.38902 6.02329,-4.81106 -5.56871,2.98008 -2.50023,-3.207374 -6.56627,1.527923 -12.05921,9.963071 0.42933,3.19474 0.58086,-2.38659 4.26808,1.3764 -2.0709,4.49537 -8.15733,-4.01553 2.50024,0.71977 0.98494,-4.55852 -5.26565,3.40942 -5.49294,-2.26032 -0.49247,-3.63671 -4.31858,2.0204 3.59882,-2.5255 -5.66972,-4.40698 1.04807,-5.316162 10.69545,-1.830982 -3.93976,-6.288476 -4.93733,0.997569 2.27294,-4.583768 -4.59639,1.136471 3.87662,-6.149574 4.63427,1.04808 -2.27294,5.152004 5.75812,-4.495376 -3.40941,-0.770276 0.22729,-3.472552 -4.89945,0.391452 -2.08352,-5.316162 8.04368,-1.212236 4.81105,5.631848 -0.56823,-5.354044 4.62164,-3.775611 -1.288,4.394357 2.95483,-1.540551 2.96745,9.117028 3.09372,3.106356 4.20494,-1.363766 0.68188,-11.629893 -5.30353,1.906747 -6.09905,-8.712949 -10.15247,7.66487 3.30839,-11.970834 -9.92517,12.046598 6.83145,-13.738678 z"
     class="land"
     title="Mecklenburg-Vorpommern"
     id="DE-MV" />
  <path
     style="fill:#cccccc;fill-opacity:1;stroke:#ffffff;stroke-width:0.63137263;stroke-opacity:1"
     inkscape:connector-curvature="0"
     d="m 76.600616,200.24645 -7.626976,2.02039 2.197175,3.83875 -7.248153,-3.97765 7.652231,-4.77318 z m 47.315034,-18.47398 2.96745,2.39922 -6.3011,-1.12384 z m 14.25638,-3.19475 4.2302,1.85624 -13.32196,2.95483 1.1491,-4.12918 z m 11.65513,-3.10635 7.57647,1.38902 -11.90768,2.34871 z m 13.91545,-1.80573 6.02329,2.74016 -9.98831,-1.55318 z m 63.84435,-13.25883 6.60416,7.56385 9.89991,1.72996 10.15247,-2.34871 -1.27537,-4.48275 v 0 l 16.49144,-0.70714 8.4225,3.57357 15.41811,21.63085 3.5862,10.41765 14.4963,8.15734 v 0 l 3.57357,0.44196 2.62651,12.23602 4.39435,4.47012 3.38415,-3.53569 0.94706,5.68236 5.60659,-0.31569 5.40454,-6.37687 9.86204,9.06652 h 5.17725 l 5.59396,-5.02573 v 0 l 23.08296,9.33169 v 0 l 8.39725,-0.85866 10.92274,8.8771 6.65467,-5.89702 5.58133,2.00776 8.20783,16.07476 8.62455,4.48275 -1.03545,5.84652 6.70517,1.932 v 0 l 5.74549,8.85185 9.2054,-3.0811 11.74353,5.73287 v 0 l -3.40941,4.91208 -3.76298,-0.88392 -0.56824,8.68769 -15.21607,8.33412 -24.76241,-4.40698 -5.25302,7.77852 -13.91544,1.41427 2.50023,17.08496 2.4371,-0.32831 7.31129,14.14275 4.5585,-1.84361 -3.11897,7.42495 5.7076,9.53373 -5.08886,0.2273 -0.89655,4.34385 11.32682,11.28895 -7.37443,4.38173 8.20784,14.7615 -5.796,3.97765 3.75036,3.32102 -1.21224,5.06361 -8.16996,4.05342 1.80573,6.04855 -21.36564,0.89655 -11.11215,5.92228 7.15976,6.1117 -3.05584,2.51286 2.95482,6.18746 -5.80862,5.45506 -0.25255,4.88683 10.13984,21.97178 v 0 l -5.00047,2.82855 1.43953,7.89217 -4.07867,-2.71491 -6.98297,3.3084 -6.93247,-4.93734 -5.0636,0.60612 -5.73286,12.08448 -5.25302,2.99271 -2.52549,-1.99514 -3.87662,7.0335 -6.88196,1.72996 -1.76784,-2.46236 -9.53372,7.99319 v 0 l -2.10879,-5.42981 -4.10392,0.39145 1.16173,5.53083 -5.60659,-4.69742 0.23993,2.87906 -7.76588,2.77804 2.96745,5.70762 2.70227,-2.20981 -3.11898,5.31616 -13.89019,-6.37687 -2.41184,-2.8538 2.98008,0.644 0.77027,-5.03836 5.30353,-2.17192 -0.10102,-6.71781 -4.58376,-5.97279 1.59105,-5.72024 3.29577,1.23749 -1.33851,-4.20495 4.82368,0.92181 -5.11411,-7.61436 -14.06698,-1.36377 v 0 l -6.13693,-0.44196 0.0126,-12.07185 5.73286,-6.61679 1.12385,-8.64981 -10.91012,0.9218 1.31326,-6.98298 -5.4298,-3.13162 0.0758,-5.32878 -5.31615,1.60368 -2.66439,-2.61388 1.52792,-11.64252 -4.83631,-3.29577 1.60368,-4.55851 -11.47834,-0.71977 -2.09616,-7.82902 4.67215,1.4269 -0.63137,-5.30354 3.29577,-0.97231 -8.94023,-6.32636 12.66532,-16.33993 -2.31082,-5.18989 3.40941,-4.33122 -3.00533,-2.75279 -3.78824,-0.36619 -9.31905,12.9684 -6.55364,1.62894 -11.97082,-0.80815 -0.41671,-14.29429 -4.07866,-3.57357 -7.60172,4.30596 -4.38172,-1.71733 -6.83145,8.88973 -9.16753,-1.85624 1.07334,7.24817 10.26611,5.44243 -0.11365,19.32002 5.98541,3.93977 -8.88972,9.64738 -9.69788,-3.20738 -7.53858,8.13209 -12.89262,0.5051 -4.12918,4.35647 -7.71536,-6.3011 9.89991,-4.10393 1.47741,-6.18745 -10.02619,-5.4677 4.508,-8.19522 -2.00776,-4.55851 4.82368,-0.93443 -4.43223,-7.3113 -18.00674,-4.68479 -1.98251,-6.81883 -6.4905,-2.89169 -3.45992,5.63185 3.08109,1.36376 -1.61631,5.98542 -23.09559,14.59735 -18.789641,2.92957 v 0 l -3.017959,-6.33899 3.813488,-10.97326 -6.66729,-12.36229 -3.939763,4.28071 -14.849874,-3.5862 -4.811056,-3.19475 -1.426901,-8.7382 6.982976,-1.36377 -4.39435,-8.43514 3.194743,-2.84118 24.421477,0.71977 2.626508,-27.43948 10.455522,-20.91108 -3.05584,-17.64056 3.83874,-5.3793 -1.4269,-8.63718 2.89169,-10.27876 5.07623,-0.23992 -23.689086,-2.86643 1.527921,-25.83579 5.316154,4.64691 -4.672154,-5.00048 5.101485,3.39679 3.16949,-4.07867 -4.356468,-5.0131 12.488538,-12.31178 9.3822,-2.28557 13.19567,2.18455 14.37004,-6.57891 0.0252,2.6644 8.27098,-1.46479 2.27294,-3.20737 -1.99514,3.68721 17.4385,-0.15152 1.37639,8.92761 5.87176,0.77028 4.43224,13.66291 -8.96549,4.11655 0.22729,3.91452 11.0869,9.69789 5.31615,-0.17679 3.69985,-6.95773 -0.23993,-8.5993 -6.66729,0.1389 4.31859,-12.29915 4.52062,-0.15153 10.19035,8.01844 4.38172,-0.79553 3.04322,4.74793 v 0 l 1.47741,5.03836 4.72266,-1.26275 -1.21223,-10.69546 3.42204,-4.74793 -11.23843,0.55561 v 0 l -3.1316,-12.03397 5.27827,-16.40307 5.15199,-8.9655 z m -16.03685,89.84439 v 0 l 1.6542,4.0913 8.73819,4.09129 7.98054,17.09759 4.33121,-1.85624 4.02816,4.41961 3.54831,-2.65177 5.55608,3.51044 3.69984,-4.31859 0.69451,-6.83146 -3.34628,-2.53812 2.82855,-1.37639 -3.10635,-3.4473 -6.52839,2.76541 -2.74015,-4.39435 -16.59247,-1.04808 -3.52305,-2.58863 1.55317,-2.75279 -7.80376,-2.13404 z"
     class="land"
     title="Lower Saxony"
     id="DE-NI" />
  <path
     style="fill:#cccccc;fill-opacity:1;stroke:#ffffff;stroke-width:0.63137263;stroke-opacity:1"
     inkscape:connector-curvature="0"
     d="m 96.779272,381.03382 18.789638,-2.92957 23.10822,-14.59735 1.61631,-5.98541 -3.08109,-1.36377 3.45992,-5.63185 6.47788,2.89169 1.9825,6.81883 18.00674,4.68479 4.43223,7.29867 -4.82368,0.93444 2.00776,4.55851 -4.508,8.19522 10.0262,5.46769 -1.47742,6.18746 -9.89991,4.10392 7.70274,6.31374 4.12917,-4.35648 12.89262,-0.51772 7.53859,-8.13209 9.69787,3.20738 8.8771,-9.64739 -5.98541,-3.93976 0.11365,-19.32002 -10.26612,-5.44244 -1.07333,-7.24816 9.16753,1.85624 6.83144,-8.87711 4.39435,1.70471 7.60173,-4.29334 4.07866,3.57357 0.41671,14.29429 11.97081,0.80816 6.55365,-1.64157 9.31905,-12.95578 3.78823,0.3662 3.00533,2.75278 -3.40941,4.34385 2.31083,5.17726 -12.66533,16.33994 8.94023,6.32636 -3.30839,0.95968 0.63137,5.31616 -4.67215,-1.4269 2.08353,7.8164 11.47834,0.71977 -1.60368,4.57114 4.83631,3.28314 -1.52792,11.64252 2.66439,2.62651 5.32878,-1.60369 -0.0758,5.32879 5.4298,3.13161 -1.31326,6.98299 10.91011,-0.92181 -1.12384,8.64981 -5.74549,6.61679 v 12.07186 l 6.13694,0.44196 v 0 l -9.16752,4.15443 2.79066,3.03059 -12.52642,17.0092 -9.69788,1.86886 -0.35357,-6.51577 -5.85913,-2.92957 -10.25349,4.67216 4.508,6.99561 -0.73239,4.92471 -19.6483,1.62895 -5.96016,5.21514 -5.0636,7.53859 3.09372,3.87663 10.16509,-3.40941 3.66196,8.30887 -5.73286,9.16754 1.94463,3.51043 -17.53952,3.81349 2.80329,7.74064 -6.3516,6.83146 0.1389,5.98541 -8.1447,7.36181 -7.41231,-2.50023 -10.69545,11.59201 2.70228,7.02086 -3.44729,6.16221 v 0 l -6.76831,-1.5153 -5.83388,-9.89993 0.0252,-8.94024 -11.30156,-4.67216 1.78047,-5.79601 -4.62165,-1.84361 -4.58376,3.09373 2.17192,9.31907 -8.20784,3.05584 0.8713,5.00048 -6.37686,5.31616 -17.50164,2.67702 -3.15686,10.03883 -9.86203,2.0204 -0.93444,-3.18212 -4.38172,6.09906 -2.53811,-1.50267 -2.083533,3.32103 -2.727528,-2.55075 -4.672154,5.24039 -5.442428,0.53036 0.05051,3.34628 -3.914508,0.79553 1.452156,7.39969 -3.422037,2.00776 -4.59639,-4.92471 -4.482743,2.37397 4.369096,14.21852 -7.841643,3.06847 -2.601253,-4.31859 -2.474979,3.3084 -2.904312,-5.45507 -12.046582,6.44001 -3.194743,-6.60416 -0.656627,8.372 v 0 l -5.063605,-7.24816 2.828547,-7.09663 -2.058273,-6.65468 -10.013563,-0.83341 -3.838743,-5.90965 7.286035,-10.64495 -7.374427,0.0126 -4.520625,-11.83194 -6.616781,0.0758 -1.060705,-6.90722 -4.2301941,-2.89169 4.1291741,-2.37396 -0.479843,-3.91452 4.432233,-0.0884 1.67945,-9.52111 -6.0738,-1.65419 0.44196,-6.30111 -10.2534844,1.1491 -2.61388095,-9.31907 3.87662535,-2.3487 3.6619587,3.90188 4.1544293,-7.12189 13.195679,-8.39726 -2.790665,-2.00776 2.0709,-2.72754 -6.705172,2.84118 -0.858666,-8.99075 12.412777,-15.39288 -0.997568,-19.3579 -9.862034,-12.0971 2.033019,-6.51578 -6.76831,-2.32345 0.93443,-5.55608 -7.1345054,-2.82855 2.8664294,-5.73287 -3.6493309,-5.31616 9.5716029,-5.27828 8.195211,3.09373 -3.788233,-7.91742 22.817791,9.72314 -0.820784,-6.14957 6.237957,2.72753 17.274344,-8.30887 3.838743,2.39922 7.892152,-11.42785 -11.528856,-6.8946 0.54298,-4.05341 3.447292,-0.61875 1.944627,-5.66973 7.589093,-0.26518 10.392387,-13.7513 z"
     class="land"
     title="North Rhine-Westphalia"
     id="DE-NW" />
  <path
     style="fill:#cccccc;fill-opacity:1;stroke:#ffffff;stroke-width:0.63137263;stroke-opacity:1"
     inkscape:connector-curvature="0"
     d="m 43.769262,627.45874 0.656627,-8.372 3.194743,6.60416 12.046582,-6.44001 2.904312,5.45507 2.474979,-3.3084 2.601253,4.31859 7.841643,-3.06847 -4.369096,-14.21852 4.482743,-2.37397 4.59639,4.92471 3.422037,-2.00776 -1.452156,-7.39969 3.914508,-0.79553 -0.05051,-3.34628 5.442428,-0.53036 4.672154,-5.24039 2.727528,2.55075 2.083533,-3.32103 2.53811,1.50267 4.38172,-6.09906 0.93444,3.18212 9.86203,-2.0204 3.15686,-10.03883 17.50164,-2.67702 6.37686,-5.31616 -0.8713,-5.00048 8.20784,-3.05584 -2.17192,-9.31907 4.58376,-3.09373 4.62165,1.84361 -1.78047,5.79601 11.30156,4.67216 -0.0252,8.94024 5.83388,9.89993 6.76831,1.5153 v 0 l 0.89654,17.00919 -2.60125,2.19718 -4.79843,-3.0306 -3.88925,4.12918 1.25012,9.04127 -3.76298,5.35404 7.74062,4.62165 4.77317,9.44534 -1.02282,4.84895 -5.64447,-1.32588 -0.30305,6.90722 -3.59883,-2.74016 -6.27584,4.31859 -2.08352,4.38173 3.87662,3.04322 -0.20204,5.18988 -6.27584,-3.04321 -1.11121,5.40455 -5.18988,3.28314 9.00337,10.70809 24.01739,-7.90479 11.12478,7.32392 4.62165,19.11798 3.52305,6.75569 4.47012,0.79553 -9.66,8.70033 5.08886,13.43562 v 0 l 1.61632,16.51672 5.21513,1.88149 -4.59639,13.56189 3.06847,3.66197 -7.87952,7.41232 -2.55075,16.42832 -10.16509,16.49147 v 0 l -24.05528,-11.25107 -5.4298,2.99271 -5.80863,-3.93977 -9.7105,2.60126 -11.70564,-6.42738 -2.75278,-8.75083 -4.69741,0.53035 0.58086,-2.36133 -6.42737,3.13161 v 0 l -5.85913,-9.8368 7.72799,-6.86933 1.23749,-9.3317 -8.88972,-2.39922 -3.16949,-5.46769 4.33122,-5.12675 -3.00534,-13.52401 -4.29333,2.31083 -14.988773,-9.20542 -7.033487,0.63137 -26.820691,14.38268 -18.360303,-4.04079 v 0 l -1.793097,-2.56337 5.871761,-11.99609 6.957722,-6.74307 0.934431,-10.77122 -7.879525,-0.12628 -5.518193,-4.97522 -3.169489,1.55318 -7.134506,-7.61436 -0.871293,-6.26322 -3.687214,-0.45459 -5.316154,-13.25883 2.487607,-13.65029 3.990272,-1.78047 -1.161725,-6.59154 8.321486,-3.97765 2.462351,-6.64204 4.078665,2.03302 z"
     class="land"
     title="Rhineland-Palatinate"
     id="DE-RP" />
  <path
     style="fill:#cccccc;fill-opacity:1;stroke:#ffffff;stroke-width:0.63137263;stroke-opacity:1"
     inkscape:connector-curvature="0"
     d="m 41.723616,723.59161 18.360303,4.04079 26.820691,-14.38268 7.033487,-0.63137 14.988773,9.20542 4.29333,-2.31083 3.00534,13.52401 -4.33122,5.12675 3.16949,5.46769 8.88972,2.39922 -1.23749,9.3317 -7.72799,6.86933 5.85913,9.8368 v 0 l -5.5687,5.31616 -11.01113,-0.68188 -4.760551,-4.3186 -3.409409,5.20252 -1.717333,-9.54636 -8.687681,-4.01554 -7.046114,1.28801 -0.202039,7.32392 -7.791133,-1.36376 -5.556075,-14.21852 -8.296231,-8.24574 2.7149,-2.31082 -4.912075,-4.50801 0.997568,-2.80329 -9.937799,-6.32636 -4.949958,0.69451 z"
     class="land"
     title="Saarland"
     id="DE-SL" />
  <path
     style="fill:#cccccc;fill-opacity:1;stroke:#ffffff;stroke-width:0.63137263;stroke-opacity:1"
     inkscape:connector-curvature="0"
     d="m 516.86908,530.20203 -7.00823,-6.70518 0.32831,-12.26127 -4.24282,-10.72071 3.96502,-1.08596 -3.85137,-17.12284 4.65952,-3.69985 2.09616,-9.33169 15.45599,-2.39922 1.40165,-3.51044 3.4978,1.85624 11.25105,-4.05341 -1.33851,2.02039 6.62941,-6.99561 6.44,2.23506 5.89701,-4.84895 7.90478,6.0233 3.00533,-4.00291 5.92228,2.9422 v 0 l 8.7003,6.81883 -1.40164,3.19475 5.12674,5.79601 -2.60125,12.37491 3.16949,4.0913 4.21756,1.46478 4.54588,-6.69255 4.40698,1.47741 1.69208,-3.62408 11.57936,10.77122 18.52446,0.89655 14.9509,-4.38173 3.18211,3.01797 5.13937,-9.23068 -2.29819,-3.95239 4.39435,-0.15153 3.99027,-8.54879 15.74642,5.152 4.43224,-4.97522 14.42054,-4.94996 3.83874,3.90188 5.152,-0.37882 1.41427,-5.75813 2.67702,2.0204 v 0 l 0.47984,7.18502 17.31223,7.29868 2.14666,16.37782 5.18988,8.88973 -5.2025,25.19179 -14.62258,32.64198 -14.21851,-4.74792 2.44973,-9.34432 -6.79357,1.65419 2.65177,-8.62455 -8.06894,-4.58377 0.23992,-3.10636 -0.73239,2.95483 -6.64204,0.58086 -8.61191,-4.63428 -3.43467,8.64982 5.26565,0.32831 -1.16173,3.83875 6.9451,2.36133 -0.82079,4.84895 -9.68525,0.39145 -15.26658,10.54393 -14.23113,2.37396 -0.16415,6.17483 -3.3589,2.1593 -26.55552,2.79067 -0.1389,8.38463 -4.67215,4.54589 -7.62698,-5.89703 -3.96502,8.87711 -6.08643,-1.5658 -4.17968,11.18793 -13.14517,-0.80816 -0.89655,7.74063 -5.9349,5.73287 -10.30399,-7.13452 -0.73239,3.5862 -1.21224,-2.26031 -4.81105,2.12141 -2.32345,4.43224 -2.70228,-2.46235 -12.90524,2.51286 -14.62258,19.53468 0.47984,8.64982 -3.77561,-0.5051 0.30306,-5.53083 -4.35647,-3.14424 1.23749,-3.13161 -4.35646,-0.22729 -1.31326,-6.2506 -6.7178,0.51773 v 0 l -9.9378,-4.10393 0.46722,-4.74792 -4.79843,-4.40699 v 0 l -2.27294,-3.15686 4.35647,-0.65663 1.31325,-4.17969 -7.67748,-6.42738 10.55654,-12.17287 4.4196,10.50605 1.90675,-3.20738 6.67992,-0.0631 -1.08596,-6.6673 3.28313,2.05828 0.75765,-3.19475 5.12674,1.07334 4.29333,-4.2302 -4.44486,-3.92714 0.31569,-5.45507 -3.20737,-0.11364 5.08886,-5.66973 -3.10635,-4.78581 7.76587,-0.32832 2.17192,-3.88925 5.36667,1.37639 3.42203,-6.55365 13.75129,-3.15687 -3.73772,-9.78628 -8.09419,-2.62651 -0.31569,-5.84652 -13.38509,-5.11412 z"
     class="land"
     title="Saxony"
     id="DE-SN" />
  <path
     style="fill:#cccccc;fill-opacity:1;stroke:#ffffff;stroke-width:0.63137263;stroke-opacity:1"
     inkscape:connector-curvature="0"
     d="m 461.8008,275.87232 3.18211,-0.30306 -1.11121,3.56094 4.07866,0.46722 1.38902,4.11655 3.82611,-1.55318 8.20784,4.89946 -0.79553,5.70761 11.81929,4.53326 11.61725,-2.4371 0.15153,5.3793 5.55608,-3.3589 3.16948,2.2098 1.94463,7.48809 -4.73529,11.50361 2.47498,11.79405 -4.79843,0.53036 -2.08353,12.58958 3.71247,-0.30306 -0.35357,4.84894 4.59639,-3.3589 7.12188,5.83389 -4.62165,8.30887 2.72753,8.99075 -4.97521,12.38754 4.16706,3.13161 -6.36424,7.72801 17.4385,19.92613 3.57357,-2.20981 4.87419,6.20009 5.83388,0.45459 4.73529,-3.88926 8.7382,6.41475 5.24039,-0.66926 0.59349,4.26809 h 8.52352 l 1.22486,4.65953 5.83388,-0.0631 -0.32831,3.75036 7.84164,-1.12385 3.76298,21.13838 -10.70807,9.11702 v 0 l -5.92228,-2.9422 -3.00533,4.00291 -7.90478,-6.0233 -5.89701,4.84895 -6.44,-2.23506 -6.62941,6.99561 1.33851,-2.02039 -11.25105,4.05341 -3.4978,-1.85624 -1.40165,3.51044 -15.45599,2.39922 -2.09616,9.33169 -4.65952,3.69985 3.85137,17.12284 -3.96502,1.08596 4.24282,10.72071 -0.32831,12.26127 7.00823,6.70518 v 0 l -2.67702,6.64205 3.30839,2.26031 -6.06117,10.35452 -2.50024,-4.67216 -13.41034,1.08596 -10.17772,-11.18793 -10.60705,1.64157 -7.24816,-8.8266 -14.77411,1.09859 -1.1996,-11.5415 -8.33412,-3.59882 8.81396,-9.68527 -6.38949,-10.96063 -6.22533,-3.77562 -26.40398,-0.97231 -3.7251,-15.43076 -4.82368,-5.25302 0.65662,-3.04322 2.84118,1.36376 -0.66926,-3.44729 -17.74155,-3.0811 v 0 l -10.13984,-21.97179 0.26517,-4.8742 5.796,-5.46769 -2.95482,-6.18745 3.05584,-2.51287 -7.14713,-6.11169 11.11215,-5.92228 21.36563,-0.89655 -1.80572,-6.04856 8.16996,-4.05341 1.21223,-5.06361 -3.75035,-3.33365 5.796,-3.97765 -8.19522,-14.77413 7.3618,-4.36911 -11.32681,-11.30157 0.89655,-4.34385 5.08886,-0.2273 -5.70761,-9.53373 3.10635,-7.42495 -4.5585,1.84361 -7.31129,-14.14275 -2.4371,0.32831 -2.50024,-17.08496 13.91545,-1.40165 5.25301,-7.79114 24.76242,4.40698 15.21607,-8.33412 0.55561,-8.68769 3.77561,0.87129 z"
     class="land"
     title="Saxony-Anhalt"
     id="DE-ST" />
  <path
     style="fill:#cccccc;fill-opacity:1;stroke:#ffffff;stroke-width:0.63137263;stroke-opacity:1"
     inkscape:connector-curvature="0"
     d="m 210.98188,83.480307 2.96744,3.093728 -2.44972,2.108787 -3.37153,-5.417182 z m 209.19886,-10.74597 11.88242,3.712474 6.78094,14.066993 -9.86203,-2.765415 -5.6571,2.702277 -2.70227,-6.250593 -5.18988,0.631373 1.99514,2.020394 -3.16949,-1.89412 1.65419,-9.218047 z m -208.50436,-0.366196 -1.14909,5.404553 -1.47741,-6.629417 z m 17.19858,-3.358905 -0.21466,7.892164 -6.8062,1.426903 -2.32345,-5.694986 z m -12.05921,-2.891689 1.60369,2.815924 -5.2909,-2.576002 z m -13.86493,-8.40989 1.18698,3.422043 -3.05584,0.568235 -5.61921,-7.829026 5.64446,-6.503143 -1.72996,3.447297 z m 11.46572,-16.226288 4.93733,1.464785 -1.57843,9.218048 -13.52399,-3.055846 2.28556,-6.351614 z m -7.03349,-41.16552646 2.23506,0.75764776 -5.59396,0.1767844 3.54832,4.1418076 -7.02086,6.5789077 1.40164,9.571616 4.52063,2.929571 13.97858,-1.325883 2.76541,-3.346278 25.0781,1.212237 23.19662,7.248163 1.12384,5.631848 3.61145,1.224864 3.99027,0.176784 5.2909,-5.808632 2.18455,7.424947 14.23113,-12.248638 -0.59349,6.402124 15.19081,4.760553 4.84894,6.073809 4.23019,-1.439531 -0.0126,-4.697416 4.12917,2.474983 6.47788,12.981031 -3.14423,-0.113647 2.96745,2.373963 -0.61875,16.440955 -5.05098,6.61679 -10.54391,4.040788 2.61388,3.624082 20.92367,-5.07624 5.99804,4.053415 -5.39192,19.888252 4.1418,-2.23506 3.38416,-11.907697 7.84164,-2.992708 22.16116,9.89993 8.33412,8.132085 6.93246,-1.07333 11.35208,-9.57162 7.58909,1.906747 7.02086,-4.12918 1.0607,3.560944 -5.51819,2.664395 2.87906,21.378294 -17.91834,15.45601 -4.91208,-2.92957 -4.65953,7.93005 2.67702,6.83145 6.86933,0.89655 2.67702,4.81107 v 0 l -0.83341,4.59639 5.79599,2.04565 -4.35646,1.30063 -2.47498,-3.62408 -8.75082,7.09663 -1.07333,16.44096 7.38705,6.76832 5.84651,0.36619 2.3487,6.90723 -3.34627,10.46816 -7.09663,-0.45459 0.21467,8.27099 -15.46862,8.01844 -3.05584,12.07185 v 0 l -23.08297,-9.33169 v 0 l 1.4269,-2.08353 -9.26854,-9.71052 -3.97764,-0.2273 -0.89655,-6.86933 3.87662,-1.70471 1.84361,-6.50314 -6.26321,-5.96017 3.93976,-6.21271 -1.932,-1.99514 -7.084,2.47499 -1.26274,5.74549 -5.35404,-0.42933 -1.60368,4.71004 -5.83388,-0.82078 -5.6571,8.90236 -5.22776,-6.13695 -3.29576,10.15248 v 0 l -14.49631,-8.15734 -3.58619,-10.41766 -15.41811,-21.63084 -8.4225,-3.57357 -16.49145,0.70714 v 0 l -7.9174,-8.20785 -1.89412,-9.31907 -6.20007,-2.89169 5.99803,-2.9422 6.32635,1.49004 2.14667,-3.00533 -4.59639,-10.08935 -5.64447,1.62895 -3.93976,-7.15977 2.44972,-15.31712 -10.4429,-0.82078 -2.56337,3.0811 -7.86689,-5.80863 2.15929,-6.389499 2.72753,2.045649 3.9145,-2.474983 -6.75568,-1.742589 1.0102,-2.664395 20.39332,-2.550747 14.38266,-9.407459 -3.82612,-0.492471 -1.50266,-5.556084 -6.99561,8.35938 -7.32392,-1.477413 6.98298,-16.958681 -1.04808,-2.323453 -5.32878,1.69208 3.38416,-2.879062 -13.1578,-14.786758 -7.53858,-22.047548 -14.86251,5.063612 -5.94752,-4.520632 -4.77318,17.956251 1.31326,-22.363235 7.89215,-19.7872327 z"
     class="land"
     title="Schleswig-Holstein"
     id="DE-SH" />
  <path
     style="fill:#cccccc;fill-opacity:1;stroke:#ffffff;stroke-width:0.63137263;stroke-opacity:1"
     inkscape:connector-curvature="0"
     d="m 389.52131,459.17256 17.74155,3.0811 0.66926,3.44729 -2.84118,-1.36376 -0.65662,3.04322 4.82368,5.25302 3.7251,15.43076 26.40398,0.97231 6.22533,3.77562 6.38949,10.96063 -8.81396,9.68527 8.33412,3.59882 1.1996,11.5415 14.77411,-1.09859 7.24816,8.8266 10.60705,-1.64157 10.17772,11.18793 13.41034,-1.08596 2.50024,4.67216 6.06117,-10.35452 -3.30839,-2.26031 2.67702,-6.64205 v 0 l 4.34384,-1.67945 13.38509,5.11412 0.31569,5.84652 8.09419,2.62651 3.73772,9.78628 -13.75129,3.15687 -3.42203,6.55365 -5.36667,-1.37639 -2.17192,3.88925 -7.76587,0.32832 3.10635,4.78581 -5.08886,5.66973 3.20737,0.11364 -0.31569,5.45507 4.44486,3.92714 -4.29333,4.2302 -5.12674,-1.07334 -0.75765,3.19475 -3.28313,-2.05828 1.08596,6.6673 -6.67992,0.0631 -1.90675,3.20738 -4.4196,-10.50605 -10.55654,12.17287 7.67748,6.42738 -1.31325,4.17969 -4.35647,0.65663 2.27294,3.15686 v 0 l -7.93004,4.26809 -3.66195,-3.78824 -20.70901,5.61922 -3.15686,-6.98299 -3.22,1.30063 -1.81835,-3.09373 0.84604,-8.44777 -6.84408,-1.19961 -4.43223,5.69499 -3.47255,-0.40408 2.95482,14.95091 -2.66439,11.5415 -8.47301,-2.14667 0.94706,-5.63184 -3.42204,-4.54589 -10.49341,2.37396 -3.93976,-5.60659 -8.33411,-0.0126 -9.55898,5.84652 0.20204,3.15686 10.41764,5.70762 0.0884,3.87663 -9.25591,-0.8713 -1.18698,5.85914 -8.80133,-3.20737 -0.63137,-12.98103 -4.44486,-3.8135 -4.25545,1.09859 -3.15686,-5.84651 -4.59639,0.98494 -5.21514,-12.60221 -7.90478,-2.15929 -2.28556,-5.44244 -4.91208,1.43953 -2.76541,-2.65177 -5.36666,5.98542 v 0 l -0.37883,-11.94558 3.64933,-1.50267 -2.29819,-6.13694 -8.08157,0.47984 0.5051,4.78581 -6.7178,-1.37639 6.14957,-22.91885 5.99803,-1.7047 2.67702,-6.1117 -3.90188,-5.00047 -3.24525,1.75522 1.30063,-3.01797 -3.01796,-1.33851 9.09176,-0.31569 -3.52306,-4.68478 1.59106,-4.02816 13.2967,0.66925 0.0758,-3.49781 -5.18988,-3.10635 2.68965,-7.24816 -4.43224,-2.92958 3.7251,-1.76784 2.65176,5.13938 3.06847,-9.3317 -13.54925,-5.24039 -1.0607,-6.6673 -6.69255,-0.75765 -3.56094,-11.65515 v 0 l 9.53372,-7.98056 1.76785,2.44973 6.88195,-1.71733 3.88926,-7.0335 2.51286,1.99514 5.25301,-2.99271 5.73286,-12.08448 5.06361,-0.60612 6.91984,4.93734 6.9956,-3.30839 4.07867,2.7149 -1.43953,-7.90479 z"
     class="land"
     title="Thuringia"
     id="DE-TH" />
</svg>
