<?xml version="1.0" encoding="UTF-8" standalone="no"?>
<?xml-stylesheet type="text/css" href="/styles/home.css"?><!-- https://www.amcharts.com/svg-maps -->

<svg
   xmlns:dc="http://purl.org/dc/elements/1.1/"
   xmlns:cc="http://creativecommons.org/ns#"
   xmlns:rdf="http://www.w3.org/1999/02/22-rdf-syntax-ns#"
   xmlns:svg="http://www.w3.org/2000/svg"
   xmlns="http://www.w3.org/2000/svg"
   xmlns:sodipodi="http://sodipodi.sourceforge.net/DTD/sodipodi-0.dtd"
   xmlns:inkscape="http://www.inkscape.org/namespaces/inkscape"
   version="1.1"
   id="map-germany"
   viewBox="0 0 1000 1000"
   width="1000"
   height="1000"
   class=""
   sodipodi:docname="germany.svg"
   inkscape:version="0.92.4 (5da689c313, 2019-01-14)">
  <metadata
     id="metadata25">
    <rdf:RDF>
      <cc:Work
         rdf:about="">
        <dc:format>image/svg+xml</dc:format>
        <dc:type
           rdf:resource="http://purl.org/dc/dcmitype/StillImage" />
        <dc:title></dc:title>
      </cc:Work>
    </rdf:RDF>
  </metadata>
  <sodipodi:namedview
     pagecolor="#ffffff"
     bordercolor="#666666"
     borderopacity="1"
     objecttolerance="10"
     gridtolerance="10"
     guidetolerance="10"
     inkscape:pageopacity="0"
     inkscape:pageshadow="2"
     inkscape:window-width="1920"
     inkscape:window-height="1017"
     id="namedview23"
     showgrid="false"
     showguides="true"
     inkscape:guide-bbox="true"
     inkscape:zoom="1.1919208"
     inkscape:cx="503.63594"
     inkscape:cy="985.81261"
     inkscape:window-x="-8"
     inkscape:window-y="-8"
     inkscape:window-maximized="1"
     inkscape:current-layer="map-germany">
    <sodipodi:guide
       position="500,570.50773"
       orientation="1,0"
       id="guide832"
       inkscape:locked="false"
       inkscape:label=""
       inkscape:color="rgb(0,0,255)" />
  </sodipodi:namedview>
  <defs
     id="defs4">
    <style
       type="text/css"
       id="style2">
         .land
         {
         fill: #49bea1;
         fill-opacity: 1;
         stroke:white;
         stroke-opacity: 1;
         stroke-width:0.5;
         }
         .rectangle:hover {
         fill: #bdbdbd;
         cursor: pointer;
         }
      </style>
    <!-- <amcharts:ammap
       projection="mercator"
       leftLongitude="5.864765"
       topLatitude="55.051693"
       rightLongitude="15.043380"
       bottomLatitude="47.269299" /> -->
    <!-- All areas are listed in the line below. You can use this list in your script. -->
    <!--{id:"DE-BW"},{id:"DE-BY"},{id:"DE-BE"},{id:"DE-BB"},{id:"DE-HB"},{id:"DE-HH"},{id:"DE-HE"},{id:"DE-MV"},{id:"DE-NI"},{id:"DE-NW"},{id:"DE-RP"},{id:"DE-SL"},{id:"DE-SN"},{id:"DE-ST"},{id:"DE-SH"},{id:"DE-TH"}-->
  </defs>
  <path
     id="DE-BW"
     title="Baden-Wurttemberg"
     class="land"
     d="m 359.25196,947.03181 0.73193,2.63738 -4.37884,0.16404 z m 32.06512,-226.51273 10.92815,-0.41643 5.19905,-9.14884 8.25289,1.19881 1.04739,-8.2024 -2.61216,-2.39764 -2.32191,3.3062 1.22406,-3.05381 -6.25907,-1.19882 1.56477,-3.69741 15.05456,-2.56165 4.80788,5.50192 0.45429,-4.77002 6.59978,-1.08524 -1.94334,10.81456 2.27144,2.13262 4.58073,-4.98455 2.1074,4.88361 5.0224,-5.33789 5.8174,14.9284 -4.89622,6.8774 3.83622,1.23667 4.51763,-4.54287 0.97167,12.0386 7.33169,-0.11356 3.72264,-7.58407 4.64382,4.59335 -2.23357,7.63455 5.43881,6.39789 -4.39144,2.06951 4.01288,12.19005 -3.77311,2.65002 1.14833,7.21811 9.93122,6.22121 -3.10428,5.85526 3.30619,1.13573 -0.0126,6.30954 7.86172,1.51428 8.75763,13.59078 -2.73833,1.37547 2.44809,5.71645 -2.9781,13.616 6.28431,7.21813 -6.75121,3.15477 2.19572,-3.84882 -2.41025,-0.55524 -3.81096,5.37573 -7.42004,-6.00669 -1.1231,4.58074 5.42621,6.83954 -0.94642,10.3729 -6.10764,1.3881 -5.16122,6.47359 -5.17383,-2.3724 -5.53978,2.23359 -5.35049,9.76718 7.59669,11.6348 5.71646,20.40509 -4.6943,29.40248 4.79524,6.77645 -5.96883,2.67526 4.37883,3.24311 1.03477,9.86812 -4.3536,4.54287 -3.98762,-5.59026 -5.03503,4.13906 -9.02265,-3.14216 -8.01313,7.87433 -9.1993,1.09785 -3.11694,6.51147 v 0 l -40.99942,-15.69816 -15.63505,3.74788 -6.89004,-10.68838 -3.09167,2.30928 1.76666,5.24956 -5.26215,-2.25882 -0.31548,-8.49266 -2.34716,1.03478 -3.19262,-5.23693 -2.03168,4.92143 -0.92118,-4.77 -4.07597,-1.09787 0.73189,3.18002 -7.42002,1.40072 -6.28431,11.47075 5.6155,4.13907 10.36028,-4.00025 1.86763,2.96548 -4.20216,6.28431 -4.53025,-4.54289 -5.04765,3.76049 2.43549,2.86454 -8.36645,1.33763 -14.29745,-6.51145 -9.28764,7.50834 -11.81148,1.6405 -4.08859,-5.1612 -5.60288,-0.0757 -10.41074,6.59978 -4.69431,-3.4324 4.15169,-0.54261 0.51737,-4.12645 -8.20239,1.29977 -6.32217,-12.80838 2.92761,-4.32835 0.69407,-17.36387 5.2874,-11.13003 -4.25264,-7.47051 0.59309,-10.37289 9.35075,-21.83104 4.15169,-3.06644 -0.9843,-8.11408 8.58099,-29.8694 10.67576,-14.12076 9.4517,-5.50193 11.49599,-19.95079 v 0 l 10.17099,-16.48052 2.54906,-16.41743 7.86169,-7.40742 -3.06645,-3.65954 4.59337,-13.56551 -5.19908,-1.88026 -1.62786,-16.50578 v 0 l 4.25263,0.0379 6.89004,8.54312 4.41666,-3.29358 -1.66572,-8.51791 7.81123,-1.67833 0.76977,10.82719 9.74194,1.37548 0.74452,4.05072 5.37574,-1.36286 -1.76668,4.42931 -4.11383,-0.16405 -1.94333,7.14241 3.88668,1.85502 8.03836,-7.43266 0.1262,-5.96883 14.05766,-1.60262 -4.30311,-5.9436 z"
     inkscape:connector-curvature="0"
     style="fill:#49bea1;fill-opacity:1;stroke:#ffffff;stroke-width:0.63095468;stroke-opacity:1" />
  <path
     id="DE-BY"
     title="Bavaria"
     class="land"
     d="m 466.81711,603.24985 5.36313,-5.98147 2.76357,2.65002 4.90883,-1.43857 2.28407,5.43883 7.89954,2.15786 5.21168,12.59385 4.59335,-0.98429 3.15478,5.84265 4.25263,-1.09787 4.44194,3.81098 0.63094,12.97242 8.79551,3.20525 1.18619,-5.85525 9.24979,0.8707 -0.0883,-3.87406 -10.41074,-5.70382 -0.2019,-3.15477 9.55264,-5.84266 8.32861,0.0126 3.93714,5.60288 10.48648,-2.37239 3.41977,4.54287 -0.94643,5.62812 8.46741,2.14524 2.66263,-11.53385 -2.95287,-14.94101 3.47026,0.40381 4.4293,-5.69122 6.83954,1.19883 -0.84548,8.44217 1.81714,3.09169 3.21789,-1.29978 3.15477,6.97836 20.69531,-5.6155 3.65953,3.78573 7.9248,-4.26526 v 0 l 4.79525,4.40407 -0.4669,4.74477 9.93122,4.10122 v 0 l 3.15478,5.31263 -3.89929,3.29359 9.98169,10.14574 -1.29977,7.42004 6.06978,4.11383 -1.12309,2.25881 18.42387,9.62837 -0.97166,5.62812 5.59025,1.90549 -6.01931,16.68243 -5.55239,5.46407 9.48956,6.95311 0.50476,8.4548 2.61215,-0.18927 2.35977,10.09526 4.36621,1.77928 1.05999,11.00385 8.05099,4.89622 1.84239,5.89311 13.16172,0.36596 6.82694,4.92144 12.06383,20.53127 8.89645,2.27143 8.37909,7.95004 0.79501,8.18979 7.39478,5.55241 2.94025,-4.00027 7.83647,3.0412 3.39453,8.41694 5.33788,-0.71928 8.18979,13.96933 -3.64693,6.85217 3.44502,2.04428 -1.14834,10.22148 -7.35693,12.06385 -17.9065,-9.11099 -5.6281,3.82359 v 15.44576 l -8.41694,12.64436 -25.1751,8.21502 -21.14959,15.82434 0.34071,6.43573 9.02266,13.17434 5.12336,2.35977 5.26215,11.21838 -7.68503,15.01672 h 8.77027 l 5.11074,4.35358 -2.73835,23.19389 -3.5081,3.34407 -16.55626,-10.94076 -1.29977,-3.05383 3.53334,-3.68476 -5.26215,-4.60598 1.90547,-2.65 -14.32266,0.0883 -2.33453,4.77001 -6.30955,0.9212 -4.71955,-8.31598 -14.85266,1.90547 -0.26499,-7.59668 -7.14242,5.08549 3.19263,11.15527 -15.55934,-2.27143 -13.18696,5.13598 -16.72029,-1.50167 -5.16121,9.42645 -11.24362,0.20191 -3.96239,4.85835 3.01596,3.29359 -6.77645,-0.54263 -5.56503,6.18336 -3.58381,0.23977 2.33453,-3.89931 -3.82359,-0.68143 -7.24336,4.4293 -11.18051,-0.21452 -3.33144,-9.76719 -5.32526,-0.17666 3.88668,-3.65953 -2.39764,-2.8393 -8.78288,2.7131 -14.37316,-6.4736 -2.10737,4.15169 -3.91192,-0.15143 -5.46408,-2.43548 2.0443,-3.52074 -3.43239,0.10097 3.01597,17.91912 -3.19264,6.10763 -8.50527,9.01002 -12.41719,4.20219 4.90883,-13.30055 -4.35359,-1.2619 -6.81429,4.46715 -0.41645,-11.6348 -7.48312,-3.5081 -2.43548,-7.50838 -7.81122,2.13264 -4.73216,-2.35976 -1.13572,-5.60289 -5.22431,7.33169 -10.94076,-1.70358 v 0 l 3.11692,-6.52406 9.19932,-1.08525 8.01314,-7.88693 9.02264,3.14216 5.03502,-4.13908 3.98763,5.59027 4.35359,-4.54288 -1.03476,-9.86813 -4.37884,-3.2431 5.96884,-2.67525 -4.79525,-6.77646 4.6943,-29.40248 -5.70383,-20.40507 -7.59669,-11.64743 5.35049,-9.76718 5.53978,-2.23358 5.17383,2.3724 5.1612,-6.47361 6.10766,-1.38809 0.94642,-10.3729 -5.42621,-6.85216 1.11049,-4.58074 7.42002,6.0067 3.81097,-5.38836 2.41024,0.56786 -2.19572,3.84883 6.75121,-3.15478 -6.28431,-7.23075 2.97812,-13.616 -2.46073,-5.71645 2.75097,-1.37547 -8.77029,-13.59078 -7.86169,-1.51428 0.0126,-6.30954 -3.30619,-1.13573 3.10428,-5.85526 -9.94384,-6.22121 -1.14833,-7.21811 3.77311,-2.66264 -4.01288,-12.17743 4.39144,-2.06951 -5.43881,-6.41051 2.23357,-7.62193 -4.65645,-4.59335 -3.72263,7.58407 -7.31907,0.10093 -0.98429,-12.02597 -4.50501,4.53026 -3.83622,-1.23668 4.89622,-6.87741 -5.8174,-14.91577 -5.0224,5.32527 -2.1074,-4.8836 -4.56811,4.98455 -2.27144,-2.13263 1.94335,-10.81457 -6.59979,1.08524 -0.46691,4.77002 -4.79525,-5.50192 -15.05459,2.56167 -1.56476,3.6974 6.25907,1.19881 -1.22404,3.05382 2.3219,-3.29358 2.59954,2.38501 -1.04739,8.21503 -8.25289,-1.21144 -5.21168,9.14884 -10.91552,0.42906 v 0 l -2.90239,-5.21169 6.49884,-15.05457 -3.25573,-2.22096 2.18311,-2.90239 -3.55859,-1.13572 -0.35333,-6.86479 -4.00026,0.31547 -1.4512,-16.66982 2.5112,-1.94333 -1.6531,-5.84264 -4.20215,-0.95905 1.70357,-5.45146 9.77981,-4.34097 2.59952,4.35359 5.59026,-7.18026 11.9629,2.20832 5.12336,5.8679 6.29693,-1.27453 -0.97168,-18.38603 13.19958,1.02216 -0.82025,-4.73216 7.43265,-4.85835 1.23667,-14.52458 11.25622,2.68786 9.40125,-7.9374 z"
     inkscape:connector-curvature="0"
     style="fill:#49bea1;fill-opacity:1;stroke:#ffffff;stroke-width:0.63095468;stroke-opacity:1" />
  <path
     id="DE-BE"
     title="Berlin"
     class="land"
     d="m 743.04908,325.25122 0.0883,0.0505 v 0 l 3.68478,3.1043 -1.17358,6.9405 11.84933,8.26549 -3.69739,7.6598 11.88719,3.7605 -8.89648,13.75479 -0.31547,-5.03501 -13.19956,-2.48596 -1.07263,-3.15477 -3.73525,1.29978 -0.0253,4.47977 -9.84288,-5.33788 -13.64125,3.39454 -2.94024,-2.8393 6.20858,-12.84623 -4.01287,-0.9969 0.93383,-9.16147 7.06669,-0.17667 0.32809,-5.31265 3.45763,0.0757 1.55215,-4.44191 6.15811,4.92143 8.92172,-3.6469 -0.92121,-2.42288 v 0 l 1.14833,-0.66881 v 0 l 0.47953,0.1388 v 0 z"
     inkscape:connector-curvature="0"
     style="fill:#49bea1;fill-opacity:1;stroke:#ffffff;stroke-width:0.63095468;stroke-opacity:1" />
  <path
     id="DE-BB"
     title="Brandenburg"
     class="land"
     d="m 565.33438,264.86884 10.12051,1.50168 2.27144,-3.98763 8.93432,2.09477 1.51429,-11.30671 9.33814,-4.73215 5.12335,3.58381 6.99097,-0.94644 -1.74145,-3.81096 5.12336,0.60572 13.08601,-6.99098 1.93071,-9.65361 9.94385,4.37884 4.89621,-2.58692 2.2462,4.70692 10.78932,3.18001 4.20216,6.8648 17.41435,-0.56787 1.80454,3.65953 5.77953,0.37858 1.07263,4.8205 15.73601,-1.75407 -1.70358,3.47026 4.99716,1.09787 11.63482,-11.13005 6.51144,4.58074 5.57764,-8.60623 8.50528,4.3031 2.47333,-6.73859 3.82358,0.78239 3.01598,-3.67216 2.29666,-10.62528 6.08241,-1.56477 7.05406,-9.60313 7.93742,-0.54261 -3.06644,-3.93716 1.47644,-6.04455 6.77646,7.31909 3.14214,11.16789 26.04581,-0.84548 -1.1231,9.32551 -10.3098,13.08599 13.16173,0.35334 4.50501,-6.90264 7.58407,-2.62476 v 0 l 2.82667,9.11098 -5.67858,8.50525 -1.03477,16.19032 -17.62888,15.63505 1.31239,10.19623 -3.0412,6.1581 18.38603,11.60958 23.04244,23.59769 -2.75094,5.08551 2.37239,5.65335 -7.97527,12.58124 4.68167,15.90006 9.75457,4.92144 -2.57429,15.72339 6.19597,6.62502 -5.13598,21.38937 -8.36646,9.67884 13.40149,21.65437 -2.18311,10.07003 v 0 l -2.67525,-2.03167 -1.41334,5.75431 -5.16121,0.37857 -3.82359,-3.89931 -14.411,4.95931 -4.4293,4.9593 -15.736,-5.14859 -3.98764,8.54314 -4.37882,0.13882 2.29666,3.94975 -5.13595,9.22457 -3.18002,-3.00335 -14.94101,4.36622 -18.51221,-0.88334 -11.57171,-10.76409 -1.69096,3.62167 -4.40406,-1.47643 -4.53026,6.68812 -4.21478,-1.4512 -3.16739,-4.08859 2.58692,-12.36671 -5.12334,-5.79215 1.41332,-3.20527 -8.69455,-6.8143 v 0 l 10.70101,-9.11098 -3.77312,-21.12437 -7.82384,1.1231 0.31547,-3.74787 -5.83002,0.063 -1.22405,-4.65645 h -8.5179 l -0.59309,-4.26525 -5.2243,0.6688 -8.73241,-6.41048 -4.73216,3.8993 -5.83003,-0.45429 -4.87097,-6.20861 -3.58383,2.22098 -17.42696,-19.91293 6.36003,-7.72289 -4.1643,-3.12955 4.97192,-12.3667 -2.72572,-8.99741 4.61858,-8.30337 -7.11716,-5.83003 -4.60597,3.35668 0.36596,-4.85835 -3.71002,0.30286 2.06954,-12.58123 4.80786,-0.53 -2.47333,-11.78623 4.73215,-11.48338 -1.94334,-7.49575 -3.1674,-2.20833 -5.55239,3.3693 -0.15143,-5.38835 -11.60957,2.43548 -11.81148,-4.51764 0.79501,-5.71644 -8.20241,-4.89622 -3.82358,1.55215 -1.3881,-4.10121 -4.07597,-0.4669 1.11048,-3.55859 -3.18001,0.30287 v 0 l -11.73576,-5.72907 -9.19932,3.07905 z m 177.29828,62.65382 -8.92172,3.6469 -6.15811,-4.92143 -1.55215,4.44191 -3.45763,-0.0757 -0.31548,5.31265 -7.06669,0.18928 -0.94644,9.16146 4.01287,0.9843 -6.20858,12.85885 2.94024,2.8393 13.62862,-3.39454 9.8429,5.33788 0.0252,-4.47979 3.73526,-1.29975 1.07261,3.15477 13.18695,2.48595 0.31548,5.03502 8.89646,-13.75481 -11.88718,-3.74786 3.6974,-7.67242 -11.84935,-8.26551 1.17358,-6.94049 -3.68477,-3.1043 v 0 l 0.21453,-0.73191 v 0 l -0.47952,-0.12618 v 0 l -1.14834,0.65618 z"
     inkscape:connector-curvature="0"
     style="fill:#49bea1;fill-opacity:1;stroke:#ffffff;stroke-width:0.63095468;stroke-opacity:1" />
  <path
     id="DE-HB"
     title="Bremen"
     class="land"
     d="m 342.01429,250.89951 0.90857,-0.12618 v 0 l 7.7986,2.13261 -1.55214,2.75098 3.52072,2.58692 16.58149,1.04737 2.73835,4.39144 6.52407,-2.76357 3.10429,3.445 -2.82668,1.37548 3.34408,2.53644 -0.69408,6.82694 -3.69738,4.31572 -5.55241,-3.5081 -3.54596,2.65 -4.0255,-4.41666 -4.32833,1.855 -7.97527,-17.08627 -8.73241,-4.08857 v 0 0 0 l -1.65311,-4.0886 v 0 z m 2.4481,-51.01899 11.23099,-0.55525 -3.41978,4.74479 1.21144,10.68837 -4.71954,1.26192 -1.47643,-5.03502 v 0 l 1.79191,-2.32193 z"
     inkscape:connector-curvature="0"
     style="fill:#49bea1;fill-opacity:1;stroke:#ffffff;stroke-width:0.63095468;stroke-opacity:1" />
  <path
     id="DE-HH"
     title="Hamburg"
     class="land"
     d="m 441.70513,206.45507 3.29358,-10.13314 5.23693,6.12027 5.65334,-8.89645 5.81741,0.82023 1.61523,-4.70691 5.35051,0.42904 1.26191,-5.74169 7.07931,-2.47334 1.93072,1.9938 -3.94978,6.2086 6.25908,5.95622 -1.84239,6.49883 -3.86144,1.70358 0.89594,6.85216 3.9624,0.23977 9.26242,9.70408 -1.42596,2.08216 v 0 l -5.59025,5.0224 h -5.17383 l -9.85552,-9.06052 -5.40097,6.37265 -5.59025,0.31547 -0.95907,-5.69121 -3.36929,3.53335 -4.39144,-4.47979 -2.63739,-12.21527 z"
     inkscape:connector-curvature="0"
     style="fill:#49bea1;fill-opacity:1;stroke:#ffffff;stroke-width:0.63095468;stroke-opacity:1" />
  <path
     id="DE-HE"
     title="Hesse"
     class="land"
     d="m 419.29362,458.92526 14.05766,1.36288 5.12336,7.6093 -4.83311,-0.9212 1.35024,4.20218 -3.30621,-1.23668 -1.59,5.71645 4.59336,5.96883 0.10095,6.71337 -5.30003,2.18309 -0.76977,5.03502 -2.97809,-0.64357 2.41023,2.85191 13.88101,6.37264 3.1043,-5.32525 -2.68786,2.20834 -2.97812,-5.69121 7.77336,-2.77621 -0.23976,-2.88977 5.59027,4.69431 -1.16097,-5.52717 4.10121,-0.39119 2.1074,5.4262 v 0 l 3.55858,11.64744 6.68812,0.75714 1.06001,6.66287 13.54028,5.23694 -3.06644,9.32551 -2.65002,-5.13598 -3.72262,1.76668 4.4293,2.92763 -2.68787,7.24335 5.18645,3.10429 -0.0757,3.49551 -13.28789,-0.66882 -1.59003,4.02549 3.52074,4.68169 -9.08576,0.31548 3.01598,1.33761 -1.29978,3.01597 3.24311,-1.75406 3.89931,4.99716 -2.67525,6.10764 -5.99408,1.70359 -6.1455,22.90365 6.71336,1.37549 -0.50475,-4.78264 8.07622,-0.47952 2.29666,6.13286 -3.64691,1.50168 0.37856,11.93767 v 0 l -1.89284,6.23383 -9.40125,7.9374 -11.25622,-2.68786 -1.23667,14.52458 -7.43265,4.85835 0.82025,4.73216 -13.19958,-1.02216 0.97168,18.38603 -6.29693,1.27453 -5.12336,-5.8679 -11.9629,-2.20832 -5.59026,7.18026 -2.59952,-4.35359 -9.77981,4.34097 -1.70357,5.45146 4.20215,0.95905 1.6531,5.84264 -2.5112,1.94333 1.4512,16.66982 4.00026,-0.31547 0.35333,6.86479 3.55859,1.13572 -2.18311,2.90239 3.25573,2.22096 -6.49884,15.05457 2.90239,5.21169 v 0 l -2.47334,1.55214 4.30311,5.9436 -14.04505,1.61525 -0.1262,5.9562 -8.03834,7.43264 -3.88669,-1.85499 1.94333,-7.14241 4.11383,0.16404 1.76668,-4.4419 -5.37574,1.36285 -0.74452,-4.05072 -9.74195,-1.3755 -0.76975,-10.81456 -7.81123,1.67835 1.66572,8.51788 -4.41667,3.29357 -6.89004,-8.54311 -4.25263,-0.0379 v 0 l -5.0855,-13.42671 9.65362,-8.69456 -4.46717,-0.795 -3.52072,-6.75121 -4.61859,-19.10531 -11.11741,-7.31908 -24.00153,7.89955 -8.99741,-10.70099 5.18644,-3.28096 1.11048,-5.40097 6.27169,3.0412 0.20191,-5.18644 -3.87406,-3.0412 2.08215,-4.37883 6.27169,-4.31574 3.59644,2.73835 0.30286,-6.90265 5.64073,1.32501 1.02215,-4.84572 -4.77002,-9.43911 -7.7355,-4.61857 3.76049,-5.3505 -1.24928,-9.03526 3.88666,-4.12646 4.79526,3.02859 2.59954,-2.19574 -0.89596,-16.99791 v 0 l 3.44501,-6.1581 -2.70048,-7.01623 10.68837,-11.58432 7.4074,2.49858 8.13933,-7.35693 -0.13883,-5.98145 6.34742,-6.82694 -2.80145,-7.73549 17.52794,-3.81097 -1.94336,-3.50812 5.72909,-9.16146 -3.65955,-8.30336 -10.15837,3.40715 -3.09167,-3.87406 5.06024,-7.53359 5.95621,-5.21169 19.63532,-1.62786 0.73191,-4.92145 -4.50502,-6.99098 10.24671,-4.66906 5.85525,2.92762 0.35335,6.51147 9.69146,-1.86764 12.51813,-16.99792 -2.78882,-3.02857 z"
     inkscape:connector-curvature="0"
     style="fill:#49bea1;fill-opacity:1;stroke:#ffffff;stroke-width:0.63095468;stroke-opacity:1" />
  <path
     id="DE-MV"
     title="Mecklenburg-Vorpommern"
     class="land"
     d="m 769.81417,123.42143 5.24955,9.19933 11.54647,6.54929 16.8591,16.90959 -3.36929,2.03167 2.23358,6.2717 -14.09553,-0.94643 -7.83647,4.12644 -0.93379,-4.15168 -1.37549,4.24002 -6.86479,-0.99691 8.95956,-7.97527 -2.34714,-10.91552 4.4419,0.0126 -0.4669,7.43264 2.00644,-3.72262 4.60597,2.66262 0.56787,-5.76692 -6.19599,-10.87768 -4.87097,0.10098 1.29976,6.43574 -0.35334,-2.5743 -4.98452,4.70692 -0.29025,-6.51146 -7.05406,3.91192 3.40715,-12.13956 -5.09813,-6.91527 z m -88.88888,-35.951795 2.03166,1.817149 -4.31572,-0.138809 z m -13.89363,-7.331694 2.58691,3.886682 28.40557,1.135719 0.78238,2.485961 -9.93122,2.574293 -13.2879,-2.334531 -8.17717,8.379079 13.74219,-6.423119 -2.46072,5.57764 1.93072,-3.848825 2.82668,3.886681 4.11382,-3.508108 2.03169,7.155026 9.02264,-9.540035 8.56836,-3.116915 -0.31547,5.350496 5.37572,4.000253 0.95907,11.849322 6.00668,1.67835 -2.82668,2.29666 3.44502,-1.79191 8.2024,4.31574 2.94025,6.99098 3.58384,0.29024 -4.31573,2.97811 8.03835,-1.95597 -2.82668,4.07597 2.27144,-1.57739 4.65644,9.47694 2.62477,0.10095 -0.80761,-5.26215 17.72983,-6.13289 -1.00954,2.71311 8.32861,6.95312 -4.69431,9.60313 13.70433,14.49935 -7.21811,6.18334 -0.58048,4.60597 22.95413,13.95672 13.2248,-1.14833 -4.1769,6.22121 5.23692,2.14524 10.61265,48.12922 v 0 l -7.58407,2.62477 -4.50501,6.90264 -13.16173,-0.39119 10.3098,-13.07337 1.1231,-9.3255 -26.04581,0.84546 -3.14214,-11.1679 -6.77646,-7.31908 -1.47644,6.04456 3.06644,3.93716 -7.93742,0.54262 -7.05406,9.60313 -6.08241,1.56477 -2.29666,10.62528 -3.01598,3.67215 -3.82358,-0.78238 -2.47333,6.73859 -8.50528,-4.30311 -5.57764,8.60621 -6.51144,-4.58072 -11.63482,11.13004 -4.99716,-1.09786 1.70358,-3.47025 -15.73601,1.75406 -1.07263,-4.82051 -5.77953,-0.37856 -1.80454,-3.65955 -17.41435,0.56787 -4.20216,-6.8648 -10.78932,-3.17999 -2.2462,-4.70694 -4.89621,2.58692 -9.94385,-4.37883 -1.93071,9.65362 -13.08601,6.99097 -5.12336,-0.60571 1.74145,3.81096 -6.99097,0.94643 -5.12335,-3.58382 -9.33814,4.73217 -1.51429,11.3067 -8.93432,-2.09477 -2.27144,3.98763 -10.12051,-1.50167 v 0 l -6.70073,-1.93072 1.03476,-5.84265 -8.61884,-4.47976 -8.20242,-16.06411 -5.57764,-2.00645 -6.65025,5.89313 -10.91552,-8.87124 -8.3917,0.85811 v 0 l 3.05383,-12.06385 15.45839,-8.01314 -0.21452,-8.26549 7.09193,0.45429 3.34405,-10.46124 -2.34715,-6.90264 -5.84264,-0.36596 -7.38217,-6.76383 1.07262,-16.43005 8.74504,-7.09193 2.47333,3.62166 4.35361,-1.29975 -5.79218,-2.0443 0.83287,-4.59335 v 0 l 10.87766,-6.7512 11.34454,-1.22407 6.41051,4.27788 -0.16404,6.59978 6.2843,-3.24311 9.96909,8.5179 1.9181,-9.61575 -3.05382,1.13571 -0.0757,-5.41359 -1.08524,4.98455 -3.47025,-0.51737 -0.17666,-4.97193 8.40432,-2.77622 -0.0253,7.52099 2.37238,-8.79551 4.36622,-0.31548 4.13906,-7.73549 -1.70357,-1.72883 -5.89313,7.49573 -0.34071,-3.47024 12.25314,-10.7767 13.43934,1.00952 22.3484,-5.30002 4.8836,-7.38216 12.07648,-8.01313 z m 49.51732,-16.631964 -6.51145,19.925548 2.78881,-18.272446 z m 22.94152,-11.256232 -4.51765,6.877407 3.4955,7.685027 17.21245,-0.933813 3.54596,2.902392 -8.34123,16.076725 3.11692,6.006689 4.74478,0.479525 7.55883,8.189792 -4.46716,9.956461 -0.68142,-3.78573 -4.51763,-0.17666 4.68167,-4.01288 -7.55884,1.3881 6.01932,-4.807868 -5.56503,2.978098 -2.49858,-3.205242 -6.56192,1.526909 -12.05124,9.956473 0.42905,3.19262 0.58048,-2.385 4.26525,1.37546 -2.06954,4.49241 -8.15192,-4.01287 2.49858,0.71929 0.9843,-4.55549 -5.26217,3.40716 -5.48931,-2.25882 -0.49214,-3.6343 -4.31574,2.01906 3.59644,-2.52383 -5.66597,-4.40406 1.04739,-5.31264 10.68837,-1.829768 -3.93716,-6.284309 -4.93407,0.99691 2.27144,-4.580732 -4.59335,1.135719 3.87406,-6.1455 4.63121,1.047385 -2.27144,5.148591 5.75432,-4.492398 -3.40716,-0.769765 0.22714,-3.47025 -4.8962,0.391191 -2.08216,-5.312637 8.03836,-1.211434 4.80788,5.628116 -0.56785,-5.350495 4.61857,-3.77311 -1.28715,4.391444 2.95287,-1.539528 2.96549,9.110985 3.0917,3.104298 4.20215,-1.362864 0.68141,-11.622184 -5.30001,1.905483 -6.09503,-8.707174 -10.14575,7.659789 3.30622,-11.962901 -9.91861,12.038616 6.82692,-13.729574 z"
     inkscape:connector-curvature="0"
     style="fill:#49bea1;fill-opacity:1;stroke:#ffffff;stroke-width:0.63095468;stroke-opacity:1" />
  <path
     id="DE-NI"
     title="Lower Saxony"
     class="land"
     d="m 207.07832,200.77648 -7.62194,2.01906 2.19573,3.83619 -7.24337,-3.97501 7.64717,-4.77002 z m 47.28374,-18.46174 2.96549,2.39764 -6.29692,-1.12311 z m 14.24696,-3.19264 4.2274,1.85502 -13.31315,2.95286 1.14834,-4.12643 z m 11.64743,-3.10429 7.57145,1.38809 -11.89981,2.34717 z m 13.90623,-1.80453 6.01931,2.73835 -9.9817,-1.55215 z m 63.80214,-13.25005 6.59979,7.55884 9.89335,1.72882 10.14576,-2.34716 -1.27451,-4.47977 v 0 l 16.48052,-0.70666 8.41694,3.5712 15.40791,21.6165 3.58383,10.41075 14.48672,8.15194 v 0 l 3.5712,0.44167 2.62476,12.2279 4.39144,4.46716 3.38192,-3.53335 0.94644,5.67859 5.60288,-0.31547 5.40097,-6.37264 9.85552,9.0605 h 5.17383 l 5.59025,-5.02239 v 0 l 23.0677,9.3255 v 0 l 8.3917,-0.85809 10.91552,8.87122 6.65025,-5.89312 5.57764,2.00644 8.20242,16.0641 8.61884,4.47977 -1.03476,5.84264 6.70073,1.93072 v 0 l 5.74169,8.84599 9.19932,-3.07905 11.73576,5.72907 v 0 l -3.40715,4.90882 -3.7605,-0.88333 -0.56787,8.68193 -15.206,8.3286 -24.74603,-4.40406 -5.24954,7.77336 -13.90625,1.41335 2.49857,17.07363 2.43549,-0.32811 7.30647,14.1334 4.55549,-1.8424 -3.11692,7.42004 5.70382,9.52741 -5.08549,0.22714 -0.89595,4.34096 11.31933,11.28148 -7.36956,4.37883 8.20243,14.75171 -5.79218,3.97502 3.74786,3.31882 -1.21142,5.06025 -8.16457,4.05073 1.80455,6.04456 -21.35151,0.89596 -11.1048,5.91834 7.15501,6.10765 -3.0538,2.5112 2.95285,6.18334 -5.80478,5.45145 -0.25238,4.88359 10.13314,21.95723 v 0 l -4.99716,2.82668 1.43858,7.88693 -4.07598,-2.7131 -6.97835,3.3062 -6.92789,-4.93406 -5.06026,0.60571 -5.72907,12.07647 -5.24954,2.99073 -2.52382,-1.99383 -3.87407,7.02884 -6.8774,1.72882 -1.76666,-2.46072 -9.52742,7.98788 v 0 l -2.1074,-5.42621 -4.10118,0.39119 1.16095,5.52717 -5.60289,-4.69431 0.23976,2.87715 -7.76074,2.77621 2.96549,5.70383 2.7005,-2.20834 -3.11692,5.31264 -13.88101,-6.37266 -2.41024,-2.85191 2.9781,0.64358 0.76976,-5.03501 5.30002,-2.17049 -0.10095,-6.71335 -4.58074,-5.96884 1.59002,-5.71645 3.29358,1.23668 -1.33762,-4.20217 4.82048,0.92119 -5.11072,-7.6093 -14.05766,-1.36287 v 0 l -6.13289,-0.44166 0.0126,-12.06385 5.72906,-6.61242 1.1231,-8.64408 -10.90289,0.92121 1.31238,-6.97837 -5.42621,-3.12952 0.0757,-5.32527 -5.31263,1.60263 -2.66264,-2.61216 1.52691,-11.6348 -4.8331,-3.29358 1.60261,-4.55549 -11.47074,-0.71929 -2.09478,-7.82385 4.66907,1.42597 -0.63095,-5.30002 3.29359,-0.97167 -8.93432,-6.32217 12.65694,-16.32911 -2.30929,-5.18645 3.40716,-4.32835 -3.00335,-2.75096 -3.78572,-0.36595 -9.3129,12.95981 -6.54931,1.62785 -11.96291,-0.80762 -0.41643,-14.2848 -4.07597,-3.5712 -7.59668,4.3031 -4.37882,-1.71621 -6.82694,8.88386 -9.16146,-1.855 1.07262,7.24336 10.25931,5.43882 -0.11355,19.30721 5.98145,3.93716 -8.88385,9.64098 -9.69146,-3.20524 -7.5336,8.1267 -12.8841,0.50476 -4.12643,4.35358 -7.71027,-6.29692 9.89337,-4.1012 1.47642,-6.18337 -10.01954,-5.46406 4.50501,-8.18979 -2.00643,-4.5555 4.82048,-0.9338 -4.4293,-7.30646 -17.99482,-4.68168 -1.9812,-6.81432 -6.48623,-2.88977 -3.45762,5.62812 3.07906,1.36286 -1.61524,5.98145 -23.08033,14.58766 -18.7772,2.92764 v 0 l -3.01598,-6.33479 3.81097,-10.96599 -6.66286,-12.35409 -3.93718,4.27787 -14.84005,-3.58382 -4.80787,-3.19263 -1.42596,-8.73241 6.97836,-1.36286 -4.39145,-8.42956 3.19264,-2.8393 24.40533,0.71929 2.62476,-27.4213 10.44861,-20.89721 -3.05381,-17.62888 3.8362,-5.37573 -1.42596,-8.63147 2.88978,-10.27193 5.07287,-0.23976 -23.67342,-2.86452 1.52691,-25.81869 5.31264,4.64384 -4.66907,-4.99718 5.09812,3.39456 3.16738,-4.07597 -4.35358,-5.00979 12.48028,-12.30361 9.376,-2.28407 13.18695,2.18312 14.36052,-6.57455 0.0253,2.66263 8.2655,-1.46382 2.27142,-3.20525 -1.99379,3.68477 17.42696,-0.15142 1.37547,8.9217 5.86788,0.76976 4.42931,13.65386 -8.95956,4.11382 0.22714,3.91193 11.07957,9.69145 5.31263,-0.17666 3.69741,-6.95312 -0.23977,-8.59361 -6.66288,0.13882 4.31573,-12.291 4.51764,-0.15143 10.1836,8.01313 4.37883,-0.79501 3.0412,4.74478 v 0 l 1.47644,5.03503 4.71953,-1.26191 -1.21144,-10.68838 3.41977,-4.74479 -11.23098,0.55524 v 0 l -3.12953,-12.02599 5.27478,-16.3922 5.14858,-8.95956 z m -16.02624,89.78486 v 0 l 1.6531,4.08857 8.73241,4.0886 7.97527,17.08625 4.32835,-1.85502 4.02548,4.41669 3.54597,-2.65 5.55241,3.50811 3.6974,-4.31574 0.69404,-6.82693 -3.34407,-2.53644 2.82669,-1.37547 -3.10431,-3.44501 -6.52407,2.76357 -2.73834,-4.39144 -16.58149,-1.04738 -3.52073,-2.58692 1.55217,-2.75096 -7.79861,-2.13262 z"
     inkscape:connector-curvature="0"
     style="fill:#49bea1;fill-opacity:1;stroke:#ffffff;stroke-width:0.63095468;stroke-opacity:1" />
  <path
     id="DE-NW"
     title="North Rhine-Westphalia"
     class="land"
     d="m 227.24363,381.44402 18.77722,-2.92762 23.09294,-14.58768 1.61524,-5.98143 -3.07907,-1.36286 3.45765,-5.62811 6.47358,2.88977 1.9812,6.8143 17.99483,4.68169 4.42931,7.29384 -4.8205,0.9338 2.00643,4.55549 -4.50503,8.1898 10.01957,5.46405 -1.47643,6.18338 -9.89337,4.1012 7.69766,6.30955 4.12643,-4.35359 12.8841,-0.51739 7.5336,-8.1267 9.69147,3.20526 8.87122,-9.641 -5.98145,-3.93715 0.11356,-19.30721 -10.25932,-5.43884 -1.07263,-7.24334 9.16147,1.85499 6.82694,-8.87121 4.39144,1.70357 7.59669,-4.29048 4.07598,3.57119 0.41641,14.28481 11.9629,0.80763 6.54932,-1.64049 9.31289,-12.94719 3.78573,0.36595 3.00334,2.75098 -3.40714,4.34096 2.30928,5.17383 -12.65694,16.32911 8.93432,6.32217 -3.30622,0.95904 0.63096,5.31265 -4.66907,-1.42596 2.08216,7.81121 11.47074,0.71929 -1.60261,4.5681 4.8331,3.28098 -1.52691,11.6348 2.66264,2.62478 5.32526,-1.60263 -0.0757,5.32526 5.42622,3.12953 -1.31239,6.97836 10.90289,-0.9212 -1.1231,8.64409 -5.74168,6.6124 v 12.06385 l 6.13288,0.44166 v 0 l -9.16147,4.1517 2.78882,3.02857 -12.51813,16.99792 -9.69146,1.86764 -0.35335,-6.51147 -5.85525,-2.92762 -10.24671,4.66906 4.50502,6.99098 -0.73191,4.92145 -19.63532,1.62786 -5.95621,5.21169 -5.06024,7.53359 3.09167,3.87406 10.15837,-3.40715 3.65955,8.30336 -5.72909,9.16146 1.94336,3.50812 -17.52794,3.81097 2.80145,7.73549 -6.34742,6.82694 0.13883,5.98145 -8.13933,7.35693 -7.4074,-2.49858 -10.68837,11.58432 2.70048,7.01623 -3.44501,6.1581 v 0 l -6.76384,-1.51429 -5.83001,-9.89336 0.0253,-8.93433 -11.29409,-4.66905 1.77929,-5.79217 -4.61859,-1.84238 -4.58075,3.09167 2.17051,9.3129 -8.20243,3.05382 0.87073,4.99715 -6.37264,5.31264 -17.49007,2.67525 -3.15477,10.03218 -9.85552,2.01905 -0.93381,-3.18001 -4.37883,6.09503 -2.53643,-1.50168 -2.08215,3.31882 -2.72572,-2.54905 -4.66906,5.23692 -5.43884,0.53001 0.0505,3.34405 -3.91193,0.795 1.4512,7.39478 -3.41979,2.00644 -4.59334,-4.92143 -4.47978,2.37237 4.3662,14.20911 -7.83644,3.06644 -2.59954,-4.31573 -2.47334,3.30619 -2.90238,-5.45144 -12.03864,6.43574 -3.19263,-6.59977 -0.65619,8.36645 v 0 l -5.06024,-7.24336 2.82666,-7.09193 -2.05691,-6.65026 -10.00692,-0.83287 -3.83623,-5.90573 7.28122,-10.63789 -7.36955,0.0126 -4.51762,-11.82409 -6.61242,0.0757 -1.06,-6.90264 -4.2274,-2.88978 4.12645,-2.37239 -0.47953,-3.91191 4.4293,-0.0883 1.67833,-9.51479 -6.06977,-1.65311 0.44167,-6.29693 -10.24671,1.14836 -2.61216,-9.3129 3.87407,-2.34716 3.65954,3.89931 4.15168,-7.11717 13.18695,-8.3917 -2.78882,-2.00644 2.06953,-2.72573 -6.70074,2.83931 -0.85809,-8.98479 12.40456,-15.38268 -0.99689,-19.34507 -9.85553,-12.08909 2.03168,-6.51147 -6.76384,-2.3219 0.93383,-5.55241 -7.1298,-2.82667 2.86454,-5.72906 -3.6469,-5.31265 9.56525,-5.27478 8.18979,3.09169 -3.78572,-7.91218 22.8027,9.71669 -0.82024,-6.14548 6.23382,2.72572 17.26293,-8.30337 3.83621,2.39763 7.88693,-11.42028 -11.52124,-6.89001 0.54262,-4.05074 3.44502,-0.61833 1.94333,-5.66597 7.58408,-0.265 10.38552,-13.74221 z"
     inkscape:connector-curvature="0"
     style="fill:#49bea1;fill-opacity:1;stroke:#ffffff;stroke-width:0.63095468;stroke-opacity:1" />
  <path
     id="DE-RP"
     title="Rhineland-Palatinate"
     class="land"
     d="m 174.26867,627.70565 0.65619,-8.36645 3.19263,6.59977 12.03864,-6.43574 2.90238,5.45144 2.47334,-3.30619 2.59953,4.31573 7.83645,-3.06644 -4.3662,-14.20911 4.47978,-2.37237 4.59334,4.92143 3.41979,-2.00644 -1.4512,-7.39478 3.91193,-0.795 -0.0505,-3.34405 5.43884,-0.53001 4.66906,-5.23692 2.72572,2.54905 2.08215,-3.31882 2.53643,1.50168 4.37883,-6.09503 0.93381,3.18001 9.85552,-2.01905 3.15477,-10.03218 17.49007,-2.67525 6.37264,-5.31264 -0.87073,-4.99715 8.20243,-3.05382 -2.17051,-9.3129 4.58075,-3.09167 4.61859,1.84238 -1.77929,5.79217 11.29409,4.66905 -0.0253,8.93433 5.83001,9.89336 6.76384,1.51429 v 0 l 0.89596,16.99791 -2.59954,2.19574 -4.79526,-3.02859 -3.88666,4.12646 1.24928,9.03526 -3.76049,5.3505 7.7355,4.61857 4.77002,9.43911 -1.02215,4.84572 -5.64073,-1.32501 -0.30286,6.90265 -3.59644,-2.73835 -6.27169,4.31574 -2.08215,4.37883 3.87406,3.0412 -0.20191,5.18644 -6.27169,-3.0412 -1.11048,5.40097 -5.18644,3.28096 8.99741,10.70099 24.00153,-7.89955 11.11741,7.31908 4.61859,19.10531 3.52072,6.75121 4.46717,0.795 -9.65362,8.69456 5.0855,13.42671 v 0 l 1.61524,16.50577 5.21168,1.88025 -4.59334,13.55291 3.06643,3.65953 -7.8743,7.4074 -2.54906,16.41744 -10.15837,16.48055 v 0 l -24.03938,-11.24362 -5.42621,2.99075 -5.80478,-3.93718 -9.70408,2.59954 -11.69791,-6.42311 -2.75095,-8.74504 -4.69432,0.53 0.5805,-2.35977 -6.42313,3.12954 v 0 l -5.85526,-9.83027 7.72288,-6.8648 1.23669,-9.3255 -8.88386,-2.39763 -3.16738,-5.46408 4.32834,-5.12336 -3.00334,-13.51503 -4.29049,2.30929 -14.97887,-9.19932 -7.02883,0.63096 -26.80296,14.37313 -18.34816,-4.0381 v 0 l -1.7919,-2.56167 5.86787,-11.98815 6.95312,-6.7386 0.93381,-10.76407 -7.8743,-0.1262 -5.51456,-4.97191 -3.16739,1.55215 -7.12978,-7.60933 -0.87072,-6.25906 -3.68478,-0.45428 -5.31263,-13.25006 2.48595,-13.64124 3.98763,-1.77929 -1.16095,-6.58717 8.31599,-3.975 2.46072,-6.63767 4.07596,2.0317 z"
     inkscape:connector-curvature="0"
     style="fill:#49bea1;fill-opacity:1;stroke:#ffffff;stroke-width:0.63095468;stroke-opacity:1" />
  <path
     id="DE-SL"
     title="Saarland"
     class="land"
     d="m 172.22438,723.7748 18.34816,4.0381 26.80296,-14.37313 7.02883,-0.63096 14.97887,9.19932 4.29049,-2.30929 3.00334,13.51503 -4.32834,5.12336 3.16738,5.46408 8.88386,2.39763 -1.23669,9.3255 -7.72288,6.8648 5.85526,9.83027 v 0 l -5.56502,5.31262 -11.00384,-0.68141 -4.75741,-4.31572 -3.40716,5.19905 -1.71618,-9.54004 -8.68195,-4.01287 -7.04144,1.28715 -0.20191,7.31907 -7.78598,-1.36286 -5.5524,-14.2091 -8.29074,-8.24027 2.71309,-2.30928 -4.90882,-4.50502 0.9969,-2.80145 -9.93122,-6.32216 -4.94669,0.69406 z"
     inkscape:connector-curvature="0"
     style="fill:#49bea1;fill-opacity:1;stroke:#ffffff;stroke-width:0.63095468;stroke-opacity:1" />
  <path
     id="DE-SN"
     title="Saxony"
     class="land"
     d="m 647.05563,530.51338 -7.0036,-6.70072 0.3281,-12.25316 -4.24002,-10.7136 3.96241,-1.08524 -3.84882,-17.1115 4.65643,-3.69739 2.09478,-9.3255 15.44576,-2.39763 1.40072,-3.5081 3.49549,1.855 11.24362,-4.05073 -1.33762,2.01906 6.62501,-6.991 6.43575,2.2336 5.8931,-4.84574 7.89957,6.01932 3.00334,-4.00027 5.91835,2.94025 v 0 l 8.69455,6.8143 -1.40071,3.19264 5.12335,5.79217 -2.59954,12.36671 3.16739,4.08857 4.21478,1.46383 4.54288,-6.68812 4.40407,1.47643 1.69095,-3.62167 11.57171,10.76409 18.5122,0.89595 14.94102,-4.37883 3.18001,3.01597 5.13596,-9.22457 -2.29666,-3.94978 4.39144,-0.15141 3.98763,-8.54314 15.736,5.14859 4.42931,-4.97192 14.41101,-4.94669 3.8362,3.89931 5.1486,-0.37857 1.41333,-5.75431 2.67524,2.01906 v 0 l 0.47954,7.18026 17.30076,7.29384 2.14524,16.36695 5.18647,8.88385 -5.19906,25.17509 -14.61293,32.62036 -14.20909,-4.74478 2.44811,-9.33813 -6.78907,1.6531 2.64999,-8.61883 -8.06358,-4.58075 0.23975,-3.10429 -0.7319,2.95287 -6.63766,0.58048 -8.60621,-4.63121 -3.4324,8.64408 5.26217,0.32809 -1.16095,3.83622 6.94048,2.35976 -0.82022,4.84574 -9.67885,0.39118 -15.2565,10.53696 -14.2217,2.37237 -0.16404,6.17074 -3.3567,2.15787 -26.53795,2.78882 -0.13882,8.37908 -4.66905,4.54288 -7.62194,-5.89312 -3.96239,8.87122 -6.08241,-1.56478 -4.17692,11.18053 -13.13646,-0.80763 -0.89597,7.73552 -5.93097,5.72905 -10.29718,-7.12978 -0.73191,3.58381 -1.21142,-2.2588 -4.80788,2.12001 -2.32192,4.42931 -2.70048,-2.46075 -12.89671,2.51122 -14.61292,19.52173 0.47953,8.64409 -3.77311,-0.50478 0.30287,-5.52715 -4.35361,-3.14216 1.23668,-3.12953 -4.35358,-0.22715 -1.31239,-6.24645 -6.71336,0.51738 v 0 l -9.93122,-4.10122 0.4669,-4.74477 -4.79525,-4.40407 v 0 l -2.27145,-3.15477 4.3536,-0.65619 1.31238,-4.17691 -7.6724,-6.42312 10.54955,-12.1648 4.41668,10.49906 1.90549,-3.20524 6.6755,-0.063 -1.08524,-6.66288 3.28097,2.05691 0.75715,-3.19263 5.12335,1.07262 4.29049,-4.22739 -4.44192,-3.92454 0.31547,-5.45145 -3.20524,-0.11357 5.08548,-5.66598 -3.1043,-4.78263 7.76075,-0.32809 2.17049,-3.88668 5.36311,1.37547 3.41978,-6.5493 13.74218,-3.15478 -3.73524,-9.77979 -8.08884,-2.62478 -0.31548,-5.84264 -13.37624,-5.11073 z"
     inkscape:connector-curvature="0"
     style="fill:#49bea1;fill-opacity:1;stroke:#ffffff;stroke-width:0.63095468;stroke-opacity:1" />
  <path
     id="DE-ST"
     title="Saxony-Anhalt"
     class="land"
     d="m 592.02375,276.35222 3.18004,-0.30285 -1.1105,3.55858 4.07597,0.46691 1.38811,4.11382 3.82358,-1.55215 8.20241,4.89622 -0.79501,5.70383 11.81148,4.53025 11.60956,-2.43548 0.15144,5.37573 5.55239,-3.35668 3.1674,2.20833 1.94334,7.48312 -4.73216,11.49601 2.47334,11.78623 -4.79526,0.53 -2.08214,12.58123 3.71,-0.30286 -0.35333,4.84575 4.59335,-3.35669 7.11718,5.83002 -4.6186,8.30337 2.72572,8.98479 -4.97191,12.37933 4.16431,3.12953 -6.36003,7.72289 17.42696,19.91293 3.5712,-2.20835 4.87097,6.19598 5.83003,0.45429 4.73216,-3.88667 8.73241,6.41048 5.23692,-0.6688 0.59309,4.26525 h 8.5179 l 1.22406,4.65645 5.83002,-0.063 -0.3281,3.74787 7.83645,-1.1231 3.76051,21.12437 -10.70101,9.11098 v 0 l -5.91835,-2.94025 -3.00334,4.00027 -7.89957,-6.01932 -5.8931,4.84574 -6.43575,-2.2336 -6.62501,6.991 1.33762,-2.01906 -11.24362,4.05073 -3.49549,-1.855 -1.40072,3.5081 -15.44576,2.39763 -2.09478,9.3255 -4.65643,3.69739 3.84882,17.1115 -3.96241,1.08524 4.24002,10.7136 -0.3281,12.25316 7.0036,6.70072 v 0 l -2.67525,6.63765 3.30621,2.25883 -6.05717,10.34764 -2.49856,-4.66906 -13.40149,1.08524 -10.171,-11.18052 -10.60004,1.64049 -7.24334,-8.82076 -14.76434,1.09787 -1.19883,-11.53385 -8.3286,-3.59643 8.80812,-9.67885 -6.38525,-10.95338 -6.22122,-3.7731 -26.38652,-0.97168 -3.72265,-15.42052 -4.82047,-5.24955 0.6562,-3.04119 2.83929,1.36286 -0.66881,-3.44503 -17.72983,-3.07906 v 0 l -10.13314,-21.95722 0.265,-4.87096 5.79216,-5.46407 -2.95286,-6.18335 3.05382,-2.51121 -7.14239,-6.10764 11.10479,-5.91836 21.3515,-0.89596 -1.80454,-6.04454 8.16456,-4.05073 1.21144,-5.06026 -3.74787,-3.33143 5.79216,-3.97503 -8.18979,-14.76432 7.35694,-4.36621 -11.31933,-11.2941 0.89595,-4.34096 5.0855,-0.22714 -5.70384,-9.52741 3.10431,-7.42004 -4.5555,1.8424 -7.30645,-14.1334 -2.43549,0.32811 -2.49858,-17.07363 13.90623,-1.40073 5.24956,-7.78598 24.74602,4.40406 15.20602,-8.3286 0.55524,-8.68193 3.77311,0.8707 z"
     inkscape:connector-curvature="0"
     style="fill:#49bea1;fill-opacity:1;stroke:#ffffff;stroke-width:0.63095468;stroke-opacity:1" />
  <path
     id="DE-SH"
     title="Schleswig-Holstein"
     class="land"
     d="m 341.37072,84.087717 2.96548,3.091679 -2.44811,2.107388 -3.36929,-5.413591 z m 209.06052,-10.738847 11.87456,3.710012 6.77644,14.057671 -9.8555,-2.76358 -5.65336,2.700485 -2.70048,-6.246452 -5.18644,0.630955 1.99381,2.019055 -3.16739,-1.892864 1.65311,-9.211938 z m -208.36647,-0.365955 -1.14834,5.400973 -1.47644,-6.625024 z m 17.18719,-3.356679 -0.21453,7.886935 -6.80167,1.425957 -2.32192,-5.691212 z m -12.05123,-2.889773 1.60263,2.81406 -5.2874,-2.574296 z m -13.85576,-8.404315 1.1862,3.419775 -3.05383,0.56786 -5.61549,-7.823839 5.64072,-6.498834 -1.72879,3.445013 z m 11.45813,-16.215535 4.93408,1.463815 -1.57739,9.211938 -13.51505,-3.05382 2.28404,-6.347404 z m -7.02882,-41.1382447 2.23357,0.7571455 -5.59025,0.1766674 3.54597,4.1390625 -7.01622,6.5745483 1.40071,9.565273 4.51765,2.927628 13.96932,-1.325003 2.7636,-3.344061 25.0615,1.211434 23.18128,7.243359 1.12309,5.628115 3.60906,1.224053 3.98764,0.176666 5.2874,-5.804782 2.18309,7.420028 14.22173,-12.240521 -0.59309,6.39788 15.18078,4.757398 4.84572,6.069785 4.22739,-1.438577 -0.0126,-4.694304 4.12644,2.473343 6.4736,12.972427 -3.14216,-0.113571 2.96548,2.372391 -0.61833,16.430058 -5.04763,6.612405 -10.53695,4.03811 2.61215,3.62168 20.90984,-5.072875 5.99408,4.050729 -5.38836,19.87507 4.13906,-2.23358 3.38192,-11.899802 7.83646,-2.990727 22.14649,9.893369 8.32862,8.1267 6.92788,-1.07262 11.34456,-9.565279 7.58408,1.905485 7.01623,-4.126445 1.05998,3.558584 -5.51454,2.662629 2.87715,21.364126 -17.90648,15.44577 -4.90883,-2.92763 -4.65645,7.9248 2.67525,6.82693 6.86479,0.89594 2.67524,4.80789 v 0 l -0.83286,4.59334 5.79217,2.04429 -4.3536,1.29977 -2.47333,-3.62168 -8.74505,7.09192 -1.07262,16.43006 7.38218,6.76385 5.84265,0.36594 2.34714,6.90265 -3.34405,10.46123 -7.09194,-0.45428 0.21454,8.2655 -15.4584,8.01313 -3.05383,12.06385 v 0 l -23.0677,-9.32552 v 0 l 1.42596,-2.08215 -9.26241,-9.70408 -3.97501,-0.22714 -0.89597,-6.86479 3.87407,-1.70358 1.84238,-6.49882 -6.25906,-5.95621 3.93716,-6.2086 -1.93072,-1.99382 -7.07933,2.47335 -1.2619,5.74168 -5.3505,-0.42906 -1.60262,4.70694 -5.83002,-0.82026 -5.65335,8.89648 -5.22431,-6.13289 -3.29359,10.14576 v 0 l -14.48672,-8.15195 -3.58381,-10.41074 -15.40793,-21.6165 -8.41692,-3.57122 -16.48054,0.70668 v 0 l -7.91217,-8.20242 -1.89287,-9.31289 -6.19597,-2.88977 5.99406,-2.94025 6.32219,1.48906 2.14524,-3.00335 -4.59336,-10.08264 -5.64074,1.62785 -3.93715,-7.15503 2.4481,-15.30696 -10.43598,-0.82023 -2.56169,3.07904 -7.86168,-5.80476 2.15786,-6.385273 2.72573,2.044296 3.91191,-2.473345 -6.75121,-1.741435 1.00953,-2.662629 20.37984,-2.549057 14.37313,-9.401225 -3.82357,-0.492144 -1.50169,-5.552401 -6.99097,8.35384 -7.31907,-1.476434 6.97836,-16.947442 -1.04739,-2.321914 -5.32525,1.690959 3.38191,-2.877154 -13.1491,-14.776958 -7.5336,-22.032938 -14.85266,5.060257 -5.9436,-4.517635 -4.77002,17.94435 1.31239,-22.348413 7.88694,-19.77412037 z"
     inkscape:connector-curvature="0"
     style="fill:#49bea1;fill-opacity:1;stroke:#ffffff;stroke-width:0.63095468;stroke-opacity:1" />
  <path
     id="DE-TH"
     title="Thuringia"
     class="land"
     d="m 519.79208,459.53098 17.72983,3.07906 0.66881,3.44503 -2.83929,-1.36286 -0.6562,3.04119 4.82047,5.24955 3.72265,15.42052 26.38652,0.97168 6.22122,3.7731 6.38525,10.95338 -8.80812,9.67885 8.3286,3.59643 1.19883,11.53385 14.76434,-1.09787 7.24334,8.82076 10.60004,-1.64049 10.171,11.18053 13.40149,-1.08525 2.49856,4.66906 6.05717,-10.34764 -3.30621,-2.25883 2.67525,-6.63765 v 0 l 4.34097,-1.67833 13.37624,5.11073 0.31548,5.84264 8.08884,2.62478 3.73524,9.77979 -13.74218,3.15478 -3.41978,6.5493 -5.36311,-1.37547 -2.17049,3.88668 -7.76075,0.32809 3.1043,4.78263 -5.08548,5.66598 3.20524,0.11357 -0.31547,5.45145 4.44192,3.92454 -4.29049,4.22739 -5.12335,-1.07262 -0.75715,3.19263 -3.28097,-2.05691 1.08524,6.66288 -6.6755,0.063 -1.90549,3.20524 -4.41668,-10.49906 -10.54955,12.1648 7.6724,6.42312 -1.31238,4.17691 -4.3536,0.65619 2.27145,3.15477 v 0 l -7.9248,4.26526 -3.65953,-3.78573 -20.69531,5.6155 -3.15477,-6.97836 -3.21789,1.29978 -1.81714,-3.09169 0.84548,-8.44217 -6.83954,-1.19883 -4.4293,5.69122 -3.47026,-0.40381 2.95287,14.94101 -2.66263,11.53385 -8.46741,-2.14524 0.94643,-5.62812 -3.41977,-4.54287 -10.48648,2.37239 -3.93714,-5.60288 -8.32861,-0.0126 -9.55264,5.84266 0.2019,3.15477 10.41074,5.70382 0.0883,3.87406 -9.24979,-0.8707 -1.18619,5.85525 -8.79551,-3.20525 -0.63094,-12.97242 -4.44194,-3.81098 -4.25263,1.09787 -3.15478,-5.84265 -4.59335,0.98429 -5.21168,-12.59385 -7.89954,-2.15786 -2.28407,-5.43883 -4.90883,1.43857 -2.76357,-2.65002 -5.36313,5.98147 v 0 l -0.37856,-11.93767 3.64691,-1.50168 -2.29666,-6.13286 -8.07622,0.47952 0.50475,4.78264 -6.71336,-1.37549 6.1455,-22.90365 5.99408,-1.70359 2.67525,-6.10764 -3.89931,-4.99716 -3.24311,1.75406 1.29978,-3.01597 -3.01598,-1.33761 9.08576,-0.31548 -3.52074,-4.68169 1.59003,-4.02549 13.28789,0.66882 0.0757,-3.49551 -5.18645,-3.10429 2.68787,-7.24335 -4.4293,-2.92763 3.72262,-1.76668 2.65002,5.13598 3.06644,-9.32551 -13.54028,-5.23694 -1.06001,-6.66287 -6.68812,-0.75714 -3.55858,-11.64744 v 0 l 9.5274,-7.97526 1.76668,2.44812 6.8774,-1.71621 3.88668,-7.02883 2.5112,1.99382 5.24955,-2.99074 5.72906,-12.07647 5.06026,-0.6057 6.91527,4.93405 6.99097,-3.3062 4.07596,2.71311 -1.43857,-7.89954 z"
     inkscape:connector-curvature="0"
     style="fill:#49bea1;fill-opacity:1;stroke:#ffffff;stroke-width:0.63095468;stroke-opacity:1" />
  <g
     id="stadiums"
     data-country="germany"
     data-circle-radius="12"
     data-circle-colors="#a149be,#bea149"
     transform="matrix(1.2619095,0,0,1.2619095,5.4295269,0.56910585)">
    <!-- <circle cx="100" cy="100" r="10" fill="#000000" id="Berlin" data-lat="52.514628"
            data-lng="13.239624" data-football-api-venue-id="694" data-stadium="Olympiastadion Berlin"
            data-city="Berlin" data-stadium-capacity="70 000" class="city" /> -->
  </g>
</svg>
