<?xml version="1.0" encoding="UTF-8" standalone="no"?>
<?xml-stylesheet type="text/css" href="/styles/home.css"?><!-- https://www.amcharts.com/svg-maps -->

<svg
   version="1.1"
   id="map-greece"
   viewBox="0 0 1000 1000"
   width="1000"
   height="1000"
   class=""
   sodipodi:docname="greece.svg"
   inkscape:version="1.3.1 (91b66b0783, 2023-11-16)"
   xmlns:inkscape="http://www.inkscape.org/namespaces/inkscape"
   xmlns:sodipodi="http://sodipodi.sourceforge.net/DTD/sodipodi-0.dtd"
   xmlns="http://www.w3.org/2000/svg"
   xmlns:svg="http://www.w3.org/2000/svg"
   xmlns:rdf="http://www.w3.org/1999/02/22-rdf-syntax-ns#"
   xmlns:cc="http://creativecommons.org/ns#"
   xmlns:dc="http://purl.org/dc/elements/1.1/">
  <metadata
     id="metadata23">
    <rdf:RDF>
      <cc:Work
         rdf:about="">
        <dc:format>image/svg+xml</dc:format>
        <dc:type
           rdf:resource="http://purl.org/dc/dcmitype/StillImage" />
        <dc:title />
      </cc:Work>
    </rdf:RDF>
  </metadata>
  <sodipodi:namedview
     pagecolor="#ffffff"
     bordercolor="#666666"
     borderopacity="1"
     objecttolerance="10"
     gridtolerance="10"
     guidetolerance="10"
     inkscape:pageopacity="0"
     inkscape:pageshadow="2"
     inkscape:window-width="1920"
     inkscape:window-height="1106"
     id="namedview21"
     showgrid="false"
     showguides="true"
     inkscape:guide-bbox="true"
     inkscape:zoom="65.757576"
     inkscape:cx="667.54285"
     inkscape:cy="69.277189"
     inkscape:window-x="-11"
     inkscape:window-y="-11"
     inkscape:window-maximized="1"
     inkscape:current-layer="map-greece"
     inkscape:showpageshadow="2"
     inkscape:pagecheckerboard="0"
     inkscape:deskcolor="#d1d1d1">
    <sodipodi:guide
       position="1537.77,500"
       orientation="0,1"
       id="guide830"
       inkscape:locked="false"
       inkscape:label=""
       inkscape:color="rgb(0,0,255)" />
    <sodipodi:guide
       position="665.87004,931.53641"
       orientation="0,-1"
       id="guide1"
       inkscape:locked="false" />
  </sodipodi:namedview>
  <defs
     id="defs4">
    <style
       type="text/css"
       id="style2">
			.land
			{
				fill: #f37163;
				fill-opacity: 1;
				stroke:white;
				stroke-opacity: 1;
				stroke-width:0.5;
			}
         .rectangle:hover {
         fill: #bdbdbd;
         cursor: pointer;
         }
		</style>
    <!-- <amcharts:ammap projection="mercator" leftLongitude="19.375819" topLatitude="41.7448887" rightLongitude="29.609274" bottomLatitude="34.803673"></amcharts:ammap> -->
    <!-- All areas are listed in the line below. You can use this list in your script. -->
    <!--{id:"GR-A"},{id:"GR-B"},{id:"GR-C"},{id:"GR-D"},{id:"GR-E"},{id:"GR-F"},{id:"GR-G"},{id:"GR-H"},{id:"GR-I"},{id:"GR-J"},{id:"GR-K"},{id:"GR-L"},{id:"GR-M"},{id:"GR-69"}-->
  </defs>
  <path
     d="m 607.57844,228.72902 6.61013,1.5028 4.09458,3.56097 -0.31581,5.65182 -9.18013,3.52831 -4.12724,-0.22869 -11.34721,-10.26911 2.40666,0.47915 5.5647,-4.21436 h 6.29432 z m -90.97364,-37.05809 3.48474,2.22152 2.17797,-1.08898 2.1453,3.7461 4.6064,2.55911 -2.66801,1.88394 0.25046,1.68792 2.12352,0.45738 0.098,2.41754 -2.01462,1.58992 2.1453,6.13097 -0.80585,2.43932 -1.27411,-1.47013 -2.16708,2.3631 -4.7044,0.99097 -4.61729,3.09271 -0.39204,-1.82949 -3.58275,-1.47012 0.40292,-1.80772 -1.78593,-1.78593 -6.02208,0.11979 -1.62258,-5.28157 4.73708,-12.76288 2.34131,-0.19602 6.32699,-4.80241 z m 152.04381,-121.617623 1.55725,-0.947416 5.83695,3.844111 6.8497,-0.119788 1.90572,1.829491 10.75915,3.397627 -0.0436,2.319534 4.00746,4.105466 6.14187,1.622585 -0.0762,10.84627 1.96017,13.100463 1.66614,0.89296 0.66428,4.32327 -0.56627,4.82419 -3.41941,2.90758 -7.42686,-1.58991 -3.14716,4.31237 -2.17797,0.69695 -0.4247,2.19975 -2.28687,0.41381 -3.22339,3.40852 -4.60639,0.46826 -1.37212,-1.31767 -1.94928,0.90386 0.0327,8.72275 -1.62259,1.32856 2.98382,4.06191 -3.29962,4.04012 2.96203,0.4356 -2.16708,4.63907 1.44835,4.08368 3.90945,2.71157 -0.89297,2.73335 -3.14716,1.80771 3.31051,5.05288 -5.48847,2.43932 -1.49191,-0.52271 0.46826,4.7153 -1.65525,0.11979 -2.51555,1.54635 -2.47199,1.91661 -1.33945,4.74797 -5.29246,2.39576 -2.71157,5.05288 -0.35936,3.69165 -4.87865,1.90572 -3.69165,-0.3158 -1.48102,-8.43962 4.06191,-3.07093 -1.3939,-1.20877 -3.08182,0.15246 -1.76415,2.55911 -4.31237,-3.93123 -4.32327,-0.91475 -17.60885,0.29403 -13.73208,-3.0056 -3.84411,1.13255 -9.58305,-4.87865 -7.2853,-1.6008 -3.06004,-3.81144 -4.35593,-0.63161 -3.7461,2.79868 -1.42657,-1.7097 -7.38331,-0.56627 -4.36682,-1.9275 1.04543,-4.19259 2.7769,-1.3939 -3.06004,-1.52457 -1.38301,1.13254 -6.83881,0.0436 -5.17267,5.21623 -1.08898,3.98568 -3.61543,-0.19602 -7.10017,2.74424 -7.32885,8.05847 -4.02924,-1.47013 -6.86059,0.46827 -3.10361,-2.19975 -3.17983,1.62259 -6.26165,-11.85903 -5.27068,-0.93653 -3.68076,0.89297 -0.28314,1.18699 -4.11635,-0.0871 -1.37212,1.77505 -1.8186,-0.63161 -1.56814,3.1036 -3.44118,1.21966 -2.71157,2.91847 2.04729,2.42844 -0.55538,1.90572 0.8494,2.38487 -5.69538,2.05818 -18.86119,11.28186 -4.0619,0.46826 -4.35593,-1.43745 -13.07869,-6.425 v 0 l 0.51182,-3.57187 6.14187,-1.65525 9.07122,-9.27814 2.86403,-0.0871 0.14157,-3.45207 3.62631,0.55538 -0.55538,-2.21064 1.94928,-3.39762 0.34847,-5.43403 -8.15648,-6.5339 0.41381,-4.23614 -5.22711,-3.40852 -4.32327,3.87678 -7.94957,-5.90229 -5.85873,-2.12351 -4.67174,-5.71717 -2.72246,-0.45737 0.42471,-2.86402 -2.58089,-5.08555 1.74237,-6.46856 -7.88424,-2.22153 -0.76229,-7.3833 v 0 l 1.69882,-0.41382 2.7769,-3.95301 9.03856,1.77505 3.28873,-5.25979 8.94055,-1.76415 2.13441,-3.92033 5.81517,5.51024 4.34504,-3.82232 0.81674,1.73147 2.27597,0.19602 2.3631,-1.86215 -1.1761,-7.350639 4.04012,-3.441184 3.11449,2.11262 2.42844,-0.29402 2.43932,2.809584 2.54822,-4.649964 1.94928,0.27224 3.15805,-3.168937 3.88767,4.584617 0.20691,3.484754 3.39762,-1.960174 2.64623,1.197884 1.79682,-2.515554 2.02551,-0.40293 4.51928,2.319544 2.26509,-3.876784 5.00932,-2.1453 2.70068,2.28687 0.60983,6.174533 1.285,3.48475 2.30864,1.50278 1.62259,5.17267 4.42127,0.9692 2.41754,-1.01276 4.47572,1.1761 1.65525,4.45394 5.67361,4.53017 1.18699,-1.11076 0.25046,-5.91318 5.37958,1.20877 4.08369,-2.10173 2.60266,2.75512 10.97695,2.7878 4.23615,3.94212 2.04729,-0.63161 10.02953,7.50309 1.13254,4.30149 4.98754,1.54635 1.51369,-1.35034 3.51742,0.55538 3.19072,-2.40665 5.82606,-0.62072 4.69351,-2.92936 5.41225,1.36123 2.98381,-5.17267 5.09644,1.7097 4.37772,-1.285 4.82419,2.91847 1.27411,-3.39762 5.70627,-0.46827 4.42127,-3.3105 4.68263,2.40665 1.04542,2.97292 2.1453,-0.27224 9.13657,-2.31954 0.88207,-2.26508 2.74424,-0.92564 9.28903,-0.68606 2.76601,-4.69351 -0.0653,-3.78967 1.11077,-1.4919 3.01648,-0.38115 -4.57373,-5.88049 3.09271,-4.954879 -0.78406,-4.541064 -2.91848,-0.32669 0.57716,-6.47945 -1.62258,-3.571864 -1.80771,1.208771 -2.38488,-0.490042 -2.33042,-2.972924 -0.90386,-4.987542 0.90386,-2.766017 4.0728,-0.413814 0.87118,-2.069068 4.32326,-2.515551 z"
     class="land"
     title="East Macedonia and Thrace"
     id="GR-A"
     inkscape:connector-curvature="0"
     style="fill:#f37163;fill-opacity:1;stroke:#ffffff;stroke-width:0.54449153;stroke-opacity:1" />
  <path
     d="m 392.22115,275.44639 3.28873,1.69882 7.25263,11.48877 10.20377,5.15089 6.77348,1.69881 2.52644,5.92407 5.25979,0.0218 0.43559,2.3522 -3.33229,1.04542 -11.95703,-1.61169 -12.76289,-6.28343 -10.61758,1.91661 2.66801,-6.12009 -7.55754,-12.3164 1.77504,-3.40851 -0.0436,-8.82076 1.20877,-0.0871 2.50466,5.85873 z m 9.39793,-161.88822 4.46483,-0.70784 2.18885,2.2542 2.91848,-0.40293 1.78593,1.64437 3.02737,0.14157 v 0 l 0.77318,7.3833 7.88424,2.22153 -1.74237,6.46856 2.58089,5.08555 -0.41382,2.86402 2.72246,0.45738 4.67174,5.72805 5.85873,2.12351 7.94957,5.90229 4.32327,-3.87678 5.22711,3.40852 -0.41381,4.23614 8.15648,6.5339 -0.34847,5.43403 -1.94928,3.40851 0.55538,2.21064 -3.62631,-0.55538 -0.14157,3.45207 -2.85314,0.0871 -9.07122,9.27814 -6.14187,1.65525 -0.51182,3.57187 v 0 l -3.4303,-0.60983 -9.38703,3.82233 -3.38674,5.79339 -0.83852,4.85686 4.57373,2.02551 3.95301,5.23801 0.37026,2.91847 3.45207,1.53547 1.24144,2.87491 5.09644,-0.16334 3.40852,3.2125 -2.33042,1.80771 -6.06564,0.18513 -0.99097,1.63347 0.63161,6.79525 3.27784,4.81331 6.50122,4.18169 4.13814,0.56628 3.57186,-1.32856 v 0 l 0.92564,6.17453 -1.16521,3.29962 v 0 l -6.5339,-5.59737 -8.47229,-1.67704 -6.83881,4.23615 -4.56284,-2.05818 -0.9692,2.66801 -1.78593,-0.1089 -1.23055,3.69165 1.29589,5.86962 2.86403,3.70254 0.34847,-1.14343 1.9275,1.09987 1.33945,4.88954 3.28873,-0.31581 1.66614,1.78593 8.6792,2.83136 7.99313,6.38144 -1.55724,0.83852 -0.15246,2.05817 2.89669,3.98568 1.02365,2.12352 0.33758,3.7461 -3.38673,2.79869 1.39389,1.87305 -0.70783,1.76415 -0.38115,1.0672 -6.01118,1.47013 -0.52272,-3.64809 -2.22152,0.60983 0.23957,-2.72246 -1.47012,-1.7097 -1.56814,0.0218 -3.51741,-3.56098 -1.40479,2.26509 -4.88954,-14.09144 -11.58678,-13.62318 -11.06406,-1.33945 -4.26882,-3.06004 -9.4197,-2.60267 -4.76975,4.62818 -1.73148,5.65182 -1.13254,0.0218 -2.82047,-4.88954 -14.69038,-4.85686 -3.855,-3.1036 -8.1347,-3.26695 -0.56627,-2.64623 -3.02738,-2.87492 -4.69351,-1.73148 -4.48661,1.01276 1.39389,-3.12539 -3.73521,-4.4975 -1.13254,-4.32326 -3.73521,-1.32856 0.19602,-3.02737 10.82449,-1.12165 5.14,-5.02021 -4.46483,-3.86589 1.38301,-2.15619 -0.2178,-3.99657 -5.36869,-2.15619 -5.69538,3.31051 2.29775,0.60983 v 2.31954 l -2.42843,2.48288 -8.70097,2.12352 -0.66428,6.59923 -2.02551,0.66428 -1.07809,-2.16707 -0.58805,-1.24144 -1.68793,-0.0871 -3.39762,1.67703 2.91847,4.09458 -3.38674,0.16334 -2.22152,0.2178 -3.23428,2.17797 2.01462,2.76601 2.15618,8.1456 3.3214,2.36309 -5.6736,10.24733 -1.35034,9.04945 -4.12725,8.3525 4.54106,16.705 7.54666,5.11822 v 0 l 1.65525,1.38301 -2.2433,2.00373 -1.3939,-2.40665 -2.91848,-0.82763 -2.12351,1.74237 -7.25263,1.21966 -2.79869,-2.6789 -1.12165,-5.30334 -5.4667,-3.90945 -2.00372,0.81673 -1.187,-1.84038 -1.93839,1.23055 -3.13627,-3.73521 2.49377,-8.96233 -2.42843,1.23055 0.60983,-3.68076 -2.97292,-2.95114 -3.48475,0.99097 -4.57373,7.66644 -2.33042,0.99098 -0.71873,-5.59738 -1.82949,0.19602 2.51555,-3.84411 -0.6425,-1.36123 -8.83165,-0.15246 v 0 l -0.69695,0.0218 v 0 l -0.93653,-1.32856 0.91475,-1.25233 5.64093,-3.01648 2.4611,-8.30894 -3.40851,-0.40292 -3.04916,-2.64623 0.0653,-2.1453 2.30865,-2.42843 -2.74424,0.23957 -3.17983,-3.24517 1.24144,-6.26165 -3.51742,-1.25233 -4.2797,0.56627 0.2178,-1.47012 -4.20348,-4.01835 -5.25978,-1.11076 -0.46827,-3.60454 -2.87491,-4.07279 1.89483,-3.16895 -2.87492,-2.668 -0.43559,-3.89856 0.16335,-2.40666 2.2433,-1.39389 -0.0327,-3.55009 -4.35593,-1.47013 -1.36123,-1.80771 -2.57,1.38301 -0.81674,-3.81144 -3.13627,-2.22153 1.8186,-4.0619 -6.22898,-0.98009 0.7514,-4.32326 -3.09271,-4.76975 6.30521,-1.99283 5.31424,-3.9639 -2.28687,-1.04543 -1.76415,-3.04915 v 0 l 1.52458,-1.64436 -0.2178,-4.08369 4.48661,-2.6789 3.41941,-5.61915 3.11449,-1.16521 -0.39204,-5.63005 6.38145,-4.66084 5.19444,-0.62072 3.23428,-3.57187 6.43589,4.90043 1.97106,-0.62072 2.39577,-3.757 4.32326,-1.64436 4.9222,0.80585 3.76788,2.33042 1.64437,-0.67517 0.59894,3.89856 2.30864,-1.80771 4.55195,-0.40292 2.02551,2.50466 13.77564,-1.54636 2.89669,1.64436 7.25263,-8.78809 4.58462,5.93496 2.30864,-1.23055 1.18699,-1.87305 1.08898,-18.87208 3.99657,-4.09457 22.33505,1.02364 5.53203,2.63534 5.28157,0.13068 6.62101,-1.48102 2.3631,-3.14716 0.17423,-3.52831 4.91132,-3.2125 3.78966,0.0653 1.90572,4.46483 6.17453,-4.83508 z"
     class="land"
     title="Central Macedonia"
     id="GR-B"
     inkscape:connector-curvature="0"
     style="fill:#f37163;fill-opacity:1;stroke:#ffffff;stroke-width:0.54449153;stroke-opacity:1" />
  <path
     d="m 228.69946,172.86419 4.50839,2.01462 3.1036,-0.90386 v 0 l 1.76415,3.04915 2.28687,1.04543 -5.31424,3.9639 -6.30521,1.99284 3.1036,4.76974 -0.7514,4.32326 6.22899,0.98009 -1.81861,4.06191 3.13627,2.22152 0.82763,3.81144 2.57,-1.38301 1.35034,1.80771 4.35593,1.47013 0.0327,3.56098 -2.2433,1.39389 -0.16335,2.40666 0.43559,3.89856 2.87492,2.668 -1.89483,3.16895 2.86402,4.07279 0.46827,3.60454 5.25978,1.11076 4.20348,4.01835 -0.2178,1.47012 4.27971,-0.55538 3.51741,1.25233 -1.24144,6.26166 3.19072,3.24516 2.74424,-0.25046 -2.30865,2.42843 -0.0653,2.1453 3.04916,2.65712 3.4194,0.40292 -2.4611,8.30894 -5.64093,3.01648 -0.91475,1.25233 0.93653,1.32856 v 0 l 0.17424,-0.0109 v 0 l 0.34847,2.94026 -1.78593,-1.16521 -0.72962,0.92563 0.76229,3.4303 -7.96047,10.31267 -2.45021,0.22868 0.33759,2.1453 -4.8242,6.56657 -3.5283,0.92563 -0.79496,2.42844 -3.37585,1.05631 4.09458,4.82419 1.02364,7.53577 -0.8603,1.74237 -7.81889,-2.2433 -4.27971,2.06906 -5.43402,-2.96203 -4.36682,1.66614 -2.70068,-1.99284 -3.75699,2.39577 -3.66988,-5.25979 -9.81173,0.72962 -2.23242,-1.47013 -3.23428,0.66428 -1.76415,2.52644 1.69881,0.26136 -0.52271,2.70067 -3.75699,2.51556 -3.29962,-0.58806 -3.17983,-4.05101 -2.00373,1.42657 v 0 l -2.04729,-2.58089 -4.24703,-1.5028 -4.90043,1.27411 -1.56813,2.65712 -6.7517,-2.40665 -1.8186,-8.995 -4.95487,-5.77162 4.24703,-0.71872 1.47013,-7.16551 -3.12538,-1.38301 -4.19259,1.48102 -2.12351,-5.90229 -3.11449,-3.89856 4.60639,-2.65712 -0.40292,-4.78064 -2.00373,-0.27224 1.25233,-1.67704 -7.15462,-11.73923 -4.41038,-4.56284 -9.29991,-1.84038 v 0 l 1.36123,-4.41038 -0.68606,-5.55382 3.5283,-1.69881 2.0364,-5.09644 2.92936,1.11076 3.37585,-0.62072 2.02551,1.7097 2.72246,-0.87118 1.37212,-6.51212 2.83135,-1.80771 0.82763,-2.51555 3.48475,-0.59894 1.37211,-13.83009 -7.14372,-9.18013 -0.0871,-3.17983 -2.55911,-1.05631 2.71156,-2.77691 -0.13067,-8.15648 16.85745,-0.11979 5.32513,-3.58275 4.87864,3.24517 9.75729,-2.43933 5.59738,-4.9222 4.61728,1.24144 6.05475,-0.49004 4.10547,5.73894 2.50466,-0.0327 4.24703,-4.04013 3.28873,-0.10889 0.19602,-3.68077 1.285,-1.73148 z"
     class="land"
     title="West Macedonia"
     id="GR-C"
     inkscape:connector-curvature="0"
     style="fill:#f37163;fill-opacity:1;stroke:#ffffff;stroke-width:0.54449153;stroke-opacity:1" />
  <path
     d="m 137.62781,248.78809 9.29991,1.84038 4.41038,4.57373 7.15462,11.72834 -1.25233,1.67704 2.01462,0.27224 0.40292,4.79153 -4.61728,2.64623 3.11449,3.90945 2.12351,5.90229 4.19259,-1.49191 3.12538,1.38301 -1.47013,7.16551 -4.24703,0.70784 4.95487,5.7825 1.8186,8.995 6.76259,2.40665 1.56813,-2.65712 4.90043,-1.26322 4.23614,1.49191 2.04729,2.59178 v 0 l -3.3214,0.58805 -1.00186,5.89139 -2.4611,0.2178 -0.0218,8.26538 2.8858,4.0728 -0.59894,1.31767 -1.43746,0.59894 -3.38673,-3.22339 -3.34318,0.098 -0.63161,2.05818 -3.71343,2.82046 3.27783,3.70254 -0.16334,3.87678 3.03826,1.01276 1.72059,10.1711 -2.23241,3.58275 3.47385,0.23958 0.0871,2.40665 -2.10174,0.74051 0.4356,1.19788 6.64279,6.2181 0.51183,4.82419 4.01834,2.57 6.52301,-0.22869 3.02738,3.83322 -0.0762,3.14717 1.99284,0.96919 -1.31767,3.9639 -4.84598,3.76788 -1.72059,3.15805 0.22868,2.29776 1.8295,1.55724 v 0 l -10.04043,7.55754 -3.7461,-1.76415 -2.05818,1.29589 -1.65525,-1.98195 -1.62259,1.51369 -5.61915,0.7514 -1.99284,2.45021 1.18699,1.78593 -2.45021,0.92564 2.04729,3.89856 v 0 l -3.97479,0.59894 -2.91847,2.76601 1.19788,2.34132 -4.23615,-1.44835 -1.6008,0.99097 -2.04729,-3.81144 -1.86216,0.23958 -2.61356,-3.22339 0.15246,-2.76602 -1.31767,-0.37025 -1.8186,1.26322 0.34847,2.23241 -2.48288,0.14157 0.90386,2.3522 -1.57903,0.46827 0.18513,-3.63721 -1.78593,0.56628 -0.51183,-2.28687 -1.51368,1.13254 -1.08899,-1.15432 2.80958,-2.07996 -3.02737,-3.89856 -1.80771,1.65526 2.06906,0.67517 -1.55724,1.08898 -0.70784,0.63161 0.1089,1.04543 -0.49004,3.75699 -3.07094,4.74796 h -1.51368 l 8.95144,7.02394 -7.16551,-1.52457 0.098,2.60267 -2.99471,0.0436 -2.70067,-5.7825 1.50279,-2.2542 -0.83851,-3.90945 -4.08369,-4.99843 -8.45051,-6.47945 -4.22525,-6.27254 -5.83695,-3.87678 0.1089,-7.37242 -1.45924,0.82763 -2.02551,-1.52458 -0.82762,1.05632 -3.71344,-1.47013 -0.794954,0.95831 -4.530169,-0.7514 -5.17267,-5.33602 -0.60983,-6.61013 -1.742373,-2.21063 -3.081822,-0.58805 0.762288,-0.91475 -2.526441,-4.62818 5.913178,-0.19601 -5.913178,-5.58649 1.350339,-0.71873 2.776907,1.43746 0.6425,-2.83135 -2.842246,-1.54636 -5.836949,0.77318 -1.655254,-1.35034 4.247034,0.46826 -3.23428,-2.01462 -2.994703,0.89297 2.874915,-3.03826 0.174237,-5.15089 1.93839,-1.70971 -0.07623,-2.19974 -4.410381,-1.60081 -2.657119,-2.7769 -1.219661,1.14343 -3.974788,-3.92034 -3.397627,0.6425 -1.481017,-1.77504 2.036398,-1.15433 5.858729,2.35221 3.680763,3.37585 5.978517,1.26322 3.571864,-0.38115 -0.784068,-2.18885 1.285,-2.41755 3.2125,1.75327 0.152458,-3.06005 5.423136,-4.56284 -2.929365,-4.13813 1.437458,-2.30865 -1.698814,-2.92936 1.437458,-1.42657 7.557542,3.9639 3.168938,-3.9639 0.19602,-3.1036 -5.16178,-8.73364 -2.395762,-1.77505 0.696949,-2.89669 -3.2125,-5.58648 7.927793,-0.60983 1.77505,-7.13284 3.94212,-2.90759 3.65898,1.27411 2.22152,-2.47199 3.60453,2.34131 2.29776,-0.0762 2.7878,-0.58806 2.48288,-2.67889 5.06377,-0.58805 -0.16335,-3.98568 1.74237,-3.08182 -1.8186,-1.75327 0.29403,-3.07093 2.74423,-1.285 1.77505,-3.24517 -1.41568,-6.51212 2.63534,-4.47572 2.66801,-1.26322 -0.52272,-1.86216 z"
     class="land"
     title="Epirus"
     id="GR-D"
     inkscape:connector-curvature="0"
     style="fill:#f37163;fill-opacity:1;stroke:#ffffff;stroke-width:0.54449153;stroke-opacity:1" />
  <path
     d="m 463.97425,406.87576 -0.4356,3.02737 1.17611,1.24144 -1.31767,0.93653 -1.27411,-4.31238 z m -64.08665,-13.62318 4.84597,2.61356 -1.03453,2.27597 -2.34132,1.00187 -1.65525,4.1708 -1.57903,-1.76415 -1.73148,0.66428 -2.1453,-1.48102 -1.33945,0.92564 -0.32669,-2.26509 5.36869,-2.63534 -0.0327,-2.18885 z m 13.88453,-0.38115 4.44305,4.99844 7.20907,3.28873 0.76229,3.28872 1.21966,-1.33944 4.76974,0.98008 -2.53733,4.24703 -4.47572,2.40666 -2.22152,-2.60267 -3.83322,0.0109 -0.45738,-4.12725 -6.23987,-9.29991 z m 36.30669,-2.30864 0.42471,2.53733 1.12165,-0.43559 -0.76229,6.00029 -2.8858,0.14157 -1.56814,-2.18885 3.855,-1.57903 -1.54635,-3.19072 0.89296,-2.60267 z m -2.2433,-7.36152 0.4247,1.63347 2.52644,1.08898 -5.59737,10.32356 -6.10919,6.09831 -3.34318,-0.39204 0.1089,-1.8186 4.83508,-2.89669 -1.21966,-3.27784 4.24703,-3.5392 z m 11.77191,-10.12755 2.48288,2.48288 -0.57716,5.11822 -2.45022,1.76416 -1.93839,-1.27411 1.69882,-1.49191 -2.47199,-0.87119 1.09987,-3.83322 z m 25.24262,-0.0327 -0.50093,4.22526 -1.02364,0.0653 0.2069,-3.24517 z m -15.02796,-4.80241 0.79495,1.3939 -3.06004,4.26881 0.0436,-1.11076 -2.10174,-0.13068 2.15619,-1.44835 -0.13068,-2.16707 z m -201.25496,-99.30437 8.83165,0.15246 0.6425,1.36123 -2.51555,3.84411 1.82949,-0.18513 0.71873,5.59738 2.33042,-0.99098 4.57373,-7.66644 3.48475,-0.99097 2.97292,2.95114 -0.60983,3.68076 2.42843,-1.23055 -2.49377,8.96233 3.13627,3.73521 1.93839,-1.23055 1.19789,1.84038 2.00372,-0.81673 5.4667,3.92034 1.12165,5.31423 2.80958,2.6789 7.25263,-1.21966 2.12351,-1.74237 2.91848,0.82763 1.3939,2.41754 2.2433,-2.00373 -1.65525,-1.38301 v 0 l 3.64809,2.62445 0.11979,4.90042 2.48288,5.64094 11.27097,8.52673 4.31238,19.99373 3.75699,8.78809 4.75885,3.03827 1.9275,-0.33759 1.57903,2.83136 2.79869,0.0762 4.4975,3.47385 2.04728,4.96577 7.15462,7.88423 1.80771,4.32327 6.40322,5.96762 1.30678,5.90229 3.04916,3.16894 3.29962,7.1764 -1.44835,3.45208 -2.91848,2.47199 -9.26724,1.89483 -0.40293,1.13254 1.89483,0.80585 -2.15618,1.96017 -1.52458,-1.0781 -6.46856,2.49378 -4.78063,-0.1089 -2.16708,-1.44835 1.82949,-5.42314 2.40665,-0.34847 1.40479,-2.17797 0.17424,2.85314 1.15432,0.2178 -2.80957,4.80241 1.47012,-0.37025 6.70814,-3.36496 0.51182,-4.04013 2.96203,1.6117 0.60984,-5.15089 -2.82047,-2.57 -2.53733,-8.01492 -4.12725,-4.0619 -9.83351,-1.37212 -2.79869,-4.47572 -6.09831,-1.16522 -0.50093,1.35034 1.56814,0.7514 -1.45924,3.09271 2.02551,2.31954 -12.24017,2.86402 -0.13068,7.74267 3.46297,8.22182 2.41754,-2.47199 -0.90386,-2.02551 2.0364,-0.34847 -0.32669,2.52644 1.32856,-0.27224 1.08898,1.79682 1.00186,5.46669 1.85128,-0.0218 -0.69695,-2.36309 4.68262,4.13813 v 2.87492 l 1.73149,1.11076 -1.17611,1.68793 0.77318,2.23241 -3.36496,0.50093 -0.11978,3.29962 7.16551,-3.94212 3.20161,-0.19601 -1.00187,2.94025 -2.51555,-0.18513 -0.9583,1.3939 v 0 l -8.41784,4.42127 -4.54106,-0.89296 -2.22153,-3.57187 -10.68292,0.81674 -0.93653,-2.28686 -3.65898,0.0545 -2.43932,-2.12352 0.19601,-1.7206 -1.88394,-0.76228 -6.37055,1.96017 -1.32856,-1.01276 -9.23457,0.0544 0.94741,-2.34131 -1.18699,-6.28343 1.16521,-2.01462 -5.61915,-1.29589 -0.58805,-5.83695 -2.9947,-1.285 -1.67704,-3.77877 -10.18199,-1.16522 -2.18886,-4.57372 -1.54635,0.0436 -0.3267,3.39762 -1.99284,1.30678 -4.22525,7.78623 -3.17983,1.86216 0.43559,4.81331 -4.4975,3.04915 -3.86589,-0.40292 -2.82046,2.7769 1.13254,3.29962 -0.83852,0.6425 -8.89699,2.79869 -2.18885,-9.81174 -5.66272,-2.97292 -1.6008,-3.4303 -2.05818,-0.29403 -2.82047,4.33416 -2.9947,1.64436 -4.64996,-1.23055 -0.43559,-3.50652 1.63347,-4.2906 -4.18169,-1.07809 -1.13254,-3.3214 1.54635,-1.82949 -2.14529,-2.86403 -4.94399,-0.34847 -1.77504,1.68792 -2.89669,0.098 -3.01649,3.11449 -4.19258,-2.59178 -4.48661,4.17081 -1.57903,-0.2178 0.0545,1.99284 -4.67174,3.07093 v 0 l -0.11978,-0.098 v 0 l -2.45022,-1.56813 v 0 l -1.82949,-1.55725 -0.22868,-2.29775 1.72059,-3.14716 4.84597,-3.76788 1.31767,-3.9639 -1.99284,-0.9692 0.0762,-3.14716 -3.02737,-3.83322 -6.52301,0.22869 -4.01835,-2.57 -0.51182,-4.8242 -6.64279,-6.2072 -0.42471,-1.19788 2.10174,-0.74051 -0.0871,-2.40665 -3.47385,-0.23958 2.23241,-3.58275 -1.72059,-10.1711 -3.03827,-1.01276 0.16335,-3.87678 -3.26695,-3.70254 3.71344,-2.82047 0.63161,-2.05818 3.34317,-0.098 3.38674,3.22339 1.43746,-0.59894 0.59894,-1.31767 -2.88581,-4.0728 0.0218,-8.26538 2.46111,-0.2178 1.00186,-5.8914 3.3214,-0.57716 v 0 l 2.00373,-1.43746 3.17983,4.06191 3.29962,0.58805 3.76788,-2.51555 0.52271,-2.70068 -1.69881,-0.26135 1.76415,-2.52644 3.23428,-0.67517 2.23241,1.47012 9.81174,-0.71872 3.66987,5.25978 3.75699,-2.39576 2.71157,1.99284 4.36682,-1.67703 5.43403,2.96203 4.2797,-2.06907 7.8189,2.24331 0.8603,-1.75327 -1.01276,-7.53576 -4.09457,-4.82419 3.37585,-1.05632 0.79495,-2.42843 3.52831,-0.92563 4.82419,-6.56657 -0.32669,-2.1453 2.45021,-0.22869 7.94958,-10.30177 -0.76229,-3.44119 0.72962,-0.91475 1.78593,1.16521 -0.34848,-2.94025 v 0 z"
     class="land"
     title="Thessaly"
     id="GR-E"
     inkscape:connector-curvature="0"
     style="fill:#f37163;fill-opacity:1;stroke:#ffffff;stroke-width:0.54449153;stroke-opacity:1" />
  <path
     d="m 130.93056,554.96656 4.96576,7.6011 6.06564,0.92564 8.04758,4.12724 -0.3158,3.73522 8.97322,5.70627 -0.4247,2.80957 -8.50496,-3.71343 -3.36496,1.43746 -2.52644,3.28873 -0.55538,1.87305 2.04729,1.75326 -0.0436,1.87305 -2.58089,1.16521 -2.51555,-1.35033 -0.18513,-1.87306 -3.13627,-1.78593 -1.27411,-2.91847 -6.35966,-4.34504 0.44648,-2.15619 -2.61356,-1.65525 0.77318,-1.90573 -3.00559,-0.83851 -2.1453,-3.03826 -0.4247,-5.73895 1.88394,-3.45207 5.73894,-4.64996 z m -14.34191,-69.79292 1.89483,0.89296 1.29589,7.43776 1.56814,0.49004 1.66614,9.53949 -2.7769,2.87492 2.48288,5.07466 1.88394,0.90385 3.22339,-3.40851 -0.41381,2.27597 2.18885,-0.19601 1.45924,4.58461 10.21466,13.72119 -2.75513,7.18729 -2.12351,-1.49191 -2.22153,1.01276 -4.15991,-1.09988 -8.12382,-5.88051 -4.51928,2.01462 -0.4247,1.45924 -5.33602,-1.47013 -2.42843,-2.30864 0.79496,-1.7097 -2.09085,-2.96204 0.66428,-1.67703 -1.24144,-2.48288 3.36496,3.28873 0.67517,-0.62072 -6.34877,-13.68852 -2.12352,1.51368 1.6117,5.20534 0.0871,8.12382 -5.684487,1.55724 -0.588051,-2.19974 -3.648093,-1.60081 1.9275,-10.28 1.753263,0.1089 1.285,-2.15619 1.012758,-9.49593 1.08898,2.48288 3.08182,-2.60267 0.63161,3.73522 2.15619,0.17423 0.68605,1.87305 5.54293,-4.0619 1.285,-2.52644 -0.8603,-1.90572 0.99098,-0.9692 -1.17611,-10.33445 z m 8.5703,-3.66987 2.74424,1.57902 -1.44835,3.68076 2.75513,-0.29402 -0.22869,1.54635 1.94928,1.7206 -3.44119,8.64652 2.70068,-1.03453 0.4356,-1.65526 0.83851,-0.63161 2.0364,0.63161 0.70784,7.2853 2.3522,1.14343 -4.41038,2.33043 -2.9947,-2.49377 -4.84598,-14.76661 -2.57,-3.06005 0.31581,-1.79682 2.8858,1.07809 z m 12.7411,-21.47475 0.93653,-0.33759 -0.16335,1.51369 1.87305,-0.54449 -0.39203,2.06907 -2.27598,1.37212 -1.56813,-0.58805 -0.99098,2.48288 -1.89483,-1.7206 0.46827,-3.53919 2.30864,1.15432 z m -8.49407,-22.23703 2.51556,0.52271 -1.19789,1.9275 1.79683,3.24517 -0.77318,5.57559 1.33945,4.05102 -1.70971,3.06004 1.05632,9.16924 -1.09988,1.19788 -1.8186,-2.16708 0.50094,2.6789 -2.66801,1.93839 -1.7206,-0.99097 -1.48101,3.89855 -0.63161,-2.80957 -1.79683,0.32669 -1.88394,-4.14902 -5.27067,8.79898 1.25233,-14.91907 4.37771,-12.45796 4.63907,-6.54479 2.52644,0.15246 z m -45.682831,-38.21242 3.092712,3.35407 -3.702542,-1.19788 -0.718729,-1.23055 z m -8.995,-10.8136 3.550085,2.10174 3.658983,6.39233 -3.179831,-0.18513 -3.637203,-2.7878 -1.589915,-3.02737 0.05445,-2.34131 z m -27.289915,-72.67873 9.877076,5.54292 -2.55911,5.16178 -5.651822,1.94928 -3.321398,3.02738 0.272245,2.42843 2.047289,1.50279 -1.93839,0.60983 0.696949,1.49191 8.265381,2.92937 -2.243305,7.13284 1.862161,10.51957 0.838517,1.62259 6.022076,1.75326 1.742373,3.07093 3.560975,-1.21966 1.731483,-2.40665 4.900424,10.41068 -1.001865,2.34131 -10.868051,-4.68263 -3.963898,-3.20161 -4.704407,-0.79496 -3.789661,-3.02737 -2.156186,-5.21623 -0.108899,-6.38144 -1.90572,-3.48474 -8.602966,-6.38144 -2.036398,-3.757 0.729618,-2.58089 -5.412245,-0.76228 0.903856,-4.12725 -1.622585,-1.16521 -1.219661,1.44835 -1.088983,-5.61916 2.994703,-5.68449 4.083687,1.30678 3.408517,-1.18699 4.44305,1.02364 z M 2.9859449,311.03436 6.1548856,310.64232 3.9333602,313.60436 0.65552103,313.29944 1.112894,309.9236 Z"
     class="land"
     title="Ionian Islands"
     id="GR-F"
     inkscape:connector-curvature="0"
     style="fill:#f37163;fill-opacity:1;stroke:#ffffff;stroke-width:0.54449153;stroke-opacity:1" />
  <path
     d="m 170.76556,504.74266 -2.02551,4.06191 -0.46826,-2.10174 1.285,-0.34847 -0.098,-1.87305 z m 71.66598,-2.8858 2.63533,1.58991 6.57746,-0.52271 4.00746,2.16708 2.47199,-0.28314 1.55725,3.50653 3.88767,1.68792 1.1761,2.17797 2.9947,-1.52458 3.73521,5.91318 4.76975,2.15619 1.64436,2.42843 5.47759,1.25233 6.35966,-0.6425 3.65898,4.15991 v 0 l 0.33759,7.35064 -1.51369,7.13284 -3.81144,4.73707 -1.97106,0.2178 -1.11076,2.74424 -5.05288,1.36123 0.52271,4.58462 -2.38487,3.15805 3.92033,6.27254 -5.25978,1.61169 -3.60454,3.55009 -3.81144,-1.285 -0.80585,-1.57903 -2.17796,0.29403 -4.44305,4.72619 -6.79526,-1.97106 -3.92034,-3.0056 -1.97105,0.29403 -3.13628,-2.6789 -0.87118,-3.14716 -7.37242,5.5647 -1.6008,2.6789 -0.17424,6.63191 1.72059,6.72991 -1.86216,11.47788 1.08899,0.94742 4.07279,-1.93839 3.7461,0.29402 3.57187,5.98941 2.50466,0.80585 4.91131,5.54292 -10.55224,6.32699 0.87118,5.54293 -4.13813,1.45924 -15.08242,-0.2178 -1.64436,1.37212 v 0 l -5.88051,-12.37085 -8.14559,-10.13843 -16.53077,-11.60856 -3.88767,0.0109 -1.43745,3.53919 -0.91475,-5.77161 1.74237,-2.85313 -1.91661,-7.25263 -7.44864,-5.95674 -11.0314,-3.9639 -0.2178,-4.79152 1.80772,-7.01305 1.23055,-0.66428 2.53733,1.98195 2.98381,-1.11076 10.25822,-10.6067 6.27254,-12.18572 0.37026,-11.88081 1.79682,0.30492 2.04729,2.92936 4.18169,-0.92563 7.53577,5.42313 7.39419,1.33945 6.5339,-3.06004 4.2797,-5.30335 2.99471,-8.75542 3.36495,-3.95301 4.46483,-0.33758 z m -74.15975,-10.58492 1.43746,0.77318 -0.65339,2.94026 -1.84038,-5.23801 z m -14.86462,-21.74699 -3.93123,5.25979 0.74051,1.77504 -1.14343,-0.0544 0.15246,-3.12538 3.37584,-4.53017 z m 2.04729,-6.17453 -3.23428,3.97479 -4.10547,1.72059 0.37026,1.32856 -1.80771,1.63347 -0.20691,-2.79868 3.26695,-5.69538 z m 40.00924,-66.40619 2.45021,1.56814 v 0 l 0.0653,0.0544 v 0 l 0.0327,3.82233 3.29962,3.99656 -2.18886,5.7825 -3.29962,3.58276 0.37026,1.85127 10.41067,5.06377 3.58276,9.28903 8.92966,2.73334 0.92563,1.74238 -0.7405,2.02551 -4.09458,0.41381 -2.41754,5.82606 2.51555,7.84068 11.76101,4.15991 6.41412,-1.30678 1.1761,4.74797 3.48474,-1.12165 2.04729,-6.22899 6.14187,1.13254 4.23614,-1.54635 0.18513,-5.28157 5.3469,0.77318 2.64623,3.80055 -0.0436,1.84038 -2.55911,1.30678 -1.0672,2.61356 1.49191,9.01678 -3.25606,2.37398 4.42127,2.42843 -1.94928,5.21623 0.83851,3.31051 -11.06406,5.81517 -0.92564,8.15648 -2.17796,2.79869 v 0 l -1.81861,-1.45924 -4.41038,2.37399 -2.15618,5.79339 -6.20721,-2.88581 -2.2433,0.63161 -3.87678,-1.36123 -1.99284,1.88394 -3.04915,-0.2069 -1.02365,1.99284 -7.02394,3.99656 -2.52644,-0.44648 -6.0983,-3.5283 2.59178,-0.53361 4.00745,3.27784 -1.33945,-4.37771 1.32856,-1.97106 -1.75326,0.3267 0.0109,-1.96017 -4.09458,1.32856 -1.39389,-0.83852 1.51368,-1.40479 -1.30678,-1.99284 -0.74051,2.10174 -3.25606,-2.41754 -0.75139,-4.7153 -0.88208,-1.04542 0.58805,-0.69695 -4.22525,-6.47945 -1.64437,2.3522 4.73708,5.36869 -1.1761,0.81674 -0.0327,5.68449 -4.50839,1.43745 -0.92564,4.38861 -4.44305,0.89296 -2.50466,2.10174 4.45394,1.16521 -9.8553,0.62072 -1.62258,-0.76229 -0.67517,-3.7461 -3.15805,0.28314 0.80585,-3.26695 -1.65526,-0.57716 0.6425,-2.33043 0.59894,1.85128 2.09085,-3.26695 -0.14157,-1.78594 2.47199,0.4356 0.6425,-0.9692 -4.58461,-0.78407 1.24144,-0.91474 -2.29776,-5.00932 0.55538,-1.40479 -1.96017,-1.76415 1.3939,-4.66085 -1.85127,-0.41382 -3.35407,3.76789 h -1.75326 l -0.27225,-2.86403 -1.47012,-1.03453 1.43746,-8.72276 -3.31051,-5.08555 -0.0436,-3.04915 -7.23085,-0.50093 -4.04013,-14.89729 -2.47199,-0.22869 -4.32326,4.51928 -0.2178,-1.03453 -2.9947,1.58991 -4.32326,-7.42686 1.33945,-4.97665 4.90042,-1.93839 -4.22526,-6.62102 1.74238,-4.36682 2.14529,4.04012 2.09085,0.89297 3.00559,-0.32669 2.30865,-4.51928 -0.14157,4.72618 4.33415,-0.4247 1.25233,-3.38674 2.17797,2.04729 3.48475,-1.56814 1.85127,3.08183 2.86402,-1.21966 -0.56627,3.88767 5.84784,4.21436 1.9275,-6.03297 4.98754,2.37399 1.57903,3.69165 0.98008,-0.57716 -0.8494,-4.41038 -2.60267,-2.34132 1.285,-8.63563 -4.72619,-6.8606 v 0 l -2.04729,-3.89856 2.45021,-0.92563 -1.1761,-1.77504 1.99284,-2.45021 5.61915,-0.7514 1.62259,-1.51369 1.65525,1.98195 2.05818,-1.29589 3.75699,1.76415 z"
     class="land"
     title="West Greece"
     id="GR-G"
     inkscape:connector-curvature="0"
     style="fill:#f37163;fill-opacity:1;stroke:#ffffff;stroke-width:0.54449153;stroke-opacity:1" />
  <path
     d="m 478.42505,541.51762 1.68793,2.17797 -0.56627,2.34131 -4.22526,0.28314 0.76229,-4.96577 z m 21.96479,-118.91695 8.74453,6.20721 -1.21966,6.27254 9.56128,6.38144 1.53546,1.97106 0.0109,4.22525 -4.30148,1.0781 -1.60081,0.26135 -3.60453,-3.35407 -1.94928,0.76229 0.19602,2.8967 -1.27411,-2.50466 -2.33043,-0.94742 3.73521,-2.45021 -0.39203,-4.00746 -3.00559,-1.18699 -2.99471,1.26322 -2.17796,-1.67703 -1.49191,-1.73149 -0.70784,-1.62258 -2.61356,0.4247 3.48475,-4.82419 -1.79682,-3.60454 0.66428,-2.3522 2.85313,-2.71157 z m -116.05292,-8.16737 3.45207,2.9947 3.6481,1.05632 -0.49005,2.85313 1.35034,2.68979 4.42127,0.93653 -0.23957,6.44677 2.04729,2.39577 -1.04543,0.68606 2.07996,3.94212 11.26009,8.53762 2.96203,0.95831 2.17797,2.05818 1.94927,-0.68606 2.05818,1.1761 3.57187,-2.2542 5.10733,7.76445 10.05131,4.26882 3.41941,-0.89297 5.86962,2.25419 2.61356,-2.668 2.68978,1.15432 3.55009,-1.78593 10.7047,4.33415 -3.16894,2.95114 0.0545,3.9639 10.6067,9.02767 -4.32327,4.97665 -0.59894,6.25077 2.52644,3.37584 -1.56813,-0.28313 -0.89297,1.97106 2.90759,1.68792 0.66428,2.24331 -1.30678,2.9947 3.27783,2.70068 -0.4247,1.53546 2.04729,1.97106 -0.70784,7.26352 2.3522,3.76788 4.23615,2.17797 1.15432,-0.72962 0.0436,2.36309 2.09085,1.53547 4.54106,-1.38301 2.85313,2.66801 12.06593,0.5336 4.13814,-1.91661 -1.63347,6.25076 1.40478,5.47759 -0.49004,4.66084 -2.60267,5.51026 -6.21809,3.64809 -2.13441,-1.26322 -1.30678,-4.9222 -3.97479,-1.60081 -2.58089,0.94742 -0.58805,2.45021 1.64437,0.93653 -1.56814,2.11262 -1.20877,-0.28313 -6.77347,-7.8189 1.66614,-2.19975 -1.36123,-3.11449 -1.98195,0.16335 -0.33758,-1.85127 -2.45021,-1.38301 -5.6845,0.99097 1.26322,-4.51928 -3.33228,-0.82762 3.11449,-4.45394 -2.43932,-6.13098 -4.46483,-1.37212 -1.285,2.3631 -1.04543,-1.57903 4.14903,-5.83695 -0.52272,-1.41568 -1.47012,-0.30491 -2.54822,3.71343 -1.63348,-3.51741 1.90572,-1.04543 -0.43559,-3.55008 -8.54852,-1.49191 3.55009,-1.5028 -0.92564,-6.70813 -2.9947,0.58805 -2.1453,-1.78593 -3.20161,2.29775 -6.88237,0.27225 -6.77348,-2.64623 -3.3105,2.09085 -9.09301,-3.12539 -4.78064,1.70971 -2.61356,-6.03297 -1.07809,-0.98008 -2.23242,0.89296 1.55725,-3.56097 2.0364,0.16335 1.08898,-3.80056 -3.50652,-7.92779 -8.59208,-2.01462 -2.01462,-6.02208 -4.12724,-1.97106 -1.91661,-4.15991 -4.06191,-1.69882 -6.40322,-8.1347 -3.87678,-0.65339 -8.28716,-8.34161 -5.8914,-2.23241 -5.45581,1.67703 -3.73521,-1.87305 -1.08898,-3.55009 -6.77348,-0.8494 -1.41567,1.9275 3.19072,0.34847 0.83851,2.6789 -3.16894,1.78593 -7.07839,-0.27224 -5.47758,1.7097 2.13441,-5.6736 15.33288,-5.08555 3.96389,-4.2906 3.2125,0.38115 1.05632,-5.09644 3.70254,-3.0056 7.40509,0.27225 2.2433,-2.09085 z m -186.30322,-15.82292 4.67173,-3.07094 -0.0545,-1.99284 1.57903,0.2178 4.48661,-4.1708 4.19259,2.59178 3.01648,-3.1145 2.90758,-0.098 1.77505,-1.68793 4.94398,0.34848 2.15618,2.86402 -1.53546,1.82949 1.13254,3.3214 4.1817,1.07809 -1.62259,4.2906 0.43559,3.50652 4.64996,1.23055 2.99471,-1.64436 2.82046,-4.32326 2.06907,0.29402 1.6008,3.4303 5.66272,2.97292 2.18885,9.81174 8.89699,-2.7878 0.83852,-0.6425 -1.13254,-3.29962 2.82046,-2.7769 3.87678,0.40292 4.4975,-3.03826 -0.43559,-4.81331 3.19072,-1.86216 4.22526,-7.78623 1.99283,-1.30678 0.3267,-3.39762 1.54636,-0.0436 2.18885,4.57373 10.18199,1.16521 1.67704,3.77877 2.9947,1.285 0.58805,5.83695 5.61915,1.29589 -1.16521,2.01462 1.18699,6.28343 -0.94741,2.34131 9.23457,-0.0544 1.32856,1.01276 6.37055,-1.94928 1.88395,0.76229 -0.19602,1.72059 2.43932,2.13441 3.66987,-0.0545 0.93653,2.28686 10.69381,-0.81674 2.23242,3.57187 4.54106,0.89297 8.41784,-4.42128 v 0 l -2.99471,7.67733 -2.07996,-1.01275 -2.09084,1.94928 -0.78407,1.01275 -2.1453,1.24144 -6.08741,-0.91474 -2.58089,4.78063 -6.94771,2.52645 -4.8242,-2.45022 -1.47013,1.20877 -2.45021,-0.49004 -1.99284,-2.63534 -2.9947,-1.07809 -6.79525,3.70254 0.60983,1.29589 -2.70068,1.66615 4.91131,-0.84941 -2.55911,2.05818 0.18513,1.87305 1.99284,-0.81674 0.26135,1.97106 1.18699,-0.0762 1.19789,-2.2433 0.46826,2.80957 2.1453,-1.94928 1.65525,0.70784 5.09644,-2.60267 6.89326,8.8861 5.66271,-1.1761 3.99657,4.3886 3.33229,-2.74423 6.56657,3.76788 6.61013,-1.3939 2.98381,4.11636 -0.13068,4.78063 2.16708,5.40136 2.18885,2.06907 2.73335,-2.43933 5.32513,-0.80584 -2.41754,-2.96204 3.17983,-0.67517 5.07466,4.37771 6.0983,0.35937 2.66801,4.50839 -3.29962,2.13441 -0.98008,2.45021 1.88394,-0.0653 1.86216,4.63907 1.00186,-0.79496 3.20161,1.55724 -4.44305,0.98009 -0.30491,2.41754 7.21996,-1.38301 0.79495,1.44835 5.02021,-0.098 5.02022,2.38487 2.31953,-3.72432 1.37212,0.50094 3.98568,4.26881 -2.77691,2.28686 0.47915,0.91475 2.84225,0.43559 -0.30492,3.29962 3.66988,0.71873 0.80584,5.53203 4.83509,3.2125 v 0 l -0.11979,1.84038 -2.28686,0.55539 -2.79869,5.69538 0.52271,8.85343 -1.40479,3.88767 -4.76974,1.8186 -1.3939,2.24331 -4.4975,0.55538 -1.14343,-2.13441 -3.70255,-0.74051 -1.4919,-6.08741 -7.67733,-0.79496 -0.58805,-1.97106 1.97106,-0.65339 0.63161,-2.41754 -1.37212,-1.97106 -5.79339,0.89296 -3.11449,2.83136 0.81673,5.05288 -1.12165,1.70971 -6.5339,-0.59895 -9.36525,2.73335 v 0 l 1.65525,-1.79682 -2.9947,-3.06004 -4.41038,4.51928 -3.75699,-1.02365 2.27597,-1.88394 -2.64623,-2.40665 -6.15275,-0.11979 -0.9692,-1.08898 -2.53733,0.78407 -0.66428,1.8186 2.63534,-0.6425 2.27598,2.38487 -2.79869,0.62072 -2.62445,-1.56813 -1.8186,-4.98755 -1.19788,1.69882 -1.64437,-1.285 -2.41754,1.02364 -6.04386,-1.12165 -1.52457,-1.65526 3.36496,-3.51741 -10.16022,-5.08555 -0.77317,-5.85873 -2.66801,-2.68979 -2.87492,1.33945 1.87305,1.09987 -1.09987,2.10174 -1.64436,-1.79682 -2.43933,1.37212 -0.89296,3.27784 2.11263,1.13254 -1.8295,1.44835 -0.47915,3.24517 -3.09271,-0.44649 -3.29962,-5.54292 1.94928,-1.9275 -3.25606,-4.7153 -4.85686,-5.70627 -3.6481,-0.54449 -1.65525,-2.21064 -0.27225,2.04729 1.76416,2.54822 -2.13441,0.0762 -2.11263,2.55911 2.79869,3.29962 -1.79682,0.0544 -0.42471,2.18885 1.55725,-0.19601 -1.72059,1.9275 -1.85128,-0.45737 -0.0218,-1.53547 -3.43029,0.62072 -2.40665,-1.51369 -1.187,2.21064 -3.49563,-3.04915 -5.39047,3.03826 -0.99097,2.13441 -2.6789,-3.50653 -2.01462,0.15246 -1.08898,-2.37399 -2.13441,0.0327 -5.15089,-3.48474 -4.62818,0.58805 -4.51928,-1.89483 -2.2433,-0.11979 -3.75699,4.46483 -4.41038,-1.29589 v 0 l 2.17796,-2.79869 0.92564,-8.15648 11.06406,-5.80428 -0.83851,-3.31051 1.94928,-5.21623 -4.42127,-2.42843 3.25606,-2.37398 -1.49191,-9.01678 1.0672,-2.61356 2.55911,-1.30678 0.0436,-1.84038 -2.64623,-3.80055 -5.3469,-0.77318 -0.18513,5.28157 -4.22526,1.54635 -6.14186,-1.13254 -2.04729,6.22898 -3.48474,1.12166 -1.17611,-4.74797 -6.41411,1.30678 -11.76101,-4.14902 -2.51555,-7.84068 2.41754,-5.82606 4.09458,-0.41382 0.7405,-2.0255 -0.92563,-1.73149 -8.92966,-2.73334 -3.58276,-9.28903 -10.41067,-5.06377 -0.37026,-1.85127 3.29962,-3.57187 2.18886,-5.7825 -3.29962,-3.99656 -0.0327,-3.82233 v 0 z"
     class="land"
     title="Central Greece"
     id="GR-H"
     inkscape:connector-curvature="0"
     style="fill:#f37163;fill-opacity:1;stroke:#ffffff;stroke-width:0.54449153;stroke-opacity:1" />
  <path
     d="m 383.0737,801.67567 0.59894,-1.20877 1.93839,1.27411 0.80584,7.10017 -3.55008,-3.86589 -1.9275,-6.14186 z m -32.83284,-60.1772 3.15805,7.16551 5.92407,3.60453 5.4558,5.55381 -1.15432,2.87492 -3.6372,0.23958 -0.70784,10.58491 -4.7153,-1.8186 -0.96919,1.7097 -1.27411,-2.27597 -3.4303,-0.7514 -3.19072,-5.05288 0.81674,-1.53547 -1.56814,-2.29775 2.51555,-2.10174 -1.20877,-2.26508 0.90386,-2.26509 -3.10361,-4.12724 2.96204,-6.84971 z m 51.69402,-143.33195 -0.0762,3.24517 0.78407,-0.76229 3.22339,2.15619 -2.51555,2.12351 -4.0728,-0.57716 -3.23427,-1.30678 0.15245,-1.15432 4.90043,-0.84941 -0.27225,-2.29775 z m -9.61572,-10.16021 2.90759,3.4194 -2.68979,6.26166 -1.09987,1.08898 4.14902,3.22339 -3.33229,0.90386 9.06034,4.04012 0.0653,1.26322 3.95301,2.3631 0.51182,2.28686 -2.60267,1.82949 -7.1764,1.40479 v 0 l 2.80958,-6.23987 -2.87491,-0.90386 -1.98195,1.54636 -5.42314,-0.40293 -0.41381,-1.4919 -3.04916,0.26135 -0.90385,-3.22339 -12.15305,-3.62631 -0.90386,-3.50653 3.04915,-5.22711 v 0 l 4.30149,1.47012 2.55911,3.51742 6.0983,2.94025 3.47386,-2.4611 -3.39763,-5.91318 -2.80957,-1.33945 2.03639,-2.49377 z m -3.3214,-8.70098 1.44835,0.0544 0.67517,2.12352 -3.12538,2.48288 -1.6008,-0.35936 1.15432,-3.74611 z m 13.53606,-7.6011 7.49221,1.0672 -1.0781,2.37399 -1.84038,0.37025 -1.01275,6.09831 -4.41038,2.25419 -3.04916,-1.76415 1.80772,-1.26322 -0.37026,-1.31767 -2.97292,-2.27597 -1.68793,-4.15992 z m 0.19602,-28.24822 3.95301,1.8186 -0.33759,1.78593 0.15246,0.88208 -0.29402,1.00187 2.22152,0.54449 -0.67517,0.93652 -0.4247,0.68606 0.76229,1.85127 -1.31767,1.74238 -1.90572,-0.26136 0.18512,2.13441 -2.60266,-0.49005 -0.49005,1.66615 -4.04012,1.61169 -4.06191,-2.58089 0.39203,-4.26881 6.07653,0.71873 3.17983,-4.88954 -7.50309,1.3939 -0.66428,-0.71873 3.32139,-1.7097 -3.35406,-1.04542 h 5.48847 l -0.41381,-1.84038 z m 23.48937,-41.32691 3.5283,-0.4247 1.72059,2.10174 2.09085,-0.82763 2.42843,2.07996 11.84814,3.39763 11.65212,10.51957 -1.48102,2.1453 2.1453,2.47199 -9.6375,6.79525 2.11262,4.8242 -0.18512,4.2797 3.06004,5.05288 -2.04729,1.32856 0.74051,4.72619 -1.77504,2.16708 3.09271,0.33758 1.47013,2.51555 -3.71344,1.56814 1.66615,2.40665 1.77504,-0.69695 1.30678,2.2542 -1.08898,4.36682 3.71343,3.16894 0.2178,1.96017 -1.24144,2.82046 0.67517,1.67704 -2.64623,1.31767 1.78593,6.25076 -1.84038,0.50093 -2.18886,3.57187 -9.06034,-2.61356 0.63161,-6.07653 -3.4194,0.2178 -0.81674,-6.62102 -1.58992,-0.13068 -1.85127,-3.14716 -5.00932,-2.66801 -1.7097,2.62445 -0.99098,0.37026 -0.79496,-2.00373 -0.60983,0.27224 -1.66614,-0.35936 1.35034,-2.58089 -2.88581,-1.74237 1.08899,-1.31767 -2.28687,-1.40479 -0.89296,-4.17081 -3.6481,-3.08182 0.74051,-1.27411 -3.98568,0.13068 -1.56813,1.56814 -0.90386,-0.93653 -0.11979,-0.62072 -1.47012,-1.09987 0.41381,-1.67704 -5.48847,0.29403 -0.28314,-2.2542 1.87305,-1.4919 1.00187,-0.62072 1.86216,-1.53547 -0.4356,-3.14716 -2.00373,-1.3939 -3.3105,1.44835 -1.94928,-1.52458 -3.29962,2.41754 -3.56098,0.098 -3.57186,4.54106 -2.66801,0.95831 3.2125,1.31767 -17.19504,-0.83852 -6.06564,2.92936 v 0 l -1.24144,-2.41754 -6.10919,-2.65712 2.19974,-3.80055 -1.37212,-0.74051 0.27225,-3.92033 v 0 l 9.44148,-4.73708 0.13068,-2.19975 -3.56097,-1.03453 -0.4356,-2.17797 4.84598,-0.91474 -4.02924,-2.05818 -5.65182,-0.13068 v 0 l 9.36525,-2.73335 6.5339,0.59894 1.12165,-1.7097 -0.80584,-5.05288 3.11449,-2.82047 5.79339,-0.89296 1.37212,1.97106 -0.63161,2.41754 -1.97106,0.65339 0.58805,1.97106 7.67733,0.79496 1.4919,6.08741 3.70255,0.74051 1.14343,2.1453 4.4975,-0.55538 1.3939,-2.24331 4.76974,-1.8186 1.40479,-3.88767 -0.52271,-8.85343 2.79869,-5.69538 2.28686,-0.55539 0.11979,-1.84038 v 0 z"
     class="land"
     title="Attica"
     id="GR-I"
     inkscape:connector-curvature="0"
     style="fill:#f37163;fill-opacity:1;stroke:#ffffff;stroke-width:0.54449153;stroke-opacity:1" />
  <path
     d="m 352.14658,725.828 1.36123,6.45767 -2.0364,-2.51555 -3.38674,1.88394 0.0109,-3.16894 z m -117.39237,-28.81449 1.52457,0.31581 -0.9583,5.48847 -2.8967,-2.9947 1.00187,-4.00746 z m -5.81517,-4.95487 1.383,0.45737 -0.58805,2.23242 -1.88394,0.87118 -0.56627,2.65712 -0.14157,-5.70627 0.88208,-1.41568 z m -15.22399,-31.88543 -0.52271,2.11263 0.19602,-1.93839 -1.35034,-1.02364 1.79682,-1.05632 z m 152.28339,-28.27 4.80242,2.70068 -0.19602,2.33043 -2.61356,0.60983 -2.14529,-1.6117 -2.16708,-3.51741 z m 22.90132,-8.16737 0.62072,1.96017 -2.74424,1.31767 -2.71157,0.15246 -1.78593,-1.51369 4.04013,-1.76415 0.99097,1.45924 z m 20.60356,-2.76602 1.91661,0.72962 -7.63378,2.77691 0.1089,3.00559 -5.55381,0.13068 -4.96576,2.96204 -0.22869,-1.05632 -3.08182,0.26136 9.78996,-6.47945 5.43402,-2.30865 1.79682,1.05632 z m -58.16259,-87.19487 5.66271,3.19072 1.37212,-1.12165 1.58992,1.36123 6.22898,-1.11076 v 0 l -0.27225,3.92033 1.37212,0.74051 -2.19974,3.80055 6.10919,2.65712 1.24144,2.41754 v 0 l -4.4975,3.82234 -11.92436,1.52457 -5.48848,-5.55381 1.38301,-3.45208 -5.85873,-4.34504 -3.44118,-0.93653 1.48101,-0.99097 -4.07279,0.43559 3.43029,-3.13627 z m -57.86856,-7.78623 3.92034,1.41568 7.4922,-0.62072 4.97666,3.57186 9.53949,3.59365 8.59207,5.25979 6.35967,8.09114 6.0983,3.90945 4.1817,0.7514 5.92406,-2.55911 5.48848,5.55381 -2.16708,3.48475 1.42657,3.99657 10.07309,-0.13068 3.14716,1.89483 3.56098,3.57186 0.19601,3.22339 -2.76601,2.55911 -2.22153,-0.1089 -1.01275,3.24517 5.54292,2.02551 -2.23241,4.55195 1.84038,4.42127 -1.44835,2.28687 4.26881,3.26695 v 0 l -3.04915,5.22711 0.90386,3.50653 12.15305,3.62631 0.90385,3.22339 3.04916,-0.26135 0.41381,1.4919 5.42314,0.40293 1.98195,-1.54636 2.87491,0.90386 -2.79869,6.23987 v 0 l -1.33945,0.8603 -6.25076,-1.55725 -4.37771,1.43746 -3.04915,-0.18513 -0.84941,2.75513 -3.60453,1.02364 0.8494,1.55725 4.24704,2.0364 -8.22182,0.65339 -1.36123,2.23241 1.96017,3.75699 -2.99471,0.69695 -3.99656,-3.4194 -1.62259,-2.30865 2.57,0.79496 -1.35034,-2.01462 -5.53203,-1.29589 0.77318,-2.87491 -1.04543,-1.84038 3.65898,0.13067 0.98009,-3.89856 2.10174,1.56814 1.08898,-0.63161 -2.13441,-4.36682 h -6.40322 l -1.26322,-0.8603 1.0781,-0.91475 -0.94742,-1.87305 -4.02924,2.52644 -3.02737,-7.10016 -7.44864,-1.87306 -4.23615,2.49378 -3.17983,-1.87306 0.15246,-2.04728 -4.31237,-5.58649 -5.77161,3.06005 1.96017,6.00029 -1.11077,3.7461 2.13441,2.76602 -0.0545,2.73335 2.30864,2.12352 -1.80771,3.75699 4.37771,3.99656 4.36683,8.47229 -0.51183,1.37212 2.40666,1.35034 -0.71873,1.85127 1.98195,1.1761 3.59364,6.69725 -1.90572,5.54292 0.52271,3.15805 2.11263,1.24144 0.9692,-1.32855 2.4611,0.0218 0.58805,3.33229 2.27597,0.89297 v 1.5028 l -1.85127,0.18512 3.77877,5.64093 0.25047,4.84598 -1.41568,1.32856 1.76415,0.59894 0.098,3.56097 3.92034,9.41971 -0.67517,1.41568 2.80958,2.43932 1.66614,5.27068 1.99284,1.64436 -2.51555,1.7097 0.25047,3.59365 -2.79869,-1.93839 -1.21966,1.88394 -1.70971,0.0762 0.4356,12.44707 4.42127,5.88051 7.3833,5.00932 -2.31953,4.70441 3.37585,1.68792 0.27224,2.04729 2.75513,0.7514 0.55538,2.26509 -5.54292,-0.0109 -1.41568,1.54635 -4.34504,-1.33945 -2.24331,-4.08368 0.57716,-3.16894 -2.96203,-2.97293 -6.82792,0.67517 -1.42657,-3.93123 -1.65526,-0.89296 0.0653,-2.75513 -6.71902,-5.61915 1.07809,-0.0109 0.25047,-2.26509 -3.51742,-4.59551 -1.69881,-0.29402 -1.11076,3.97479 -1.32856,-3.34318 1.67703,-3.87678 -3.50653,-10.1711 -15.67046,-0.91475 -5.61915,3.52831 0.90385,5.27067 -5.27068,3.2125 0.83852,1.11077 -1.02364,1.63347 2.68978,1.51369 0.25047,2.65712 -3.53919,-2.07996 -1.54636,0.98008 2.86403,5.25979 -1.84039,1.70971 -1.33944,-2.10174 -1.87306,0.66428 -0.40292,10.32356 3.03826,5.14 -0.2069,5.18356 -1.90572,1.24144 1.89483,3.70254 -2.10174,0.6425 -2.12352,-6.57746 -5.76072,-3.47385 -0.80585,1.16521 -2.22152,-0.7514 -1.94928,-4.14903 -0.0218,-1.89483 4.18169,-1.69881 -0.4247,-4.19259 -1.3939,-0.21779 1.40479,-1.86216 -2.26508,-1.09988 1.26322,-1.82949 -1.30678,-2.71156 1.98195,-0.45738 -2.13441,-2.59178 2.74424,-3.55008 -3.27784,-0.1089 -1.56814,-1.97106 -4.21436,-12.55597 -3.7461,-3.08183 -3.03827,-6.65368 -2.42843,-1.48102 -2.90758,1.96017 -4.47572,-3.00559 1.94928,-2.90759 0.30491,-9.59394 -10.11665,-1.15432 -11.23831,5.46669 -0.83851,14.38547 1.63347,6.6428 2.7878,1.88394 -3.03827,1.61169 -0.29402,2.75513 -5.51025,4.74797 -1.37212,-3.83322 -3.19072,-3.15806 -0.63161,-3.27783 -1.44835,-0.49005 -4.67174,2.52644 -0.83852,-1.64436 -4.66084,-1.56814 -2.4611,-9.07123 3.1036,-6.81703 -2.71157,-1.65525 -2.43932,0.80584 0.50093,-1.74237 -2.1453,-4.75885 -6.51212,-6.76259 0.7514,-4.04013 -1.51368,-6.79525 1.35033,-5.95674 8.7881,-7.28529 2.3522,-4.72619 -1.61169,-10.74826 v 0 l 1.64436,-1.37212 15.08242,0.21779 4.13813,-1.45923 -0.87118,-5.54293 10.55224,-6.32699 -4.91131,-5.54292 -2.49377,-0.80585 -3.57187,-5.98941 -3.7461,-0.29402 -4.0728,1.93839 -1.08898,-0.94742 1.86216,-11.47788 -1.7097,-6.72991 0.17424,-6.62102 1.6008,-2.66801 7.37242,-5.5647 0.87118,3.15805 3.13627,2.6789 1.98195,-0.29403 3.92034,3.00559 6.80615,1.98195 4.44305,-4.72618 2.17796,-0.29403 0.80585,1.57903 3.81144,1.285 3.60453,-3.55009 5.25979,-1.61169 -3.92034,-6.27255 2.38488,-3.15805 -0.52272,-4.58461 5.05289,-1.36123 1.11076,-2.73335 1.98195,-0.2178 3.81144,-4.73707 1.51369,-7.13284 -0.33759,-7.35064 v 0 z"
     class="land"
     title="Peloponnese"
     id="GR-J"
     inkscape:connector-curvature="0"
     style="fill:#f37163;fill-opacity:1;stroke:#ffffff;stroke-width:0.54449153;stroke-opacity:1" />
  <path
     d="m 691.17967,592.97207 1.41568,2.53733 -0.83852,1.7097 -1.44834,-0.17423 -0.38115,-1.7206 -3.36496,0.50094 z m 6.78437,-6.94771 2.09084,1.7097 -0.51182,2.63534 1.68793,-0.0218 -2.28687,4.09458 -2.76602,1.26322 1.8295,3.15805 -1.11077,3.00559 -3.00559,-5.60826 0.15246,-3.77877 1.02364,-0.31581 1.08898,2.83136 2.30865,-1.82949 -0.30492,-3.20161 -1.85127,-0.45738 z m -14.5706,-3.83322 -4.10546,6.77347 -9.81174,7.40509 -10.22555,1.72059 -5.72805,5.17267 -7.76445,0.52271 -0.3267,-2.21063 3.22339,-5.77161 7.29619,-7.51399 6.425,-0.30491 4.80242,1.55724 9.71372,-6.54478 z m 38.74602,-15.46356 8.78809,0.71873 3.06005,3.31051 4.54105,0.91474 3.63721,2.99471 1.1761,-0.94742 -2.42843,-3.97479 2.89669,1.06721 -0.4247,-1.67704 1.36123,-0.40292 0.79496,2.26508 6.54478,-0.17423 -4.02923,3.33228 1.66614,1.6117 -0.57716,1.19788 2.62445,0.098 0.70784,1.48101 -3.17983,1.54636 -5.56471,-0.35936 -2.78779,2.37398 -3.84411,0.54449 -3.02738,2.41754 -0.23957,2.73335 -2.00373,0.60983 -5.8914,-0.60983 -4.56284,-6.81703 -3.19072,-1.69882 -7.45953,0.88208 -1.94928,2.83136 -3.14716,0.76228 -2.41755,-6.98038 2.92937,-3.78966 4.08369,-1.13254 3.48474,-3.15805 z m -46.60847,-87.10776 0.86029,2.65712 -1.44835,-0.29402 -0.29402,-3.09271 z m -9.37615,-3.36495 8.1347,2.45021 -0.29402,1.47013 -1.93839,0.96919 -1.78593,-1.57902 -2.47199,0.15245 z m -65.13208,-0.91475 0.42471,2.47199 -3.03826,-0.25046 1.51368,-2.46111 z m 47.67568,-6.78436 3.3214,1.88394 1.98195,-0.52271 2.11263,4.57372 4.04012,0.17424 0.91475,-1.41568 2.26509,1.68793 0.32669,2.01462 -0.94742,4.96576 -2.48288,0.8603 -0.37025,1.52457 1.80771,0.0653 1.14343,2.23242 -1.94928,6.53389 0.80585,8.22183 1.86216,1.36123 -0.0544,2.25419 -5.59737,4.93309 1.285,4.79153 -1.65525,2.98381 -5.8914,1.25233 -2.58089,6.44678 -1.78593,-2.02551 -2.52645,-0.40292 -1.68792,-3.46297 -2.39576,0.29403 -0.0327,-1.73148 -3.76788,-1.0781 -0.18513,-3.61542 -2.11263,0.0871 1.18699,-3.71343 4.13814,-3.19072 4.51928,0.52271 0.79496,-4.08369 2.14529,-1.6008 -0.13067,-3.88767 -3.37585,-3.80055 -1.66615,-7.04572 -7.74266,-3.99657 -3.14717,-6.61013 2.55911,-4.26881 z m -42.05652,-0.34848 4.18169,2.30865 -1.15432,6.9586 -3.88767,-1.29589 -0.4247,-2.38487 -3.44119,-3.757 z m 75.78233,-96.29877 1.14343,0.4247 -1.63347,2.40666 0.60983,1.03453 6.77347,1.72059 -4.47572,7.27441 9.33259,6.30521 2.61355,5.5756 3.855,1.57902 -0.99097,3.3214 1.7097,0.33758 0.9692,5.28157 5.29246,6.37055 -0.51183,4.51928 -4.98754,-0.5336 -4.31237,-4.51928 2.04729,-1.69881 -2.96204,-5.88051 -2.11262,-1.11076 -3.36496,1.383 0.39203,3.23428 7.8189,7.63378 1.285,4.19258 -2.51555,2.12352 -11.68479,1.02364 -7.02394,-1.75326 -9.11479,-4.93309 -4.76974,-0.0762 -1.49191,1.47012 -4.68263,-6.99127 -3.50652,-1.54635 1.99284,-2.63534 2.9947,0.77318 3.09271,-1.55725 2.00373,-3.20161 9.08212,-3.69165 1.38301,-3.51742 -3.16894,-2.49377 -5.93496,-0.51182 -3.27784,1.25233 -5.53203,11.55411 -1.47013,-0.94742 -2.00373,3.24517 -6.33788,-2.28686 -5.52115,0.13068 -1.04542,-2.62445 -6.82792,-3.15805 -0.35937,-2.0364 -3.64809,-2.18886 1.86216,0.25047 0.25047,-9.23458 4.76974,-3.5283 -0.0327,-1.44835 1.82949,-0.0544 0.39204,2.0364 6.69724,0.1089 2.26509,-1.87305 4.25792,-0.16335 10.3889,-3.78966 1.27411,-1.48102 -1.32856,-4.23614 1.70971,-1.05632 12.71932,0.77318 2.53733,-2.06907 z m -130.66708,-22.18258 3.94212,3.23428 -6.93682,8.21093 -1.05632,-8.28716 2.23242,-4.37771 z m 40.94576,-57.99924 0.78407,3.81144 -5.31424,4.53017 -0.11978,4.42127 -2.79869,0.0218 -0.22869,2.54822 1.285,0.0871 -2.92936,1.62258 1.56813,2.41755 -1.37211,0.77317 0.26135,2.00373 2.7878,3.1036 -2.0364,1.285 0.30492,2.42844 -5.28157,-1.40479 -1.27411,-1.8186 0.56627,-1.85127 -2.83136,-1.03454 -1.67703,-2.6789 2.05818,-1.87305 -0.7514,-1.05631 1.61169,-2.70068 -2.19974,-2.12352 -2.2542,0.25047 -4.15991,3.40852 1.13254,0.94741 -2.01462,3.47386 2.76602,1.09987 -0.0871,2.70068 2.68979,3.07093 -9.68106,-0.94741 2.41754,-5.49937 -2.66801,1.58992 -1.56813,-2.19975 -7.13284,2.24331 1.88394,-2.37399 -1.73148,-0.7514 2.3522,-7.68822 -2.42843,-1.90572 -0.79496,-7.03483 6.15275,-0.26135 3.70255,-2.21064 1.11076,2.27598 1.91661,0.0109 6.01119,-2.11263 1.51368,2.22152 2.57,-0.14156 -0.88207,3.40851 2.47199,1.06721 -1.45924,0.99097 1.56814,0.90386 2.54822,-3.41941 1.41567,-0.38114 0.46827,-0.91475 3.33228,-3.25606 -0.13067,-2.14529 3.15805,1.65525 4.33415,-3.83322 z"
     class="land"
     title="North Aegean"
     id="GR-K"
     inkscape:connector-curvature="0"
     style="fill:#f37163;fill-opacity:1;stroke:#ffffff;stroke-width:0.54449153;stroke-opacity:1" />
  <path
     d="m 745.79217,855.32987 1.15432,-0.13068 -1.30678,2.73335 -4.20347,1.89483 -2.61356,3.57186 -2.53733,0.20691 -2.19975,2.68979 -3.86589,-2.37399 5.83695,-7.37241 2.84225,0.60983 z m 21.01737,-47.58856 1.29589,-0.0327 0.28314,2.12352 -2.28686,4.8133 0.76228,5.3578 -2.61356,3.46296 0.22869,1.97106 -3.08182,3.11449 0.0436,3.86589 -1.21966,0.9692 6.6319,8.04758 -1.85127,2.18886 0.47916,2.16708 3.64809,1.99283 -1.23055,2.6789 -2.41754,-1.04542 -1.14344,2.25419 -1.77504,0.0327 -2.23241,4.46483 1.79682,0.3267 -3.33229,2.97292 0.92563,-1.285 -1.16521,-2.1344 -2.12351,0.14156 -3.09272,-2.31953 3.88767,-5.08555 -1.39389,-2.96203 0.60983,-4.43217 -3.22339,-2.39576 -1.47013,-3.45207 5.68449,-5.54293 0.16335,-5.22712 3.94212,-4.46483 0.0653,-9.43059 2.31953,0.13068 z m 1.33945,-8.90788 1.00187,0.16334 -0.67517,8.72276 -4.74797,-3.68076 1.66615,-0.31581 1.45923,-4.56284 z m 231.25644,-31.43894 -0.5336,1.91661 1.45927,0.83851 -4.22528,2.50466 1.19788,-3.66987 z m -194.98241,-9.61572 2.11263,0.60983 0.40292,2.01461 -4.34504,2.43933 0.0218,-1.285 -2.61356,-0.29403 -3.6481,1.44835 0.20691,-3.95301 z m 11.83724,-4.42128 -2.00372,4.8242 -0.76229,-1.65526 1.50279,-1.30677 -2.51555,0.93652 0.1089,-1.11076 1.51369,-1.76415 z m -102.48419,-9.50682 2.13441,2.02551 -1.31767,2.2542 -0.95831,-0.49005 -1.24144,-0.81673 -0.60983,-2.35221 z m -88.31653,-4.7044 8.50496,5.80427 -7.61199,1.11077 -4.05102,-1.11077 -1.04542,-1.85127 z m 239.70695,-6.08742 1.21966,1.35034 -1.08898,4.18169 1.80771,2.02551 -3.7461,4.44305 0.42471,3.47386 -3.88767,5.11822 0.0436,3.46297 -2.68979,2.78779 -1.05632,5.04199 -3.09271,0.34848 -2.94025,5.20534 -0.52271,3.88767 3.1036,0.46826 -2.42844,3.57186 1.09988,2.50467 -5.95674,-2.79869 -7.08928,3.70254 -8.49407,14.14589 -6.29432,4.50839 -4.66085,1.5028 1.9275,-1.79682 -3.46296,-2.66801 -1.56814,-3.15805 3.45208,-8.71187 0.2069,-9.86618 -0.8494,-1.33945 -3.46297,-0.37026 0.29403,-2.76602 -2.8967,-2.47199 7.77534,-4.3886 3.78966,-10.00775 3.55009,-1.21966 5.46669,-6.28344 21.57276,-10.34534 6.53389,-0.19601 3.29962,-4.31237 z m -280.10822,1.33945 -1.18699,0.79496 0.62072,2.8858 -2.76601,-1.24144 1.27411,-4.61729 z m 6.9586,-2.55911 5.77162,6.72991 -0.22869,5.41225 -4.2797,3.46297 -8.69009,-3.10361 1.15432,-1.07809 4.7153,0.51182 1.99284,-3.82233 -1.93839,-4.48661 0.41381,-2.78779 -4.6064,-0.50094 -0.29402,-1.75326 1.9275,-1.19788 3.19072,0.90386 z m 188.67721,-2.47199 3.28873,5.6736 -0.41382,2.54822 1.86216,-0.77318 1.77505,2.00373 0.99097,-1.76415 1.24144,1.14343 -5.79339,3.83322 -1.79682,-3.2125 -1.04542,1.1761 -0.89297,-4.75885 -3.99657,2.38487 -0.0762,-1.40479 -1.87305,-0.43559 0.6425,-5.25979 2.94026,1.56814 1.09987,-2.51556 z m 49.50517,-5.96763 1.02364,0.89297 -1.96017,0.56627 z m -67.84365,-10.80271 1.64437,-0.0871 2.50466,4.0728 -2.05818,3.45207 -6.89326,-1.77504 0.84941,-4.78064 z m 65.01229,-2.70068 -2.04729,2.47199 2.1453,0.78407 3.35407,-2.01462 -1.58992,2.11263 2.1453,-0.50093 0.35936,1.0672 -0.29402,2.59178 -1.76415,0.6425 1.76415,0.6425 -1.5028,1.19788 1.44835,2.23242 -3.13627,1.56813 -1.60081,-0.55538 2.06907,-2.31953 -2.40665,-1.5028 -2.85314,0.8603 1.69882,-2.79869 -4.41038,0.2178 -0.23958,-1.84039 0.65339,-1.00186 1.21966,1.02364 1.16521,-3.25605 z m -140.94707,-0.29402 5.73894,4.45394 1.96017,3.23428 -2.59178,0.0218 -2.79869,0.91474 -5.21623,-0.67517 -1.1761,1.56814 0.47915,2.55911 -1.73148,0.5336 2.61356,3.65898 -4.12725,0.39204 -2.0364,-1.76416 -1.383,0.45738 -1.08899,-3.94212 -1.56813,-0.80585 1.0672,-0.74051 0.34847,-2.92936 0.94742,-1.44835 1.96017,0.35936 3.28873,3.02738 3.97479,-2.94026 1.99284,1.33945 -2.97293,-6.30521 z m 143.02703,-2.40666 0.2178,2.18886 h -2.80958 l 0.0653,-1.35034 z m -292.29394,-0.1089 3.77877,3.48475 3.65898,0.96919 1.52458,3.0056 -1.19788,1.15432 -2.94026,-0.52271 -2.26508,-4.08369 -3.22339,-0.15246 -2.30864,-3.38673 z m 222.26144,-1.39389 0.19602,0.94741 -1.97106,0.25047 -0.94742,3.4194 -0.93652,-3.48474 1.63347,-0.0871 1.04542,-1.90572 z m -192.93513,-4.8242 1.51369,0.39203 -2.98381,4.55195 -7.04573,4.75886 -2.0255,-0.0436 3.28873,-6.78436 4.36682,-2.70068 z m -71.99267,-6.99127 -0.32669,1.64436 4.1708,2.01462 4.04013,-3.17983 3.37585,1.27411 -1.37212,1.93839 1.61169,4.86776 -0.76228,2.3522 -1.21967,1.57903 -1.08898,-0.62072 -4.32326,2.06906 -2.66801,-1.4919 -0.96919,1.285 -11.06407,1.68792 1.53546,-7.23085 -1.13254,-1.285 2.71157,-4.25792 1.77504,2.41754 2.30865,-0.72962 0.60983,4.31238 2.28686,-0.0218 0.9692,1.39389 3.08182,-1.15432 -0.93653,-2.8858 -2.12351,0.32669 -2.84225,-3.75699 0.44648,-2.33042 z m 19.02454,-1.8186 3.44118,0.9583 -0.27224,3.89856 -4.04013,-0.91474 -1.0672,-3.15805 z m 66.82,-0.16335 2.27597,2.7878 -0.60983,1.47012 3.5392,0.92564 3.88767,4.08369 -2.18886,2.1344 1.26322,2.99471 -0.78407,2.2433 -1.79682,-0.84941 -1.07809,2.12352 -6.12009,-8.7772 -3.31051,-0.0218 -0.0218,-6.61013 1.25233,-2.00373 z m -103.93255,-1.65525 1.06721,1.29589 -1.26322,2.86402 -1.99284,-1.57902 -0.26136,-2.29776 z m 30.85089,-4.88954 1.25233,1.56814 1.69882,-1.02365 1.35034,1.45924 -2.87492,5.73894 -3.49563,0.82763 -1.97106,-5.85873 z m 89.3075,-2.45021 0.0544,4.56284 -2.31953,0.90386 -3.47386,-0.93653 4.53017,-5.08555 z m 5.02022,-3.33229 1.07809,4.7153 -3.7461,-2.63534 z m 12.04415,-1.85127 2.10174,0.76229 0.94741,3.22339 -7.24174,-0.56627 0.67517,-2.02551 z m 160.10229,1.21966 4.97665,0.65339 1.55725,3.82233 -18.28403,6.38144 -5.48847,5.8914 -6.89327,-1.14343 -5.70627,1.88394 -1.20877,1.285 1.37212,2.83136 -1.82949,1.55724 0.71873,3.9639 -2.0364,-0.44648 -2.79869,-3.44119 -0.16335,-7.29619 7.40509,-0.98008 7.48131,-9.34348 9.14746,-4.75885 6.71903,-0.83852 4.19258,-2.60267 z m -125.22216,-5.06377 7.85156,5.10733 -3.65898,-0.54449 -6.55568,2.10174 -11.47788,11.68479 -3.73521,0.2069 -2.55911,2.31954 -5.27068,-1.81861 -0.56627,-1.76415 1.53547,0.90386 2.68978,-3.06004 6.07653,0.47915 0.0327,-2.12352 -0.81674,-1.03453 0.60983,-1.77505 9.84441,-4.04012 3.07093,-2.28687 -2.18885,-0.81673 0.43559,-1.06721 z m -38.05996,-1.42657 0.65339,1.68793 -2.91848,0.70784 0.0327,-2.21064 z m 147.93835,-1.08898 0.90385,1.13254 1.31767,-1.1761 1.74237,0.80585 -2.12351,2.05818 2.42843,2.0255 -4.22525,-0.40292 -2.472,-4.11635 z m -208.96496,-1.69881 4.02924,1.14343 -4.13814,1.54635 -1.52458,-1.62258 z m 187.42487,-5.39047 1.37212,1.25233 -0.74051,1.96017 -3.17983,-2.68979 z m -43.76623,0.63161 3.36496,1.74237 -3.41941,-0.90385 -1.74237,0.6425 0.65339,0.82762 -1.85127,-0.30491 -0.4247,-2.13441 z m -177.99428,-3.64809 6.54479,2.48288 5.4667,7.93869 -5.77161,6.41411 -4.64996,-9.35437 2.06907,-1.63347 -2.26509,-0.54449 0.81674,-1.09988 -0.79496,-2.05818 -1.88394,-0.50093 z m 42.7317,-0.84941 1.19788,0.49004 -3.03826,9.08212 1.12165,3.80055 -5.48848,-5.54292 0.99098,-0.19602 -0.49004,-2.95114 z m 177.56957,-3.29962 8.98411,3.44119 0.71873,1.20877 -2.0364,-0.47915 3.09272,3.04915 -0.0436,1.64436 2.96203,-1.29589 1.68792,2.24331 -2.2433,4.41038 2.29775,1.58992 -6.54478,-0.68606 -0.35937,3.24517 -3.9639,-0.098 -1.16521,-2.47199 -1.63347,-0.27225 1.97106,-2.59178 -0.79496,-2.04729 1.47013,-4.25792 2.75512,0.63161 -2.65712,-3.39763 -2.65711,0.7514 0.45737,-1.98195 -3.70254,-2.41754 z m -104.04144,-6.61012 -1.23055,0.67516 2.18886,1.70971 -1.12165,2.76601 -3.12539,-0.34847 -2.03639,-4.06191 1.85127,1.31767 1.55724,-2.59178 z m -59.12089,-2.55912 0.94742,0.81674 -2.45021,2.11263 1.04542,0.91475 4.06191,-0.62073 0.0109,-3.40851 2.92936,1.00186 -3.77877,7.80801 2.04729,3.7461 -2.97293,5.09644 -5.93495,3.92034 -4.08369,-1.02364 -1.08898,-1.7206 -1.29589,0.82763 -1.94928,-3.15805 0.83851,-5.60826 4.76975,-3.14716 -2.47199,-0.63161 2.61356,-3.24517 z m 30.48064,-6.02207 4.85686,6.6428 1.05632,3.55008 -0.72962,3.53919 -0.60983,1.62259 -3.44119,14.30924 -4.0728,0.3158 -5.83694,4.67174 -2.43933,-1.93839 0.0436,-4.32326 -3.7461,-1.04543 0.52271,-2.25419 -2.74423,-3.69165 1.40478,-1.96017 -2.668,-4.01835 -1.66615,-0.31581 1.04542,-2.00373 2.6789,0.23958 -0.1089,-2.28686 4.13814,-3.2125 4.90042,-1.7206 3.09272,-4.8133 z m 124.38364,-0.20691 4.58462,1.62259 -1.93839,3.03826 3.76788,0.91475 -1.55724,1.39389 2.95114,3.20161 -0.19602,2.472 -4.43216,-0.0762 -1.1761,-1.49191 -0.78407,-0.16335 -1.57902,-2.70068 -0.89297,-2.0255 -0.22868,-1.54636 -3.08183,-1.20877 1.30678,-2.61356 2.31954,0.40292 -0.67517,-1.14343 z m -225.96398,-0.54449 3.37585,1.38301 -0.89297,4.05102 1.12165,0.51182 -0.0545,3.19072 -1.87305,-1.82949 0.0544,3.20161 -2.17796,1.29589 -0.89297,-0.3267 0.90386,-1.51368 -3.36496,0.10889 0.11979,-1.78593 -4.59551,1.94928 2.55911,-7.93869 2.00373,-1.84038 1.53546,0.56627 -0.0653,-1.1761 z m 253.34102,-12.2075 -0.4356,1.74237 1.51369,1.3939 -1.57903,0.65339 -0.76228,-2.60267 z m -35.70776,-2.79869 3.28873,2.70068 2.88581,-0.30491 -0.40293,3.95301 -1.94928,-0.42471 -0.098,-2.33042 -1.4919,0.90385 -3.01649,-1.37211 -0.57716,-2.11263 1.29589,0.17424 z m -15.40911,-6.29432 4.4975,4.83509 -4.6064,-1.38301 -1.05631,1.1761 -0.30491,2.2433 2.10173,2.42844 -1.44834,1.31767 1.33944,2.85313 -1.52457,0.0871 -1.6117,-0.98008 1.36123,-1.81861 -2.78779,0.40293 1.31766,-8.26538 -0.76228,-2.43933 1.86216,1.15433 z m 15.64869,-2.28686 3.1036,3.02737 -1.51369,1.3939 -0.21779,-1.64437 -2.49377,-1.6008 -0.0109,-2.75513 z m -147.28496,-5.0311 1.85127,2.37398 -0.22868,3.40852 1.67703,-1.02365 0.20691,1.05632 -0.53361,2.05817 -1.08898,-1.16521 -2.13441,2.19975 1.00187,-3.04916 -1.33945,-0.81673 -1.64436,-4.08369 1.93839,0.8603 z m 171.91776,-4.42128 1.02364,1.26322 -1.31767,2.35221 -1.16521,-1.56814 -1.38301,1.69882 -1.07809,-3.40852 -1.47013,-0.37025 z m -248.36437,-0.68605 -1.25233,4.75885 1.68792,0.2178 -0.25046,1.47012 2.64623,0.11979 1.54635,3.87678 -1.15432,1.01276 -0.29402,-1.33945 -1.20878,0.21779 -1.32856,6.17454 -4.42127,4.67174 -3.13627,0.91474 0.2178,-3.93123 3.1036,-4.10546 -1.18699,-1.42657 0.92563,-4.36682 -2.9947,0.38114 -0.14157,-1.41568 3.47386,-4.99843 z m 88.70856,-2.29776 1.38301,0.55538 1.42657,2.09085 1.15432,-2.18886 1.68792,0.1089 0.68606,1.85127 1.86216,-0.27224 -0.0218,1.38301 3.13627,-0.42471 -0.22868,3.60454 -3.55009,0.41381 -2.31953,3.51742 -1.25233,-1.12166 -3.66987,2.34132 -2.63534,-2.31954 -1.01276,0.28314 -1.18699,-1.43746 0.6425,-1.05631 1.60081,1.62258 0.6425,-2.63534 -2.10174,-4.33415 z m -45.06212,-1.80771 4.36682,1.51369 1.47013,2.0255 0.52271,3.50653 -1.41568,3.00559 1.6117,0.25047 1.91661,3.6372 -9.31081,4.66085 0.67517,-3.70254 -2.89669,-0.49005 2.21063,-3.00559 -1.45923,-0.87118 3.68076,-2.12352 0.0436,-5.77161 -2.38487,-2.19975 z m -14.41813,-14.53792 0.63161,5.07466 -5.81517,-1.90572 2.06906,-2.91848 z m 24.95949,-5.16178 1.14343,-0.19602 2.85314,0.96919 1.383,-0.91474 1.02365,3.57186 5.68449,-0.62072 3.11449,1.25233 3.37585,0.2178 6.83881,3.62631 -1.97106,8.96233 -4.51928,1.66615 -4.61729,-3.26695 -2.55911,0.25046 -1.14343,-3.69165 -3.88767,-1.66614 -8.79898,-8.09115 0.0762,-1.6008 z m -62.94322,-1.16522 1.08898,-0.098 2.96203,1.23055 1.78594,3.61542 -5.17267,8.84254 -7.74267,6.34877 0.35936,-6.83881 -1.52457,-0.55538 1.11076,-2.13441 -0.92564,-1.07809 2.71157,-6.26165 2.04729,0.11978 0.94741,-2.84224 z m -19.47102,-6.91504 0.1089,2.39576 -4.41038,9.40882 -0.0871,-4.56284 3.28873,-9.1039 z m 62.63831,-31.5914 0.0435,3.44119 3.81145,1.0672 0.79495,6.28344 11.4561,1.48101 0.0218,3.36496 -2.14529,3.47386 4.50839,3.46296 -2.73335,5.43403 4.7153,-0.0653 -4.7153,8.00402 0.87119,2.75513 -4.98755,-4.32326 -2.1344,-5.88051 -3.73521,-1.21966 -3.3214,-5.4667 -2.04729,0.44649 0.34847,-1.97106 -3.14716,-5.18356 -5.58648,0.26135 -1.98195,-11.06406 5.73894,-3.78966 z"
     class="land"
     title="South Aegean"
     id="GR-L"
     inkscape:connector-curvature="0"
     style="fill:#f37163;fill-opacity:1;stroke:#ffffff;stroke-width:0.54449153;stroke-opacity:1" />
  <path
     d="m 459.13916,921.94296 5.11822,1.43746 -0.98008,3.47385 1.80771,3.03827 -7.9278,-4.17081 -1.27411,-1.87305 2.29776,-0.0871 z m 207.13547,-54.64517 -1.0672,1.49191 -2.57,-0.82763 z m -0.3267,-2.74424 0.0327,1.70971 -1.62258,0.098 z m -94.40394,-13.29648 2.80958,1.84038 -0.78407,3.25606 -5.49936,-2.26508 z m -144.78029,-27.03945 3.56097,2.83136 -1.21966,2.01462 1.66614,12.66487 6.78437,2.4611 13.92809,1.84038 4.0728,-0.8494 1.5028,-0.78407 0.4247,-3.44119 3.40852,-0.23958 -1.68793,-3.45207 1.1761,-1.29589 4.01835,-0.92564 5.06377,1.77505 2.59178,5.69538 -1.90572,4.33415 -2.38487,1.0672 -7.32886,-1.79682 -1.96017,2.0364 5.48848,2.58089 3.19072,-0.0871 3.59364,2.65712 5.28157,-3.11449 2.02551,5.97851 -0.22869,7.10017 2.1453,1.12166 6.05474,0.58805 7.32886,-2.2542 11.9897,-0.50093 6.62102,-2.17797 3.73521,-3.25606 5.07466,-0.94741 13.03513,2.40665 3.94212,-0.28313 1.26322,-1.47013 3.07093,2.17797 3.66987,0.13067 1.77505,-2.42843 1.57902,1.19788 2.86403,-0.76229 0.80585,2.49378 1.66614,-0.74051 -0.69695,3.65898 1.49191,3.84411 9.83351,-0.71873 3.15806,0.40292 0.66427,1.54636 4.23615,0.16335 13.35093,-1.06721 6.67547,5.60827 21.47474,-6.54479 2.8967,1.40479 8.11292,-0.65339 -1.11076,2.84224 -3.24517,1.66615 -0.5336,4.71529 1.76415,3.77878 -2.52644,1.44834 0.74051,3.58276 -1.49191,1.68792 1.88394,5.48848 3.19072,-0.0544 4.59551,2.42843 4.09458,-5.49937 1.48101,0.50094 2.96204,-2.29776 0.18513,-1.9275 4.90042,0.71873 1.74237,-2.31953 3.51742,0.21779 2.55911,-3.50652 3.31051,-0.15246 2.37398,1.43746 2.66801,-1.27411 -0.0544,2.90758 5.55381,0.34848 1.82949,-1.36123 -0.50093,-1.6117 3.39763,-1.48101 1.90572,-4.8242 1.85127,0.84941 3.36496,-3.28873 -0.8603,-1.16521 2.62445,-0.76229 -0.29403,2.55911 -3.98567,3.41941 1.18699,3.92034 -0.68606,2.85313 2.07996,2.18886 2.53733,-1.03454 0.0544,2.02551 -3.48475,1.49191 -0.71873,9.50682 -3.89856,6.49034 -11.63034,4.67174 -1.76415,-0.22869 -0.79496,-2.50466 -5.83695,0.57716 -5.07466,-2.97292 -12.76288,2.76601 -3.01648,1.94928 -12.25106,-1.82949 -2.61356,1.18699 -6.55568,-0.25046 -9.04945,2.90758 -12.49063,-2.02551 -4.57373,1.98195 -4.51928,-0.21779 -3.48475,3.16894 -5.25979,1.33945 -5.40135,-0.93653 -4.17081,2.48288 -4.94398,-1.24144 -2.73335,1.58992 -9.43059,0.50093 -7.76445,-1.84038 -4.53017,2.06906 -5.91318,0.27225 2.1453,-3.53919 -1.08898,-4.8242 1.64436,-2.31953 -2.15619,-8.41784 -4.26881,-2.00373 -13.2747,-0.15246 -3.83322,-5.10733 -6.22899,-0.7514 -6.68635,-5.18356 -3.49564,1.32856 -2.71157,-0.88207 -3.88766,1.75326 -5.2489,-0.69695 -3.24517,-2.41754 -4.22526,1.13254 -2.0364,-1.30678 -9.92063,0.77318 -4.50839,-4.01835 -6.1092,0.88208 -9.39792,-3.11449 -6.07652,2.39576 -0.78407,-1.24144 -13.68852,0.99097 -3.78966,-0.92563 0.0544,-2.68979 -3.60454,-1.13254 -2.76601,-4.06191 3.39763,-2.0364 -1.84039,-1.93839 0.19602,-5.10733 3.6372,-5.25979 0.1089,-2.60267 -1.48101,-1.36123 2.53733,-4.19258 -1.44835,-2.12352 1.87305,-6.21809 -0.71873,-3.41941 1.37212,0.7514 0.43559,-5.25979 1.40479,3.24517 -0.83852,1.18699 1.187,8.79899 3.98567,2.37398 6.16365,-1.11076 1.08898,-4.50839 -2.04729,-6.08742 0.82763,-2.52644 -0.94742,-3.07093 z"
     class="land"
     title="Crete"
     id="GR-M"
     inkscape:connector-curvature="0"
     style="fill:#f37163;fill-opacity:1;stroke:#ffffff;stroke-width:0.54449153;stroke-opacity:1" />
  <path
     d="m 453.00819,253.15491 1.1761,-3.29962 -0.93653,-6.16364 v 0 l -0.6425,-6.2181 -1.0672,-0.22868 1.62259,-1.75327 2.60267,6.79526 3.26694,3.99657 7.08928,1.82949 1.53547,-0.72962 3.52831,2.02551 0.67517,3.1036 4.78063,1.26322 2.2542,2.57 1.51368,5.20534 9.48504,8.08025 1.65526,5.52115 -9.25636,3.49563 -2.45021,-6.05474 -5.84784,-4.59551 0.0653,-2.62445 -5.80428,-7.97136 -11.90258,-1.64436 z"
     class="land"
     title="Mount Athos"
     id="GR-69"
     inkscape:connector-curvature="0"
     style="fill:#f37163;fill-opacity:1;stroke:#ffffff;stroke-width:0.54449153;stroke-opacity:1" />
  <g
     id="stadiums"
     data-country="greece"
     data-circle-radius="6"
     data-circle-colors="#a149be,#bea149"
     transform="matrix(1.0889831,0,0,1.0889831,-0.03093267,-4.0893717)" />
</svg>
