<?xml version="1.0" encoding="UTF-8" standalone="no"?>
<?xml-stylesheet type="text/css" href="/styles/home.css"?><!-- https://www.amcharts.com/svg-maps -->

<svg
   version="1.1"
   id="map-hungary"
   viewBox="0 0 1000 1000"
   width="1000"
   height="1000"
   class=""
   sodipodi:docname="hungary.svg"
   inkscape:version="1.3.1 (91b66b0783, 2023-11-16)"
   xmlns:inkscape="http://www.inkscape.org/namespaces/inkscape"
   xmlns:sodipodi="http://sodipodi.sourceforge.net/DTD/sodipodi-0.dtd"
   xmlns="http://www.w3.org/2000/svg"
   xmlns:svg="http://www.w3.org/2000/svg"
   xmlns:rdf="http://www.w3.org/1999/02/22-rdf-syntax-ns#"
   xmlns:cc="http://creativecommons.org/ns#"
   xmlns:dc="http://purl.org/dc/elements/1.1/">
  <metadata
     id="metadata49">
    <rdf:RDF>
      <cc:Work
         rdf:about="">
        <dc:format>image/svg+xml</dc:format>
        <dc:type
           rdf:resource="http://purl.org/dc/dcmitype/StillImage" />
      </cc:Work>
    </rdf:RDF>
  </metadata>
  <sodipodi:namedview
     pagecolor="#ffffff"
     bordercolor="#666666"
     borderopacity="1"
     objecttolerance="10"
     gridtolerance="10"
     guidetolerance="10"
     inkscape:pageopacity="0"
     inkscape:pageshadow="2"
     inkscape:window-width="1920"
     inkscape:window-height="1106"
     id="namedview47"
     showgrid="false"
     showguides="true"
     inkscape:guide-bbox="true"
     inkscape:zoom="0.54470663"
     inkscape:cx="517.70987"
     inkscape:cy="30.291535"
     inkscape:window-x="-11"
     inkscape:window-y="-11"
     inkscape:window-maximized="1"
     inkscape:current-layer="map-hungary"
     inkscape:showpageshadow="2"
     inkscape:pagecheckerboard="0"
     inkscape:deskcolor="#d1d1d1">
    <sodipodi:guide
       position="1156.5859,500"
       orientation="0,1"
       id="guide856"
       inkscape:locked="false"
       inkscape:label=""
       inkscape:color="rgb(0,0,255)" />
    <sodipodi:guide
       position="795.38227,807.00621"
       orientation="0,-1"
       id="guide1"
       inkscape:locked="false" />
  </sodipodi:namedview>
  <defs
     id="defs4">
    <style
       type="text/css"
       id="style2">
			.land
			{
				fill: #d8a395;
				fill-opacity: 1;
				stroke:white;
				stroke-opacity: 1;
				stroke-width:0.5;
			}
         .rectangle:hover {
         fill: #bdbdbd;
         cursor: pointer;
         }
		</style>
    <!-- <amcharts:ammap projection="mercator" leftLongitude="16.113634" topLatitude="48.586316" rightLongitude="22.897693" bottomLatitude="45.736783"></amcharts:ammap> -->
    <!-- All areas are listed in the line below. You can use this list in your script. -->
    <!--{id:"HU-BK"},{id:"HU-BA"},{id:"HU-BE"},{id:"HU-BC"},{id:"HU-BZ"},{id:"HU-BU"},{id:"HU-CS"},{id:"HU-DE"},{id:"HU-DU"},{id:"HU-EG"},{id:"HU-FE"},{id:"HU-GY"},{id:"HU-GS"},{id:"HU-HB"},{id:"HU-HE"},{id:"HU-HV"},{id:"HU-JN"},{id:"HU-KV"},{id:"HU-KM"},{id:"HU-KE"},{id:"HU-MI"},{id:"HU-NK"},{id:"HU-NO"},{id:"HU-NY"},{id:"HU-PS"},{id:"HU-PE"},{id:"HU-SO"},{id:"HU-SN"},{id:"HU-SZ"},{id:"HU-SD"},{id:"HU-SF"},{id:"HU-SK"},{id:"HU-SH"},{id:"HU-TB"},{id:"HU-TO"},{id:"HU-VA"},{id:"HU-VE"},{id:"HU-VM"},{id:"HU-ZA"},{id:"HU-ZE"}-->
  </defs>
  <path
     d="m 420.79439,532.86412 1.17509,-3.01932 -2.75818,-4.684 9.79234,2.20328 6.60984,4.29231 13.98674,-13.52976 5.40211,0.21217 1.32196,2.04007 3.31308,-7.6054 5.58164,-3.21515 11.44074,9.28641 -7.58908,12.37102 6.05494,8.61726 4.22703,-7.88285 9.20481,-6.67511 7.16473,2.08903 4.35759,-14.29682 8.29086,3.08458 3.60685,-3.34572 8.24188,19.42149 6.59353,7.4585 v 0 l -5.25523,2.18697 -12.35469,-3.75374 -5.90805,7.94812 -1.63205,-1.71366 -4.14543,3.99854 8.25822,10.08612 0.88131,6.29975 3.32939,0.0326 5.6306,4.25966 5.18994,6.18551 -0.62017,2.82347 6.34871,-0.3917 2.79082,-5.01042 8.20925,-1.90952 1.6647,-3.60683 5.53268,4.83088 7.13209,-9.77602 -3.85166,-11.03272 v 0 l 6.62615,-11.29384 15.8473,7.23003 2.10535,-7.86652 10.44516,-4.17808 3.73742,2.44808 v 0 l 6.822,5.12467 -0.84868,4.66768 -4.01484,1.89319 0.0163,2.3012 5.35315,0.71811 2.51336,4.61873 -10.68998,8.6499 -4.25967,-0.4733 -1.84422,4.12911 -1.53413,-1.4362 -5.76117,3.11723 2.4481,3.29676 3.50892,-0.68546 0.55489,1.84421 -5.10833,0.93027 -0.19586,3.5579 4.3576,2.87242 -0.35906,-4.96146 1.72999,-0.83235 2.56233,4.22703 v 0 l -13.80722,16.35323 6.38136,6.88728 -4.5208,12.56684 1.97479,2.70922 v 7.05049 l -7.68699,8.97632 -7.67068,-6.36502 -16.3369,10.28196 4.30863,5.35316 5.90805,-1.10981 6.70777,6.52823 0.86499,4.11279 -2.48074,3.62317 2.57865,5.14098 -2.98666,7.37691 -3.44364,2.92138 -5.61429,-3.78637 -11.09799,8.5683 -3.26412,-2.52969 -9.71074,3.1009 5.20627,8.89472 -8.04606,8.64991 8.94368,16.23899 v 0 l -2.04006,1.40356 -2.87243,-1.97479 -4.30864,4.22703 -10.03715,-1.61575 -1.50148,3.18252 -7.34428,3.9659 2.95404,5.27155 -8.78049,5.07571 0.0653,3.03562 -7.39324,7.36058 -5.05937,2.17065 -2.41545,-3.24781 -11.99563,7.62172 2.04007,5.54899 -1.66469,-1.7463 -20.27017,0.0489 -1.76261,-8.22557 -4.34128,-0.75075 -5.98966,8.27453 2.05639,7.52379 -9.80866,0.19585 -2.69288,3.34572 1.92582,4.96146 -14.96598,-2.30122 -4.01486,3.99856 -2.3828,-0.89764 0.60386,2.138 -8.02973,0.35905 v 0 l -2.28488,-2.04007 1.12611,-2.70922 7.06683,-2.44809 -3.77007,-3.411 5.74485,-12.38733 -3.21516,-4.74928 3.55789,-1.41989 -4.09646,-2.05638 -1.43622,-7.23004 2.04008,-2.26855 -4.40656,-1.8279 v 0 l -0.14688,-2.30121 2.02374,0.91395 1.28934,-3.52524 -5.90806,-1.76263 0.13057,-3.73741 3.83533,-2.36648 0.45698,5.43475 3.26412,-9.17216 2.8561,-0.97924 0.34272,-5.72852 -5.41843,3.77005 -1.9095,-1.30563 7.70332,-6.44664 -1.37094,-6.47927 6.822,1.69733 1.61575,-9.64545 -3.45998,-5.84278 -1.97479,-13.44816 5.3042,-11.2612 0.0653,-6.18549 -3.88429,-9.23746 -0.40802,-9.1232 -4.78193,-9.9229 3.39467,-5.27156 12.38734,-4.24334 5.30418,-8.09501 -4.56976,-17.20189 -6.87097,-9.15585 -0.26113,-8.84577 v 0 l 4.84722,-13.13806 v 0 l 0.53857,-18.08321 v 0 z"
     class="land"
     title="Bács-Kiskun"
     id="HU-BK"
     inkscape:connector-curvature="0"
     style="fill:#d8a395;fill-opacity:1;stroke:#ffffff;stroke-width:0.816029;stroke-opacity:1" />
  <path
     d="m 286.13328,689.24792 3.42732,1.24037 3.70477,-1.97479 3.16619,4.14542 1.1098,-1.53414 -2.3828,-1.07716 -0.14689,-4.8472 2.85611,-1.40358 2.54601,1.63207 7.39322,-4.84722 -2.31751,-12.19147 6.13653,-2.6113 6.00598,1.37094 6.93624,-3.28045 4.61872,4.06383 0.76706,7.93181 5.35315,2.75817 -1.71365,11.45705 5.74485,0.65282 0.91395,2.44809 -2.85609,7.88285 -5.89175,2.44808 1.28933,2.48073 14.13362,-7.89917 2.08904,-3.03562 -0.21217,-6.47928 4.24334,2.17066 2.38281,4.17806 1.59943,-1.61574 0.86499,1.32196 -1.40358,9.00897 6.25078,1.89318 -1.1261,2.138 3.54155,6.07125 3.16618,-1.64838 11.09801,13.36656 1.14244,-1.04452 8.27453,4.96146 9.67811,-0.35906 v 0 l 4.40656,1.8279 -2.04007,2.26858 1.4362,7.23001 4.09647,2.05639 -3.55788,1.41989 3.23147,4.76561 -5.76117,12.38732 3.78639,3.42732 -7.06683,2.44809 -1.12611,2.70922 2.28488,2.04007 v 0 l -0.6365,6.26711 -2.12168,0.29377 -13.08911,-8.29086 -6.51191,0.19584 0.22849,4.17807 -3.10092,1.79528 1.8116,2.67656 -2.2196,1.68104 -1.12612,-1.82792 -2.35017,4.76561 1.14245,2.92137 -7.23002,5.18996 0.0163,2.98666 -2.31753,-0.57122 -5.43475,4.21071 -4.48816,-2.33385 -1.37093,5.95703 -5.22257,0.8813 0.21215,5.14099 -5.97332,-0.68546 -6.26712,-6.87097 -3.91694,5.58163 -6.00596,-2.9377 -7.78493,-0.27745 -2.08902,-3.57421 -6.36503,-1.81157 -2.64395,2.26854 -6.85462,-2.7092 -2.7582,4.29231 -3.16619,0.7997 -12.41995,-6.16917 -10.21669,2.18695 -3.37836,-1.33828 -6.56087,5.50003 -5.50004,-9.30273 -9.77602,-0.45698 -2.80714,-3.78636 -10.233,-1.07717 -2.56234,-2.69289 v 0 l 2.59497,-0.84867 2.39914,-4.53712 1.32195,3.0193 1.17509,-1.7463 3.54155,0.6365 1.04453,-2.82346 -0.21217,-4.45552 -5.12466,-5.67956 0.0652,-3.00299 -4.63505,-0.1632 -1.17508,-2.6113 0.22849,3.60686 -2.35017,-0.24481 -2.90506,-10.3962 4.43921,-1.27302 -3.73742,-11.1796 6.5772,-3.83533 0.86498,-5.98966 -2.21959,-2.43176 3.03562,-1.61574 0.26113,-10.10245 5.64693,-10.57572 -1.48517,-3.06828 2.85609,-2.17063 2.04007,5.7938 2.95403,0.97923 3.68845,-5.45107 7.40955,3.68846 4.86353,-3.39468 5.98965,0.44064 1.81159,-1.56677 -0.57122,-5.87541 3.55789,-10.20035 z m 21.86958,33.31031 v 0 l -5.09202,3.55788 v 0 l 1.07715,3.6395 -6.18549,0.19584 2.75817,7.11578 -0.84867,4.2923 5.97333,3.44365 4.86353,6.0223 v 0 l 8.42143,-3.29676 1.28932,-7.1321 v 0 l 5.05938,-7.47483 6.25078,0.9466 1.25669,-2.00743 -2.3012,-6.4303 v 0 l -5.09202,-6.70776 -11.24489,5.46738 z"
     class="land"
     title="Baranya"
     id="HU-BA"
     inkscape:connector-curvature="0"
     style="fill:#d8a395;fill-opacity:1;stroke:#ffffff;stroke-width:0.816029;stroke-opacity:1" />
  <path
     d="m 716.5886,489.3208 6.414,1.12613 4.68399,7.27897 1.94215,-3.411 9.23746,7.2953 10.60837,1.40358 4.42287,3.819 10.68999,-0.55488 -0.21217,6.91992 -2.23592,1.69734 1.01187,5.2389 -8.53566,6.36503 1.43621,5.02674 -1.95846,3.03563 18.39329,9.12321 12.2894,1.68101 -2.49705,6.47928 3.24779,-3.003 5.43476,3.13355 2.57865,-2.8561 10.03717,-1.53414 0.16319,-8.78046 5.17362,0.89764 3.83535,-5.25524 1.53412,-0.89763 0.40802,2.138 2.43176,-1.7463 v 0 l 2.87243,1.25668 1.48517,3.68845 -3.10091,6.26711 2.02376,1.77893 -6.36503,6.4956 -5.56531,1.28933 2.18695,8.89471 -1.95846,4.68401 -11.76716,5.85908 -0.19583,7.75228 -5.2226,7.54012 6.20183,5.81012 0.27744,4.0475 -5.22258,7.36058 -3.06827,-2.04007 -5.90805,0.32642 3.50893,6.6751 -5.20627,3.54157 -1.45252,4.96146 -6.36503,-3.13355 -7.81756,4.19438 -1.6647,5.74486 2.54601,1.86054 -4.22704,7.73595 -2.33383,0.84868 -2.17065,8.68255 1.95848,5.17362 3.24779,0.26113 2.36648,7.26266 -3.39468,5.59795 0.81603,1.81159 -10.57573,-1.45253 -2.48073,2.43177 -1.12612,11.84874 -3.59052,3.72109 0.94659,5.12466 -9.825,0.91395 -1.72998,8.04605 -5.76116,3.94959 -3.99855,-1.20772 -1.89318,-3.5579 -10.55942,0.50594 -0.99556,-2.92138 -2.88874,0.44066 -1.1914,2.88874 -6.41399,-5.30419 -14.21523,2.61129 v 0 l -3.98222,-3.05195 1.40357,-13.0075 -2.85609,-7.23003 -6.85466,1.06084 -1.48515,6.03863 -8.63359,0.0816 -6.85466,-3.39468 -4.34127,-5.6143 v 0 l 5.04306,-2.98666 -0.11424,-7.00151 v 0 -2.83979 l 3.62317,-1.14244 1.33829,-14.73749 -6.36504,-6.05494 -0.19584,-18.60545 1.0282,-7.63804 2.00743,-0.0489 -1.56678,-9.71075 2.39913,-7.13209 -4.87986,-3.81902 -8.37245,0.0816 -8.06237,-7.85019 -4.45552,1.76262 v 0 l -2.23591,-11.79978 7.39322,-8.24189 8.20925,0.34273 4.24334,-1.84423 1.22405,-2.90506 6.90361,-0.1632 6.47927,3.78636 9.09056,-3.50891 3.47629,-8.35615 -3.39468,-0.52224 3.23146,-0.42435 -0.44065,-3.19883 -2.04008,-0.73442 0.0326,-11.75082 2.41545,0.21215 4.56976,-4.50447 0.37538,3.55788 7.24634,-0.0489 0.34273,-2.62763 5.1573,-4.16174 2.48073,0.94659 -3.00299,-9.5965 0.39169,-2.138 3.28044,-0.75075 -2.88875,-5.84277 14.50901,-8.4051 z m 12.46893,106.08377 v 0 l -12.17516,4.34129 -3.60685,-2.46442 -6.03861,5.41845 3.44364,4.19438 2.33384,-0.0489 4.47183,6.83831 -3.5089,8.63359 24.66039,-6.75671 5.25522,-5.51636 3.52524,1.38726 3.73743,-2.26858 -0.45698,-4.27599 -3.94959,-4.71664 -3.55788,-0.1632 -2.39912,-2.67659 -9.35169,3.21517 z"
     class="land"
     title="Békés"
     id="HU-BE"
     inkscape:connector-curvature="0"
     style="fill:#d8a395;fill-opacity:1;stroke:#ffffff;stroke-width:0.816029;stroke-opacity:1" />
  <path
     d="m 729.87355,596.75919 1.55045,3.80269 v 0 l 9.3517,-3.21515 2.41545,2.67657 3.55788,0.17953 3.94959,4.70034 0.45698,4.2923 -3.75373,2.25223 -3.50894,-1.38724 -5.25522,5.53268 -24.66039,6.74041 3.5089,-8.6336 -4.47183,-6.83833 -2.33384,0.0326 -3.44364,-4.19438 6.03861,-5.41845 3.60685,2.46442 12.17516,-4.34129 v 0 z"
     class="land"
     title="Békéscsaba"
     id="HU-BC"
     inkscape:connector-curvature="0"
     style="fill:#d8a395;fill-opacity:1;stroke:#ffffff;stroke-width:0.816029;stroke-opacity:1" />
  <path
     d="m 785.16768,192.30256 11.09799,7.96442 3.9659,9.31907 10.34725,-0.50594 7.40955,25.19897 6.02229,3.13356 3.42733,7.36057 14.19891,3.8027 2.18694,-7.24632 2.75819,0.0163 1.07716,2.36649 3.411,-1.01187 0.17952,-2.59498 0.45698,1.59942 0.79972,-1.55045 4.42286,1.86054 3.13357,-3.73741 5.50003,0.50593 6.25078,-3.59052 4.1291,3.3294 3.00298,-1.99112 1.51782,3.14987 1.37092,-2.02374 3.31309,0.65282 v 0 l 0.78339,4.08015 -2.88875,0.0979 2.72554,1.79526 -6.16918,5.87542 1.40357,3.75373 -3.62317,-0.44066 0.0816,2.26856 -2.54602,-1.51781 1.77895,1.92583 -1.12611,1.5831 -2.95404,-3.31309 0.14688,1.94215 -3.29675,0.0489 1.69735,-3.13355 -1.84423,0.24481 -4.3576,3.9659 -0.24481,3.77006 -1.56677,-0.65283 -3.67213,4.29231 -1.07716,-1.09347 -2.83979,5.27155 -3.42731,-1.4199 -6.59351,1.30566 -1.48518,3.47626 -1.6647,-4.04749 -0.65282,2.23593 -1.77895,-1.77895 -1.69733,5.61427 -2.51338,2.51337 -1.90951,-1.02819 -3.0193,3.78637 0.13057,-2.8561 -4.01487,0.34273 -0.53858,2.57867 -8.20925,-0.14689 -7.86651,-0.91396 -5.14099,-3.01931 -8.99264,5.15731 0.58753,2.15431 -6.05494,-1.01188 -1.35459,3.01932 -4.09648,-2.59497 -4.19438,12.33835 5.30419,6.88728 -2.56234,0.55491 0.62019,2.35015 3.70476,1.19142 -3.63948,1.3546 -0.14688,4.08015 -3.45997,-1.10981 -0.86499,4.21072 -7.88285,0.0163 -2.56233,2.54601 -5.74484,-1.72998 -0.17953,-2.05639 -4.42287,0.13056 -1.72998,-3.62317 -4.45552,3.49261 -0.71811,3.5742 -7.23001,-0.75074 -0.60387,-3.9659 -4.92881,-0.62018 -7.89915,9.20481 6.3487,9.5965 v 0 l -1.59943,6.62616 -2.82345,2.3828 4.9288,1.59941 -6.15285,4.83089 0.0163,5.79381 -4.08014,2.51336 3.42731,7.26267 -5.27154,14.70485 -6.52823,-0.27745 0.0489,6.9852 -7.32794,1.51782 -2.10536,4.65137 -4.87984,1.8279 -2.43177,-2.82346 0.2448,4.17806 2.2196,0.62019 -7.47483,0.68546 3.73742,5.22259 -0.94659,1.33828 -6.20183,-5.53268 v 0 l -4.96146,-2.87241 -4.50446,3.32939 0.99554,2.62762 v 0 l -9.59649,-7.57275 -9.69442,0.45697 -8.58464,-5.17363 -1.33828,-1.76261 3.37835,-4.53713 -13.30127,-13.54607 -0.0489,-13.33392 -5.7122,-2.52969 -2.57866,-4.50448 v 0 l 3.60686,-3.47628 v 0 l 4.16173,0.97924 -1.25667,-2.05641 3.91693,-2.92139 -10.10243,-8.87838 5.84276,-11.79979 -1.61574,-7.75227 3.83535,-2.2196 v 0 l 18.19744,-1.41989 6.00598,4.84722 5.38578,1.32197 2.41545,5.09201 5.74485,-3.03563 7.2953,-0.14689 5.20626,-3.47627 1.84423,-5.97334 -1.95847,-0.84866 0.55489,-6.80569 -2.52968,-4.21071 -6.82201,-2.00743 -3.70477,1.01188 -3.83534,-3.93326 -1.64837,1.89318 -9.89028,-0.5549 -8.19292,4.9941 -11.5713,-0.42433 -6.25077,3.13355 v 0 l -4.29233,-7.57274 -6.95256,-0.65283 -2.23592,0.91396 0.53858,2.79081 -3.85166,4.61872 -1.06084,5.18994 -5.92437,-6.72407 -4.50448,0.0816 -1.1914,5.46739 -5.10835,1.74631 -10.83685,-5.27155 -1.17509,-4.76561 -10.44517,-1.7463 v 0 l -6.10389,-5.56532 v 0 l 4.19438,-3.26413 -1.48517,-1.40355 1.273,-1.56678 8.04604,-5.84277 0.58754,-6.72408 10.59207,0.4733 -0.65282,-2.12167 3.75374,-0.29379 -0.16322,-3.29675 2.00743,-0.7181 6.67512,4.12911 5.87541,-2.38281 1.72998,-5.90806 10.78792,-14.77011 1.04449,-11.96299 13.33393,-15.27606 -0.81603,-9.02529 2.3828,-1.55046 2.61129,2.10537 1.68103,-3.68845 5.61427,2.17063 10.5431,-5.82645 27.61442,-5.14099 -0.97923,1.72999 4.06383,5.36948 7.60539,-1.38726 5.82645,7.81756 3.57421,1.14244 4.7656,-3.29676 7.5238,1.30565 4.16174,2.04008 0.93027,4.19437 3.06827,1.43623 4.24335,-5.43476 4.34128,-0.45697 6.12021,-4.25969 12.51788,3.26412 2.25225,-8.51933 13.88881,0.48961 1.14244,-4.50447 z"
     class="land"
     title="Borsod-Abaúj-Zemplén"
     id="HU-BZ"
     inkscape:connector-curvature="0"
     style="fill:#d8a395;fill-opacity:1;stroke:#ffffff;stroke-width:0.816029;stroke-opacity:1" />
  <path
     d="m 441.79897,406.80395 6.72409,5.61427 -1.27301,1.59943 4.24336,2.83979 -1.90952,1.10979 v 0 l 3.47629,3.6558 3.60686,0.45698 v 0 l 1.63204,1.71366 3.62318,-0.99556 2.75817,6.20183 8.09501,-1.48518 -0.63651,4.87986 2.92139,6.36502 -4.89617,1.48518 -3.00299,4.55344 -2.26856,-0.45697 -8.76414,9.2048 -3.91695,7.47483 -5.89173,2.51337 -6.25078,-6.33238 1.02819,-1.68102 -3.16618,-3.90062 -7.57276,4.7656 -1.64837,-1.90951 -9.27009,3.44365 -0.0489,-9.62915 2.80714,-2.59497 -0.88131,-4.25966 1.76261,-2.18697 -2.82345,-4.63505 -4.01487,-1.95847 1.43621,-1.63205 -1.76263,-1.68102 1.30565,-2.59499 -2.35015,-0.76705 1.35461,-4.58608 -1.4199,0.0326 2.10535,-1.69734 -1.63205,-4.53711 15.43927,-3.28044 -1.28932,-3.83534 2.51336,-1.273 5.18995,0.66914 -0.52227,4.32495 3.23148,-4.96145 v 0 z"
     class="land"
     title="Budapest"
     id="HU-BU"
     inkscape:connector-curvature="0"
     style="fill:#d8a395;fill-opacity:1;stroke:#ffffff;stroke-width:0.816029;stroke-opacity:1" />
  <path
     d="m 586.5299,715.68727 3.36203,-6.51193 3.18251,0.96292 5.79381,-2.43177 8.73151,18.3117 v 0 l -7.94811,-7.34426 -6.08759,3.00299 -4.61872,-3.45997 -0.75075,-3.19883 z m 67.07758,-46.64423 4.34127,5.61429 6.87097,3.41099 8.63358,-0.0816 1.48518,-6.03861 6.87095,-1.06083 2.85612,7.23 -1.40358,13.0075 3.98222,3.05195 v 0 l -3.70476,5.77749 1.3546,9.02529 -4.48815,-0.52227 -2.28489,8.97634 -5.40211,4.63504 -3.10092,-1.55046 -2.4644,5.17362 -13.90513,-11.21224 -6.70776,-2.74187 -0.66914,4.68402 -4.58609,5.17361 -12.25675,-2.9377 -2.00743,1.92584 -1.90952,-4.09646 -9.71075,5.04306 -4.89617,6.20181 -0.86499,-1.07715 v 0 l 2.30121,-1.15878 2.12167,-14.3621 -8.71519,0.21217 -1.63206,-8.4867 13.236,0.76706 -0.19585,-13.85617 v 0 l 13.36655,-1.69734 z m -18.58913,-87.72312 4.45551,-1.76262 8.07868,7.85019 8.37246,-0.0816 4.87985,3.81903 -2.39912,7.13208 1.56677,9.71075 -2.00743,0.0489 -1.02819,7.63803 0.19585,18.60546 6.36502,6.05493 -1.33828,14.73749 -3.62318,1.15877 v 2.83978 0 l -10.37989,-0.21218 -7.83386,-10.93477 -2.54603,0.34272 -2.3828,-3.94957 -6.46295,3.55788 -2.10536,-3.70477 -9.89026,0.39168 0.93026,4.70034 -6.51191,1.55045 2.48074,4.40656 -6.54456,6.47927 -3.31308,-1.32198 -0.0652,-6.72406 -2.72554,1.33828 -2.5297,12.48524 v 0 0 0 l -3.55789,1.37094 0.17953,6.29974 3.91695,2.92138 -1.5831,4.25967 -13.05647,-3.39468 -0.79971,9.43331 -7.40955,-2.72555 -7.39321,6.87096 5.28787,4.30864 9.7597,3.23149 -3.50892,5.8101 2.49704,7.29531 -6.41399,3.11723 v 0 l -13.59503,-1.06084 -16.82653,10.02084 -8.45406,-3.83534 -9.41697,-8.74783 v 0 l -8.96,-16.25529 8.06237,-8.64992 -5.20626,-8.87838 9.72705,-3.10092 3.2478,2.52969 11.098,-8.56831 5.61428,3.78638 3.44364,-2.92138 2.98666,-7.39322 -2.57865,-5.12466 2.48074,-3.62318 -0.865,-4.11279 -6.70775,-6.52823 -5.90806,1.10979 -4.30862,-5.35314 16.3369,-10.28197 7.68698,6.36504 7.67068,-8.96 0.0163,-7.0505 -1.99109,-2.70921 4.52078,-12.55053 -6.38134,-6.88728 13.80721,-16.35323 v 0 l 4.25967,8.97633 2.49705,-0.89763 0.55491,-3.91695 9.25377,6.82201 8.68254,-9.71076 3.45996,0.91396 5.22259,5.69588 5.33684,1.38725 3.11723,-5.0757 7.63803,-0.19584 z"
     class="land"
     title="Csongrád"
     id="HU-CS"
     inkscape:connector-curvature="0"
     style="fill:#d8a395;fill-opacity:1;stroke:#ffffff;stroke-width:0.816029;stroke-opacity:1" />
  <path
     d="m 784.56382,424.96876 -0.29377,-4.45552 4.70032,-11.42441 14.26419,-2.43177 10.47782,-5.22258 -1.97479,6.95256 5.02673,-5.02674 10.78791,2.80714 -3.3294,10.72262 7.11577,0.88132 9.36801,-6.52825 7.42587,6.20184 -1.81159,11.47337 -5.46739,9.95555 -3.52524,-0.45698 -5.66324,5.32051 -11.44073,3.75374 -1.95847,-5.53268 -2.54601,-1.12612 -5.89172,0.48961 -7.93182,5.50004 -4.14542,-19.7479 z"
     class="land"
     title="Debrecen"
     id="HU-DE"
     inkscape:connector-curvature="0"
     style="fill:#d8a395;fill-opacity:1;stroke:#ffffff;stroke-width:0.816029;stroke-opacity:1" />
  <path
     d="m 419.2113,556.38207 -11.01641,1.50149 -10.5594,-15.9452 7.31163,-3.05195 14.80275,-0.58755 v 0 z"
     class="land"
     title="Dunaújváros"
     id="HU-DU"
     inkscape:connector-curvature="0"
     style="fill:#d8a395;fill-opacity:1;stroke:#ffffff;stroke-width:0.816029;stroke-opacity:1" />
  <path
     d="m 638.86999,344.80206 -3.83534,0.89763 -0.7997,6.47927 -9.61283,1.09348 0.47331,-2.88874 -5.51637,-6.03863 1.4199,-1.55043 -3.57422,-14.8191 4.09649,-8.095 7.94811,3.96589 -0.9466,4.32496 3.28044,6.31606 4.24336,2.75818 2.82345,-2.28488 2.20328,1.25668 1.40358,5.10835 v 0 z"
     class="land"
     title="Eger"
     id="HU-EG"
     inkscape:connector-curvature="0"
     style="fill:#d8a395;fill-opacity:1;stroke:#ffffff;stroke-width:0.816029;stroke-opacity:1" />
  <path
     d="m 379.84605,413.85443 0.88131,10.0535 4.79826,8.69885 3.60684,0.0653 4.86354,7.34425 0.53858,6.51191 -4.6024,5.38578 15.40662,17.9037 -0.39168,3.50891 2.82345,0.66915 0.26113,4.79825 5.81013,1.17508 -6.77305,26.39039 3.85166,16.61434 9.87395,9.9066 v 0 l -1.04452,5.45106 v 0 l -14.80275,0.58755 -7.31163,3.05194 10.5594,15.92891 11.01641,-1.50151 v 0 l -4.84722,13.1544 v 0 l -9.31905,2.12166 2.31752,2.15432 -2.04006,3.57421 -9.77603,6.95257 -0.16322,3.8843 -6.95256,0.76706 -4.43919,3.411 2.05639,4.94514 -11.66922,8.37246 -3.49261,-0.42434 -2.08903,-11.86506 -6.00597,-2.67658 -2.66026,-5.20627 -7.31162,4.04751 0.89763,3.77006 -6.7404,1.17508 -5.85908,-1.48517 -0.62019,-8.96 -2.21959,-3.21516 -0.29378,7.47484 -3.54156,-4.43921 -2.3012,2.80713 -7.40955,-2.80713 -1.32195,-5.89172 -8.35615,7.44217 -5.76117,1.17509 v 0 l -2.10534,-8.8784 1.72996,-3.45996 -1.43621,-6.08758 1.56679,-0.79971 -2.98667,-1.0445 3.75374,-3.19885 -3.11723,-9.28641 -4.55346,-5.95702 v 0 l 10.86951,-12.04458 3.86798,-1.15875 -3.85165,-0.47331 -4.66769,-12.15884 4.48816,-3.55789 -3.26411,-13.31758 1.76261,-12.74637 -7.18105,-5.12466 -2.56234,-5.59797 -7.45851,3.54156 -4.66767,-6.83832 -2.6113,0.66916 -1.45253,-5.90806 2.70922,-3.23146 -3.14987,-0.47331 -1.17508,-2.72554 v 0 l 2.52968,-3.5742 4.84722,-1.53415 -1.09348,-3.03563 4.08015,-5.957 1.27301,-9.89027 3.44363,-1.63206 2.07272,2.69289 4.34127,-0.66915 1.74631,-1.97479 -0.96292,-5.25521 8.02973,3.91693 0.81602,4.97778 9.48226,7.58907 2.62761,-3.16619 6.77305,-0.58754 -3.77006,-4.1291 0.68546,-1.82793 2.74187,-3.16618 2.70921,2.12168 4.96146,-7.5401 3.67213,-1.69735 v 0 l 5.36947,-4.24335 -1.89319,-3.0193 2.6113,-0.50595 -1.04452,-4.78193 6.00597,-1.1098 v 0 l 7.16474,-4.1291 5.97333,2.15431 z m -38.09222,63.79716 -2.93771,1.50149 v 0 l -0.68547,4.29232 -12.24043,12.89325 6.56087,11.70185 2.74186,1.45255 0.52225,9.51489 8.73152,-3.36204 1.7463,2.26857 5.56531,-6.70777 7.62173,-2.2196 -3.01932,-7.16473 -3.0846,0.19584 1.79527,-4.61873 -3.08459,-5.72851 2.52969,-3.52526 -4.47185,-5.05936 -4.87984,0.32639 z"
     class="land"
     title="Fejér"
     id="HU-FE"
     inkscape:connector-curvature="0"
     style="fill:#d8a395;fill-opacity:1;stroke:#ffffff;stroke-width:0.816029;stroke-opacity:1" />
  <path
     d="m 221.84651,384.47739 7.68699,-5.30419 3.99855,3.05196 10.41253,-1.15877 6.12021,3.88431 3.13355,8.63357 -20.20487,10.68999 -4.71665,-1.46886 -4.92881,8.66622 -9.53122,-0.7997 -5.92437,-2.95403 -1.07716,-4.06382 7.11576,-1.6647 1.50151,-10.18404 z"
     class="land"
     title="Győr"
     id="HU-GY"
     inkscape:connector-curvature="0"
     style="fill:#d8a395;fill-opacity:1;stroke:#ffffff;stroke-width:0.816029;stroke-opacity:1" />
  <path
     d="m 167.46633,317.8731 3.01932,4.56977 9.97186,0.52225 13.77458,14.86805 4.27599,9.22114 10.93479,4.63504 5.01042,9.79235 6.49558,-0.91397 15.16183,14.2642 10.46149,3.73741 11.32648,-1.43621 5.10834,1.46886 v 0 l 1.37094,8.38877 -2.35017,14.00307 6.28342,4.42287 -3.8843,12.43627 4.73296,2.56233 -4.14542,1.5015 -3.81901,-1.63205 4.0475,11.24488 -3.3294,1.41989 0.22849,2.87241 -2.3012,-0.0489 1.90951,3.14987 -2.26856,1.35461 v 0 l -5.89172,-7.62172 -3.05196,4.06384 -2.17063,-3.85167 -6.12022,7.57276 -4.06382,-3.73741 0.47329,4.42287 -3.83534,0.70178 -0.31009,-4.684 -4.12911,-0.17953 -4.91249,4.39024 -3.03562,-2.87243 -2.35017,1.84424 -5.33683,-6.69145 -4.66768,4.43919 -14.18259,-4.68399 -2.97035,2.3828 -5.04306,-1.273 -3.03563,8.86208 -14.67219,2.82344 -5.33683,-1.89318 -1.3383,1.5831 -3.65579,-2.75819 -3.0846,2.57866 v 0 l -4.29231,-1.20772 -2.8561,4.45552 -11.14696,5.01042 2.92138,-10.03717 -2.46441,-4.35759 -12.99118,9.59651 -3.1662,4.53711 -4.87984,-5.12466 -3.98223,1.12613 -5.12467,-7.58907 -5.64691,3.06826 -0.91396,-1.9095 -2.284876,1.53413 -0.881315,-1.45254 -10.102439,6.83834 -5.353151,-1.8279 -4.667687,-5.67957 v 0 l 3.492606,-6.0223 -2.578652,-5.6306 5.451073,-2.25224 3.867978,-6.41398 -7.57275,-6.12023 1.746303,-2.35016 -0.620182,-5.69588 -2.692896,-3.83534 -12.273077,-0.34273 v 0 l 6.838324,-3.63949 10.592055,-1.94215 3.313079,1.72998 5.369471,-9.30273 v 0 l 11.962996,0.32641 5.67956,-8.30717 0.88131,6.75671 1.69734,0.32642 30.53581,-4.34127 -2.97035,-4.14544 -2.70921,-14.32946 3.24779,-3.41101 -3.86799,-4.25967 0.68547,-2.18695 -6.08757,-4.63505 1.06084,-1.99111 9.84129,-1.30564 2.35018,-4.34129 -0.62018,-2.74185 2.61129,-4.24334 -3.21516,-2.02376 3.5579,-5.51637 -3.14988,-2.31751 11.29385,-9.0416 z m 47.9662,73.93223 -1.50151,10.18404 -7.42586,3.18252 1.38726,2.546 11.91401,4.30864 3.54158,-0.53857 4.92881,-8.66623 4.71665,1.46885 20.2212,-10.67366 -3.13356,-8.63358 -6.12022,-3.88431 -10.41252,1.15876 -3.98222,-3.05195 -9.9066,8.27453 z"
     class="land"
     title="Győr-Moson-Sopron"
     id="HU-GS"
     inkscape:connector-curvature="0"
     style="fill:#d8a395;fill-opacity:1;stroke:#ffffff;stroke-width:0.816029;stroke-opacity:1" />
  <path
     d="m 738.01753,330.11354 10.72262,0.84867 9.62914,6.98521 1.72999,4.84722 7.21369,-3.47629 25.88444,-1.07717 3.10091,-3.83533 3.70477,1.45253 v 0 l 3.23147,1.35461 -1.32196,2.80713 v 0 l 1.37092,6.26712 -3.29675,21.1025 8.53567,4.08015 5.549,9.75971 9.95555,-0.66915 1.97479,5.35315 7.76859,0.50594 -0.70178,3.54157 9.54754,4.66768 7.80122,-6.93624 0.48962,-5.71221 5.35317,-1.53413 9.00895,6.29975 -0.75074,5.97333 4.25968,2.54601 -1.12613,4.27599 2.61129,4.99409 7.99708,-10.85319 4.21071,2.64394 3.90062,13.44816 v 0 l -4.86353,8.02973 -5.98964,2.43176 2.20327,2.66026 -1.35461,1.76262 -2.33384,-2.23592 -3.6395,4.97779 -2.00743,8.71519 3.63949,5.45107 0.32642,8.43774 -3.62316,7.67066 -10.2983,0.73444 -8.94368,18.52386 1.28932,3.10091 -5.35315,7.85019 1.01188,10.65735 -6.05493,3.52524 -3.78637,13.92146 -9.62915,1.94214 -6.51191,11.31018 -4.76561,0.9629 1.40356,3.75373 v 0 l -2.43176,1.74631 -0.40801,-2.138 -1.53414,0.89762 -3.83533,5.25523 -5.17362,-0.89764 -0.16322,8.78049 -10.03715,1.53413 -2.57865,2.85611 -5.43476,-3.13356 -3.24779,3.01931 2.49705,-6.47927 -12.27308,-1.68103 -18.3933,-9.1232 1.95847,-3.03562 -1.43619,-5.02675 8.53566,-6.36501 -1.01189,-5.23892 2.23592,-1.69734 0.21217,-6.91991 -10.68997,0.5549 -4.42288,-3.81903 -10.60839,-1.40357 -9.23744,-7.29529 -1.94216,3.41099 -4.68401,-7.27898 -6.39766,-1.12612 v 0 l 6.49559,-4.65136 1.71366,-19.63366 -5.6306,-27.94084 1.72999,-4.01486 -2.48073,-3.75374 0.1632,-12.8443 -6.75671,-6.39764 -7.80125,3.13353 -7.18105,-3.26412 -2.79082,-9.18847 0.79971,-6.51191 v 0 l 6.20182,5.53267 0.9466,-1.35461 -3.73743,-5.20626 7.47483,-0.7018 -2.21959,-0.60385 -0.22849,-4.19439 2.43176,2.83978 4.87986,-1.82791 2.10535,-4.65136 7.32795,-1.53414 -0.0653,-6.9852 6.54455,0.27744 5.27155,-14.70484 -3.42732,-7.26266 4.08015,-2.51337 -0.0163,-5.7938 6.13655,-4.81457 -4.91249,-1.59942 2.82344,-2.3828 z m 59.73332,96.96057 4.14542,19.7479 7.91549,-5.48371 5.90805,-0.50594 2.54601,1.12612 1.95847,5.53268 11.4244,-3.75374 5.67957,-5.32051 3.52524,0.45698 5.48372,-9.95555 1.81159,-11.47337 -7.4422,-6.20184 -9.36801,6.52825 -7.11577,-0.86499 3.3294,-10.73895 -10.77158,-2.80714 -5.04306,5.02674 1.97479,-6.95256 -10.47782,5.22258 -14.26419,2.41545 -5.18994,14.16627 0.78339,1.71365 8.06237,1.28933 z"
     class="land"
     title="Hajdú-Bihar"
     id="HU-HB"
     inkscape:connector-curvature="0"
     style="fill:#d8a395;fill-opacity:1;stroke:#ffffff;stroke-width:0.816029;stroke-opacity:1" />
  <path
     d="m 586.46461,290.20972 10.44517,1.7463 1.17509,4.76561 10.83685,5.27155 5.10835,-1.74631 1.1914,-5.46739 4.50448,-0.0816 5.92437,6.72407 1.06084,-5.18994 3.85166,-4.61872 -0.53858,-2.79081 2.23592,-0.91397 6.95256,0.65284 4.29233,7.57274 v 0 l 0.27744,5.33682 3.47629,5.20627 v 0 l -3.83535,2.2196 1.61574,7.75227 -5.84276,11.79979 10.10243,8.87838 -3.91693,2.92139 1.25667,2.05641 -4.16173,-0.97924 v 0 l -1.40358,-5.10835 -2.20328,-1.25668 -2.82345,2.28488 -4.24336,-2.75818 -3.28044,-6.31606 0.9466,-4.32496 -7.94811,-3.96589 -4.09649,8.095 3.57422,14.8191 -1.4199,1.55043 5.51637,6.03863 -0.47331,2.88874 9.61283,-1.09348 0.7997,-6.47927 3.83534,-0.89763 v 0 l 2.57866,4.50448 5.7122,2.52969 0.0489,13.33392 13.30127,13.54607 -3.37835,4.53713 1.33828,1.76261 8.58464,5.17363 9.69442,-0.45697 9.59649,7.57275 v 0 l -1.76262,2.75817 -6.41399,1.94216 0.17953,5.35315 -2.80713,1.94215 0.86499,5.35315 -18.6218,13.28495 -8.19293,2.8561 -2.87242,7.23001 -6.1039,-0.60385 1.30565,-4.70032 -4.68401,1.76261 1.01188,9.1232 -6.33238,4.16176 -3.37836,-1.07716 0.34273,-4.17807 -4.40657,1.58309 -4.27598,-3.13356 -4.81456,-6.98519 2.04005,-4.83089 -2.08902,-6.78936 -8.73152,-4.96145 -3.36203,-10.0535 -15.5372,4.03119 4.73296,5.3042 -3.32939,2.56231 -13.10542,-5.89172 -2.12167,-2.87242 1.77894,-4.81457 -3.36205,-12.48524 -3.55787,-0.7834 -8.42143,4.71666 -5.74484,-2.64394 -0.865,8.04605 -3.70476,1.64838 -3.93327,6.03862 -9.58019,-5.64694 -6.91992,2.82347 -0.58754,5.33682 -5.22258,-1.06084 v 0 l -4.06383,-12.63212 -2.80714,-0.79971 -4.22702,-8.30717 2.25223,-5.45108 -5.14098,-5.09202 v 0 l 6.3487,-5.69588 1.82791,1.25668 2.49704,-1.9095 -1.7463,-8.92737 3.05195,-1.51782 1.51781,3.16621 3.59054,-4.50449 4.71665,0.24482 1.41988,-5.67957 4.74929,-4.63505 0.91396,-8.20925 8.94368,6.46295 2.41544,-1.14244 1.20773,-3.36203 -6.5772,-3.42733 -0.62018,-2.8561 10.08612,-1.71365 3.65581,2.88874 4.32495,-0.13057 2.18695,-5.3042 3.81903,-2.08903 -0.40802,-4.42287 3.10091,-1.61574 -0.58753,-4.1128 7.16472,-2.57864 -2.4644,-2.51337 0.42433,-7.21369 -6.67512,-4.94515 -0.35906,-2.88873 10.10245,-3.52525 1.1098,-3.60685 3.81902,0.40802 z"
     class="land"
     title="Heves"
     id="HU-HE"
     inkscape:connector-curvature="0"
     style="fill:#d8a395;fill-opacity:1;stroke:#ffffff;stroke-width:0.816029;stroke-opacity:1" />
  <path
     d="m 598.62344,667.44362 2.54602,-12.46891 2.70921,-1.35461 0.0652,6.7404 3.31308,1.32196 6.56087,-6.47927 -2.49705,-4.40656 6.51191,-1.56678 -0.93026,-4.68399 9.89028,-0.39171 2.12167,3.7211 6.46294,-3.57421 2.38281,3.94958 2.546,-0.34274 7.83389,10.93481 10.37989,0.21215 v 0 l 0.11424,7.00153 -5.02674,2.98667 v 0 l -23.48532,18.99716 -13.36655,1.69734 v 0 l 0.7997,-3.50893 -8.37244,-2.17064 z"
     class="land"
     title="Hódmezővásárhely"
     id="HU-HV"
     inkscape:connector-curvature="0"
     style="fill:#d8a395;fill-opacity:1;stroke:#ffffff;stroke-width:0.816029;stroke-opacity:1" />
  <path
     d="m 694.81694,394.22077 -0.78338,6.52824 2.79081,9.1885 7.18106,3.2641 7.81757,-3.13354 6.75671,6.39765 -0.1632,12.8443 2.4644,3.77008 -1.71366,4.01484 5.6306,27.94084 -1.71366,19.63366 -6.49559,4.65136 v 0 l -4.56977,9.30274 -14.50899,8.40509 2.88875,5.84278 -3.28044,0.76706 -0.37538,2.12169 3.00298,9.59649 -2.49704,-0.9466 -5.1573,4.16176 -0.32641,2.6276 -7.24634,0.0489 -0.39169,-3.55787 -4.55345,4.50447 -2.41544,-0.21217 -0.0326,11.75083 2.04007,0.73442 0.44065,3.19884 -3.21515,0.42433 3.39468,0.52226 -3.47628,8.35613 -9.09057,3.50893 -6.47927,-3.78637 -6.90361,0.17952 -1.22403,2.90506 -4.24335,1.84423 -8.19294,-0.34273 -7.39322,8.24188 2.23593,11.79978 v 0 l -2.95403,3.73743 -7.65435,0.19583 -3.11723,5.07571 -5.33684,-1.40358 -5.22259,-5.69587 -3.45996,-0.91395 -8.68254,9.71074 -9.25378,-6.822 -0.55489,3.91693 -2.51339,0.89764 -4.24334,-8.97632 v 0 l -2.56233,-4.22703 -1.72999,0.83235 0.35906,4.96146 -4.3576,-2.87242 0.19586,-3.5579 5.10833,-0.93027 -0.55489,-1.84421 -3.50892,0.68546 -2.4481,-3.29676 5.76117,-3.11723 1.53413,1.4362 1.84422,-4.12911 4.25967,0.4733 10.68998,-8.6499 -2.51336,-4.61873 -5.35315,-0.71811 -0.0163,-2.3012 4.01485,-1.89319 0.84868,-4.66768 -6.822,-5.12467 v 0 l 2.57865,-5.69587 -3.29676,-1.81159 -5.12466,-13.83985 -0.93027,-4.19439 2.28488,-5.45108 v 0 l 8.12765,5.22259 -1.04453,1.33829 2.31753,2.5297 7.27898,0.48961 5.23891,5.05938 4.684,0.0489 5.98966,-5.79381 -2.35017,-6.77304 -4.73297,-2.3828 4.1128,-10.44517 -4.5208,0.55489 2.35016,-1.94214 -2.83978,-3.93326 -3.23149,0.13057 -9.31903,-5.95702 -8.99265,9.44961 v 0 l -5.84277,-6.52822 -8.37246,-2.95403 4.4392,-11.0164 -4.27599,-9.59649 -23.43636,-17.47935 -4.50448,-7.06682 -7.49114,-6.365 6.15285,-9.20482 -7.85019,-0.6365 -5.02674,4.03118 -7.50747,-6.65879 2.12168,-8.96002 v 0 l 5.22258,1.06084 0.58754,-5.33682 6.91992,-2.82347 9.58019,5.64694 3.93326,-6.03862 3.70477,-1.64838 0.865,-8.04605 5.74484,2.64394 8.42143,-4.71666 3.55787,0.7834 3.36205,12.48524 -1.77894,4.81457 2.12167,2.87242 13.10542,5.89173 3.32939,-2.56232 -4.73296,-5.3042 15.5372,-4.03119 3.36203,10.0535 8.73152,4.96145 2.08902,6.78936 -2.04005,4.83089 4.81456,6.98519 4.27598,3.13356 4.40657,-1.58309 -0.34272,4.17807 3.37835,1.07716 6.33238,-4.16176 -1.01188,-9.1232 4.68401,-1.76261 -1.30565,4.70032 6.1039,0.60385 2.87242,-7.23001 8.19293,-2.8561 18.6218,-13.28495 -0.86499,-5.35315 2.80713,-1.94215 -0.17953,-5.35315 6.41399,-1.94216 1.76262,-2.75817 v 0 l -0.99554,-2.62762 4.50446,-3.32939 z"
     class="land"
     title="Jász-Nagykun-Szolnok"
     id="HU-JN"
     inkscape:connector-curvature="0"
     style="fill:#d8a395;fill-opacity:1;stroke:#ffffff;stroke-width:0.816029;stroke-opacity:1" />
  <path
     d="m 246.63746,662.80857 0.21219,1.10982 v 0 l 4.09646,-4.53712 5.67956,7.34425 1.87686,11.00007 -4.21071,0.91396 -0.86499,2.04007 1.25668,1.94214 -1.95846,10.29829 -2.59497,-0.70178 -1.14244,-4.42288 -3.62317,0.81603 -0.76707,3.72108 v 0 l -3.13354,-1.19139 -0.35906,-5.12466 v 0 l -4.01487,-10.41253 1.64838,-5.53268 -1.1914,-8.47038 v 0 l 1.84423,-3.16619 z"
     class="land"
     title="Kaposvár"
     id="HU-KV"
     inkscape:connector-curvature="0"
     style="fill:#d8a395;fill-opacity:1;stroke:#ffffff;stroke-width:0.816029;stroke-opacity:1" />
  <path
     d="m 548.01332,551.14316 3.85166,11.03272 -7.13209,9.77602 -5.53268,-4.83088 -1.6647,3.60683 -8.20925,1.90952 -2.79082,5.01042 -6.34871,0.3917 0.62017,-2.82347 -5.18994,-6.18551 -5.6306,-4.25966 -3.32939,-0.0326 -0.88131,-6.29975 -8.25822,-10.08612 4.14543,-3.99854 1.63205,1.71366 5.90805,-7.94812 12.35469,3.75374 5.25523,-2.18697 v 0 l 13.72561,10.20037 3.19882,-1.273 z"
     class="land"
     title="Kecskemét"
     id="HU-KM"
     inkscape:connector-curvature="0"
     style="fill:#d8a395;fill-opacity:1;stroke:#ffffff;stroke-width:0.816029;stroke-opacity:1" />
  <path
     d="m 397.26012,360.60038 5.4021,1.0282 v 0 l 8.43775,3.67212 2.6276,13.44817 3.24781,3.03563 -2.92139,3.23146 -3.29676,-2.41543 -7.03417,1.79526 1.64838,13.31759 -12.56684,-4.21072 0.14687,2.26858 -4.47183,-0.0163 4.9125,4.76561 -5.85909,3.4926 -3.03562,3.06827 -0.0163,3.05194 -4.63505,3.72109 v 0 l -10.88583,2.95404 -5.98965,-2.15432 -7.16473,4.12911 v 0 l -0.40802,-3.65582 -6.31606,-5.58164 -7.3769,-2.51336 -7.80125,1.40356 -3.93324,7.06682 2.61129,5.17362 2.20328,-0.79971 0.70177,3.81902 7.32794,4.56977 1.94216,4.17807 v 0 l -3.65582,1.69734 -4.97777,7.54009 -2.70922,-2.13799 -2.72553,3.1662 -0.70179,1.8279 3.77006,4.12911 -6.77305,0.58754 -2.62761,3.16619 -9.48226,-7.6054 -0.79971,-4.96145 -8.02973,-3.91693 0.96293,5.25522 -1.76264,1.9748 -4.34126,0.68546 -2.07271,-2.69289 -3.44365,1.61573 -1.273,9.90659 -4.08015,5.95702 1.09348,3.03562 -4.84722,1.53413 -2.52968,3.57423 v 0 l -11.00008,0.13055 -0.35905,-3.39468 -4.14542,-2.7745 2.61129,-0.96292 0.0652,-2.44809 -10.54309,-3.18251 3.42731,-7.06681 -4.34127,-6.83832 v 0 l 2.26856,-1.35461 -1.90951,-3.14987 2.28488,0.0489 -0.21216,-2.87243 3.3294,-1.40357 -4.04751,-11.24487 3.80269,1.63206 4.14543,-1.5015 -4.73296,-2.56233 3.88429,-12.43629 -6.28342,-4.42287 2.36649,-13.98674 -1.37092,-8.38877 v 0 l 7.75226,-1.1098 3.78638,-2.85611 4.58609,2.46441 3.94957,-2.23592 6.52823,0.0326 31.90673,5.51636 23.66485,-7.26266 6.49559,2.70922 6.62616,-2.70922 15.40662,1.24037 11.11432,-5.74485 2.52969,-6.00598 z"
     class="land"
     title="Komárom-Esztergom"
     id="HU-KE"
     inkscape:connector-curvature="0"
     style="fill:#d8a395;fill-opacity:1;stroke:#ffffff;stroke-width:0.816029;stroke-opacity:1" />
  <path
     d="m 643.50505,296.13409 6.25077,-3.13355 11.5713,0.42433 8.19292,-4.9941 9.89028,0.5549 1.64837,-1.89318 3.83534,3.93326 3.70477,-1.01188 6.82201,2.00743 2.52968,4.21071 -0.55489,6.80569 1.95847,0.84866 -1.84423,5.97334 -5.20626,3.47627 -7.2953,0.14689 -5.74485,3.03563 -2.41545,-5.09201 -5.38578,-1.32197 -6.00598,-4.84722 -18.19744,1.41989 v 0 l -3.47629,-5.20627 z"
     class="land"
     title="Miskolc"
     id="HU-MI"
     inkscape:connector-curvature="0"
     style="fill:#d8a395;fill-opacity:1;stroke:#ffffff;stroke-width:0.816029;stroke-opacity:1" />
  <path
     d="m 135.75546,668.83087 -5.8591,4.25968 -0.53858,5.76116 -5.40212,-1.1914 -1.79526,1.56678 -4.01485,-5.82645 4.45552,-23.90965 4.39022,0.34272 -0.32641,-8.29084 1.8932,-0.75075 1.20772,1.82791 4.84721,-4.58609 3.2478,0.91395 -0.21217,11.40809 5.14097,4.22702 -0.65281,3.9659 2.33385,1.0282 0.40801,3.54157 v 0 l -3.68846,3.81901 -4.35759,-3.08458 z"
     class="land"
     title="Nagykanizsa"
     id="HU-NK"
     inkscape:connector-curvature="0"
     style="fill:#d8a395;fill-opacity:1;stroke:#ffffff;stroke-width:0.816029;stroke-opacity:1" />
  <path
     d="m 521.68823,269.1072 3.05194,-0.26112 3.68845,7.80123 4.37392,0.3101 3.23147,-2.93771 7.78492,4.74928 0.99556,2.3665 -3.31308,4.19437 1.92583,2.43179 3.47628,-3.5579 3.42732,1.59942 1.7463,-3.47629 0.7018,1.82791 5.58163,0.84867 2.2196,4.17807 -1.89319,4.87986 5.54899,-1.8116 5.48373,-7.08312 7.98075,-2.48073 2.66027,1.95847 v 0 l 6.10389,5.56532 v 0 l -3.13355,5.05938 -3.81902,-0.40802 -1.1098,3.60685 -10.10244,3.52525 0.35905,2.88873 6.67512,4.94515 -0.42433,7.21369 2.4644,2.51337 -7.16472,2.57864 0.58753,4.1128 -3.10091,1.61574 0.40802,4.42287 -3.81903,2.08903 -2.18695,5.3042 -4.32495,0.13057 -3.65581,-2.88874 -10.08612,1.71365 0.62018,2.8561 6.5772,3.42733 -1.20773,3.36203 -2.41544,1.14244 -8.94368,-6.46295 -0.91396,8.20925 -4.74929,4.63505 -1.41988,5.67957 -4.71665,-0.24482 -3.59054,4.50449 -1.51781,-3.16621 -3.05195,1.51782 1.7463,8.92737 -2.49704,1.9095 -1.82791,-1.25668 -6.3487,5.69588 v 0 l -4.48815,-2.26856 -7.40956,7.11577 3.18252,3.52524 -4.78194,2.12168 -4.32495,-8.33982 -0.6365,-9.13952 -4.70033,-0.58754 1.94216,-5.53268 2.70921,-1.30565 -3.14987,-3.21515 -9.67811,-0.37537 -5.09203,-2.95402 -13.79088,1.55046 -8.07869,-5.58165 -1.53413,1.79528 -8.27454,-1.48519 -4.17807,1.46885 -2.43177,-3.67213 -1.38724,0.79971 -1.76261,-5.30419 -14.70485,-12.79533 0.91394,-4.06383 6.38135,-4.6024 2.36649,-8.42142 -2.74185,-2.87242 -4.56978,-0.11425 -4.08015,-6.15285 v 0 l 7.81757,0.35905 5.01042,-4.684 6.28343,4.08014 3.31307,-2.80716 3.60685,1.59944 4.08015,-1.94216 15.83096,4.22703 1.89318,-3.50893 6.54455,-3.80268 12.73007,-1.0282 2.12167,1.94214 6.46294,-3.99854 3.8027,3.90063 0.21217,-2.48074 2.87242,-1.14244 5.3858,-22.65297 8.0134,-3.23147 7.47482,-7.14842 z"
     class="land"
     title="Nógrád"
     id="HU-NO"
     inkscape:connector-curvature="0"
     style="fill:#d8a395;fill-opacity:1;stroke:#ffffff;stroke-width:0.816029;stroke-opacity:1" />
  <path
     d="m 800.01941,335.85838 7.44218,-15.34134 4.86354,1.86054 6.34871,-0.8813 2.41545,-6.07127 -2.93772,-3.18251 0.6202,-2.44809 5.46738,-0.60386 4.32496,3.08459 6.1039,-0.7997 2.13798,5.63059 -1.7463,4.48815 2.66026,0.27746 0.3101,2.20328 7.08313,-0.29376 3.39468,14.37843 -1.06085,3.05194 -3.60683,0.3101 -0.96292,3.19883 -5.05939,-2.6113 -0.21217,9.44963 3.52525,0.68546 -1.81158,4.22702 -2.87242,0.89763 -3.44365,-5.40209 -11.96298,0.97922 -3.37837,-4.6024 -5.64691,-1.06083 -1.24035,-3.29677 -8.84578,-3.96591 v 0 l 1.32198,-2.7908 z"
     class="land"
     title="Nyíregyháza"
     id="HU-NY"
     inkscape:connector-curvature="0"
     style="fill:#d8a395;fill-opacity:1;stroke:#ffffff;stroke-width:0.816029;stroke-opacity:1" />
  <path
     d="m 328.87688,723.71699 1.63206,1.71367 v 0 l 2.30121,6.44662 -1.2567,2.00743 -6.25078,-0.94658 -5.05939,7.45849 v 0 l -1.76261,7.70331 -7.94811,2.72555 v 0 l -4.86354,-6.0223 -5.97334,-3.45996 0.84867,-4.29232 -2.74185,-7.09945 6.18549,-0.19584 -1.07715,-3.6395 v 0 l 5.09202,-3.55788 v 0 l 6.15286,1.63205 v 0 l 11.26119,-5.46738 z"
     class="land"
     title="Pécs"
     id="HU-PS"
     inkscape:connector-curvature="0"
     style="fill:#d8a395;fill-opacity:1;stroke:#ffffff;stroke-width:0.816029;stroke-opacity:1" />
  <path
     d="m 412.20976,310.10451 3.26411,-1.14244 v 0 l 4.08015,6.15285 4.56978,0.11425 2.74185,2.87242 -2.35017,8.42142 -6.39767,4.6024 -0.91394,4.0475 14.70485,12.79534 1.7463,5.32051 1.40355,-0.81603 2.43177,3.67214 4.17807,-1.46886 8.27454,1.48517 1.53413,-1.79526 8.07869,5.58164 13.80722,-1.55046 5.09202,2.95403 9.67809,0.37537 3.13356,3.21516 -2.69289,1.30564 -1.94215,5.53268 4.70033,0.58755 0.6365,9.15583 4.32496,8.33982 4.78192,-2.12168 -3.19884,-3.54156 7.42586,-7.11577 4.47185,2.26856 v 0 l 5.14098,5.09202 -2.25223,5.45107 4.22702,8.30718 2.80714,0.7997 4.06383,12.63215 v 0 l -2.12168,8.95998 7.50747,6.6588 5.02674,-4.01485 7.85019,0.6365 -6.15285,9.18848 7.49114,6.36503 4.50448,7.08313 23.43636,17.47935 4.27599,9.59649 -4.45551,11.0164 8.38877,2.97034 5.84277,6.52823 v 0 l 2.36649,5.82645 -5.45108,6.56087 v 0 l -2.28488,5.46741 0.93027,4.17806 5.12467,13.83985 3.29675,1.81159 -2.57865,5.7122 v 0 l -3.73741,-2.44809 -10.44518,4.17806 -2.10535,7.88285 -15.84727,-7.23001 -6.62617,11.29383 v 0 l -4.27599,-2.52968 -3.21516,1.273 -13.7256,-10.20037 v 0 l -6.5772,-7.44217 -8.2419,-19.4215 -3.60684,3.34572 -8.29086,-3.08459 -4.35759,14.29683 -7.14841,-2.08904 -9.20481,6.67512 -4.22703,7.88285 -6.05494,-8.61726 7.58908,-12.37101 -11.44074,-9.30273 -5.58164,3.21515 -3.31308,7.62171 -1.32196,-2.04007 -5.40211,-0.21217 -13.97042,13.52977 -6.60983,-4.29232 -9.79236,-2.20328 2.75818,4.68401 -1.17508,3.01931 v 0 l -9.85762,-9.9066 -3.85165,-16.61435 6.77302,-26.39038 -5.81012,-1.17509 -0.26113,-4.79824 -2.82346,-0.66915 0.39169,-3.50892 -15.40663,-17.90368 4.6024,-5.38578 -0.53857,-6.51192 -4.86353,-7.34426 -3.60685,-0.0652 -4.79825,-8.69888 -0.88132,-10.05347 v 0 l 4.63505,-3.7211 0.0163,-3.05195 3.05196,-3.06826 5.84276,-3.49261 -4.89617,-4.76561 4.45552,0.0163 -0.14689,-2.26856 12.58316,4.2107 -1.64837,-13.31759 7.01784,-1.79526 3.29676,2.41543 2.93771,-3.23146 -3.2478,-3.03563 -2.62762,-13.44816 -8.43773,-3.67213 v 0 l 1.28933,-1.92582 -4.24336,-5.28788 -8.79678,-4.35759 -0.52227,-10.65735 2.77451,-7.34425 -2.88875,-4.61873 2.23592,-3.00298 4.22703,0.57121 2.15431,-1.9095 2.15432,-11.71818 7.6054,-0.62018 0.68546,-2.138 z m 24.39927,101.69353 0.53858,-4.32495 -5.18995,-0.66914 -2.51336,1.28933 1.28933,3.83532 -15.43928,3.28045 1.61574,4.52079 -2.10535,1.69734 1.43621,-0.0163 -1.35461,4.58608 2.35017,0.76707 -1.28932,2.59496 1.7463,1.69735 -1.4199,1.63205 4.01486,1.95849 2.80715,4.61871 -1.74631,2.18695 0.86499,4.25968 -2.79082,2.6113 0.0489,9.62914 9.28642,-3.44364 1.64837,1.9095 7.57275,-4.7656 3.1662,3.90061 -1.02819,1.69735 6.25078,6.33238 5.87541,-2.51337 3.93325,-7.47482 8.76415,-9.20481 2.26856,0.45697 3.00299,-4.55344 4.89618,-1.46885 -2.92139,-6.36503 0.6365,-4.89618 -8.09501,1.50151 -2.75817,-6.21815 -3.62317,0.99555 -1.63206,-1.71365 v 0 l -2.62762,0.17952 -4.43918,-4.276 v 0 l 1.90949,-1.1098 -4.24334,-2.82345 1.27299,-1.61574 -6.72406,-5.61428 v 0 l -1.94217,0.0489 z"
     class="land"
     title="Pest"
     id="HU-PE"
     inkscape:connector-curvature="0"
     style="fill:#d8a395;fill-opacity:1;stroke:#ffffff;stroke-width:0.816029;stroke-opacity:1" />
  <path
     d="m 192.8122,592.6464 10.28196,-0.50594 53.20509,-26.89632 5.22259,0.34274 3.57421,-3.28043 -0.0816,-5.50004 22.26128,-10.28197 14.83541,1.41988 v 0 l 4.55344,5.95702 3.11722,9.28641 -3.75373,3.19885 2.98668,1.06083 -1.56679,0.79971 1.43622,6.10389 -1.72998,3.45997 2.10535,8.87838 v 0 l -6.31606,2.33385 0.65282,5.32051 -8.69887,2.57865 2.35016,5.58163 2.17064,0.60387 -10.47781,17.15293 2.12167,5.81013 -2.04007,6.34872 -3.16618,2.0727 -1.94216,-1.06084 -1.12611,12.58317 5.41842,16.32059 -9.22112,5.02674 1.35459,3.59052 5.56534,-1.95846 1.89317,5.82643 2.4481,-0.53857 0.83234,8.09501 -4.94512,6.90361 v 0 l -15.08023,-1.68103 -3.55789,10.20037 0.57123,5.87541 -1.81158,1.56677 -5.98965,-0.44066 -4.86356,3.39468 -7.40953,-3.68844 -3.68846,5.45107 -2.9377,-0.97923 -2.04007,-5.79381 -2.85609,2.17063 1.48517,3.08459 -5.64693,10.57573 -0.26113,10.10245 -3.03562,1.61574 2.21959,2.43177 -0.86498,5.98964 -6.5772,3.83535 3.73742,11.17959 -4.43921,1.27301 2.90506,10.39621 2.35017,0.26113 -0.21216,-3.60686 1.17507,2.6113 4.63505,0.16321 -0.0652,3.00298 5.12467,5.67957 0.21217,4.45551 -1.04451,2.82347 -3.54158,-0.63651 -1.17507,1.7463 -1.32198,-3.0193 -2.39911,4.53712 -2.59498,0.84867 v 0 l -4.43921,-11.84875 -8.20924,-7.05048 -5.67957,0.5549 -13.67664,-3.37837 -1.22405,4.89618 -2.546,-2.64393 -3.39469,1.41988 -0.52226,-3.11722 -5.63059,1.07716 -0.0653,-3.94959 1.09348,1.68102 5.28786,-1.38724 -4.25966,-0.37538 0.0326,-1.8279 2.02374,-0.0489 -0.24479,-3.94959 -2.66026,3.19884 -3.4926,-4.47184 0.58754,4.94513 -3.28044,0.91396 1.72998,-4.58609 -3.68846,1.20772 1.32198,-3.9659 -3.57422,0.21217 -3.45996,-2.66025 5.32051,-3.5579 -5.85909,0.21218 2.35017,-5.72852 -5.76116,-0.73444 3.01931,-0.73441 -2.44809,-3.23148 -4.74928,0.29376 4.25966,-4.58608 -3.28041,0.0489 0.42433,-3.18251 -5.141,1.3546 0.70179,-9.0416 -3.39469,-1.79527 0.1632,-2.28487 -5.04306,0.19583 -3.411,-4.04749 -2.82345,0.40801 -10.77159,-7.3769 -5.20627,-0.7997 -0.52226,-3.8843 -2.90505,0.53857 -9.93924,-7.55642 -1.59942,-10.70632 v 0 l 4.06383,3.14989 4.91249,-0.99557 0.76707,5.41845 6.64248,-5.22258 5.77748,1.32195 5.07571,-8.63359 -3.98222,-9.36801 v 0 l 1.07715,-4.97778 4.35759,3.0846 3.68846,-3.8027 v 0 l 4.86354,3.06827 1.94213,-0.65283 0.22849,-4.17806 6.65881,-0.47331 0.44066,-11.65288 5.22256,-5.56532 -0.39168,-33.00022 5.14098,-4.8309 1.74631,-9.69442 13.95409,0.63651 z m 47.99882,97.46652 3.78638,2.20328 v 0 l 0.76707,-3.7211 3.62317,-0.79971 1.14244,4.42288 2.59497,0.70178 1.95846,-10.29829 -1.25668,-1.94214 0.86499,-2.04007 4.21071,-0.91396 -1.87686,-11.00007 -5.67956,-7.34425 -4.09646,4.53712 v 0 l -7.05049,-5.72853 -2.23593,3.411 v 0 l 1.1914,8.47038 -1.64837,5.53268 3.99854,10.41253 z"
     class="land"
     title="Somogy"
     id="HU-SO"
     inkscape:connector-curvature="0"
     style="fill:#d8a395;fill-opacity:1;stroke:#ffffff;stroke-width:0.816029;stroke-opacity:1" />
  <path
     d="m 75.157128,375.04409 14.770126,5.1573 3.94958,10.57574 v 0 l -5.369471,9.30274 -3.313077,-1.71366 -10.592057,1.94215 -6.838324,3.63949 v 0 l -7.997084,-4.79825 -4.080145,1.25669 -0.84867,-2.17065 -8.600947,-3.3294 2.937705,-1.7463 0.620181,-5.09202 3.998542,3.45996 3.37836,-4.65135 6.41399,-1.95849 1.044516,-8.71519 z"
     class="land"
     title="Sopron"
     id="HU-SN"
     inkscape:connector-curvature="0"
     style="fill:#d8a395;fill-opacity:1;stroke:#ffffff;stroke-width:0.816029;stroke-opacity:1" />
  <path
     d="m 902.41473,231.12923 4.1128,0.22848 -3.5579,5.12465 3.93326,5.85909 7.71964,2.00743 -1.06085,5.61427 10.03717,19.63367 2.9377,-3.18252 4.70034,-0.44065 3.83532,2.23592 4.71666,-2.59497 6.0223,9.87395 5.72851,2.72554 -1.01187,4.24335 4.99408,7.50747 -1.41988,0.53857 0.45698,7.24634 11.79978,3.67213 9.72707,-6.21813 3.06828,0.0652 1.69734,2.35016 0.70177,-2.80714 4.19439,-0.0979 0.71811,3.44364 2.83978,-2.20328 1.7463,7.86652 3.50893,2.00743 0.99556,4.73297 1.92581,-0.58754 -2.31752,9.22113 -4.29231,4.81457 7.76861,4.48816 0.91401,3.68845 -7.91555,9.71075 -7.63803,3.80269 -5.14099,-0.27745 2.6929,10.85319 -9.33537,1.61574 -4.66768,10.29829 -10.31461,3.47627 -8.94368,-0.11423 -9.93924,-8.35613 -4.92882,1.51781 -2.70921,13.64399 -11.00007,-1.8279 -5.64692,-3.83534 -0.0652,5.23892 -7.70331,2.72552 -0.89764,6.91993 -4.48816,1.81159 -7.8502,21.23307 -6.67512,-0.86498 v 0 l -3.9006,-13.44817 -4.22705,-2.62762 -7.98077,10.85319 -2.61129,-4.99409 1.10982,-4.27599 -4.24336,-2.54601 0.75074,-5.97333 -9.02527,-6.31608 -5.35317,1.53415 -0.48962,5.7122 -7.80122,6.93625 -9.54754,-4.6677 0.71811,-3.52524 -7.76861,-0.50594 -1.97478,-5.35315 -9.95556,0.68547 -5.54899,-9.75972 -8.53567,-4.08014 3.29676,-21.11882 -1.37094,-6.26712 v 0 l 8.84578,3.96591 1.24035,3.29677 5.64691,1.06083 3.37837,4.6024 11.96298,-0.97922 3.44365,5.40209 2.87242,-0.89763 1.81158,-4.22702 -3.52525,-0.68546 0.21217,-9.44963 5.05939,2.6113 0.96292,-3.19883 3.60683,-0.3101 1.06085,-3.05194 -3.39468,-14.37844 -7.08313,0.29377 -0.3101,-2.20328 -2.66026,-0.27746 1.7463,-4.48815 -2.13798,-5.63059 -6.1039,0.7997 -4.32496,-3.08459 -5.46738,0.60386 -0.6202,2.44809 2.93772,3.18251 -2.41545,6.07127 -6.34871,0.8813 -4.86354,-1.86054 -7.44218,15.34134 v 0 l -3.70478,-1.43621 -3.10091,3.83535 -25.90075,1.06083 -7.21369,3.4926 -1.72999,-4.84722 -9.62914,-6.9852 -10.72262,-0.86499 v 0 l -6.3487,-9.5965 7.89915,-9.20481 4.92881,0.62018 0.60387,3.9659 7.23001,0.75074 0.71811,-3.5742 4.45552,-3.49261 1.72998,3.62317 4.42287,-0.13056 0.17953,2.05639 5.74484,1.72998 2.56233,-2.54601 7.88285,-0.0163 0.86498,-4.21072 3.45998,1.10981 0.14688,-4.08015 3.63948,-1.3546 -3.70476,-1.19142 -0.62019,-2.35015 2.56234,-0.55491 -5.30419,-6.88728 4.19438,-12.33835 4.09648,2.59497 1.35459,-3.01932 6.05494,1.01188 -0.58753,-2.15431 8.99264,-5.15731 5.14099,3.0193 7.86651,0.91397 8.20925,0.14688 0.53858,-2.57866 4.01487,-0.34273 -0.13057,2.8561 3.0193,-3.78637 1.90951,1.02819 2.51338,-2.51337 1.69733,-5.61427 1.77895,1.77894 0.65282,-2.23592 1.6647,4.04749 1.48518,-3.47626 6.59351,-1.30566 3.42731,1.4199 2.83979,-5.27155 1.07716,1.09347 3.67213,-4.29231 1.56678,0.65283 0.2448,-3.77006 4.3576,-3.9659 1.84423,-0.24481 -1.69735,3.13355 3.29675,-0.0489 -0.14688,-1.94215 2.95404,3.31309 1.12611,-1.5831 -1.77895,-1.92583 2.54602,1.51781 -0.0816,-2.26856 3.62317,0.44066 -1.40357,-3.75373 6.16918,-5.87542 -2.72554,-1.79526 2.88875,-0.0979 -0.78339,-4.08015 v 0 l 2.64393,-0.57122 -0.78338,-2.23592 3.05194,-1.30566 0.60387,-3.05194 6.95257,-3.37836 z"
     class="land"
     title="Szabolcs-Szatmár-Bereg"
     id="HU-SZ"
     inkscape:connector-curvature="0"
     style="fill:#d8a395;fill-opacity:1;stroke:#ffffff;stroke-width:0.816029;stroke-opacity:1" />
  <path
     d="m 598.62344,667.44362 10.55943,16.61435 8.37244,2.17064 -0.7997,3.50893 v 0 l 0.19585,13.85617 -13.236,-0.75075 1.63206,8.47039 8.71519,-0.21218 -2.12167,14.37845 -2.30121,1.15875 v 0 l -0.21217,-1.79526 -1.84422,1.15876 v 0 l -8.73152,-18.31169 -5.7938,2.44808 -3.18251,-0.96292 -3.34571,6.51193 v 0 l -4.06384,5.84277 -3.99853,-0.26114 -1.94217,-5.05938 v 0 l 6.41401,-3.10092 -2.48074,-7.29529 3.50894,-5.82645 -9.77604,-3.21515 -5.28787,-4.32495 7.39322,-6.85466 7.40956,2.72555 0.7997,-9.44961 13.05646,3.41099 1.59943,-4.25966 -3.91694,-2.90507 -0.17952,-6.29974 z"
     class="land"
     title="Szeged"
     id="HU-SD"
     inkscape:connector-curvature="0"
     style="fill:#d8a395;fill-opacity:1;stroke:#ffffff;stroke-width:0.816029;stroke-opacity:1" />
  <path
     d="m 343.90814,481.11156 1.24036,2.25223 v 0 l 4.86353,-0.3264 4.48817,5.05937 -2.54601,3.52525 3.1009,5.72851 -1.79525,4.61873 3.08458,-0.17953 3.01931,7.16474 -7.6054,2.21961 -5.56531,6.70775 -1.76263,-2.26856 -8.73149,3.36205 -0.50595,-9.51491 -2.74186,-1.4362 -6.5772,-11.70187 12.24043,-12.89325 0.7018,-4.276 v 0 l 2.93771,-1.50149 z"
     class="land"
     title="Székesfehérvár"
     id="HU-SF"
     inkscape:connector-curvature="0"
     style="fill:#d8a395;fill-opacity:1;stroke:#ffffff;stroke-width:0.816029;stroke-opacity:1" />
  <path
     d="m 585.35481,494.08642 8.99265,-9.44962 9.31903,5.95702 3.23149,-0.13057 2.83978,3.93326 -2.35016,1.94214 4.5208,-0.55489 -4.1128,10.44517 4.73297,2.3828 2.35017,6.77304 -5.98966,5.79381 -4.684,-0.0489 -5.23891,-5.05938 -7.27898,-0.48961 -2.31753,-2.5297 1.04453,-1.33829 -8.12765,-5.22259 v 0 l 5.45108,-6.56087 z"
     class="land"
     title="Szolnok"
     id="HU-SK"
     inkscape:connector-curvature="0"
     style="fill:#d8a395;fill-opacity:1;stroke:#ffffff;stroke-width:0.816029;stroke-opacity:1" />
  <path
     d="m 71.419715,483.73916 -0.326412,-1.90949 4.74929,-0.16323 5.189945,3.32941 3.770054,-2.44808 1.795264,5.2389 -3.786375,3.47629 1.893186,3.36203 -0.09792,10.91847 -5.565318,-3.00299 -5.402113,5.95701 -5.548997,-4.16175 -3.378361,-15.60247 -5.043058,-4.76561 3.084588,-1.15875 2.627614,2.05639 v 0 z"
     class="land"
     title="Szombathely"
     id="HU-SH"
     inkscape:connector-curvature="0"
     style="fill:#d8a395;fill-opacity:1;stroke:#ffffff;stroke-width:0.816029;stroke-opacity:1" />
  <path
     d="m 344.75681,432.44359 -1.94216,-4.17807 -7.32794,-4.56977 -0.70177,-3.81902 -2.20328,0.79971 -2.61129,-5.17362 3.93324,-7.06682 7.80125,-1.40356 7.3769,2.51336 6.31606,5.58164 0.40802,3.65582 v 0 l -6.00597,1.1098 1.04451,4.79824 -2.61129,0.48961 1.90951,3.01932 z"
     class="land"
     title="Tatabánya"
     id="HU-TB"
     inkscape:connector-curvature="0"
     style="fill:#d8a395;fill-opacity:1;stroke:#ffffff;stroke-width:0.816029;stroke-opacity:1" />
  <path
     d="m 309.29218,586.64042 5.74485,-1.17507 8.37247,-7.44219 1.32195,5.89173 7.40955,2.80714 2.3012,-2.80714 3.54156,4.4392 0.29378,-7.47483 2.21959,3.21516 0.62019,8.96 5.85908,1.46885 6.75673,-1.17508 -0.89764,-3.77006 7.31162,-4.0475 2.66026,5.20627 6.02229,2.67658 2.08904,11.86506 3.4926,0.42433 11.6529,-8.37247 -2.05641,-4.94513 4.42289,-3.41101 6.95256,-0.76707 0.16322,-3.88428 9.77603,-6.95257 2.04006,-3.57421 -2.31752,-2.15432 9.31905,-2.12168 v 0 l 0.26113,8.84577 6.87097,9.15585 4.56976,17.20189 -5.30418,8.09501 -12.38734,4.24334 -3.39467,5.27156 4.78193,9.9229 0.40802,9.1232 3.88429,9.23746 -0.0653,6.18549 -5.3042,11.2612 1.97479,13.44816 3.45998,5.84278 -1.61575,9.64545 -6.822,-1.69733 1.37094,6.47927 -7.70332,6.44664 1.9095,1.30562 5.41843,-3.77004 -0.34272,5.72852 -2.8561,0.97924 -3.26412,9.17216 -0.45698,-5.43475 -3.83533,2.36648 -0.13057,3.73741 5.90806,1.76263 -1.28934,3.52524 -2.02373,-0.91395 0.14686,2.30121 v 0 l -9.66177,0.35905 -8.27454,-4.94513 -1.15876,1.0282 -11.098,-13.36657 -3.16619,1.64838 -3.55787,-6.05494 1.1261,-2.15431 -6.26709,-1.87687 1.40356,-9.00896 -0.86499,-1.32196 -1.59942,1.61573 -2.38279,-4.17807 -4.24336,-2.17063 0.21218,6.47927 -2.08904,3.03562 -14.13362,7.89917 -1.28933,-2.48073 5.89172,-2.4481 2.8561,-7.86651 -0.91395,-2.44809 -5.74484,-0.65282 1.71367,-11.45705 -5.35316,-2.7745 -0.75075,-7.93179 -4.61872,-4.06383 -6.93624,3.28044 -6.00598,-1.37093 -6.13653,2.62761 2.30119,12.19147 -7.39323,4.83089 -2.54601,-1.63204 -2.8561,1.40355 0.14689,4.84723 2.38281,1.07716 -1.09349,1.53412 -3.16619,-4.14542 -3.70478,1.97479 -3.4273,-1.22405 v 0 l 4.94512,-6.9036 -0.83234,-8.11134 -2.4481,0.53858 -1.89317,-5.82644 -5.56534,1.95847 -1.35459,-3.60686 9.2048,-5.02673 -5.41844,-16.32058 1.14245,-12.58317 1.94216,1.06084 3.16618,-2.07272 2.04007,-6.33238 -2.12167,-5.82644 10.49414,-17.15294 -2.17064,-0.58755 -2.35017,-5.59795 8.69888,-2.56233 -0.65283,-5.32052 z"
     class="land"
     title="Tolna"
     id="HU-TO"
     inkscape:connector-curvature="0"
     style="fill:#d8a395;fill-opacity:1;stroke:#ffffff;stroke-width:0.816029;stroke-opacity:1" />
  <path
     d="m 78.943503,442.61129 4.667687,5.67957 5.369471,1.8279 10.10244,-6.83831 0.881306,1.45253 2.284903,-1.53415 0.91394,1.90953 5.64693,-3.05196 5.12465,7.58908 3.98223,-1.12613 4.87985,5.12467 3.16619,-4.53713 12.99118,-9.5965 2.46441,4.35759 -2.92139,10.05348 11.14696,-5.01042 2.8561,-4.45551 4.29233,1.22404 v 0 l 1.48517,5.53268 3.45997,3.11723 -2.88875,2.25225 3.70478,4.43919 11.914,7.32794 -10.16771,3.98222 -1.07717,5.61428 -2.51336,2.05639 1.82791,14.3458 -2.51337,13.70929 2.87243,13.49712 -4.01487,3.34571 -6.4956,-2.9377 -10.13509,2.83977 -0.3264,3.98223 v 0 l 0.0816,4.91249 -2.62762,-1.43622 -2.17064,1.59942 -0.48962,-3.7374 -5.09201,1.20772 2.04006,7.36058 -5.35315,8.53566 -8.25822,-0.40802 -3.78635,-2.69289 -7.11579,1.07717 -0.68546,-1.63206 -5.63061,6.02228 -3.002984,0.58755 -1.338287,4.86352 -13.595043,-2.52967 -5.124664,3.60684 -2.970345,-1.09347 -9.335371,14.86804 -9.629144,4.96146 -0.06529,6.33238 -2.089034,1.92583 -6.724079,4.24335 -5.646922,-2.69289 -5.646921,1.82791 -0.01632,2.33384 5.744845,-1.72999 0.375373,1.64837 -5.500035,9.825 v 0 l -1.876867,1.64838 -5.646922,-8.79679 1.583097,-4.66768 -2.627613,-0.68547 0.636503,-3.68846 3.639488,-1.55044 1.044518,-7.09946 -7.817559,-7.23002 -8.356137,-0.81603 -11.8977041,4.56977 -6.21814135,-3.003 9.53121945,-8.27453 2.643933,-6.93624 3.655812,0.73442 4.602404,-5.59796 3.10091,-0.0163 2.627613,-11.00007 1.436212,3.29675 5.810127,0.62018 1.207722,-3.05194 3.394682,2.48072 5.826446,-1.46884 2.741858,2.67657 2.399126,-0.39169 0.310091,-2.30121 5.206265,2.3665 4.080146,-1.5015 -6.691439,-6.33238 -2.741857,1.681 -1.321967,-1.48516 0.473297,-1.74631 11.52233,-4.22703 -7.001529,-3.47627 -1.566777,-4.39024 5.581639,-3.41101 0.212168,-2.97033 4.112787,-0.66915 -1.925829,-4.63504 -9.139526,1.22403 1.305647,-5.59796 -1.41989,-4.27599 -3.753734,0.66914 -1.827905,-4.42287 3.39468,-2.61128 -1.077158,-7.45852 5.304189,-0.19584 3.247796,-5.97334 -3.753735,-11.86506 -4.406555,-3.77006 2.758177,-0.91395 1.403571,-5.46739 -2.23592,-5.56532 5.761165,0.24481 1.713661,3.70477 2.023752,-4.24335 9.188487,0.76707 2.137996,-3.75373 z m -13.562403,42.254 v 0 l -2.627614,-2.05639 -3.084588,1.17509 5.043058,4.7656 3.394682,15.60247 5.548997,4.16176 5.385792,-5.95702 5.565318,3.00299 0.09793,-10.90216 -1.893186,-3.37836 3.802696,-3.47628 -1.795264,-5.23891 -3.786375,2.4481 -5.189945,-3.32941 -4.74929,0.17953 0.326412,1.9095 z"
     class="land"
     title="Vas"
     id="HU-VA"
     inkscape:connector-curvature="0"
     style="fill:#d8a395;fill-opacity:1;stroke:#ffffff;stroke-width:0.816029;stroke-opacity:1" />
  <path
     d="m 156.76004,445.66325 3.0846,-2.57865 3.65579,2.75817 1.3383,-1.5831 5.33683,1.8932 14.67219,-2.82347 3.03563,-8.86206 5.05937,1.28932 2.97036,-2.38281 14.18258,4.70032 4.66769,-4.42286 5.33683,6.69143 2.35017,-1.84423 3.03562,2.87242 4.9125,-4.39023 4.1291,0.17953 0.3101,4.68401 3.83534,-0.7018 -0.47332,-4.42286 4.06384,3.7374 6.12021,-7.57275 2.17064,3.85166 3.05195,-4.06381 5.89173,7.6217 v 0 l 4.34128,6.83832 -3.42733,7.06682 10.5431,3.18252 -0.0653,2.44807 -2.62761,0.9466 4.14542,2.77449 0.35905,3.39469 11.00008,-0.13056 v 0 l 1.17508,2.72553 3.14987,0.4733 -2.70923,3.23147 1.45255,5.90805 2.61129,-0.66914 4.66769,6.83833 7.47483,-3.54157 2.56232,5.59796 7.18106,5.12465 -1.76263,12.74638 3.26412,13.3176 -4.48816,3.55788 4.66768,12.15884 3.85167,0.47329 -3.86798,1.15876 -10.86951,12.04459 v 0 l -14.8354,-1.41988 -22.26129,10.28196 0.0816,5.50003 -3.5742,3.28044 -5.22259,-0.34273 -53.20508,26.89632 -10.28197,0.52225 v 0 l -8.78048,-9.10688 -5.17362,-8.79679 2.17064,-4.76561 -3.11724,-3.55789 0.44067,-4.35759 -5.61428,-5.67957 -3.98223,1.09348 -4.19438,-1.92584 3.52524,-7.57273 -3.96591,-7.03419 -2.79081,-2.44807 -3.24778,1.72997 -4.60242,-1.15875 -11.58761,-10.24933 v 0 l 0.32642,-3.98222 10.13507,-2.83979 6.4956,2.93772 4.01486,-3.34574 -2.87242,-13.49711 2.51338,-13.70928 -1.82791,-14.32946 2.51335,-2.05641 1.07715,-5.61428 10.18405,-3.98222 -11.914,-7.32793 -3.68846,-4.4392 2.88875,-2.25225 -3.45998,-3.11723 z m 103.35823,87.90265 5.36947,-0.45697 v 0 l 2.62762,-6.05494 v 0 l 6.16917,-0.19584 2.04008,-8.0787 v 0 l -0.84867,-1.72997 v 0 l 1.38725,-1.68103 -6.91992,-11.84874 -5.74485,-5.41842 v 0 l -3.39469,-1.02821 -5.17363,5.9407 -4.89616,0.42433 5.92436,4.3576 0.81604,5.71219 -6.03861,6.38136 8.38877,8.89471 z"
     class="land"
     title="Veszprém"
     id="HU-VE"
     inkscape:connector-curvature="0"
     style="fill:#d8a395;fill-opacity:1;stroke:#ffffff;stroke-width:0.816029;stroke-opacity:1" />
  <path
     d="m 268.0664,501.3654 7.96444,11.96299 -0.58754,3.7374 v 0 l 0.84867,1.71366 v 0 l -2.36649,8.45407 -5.82645,-0.16322 v 0 l -2.62761,6.05494 v 0 l -4.3739,1.12613 -1.30566,-5.43477 v 0 l -8.4051,-8.91103 6.03862,-6.38134 -0.79971,-5.71222 -5.92437,-4.3739 4.9125,-0.42433 5.1573,-5.9407 3.39468,1.04451 v 0 z"
     class="land"
     title="Veszprém"
     id="HU-VM"
     inkscape:connector-curvature="0"
     style="fill:#d8a395;fill-opacity:1;stroke:#ffffff;stroke-width:0.816029;stroke-opacity:1" />
  <path
     d="m 141.87567,528.78397 11.58761,10.24933 4.61873,1.15875 3.24779,-1.71366 2.79082,2.44809 3.96589,7.03417 -3.52524,7.57275 4.19439,1.94214 3.98222,-1.09347 5.61429,5.67955 -0.44066,4.3576 3.11723,3.55789 -2.17064,4.76562 5.17362,8.79679 8.78048,9.10688 v 0 l -8.16028,4.12911 -13.93779,-0.63651 -1.72999,9.69443 -5.14097,4.8309 0.39168,33.0002 -5.22258,5.56532 -0.44064,11.6529 -6.65881,0.4733 -0.22849,4.17807 -1.94213,0.65282 -4.86354,-3.06827 v 0 l -0.40801,-3.55787 -2.31753,-1.02821 0.65282,-3.9659 -5.14099,-4.22704 0.22849,-11.40808 -3.24779,-0.91395 -4.84721,4.58608 -1.20773,-1.8279 -1.89319,0.75074 0.32641,8.29086 -4.39023,-0.34273 -4.43919,23.90964 3.99854,5.82645 1.79526,-1.56677 5.40212,1.1914 0.53858,-5.76117 5.85908,-4.25966 v 0 l 3.98223,9.36801 -5.07571,8.63359 -5.77749,-1.32198 -6.64247,5.22259 -0.76706,-5.41842 -4.89618,0.99555 -4.06383,-3.14987 v 0 l -1.15876,-5.84277 -2.08902,-0.16322 -2.25225,-4.29231 -1.50149,1.55046 -4.61874,-4.06382 -5.026733,1.40357 -4.014864,-4.47184 -2.056392,1.72999 -6.870965,-11.8814 -2.137995,0.63651 0.979234,-2.77449 -5.908051,-2.15432 -4.096466,0.84866 -2.807139,-4.01487 -8.127649,-4.34126 1.370928,-5.84277 -1.99111,-0.88132 -0.962915,-5.35315 -4.178068,-1.33828 -5.630601,-9.31905 -3.508926,-0.81604 -5.287867,-6.69143 0.979235,-4.08016 3.949581,1.15879 1.485171,-7.76861 -8.095007,-1.24037 -0.718105,-4.56976 v 0 l 5.483715,-9.85762 -0.375373,-1.64838 -5.744845,1.72997 0.01632,-2.33385 5.663242,-1.82789 5.646921,2.70922 6.72408,-4.24336 2.089034,-1.92582 0.06529,-6.33239 9.629142,-4.96146 9.335372,-14.86805 2.970345,1.09348 5.124664,-3.60685 13.595044,2.5297 1.338287,-4.86353 3.002986,-0.58755 5.63061,-6.02229 0.68546,1.63205 7.11579,-1.07715 3.78635,2.6929 8.25822,0.40801 5.36947,-8.53567 -2.04007,-7.36059 5.0757,-1.19139 0.42434,3.72109 2.18696,-1.59941 2.64394,1.4362 z m -41.82964,34.06105 v 0 l -1.599433,7.45851 2.023743,1.89319 -1.028181,6.20182 2.660261,4.01485 -2.70923,4.32495 2.7745,3.6395 3.70477,-2.6276 11.5713,-0.89764 0.48962,-10.77159 -2.79082,-4.50448 0.75074,-2.44809 -4.9288,-2.57865 -1.41991,-3.47628 v 0 l -3.86797,-0.42434 v 0 l -2.12169,1.09349 z"
     class="land"
     title="Zala"
     id="HU-ZA"
     inkscape:connector-curvature="0"
     style="fill:#d8a395;fill-opacity:1;stroke:#ffffff;stroke-width:0.816029;stroke-opacity:1" />
  <path
     d="m 107.24339,563.33464 2.26856,-0.27745 v 0 l 1.41989,3.47628 4.92883,2.57865 -0.75076,2.44809 2.80715,4.50449 -0.48962,10.77158 -11.57129,0.89763 -3.70477,2.6276 -2.75819,-3.63948 2.70923,-4.32495 -2.676597,-4.01487 1.044517,-6.20182 -2.023743,-1.89319 1.599433,-7.44218 v 0 l 3.47627,0.88131 v 0 l 2.12168,-1.09347 v 0 z"
     class="land"
     title="Zalaegerszeg"
     id="HU-ZE"
     inkscape:connector-curvature="0"
     style="fill:#d8a395;fill-opacity:1;stroke:#ffffff;stroke-width:0.816029;stroke-opacity:1" />
  <g
     id="stadiums"
     data-country="hungary"
     data-circle-radius="6"
     data-circle-colors="#a149be,#bea149"
     transform="matrix(1.6320581,0,0,1.6320581,-1.4709392,-2.1653899)" />
</svg>
