<?xml version="1.0" encoding="UTF-8" standalone="no"?>
<?xml-stylesheet type="text/css" href="/styles/home.css"?><!-- https://www.amcharts.com/svg-maps -->

<svg
   version="1.1"
   id="map-israel"
   viewBox="0 0 1000 1000"
   width="1000"
   height="1000"
   class=""
   sodipodi:docname="israel.svg"
   inkscape:version="1.3.1 (91b66b0783, 2023-11-16)"
   xmlns:inkscape="http://www.inkscape.org/namespaces/inkscape"
   xmlns:sodipodi="http://sodipodi.sourceforge.net/DTD/sodipodi-0.dtd"
   xmlns="http://www.w3.org/2000/svg"
   xmlns:svg="http://www.w3.org/2000/svg"
   xmlns:rdf="http://www.w3.org/1999/02/22-rdf-syntax-ns#"
   xmlns:cc="http://creativecommons.org/ns#"
   xmlns:dc="http://purl.org/dc/elements/1.1/">
  <metadata
     id="metadata17">
    <rdf:RDF>
      <cc:Work
         rdf:about="">
        <dc:format>image/svg+xml</dc:format>
        <dc:type
           rdf:resource="http://purl.org/dc/dcmitype/StillImage" />
        <dc:title />
      </cc:Work>
    </rdf:RDF>
  </metadata>
  <sodipodi:namedview
     pagecolor="#ffffff"
     bordercolor="#666666"
     borderopacity="1"
     objecttolerance="10"
     gridtolerance="10"
     guidetolerance="10"
     inkscape:pageopacity="0"
     inkscape:pageshadow="2"
     inkscape:window-width="1920"
     inkscape:window-height="1106"
     id="namedview15"
     showgrid="false"
     showguides="true"
     inkscape:guide-bbox="true"
     inkscape:zoom="1.1909439"
     inkscape:cx="553.3426"
     inkscape:cy="125.53068"
     inkscape:window-x="-11"
     inkscape:window-y="-11"
     inkscape:window-maximized="1"
     inkscape:current-layer="map-israel"
     inkscape:showpageshadow="2"
     inkscape:pagecheckerboard="0"
     inkscape:deskcolor="#d1d1d1">
    <sodipodi:guide
       position="500,913.82045"
       orientation="1,0"
       id="guide824"
       inkscape:locked="false"
       inkscape:label=""
       inkscape:color="rgb(0,0,255)" />
    <sodipodi:guide
       position="314.87629,440.98963"
       orientation="1,0"
       id="guide1"
       inkscape:locked="false" />
  </sodipodi:namedview>
  <defs
     id="defs4">
    <style
       id="style2"
       type="text/css">
			.land
			{
				fill: #d5b6b9;
				fill-opacity: 1;
				stroke:white;
				stroke-opacity: 1;
				stroke-width:0.5;
			}
         .rectangle:hover {
         fill: #bdbdbd;
         cursor: pointer;
         }
		</style>
    <!-- <amcharts:ammap projection="mercator" leftLongitude="34.228663" topLatitude="33.434207" rightLongitude="35.935383" bottomLatitude="29.496687"></amcharts:ammap> -->
    <!-- All areas are listed in the line below. You can use this list in your script. -->
    <!--{id:"IL-GH"},{id:"IL-Z"},{id:"IL-HA"},{id:"IL-M"},{id:"IL-TA"},{id:"IL-D"},{id:"IL-JM"},{id:"PS"}-->
  </defs>
  <path
     id="IL-GH"
     title="Golan Heights"
     class="land"
     d="m 681.20348,141.21032 -7.12961,13.89326 -3.53325,3.78563 -5.33774,9.57766 -6.78891,7.88673 -0.20189,-0.85808 -1.37544,-0.78236 -4.74467,1.9559 -2.25876,0.27762 -1.0852,0.92117 -1.72878,5.41345 -4.95918,0.68142 -6.587,5.61536 -3.70992,1.66567 -5.38822,0.37856 -2.59946,1.6783 v 0 l -0.73189,-2.29662 -5.74153,-3.00326 4.18942,-4.69418 2.43543,-5.09799 1.05996,-13.88066 1.9433,-9.70383 -0.59309,-4.10111 -3.77302,-7.98767 -2.82659,-3.6216 -1.62782,0.70665 -1.45116,-1.65305 1.76663,-6.33461 0.95902,-13.22448 -0.36594,-5.96868 -2.51113,-4.71943 -0.0757,-1.2114 3.57111,-3.57111 3.26826,-5.476548 2.33447,-0.706651 0.63094,0.731889 0.66879,-12.366396 4.05063,-11.798553 -1.42593,-9.691217 0.15143,-5.64059 2.92757,-8.366247 -1.45117,-1.400684 -2.73827,-0.365944 -5.7794,2.107335 -1.6152,-0.391182 -1.81711,-1.703534 v 0 l 1.84234,-3.39445 12.95949,-6.952944 7.28103,-8.959328 1.35021,-0.529988 5.46392,0.466895 3.30612,-0.567845 4.36609,-1.817104 5.31251,-5.034889 1.69091,-8.643859 1.86758,-2.9780315 15.28134,-9.04765885 1.12307,0.87069515 0.30285,1.8549595 -0.78237,3.3061184 -2.27138,3.7603933 -4.32823,4.933942 -1.85497,4.82037 -0.6688,4.681564 1.04737,10.511438 -0.3281,1.766627 -2.49851,4.265146 6.23367,6.650092 2.18306,6.511287 -0.15143,5.097983 -0.82023,2.107335 -2.63732,3.50802 0.41643,2.801367 6.43557,1.728772 4.59323,6.637474 -0.51736,6.77628 -3.48279,3.078981 -0.40381,1.072596 0.49214,1.413302 2.46067,2.788748 -0.0631,1.74139 -3.60896,0.984265 -4.32824,-1.148308 -1.43854,2.094716 1.09783,4.517516 -0.64355,8.126495 1.13568,3.6973 1.86758,17.17415 4.53015,7.05389 0.0126,1.42593 z"
     inkscape:connector-curvature="0"
     style="fill:#d5b6b9;fill-opacity:1;stroke:#ffffff;stroke-width:0.63093865;stroke-opacity:1" />
  <path
     id="IL-Z"
     title="HaẔafon"
     class="land"
     d="m 579.13023,264.54621 -1.43854,-1.2745 0.0631,-1.29975 -1.53949,-1.99376 -1.26187,-3.70992 0.26499,-5.12322 -0.68143,-5.50179 -3.53325,-5.98129 -3.52063,-2.62471 -6.01915,-0.53 -13.17401,1.94331 -5.14846,-2.14519 -3.33135,-2.44806 -3.88658,-4.02537 -3.00328,-1.64045 -3.26825,0.89593 v 0 l -1.2114,1.37545 v 0 l -1.69092,-2.51113 -3.25563,-1.50164 -1.64046,-3.06636 -1.38806,-0.92116 -1.26187,0.49212 -1.57735,2.57424 -3.01589,1.70352 -0.84546,2.64995 -1.40068,0.42902 -2.34709,3.4197 -1.93068,0.49214 -3.57111,-1.13569 -4.29038,-0.29023 -1.32498,-2.20829 h -2.18303 l -0.65618,-1.70354 -1.99377,-0.93378 -0.42904,-1.36285 0.78237,-3.9118 -1.7414,-1.14831 -0.5426,-1.2114 -2.05685,-0.71927 -0.36596,-3.4954 -1.8802,-1.64045 -0.17665,-0.99688 1.33758,-0.99687 4.34086,0.85806 1.33759,-0.29022 -0.30285,-1.64044 -3.26826,-0.85807 -0.71928,-0.99689 0.11358,-2.57424 1.45115,-2.14519 2.29663,-0.49211 4.71941,1.56471 3.62159,-6.35986 4.40395,-2.71303 0.30286,-2.34709 -2.10734,-2.64995 0.41642,-3.4323 1.08521,-0.64356 2.11995,2.64994 2.17043,-1.85496 0.55524,-1.79187 -0.49214,-1.85496 2.66256,-2.64994 -0.97165,-4.13896 3.20517,-5.08536 0.5426,-2.86445 -0.4795,-2.3471 -2.72566,-5.65321 0.6057,-5.86773 -1.38807,-1.00949 -4.05062,-1.21142 -4.1642,-2.94017 0.78238,-4.85823 -2.47329,-2.2209 -1.07259,-2.96541 0.64355,-4.70681 -0.87069,-2.56161 -1.51426,0.21452 v 0 l -0.90854,-0.98426 -0.71927,-0.0631 -0.23976,0.78237 -0.97165,-0.0757 v -0.56784 l 0.97165,-2.57424 2.35971,-14.83967 1.26187,-2.86447 0.18928,-3.73515 2.83922,-9.464076 0.95904,-6.675335 -0.17666,-3.457543 16.55582,-0.71927 7.71008,1.33759 2.00637,-1.678297 2.51115,-0.820221 8.05077,-0.264994 8.37886,-1.173545 4.303,1.02212 3.65945,6.952944 2.04423,2.34709 3.28089,1.943291 1.26188,0.365948 5.52702,-2.460664 5.96868,-0.479513 1.57735,-0.832838 6.56174,-6.347242 4.78253,0.82022 3.67206,-1.388066 1.29974,-4.971796 4.13895,-1.754008 1.08522,-2.58685 0.44166,-5.65321 1.36282,-6.271529 2.47329,-5.312503 -0.85808,-8.694334 1.85496,-4.227288 3.30611,-3.747776 2.08211,-4.593233 0.51737,-0.542608 1.52686,1.24926 5.14847,7.344124 0.84545,0.264995 0.79498,-0.769745 v 0 l 1.81711,1.703534 1.6152,0.391182 5.7794,-2.107335 2.73827,0.365944 1.45117,1.400684 -2.92757,8.366247 -0.15143,5.64059 1.42593,9.691217 -4.05063,11.798553 -0.66879,12.366396 -0.63094,-0.731889 -2.33447,0.706651 -3.26826,5.476548 -3.57111,3.57111 0.0757,1.2114 2.51113,4.71943 0.36594,5.96868 -0.95902,13.22448 -1.76663,6.33461 1.45116,1.65305 1.62782,-0.70665 2.82659,3.6216 3.77302,7.98767 0.59309,4.10111 -1.9433,9.70383 -1.05996,13.88066 -2.43543,5.09799 -4.18942,4.69418 5.74153,3.00326 0.73189,2.29662 v 0 l -6.13273,2.67517 -1.4133,1.61522 0.4038,3.62159 -2.46065,0.97164 0.10094,1.56473 -0.52998,0.61831 -1.91806,0.5426 -3.14208,2.38496 0.0757,7.25578 0.49212,1.18617 1.61522,0.88332 0.42903,1.60257 -1.03474,2.39759 -0.15143,2.41018 2.23354,4.63108 -0.21452,0.52999 -2.17045,-0.0253 -0.39118,2.42281 -2.72565,-0.60571 0.1388,1.52688 1.46379,2.37233 -0.47951,0.8076 -2.19567,0.46689 -1.16094,1.62783 1.03475,0.78236 1.40068,-0.0379 1.38807,3.16731 2.04425,1.3502 -3.14208,7.44508 0.3407,1.16094 1.80449,0.88331 0.44166,0.85807 -0.5426,1.26188 -1.79189,0.70665 0.52999,3.39446 -2.54898,0.79498 0.63094,5.80463 -0.37856,0.94641 -1.85497,0.89593 2.08211,3.50802 -1.77925,-0.17666 v 0 l -5.04751,-1.45116 -9.13599,-3.82349 -4.94656,-0.21452 -3.25564,0.94641 z"
     inkscape:connector-curvature="0"
     style="fill:#d5b6b9;fill-opacity:1;stroke:#ffffff;stroke-width:0.63093865;stroke-opacity:1" />
  <path
     id="IL-HA"
     title="H̱efa"
     class="land"
     d="m 453.37156,264.55881 0.71926,-1.57734 -0.59308,-0.1388 1.14831,-1.64045 2.10733,-10.6881 -0.47951,-1.27449 -2.66257,-0.36595 2.35972,-0.0631 0.30285,-0.71928 0.30285,0.71928 h 0.71927 l -0.54261,-0.35333 0.12619,-1.42592 0.78236,-0.0757 0.60571,-2.14519 -0.54262,-1.2114 0.78237,-1.91805 -0.12619,-1.56473 1.14831,-2.14518 -0.65617,-0.42905 1.754,-4.78251 -0.60569,-1.91807 1.56472,-2.06946 -0.78236,-0.9969 2.17043,-6.06961 -0.54261,-1.42594 1.08521,-3.49538 0.49214,-6.28415 1.50163,-5.13585 -0.11357,-2.92755 0.60569,-0.79499 0.78238,-8.99717 -0.36594,-1.21141 1.03473,-2.78875 1.32498,-0.42903 1.02211,-1.71616 1.2114,-6.00654 1.62783,-16.36654 -0.35333,-1.43854 0.65617,-0.0757 -0.35332,-4.78251 2.23352,-1.57734 1.45117,-0.0757 2.41018,-1.36282 1.33759,1.36282 2.88969,1.36284 3.20518,-0.36595 -1.56473,0.71927 -3.98753,-1.07259 2.77613,2.72565 0.23974,-0.85807 0.66882,0.64355 -0.1893,-1.00951 0.42904,-0.0631 1.32498,2.78875 1.754,-0.29024 0.0631,-0.56783 0.95903,0.64356 0.18928,1.13567 1.2114,-0.35332 -0.84547,-1.28712 -0.84545,-0.13879 4.34085,-2.72567 5.32514,-9.30003 2.34708,-9.74169 0.0631,-3.1547 -0.60572,-1.23664 v 0 l 1.51426,-0.21452 0.87069,2.56161 -0.64355,4.70681 1.07259,2.96541 2.47329,2.2209 -0.78238,4.85823 4.1642,2.94017 4.05062,1.21142 1.38807,1.00949 -0.6057,5.86773 2.72566,5.65321 0.4795,2.3471 -0.5426,2.86445 -3.20517,5.08536 0.97165,4.13896 -2.66256,2.64994 0.49214,1.85496 -0.55524,1.79187 -2.17043,1.85496 -2.11995,-2.64994 -1.08521,0.64356 -0.41642,3.4323 2.10734,2.64995 -0.30286,2.34709 -4.40395,2.71303 -3.62159,6.35986 -4.71941,-1.56471 -2.29663,0.49211 -1.45115,2.14519 -0.11358,2.57424 0.71928,0.99689 3.26826,0.85807 0.30285,1.64044 -1.33759,0.29022 -4.34086,-0.85806 -1.33758,0.99687 0.17665,0.99688 1.8802,1.64045 0.36596,3.4954 2.05685,0.71927 0.5426,1.2114 1.7414,1.14831 -0.78237,3.9118 0.42904,1.36285 1.99377,0.93378 0.65618,1.70354 h 2.18303 l 1.32498,2.20829 4.29038,0.29023 3.57111,1.13569 1.93068,-0.49214 2.34709,-3.4197 1.40068,-0.42902 0.84546,-2.64995 3.01589,-1.70352 1.57735,-2.57424 1.26187,-0.49212 1.38806,0.92116 1.64046,3.06636 3.25563,1.50164 1.69092,2.51113 v 0 l -2.77614,3.14208 v 0 l -0.75712,1.56472 -2.61209,2.52375 -4.27776,3.11684 -5.42607,2.76353 -8.74482,3.3061 -1.65306,1.24926 v 0 l -2.019,3.78563 v 0 l -1.98115,10.14549 -1.8928,5.24942 v 0 l -0.44166,3.19254 v 0 l -8.61863,1.85495 -0.97164,-0.21451 -1.51426,-1.99376 -1.50162,-0.85808 -1.88021,-2.77612 -1.62782,-0.78236 h -5.19893 l -6.63748,-0.9969 -6.28415,1.35022 -3.44491,-1.28712 z"
     inkscape:connector-curvature="0"
     style="fill:#d5b6b9;fill-opacity:1;stroke:#ffffff;stroke-width:0.63093865;stroke-opacity:1" />
  <path
     id="IL-M"
     title="HaMerkaz"
     class="land"
     d="m 410.89676,401.35892 3.86135,-11.15499 3.57111,-5.59012 1.56473,-3.8361 4.17681,-13.14876 v 0 l 4.25252,1.3502 3.87397,-0.063 1.86759,1.05996 h 4.89607 l 1.81711,-0.50473 4.40395,-4.95918 1.45116,-0.84547 2.29661,0.49213 1.08521,1.84235 0.84546,0.35333 2.11995,-1.3376 3.5585,-0.15143 0.84545,-0.84545 -0.23974,-1.98114 -3.31875,-1.99378 -1.45115,-7.79839 -2.96542,-2.34709 -0.89592,-1.98115 0.84544,-6.46082 1.86759,-2.27137 2.11995,-4.26514 -0.55522,-3.8992 0.55522,-4.69419 -0.36595,-0.84546 -5.31249,-4.12634 -7.94983,-1.26188 v 0 l 4.59324,-15.26871 1.51425,-7.81102 1.26187,-4.06325 0.42904,0.0757 1.19877,-7.25578 -0.35331,-0.85808 0.84545,-0.64357 2.04424,-9.32527 -0.0505,-2.5616 0.84547,-1.05997 0.35332,-3.28089 -0.41641,-0.27761 1.38807,-3.20517 v 0 l 4.80775,0.23976 3.44491,1.28712 6.28415,-1.35022 6.63748,0.9969 h 5.19893 l 1.62782,0.78236 1.88021,2.77612 1.50162,0.85808 1.51426,1.99376 0.97164,0.21451 8.61863,-1.85495 v 0 l -0.45428,3.30612 v 0 l -1.51425,1.4764 -5.65321,2.53638 -3.76039,6.17057 -0.23976,6.90247 1.02212,7.33151 -0.71927,1.8928 v 0 l -1.84234,1.31236 v 0 l -2.99065,4.32825 -3.92445,8.89622 -0.37856,2.99066 0.10094,2.96541 4.13897,6.90247 1.65307,7.29365 0.26499,3.28087 -2.46067,6.01916 v 0 l -0.25237,2.03163 v 0 l 0.68142,1.70354 2.27138,2.4228 v 0 l 2.49851,4.75727 v 0 l 0.71927,2.94017 -0.50475,3.77301 -1.7414,3.79826 0.46691,3.09159 -0.95903,0.78237 0.94641,2.52377 -2.97804,6.35985 0.52999,5.77939 3.33136,4.49228 4.97179,3.9623 1.04737,4.08847 -1.91806,5.95607 -10.86478,1.9433 v 0 l -0.18926,0.29023 v 0 l -10.91524,-0.44166 -1.60258,1.24926 -1.95592,5.62797 -2.30923,1.45116 -10.49882,2.71304 -4.44181,4.36609 -0.95903,2.47329 v 0 l -1.16091,0.49212 -4.71943,5.80464 -2.05687,0.84545 -1.93066,-2.19565 -1.56473,-4.88348 -1.51424,-2.61207 -5.4387,-3.25567 -2.05686,2.05687 -3.98753,0.0631 0.18927,0.70666 1.69092,0.70665 1.69092,3.04111 -0.54261,0.64357 -2.35971,-0.13881 -0.063,1.62782 -0.6057,0.63093 -2.53638,0.27763 -1.32497,-1.05999 -3.74777,-0.49213 -1.02213,-0.78237 -0.30284,-1.47638 4.16418,-3.47018 -0.95902,-1.98114 -2.24614,-1.19879 -0.54261,-2.27139 1.38807,-1.55209 3.68468,0.84545 1.754,-0.56784 0.49213,-4.53014 -0.42903,-1.90543 1.99376,-3.19256 -1.21139,-1.12307 -2.10734,0.76976 -1.51425,-0.13881 -1.32497,-1.62783 z"
     inkscape:connector-curvature="0"
     style="fill:#d5b6b9;fill-opacity:1;stroke:#ffffff;stroke-width:0.63093865;stroke-opacity:1" />
  <path
     id="IL-TA"
     title="Tel-Aviv"
     class="land"
     d="m 424.07076,367.62895 2.83922,-10.38526 0.71927,-0.56784 -0.23975,-0.84546 1.62783,-1.07259 1.40068,-2.83923 1.62781,-5.38821 -0.30284,-1.56474 0.71926,-0.2776 0.90857,-2.2083 -0.23978,-0.98425 0.54262,0.35333 1.8171,-5.40085 1.32497,-6.46081 0.6688,-0.35333 -0.36595,-2.48589 0.71928,-0.29023 1.88019,-6.76367 v 0 l 7.94983,1.26188 5.31249,4.12634 0.36595,0.84546 -0.55522,4.69419 0.55522,3.8992 -2.11995,4.26514 -1.86759,2.27137 -0.84544,6.46082 0.89592,1.98115 2.96542,2.34709 1.45115,7.79839 3.31875,1.99378 0.23974,1.98114 -0.84545,0.84545 -3.5585,0.15143 -2.11995,1.3376 -0.84546,-0.35333 -1.08521,-1.84235 -2.29661,-0.49213 -1.45116,0.84547 -4.40395,4.95918 -1.81711,0.50473 h -4.89607 l -1.86759,-1.05996 -3.87397,0.063 z"
     inkscape:connector-curvature="0"
     style="fill:#d5b6b9;fill-opacity:1;stroke:#ffffff;stroke-width:0.63093865;stroke-opacity:1" />
  <path
     id="IL-D"
     title="HaDarom"
     class="land"
     d="m 585.94437,504.0631 -0.0883,12.98471 -0.76975,5.098 -3.58373,10.2212 -13.07304,24.00091 -1.12309,5.09798 2.4859,5.40084 9.70384,13.06043 1.72877,3.70991 1.08524,5.27465 0.22712,3.94967 -2.81398,11.10452 -8.32839,12.83329 -0.88331,5.14846 0.51735,4.11373 1.77926,4.92131 -0.0126,5.19894 -3.77302,3.47016 -8.17696,5.36297 -5.80463,12.82068 -0.0757,4.56799 1.09784,4.15158 -1.11046,5.08536 -4.16419,1.50165 -3.24302,3.92443 -1.91807,5.24941 -0.0253,10.27168 -3.06637,7.15484 -5.33773,9.74169 -1.14832,5.59012 -3.2304,3.00328 -6.42297,12.39162 -5.43867,26.9537 -1.50164,4.49229 -3.00328,4.31562 -0.85807,3.39445 7.52078,14.14564 1.14832,3.91181 -0.69403,2.99065 -4.833,5.35036 -1.38805,4.31563 0.7445,4.99703 -4.13896,9.18647 6.81414,30.14624 -16.83344,24.15233 -4.53013,17.99438 0.6814,19.53385 -6.41033,12.82067 -0.97165,4.69419 0.63094,3.72254 -0.63094,5.03488 -3.70992,15.43276 0.63094,18.51174 -2.85184,3.4954 -3.88659,2.85185 -3.30611,3.8361 -4.45443,10.63762 -2.3597,-0.63093 -0.90855,2.14518 -1.21141,0.55523 -0.95904,2.42281 -2.96541,2.96541 v 1.03474 l -1.75399,2.4228 -1.86758,1.51428 -5.48917,-6.35988 -2.86447,-5.41347 -1.03474,-4.16419 -0.87069,-7.25578 2.04424,-6.7889 1.02213,-6.80152 -0.98427,-4.68157 -3.89921,-6.80152 0.15143,-12.00046 -22.2469,-62.45031 0.44167,-3.773 -25.78015,-72.45699 -4.42919,-16.65678 -15.18039,-9.93097 -0.55523,-7.71008 4.5049,-12.69447 -9.43883,-11.06667 0.63093,-13.7166 -6.29676,-26.19657 -19.15531,-40.24126 -12.41686,-36.3547 -17.94389,-59.5606 v 0 l 9.79216,-7.34411 v 0 l 9.6786,-8.35364 v 0 l 2.39757,-4.40395 -0.59308,-14.13303 v 0 l 1.90543,-6.35986 v 0 l 7.24317,-9.31265 v 0 l 21.83048,-21.14906 6.33463,-1.51426 v 0 l 1.93067,-3.41968 -0.0253,-4.88347 -2.96541,-4.37871 v 0 l -9.45146,-8.83313 5.2494,-8.54291 1.33759,-1.1988 -0.55522,-1.12307 0.73189,-0.85807 -0.54261,0.92117 0.90855,0.29024 3.74778,-7.00342 1.99377,-2.11996 1.43853,-3.10422 0.66881,0.0757 7.00341,-12.08879 10.63762,-21.99453 -1.02212,-1.91804 0.65618,-2.47328 -0.41642,2.6878 1.2745,1.35021 -0.49214,-0.70664 0.1893,-2.48591 2.17041,0.29023 0.6057,-0.84546 -0.18927,-2.62469 0.90854,-0.27763 3.20517,-7.54602 v 0 l 3.3566,-1.05998 1.32497,1.62783 1.51425,0.13881 2.10734,-0.76976 1.21139,1.12307 -1.99376,3.19256 0.42903,1.90543 -0.49213,4.53014 -1.754,0.56784 -3.68468,-0.84545 -1.38807,1.55209 0.54261,2.27139 2.24614,1.19879 0.95902,1.98114 -4.16418,3.47018 0.30284,1.47638 1.02213,0.78237 3.74777,0.49213 1.32497,1.05999 2.53638,-0.27763 0.6057,-0.63093 0.063,-1.62782 2.35971,0.13881 0.54261,-0.64357 -1.69092,-3.04111 -1.69092,-0.70665 -0.18927,-0.70666 3.98753,-0.0631 2.05686,-2.05687 5.4387,3.25567 1.51424,2.61207 1.56473,4.88348 1.93066,2.19565 2.05687,-0.84545 4.71943,-5.80464 1.16092,-0.49212 v 0 l 2.94017,3.25563 2.35971,5.86772 0.73189,0.41643 3.01589,-0.27761 1.86757,1.62782 -1.14831,3.31873 1.2114,4.59324 -0.90855,3.82349 0.66881,7.63435 -0.36596,3.73516 0.54261,1.27449 9.42623,5.65322 2.18305,2.53637 4.10109,1.19878 4.73204,3.67205 v 0 l -3.3692,5.0223 -1.91807,9.5524 0.94642,10.3474 -0.8076,4.41656 -4.35348,8.2653 -4.82037,6.22104 -4.22729,8.49245 0.59308,5.0475 2.43542,3.94968 3.49541,2.88969 5.40082,1.45116 9.88051,-1.29973 9.11076,-2.27138 21.43927,1.55211 4.59325,-2.38494 3.01589,0.69402 14.00682,-2.14518 3.19256,-1.91805 11.76069,-12.59355 7.04128,-3.12945 7.23056,-5.27464 v 0 l 7.68483,-6.7889 v 0 l 3.4323,-1.2114 14.37278,0.21451 v 0 z"
     inkscape:connector-curvature="0"
     style="fill:#d5b6b9;fill-opacity:1;stroke:#ffffff;stroke-width:0.63093865;stroke-opacity:1" />
  <path
     id="IL-JM"
     title="Jerusalem"
     class="land"
     d="m 530.15679,436.24983 -0.30287,0.47951 -10.96571,0.27761 -9.26218,3.79826 v 0 l -11.36951,11.24332 v 0 l -10.19596,4.89609 -10.24645,10.32215 -1.98115,3.3061 v 0 l -4.73204,-3.67205 -4.10109,-1.19878 -2.18305,-2.53637 -9.42623,-5.65322 -0.54261,-1.27449 0.36596,-3.73516 -0.66881,-7.63435 0.90855,-3.82349 -1.2114,-4.59324 1.14831,-3.31873 -1.86757,-1.62782 -3.01589,0.27761 -0.73189,-0.41643 -2.35971,-5.86772 -2.94018,-3.25563 v 0 l 0.95903,-2.47329 4.44181,-4.36609 10.49882,-2.71304 2.30923,-1.45116 1.95592,-5.62797 1.60258,-1.24926 10.91524,0.44166 v 0 l -2.48591,3.67205 v 0 l 1.81711,6.82675 4.20206,1.8045 6.00653,0.85807 5.53963,-1.98113 4.08849,-4.44183 v 0 l 4.13896,-2.44804 v 0 l 4.79512,4.4292 13.7671,5.88035 10.08239,-0.0505 3.96229,4.13896 -0.64355,9.2117 z"
     inkscape:connector-curvature="0"
     style="fill:#d5b6b9;fill-opacity:1;stroke:#ffffff;stroke-width:0.63093865;stroke-opacity:1" />
  <path
     id="PS"
     title="Palestine"
     class="land"
     d="m 383.80426,485.86683 0.0253,4.88347 -1.93067,3.43231 -6.29676,1.50163 -20.12695,19.48339 -1.7414,1.6783 -7.25578,9.32527 -0.85809,2.85185 -1.04735,3.508 0.59308,14.13303 -2.39757,4.40395 -8.03815,6.94032 -1.65306,1.42593 -9.79217,7.34411 -8.45458,-28.07675 0.47951,-0.36595 16.25298,-16.39179 14.38541,-15.78608 17.64103,-21.80523 7.79841,-11.65975 9.46407,8.78266 z m 223.65511,-172.03171 -1.65306,-9.79217 0.78237,-5.66583 -1.48902,-3.69729 1.11046,-4.79514 -1.70354,-4.568 1.47641,-7.68483 -2.13258,-3.50802 0.41642,-4.59323 -5.04751,-1.45116 -9.13599,-3.82349 -4.94656,-0.21452 -3.25564,0.94641 -2.7509,-0.44164 -1.43854,-1.2745 0.0631,-1.29975 -1.55211,-1.99376 -1.26187,-3.70992 0.26499,-5.12322 -0.68142,-5.50179 -3.53326,-5.98129 -3.52064,-2.62471 -6.03177,-0.53 -13.17399,1.94331 -5.14847,-2.14519 -3.34397,-2.44806 -3.87396,-4.02537 -3.01589,-1.64045 -3.25564,0.89593 -4.00015,4.51753 -0.75713,1.56472 -2.59946,2.52375 -4.29038,3.11684 -5.41346,2.76353 -8.7448,3.3061 -1.65307,1.24926 -1.29974,2.43542 -0.71927,1.36283 -1.98114,10.13287 -1.89281,5.24942 -0.89594,6.49866 -1.52686,1.4764 -5.65321,2.53638 -3.74779,6.17057 -0.23974,6.90247 1.02211,7.33151 -0.71927,1.90543 -0.45428,0.32809 -1.37544,0.98426 -2.99065,4.32824 -3.93705,8.89623 -0.36596,2.99066 0.10095,2.96541 4.13896,6.90247 1.65307,7.29365 0.26498,3.28087 -2.46065,6.01917 -0.12619,1.02211 -0.12619,1.0095 0.68142,1.69093 2.27138,2.4228 0.30284,0.56784 2.19567,4.18943 0.71927,2.94017 -0.50475,3.7604 -1.75401,3.79825 0.46689,3.09159 -0.95902,0.78237 0.95902,2.52376 -2.97803,6.37248 0.52999,5.77939 3.33136,4.49228 4.9718,3.9623 1.04735,4.08847 -1.93066,5.95607 -10.85216,1.9433 -2.6878,3.97491 1.81712,6.82674 4.20205,1.8045 6.00652,0.8707 5.53964,-1.99377 4.0885,-4.44181 2.96541,-1.75401 1.18616,-0.69404 4.78252,4.4292 13.76707,5.89296 10.09502,-0.0505 3.96229,4.13896 -0.65617,9.2117 -2.27138,3.54586 -0.30285,0.46691 -10.96572,0.29022 -9.27479,3.78564 -9.40099,9.30004 -1.96852,1.94329 -10.19596,4.89609 -10.24646,10.32214 -1.98114,3.30612 -3.36921,5.02228 -1.91805,9.53979 0.9464,10.3474 -0.8076,4.41656 -4.35348,8.2653 -4.82037,6.22104 -4.22729,8.49245 0.59309,5.0475 2.44804,3.94968 3.48278,2.88969 5.40083,1.43854 9.86788,-1.29973 9.12337,-2.27138 21.4393,1.55211 4.59323,-2.38495 3.01589,0.69403 14.00683,-2.14519 3.19255,-1.91804 11.7607,-12.59355 7.04128,-3.12945 7.21793,-5.27465 2.10734,-1.85495 5.59012,-4.93395 3.43229,-1.21139 14.37279,0.20189 0.59308,-21.86832 9.31265,-30.61314 2.25876,-6.7763 5.26203,-9.43883 -2.6878,-14.87753 1.71616,-4.83299 -2.25876,-3.62158 2.11995,-4.18945 -3.78562,-2.41019 -2.11996,-10.73856 3.92444,-3.78563 1.37544,-9.11076 -3.6342,-8.0003 2.03161,-2.95279 -0.35331,-1.74139 -2.38495,-2.7509 -0.47952,-11.00356 0.61832,-1.23664 1.17355,-2.34709 0.70665,-4.53014 3.06636,-4.15158 2.85184,-16.03846 1.88019,-3.70992 0.53,-2.18304 z"
     inkscape:connector-curvature="0"
     style="fill:#d5b6b9;fill-opacity:1;stroke:#ffffff;stroke-width:0.63093865;stroke-opacity:1" />
  <g
     id="stadiums"
     data-country="israel"
     data-circle-radius="6"
     data-circle-colors="#a149be,#bea149"
     transform="matrix(1.2618772,0,0,1.2618772,3.6221092,-0.06155833)" />
</svg>
