<?xml version="1.0" encoding="UTF-8" standalone="no"?>
<?xml-stylesheet type="text/css" href="/styles/home.css"?><!-- https://www.amcharts.com/svg-maps -->

<svg
   xmlns:dc="http://purl.org/dc/elements/1.1/"
   xmlns:cc="http://creativecommons.org/ns#"
   xmlns:rdf="http://www.w3.org/1999/02/22-rdf-syntax-ns#"
   xmlns:svg="http://www.w3.org/2000/svg"
   xmlns="http://www.w3.org/2000/svg"
   xmlns:sodipodi="http://sodipodi.sourceforge.net/DTD/sodipodi-0.dtd"
   xmlns:inkscape="http://www.inkscape.org/namespaces/inkscape"
   version="1.1"
   id="map-kazakhstan"
   viewBox="0 0 1000 1000"
   width="1000"
   height="1000"
   class=""
   sodipodi:docname="kazakhstan.svg"
   inkscape:version="0.92.4 (5da689c313, 2019-01-14)">
  <metadata
     id="metadata24">
    <rdf:RDF>
      <cc:Work
         rdf:about="">
        <dc:format>image/svg+xml</dc:format>
        <dc:type
           rdf:resource="http://purl.org/dc/dcmitype/StillImage" />
        <dc:title></dc:title>
      </cc:Work>
    </rdf:RDF>
  </metadata>
  <sodipodi:namedview
     pagecolor="#ffffff"
     bordercolor="#666666"
     borderopacity="1"
     objecttolerance="10"
     gridtolerance="10"
     guidetolerance="10"
     inkscape:pageopacity="0"
     inkscape:pageshadow="2"
     inkscape:window-width="1920"
     inkscape:window-height="1017"
     id="namedview22"
     showgrid="false"
     showguides="true"
     inkscape:guide-bbox="true"
     inkscape:zoom="0.21052916"
     inkscape:cx="1057.8035"
     inkscape:cy="767.63422"
     inkscape:window-x="-8"
     inkscape:window-y="-8"
     inkscape:window-maximized="1"
     inkscape:current-layer="map-kazakhstan">
    <sodipodi:guide
       position="1346.6068,500"
       orientation="0,1"
       id="guide834"
       inkscape:locked="false"
       inkscape:label=""
       inkscape:color="rgb(0,0,255)" />
  </sodipodi:namedview>
  <defs
     id="defs4">
    <style
       id="style2"
       type="text/css">
			.land
			{
				fill: #87a4c3;
				fill-opacity: 1;
				stroke:white;
				stroke-opacity: 1;
				stroke-width:0.5;
			}
			.water
			{
				fill: #CCCCCC;
				fill-opacity: 1;
				stroke:white;
				stroke-opacity: 1;
				stroke-width:0.5;
			}
         .rectangle:hover {
         fill: #bdbdbd;
         cursor: pointer;
         }
		</style>
    <!-- <amcharts:ammap projection="mercator" leftLongitude="46.488635" topLatitude="55.432742" rightLongitude="87.315881" bottomLatitude="40.549293"></amcharts:ammap> -->
    <!-- All areas are listed in the line below. You can use this list in your script. -->
    <!--{id:"KZ-AKM"},{id:"KZ-AKT"},{id:"KZ-ALM"},{id:"KZ-ATY"},{id:"KZ-KAR"},{id:"KZ-KUS"},{id:"KZ-KZY"},{id:"KZ-MAN"},{id:"KZ-PAV"},{id:"KZ-SEV"},{id:"KZ-VOS"},{id:"KZ-YUZ"},{id:"KZ-ZAP"},{id:"KZ-ZHA"},{id:"KZ-AS"}-->
  </defs>
  <path
     id="KZ-AKM"
     title="Aqmola oblysy"
     class="land"
     d="m 479.0883,351.61887 3.94977,0.23976 2.08216,4.36621 3.65954,-1.62787 4.66907,-0.71928 0.17666,3.88668 h 7.86171 l 2.48595,1.33762 2.71311,0.34072 1.56477,-0.89595 5.18645,1.84239 -0.27762,-8.44219 5.45146,-0.15143 1.43857,1.79192 3.49549,1.41334 3.25573,2.75096 1.42596,-1.41333 -0.63096,-0.88334 0.74453,-1.29978 0.97167,0.74453 3.06644,-3.34406 -0.27761,-1.19881 -1.50168,-0.60572 -0.54262,-2.75096 3.5712,0.0757 0.95905,-2.13264 1.04739,-0.60571 2.70049,0.36595 1.76667,-4.45455 2.77621,-1.16095 0.41643,-1.50167 4.6943,-1.86763 -2.08215,-2.3724 1.35025,0.27763 -1.16096,-4.02549 3.7731,-3.48287 -1.43857,-1.99382 0.87072,-0.27763 0.0883,-1.71619 -0.42905,-1.40072 -1.70357,-0.13881 0.31547,-2.90239 -2.73835,-0.21454 -0.76976,-1.60261 -1.35024,-0.4543 -0.11358,-1.38809 -1.76667,-2.56168 0.74453,-1.14834 1.74143,-0.39119 0.0505,-1.03477 1.24929,-0.94643 0.64358,0.74453 0.75714,-1.50168 -1.19881,0.0757 -0.0757,-2.08215 3.60907,0.10095 0.55523,-0.6562 -1.2619,-2.70049 1.89286,0.13882 0.21453,-1.02215 2.41024,0.17667 0.11357,1.23667 3.45764,-0.25238 -0.0757,-2.10739 2.41025,0.18928 0.0757,1.75406 1.53954,0.30285 0.29024,1.06001 1.02214,0.265 0.50477,3.34406 1.69096,0.47953 0.79501,-1.84239 -1.36287,-0.29023 -0.41643,-1.94335 1.03477,-0.10095 0.45428,-2.05692 1.36287,0.29025 0.58047,-1.17359 1.19882,-0.0757 0.92119,-0.98428 5.32526,0.0884 0.23977,1.94334 1.35024,0.46691 0.27762,4.20216 -0.59309,1.33762 0.83286,0.41643 0.55523,-0.82024 3.04121,0.76976 1.75405,-0.71928 0.21453,2.27143 -1.06001,0.60572 0.27762,1.07262 -1.03476,0.0883 0.10095,1.21144 -0.73191,0.64358 4.79526,-0.1262 1.23667,-0.5931 2.62477,3.86145 0.36596,1.94334 2.385,-0.31547 -0.45428,-2.97811 2.22097,-0.3281 0.59309,-3.41978 10.36029,-0.29024 -0.13882,3.6343 3.9624,0.70668 0.265,0.73191 2.17049,0.0252 2.1831,-1.88025 1.52691,-0.21452 0.82025,-1.6531 2.49858,0.0631 -0.15143,1.55215 5.08549,5.52716 -1.77928,4.35359 0.78238,2.15787 -1.56478,0.70667 0.0252,1.38809 1.5143,2.92764 7.15503,0.89596 5.80478,-0.44167 1.14835,-3.00335 4.73216,-1.04738 1.04738,0.98429 2.28406,-1.13572 2.65002,-0.0252 0.79499,-1.13572 0.83286,-0.0757 0.53001,4.29049 1.03477,1.17359 0.68143,7.25597 3.14215,-1.33762 4.69431,2.38502 3.33144,-0.0757 0.30286,1.61524 1.82977,-0.0884 1.75405,3.3693 9.48957,0.70667 v 0 l 0.0757,0.70667 1.28715,0.18928 0.56786,25.18773 0.51738,1.09786 -1.50167,0.29025 -4.21478,3.62167 -0.12619,7.43266 4.4924,-2.20834 1.24929,2.88977 2.88978,0.265 2.39762,1.37548 -2.87715,2.25882 -2.49858,-0.70667 -5.46408,3.57121 -0.36595,2.80144 -2.65001,3.12953 v 0 l -4.20216,-1.24929 -1.59001,2.44811 -0.70666,-2.09477 -0.66882,0.23976 0.39119,0.71929 -2.00643,0.56786 -0.66881,-1.09787 -1.1862,0.50477 -0.40381,1.95596 1.07262,0.47953 1.51429,3.3693 -0.25237,0.795 0.88333,0.61834 1.31238,-2.81406 4.45455,1.61524 -3.64693,3.48287 -6.51145,2.10739 0.87072,2.1074 -3.47025,0.8581 -0.99691,1.69095 -3.9624,-1.67834 -1.43858,2.62477 -0.97167,0.21453 0.46691,1.37549 -1.65311,1.93071 -3.54596,0.21453 -0.15143,1.29976 -0.89596,-0.44167 -1.24929,1.16096 0.69405,0.90858 -1.77929,1.57739 2.66263,1.80452 -2.03167,1.06001 -2.81407,-1.81715 -0.97166,1.5143 -1.81715,0.60571 0.54262,3.65954 -1.64049,0.45429 0.34071,1.18619 -3.06644,-2.33453 -5.14859,0.54262 -0.60572,1.23668 -1.5269,-0.50477 2.24619,-3.1674 -0.44167,-1.84239 0.74453,-1.06 -0.97167,-1.26191 1.67834,-2.25881 -2.7762,-2.46073 -1.76667,0.12619 -0.3281,-1.35024 -1.66572,0.63095 -0.35334,-1.1862 -1.13571,0.20191 0.0505,0.98429 -3.67216,1.56477 -0.69405,3.68477 -1.75405,-0.0252 -0.79501,1.55216 -2.19573,-0.23976 -1.91809,1.59 0.51738,1.1862 -3.24312,2.27144 -3.73524,0.90858 -0.31549,8.07622 -1.76667,-3.09168 -5.2874,2.37239 1.52691,3.87406 -0.78238,1.53953 -2.71311,0.36596 -5.50193,3.18 -1.51429,-0.78238 0.10095,-2.73834 2.18311,-3.18002 -0.51739,-1.17357 -1.14833,0.37858 -0.74453,-2.17049 -7.63456,2.20834 -4.46716,0.40382 0.5931,-3.16741 -1.42596,-0.12618 -1.64049,-3.06645 -1.38809,1.33763 -0.4543,-2.14525 -3.33144,1.81715 0.87073,2.82668 -2.01906,1.27453 -1.81715,-0.95906 0.16404,3.72264 -1.69095,-0.78238 -3.15478,1.66572 -3.18001,-2.03167 -1.42596,-0.11358 -0.40382,-0.9969 -1.96858,0.64357 -0.84547,-1.5143 1.75405,-1.95595 1.02215,-4.77003 1.08525,-1.69095 -0.54263,-3.29359 1.18619,-0.71929 0.34072,-8.59361 -7.60932,0.21453 -0.75714,1.40072 -2.99073,1.07263 -5.32526,4.00025 -2.3093,-1.80454 -4.92144,0.46691 1.64048,2.22097 0.17667,2.13262 v 0 l -2.91502,2.22097 -10.68838,1.38809 -5.77954,3.67217 -3.48288,-5.38836 2.72572,-1.61524 -1.60261,-3.98764 -2.1074,-0.76977 -6.06979,1.76667 -6.53668,-2.32191 -1.94335,-1.40072 -3.04121,0.80762 -1.27453,-5.12335 -1.88024,0.88334 -0.80762,-0.69405 -1.1862,0.58047 0.0505,-1.46381 -0.8581,0.76977 -0.21452,-3.11693 -4.59335,-2.70049 -1.52692,4.98455 -4.88359,0.55524 -0.93382,-2.00644 1.61525,-7.62193 -5.22431,-5.06026 1.38811,-1.2493 -2.10739,-2.75096 3.49548,-3.11692 -1.16095,-0.89595 2.06953,-6.01931 -2.23358,-4.63121 -3.06644,-0.16405 -1.23668,-4.25264 4.26526,0.41643 6.43575,-3.3062 2.09477,-10.77672 3.00334,-2.5112 z"
     inkscape:connector-curvature="0"
     style="fill:#87a4c3;fill-opacity:1;stroke:#ffffff;stroke-width:0.6309551;stroke-opacity:1" />
  <path
     id="KZ-AKT"
     title="Aqtöbe oblysy"
     class="land"
     d="m 306.85018,591.79823 -5.86788,2.46072 -2.29668,4.05073 -1.08523,5.12336 -1.07263,0.54262 -0.87072,2.39762 -45.37828,14.01983 v 0 l -3.52074,-25.9575 -2.20834,-6.12026 v 0 l -2.01906,-3.94978 0.45429,-1.48905 -2.88977,-3.73525 -0.30287,-4.66907 -19.38293,-6.36002 -7.35693,-7.40742 -1.52692,-5.93098 -3.65954,-4.61859 2.86454,-20.51866 -1.66572,-2.8393 -0.54263,-6.82693 -3.82358,-4.27788 0.88334,-3.35667 -2.29668,-7.44527 0.80762,-5.85527 0.71929,-0.56786 -0.11357,-5.91836 -4.40407,-0.37857 -0.0126,-1.56477 -1.84239,-1.33763 -0.80762,1.36287 -1.60263,-0.41643 -0.53,5.40097 -9.99432,-1.62786 0.98429,-2.49858 -1.0474,-2.38501 0.70668,-2.14525 -1.70358,-8.64409 -1.28715,-0.30285 -1.11048,2.85191 -1.50167,-0.74452 0.36595,-0.99692 -2.97811,-1.35024 -1.94334,-1.79191 v 0 l -0.22715,-3.49549 1.61526,-5.51455 -0.85811,-1.96858 1.52691,0.75715 0.99692,-2.54906 1.89286,-1.70358 2.39763,0.0126 0.44166,-1.82977 5.12337,0.31548 2.41024,-1.42595 -0.56786,-1.0474 2.22096,-3.49549 h 2.71311 l -1.43858,-1.75405 2.35977,-4.15168 1.00953,-3.34407 -0.31548,-1.9181 -2.88977,-2.10739 0.36596,-5.90574 -1.84239,-2.56168 2.61214,-2.7762 -0.41643,-1.09786 3.09169,-3.68478 -0.37857,-0.54262 v 0 l 1.21143,0.34071 2.78882,-3.53334 -1.79191,-6.78908 1.24929,-3.24311 2.88978,0.41643 1.31238,1.74143 1.19881,-1.42595 1.53954,-0.15143 0.4669,-1.52691 1.04739,-0.51738 1.24928,1.00953 -1.02214,2.83929 0.88334,1.11048 6.30955,5.55241 3.19263,-0.42905 0.50477,1.18619 4.56811,2.78883 1.02215,-1.59002 5.85526,-2.92762 3.91193,-2.90239 0.0379,-2.92764 1.35024,-3.73525 4.05073,0.88334 0.95905,-2.32192 1.93073,-0.23977 -0.23977,-3.41977 0.82025,-0.93382 3.41978,3.8236 2.3219,0.69405 0.49215,-1.29978 -0.56786,-2.83929 2.52383,-0.13881 1.76667,1.11048 1.325,-0.84548 1.59001,0.90858 3.93716,-1.69096 0.89595,2.01906 1.74145,1.02214 1.43857,3.39454 3.91192,2.00643 0.25239,-1.56476 2.03167,-0.97168 1.24929,0.0127 0.66881,1.23666 1.03477,-0.45428 0.74452,-8.03837 1.56478,-0.37857 1.325,1.43858 1.32501,-0.60572 0.45428,0.90858 1.38811,0.44167 2.14525,-1.66573 0.4038,1.82977 1.84239,0.42906 0.99691,-1.37549 -0.17666,-1.1231 1.90548,-1.11049 0.83285,0.34073 1.11049,2.86453 3.28097,-0.0757 1.46381,0.75715 0.94643,1.96858 -0.92119,2.68787 0.79501,4.41669 1.325,0.41643 3.09168,-0.73191 0.18928,2.47334 1.69096,0.80762 1.28715,1.96858 7.57147,0.87072 1.52691,1.07262 0.58047,-0.49214 2.10739,0.50477 2.14525,-0.44168 1.55215,2.13264 -0.5931,0.76976 0.35334,2.68787 7.38217,-2.68787 4.18955,-9.43908 1.59,-1.41335 2.76358,0.80762 0.30286,2.12001 2.99073,3.73526 3.91192,0.89595 8.61884,0.34072 4.40407,-0.97167 10.25934,-4.17692 0.95904,-1.51429 2.95287,-16.01365 2.05692,-0.69404 v 0 l 1.62786,0.79499 1.80453,-0.79499 1.09786,-1.91811 1.7162,2.65001 1.42596,6.56194 1.99382,0.78238 1.95596,-2.29668 3.6343,2.18311 v 1.51429 l -0.82024,0.13881 -0.82025,2.8393 4.4167,4.30311 -2.77621,1.93072 0.47952,4.4924 3.4324,-1.07262 2.2462,11.43291 3.24311,5.16121 0.49215,1.96857 5.33788,7.97528 0.47952,1.96858 -1.18619,4.1643 -3.88668,-3.19263 -3.91193,3.47025 -0.35334,4.03812 -3.87406,2.35977 0.79501,4.35358 0.795,1.13573 -2.88977,-0.99691 -2.08215,2.7131 5.7543,9.03529 -0.80762,0.61832 -0.47952,-0.47952 -3.67217,0.5931 -0.63095,1.75405 3.18002,-0.29024 1.75405,6.06979 6.83956,6.76384 5.30002,-2.88978 2.54905,2.27144 0.15143,1.41334 -1.62786,2.17049 0.93381,3.16739 8.00052,2.71311 1.42595,1.60263 4.00026,1.51429 3.97501,2.7762 5.28741,10.09528 v 0 l 4.4924,7.8617 2.23358,0.99692 -5.43883,5.99407 -28.92298,20.2158 v 0 l -1.84239,0.5931 -1.07263,-1.53954 -7.05408,-1.09786 1.06001,-2.4481 -6.76383,-8.60623 -3.06645,0.46691 -6.2086,-10.15839 -14.90315,3.43241 -8.44219,22.57557 -10.25932,-0.84549 -0.70667,7.77337 -7.52099,0.61834 -9.88075,9.17408 z"
     inkscape:connector-curvature="0"
     style="fill:#87a4c3;fill-opacity:1;stroke:#ffffff;stroke-width:0.6309551;stroke-opacity:1" />
  <path
     id="KZ-ALM"
     title="Almaty oblysy"
     class="land"
     d="m 783.15817,547.42946 4.15168,3.34406 3.09168,0.27763 1.19881,3.07906 10.91553,-1.22406 7.69765,10.78933 11.67266,-4.07597 5.23693,2.17049 -0.10095,2.52382 15.5215,7.67242 7.62194,0.18928 1.37548,2.09477 v 0 l 2.53643,-0.93381 v 0 l 1.5143,2.72573 1.09786,-1.55216 v 0 l 0.71929,0.0127 -0.9212,1.43857 0.82025,0.17667 v 0 l 1.71619,0.68143 1.37549,-1.48905 -0.4543,1.23666 v 0 l -1.23666,0.9212 1.41333,0.16405 -0.87071,1.14833 8.1267,9.52743 v 0 l 1.9181,7.25598 3.97502,4.32835 -0.45429,7.29384 0.89596,0.7824 2.53644,-0.90858 v 0 l 3.48287,2.67525 4.58073,1.38809 0.6562,2.49858 -0.93382,4.45455 -2.59953,3.83621 -4.40407,-3.67217 -1.31239,-0.32809 -7.30645,2.75097 -1.38811,-1.81715 -1.94334,0.15143 -0.74452,-3.53336 -2.41025,-2.08215 -1.55215,0.44167 -3.45763,2.73835 -1.21144,0.20191 -0.53,-0.64358 -1.17358,1.11049 -1.03477,-0.40382 -0.74452,0.70667 -1.70358,0.0505 -1.4512,1.21144 -1.43857,-0.29024 -0.74453,1.53953 -3.02859,0.25239 -1.48905,1.27452 -3.9624,-1.50167 -0.795,1.26191 -2.20835,0.93382 -3.33144,-0.25239 -2.1831,2.52382 -1.7793,-0.75715 -2.19572,1.22406 -3.34406,-0.63096 0.0252,1.35025 -0.73191,-0.12619 -5.19907,4.20216 2.92763,0.45429 0.71929,2.13262 0.99691,0.54263 6.09502,-1.32501 0.23977,0.8581 1.26191,-0.18929 0.58047,1.14834 2.88978,1.85501 0.1262,0.90857 -3.09169,1.7162 1.04739,1.61525 -1.50167,4.37882 1.82976,11.98814 2.5112,10.01958 5.52717,12.65696 -2.03167,5.14859 2.34715,0.40381 1.00952,3.81096 -0.55523,1.03477 -4.50502,0.56786 -5.00979,3.07907 0.37858,1.77928 1.93072,1.52692 2.09477,0.54262 0.47952,1.09787 -2.17048,0.31547 -2.48596,1.80453 -3.41978,-0.0379 -0.97167,4.11382 -1.24929,2.25882 1.03476,2.95287 1.66573,1.04739 -1.6531,1.80452 0.44167,3.62169 1.14833,0.82024 -0.29024,0.99691 0.5931,0.82024 -0.21452,1.21143 -0.80763,0.46691 -1.18619,-0.34071 -1.93073,0.84548 0.0379,-2.20834 -0.8581,-1.84239 -2.51121,-1.55215 -1.04739,-1.98121 -1.46381,-0.10095 -0.55524,0.58048 -0.36595,-0.75714 -4.36621,-1.09787 -1.1862,0.83286 -2.59954,-0.15142 -3.71001,-4.39146 -3.41978,-2.15786 -1.00952,-1.76667 v -2.53644 l -1.90549,0.44166 -0.64357,1.00953 -1.18619,-1.22405 -2.35978,0.0505 -5.06025,-1.84239 -0.90858,0.3281 -0.69405,-0.93381 -2.51121,-0.58049 -1.50167,-1.23666 -2.13263,0.88333 -0.78238,-0.29024 -1.02215,1.00952 -3.74787,-0.85809 -0.50477,0.78238 -1.22405,-0.21452 -1.18619,0.8581 -0.9212,-0.95906 -1.29977,0.58049 -0.78238,-0.84549 -2.96549,-0.34071 -0.73191,-0.83286 -8.20241,-0.84548 -4.65645,0.74453 -2.05692,-1.53953 -6.04455,-0.78239 -2.03167,0.0252 -2.22097,1.21143 -0.79499,1.36287 -5.11074,-0.45429 -0.70667,0.99691 -3.38192,0.78238 -1.93072,-1.79191 -5.70384,0.31548 -2.65001,-1.48906 -2.7762,0.74453 v 0 l -0.44167,-1.16096 -1.27452,0.55525 -1.36287,-0.8581 -2.37239,0.265 v 0 l -0.27762,-0.54263 1.41333,-0.42905 v 0 l 0.6562,-1.33762 -6.99098,-2.67525 -0.58048,-2.39763 -0.94644,-0.41643 0.34072,-1.4512 -0.93381,-0.55524 0.27762,-2.85191 3.25573,-3.94978 -0.88334,-1.48906 -3.67216,0.45429 0.36595,-1.17357 -2.22095,0.39119 -4.13907,-1.4512 -0.0127,-2.17049 6.29693,-5.53978 0.58048,-1.57739 -0.56786,-2.43548 1.64048,-2.71312 -0.11356,-4.21477 -2.54907,-1.74144 -1.3881,-1.88025 -1.52691,-0.21452 -2.76358,-2.20834 -5.4767,-0.5931 -4.68168,-4.47978 -0.79501,-1.24929 1.12311,-4.13906 -2.34716,-4.05073 -7.87431,-5.51455 -1.43858,-2.65001 -0.20191,-4.21479 -6.87741,-0.17666 -0.44167,-6.44836 7.40742,0.54262 -1.33763,-3.52073 -1.06001,-12.87149 2.33454,-3.93716 v 0 l 4.11383,-7.84907 v 0 l 14.70126,-14.54983 14.01981,-8.06361 5.84264,1.17358 7.49575,-1.3881 8.36647,1.47644 -0.0252,1.03476 v 0 l 1.41334,0.37857 1.67834,-1.98119 v 0 l 0.68143,2.05691 0.75714,-0.92119 2.23358,0.80762 0.76977,-1.81715 7.57146,2.57429 -2.65001,-2.67525 1.70358,-0.31547 2.58692,1.325 2.43548,-0.34071 2.44811,1.29977 0.80762,2.06952 1.84239,-0.27761 -0.0379,-2.24621 7.43266,-0.83286 -1.06001,-18.52484 v 0 l 0.66881,-1.23667 6.33479,1.41334 3.59644,-4.03811 3.12954,3.29358 v 0 l 3.94978,-5.03502 z"
     inkscape:connector-curvature="0"
     style="fill:#87a4c3;fill-opacity:1;stroke:#ffffff;stroke-width:0.6309551;stroke-opacity:1" />
  <path
     id="KZ-ATY"
     title="Atyraū oblysy"
     class="land"
     d="m 81.649709,584.02486 -0.567859,0.0631 -1.009528,-1.7162 -1.1231,-3.86144 1.716197,0.39119 1.211434,1.36287 0.416431,1.56476 z m 94.340391,-108.04475 1.93073,1.80454 2.9781,1.33761 -0.36595,1.00953 1.48906,0.74453 1.11047,-2.85191 1.28715,0.30286 1.70358,8.64408 -0.70667,2.14525 1.03476,2.38501 -0.97166,2.49858 9.99432,1.62787 0.53001,-5.40099 1.60262,0.41643 0.79501,-1.36285 1.855,1.33761 v 1.56478 l 4.40407,0.37857 0.11358,5.91836 -0.7193,0.55524 -0.80762,5.85527 2.29667,7.44527 -0.88333,3.35667 3.82359,4.27788 0.54262,6.82693 1.66572,2.8393 -2.86454,20.51866 3.65954,4.63121 1.52691,5.93097 7.35694,7.39481 19.38294,6.37264 0.30286,4.66906 2.88977,3.72264 -0.45429,1.48905 2.00644,3.94978 v 0 l -2.19572,-1.31238 -1.91811,0.13881 -1.14833,-1.07262 -1.69096,0.87071 -2.59953,-0.78238 -0.64358,-1.96859 -1.08524,-0.47952 -1.24929,0.8581 -3.07907,-1.27453 -0.0127,-3.06645 -0.84548,-2.53643 -1.19882,-0.16405 -1.80453,1.23667 -1.59001,-0.98429 -2.96548,-4.20216 -5.77955,5.72907 -2.71311,-0.37857 -9.69147,1.00953 -4.69431,1.82977 -3.71001,0.0883 -7.10456,1.62787 -0.49214,0.80762 -3.78573,-0.46691 0.34071,1.56477 -1.325,2.53644 -5.57765,4.15168 2.5743,1.5143 -4.07597,3.0412 -6.36003,2.59953 -3.78573,-0.50475 -0.78238,1.95595 -8.92171,-1.56476 v 0 l 1.32501,-0.34073 -0.93381,-0.32809 -0.0631,-1.16096 0.68143,-0.9969 1.89287,-0.1893 -1.16096,-1.09785 1.325,-0.5931 -1.62785,-2.39763 1.64048,-0.89596 -2.59953,-2.25882 1.38809,-0.66881 -1.31238,-1.03477 0.21452,-0.92119 1.76668,-0.39119 -0.61834,-1.42596 1.46382,-1.47644 0.49214,0.56787 0.0883,-0.9843 -0.7319,-0.44166 1.04738,-3.00335 2.19573,-1.855 -0.69406,-0.4543 0.92119,-0.30286 -2.06952,-2.01905 0.0631,-3.20525 0.9212,-0.89595 -0.97168,-0.36597 -0.1388,-2.58691 -1.84239,0.15144 0.71929,-0.7193 -1.26191,-0.84548 0.36595,-1.855 -0.65619,-0.11358 -1.79191,1.69097 -1.11049,1.9181 -0.3281,-2.59954 -1.47643,0.22714 0.265,-1.26191 -1.66572,-1.14834 1.09787,-0.68142 -0.94644,-1.7793 -3.6343,0.70668 -1.51429,1.31238 -1.29977,-1.13573 -0.66881,3.04122 -1.02215,0.64356 -14.58768,-4.4924 0.15143,1.36287 1.55215,1.4512 -0.60572,2.42286 -0.21453,-2.20834 -1.57739,-1.55215 -0.5931,-2.22096 -2.67524,1.77929 1.27452,-1.04738 0.85811,-2.59953 -2.03168,1.70357 0.53001,-1.43857 -1.40072,-1.61525 -6.39789,-1.16096 -3.52073,2.01906 -0.18929,0.92119 -5.69121,-0.60571 -1.03476,1.07262 -0.80763,-0.0757 -1.77929,2.72573 -0.70667,-0.21452 0.13881,-1.43859 h -0.66882 l -1.42596,1.42596 -1.1357,3.39454 -0.694051,-0.47952 0.151429,-1.35024 -1.186197,0.65619 -0.832861,-2.38501 -1.892864,3.2431 -0.265001,-1.43857 -0.971672,0.40381 -2.334533,4.58074 -0.41643,-2.96549 -2.385011,2.27143 -2.056913,3.73526 -2.561678,-0.0379 -0.97167,1.53953 0.12619,1.19881 -1.388101,1.38811 -1.728817,-0.89596 0.126191,1.74143 1.186196,0.95906 -1.186196,-0.0379 1.299767,1.76668 -2.763583,-1.16096 -0.643574,1.04739 -1.060004,-0.35334 -0.353335,2.10739 -1.577388,-1.85501 1.299767,3.62168 -4.20216,-2.68786 -0.504764,0.44167 -1.097862,-2.46073 1.047386,-0.21452 -1.085243,-1.84239 -1.817151,-0.36596 3.167395,6.04455 -1.097862,1.04739 -0.757146,-0.58049 -1.148339,-4.53025 -2.183104,-1.84239 -1.11048,0.0252 0.567858,1.21143 1.009529,0.0252 0.605717,1.89286 -1.615246,-1.22405 0.441669,1.17358 -0.580478,0.22714 -0.593099,-2.41025 -1.060004,-0.30285 1.615245,3.38192 -9.022657,-4.37883 -1.198815,-2.13263 -2.52382,-0.93381 -0.83286,-1.65311 -1.955961,0.0252 -0.365954,-1.31238 -1.539531,-0.44167 0.757146,-2.68787 1.703579,-1.4512 1.855008,0.10095 2.309295,2.96549 1.211434,0.13882 2.776202,-0.3281 2.233581,-2.6374 -0.845479,-2.42286 -4.64383,-6.28431 -1.173576,-2.71311 -2.208343,-5.91836 -0.870718,-5.86788 -5.565023,-0.69405 -4.858355,-8.84599 -3.180014,-3.07907 -8.934324,0.64358 -6.826933,-2.54906 -0.769765,5.03502 -4.416685,-2.62477 -1.993819,-2.42287 1.135719,-0.76976 -3.533348,-5.9436 3.470253,-2.20834 0.895956,0.0883 0.27762,-0.7319 -2.713107,-0.97168 0.239764,-3.5712 -2.208343,-1.81715 v 0 l 3.710016,1.23666 2.877155,-0.15143 34.109431,4.36622 6.789076,1.90548 12.013385,4.75741 -0.189286,-3.78573 7.634556,0.41643 1.337624,-1.08525 4.126447,0.10096 4.971925,-5.09813 13.477192,-9.04789 1.53953,-0.0379 2.29667,-2.1831 1.00953,0.50476 2.25882,-1.3881 1.36287,-4.27787 5.07287,-0.35334 2.91502,-1.33762 10.37289,1.79191 0.6562,1.33762 -0.84548,0.5931 -0.18928,3.02859 7.8617,1.79191 0.87071,-1.53953 1.07263,-0.15143 5.38835,3.05383 2.63739,-0.0631 1.72883,-1.04738 -0.55525,-1.81715 1.70358,-7.23075 2.96549,-0.12619 -0.37857,-9.02266 2.17048,0.95905 1.46382,-3.40715 1.51429,0.73191 8.5179,0.0126 3.79834,-1.19881 -0.64357,-1.50168 z"
     inkscape:connector-curvature="0"
     style="fill:#87a4c3;fill-opacity:1;stroke:#ffffff;stroke-width:0.6309551;stroke-opacity:1" />
  <path
     id="KZ-KAR"
     title="Qaraghandy oblysy"
     class="land"
     d="m 666.65862,396.88358 8.4548,3.06645 0.10095,2.85192 1.07262,1.65309 -1.62785,6.24646 0.1388,3.82358 -1.31239,0.30287 -0.6688,1.3881 1.05999,1.64048 -1.81715,1.7162 3.60907,3.97501 7.15503,-1.23666 1.9812,-1.66573 0.32809,1.03477 4.01288,0.78238 1.35024,1.69097 -1.41334,1.09786 1.62787,4.17692 1.71619,-4.30312 3.43241,3.65954 1.41333,0.0631 1.89287,3.25574 -0.8581,0.50476 0.66881,1.90549 2.82668,1.12309 0.40381,1.52692 -0.83286,0.35333 0.36595,0.70667 -4.92144,1.47644 0.0379,0.82023 -1.56477,1.04739 0.84548,2.88977 1.57739,-0.0757 0.4669,1.04739 2.46073,-0.73192 5.07288,-3.69739 1.18619,-1.59 7.1929,0.23976 1.21142,-1.72882 1.17358,-0.45428 1.08524,1.16095 8.61885,-2.37239 3.18002,1.86763 1.16095,-0.27763 1.13573,-3.05381 0.56785,0.42904 1.93073,-1.11048 2.76357,-0.30285 2.75097,1.64048 0.9212,-1.61524 -0.15143,-3.77312 1.52691,-6.0824 2.52382,-2.46073 4.73216,-1.22405 4.34097,4.59335 5.12335,0.2019 4.03812,2.58692 1.4512,5.16121 -1.95596,2.68787 2.82668,2.01906 v 0 l -0.55525,2.15787 -3.60906,3.00335 -1.93072,2.68786 -4.5555,2.34716 -2.23358,0.0631 -0.68143,2.91501 0.74452,1.11048 -0.56785,2.29668 0.64357,1.72881 -2.68786,5.4136 -12.17744,5.13597 -0.36596,2.15787 1.96859,2.25882 -0.0631,1.26191 2.06953,0.68143 3.68479,3.0412 0.0631,2.3724 4.35359,3.62167 -2.34716,0.99692 -0.50476,-0.71929 -2.04429,1.06 -0.35334,3.87406 1.72882,3.44502 10.0448,-1.65311 1.00953,3.00335 -1.00953,5.60288 -4.51764,4.64383 -3.12954,-0.54262 -1.27453,1.17358 0.27763,1.9181 -1.94335,0.5931 0.90858,1.86763 2.12001,0.98429 0.34072,1.61524 4.99716,0.25238 -0.53,1.29977 -2.15787,0.0884 -0.64357,1.89286 3.15477,2.87715 2.47335,-0.18928 1.74143,1.3881 -4.56811,1.66572 1.46382,2.10739 -1.67835,0.0127 -0.22714,3.02858 -1.21144,-0.0505 -2.68786,8.42957 1.06,1.70358 1.55216,7.42003 -2.23359,-0.98429 -2.32191,0.36595 0.12619,2.76359 -1.04739,2.54906 -1.93072,0.7319 2.19573,1.13572 1.27452,2.17048 2.38501,1.76668 3.64692,1.36286 1.1862,-3.26835 1.52691,-0.94642 2.88977,1.41333 2.44811,-1.09786 v 0 l 1.06,18.52484 -7.43265,0.83286 0.0379,2.24621 -1.84239,0.27761 -0.80762,-2.06953 -2.44811,-1.29977 -2.43548,0.34072 -2.58692,-1.32501 -1.70358,0.31548 2.65001,2.67525 -7.57146,-2.5743 -0.76977,1.81716 -2.23358,-0.80763 -0.75714,0.9212 -0.68143,-2.05691 v 0 l -1.67834,1.98119 -1.41334,-0.37858 v 0 l 0.0252,-1.03475 -8.36647,-1.47644 -7.49575,1.3881 -5.84264,-1.17358 -14.01981,8.06361 -14.70126,14.54983 v 0 l -2.14525,3.54596 v 0 l -40.53255,-0.46691 -23.48415,0.87072 -58.74192,0.265 v 0 l -46.38782,-0.7319 v 0 l -0.39119,-3.40717 -1.18619,-0.35333 -9.72933,0.54262 -32.01467,-8.69455 -4.53025,-2.52383 -4.46716,-5.04764 -5.11073,-0.44167 -12.32887,-6.63764 -2.52382,-0.0757 -12.30362,-4.80787 -1.07262,-1.08525 -2.3724,1.46381 -7.2686,-4.07597 -3.25573,0.25239 -6.62503,-5.24955 -10.13313,1.88025 6.75122,-5.27478 v 0 l 28.92298,-20.21581 5.43883,-5.99407 -2.23358,-0.99691 -4.4924,-7.8617 v 0 l 6.92788,-6.29693 -1.36286,-4.39145 9.14885,-2.01906 -1.88024,-2.41025 0.84547,-1.36285 -0.92119,-2.23358 5.19907,0.2019 1.26191,-9.50219 18.91603,3.12955 1.81715,-1.02216 1.7793,0.23977 2.78882,-0.98429 1.62786,-4.00026 7.63456,-0.27761 7.36955,-8.12671 3.73526,-0.44167 1.59,-5.59026 3.21787,0.3281 1.31239,-3.25573 3.74787,-3.41978 5.17384,-3.02858 13.61601,-16.36697 -1.14835,-2.32192 0.69406,-0.75715 -0.8581,-1.66572 0.87072,-1.07263 4.08858,-0.52999 4.50503,-1.93072 1.71619,-1.48906 2.18311,-3.39454 -0.41643,-1.00953 -2.65001,-1.48905 -0.11357,-0.80762 -1.40072,-0.90858 v 0 l -0.17667,-2.13262 -1.64048,-2.22097 4.92144,-0.46691 2.3093,1.80454 5.32526,-4.00026 2.99073,-1.07262 0.75714,-1.40072 7.60932,-0.21453 -0.34072,8.59361 -1.18619,0.71929 0.54262,3.29359 -1.08524,1.69095 -1.02215,4.77003 -1.75405,1.95595 0.84547,1.5143 1.96858,-0.64357 0.40382,0.9969 1.42596,0.11358 3.18001,2.03167 3.15478,-1.66572 1.69095,0.78238 -0.16404,-3.72264 1.81715,0.95906 2.01906,-1.27453 -0.87073,-2.82668 3.33144,-1.81715 0.4543,2.14525 1.38809,-1.33763 1.64049,3.06645 1.42596,0.12618 -0.5931,3.1674 4.46716,-0.40381 7.63456,-2.20834 0.74453,2.17048 1.14833,-0.37857 0.51739,1.17357 -2.18311,3.18002 -0.10095,2.73834 1.51429,0.78238 5.50192,-3.18 2.71312,-0.36596 0.78238,-1.53953 -1.52691,-3.87406 5.2874,-2.37239 1.76667,3.09168 0.31548,-8.07623 3.73525,-0.90858 3.24311,-2.27143 -0.51738,-1.1862 1.9181,-1.59 2.19573,0.23976 0.79501,-1.55216 1.75405,0.0252 0.69405,-3.68477 3.67216,-1.56477 -0.0505,-0.98429 1.13571,-0.20191 0.35334,1.1862 1.66572,-0.63095 0.3281,1.35024 1.76667,-0.12619 2.7762,2.46073 -1.67834,2.25881 0.97167,1.26191 -0.74453,1.06 0.44167,1.84239 -2.2462,3.1674 1.52691,0.50477 0.60572,-1.23668 5.14859,-0.54262 3.06644,2.33453 -0.34071,-1.1862 1.64048,-0.45428 -0.54261,-3.65954 1.81715,-0.60571 0.97166,-1.5143 2.81407,1.81715 2.03167,-1.06001 -2.66263,-1.80452 1.77929,-1.57739 -0.69405,-0.90858 1.24929,-1.16096 0.89596,0.44167 0.15143,-1.29976 3.54596,-0.21453 1.65311,-1.93072 -0.46691,-1.37549 0.97167,-0.21452 1.43858,-2.62477 3.9624,1.67834 0.99691,-1.69096 3.47025,-0.8581 -0.87072,-2.10739 6.51145,-2.10739 3.64693,-3.48287 -4.45455,-1.61525 -1.31239,2.81407 -0.88333,-0.61834 0.25238,-0.79501 -1.51429,-3.36929 -1.07263,-0.47953 0.40382,-1.95596 1.1862,-0.50477 0.66881,1.09787 2.00643,-0.56786 -0.39119,-0.71929 0.66882,-0.23976 0.70666,2.09476 1.59001,-2.4481 z"
     inkscape:connector-curvature="0"
     style="fill:#87a4c3;fill-opacity:1;stroke:#ffffff;stroke-width:0.6309551;stroke-opacity:1" />
  <path
     id="KZ-KUS"
     title="Qostanay oblysy"
     class="land"
     d="m 477.38471,260.66039 2.82668,-0.76977 v 0 l 1.7793,5.53978 -0.70667,1.00953 2.78882,7.67241 -4.70692,1.67835 4.6312,2.90239 1.71621,0.16405 1.33762,3.54597 -9.32551,4.26525 2.56167,8.22765 3.14215,-0.68143 0.0505,6.63765 -3.09168,3.44502 1.07263,3.20525 4.13906,0.44167 0.25239,10.92813 3.69739,2.3093 -0.61833,2.72574 -3.59645,-0.75716 -1.60262,1.27453 -2.58692,-0.17666 -1.08524,1.31238 0.88334,4.01288 1.21143,0.0757 0.2019,3.78573 -0.51738,-0.0379 0.16406,4.63122 -2.61216,0.68143 -0.30286,12.90934 v 0 l -0.17667,9.43909 -3.00334,2.51119 -2.09477,10.77672 -6.43575,3.3062 -4.26526,-0.41643 1.23668,4.25264 3.06644,0.16405 2.23358,4.63121 -2.06953,6.01931 1.16095,0.89595 -3.49548,3.11693 2.10739,2.75096 -1.38811,1.24929 5.22431,5.06026 -1.61525,7.62194 0.93382,2.00643 4.88359,-0.55523 1.52692,-4.98456 4.59335,2.7005 0.21452,3.11692 0.8581,-0.76977 -0.0505,1.46381 1.1862,-0.58047 0.80762,0.69405 1.88024,-0.88334 1.27453,5.12335 3.04121,-0.80762 1.94335,1.40072 6.53668,2.32192 6.06979,-1.76668 2.1074,0.76977 1.60261,3.98764 -2.72572,1.61524 3.48288,5.38836 5.77954,-3.67217 10.68838,-1.38809 2.91502,-2.22097 v 0 l 1.40072,0.90858 0.11357,0.80762 2.65001,1.48906 0.41643,1.00953 -2.18311,3.39453 -1.71619,1.48906 -4.50503,1.93072 -4.08858,0.53 -0.87072,1.07262 0.8581,1.66572 -0.69405,0.75715 1.14834,2.32192 -13.61601,16.36697 -5.17383,3.02859 -3.74788,3.41977 -1.31239,3.25573 -3.21787,-0.3281 -1.59,5.59027 -3.73526,0.44167 -7.36955,8.1267 -7.63456,0.27762 -1.62786,4.00025 -2.78882,0.98429 -1.7793,-0.23976 -1.81715,1.02215 -18.91603,-3.12955 -1.26191,9.5022 -5.19907,-0.20191 0.92119,2.23358 -0.84547,1.36285 1.88024,2.41025 -9.14884,2.01906 1.36285,4.39145 -6.92788,6.29693 v 0 l -5.28741,-10.09528 -3.97501,-2.7762 -4.00026,-1.51429 -1.42595,-1.60263 -8.00052,-2.71311 -0.93381,-3.16739 1.62786,-2.17048 -0.15143,-1.41335 -2.54905,-2.27143 -5.30002,2.88977 -6.83956,-6.76384 -1.75405,-6.06979 -3.18002,0.29024 0.63095,-1.75405 3.67217,-0.5931 0.47952,0.47952 0.80763,-0.61832 -5.75431,-9.03529 2.08215,-2.7131 2.88977,0.99691 -0.795,-1.13573 -0.79501,-4.35358 3.87406,-2.35977 0.35334,-4.03812 3.91193,-3.47025 3.88668,3.19263 1.18619,-4.1643 -0.47952,-1.96858 -5.33788,-7.97528 -0.49215,-1.96857 -3.24311,-5.16121 -2.24619,-11.43291 -3.43241,1.07262 -0.47952,-4.4924 2.77621,-1.93072 -4.41669,-4.30311 0.82024,-2.8393 0.82024,-0.13881 v -1.51429 l -3.6343,-2.1831 -1.95596,2.29667 -1.99382,-0.78238 -1.42596,-6.56194 -1.7162,-2.65001 -1.09786,1.91811 -1.80453,0.79499 -1.62786,-0.79499 v 0 l -2.88978,-2.99073 -1.70357,-3.41978 -0.78239,-0.21453 -2.44811,1.31239 -4.16429,-2.23358 -4.36622,-0.3281 -1.80453,-3.07905 -0.23976,-2.6374 -7.44527,-0.1388 -3.02858,-0.95906 -2.47335,-2.34715 2.92763,-2.92764 0.22714,-1.03476 -2.82667,-0.58048 -5.46408,-3.57121 0.0631,1.52691 -1.03477,-0.0631 -2.13262,-2.57429 0.29024,-2.33454 5.03502,-0.84548 5.66597,-5.70383 5.36312,-0.53 1.79191,-2.49859 4.13907,-1.67833 2.63739,-2.56169 -2.27144,-4.79526 -0.12619,-1.84238 -3.05382,-0.55524 -0.2019,-4.07597 -3.09169,-1.41334 0.35334,-3.93717 3.06644,-0.87071 1.02215,-1.81715 4.35358,-3.81097 -1.19881,-2.73835 2.23358,0.39119 2.95287,-2.49858 3.29359,1.82978 2.15786,-1.95597 2.59954,1.12311 1.85501,1.79191 1.80453,-1.3881 2.76358,0.0757 1.19882,-0.63095 3.20525,2.41025 3.1674,-2.19573 -0.65619,-4.51764 -4.51765,-0.55524 -3.10429,-1.23667 -3.2305,-3.71001 -1.11048,1.43857 -2.54906,0.11358 -1.33762,-0.40382 -1.66573,-1.76667 -3.73525,-0.25239 -1.46381,-0.93381 -0.61834,-3.69739 1.90549,-2.09477 0.54262,-2.70049 2.94025,0.41643 0.42904,1.09786 1.21144,0.35334 3.29359,-1.74144 0.22714,-1.00953 -0.795,-2.05691 -1.29977,-0.68144 -2.15787,0.10096 -1.45119,1.22405 -4.85835,-0.40381 -1.31239,-1.23667 -4.59336,-0.71929 0.0757,-2.06953 1.96858,-0.11358 1.00953,1.17358 0.16404,-2.35977 1.55215,-0.73191 2.6374,-3.33144 -0.27762,-1.47644 -1.72882,-2.00643 -3.58383,-0.68144 0.22715,-1.41333 0.92119,-0.94644 2.95287,-0.30285 0.71929,1.56476 1.70358,0.265 0.50476,-2.57429 -0.78238,-1.40072 0.27762,-0.87073 1.22406,-1.64048 2.15786,-0.65619 1.62787,0.21453 0.84547,2.68787 2.1074,0.9969 0.76976,1.7162 1.11048,-2.39763 1.94334,-0.7319 1.32501,1.88024 1.52691,-2.00643 -0.0884,0.95905 1.40072,0.0505 -0.82024,1.75405 2.6374,0.83287 1.47643,-0.37857 -0.95906,-3.05383 1.71621,-1.1231 3.24311,0.94643 5.67859,-0.92119 1.26191,1.19881 -1.855,1.27453 0.69404,2.44811 2.66263,1.52691 1.06001,-3.53335 5.03502,-4.00025 0.40382,-1.4512 7.47049,0.34071 0.99692,-0.79499 -0.0379,-2.53644 1.35025,-0.65619 4.80787,0.4038 9.77981,-3.54597 3.65954,0.13882 0.87071,-1.50168 0.84548,1.23668 1.1862,-1.5143 2.58691,0.42905 2.6374,-0.97167 3.47025,0.0757 1.00953,-1.42596 1.29977,0.27763 2.28405,-1.65311 2.95288,-0.37856 0.30285,1.95595 5.03503,-2.65001 3.69739,3.40716 2.71311,-0.0757 0.42904,-1.08524 -1.23667,-3.52073 0.27762,-3.06644 3.83621,-2.37239 3.0412,0.34071 -0.795,-1.84239 0.45429,-1.14833 4.02549,0.22714 3.01597,1.46382 1.16095,-1.08525 0.90858,-2.7131 2.58692,-0.80762 0.63095,0.51738 -0.46691,2.92763 z"
     inkscape:connector-curvature="0"
     style="fill:#87a4c3;fill-opacity:1;stroke:#ffffff;stroke-width:0.6309551;stroke-opacity:1" />
  <path
     id="KZ-KZY"
     title="Qyzylorda oblysy"
     class="land"
     d="m 308.1121,606.52471 1.71619,-2.12001 3.25572,1.26192 0.4543,4.06335 -0.74453,2.05691 1.26191,3.54597 1.65311,1.31238 0.42904,2.05692 -12.16481,-8.80813 0.92119,-3.36931 z m 19.95079,-0.90857 h -2.61215 l 0.17667,-4.42931 6.17074,-0.78238 3.12953,0.35334 0.60572,1.29976 4.87098,0.51739 0.35333,0.60571 h -6.52407 l -3.48288,1.91811 z m 51.62475,-72.86269 2.01906,3.84883 3.05381,-0.46691 6.76384,8.60623 -1.06,2.4481 7.05408,1.11048 1.07262,1.53953 1.85501,-0.5931 -6.75122,5.28741 10.13314,-1.89287 6.61241,5.26217 3.26834,-0.25239 7.2686,4.06336 2.3724,-1.46382 1.07262,1.08524 12.30362,4.8205 2.52383,0.0631 12.32886,6.63764 5.11074,0.44167 4.46716,5.04764 4.53026,2.51121 32.02727,8.69455 10.9029,-0.18928 0.0505,6.32216 3.87407,2.99074 0.74452,2.385 -2.1831,3.67216 -2.56168,11.93767 4.65645,3.86145 3.8993,1.66572 0.15143,24.10248 -0.76977,2.80144 2.61216,2.56168 1.48905,-0.47952 2.81406,1.57738 0.0631,1.13572 2.81407,3.41978 6.72598,4.80787 -1.72882,1.7162 -0.94643,-0.76976 -2.75096,1.94334 1.23667,2.61215 -0.29025,3.6343 -1.04738,0.50477 -2.42286,-2.10739 0.0126,5.32526 -2.33453,2.38501 -0.31548,3.8993 -2.48596,0.70667 0.7319,3.24311 1.0474,-0.64357 -0.3912,-2.1074 1.35025,-0.76975 -0.265,1.52691 1.42596,-0.0631 -0.42906,1.79191 0.94643,2.27144 1.74145,-0.46691 -0.10096,1.11049 -10.53695,5.60288 -6.54931,2.42286 -6.13288,4.61859 -6.90265,6.96574 -3.44502,-2.12 -9.906,10.28456 -2.13262,-0.51738 -0.18928,-19.91294 -6.66289,3.12953 -4.31574,-14.5372 -8.74504,-8.1267 -3.02857,-6.68812 -1.36287,-1.08525 -2.54906,0.29024 -12.1522,5.61551 -27.72416,-2.46073 -33.11253,6.29694 -1.29976,-0.87073 -20.32937,-24.35486 -1.17358,-3.73526 -11.48338,-8.29074 1.96858,-1.48906 1.19881,-4.92145 -1.60262,-6.00669 -0.97167,-1.19881 -1.48906,-0.11358 -2.23358,-4.63121 0.56786,-7.54622 -0.56786,-2.05691 -1.14834,-0.8581 1.31238,-5.42621 -0.92118,-3.65955 -1.19882,-1.31238 -0.17667,-2.46073 1.26192,-0.8581 1.48905,-5.51455 3.48287,-0.8581 1.26191,-2.73834 2.28406,-2.12001 2.57429,-0.45428 1.76667,-1.60263 4.69431,-2.28406 1.53954,-2.62477 0.31547,-6.29693 -0.94643,-0.13881 -1.35025,1.08524 -7.15503,-0.54263 -2.42286,-2.96548 0.54262,-5.93097 -2.96549,-1.61526 -3.3693,0.13882 -0.13881,1.21143 4.17692,2.01906 v 1.61524 l -1.89287,1.61525 -1.35024,0.66881 -3.50811,-1.35025 v 3.91193 l -0.90857,0.64357 -0.16405,-4.5555 -0.66881,-1.35024 -1.1862,-1.18619 h -1.69096 l -5.56502,3.71002 -1.00953,1.35024 -0.15143,2.52382 2.15787,3.65954 1.71619,0.74453 6.97837,-1.19883 0.68142,1.31239 2.57431,1.37549 3.88667,-2.68788 0.22715,2.23359 1.94334,3.25573 -0.56786,4.34096 -2.62477,1.65311 -4.6312,0.63095 -4.29051,-2.80144 -5.83002,-1.03476 -3.31882,2.68787 -1.7162,0.11357 -0.795,-0.45429 0.45428,-2.39762 -0.63095,-4.29051 -0.97168,-1.19881 -5.60288,-0.29024 -0.79499,0.17667 0.0631,1.37549 3.31882,5.71645 -0.45428,1.6531 0.56786,4.34097 -0.97168,2.86453 -1.6531,-0.0631 -1.03477,3.02859 -0.90857,0.74453 -1.08524,-0.40382 -4.06335,0.63095 0.17667,-3.48287 2.915,-4.34096 -1.03476,-0.74453 -1.19882,-0.63096 -2.39762,1.94335 -1.53954,0.11356 -2.66262,-0.98429 16.97269,-22.63867 9.88076,-9.17408 7.52098,-0.61834 0.70667,-7.77337 10.27195,0.84549 8.42956,-22.57557 14.90315,-3.44502 z"
     inkscape:connector-curvature="0"
     style="fill:#87a4c3;fill-opacity:1;stroke:#ffffff;stroke-width:0.6309551;stroke-opacity:1" />
  <path
     id="KZ-MAN"
     title="Mangghystaū oblysy"
     class="land"
     d="m 100.57835,632.59578 1.08524,-0.0631 -1.703575,1.80452 -0.0127,-3.12953 z m 1.84239,-4.35359 1.06,-0.90858 0.64358,0.83286 -0.0379,2.06954 1.11047,0.56786 -2.25882,0.23976 0.54262,-0.76976 -0.66881,-0.25239 0.29025,-1.04739 -1.86763,-1.28714 0.59309,-0.8581 -0.27762,0.65619 z m -15.332198,-4.05073 1.40072,0.68143 -1.287148,0.17666 -0.605717,0.80763 0.41643,2.91501 0.858099,0.25238 -0.302858,0.94644 0.605717,0.87071 1.463816,0.73192 1.514292,-0.44167 -0.403811,1.22405 -3.066442,-1.11048 -0.959052,-1.52692 -0.820242,-2.76358 z m 6.561933,-0.50476 0.98429,0.16404 0.353334,2.49858 -2.460724,4.2905 -0.214525,-3.34406 -0.98429,-2.28406 z m 56.748095,-15.5846 0.90857,-0.18928 0.66881,1.79191 0.3281,2.70049 -0.89595,0.23976 0.11356,0.45429 -1.09785,-0.3281 -2.08216,-3.15478 1.41334,-1.29976 -0.37858,-0.8581 z m 4.2274,-9.02266 8.92169,1.56477 0.7824,-1.95596 3.78573,0.50477 6.36002,-2.59954 4.07597,-3.0412 -2.57429,-1.51429 5.57764,-4.15168 1.325,-2.53645 -0.34071,-1.56476 3.78572,0.46691 0.49215,-0.80763 7.10455,-1.62786 3.71002,-0.0884 4.6943,-1.82977 9.69148,-1.00953 2.7131,0.37858 5.77955,-5.72907 2.96549,4.20216 1.59001,0.98429 1.80453,-1.23668 1.19881,0.16405 0.84548,2.53644 0.0127,3.06644 3.07905,1.27453 1.24929,-0.8581 1.08524,0.47953 0.64358,1.96858 2.59953,0.78239 1.69096,-0.87073 1.14835,1.07263 1.9181,-0.13881 2.19572,1.31239 v 0 l 2.22096,6.12026 3.50811,25.95749 v 0 l -17.36388,5.70383 0.0631,123.20029 -3.25572,-0.12619 -1.43858,1.43858 -1.06001,-0.61833 -2.37239,0.44166 -1.46382,1.40072 -0.9969,-1.41334 -0.74453,1.11048 -1.75405,-0.84548 -5.57764,-6.05717 -4.0886,-8.03836 -2.88977,-3.64692 0.11357,-2.92763 -2.97811,-3.6974 -15.83697,-10.4991 -5.76692,0.17667 -8.99743,1.43858 -13.55292,5.07288 -14.47411,12.24053 1.21144,-4.68169 -1.76667,-5.71645 0.36595,-2.5743 3.29359,-4.93407 2.72572,-8.1898 -0.88334,-2.68786 -2.20834,-2.78883 0.46691,-0.70666 0.18928,1.27453 2.22097,2.27144 0.75714,2.05691 0.93382,-1.52691 -0.0884,-3.47026 -2.12001,-0.88334 -0.84549,0.35334 -0.16404,-2.04429 -3.38192,-0.99691 -2.9655,0.12618 -1.53952,1.43859 -1.35025,-2.20834 -1.23667,-0.63097 -2.67525,0.11358 -3.93715,1.32501 -3.53336,-6.54932 -2.82668,-2.67525 -0.12619,-2.51119 -9.27503,0.97166 1.13572,-8.82075 -0.74453,-3.72264 -1.75406,-2.88977 -1.41334,-0.49214 -3.23049,-5.74169 -0.92119,-4.97193 -2.97811,-2.86453 0.18928,-2.24621 -1.13571,-3.5712 -3.87407,-2.39763 -6.435726,-0.82025 -3.268348,-1.855 -0.84548,-1.64048 -0.391192,-6.36003 0.99691,1.33762 1.198814,-3.48287 3.533349,0.70667 3.318813,-0.32809 0.89596,0.71928 2.54905,0.21453 1.90549,-1.03476 2.2462,0.85809 1.1862,1.67834 1.22405,0.13881 -0.0127,1.28715 2.19572,1.51429 2.61216,0.0505 2.09477,-2.27144 2.12,-0.55524 0.10096,1.00953 0.94643,0.65619 0.83286,-0.78238 2.12001,0.29024 -0.0631,-0.83286 -2.39762,-1.38811 -4.01288,0.29025 0.35334,-1.31239 -0.74453,0.31547 0.0505,-1.17357 -2.05691,-3.38192 -4.5555,-3.18001 -0.61834,0.71929 -2.00643,-0.46691 -0.20191,-2.38501 2.30929,-2.97811 2.32192,-0.31548 2.85192,-2.5112 1.75405,0.51738 0.12619,-4.93406 1.61524,-3.30621 2.27145,-2.43549 1.18619,0.60572 2.9024,-0.31547 2.85191,-1.70359 1.07263,-1.62786 4.99716,1.85501 2.58691,-0.6562 5.64075,0.15143 4.00025,-1.00953 3.24311,0.51739 1.72881,2.04429 1.46382,-0.265 2.4481,0.80762 -1.66572,-1.11048 0.44167,-0.47952 -0.97166,-2.23358 0.21452,-1.26191 3.77311,1.67834 2.20834,2.04429 -2.17048,-3.06644 -1.29977,-0.0631 -2.01906,-1.50168 0.90858,-1.41333 2.66262,-0.42906 -0.52999,-1.55215 -2.65001,1.99382 -0.21453,-1.33763 -0.75715,-0.10094 1.46382,-1.94334 2.20834,0.90857 -2.57429,-2.81406 1.09786,-0.66882 -0.49215,-0.63095 1.99382,-0.44167 z"
     inkscape:connector-curvature="0"
     style="fill:#87a4c3;fill-opacity:1;stroke:#ffffff;stroke-width:0.6309551;stroke-opacity:1" />
  <path
     id="KZ-PAV"
     title="Pavlodar oblysy"
     class="land"
     d="m 741.81799,271.03328 1.64048,0.23977 0.50477,2.27143 -0.78239,1.19882 0.0757,1.93073 -2.08216,1.74143 -0.21452,1.36287 -2.3093,1.42596 -1.12309,-1.43859 -4.45455,-0.31547 0.11358,1.52691 1.62786,2.19572 1.21143,3.59644 5.26217,5.11074 19.78674,16.01364 8.35385,8.29075 13.04815,21.32628 11.96292,22.92891 5.57764,9.19932 4.65644,10.171 v 0 l -1.84239,0.21453 -0.65619,3.84882 -3.76049,0.95905 0.65619,2.14525 -3.16739,3.1043 -0.68143,-0.82024 -4.90884,0.71928 0.11358,2.34716 1.26191,-0.21452 -0.15143,3.445 -1.27453,-0.44166 -5.0224,3.19263 -3.1043,0.97167 -0.55524,-1.27452 -1.50168,0.6688 -0.31547,1.41335 -2.65001,1.41333 -0.56786,-0.45428 -2.09478,2.03167 2.94025,4.25264 0.66882,3.91192 1.86762,0.56786 3.12954,3.28096 6.71337,4.21479 -0.88334,8.59361 2.32191,0.65619 0.70667,4.99716 -1.67833,1.74144 -4.21479,7.65979 -3.38192,1.55215 -3.97501,-0.98429 -10.53696,-4.39144 -1.4512,-2.54906 -1.62785,0.95905 v 0 l -2.82668,-2.01906 1.95596,-2.68787 -1.4512,-5.16121 -4.03811,-2.58691 -5.12336,-0.20191 -4.34097,-4.59335 -4.73216,1.22405 -2.52382,2.46073 -1.52691,6.0824 0.15143,3.77312 -0.92119,1.61524 -2.75098,-1.64048 -2.76357,0.30285 -1.93072,1.11048 -0.56786,-0.42904 -1.13573,3.05381 -1.16095,0.27763 -3.18001,-1.86763 -8.61886,2.37239 -1.08523,-1.16095 -1.17359,0.45428 -1.21142,1.72882 -7.1929,-0.23976 -1.18619,1.59 -5.07288,3.69739 -2.46073,0.73192 -0.4669,-1.04739 -1.57739,0.0757 -0.84548,-2.88977 1.56477,-1.04739 -0.0379,-0.82023 4.92144,-1.47644 -0.36595,-0.70667 0.83286,-0.35333 -0.40381,-1.52692 -2.82668,-1.12309 -0.66881,-1.90549 0.8581,-0.50476 -1.89287,-3.25573 -1.41333,-0.0631 -3.43241,-3.65954 -1.71619,4.30312 -1.62786,-4.17692 1.41333,-1.09786 -1.35024,-1.69097 -4.01288,-0.78238 -0.32809,-1.03477 -1.9812,1.66573 -7.15502,1.23666 -3.60908,-3.97501 1.81715,-1.7162 -1.05999,-1.64048 0.6688,-1.3881 1.31239,-0.30287 -0.1388,-3.82358 1.62785,-6.24646 -1.07262,-1.65309 -0.10095,-2.85192 -8.4548,-3.06645 v 0 l 2.65001,-3.12953 0.36595,-2.80144 5.46408,-3.57121 2.49858,0.70667 2.87715,-2.25882 -2.39762,-1.37548 -2.88978,-0.265 -1.24929,-2.88977 -4.4924,2.20834 0.12619,-7.43266 4.21478,-3.62167 1.50167,-0.29024 -0.51738,-1.09787 -0.56785,-25.18773 -1.28716,-0.18928 -0.0757,-0.70667 v 0 l -0.13881,-1.59 -4.58074,-0.34073 -1.24929,-3.3062 0.50476,-1.50167 1.13573,1.56476 1.79191,0.26501 1.04739,2.2462 1.21143,-0.51739 -0.34072,-3.88668 1.56477,-0.63095 -0.23976,-2.13263 1.24929,-0.66881 -1.37549,-3.72263 -2.42286,0.84547 -1.1231,-0.35333 -1.47643,3.98763 -3.31883,0.0505 -0.61833,-3.24311 1.74143,-2.04429 -0.80762,-1.70358 -2.71311,1.90548 -0.59309,-0.61834 1.46381,-1.19881 2.33453,-4.4293 -0.16404,-1.4512 2.59953,-2.25881 -1.14833,-1.79193 -1.27454,0.85811 -0.39119,-0.94643 -1.40072,0.51738 -0.0883,0.88334 -3.50811,3.06644 -0.60572,-3.64692 0.56786,-3.87407 2.06953,1.00953 0.93381,-0.95905 -3.29358,-6.04455 v 0 l 3.18002,-3.11692 0.41643,-1.84239 1.2619,0.31548 0.61834,-2.67525 1.71619,0.20191 2.17049,1.36286 1.70358,-2.56168 4.18954,0.94643 -0.25238,2.85192 2.14525,0.20191 0.45429,-2.13263 1.76667,0.37857 0.97167,4.32835 2.99073,1.1231 1.9812,-4.88359 -1.06001,-0.61834 0.73191,-3.64691 4.15168,0.68143 1.09787,-3.6974 2.09476,-0.12619 0.9843,-2.49859 4.15168,0.27763 0.87072,1.19881 10.701,-7.65979 0.69405,-1.7162 -2.08215,-2.97811 3.25572,-1.67834 2.00645,0.68144 15.05458,-7.01623 -0.53,-1.3881 0.69405,-2.04429 5.42621,1.29976 2.5112,-0.93381 2.29668,0.0505 2.0443,-2.97811 4.79525,-1.64048 0.0631,1.27452 z"
     inkscape:connector-curvature="0"
     style="fill:#87a4c3;fill-opacity:1;stroke:#ffffff;stroke-width:0.6309551;stroke-opacity:1" />
  <path
     id="KZ-SEV"
     title="Soltüstik Qazaqstan oblysy"
     class="land"
     d="m 555.16886,228.40596 0.93382,1.64049 4.27787,-1.32501 2.8393,1.07262 4.37883,-0.0757 4.74478,2.23358 1.95596,3.74787 2.68787,0.66881 2.42286,2.28406 1.65311,0.0505 1.67834,-1.64049 2.68786,-1.16096 1.82978,-3.5081 3.84882,0.95905 1.80454,-1.31239 2.90238,-0.39119 0.82025,2.91502 3.93716,6.71336 0.13881,5.4893 -0.61834,2.35978 1.26191,2.06953 0.29024,2.80144 1.9181,2.7762 2.43549,0.63095 1.60263,1.5143 0.0252,1.69096 -2.54907,1.35024 -0.11357,3.67216 0.93382,4.35359 -0.71929,2.97811 -4.59336,-0.71929 0.1893,1.9812 1.96857,1.08524 -0.83286,2.5112 1.3881,1.32501 0.88334,2.52382 1.1862,0.16405 2.41025,-2.80144 1.09786,-0.22715 3.60906,1.13572 0.3281,1.9812 1.7162,-0.32809 1.72881,0.58047 2.23359,-1.48905 -0.51739,-2.23359 1.02215,-2.35976 6.27169,1.08523 1.80453,2.03169 -0.0757,0.79499 1.90549,0.90858 0.55524,-2.17048 -2.7131,-1.86763 1.07262,-2.47335 -2.18311,-2.83929 2.43549,-0.29024 3.06644,1.82977 0.31548,2.67524 1.13572,0.7193 -0.34072,2.08214 4.50502,2.06954 0.0757,1.1862 -1.50167,-0.3281 -1.59001,0.58048 -0.15143,0.68143 1.38811,2.08215 -1.03477,3.54597 2.52382,1.80453 1.80454,-3.31883 4.11382,1.66573 -1.40072,-4.0255 -3.53335,-0.0127 0.58048,-2.61216 1.3881,-1.02214 9.30027,1.48905 -0.0757,1.85501 1.59,0.25238 0.65619,2.14524 5.37574,1.7793 2.75096,-0.10095 0.20191,-1.42596 2.87716,1.67834 -0.37858,-2.34716 2.92763,-1.50167 0.0505,-1.35024 2.86454,0.84548 -1.4512,7.97527 -5.53979,-0.83286 -0.82023,1.52691 0.60571,1.32501 -2.63739,0.75714 -0.46691,4.42931 -1.7162,0.27762 0.58048,1.55215 -0.88334,2.91501 3.76049,1.69096 -0.51738,2.2462 1.75406,1.26191 v 0 l 3.29358,6.04455 -0.93381,0.95905 -2.06953,-1.00953 -0.56786,3.87407 0.60572,3.64692 3.50811,-3.06644 0.0883,-0.88334 1.40072,-0.51738 0.39119,0.94643 1.27454,-0.85811 1.14833,1.79193 -2.59953,2.25881 0.16404,1.4512 -2.33453,4.4293 -1.46382,1.19881 0.5931,0.61834 2.71311,-1.90548 0.80762,1.70358 -1.74143,2.04429 0.61833,3.24311 3.31883,-0.0505 1.47643,-3.98763 1.1231,0.35333 2.42286,-0.84547 1.37549,3.72263 -1.24929,0.66881 0.23976,2.13263 -1.56477,0.63095 0.34072,3.88668 -1.21143,0.51739 -1.04739,-2.2462 -1.79191,-0.26501 -1.13573,-1.56476 -0.50476,1.50167 1.24929,3.3062 4.58074,0.34073 0.13881,1.59 v 0 l -9.48957,-0.70667 -1.75405,-3.3693 -1.82977,0.0883 -0.30286,-1.61524 -3.33144,0.0757 -4.69431,-2.38502 -3.14215,1.33762 -0.68143,-7.25597 -1.03477,-1.17358 -0.53001,-4.2905 -0.83286,0.0757 -0.79499,1.13572 -2.65002,0.0252 -2.28406,1.13572 -1.04738,-0.98429 -4.73216,1.04738 -1.14835,3.00335 -5.80478,0.44167 -7.15503,-0.89596 -1.5143,-2.92764 -0.0252,-1.38809 1.56478,-0.70667 -0.78238,-2.15786 1.77928,-4.3536 -5.08549,-5.52716 0.15143,-1.55215 -2.49858,-0.0631 -0.82025,1.6531 -1.52691,0.21452 -2.1831,1.88025 -2.17049,-0.0252 -0.265,-0.73191 -3.9624,-0.70667 0.13882,-3.63431 -10.36029,0.29025 -0.59309,3.41977 -2.22097,0.3281 0.45428,2.97811 -2.385,0.31547 -0.36596,-1.94334 -2.62477,-3.86145 -1.23667,0.5931 -4.79526,0.1262 0.73191,-0.64358 -0.10095,-1.21143 1.03476,-0.0884 -0.27762,-1.07262 1.06001,-0.60572 -0.21453,-2.27143 -1.75405,0.71929 -3.04121,-0.76977 -0.55523,0.82025 -0.83286,-0.41644 0.59309,-1.33762 -0.27762,-4.20216 -1.35024,-0.46691 -0.23977,-1.94334 -5.32526,-0.0883 -0.92119,0.98429 -1.19882,0.0757 -0.58047,1.17358 -1.36287,-0.29024 -0.45428,2.05691 -1.03477,0.10095 0.41643,1.94335 1.36287,0.29023 -0.79501,1.84239 -1.69096,-0.47953 -0.50477,-3.34406 -1.02214,-0.265 -0.29024,-1.06001 -1.53954,-0.30285 -0.0757,-1.75406 -2.41025,-0.18928 0.0757,2.10739 -3.45764,0.25238 -0.11357,-1.23667 -2.41024,-0.17667 -0.21453,1.02215 -1.89286,-0.13882 1.2619,2.70049 -0.55523,0.6562 -3.60907,-0.10095 0.0757,2.08215 1.19881,-0.0757 -0.75714,1.50168 -0.64358,-0.74453 -1.24929,0.94643 -0.0505,1.03477 -1.74143,0.39119 -0.74453,1.14834 1.76667,2.56168 0.11358,1.38809 1.35024,0.4543 0.76976,1.60262 2.73835,0.21453 -0.31547,2.90239 1.70357,0.13881 0.42905,1.40072 -0.0883,1.71619 -0.87072,0.27763 1.43857,1.99382 -3.7731,3.48287 1.16096,4.02549 -1.35025,-0.27762 2.08215,2.37239 -4.6943,1.86763 -0.41643,1.50167 -2.77621,1.16096 -1.76667,4.45454 -2.70049,-0.36595 -1.04739,0.60572 -0.95905,2.13263 -3.5712,-0.0757 0.54262,2.75096 1.50168,0.60572 0.27761,1.19881 -3.06644,3.34406 -0.97167,-0.74452 -0.74453,1.29977 0.63096,0.88334 -1.42596,1.41333 -3.25573,-2.75096 -3.49549,-1.41334 -1.43857,-1.79191 -5.45146,0.15142 0.27762,8.44219 -5.18645,-1.84239 -1.56477,0.89595 -2.71311,-0.34072 -2.48595,-1.33762 h -7.86171 l -0.17666,-3.88668 -4.66907,0.71929 -3.65954,1.62786 -2.08216,-4.36621 -3.94977,-0.23976 v 0 l 0.30286,-12.90934 2.61216,-0.68143 -0.16406,-4.63122 0.51738,0.0379 -0.2019,-3.78573 -1.21143,-0.0757 -0.88334,-4.01288 1.08524,-1.31238 2.58692,0.17667 1.60262,-1.27454 3.59645,0.75716 0.61833,-2.72573 -3.69739,-2.30931 -0.25239,-10.92813 -4.13906,-0.44167 -1.07263,-3.20525 3.09168,-3.44502 -0.0505,-6.63765 -3.14215,0.68143 -2.56167,-8.22765 9.32551,-4.26525 -1.33763,-3.54597 -1.7162,-0.16405 -4.6312,-2.90239 4.70692,-1.67835 -2.78882,-7.67241 0.70667,-1.00952 -1.7793,-5.53979 v 0 l 6.01931,-2.3093 7.64718,-1.88024 1.91811,0.35333 1.52691,-1.71619 6.1455,-0.36596 0.99691,-1.06 4.68169,-0.90858 0.82024,-1.95596 5.84265,1.21143 2.08215,-0.61834 3.06644,-1.27452 0.74453,-2.52382 1.81715,-1.47644 3.81097,1.43859 4.3662,-0.63097 0.42906,-2.75096 1.67833,-1.9812 -2.06954,-2.46072 -0.61832,-2.58692 2.7762,-0.44167 1.27453,0.84549 1.09786,-0.79501 4.66906,-0.23976 0.94644,0.55523 0.73191,-2.65001 1.38809,-1.23666 0.50477,-2.59954 1.00953,-0.795 5.60288,3.02858 0.11357,-2.28406 -0.69405,-0.78238 -1.22405,0.0505 -0.11357,-1.77928 0.82023,-1.37549 2.59954,0.54263 z"
     inkscape:connector-curvature="0"
     style="fill:#87a4c3;fill-opacity:1;stroke:#ffffff;stroke-width:0.6309551;stroke-opacity:1" />
  <path
     id="KZ-VOS"
     title="Shyghys Qazaqstan oblysy"
     class="land"
     d="m 809.54471,390.06927 12.9472,26.19726 -0.22715,-3.57121 0.55524,0.69405 2.46072,-0.0126 0.17667,-2.86453 1.24929,-0.80763 3.07907,-0.35333 1.29976,-1.47644 0.95905,-0.0126 0.22715,-4.12645 -1.03477,-1.79191 0.11357,-3.07906 4.45455,-0.0379 0.21452,-2.30929 0.98429,-1.64048 5.69122,2.01905 0.13881,0.82024 3.47025,1.7793 1.23667,-1.41334 0.55524,0.2019 0.50476,2.2462 -1.67834,4.27788 -0.37857,3.6343 2.37239,0.0757 4.0255,-1.52692 1.67833,0.0252 1.06001,2.97811 -0.53,0.71929 1.59001,2.61215 -0.69406,2.72573 0.73191,0.17667 6.95312,-0.53 0.27763,-1.64049 0.45429,0.71929 1.69096,-0.98429 3.06644,0.44167 3.76049,2.34715 1.36286,-0.13881 1.59001,-1.28714 6.56193,0.78238 3.98763,-2.80144 0.64358,-4.11383 0.98429,-0.27762 4.90883,1.31238 2.8393,-2.83929 0.42905,-1.80454 1.3881,0.51739 0.98429,1.36287 1.11049,-0.84549 3.59643,0.37858 0.68143,-0.53001 -0.31547,1.11048 4.01287,0.98429 3.14216,2.15787 2.52382,0.45429 3.71001,3.98763 0.64358,2.82668 6.43574,7.76075 -0.56786,2.39763 1.16096,3.62169 -0.54262,2.13262 2.1831,2.97811 2.1074,0.10095 1.64048,-1.08524 2.00643,1.82977 6.24646,2.58692 0.47952,1.43857 2.39763,0.22714 1.61525,1.32501 0.88333,2.01906 -1.12309,0.27762 -0.17667,2.83929 0.8581,1.08525 2.17048,0.65619 2.46073,5.93098 -0.15143,2.85192 1.94334,1.98119 3.48287,0.98429 0.79501,-1.03476 2.41024,-0.46691 3.01597,1.75406 1.93072,-0.51739 1.79191,0.84548 2.27144,-0.22714 0.58048,0.44167 -0.20191,1.70357 1.09787,0.41643 1.325,-1.00953 1.75405,-0.1388 1.56478,2.08215 0.8581,-0.75715 -0.265,-1.21142 1.09786,-2.61216 4.60596,-2.09478 4.45455,-4.41668 0.12619,-1.80453 4.64383,0.0126 -0.87072,2.27143 0.37858,1.21144 -2.06954,1.37548 -0.73191,-0.22715 -1.16096,1.47644 0.31548,2.2462 4.10122,1.41334 -0.41644,0.6562 0.94644,0.78238 -0.25239,2.12 2.33453,1.32502 -0.16404,2.385 0.98426,1.76668 1.43859,0.21453 0.89601,1.53952 3.72263,0.3281 2.24615,1.65311 0.76976,3.87406 -4.35358,-1.90549 -4.06329,1.88025 -2.37244,-0.53001 -1.04739,2.39764 -2.42286,1.88024 0.0883,3.16739 1.89286,3.20526 -1.45119,1.26191 0.27762,2.94025 -1.90548,2.81405 -1.26191,0.51739 -1.11049,3.01597 -3.79834,1.79191 -1.07263,-0.56786 -1.75405,0.32809 -2.53644,2.41025 -4.88359,-0.50476 -4.2905,0.87071 -2.66263,2.18312 -2.95287,7.6724 0.0379,2.68788 -1.71619,5.24954 1.94334,12.05125 -0.42904,3.18 2.53643,5.21169 -0.25238,5.19908 -2.94025,1.4512 -1.14834,4.70692 -7.50836,0.2019 -0.80763,1.67835 -2.94025,2.63738 -2.30929,0.66882 -0.32811,1.52691 -3.82358,1.60263 -2.7131,-0.46691 2.22096,-2.44811 -2.44811,-3.44502 -4.37883,0.95906 -1.90548,-1.16095 -5.24955,0.37856 -4.32835,1.23668 -1.50168,-1.08525 -9.70409,-2.24619 -3.00333,-2.6374 -1.19883,0.34072 -1.41333,-1.85501 -2.61216,-0.15143 -1.71619,-1.62786 -3.50811,0.41643 -0.90858,5.59025 -1.41334,1.56478 -1.1231,4.85835 -2.03167,4.53026 -2.06954,9.32551 -4.20216,9.03528 -1.14833,8.73242 -4.80789,10.92814 -0.82023,4.2905 v 0 l -2.53644,0.90858 -0.89596,-0.7824 0.45429,-7.29384 -3.97502,-4.32835 -1.9181,-7.25598 v 0 l -8.1267,-9.52742 0.87071,-1.14834 -1.41333,-0.16405 1.23666,-0.9212 v 0 l 0.4543,-1.23666 -1.37549,1.48905 -1.71619,-0.68143 v 0 l -0.82025,-0.17667 0.9212,-1.43857 -0.71929,-0.0127 v 0 l -1.09786,1.55216 -1.5143,-2.72573 v 0 l -2.53644,0.93381 v 0 l -1.37548,-2.09477 -7.62193,-0.18928 -15.5215,-7.67242 0.10095,-2.52382 -5.23693,-2.17049 -11.67267,4.07597 -7.69764,-10.78933 -10.91553,1.22406 -1.19881,-3.07906 -3.09168,-0.27763 -4.15168,-3.34406 v 0 l -4.13907,-3.48287 -3.94978,5.03502 v 0 l -3.12954,-3.29358 -3.59644,4.03811 -6.33479,-1.41334 -0.66881,1.23667 v 0 l -2.44811,1.09786 -2.88977,-1.41333 -1.52691,0.94642 -1.1862,3.26835 -3.64692,-1.36286 -2.38501,-1.76667 -1.27452,-2.17049 -2.19573,-1.13572 1.93072,-0.7319 1.04739,-2.54906 -0.12619,-2.76359 2.32191,-0.36595 2.23359,0.98429 -1.55216,-7.42003 -1.06,-1.70358 2.68786,-8.42956 1.21144,0.0505 0.22714,-3.02859 1.67835,-0.0127 -1.46382,-2.10739 4.56811,-1.66572 -1.74143,-1.3881 -2.47335,0.18929 -3.15477,-2.87716 0.64357,-1.89286 2.15787,-0.0884 0.53,-1.29977 -4.99716,-0.25237 -0.34072,-1.61525 -2.12001,-0.98429 -0.90858,-1.86763 1.94335,-0.59309 -0.27763,-1.9181 1.27453,-1.17359 3.12954,0.54262 4.51764,-4.64383 1.00953,-5.60288 -1.00953,-3.00334 -10.0448,1.6531 -1.72882,-3.44501 0.35334,-3.87407 2.04429,-1.06 0.50476,0.71929 2.34716,-0.99691 -4.35359,-3.62168 -0.0631,-2.37239 -3.68479,-3.04121 -2.06953,-0.68143 0.0631,-1.26191 -1.96859,-2.25882 0.36596,-2.15787 12.17744,-5.13597 2.68786,-5.41359 -0.64357,-1.72882 0.56785,-2.29668 -0.74452,-1.11047 0.68143,-2.91502 2.23358,-0.0631 4.5555,-2.34716 1.93072,-2.68786 3.60906,-3.00335 0.55525,-2.15787 v 0 l 1.62785,-0.95905 1.4512,2.54906 10.53695,4.39144 3.97502,0.98429 3.38192,-1.55214 4.21478,-7.6598 1.67834,-1.74144 -0.70667,-4.99715 -2.32192,-0.6562 0.88334,-8.59361 -6.71336,-4.21478 -3.12954,-3.28097 -1.86762,-0.56786 -0.66882,-3.91192 -2.94025,-4.25264 2.09478,-2.03167 0.56786,0.45429 2.65001,-1.41334 0.31547,-1.41334 1.50168,-0.66881 0.55524,1.27452 3.1043,-0.97166 5.02239,-3.19263 1.27454,0.44166 0.15142,-3.44501 -1.2619,0.21452 -0.11358,-2.34715 4.90884,-0.71929 0.68143,0.82024 3.16739,-3.1043 -0.65619,-2.14525 3.76049,-0.95905 0.65619,-3.84882 1.84239,-0.21452 v 0 z"
     inkscape:connector-curvature="0"
     style="fill:#87a4c3;fill-opacity:1;stroke:#ffffff;stroke-width:0.6309551;stroke-opacity:1" />
  <path
     id="KZ-YUZ"
     title="Ongtüstik Qazaqstan oblysy"
     class="land"
     d="m 509.03342,592.7699 46.38782,0.7319 v 0 l 4.44193,7.25599 5.5524,15.77387 3.02858,13.11125 1.40072,1.99382 4.08859,25.30129 -0.9212,0.61834 -0.44166,2.91502 -1.70358,2.66262 -0.40381,3.8993 -3.01596,8.39171 -3.3062,4.73216 2.57429,0.90857 -0.68143,1.06001 1.06,3.28097 1.88025,-0.54262 -0.27762,1.22405 1.70358,-0.265 2.59953,1.89287 0.75714,-1.86763 0.55525,0.0505 0.47952,1.98119 2.20834,0.20191 0.60573,0.88334 0.87071,-0.34072 0.60571,0.75715 -0.44167,1.47643 1.2493,1.21144 0.90858,-0.60572 0.63095,0.47953 -0.88334,1.56476 1.56477,0.97167 -0.63095,0.63096 0.83286,1.17357 -0.25239,4.36621 0.47953,0.5931 -0.60572,1.59 2.5743,1.59002 1.80453,-0.10096 0.27762,1.11049 1.4512,0.54262 0.13881,1.08523 0.795,0.21453 1.00953,1.82977 1.33762,0.25238 1.66572,2.91501 1.95597,-0.51738 v 2.0443 l 1.06001,0.0505 1.38809,2.01906 v 0 l -0.22714,2.48597 1.56477,0.16404 -2.46073,2.13263 -1.06,-0.51739 -0.80762,0.75715 -2.09478,2.54906 -1.22405,3.55859 -1.66572,-0.58048 -0.31547,-1.66573 -3.31883,-2.00643 -0.47953,1.56477 -1.67833,1.59001 0.2019,1.93072 -2.22096,1.13572 -1.96858,3.16739 -2.39764,1.35025 -0.55523,1.29976 -1.19881,-0.7319 -1.00953,2.27143 -1.55215,0.63096 -1.28716,-0.71929 -5.18644,1.99382 -2.59954,3.24311 -2.29667,1.17357 -0.39119,0.68143 0.65619,1.41335 -5.43884,0.0379 -2.35977,2.29668 -0.60572,1.51429 -1.36285,-0.0757 -2.15788,4.83312 -2.01905,1.42595 -3.58383,5.86789 -1.72881,1.00953 -0.27762,-0.8581 0.94643,-0.64357 -1.47643,-0.25239 -0.26501,-0.80762 -1.24929,0.78239 -2.7762,-0.47954 0.0126,0.68144 1.91811,0.1262 0.4669,0.7319 -0.39119,5.75431 4.06335,5.9436 -2.28406,0.90857 -1.27453,-0.0884 -0.42904,0.59309 -2.58692,-0.75714 0.29024,-0.60571 -1.00953,-0.83286 -0.99691,0.265 -2.17049,-1.85502 -2.00643,-0.70666 -1.90549,-2.13263 -4.35359,-2.15786 -0.75715,-1.06001 0.3912,-1.21144 2.15787,-0.0757 -0.0505,-2.76358 0.78239,-0.78239 -0.73191,-1.82977 2.05691,-1.06 -1.46382,-0.79501 -2.83929,1.11048 -4.05073,-3.76049 -9.48957,0.0757 -18.18413,-1.65309 -1.84239,-21.02343 -12.78315,-1.55215 0.6562,-14.01982 3.88668,0.76977 9.90599,-10.27195 3.44502,2.12 6.90265,-6.96574 6.13289,-4.60597 6.54931,-2.42287 10.53695,-5.60288 0.10095,-1.11048 -1.74144,0.46691 -0.94643,-2.27144 0.42905,-1.79191 -1.42596,0.0631 0.265,-1.51429 -1.33762,0.75715 0.39119,2.12001 -1.04739,0.64357 -0.7319,-3.24311 2.48596,-0.71928 0.30286,-3.88669 2.33454,-2.39763 -0.0127,-5.32526 2.42288,2.10739 1.04738,-0.50476 0.27762,-3.6343 -1.23668,-2.59954 2.75097,-1.94334 0.94643,0.75714 1.72882,-1.71619 -6.73861,-4.80789 -2.81405,-3.41976 -0.0631,-1.14835 -2.81407,-1.57738 -1.48905,0.47952 -2.61215,-2.54905 0.78238,-2.81407 -0.15143,-24.10248 -3.8993,-1.66572 -4.65645,-3.86145 2.54906,-11.93767 2.19572,-3.67216 -0.74452,-2.385 -3.87407,-2.99074 z"
     inkscape:connector-curvature="0"
     style="fill:#87a4c3;fill-opacity:1;stroke:#ffffff;stroke-width:0.6309551;stroke-opacity:1" />
  <path
     id="KZ-ZAP"
     title="Batys Qazaqstan oblysy"
     class="land"
     d="m 107.83433,380.26423 3.25573,-0.18928 0.95905,0.69404 5.02241,-0.8581 0.69405,1.04739 1.55215,0.37857 0.17666,1.55215 -0.34071,1.88024 -2.68787,0.40382 0.82024,2.1831 3.76049,0.69405 2.20834,-1.11048 1.14835,-1.96858 0.49214,1.06001 1.00953,-0.0127 0.45429,0.76976 -0.68143,1.35024 0.75714,0.4543 3.57121,-2.13263 -0.94644,-2.66263 2.47334,-3.6343 2.27145,0.15143 1.89286,1.07262 1.96858,-0.16405 1.29977,-1.17357 0.31547,-1.31239 2.14525,0.0757 1.62787,-1.9181 0.84548,0.49214 0.50476,3.81097 2.96549,4.31573 0.23976,1.50168 0.98429,0.66881 -0.0883,1.07262 1.27453,-0.4038 -0.0379,0.68142 0.78239,0.0631 -0.25239,-0.56787 0.7193,0.13882 0.30285,-0.99691 0.70667,1.28715 -0.17666,-0.78238 1.61524,-0.22715 -0.12619,-0.8581 0.58047,0.31548 0.20191,-1.04738 0.97168,1.07262 1.94334,-0.18929 -0.5931,1.09786 1.41333,-0.89595 0.63096,1.48905 0.60572,-0.98429 0.69405,0.3281 1.67833,-0.95905 2.09478,0.37856 -0.39119,-1.33761 1.13572,-0.41643 0.0505,0.92119 1.67833,0.17666 0.40381,0.83286 2.37239,-1.06 2.91502,2.91502 1.96858,0.42904 1.37548,1.55215 -0.0631,0.73191 -0.70667,0.10095 0.66882,0.84549 -0.54262,1.55215 1.69095,3.10429 1.7793,0.90857 1.4512,-0.39119 1.00953,0.8581 1.1231,-0.41643 3.35667,1.53954 0.63096,1.07262 1.9812,0.95905 0.0379,2.24619 0.50477,-0.52999 0.69405,1.02214 -0.60572,0.76977 0.37858,0.9212 2.83929,4.32834 3.57121,0.49215 1.70358,0.9212 -2.19572,8.66932 2.08215,3.21787 1.40072,-0.44167 v 0 l 0.37857,0.54262 -3.09168,3.68478 0.41643,1.09786 -2.61215,2.7762 1.84239,2.56168 -0.36596,5.90574 2.88977,2.10739 0.31548,1.9181 -1.00953,3.34407 -2.35976,4.15168 1.43857,1.75405 h -2.71311 l -2.22096,3.49549 0.56786,1.0474 -2.41024,1.42594 -5.12337,-0.31547 -0.44166,1.82977 -2.39763,-0.0126 -1.89286,1.70358 -0.99692,2.54906 -1.5269,-0.75715 0.8581,1.96858 -1.61526,5.51455 0.22715,3.49549 v 0 l -5.5524,5.24955 0.64357,1.50167 -3.79834,1.19882 -8.5179,-0.0127 -1.51429,-0.7319 -1.4512,3.40715 -2.1831,-0.94643 0.37856,9.01004 -2.95286,0.12619 -1.7162,7.21813 0.55524,1.81715 -1.72882,1.04739 -2.63739,0.0631 -5.38835,-3.05383 -1.07263,0.13882 -0.87071,1.53953 -7.8617,-1.79191 0.18928,-3.02859 0.84548,-0.5931 -0.6562,-1.33762 -10.37289,-1.79191 -2.91502,1.33762 -5.07287,0.35334 -1.37548,4.27787 -2.25882,1.3881 -1.00953,-0.50476 -2.28406,2.1831 -1.53954,0.0379 -13.477183,9.04789 -4.971926,5.09813 -4.126446,-0.10096 -1.337624,1.09786 -7.634557,-0.41643 0.189287,3.78573 -12.000766,-4.7574 -6.801695,-1.90549 -34.109431,-4.3662 -2.877156,0.15143 -3.710015,-1.23668 v 0 l -2.246332,-3.14203 -2.9150126,-0.36595 -7.68503254,-3.50811 7.01622014,-18.32294 3.899303,-2.42287 2.473345,-4.31573 0.340715,-1.70358 -0.757146,-1.64048 -5.8552642,-4.63122 0.9085753,-8.41693 0.9716709,-1.93073 1.173577,-9.55266 6.233837,-2.46072 4.189541,-6.38527 -1.766674,-4.00025 1.615246,-1.65311 -0.593099,-0.66881 0.416431,-2.75096 2.157867,-0.30286 0.02524,-1.45119 2.460726,-3.00335 1.034766,-0.25239 1.766674,0.93382 2.95287,2.27144 0.593098,1.50167 1.173576,0.32809 3.167395,4.30312 1.085242,2.65001 2.599535,2.19573 0.807622,3.6974 2.145247,3.21787 0.02524,1.37548 2.296676,0.17666 2.031675,2.01906 0.731908,0.30286 0.214525,-1.17358 7.382175,-3.35668 3.495491,-3.67216 -0.630955,-2.37239 -2.372392,-0.94643 0.593098,-2.65001 -1.930722,-4.18955 -1.577388,-9.66622 0.353335,-1.17359 -2.25882,-2.91501 1.829771,-0.55523 1.653102,1.5269 3.041203,0.88335 2.788822,-2.24621 3.78573,-4.80787 7.785985,-2.9024 0.02524,-1.46382 -2.170486,-3.93715 1.350244,-2.25883 -0.176667,-1.59 1.198815,-1.27453 2.044294,0.83286 2.208342,-0.63095 3.470254,0.37857 4.858353,-4.65645 10.612665,-4.13907 -0.832861,-1.70357 0.946433,-0.97168 -0.555241,-0.95905 2.713107,-0.23976 0.07572,-1.38809 h 1.173576 l -0.27762,-3.86145 1.653101,-2.72573 3.646915,0.55524 -1.24929,2.23358 2.72572,-0.80762 0.39119,-2.72573 -1.35024,-1.02214 0.12619,-3.05383 2.92763,0.99691 z"
     inkscape:connector-curvature="0"
     style="fill:#87a4c3;fill-opacity:1;stroke:#ffffff;stroke-width:0.6309551;stroke-opacity:1" />
  <path
     id="KZ-ZHA"
     title="Zhambyl oblysy"
     class="land"
     d="m 678.17986,592.83299 -1.96858,4.30311 v 0 l -2.33454,3.93716 1.06001,12.87149 1.33763,3.52073 -7.40742,-0.54262 0.44167,6.44835 6.87741,0.17667 0.20191,4.21479 1.43858,2.65001 7.87431,5.51454 2.34716,4.05074 -1.12311,4.13906 0.79501,1.24929 4.68168,4.47978 5.4767,0.5931 2.76358,2.20834 1.52691,0.21452 1.3881,1.88025 2.54907,1.74144 0.11356,4.21477 -1.64048,2.71312 0.56786,2.43548 -0.58048,1.57739 -6.29693,5.53978 0.0127,2.17049 4.13907,1.4512 2.22095,-0.39119 -0.36595,1.17357 3.67216,-0.45429 0.88334,1.48906 -3.25573,3.94978 -0.27763,2.85191 0.93382,0.55524 -0.34072,1.4512 0.94644,0.41643 0.58048,2.39763 6.99098,2.67525 -0.6562,1.33762 v 0 l -1.41333,0.42905 0.27762,0.54263 v 0 l 2.37239,-0.265 1.36287,0.8581 1.27452,-0.55525 0.44167,1.16096 v 0 l -1.04739,3.18002 -1.33762,1.31238 -2.5112,-0.795 -4.5555,-0.0379 -2.58691,-1.13572 -2.94026,0.49214 -4.82049,-3.26835 -1.95596,-0.55523 -0.32809,-0.88334 -1.81716,-0.76977 -2.37239,0.37858 -3.12954,-4.25264 -2.65001,-1.23667 -0.46691,-0.84548 -3.5081,-0.70667 -1.17358,-1.09786 -3.05382,0.0127 -0.27763,1.76667 -2.59953,0.89595 -2.39763,-1.13572 -1.55215,3.1674 -2.75096,-0.37857 -5.38836,2.86453 0.0757,1.06001 -1.50168,2.80144 0.0884,4.12644 -1.95597,5.19908 0.36596,3.84882 1.84239,2.37239 -0.55524,0.97167 -3.55859,-0.59309 -0.88333,-0.73191 -0.29024,-1.88025 -4.68169,-0.97167 -4.79526,0.0127 -2.37239,-1.08525 -1.70358,-2.35976 -3.3693,-1.41334 -2.63739,-0.11357 -5.31264,-2.46073 -3.9624,0.75715 -6.28431,-3.20526 -5.77955,2.25883 -2.68787,-1.47644 -3.11692,0.40381 -0.59309,0.66881 -2.18311,-0.11357 -1.21143,2.90239 -1.29977,0.69405 -0.22714,2.08215 -3.0412,0.35334 -0.76977,0.68143 2.03167,2.81406 -0.82024,0.97167 -1.57739,-1.03477 -0.40381,0.34072 -2.28406,4.80788 v 0 l -1.38809,-2.01906 -1.06001,-0.0505 v -2.0443 l -1.95597,0.51738 -1.66572,-2.91501 -1.33762,-0.25238 -1.00953,-1.82977 -0.795,-0.21453 -0.13881,-1.08524 -1.4512,-0.54261 -0.27762,-1.11049 -1.80453,0.10096 -2.5743,-1.59002 0.60572,-1.59 -0.47953,-0.5931 0.25239,-4.36621 -0.83286,-1.17357 0.63095,-0.63096 -1.56477,-0.97167 0.88334,-1.56476 -0.63095,-0.47953 -0.90858,0.60571 -1.2493,-1.21143 0.44167,-1.47643 -0.60571,-0.75715 -0.87071,0.34072 -0.60573,-0.88334 -2.20834,-0.20191 -0.47952,-1.98119 -0.55525,-0.0505 -0.75714,1.86763 -2.59953,-1.89287 -1.70358,0.265 0.27762,-1.22405 -1.88025,0.54262 -1.06001,-3.28097 0.68144,-1.06001 -2.57429,-0.90857 3.3062,-4.73216 3.01596,-8.39171 0.40381,-3.8993 1.70358,-2.66263 0.44166,-2.91501 0.9212,-0.61834 -4.08859,-25.30129 -1.40072,-1.99382 -3.02858,-13.11125 -5.5524,-15.77387 -4.44193,-7.25599 v 0 l 58.74192,-0.265 23.48415,-0.87072 z"
     inkscape:connector-curvature="0"
     style="fill:#87a4c3;fill-opacity:1;stroke:#ffffff;stroke-width:0.6309551;stroke-opacity:1" />
  <path
     id="KZ-AS"
     title="Aral Sea"
     class="water"
     d="m 350.34823,564.85644 -0.40382,3.77311 -0.1388,2.15787 2.42286,2.96549 7.15503,0.54262 1.35024,-1.08524 0.94644,0.1388 -0.31548,6.29694 -1.53953,2.62477 -4.69431,2.28406 -1.76667,1.60263 -2.57429,0.45429 -2.28406,2.12 v 0 l -1.26191,2.73835 v 0 l -1.94335,0.4038 -1.53952,0.4543 v 0 l -0.29024,1.22405 -1.19882,4.29049 -1.26191,0.85811 0.11357,1.08523 v 0 l 0.0631,1.37548 1.19881,1.31239 0.51739,2.00644 0.4038,1.6531 v 0 l -1.03476,4.17693 v 0 l -0.29024,1.26191 1.14834,0.8581 0.56785,2.05691 -0.56785,7.54622 2.23358,4.63121 1.48905,0.11358 0.97167,1.19881 1.60263,6.00669 -1.19881,4.92145 -1.96859,1.48906 -30.07131,-21.70486 -0.0252,0.0126 v 0 l -0.42905,-2.05692 -1.6531,-1.31238 -1.26191,-3.54597 0.74453,-2.05691 -0.4543,-4.06335 -3.25572,-1.26192 -1.7162,2.12001 v 0 h -3.20525 l -0.92119,3.36931 v 0 l -6.06979,-4.37883 -2.25882,0.87072 v 0 l 0.87071,-2.41025 1.08525,-0.54262 1.07262,-5.12335 2.29668,-4.05074 5.83003,-2.44811 0.0379,-0.0127 v 0 l 2.62477,0.9969 v 0 l 1.53954,-0.11356 0.51737,-0.4543 1.89287,-1.48905 1.19882,0.63096 1.03477,0.74453 v 0 l -1.48906,2.17047 v 0 l -0.74453,1.08525 -0.68143,1.08524 -0.17667,3.48287 4.06335,-0.63095 v 0 l 1.08525,0.40382 0.90857,-0.74453 0.51739,-1.37549 0.51738,-1.6531 1.6531,0.0631 0.97167,-2.86454 -0.56786,-4.34097 0.45429,-1.6531 -3.31882,-5.71645 -0.0631,-1.37549 0.79501,-0.17667 5.60288,0.29024 0.97166,1.19881 v 0 l 0.63096,4.29051 v 0 l -0.45429,2.39762 0.79501,0.45429 v 0 l 1.7162,-0.11357 3.31882,-2.68787 5.83003,1.03477 4.29049,2.80144 4.6312,-0.63096 2.62478,-1.65311 0.56786,-4.34096 -1.94334,-3.25573 -0.22714,-2.23358 -2.00645,1.37548 -1.89285,1.31239 -2.57431,-1.37549 -0.68143,-1.31238 -6.97836,1.19882 -1.7162,-0.74453 -2.15786,-3.65954 0.15143,-2.52382 1.00952,-1.35024 5.56503,-3.71002 h 1.69096 v 0 l 1.18619,1.18619 0.66882,1.35024 v 0 l 0.16404,4.5555 0.90858,-0.64357 v -3.91193 l 3.50811,1.35025 1.35024,-0.66881 1.89287,-1.61525 v -1.62786 l -2.8393,-1.35024 -1.35024,-0.66882 0.13881,-1.21143 2.15786,-0.13881 h 1.21144 v 0 z m -19.59747,40.24232 3.48288,-1.91811 h 6.52407 l -0.35333,-0.60571 -4.87098,-0.51739 -0.60572,-1.29976 -3.12953,-0.35334 -2.08215,0.17667 -4.08859,0.60571 -0.0883,1.82978 -0.0884,2.61215 h 2.61215 z"
     inkscape:connector-curvature="0"
     style="fill:#cccccc;fill-opacity:1;stroke:#ffffff;stroke-width:0.6309551;stroke-opacity:1" />
  <g
     id="stadiums"
     data-country="kazakhstan"
     data-circle-radius="6"
     data-circle-colors="#a149be,#bea149"
     transform="matrix(1.2619101,0,0,1.2619101,-0.31375293,2.3961989)" />
</svg>
