<?xml version="1.0" encoding="UTF-8" standalone="no"?>
<?xml-stylesheet type="text/css" href="/styles/home.css"?><!-- https://www.amcharts.com/svg-maps -->

<svg
   version="1.1"
   id="map-kosovo"
   viewBox="0 0 1000 1000"
   width="1000"
   height="1000"
   class=""
   sodipodi:docname="kosovo.svg"
   inkscape:version="1.3.1 (91b66b0783, 2023-11-16)"
   xmlns:inkscape="http://www.inkscape.org/namespaces/inkscape"
   xmlns:sodipodi="http://sodipodi.sourceforge.net/DTD/sodipodi-0.dtd"
   xmlns="http://www.w3.org/2000/svg"
   xmlns:svg="http://www.w3.org/2000/svg"
   xmlns:rdf="http://www.w3.org/1999/02/22-rdf-syntax-ns#"
   xmlns:cc="http://creativecommons.org/ns#"
   xmlns:dc="http://purl.org/dc/elements/1.1/">
  <metadata
     id="metadata16">
    <rdf:RDF>
      <cc:Work
         rdf:about="">
        <dc:format>image/svg+xml</dc:format>
        <dc:type
           rdf:resource="http://purl.org/dc/dcmitype/StillImage" />
      </cc:Work>
    </rdf:RDF>
  </metadata>
  <sodipodi:namedview
     pagecolor="#ffffff"
     bordercolor="#666666"
     borderopacity="1"
     objecttolerance="10"
     gridtolerance="10"
     guidetolerance="10"
     inkscape:pageopacity="0"
     inkscape:pageshadow="2"
     inkscape:window-width="1920"
     inkscape:window-height="1106"
     id="namedview14"
     showgrid="false"
     showguides="true"
     inkscape:guide-bbox="true"
     inkscape:zoom="0.47903816"
     inkscape:cx="81.413139"
     inkscape:cy="153.43245"
     inkscape:window-x="-11"
     inkscape:window-y="-11"
     inkscape:window-maximized="1"
     inkscape:current-layer="map-kosovo"
     inkscape:showpageshadow="2"
     inkscape:pagecheckerboard="0"
     inkscape:deskcolor="#d1d1d1">
    <sodipodi:guide
       position="500,702.62216"
       orientation="1,0"
       id="guide823"
       inkscape:locked="false"
       inkscape:label=""
       inkscape:color="rgb(0,0,255)" />
    <sodipodi:guide
       position="68.084974,659.94416"
       orientation="1,0"
       id="guide1"
       inkscape:locked="false" />
  </sodipodi:namedview>
  <defs
     id="defs4">
    <style
       id="style2"
       type="text/css">
			.land
			{
				fill: #f8997b;
				fill-opacity: 1;
				stroke:white;
				stroke-opacity: 1;
				stroke-width:0.5;
			}
         .rectangle:hover {
         fill: #bdbdbd;
         cursor: pointer;
         }
		</style>
    <!-- <amcharts:ammap projection="mercator" leftLongitude="20.047335" topLatitude="43.270140" rightLongitude="21.814235" bottomLatitude="41.783403"></amcharts:ammap> -->
    <!-- All areas are listed in the line below. You can use this list in your script. -->
    <!--{id:"XK-PR"},{id:"XK-KM"},{id:"XK-DA"},{id:"XK-GN"},{id:"XK-PE"},{id:"XK-UR"},{id:"XK-PZ"}-->
  </defs>
  <path
     id="XK-PR"
     title="Pristina"
     class="land"
     d="m 423.45901,456.79951 1.75111,-8.85585 -3.10684,-4.75088 0.77671,-5.55465 3.50228,-3.55958 4.29309,-10.69304 10.91633,-4.76523 7.01866,0.40188 2.33013,-4.75086 -3.50228,-9.90364 1.94884,-5.94218 h 7.01865 l 0.77672,-4.36335 3.89769,-2.77015 h 7.01865 l 5.06981,3.55957 0.38129,4.76522 4.67439,1.57885 8.19078,-5.94218 1.56754,-10.30552 7.39996,-0.38754 9.74419,-4.76523 h 4.29312 l 2.33012,5.94219 13.26059,16.64958 5.06982,-0.40188 13.64188,-13.86509 20.66052,-14.6545 -1.56754,-7.1335 1.17215,-3.17203 4.29309,-0.78942 1.55342,-13.07568 -6.22782,-3.96144 0.38131,-4.36334 15.59071,-14.65451 3.51638,-0.78943 v -3.17204 l 8.17666,-0.40188 1.56755,-7.52101 -1.94885,-7.92292 -8.19078,-7.9229 -5.06981,-1.19131 -1.94883,-21.40046 -4.27897,-6.32972 -1.17214,-8.3248 -3.12096,-4.75086 v -8.71234 l 5.4511,-5.94218 0.79083,-12.28624 3.89769,-11.09495 -0.39542,-9.90364 -11.69304,-30.9022 -9.36291,-3.57392 -2.72555,-5.13842 1.17212,-7.13347 -8.19078,-4.36335 -1.94885,-8.95633 -5.05568,-6.32973 3.10684,-15.84581 -5.84651,-9.5161 -8.17665,4.36333 -8.33201,-15.57311 v 0 l 10.88808,-3.66004 6.75035,-5.296282 21.04182,7.535372 17.9491,-10.721756 4.44845,-0.344476 11.55182,11.941762 7.18811,21.3 8.69918,-7.99468 4.99919,-1.96637 2.28777,1.49273 3.37517,6.02829 2.49961,16.47736 0.97442,62.53646 h 2.20303 l 10.46442,-18.07057 5.8324,-3.18639 4.25074,0.60284 6.75034,5.15275 7.14574,21.60141 -10.71862,33.01212 1.96297,5.4829 21.90326,-2.09557 23.14602,5.88476 12.80868,12.9178 8.61444,17.29547 3.21983,1.42097 11.55182,-5.13841 3.57288,5.13841 -1.22863,17.69735 -4.745,14.25262 -9.09459,13.36275 -0.43778,11.94178 2.2454,6.07133 35.61577,2.6984 5.95949,5.5403 15.18121,5.75558 v 0 l 0.50838,6.21488 -5.06982,11.09495 -5.84651,1.98074 -1.55342,11.49682 -13.64188,-1.19131 -5.06982,-5.15276 -3.89768,-0.78942 -8.96749,6.73161 8.17666,8.3248 v 4.75087 l 9.36291,3.17203 2.72554,4.75087 5.84653,1.59319 1.94884,5.13842 -2.72556,1.98073 4.2931,7.93725 -4.6885,1.98072 -1.15802,8.31045 4.6744,5.15276 5.45111,2.38262 1.56753,9.11421 7.39995,5.54029 3.89769,9.90364 -7.39996,2.77015 -2.34424,3.57392 -9.3488,-5.15275 -4.29309,2.77013 -3.50227,-4.75087 h -7.01865 l -7.41407,9.11421 1.56755,11.88436 -6.24194,3.55958 -9.34878,-3.17203 -2.73968,-6.32973 -8.17665,-1.98072 -1.94885,-3.57392 -12.86517,5.55464 -5.46522,-1.98072 -3.10685,-3.96146 -6.63736,-0.40188 -7.39994,4.75087 -5.84654,11.49682 8.9675,11.09496 -3.5164,5.15276 0.77673,6.73159 7.79537,5.54029 -0.38131,3.96145 -3.51639,9.51612 -13.24646,-1.98073 -1.94883,3.17202 2.72555,5.13842 -1.52518,12.20013 v 0 l -0.0283,-0.0718 v 0 l -3.51638,1.19132 -1.94885,3.96145 -3.12096,-0.40189 -7.00453,-10.29117 -5.84652,0.78942 -5.06982,-3.96145 -9.7442,0.38753 -9.74421,3.57392 -5.0698,-1.5932 -8.57208,5.55466 -4.29309,-0.4019 -3.51639,-10.29117 -15.19531,-1.19129 -5.46522,-4.76524 -14.41861,6.74597 -8.96748,-4.36336 -11.69305,0.78944 -7.79537,-6.32973 -1.55341,4.34899 -9.74421,1.98074 -1.94883,-6.32973 -8.5862,-2.3826 -9.74421,6.73159 -1.55342,4.36333 -14.39035,1.89463 v 0 l -0.0284,-0.31577 v 0 l -2.73967,-11.09495 -8.57208,-2.77014 -8.19077,5.94218 -3.89769,-3.17204 5.06981,-6.73159 -2.72554,-8.31044 7.79535,-0.80379 0.39541,-9.50174 -2.73967,-1.1913 -1.94884,-5.94219 -3.10683,0.78942 -3.5164,8.71232 h -9.3488 l -3.51637,3.17203 -6.62324,0.80378 -7.39994,7.92292 -1.94883,-8.3248 4.67438,-5.55464 0.77671,-10.29118 4.2931,-3.96146 0.7767,-9.90363 -11.69303,-7.9229 v -3.96146 l 5.84652,-5.94218 1.17214,-7.13349 -7.79537,-4.36334 -9.39116,1.39225 v 0 z"
     inkscape:connector-curvature="0"
     style="fill:#f8997b;fill-opacity:1;stroke:#ffffff;stroke-width:0.711854;stroke-opacity:1" />
  <path
     id="XK-KM"
     title="Kosovska Mitrovica"
     class="land"
     d="m 519.79951,105.67974 8.33201,15.57311 8.17665,-4.36333 5.84651,9.5161 -3.10684,15.84581 5.05568,6.32973 1.94885,8.95633 8.19078,4.36335 -1.17212,7.13347 2.72555,5.13842 9.36291,3.57392 11.69304,30.9022 0.39542,9.90364 -3.89769,11.09495 -0.79083,12.28624 -5.4511,5.94218 v 8.71234 l 3.12096,4.75086 1.17214,8.3248 4.27897,6.32972 1.94883,21.40046 5.06981,1.19131 8.19078,7.9229 1.94885,7.92292 -1.56755,7.52101 -8.17666,0.40188 v 3.17204 l -3.51638,0.78943 -15.59071,14.65451 -0.38131,4.36334 6.22782,3.96144 -1.55342,13.07568 -4.29309,0.78942 -1.17215,3.17203 1.56754,7.1335 -20.66052,14.6545 -13.64188,13.86509 -5.06982,0.40188 -13.26059,-16.64958 -2.33012,-5.94219 h -4.29312 l -9.74419,4.76523 -7.39996,0.38754 -1.56754,10.30552 -8.19078,5.94218 -4.67439,-1.57885 -0.38129,-4.76522 -5.06981,-3.55957 h -7.01865 l -3.89769,2.77015 -0.77672,4.36335 h -7.01865 l -1.94884,5.94218 3.50228,9.90364 -2.33013,4.75086 -7.01866,-0.40188 -10.91633,4.76523 -4.29309,10.69304 -3.50228,3.55958 -0.77671,5.55465 3.10684,4.75088 -1.75111,8.85585 v 0 l -1.75114,0.17223 v 0 l -4.6744,2.38261 -3.12097,-1.19129 -1.94885,-10.69307 -7.39992,-5.5403 -11.70718,-2.3826 -2.33013,-11.88437 8.57207,-6.34406 -2.34426,-7.13348 -3.89768,-2.36827 3.12098,-3.57392 -6.62323,-6.32971 -3.50228,1.57884 -1.17214,5.55464 -4.29309,4.34899 -7.79535,0.40189 -10.52092,-16.2477 -1.17212,-6.34407 -7.79538,-3.55957 -0.7767,-4.75088 2.72555,-5.94218 5.06982,-0.40188 5.0698,-5.94219 2.33013,-6.73159 0.39541,-5.94219 -5.84651,-5.15276 -1.94883,-7.92289 6.2278,-12.6738 v -11.49683 l 5.06981,-9.90362 0.77671,-11.88438 H 361.6751 l 0.39542,-9.11421 -4.2931,-6.34407 -4.27898,-2.36825 -1.56753,-5.15276 -4.27899,-4.36335 -8.19077,-0.78942 -1.94885,-5.94219 -15.59073,6.34406 -18.03382,2.36827 v 0 l 4.58966,-13.21919 -14.53158,-18.40067 -4.30722,-10.27682 -0.87557,-7.92289 5.5782,-11.91308 15.54837,-9.74575 11.29762,-11.23848 10.02665,-5.28194 15.16707,-4.06193 3.71408,-2.8419 14.09379,7.17654 -0.1977,-9.01373 28.32879,-4.19111 1.85,-5.28193 -0.53665,-14.64017 -5.81827,-12.68814 -1.90648,-12.74554 0.24007,-16.82184 -8.85451,1.62189 -3.7141,-4.53557 -2.24539,-9.774451 3.71409,-10.865293 -0.49427,-7.262666 -20.92885,-21.730584 -3.53052,-6.186185 1.46869,-4.492519 23.42847,-5.899122 14.43271,-7.00431 22.01625,-14.955924 11.98959,-3.545215 18.92354,-15.30039873 18.00559,-0.143531 12.90754,8.31044063 26.56355,47.8532191 -1.6664,5.569001 -2.9374,0.14353 -14.37623,-6.186185 -8.41671,1.019073 -5.04156,4.621695 3.37515,15.960642 12.22968,12.415426 13.06287,2.999796 z"
     inkscape:connector-curvature="0"
     style="fill:#f8997b;fill-opacity:1;stroke:#ffffff;stroke-width:0.711854;stroke-opacity:1" />
  <path
     id="XK-DA"
     title="Đakovica"
     class="land"
     d="m 284.72415,692.56342 -15.67547,-17.99877 -15.90141,-4.54994 -1.31335,-2.88497 -8.85451,-1.66496 -5.28164,-8.84151 -19.95443,-7.30572 0.48015,-4.67911 -8.2614,-7.77937 -5.7759,0.20094 -9.2923,8.1095 -7.96483,-5.82737 -16.09912,3.55959 -7.14575,-4.69348 1.36984,-6.43019 -4.88623,-8.58313 3.7141,-3.08592 0.63549,-11.0519 -2.64082,-7.04736 -15.26591,-13.9512 3.09272,-6.43019 5.76179,-4.76523 -3.41754,-11.88435 -13.30294,-11.81261 2.40075,-7.17654 -7.24459,-7.79374 -1.56756,-8.06643 -6.01598,-6.51632 -0.49428,-6.84643 -6.25606,-4.83698 -14.77165,-6.18618 -0.87556,-3.02852 -9.885423,-3.4878 -6.411404,-12.17142 -6.849186,-2.95672 7.442313,-21.85977 -2.979748,-10.36294 0.480148,-11.31023 5.041565,-6.32971 5.719426,-3.08592 12.766309,-16.13288 v 0 l 8.41674,6.22923 31.95815,5.13843 -7.39994,9.91798 1.17212,5.13841 3.89768,1.19129 5.84652,9.90364 11.29764,0.40189 6.62321,4.75087 20.66053,7.1335 9.74423,-4.36335 1.94883,-5.1384 4.2931,0.78942 12.86517,14.25262 -4.6744,1.98072 1.94884,3.96146 3.12098,3.57393 5.45111,0.78941 1.17212,3.57392 -5.46521,6.32972 4.29309,3.17203 15.59072,-0.78942 8.96747,-5.55464 11.29766,3.57391 h 8.19077 l 9.3629,-4.36335 10.1255,1.5932 8.19079,6.32972 10.13962,-2.36826 3.10684,3.96145 -2.33013,5.54028 3.12096,3.96148 v 4.36332 l 5.45111,8.71234 3.89769,-1.57884 v 0 l 4.29309,-0.40189 v 0 l 5.06979,2.77015 3.10686,8.71234 3.51639,2.3826 7.79537,0.4019 2.34425,14.65449 26.50707,1.98074 9.7442,7.13348 1.15801,4.75088 10.91633,2.77014 -1.55342,8.32479 3.89767,3.55958 4.67439,0.40187 1.94883,3.55959 -5.84651,5.94218 8.19079,9.91799 -1.94886,15.44393 2.72556,8.71231 -3.89767,3.96146 1.55342,10.30552 -4.27897,2.77015 -2.34427,10.70741 -5.45111,4.75086 -3.51639,-1.19129 -5.84651,-13.86509 h -7.01866 l -7.79537,13.86509 -6.2278,6.34408 -1.17213,5.13838 -8.9675,-2.36824 v -6.34408 l -5.0698,-0.78941 -12.08847,1.57884 -3.89768,7.13349 -4.67438,-8.71233 -1.94886,13.4632 -7.79535,1.5932 -6.24194,8.32478 -8.57208,1.98073 -0.38128,5.94217 -14.81402,5.13842 z"
     inkscape:connector-curvature="0"
     style="fill:#f8997b;fill-opacity:1;stroke:#ffffff;stroke-width:0.711854;stroke-opacity:1" />
  <path
     id="XK-GN"
     title="Gnjilane"
     class="land"
     d="m 668.49041,555.46267 1.52518,-12.20013 -2.72555,-5.13842 1.94883,-3.17203 13.24646,1.98073 3.51639,-9.51612 0.38131,-3.96144 -7.79537,-5.54029 -0.77673,-6.7316 3.5164,-5.15276 -8.9675,-11.09495 5.84654,-11.49683 7.39994,-4.75086 6.63736,0.40187 3.10685,3.96147 5.46522,1.98072 12.86517,-5.55464 1.94885,3.57392 8.17665,1.98072 2.73968,6.32972 9.34878,3.17203 6.24194,-3.55957 -1.56755,-11.88437 7.41407,-9.11421 h 7.01865 l 3.50227,4.75088 4.29309,-2.77014 9.3488,5.15275 2.34424,-3.57391 7.39996,-2.77015 -3.89769,-9.90365 -7.39995,-5.54028 -1.56753,-9.11421 -5.45111,-2.38262 -4.6744,-5.15276 1.15802,-8.31045 4.6885,-1.98072 -4.2931,-7.93726 2.72556,-1.98073 -1.94884,-5.13841 -5.84653,-1.59319 -2.72554,-4.75087 -9.36291,-3.17203 V 399.057 l -8.17666,-8.3248 8.96749,-6.7316 3.89768,0.78941 5.06982,5.15276 13.64188,1.19132 1.55342,-11.49683 5.84651,-1.98074 5.06982,-11.09494 -0.50838,-6.21488 v 0 l 25.17957,-0.15788 19.06475,4.65039 16.00027,10.52083 18.7823,33.55752 11.9896,10.44906 10.02665,-4.17674 3.41753,-6.47326 15.20943,-15.70227 9.88542,-0.53107 14.77164,12.12835 2.10419,22.76402 6.94804,11.64036 -4.05302,4.10499 -15.36478,7.20525 -12.86515,22.67788 -3.17748,23.66826 -6.60911,20.42446 -9.49,11.42506 -25.19371,12.96084 -13.98081,13.09003 -3.53052,10.54953 3.96829,9.0568 -5.23926,25.29013 -14.57395,10.72178 -7.62589,14.33873 -0.87557,12.7312 5.28164,11.65471 9.53238,4.69346 -1.94885,12.65944 1.45459,16.66393 -46.56035,5.82737 -17.41248,-9.09987 h -12.03197 l -3.43166,2.1386 -2.44311,10.83659 -4.30722,3.34429 -17.11589,1.07647 -6.77859,3.4304 v 0 l -4.37782,-7.21962 -5.45111,-2.77015 -10.13961,1.57886 -3.12099,-5.54031 -4.67439,-1.1913 -5.46522,2.77016 -2.72555,-4.36334 h -3.12097 l -9.74419,-17.82657 -3.89769,-0.78941 -0.77672,-10.69305 3.50226,-9.11422 5.06982,-0.40188 2.34425,-13.46321 -11.31174,2.77014 -3.50226,-5.54028 -6.24194,-0.80378 2.34425,-11.48249 2.72555,-2.38258 h 5.06981 l 6.62323,-6.32973 4.2931,-0.40189 6.62324,5.54029 v -4.75087 l 3.51639,-3.55957 -8.58621,-9.51611 5.46524,-19.80727 -9.36291,-7.13348 -1.94885,-6.32972 v 0 z"
     inkscape:connector-curvature="0"
     style="fill:#f8997b;fill-opacity:1;stroke:#ffffff;stroke-width:0.711854;stroke-opacity:1" />
  <path
     id="XK-PE"
     title="Peć"
     class="land"
     d="m 322.71241,517.01073 -1.18624,0.11482 v 0 l -3.89769,1.57884 -5.45111,-8.71234 v -4.36332 l -3.12096,-3.96148 2.33013,-5.54028 -3.10684,-3.96145 -10.13962,2.36826 -8.19079,-6.32972 -10.1255,-1.5932 -9.3629,4.36335 h -8.19077 l -11.29766,-3.57391 -8.96747,5.55464 -15.59072,0.78942 -4.29309,-3.17203 5.46521,-6.32972 -1.17212,-3.57392 -5.45111,-0.78941 -3.12098,-3.57393 -1.94884,-3.96146 4.6744,-1.98072 -12.86517,-14.25262 -4.2931,-0.78942 -1.94883,5.1384 -9.74423,4.36335 -20.66053,-7.1335 -6.62321,-4.75087 -11.29764,-0.40189 -5.84652,-9.90364 -3.89768,-1.19129 -1.17212,-5.13841 7.39994,-9.91798 -31.95815,-5.13843 -8.41674,-6.22923 v 0 l 3.43166,-6.83207 -8.17665,-6.34408 -8.120175,-13.20484 -9.433518,-3.10027 -5.578204,-6.12877 -4.646149,-1.49271 -3.474021,-6.32973 -5.338128,-18.21408 6.312549,-8.5688 3.671729,-11.19541 2.97975,-0.47365 44.470277,15.86017 21.12656,-0.20096 20.20862,3.37301 5.12629,-2.44005 16.77698,-22.46259 -3.95417,-12.48719 1.2145,-3.44474 20.98534,-16.54912 18.7823,2.97109 66.1335,-12.42977 7.82359,-4.66477 4.32136,-7.11913 v 0 l 18.03382,-2.36827 15.59073,-6.34407 1.94885,5.94219 8.19077,0.78943 4.27899,4.36334 1.56753,5.15276 4.27898,2.36826 4.2931,6.34407 -0.39542,9.11421 h 10.52091 l -0.77671,11.88437 -5.06981,9.90363 v 11.49683 l -6.2278,12.67379 1.94883,7.9229 5.84651,5.15276 -0.39541,5.94219 -2.33013,6.73158 -5.0698,5.94219 -5.06982,0.40188 -2.72555,5.94217 0.7767,4.7509 7.79538,3.55956 1.17212,6.34408 10.52092,16.2477 7.79535,-0.40189 4.29309,-4.34899 1.17214,-5.55465 3.50228,-1.57883 6.62323,6.32971 -3.12098,3.57391 3.89768,2.36828 2.34426,7.13348 -8.57207,6.34406 2.33013,11.88436 11.70718,2.38261 7.39992,5.54029 1.94885,10.69308 3.12097,1.19129 4.6744,-2.38261 v 0 l 3.89767,-0.38752 -0.39542,5.94217 v 0 l -3.89767,9.90363 -15.59072,-0.78941 -3.12097,-3.96146 -12.07434,5.54029 -8.9675,15.45828 -0.7767,7.52103 -4.68851,7.13348 -4.67441,2.38263 0.39542,5.13841 -14.81401,0.80376 -7.01866,3.15768 -16.76284,-2.36826 -7.79538,1.19131 z"
     inkscape:connector-curvature="0"
     style="fill:#f8997b;fill-opacity:1;stroke:#ffffff;stroke-width:0.711854;stroke-opacity:1" />
  <path
     id="XK-UR"
     title="Uroševac"
     class="land"
     d="m 717.66332,700.48634 -14.20675,16.63525 -10.9587,19.97948 -11.93313,37.94959 -8.85451,10.62129 -9.73009,2.1386 -4.34957,-2.66967 -12.4274,1.59319 -3.61524,-2.1386 -3.62937,-12.94651 -5.9595,-10.82222 -13.06287,-13.43449 -5.18279,-21.91718 -8.91101,-7.82243 -15.30828,-1.06213 -5.7759,6.01393 -12.90754,7.34879 -7.42819,11.22413 -28.27232,17.683 v 0 l -8.58619,-20.82633 -4.27899,-4.75088 -8.5862,-1.59319 -6.62323,-4.75088 -15.59071,0.40189 -17.15828,-3.96145 -0.77671,-6.34407 3.51638,-1.1913 3.12098,-4.34901 -1.96297,-10.7074 5.06982,-2.36824 8.96749,5.13838 5.84652,-8.71232 10.91633,-5.54029 3.51639,-13.07566 4.67439,-1.19132 3.89768,3.96146 3.89768,-4.75088 8.9675,-2.38262 -3.5164,-3.96145 -2.33012,-7.9229 4.27897,-2.77014 1.17213,-3.96145 -3.12098,-4.36334 v -4.75089 l -3.89767,-0.78942 v -6.34407 l 3.89767,-7.92289 -4.67439,-3.55957 v -7.13351 l -3.89769,-5.15276 -5.84651,-5.54028 h -7.01865 l -3.50227,-2.78452 -0.39542,-4.34897 5.06982,-2.38262 7.79536,3.96146 2.34425,-4.75087 -9.3629,-7.92291 v -3.96147 l 5.06981,-0.40187 1.55343,-5.94218 5.84651,-0.38754 1.56755,-2.38261 -10.52091,-10.30553 0.77671,-5.54028 -23.7815,-6.34408 -0.77673,-2.77014 v 0 l -0.74845,-6.0283 v 0 l 14.39035,-1.89463 1.55343,-4.36332 9.7442,-6.73161 8.5862,2.38262 1.94883,6.32973 9.74421,-1.98074 1.55341,-4.34899 7.79537,6.32973 11.69305,-0.78944 8.96748,4.36334 14.41861,-6.74595 5.46522,4.76524 15.19531,1.19129 3.51639,10.29117 4.29309,0.4019 8.57208,-5.55466 5.0698,1.59318 9.74421,-3.5739 9.7442,-0.38754 5.06982,3.96144 5.84652,-0.78941 7.00453,10.29117 3.12096,0.4019 1.94885,-3.96145 3.51638,-1.19132 v 0 l 2.33013,6.34406 v 0 l 1.94885,6.32972 9.36291,7.13348 -5.46524,19.80727 8.58621,9.51611 -3.51639,3.55957 v 4.75087 l -6.62324,-5.54029 -4.2931,0.40189 -6.62323,6.32973 h -5.06981 l -2.72555,2.38258 -2.34425,11.48249 6.24194,0.80378 3.50226,5.54028 11.31174,-2.77014 -2.34425,13.46321 -5.06982,0.40188 -3.50226,9.11422 0.77672,10.69305 3.89769,0.78941 9.74419,17.82657 h 3.12097 l 2.72555,4.36334 5.46522,-2.77016 4.67439,1.1913 3.12099,5.54031 10.13961,-1.57886 5.45111,2.77015 z"
     inkscape:connector-curvature="0"
     style="fill:#f8997b;fill-opacity:1;stroke:#ffffff;stroke-width:0.711854;stroke-opacity:1" />
  <path
     id="XK-PZ"
     title="Prizren"
     class="land"
     d="m 535.15016,758.86036 -6.65148,5.10971 -13.21823,1.93767 -8.65679,3.87533 -20.09566,22.032 -17.31361,0.12919 -10.67626,6.40146 -18.62696,2.9424 -3.67173,2.94238 -20.15214,33.74412 1.56754,31.20364 6.45377,15.31473 -1.6664,13.79335 7.28698,13.90813 -17.31362,17.1663 -5.22516,7.85116 -32.28296,20.07997 -4.10952,10.57823 -11.25526,14.68321 -6.4114,12.75992 -5.81827,4.04756 -7.48468,-2.92803 -6.7927,3.20074 -5.5782,-0.732 -2.73968,-1.99509 v -7.04736 l -5.67706,-17.66866 1.46869,-13.16179 -1.56755,-15.17122 6.2137,-5.0523 10.16786,-1.26307 -0.18357,-4.85136 -8.41675,-20.76891 21.02772,-16.30511 3.23395,-14.12345 -0.93206,-9.38694 -6.21369,-8.66926 -7.08927,-21.65882 -1.36983,-14.19521 -11.69304,-11.5399 -7.68239,-15.08509 5.28164,-10.27681 -2.28778,-6.94689 3.12097,-8.28175 -5.62056,-12.96083 0.93206,-4.20547 -7.28698,-9.41561 0.97443,-2.61228 -6.41142,-14.09475 -3.9118,-18.18536 -11.43884,-11.91307 -1.03092,-6.41584 -3.6011,-3.08591 v 0 l 2.89501,-4.69346 14.81402,-5.13842 0.38128,-5.94217 8.57208,-1.98073 6.24194,-8.32478 7.79535,-1.5932 1.94886,-13.4632 4.67438,8.71233 3.89768,-7.13349 12.08847,-1.57884 5.0698,0.78941 v 6.34408 l 8.9675,2.36824 1.17213,-5.13838 6.2278,-6.34408 7.79537,-13.86509 h 7.01866 l 5.84651,13.86509 3.51639,1.19129 5.45111,-4.75086 2.34427,-10.70741 4.27897,-2.77015 -1.55342,-10.30552 3.89767,-3.96146 -2.72556,-8.71231 1.94886,-15.44393 -8.19079,-9.91799 5.84651,-5.94218 -1.94883,-3.55959 -4.67439,-0.40187 -3.89767,-3.55958 1.55342,-8.32479 -10.91633,-2.77014 -1.15801,-4.75088 -9.7442,-7.13348 -26.50707,-1.98074 -2.34425,-14.65449 -7.79537,-0.4019 -3.51639,-2.3826 -3.10686,-8.71234 -5.06979,-2.77015 v 0 l -3.10685,0.28707 v 0 l 2.71142,-3.37298 7.79538,-1.19131 16.76284,2.36826 7.01866,-3.15768 14.81401,-0.80376 -0.39542,-5.13841 4.67441,-2.38263 4.68851,-7.13348 0.7767,-7.52103 8.9675,-15.45828 12.07434,-5.54029 3.12097,3.96146 15.59072,0.78941 3.89767,-9.90363 v 0 l 0.36718,-5.58335 v 0 l 9.39116,-1.39225 7.79537,4.36334 -1.17214,7.13349 -5.84653,5.94218 v 3.96145 l 11.69304,7.9229 -0.7767,9.90364 -4.29311,3.96146 -0.7767,10.29118 -4.67439,5.55463 1.94883,8.3248 7.39995,-7.92292 6.62324,-0.80377 3.51637,-3.17203 h 9.3488 l 3.5164,-8.71233 3.10683,-0.78942 1.94884,5.94219 2.73967,1.1913 -0.39541,9.50175 -7.79535,0.80377 2.72554,8.31045 -5.06981,6.73159 3.89769,3.17204 8.19077,-5.94218 8.57208,2.77014 2.73967,11.09496 v 0 l 0.7767,6.34406 v 0 l 0.77673,2.77014 23.7815,6.34408 -0.77671,5.54028 10.52091,10.30553 -1.56755,2.38261 -5.84651,0.38754 -1.55343,5.94218 -5.06981,0.40187 v 3.96147 l 9.3629,7.92291 -2.34425,4.75087 -7.79536,-3.96146 -5.06982,2.38262 0.39542,4.34897 3.50227,2.78452 h 7.01865 l 5.84651,5.54028 3.89769,5.15276 v 7.13351 l 4.67439,3.55957 -3.89767,7.92289 v 6.34407 l 3.89767,0.78942 v 4.75089 l 3.12098,4.36334 -1.17213,3.96145 -4.27897,2.77014 2.33012,7.9229 3.5164,3.96145 -8.9675,2.38262 -3.89768,4.75088 -3.89768,-3.96146 -4.67439,1.19132 -3.51639,13.07566 -10.91633,5.54029 -5.84652,8.71232 -8.96749,-5.13838 -5.06982,2.36824 1.96297,10.7074 -3.12098,4.34901 -3.51638,1.1913 0.77671,6.34407 17.15828,3.96145 15.59071,-0.40189 6.62323,4.75088 8.5862,1.59319 4.27899,4.75088 z"
     inkscape:connector-curvature="0"
     style="fill:#f8997b;fill-opacity:1;stroke:#ffffff;stroke-width:0.711854;stroke-opacity:1" />
  <g
     id="stadiums"
     data-country="kosovo"
     data-circle-radius="6"
     data-circle-colors="#a149be,#bea149"
     transform="matrix(1.4122033,0,0,1.4353095,5.9506947,-0.09375924)" />
</svg>
