<?xml version="1.0" encoding="UTF-8" standalone="no"?>
<?xml-stylesheet type="text/css" href="/styles/home.css"?><!-- https://www.amcharts.com/svg-maps -->

<svg
   xmlns:dc="http://purl.org/dc/elements/1.1/"
   xmlns:cc="http://creativecommons.org/ns#"
   xmlns:rdf="http://www.w3.org/1999/02/22-rdf-syntax-ns#"
   xmlns:svg="http://www.w3.org/2000/svg"
   xmlns="http://www.w3.org/2000/svg"
   xmlns:sodipodi="http://sodipodi.sourceforge.net/DTD/sodipodi-0.dtd"
   xmlns:inkscape="http://www.inkscape.org/namespaces/inkscape"
   version="1.1"
   id="map-liechtenstein"
   viewBox="0 0 1000 1000"
   width="1000"
   height="1000"
   sodipodi:docname="liechtenstein.svg"
   inkscape:version="0.92.4 (5da689c313, 2019-01-14)">
  <metadata
     id="metadata19">
    <rdf:RDF>
      <cc:Work
         rdf:about="">
        <dc:format>image/svg+xml</dc:format>
        <dc:type
           rdf:resource="http://purl.org/dc/dcmitype/StillImage" />
        <dc:title></dc:title>
      </cc:Work>
    </rdf:RDF>
  </metadata>
  <sodipodi:namedview
     pagecolor="#ffffff"
     bordercolor="#666666"
     borderopacity="1"
     objecttolerance="10"
     gridtolerance="10"
     guidetolerance="10"
     inkscape:pageopacity="0"
     inkscape:pageshadow="2"
     inkscape:window-width="1920"
     inkscape:window-height="1017"
     id="namedview17"
     showgrid="false"
     showguides="true"
     inkscape:guide-bbox="true"
     inkscape:zoom="0.42103753"
     inkscape:cx="-68.101012"
     inkscape:cy="848.47332"
     inkscape:window-x="-8"
     inkscape:window-y="-8"
     inkscape:window-maximized="1"
     inkscape:current-layer="map-liechtenstein">
    <sodipodi:guide
       position="500,520.62604"
       orientation="1,0"
       id="guide826"
       inkscape:locked="false"
       inkscape:label=""
       inkscape:color="rgb(0,0,255)" />
  </sodipodi:namedview>
  <defs
     id="defs4">
    <style
       id="style2"
       type="text/css">
			.land
			{
				fill: #bd8240;
				fill-opacity: 1;
				stroke:white;
				stroke-opacity: 1;
				stroke-width:0.5;
			}
		</style>
    <!-- <amcharts:ammap
         bottomLatitude="47.047365"
         rightLongitude="9.637517"
         topLatitude="47.271742"
         leftLongitude="9.472461"
         projection="mercator" /> -->
    <!-- All areas are listed in the line below. You can use this list in your script. -->
    <!--{id:"LI-01"},{id:"LI-02"},{id:"LI-03"},{id:"LI-04"},{id:"LI-05"},{id:"LI-06"},{id:"LI-07"},{id:"LI-08"},{id:"LI-09"},{id:"LI-10"},{id:"LI-11"}-->
  </defs>
  <path
     id="LI-01"
     title="Balzers"
     class="land"
     d="m 394.45578,817.17329 1.42449,1.4245 3.70622,6.47957 5.64756,6.29048 1.72705,5.47108 1.99177,4.53822 1.39929,2.86161 1.34886,1.41188 4.0718,2.73554 6.24005,2.13044 3.20197,0.81941 3.265,0.11346 1.48753,0.59248 3.42888,0.10085 1.21019,0.94547 0.32775,2.2565 -0.46642,8.26965 -0.74377,3.68101 -1.89092,5.24416 -0.0631,7.36201 2.53384,5.26938 2.29432,7.81582 0.98329,1.80269 6.80732,6.69387 20.39679,26.48557 v 0 l -1.99177,-0.89503 -2.26911,-0.28995 -4.46259,0.92025 -3.84488,2.49602 -6.26527,2.67251 -2.96245,2.28172 -8.1688,4.38695 -21.26661,3.16415 -4.66428,1.04631 -14.16934,5.77363 -5.52151,5.00465 -4.57604,5.25678 -4.10961,2.49602 -12.75745,3.20196 -17.83774,1.08413 -4.9164,0.70594 -3.93313,1.77748 -3.22718,4.38695 -1.95395,1.23541 -2.47081,0.32775 -3.76925,-0.94546 -2.21869,-1.07153 -3.85748,-2.81117 -3.79446,-1.44971 -2.93724,-0.37819 -2.91203,0.63032 -1.38667,0.79418 -2.05481,2.15566 -3.6684,6.64345 -3.12633,7.13509 -3.03809,5.10551 -1.86571,1.97917 -2.62208,1.09673 -2.79857,0.0631 -2.63469,-0.89503 -4.23568,-4.29871 -1.31104,-2.26911 -2.2565,-7.99232 -1.24802,-2.47081 -1.86571,-2.06741 -2.72293,-1.12195 h -2.96245 l -4.29871,1.04631 -4.33652,1.86571 -3.8701,-1.94135 -3.10112,-3.49191 -5.37023,-13.26169 -3.4919,-19.26223 -0.35298,-6.47957 0.74377,-6.3157 3.12633,-10.08493 6.60563,-4.96683 6.36612,-3.35325 3.02548,-2.16826 6.58042,-2.02959 5.02987,-2.82378 5.58453,-1.58838 5.02986,-2.91203 5.55933,-1.67663 5.01725,-2.94984 5.55932,-1.68922 5.00466,-2.96245 6.41654,-2.31954 8.33268,-7.07206 12.6566,-7.38722 8.33268,-7.09728 7.24855,-2.98766 9.13947,-7.68977 11.8498,-6.93339 5.53412,-4.86598 4.82815,-5.3072 2.52124,-6.05096 3.17675,-4.81556 z m 151.41274,-9.74457 11.79938,3.8701 2.81117,-0.78159 4.53823,-2.57166 2.77336,0.10085 3.18936,1.31104 v 0 l -0.89505,2.79857 -2.36995,4.05919 -0.15127,3.22718 5.98792,7.47547 0.70595,4.22305 0.063,5.60976 0.6051,2.10522 0.0378,5.86188 1.39928,4.46258 4.79035,5.81144 3.05069,2.39518 5.3072,5.40805 0.90764,4.04658 -3.56754,3.15154 -5.02987,1.71444 -4.46258,2.98767 -8.53438,4.7021 -6.40394,1.52535 -5.54671,-0.0126 -10.02191,-2.18086 -1.0211,-0.74377 -6.7317,-6.85776 -4.05918,-4.85338 -4.61387,-7.81583 -0.92024,-2.93724 1.34886,-6.1392 -0.0126,-6.75691 -1.15977,-14.13152 3.49191,-7.61413 3.40367,-4.04658 z m 169.52781,-250.63593 -1.44971,36.12929 13.91721,29.22111 15.1022,19.36308 -26.37211,39.2052 -3.4793,6.1392 v 0 l 0.416,-4.05918 -1.44971,-0.27734 -5.23156,-3.83228 -19.77909,-9.03862 -6.78212,-1.67662 -1.44971,-0.79419 -1.48753,-5.66017 -0.15128,-3.8701 -1.18498,-3.66839 -0.12605,-6.58042 -1.77748,-3.97095 -0.27733,-3.02548 -1.92874,-2.68511 v 0 l -0.0631,-2.20609 -2.0422,-7.41243 -2.47081,-4.28609 -0.74376,-4.61387 0.0126,-12.55574 -1.4371,-3.8827 -6.08878,-7.70237 -4.41216,-3.07591 -6.02575,-6.46697 -6.95861,-6.11399 v 0 l -3.94573,-3.22718 -3.83228,-4.52562 -8.37049,-0.2017 -3.45409,-0.84461 -7.99232,-3.49191 -5.1181,-3.73143 -8.25705,-4.9038 -5.23156,-1.51274 -6.83254,-0.13867 -1.62621,-0.84461 -1.46231,-1.43711 v 0 l -0.36557,-2.01698 0.34036,-2.06742 2.01699,-3.97094 -0.63031,-3.08851 0.57988,-1.52535 0.12607,-4.65168 0.66812,-2.16825 -1.28583,-3.36586 0.55467,-2.0422 0.11346,-3.51712 2.49601,-3.56755 1.4119,-3.25239 0.26473,-5.18114 2.63469,-6.36611 v 0 l 1.84051,-2.2439 1.10933,-2.31954 2.34476,-1.71444 4.90379,-4.99204 1.29844,-3.92052 0.22691,-3.54234 0.74377,-1.48753 2.38256,-2.40777 1.38669,-2.16826 0.81939,-3.07591 v 0 l 5.96272,4.68949 20.71195,18.93448 13.21126,28.75468 26.87636,16.26196 z"
     inkscape:connector-curvature="0"
     style="fill:#bd8240;fill-opacity:1;stroke:#ffffff;stroke-width:0.63030863;stroke-opacity:1" />
  <path
     id="LI-02"
     title="Eschen"
     class="land"
     d="m 496.38929,348.14802 -3.02548,-4.21046 0.60509,-2.58426 0.063,-5.63497 1.43711,-2.63468 2.73554,-1.46232 0.59249,0.30255 5.55933,8.29486 4.05918,2.74814 4.61386,2.11785 8.93778,2.84899 2.77335,0.45382 v 0 l -1.03371,11.98847 -2.34474,4.9038 -7.70237,-2.21869 -4.50041,1.6136 v 0 l -4.53822,-9.07645 z m -168.00247,-72.97713 3.21458,3.03808 9.08905,5.66018 1.21019,-0.21431 3.95834,-3.94573 1.21019,-0.49164 1.96657,1.65141 1.37407,2.78596 -10.67743,12.10193 -7.46285,10.90434 -5.73581,9.71935 -4.4878,5.23157 -0.18909,4.33652 0.59249,1.57577 0.2017,2.48342 7.18551,5.11811 0.89504,-0.11346 3.52973,-2.4456 6.24006,-0.0378 0.90764,-0.32775 0.75637,-1.65142 0.75637,-10.211 0.64292,-1.80267 0.063,-4.34914 0.64291,-1.81528 0.0378,-4.04659 0.57989,-0.89503 1.00849,-0.15128 17.20742,10.69003 0.76898,2.33215 0.0883,3.56754 1.2354,6.65606 0.0756,3.37846 0.6051,1.66401 -0.063,2.57166 v 0 l -6.81994,-0.0378 -2.71032,-0.68073 -3.64319,0.0505 v 0 l -1.51274,0.71855 -28.25043,26.15781 -2.0296,1.39929 -1.10934,-0.63031 -7.62673,-16.22415 -5.53411,-4.22306 -5.45848,-3.13894 v 0 l 0.59249,-9.8202 3.51713,-4.14744 2.58426,-6.7317 2.69772,-3.81966 2.35736,-6.18963 2.69772,-3.73143 2.39517,-6.18963 2.58427,-3.84489 0.84461,-2.2439 1.66401,-8.82432 3.08852,-4.87858 z m 152.28257,-84.62524 -9.4042,6.3283 -6.29049,4.86598 -2.73554,2.74815 -2.2439,3.40366 -3.71882,-0.55467 -1.19758,-0.55467 -2.77336,-0.0126 -2.40778,0.8194 -2.13044,2.14306 -7.5637,11.79937 1.04631,1.94135 5.3072,5.40805 0.31515,1.36147 -11.19428,7.27376 -2.78596,3.90792 -2.20608,6.65605 -0.16389,3.01288 -0.64291,1.95396 0.13867,1.76486 1.99177,3.4667 18.35459,15.95941 24.17864,17.97641 1.08413,-0.35298 6.55521,-7.47546 2.97506,-0.15127 1.87832,0.54206 0.84461,-0.6051 1.75226,-7.13509 0.75637,-1.47492 0.94546,-0.6051 22.33814,-5.5215 6.07617,0.0883 3.49191,4.21046 4.02138,7.9671 4.18524,13.8794 -1.22279,1.07153 -8.61002,2.98766 -8.15619,4.00877 -0.41601,1.18497 1.08413,1.71444 5.60976,5.62235 3.06329,2.18088 4.09701,1.50013 5.28198,1.02109 11.04301,7.27377 8.08056,2.23129 1.56317,-0.0631 3.51712,-1.28582 4.79034,0.88242 5.96272,4.53823 7.39983,7.42503 1.2354,0.83201 1.39929,-0.8194 v 0 l -3.31543,4.31131 -16.17372,25.23756 v 0 l -12.58096,-7.51328 -9.98409,3.18936 -1.6388,-0.10085 -0.74376,-0.832 -2.6599,-6.20224 -1.76487,-7.61414 v 0 l -1.13455,-13.62727 -2.08002,-4.92901 -4.72732,-7.85364 -0.86983,-0.54207 -15.50559,-3.70622 -0.54207,-3.11372 -4.72731,-4.79034 -9.78239,-6.11399 -1.92875,1.12194 -3.2902,2.91202 -1.44971,1.95396 3.2902,7.1351 6.29049,1.70183 0.70594,0.54207 0.0756,5.89969 -2.13045,0.92024 -5.13071,0.89505 -5.19374,1.99176 -12.58096,8.54699 -2.19347,0.13867 -1.94136,-0.69334 -2.2439,0.10085 -0.95806,1.70184 -0.12606,4.39955 -0.89505,3.61797 v 0 l -4.73991,1.61359 -2.98766,0.11346 -8.69826,-2.05481 -3.73143,-0.28994 v 0 l -1.08413,-0.94546 v 0 l -1.65141,-6.35351 -0.85722,-1.28583 -54.97552,-21.89693 -17.52258,-51.49621 -0.84461,-5.66017 0.40339,-0.74376 1.2354,-0.16389 6.17704,1.46231 6.24004,-0.18909 0.85723,-2.43299 0.18909,-3.80706 0.86983,-0.39079 3.08851,0.0505 0.66812,-0.65553 0.0504,-10.92955 -0.64291,-2.20608 -0.0252,-4.26089 0.66813,-2.57165 0.23951,-3.79447 4.46259,-2.6725 4.53823,-1.0211 2.849,-2.05481 4.1096,-4.097 3.34063,-4.97944 3.13895,-2.79858 10.19839,-0.20169 5.3072,-4.52562 4.56343,-0.11345 2.0296,1.05891 0.93285,2.73554 2.0296,3.61798 2.62208,1.39928 1.77747,0.063 2.10524,-1.46231 1.02109,-2.34476 1.43711,-1.81528 1.56316,-1.0211 2.73554,-0.25212 3.76925,-4.38696 7.62673,-0.26473 3.50452,-4.50039 v 0 l 0.416,-1.28583 3.39106,-4.09702 5.13071,-4.39955 3.80707,-4.53822 4.37434,-2.58426 h 0.66812 l 0.76898,0.76898 2.54645,4.44997 1.00849,3.20197 z"
     inkscape:connector-curvature="0"
     style="fill:#bd8240;fill-opacity:1;stroke:#ffffff;stroke-width:0.63030863;stroke-opacity:1" />
  <path
     id="LI-03"
     title="Gamprin"
     class="land"
     d="m 459.15066,346.54704 0.89503,-3.61798 0.12607,-4.39955 0.95807,-1.70183 2.2439,-0.10085 1.94134,0.69334 2.19348,-0.13867 12.58095,-8.54698 5.19375,-1.99178 5.13072,-0.89504 2.13044,-0.92025 -0.0756,-5.89968 -0.70595,-0.54207 -6.29047,-1.70183 -3.29022,-7.13509 1.44971,-1.95397 3.29022,-2.91202 1.92874,-1.12195 9.78239,6.11399 4.72732,4.79035 0.54206,3.11372 15.50559,3.70622 0.86982,0.54206 4.72732,7.85365 2.08002,4.92901 1.13455,13.62728 v 0 l -3.49191,0.0504 v 0 l -2.77335,-0.45382 -8.93777,-2.84899 -4.61387,-2.11785 -4.05918,-2.74814 -5.54672,-8.29486 -0.59249,-0.30255 -2.73554,1.46232 -1.43711,2.63468 -0.063,5.63497 -0.60509,2.58426 3.02548,4.21046 v 0 l -4.72731,3.23979 v 0 l -1.17238,-1.95396 -2.79857,-2.14304 -8.06795,-4.99205 -8.45875,0.0378 -8.03012,3.12633 z m -82.35613,-184.88214 0.6177,0.3908 -0.12606,0.68073 4.82817,3.03809 3.16415,1.36146 4.73992,-2.72293 4.44998,-3.75664 4.05918,-2.69772 1.03371,0.0126 4.7147,4.82817 2.10524,2.83638 0.37818,1.15977 -0.32776,2.67251 0.27733,1.31104 2.09263,1.32365 4.79035,1.6262 2.14305,2.15565 1.47492,5.23156 0.0756,5.55932 0.79418,1.18499 3.02548,2.82377 8.72348,0.0883 v 0 l -1.0085,1.81529 v 3.94573 l 0.79419,0.95807 2.74815,1.46232 2.53384,0.0631 7.27376,-1.99178 1.70183,0.11346 3.70622,1.31104 h 4.0844 l 2.01699,-0.64291 4.00876,0.15127 v 0 l -3.50452,4.5004 -7.62673,0.27734 -3.76925,4.38695 -2.73553,0.25212 -1.56317,1.0211 -1.4371,1.81529 -1.02111,2.34475 -2.10522,1.46231 -1.77747,-0.063 -2.62209,-1.38668 -2.01699,-3.61796 -0.93286,-2.73554 -2.01699,-1.05893 -4.56342,0.11346 -5.2946,4.52561 -10.1984,0.2017 -3.13893,2.81118 -3.34064,4.97944 -4.10961,4.09701 -2.849,2.0548 -4.53821,1.0211 -4.46259,2.67251 -0.23952,3.79446 -0.66813,2.57166 0.0378,4.26088 0.64292,2.20609 -0.0505,10.92954 -0.66812,0.66813 -3.08852,-0.0504 -0.86983,0.39079 -0.18909,3.80706 -0.85721,2.43299 -6.24006,0.18909 -6.17702,-1.46231 -1.23541,0.17649 -0.4034,0.74377 0.84462,5.66017 17.52257,51.49621 54.97553,21.89692 0.85721,1.28583 1.65141,6.35351 v 0 l -4.79034,-0.30255 -1.48753,-0.59248 -3.25239,-0.11346 -1.48753,-0.59249 -3.42888,-0.15128 -1.50013,-0.59248 -3.73143,-0.0883 -2.19347,-0.66812 v 0 l -2.54645,-0.0505 -1.52535,-0.59249 -3.18936,-0.11345 -1.55056,-0.5925 -3.61797,-0.15127 -2.62209,-0.63031 -10.76567,0.0378 v 0 l -4.16003,-0.8194 -11.4338,-0.0883 -3.4667,-0.69335 -5.34502,-0.0505 v 0 l 0.063,-2.55905 -0.6051,-1.66401 -0.0756,-3.37846 -1.2354,-6.65606 -0.0883,-3.56754 -0.76898,-2.33215 -17.24524,-10.71525 -1.00849,0.15128 -0.56728,0.89504 -0.0378,4.04658 -0.63031,1.81528 -0.063,4.34914 -0.63031,1.80268 -0.75637,10.211 -0.75637,1.65141 -0.90764,0.32775 -6.24006,0.0378 -3.52973,2.4456 -0.89503,0.11346 -7.18552,-5.1181 -0.2017,-2.48342 -0.59249,-1.57577 0.18909,-4.33653 4.4878,-5.23156 5.73581,-9.71936 7.47546,-10.90433 10.67742,-12.10194 -1.37407,-2.78595 -1.96656,-1.65142 -1.21019,0.49164 -3.94573,3.94573 -1.2102,0.22692 -9.08905,-5.66018 -3.21457,-3.03808 v 0 l 2.19347,-3.08851 1.14716,-3.50452 1.18498,-8.25705 3.23979,-8.7865 1.61359,-11.42119 3.20197,-8.78651 1.34886,-10.00929 1.19759,-4.00876 4.87858,-10.05973 4.22307,-7.02164 3.4667,-4.53822 2.58427,-6.03836 7.67715,-8.83693 1.95396,-5.18113 3.13893,-4.76514 2.50863,-6.1266 z"
     inkscape:connector-curvature="0"
     style="fill:#bd8240;fill-opacity:1;stroke:#ffffff;stroke-width:0.63030863;stroke-opacity:1" />
  <path
     id="LI-04"
     title="Mauren"
     class="land"
     d="m 480.66939,190.54565 2.79858,-0.13867 1.39928,-0.75637 4.42476,-7.1477 5.55933,-4.84077 13.34993,-6.71909 4.37434,-0.13867 0.76898,-0.99588 -0.47903,-1.4245 0.47903,-0.71856 2.86161,-0.32776 2.39517,1.92875 4.7147,2.0422 v 0 l -6.76951,7.77801 -14.44667,24.48118 13.71551,13.75334 23.46009,11.61029 22.36336,15.69468 15.1148,21.94735 20.48502,33.21726 -6.22745,20.01861 -13.90461,18.03943 v 0 l -1.38667,0.81941 -1.23541,-0.83202 -7.39982,-7.42503 -5.96272,-4.53823 -4.79035,-0.88242 -3.51712,1.28583 -1.56317,0.063 -8.08055,-2.21868 -11.04301,-7.27376 -5.28198,-1.0211 -4.09702,-1.48753 -3.06329,-2.18087 -5.60975,-5.62235 -1.08413,-1.71444 0.416,-1.18498 8.1562,-4.00877 8.61001,-3.00027 1.2354,-1.07152 -4.18524,-13.8794 -4.02137,-7.96709 -3.50451,-4.21047 -6.07618,-0.0883 -22.32554,5.52151 -0.94546,0.61769 -0.75637,1.47492 -1.73965,7.1351 -0.84462,0.6051 -1.87831,-0.54207 -2.97506,0.15127 -6.54261,7.48807 -1.09673,0.35298 -24.16604,-17.97641 -18.35458,-15.95941 -1.99178,-3.4667 -0.13866,-1.76486 0.65551,-1.95396 0.16389,-3.01288 2.19347,-6.69387 2.78597,-3.90791 11.19427,-7.27377 -0.30254,-1.36147 -5.3072,-5.40805 -1.04631,-1.92874 7.5637,-11.79937 2.13044,-2.14306 2.40778,-0.81939 2.77336,0.0252 1.19758,0.55467 3.71882,0.55468 2.2439,-3.39106 2.73554,-2.76075 6.27788,-4.85338 z"
     inkscape:connector-curvature="0"
     style="fill:#bd8240;fill-opacity:1;stroke:#ffffff;stroke-width:0.63030863;stroke-opacity:1" />
  <path
     id="LI-05"
     title="Planken"
     class="land"
     d="m 441.08601,385.56314 -0.75637,-0.063 -3.23979,-2.67252 -1.95395,-3.00026 -0.16389,-2.06742 1.58838,-2.94984 1.44971,0.13866 6.98382,3.84489 0.60509,4.92901 -0.6303,0.63031 z m 87.15908,-37.21342 1.76486,7.61413 2.6599,6.20224 0.74377,0.832 1.6388,0.10085 9.98409,-3.18936 12.58096,7.51329 v 0 l 1.26062,26.71247 6.70649,34.45267 7.53848,19.26223 19.75388,17.38391 18.5815,14.62316 v 0 l -0.8068,3.07592 -1.38668,2.16825 -2.36996,2.40778 -0.73116,1.50014 -0.22691,3.55494 -1.29844,3.92052 -4.90379,4.99204 -2.34476,1.71444 -1.10933,2.33215 -1.84051,2.2439 v 0 l -1.80268,-0.11346 -9.27814,-2.76076 -9.02603,-4.95422 -10.16057,-8.24444 -18.60671,-16.17371 -8.13098,-6.16443 -16.21153,-8.1688 v 0 l 7.39982,-10.2236 5.3324,-4.27349 1.92875,-4.2735 3.58015,-5.48368 -24.519,-15.26608 -7.85365,-5.91229 -12.8583,-0.79419 -1.09673,0.89503 -2.30693,4.56344 -1.6388,0.63031 -18.00162,-4.33652 -1.34886,-0.64292 -0.49164,-0.832 0.0252,-7.68977 -0.63032,-2.50863 -0.12606,-7.08467 -2.76075,-5.60975 -4.24828,-5.28199 -6.21484,-4.27348 4.41215,-9.05124 3.08852,-7.95449 2.76075,-4.85338 1.14716,-0.0883 5.37023,2.05481 4.66429,-2.96245 4.33652,-3.75664 10.55136,-1.56317 2.89943,-1.56316 v 0 l 2.26911,2.19347 6.41654,3.80706 1.90353,2.4582 1.57578,4.19786 2.38256,-1.02109 v 0 l 4.5004,-1.6136 7.70238,2.23129 2.34474,-4.9038 1.03371,-11.98847 v 0 z m -43.22656,55.49238 0.94546,0.45382 0.37818,3.81966 0.95807,0.57989 2.40778,-0.0883 1.66401,-0.60509 4.77775,-0.10085 1.58837,-0.84461 0.79419,-1.81529 -0.26473,-1.23541 -4.36173,-5.3324 -7.09728,-0.35298 -3.22718,-3.8827 -4.85338,-0.13867 -0.55467,0.97067 0.11346,5.58454 1.15976,1.4245 2.54645,1.51274 z m -68.99359,-61.97195 2.19347,0.66813 3.74404,0.0883 1.50013,0.59249 3.42888,0.15128 1.50013,0.59248 3.2524,0.11346 1.48753,0.59249 4.79034,0.30255 v 0 l 1.08413,0.94546 v 0 l 12.88351,13.65248 -0.0883,2.04221 -2.79856,4.89119 -1.37408,1.56317 -1.67662,-0.86984 -15.48038,-14.67357 -11.82459,-5.38284 -2.33214,-3.70622 z"
     inkscape:connector-curvature="0"
     style="fill:#bd8240;fill-opacity:1;stroke:#ffffff;stroke-width:0.63030863;stroke-opacity:1" />
  <path
     id="LI-06"
     title="Ruggell"
     class="land"
     d="m 425.79472,13.781898 2.54645,-4.2734931 6.87036,-8.50916761 9.24033,11.10603971 14.27019,14.799646 17.91336,23.510513 25.30059,22.36335 6.26527,8.093164 v 0 l -2.05481,-1.172375 -7.362,8.761291 -6.78212,6.832548 -13.62727,12.896106 -11.2447,9.15208 -7.76541,8.1688 -2.0422,2.89942 0.27734,0.88244 9.49245,9.6185 6.30308,4.32393 1.61359,0.52946 11.39598,-7.46286 15.99723,-15.29129 6.90819,-5.55932 1.72705,-0.61771 -0.0252,1.73966 -2.14305,4.67688 -6.90818,13.06001 -8.81171,8.87474 -7.81584,5.74842 -5.87447,7.23594 -8.35789,4.33652 -9.90845,6.39133 -7.67716,4.33653 -5.35763,5.21895 -3.65579,0.0883 -3.16414,-0.71855 -3.265,0.36558 -8.25705,14.59795 v 0 l -8.71087,-0.0883 -3.03808,-2.82378 -0.78158,-1.18498 -0.0756,-5.55932 -1.47492,-5.23156 -2.14305,-2.16826 -4.79035,-1.6262 -2.08002,-1.32364 -0.27734,-1.31105 0.31516,-2.67251 -0.36557,-1.15977 -2.10524,-2.83638 -4.71471,-4.82817 -1.04631,-0.0126 -4.04658,2.69772 -4.46258,3.75664 -4.73993,2.72293 -3.16414,-1.36146 -4.82817,-3.03809 0.12606,-0.68073 -0.6177,-0.3908 v 0 l 4.84076,-5.79883 1.95397,-5.16853 3.15154,-4.73992 1.94135,-5.24417 3.45409,-4.58865 4.02137,-7.12249 2.72293,-8.26965 2.96245,-5.08028 2.05481,-9.85803 2.97506,-5.09289 2.14305,-7.122489 2.69772,-5.861869 2.15565,-7.109882 3.08851,-4.979439 2.15566,-7.084668 3.08851,-7.172913 1.97917,-7.778008 2.92463,-7.399824 0.47904,-2.823783 0.17648,-14.850071 -0.45382,-5.987932 z"
     inkscape:connector-curvature="0"
     style="fill:#bd8240;fill-opacity:1;stroke:#ffffff;stroke-width:0.63030863;stroke-opacity:1" />
  <path
     id="LI-07"
     title="Schaan"
     class="land"
     d="m 604.05861,799.97847 7.57631,0.22691 1.89093,0.73116 7.68976,5.16852 14.40886,4.90381 8.08056,1.6262 4.21046,1.29843 2.13044,-0.0883 2.49602,-0.97068 v 0 l 1.68923,4.05919 0.74376,3.30281 0.10086,3.49191 2.0548,4.96684 4.26088,5.31981 3.55495,3.39105 2.72293,4.26089 0.95807,3.03809 2.10523,4.2735 1.67662,2.25649 1.60098,4.17265 1.4119,0.99589 v 0 l -3.78185,25.28799 -11.87502,51.08021 2.52124,2.91202 -2.08002,-0.0126 -2.84899,1.23541 v 0 l -6.50479,-4.37434 -3.90792,-5.97533 -4.31131,-3.00027 -4.75253,-4.14742 -4.08439,-5.59715 -5.23156,-11.01779 -8.06796,-6.37873 0.416,-0.93286 7.50068,-7.34939 0.50424,-1.17238 -9.17729,-17.59822 -6.98382,-22.86759 -7.1477,-18.9849 -1.28583,-5.49629 3.79446,-10.67743 -3.73143,-8.91257 z m -18.53107,-245.45479 1.46231,1.44971 1.63881,0.84461 6.83254,0.13867 5.23156,1.51274 8.25705,4.9038 5.1181,3.73143 7.99232,3.49191 3.45409,0.84461 8.3705,0.2017 3.83228,4.53823 3.94573,3.22718 v 0 l -1.48753,2.79856 -9.61851,13.69031 -5.68538,5.97532 -1.27323,0.86983 -8.72347,2.69772 -8.96299,0.84461 -1.55056,0.86983 -0.0252,1.4371 5.84927,8.86214 1.66402,4.94162 6.88296,6.27788 10.24883,0.18909 2.91202,0.66813 4.82817,0.0883 4.66428,-1.33625 3.50452,0.063 3.80706,0.89505 4.76513,7.21073 2.92463,0.17648 7.7528,2.01699 h 5.15592 l 2.62209,-0.89504 v 0 l 1.92874,2.68512 0.27734,3.02547 1.77747,3.97095 0.12606,6.58043 1.18498,3.66839 0.15128,3.87009 1.48753,5.67279 1.44971,0.79418 6.79473,1.67663 19.77908,9.03862 5.23156,3.83228 1.44971,0.27734 -0.416,4.05918 v 0 l -9.95888,17.50998 4.87859,4.80294 v 0 l -3.06331,3.74404 -2.23129,4.10962 -5.66017,-1.17239 -21.12795,-6.71909 -2.77335,0.55468 -8.82432,-0.0378 -2.59687,0.63031 -2.60948,-0.65553 -6.30308,-0.10084 -5.73581,-1.32365 -5.10551,-0.0505 -2.4456,0.98328 -3.58014,3.42889 -4.10962,2.73553 -2.64729,0.88244 -3.35325,0.17648 -3.03808,1.92874 v 0 l -1.15978,-0.23951 -3.90791,-2.42039 -5.29459,-1.61358 -3.65579,-1.91615 -7.53849,-0.15127 -4.14743,-1.31104 -3.42888,-0.0883 v 0 l 0.66812,-3.54234 0.10086,-5.58454 0.6051,-2.40777 0.063,-7.70237 0.65553,-2.0548 0.10084,-4.6643 4.57605,-11.59767 3.49191,-11.32034 0.13866,-4.17264 0.65553,-2.19349 -0.23952,-6.41654 -0.89504,-1.0211 -10.8161,-1.61358 -8.14358,-3.27761 -7.18552,-0.92025 -4.33653,-1.48753 -7.5763,-5.9249 -3.265,-3.6936 -3.15155,-4.51302 -12.37927,-7.84104 -0.74376,-0.832 -0.78157,-2.19347 0.2143,-3.49192 3.08851,-4.56343 1.75226,-4.66429 3.8827,-5.59713 1.4245,-0.10086 3.08851,2.59687 1.37407,-0.2017 2.13044,-3.00027 -0.0378,-5.34501 0.42862,-1.27322 4.97944,-4.6895 4.50039,-5.83665 3.00027,-2.26912 6.08879,-6.13921 3.50452,-7.79061 0.75637,-3.0507 z m -98.2147,-156.11484 h 5.52151 l 1.51274,0.59248 4.07179,5.24417 0.0505,1.51274 -0.71856,1.28583 -2.09261,0.94547 -4.62648,0.0378 -2.39517,0.66812 -1.95395,-0.18909 -0.37819,-0.73116 -0.0378,-2.98766 -0.52945,-0.73116 -4.09701,-0.3908 -3.20197,-2.49602 -0.15127,-6.44175 0.79418,-0.52945 4.53823,0.20169 1.21019,1.08413 1.72704,2.6473 z m -134.70955,-60.95086 1.60098,2.29433 5.68538,20.0186 0.66812,1.37408 8.38312,10.70264 4.34912,13.18606 0.76898,1.46231 0.99589,0.27734 h 8.15619 l 3.16415,-0.64292 8.3579,0.0378 4.19785,-0.6303 0.64291,-0.50425 -9.35378,-45.23095 v 0 l 10.76567,-0.0378 2.6347,0.63031 3.63057,0.15127 1.55056,0.59249 3.18936,0.12606 1.52535,0.5925 2.54645,0.0504 v 0 l 0.26473,1.57578 2.33214,3.70621 11.82458,5.38283 15.48039,14.67359 1.67662,0.86983 1.38668,-1.56317 2.79857,-4.89119 0.0883,-2.0422 -12.88351,-13.65249 v 0 l 3.73143,0.28995 8.69826,2.05481 3.00027,-0.11346 4.73992,-1.61359 v 0 l 3.99616,-1.08413 8.03013,-3.12633 8.45874,-0.0378 8.06795,4.99205 2.81118,2.14304 1.17237,1.95396 v 0 l 2.92464,1.61359 v 0 l -2.89943,1.56316 -10.55136,1.56317 -4.33653,3.75664 -4.65167,2.96245 -5.37023,-2.05481 -1.14717,0.0883 -2.76074,4.85337 -3.08852,7.9545 -4.41216,9.05123 6.21485,4.28609 4.24828,5.28199 2.76074,5.60975 0.12607,7.08467 0.6303,2.50863 -0.0252,7.68977 0.49164,0.832 1.34885,0.64292 18.00161,4.33652 1.63881,-0.63031 2.31954,-4.56344 1.09673,-0.89503 12.8583,0.79419 7.85365,5.91229 24.51901,15.26608 -3.58016,5.48368 -1.92874,4.2735 -5.33242,4.2861 -7.39982,10.2236 v 0 l -1.79008,1.99177 -4.33652,7.03425 -7.13509,8.50917 -0.63031,1.86571 v 0 l -12.42969,-6.17702 -3.85749,-0.11346 -1.76486,-0.6051 -4.36173,-0.10085 -3.88271,-0.69334 -11.14386,0.63032 -9.16468,-0.0504 -8.72348,1.27323 -6.37872,-0.0504 -18.98489,-6.1266 -10.34968,-1.61359 -1.51273,-0.5925 -3.23978,-0.0126 -0.63032,0.45382 -5.02986,10.18579 -2.63469,0.8446 -4.18525,0.0126 -1.05892,0.92025 0.6051,4.17265 0.0126,7.94189 0.6303,2.97505 -0.25212,4.92902 -9.46724,2.33213 -8.92517,3.81968 -1.14716,0.0883 -12.55574,-7.09728 -2.04221,-1.32364 -1.39929,-1.56317 -5.42065,-25.76701 -0.0126,-4.50041 1.29844,-3.12633 -0.0126,-1.61359 -1.76487,-0.81941 -2.39517,-0.20169 -14.72401,-3.34063 -2.71033,-0.15128 -1.34886,-0.55468 -11.15646,-0.0126 -0.37818,0.57987 v 1.86572 l 2.60947,11.79938 0.13867,2.93723 0.8068,2.33215 32.72562,28.5908 v 1.05891 l -2.40778,3.03809 -0.25212,1.12195 0.84461,1.2102 3.85749,3.32802 2.87421,15.61905 4.07179,11.78678 2.0548,3.58015 12.0263,15.05176 -0.15127,0.83201 -2.2313,1.28584 -6.5426,2.69772 -2.2439,0.0883 -2.60949,-8.67304 -3.92051,-4.73993 -7.66456,-11.18167 -7.24855,-9.11426 -1.66401,-0.71855 -7.74019,-0.0126 -4.07179,0.64291 4.36173,7.74019 17.58561,25.75441 7.07207,28.08656 v 0 l -3.79446,-7.61414 -5.16853,-7.95449 -9.92106,-9.46723 -2.82378,-3.20197 -2.58427,-6.58043 -3.85748,-5.69799 -2.57167,-7.29897 -2.89941,-6.07617 -2.48342,-7.28638 -2.77336,-4.21046 -2.71032,-6.35351 -3.35325,-5.01725 -2.19347,-5.33241 -3.36585,-5.02987 -2.18087,-5.34501 -3.74403,-6.30309 -5.25677,-17.32088 -2.28172,-13.05999 -3.51712,-9.08906 -1.91614,-11.59768 -4.32392,-19.08574 -1.89093,-21.09013 0.88244,-13.02218 0.68073,-4.22306 3.27761,-12.31624 1.0337,-15.07698 3.681,-15.36692 v 0 l 5.45848,3.13893 5.53411,4.23568 7.62673,16.22415 1.10934,0.6303 2.0296,-1.38667 28.20001,-26.18303 z m 56.45044,75.49838 1.77747,0.84462 4.4878,9.30335 1.38667,1.33625 5.78624,2.73554 1.31103,-0.79419 5.43326,-8.28226 -0.0882,-0.79419 -0.66813,-0.71855 -8.79911,-6.85775 -11.88762,-5.72321 -1.36147,0.35298 -2.10523,6.25266 -0.18909,1.70184 0.89503,0.61769 z m 27.14108,-37.7681 -1.33625,3.37846 0.26473,1.26062 1.96656,3.00026 3.4667,2.77336 4.65168,-1.4245 0.46642,-1.42449 -0.85721,-4.24828 -7.51328,-3.75664 z"
     inkscape:connector-curvature="0"
     style="fill:#bd8240;fill-opacity:1;stroke:#ffffff;stroke-width:0.63030863;stroke-opacity:1" />
  <path
     id="LI-08"
     title="Schellenberg"
     class="land"
     d="m 523.31607,171.30863 -4.7147,-2.0422 -2.39517,-1.92875 -2.86161,0.32776 -0.47903,0.71856 0.47903,1.4245 -0.76898,0.99588 -4.37434,0.13867 -13.34993,6.71909 -5.55933,4.84077 -4.42476,7.1477 -1.39928,0.75637 -2.79858,0.13867 v 0 l -0.92025,-1.07153 -1.00849,-3.18936 -2.54645,-4.46258 -0.76898,-0.75637 h -0.65551 l -4.37435,2.58427 -3.80706,4.53821 -5.13071,4.39956 -3.37846,4.097 -0.416,1.28584 v 0 l -4.00877,-0.15127 -2.01698,0.64291 h -4.0844 l -3.70621,-1.29844 -1.70185,-0.12606 -7.26114,1.99178 -2.53385,-0.063 -2.74814,-1.46231 -0.79419,-0.95807 v -3.94573 l 1.00849,-1.81529 v 0 l 8.25705,-14.59795 3.265,-0.36558 3.16414,0.71855 3.65579,-0.0883 5.35763,-5.21895 7.67716,-4.33653 9.90845,-6.39133 8.35789,-4.33652 5.87447,-7.23594 7.81584,-5.74842 8.81171,-8.87474 6.90818,-13.06001 2.14305,-4.67688 0.0252,-1.73966 -1.72705,0.61771 -6.90819,5.55932 -15.99723,15.29129 -11.39598,7.46286 -1.61359,-0.52946 -6.30308,-4.32393 -9.49245,-9.6185 -0.27734,-0.88244 2.0422,-2.89942 7.76541,-8.1688 11.2447,-9.15208 13.62727,-12.896106 6.78212,-6.832548 7.362,-8.761291 2.05481,1.172375 v 0 l 14.38365,18.543681 25.02325,37.175599 -14.45928,23.43488 z"
     inkscape:connector-curvature="0"
     style="fill:#bd8240;fill-opacity:1;stroke:#ffffff;stroke-width:0.63030863;stroke-opacity:1" />
  <path
     id="LI-09"
     title="Triesen"
     class="land"
     d="m 433.47188,645.22509 5.71059,8.3705 0.32777,8.25704 6.40393,8.84954 v 1.0337 l -1.86571,4.16004 0.10085,1.39929 3.97094,5.38283 1.18499,0.78158 4.48779,1.51274 2.15566,-0.59249 3.25239,0.15128 2.93724,9.24032 0.0505,11.34556 -0.64292,2.40778 -0.12606,3.10112 -2.79857,13.81636 -3.31543,7.77801 0.17649,1.12195 4.00876,6.87036 1.43711,1.44971 3.00027,0.12607 2.31953,-0.66813 3.31543,-0.0631 1.42449,-0.57989 3.17675,-0.0252 6.56783,-1.23541 1.37406,0.32777 13.42558,10.31184 0.95807,2.58427 0.84461,5.47108 0.99589,2.87421 16.62754,18.00162 7.18552,5.49628 h 1.55056 l 11.91283,-7.00903 1.4119,-0.0631 8.19401,9.90845 v 17.30828 l 0.65552,3.00027 v 0 l -9.30335,9.39159 -3.40368,4.04659 -3.49191,7.61412 1.15978,14.14413 0.0126,6.75691 -1.33626,6.13921 0.92025,2.93723 4.56344,7.76541 4.05919,4.84076 6.73169,6.87037 1.0211,0.74377 10.02191,2.18086 5.55933,0.0252 6.40393,-1.52535 8.53438,-4.7021 4.47519,-2.97506 5.02986,-1.71444 3.56755,-3.15154 -0.90765,-4.05919 -5.30719,-5.40805 -3.0507,-2.38257 -4.79034,-5.81144 -1.39929,-4.46258 -0.0252,-5.86188 -0.6051,-2.10523 -0.0505,-5.60974 -0.71855,-4.22307 -5.98793,-7.47546 0.15127,-3.22718 2.36996,-4.04658 0.90765,-2.79858 v 0 l 1.89092,-1.51274 1.29844,-1.77746 2.13044,-3.83228 1.51274,-4.92902 -1.44971,-6.56782 -3.21458,-9.97147 0.0252,-17.78732 -0.65552,-2.20608 0.0378,-2.76075 0.79419,-0.52945 6.30309,0.0505 1.81529,-0.6177 4.96684,-0.0252 1.79007,-0.6051 3.4793,-0.12605 v 0 l -0.2017,9.50505 0.57989,1.48753 0.11345,3.45409 2.0296,9.06384 3.37845,9.34117 3.0633,5.02986 2.33215,4.95423 1.05891,0.99589 v 0 l 0.28994,2.44559 3.74404,8.92517 -3.79447,10.67743 1.28584,5.4963 7.1351,18.9849 6.99642,22.86759 9.17729,17.58561 -0.50425,1.17238 -7.50066,7.34939 -0.41601,0.93286 8.06795,6.37873 5.23157,11.01779 4.08439,5.58454 4.76514,4.16003 4.2987,3.00027 3.90791,5.97533 6.5174,4.37434 v 0 l -5.35763,3.10111 -4.85337,3.80707 -5.39545,2.38256 -5.97532,3.95835 -5.04247,2.08001 -8.83693,2.849 -2.55905,1.95396 -9.20251,9.22772 -7.24855,2.29432 -7.72759,3.46669 -8.10576,2.53385 -16.1359,1.72704 -16.3376,2.73554 -3.13894,0.86983 -11.73635,5.82405 -13.61466,8.59741 -6.25267,5.09294 -7.42503,-4.12234 -1.96656,-1.84043 -4.60125,-6.24005 -0.57989,-2.57167 -0.51685,-13.34993 -1.67662,-11.55986 -0.85723,-3.61797 -2.55904,-5.49629 -4.91642,-5.04247 -5.55932,-4.26089 -7.10988,-2.76075 -9.18989,-7.05945 -5.21896,-1.85312 -2.87421,-1.67661 v 0 l -20.4094,-26.48557 -6.80733,-6.69388 -0.98328,-1.79008 -2.29433,-7.81582 -2.53384,-5.26938 0.0631,-7.36201 1.90352,-5.23156 0.73116,-3.68101 0.46644,-8.26964 -0.32776,-2.25651 -1.2102,-0.94546 -3.42887,-0.11346 -1.47493,-0.59248 -3.265,-0.11346 -3.20196,-0.81941 -6.24006,-2.13044 -4.0718,-2.73554 -1.33625,-1.39928 -1.39929,-2.8616 -1.99177,-4.55083 -1.73966,-5.47108 -5.64756,-6.29048 -3.70621,-6.47957 -1.41189,-1.4245 v 0 l 3.51712,-8.08056 2.09262,-7.65195 2.69772,-5.95011 0.90765,-4.03397 0.416,-7.03425 -0.12606,-31.6667 -0.49164,-4.0844 -3.26499,-11.8372 -2.39518,-13.66509 -5.29459,-12.8583 -3.56755,-7.29897 1.34886,-5.23157 0.64291,-6.5552 -0.13867,-8.24444 -0.70594,-6.42915 -1.46232,-6.47957 -1.77747,-11.44641 -3.4793,-12.07671 v 0 l 10.55137,-2.10524 7.68976,-0.76896 2.15566,-0.5925 7.14769,0.0883 8.52178,1.97917 5.04247,0.13866 4.12222,0.68073 z"
     inkscape:connector-curvature="0"
     style="fill:#bd8240;fill-opacity:1;stroke:#ffffff;stroke-width:0.63030863;stroke-opacity:1" />
  <path
     id="LI-10"
     title="Triesenberg"
     class="land"
     d="m 622.8166,718.26526 3.03809,-1.92875 3.35324,-0.16388 2.64729,-0.88243 4.10962,-2.73554 3.58015,-3.42887 2.44559,-0.98329 5.10551,0.0505 5.73581,1.32365 6.30308,0.10086 2.60948,0.65551 2.59687,-0.63031 8.82432,0.0378 2.77336,-0.55466 21.12794,6.71908 5.66018,1.17238 2.23129,-4.10962 3.0633,-3.74403 v 0 l 18.30416,18.01422 13.56425,22.62808 10.31184,29.95227 -8.15619,27.78401 -4.36173,29.41019 -32.48611,0.64291 -28.91857,12.94655 -0.88242,5.86187 v 0 l -1.4119,-0.99589 -1.60098,-4.17265 -1.67662,-2.25649 -2.10523,-4.2735 -0.95807,-3.03809 -2.72294,-4.24828 -3.54233,-3.39106 -4.26089,-5.31981 -2.0548,-4.96683 -0.10085,-3.49191 -0.74377,-3.30281 -1.68922,-4.04658 v 0 l 2.86159,-1.73966 0.88244,-1.57577 0.78159,-3.92052 0.11345,-3.27761 0.57988,-1.48752 0.11345,-3.29021 0.5925,-1.48753 0.13867,-3.44148 2.54644,-7.08468 1.6136,-6.02575 2.49602,-5.3198 0.0378,-3.37845 -3.81968,-4.09701 -2.02959,-3.30282 -1.41189,-6.51739 -0.16389,-4.10961 -1.36146,-5.39544 -0.88243,-1.90353 -3.61797,-3.13895 -3.54234,-4.62646 -3.0759,-2.52123 -1.07153,-2.34475 -2.00438,-2.76075 -3.39106,-3.44148 -6.78212,-4.77775 -5.57193,-1.75225 z m -28.38911,-210.52309 -2.63468,6.36612 -0.26473,5.18113 -1.41189,3.265 -2.48342,3.56755 -0.11346,3.51712 -0.55467,2.0422 1.28583,3.36586 -0.66812,2.16825 -0.12607,4.65168 -0.57988,1.52535 0.63031,3.08851 -2.01699,3.97094 -0.34036,2.06742 0.36557,2.01698 v 0 l -0.12606,5.62235 -0.75637,3.0507 -3.50452,7.79062 -6.08878,6.1392 -3.00026,2.26912 -4.50041,5.83665 -4.97944,4.6895 -0.4286,1.27322 0.0378,5.34502 -2.13044,3.00026 -1.37407,0.20171 -3.08852,-2.59688 -1.42449,0.10086 -3.88271,5.59713 -1.75226,4.66429 -3.08851,4.56343 -0.2143,3.49191 0.79419,2.19348 0.74376,0.83201 12.37927,7.84103 3.15154,4.51302 3.2776,3.6936 7.57631,5.9249 4.33653,1.50014 7.19812,0.92025 8.14359,3.2776 10.81609,1.6136 0.89504,1.02109 0.25213,6.41655 -0.65553,2.19347 -0.13866,4.17264 -3.49191,11.32034 -4.57605,11.59768 -0.10084,4.66429 -0.64292,2.0548 -0.063,7.70237 -0.6051,2.40779 -0.10085,5.58453 -0.66812,3.54234 v 0 l -3.30283,8.39571 -2.0674,8.19401 -0.18909,3.20197 -0.63032,2.01699 0.0378,9.58068 0.54206,1.28584 0.86982,5.84926 2.74815,7.08467 v 0 l -3.4793,0.12606 -1.77748,0.6051 -4.97944,0.0126 -1.80267,0.63031 -6.3157,-0.0505 -0.79419,0.52946 -0.0252,2.76076 0.65552,2.20607 -0.0252,17.78732 3.21458,9.97148 1.4497,6.56782 -1.51274,4.92901 -2.11783,3.83228 -1.31105,1.77746 -1.89092,1.51274 v 0 l -3.18936,-1.31103 -2.77336,-0.10085 -4.53822,2.57166 -2.79858,0.78157 -11.79937,-3.87009 v 0 l -0.65542,-3.00019 v -17.30827 l -8.19401,-9.89585 -1.4119,0.063 -11.90023,7.00902 h -1.55056 l -7.19811,-5.49628 -16.62754,-18.00162 -0.98329,-2.8616 -0.84461,-5.47108 -0.97068,-2.57166 -13.42557,-10.31185 -1.37407,-0.34037 -6.55522,1.23541 -3.17675,0.0378 -1.42449,0.57989 -3.31543,0.063 -2.31954,0.66813 -3.00027,-0.11346 -1.4371,-1.46231 -4.00877,-6.87036 -0.17648,-1.12196 3.31543,-7.79061 2.79856,-13.80376 0.12607,-3.10112 0.64291,-2.40777 -0.0504,-11.34556 -2.93724,-9.24032 -3.25239,-0.15128 -2.15565,0.59249 -4.4878,-1.51274 -1.18498,-0.78158 -3.97094,-5.38284 -0.10086,-1.4119 1.87833,-4.16003 v -1.03371 l -6.40394,-8.84953 -0.34037,-8.24444 -5.71059,-8.3831 v 0 l 7.10988,-2.93724 1.44971,-5.49629 0.12606,-3.12633 0.66812,-2.35736 -0.416,-2.01699 -3.35323,-2.73554 -2.82379,-3.25238 -0.8194,-3.12634 -0.11345,-4.65167 -4.50041,-6.03836 -0.15128,-3.6684 -0.6303,-2.00438 0.063,-10.26143 2.8616,-10.74045 2.89942,-4.66428 5.62235,-2.60948 1.91614,-1.23541 0.32776,-0.74376 -0.11346,-2.94985 -3.10111,-6.80733 -2.05481,-6.06357 0.0504,-4.24828 2.52123,-1.6514 3.2524,0.89503 5.68538,9.74457 3.60536,1.61359 1.10935,0.0883 1.70183,-1.41189 0.28994,-1.08414 -0.0883,-6.12659 -2.59688,-6.89558 0.13867,-2.59687 1.43711,-2.16826 3.70621,-0.83202 8.00492,0.17649 4.18525,2.83639 4.42477,6.76952 1.22279,0.54206 7.90407,-3.52972 5.26939,-5.10551 4.76513,-2.00438 2.98767,-0.34036 0.0252,-2.76076 -3.8701,-15.25347 -0.0504,-2.35735 5.30719,-13.86679 2.34476,-7.52589 3.15154,-6.76952 2.73554,-7.50066 0.15127,-4.21046 -0.42861,-1.6136 v 0 l 0.6303,-1.86571 7.14771,-8.50917 4.33652,-7.03424 1.79008,-1.99178 v 0 l 16.21154,8.1688 8.13098,6.16443 18.60671,16.18632 10.16058,8.25704 9.02601,4.95423 9.27815,2.76075 z"
     inkscape:connector-curvature="0"
     style="fill:#bd8240;fill-opacity:1;stroke:#ffffff;stroke-width:0.63030863;stroke-opacity:1" />
  <path
     id="LI-11"
     title="Vaduz"
     class="land"
     d="m 593.69634,710.52507 3.42887,0.0883 4.14744,1.31104 7.53849,0.15128 3.65579,1.91613 5.29459,1.61359 3.90791,2.433 1.15978,0.23952 v 0 l 3.70621,1.90353 5.57192,1.75225 6.78213,4.79035 3.39105,3.44149 2.00439,2.76075 1.07153,2.34474 3.0759,2.53385 3.54233,4.62646 3.61798,3.13894 0.89503,1.90353 1.36148,5.39544 0.16387,4.10962 1.41189,6.51738 2.0296,3.30282 3.81967,4.10961 -0.0378,3.37846 -2.49602,5.3198 -1.6136,6.02575 -2.54644,7.08467 -0.13867,3.44149 -0.59248,1.48753 -0.10086,3.23979 -0.57988,1.48753 -0.10085,3.27759 -0.78158,3.92052 -0.86983,1.57578 -2.8616,1.75226 v 0 l -2.49602,0.97067 -2.13044,0.0883 -4.21046,-1.29844 -8.08057,-1.62619 -14.40885,-4.90381 -7.68977,-5.16853 -1.89092,-0.73116 -7.57632,-0.2143 v 0 l -1.05891,-0.99589 -2.33214,-4.95423 -3.06331,-5.02986 -3.37845,-9.34117 -2.0422,-9.05124 -0.11345,-3.45409 -0.57989,-1.48753 0.2017,-9.49244 v 0 l -2.74815,-7.08467 -0.86982,-5.84926 -0.54206,-1.28584 -0.0252,-9.58068 0.63032,-2.01699 0.18909,-3.20197 2.06741,-8.19401 z m 47.95388,-131.12941 6.95861,6.11399 6.02574,6.46697 4.41217,3.07591 6.08878,7.70237 1.4371,3.8827 v 12.55574 l 0.74376,4.61387 2.47081,4.2987 2.04221,7.41242 0.0631,2.20609 v 0 l -2.62209,0.89504 h -5.15592 l -7.75279,-2.01699 -2.92464,-0.16388 -4.76513,-7.21073 -3.80707,-0.89504 -3.50451,-0.0756 -4.66429,1.33624 -4.82816,-0.0883 -2.91203,-0.65553 -10.23621,-0.18909 -6.88297,-6.27788 -1.65141,-4.94162 -5.84927,-8.86213 0.0252,-1.4371 1.55056,-0.86984 8.96299,-0.8446 8.72347,-2.69772 1.27323,-0.86983 5.68538,-5.97533 9.61851,-13.69031 z m -274.46159,12.15235 -7.07207,-28.08656 -17.58561,-25.7418 -4.36174,-7.74019 4.0718,-0.64291 7.74019,0.0126 1.66401,0.71855 7.24855,9.11426 7.65195,11.18167 3.76924,4.60125 2.60949,8.67305 2.2439,-0.0883 6.54259,-2.69772 2.2313,-1.28583 0.15128,-0.83201 -12.0263,-15.05177 -2.05481,-3.58016 -4.07178,-11.78676 -2.87422,-15.61905 -3.85748,-3.32803 -0.84462,-1.2102 0.25212,-1.12194 2.40779,-3.03809 v -1.04632 l -32.72563,-28.5908 -0.80679,-2.31953 -0.13867,-2.93723 -2.60948,-11.79939 v -1.86571 l 0.37818,-0.57988 11.16907,0.0126 1.34887,0.55468 2.71032,0.15127 14.72402,3.34064 2.39517,0.20169 1.76486,0.8194 0.0126,1.61359 -1.29844,3.12633 0.0126,4.50041 5.42065,25.76701 1.39928,1.56317 2.0422,1.32365 12.55576,7.09727 1.14716,-0.0883 8.92517,-3.81967 9.46723,-2.31954 0.25213,-4.92901 -0.63032,-2.97506 -0.0126,-7.94189 -0.60509,-4.17264 1.05891,-0.92024 4.18526,-0.0126 2.63468,-0.84462 5.02987,-10.18579 0.6303,-0.45382 3.23979,0.0126 1.51274,0.59249 10.34967,1.61359 18.9849,6.1266 6.37872,0.0504 8.72347,-1.27322 9.16469,0.0504 11.14386,-0.6303 3.88269,0.69334 4.36174,0.10084 1.76487,0.61771 3.87009,0.11345 12.42969,6.17703 v 0 l 0.42861,1.61359 -0.15127,4.21046 -2.73554,7.50067 -3.15155,6.76951 -2.34475,7.52589 -5.3072,13.86679 0.0504,2.35736 3.87009,15.26607 -0.0252,2.76075 -2.98766,0.34037 -4.76513,2.00439 -5.26939,5.10549 -7.90407,3.52973 -1.22279,-0.54206 -4.42477,-6.76952 -4.18525,-2.83639 -8.00492,-0.16388 -3.69361,0.83201 -1.4371,2.16826 -0.13867,2.59687 2.59687,6.89558 0.0883,6.1266 -0.28994,1.08413 -1.70184,1.41189 -1.10933,-0.0883 -3.60537,-1.61358 -5.68539,-9.74458 -3.25239,-0.89503 -2.52123,1.6514 -0.0504,4.24828 2.0548,6.06358 3.10112,6.80733 0.11346,2.94984 -0.32776,0.74376 -1.91614,1.23541 -5.60975,2.60948 -2.89942,4.66428 -2.86161,10.74047 -0.063,10.26141 0.6303,2.00439 0.15128,3.66839 4.5004,6.03836 0.11346,4.65168 0.8194,3.12633 2.82378,3.2524 3.35325,2.73554 0.416,2.01698 -0.66813,2.35736 -0.12606,3.12632 -1.44971,5.4963 -7.10988,2.93723 v 0 l -4.85338,0.74377 -4.12222,-0.68073 -5.04247,-0.13867 -8.52177,-1.97917 -7.1477,-0.0883 -2.15566,0.59249 -7.68976,0.76897 -10.53876,2.10523 v 0 l -2.63469,-13.48861 -3.47931,-9.35377 -2.64729,-12.74485 -2.64729,-6.24004 -2.82379,-9.22773 z m 56.22353,-178.70511 5.05507,3.75664 0.79419,1.2354 -5.47108,8.5596 -1.0337,0.81939 -6.89559,-3.46669 -5.04246,-9.93367 -1.76486,-0.84461 -4.34914,-0.0882 -0.57988,-0.8194 2.29432,-7.68976 1.36147,-0.35298 10.81609,5.05508 z m 85.74718,-48.15557 -2.38256,1.02109 -1.56317,-4.19786 -1.94135,-2.50862 -6.41654,-3.80707 -2.26911,-2.19347 v 0 l -2.92463,-1.61359 v 0 l 4.72731,-3.23979 v 0 l 8.24443,7.47546 z m -118.97706,-24.92241 9.35378,45.23095 -0.64291,0.50425 -4.18525,0.6303 -8.3579,-0.0378 -3.16414,0.64292 h -8.1562 l -0.99588,-0.26473 -0.76898,-1.46231 -4.34913,-13.18606 -8.3831,-10.70265 -0.66813,-1.37406 -5.67278,-20.00601 -1.60098,-2.29432 v 0 l 3.64318,-0.0505 2.71033,0.68073 6.81993,0.0378 v 0 l 5.34503,0.0505 3.46669,0.69334 11.4338,0.0882 z"
     inkscape:connector-curvature="0"
     style="fill:#bd8240;fill-opacity:1;stroke:#ffffff;stroke-width:0.63030863;stroke-opacity:1" />
  <g
     id="stadiums"
     data-country="liechtenstein"
     data-circle-radius="6"
     transform="translate(0,207.30487)" />
</svg>
