<?xml version="1.0" encoding="UTF-8" standalone="no"?>
<?xml-stylesheet type="text/css" href="/styles/home.css"?><!-- https://www.amcharts.com/svg-maps -->

<svg
   version="1.1"
   id="map-lithuania"
   viewBox="0 0 1000 1000"
   width="1000"
   height="1000"
   class=""
   sodipodi:docname="lithuania.svg"
   inkscape:version="1.3.1 (91b66b0783, 2023-11-16)"
   xmlns:inkscape="http://www.inkscape.org/namespaces/inkscape"
   xmlns:sodipodi="http://sodipodi.sourceforge.net/DTD/sodipodi-0.dtd"
   xmlns="http://www.w3.org/2000/svg"
   xmlns:svg="http://www.w3.org/2000/svg"
   xmlns:rdf="http://www.w3.org/1999/02/22-rdf-syntax-ns#"
   xmlns:cc="http://creativecommons.org/ns#"
   xmlns:dc="http://purl.org/dc/elements/1.1/">
  <metadata
     id="metadata19">
    <rdf:RDF>
      <cc:Work
         rdf:about="">
        <dc:format>image/svg+xml</dc:format>
        <dc:type
           rdf:resource="http://purl.org/dc/dcmitype/StillImage" />
        <dc:title />
      </cc:Work>
    </rdf:RDF>
  </metadata>
  <sodipodi:namedview
     pagecolor="#ffffff"
     bordercolor="#666666"
     borderopacity="1"
     objecttolerance="10"
     gridtolerance="10"
     guidetolerance="10"
     inkscape:pageopacity="0"
     inkscape:pageshadow="2"
     inkscape:window-width="1920"
     inkscape:window-height="1106"
     id="namedview17"
     showgrid="false"
     showguides="true"
     inkscape:guide-bbox="true"
     inkscape:zoom="76.850238"
     inkscape:cx="663.61538"
     inkscape:cy="123.94887"
     inkscape:window-x="-11"
     inkscape:window-y="-11"
     inkscape:window-maximized="1"
     inkscape:current-layer="map-lithuania"
     inkscape:showpageshadow="2"
     inkscape:pagecheckerboard="0"
     inkscape:deskcolor="#d1d1d1">
    <sodipodi:guide
       position="1295.819,500"
       orientation="0,1"
       id="guide826"
       inkscape:locked="false"
       inkscape:label=""
       inkscape:color="rgb(0,0,255)" />
    <sodipodi:guide
       position="667.4345,877.56707"
       orientation="0,-1"
       id="guide1"
       inkscape:locked="false" />
  </sodipodi:namedview>
  <defs
     id="defs4">
    <style
       id="style2"
       type="text/css">
			.land
			{
				fill: #b6bce0;
				fill-opacity: 1;
				stroke:white;
				stroke-opacity: 1;
				stroke-width:0.5;
			}
         .rectangle:hover {
         fill: #bdbdbd;
         cursor: pointer;
         }
		</style>
    <!-- <amcharts:ammap projection="mercator" leftLongitude="20.958510" topLatitude="56.446758" rightLongitude="26.838150" bottomLatitude="53.898758"></amcharts:ammap> -->
    <!-- All areas are listed in the line below. You can use this list in your script. -->
    <!--{id:"LT-AL"},{id:"LT-KU"},{id:"LT-KL"},{id:"LT-MR"},{id:"LT-PN"},{id:"LT-SA"},{id:"LT-TA"},{id:"LT-TE"},{id:"LT-UT"},{id:"LT-VL"}-->
  </defs>
  <path
     id="LT-AL"
     title="Alytus"
     class="land"
     d="m 475.55522,715.01997 3.39746,2.07411 3.13025,-0.43264 1.66692,-3.74103 11.85931,1.756 -2.0741,3.4738 7.69836,-2.7994 0.0127,-7.27846 11.18492,1.05614 6.24777,-3.47381 0.66167,-3.74102 -3.09207,-1.60331 3.19387,-7.83834 6.884,-3.10479 6.01872,1.14521 3.34657,5.76423 3.38474,-2.9521 11.63027,0.0509 1.3488,-5.20436 5.81513,0.0637 3.1048,-2.81213 2.46857,0.6744 -1.69237,5.61154 3.2575,6.52771 14.20063,1.48878 6.9349,-1.03069 1.67964,-2.88849 v 0 l -0.38174,8.76724 2.3795,5.16618 -4.56813,2.16318 7.20212,5.0771 -3.32112,8.98357 2.78668,-0.90345 2.73579,3.6774 15.00228,-1.51422 -0.0509,2.73578 5.36978,1.6033 1.41243,-6.9349 4.58084,-0.26722 1.53968,-3.25749 3.83009,1.33608 3.66468,-1.98503 8.41095,5.77695 -1.59057,5.94238 1.95959,5.91693 3.13024,-4.86078 1.27246,1.69237 17.3945,0.0763 0.71258,-4.18638 9.44164,-1.25974 0.7253,2.41768 2.01049,-4.51723 16.74554,-4.42815 -0.25449,11.71933 -3.84282,0.9289 0.44536,3.5247 -12.03745,2.32861 0.41991,3.29567 -3.003,0.87799 3.58832,18.09435 -8.43639,0.5726 -1.85778,2.64672 2.50673,2.82486 -3.98279,0.40718 -2.44312,5.36978 -4.58084,-0.22905 -0.44537,2.15046 -2.2777,-0.78892 0.39446,4.55539 -9.1617,2.3286 -0.38174,6.14598 10.67593,4.69537 3.53743,12.61006 v 0 l -2.58309,0.92889 2.22681,3.84283 -9.9888,5.78968 8.15646,11.83386 0.39446,7.48205 3.48653,3.29567 3.66468,-1.32335 1.3997,1.89596 -5.98055,1.06886 0.58534,6.09507 -2.34133,-0.45808 -2.06138,4.00824 -7.76199,0.49626 -5.85331,5.4843 0.45808,2.21407 -8.4364,0.92889 1.64148,-15.88027 -3.43565,-0.36901 -3.4738,3.69013 -6.06962,-0.9798 -3.49927,5.14074 -13.88251,9.40346 -10.77772,14.69689 -3.75376,1.87051 -1.57785,-1.84506 0.12726,2.53219 -0.87801,-2.30314 -10.70137,1.64146 -1.81962,-3.21932 -2.63398,3.13025 -2.88849,-0.75075 -10.38325,-13.6153 -3.46109,2.26497 -3.65195,-1.43788 -1.56512,-5.81512 -10.12877,4.60629 -4.78444,-0.89071 -2.23953,5.15344 -18.75603,3.69013 -3.37201,-0.40718 -1.09432,-6.97307 -8.1819,-4.78444 -4.35181,7.46933 -6.2096,-3.34657 -3.38474,0.75075 -5.9551,5.3316 3.07935,7.06214 -6.73131,2.71034 0.81437,-3.37202 -2.59581,-3.60105 -7.59657,-3.7792 -19.46861,3.003 -4.73355,-4.75899 -7.60929,-0.29267 -6.69313,-6.94762 -2.4813,-8.70361 7.29119,-9.18715 0.58533,-9.9379 -6.006,-14.77324 -1.0816,-10.39598 -4.60629,-6.55316 -5.80241,-0.63623 -7.48205,-14.82413 -9.84883,-7.10033 v 0 l 2.02321,-6.60405 -3.65195,-6.47681 5.62426,-2.96483 0.85254,-10.58686 8.99629,-6.48953 9.50525,-0.4708 -3.19386,-2.67217 -0.95435,-6.47681 3.80465,0.55988 5.35705,-4.8099 4.22456,0.49627 -0.0382,-15.43492 17.11456,-7.26574 1.84506,-5.45884 3.28294,-1.84506 4.27547,3.91916 2.37949,7.0367 5.08983,-2.63399 z"
     inkscape:connector-curvature="0"
     style="fill:#b6bce0;fill-opacity:1;stroke:#ffffff;stroke-width:0.6362291;stroke-opacity:1" />
  <path
     id="LT-KU"
     title="Kaunas"
     class="land"
     d="m 292.93203,416.78124 3.89372,-3.32112 2.08684,1.52695 7.32936,-8.98355 2.64671,3.09207 12.31739,-1.01796 0.50898,7.39298 -4.33908,1.70509 3.21932,4.49177 1.97231,-2.60854 5.78968,2.18863 6.84583,-6.55315 9.42891,-2.25226 1.97232,1.50151 7.63474,-6.94762 2.51947,2.78668 0.45808,-3.56288 4.33909,2.92665 -1.87052,-9.61978 3.97008,-1.37426 -0.0763,-7.7111 4.61903,-0.95434 0.68713,4.26274 2.88848,0.44535 12.25377,-3.84281 2.15046,-2.87576 2.0741,12.33011 2.81213,2.12501 2.91393,-4.59357 2.01048,2.01048 9.12353,-4.19911 6.88399,4.5045 3.62651,8.02922 9.31439,2.87574 -1.20883,2.03594 2.99028,0.90344 2.97755,-2.82485 -1.42516,-5.77696 10.21785,-2.54492 5.64971,4.58086 -0.29267,10.09059 15.72759,0.5726 -0.50899,-3.8301 6.87128,-7.10031 33.542,-16.79646 v 0 l 4.07186,5.52247 -2.9012,1.14521 1.09431,3.4102 4.46633,5.19163 4.02097,2.65943 0.16541,-1.88323 4.03369,-0.50899 9.91246,10.24329 3.60105,-0.66168 -1.17067,9.60706 7.64748,1.7051 1.97231,-3.14298 3.18115,0.24177 2.21407,4.00824 4.74628,-4.27546 6.5277,0.33084 0.9289,-6.88399 6.83309,2.83757 0.3054,4.31364 8.19462,3.01572 2.30316,-4.74627 5.70061,5.56065 4.25001,-0.57261 4.21184,2.63399 -0.36902,5.20435 8.32188,4.56813 v 0 l -0.33084,6.89672 -3.67741,1.5015 -0.39446,4.11004 -2.49401,1.52695 -2.4813,17.41995 5.52247,0.50899 1.37426,3.20659 -2.64672,13.88252 15.54944,4.00825 -4.02096,5.29342 3.20659,11.47757 7.21484,2.63399 -3.33384,3.60106 3.23203,6.55316 2.95211,3.5247 3.63923,-0.76347 1.6033,10.87951 3.881,0.2036 2.71033,6.69313 2.31588,0.59806 -3.18115,1.80689 0.25449,3.61377 -6.98579,1.18339 0.85254,4.61903 -4.54267,1.65419 -2.21408,4.84807 4.66993,5.0262 6.74402,-0.0891 3.16842,5.22981 6.75676,2.9521 1.95958,5.58609 6.80765,-1.27245 v 0 h 3.27022 v 0 l 10.48505,8.53819 -1.81961,5.42066 -3.38475,-1.2979 -5.0262,2.92666 2.21408,16.10931 -2.77397,-0.69985 -1.32335,2.23952 -1.92141,-1.74326 -0.26721,2.01048 -7.07487,0.90345 -7.17667,4.70809 -2.125,8.85631 2.36677,5.26797 -2.36677,0.43265 -1.09431,13.19538 -5.50975,0.58534 -5.63699,-4.87352 -2.07411,7.99104 -6.8331,-3.2575 -4.98803,1.03069 -3.55016,5.45885 2.82486,12.95363 -3.7283,2.37949 3.27021,-0.0254 1.94686,6.61678 -2.59581,-0.55987 -5.15346,5.15345 -2.1759,-1.66692 -1.80689,18.8451 v 0 l -1.67964,2.88849 -6.9349,1.03069 -14.20063,-1.48878 -3.2575,-6.52771 1.69237,-5.61154 -2.46857,-0.6744 -3.1048,2.81213 -5.81513,-0.0637 -1.3488,5.20436 -11.63027,-0.0509 -3.38474,2.9521 -3.34657,-5.76423 -6.01872,-1.14521 -6.884,3.10479 -3.19387,7.83834 3.09207,1.60331 -0.66167,3.74102 -6.24777,3.47381 -11.18492,-1.05614 -0.0127,7.27846 -7.69836,2.7994 2.0741,-3.4738 -11.85931,-1.756 -1.66692,3.74103 -3.13025,0.43264 -3.39746,-2.07411 v 0 l 5.92965,-10.73954 -5.49702,-5.76424 -1.81961,-7.91469 -7.41843,2.50675 -6.37502,-12.45737 5.71334,-2.86304 -4.32635,-7.21483 -4.9117,0.44536 0.66168,-2.29042 -3.30839,-1.5524 7.55841,-2.83759 -2.95211,-3.95734 3.38474,-2.35405 -0.78892,-4.83534 -5.4334,-8.48729 4.82261,-4.02097 -4.61901,-8.14373 1.74326,-4.40271 -2.8503,-1.5015 -8.38551,2.29042 11.08312,-11.61754 -7.16394,-7.39298 1.89596,-2.31587 -2.08683,-2.32861 3.70285,-5.54791 -14.87503,-11.19763 -6.96035,4.36453 -3.69013,-3.35929 -0.71258,-10.24329 -13.83161,-6.97307 8.99627,-7.73654 11.36306,-2.07411 10.76499,-5.62426 1.756,-8.64 -5.36978,-3.04117 -11.96111,-1.31063 -12.15197,-7.49478 v 0 l 4.86079,-3.32112 6.65495,-12.012 0.0636,-10.91769 4.74627,-12.90272 -8.94538,-4.38998 -5.64971,2.51947 -1.48877,-1.98504 -2.86304,1.18338 -3.33384,-1.93413 -1.25974,-7.31664 -9.14896,0.26722 -1.43788,2.41767 -19.83763,-0.63623 -0.22903,-10.58685 -10.61231,3.91917 -7.68565,-1.78144 -1.98503,3.9319 -10.58685,-0.62351 3.24477,-6.9349 -8.2837,-4.3009 1.67964,-7.92742 -6.62951,1.94686 -2.93938,-2.26498 1.00525,2.71034 -6.12053,0.8271 -0.19087,3.21932 -2.88848,-0.26722 -2.39221,3.46109 v -5.75151 l -3.4102,-2.15046 -0.0763,-3.39746 -9.23805,-0.17815 0.24177,-4.70808 3.14297,-2.23954 -2.3795,-9.75975 -6.97307,0.68713 -1.17066,-3.23205 -3.09207,0.1527 1.04341,-10.63775 -7.26573,2.44312 -4.42815,-11.08311 3.63923,-2.36677 z"
     inkscape:connector-curvature="0"
     style="fill:#b6bce0;fill-opacity:1;stroke:#ffffff;stroke-width:0.6362291;stroke-opacity:1" />
  <path
     id="LT-KL"
     title="Klaipėda"
     class="land"
     d="m 24.63423,343.81849 5.662439,12.22832 -2.621264,56.40808 -4.848066,14.36604 3.537434,6.13325 -4.046417,3.0539 1.081589,1.94686 -6.235044,10.99404 0.394462,11.51574 -7.087592,4.5045 -0.6998516,3.69013 -3.1175214,1.39971 1.2979072,2.53219 -3.5374335,3.18115 -4.13548867,-0.59806 14.91320797,-36.93946 7.634748,-31.23884 2.875756,-37.18123 -2.570366,-27.56144 z m 146.14183,-200.5394 1.93413,0.54716 v 0 6.43863 l -6.59134,1.00525 -0.7253,10.21783 7.78745,0.76348 -1.32336,14.55692 3.89372,5.92966 -0.49625,6.98579 4.3518,4.45361 -0.21632,4.51722 -8.131,-1.46333 -7.83834,26.74707 -14.46785,-6.12052 1.97231,10.95586 -15.66396,-3.86827 -3.58834,9.40347 -3.90645,-0.85255 -10.01425,22.90425 -12.85182,-1.97231 -2.02321,4.86079 6.006,2.60854 -4.28818,9.60706 1.5015,9.9379 -3.02845,0.0891 0.85254,3.02845 8.20736,5.26797 -4.61902,1.29791 -1.83234,6.9858 -8.283705,3.7792 0.292666,5.82786 -2.125006,-1.32336 -3.066624,7.97831 8.003769,5.03893 5.03892,-6.37501 1.32336,4.52995 5.56065,4.4027 -0.80165,3.16843 2.62126,0.66167 -1.93413,6.45137 3.49925,0.92889 2.78669,-3.61378 8.28371,4.18639 1.41243,-1.98504 0.96706,2.1759 2.08683,-0.81437 1.32336,-3.19386 3.16842,1.95958 0.1527,8.08011 -2.57037,5.24253 6.64224,4.91168 4.08459,0.0891 -3.11753,2.86303 -3.57561,13.05542 4.18639,3.09208 0.44536,7.24028 6.52771,-2.13773 8.18191,6.78221 v 0 l -2.18863,3.09207 1.42515,1.67965 -7.46932,3.84282 -3.74104,5.25525 4.59358,0.17815 -2.87576,2.93938 0.24177,6.4768 2.36677,6.4132 2.2268,-0.99252 3.47381,22.40798 8.46185,-3.70285 7.69837,4.56813 5.66244,-1.04342 3.90645,7.86379 -5.77697,13.76799 -16.89823,23.37507 13.92068,3.21931 11.05767,7.26574 -1.5524,4.02097 5.86603,17.62354 16.79645,-2.02321 4.79716,5.4334 16.84735,1.06886 3.69013,3.32111 -6.66768,0.0891 -0.96707,9.42891 2.83758,12.33012 v 0 l -20.27026,2.40495 -6.43863,8.70361 -7.03669,0.41992 -6.71859,-4.73355 -0.64895,-12.67368 -7.07486,-0.50899 -4.69538,3.38474 -7.62202,-1.62874 -11.99928,-5.10256 -5.50974,-6.43864 -5.91694,0.0254 -9.79792,-4.18639 -1.6033,-4.69536 -10.79045,-9.4162 -14.11156,-5.2298 -11.46485,3.06663 -8.309151,-10.01426 -11.617543,-21.73357 -18.66696,14.2388 4.313632,-16.73282 -9.55616,-11.80842 1.679645,-5.72605 2.595814,-0.0891 -3.232043,-1.57785 -2.544917,4.32636 -8.3346,3.39746 10.574127,-23.12055 1.208835,-13.42445 -5.318875,-18.51426 3.601056,-2.34132 -4.898963,2.36677 -1.196111,-14.16246 -5.726061,-7.17666 -4.619023,-13.06815 -0.521708,-6.70585 3.079349,4.56813 -4.440879,-12.63552 -3.333841,-7.38026 -6.336841,-5.0262 -5.369773,-57.32424 4.262735,-24.45664 -2.035933,-20.86831 16.08387,-5.01349 3.702853,3.28294 3.588332,-0.54716 5.700612,-11.70661 -0.648953,-14.22609 7.41843,-2.92665 9.250771,-14.06066 21.148254,-9.07263 6.871274,-13.38625 6.985795,-0.12726 4.911691,-6.99851 5.45884,-2.20135 6.73131,-0.0637 6.5786,3.70285 8.30916,-0.63622 19.09959,-17.72534 5.95512,3.43563 z"
     inkscape:connector-curvature="0"
     style="fill:#b6bce0;fill-opacity:1;stroke:#ffffff;stroke-width:0.6362291;stroke-opacity:1" />
  <path
     id="LT-MR"
     title="Marijampolė"
     class="land"
     d="m 277.89158,537.52478 12.36828,6.15871 13.84435,-3.14297 5.99328,-4.88625 11.97383,-3.49925 14.07338,1.51422 20.652,-6.64223 45.87212,11.14673 14.77324,-1.78144 v 0 l 12.15197,7.49478 11.96111,1.31063 5.36978,3.04117 -1.756,8.64 -10.76499,5.62426 -11.36306,2.07411 -8.99627,7.73654 13.83161,6.97307 0.71258,10.24329 3.69013,3.35929 6.96035,-4.36453 14.87503,11.19763 -3.70285,5.54791 2.08683,2.32861 -1.89596,2.31587 7.16394,7.39298 -11.08312,11.61754 8.38551,-2.29042 2.8503,1.5015 -1.74326,4.40271 4.61901,8.14373 -4.82261,4.02097 5.4334,8.48729 0.78892,4.83534 -3.38474,2.35405 2.95211,3.95734 -7.55841,2.83759 3.30839,1.5524 -0.66168,2.29042 4.9117,-0.44536 4.32635,7.21483 -5.71334,2.86304 6.37502,12.45737 7.41843,-2.50675 1.81961,7.91469 5.49702,5.76424 -5.92965,10.73954 v 0 l -6.68041,-5.86603 -5.08983,2.63399 -2.37949,-7.0367 -4.27547,-3.91916 -3.28294,1.84506 -1.84506,5.45884 -17.11456,7.26574 0.0382,15.43492 -4.22456,-0.49627 -5.35705,4.8099 -3.80465,-0.55988 0.95435,6.47681 3.19386,2.67217 -9.50525,0.4708 -8.99629,6.48953 -0.85254,10.58686 -5.62426,2.96483 3.65195,6.47681 -2.02321,6.60405 v 0 l -15.1677,-2.39221 -5.36977,-8.13101 -8.24554,-2.46857 0.90345,-3.71558 -2.58309,-1.62874 -8.37278,4.84806 -7.58384,-4.18638 -0.81437,-3.95735 2.97755,-4.32636 -11.69389,-5.87876 2.68488,-6.18414 -4.54267,-2.08683 -21.70814,-5.89149 -3.42291,1.24701 -4.17366,10.25601 -2.71034,1.57785 -11.84659,-18.1198 -3.56288,-8.14374 -0.45808,-15.04044 -3.25749,-7.77472 4.65719,-8.71635 -4.0337,-7.02397 10.1415,-11.68115 -0.22904,-5.10256 2.27769,-1.73055 -5.36976,-11.00676 4.18638,-5.95511 -1.69236,-5.34432 5.94238,-7.64748 5.30614,-1.01795 1.41243,-3.32112 5.19163,-0.30539 2.54492,-3.0539 -1.14521,-3.14298 4.44088,-0.73802 -0.76348,-4.27546 2.0741,-2.49402 -2.55764,-1.97231 0.85256,-4.09732 -2.83759,-1.14521 1.85779,-4.03369 -4.98804,-3.30839 2.31588,-6.60405 -1.20884,-3.13025 -4.65719,-4.56813 -4.37726,2.71034 -2.59582,-6.66768 -4.13548,2.09956 1.85778,-5.11529 -3.94462,-1.05614 -2.73578,-6.97307 -3.18115,-3.1048 -2.99027,0.41991 -1.87052,-4.55539 -3.41018,1.92141 0.53442,5.07711 -3.19386,-2.35406 -3.05391,-9.70885 -4.55539,-5.20435 z"
     inkscape:connector-curvature="0"
     style="fill:#b6bce0;fill-opacity:1;stroke:#ffffff;stroke-width:0.6362291;stroke-opacity:1" />
  <path
     id="LT-PN"
     title="Panevėžys"
     class="land"
     d="m 669.49056,122.81795 4.37726,1.9087 -1.25974,8.1819 5.42067,11.61755 4.7081,3.49926 0.90344,15.9439 6.4132,6.12053 1.17066,4.73353 5.85331,3.24477 3.58832,21.60635 12.95363,6.09507 h 8.14373 l 5.62426,-5.26798 14.11157,14.46785 3.58833,-2.79941 11.47757,-1.22156 -0.0509,2.90121 2.74852,0.85254 2.44311,-2.77395 11.85931,3.16841 1.43788,-4.87351 3.71557,-1.76872 3.49927,1.48878 1.97231,6.31139 5.20435,1.73055 9.13625,-0.0891 4.09732,-4.5045 1.81961,1.52694 -0.90345,4.31363 3.44836,3.23205 -1.78143,10.19239 12.35556,6.9858 9.89973,2.46856 2.15045,6.6804 3.7792,2.58309 0.63623,7.22757 6.28595,-0.34356 24.9529,13.89523 v 0 l -8.56364,1.53969 -5.31889,5.72605 -0.35628,3.72831 3.42292,4.75899 -2.11229,7.58385 -11.97383,2.39222 0.69986,11.42668 -6.79494,1.32335 -3.74102,-1.87051 -2.77395,19.44316 -9.23805,-3.32112 -6.43865,1.20884 -0.33084,10.6123 -6.90944,5.45885 -2.2268,-5.99329 -5.15345,2.88848 -5.70062,-0.39446 -2.5322,-3.04117 -2.78667,6.62951 -6.68041,-2.31587 -1.41243,3.5756 -2.30315,0.0891 -4.51722,-2.25225 1.06887,-3.01573 -4.55541,-1.59057 -1.73054,3.43564 -13.29718,-10.16694 -3.9828,0.96706 -5.52247,7.72383 -6.19687,0.66168 0.43263,5.33159 2.31588,0.9289 -1.43788,3.7283 -5.56064,-5.50974 -4.00824,0.48353 -24.4821,10.26874 -2.40495,-6.17142 2.51947,-3.70285 -6.06962,0.63622 -14.63327,-6.71858 -8.04194,5.57337 -10.20511,-0.75075 -0.55989,4.63175 -3.48653,-0.59806 -3.01572,-5.02621 -7.03669,3.881 -6.54044,-0.21632 -3.74103,-3.5756 -2.91393,11.64299 7.11304,4.12276 -4.78444,4.63175 -4.58085,-2.40495 1.19611,-2.13773 -8.85631,2.02321 0.0763,5.58609 6.69313,-1.92141 3.34656,2.44312 2.2268,9.97607 -8.37278,2.81214 -1.87051,5.29342 1.99776,5.19163 -2.67216,1.97231 1.38698,2.76123 -2.99028,8.90721 v 0 l -4.78444,2.87576 4.41543,11.14673 -1.67965,4.27546 -7.80017,3.43564 -9.77247,-3.1048 -0.52172,6.06962 -3.32111,1.61602 1.32336,4.0337 -5.58609,3.16842 0.5726,3.01573 -7.4566,-0.59806 v 0 l -8.32188,-4.56813 0.36902,-5.20435 -4.21184,-2.63399 -4.25001,0.57261 -5.70061,-5.56065 -2.30316,4.74627 -8.19462,-3.01572 -0.3054,-4.31364 -6.83309,-2.83757 -0.9289,6.88399 -6.5277,-0.33084 -4.74628,4.27546 -2.21407,-4.00824 -3.18115,-0.24177 -1.97231,3.14298 -7.64748,-1.7051 1.17067,-9.60706 -3.60105,0.66168 -9.91246,-10.24329 -4.03369,0.50899 -0.16541,1.88323 -4.02097,-2.65943 -4.46633,-5.19163 -1.09431,-3.4102 2.9012,-1.14521 -4.07186,-5.52247 v 0 l 5.76423,-13.67891 -0.45809,-6.884 8.72907,3.02845 1.78143,-3.27022 9.79794,-0.90344 -2.85031,-4.89897 -0.36902,-10.38325 3.21933,0.75075 5.0262,-4.93715 -6.10779,-4.60629 2.36676,-9.42892 -5.33159,-3.25749 2.29042,-3.41019 -2.59581,-5.61154 -5.39522,1.09431 -5.25526,-17.12728 10.17967,1.36152 -2.3286,-5.25525 4.82262,1.18339 0.63622,-3.7283 8.74179,-3.53743 -1.41243,-5.95511 3.24477,-6.17142 -0.30539,-8.29642 -4.80989,0.44536 -2.1759,-3.69013 -3.53743,1.36153 -3.49927,-4.09731 2.51947,-6.75676 -0.95435,-4.51723 3.47382,-4.13549 -0.27994,-6.70585 3.57561,3.43564 1.28518,-1.79417 0.69985,-12.03745 5.31887,-1.4506 4.4536,-14.60783 2.06139,1.09432 6.51499,-3.3084 -0.0128,-12.34284 -4.28818,0.85255 2.41767,-7.18939 -5.75151,-2.62126 -2.78669,-9.49254 5.66244,-7.02397 v 0 l 3.79193,0.39446 4.75899,-4.84806 14.37878,-5.57337 -0.43263,-3.94462 8.67816,0.71258 3.27021,7.32936 6.03145,-1.59057 5.08984,5.07711 5.38249,1.0434 11.66845,-7.55839 9.69612,-1.52695 -0.33084,-10.20512 8.71635,-8.14373 0.48353,-8.36005 10.39598,0.26721 3.04117,-3.79192 -0.53443,-4.02097 12.11381,0.54716 4.59357,-6.74402 3.71558,3.37201 5.63698,-1.25974 -0.13996,-6.40046 3.09207,-4.05915 z"
     inkscape:connector-curvature="0"
     style="fill:#b6bce0;fill-opacity:1;stroke:#ffffff;stroke-width:0.6362291;stroke-opacity:1" />
  <path
     id="LT-SA"
     title="Šiauliai"
     class="land"
     d="m 338.70235,132.14508 8.75451,2.93938 2.72306,9.96335 -2.30315,1.13248 3.71558,12.01201 3.2066,2.87575 4.70808,-0.97978 3.57562,5.62426 15.18042,-10.09059 -1.87051,-8.94539 18.64151,-1.10704 5.30615,-3.63922 12.64823,1.37425 5.31888,2.67217 3.58833,5.59881 18.1198,5.90421 14.93866,-8.84359 22.40799,-3.79193 2.37949,3.79193 -2.45583,11.69389 2.62126,0.80164 2.86302,-5.8533 3.30839,-0.69985 16.37655,0.67441 2.62126,2.90119 14.72234,-0.0509 1.24701,5.99328 4.4027,3.81738 0.0128,5.38249 8.34732,0.82711 2.97755,8.46184 6.76948,-1.22156 v 0 l -5.66244,7.02397 2.78669,9.49254 5.7515,2.62126 -2.41766,7.18939 4.28818,-0.85255 0.0128,12.34284 -6.51499,3.3084 -2.06139,-1.09432 -4.4536,14.60783 -5.31887,1.4506 -0.69985,12.03745 -1.28518,1.79417 -3.57561,-3.43564 0.27994,6.70585 -3.47382,4.13549 0.95435,4.51723 -2.51947,6.75676 3.49927,4.09731 3.53743,-1.36153 2.1759,3.69013 4.80989,-0.44536 0.30539,8.29642 -3.24477,6.17142 1.41243,5.95511 -8.74179,3.53743 -0.63622,3.7283 -4.82263,-1.18339 2.32861,5.25525 -10.17967,-1.36152 5.25525,17.12728 5.39523,-1.09431 2.59581,5.61154 -2.29042,3.41019 5.33159,3.25749 -2.36676,9.42892 6.10779,4.60629 -5.0262,4.93715 -3.21933,-0.75075 0.36902,10.38325 2.85031,4.89897 -9.79794,0.90344 -1.78143,3.27022 -8.72907,-3.02845 0.45809,6.884 -5.76423,13.67891 v 0 l -33.542,16.79646 -6.87128,7.10031 0.50899,3.8301 -15.72759,-0.5726 0.29267,-10.09059 -5.64971,-4.58086 -10.21785,2.54492 1.42516,5.77696 -2.97755,2.82485 -2.99028,-0.90344 1.20883,-2.03594 -9.31439,-2.87574 -3.62651,-8.02922 -6.88399,-4.5045 -9.12353,4.19911 -2.01048,-2.01048 -2.91393,4.59357 -2.81213,-2.12501 -2.07411,-12.33011 -2.15045,2.87576 -12.25377,3.84281 -2.88848,-0.44535 -0.68713,-4.26274 -4.61903,0.95434 0.0763,7.7111 -3.97008,1.37426 1.87052,9.61978 -4.33909,-2.92665 -0.45808,3.56288 -2.51947,-2.78668 -7.63474,6.94762 -1.97232,-1.50151 -9.42891,2.25226 -6.84583,6.55315 -5.78968,-2.18863 -1.97231,2.60854 -3.21932,-4.49177 4.33908,-1.70509 -0.50898,-7.39298 -12.31739,1.01796 -2.64671,-3.09207 -7.32936,8.98355 -2.08684,-1.52695 -3.89372,3.32112 v 0 l -9.28895,-1.57785 4.30091,-3.74102 -0.90344,-3.11753 -10.73954,-12.53371 0.82709,-4.58085 -5.02621,0.41991 -3.60105,-8.08011 -5.05166,-1.28518 0.25449,-3.39746 v 0 l 0.22904,-1.05614 v 0 l 1.69237,-5.25525 -6.46409,-4.17367 1.01797,-7.01124 -2.08684,-4.56813 v 0 l 1.98504,-3.70285 7.57112,-2.34132 0.47082,-3.9828 -1.62875,-11.71934 -7.24028,-14.20063 16.36381,-3.9828 -0.48354,-16.83461 9.87427,0.85254 4.86079,-4.5045 3.89373,2.62126 -1.06887,-5.10256 4.65719,-0.0636 0.38175,-6.69313 -2.40495,-3.77919 3.881,-1.0307 -0.76348,-2.96482 -3.84282,-0.12725 -3.53743,-12.1138 -3.69013,-1.27246 1.78144,7.69837 -6.37502,-0.19086 -2.81212,-0.9289 0.5217,-4.12277 -3.42291,-4.46632 4.4536,-3.09207 3.95734,-11.28671 -2.2777,-5.71333 3.18115,2.82485 4.73355,-5.06438 4.74626,1.48878 9.82338,-2.95211 -1.247,-4.77172 -5.33161,-3.86828 0.86528,-9.45435 -2.50675,-1.19611 -11.88475,3.35929 -0.27995,4.37725 -2.04866,-0.54716 -1.03068,2.55764 -12.82638,-5.96782 -4.37726,-0.0891 -2.54492,3.01572 -12.1647,-2.35405 3.43564,-6.20959 -4.59358,1.46333 2.67216,-6.87128 -6.62949,-2.57037 0.12724,-1.9723 5.45885,-25.84363 9.83609,-2.07411 1.94687,-9.9888 -3.38475,0.4581 -2.51946,-4.89898 11.35032,0.82711 0.86528,-3.44837 10.66319,2.04866 4.02097,-9.33984 -5.84058,-8.08011 9.09808,-0.89072 v 0 l 6.19687,3.86827 8.04194,-6.09508 21.9499,1.43788 11.73206,-4.93713 1.31063,-3.34657 -2.32859,-1.61602 z"
     inkscape:connector-curvature="0"
     style="fill:#b6bce0;fill-opacity:1;stroke:#ffffff;stroke-width:0.6362291;stroke-opacity:1" />
  <path
     id="LT-TA"
     title="Tauragė"
     class="land"
     d="m 156.77901,381.13969 18.89601,-5.64971 1.32335,2.53218 h 4.89897 l 9.74703,-15.66396 5.52246,2.49402 5.36977,-6.24777 17.34361,-6.59133 9.28894,6.97307 1.36153,-2.79941 3.90646,0.1527 7.22755,5.05166 6.7313,-3.9319 5.31888,2.31587 4.37725,-2.9521 v 0 l 2.08684,4.56813 -1.01797,7.01124 6.46409,4.17367 -1.69237,5.25525 v 0 l -0.22904,1.05614 v 0 l -0.25449,3.39746 5.05166,1.28518 3.60105,8.08011 5.02621,-0.41991 -0.82709,4.58085 10.73954,12.53371 0.90344,3.11753 -4.30091,3.74102 9.28895,1.57785 v 0 l 2.29043,3.69013 -3.63923,2.36677 4.42815,11.08311 7.26574,-2.44312 -1.04342,10.63775 3.09207,-0.1527 1.17066,3.23205 6.97307,-0.68713 2.3795,9.75975 -3.14297,2.23954 -0.24177,4.70808 9.23805,0.17815 0.0763,3.39746 3.41019,2.15046 v 5.75151 l 2.39221,-3.46109 2.88848,0.26722 0.19088,-3.21932 6.12052,-0.8271 -1.00525,-2.71034 2.93938,2.26498 6.62951,-1.94686 -1.67964,7.92742 8.2837,4.3009 -3.24477,6.9349 10.58685,0.62351 1.98503,-3.9319 7.68565,1.78144 10.61231,-3.91917 0.22903,10.58685 19.83763,0.63623 1.43788,-2.41767 9.14896,-0.26722 1.25974,7.31664 3.33384,1.93413 2.86304,-1.18338 1.48877,1.98504 5.64971,-2.51947 8.94538,4.38998 -4.74627,12.90272 -0.0636,10.91769 -6.65495,12.012 -4.86079,3.32112 v 0 l -14.77324,1.78144 -45.87212,-11.14673 -20.652,6.64223 -14.07338,-1.51422 -11.97383,3.49925 -5.99328,4.88625 -13.84435,3.14297 -12.36828,-6.15871 v 0 l -20.84286,7.34209 -32.52404,-5.84059 v 0 l -2.83758,-12.33011 0.96707,-9.42891 6.66768,-0.0891 -3.69013,-3.32112 -16.84735,-1.06885 -4.79716,-5.4334 -16.79645,2.01048 -5.86603,-17.62354 1.53967,-4.00825 -11.04494,-7.26574 -13.93341,-3.21931 16.91096,-23.37506 5.77697,-13.75527 -3.90645,-7.86379 -5.66244,1.04342 -7.7111,-4.56813 -8.46184,3.70285 -3.47381,-22.40798 -2.2268,0.97979 -2.36677,-6.41319 -0.22905,-6.46409 2.87576,-2.93937 -4.59358,-0.17815 3.74104,-5.25525 7.4566,-3.84282 -1.42515,-1.67965 z"
     inkscape:connector-curvature="0"
     style="fill:#b6bce0;fill-opacity:1;stroke:#ffffff;stroke-width:0.6362291;stroke-opacity:1" />
  <path
     id="LT-TE"
     title="Telšiai"
     class="land"
     d="m 199.17731,127.23339 6.19688,3.38474 7.07486,-1.32336 6.17143,6.71859 11.92293,-1.9087 6.27322,4.32636 10.6632,-4.63174 11.08311,1.4506 5.61154,3.70286 17.66172,3.09207 4.97531,5.70061 v 0 l -9.09808,0.89072 5.84058,8.08011 -4.02097,9.33984 -10.66319,-2.04866 -0.86528,3.44837 -11.35032,-0.82711 2.51946,4.89898 3.38475,-0.4581 -1.94687,9.9888 -9.83609,2.07411 -5.45885,25.84363 -0.12724,1.9723 6.62949,2.57037 -2.67216,6.87128 4.59358,-1.46333 -3.43564,6.20959 12.1647,2.35405 2.54492,-3.01572 4.37726,0.0891 12.82638,5.96782 1.03068,-2.55764 2.04866,0.54716 0.27995,-4.37725 11.88475,-3.35929 2.50675,1.19611 -0.86528,9.45435 5.33161,3.86828 1.247,4.77172 -9.82338,2.95211 -4.74626,-1.48878 -4.73355,5.06438 -3.18115,-2.82485 2.2777,5.71333 -3.95734,11.28671 -4.4536,3.09207 3.42291,4.46632 -0.5217,4.12277 2.81212,0.9289 6.37502,0.19086 -1.78144,-7.69837 3.69013,1.27246 3.53743,12.1138 3.84282,0.12725 0.76348,2.96482 -3.881,1.0307 2.40495,3.77919 -0.38174,6.69313 -4.6572,0.0637 1.06887,5.10256 -3.89373,-2.62126 -4.86079,4.5045 -9.87427,-0.85254 0.48354,16.83461 -16.36381,3.9828 7.24028,14.20063 1.62875,11.71934 -0.47082,3.9828 -7.57112,2.34132 -1.98504,3.70285 v 0 l -4.37725,2.9521 -5.31888,-2.31587 -6.7313,3.9319 -7.22755,-5.05166 -3.90646,-0.1527 -1.36153,2.79941 -9.28894,-6.97307 -17.34361,6.59133 -5.36977,6.24777 -5.52246,-2.49402 -9.74703,15.66396 h -4.89897 l -1.32335,-2.53218 -18.89601,5.64971 v 0 l -8.16918,-6.7822 -6.52771,2.125 -0.44536,-7.24028 -4.18639,-3.09208 3.57561,-13.05542 3.1048,-2.86304 -4.07186,-0.0891 -6.65496,-4.91169 2.57037,-5.24253 -0.1527,-8.06738 -3.16842,-1.97231 -1.32336,3.20659 -2.08684,0.81437 -0.96706,-2.1759 -1.41242,1.98504 -8.28371,-4.18639 -2.78669,3.61378 -3.49926,-0.92889 1.93414,-6.45137 -2.62127,-0.66167 0.80165,-3.16843 -5.56064,-4.41543 -1.32336,-4.52995 -5.03893,6.37502 -8.003763,-5.03893 3.053899,-7.97832 2.125005,1.33609 -0.279941,-5.84059 8.27098,-3.7792 1.84507,-6.98579 4.61901,-1.29792 -8.20735,-5.26797 -0.85254,-3.02845 3.02845,-0.0891 -1.5015,-9.9379 4.28817,-9.61978 -6.006,-2.60854 2.02322,-4.84806 12.86454,1.9723 10.01425,-22.90424 3.90645,0.85254 3.58834,-9.40346 15.65123,3.86827 -1.97231,-10.95586 14.48058,6.12052 7.83834,-26.7598 8.11828,1.46333 0.22904,-4.5045 -4.3518,-4.4536 0.48353,-6.99852 -3.89373,-5.92966 1.33609,-14.54419 -7.78745,-0.77621 0.7253,-10.21783 6.60406,-1.00525 v -6.43863 0 l 3.65196,-11.33761 3.18114,-0.36901 0.38174,-2.69761 5.34433,2.04866 z"
     inkscape:connector-curvature="0"
     style="fill:#b6bce0;fill-opacity:1;stroke:#ffffff;stroke-width:0.6362291;stroke-opacity:1" />
  <path
     id="LT-UT"
     title="Utena"
     class="land"
     d="m 883.60708,296.25401 6.45137,2.99028 6.7313,8.43639 0.45809,7.87652 6.46409,13.70437 7.27845,6.93489 6.32413,0.63623 5.71333,11.17218 13.7171,-0.15269 4.84806,5.50975 6.9349,2.97755 16.51651,-0.83982 0.0254,7.40571 2.40494,0.33084 1.15794,8.10554 -2.96483,5.02622 1.66693,10.93042 -5.47158,2.54491 -5.06438,8.3346 -6.51498,3.003 -2.91393,5.57337 2.67216,7.36753 4.04641,3.65196 -3.95734,5.80241 2.4304,3.44836 -2.81214,-0.33084 2.99027,8.79269 -1.79416,1.51422 0.95435,5.47157 -3.89373,0.0891 -4.94986,5.49702 -4.42815,0.0891 -0.92889,4.05914 -4.63176,2.3286 17.22909,5.48429 3.16842,3.1048 3.53743,-2.0232 3.91917,2.08683 3.69013,-4.6572 0.68713,3.88099 5.72606,-5.2807 9.0599,5.15346 15.98207,1.94686 3.77923,5.3316 -0.78899,5.66244 -15.00224,7.88924 v 0 l 2.81213,-3.09207 -15.57489,0.58533 0.10181,3.88099 -2.37951,0.40719 0.2545,-3.38474 -4.66993,-0.26722 0.44537,1.87052 -2.79941,0.26721 2.21408,2.44313 -4.66993,5.62426 -8.04193,2.29042 -3.53743,-1.75599 -2.63399,3.2066 -10.16695,-1.95959 -1.74326,3.20659 -12.29194,-5.0262 -16.88552,-1.51423 -2.64671,2.91393 -5.03894,-7.52023 -1.66692,2.64671 -3.86828,-1.42514 -3.33384,5.47156 -4.38998,-0.92889 5.29343,-7.87651 -5.61154,-2.88848 -0.39447,-6.90946 -5.54791,-2.50674 -2.45584,2.41767 -6.69313,-3.01572 -0.33084,-3.84283 0.5726,5.06439 -2.37949,-4.22456 -4.40271,6.06962 3.84282,-0.38174 -2.23952,3.13025 -5.63699,-0.17814 -0.91617,2.04865 -4.6063,-2.49401 -2.68488,1.71781 -2.31587,-4.73354 -4.84807,4.3518 -6.84583,-8.19462 -6.04417,1.33608 2.43039,2.4813 -4.66992,4.08459 -7.87652,-12.63552 -7.90196,6.01873 1.6542,0.55988 -3.06663,2.30315 -1.06887,7.62202 -4.80989,-2.9521 4.35181,9.53072 -6.40046,-0.3054 -1.89596,7.46933 2.32859,0.0891 -3.9319,5.80241 1.29791,3.67741 8.94538,3.89372 0.1018,7.16394 15.24405,10.20511 -3.30839,0.2036 -0.83983,2.85031 -1.9723,-2.07412 -2.79942,3.23205 2.93938,1.42516 -0.63622,2.92665 -1.28519,-1.56513 -3.99552,2.01049 1.13249,3.23204 3.13025,-2.18862 -3.51199,7.90196 4.52996,3.74102 -8.30916,1.14521 -1.56512,-3.5247 -6.31139,1.53967 -0.10179,-4.13548 -6.50227,-3.2066 -4.13549,2.2268 -4.5045,-2.07411 -0.45809,4.7081 -3.20659,-2.43039 -3.61378,1.04341 -1.51422,5.11528 -22.24257,0.62351 -2.2777,1.98503 -7.44388,-0.97979 -3.76648,-3.66468 -16.36381,1.05614 2.83758,-5.02621 -2.53219,-8.74179 -9.31439,-2.60854 -1.64148,1.74327 -1.52695,-6.1587 4.21185,-7.48205 -1.2343,-4.36454 10.68865,-3.6774 0.96708,-7.49478 5.61153,-0.22903 -6.79492,-1.64148 -2.68489,-5.98055 -6.14597,2.23952 -3.38474,-3.71557 4.32635,-5.92966 1.48878,-8.00376 -5.72606,1.22156 -2.01049,3.24476 -7.3039,-4.35179 0.66168,-4.07187 -4.26274,-3.75376 -0.97979,-5.2807 -15.60034,-0.38174 -2.35404,-13.86979 -11.09584,4.86079 -2.11228,-0.68713 1.34881,-4.14821 -9.45437,1.10704 -9.60706,-5.31888 0.62351,-9.37801 -1.97231,-1.31064 2.20135,-4.87351 3.51198,2.41767 1.92141,-7.11304 -7.29117,-3.23204 -2.78669,-9.78521 -3.94463,1.55241 -3.69012,-7.9656 -11.83387,1.32337 0.13998,-5.75152 v 0 l 2.99028,-8.90721 -1.38698,-2.76123 2.67216,-1.97231 -1.99776,-5.19163 1.87051,-5.29342 8.37278,-2.81214 -2.2268,-9.97607 -3.34656,-2.44312 -6.69313,1.92141 -0.0763,-5.58609 8.85631,-2.02321 -1.19611,2.13773 4.58085,2.40495 4.78444,-4.63175 -7.11304,-4.12276 2.91393,-11.64299 3.74103,3.5756 6.54044,0.21632 7.03669,-3.881 3.01572,5.02621 3.48653,0.59806 0.55989,-4.63175 10.20511,0.75075 8.04194,-5.57337 14.63327,6.71858 6.06962,-0.63623 -2.51947,3.70285 2.40495,6.17143 24.4821,-10.26874 4.00824,-0.48353 5.56064,5.50974 1.43788,-3.7283 -2.31588,-0.9289 -0.43263,-5.33159 6.19687,-0.66168 5.52247,-7.72383 3.9828,-0.96706 13.29718,10.16694 1.73054,-3.43564 4.55541,1.59057 -1.06887,3.01573 4.51722,2.25225 2.30315,-0.0891 1.41243,-3.5756 6.68041,2.31587 2.78667,-6.62951 2.5322,3.04117 5.70062,0.39446 5.15345,-2.88848 2.2268,5.99329 6.90944,-5.45885 0.33084,-10.6123 6.43865,-1.20884 9.23805,3.32112 2.77395,-19.44316 3.74102,1.87051 6.79494,-1.32335 -0.69986,-11.42668 11.97383,-2.39222 2.11229,-7.58385 -3.42292,-4.75899 0.35628,-3.72831 5.31889,-5.72605 8.56364,-1.53969 v 0 l 8.41095,17.14002 4.77172,5.92966 z"
     inkscape:connector-curvature="0"
     style="fill:#b6bce0;fill-opacity:1;stroke:#ffffff;stroke-width:0.6362291;stroke-opacity:1" />
  <path
     id="LT-VL"
     title="Vilnius"
     class="land"
     d="m 770.06565,770.04106 -2.07411,-2.1759 4.6572,-0.6744 z M 628.35199,403.4586 l -0.13998,5.75152 11.83387,-1.32337 3.69012,7.9656 3.94463,-1.55241 2.78669,9.78521 7.29117,3.23204 -1.92141,7.11304 -3.5247,-2.41767 -2.18863,4.87352 1.97231,1.31063 -0.62351,9.37801 9.60706,5.31888 9.45437,-1.10704 -1.34881,4.14821 2.11228,0.68713 11.09584,-4.86079 2.34132,13.86979 15.61306,0.38174 0.96707,5.2807 4.26273,3.75376 -0.66167,4.08459 7.31662,4.3518 2.01049,-3.24476 5.72606,-1.22157 -1.5015,8.00377 -4.31363,5.91693 3.38474,3.71557 6.13324,-2.2268 2.6849,5.98055 6.79492,1.62876 -5.61154,0.24176 -0.96707,7.48205 -10.70137,3.6774 1.24701,4.36454 -4.21184,7.48205 1.52695,6.17142 1.62875,-1.75599 9.31439,2.60854 2.53219,8.74179 -2.83758,5.03894 16.37653,-1.06887 3.75376,3.66468 7.44388,0.97979 2.2777,-1.98503 22.24257,-0.62351 1.51422,-5.12801 3.62651,-1.03068 3.19386,2.43039 0.4581,-4.7081 4.5045,2.07411 4.13548,-2.2268 6.51499,3.19387 0.1018,4.14821 6.31139,-1.53967 1.56512,3.5247 8.30916,-1.15793 -4.54269,-3.7283 3.52472,-7.91469 -3.13026,2.18862 -1.14521,-3.23204 3.99552,-2.01049 1.29792,1.57786 0.63622,-2.93938 -2.93938,-1.42515 2.81214,-3.23205 1.9723,2.07411 0.83983,-2.85031 3.32112,-0.2036 -15.25678,-10.2051 -0.1018,-7.15122 -8.94538,-3.89372 -1.29791,-3.69013 3.9319,-5.80241 -2.32859,-0.0891 1.90868,-7.46933 6.38774,0.29267 -4.35181,-9.53072 4.80989,2.95211 1.06887,-7.62203 3.06663,-2.29042 -1.6542,-0.55988 7.90196,-6.01874 7.87652,12.63552 4.66992,-4.08459 -2.43039,-2.46857 6.03145,-1.33608 6.85855,8.19462 4.84807,-4.3518 2.31587,4.73354 2.68488,-1.73054 4.6063,2.50674 0.91617,-2.04865 5.62426,0.17814 2.23953,-3.13025 -3.84282,0.38174 4.4027,-6.08234 2.3795,4.23728 -0.5726,-5.06439 0.34356,3.84283 6.68041,3.01572 2.46856,-2.41767 5.54791,2.50674 0.39447,6.90946 5.61154,2.88848 -5.29343,7.88923 4.38998,0.91617 3.33384,-5.47156 3.88101,1.42514 1.66691,-2.64671 5.03894,7.53296 2.64671,-2.91393 16.88552,1.51422 12.29195,5.02621 1.73053,-3.20659 10.16695,1.95958 2.63399,-3.2066 3.53743,1.756 8.04193,-2.29042 4.66993,-5.62427 -2.21408,-2.44312 2.78668,-0.26722 -0.44536,-1.87051 4.66992,0.26722 -0.25449,3.39746 2.3795,-0.41991 -0.1018,-3.86827 15.57489,-0.59806 -2.82486,3.09207 v 0 l -2.63398,3.84283 0.40718,6.9349 -4.25001,4.5554 -1.78145,-1.51423 -2.99027,2.08683 1.87051,6.20959 2.77397,1.48878 -1.52695,2.11228 -2.72307,-1.04341 -0.95434,3.53743 -3.37201,-1.24701 -5.49702,4.12276 -6.33684,-1.89596 -7.21484,3.02846 -4.45361,-4.89897 -6.08234,3.53744 -3.04118,5.54791 -8.131,-3.35929 -2.62127,2.16318 -1.06886,-2.69761 -6.00601,-2.20136 -5.54792,1.45061 0.45809,2.76124 -4.31363,0.59805 1.57784,1.33608 -1.62874,1.31063 -12.13925,4.94986 6.6804,9.40347 -4.61902,2.93938 -6.08235,20.3975 -3.85555,2.63398 -10.68864,0.64896 -1.93414,4.84807 -5.24252,0.6744 0.4708,4.28819 -4.56812,1.62874 1.57785,1.89596 -11.12129,-1.94686 -2.67216,-2.77396 -9.0599,6.26049 -11.89749,2.36678 -1.36153,9.41619 -12.10107,12.20287 -0.9798,9.18715 -3.80464,-0.0254 -1.28519,2.29043 -1.5015,4.73354 1.93413,22.70065 -2.44311,12.24105 4.91169,30.58989 -1.73055,3.71558 -11.79569,8.39823 -7.46933,19.07414 -5.59881,3.09208 3.80465,0.81437 0.39446,9.97607 -4.21183,7.25301 -2.21408,-1.48878 -0.20359,7.77472 -4.72082,3.23205 -1.34881,6.23504 -3.24477,0.38174 -0.26721,2.64671 2.53218,0.43264 0.44537,4.97531 6.17142,-2.26497 1.81961,2.55763 3.37202,1.01797 2.23952,-2.15046 1.76872,1.83234 7.06214,-3.14296 4.33909,6.92217 -1.29791,5.72606 8.20736,2.1759 2.59581,8.27098 4.89896,1.06886 -8.2328,5.71335 4.77172,4.73353 0.75075,10.02697 2.83758,0.54716 0.0637,2.22681 -5.03893,-0.9798 -1.73055,-2.78668 -0.11452,3.13024 -2.97755,1.47606 -5.47157,-3.76648 -0.29267,3.35929 -2.96482,0.0254 -0.25449,4.74627 -7.41844,3.42291 -2.39222,-4.40271 -12.50826,-1.13248 -3.27022,-2.43039 -4.05914,-5.5352 0.75075,-3.01572 7.95287,-3.30839 0.0636,-4.98804 -3.16842,-4.61902 7.83834,0.69985 -5.67517,-11.29943 1.15795,-2.06138 -7.53296,-2.99028 -0.44536,-6.65495 -2.78669,-1.19612 -5.44611,5.90421 -7.67293,-2.21408 -2.23952,4.59358 -9.50527,5.31887 -7.72382,-1.04342 -0.80165,1.74327 -5.96782,-3.37201 -2.81213,6.18415 -3.13025,-3.30839 -1.95958,1.19611 -3.38474,6.41318 0.21631,4.87352 -21.9499,24.86383 -13.6153,-2.40495 -2.41767,-6.37501 -3.62651,-2.02321 -15.02773,7.21484 -6.43863,-0.40719 v 0 l -3.53744,-12.61005 -10.67593,-4.69538 0.36902,-6.14597 9.1617,-2.31588 -0.39446,-4.55539 2.27769,0.78892 0.44536,-2.15046 4.56813,0.22905 2.44312,-5.36978 3.98279,-0.40718 -2.49402,-2.81214 1.85779,-2.64671 8.4364,-0.58533 -3.58833,-18.09435 3.00301,-0.87799 -0.41992,-3.29567 12.03745,-2.32861 -0.44535,-3.5247 3.84282,-0.9289 0.25449,-11.71933 -16.74555,4.42815 -2.01048,4.51723 -0.72531,-2.41768 -9.44163,1.24702 -0.71258,4.1991 -17.3945,-0.0891 -1.27246,-1.69237 -3.13025,4.86079 -1.95958,-5.91693 1.57785,-5.94238 -8.39823,-5.77695 -3.6774,1.98503 -3.8301,-1.33609 -1.5524,3.27022 -4.56813,0.26722 -1.41242,6.9349 -5.36978,-1.6033 0.0509,-2.73578 -14.95138,1.51422 -2.73579,-3.6774 -2.78668,0.90345 3.32112,-8.98357 -7.1894,-5.0771 4.55541,-2.16318 -2.3795,-5.16618 0.39446,-8.76724 v 0 l 1.80689,-18.8451 2.17591,1.66692 5.15345,-5.15345 2.59582,0.55987 -1.95959,-6.61678 -3.27021,0.0254 3.7283,-2.37949 -2.82486,-12.96635 3.55016,-5.45885 4.98803,-1.03069 6.8331,3.25749 2.07411,-7.99103 5.64972,4.87351 5.50974,-0.58533 1.09432,-13.19539 2.36676,-0.44536 -2.36676,-5.26798 2.12499,-8.85631 7.17667,-4.70809 7.07487,-0.91617 0.26722,-1.99776 1.92141,1.74327 1.32335,-2.23953 2.77396,0.71258 -2.21407,-16.12204 5.01347,-2.91393 3.38475,1.2979 1.81961,-5.43339 -10.47233,-8.52547 v 0 h -3.28298 v 0 l -6.80765,1.27246 -1.95958,-5.5861 -6.76949,-2.9521 -3.16841,-5.2298 -6.74403,0.0891 -4.6572,-5.02621 2.21408,-4.84807 4.54267,-1.65419 -0.85254,-4.61903 6.98579,-1.18338 -0.25449,-3.61378 3.18115,-1.80689 -2.31588,-0.59806 -2.72306,-6.69312 -3.88099,-0.2036 -1.60331,-10.87952 -3.63923,0.7762 -2.96482,-3.5247 -3.23204,-6.55316 3.33384,-3.58834 -7.21484,-2.64671 -3.21932,-11.46485 4.03369,-5.29342 -15.56216,-4.02097 2.64672,-13.8698 -1.37426,-3.21931 -5.52247,-0.50899 2.4813,-17.41995 2.49401,-1.52695 0.39446,-4.12276 3.6774,-1.48878 0.34357,-6.89672 v 0 l 7.44388,0.59806 -0.55988,-3.01573 5.57337,-3.16842 -1.32336,-4.0337 3.33384,-1.61602 0.50898,-6.06962 9.77248,3.11752 7.80017,-3.43563 1.67965,-4.27547 -4.41543,-11.134 z"
     inkscape:connector-curvature="0"
     style="fill:#b6bce0;fill-opacity:1;stroke:#ffffff;stroke-width:0.6362291;stroke-opacity:1" />
  <g
     id="stadiums"
     data-country="lithuania"
     data-circle-radius="6"
     data-circle-colors="#a149be,#bea149"
     transform="translate(0,213.8476)" />
</svg>
