<?xml version="1.0" encoding="UTF-8" standalone="no"?>
<?xml-stylesheet type="text/css" href="/styles/home.css"?><!-- https://www.amcharts.com/svg-maps -->

<svg
   version="1.1"
   id="map-macedonia"
   viewBox="0 0 1000 1000"
   width="1000"
   height="1000"
   class=""
   sodipodi:docname="macedonia.svg"
   inkscape:version="1.3.1 (91b66b0783, 2023-11-16)"
   xmlns:inkscape="http://www.inkscape.org/namespaces/inkscape"
   xmlns:sodipodi="http://sodipodi.sourceforge.net/DTD/sodipodi-0.dtd"
   xmlns="http://www.w3.org/2000/svg"
   xmlns:svg="http://www.w3.org/2000/svg"
   xmlns:rdf="http://www.w3.org/1999/02/22-rdf-syntax-ns#"
   xmlns:cc="http://creativecommons.org/ns#"
   xmlns:dc="http://purl.org/dc/elements/1.1/">
  <metadata
     id="metadata95">
    <rdf:RDF>
      <cc:Work
         rdf:about="">
        <dc:format>image/svg+xml</dc:format>
        <dc:type
           rdf:resource="http://purl.org/dc/dcmitype/StillImage" />
        <dc:title />
      </cc:Work>
    </rdf:RDF>
  </metadata>
  <sodipodi:namedview
     pagecolor="#ffffff"
     bordercolor="#666666"
     borderopacity="1"
     objecttolerance="10"
     gridtolerance="10"
     guidetolerance="10"
     inkscape:pageopacity="0"
     inkscape:pageshadow="2"
     inkscape:window-width="1920"
     inkscape:window-height="1106"
     id="namedview93"
     showgrid="false"
     showguides="true"
     inkscape:guide-bbox="true"
     inkscape:zoom="256"
     inkscape:cx="705.69141"
     inkscape:cy="114.74805"
     inkscape:window-x="-11"
     inkscape:window-y="-11"
     inkscape:window-maximized="1"
     inkscape:current-layer="map-macedonia"
     inkscape:showpageshadow="2"
     inkscape:pagecheckerboard="0"
     inkscape:deskcolor="#d1d1d1">
    <sodipodi:guide
       position="1304.8574,500"
       orientation="0,1"
       id="guide902"
       inkscape:locked="false"
       inkscape:label=""
       inkscape:color="rgb(0,0,255)" />
    <sodipodi:guide
       position="704.51172,886.07031"
       orientation="0,-1"
       id="guide1"
       inkscape:locked="false" />
  </sodipodi:namedview>
  <defs
     id="defs4">
    <style
       type="text/css"
       id="style2">
			.land
			{
				fill: #f59088;
				fill-opacity: 1;
				stroke:white;
				stroke-opacity: 1;
				stroke-width:0.5;
			}
         .rectangle:hover {
         fill: #bdbdbd;
         cursor: pointer;
         }
		</style>
    <!-- <amcharts:ammap projection="mercator" leftLongitude="20.455613" topLatitude="42.338708" rightLongitude="23.006302" bottomLatitude="40.855134"></amcharts:ammap> -->
    <!-- All areas are listed in the line below. You can use this list in your script. -->
    <!--{id:"MK-01"},{id:"MK-02"},{id:"MK-03"},{id:"MK-04"},{id:"MK-05"},{id:"MK-06"},{id:"MK-07"},{id:"MK-08"},{id:"MK-09"},{id:"MK-10"},{id:"MK-11"},{id:"MK-12"},{id:"MK-13"},{id:"MK-14"},{id:"MK-15"},{id:"MK-16"},{id:"MK-17"},{id:"MK-18"},{id:"MK-19"},{id:"MK-20"},{id:"MK-21"},{id:"MK-22"},{id:"MK-23"},{id:"MK-24"},{id:"MK-25"},{id:"MK-26"},{id:"MK-27"},{id:"MK-28"},{id:"MK-29"},{id:"MK-30"},{id:"MK-31"},{id:"MK-32"},{id:"MK-33"},{id:"MK-34"},{id:"MK-35"},{id:"MK-36"},{id:"MK-37"},{id:"MK-38"},{id:"MK-39"},{id:"MK-40"},{id:"MK-41"},{id:"MK-42"},{id:"MK-43"},{id:"MK-44"},{id:"MK-45"},{id:"MK-46"},{id:"MK-47"},{id:"MK-48"},{id:"MK-49"},{id:"MK-50"},{id:"MK-51"},{id:"MK-52"},{id:"MK-53"},{id:"MK-54"},{id:"MK-55"},{id:"MK-56"},{id:"MK-57"},{id:"MK-58"},{id:"MK-59"},{id:"MK-60"},{id:"MK-61"},{id:"MK-62"},{id:"MK-63"},{id:"MK-64"},{id:"MK-65"},{id:"MK-66"},{id:"MK-67"},{id:"MK-68"},{id:"MK-69"},{id:"MK-70"},{id:"MK-71"},{id:"MK-72"},{id:"MK-73"},{id:"MK-74"},{id:"MK-75"},{id:"MK-76"},{id:"MK-77"},{id:"MK-78"},{id:"MK-79"},{id:"MK-80"},{id:"MK-81"},{id:"MK-82"},{id:"MK-83"},{id:"MK-84"},{id:"MK-LKD"},{id:"MK-LKO"}-->
  </defs>
  <path
     d="m 431.47611,329.57292 -7.10346,4.8087 v 0 l -9.20485,-9.4627 -13.54944,-4.53796 -8.71495,-9.07593 -4.83449,-0.6446 -3.46793,-4.13831 v 0 l -0.88955,-1.05714 2.39791,-4.69268 v 0 h 2.34633 v 0 l 8.3282,3.39059 14.02644,9.73342 10.66165,5.19545 6.76827,5.18257 z"
     class="land"
     title="Aerodrom"
     id="MK-01"
     inkscape:connector-curvature="0"
     style="fill:#f59088;fill-opacity:1;stroke:#ffffff;stroke-width:0.64459741;stroke-opacity:1" />
  <path
     d="m 426.25487,254.85118 13.22714,16.52748 8.57315,0.59303 2.78467,-11.43516 v 0 h 3.41636 l 7.81252,4.22856 0.43833,5.95608 v 0 l -17.82957,20.85917 -7.34841,1.36655 -8.63761,6.12368 -2.79755,-0.70906 v 0 l 0.0129,-9.50136 4.82158,-7.99302 -1.40522,-12.42783 -3.67421,-5.4533 z"
     class="land"
     title="Aračinovo"
     id="MK-02"
     inkscape:connector-curvature="0"
     style="fill:#f59088;fill-opacity:1;stroke:#ffffff;stroke-width:0.64459741;stroke-opacity:1" />
  <path
     d="m 869.93131,392.76926 1.01846,2.72019 18.60307,1.49547 12.93063,5.55643 v 0 l 6.04633,18.53862 2.78466,1.49547 2.42368,11.42227 3.15854,0.74773 3.72577,-5.20834 22.50934,2.97804 4.46061,1.98536 2.04982,7.45154 11.53829,0.24495 13.39474,9.9268 10.59719,3.48082 5.02786,3.73867 v 0 l -10.262,15.8442 0.7993,4.8087 -9.29509,0.60593 -3.0425,3.33901 -1.30209,4.91183 2.34634,6.94876 -1.45679,15.5348 5.9174,5.78848 0.18049,4.89895 2.57839,4.26723 -1.62439,3.09406 0.28363,5.82717 -4.0094,0.88954 -0.12892,5.86584 v 0 l -29.38076,2.2432 v 0 h -1.85644 l -7.07767,-7.42576 -24.8299,-2.7202 -9.1146,-7.92855 -3.90627,-8.66339 -4.11253,-0.55436 v 0 l -11.70589,-2.66863 -8.56025,0.24495 -0.18049,-4.46061 4.83449,-1.98536 0.92821,-2.47527 -1.1087,-11.15152 -14.79996,-9.60451 -3.94494,6.51043 -3.02961,0.92822 -1.09581,-9.05014 v 0 l -1.9209,-11.40938 7.67071,-12.09265 0.23206,-2.79755 -7.67071,-6.20102 -1.57283,-16.07626 v 0 l 3.17142,-2.86202 9.68186,-0.74773 3.71288,-4.46061 4.09964,-12.42784 0.55436,-8.70207 -1.85644,-8.19928 z"
     class="land"
     title="Berovo"
     id="MK-03"
     inkscape:connector-curvature="0"
     style="fill:#f59088;fill-opacity:1;stroke:#ffffff;stroke-width:0.64459741;stroke-opacity:1" />
  <path
     d="m 337.41645,703.61993 3.46794,4.93761 v 4.3317 l -3.45504,6.62646 1.34075,9.66897 5.58223,8.65049 11.3578,6.62647 1.34077,23.39888 8.08324,4.57665 10.95816,-5.07944 6.75539,1.6115 v 0 l -3.39059,16.59194 0.70906,5.29859 5.90451,7.16792 1.17317,15.86999 8.49579,2.19164 16.03759,21.46509 2.70731,20.53688 v 0 l -17.39124,-0.1676 -11.79613,-5.14389 -35.49154,23.34732 -19.78915,6.60068 -13.42051,0.0387 -4.64111,-3.39059 v 0 l 4.77002,-18.87381 -0.954,-2.51393 -4.04807,-2.50104 0.477,-6.58778 -1.66306,-6.58779 -2.14006,-1.55993 -13.54944,-1.57281 -1.66306,-7.52891 -4.28013,-5.95608 -5.23413,-2.82333 -16.41145,0.3094 -2.84912,-2.50103 -0.95401,-7.2195 -7.8512,-10.36512 -0.9411,-9.10172 -8.56026,-2.59128 -2.68152,-3.14564 1.48257,-10.98393 7.14214,-5.89162 3.86758,-6.67803 v -10.61007 l -3.57107,-3.93206 0.1547,-2.82333 v 0 l 13.21426,-6.22681 9.21774,-1.17316 9.21774,-4.3317 4.46061,-5.89162 5.9432,-3.54529 5.05364,-0.38676 5.05364,-8.6505 8.01879,-2.75887 7.12925,-5.50487 3.86759,-6.69092 4.33169,-2.99093 v 0 l 1.90801,-0.55435 5.05364,4.71845 z"
     class="land"
     title="Bitola"
     id="MK-04"
     inkscape:connector-curvature="0"
     style="fill:#f59088;fill-opacity:1;stroke:#ffffff;stroke-width:0.64459741;stroke-opacity:1" />
  <path
     d="m 827.63282,687.42764 0.73484,2.83623 8.75363,9.1275 15.75396,-0.77352 11.44805,5.86584 1.36655,12.29892 v 0 l -7.07768,4.26724 -4.73134,11.83481 -7.55469,10.99682 -8.37976,6.65225 -2.0885,-0.73484 v 0 l 1.86934,-1.34076 -9.35956,-7.0519 -10.04283,-5.24702 -9.79788,-1.70174 3.14563,-18.38392 -8.21216,-13.87173 v 0 l 7.1937,-5.09232 1.13449,-12.46651 1.71463,-3.01672 6.83273,-0.19338 1.71464,3.40347 z"
     class="land"
     title="Bogdanci"
     id="MK-05"
     inkscape:connector-curvature="0"
     style="fill:#f59088;fill-opacity:1;stroke:#ffffff;stroke-width:0.64459741;stroke-opacity:1" />
  <path
     d="m 198.04159,316.65519 0.36098,9.97836 1.55992,2.46237 9.68186,0.34808 -0.25784,3.85469 -5.49197,11.56408 -7.06479,2.79756 -1.83066,2.79755 2.0885,7.70938 h -2.78466 v 0 l -9.51426,-3.50661 -21.19436,-11.91216 -12.8275,-4.20278 -24.34002,-4.20277 -4.48639,1.32787 v 0 l -5.98187,-4.61531 2.51393,-9.65607 v 0 l 5.99476,-2.82334 4.44772,-4.55086 12.82751,-5.62089 13.08533,-10.17175 6.02054,-0.34808 22.49645,5.25992 z"
     class="land"
     title="Bogovinje"
     id="MK-06"
     inkscape:connector-curvature="0"
     style="fill:#f59088;fill-opacity:1;stroke:#ffffff;stroke-width:0.64459741;stroke-opacity:1" />
  <path
     d="m 890.9065,516.91872 4.11253,0.55436 3.90627,8.66339 9.1146,7.92855 24.8299,2.7202 7.07767,7.42576 h 1.85644 v 0 l -0.55435,12.86616 -10.05572,12.62122 -11.5254,10.14597 v 18.53862 l -5.95608,8.14772 v 0 l -10.79056,2.96514 -3.35191,-0.48989 -5.58221,-3.95784 -3.90627,-10.37801 -10.2233,2.7202 -5.40173,-2.96515 3.15852,-12.11843 -2.97804,-10.13307 -4.74423,-4.9634 v 0 l 0.10313,-1.71464 3.15853,-1.98536 6.8843,-1.97246 6.13657,-5.94319 4.09964,-7.91566 2.2303,-14.85152 z"
     class="land"
     title="Bosilovo"
     id="MK-07"
     inkscape:connector-curvature="0"
     style="fill:#f59088;fill-opacity:1;stroke:#ffffff;stroke-width:0.64459741;stroke-opacity:1" />
  <path
     d="m 222.38159,316.55205 8.3282,11.48673 5.50487,1.40522 0.7864,12.26025 3.66131,2.10138 h 5.23414 l 1.83066,4.55086 -1.04425,4.20277 -3.40348,0.70906 -1.04424,13.65257 14.64525,1.04426 7.59335,6.65224 12.55676,-0.34808 1.57282,-5.24702 5.76271,-1.05714 2.08848,3.14563 v 4.97629 0 l -6.80694,-0.42543 -7.58047,5.60799 -9.16617,10.14596 -6.53622,10.48117 -5.49197,5.24702 -5.41462,1.25052 v 0 l -9.37244,-13.48498 -10.21043,-9.4498 -0.52857,-8.04458 -16.74664,-0.69616 -11.34491,-6.0979 v 0 l -2.2561,-0.90243 -0.69616,-11.55119 v 0 h 2.78466 l -2.0885,-7.70938 1.83066,-2.79755 7.06479,-2.79756 5.49197,-11.56408 0.25784,-3.85469 -9.68186,-0.34808 -1.55992,-2.46237 -0.36098,-9.97836 v 0 l 1.53415,0.16759 2.8749,-6.31705 2.35922,-1.39234 10.46827,6.30417 z"
     class="land"
     title="Brvenica"
     id="MK-08"
     inkscape:connector-curvature="0"
     style="fill:#f59088;fill-opacity:1;stroke:#ffffff;stroke-width:0.64459741;stroke-opacity:1" />
  <path
     d="m 414.5232,238.34949 -4.67978,2.82334 -11.61564,17.54594 -0.9669,28.58145 -2.42369,5.18256 -5.80138,0.78641 v 0 l -6.93586,-4.52507 v 0 l -0.86376,-2.29477 v 0 L 380.12748,275.156 v 0 l 1.49547,1.58571 4.02229,-2.42369 -0.9669,-18.19054 2.90069,-18.84803 9.20485,-18.86091 5.80138,-1.94669 2.26898,0.76063 v 0 l -1.36655,3.68709 z"
     class="land"
     title="Butel"
     id="MK-09"
     inkscape:connector-curvature="0"
     style="fill:#f59088;fill-opacity:1;stroke:#ffffff;stroke-width:0.64459741;stroke-opacity:1" />
  <path
     d="m 780.43539,581.18509 5.84005,9.03726 7.81252,7.91565 4.83449,2.21741 11.34491,0.24496 3.91915,4.69266 -5.95608,15.81843 7.06479,12.84037 0.55436,7.64493 18.79646,-1.48257 7.06479,6.66514 v 3.45504 l 10.98394,0.99268 6.13656,-4.69267 5.95608,2.21742 3.71289,-4.18988 4.28013,-10.12018 5.40172,-2.47527 26.66055,13.82018 v 0 l -1.66306,7.96722 0.6317,13.33028 v 0 l -12.73725,-5.09232 -17.23652,-0.19339 -8.68918,-1.70173 -4.84737,5.10521 -0.99268,6.04633 -16.45013,0.94111 -7.98011,11.88638 -7.24528,3.3519 v 0 0 0 l -5.58221,-2.59128 -1.71464,-3.40347 -6.83273,0.19338 -1.71463,3.01672 -1.13449,12.46651 -7.1937,5.09232 v 0 l -5.98187,-10.94526 -3.13275,-1.1345 v -9.43691 l -4.42193,-12.09264 -0.70907,-18.49996 -8.40554,-2.46235 -18.24211,-22.49646 -9.11461,-3.01671 -3.8418,-4.1641 -11.92505,-1.40522 v 0 l -4.74424,-12.59543 2.17874,-11.65433 v 0 l 2.23031,0.88954 2.03692,-5.19545 9.48848,-3.69999 17.30099,-4.20278 z"
     class="land"
     title="Valandovo"
     id="MK-10"
     inkscape:connector-curvature="0"
     style="fill:#f59088;fill-opacity:1;stroke:#ffffff;stroke-width:0.64459741;stroke-opacity:1" />
  <path
     d="m 852.24355,483.20628 1.09581,9.05014 3.02961,-0.92822 3.94494,-6.51043 14.79996,9.60451 1.1087,11.15152 -0.92821,2.47527 -4.83449,1.98536 0.18049,4.46061 8.56025,-0.24495 11.70589,2.66863 v 0 l 1.5986,15.90867 -2.2303,14.85152 -4.09964,7.91566 -6.13657,5.94319 -6.8843,1.97246 -3.15853,1.98536 -0.10313,1.71464 v 0 l -7.24528,5.20834 -10.05572,3.223 -11.34492,-0.25785 -7.993,-10.37802 -14.8902,-7.18082 -3.90627,0.48991 -4.65399,7.92854 -4.62821,4.21566 v 0 l -2.43657,-9.42401 0.33518,-11.75745 v 0 l 1.25053,-3.82891 -2.79756,-7.67071 10.23621,-4.70556 3.72577,-5.94319 8.36688,3.71288 11.53829,11.39648 2.23031,0.24495 3.15852,-3.46794 2.23032,-3.46793 -0.1805,-12.37627 -2.42369,-10.15886 -5.95607,-6.69092 -2.4108,-6.69092 7.43865,-13.88463 11.71879,-1.23763 z"
     class="land"
     title="Vasilevo"
     id="MK-11"
     inkscape:connector-curvature="0"
     style="fill:#f59088;fill-opacity:1;stroke:#ffffff;stroke-width:0.64459741;stroke-opacity:1" />
  <path
     d="m 26.797817,681.70361 5.556431,-2.01114 12.17,-0.37386 14.438983,2.62995 5.943187,-5.24702 3.687098,-0.76062 h 3.10696 l 3.403475,5.25991 v 3.75156 l -2.83623,3.00382 -4.525073,2.61707 h -9.346664 l -7.07768,4.87316 -9.050148,0.74772 -14.116684,-2.99092 v 0 z"
     class="land"
     title="Vevčani"
     id="MK-12"
     inkscape:connector-curvature="0"
     style="fill:#f59088;fill-opacity:1;stroke:#ffffff;stroke-width:0.64459741;stroke-opacity:1" />
  <path
     d="m 528.95215,338.10739 -0.0387,6.69092 4.21566,16.3341 13.67836,17.1205 v 0 l -1.23763,4.79581 -11.65432,13.04666 8.57315,12.36338 v 3.66131 l -6.00765,15.77974 1.19895,1.83066 7.5418,1.1345 6.51043,11.6801 v 0 l -1.54704,14.38741 -9.9268,10.95816 -10.27489,21.23304 -10.27488,0.91533 -2.46235,9.95258 v 0 l -12.73725,-2.69441 -3.42927,-3.88048 -2.41079,-15.31564 -6.67803,5.02786 -4.12542,0.68327 -10.62297,-32.93892 -21.61979,-6.63936 -7.3742,2.52683 -10.2491,-19.04141 v 0 l 7.16792,-1.10871 8.57315,-3.89337 7.88987,-13.05954 v -9.38534 l -3.42926,-3.44215 v -10.0815 l 1.85645,-0.6575 v 0 l 4.03518,3.10697 4.28012,0.68327 2.91358,0.23205 3.42927,-2.52682 0.68327,7.78674 h 2.23031 l 5.47907,-8.70207 h 2.73309 l 4.28013,6.18814 6.69092,0.91532 6.32995,-23.12816 -0.1676,-19.47972 12.5052,-2.97804 z"
     class="land"
     title="Veles"
     id="MK-13"
     inkscape:connector-curvature="0"
     style="fill:#f59088;fill-opacity:1;stroke:#ffffff;stroke-width:0.64459741;stroke-opacity:1" />
  <path
     d="m 843.09026,300.9399 1.07004,28.83929 13.75571,4.98918 15.07068,7.96722 12.09266,2.24321 v 2.73309 l -6.51044,10.95816 -2.78466,15.92155 -5.20835,8.45712 -0.64459,9.72054 v 0 l -1.58571,4.46061 1.85644,8.19928 -0.55436,8.70207 -4.09964,12.42784 -3.71288,4.46061 -9.68186,0.74773 -3.17142,2.86202 v 0 l -11.3578,-2.48815 -9.48847,-8.68917 -8.75364,-4.47351 -3.53239,-6.45887 -2.78467,0.24495 -4.09964,7.2066 -14.12957,1.48257 -10.42959,-8.44423 -3.81602,-0.88954 v 0 l 0.19338,-10.00415 v 0 l 0.55436,-26.89261 -1.66306,-9.70763 -3.28745,-5.35017 v 0 l 2.91358,-4.35748 -0.37386,-17.18496 4.83447,-21.42642 6.32995,-0.24495 7.99301,7.21949 4.654,0.25784 5.85294,-3.93204 v 0 l 8.28952,2.68152 4.46062,-2.99093 5.20835,-10.95815 1.67595,-7.98012 2.42369,-2.2432 8.92122,0.24494 z"
     class="land"
     title="Vinica"
     id="MK-14"
     inkscape:connector-curvature="0"
     style="fill:#f59088;fill-opacity:1;stroke:#ffffff;stroke-width:0.64459741;stroke-opacity:1" />
  <path
     d="m 254.25049,511.54278 4.73134,14.2585 13.34318,9.41112 0.25783,3.13274 -20.93652,20.88496 -6.53622,2.78466 -0.78641,8.37977 v 0 l -7.06479,-2.11428 -6.02054,0.69616 -1.04424,2.0885 2.35922,16.34699 2.61706,4.17699 7.2066,-1.39232 v 0 l -0.1418,4.86026 -5.50487,2.78465 -5.49197,1.39234 -14.91599,-0.34808 -3.40347,-9.38534 -10.21042,-6.96166 -1.55993,-3.13274 v -8.34109 l 3.76445,-1.98536 v 0 l 7.49023,-15.41877 4.17698,-2.78466 v 0 l 6.80696,-0.69616 4.97629,-3.48083 3.40347,-4.87316 3.66131,-12.18289 13.08534,-9.06304 z"
     class="land"
     title="Vraneštica"
     id="MK-15"
     inkscape:connector-curvature="0"
     style="fill:#f59088;fill-opacity:1;stroke:#ffffff;stroke-width:0.64459741;stroke-opacity:1" />
  <path
     d="m 121.9404,335.67081 4.48639,-1.32787 24.34002,4.20277 12.8275,4.20278 21.19436,11.91216 9.51426,3.50661 v 0 l 0.69616,11.55119 2.2561,0.90243 v 0 l -6.18814,5.74981 1.83065,8.39267 -3.91915,4.55085 -7.33551,2.44947 -12.55676,-3.14563 -9.9397,1.39233 -4.71845,4.20277 -7.06479,-1.05714 -6.79405,-3.8418 -7.33552,-13.2916 -17.3397,-1.88222 v 0 l 15.2512,-11.216 -17.19788,-16.0118 z"
     class="land"
     title="Vrapčište"
     id="MK-16"
     inkscape:connector-curvature="0"
     style="fill:#f59088;fill-opacity:1;stroke:#ffffff;stroke-width:0.64459741;stroke-opacity:1" />
  <path
     d="m 425.8939,298.36151 -3.67421,8.0188 16.24386,11.39647 3.68709,6.97455 0.51569,9.1275 v 0 l -4.22856,4.97629 v 0 l -4.66689,-8.67628 -2.29477,-0.60592 v 0 l -3.23587,-5.29859 -6.76827,-5.18257 -10.66165,-5.19545 -14.02644,-9.73342 -8.3282,-3.39059 v 0 l 0.58013,-7.50311 v 0 l 5.80138,-0.78641 2.42369,-5.18256 0.9669,-28.58145 11.61564,-17.54594 4.67978,-2.82334 v 0 l 11.73167,16.50169 v 0 l -0.60592,8.13482 3.67421,5.4533 1.40522,12.42783 -4.82158,7.99302 z"
     class="land"
     title="Gazi Baba"
     id="MK-17"
     inkscape:connector-curvature="0"
     style="fill:#f59088;fill-opacity:1;stroke:#ffffff;stroke-width:0.64459741;stroke-opacity:1" />
  <path
     d="m 737.68569,616.54771 11.92505,1.40522 3.8418,4.1641 9.11461,3.01671 18.24211,22.49646 8.40554,2.46235 0.70907,18.49996 4.42193,12.09264 v 9.43691 l 3.13275,1.1345 5.98187,10.94526 v 0 l 8.21216,13.87173 -3.14563,18.38392 9.79788,1.70174 10.04283,5.24702 9.35956,7.0519 -1.86934,1.34076 v 0 l -12.20868,-6.29127 -4.87315,-0.0129 -28.72327,6.91008 -14.58079,-0.6317 -5.38883,-1.67595 -5.65957,-7.61915 -15.71529,-0.14181 -10.35223,2.12717 -3.40348,-0.97978 -5.23412,-6.69093 -4.52508,1.35366 -15.61215,-10.39092 -14.01355,-0.27072 v 0 l -8.12193,-2.14007 2.57839,-8.45712 18.34524,-2.84912 -4.46061,-21.89053 9.42402,-2.62995 10.90658,-7.65782 -0.82508,-4.38326 -4.13832,-1.09582 -0.82508,-15.56059 -2.11428,-4.80869 v 0 l 7.24527,-10.0944 18.34525,-0.65748 0.33519,-10.53273 -4.79581,-9.4369 z"
     class="land"
     title="Gevgelija"
     id="MK-18"
     inkscape:connector-curvature="0"
     style="fill:#f59088;fill-opacity:1;stroke:#ffffff;stroke-width:0.64459741;stroke-opacity:1" />
  <path
     d="m 197.25519,370.62088 11.34491,6.0979 16.74664,0.69616 0.52857,8.04458 10.21043,9.4498 9.37244,13.48498 v 0 l -10.28778,1.19895 -2.10138,4.89894 v 12.93063 l -1.04425,2.08848 -5.23413,1.75331 -0.52857,2.79756 1.83065,5.23413 3.67421,2.79755 0.51568,8.72785 4.18988,8.72785 0.78641,9.07594 -2.03692,7.54179 v 0 l -20.47242,5.71113 -5.74981,4.18988 -0.34808,2.14007 v 0 l -10.12018,-11.56409 -5.76271,-4.18988 -14.12957,-5.58221 -4.28013,0.43832 v 0 l -0.82508,-4.62821 -5.74981,-6.62646 -7.8512,-13.6139 5.49197,-5.5951 v -2.78466 l -14.91599,-0.36098 -4.70555,2.79755 -3.67421,-4.18988 -0.78641,-10.13307 -7.32263,-11.5383 -29.04558,-2.79755 -11.783235,12.94352 -16.218071,-2.10139 -6.020541,-5.24702 -8.895445,-4.18989 -4.022288,-4.60243 v 0 l 4.112532,-6.57489 4.744237,-1.63727 4.293019,-9.74631 3.467934,0.0387 9.140392,-9.72053 12.827489,3.22299 8.947007,-0.52857 10.32645,-5.55643 v 0 l 17.3397,1.88222 7.33552,13.2916 6.79405,3.8418 7.06479,1.05714 4.71845,-4.20277 9.9397,-1.39233 12.55676,3.14563 7.33551,-2.44947 3.91915,-4.55085 -1.83065,-8.39267 z"
     class="land"
     title="Gostivar"
     id="MK-19"
     inkscape:connector-curvature="0"
     style="fill:#f59088;fill-opacity:1;stroke:#ffffff;stroke-width:0.64459741;stroke-opacity:1" />
  <path
     d="m 551.73222,442.54507 1.54703,-4.35748 6.84562,0.68327 1.03136,1.83066 5.64667,33.13231 7.3613,2.7331 7.02612,0.46411 8.04458,-6.39441 1.52125,-3.02961 v 0 l 11.96372,0.76063 7.46444,4.71845 v 0 l -0.88954,6.40729 -11.22889,16.05048 -0.477,5.7627 3.8418,3.8547 12.04108,-4.28013 4.49929,1.93379 0.477,5.131 -6.2526,12.38916 3.68711,8.54737 -4.0094,9.61739 -4.97629,0.20627 -2.11428,-11.80902 -1.80488,-2.14007 -3.53239,0.99268 v 0 l -6.30416,-1.79198 -3.40348,2.14006 -1.00557,7.46444 h -5.62089 l -7.02612,-3.1972 -8.41843,11.48672 h -6.02055 l -7.8254,-4.80869 -6.02055,-0.7993 -1.19895,5.86584 1.40522,8.81809 -3.01671,3.45504 -6.42019,0.54146 -4.61533,4.48639 v 0 l -10.64875,-6.43307 -1.19894,-4.55086 0.85087,-10.26199 5.31148,-5.91741 1.71462,-8.89544 -1.54703,-3.1972 -9.42401,-6.61357 -2.3979,-3.41637 0.63171,-10.13308 v 0 l 2.46235,-9.95258 10.27488,-0.91533 10.27489,-21.23304 9.9268,-10.95816 z"
     class="land"
     title="Gradsko"
     id="MK-20"
     inkscape:connector-curvature="0"
     style="fill:#f59088;fill-opacity:1;stroke:#ffffff;stroke-width:0.64459741;stroke-opacity:1" />
  <path
     d="m 39.896037,511.05289 7.528899,8.45712 9.810773,7.07768 17.584619,2.7202 8.186387,7.07768 9.810773,13.05954 13.897512,5.98187 1.70174,8.70206 v 0 l -3.69999,-1.7662 -3.14563,0.69617 -2.617063,3.48083 -4.705562,19.82781 -3.094068,5.80138 v 0 l -1.353654,-1.62439 -1.173168,1.32788 v 0 l -2.359226,-4.91184 -6.136569,-1.09581 v -15.2125 l -2.862012,-9.24353 h -4.486399 l -4.099639,-3.80313 -2.44947,-9.79788 -4.499291,-6.52332 -16.359883,-1.09582 -4.486398,7.61914 -19.31214,11.39649 v 0 l -2.04982,-4.47351 -8.031682,-0.61881 -3.2358791,-3.51951 -0.3222988,-3.75155 -4.3832627,-2.17875 -2.0627118,-4.46061 3.0167161,-4.02228 4.795805,-12.98219 5.4919673,0.39964 17.120509,-6.3944 z"
     class="land"
     title="Debar"
     id="MK-21"
     inkscape:connector-curvature="0"
     style="fill:#f59088;fill-opacity:1;stroke:#ffffff;stroke-width:0.64459741;stroke-opacity:1" />
  <path
     d="m 92.147107,593.35509 3.403475,-3.15852 h 40.042408 l 20.40795,3.11984 14.91599,0.34809 6.80695,15.99891 0.51568,12.50519 2.88779,5.90451 7.32263,2.42369 8.67629,13.98776 v 0 l 0.46411,10.4167 6.66513,6.30415 7.60625,4.09964 3.80313,10.40381 7.12924,5.99475 v 5.98188 l 4.07386,8.30241 v 0 l -5.69824,1.46968 -18.59019,-2.77177 -10.19753,-6.93587 -14.14247,-4.84737 h -10.7261 l -6.53622,2.77176 -13.87174,0.34809 -2.61707,2.42369 -0.7864,4.1641 -4.97629,3.11984 -4.70557,9.35956 0.52857,10.39091 -6.80696,2.77177 -2.35923,5.19546 -12.15711,0.54146 v 0 l 0.11603,-10.23621 -3.39058,-3.81601 -0.78642,-7.27106 7.32263,-11.44805 2.87491,-9.35956 0.7864,-15.94734 -10.19752,-15.61215 -1.57283,-25.01039 z"
     class="land"
     title="Debarca"
     id="MK-22"
     inkscape:connector-curvature="0"
     style="fill:#f59088;fill-opacity:1;stroke:#ffffff;stroke-width:0.64459741;stroke-opacity:1" />
  <path
     d="m 859.3728,262.032 3.13274,2.78466 4.52507,0.97979 4.87316,0.0903 8.26374,-2.92647 -0.43833,3.10696 8.32821,9.83655 3.95782,-0.70905 10.72611,5.22124 4.46061,-0.68327 2.34633,-4.48641 9.65607,13.16268 5.99475,0.72195 3.97072,-2.29476 1.85645,1.66306 2.7073,-0.46411 0.38677,5.36305 -2.51393,3.98361 5.95608,3.54529 -0.30941,9.64318 1.50835,1.31497 -1.45679,10.739 1.70175,6.27838 -1.52125,3.41636 3.57107,7.51601 3.06828,1.18606 1.07003,2.29477 2.02404,5.98186 -0.90244,2.65575 1.80487,3.50661 0.0516,6.81983 v 0 l -16.75953,14.05223 -7.63204,15.17383 -7.81251,2.24319 -6.70382,8.70207 -6.78117,0.0903 v 0 l -12.93063,-5.55643 -18.60307,-1.49547 -1.01847,-2.72019 v 0 l 0.6446,-9.72054 5.20835,-8.45712 2.78466,-15.92155 6.51044,-10.95816 v -2.73309 l -12.09266,-2.24321 -15.07068,-7.96722 -13.75571,-4.98918 -1.07004,-28.83929 v 0 l 0.12892,-11.29335 6.8843,-2.99093 1.07004,-31.14695 v 0 l 2.12717,3.08118 z"
     class="land"
     title="Delčevo"
     id="MK-23"
     inkscape:connector-curvature="0"
     style="fill:#f59088;fill-opacity:1;stroke:#ffffff;stroke-width:0.64459741;stroke-opacity:1" />
  <path
     d="m 723.40141,558.66285 1.10871,2.62997 11.34491,4.69267 1.85644,3.95782 -4.83448,10.14596 2.2432,12.20868 v 0 l -2.17874,11.65433 4.74424,12.59543 v 0 l -0.21917,6.74249 4.79581,9.4369 -0.33519,10.53273 -18.34525,0.65748 -7.24527,10.0944 v 0 l -23.30864,14.19404 h -13.53655 l -11.97662,-7.95434 -3.77734,-8.53447 -4.65399,-1.46968 -19.96964,-18.79646 v 0 l 19.3766,-0.90244 3.27456,-13.18846 -6.11079,-9.43691 -0.56724,-3.95783 7.67071,-5.46619 6.53622,-20.20168 9.93969,-11.13864 2.69442,-1.88223 5.82716,0.74773 8.09615,6.23971 11.65431,4.34458 4.9634,-8.68917 z"
     class="land"
     title="Demir Kapija"
     id="MK-24"
     inkscape:connector-curvature="0"
     style="fill:#f59088;fill-opacity:1;stroke:#ffffff;stroke-width:0.64459741;stroke-opacity:1" />
  <path
     d="m 268.9602,612.96374 12.07976,6.97455 v 7.39997 h 16.34699 l 2.60417,3.94494 0.37387,22.67694 7.06479,-0.48989 3.71288,-1.97247 3.71289,1.46968 4.83447,5.9174 2.96515,12.80171 6.69092,7.88988 -1.34076,19.60865 v 0 l -4.33169,2.99093 -3.86759,6.69092 -7.12925,5.50487 -8.01879,2.75887 -5.05364,8.6505 -5.05364,0.38676 -5.9432,3.54529 -4.46061,5.89162 -9.21774,4.3317 -9.21774,1.17316 -13.21426,6.22681 v 0 l -5.20834,-8.03168 -5.71114,-29.57414 -7.37419,-0.32229 -4.28013,-6.65225 v 0 l -3.05539,-6.76827 v 0 l -4.07386,-8.30241 v -5.98188 l -7.12924,-5.99475 -3.80313,-10.40381 -7.60625,-4.09964 -6.66513,-6.30415 -0.46411,-10.4167 v 0 l 2.37211,-4.71845 8.79231,-6.62647 9.26932,-4.09963 30.425,-0.21916 12.26024,-9.86235 1.1087,-3.94494 5.9432,-2.96514 z"
     class="land"
     title="Demir Hisar"
     id="MK-25"
     inkscape:connector-curvature="0"
     style="fill:#f59088;fill-opacity:1;stroke:#ffffff;stroke-width:0.64459741;stroke-opacity:1" />
  <path
     d="m 827.63282,687.42764 7.24528,-3.3519 7.98011,-11.88638 16.45013,-0.94111 0.99268,-6.04633 4.84737,-5.10521 8.68918,1.70173 17.23652,0.19339 12.73725,5.09232 v 0 l -2.14006,20.8076 v 0 l -4.53797,-2.68153 -8.40555,0.56725 -4.84737,3.40347 -4.40905,7.73517 1.41812,11.69301 6.26549,11.88637 7.49021,7.15503 v 0 l -7.9801,8.98569 -2.30767,-0.36098 -6.65224,-5.38883 -6.13657,-9.51426 -5.87873,-4.58953 v 0 l -1.36655,-12.29892 -11.44805,-5.86584 -15.75396,0.77352 -8.75363,-9.1275 z"
     class="land"
     title="Dojran"
     id="MK-26"
     inkscape:connector-curvature="0"
     style="fill:#f59088;fill-opacity:1;stroke:#ffffff;stroke-width:0.64459741;stroke-opacity:1" />
  <path
     d="m 361.06028,504.67137 19.08009,5.63378 3.27455,3.59686 3.0683,7.92855 6.35572,3.33901 2.8878,11.00973 0.56725,12.28602 5.19545,7.6836 4.04807,2.03693 17.50727,-1.53414 4.22856,12.02819 16.54037,4.86026 3.66131,3.06828 2.95226,5.87874 v 0 l -7.56757,5.37594 -3.08118,12.51809 -8.66339,3.06828 -4.61531,5.87872 -4.03518,2.03693 -30.1156,3.32613 -9.03725,10.72609 -8.22507,5.27281 v 0 l -5.14389,-3.9965 -18.47417,1.01846 -3.45503,-15.0578 -2.50104,-1.03134 -9.50137,6.31705 v 0 l -3.10696,-1.71464 -11.15153,-13.79437 -4.43484,-2.30767 1.74042,-5.62089 13.08533,0.25785 0.37387,-5.6209 -16.32122,-21.52955 v 0 l 0.1676,-5.06654 7.69649,-3.06828 3.26167,-5.63378 4.52507,-0.76063 11.16443,5.10521 0.76062,-17.14629 10.77767,-14.33585 2.50105,-6.14946 0.96688,-15.88288 z"
     class="land"
     title="Dolneni"
     id="MK-27"
     inkscape:connector-curvature="0"
     style="fill:#f59088;fill-opacity:1;stroke:#ffffff;stroke-width:0.64459741;stroke-opacity:1" />
  <path
     d="m 174.19149,542.00646 1.04425,6.085 4.97629,5.9174 17.27521,8.0059 7.42576,7.06479 v 0 l -3.76445,1.98536 v 8.34109 l 1.55993,3.13274 10.21042,6.96166 3.40347,9.38534 14.91599,0.34808 5.49197,-1.39234 5.50487,-2.78465 0.1418,-4.86026 v 0 l 6.92298,-2.0885 4.177,7.99301 13.33027,6.39441 v 0 l -1.00557,2.16584 3.15852,8.30241 v 0 l -1.66305,-0.91532 -5.9432,2.96514 -1.1087,3.94494 -12.26024,9.86235 -30.425,0.21916 -9.26932,4.09963 -8.79231,6.62647 -2.37211,4.71845 v 0 l -8.67629,-13.98776 -7.32263,-2.42369 -2.88779,-5.90451 -0.51568,-12.50519 -6.80695,-15.99891 -14.91599,-0.34809 -20.40795,-3.11984 H 95.550582 l -3.403475,3.15852 v 0 0 0 l -0.99268,-1.18606 v 0 l 3.094068,-5.80138 4.705562,-19.82781 2.617063,-3.48083 3.14563,-0.69617 3.69999,1.7662 v 0 l 10.68743,2.75887 4.97629,-1.7404 4.17699,-4.177 4.62823,-8.80519 4.91184,-2.72021 0.39965,-11.42227 4.91183,-5.45329 v -21.7745 l -3.13274,-17.46859 v 0 l 4.38325,0.76062 7.32264,18.47416 6.54911,1.04426 5.49197,12.89194 6.02054,6.62646 2.8749,8.35399 z"
     class="land"
     title="Drugovo"
     id="MK-28"
     inkscape:connector-curvature="0"
     style="fill:#f59088;fill-opacity:1;stroke:#ffffff;stroke-width:0.64459741;stroke-opacity:1" />
  <path
     d="m 328.2116,239.97387 5.16967,1.26342 -0.60592,-1.07004 3.67421,2.32056 v 0 l 11.91215,11.69299 6.78117,14.94177 v 7.34841 0 l -0.24494,23.2313 v 0 l -9.88813,-0.91534 -6.00765,-7.64492 -8.70206,-18.1003 -1.19895,-6.84562 -3.30034,-3.63553 -9.60451,4.03518 -3.60974,-2.01114 -2.69441,-6.85852 -0.95401,-9.74631 v 0 l 5.99475,-0.1676 z"
     class="land"
     title="Gjorče Petrov"
     id="MK-29"
     inkscape:connector-curvature="0"
     style="fill:#f59088;fill-opacity:1;stroke:#ffffff;stroke-width:0.64459741;stroke-opacity:1" />
  <path
     d="m 226.81642,287.84168 8.25085,3.57107 7.27105,-1.55992 2.03694,1.55992 v 3.50661 l -2.32055,2.34633 0.86376,1.94669 4.66688,1.55992 10.76478,0.77352 4.07386,-4.28013 6.27837,-0.19338 v 0 l 8.80521,3.58397 11.62853,8.8052 -4.04806,34.55042 14.45187,11.86059 v 0 l -0.23206,2.93937 2.84913,3.80312 6.63935,4.654 -2.77177,20.26614 v 0 l -19.56999,-11.44805 v 0 -4.97629 l -2.08848,-3.14563 -5.76271,1.05714 -1.57282,5.24702 -12.55676,0.34808 -7.59335,-6.65224 -14.64525,-1.04426 1.04424,-13.65257 3.40348,-0.70906 1.04425,-4.20277 -1.83066,-4.55086 h -5.23414 l -3.66131,-2.10138 -0.7864,-12.26025 -5.50487,-1.40522 -8.3282,-11.48673 v 0 l 2.83623,-3.93204 7.8512,-2.46236 0.25784,-3.8547 -5.49197,-2.44947 -2.61707,-5.25992 -4.9634,-2.81044 4.17699,-7.3742 z"
     class="land"
     title="Želino"
     id="MK-30"
     inkscape:connector-curvature="0"
     style="fill:#f59088;fill-opacity:1;stroke:#ffffff;stroke-width:0.64459741;stroke-opacity:1" />
  <path
     d="m 208.65167,488.20836 0.34808,24.00481 -7.24527,14.8773 v 0 l -8.19928,0.45122 -10.98394,6.27838 -6.54911,1.39233 -1.83066,6.79406 v 0 l -1.57282,-0.52857 -2.8749,-8.35399 -6.02054,-6.62646 -5.49197,-12.89194 -6.54911,-1.04426 -7.32264,-18.47416 -4.38325,-0.76062 v 0 l -6.87141,1.1087 -3.14564,-2.43657 -0.25785,-3.49372 4.1899,-5.23413 8.89544,-0.34809 14.38742,-13.25292 h 8.90833 l 2.08849,-1.74041 6.18814,-0.61882 v 0 l 4.28013,-0.43832 14.12957,5.58221 5.76271,4.18988 z"
     class="land"
     title="Zajas"
     id="MK-31"
     inkscape:connector-curvature="0"
     style="fill:#f59088;fill-opacity:1;stroke:#ffffff;stroke-width:0.64459741;stroke-opacity:1" />
  <path
     d="m 444.05866,346.86103 17.98427,3.62263 1.88222,2.74598 -0.68327,26.5832 -3.18431,6.27838 v 0 l -1.85645,0.6575 v 10.0815 l 3.42926,3.44215 v 9.38534 l -7.88987,13.05954 -8.57315,3.89337 -7.16792,1.10871 v 0 l -32.11384,0.0387 -2.29478,-2.24321 v 0 l 1.7791,-11.49961 -7.70938,-13.51076 -0.51569,-11.00973 2.5655,-5.73692 3.26166,-3.66131 2.91359,0.23206 1.89512,7.10346 5.82715,0.23205 1.71464,-2.06271 0.86375,-8.03169 7.37419,-10.31355 1.01847,-7.34842 17.84246,-10.09439 z"
     class="land"
     title="Zelenikovo"
     id="MK-32"
     inkscape:connector-curvature="0"
     style="fill:#f59088;fill-opacity:1;stroke:#ffffff;stroke-width:0.64459741;stroke-opacity:1" />
  <path
     d="m 776.38732,360.16551 3.28745,5.35017 1.66306,9.70763 -0.55436,26.89261 v 0 l -21.7745,-1.49547 v 0 l -4.20277,-8.0059 -8.25086,-9.30798 -1.08292,-11.24178 v 0 l 6.5749,-0.21917 6.96165,-6.70381 h 2.10139 l 4.20277,3.89336 6.31706,-7.79962 z"
     class="land"
     title="Zrnovci"
     id="MK-33"
     inkscape:connector-curvature="0"
     style="fill:#f59088;fill-opacity:1;stroke:#ffffff;stroke-width:0.64459741;stroke-opacity:1" />
  <path
     d="m 462.50704,270.72117 1.21184,3.23588 13.83306,10.66164 h 5.35016 l 0.41255,15.63794 v 0 l -6.92298,14.47765 3.24877,8.85677 -1.2892,2.57839 -10.05572,0.86376 -6.63935,-4.58953 h -3.42926 l -2.5655,3.72577 -12.99508,7.70939 v 0 l -0.51569,-9.1275 -3.68709,-6.97455 -16.24386,-11.39647 3.67421,-8.0188 v 0 l 2.79755,0.70906 8.63761,-6.12368 7.34841,-1.36655 z"
     class="land"
     title="Ilinden"
     id="MK-34"
     inkscape:connector-curvature="0"
     style="fill:#f59088;fill-opacity:1;stroke:#ffffff;stroke-width:0.64459741;stroke-opacity:1" />
  <path
     d="m 303.58798,238.98119 -4.58954,5.4533 -19.91806,2.11428 -5.99475,4.24145 6.31706,6.79405 7.58045,-2.11428 1.58571,9.32088 -7.90276,6.79406 3.91916,17.21076 -14.67104,5.07942 -1.21185,3.1972 v 0 l -6.27837,0.19338 -4.07386,4.28013 -10.76478,-0.77352 -4.66688,-1.55992 -0.86376,-1.94669 2.32055,-2.34633 v -3.50661 l -2.03694,-1.55992 -7.27105,1.55992 -8.25085,-3.57107 v 0 l -0.77352,-3.3519 v 0 l 1.16028,-2.83623 17.46859,-3.50661 6.11078,-3.13275 6.98744,-14.05223 7.56758,-7.81252 0.58013,-5.85294 -1.45679,-4.69267 -9.90101,-4.69267 -8.72785,-14.45188 -16.43724,-16.81109 v 0 l 21.9421,-18.43549 9.87524,0.50279 5.46617,4.48639 5.32438,1.17317 3.6871,5.64667 4.39616,2.32056 -0.69617,8.49579 10.98394,6.34284 z"
     class="land"
     title="Jegunovce"
     id="MK-35"
     inkscape:connector-curvature="0"
     style="fill:#f59088;fill-opacity:1;stroke:#ffffff;stroke-width:0.64459741;stroke-opacity:1" />
  <path
     d="m 599.61292,551.49493 2.75887,2.35922 h 4.21567 l 10.63585,-3.1972 4.0094,1.59861 2.01114,2.93936 -0.20626,10.67453 4.00939,19.72469 v 18.3968 l 1.80488,7.99302 3.41636,5.85294 0.7993,9.86234 6.04632,3.75156 v 0 l 19.96964,18.79646 4.65399,1.46968 3.77734,8.53447 11.97662,7.95434 h 13.53655 l 23.30864,-14.19404 v 0 l 2.11428,4.80869 0.82508,15.56059 4.13832,1.09582 0.82508,4.38326 -10.90658,7.65782 -9.42402,2.62995 4.46061,21.89053 -18.34524,2.84912 -2.57839,8.45712 8.12193,2.14007 v 0 l -19.26057,3.89337 -16.1665,16.63061 -9.72054,-1.63728 -14.05222,-9.4369 -1.09581,-4.38327 -7.24528,-1.00557 -5.13099,10.48116 -4.71846,3.15852 -27.15045,4.74424 -13.42052,11.47383 v 0 l -2.72019,-15.54769 -7.61915,-0.27073 -5.22123,-2.38501 -0.90244,-28.01421 -7.42576,-10.62296 0.81219,-10.8937 6.61357,-14.0909 -0.79931,-2.12716 -20.05986,-1.05715 -3.81603,-10.63586 -0.60591,-20.75603 3.01671,-7.98012 0.19339,-7.46444 -5.91742,-15.57347 1.80488,-13.05954 -0.7993,-9.06305 -2.01114,1.07003 -3.00383,6.39441 h -3.81602 l -8.62471,-9.59161 v -4.12542 0 l 8.03168,-11.34492 4.61532,0.79931 2.12717,2.64284 v 0 l 9.70764,12.82749 24.67519,-0.27073 2.81044,-2.12718 0.7993,-6.66513 1.80488,-1.86934 6.02054,1.05714 8.62472,5.06654 2.01114,-0.7993 1.80487,-6.12367 6.81984,-4.26723 0.59303,-15.47035 z"
     class="land"
     title="Kavadarci"
     id="MK-36"
     inkscape:connector-curvature="0"
     style="fill:#f59088;fill-opacity:1;stroke:#ffffff;stroke-width:0.64459741;stroke-opacity:1" />
  <path
     d="m 663.58276,365.29651 5.4533,-3.15852 2.47526,0.65748 2.47525,8.81809 4.12542,1.7662 14.01355,-0.65748 1.70174,-1.94669 v 0 l 12.46651,12.75014 10.22332,7.49022 15.32852,2.64285 9.07594,-0.43833 8.57315,8.58604 8.23794,0.67038 1.27631,-1.85644 v 0 l 21.7745,1.49547 v 0 l -0.19338,10.00415 v 0 l -10.86791,7.34841 -0.74773,12.17 -6.04633,10.51983 v 0 l -1.97246,-2.47525 -5.608,-0.21916 -24.48181,4.83447 H 722.615 l -18.12608,-18.70621 -7.74806,-1.31498 -12.04108,-12.11844 -5.608,-3.51949 -17.97138,-1.98536 -5.9303,-12.77593 -1.14738,-16.30832 3.28745,-6.83272 z"
     class="land"
     title="Karbinci"
     id="MK-37"
     inkscape:connector-curvature="0"
     style="fill:#f59088;fill-opacity:1;stroke:#ffffff;stroke-width:0.64459741;stroke-opacity:1" />
  <path
     d="m 355.14288,276.47098 4.56375,0.59303 4.20278,3.22299 6.91008,10.05572 9.30799,1.61149 1.93379,-1.72752 v 0 l -0.19338,4.52507 v 0 l -6.38151,3.30035 -2.3979,9.84945 5.14388,7.12924 h 2.02404 l 0.91533,-5.65957 1.54703,-0.48989 v 0 l -0.4641,11.49962 v 0 h -26.14488 l -0.70905,-1.58571 v 0 l -0.50279,-19.09297 v 0 z"
     class="land"
     title="Karpoš"
     id="MK-38"
     inkscape:connector-curvature="0"
     style="fill:#f59088;fill-opacity:1;stroke:#ffffff;stroke-width:0.64459741;stroke-opacity:1" />
  <path
     d="m 384.60099,306.52212 3.46793,4.13831 4.83449,0.6446 8.71495,9.07593 13.54944,4.53796 9.20485,9.4627 v 0 l -5.19546,2.43657 -5.33727,11.03552 -2.91357,1.35365 -4.82159,-1.86934 -0.88955,-13.75571 -3.59685,-4.12542 -7.25817,1.94668 -4.71845,-0.58013 v 0 l -1.57282,-2.65574 v -6.48465 l -5.81426,-1.30209 v 0 l 0.4641,-11.49962 v 0 z"
     class="land"
     title="Kisela Voda"
     id="MK-39"
     inkscape:connector-curvature="0"
     style="fill:#f59088;fill-opacity:1;stroke:#ffffff;stroke-width:0.64459741;stroke-opacity:1" />
  <path
     d="m 201.75448,527.09047 2.79755,10.90659 6.79406,-2.43657 3.14563,2.43657 2.08849,3.82891 v 9.05015 0 l -4.17698,2.78466 -7.49023,15.41877 v 0 l -7.42576,-7.06479 -17.27521,-8.0059 -4.97629,-5.9174 -1.04425,-6.085 v 0 l 1.83066,-6.79406 6.54911,-1.39233 10.98394,-6.27838 z"
     class="land"
     title="Kičevo"
     id="MK-40"
     inkscape:connector-curvature="0"
     style="fill:#f59088;fill-opacity:1;stroke:#ffffff;stroke-width:0.64459741;stroke-opacity:1" />
  <path
     d="m 732.52891,501.64176 10.12018,2.69442 6.51044,5.69825 20.83339,1.74041 8.74073,8.66339 8.84388,12.38916 -0.92822,5.4404 -3.90626,2.47526 -0.19338,2.73309 2.04982,1.72752 18.47416,4.07386 v 0 l -0.33518,11.75745 2.43657,9.42401 v 0 l -2.34633,5.18258 -9.48847,-2.23032 -10.22332,4.20278 -2.68153,3.57107 v 0 l -14.2585,-1.09582 -17.30099,4.20278 -9.48848,3.69999 -2.03692,5.19545 -2.23031,-0.88954 v 0 l -2.2432,-12.20868 4.83448,-10.14596 -1.85644,-3.95782 -11.34491,-4.69267 -1.10871,-2.62997 v 0 l -2.61706,-10.73899 -12.95641,-17.53305 v 0 l -0.0644,-3.01672 9.2951,-7.92854 z"
     class="land"
     title="Konče"
     id="MK-41"
     inkscape:connector-curvature="0"
     style="fill:#f59088;fill-opacity:1;stroke:#ffffff;stroke-width:0.64459741;stroke-opacity:1" />
  <path
     d="m 769.15494,239.44531 1.67595,6.65224 2.60418,1.49547 5.76269,-5.99476 4.84738,5.24702 0.36097,16.47591 1.67595,4.4993 11.16444,6.98743 0.92822,11.97662 7.81251,12.22157 v 10.22332 l 2.60418,11.26756 v 0 l -5.85294,3.93204 -4.654,-0.25784 -7.99301,-7.21949 -6.32995,0.24495 -4.83447,21.42642 0.37386,17.18496 -2.91358,4.35748 v 0 l -4.75713,1.07004 -6.31706,7.79962 -4.20277,-3.89336 h -2.10139 l -6.96165,6.70381 -6.5749,0.21917 v 0 l -3.85468,-3.6871 -4.04808,-1.08293 -4.35748,-12.76302 -0.33519,-12.3376 2.26898,-3.24877 v -3.90627 l -0.96689,-1.30208 -15.2125,0.43832 -5.98186,-4.11252 -5.01498,-6.29128 -1.67595,-4.87316 v 0 l 16.23097,-15.27696 4.21567,-8.23795 7.68359,-4.12542 3.35191,-13.22714 v 0 l 6.83273,-23.23129 -2.99092,-12.67279 v 0 l 1.03135,-3.00382 20.31771,-0.86376 z"
     class="land"
     title="Kočani"
     id="MK-42"
     inkscape:connector-curvature="0"
     style="fill:#f59088;fill-opacity:1;stroke:#ffffff;stroke-width:0.64459741;stroke-opacity:1" />
  <path
     d="m 615.21217,205.8231 6.11078,6.35573 4.9634,1.18607 1.95958,10.73899 8.86967,0.47699 6.3944,3.33902 4.43483,5.72402 13.49787,11.20312 6.57489,-0.23206 12.42785,-4.77002 1.05714,-9.77211 4.08674,-1.49545 v 0 l 1.67595,4.33169 9.97838,0.29651 13.54943,-1.79198 5.76271,-3.57107 25.06195,14.28428 v 0 l 2.99092,12.67279 -6.83273,23.23129 v 0 l -3.23587,-5.20835 -10.44248,-7.73517 -20.64001,-0.29652 -1.54704,1.18607 v 15.77974 l -2.66864,3.86758 -4.87315,-1.18606 -4.21567,-5.95608 -8.21217,3.27456 h -4.66689 l -7.54178,-8.03169 -17.42992,7.43866 -15.5348,1.77909 -5.98187,13.69125 -3.55817,-0.29651 -8.86966,-5.35017 -2.69442,0.67039 v 0 l -15.26407,0.29651 v 0 l -1.09581,-3.98361 -9.23064,-8.09615 -2.84912,-12.38916 -9.93969,-0.70906 -1.59861,-2.385 -0.34808,-3.57107 6.92298,-10.7261 2.52682,-9.50137 v 0 l 9.99126,-2.42369 3.90626,-5.95608 3.72577,-7.38709 v -18.13897 l 1.94669,-1.431 z"
     class="land"
     title="Kratovo"
     id="MK-43"
     inkscape:connector-curvature="0"
     style="fill:#f59088;fill-opacity:1;stroke:#ffffff;stroke-width:0.64459741;stroke-opacity:1" />
  <path
     d="m 720.53939,119.55017 10.49405,10.85503 7.47734,3.90626 2.75887,-2.51393 3.15853,1.95958 4.08674,-0.1676 3.63553,7.46443 4.93762,2.62995 -0.90244,3.19721 5.74981,9.1146 3.46794,1.68886 0.21916,4.24145 3.6871,-0.87665 1.68884,5.46619 4.11254,3.19721 -0.63171,2.862 7.3613,13.85885 0.70906,4.65399 5.85295,0.3223 6.09789,3.45504 2.11428,13.34317 4.24144,5.90451 -1.93378,2.04982 v 0 l -18.78357,12.44074 -4.09964,5.99475 -6.8843,4.84738 v 0 l -6.18814,-1.18606 -20.31771,0.86376 -1.03135,3.00382 v 0 l -25.06195,-14.28428 -5.76271,3.57107 -13.54943,1.79198 -9.97838,-0.29651 -1.67595,-4.33169 v 0 l 3.89337,-4.31881 0.21917,-6.54911 -3.10696,-7.16792 -0.88956,-11.62854 -4.43482,-9.84946 0.45122,-10.44247 3.54529,-6.27838 v -3.57107 l -3.54529,-1.79198 h -11.55119 l -7.10346,-3.59685 -14.19404,-20.31773 -3.48082,-9.14038 v 0 l 21.96787,-5.41462 8.26374,-9.06303 6.63936,0.10312 22.03899,-5.74983 0.74109,-0.19335 8.45711,0.38675 z"
     class="land"
     title="Kriva Palanka"
     id="MK-44"
     inkscape:connector-curvature="0"
     style="fill:#f59088;fill-opacity:1;stroke:#ffffff;stroke-width:0.644597;stroke-opacity:1"
     sodipodi:nodetypes="ccccccccccccccccccccccccccccccccccccccccccccccccccccccccccc" />
  <path
     d="m 336.01123,617.94004 9.50137,-6.31705 2.50104,1.03134 3.45503,15.0578 18.47417,-1.01846 5.14389,3.9965 v 0 l -6.3944,6.97455 3.64841,9.44979 9.63029,2.03694 -5.38884,23.2184 -11.3578,11.73167 -7.99301,0.88954 v 0 l -3.64842,-2.16584 -3.06829,-4.58954 -5.01496,-1.94668 v 0 l -0.1805,-2.64285 -4.80869,-1.2763 4.61532,-16.32121 -0.58014,-5.36306 -9.23063,-13.52365 z"
     class="land"
     title="Krivogaštani"
     id="MK-45"
     inkscape:connector-curvature="0"
     style="fill:#f59088;fill-opacity:1;stroke:#ffffff;stroke-width:0.64459741;stroke-opacity:1" />
  <path
     d="m 316.1963,567.60987 16.32122,21.52955 -0.37387,5.6209 -13.08533,-0.25785 -1.74042,5.62089 4.43484,2.30767 11.15153,13.79437 3.10696,1.71464 v 0 l -0.69616,19.22189 9.23063,13.52365 0.58014,5.36306 -4.61532,16.32121 4.80869,1.2763 0.1805,2.64285 v 0 l -4.79581,1.18605 -7.12924,16.56616 -0.38677,4.83448 4.22856,4.74424 v 0 l -2.44947,-0.27073 -5.05364,-4.71845 -1.90801,0.55435 v 0 l 1.34076,-19.60865 -6.69092,-7.88988 -2.96515,-12.80171 -4.83447,-5.9174 -3.71289,-1.46968 -3.71288,1.97247 -7.06479,0.48989 -0.37387,-22.67694 -2.60417,-3.94494 h -16.34699 v -7.39997 l -12.07976,-6.97455 v 0 l -3.15852,-8.30241 1.00557,-2.16584 v 0 l 3.60974,-3.40348 20.51109,-9.10172 v 0 l 17.79089,-7.02611 2.30766,-15.31564 z"
     class="land"
     title=" Kruševo"
     id="MK-46"
     inkscape:connector-curvature="0"
     style="fill:#f59088;fill-opacity:1;stroke:#ffffff;stroke-width:0.64459741;stroke-opacity:1" />
  <path
     d="m 502.36894,161.08803 5.53065,0.63171 v 0 l 10.18464,4.92472 2.57839,3.09408 -0.68327,6.92297 -8.12194,2.91358 -0.81219,2.7331 -0.14181,4.18988 2.30767,3.82891 0.12891,10.36513 -3.24877,10.37801 1.76619,12.73725 10.01706,13.09822 6.2268,1.26341 5.82716,-4.89894 14.07801,-4.91183 2.57839,0.18049 3.5195,3.63553 13.94909,3.63553 2.97804,-2.53972 1.07004,-5.2857 5.55643,-1.81777 2.70731,1.27631 4.42193,13.14979 v 0 l -2.52682,9.50137 -6.92298,10.7261 0.34808,3.57107 1.59861,2.385 9.93969,0.70906 2.84912,12.38916 9.23064,8.09615 1.09581,3.98361 v 0 l -0.74773,4.57665 -3.72578,2.86201 -12.77591,5.71113 -4.26724,0.23205 -8.88256,-11.89927 -5.32437,-1.43099 -10.64875,1.19894 -10.46826,10.23621 -0.88954,7.3742 -9.96548,11.37069 v 0 l -12.05397,-10.57139 -10.14597,0.18048 -7.81252,3.13274 -7.6707,-8.26374 -9.59162,-3.85468 -2.11427,-2.55261 v 0 l -0.41255,-15.63794 h -5.35016 l -13.83306,-10.66164 -1.21184,-3.23588 v 0 l -0.43833,-5.95608 -7.81252,-4.22856 h -3.41636 v 0 l -1.92091,-1.09582 0.95401,-7.16792 11.51251,-8.65049 3.3519,-22.2644 1.9209,-0.73484 6.71671,2.93936 1.22473,-0.91532 v -13.44631 l 7.81253,-3.31323 0.68327,-2.02403 -2.59128,-14.92889 -0.27073,-18.15186 v 0 l 2.14006,1.32787 6.42019,-1.00557 z"
     class="land"
     title="Kumanovo"
     id="MK-47"
     inkscape:connector-curvature="0"
     style="fill:#f59088;fill-opacity:1;stroke:#ffffff;stroke-width:0.64459741;stroke-opacity:1" />
  <path
     d="m 419.73155,163.83402 4.16409,2.28187 21.94211,-5.22123 10.90658,4.77002 11.83481,-0.6446 11.65433,5.7627 v 0 l 0.27073,18.15186 2.59128,14.92889 -0.68327,2.02403 -7.81253,3.31323 v 13.44631 l -1.22473,0.91532 -6.71671,-2.93936 -1.9209,0.73484 -3.3519,22.2644 -11.51251,8.65049 -0.95401,7.16792 1.92091,1.09582 v 0 l -2.78467,11.43516 -8.57315,-0.59303 -13.22714,-16.52748 v 0 L 414.5232,238.34949 v 0 l -11.03551,-17.42992 1.36655,-3.68709 v 0 l 10.44247,-6.65225 1.09582,-14.03934 -1.36654,-2.95224 -3.30035,-1.10872 -4.39615,-5.16967 -4.88605,-10.80345 v 0 l -1.22473,-21.56825 6.09789,-0.18049 7.58046,4.09966 z"
     class="land"
     title="Lipkovo"
     id="MK-48"
     inkscape:connector-curvature="0"
     style="fill:#f59088;fill-opacity:1;stroke:#ffffff;stroke-width:0.64459741;stroke-opacity:1" />
  <path
     d="m 546.80749,378.25291 9.51426,1.86934 8.88255,11.57697 9.97837,3.26166 3.33902,2.66864 12.647,16.30831 20.24036,17.66197 v 0 l -2.59128,0.78642 0.79929,6.63935 -5.60799,0.64459 -1.4439,4.49929 -1.45679,0.43833 -6.4073,-6.63935 -4.17699,-1.28919 -7.86409,9.42401 -1.4439,6.63935 8.98569,8.77942 0.55436,6.085 v 0 l -1.52125,3.02961 -8.04458,6.39441 -7.02612,-0.46411 -7.3613,-2.7331 -5.64667,-33.13231 -1.03136,-1.83066 -6.84562,-0.68327 -1.54703,4.35748 v 0 l -6.51043,-11.6801 -7.5418,-1.1345 -1.19895,-1.83066 6.00765,-15.77974 v -3.66131 l -8.57315,-12.36338 11.65432,-13.04666 z"
     class="land"
     title="Lozovo"
     id="MK-49"
     inkscape:connector-curvature="0"
     style="fill:#f59088;fill-opacity:1;stroke:#ffffff;stroke-width:0.64459741;stroke-opacity:1" />
  <path
     d="m 52.94269,403.14728 4.241452,2.84912 0.850868,-1.35367 v 0 l 4.022288,4.60243 8.895445,4.18989 6.020541,5.24702 16.218071,2.10139 11.783235,-12.94352 29.04558,2.79755 7.32263,11.5383 0.78641,10.13307 3.67421,4.18988 4.70555,-2.79755 14.91599,0.36098 v 2.78466 l -5.49197,5.5951 7.8512,13.6139 5.74981,6.62646 0.82508,4.62821 v 0 l -6.18814,0.61882 -2.08849,1.74041 h -8.90833 l -14.38742,13.25292 -8.89544,0.34809 -4.1899,5.23413 0.25785,3.49372 3.14564,2.43657 6.87141,-1.1087 v 0 l 3.13274,17.46859 v 21.7745 l -4.91183,5.45329 -0.39965,11.42227 -4.91184,2.72021 -4.62823,8.80519 -4.17699,4.177 -4.97629,1.7404 -10.68743,-2.75887 v 0 l -1.70174,-8.70206 -13.897512,-5.98187 -9.810773,-13.05954 -8.186387,-7.07768 -17.584619,-2.7202 -9.810773,-7.07768 -7.528899,-8.45712 v 0 l 2.281875,-1.81777 -2.862012,-14.06511 -8.72785,-13.96199 -0.502786,-8.39265 -1.998252,-4.654 2.359227,-17.26231 -3.403475,-11.79615 -0.644597,-12.41494 6.42019,-16.99158 2.578391,-2.82334 3.867584,-1.90801 z"
     class="land"
     title="Mavrovo i Rostuša"
     id="MK-50"
     inkscape:connector-curvature="0"
     style="fill:#f59088;fill-opacity:1;stroke:#ffffff;stroke-width:0.64459741;stroke-opacity:1" />
  <path
     d="m 826.56278,240.5669 2.77177,-0.33519 3.88048,6.31706 11.87349,2.78466 6.085,6.17524 v 0 l -1.07004,31.14695 -6.8843,2.99094 -0.12892,11.29334 v 0 l -3.5195,-1.68885 -8.92122,-0.24494 -2.42369,2.2432 -1.67595,7.98012 -5.20835,10.95815 -4.46062,2.99093 -8.28952,-2.68152 v 0 l -2.60418,-11.26756 v -10.22332 l -7.81251,-12.22157 -0.92822,-11.97662 -11.16444,-6.98743 -1.67595,-4.4993 -0.36097,-16.47591 -4.84738,-5.24702 -5.76269,5.99476 -2.60418,-1.49547 -1.67595,-6.65224 v 0 l 6.8843,-4.84738 4.09964,-5.99475 18.78357,-12.44074 v 0 l 4.89894,3.82891 1.65017,3.58397 7.58047,3.28744 6.43307,8.39266 z"
     class="land"
     title="Makedonska Kamenica"
     id="MK-51"
     inkscape:connector-curvature="0"
     style="fill:#f59088;fill-opacity:1;stroke:#ffffff;stroke-width:0.64459741;stroke-opacity:1" />
  <path
     d="m 306.02456,387.53512 8.77941,9.73342 18.96407,31.25009 7.58045,6.75538 6.32995,0.83798 2.46237,-1.9338 v 0 l 7.30974,0.95401 3.45503,3.95783 v 17.79089 l 4.44773,9.23064 3.45504,3.28744 0.43833,-1.54704 v 0 l 0.55435,3.68711 -2.52682,4.62821 -6.96165,8.0059 0.74772,20.49819 v 0 h -3.0425 l -0.96688,15.88288 -2.50105,6.14946 -10.77767,14.33585 -0.76062,17.14629 -11.16443,-5.10521 -4.52507,0.76063 -3.26167,5.63378 -7.69649,3.06828 -0.1676,5.06654 v 0 l -5.16967,0.0387 -2.30766,15.31564 -17.79089,7.02611 v 0 l -1.25051,-5.63378 -12.3505,-4.73135 -2.30765,-2.51393 -1.88223,-4.44772 -0.20627,-8.07036 -1.88222,-1.39233 h -4.82159 l -12.14422,5.84005 -9.7592,1.35366 v 0 l 0.78641,-8.37977 6.53622,-2.78466 20.93652,-20.88496 -0.25783,-3.13274 -13.34318,-9.41112 -4.73134,-14.2585 v 0 l 0.54146,-21.64559 -2.08849,-4.17698 -5.50487,-2.44947 -8.36688,-0.34809 -2.35922,-2.08849 -1.25051,-4.66688 v 0 l 2.03692,-7.54179 -0.78641,-9.07594 -4.18988,-8.72785 -0.51568,-8.72785 -3.67421,-2.79755 -1.83065,-5.23413 0.52857,-2.79756 5.23413,-1.75331 1.04425,-2.08848 v -12.93063 l 2.10138,-4.89894 10.28778,-1.19895 v 0 l 5.41462,-1.25052 5.49197,-5.24702 6.53622,-10.48117 9.16617,-10.14596 7.58047,-5.60799 6.80694,0.42543 v 0 z"
     class="land"
     title="Makedonski Brod"
     id="MK-52"
     inkscape:connector-curvature="0"
     style="fill:#f59088;fill-opacity:1;stroke:#ffffff;stroke-width:0.64459741;stroke-opacity:1" />
  <path
     d="m 357.23138,684.99106 1.84354,6.2397 9.61741,1.53415 5.00206,3.0554 13.17558,17.58461 10.97105,1.52125 2.69442,4.84737 7.50311,4.06096 8.6505,0.25785 5.00207,-3.55819 h 2.8878 l 7.11636,5.59511 15.97312,4.58953 1.45679,1.66307 v 0 l -1.84355,7.96722 -16.51458,21.20726 -4.4864,2.81045 -17.68776,-2.50105 -11.2031,-4.37036 h -4.0094 l -6.13656,4.37036 -4.39615,7.10347 v 0 l -6.75539,-1.6115 -10.95816,5.07944 -8.08324,-4.57665 -1.34077,-23.39888 -11.3578,-6.62647 -5.58223,-8.65049 -1.34075,-9.66897 3.45504,-6.62646 v -4.3317 l -3.46794,-4.93761 v 0 l -4.22856,-4.74424 0.38677,-4.83448 7.12924,-16.56616 4.79581,-1.18605 v 0 l 5.01496,1.94668 3.06829,4.58954 z"
     class="land"
     title="Mogila"
     id="MK-53"
     inkscape:connector-curvature="0"
     style="fill:#f59088;fill-opacity:1;stroke:#ffffff;stroke-width:0.64459741;stroke-opacity:1" />
  <path
     d="m 610.18431,473.0861 4.57665,3.8418 7.54179,1.71463 7.54179,10.68743 3.85469,-0.85088 4.48639,-8.76653 2.7331,-0.42543 4.82159,7.91566 3.6871,16.66929 2.41079,1.93379 13.79438,-0.21916 6.26549,2.14006 1.2763,10.9066 3.0554,1.92089 14.28428,8.75364 6.89719,1.9209 10.4167,-0.83798 v 0 l 12.95641,17.53305 2.61706,10.73899 v 0 l -10.93238,9.25642 -4.9634,8.68917 -11.65431,-4.34458 -8.09615,-6.23971 -5.82716,-0.74773 -2.69442,1.88223 -9.93969,11.13864 -6.53622,20.20168 -7.67071,5.46619 0.56724,3.95783 6.11079,9.43691 -3.27456,13.18846 -19.3766,0.90244 v 0 l -6.04632,-3.75156 -0.7993,-9.86234 -3.41636,-5.85294 -1.80488,-7.99302 v -18.3968 l -4.00939,-19.72469 0.20626,-10.67453 -2.01114,-2.93936 -4.0094,-1.59861 -10.63585,3.1972 h -4.21567 l -2.75887,-2.35922 v 0 l -0.1676,-25.74522 v 0 l 3.53239,-0.99268 1.80488,2.14007 2.11428,11.80902 4.97629,-0.20627 4.0094,-9.61739 -3.68711,-8.54737 6.2526,-12.38916 -0.477,-5.131 -4.49929,-1.93379 -12.04108,4.28013 -3.8418,-3.8547 0.477,-5.7627 11.22889,-16.05048 z"
     class="land"
     title="Negotino"
     id="MK-54"
     inkscape:connector-curvature="0"
     style="fill:#f59088;fill-opacity:1;stroke:#ffffff;stroke-width:0.64459741;stroke-opacity:1" />
  <path
     d="m 449.12519,732.38187 6.17525,-3.27456 5.42751,9.05015 6.12367,4.37037 25.01038,4.67978 12.96931,6.2397 9.43691,1.86933 10.85501,9.97838 5.42751,1.55992 8.9599,-0.30941 2.83624,-3.42925 10.14596,10.90659 15.49612,7.09056 v 0 l -4.6411,9.34667 -5.02785,0.54146 -2.96516,8.31531 -7.14214,2.96514 -7.87698,15.08358 -10.97105,8.76653 -2.93936,15.59926 -4.51219,5.18257 -11.61564,1.57281 -8.56025,-1.21184 -8.0188,-4.47351 -3.86758,0.72195 -12.51809,8.44423 -0.82508,9.9268 -3.24877,0.60592 0.21916,2.86202 -10.91948,1.16027 -15.2125,12.18289 -5.73691,0.90244 -3.80313,-2.47526 -14.06512,-18.95116 -9.25641,-0.0903 v 0 l -2.70731,-20.53688 -16.03759,-21.46509 -8.49579,-2.19164 -1.17317,-15.86999 -5.90451,-7.16792 -0.70906,-5.29859 3.39059,-16.59194 v 0 l 4.39615,-7.10347 6.13656,-4.37036 h 4.0094 l 11.2031,4.37036 17.68776,2.50105 4.4864,-2.81045 16.51458,-21.20726 z"
     class="land"
     title="Novaci"
     id="MK-55"
     inkscape:connector-curvature="0"
     style="fill:#f59088;fill-opacity:1;stroke:#ffffff;stroke-width:0.64459741;stroke-opacity:1" />
  <path
     d="m 974.26585,593.8063 -2.68153,0.82509 -3.57107,5.99476 0.39965,3.50661 2.82333,1.68884 3.11986,6.21392 -0.72195,6.60069 2.92647,10.64875 -0.63171,1.31497 -4.70555,0.25784 0.19338,3.81602 -26.29958,-0.12893 -10.58429,2.52683 -11.62854,-2.68153 -5.50486,2.55261 v 0 l -1.08293,-26.95707 -2.60417,-3.45503 v 0 l 5.95608,-8.14772 v -18.53862 l 11.5254,-10.14597 10.05572,-12.62122 0.55435,-12.86616 v 0 l 29.38076,-2.2432 v 0 l 4.74423,7.87698 -0.96689,6.13657 -5.06653,5.45329 1.36655,8.67629 2.56549,1.50835 -0.63171,7.01322 5.59511,6.74249 z"
     class="land"
     title="Novo Selo"
     id="MK-56"
     inkscape:connector-curvature="0"
     style="fill:#f59088;fill-opacity:1;stroke:#ffffff;stroke-width:0.64459741;stroke-opacity:1" />
  <path
     d="m 235.22198,476.16728 1.25051,4.66688 2.35922,2.08849 8.36688,0.34809 5.50487,2.44947 2.08849,4.17698 -0.54146,21.64559 v 0 l -5.73691,9.03726 -13.08534,9.06304 -3.66131,12.18289 -3.40347,4.87316 -4.97629,3.48083 -6.80696,0.69616 v 0 -9.05015 l -2.08849,-3.82891 -3.14563,-2.43657 -6.79406,2.43657 -2.79755,-10.90659 v 0 l 7.24527,-14.8773 -0.34808,-24.00481 v 0 l 0.34808,-2.14007 5.74981,-4.18988 z"
     class="land"
     title="Oslomej"
     id="MK-57"
     inkscape:connector-curvature="0"
     style="fill:#f59088;fill-opacity:1;stroke:#ffffff;stroke-width:0.64459741;stroke-opacity:1" />
  <path
     d="m 113.22544,723.98921 12.15711,-0.54146 2.35923,-5.19546 6.80696,-2.77177 -0.52857,-10.39091 4.70557,-9.35956 4.97629,-3.11984 0.7864,-4.1641 2.61707,-2.42369 13.87174,-0.34809 6.53622,-2.77176 h 10.7261 l 14.14247,4.84737 10.19753,6.93587 18.59019,2.77177 5.69824,-1.46968 v 0 l 3.05539,6.76827 v 0 l -8.31531,12.00241 -32.10095,20.15011 -12.36338,14.46477 -4.75712,19.17032 -0.70907,16.33411 -5.23413,3.45504 0.23206,7.54179 4.28013,7.54179 -0.70906,10.35223 -3.09407,3.45504 -9.97836,0.94112 -4.52508,3.45504 -3.32612,12.85327 0.60592,13.84595 -8.05747,13.94909 v 0 l -17.13343,1.84356 -7.41286,-1.72753 -4.73134,-3.6742 v 0 l 11.48672,-7.70939 4.44772,-14.83863 6.2784,-11.39649 4.44773,-13.80727 0.25784,-10.36513 -1.55993,-28.69748 1.04424,-14.18114 -12.56967,-7.60625 -3.91915,-5.89162 -3.93204,-12.45362 -4.70556,-2.42369 -1.99825,-2.99094 v 0 z"
     class="land"
     title="Ohrid"
     id="MK-58"
     inkscape:connector-curvature="0"
     style="fill:#f59088;fill-opacity:1;stroke:#ffffff;stroke-width:0.64459741;stroke-opacity:1" />
  <path
     d="m 483.31465,300.25663 2.11427,2.55261 9.59162,3.85468 7.6707,8.26374 7.81252,-3.13274 10.14597,-0.18048 12.05397,10.57139 v 0 l -3.57107,10.13307 -0.18048,5.78849 v 0 l -13.47209,10.08151 -12.5052,2.97804 0.1676,19.47972 -6.32995,23.12816 -6.69092,-0.91532 -4.28013,-6.18814 h -2.73309 l -5.47907,8.70207 h -2.23031 l -0.68327,-7.78674 -3.42927,2.52682 -2.91358,-0.23205 -4.28012,-0.68327 -4.03518,-3.10697 v 0 l 3.18431,-6.27838 0.68327,-26.5832 -1.88222,-2.74598 -17.98427,-3.62263 v 0 l -6.80696,-0.61882 -0.86375,-2.86201 2.04982,-4.52508 v 0 l 4.22856,-4.97629 v 0 l 12.99508,-7.70939 2.5655,-3.72577 h 3.42926 l 6.63935,4.58953 10.05572,-0.86376 1.2892,-2.57839 -3.24877,-8.85677 z"
     class="land"
     title="Petrovec"
     id="MK-59"
     inkscape:connector-curvature="0"
     style="fill:#f59088;fill-opacity:1;stroke:#ffffff;stroke-width:0.64459741;stroke-opacity:1" />
  <path
     d="m 950.27393,363.85261 1.90801,-1.1216 2.97803,2.04982 3.77735,5.56932 1.94668,6.76828 2.11428,1.37944 2.99093,9.9268 0.3223,7.37419 6.79406,12.00241 3.0425,2.15295 1.74041,9.79789 2.20453,1.30208 3.84179,-4.29302 1.26342,2.0756 1.7662,-2.28187 3.17142,-0.10314 2.8749,5.78849 -0.1547,3.58396 2.51397,1.62439 4.2414,11.86059 -1.00561,2.86202 1.16032,3.9836 -4.42196,3.82891 -5.14386,9.35956 v 0 l -5.02786,-3.73867 -10.59719,-3.48082 -13.39474,-9.9268 -11.53829,-0.24495 -2.04982,-7.45154 -4.46061,-1.98536 -22.50934,-2.97804 -3.72577,5.20834 -3.15854,-0.74773 -2.42368,-11.42227 -2.78466,-1.49547 -6.04633,-18.53862 v 0 l 6.78117,-0.0903 6.70382,-8.70207 7.81251,-2.24319 7.63204,-15.17383 16.75953,-14.05223 v 0 z"
     class="land"
     title="Pehčevo"
     id="MK-60"
     inkscape:connector-curvature="0"
     style="fill:#f59088;fill-opacity:1;stroke:#ffffff;stroke-width:0.64459741;stroke-opacity:1" />
  <path
     d="m 244.32369,570.39453 9.7592,-1.35366 12.14422,-5.84005 h 4.82159 l 1.88222,1.39233 0.20627,8.07036 1.88223,4.44772 2.30765,2.51393 12.3505,4.73135 1.25051,5.63378 v 0 l -20.51109,9.10172 -3.60974,3.40348 v 0 l -13.33027,-6.39441 -4.177,-7.99301 -6.92298,2.0885 v 0 l -7.2066,1.39232 -2.61706,-4.17699 -2.35922,-16.34699 1.04424,-2.0885 6.02054,-0.69616 z"
     class="land"
     title="Plasnica"
     id="MK-61"
     inkscape:connector-curvature="0"
     style="fill:#f59088;fill-opacity:1;stroke:#ffffff;stroke-width:0.64459741;stroke-opacity:1" />
  <path
     d="m 516.70479,583.60878 v 4.12542 l 8.62471,9.59161 h 3.81602 l 3.00383,-6.39441 2.01114,-1.07003 0.7993,9.06305 -1.80488,13.05954 5.91742,15.57347 -0.19339,7.46444 -3.01671,7.98012 0.60591,20.75603 3.81603,10.63586 20.05986,1.05715 0.79931,2.12716 -6.61357,14.0909 -0.81219,10.8937 7.42576,10.62296 0.90244,28.01421 5.22123,2.38501 7.61915,0.27073 2.72019,15.54769 v 0 l -7.76095,4.88605 -2.38501,10.99684 0.52857,5.82715 v 0 l -15.49612,-7.09056 -10.14596,-10.90659 -2.83624,3.42925 -8.9599,0.30941 -5.42751,-1.55992 -10.85501,-9.97838 -9.43691,-1.86933 -12.96931,-6.2397 -25.01038,-4.67978 -6.12367,-4.37037 -5.42751,-9.05015 -6.17525,3.27456 v 0 l -1.45679,-1.66307 -15.97312,-4.58953 -7.11636,-5.59511 h -2.8878 l -5.00207,3.55819 -8.6505,-0.25785 -7.50311,-4.06096 -2.69442,-4.84737 -10.97105,-1.52125 -13.17558,-17.58461 -5.00206,-3.0554 -9.61741,-1.53415 -1.84354,-6.2397 v 0 l 7.99301,-0.88954 11.3578,-11.73167 5.38884,-23.2184 -9.63029,-2.03694 -3.64841,-9.44979 6.3944,-6.97455 v 0 l 8.22507,-5.27281 9.03725,-10.72609 30.1156,-3.32613 4.03518,-2.03693 4.61531,-5.87872 8.66339,-3.06828 3.08118,-12.51809 7.56757,-5.37594 v 0 l 8.0059,0.77351 2.8878,2.03693 2.88779,6.13657 7.30974,-0.76063 2.11427,-1.03135 2.8878,-6.12368 1.74041,-12.27313 11.34492,-1.54704 7.6965,-3.06828 14.03933,8.44423 z"
     class="land"
     title="Prilep"
     id="MK-62"
     inkscape:connector-curvature="0"
     style="fill:#f59088;fill-opacity:1;stroke:#ffffff;stroke-width:0.64459741;stroke-opacity:1" />
  <path
     d="m 737.77593,278.03091 -3.35191,13.22714 -7.68359,4.12542 -4.21567,8.23795 -16.23097,15.27696 v 0 l -3.28745,-0.90243 -2.64285,1.98536 -6.75537,18.10029 -9.07594,7.28396 -3.79023,0.88954 -1.14739,2.64285 0.4899,3.75156 13.74282,18.12608 v 0 l -1.70174,1.94669 -14.01355,0.65748 -4.12542,-1.7662 -2.47525,-8.81809 -2.47526,-0.65748 -5.4533,3.15852 v 0 l -2.78465,-3.40348 -3.55819,1.01847 -4.80869,-2.03693 -7.88988,0.29652 v 0 l -5.1052,-7.16792 3.32612,-5.9432 v -5.64667 l -7.54179,-4.44772 -7.77385,-15.16094 -15.97312,-12.49229 -0.21916,-9.51426 4.40904,-9.14039 v 0 l 2.69442,-0.67039 8.86966,5.35017 3.55817,0.29651 5.98187,-13.69125 15.5348,-1.77909 17.42992,-7.43866 7.54178,8.03169 h 4.66689 l 8.21217,-3.27456 4.21567,5.95608 4.87315,1.18606 2.66864,-3.86758 v -15.77974 l 1.54704,-1.18607 20.64001,0.29652 10.44248,7.73517 z"
     class="land"
     title="Probištip"
     id="MK-63"
     inkscape:connector-curvature="0"
     style="fill:#f59088;fill-opacity:1;stroke:#ffffff;stroke-width:0.64459741;stroke-opacity:1" />
  <path
     d="m 780.59009,412.12007 3.81602,0.88954 10.42959,8.44423 14.12957,-1.48257 4.09964,-7.2066 2.78467,-0.24495 3.53239,6.45887 8.75364,4.47351 9.48847,8.68917 11.3578,2.48815 v 0 l 1.57283,16.07626 7.67071,6.20102 -0.23206,2.79755 -7.67071,12.09265 1.9209,11.40938 v 0 l -1.04425,1.30208 -11.71879,1.23763 -7.43865,13.88463 2.4108,6.69092 5.95607,6.69092 2.42369,10.15886 0.1805,12.37627 -2.23032,3.46793 -3.15852,3.46794 -2.23031,-0.24495 -11.53829,-11.39648 -8.36688,-3.71288 -3.72577,5.94319 -10.23621,4.70556 2.79756,7.67071 -1.25053,3.82891 v 0 l -18.47416,-4.07386 -2.04982,-1.72752 0.19338,-2.73309 3.90626,-2.47526 0.92822,-5.4404 -8.84388,-12.38916 -8.74073,-8.66339 -20.83339,-1.74041 -6.51044,-5.69825 -10.12018,-2.69442 v 0 l -4.57664,-2.75887 -1.86933,-3.71288 -0.73484,-13.39474 -5.40173,-12.40206 1.30209,-2.97804 6.51043,-6.69092 2.42369,-0.50278 13.02086,6.44597 7.25817,-0.24495 12.46651,-23.24418 v 0 l 6.04633,-10.51983 0.74773,-12.17 z"
     class="land"
     title="Radoviš"
     id="MK-64"
     inkscape:connector-curvature="0"
     style="fill:#f59088;fill-opacity:1;stroke:#ffffff;stroke-width:0.64459741;stroke-opacity:1" />
  <path
     d="m 645.39223,133.9247 3.48082,9.14038 14.19404,20.31773 7.10346,3.59685 h 11.55119 l 3.54529,1.79198 v 3.57107 l -3.54529,6.27838 -0.45122,10.44247 4.43482,9.84946 0.88956,11.62854 3.10696,7.16792 -0.21917,6.54911 -3.89337,4.31881 v 0 l -4.08674,1.49545 -1.05714,9.77211 -12.42785,4.77002 -6.57489,0.23206 -13.49787,-11.20312 -4.43483,-5.72402 -6.3944,-3.33902 -8.86967,-0.47699 -1.95958,-10.73899 -4.9634,-1.18607 -6.11078,-6.35573 v 0 l 7.43865,-0.3223 1.77909,-2.38501 -1.431,-7.16792 -4.78292,-7.87699 -0.18048,-14.0909 -3.64842,-9.07592 1.43101,-3.10696 7.63203,-1.19896 2.65574,-3.10696 -2.26899,-17.10763 v 0 z"
     class="land"
     title="Rankovce"
     id="MK-65"
     inkscape:connector-curvature="0"
     style="fill:#f59088;fill-opacity:1;stroke:#ffffff;stroke-width:0.64459741;stroke-opacity:1" />
  <path
     d="m 229.92338,702.75617 4.28013,6.65225 7.37419,0.32229 5.71114,29.57414 5.20834,8.03168 v 0 l -0.1547,2.82333 3.57107,3.93206 v 10.61007 l -3.86758,6.67803 -7.14214,5.89162 -1.48257,10.98393 2.68152,3.14564 8.56026,2.59128 0.9411,9.10172 7.8512,10.36512 0.95401,7.2195 2.84912,2.50103 16.41145,-0.3094 5.23413,2.82333 4.28013,5.95608 1.66306,7.52891 13.54944,1.57281 2.14006,1.55993 1.66306,6.58779 -0.477,6.58778 4.04807,2.50104 0.954,2.51393 -4.77002,18.87381 v 0 l -10.49404,-7.6836 -22.79297,10.739 -16.78532,3.26166 -47.49393,1.43101 -3.26167,-1.43101 -2.0756,-19.45396 -12.02819,-11.12574 -8.54737,-1.75331 -8.6376,3.54529 -17.41702,-5.54355 -7.51601,2.61707 -7.33552,6.89719 -5.69824,1.39233 v 0 l 8.05747,-13.94909 -0.60592,-13.84595 3.32612,-12.85327 4.52508,-3.45504 9.97836,-0.94112 3.09407,-3.45504 0.70906,-10.35223 -4.28013,-7.54179 -0.23206,-7.54179 5.23413,-3.45504 0.70907,-16.33411 4.75712,-19.17032 12.36338,-14.46477 32.10095,-20.15011 z"
     class="land"
     title="Resen"
     id="MK-66"
     inkscape:connector-curvature="0"
     style="fill:#f59088;fill-opacity:1;stroke:#ffffff;stroke-width:0.64459741;stroke-opacity:1" />
  <path
     d="m 599.44532,525.74971 0.1676,25.74522 v 0 l -2.46237,5.56932 -0.59303,15.47035 -6.81984,4.26723 -1.80487,6.12367 -2.01114,0.7993 -8.62472,-5.06654 -6.02054,-1.05714 -1.80488,1.86934 -0.7993,6.66513 -2.81044,2.12718 -24.67519,0.27073 -9.70764,-12.82749 v 0 l 2.47525,-16.29543 v 0 l 4.61533,-4.48639 6.42019,-0.54146 3.01671,-3.45504 -1.40522,-8.81809 1.19895,-5.86584 6.02055,0.7993 7.8254,4.80869 h 6.02055 l 8.41843,-11.48672 7.02612,3.1972 h 5.62089 l 1.00557,-7.46444 3.40348,-2.14006 z"
     class="land"
     title="Rosoman"
     id="MK-67"
     inkscape:connector-curvature="0"
     style="fill:#f59088;fill-opacity:1;stroke:#ffffff;stroke-width:0.64459741;stroke-opacity:1" />
  <path
     d="m 303.58798,238.98119 5.35016,8.99859 v 0 l 0.95401,9.74631 2.69441,6.85852 3.60974,2.01114 9.60451,-4.03518 3.30034,3.63553 1.19895,6.84562 8.70206,18.1003 6.00765,7.64492 9.88813,0.91534 v 0 l 0.50279,19.09297 v 0 l -1.40523,2.35923 -8.84388,0.42543 -6.63935,3.80312 -21.81318,19.46685 -15.17382,5.93029 -1.98536,5.09232 v 0 l -14.45187,-11.86059 4.04806,-34.55042 -11.62853,-8.8052 -8.80521,-3.58397 v 0 l 1.21185,-3.1972 14.67104,-5.07942 -3.91916,-17.21076 7.90276,-6.79406 -1.58571,-9.32088 -7.58045,2.11428 -6.31706,-6.79405 5.99475,-4.24145 19.91806,-2.11428 z"
     class="land"
     title="Saraj"
     id="MK-68"
     inkscape:connector-curvature="0"
     style="fill:#f59088;fill-opacity:1;stroke:#ffffff;stroke-width:0.64459741;stroke-opacity:1" />
  <path
     d="m 615.66339,291.6577 -4.40904,9.14039 0.21916,9.51426 15.97312,12.49229 7.77385,15.16094 7.54179,4.44772 v 5.64667 l -3.32612,5.9432 5.1052,7.16792 v 0 l -1.1087,4.11253 -4.43483,2.37212 -0.67038,2.0756 0.43832,3.86758 4.44772,7.70939 0.21917,6.22681 -4.77002,2.96515 -11.5383,17.50727 -8.44423,3.55817 4.66689,12.14422 -0.21916,3.55818 -1.99826,0.59303 -1.34075,3.55818 3.33901,2.37212 0.88954,3.85468 -1.34076,1.48259 -4.87315,-1.18606 -6.39441,-6.34285 v 0 l -20.24036,-17.66197 -12.647,-16.30831 -3.33902,-2.66864 -9.97837,-3.26166 -8.88255,-11.57697 -9.51426,-1.86934 v 0 l -13.67836,-17.1205 -4.21566,-16.3341 0.0387,-6.69092 v 0 l 0.18048,-5.78849 3.57107,-10.13307 v 0 l 9.96548,-11.37069 0.88954,-7.3742 10.46826,-10.23621 10.64875,-1.19894 5.32437,1.43099 8.88256,11.89927 4.26724,-0.23205 12.77591,-5.71113 3.72578,-2.86201 0.74773,-4.57665 v 0 z"
     class="land"
     title="Sveti Nikole"
     id="MK-69"
     inkscape:connector-curvature="0"
     style="fill:#f59088;fill-opacity:1;stroke:#ffffff;stroke-width:0.64459741;stroke-opacity:1" />
  <path
     d="m 355.40073,318.79525 0.70905,1.58571 h 26.14488 v 0 l 5.81426,1.30209 v 6.48465 l 1.57282,2.65574 v 0 l -2.91358,19.46684 -16.19229,1.01846 -6.05922,-3.0425 -9.35955,-1.01846 -6.07211,1.68885 -2.78466,3.0425 1.77909,11.51251 13.14979,2.02404 2.02403,2.03692 -0.51567,2.70731 h -3.5324 l -4.04807,3.0425 -4.55086,20.27904 -5.56932,2.70731 -0.50279,4.04807 5.31149,3.37769 1.72752,5.04075 -2.96515,5.27281 -1.48257,7.91565 v 5.9432 l 3.05539,6.29126 v 0 l -2.46237,1.9338 -6.32995,-0.83798 -7.58045,-6.75538 -18.96407,-31.25009 -8.77941,-9.73342 v 0 l 2.77177,-20.26614 -6.63935,-4.654 -2.84913,-3.80312 0.23206,-2.93937 v 0 l 1.98536,-5.09232 15.17382,-5.93029 21.81318,-19.46685 6.63935,-3.80312 8.84388,-0.42543 z"
     class="land"
     title="Sopište"
     id="MK-70"
     inkscape:connector-curvature="0"
     style="fill:#f59088;fill-opacity:1;stroke:#ffffff;stroke-width:0.64459741;stroke-opacity:1" />
  <path
     d="m 603.84147,131.73307 9.96548,9.64316 10.02993,-0.99268 v 0 l 2.26899,17.10763 -2.65574,3.10696 -7.63203,1.19896 -1.43101,3.10696 3.64842,9.07592 0.18048,14.0909 4.78292,7.87699 1.431,7.16792 -1.77909,2.38501 -7.43865,0.3223 v 0 l -10.85502,-0.56724 -1.94669,1.431 v 18.13897 l -3.72577,7.38709 -3.90626,5.95608 -9.99126,2.42369 v 0 l -4.42193,-13.14979 -2.70731,-1.27631 -5.55643,1.81777 -1.07004,5.2857 -2.97804,2.53972 -13.94909,-3.63553 -3.5195,-3.63553 -2.57839,-0.18049 -14.07801,4.91183 -5.82716,4.89894 -6.2268,-1.26341 -10.01706,-13.09822 -1.76619,-12.73725 3.24877,-10.37801 -0.12891,-10.36513 -2.30767,-3.82891 0.14181,-4.18988 0.81219,-2.7331 8.12194,-2.91358 0.68327,-6.92297 -2.57839,-3.09408 -10.18464,-4.92472 v 0 l 16.79821,-2.01114 1.85644,-19.58288 10.51983,-10.22331 7.039,-0.45122 11.80903,15.44455 27.45985,-21.68425 12.35049,8.27663 z"
     class="land"
     title="Staro Nagoričane"
     id="MK-71"
     inkscape:connector-curvature="0"
     style="fill:#f59088;fill-opacity:1;stroke:#ffffff;stroke-width:0.64459741;stroke-opacity:1" />
  <path
     d="m 92.147107,593.35509 16.230953,31.93335 1.57283,25.01039 10.19752,15.61215 -0.7864,15.94734 -2.87491,9.35956 -7.32263,11.44805 0.78642,7.27106 3.39058,3.81601 -0.11603,10.23621 v 0 l -1.35365,2.35922 v 0 l -26.51874,-1.17316 -3.674205,3.46793 -7.851197,21.4651 -2.64285,18.21632 v 0 l -13.124005,-3.39058 -1.405222,-1.98536 -2.965148,-5.38883 -0.412542,-4.9763 4.112531,-5.74981 -3.867584,-11.38359 -11.899269,-22.45778 -3.326123,0.25785 -4.086748,-3.8547 -6.059216,-16.19228 v 0 l 14.116684,2.99092 9.050148,-0.74772 7.07768,-4.87316 h 9.346664 l 4.525073,-2.61707 2.83623,-3.00382 v -3.75156 l -3.403475,-5.25991 h -3.10696 l -3.687098,0.76062 -5.943187,5.24702 -14.438983,-2.62995 -12.17,0.37386 -5.556431,2.01114 v 0 l -2.990932,-6.84562 1.108708,-6.53622 -8.044576,-25.74521 -0.06446,-5.85295 1.79198,-3.49372 5.311483,3.35191 4.924725,-1.22474 8.379767,-14.90309 4.473506,-17.61041 v 0 l 34.498856,0.90244 5.491971,-3.11985 6.94876,-8.75363 v 0 l 1.173168,-1.32788 1.353654,1.62439 v 0 z"
     class="land"
     title="Struga"
     id="MK-72"
     inkscape:connector-curvature="0"
     style="fill:#f59088;fill-opacity:1;stroke:#ffffff;stroke-width:0.64459741;stroke-opacity:1" />
  <path
     d="m 805.17504,570.45898 4.62821,-4.21566 4.65399,-7.92854 3.90627,-0.48991 14.8902,7.18082 7.993,10.37802 11.34492,0.25785 10.05572,-3.223 7.24528,-5.20834 v 0 l 4.74423,4.9634 2.97804,10.13307 -3.15852,12.11843 5.40173,2.96515 10.2233,-2.7202 3.90627,10.37801 5.58221,3.95784 3.35191,0.48989 10.79056,-2.96514 v 0 l 2.60417,3.45503 1.08293,26.95707 v 0 l -2.61707,2.62995 -8.08325,1.70174 -1.85644,4.51219 v 0 l -26.66055,-13.82018 -5.40172,2.47527 -4.28013,10.12018 -3.71289,4.18988 -5.95608,-2.21742 -6.13656,4.69267 -10.98394,-0.99268 v -3.45504 l -7.06479,-6.66514 -18.79646,1.48257 -0.55436,-7.64493 -7.06479,-12.84037 5.95608,-15.81843 -3.91915,-4.69266 -11.34491,-0.24496 -4.83449,-2.21741 -7.81252,-7.91565 -5.84005,-9.03726 v 0 l 2.68153,-3.57107 10.22332,-4.20278 9.48847,2.23032 z"
     class="land"
     title="Strumica"
     id="MK-73"
     inkscape:connector-curvature="0"
     style="fill:#f59088;fill-opacity:1;stroke:#ffffff;stroke-width:0.64459741;stroke-opacity:1" />
  <path
     d="m 438.43777,338.85512 -2.04982,4.52508 0.86375,2.86201 6.80696,0.61882 v 0 l -1.63728,2.95225 -17.84246,10.09439 -1.01847,7.34842 -7.37419,10.31355 -0.86375,8.03169 -1.71464,2.06271 -5.82715,-0.23205 -1.89512,-7.10346 -2.91359,-0.23206 -3.26166,3.66131 -2.5655,5.73692 0.51569,11.00973 7.70938,13.51076 -1.7791,11.49961 v 0 l -11.0355,3.42927 -4.11254,3.37768 -6.94875,14.33585 -7.27107,4.64111 -1.89511,2.95225 -3.08117,13.601 v 0 l -0.43833,1.54704 -3.45504,-3.28744 -4.44773,-9.23064 v -17.79089 l -3.45503,-3.95783 -7.30974,-0.95401 v 0 l -3.05539,-6.29126 v -5.9432 l 1.48257,-7.91565 2.96515,-5.27281 -1.72752,-5.04075 -5.31149,-3.37769 0.50279,-4.04807 5.56932,-2.70731 4.55086,-20.27904 4.04807,-3.0425 h 3.5324 l 0.51567,-2.70731 -2.02403,-2.03692 -13.14979,-2.02404 -1.77909,-11.51251 2.78466,-3.0425 6.07211,-1.68885 9.35955,1.01846 6.05922,3.0425 16.19229,-1.01846 2.91358,-19.46684 v 0 l 4.71845,0.58013 7.25817,-1.94668 3.59685,4.12542 0.88955,13.75571 4.82159,1.86934 2.91357,-1.35365 5.33727,-11.03552 5.19546,-2.43657 v 0 l 7.10346,-4.8087 v 0 l 2.29477,0.60592 z"
     class="land"
     title="Studeničani"
     id="MK-74"
     inkscape:connector-curvature="0"
     style="fill:#f59088;fill-opacity:1;stroke:#ffffff;stroke-width:0.64459741;stroke-opacity:1" />
  <path
     d="m 229.39481,206.64819 16.43724,16.81109 8.72785,14.45188 9.90101,4.69267 1.45679,4.69267 -0.58013,5.85294 -7.56758,7.81252 -6.98744,14.05223 -6.11078,3.13275 -17.46859,3.50661 -1.16028,2.83623 v 0 l -7.3613,-3.09408 -1.04425,-2.10138 v 0 l 1.04425,-10.88081 v 0 l -4.44772,-7.02611 -9.16618,-2.46236 -6.53621,-15.80553 -3.40348,-3.86758 -8.63761,-5.25992 -10.80345,-3.94494 v 0 l 5.41462,-4.18988 24.94592,-3.81602 3.81602,-6.14946 10.76478,-2.53971 z"
     class="land"
     title="Tearce"
     id="MK-75"
     inkscape:connector-curvature="0"
     style="fill:#f59088;fill-opacity:1;stroke:#ffffff;stroke-width:0.64459741;stroke-opacity:1" />
  <path
     d="m 175.68695,230.04707 10.80345,3.94494 8.63761,5.25992 3.40348,3.86758 6.53621,15.80553 9.16618,2.46236 4.44772,7.02611 v 0 l -1.04425,10.88081 v 0 l 1.04425,2.10138 7.3613,3.09408 v 0 l 0.77352,3.3519 v 0 l -2.38501,0.56724 -4.17699,7.3742 4.9634,2.81044 2.61707,5.25992 5.49197,2.44947 -0.25784,3.8547 -7.8512,2.46236 -2.83623,3.93204 v 0 l -7.10346,-1.13449 -10.46827,-6.30417 -2.35922,1.39234 -2.8749,6.31705 -1.53415,-0.16759 v 0 l -14.69682,-13.51076 -22.49645,-5.25992 -6.02054,0.34808 -13.08533,10.17175 -12.82751,5.62089 -4.44772,4.55086 -5.99476,2.82334 v 0 l 0.19338,-4.52508 -7.49022,-12.23446 -1.08293,-7.55468 2.50105,-6.97454 -0.25784,-10.84213 20.15013,-25.56474 12.84038,-10.30067 20.88496,0.24495 z"
     class="land"
     title="Tetovo"
     id="MK-76"
     inkscape:connector-curvature="0"
     style="fill:#f59088;fill-opacity:1;stroke:#ffffff;stroke-width:0.64459741;stroke-opacity:1" />
  <path
     d="m 381.86789,294.75176 -0.10313,3.94494 3.15853,-0.3094 1.18606,2.385 v 0 l -2.39791,4.69268 0.88955,1.05714 v 0 l -1.88223,2.35922 v 0 l -1.54703,0.48989 -0.91533,5.65957 h -2.02404 l -5.14388,-7.12924 2.3979,-9.84945 z"
     class="land"
     title="Centar"
     id="MK-77"
     inkscape:connector-curvature="0"
     style="fill:#f59088;fill-opacity:1;stroke:#ffffff;stroke-width:0.64459741;stroke-opacity:1" />
  <path
     d="m 21.576578,559.20432 19.31214,-11.39649 4.486398,-7.61914 16.359883,1.09582 4.499291,6.52332 2.44947,9.79788 4.099639,3.80313 h 4.486399 l 2.862012,9.24353 v 15.2125 l 6.136569,1.09581 2.359226,4.91184 v 0 l -6.94876,8.75363 -5.491971,3.11985 -34.498856,-0.90244 v 0 l 1.843549,-2.16584 -8.057468,-11.11286 -10.610074,-6.29127 -6.059216,-22.18705 z"
     class="land"
     title=" Centar Župa"
     id="MK-78"
     inkscape:connector-curvature="0"
     style="fill:#f59088;fill-opacity:1;stroke:#ffffff;stroke-width:0.64459741;stroke-opacity:1" />
  <path
     d="m 389.03581,293.26919 -0.58013,7.50311 v 0 h -2.34633 v 0 l -1.18606,-2.385 -3.15853,0.3094 0.10313,-3.94494 v 0 l 0.19338,-4.52507 v 0 l 0.0387,-1.48257 v 0 z"
     class="land"
     title=" Čair"
     id="MK-79"
     inkscape:connector-curvature="0"
     style="fill:#f59088;fill-opacity:1;stroke:#ffffff;stroke-width:0.64459741;stroke-opacity:1" />
  <path
     d="m 403.59082,425.5148 2.29478,2.24321 32.11384,-0.0387 v 0 l 10.2491,19.04141 7.3742,-2.52683 21.61979,6.63936 10.62297,32.93892 4.12542,-0.68327 6.67803,-5.02786 2.41079,15.31564 3.42927,3.88048 12.73725,2.69441 v 0 l -0.63171,10.13308 2.3979,3.41637 9.42401,6.61357 1.54703,3.1972 -1.71462,8.89544 -5.31148,5.91741 -0.85087,10.26199 1.19894,4.55086 10.64875,6.43307 v 0 l -2.47525,16.29543 v 0 l -2.12717,-2.64284 -4.61532,-0.79931 -8.03168,11.34492 v 0 l -5.36305,-8.53447 -14.03933,-8.44423 -7.6965,3.06828 -11.34492,1.54704 -1.74041,12.27313 -2.8878,6.12368 -2.11427,1.03135 -7.30974,0.76063 -2.88779,-6.13657 -2.8878,-2.03693 -8.0059,-0.77351 v 0 l -2.95226,-5.87874 -3.66131,-3.06828 -16.54037,-4.86026 -4.22856,-12.02819 -17.50727,1.53414 -4.04807,-2.03693 -5.19545,-7.6836 -0.56725,-12.28602 -2.8878,-11.00973 -6.35572,-3.33901 -3.0683,-7.92855 -3.27455,-3.59686 -19.08009,-5.63378 v 0 l -0.74772,-20.49819 6.96165,-8.0059 2.52682,-4.62821 -0.55435,-3.68711 v 0 l 3.08117,-13.601 1.89511,-2.95225 7.27107,-4.64111 6.94875,-14.33585 4.11254,-3.37768 z"
     class="land"
     title="Čaška"
     id="MK-80"
     inkscape:connector-curvature="0"
     style="fill:#f59088;fill-opacity:1;stroke:#ffffff;stroke-width:0.64459741;stroke-opacity:1" />
  <path
     d="m 706.29379,318.89838 1.67595,4.87316 5.01498,6.29128 5.98186,4.11252 15.2125,-0.43832 0.96689,1.30208 v 3.90627 l -2.26898,3.24877 0.33519,12.3376 4.35748,12.76302 4.04808,1.08293 3.85468,3.6871 v 0 l 1.08292,11.24178 8.25086,9.30798 4.20277,8.0059 v 0 l -1.27631,1.85644 -8.23794,-0.67038 -8.57315,-8.58604 -9.07594,0.43833 -15.32852,-2.64285 -10.22332,-7.49022 -12.46651,-12.75014 v 0 l -13.74282,-18.12608 -0.4899,-3.75156 1.14739,-2.64285 3.79023,-0.88954 9.07594,-7.28396 6.75537,-18.10029 2.64285,-1.98536 z"
     class="land"
     title="Češinovo-Obleševo"
     id="MK-81"
     inkscape:connector-curvature="0"
     style="fill:#f59088;fill-opacity:1;stroke:#ffffff;stroke-width:0.64459741;stroke-opacity:1" />
  <path
     d="m 402.44344,176.50681 4.88605,10.80345 4.39615,5.16967 3.30035,1.10872 1.36654,2.95224 -1.09582,14.03934 -10.44247,6.65225 v 0 l -2.26898,-0.76063 -5.80138,1.94669 -9.20485,18.86091 -2.90069,18.84803 0.9669,18.19054 -4.02229,2.42369 -1.49547,-1.58571 v 0 l -7.2066,-10.98394 -6.00765,3.63553 -0.29652,8.85677 4.4993,1.6115 5.69824,9.25642 4.42194,-1.08293 v 0 l 0.86376,2.29477 v 0 l -0.0387,1.48257 v 0 l -1.93379,1.72752 -9.30799,-1.61149 -6.91008,-10.05572 -4.20278,-3.22299 -4.56375,-0.59303 v 0 -7.34841 l -6.78117,-14.94177 -11.91215,-11.69299 v 0 l 0.74773,-1.67596 -5.40173,-12.89195 8.10904,-17.35256 0.39965,-4.67978 20.96231,-15.99891 3.48083,-5.608 1.85644,-9.21774 h 7.21948 l 6.60069,2.82333 13.20135,-4.03518 z"
     class="land"
     title="Čučer Sandevo"
     id="MK-82"
     inkscape:connector-curvature="0"
     style="fill:#f59088;fill-opacity:1;stroke:#ffffff;stroke-width:0.64459741;stroke-opacity:1" />
  <path
     d="m 644.54135,361.17109 7.88988,-0.29652 4.80869,2.03693 3.55819,-1.01847 2.78465,3.40348 v 0 l -6.25259,5.44041 -3.28745,6.83272 1.14738,16.30832 5.9303,12.77593 17.97138,1.98536 5.608,3.51949 12.04108,12.11844 7.74806,1.31498 18.12608,18.70621 h 8.25085 l 24.48181,-4.83447 5.608,0.21916 1.97246,2.47525 v 0 l -12.46651,23.24418 -7.25817,0.24495 -13.02086,-6.44597 -2.42369,0.50278 -6.51043,6.69092 -1.30209,2.97804 5.40173,12.40206 0.73484,13.39474 1.86933,3.71288 4.57664,2.75887 v 0 l -15.47034,17.80379 -9.2951,7.92854 0.0644,3.01672 v 0 l -10.4167,0.83798 -6.89719,-1.9209 -14.28428,-8.75364 -3.0554,-1.92089 -1.2763,-10.9066 -6.26549,-2.14006 -13.79438,0.21916 -2.41079,-1.93379 -3.6871,-16.66929 -4.82159,-7.91566 -2.7331,0.42543 -4.48639,8.76653 -3.85469,0.85088 -7.54179,-10.68743 -7.54179,-1.71463 -4.57665,-3.8418 v 0 l -7.46443,-4.71845 -11.96373,-0.76063 v 0 l -0.55436,-6.085 -8.98569,-8.77942 1.4439,-6.63935 7.86409,-9.42401 4.17699,1.28919 6.4073,6.63935 1.45679,-0.43833 1.4439,-4.49929 5.60799,-0.64459 -0.79929,-6.63935 2.59128,-0.78642 v 0 l 6.39441,6.34285 4.87315,1.18606 1.34077,-1.48259 -0.88955,-3.85468 -3.33901,-2.37212 1.34076,-3.55818 1.99825,-0.59303 0.21916,-3.55818 -4.66689,-12.14422 8.44423,-3.55817 11.5383,-17.50727 4.77002,-2.96515 -0.21917,-6.22681 -4.44772,-7.70939 -0.43832,-3.86758 0.67038,-2.0756 4.43483,-2.37212 z"
     class="land"
     title=" Štip"
     id="MK-83"
     inkscape:connector-curvature="0"
     style="fill:#f59088;fill-opacity:1;stroke:#ffffff;stroke-width:0.64459741;stroke-opacity:1" />
  <path
     d="m 381.23619,286.44935 -4.42194,1.08293 -5.69824,-9.25642 -4.4993,-1.6115 0.29652,-8.85677 6.00765,-3.63553 7.2066,10.98394 v 0 z"
     class="land"
     title="Šuto Orizari"
     id="MK-84"
     inkscape:connector-curvature="0"
     style="fill:#f59088;fill-opacity:1;stroke:#ffffff;stroke-width:0.64459741;stroke-opacity:1" />
  <path
     d="m 895.12217,725.34287 -0.47701,2.30765 v 0 l -7.49021,-7.15503 -6.26549,-11.88637 -1.41812,-11.69301 4.40905,-7.73517 4.84737,-3.40347 8.40555,-0.56725 4.53797,2.68153 v 0 l -2.37211,30.07692 z"
     class="land"
     title="Lake Dojran"
     id="MK-LKD"
     inkscape:connector-curvature="0"
     style="fill:#f59088;fill-opacity:1;stroke:#ffffff;stroke-width:0.64459741;stroke-opacity:1" />
  <path
     d="m 111.87179,726.34843 1.99825,2.99094 4.70556,2.42369 3.93204,12.45362 3.91915,5.89162 12.56967,7.60625 -1.04424,14.18114 1.55993,28.69748 -0.25784,10.36513 -4.44773,13.80727 -6.2784,11.39649 -4.44772,14.83863 -11.48672,7.70939 v 0 l -25.809683,-84.5454 -1.482575,-2.81044 -14.116684,-3.02962 v 0 l 2.64285,-18.21632 7.851197,-21.4651 3.674205,-3.46793 z"
     class="land"
     title="Lake Ohrid"
     id="MK-LKO"
     inkscape:connector-curvature="0"
     style="fill:#f59088;fill-opacity:1;stroke:#ffffff;stroke-width:0.64459741;stroke-opacity:1" />
  <g
     id="stadiums"
     data-country="macedonia"
     data-circle-radius="6"
     data-circle-colors="#a149be,#bea149"
     transform="translate(0,225.08557)" />
</svg>
