<?xml version="1.0" encoding="UTF-8" standalone="no"?>
<?xml-stylesheet type="text/css" href="/styles/home.css"?><!-- https://www.amcharts.com/svg-maps -->

<svg
   version="1.1"
   id="map-malta"
   viewBox="0 0 1000 1000"
   width="1000"
   height="1000"
   class=""
   sodipodi:docname="malta.svg"
   inkscape:version="1.3.1 (91b66b0783, 2023-11-16)"
   xmlns:inkscape="http://www.inkscape.org/namespaces/inkscape"
   xmlns:sodipodi="http://sodipodi.sourceforge.net/DTD/sodipodi-0.dtd"
   xmlns="http://www.w3.org/2000/svg"
   xmlns:svg="http://www.w3.org/2000/svg"
   xmlns:rdf="http://www.w3.org/1999/02/22-rdf-syntax-ns#"
   xmlns:cc="http://creativecommons.org/ns#"
   xmlns:dc="http://purl.org/dc/elements/1.1/">
  <metadata
     id="metadata14">
    <rdf:RDF>
      <cc:Work
         rdf:about="">
        <dc:format>image/svg+xml</dc:format>
        <dc:type
           rdf:resource="http://purl.org/dc/dcmitype/StillImage" />
        <dc:title />
      </cc:Work>
    </rdf:RDF>
  </metadata>
  <sodipodi:namedview
     pagecolor="#ffffff"
     bordercolor="#666666"
     borderopacity="1"
     objecttolerance="10"
     gridtolerance="10"
     guidetolerance="10"
     inkscape:pageopacity="0"
     inkscape:pageshadow="2"
     inkscape:window-width="1920"
     inkscape:window-height="1106"
     id="namedview12"
     showgrid="false"
     showguides="true"
     inkscape:guide-bbox="true"
     inkscape:zoom="16.477513"
     inkscape:cx="142.43654"
     inkscape:cy="69.943807"
     inkscape:window-x="-11"
     inkscape:window-y="-11"
     inkscape:window-maximized="1"
     inkscape:current-layer="map-malta"
     inkscape:showpageshadow="2"
     inkscape:pagecheckerboard="0"
     inkscape:deskcolor="#d1d1d1">
    <sodipodi:guide
       position="1340.0081,500"
       orientation="0,1"
       id="guide821"
       inkscape:locked="false"
       inkscape:label=""
       inkscape:color="rgb(0,0,255)" />
    <sodipodi:guide
       position="142.1331,932.81753"
       orientation="0,-1"
       id="guide1"
       inkscape:locked="false" />
  </sodipodi:namedview>
  <defs
     id="defs4">
    <style
       type="text/css"
       id="style2">
			.land
			{
				fill: #cc0000;
				fill-opacity: 1;
				stroke:white;
				stroke-opacity: 1;
				stroke-width:0.5;
			}
         .rectangle:hover {
         fill: #bdbdbd;
         cursor: pointer;
         }
		</style>
    <!-- <amcharts:ammap projection="mercator" leftLongitude="14.182891" topLatitude="36.082376" rightLongitude="14.576552" bottomLatitude="35.805673"></amcharts:ammap> -->
    <!-- All areas are listed in the line below. You can use this list in your script. -->
    <!--{id:"MT_NO"},{id:"MT_CE"},{id:"MT_SO"},{id:"MT_SE"},{id:"MT_GO"}-->
  </defs>
  <path
     d="m 572.46393,425.75713 v 4.34322 l -12.70227,1.74602 -4.94341,6.07831 -5.64181,0.87301 -1.40772,-1.73511 0.70931,-4.34321 2.82637,-2.60812 h 5.64181 l 7.06046,-4.34321 h 8.45726 z m -103.01495,-98.09336 3.52477,6.07831 3.52477,1.72419 1.40772,5.21623 3.53569,2.60811 v 8.68643 l 4.9325,0.873 4.9434,5.1944 0.70932,6.95133 -10.58522,6.95133 h -13.41159 l -3.53568,4.34321 h -2.81545 l -1.40773,2.5972 1.40773,3.47021 -9.87591,6.95132 -4.23408,6.07833 -20.46113,11.27271 -2.11704,3.48112 0.70931,6.94041 4.2341,9.54853 3.53568,2.60811 34.57111,-4.35412 11.99296,-3.47022 2.11704,-2.5972 11.29454,-3.48111 4.94341,-3.4702 2.81545,2.6081 -0.70933,3.47021 3.5357,5.20531 h 4.93249 l 0.70932,-2.60811 6.35113,-3.47021 4.93249,6.07832 7.06045,-0.87301 4.94342,3.47021 h 2.82636 l 2.11705,-3.47021 1.40771,1.74602 h 6.35114 v 3.47021 l -4.94341,4.34321 5.64182,6.07832 -5.64182,8.67551 2.81545,1.74602 0.70933,5.1944 -2.11705,2.60811 h -6.35114 l -4.23408,-3.4702 -4.23409,0.86209 v 3.48112 l 4.23409,1.72419 -1.40773,6.07832 -4.23409,5.20531 -2.82636,8.67551 -5.64181,1.74602 -1.40773,4.34322 -4.94341,2.59719 -0.69841,6.95133 5.64182,0.87301 6.35113,-3.48112 h 4.2341 l 1.40771,-3.4702 4.2341,-0.87302 2.11704,-2.59719 11.29454,-2.60811 2.11705,-4.34321 4.94341,1.74601 -0.70933,2.5972 h 8.46819 l 0.70931,-2.5972 4.2341,2.5972 1.40772,-3.47021 5.65272,1.74601 1.40773,-0.873 v -6.95133 l 4.23409,-1.72419 h 9.17749 l 1.40773,-2.60811 4.9325,-0.8621 1.41863,-7.81341 7.76978,-6.07833 6.35113,-1.72419 5.64181,-4.34321 h 13.40068 l 0.70932,4.34321 -9.87591,-0.87301 v 7.80251 l -4.93249,8.68643 1.40773,9.54853 -6.35114,9.54853 -2.82636,11.27271 h 2.11704 l 1.40772,-6.07832 4.2341,-6.0674 2.11704,-1.73511 h 5.64182 l 5.64181,-6.94041 2.82636,-0.87301 4.2341,-10.41062 3.53568,-0.87301 2.11704,2.60811 5.65272,-0.873 9.88683,7.8025 h 9.16657 l 2.82637,5.20532 4.22318,2.5972 -2.11705,5.2053 5.65273,3.48113 2.82637,8.67551 6.35113,-1.7351 -2.11705,-1.72419 0.70932,-7.81342 5.64181,-0.87302 4.2341,8.68644 v 13.88082 l 2.82636,0.8621 1.40772,-4.3323 2.82637,-0.8621 1.41863,7.80251 4.2341,5.20532 25.40452,5.2053 0.69842,-2.6081 11.29454,-5.20532 6.34022,4.34322 10.58522,2.60811 1.41864,1.72419 -0.70932,6.07831 7.06045,2.60812 1.40773,3.47021 h 5.64182 l 3.52476,2.5972 v 0 l -1.94244,7.9771 -7.72612,4.74698 -3.48112,6.64578 5.79459,1.89879 1.93153,19.479 -3.08827,4.27773 h -16.22703 l -8.50092,10.92352 -12.74592,0.48015 -6.95132,-5.22713 -6.95133,-2.37895 -5.7946,0.48016 -1.93152,6.64577 h -1.93153 L 698.188,583.5206 l -13.90265,-1.42956 -8.10806,5.22714 1.15673,17.10005 -1.54958,11.87291 -2.31348,4.74698 -11.97112,1.42955 -11.20725,-4.27774 -2.31346,0.94939 -8.88286,11.39276 -0.38194,11.39275 -2.70633,0.48016 -15.45224,-13.29155 -28.59101,2.36804 -3.86307,2.37894 -14.2955,25.16446 -0.38194,6.64577 2.70633,2.84819 1.54958,7.12593 8.11898,9.97412 v 0 l -2.31348,21.83612 4.25592,9.02471 0.38194,14.71019 5.0198,6.64577 v 3.32834 l -15.45224,13.7608 -6.17654,3.31742 -5.0198,0.9494 -6.17653,-4.26682 -11.20724,0.48015 -3.08826,10.9126 -5.0198,7.11501 -2.70632,11.39276 -11.58919,12.81139 -0.38194,7.59517 -2.45533,3.06644 v 0 l -8.45727,-0.873 -3.52477,-3.4593 -8.46817,0.87301 -10.58523,-8.67551 -3.53568,-6.92951 -10.58523,-2.60811 -7.76976,-9.53761 -15.51772,-10.3888 -4.94341,-11.27272 -4.23409,-3.45929 -1.40773,-5.20531 -2.81544,-2.60811 -7.06046,-0.85118 -4.94341,-3.48112 1.40773,-1.72419 h -2.11704 v -1.7351 l 4.94341,-5.20532 -16.93637,-0.87301 -14.10999,-9.53761 -2.11704,-6.9295 -6.35114,-5.20531 -7.06044,-9.53761 2.81545,-17.34013 -7.06046,-21.68333 -7.75886,-5.20532 -6.35113,-9.53761 v -6.0674 l 4.23409,-4.3323 0.70932,-5.20532 -5.64182,-8.6646 v -6.06741 l 14.81931,3.47021 16.93636,-0.87301 -0.70932,-3.4702 -4.23408,-0.87301 -2.11706,-5.20532 1.40773,-1.7351 -0.70931,-3.4702 -6.35114,-3.47021 -0.70932,-4.3323 -5.64181,-0.87301 -2.11704,-11.28363 2.11704,-15.60502 2.82636,-3.48112 h 7.04954 l 4.93249,0.87301 6.35114,8.67552 h 2.82636 l 0.70932,-2.5972 2.11705,0.873 -1.40773,-6.07831 1.40773,-9.53762 -10.58523,0.87302 -2.11704,-7.81343 0.70932,-2.5972 14.81931,0.87301 1.40772,-2.60811 h -4.93249 l -1.40773,-3.4702 v -5.20532 l 4.94341,-2.5972 -1.40773,-3.48111 -11.29454,1.7351 -4.94341,-5.20532 1.40773,-1.7351 -1.40773,-1.72418 -6.35113,-2.60812 -13.41158,-1.7242 -4.23409,-9.54851 1.40772,-8.67553 7.04955,-4.3323 h 10.58521 v -9.54853 l 4.9325,-3.48111 v -6.94042 l 8.46818,-5.20531 v -2.60811 h -4.93249 l -2.81545,-2.59719 1.40772,-6.95133 -3.52477,-6.06741 h 4.23409 l 0.70932,-2.60812 -9.16658,-4.34321 -1.40773,-4.34321 1.40773,-2.5972 h 4.23408 l 1.40772,-4.35413 -2.82635,-4.34322 -1.40773,-8.67551 -18.34409,-0.873 -6.35113,4.34321 h -7.76976 l -8.45728,-4.34321 -3.53568,-6.94042 4.2341,-4.34322 1.40772,-7.82433 3.53568,-6.94042 4.9325,-4.34321 h 7.76977 l 7.04954,-13.02964 h 3.53568 l 0.69841,1.74601 2.82636,-0.87301 1.40772,-6.0674 -15.51771,-5.20532 2.11704,-11.29454 4.2341,-0.873 -0.70933,4.34321 -2.11704,1.74602 2.81545,3.4702 12.70227,-1.72419 8.46818,4.34322 h 4.23408 l 2.11705,-2.60812 4.94341,-0.873 9.8759,4.34322 -2.11704,-4.34322 1.40773,-2.5972 h 8.46817 l 4.9325,4.34322 2.11704,-14.76476 h 7.76977 l 2.11704,0.87301 1.40773,5.21623 h 6.34022 l 2.82637,-7.82434 11.29454,0.87301 0.70931,-1.72419 -7.04953,-3.48112 -0.70932,-8.67552 3.53568,-3.47021 9.16658,3.47021 -0.70932,-6.07831 z"
     class="land"
     title="Northern"
     id="MT_NO"
     inkscape:connector-curvature="0"
     style="fill:#cc0000;fill-opacity:1;stroke:#ffffff;stroke-width:0.54563004;stroke-opacity:1" />
  <path
     d="m 778.50474,539.44461 4.94341,0.873 4.23409,6.06741 -5.64182,5.21622 0.70933,2.5972 3.52476,-0.873 2.81546,1.7351 3.52477,-2.5972 2.82636,2.5972 -4.23409,3.4702 v 6.07833 h 2.82636 l -0.70932,13.00781 -6.35113,0.873 v 2.60812 l 2.82636,0.85118 v 3.48112 l 4.23409,3.47021 h 3.52477 l 2.82637,-1.74601 v -7.80252 l 2.11704,-0.8621 11.29454,4.33232 7.04954,6.07831 4.94341,1.7351 -0.70932,8.67552 6.35113,2.5972 2.82637,7.81342 9.8759,3.45929 0.70932,3.47022 -4.94341,3.4702 h -4.94341 l -10.57431,-5.19439 -0.70932,-2.60812 -4.9434,-2.5972 h -7.04954 l -11.29454,6.05649 -1.40773,5.20532 14.81931,-1.72419 9.16659,3.4702 -0.70933,7.80251 -5.6418,3.47021 -6.35114,-0.86209 -1.40773,-2.60812 -5.65273,-2.5972 h -7.04953 l 4.9434,6.9295 h 3.52477 l 2.11705,2.60812 v 7.8025 l -6.35113,3.4593 v 6.07832 0 l -2.18252,10.84712 v 0 l -10.82531,6.16562 -6.55847,-3.31743 -1.93153,-4.74698 -10.43244,-1.89879 -5.7946,11.39275 -3.08826,0.48016 -8.11897,10.9126 -2.31348,0.48015 -8.50092,-6.64577 -18.15856,-4.74698 h -9.27571 l -14.67745,-7.60609 -3.08827,2.37895 -2.70632,11.87291 -3.4702,1.88788 -11.6001,-1.88788 -10.03959,1.88788 -6.17653,-1.41864 -15.07031,0.9494 -21.24683,12.8223 -5.41265,-0.48015 -14.2955,-5.69638 -7.33327,1.42955 -12.36398,-4.27773 v 0 l -8.11898,-9.96321 -1.53867,-7.12593 -2.70632,-2.84819 0.38194,-6.64577 14.29551,-25.16446 3.86305,-2.37895 28.59102,-2.36803 15.45224,13.29155 2.70632,-0.46925 0.38194,-11.40366 8.89377,-11.39276 2.31348,-0.94939 11.20724,4.27774 11.97112,-1.42955 2.31347,-4.74698 1.54959,-11.87291 -1.15674,-17.10005 8.10807,-5.21623 13.91356,1.41864 10.81439,11.87291 h 1.93152 l 1.93154,-6.64577 5.79459,-0.48015 6.95132,2.37894 6.95133,5.22714 12.75683,-0.48016 8.50092,-10.92351 h 16.21612 l 3.09918,-4.26682 -1.93153,-19.479 -5.79459,-1.89879 3.47021,-6.64578 7.72612,-4.75789 z"
     class="land"
     title="Central"
     id="MT_CE"
     inkscape:connector-curvature="0"
     style="fill:#cc0000;fill-opacity:1;stroke:#ffffff;stroke-width:0.54563004;stroke-opacity:1" />
  <path
     d="m 913.28627,857.65603 0.4256,-9.28662 -5.41266,-6.16562 -2.70632,-9.0138 -13.12786,-13.7608 -14.68836,-5.21621 -1.93153,-7.11502 -2.31348,-0.9494 -1.15673,-7.11502 -13.52072,-18.98792 -11.20723,-22.30535 -15.0703,-5.68547 -9.2648,-7.12593 -7.34418,0.9494 -11.58919,5.69638 -2.70632,3.79759 -5.40174,0.48014 -3.09917,-11.8729 -8.88286,-1.89879 -4.63786,-6.16562 -9.26479,-3.32834 -5.7946,-5.21623 v -2.84819 l 5.40174,-2.36804 -10.81438,-9.97411 1.54959,-5.21622 10.03959,-14.72111 8.88285,-5.69637 8.89377,-0.94939 5.79459,-6.64578 h 4.24501 l 1.93153,-1.89879 2.70632,-7.59518 -5.01979,-3.79758 v 0 l 2.18252,-10.84712 v 0 l 4.93249,-0.87301 4.23409,-6.0565 h 3.52477 l 2.12796,-3.48111 h 2.82636 l 2.81545,-5.20531 h 2.82636 l 2.11705,-3.47021 6.34022,-0.8621 4.9434,-5.20531 7.76978,1.7351 7.04954,-5.2053 h 4.23409 l -2.81546,18.21313 -2.82635,2.60811 h -6.35114 l -2.11705,1.72419 -4.94341,6.07832 v 3.45929 l -4.9434,2.60812 -4.9325,12.1348 -4.23408,3.48113 -6.35113,1.72419 -4.2341,6.95132 -6.35113,1.72419 2.11704,5.20531 h 4.23409 l 4.2341,-4.34321 h 2.11704 l 2.11704,-5.20531 10.58522,-1.72419 5.64181,-3.47021 4.24501,2.60811 2.10613,6.06741 h 2.11705 l 2.12795,7.80251 0.69841,-5.20531 -8.46818,-21.67243 9.1775,2.5972 6.34022,9.53762 h 2.82637 l -2.82637,-11.27272 -3.52477,-3.47021 1.41863,-2.5972 6.34022,7.80251 13.4116,3.45929 v -1.72419 h -3.52477 l -5.65273,-8.6646 3.53568,-5.20531 4.93249,-0.87301 -7.06045,-6.94041 0.72023,-3.47021 -2.12795,-6.0674 2.12795,-1.73511 6.34022,3.47021 2.11705,5.20531 2.12796,-2.60811 h 5.64181 l 4.94341,3.48111 h 3.52477 l 4.23409,4.33231 7.04954,-0.87301 3.52477,2.5972 h 4.23409 l 14.81931,16.48894 10.58522,2.58628 6.36205,10.41063 h 3.52476 l 3.52478,3.4702 0.70932,6.94042 8.46817,0.87301 8.45727,5.1944 15.52863,19.93731 4.23409,1.73511 4.23408,10.41062 7.75887,6.0674 -0.69841,2.5972 h -7.76977 l -2.81545,2.60812 -8.47909,-1.7351 -4.22318,5.19439 h -8.46818 l -2.82636,2.5972 v 2.60811 h 2.82636 l 0.69841,-1.7351 9.88682,-0.87301 0.6984,-2.5972 5.64182,-0.86209 8.47909,5.19439 3.52477,5.20531 5.64183,0.87301 v 1.72419 l -8.4682,6.0674 -4.23408,6.94042 -5.64182,0.8621 -6.35113,4.3323 0.70932,1.7351 h -4.94341 l -3.52478,3.4593 -0.70931,5.20531 3.53568,3.48112 2.81545,1.72418 12.70227,0.8621 -1.40772,6.07832 h -2.12796 l -0.69841,2.58629 h -2.82637 l -1.40771,6.94041 h 2.11704 l 2.11704,4.3323 5.64182,2.5972 3.53568,5.20531 v 3.4593 l -8.47909,4.34322 -6.34022,-9.53762 -9.1775,-1.7351 -4.23409,4.3323 2.82636,6.94042 h -6.35113 l -2.11704,3.45929 1.40772,6.07832 9.17749,2.58628 0.69842,1.73511 -4.9325,7.8025 0.6984,5.1944 4.2341,5.20532 -0.69842,6.91858 -2.11704,0.87301 -0.70931,6.94041 -5.64182,-0.873 5.64182,4.3323 v 3.4593 h -4.94341 l 1.41864,8.6646 h -5.64182 l -2.12795,-3.4593 -0.69842,-7.8025 -4.9434,-6.06741 1.41864,-11.26181 -3.53568,-2.5972 -9.87591,-26.8559 -4.23409,-4.3323 -13.40067,-3.47021 -0.70932,2.5972 2.81545,8.6646 h 2.82637 l -1.40773,4.3323 2.81545,6.94041 -4.23409,7.7916 z"
     class="land"
     title="Southern"
     id="MT_SO"
     inkscape:connector-curvature="0"
     style="fill:#cc0000;fill-opacity:1;stroke:#ffffff;stroke-width:0.54563004;stroke-opacity:1" />
  <path
     d="m 798.20199,665.65974 5.01979,3.79758 -2.70632,7.59518 -1.93153,1.89879 h -4.24501 l -5.79459,6.64578 -8.89377,0.94939 -8.88285,5.69637 -10.03959,14.72111 -1.54959,5.21622 10.81438,9.97411 -5.40174,2.36804 v 2.84819 l 5.7946,5.21623 9.26479,3.32834 4.63786,6.16562 8.88286,1.89879 3.09917,11.8729 5.40174,-0.48014 2.70632,-3.79759 11.58919,-5.69638 7.34418,-0.9494 9.2648,7.12593 15.0703,5.68547 11.20723,22.30535 13.52072,18.98792 1.15673,7.11502 2.31348,0.9494 1.93153,7.11502 14.68836,5.21621 13.12786,13.7608 2.70632,9.0138 5.41266,6.16562 -0.4256,9.28662 v 0 l -2.82636,-0.86208 -7.75886,-10.39972 -10.58522,2.58629 h -8.46819 l 2.11706,2.60811 -2.82637,4.3323 h 5.64181 l 2.12796,10.39972 -2.12796,2.59719 -11.28363,0.87301 3.52478,10.3888 2.11704,0.873 v 5.20531 h 2.82637 l 1.41863,-3.48111 6.34022,-2.5972 13.40068,14.732 6.36204,0.8621 -2.11705,-5.1944 -4.24499,-3.4702 -2.10614,-6.0565 h 10.58522 l 8.46818,7.7916 0.69841,6.9295 6.35114,-3.47021 h 1.41864 v 2.60811 l -2.82637,0.87302 -7.75886,9.5267 -4.94341,-6.06742 -2.11704,13.85901 -9.1775,6.06741 v 2.5972 l -5.64182,1.7351 -3.52477,3.45929 h -5.64181 l -4.9434,4.33231 -23.2875,-1.73511 -2.82637,-1.72419 -13.40067,2.58629 -11.99294,-2.58629 -3.53569,-3.45929 -6.34022,-0.87301 -12.00386,-7.80251 h -2.82636 l -0.69841,-2.5972 h -4.9434 l -2.11704,-2.60811 -7.04955,-0.85118 -4.23409,-2.60812 -14.10999,-0.86209 -1.41864,1.73511 h -6.35113 l -5.64182,-2.5972 -2.11704,-3.47022 -4.2341,0.8621 -0.70931,2.60812 -6.35113,-1.7351 -0.69841,2.59719 h -7.76977 v -2.59719 h -2.81545 l -0.70932,-1.73512 -4.94341,0.8621 v -1.7351 h -4.9325 l -9.17749,-9.5267 -13.41158,-0.8621 -7.75886,-2.5972 -0.69842,-1.72419 -0.70931,1.72419 -2.82637,-0.873 v 2.6081 l -2.11704,1.7242 h -7.75886 l -28.21999,-13.859 h -3.53568 l -2.81545,2.5972 -11.29454,-11.26181 -19.0534,-1.72419 -7.75886,-2.60811 h -9.88681 l -8.46819,-4.33231 -4.22317,-9.5267 v -6.0674 l -14.81931,-2.5972 -11.99295,-5.20531 -2.82637,3.47021 -3.52476,-5.20531 -3.52477,-1.72419 0.6984,-1.7351 -8.46818,0.86209 -4.23408,-2.60812 -3.52478,-12.12389 -6.36204,-0.8621 -5.64181,-8.6646 v 0 l 2.45534,-3.06644 0.39285,-7.59518 11.58918,-12.81139 2.6954,-11.39275 5.03072,-7.11501 3.08826,-10.9126 11.19633,-0.48016 6.18745,4.27773 5.01979,-0.94939 6.17653,-3.32834 15.46316,-13.76079 v -3.31743 l -5.0307,-6.64577 -0.38195,-14.71019 -4.245,-9.02472 2.31347,-21.83611 v 0 l 12.36398,4.27773 7.33327,-1.42955 14.2955,5.69638 5.41265,0.48015 21.24683,-12.8223 15.07031,-0.9494 6.17653,1.41864 10.03959,-1.88788 11.6001,1.88788 3.4702,-1.88788 2.70632,-11.87291 3.08827,-2.37895 14.67745,7.60609 h 9.27571 l 18.15856,4.74698 8.50092,6.64577 2.31348,-0.48015 8.11897,-10.9126 3.08826,-0.48016 5.7946,-11.39275 10.43244,1.89879 1.93153,4.74698 6.55847,3.31743 z"
     class="land"
     title="South Eastern"
     id="MT_SE"
     inkscape:connector-curvature="0"
     style="fill:#cc0000;fill-opacity:1;stroke:#ffffff;stroke-width:0.54563004;stroke-opacity:1" />
  <path
     d="m 350.89449,277.28029 4.23408,4.35413 v 3.4702 l 2.11705,0.87301 v 5.21623 l -4.9325,-5.21623 -7.06045,1.72419 -4.9434,-5.21622 v -3.47021 z m 47.2843,-16.48894 3.52476,4.34321 -1.40772,4.34322 4.94341,6.07832 h 7.75886 l 13.40067,14.76474 2.11705,5.21623 -4.23409,6.0674 -0.69841,4.34322 -8.46818,-0.86209 -11.99295,2.59719 -0.70932,1.74602 -4.94341,-0.87301 -1.40771,1.74602 -9.87592,-1.74602 -2.82635,1.74602 2.11704,0.86209 -0.70932,1.74602 -16.22704,-0.873 -5.65272,2.6081 h -5.64182 l 7.06045,-9.54852 6.35114,-4.34322 0.70931,-3.48112 -0.70931,-3.4702 -4.23409,1.74601 -2.11705,-1.74601 -0.70932,-4.34322 -4.23408,-1.74602 -3.52477,-8.68643 2.11704,-3.4702 -4.93249,-4.34321 2.11704,-6.07833 9.1775,1.74602 2.81545,-4.34322 h 4.94341 l 2.11704,6.06741 2.11704,-6.06741 h 4.23409 l 4.94341,3.47021 4.9325,0.87301 2.11704,4.34322 v -9.55944 z M 138.50255,67.016315 l 4.23408,3.470207 h 7.06046 l 6.35113,2.597199 12.70226,-0.873008 1.40773,1.746017 h 7.06046 v 3.481119 l -2.82637,0.873008 v 2.619024 l 3.53568,2.597199 14.11,1.746017 1.40772,6.078317 -2.10614,4.35413 0.69842,3.470206 h 4.24499 l 2.11705,-6.962246 1.40773,0.87302 0.70931,-1.74602 h 7.76978 l 3.52477,3.48112 h 4.23409 l 11.29454,12.167536 0.70931,6.96223 3.53569,4.34322 9.16658,2.5972 1.40773,5.21622 8.45726,2.61903 2.11705,4.34321 7.04954,-0.87301 7.76977,-13.90265 7.06045,-0.87301 2.11704,4.34322 h 2.81546 l 2.82636,8.68643 2.82637,2.61902 6.34022,0.8621 7.76976,10.43244 5.64182,-0.87301 8.46818,-5.2053 13.41159,1.7351 2.11704,4.34321 1.41864,16.52168 4.94341,1.73511 0.70931,6.96224 h 4.2341 l 3.52477,-3.47021 9.88681,3.47021 5.64182,10.43244 26.81225,26.9323 4.2341,7.82433 1.40772,9.55944 -5.64182,5.20531 -11.28363,1.74602 -4.93249,6.08922 -12.00386,0.87302 -6.35113,7.81342 h -11.99295 l -3.52477,-3.47021 -5.64181,-0.87301 h -6.35114 v 1.74602 l -5.64181,0.86209 h -4.94341 l -4.2341,-3.4702 h -2.81544 l -2.82636,3.4702 -5.64182,-1.72419 -1.41863,5.21623 5.64181,0.86209 -21.86886,16.51077 h -6.35112 l -2.11705,-1.74602 -3.52477,1.74602 -0.70932,4.34321 -4.94341,1.74602 -14.8084,-0.87301 -2.11704,5.21622 -17.64568,-3.4702 -6.35113,6.0674 -14.8084,5.21623 -5.64182,5.21622 v 2.60811 h -2.11704 l -7.06045,-8.69735 h -9.16659 l -6.35113,-12.15663 H 161.1571 l -3.53568,-2.60811 h -16.92544 l -2.81545,-2.5972 h -9.1775 l -2.81546,-3.47021 -4.23408,0.87301 -4.23409,-1.74601 v -1.74602 l -9.16659,1.74602 v 1.74601 h -4.23409 l -1.40772,2.5972 -7.060457,-3.47021 0.709319,-2.60811 -5.641814,1.74602 -4.23409,-6.95133 h -2.826363 l -1.407725,-4.34321 -9.166585,-9.55944 v -7.81342 l -8.468178,-7.81343 -8.468178,0.8621 2.117045,-1.72419 -6.351134,-3.48112 H 39.819892 l -2.826363,3.48112 -3.524771,-0.87301 -6.351133,1.74602 v -1.74602 l -2.117044,0.87301 -9.166585,-6.08923 -3.52477,0.87301 -4.9434084,-6.08924 v -5.21622 l 7.7697724,-8.68642 -1.407726,-4.34323 1.407726,-7.81342 -3.535682,-10.43244 0.709318,-2.60811 4.234089,-0.87301 0.709319,-3.47021 -2.117044,-2.5972 h -2.815451 l -1.407726,-9.55944 9.166584,-9.55944 0.70932,-4.34321 -2.826364,-13.04056 -9.1665848,-4.34321 H 3.1535537 l -0.709319,-1.7351 -2.11704456,-24.33509 2.82636356,-9.559436 7.7697713,1.7351 h 14.109993 l 2.117044,-1.7351 11.992949,0.873 5.641814,-4.34321 4.234089,-7.835246 h 8.468178 l 9.166584,-4.343215 h 9.875905 l 12.00386,-2.597199 3.52477,3.470207 h 4.932495 l 3.535694,-6.96224 h 4.23408 l 7.06045,4.343216 h 6.35113 l 2.11706,-5.205311 h 7.06045 l 2.11704,1.735103 z"
     class="land"
     title="Gozo"
     id="MT_GO"
     inkscape:connector-curvature="0"
     style="fill:#cc0000;fill-opacity:1;stroke:#ffffff;stroke-width:0.54563004;stroke-opacity:1" />
  <g
     id="stadiums"
     data-country="malta"
     data-circle-radius="6"
     data-circle-colors="#a149be,#bea149"
     transform="translate(0,83.356812)" />
</svg>
