<?xml version="1.0" encoding="UTF-8" standalone="no"?>
<?xml-stylesheet type="text/css" href="/styles/home.css"?><!-- https://www.amcharts.com/svg-maps -->

<svg
   xmlns:dc="http://purl.org/dc/elements/1.1/"
   xmlns:cc="http://creativecommons.org/ns#"
   xmlns:rdf="http://www.w3.org/1999/02/22-rdf-syntax-ns#"
   xmlns:svg="http://www.w3.org/2000/svg"
   xmlns="http://www.w3.org/2000/svg"
   xmlns:sodipodi="http://sodipodi.sourceforge.net/DTD/sodipodi-0.dtd"
   xmlns:inkscape="http://www.inkscape.org/namespaces/inkscape"
   version="1.1"
   id="map-moldova"
   viewBox="0 0 1000 1000"
   width="1000"
   height="1000"
   class=""
   sodipodi:docname="moldova.svg"
   inkscape:version="0.92.4 (5da689c313, 2019-01-14)">
  <metadata
     id="metadata46">
    <rdf:RDF>
      <cc:Work
         rdf:about="">
        <dc:format>image/svg+xml</dc:format>
        <dc:type
           rdf:resource="http://purl.org/dc/dcmitype/StillImage" />
        <dc:title></dc:title>
      </cc:Work>
    </rdf:RDF>
  </metadata>
  <sodipodi:namedview
     pagecolor="#ffffff"
     bordercolor="#666666"
     borderopacity="1"
     objecttolerance="10"
     gridtolerance="10"
     guidetolerance="10"
     inkscape:pageopacity="0"
     inkscape:pageshadow="2"
     inkscape:window-width="1920"
     inkscape:window-height="1017"
     id="namedview44"
     showgrid="false"
     showguides="true"
     inkscape:guide-bbox="true"
     inkscape:zoom="0.30694211"
     inkscape:cx="881.38327"
     inkscape:cy="829.19976"
     inkscape:window-x="-8"
     inkscape:window-y="-8"
     inkscape:window-maximized="1"
     inkscape:current-layer="map-moldova">
    <sodipodi:guide
       position="500,613.46925"
       orientation="1,0"
       id="guide853"
       inkscape:locked="false"
       inkscape:label=""
       inkscape:color="rgb(0,0,255)" />
  </sodipodi:namedview>
  <defs
     id="defs4">
    <style
       type="text/css"
       id="style2">
			.land
			{
				fill: #cd80b6;
				fill-opacity: 1;
				stroke:white;
				stroke-opacity: 1;
				stroke-width:0.5;
			}
         .rectangle:hover {
         fill: #bdbdbd;
         cursor: pointer;
         }
		</style>
    <!-- <amcharts:ammap projection="mercator" leftLongitude="26.648880" topLatitude="48.495637" rightLongitude="30.175684" bottomLatitude="45.461826"></amcharts:ammap> -->
    <!-- All areas are listed in the line below. You can use this list in your script. -->
    <!--{id:"MD-AN"},{id:"MD-BA"},{id:"MD-BD"},{id:"MD-BR"},{id:"MD-BS"},{id:"MD-CA"},{id:"MD-CL"},{id:"MD-CM"},{id:"MD-CR"},{id:"MD-CS"},{id:"MD-CT"},{id:"MD-CU"},{id:"MD-DO"},{id:"MD-DR"},{id:"MD-DU"},{id:"MD-ED"},{id:"MD-FA"},{id:"MD-FL"},{id:"MD-GA"},{id:"MD-GL"},{id:"MD-HI"},{id:"MD-IA"},{id:"MD-LE"},{id:"MD-NI"},{id:"MD-OC"},{id:"MD-OR"},{id:"MD-RE"},{id:"MD-RI"},{id:"MD-SD"},{id:"MD-SI"},{id:"MD-SN"},{id:"MD-SO"},{id:"MD-ST"},{id:"MD-SV"},{id:"MD-TA"},{id:"MD-TE"},{id:"MD-UN"}-->
  </defs>
  <path
     d="m 652.99247,580.88906 0.40316,-1.26148 v 0 l -0.66325,-28.59767 -4.65574,-6.65848 -9.20744,4.33061 v 0 0 0 0 0 l 2.66601,-12.53668 -2.00276,-3.9795 -15.07262,-10.87206 1.1054,-9.75363 4.65575,-5.98224 v 0 l -1.10542,-4.42164 6.4244,-5.22797 16.63321,-0.22108 v 0 l 7.10065,13.96722 6.64548,-5.31898 v 0 l 8.42716,-11.09314 13.74613,-2.653 -0.44217,-16.41211 7.75089,-7.08766 2.44492,-8.20606 v 0 h 2.66599 v 0 l 15.73589,13.85017 3.10815,7.98498 -4.43466,14.40939 2.65299,5.0979 v 0 l -1.54757,2.666 v 0 l -13.30398,-2.666 -0.88433,7.98498 v 0 l 7.54282,8.42714 8.63523,3.55033 14.2013,-7.7639 v 0 l 10.63798,6.4374 v 0 l -0.66326,4.65574 v 0 l -2.88707,4.43467 1.3265,4.87681 v 0 l 3.10815,7.30873 v 0 l -2.21083,4.43465 -1.33949,-3.77141 v 0 l -3.31624,-5.98223 v 0 l -11.97747,-1.10541 -1.10541,2.21083 v 0 l -1.33951,3.10816 v 0 l -1.98973,8.64823 v 0 l 4.87682,8.20605 v 0 l 2.88707,7.52983 v 0 l -22.83653,-0.66326 -9.75363,8.42715 -8.64825,2.21083 -6.4374,6.43739 1.56059,15.73588 v 0 l -10.42989,-3.09514 v 0 l -1.98975,-3.55033 v 0 l -5.76115,-6.87957 z"
     class="land"
     title="Anenii Noi"
     id="MD-AN"
     inkscape:connector-curvature="0"
     style="fill:#cd80b6;fill-opacity:1;stroke:#ffffff;stroke-width:0.65024281;stroke-opacity:1" />
  <path
     d="m 358.90065,240.98114 0.0521,-0.078 v 0 l 1.62561,-1.8727 v 0 l -0.078,-0.66325 v 0 l 16.78926,3.91446 -2.74402,-7.36076 4.61673,-5.24095 7.47779,-0.37714 v 0 l 0.70226,-1.11841 v 0 l 2.30186,4.98085 10.09177,5.74815 9.97472,-9.1034 6.11229,8.10203 0.2601,5.98223 -4.99387,4.61672 4.73377,4.23959 -0.98838,4.99387 -9.72763,-3.12117 -15.09863,3.99249 v 0 l -2.23685,0.98837 v 0 l -13.47301,-0.11704 3.12115,-7.98499 -17.58255,-6.11228 z"
     class="land"
     title="Bălţi"
     id="MD-BA"
     inkscape:connector-curvature="0"
     style="fill:#cd80b6;fill-opacity:1;stroke:#ffffff;stroke-width:0.65024281;stroke-opacity:1" />
  <path
     d="m 744.9108,561.09566 -2.04177,3.32926 -15.08563,-2.4059 v 0 l -2.4449,-6.1123 v 0 l -4.87682,-8.20605 v 0 l 1.98973,-8.64823 v 0 l 1.33951,-3.10816 v 0 l 1.10541,-2.21083 11.97747,1.10541 v 0 l 3.31624,5.98223 v 0 l 1.33949,3.77141 v 0 l 2.45792,16.26907 v 0 z"
     class="land"
     title="Tighina"
     id="MD-BD"
     inkscape:connector-curvature="0"
     style="fill:#cd80b6;fill-opacity:1;stroke:#ffffff;stroke-width:0.65024281;stroke-opacity:1" />
  <path
     d="m 219.38456,39.210787 13.19993,4.876822 v 0 l -4.09652,11.210186 13.08288,9.090394 v 0 l 1.41753,4.265593 v 0 l -3.12116,10.234822 2.83505,6.541443 -4.5517,4.265593 -5.39701,-0.858321 -2.56196,5.123914 -13.64208,-5.96923 0.8583,-10.520929 -8.24507,1.131423 -6.25533,6.541442 -1.13143,21.887181 -12.56269,14.7865 v 0 l -4.92885,3.30324 -4.00549,-1.89871 -4.73376,-5.16293 8.42715,-3.55033 -9.01237,-2.80904 -1.62561,-8.72626 -5.48805,-2.04177 0.31212,4.55171 -4.35663,1.82068 -2.44492,-9.207433 -17.29646,-13.746133 -9.75363,-3.849438 -6.11228,4.616724 -1.13143,-5.94322 -6.64548,5.03288 -1.48255,-5.331992 -4.13555,7.100653 -3.10816,-4.876822 -6.02125,-1.31349 -2.40589,-7.412769 5.61809,-8.271087 5.91721,-0.88433 V 53.164998 l 3.53733,-1.924718 10.79403,14.929574 9.46752,-0.143053 0.74129,-11.678361 -5.77416,-14.929575 12.8618,-1.183442 3.10816,-8.869312 23.79889,17.881677 10.79403,-6.060262 6.06025,4.733767 2.50995,-1.183441 -2.666,-14.48741 3.40728,-2.22383 z"
     class="land"
     title="Briceni"
     id="MD-BR"
     inkscape:connector-curvature="0"
     style="fill:#cd80b6;fill-opacity:1;stroke:#ffffff;stroke-width:0.65024281;stroke-opacity:1" />
  <path
     d="m 585.99145,685.82524 -1.54757,-7.08765 13.96722,-7.10065 15.07262,-15.29371 12.86181,2.21084 6.76252,11.75639 5.09792,1.54757 v 0 l -2.56198,4.78578 -16.62019,6.29437 3.10815,16.6332 8.42714,17.73863 -2.21082,10.13078 -7.54281,6.72351 1.82068,5.21494 v 0 l -14.4614,-3.66737 -7.98499,-6.87957 -6.86656,2.66599 -1.78166,4.21358 -23.05762,0.88432 -3.99248,-14.18828 h 11.97746 l 21.06788,-5.76116 5.31898,-8.86932 -1.33949,-4.65573 -10.4169,-6.87956 -5.27997,-7.95897 v 0 z"
     class="land"
     title="Basarabeasca"
     id="MD-BS"
     inkscape:connector-curvature="0"
     style="fill:#cd80b6;fill-opacity:1;stroke:#ffffff;stroke-width:0.65024281;stroke-opacity:1" />
  <path
     d="m 528.93916,954.5706 v 3.32924 0 l -20.44364,5.29298 -2.43191,-22.83653 11.5353,-4.87682 v 0 l 5.42304,3.36825 z m -12.23758,-166.64424 -0.22108,16.19105 v 0 h 0.091 v 0 l -12.73175,5.09791 -3.7714,18.40187 2.4449,23.49977 7.98498,9.75365 v 0 l -2.66599,3.55033 v 0 l -1.54758,1.32649 v 0 l -1.98975,-0.22109 v 0 l -13.52504,1.3265 2.666,14.1883 2.44491,3.10816 11.53531,2.22384 6.87957,9.31147 3.55032,-4.21357 3.55033,2.66599 v 6.86656 l 6.42439,7.54282 -3.7714,8.50518 v 0 l -4.87682,0.46817 v 0 l -14.40937,1.54758 v 0 l -27.27119,-9.97473 -1.54757,21.73112 3.10816,6.65848 v 0 12.64073 0 l -5.98224,7.10064 3.32924,8.64823 v 0 l 1.98975,2.88709 v 0 l -2.88708,4.43465 v 0 l -2.66599,1.98974 v 0 l -13.40802,15.18969 -0.88432,8.8693 -4.96785,-1.43055 -4.62974,-8.62221 0.18207,-12.02949 -4.62972,-3.14719 0.18207,-7.02262 -7.95898,-1.1054 -9.98773,-8.88232 8.70024,-10.91106 7.76391,-0.55921 3.14718,-3.32926 -1.66462,-7.95896 3.14717,-6.47642 -5.73514,-20.35261 0.92334,-8.14104 -4.43465,-2.40589 -5.358,-14.33135 -1.30049,-42.36981 -7.39976,-17.20544 1.1054,-19.23418 4.01851,-8.11504 v 0 l 12.36762,-3.22519 v 0 l 17.07538,3.7714 9.97473,-2.43191 v 0 l 3.32924,3.77141 v 0 l 7.76389,5.76115 12.64072,-2.66599 v 0 l 7.32174,1.76866 v 0 l 2.22383,-10.85906 9.09039,-3.55033 v 0 l 2.40589,-1.56058 v 0 z"
     class="land"
     title="Cahul"
     id="MD-CA"
     inkscape:connector-curvature="0"
     style="fill:#cd80b6;fill-opacity:1;stroke:#ffffff;stroke-width:0.65024281;stroke-opacity:1" />
  <path
     d="m 520.59004,360.43074 0.5462,20.20954 11.09315,3.99249 2.4319,2.653 -1.76866,2.00274 v 0 l -3.32925,1.76867 v 0 l -2.43191,7.32173 -8.64822,1.76866 -5.09789,7.10065 -11.09315,4.65573 -0.88433,2.43191 7.32173,2.44492 2.87407,9.75365 -2.21082,8.8693 -6.87958,0.66325 -4.21356,6.20332 -15.73588,7.54282 -15.52779,-0.65024 v 0 l 0.67625,-0.89735 v 0 l -14.64348,-6.65849 -7.75089,-0.22108 -5.98224,-6.64547 -12.19855,-3.32925 -2.44491,-7.10065 -8.19307,-5.24096 v 0 l 9.53257,-10.05275 8.19306,-15.5148 16.63321,-13.74612 1.3265,-17.07539 1.0794,-2.90008 4.35662,0.89734 v 0 l 32.14801,7.10065 27.27119,-6.20332 v 0 z"
     class="land"
     title="Călăraşi"
     id="MD-CL"
     inkscape:connector-curvature="0"
     style="fill:#cd80b6;fill-opacity:1;stroke:#ffffff;stroke-width:0.65024281;stroke-opacity:1" />
  <path
     d="m 561.71139,582.42363 14.7475,2.74403 9.31149,13.30396 5.31898,-0.22108 4.65574,-13.74613 6.43741,-4.43466 10.85904,7.08765 2.66601,6.87957 -1.78167,8.86931 v 0 l 0.76728,-0.026 v 0 l 6.99662,19.53329 v 0 l 2.21082,6.65849 h 6.21632 v 0 l 12.18556,-7.10065 v 0 l 4.21356,4.21357 -2.87405,32.3691 v 0 l 1.76864,3.5373 v 0 l -3.30323,0.39016 -3.90144,9.3765 v 0 l -5.09792,-1.5476 -6.76252,-11.7564 -12.86181,-2.21083 -15.07262,15.29371 -13.96722,7.10065 1.54757,7.08765 v 0 l -0.22107,2.88707 v 0 h -9.75365 l -28.37659,-9.97472 -8.20606,-6.21631 -7.76391,3.32924 -9.42851,-5.09791 v 0 l 1.66463,-1.1054 v 0 l 7.76388,-9.76666 -0.66324,-9.75364 5.31898,-10.19581 -2.88707,-29.93718 v 0 h 1.3395 v 0 h 3.77141 l 3.7584,-4.87682 -0.66326,-9.97472 3.77141,-9.31147 4.43466,-0.44217 1.78167,4.43465 3.09517,-0.22108 4.65572,-5.31897 v 0 z"
     class="land"
     title="Cimişlia"
     id="MD-CM"
     inkscape:connector-curvature="0"
     style="fill:#cd80b6;fill-opacity:1;stroke:#ffffff;stroke-width:0.65024281;stroke-opacity:1" />
  <path
     d="m 689.64017,470.42581 -1.54758,20.18353 -13.74613,2.666 -8.42716,11.08014 v 0 l -6.64548,5.31898 -7.08763,-13.96722 v 0 l -11.97749,-0.88432 -14.40937,6.54143 -2.65299,-4.43464 1.76865,-8.64823 12.64072,-3.77141 15.5148,1.32649 4.21357,-6.2033 -1.43054,-4.98087 v 0 l 22.26432,-24.73524 9.98772,-4.52568 v 0 l 6.64549,1.76865 6.87957,9.53256 v 0 l -1.10542,2.22383 v 0 h -2.67899 v 0 l -2.43191,8.20607 z m -57.63753,-69.52396 5.54007,9.55856 7.98498,2.8871 -1.98975,6.64546 15.07264,2.666 14.40938,-5.72213 v 0 0.065 0 l 12.19855,7.54282 v 0 l -12.25058,6.59346 -4.16154,11.02812 -5.76116,7.10065 -8.86931,1.98974 -8.64823,15.07264 v 0 l -2.21082,0.66323 v 0 l -2.21083,1.32651 v 0 l -17.51754,4.21357 v 0 l -12.19856,-2.66599 v 0 l -4.21357,-15.73588 -10.85906,1.98974 -1.54758,7.98499 -2.66599,0.66325 -2.4319,-4.65575 -13.39501,-4.21358 6.9706,-5.31898 0.88432,-5.54006 v 0 l -2.57494,-4.94185 v 0 l 3.45929,-25.21642 v 0 l 18.40187,-2.21083 v 0 l 12.41964,-6.4244 v 0 l 5.98222,-2.66599 v 0 z"
     class="land"
     title="Criuleni"
     id="MD-CR"
     inkscape:connector-curvature="0"
     style="fill:#cd80b6;fill-opacity:1;stroke:#ffffff;stroke-width:0.65024281;stroke-opacity:1" />
  <path
     d="m 727.7834,562.01902 15.08563,2.4059 2.04177,-3.32926 v 0 l 0.85832,0.20808 v 0 l 7.56883,7.56884 9.79266,0.89733 2.88707,-0.89733 3.34225,-13.79816 5.56608,2.44491 0.44216,4.22659 9.57158,-0.44218 0.66323,10.91109 7.56884,16.46414 -8.83029,17.01036 v 0 l -0.74127,0.13004 v 0 l -2.22384,6.90557 -6.89258,1.56059 -4.23959,5.345 -11.57432,0.22108 -10.45589,9.1164 -7.56883,-2.88708 -12.47166,9.79266 6.24233,6.67149 -11.13216,6.6845 0.66325,6.00824 10.48191,11.96447 v 0 l -9.22043,8.66123 -2.22384,12.25058 -4.07053,1.04038 -7.32172,-17.51754 -5.98224,-1.56059 -5.0979,7.76391 1.96374,16.13902 -9.64961,1.07941 -7.17868,12.49767 h -6.20332 l -3.10816,-3.55033 7.10065,-15.95696 1.54759,-37.25891 -3.7714,-4.87683 -7.30874,0.89735 -6.1253,12.6017 -22.36835,2.67899 v 0 l -1.76864,-3.5373 v 0 l 2.87405,-32.3691 -4.21356,-4.21357 v 0 l -12.18556,7.10065 v 0 h -6.21632 l -2.21082,-6.65849 v 0 l -6.99662,-19.53329 v 0 l 12.53668,0.91033 3.77141,-3.77141 v 0 l 15.07264,-9.31146 6.21631,-7.52983 v 0 l 5.42303,-3.55032 11.97747,9.31149 v 0 l 1.98975,3.55033 v 0 l 10.42989,3.09514 v 0 l -1.56059,-15.73588 6.4374,-6.43739 8.64825,-2.21083 9.75363,-8.42715 22.83653,0.66326 v 0 z"
     class="land"
     title="Căuşeni"
     id="MD-CS"
     inkscape:connector-curvature="0"
     style="fill:#cd80b6;fill-opacity:1;stroke:#ffffff;stroke-width:0.65024281;stroke-opacity:1" />
  <path
     d="m 429.62107,795.58623 6.48942,-25.55454 -6.25533,-17.34849 4.44766,-3.74539 -0.55922,-6.24232 11.37926,-7.20471 4.99387,-8.33611 -4.99387,-10.82004 10.00074,-19.48127 v 0 l 20.8988,-0.61122 6.87957,6.65848 11.08013,2.43191 4.43465,-4.65575 -1.32649,-6.42439 9.97473,-3.99249 2.4319,5.98224 -3.53732,7.32173 11.96446,8.86931 v 0 h 0.63725 v 0 l -4.07052,14.07125 13.74614,8.20606 v 13.0829 l -3.55033,15.51479 -10.19581,-1.98975 -5.76115,5.31899 4.65575,19.50729 v 0 l 0.40314,0.22107 v 0 l -2.4059,1.56058 v 0 l -9.09039,3.55033 -2.21083,10.85906 v 0 l -7.32174,-1.76866 v 0 l -12.64072,2.65299 -7.75089,-5.76115 v 0 l -3.32925,-3.77141 v 0 l -9.97472,2.44491 -17.07538,-3.77141 v 0 z"
     class="land"
     title="Cantemir"
     id="MD-CT"
     inkscape:connector-curvature="0"
     style="fill:#cd80b6;fill-opacity:1;stroke:#ffffff;stroke-width:0.65024281;stroke-opacity:1" />
  <path
     d="m 645.17656,466.43333 v 0 l -1.8727,0.55919 v 0 l -2.21082,1.32651 v 0 l -17.51755,4.21357 v 0 l -12.19856,-2.65299 v 0 l -4.21356,-15.74888 -10.85906,2.00275 -1.54757,7.98497 -2.666,0.66325 -2.44492,-4.65573 -10.41688,-4.21357 h -2.97811 l -0.7933,5.76114 v 0 l -2.653,5.54006 -12.41963,2.22384 -7.10066,4.65573 -2.65299,7.75091 2.87407,6.4374 v 0 l -0.14304,0.2471 v 0 l 19.44225,16.49015 1.32649,6.64547 20.39162,9.09041 2.44492,15.5278 5.54008,7.54281 10.87204,0.66325 19.2862,10.1958 5.319,-1.32649 0.88432,-4.65574 v 0 l 2.66601,-12.53668 -2.00276,-3.9795 -15.07262,-10.87206 1.1054,-9.75363 4.65575,-5.98224 v 0 l -1.10542,-4.43465 -5.54007,-0.44217 1.32649,-12.41963 12.64073,-3.77141 15.51479,1.32649 4.21359,-6.2033 0.22107,-3.32925 -11.08014,-8.86931 z"
     class="land"
     title="Chişinău"
     id="MD-CU"
     inkscape:connector-curvature="0"
     style="fill:#cd80b6;fill-opacity:1;stroke:#ffffff;stroke-width:0.65024281;stroke-opacity:1" />
  <path
     d="m 287.55602,100.56769 4.33062,-12.28958 -1.43054,-11.665357 8.81729,-11.080137 -0.2861,-9.376501 23.5908,-1.430534 13.92821,-8.804288 19.05211,8.518181 11.93846,-14.201303 16.19105,-1.118417 v 0 l 3.4723,11.821414 v 0 l -11.28823,8.908327 -1.41752,5.110908 17.06236,10.807035 -7.39976,8.245079 -8.53119,2.262845 v 0 l -5.68312,2.561957 v 0 l -19.3252,10.807031 -9.3765,21.60106 -16.77628,11.93848 13.6421,15.05963 -3.40727,5.41002 h -4.83781 v 0 h -2.26283 v 0 l -2.27586,-4.5517 -9.66261,1.13142 -15.5278,-8.51818 v 0 l 0.026,-0.57221 v 0 l -3.69338,-3.40728 0.2861,-25.86667 -8.53119,-7.11366 v 0 z"
     class="land"
     title="Donduşeni"
     id="MD-DO"
     inkscape:connector-curvature="0"
     style="fill:#cd80b6;fill-opacity:1;stroke:#ffffff;stroke-width:0.65024281;stroke-opacity:1" />
  <path
     d="m 411.54432,170.4168 5.83918,15.50179 -5.12392,13.35598 v 0 2.83507 0 l -9.37649,17.63458 -5.41003,-5.96923 -9.09039,7.95897 v 0 l -3.12116,3.40727 v 0 l -3.42027,-4.26559 -17.33549,0.85832 -21.31496,-25.02134 -15.07263,-3.40728 -5.1109,-4.5517 -3.97949,-19.89742 8.24509,-5.68313 1.70363,-9.51955 v 0 h 0.84531 v 0 h 4.83781 l 3.40727,-5.41002 -13.6421,-15.05963 16.77628,-11.93848 9.3765,-21.60106 19.3252,-10.807031 v 0 l 3.65438,-1.638614 v 0 l 8.2841,13.577075 15.63182,1.43053 19.33822,19.0391 8.8043,13.92823 -5.39703,16.49016 h -6.54144 l -7.38676,9.09039 4.26561,9.66261 v 0 z"
     class="land"
     title="Drochia"
     id="MD-DR"
     inkscape:connector-curvature="0"
     style="fill:#cd80b6;fill-opacity:1;stroke:#ffffff;stroke-width:0.65024281;stroke-opacity:1" />
  <path
     d="m 688.09259,445.37845 -9.98774,4.5257 -22.26431,24.73523 v 0 l -9.42852,-7.20468 v 0 l -1.22245,-1.00137 v 0 l 0.33812,-0.10404 v 0 l 8.64823,-15.07264 8.86931,-1.98974 5.76116,-7.10065 4.16154,-11.02812 12.25058,-6.59346 v 0 l 9.31147,-1.10541 15.07264,-11.30123 4.21357,0.66325 -3.99249,7.7639 -6.86656,2.88708 -4.43467,9.75365 -10.63795,7.32173 z m -14.85156,-59.19809 27.27119,-6.4244 8.20606,-6.63247 1.71664,4.23957 v 0 l -32.53815,17.9207 -4.87681,7.98497 0.22107,8.64823 v 0 l -0.22107,5.03288 v 0 l -14.40938,5.72214 -15.07264,-2.65299 1.98975,-6.64547 -7.98498,-2.88709 -5.54007,-9.55857 v 0 l 7.10065,-3.52432 1.32649,-5.09789 -6.86656,-11.52231 0.66325,-4.43466 h 8.86932 l 0.22108,-4.65573 v 0 l 6.64548,-5.09791 v 0 l 4.13554,-1.3265 6.28134,4.5517 z"
     class="land"
     title="Dubăsari"
     id="MD-DU"
     inkscape:connector-curvature="0"
     style="fill:#cd80b6;fill-opacity:1;stroke:#ffffff;stroke-width:0.65024281;stroke-opacity:1" />
  <path
     d="m 241.73991,64.921388 4.94185,-11.613336 17.33547,-6.255337 -2.26284,20.755752 3.12116,12.224564 13.9282,15.059624 8.53118,3.979484 v 0 l 0.84532,5.683121 v 0 l 8.53119,7.11366 -0.2861,25.86667 3.69338,3.40728 v 0 l -0.28611,4.8378 v 0 l -19.32523,16.47716 -12.51067,-1.98975 -3.12116,6.82755 -3.97948,1.13143 -7.67288,-5.96923 -7.11365,0.28611 -5.96922,3.97948 -3.97949,15.34572 -4.5387,5.41002 -7.39975,1.98976 v 0 l -6.12529,-7.80292 2.97811,-8.32311 -7.7509,-3.12117 2.43192,-4.72076 -10.46892,-0.5202 3.08215,-8.34911 -7.07464,-1.24847 -0.96236,-5.384 -8.01099,-6.04726 0.8193,-17.3225 -3.92746,-4.8118 v 0 l 12.56269,-14.7865 1.13143,-21.887181 6.25533,-6.541442 8.24507,-1.131423 -0.8583,10.520929 13.64208,5.96923 2.56196,-5.123914 5.39701,0.858321 4.5517,-4.265593 -2.83505,-6.541443 3.12116,-10.234822 v 0 z"
     class="land"
     title="Edineţ"
     id="MD-ED"
     inkscape:connector-curvature="0"
     style="fill:#cd80b6;fill-opacity:1;stroke:#ffffff;stroke-width:0.65024281;stroke-opacity:1" />
  <path
     d="m 317.57123,382.2789 -6.65849,-2.74403 4.48668,-10.91107 -5.345,-4.48668 3.42028,-12.6277 -7.69888,-7.47781 -3.84943,2.1328 -12.40664,-7.26972 -9.75363,-27.28418 v 0 l 23.94194,-18.57094 15.09863,2.86107 16.45114,-31.43274 9.10341,5.48806 5.24095,-2.48393 5.86519,-10.10478 1.8727,-14.21431 v 0 l 1.56057,-2.1718 v 0 l 0.93637,4.40864 17.58255,6.11228 -3.12115,7.98499 13.47302,0.11704 v 0 l 1.17045,-0.52019 v 0 l 3.94045,6.04725 -5.54006,7.08764 1.3265,3.77141 16.63321,20.6127 -10.20881,5.55308 -1.54758,12.62771 -11.08014,7.98498 1.54758,4.87683 h 16.63321 l -2.88708,14.63045 -6.87957,2.00276 v 0 l -9.75364,-1.78167 -5.54008,16.41212 -23.49977,0.44217 -17.51754,8.42715 -8.42715,13.08289 z"
     class="land"
     title="Făleşti"
     id="MD-FA"
     inkscape:connector-curvature="0"
     style="fill:#cd80b6;fill-opacity:1;stroke:#ffffff;stroke-width:0.65024281;stroke-opacity:1" />
  <path
     d="m 415.10764,170.4168 25.86667,0.2861 16.20405,4.83781 14.4874,-7.67286 9.94872,4.53869 21.88717,1.14443 7.67286,-9.3895 16.20406,-11.08015 1.70364,-4.55169 -9.9097,-8.27109 v 0 l 4.36964,-15.4368 4.91583,-1.14443 6.64548,2.21084 3.77141,7.10068 12.64071,1.32649 3.10816,5.76115 -7.10065,4.65573 -4.65573,-3.09515 -1.3265,6.42439 -12.41963,10.19582 0.88432,2.88708 9.0904,5.76114 7.76389,-11.08013 6.64548,0.88433 7.10066,3.32925 12.64072,15.73587 v 0 l -3.77141,3.32924 -0.66325,7.30873 -8.42714,6.65849 v 10.1958 l -11.30122,3.55033 -1.56059,8.20606 -8.42714,0.22109 1.56059,-7.98497 -9.0904,-6.43742 -21.51004,9.54557 -2.88708,11.30121 -4.87681,2.88708 v 7.97199 l 9.53256,-1.76866 5.332,2.66598 7.5298,25.71061 v 0 l -3.10816,2.88708 v 0 l -6.20332,3.32925 -2.4319,6.64547 -11.31422,-3.9925 -6.06028,5.13692 v 0 l -2.24983,-2.24983 v 0 l -41.45948,-30.82151 -39.5998,-38.18226 v 0 -2.61398 0 l 5.12392,-13.35598 -5.83918,-15.50179 v 0 z"
     class="land"
     title="Floreşti"
     id="MD-FL"
     inkscape:connector-curvature="0"
     style="fill:#cd80b6;fill-opacity:1;stroke:#ffffff;stroke-width:0.65024281;stroke-opacity:1" />
  <path
     d="m 489.20931,915.51701 15.52781,3.55033 v 0 l 14.40938,-1.54758 v 0 l 2.95211,0.13005 -4.4997,17.84266 v 0 l -11.5353,4.87682 2.44492,22.83654 20.44364,-5.29299 v 0 l -8.70026,6.09927 4.10953,14.60447 -11.97747,5.76114 -39.57378,-6.61947 v -2.57496 0 l 2.666,-1.98974 v 0 l 2.88707,-4.43465 v 0 l -1.98973,-2.88709 v 0 l -3.32925,-8.64823 5.98224,-7.08764 v 0 -12.64072 0 l -3.10816,-6.64548 -0.22108,-19.94945 4.87682,-1.98974 z m 85.32488,-50.21174 2.36687,10.75501 -17.6866,10.55995 v 0 l -2.60097,-1.80768 -14.40938,6.20331 v 0 l -5.09791,0.88433 -12.19855,-12.41963 v 0 l 0.66326,-5.09791 v 0 l 29.93717,-6.86656 v 0 z m -57.15636,0 -1.32649,5.31898 v 0 l -2.88707,2.22384 v 0 l -6.4244,1.1054 -2.66601,-5.98223 2.22384,-2.21083 v 0 l 1.54757,-1.32649 v 0 l 4.43466,-2.43191 z m 4.86383,-194.55266 9.44152,5.09791 7.7639,-3.32924 8.20606,6.20332 28.3766,9.97471 h 9.75364 v 0 l 0.039,-0.41614 v 0 l 5.29297,7.95897 10.41689,6.87956 1.3265,4.65573 -5.31899,8.86932 -21.06786,5.76116 h -11.97747 l 3.99249,14.18828 23.0576,-0.88432 1.76866,-4.21358 6.87958,-2.66599 7.98497,6.87957 14.46141,3.66737 v 0 l 0.72826,4.00549 8.98636,6.12529 v 0 l -15.86593,15.57982 v 0 l -5.0979,8.64824 0.44217,6.42439 v 0 l 3.10815,13.74613 -5.54005,1.98975 v 0 l -10.85907,7.98497 -1.32648,9.75365 v 0 l 6.20331,0.88433 1.54758,7.98498 v 0 l 1.0924,8.07601 -20.83378,4.47368 -9.29847,-17.19242 v 0 l -2.666,-3.55032 v 0 l -5.76115,-2.43191 -6.4244,2.66599 v 0 l -1.32649,4.43465 v 0 l 5.98224,17.51755 -1.98975,3.55033 -13.52505,0.66324 -13.74614,9.75365 -4.87682,0.22108 -12.19855,-7.7639 -0.88432,-6.4244 3.32924,-1.10541 v 0 l 7.98498,0.22107 1.32648,-3.10816 v 0 l -2.43189,-5.31898 v 0 l -11.5223,-3.55033 5.76114,-5.31898 3.10815,-9.31148 -2.66599,-6.86657 -5.09789,1.98975 v 0 h -1.76867 v 0 l 0.44217,-4.87681 v 0 0 0 l -0.22104,-11.30124 v 0 l -3.32924,-1.76866 v 0 l -4.65575,-19.50727 5.76116,-5.31899 10.1958,1.98975 3.55033,-15.51479 V 734.7495 l -13.74613,-8.20605 4.07052,-14.08427 v 0 h 3.13416 v 0 l 10.63798,-3.7714 1.32649,-4.65574 -1.98974,-9.0904 -11.30121,-13.08288 0.88431,-10.41689 v 0 z"
     class="land"
     title="Unitatea Teritorială Autonomă Găgăuzia (UTAG)"
     id="MD-GA"
     inkscape:connector-curvature="0"
     style="fill:#cd80b6;fill-opacity:1;stroke:#ffffff;stroke-width:0.65024281;stroke-opacity:1" />
  <path
     d="m 279.76612,311.61051 -7.36076,-3.52432 -5.77415,-12.18555 -14.76052,-13.04387 0.20808,-4.70776 -8.76527,-11.13216 7.69887,-5.77414 -0.0521,-11.4833 v 0 l 11.34024,-15.8399 2.1198,-8.60923 11.22318,2.62698 16.10002,-11.35324 32.79825,10.48192 22.69346,-7.60784 13.09589,17.45251 v 0 l 0.2471,2.1198 v 0 l -1.62561,1.8727 v 0 l -1.6126,2.24983 v 0 l -1.8727,14.21431 -5.86519,10.10478 -5.24095,2.48393 -9.10341,-5.48806 -16.45114,31.43274 -15.09863,-2.86107 z"
     class="land"
     title="Glodeni"
     id="MD-GL"
     inkscape:connector-curvature="0"
     style="fill:#cd80b6;fill-opacity:1;stroke:#ffffff;stroke-width:0.65024281;stroke-opacity:1" />
  <path
     d="m 475.46318,477.40942 5.77417,0.23409 9.53255,7.08764 6.64549,-3.99249 5.31898,2.44492 6.65849,-4.21358 3.32924,2.43191 v 0 l 5.27997,1.10541 v 0 l 14.11027,38.58541 4.43465,0.44216 14.86455,17.95971 9.75366,-1.98974 8.64822,14.40937 0.88432,5.76117 -5.77415,7.10065 3.32925,11.3012 -5.54007,5.54008 v 0 l -3.32925,2.66601 v 0 l -4.65572,5.31897 -3.09517,0.22108 -1.78167,-4.43465 -4.43466,0.44217 -3.77141,9.31147 0.66326,9.97472 -3.7584,4.87682 h -3.77141 v 0 h -8.42715 v 0 l -13.30397,0.89734 -13.52504,-11.75639 -13.08289,6.87957 3.55032,7.97198 -3.10817,16.6332 -9.97471,0.22108 -9.0904,-11.3012 -9.9097,2.66598 v 0 l -12.62771,-32.4081 -2.1328,-16.25606 -11.13217,-16.89332 -4.27859,-23.74686 v 0 l 4.07053,-3.21221 v 0 l 1.53457,-4.72075 v 0 l 9.31148,6.4374 3.32924,-3.10816 14.63046,0.88433 -1.3265,-24.82627 15.29372,-5.54006 0.66324,-21.06787 v 0 z"
     class="land"
     title="Hînceşti"
     id="MD-HI"
     inkscape:connector-curvature="0"
     style="fill:#cd80b6;fill-opacity:1;stroke:#ffffff;stroke-width:0.65024281;stroke-opacity:1" />
  <path
     d="m 638.8692,548.70204 9.20744,-4.33061 4.65574,6.65848 0.66325,28.59767 v 0 l -1.10542,3.55032 v 0 l -6.21631,7.52983 -15.07264,9.31146 v 0 l -3.77141,3.77141 -13.30396,-0.88432 v 0 l 1.78167,-8.86931 -2.66601,-6.87957 -10.85904,-7.08765 -6.43741,4.43466 -4.65574,13.74613 -5.31898,0.22108 -9.31149,-13.30396 -14.7475,-2.74403 v 0 l 1.00138,-0.8063 v 0 l 5.54007,-5.54008 -3.32925,-11.3012 5.77415,-7.10065 -0.88432,-5.76117 -8.64822,-14.40937 -9.75366,1.98974 -14.86455,-17.95971 -4.43465,-0.44216 -14.11027,-38.58541 v 0 l 0.039,0.013 v 0 l 4.43466,-2.66599 2.21083,6.87957 16.19104,15.2937 4.65574,-1.3265 v -9.54555 l 6.64549,-0.66327 v 0 l 1.18344,-1.96371 v 0 l 19.44225,16.49015 1.32649,6.64547 20.39162,9.09041 2.44492,15.5278 5.54008,7.54281 10.87204,0.66325 19.2862,10.1958 5.319,-1.32649 z"
     class="land"
     title="Ialoveni"
     id="MD-IA"
     inkscape:connector-curvature="0"
     style="fill:#cd80b6;fill-opacity:1;stroke:#ffffff;stroke-width:0.65024281;stroke-opacity:1" />
  <path
     d="m 455.1236,696.85336 4.91583,-9.83167 -1.28748,-12.83579 -8.55719,-14.55245 4.70775,-9.4025 3.00412,-28.02547 v 0 l 9.9097,-2.66598 9.0904,11.3012 9.97471,-0.22108 3.10817,-16.6332 -3.55032,-7.97198 13.08289,-6.87957 13.52504,11.75639 13.30397,-0.89734 v 0 h 7.08765 v 0 l 2.88707,29.93718 -5.31898,10.19581 0.66324,9.75364 -7.76388,9.76666 v 0 l -2.65301,1.76866 v 0 l -0.88432,10.41687 11.30121,13.0829 2.00276,9.09039 -1.33951,4.65574 -10.63798,3.77141 v 0 h -3.77141 v 0 l -11.96446,-8.86931 3.53732,-7.32173 -2.4319,-5.98224 -9.97473,3.99249 1.32649,6.42439 -4.43465,4.65575 -11.08013,-2.43191 -6.87957,-6.65848 z"
     class="land"
     title="Leova"
     id="MD-LE"
     inkscape:connector-curvature="0"
     style="fill:#cd80b6;fill-opacity:1;stroke:#ffffff;stroke-width:0.65024281;stroke-opacity:1" />
  <path
     d="m 416.49916,419.06963 8.19307,5.24096 2.44491,7.10065 12.19855,3.32925 5.98224,6.64547 7.75089,0.22108 14.64348,6.65849 v 0 l -1.33951,1.76867 v 0 l -1.76866,7.54282 -5.54007,-0.22108 0.44216,3.09515 14.63048,9.31148 2.88707,5.31897 v 0 l -1.78167,2.66601 v 0 l -0.66324,21.06787 -15.29372,5.54006 1.3265,24.82627 -14.63046,-0.88433 -3.32924,3.10816 -9.31148,-6.4374 v 0 l -1.53457,4.72075 v 0 l -4.07053,3.21221 v 0 l -3.42028,-26.73798 -6.4634,-6.76253 0.41614,-10.57296 -4.87682,-8.19305 -15.96996,-12.19856 -2.4319,-7.32173 -0.88433,-9.53256 7.5298,-10.85905 -1.76865,-13.30397 z"
     class="land"
     title="Nisporeni"
     id="MD-NI"
     inkscape:connector-curvature="0"
     style="fill:#cd80b6;fill-opacity:1;stroke:#ffffff;stroke-width:0.65024281;stroke-opacity:1" />
  <path
     d="m 311.10781,11.029264 0.58523,2.809049 20.69073,8.128035 11.31421,-7.399762 15.64485,1.937723 18.68798,13.395002 5.65711,9.220443 v 0 l -16.19105,1.118417 -11.93846,14.201303 -19.05211,-8.518181 -13.92821,8.804288 -23.5908,1.430534 0.2861,9.376501 -8.81729,11.080137 1.43054,11.665357 -4.33062,12.28958 v 0 l -0.22109,-1.495551 v 0 l -8.53118,-3.979484 -13.9282,-15.059624 -3.12116,-12.224564 2.26284,-20.755752 -17.33547,6.255337 -4.94185,11.613336 v 0 l -0.16906,-0.533199 v 0 l -13.08288,-9.090394 4.09652,-11.210186 v 0 l 7.56883,-2.600972 7.82892,-17.738623 10.19581,-9.311477 11.97747,1.625607 5.6181,6.80154 13.60308,-11.236197 11.08013,-2.5229412 4.73378,-8.57020043 3.10816,-0.44216514 5.9042,4.13554427 z"
     class="land"
     title="Ocniţa"
     id="MD-OC"
     inkscape:connector-curvature="0"
     style="fill:#cd80b6;fill-opacity:1;stroke:#ffffff;stroke-width:0.65024281;stroke-opacity:1" />
  <path
     d="m 654.09789,365.22952 -4.13554,1.32651 v 0 l -6.65849,5.0979 v 0 l -0.22108,4.65573 -9.75365,2.22384 7.08765,13.74613 -1.3265,5.09791 -17.29646,6.20331 v 0 l -5.98222,2.66599 v 0 l -12.41964,6.4244 v 0 l -18.40187,2.22384 v 0 l -3.53732,25.26843 v 0 l -11.97748,-3.7584 -3.77141,-11.97747 h -3.99249 l -7.52981,-13.08289 -6.43741,-4.87682 -2.4319,-12.19855 -9.98773,0.66323 -5.0979,-4.22656 v 0 l 2.66599,-1.41754 v 0 l 1.76866,-2.00274 -2.4319,-2.653 -11.09315,-3.99249 -0.5462,-20.20954 v 0 l 1.98974,-0.63725 v 0 l 7.54282,-5.09789 -1.78167,-9.75364 5.11091,-7.54282 17.06238,-11.5223 14.40937,-4.21358 -2.87407,-13.52505 4.21357,-8.64823 v 0 l 0.76728,-0.66324 v 0 l 13.96722,15.95695 7.32174,3.99249 10.1958,-1.32649 13.96722,-10.63798 13.96723,11.30123 -0.66327,9.09039 10.20881,1.32649 v 0 l 7.52983,8.86932 7.98498,-1.10541 9.97473,11.30121 -8.20608,13.98022 z"
     class="land"
     title="Orhei"
     id="MD-OR"
     inkscape:connector-curvature="0"
     style="fill:#cd80b6;fill-opacity:1;stroke:#ffffff;stroke-width:0.65024281;stroke-opacity:1" />
  <path
     d="m 547.0289,269.85192 2.05478,-1.8467 v 0 l 9.07739,-11.30122 23.05761,2.43192 -2.43191,-13.96723 2.21082,-3.55032 15.5278,-1.54757 13.52506,-12.64073 8.64822,-17.06237 v 0 l 7.98498,-1.11841 6.64548,8.42714 -3.32924,26.60795 0.88434,59.41917 7.98497,7.10066 v 17.94669 l -2.87408,-0.22108 v 0 l -10.20881,-1.32649 0.66327,-9.09039 -13.96723,-11.30123 -13.96722,10.63798 -10.1958,1.32649 -7.32174,-3.99249 -13.96722,-15.95695 v 0 l -1.1054,-2.44492 v 0 l -23.72086,-18.18078 z"
     class="land"
     title="Rezina"
     id="MD-RE"
     inkscape:connector-curvature="0"
     style="fill:#cd80b6;fill-opacity:1;stroke:#ffffff;stroke-width:0.65024281;stroke-opacity:1" />
  <path
     d="m 249.51682,252.71151 -10.91108,-11.67836 -4.48668,-9.84468 5.345,-1.92472 -1.28748,-5.1239 -6.63247,-2.35388 2.35387,-3.84944 -3.1992,-6.20331 1.70364,-8.12805 -14.33135,-5.99523 6.15131,-8.14103 v 0 l 7.39975,-1.98976 4.5387,-5.41002 3.97949,-15.34572 5.96922,-3.97949 7.11365,-0.28611 7.67288,5.96924 3.97948,-1.13143 3.12116,-6.82755 12.51067,1.98974 19.32523,-16.47715 v 0 l 0.26009,-4.26559 v 0 l 15.5278,8.51819 9.66261,-1.13144 2.27586,4.55171 v 0 h 1.41752 v 0 l -1.70363,9.51955 -8.24509,5.68313 3.97949,19.89742 5.1109,4.55169 15.07263,3.40728 21.31496,25.02135 17.33549,-0.85833 3.42027,4.2656 v 0 l 0.23409,-0.2601 v 0 l 2.14579,2.79604 v 0 l -1.00137,1.62561 v 0 l -7.47779,0.37714 -4.61673,5.24095 2.74402,7.36076 -16.78926,-3.91446 v 0 l -0.16907,-1.45655 v 0 l -13.09589,-17.45251 -22.69346,7.60784 -32.79825,-10.48192 -16.10001,11.35324 -11.22319,-2.62698 -2.1198,8.60923 -11.34024,15.8399 v 0 z"
     class="land"
     title="Rîşcani"
     id="MD-RI"
     inkscape:connector-curvature="0"
     style="fill:#cd80b6;fill-opacity:1;stroke:#ffffff;stroke-width:0.65024281;stroke-opacity:1" />
  <path
     d="m 523.99731,259.77316 0.68926,-0.63724 v 0 l -7.5298,-25.71061 -5.332,-2.66598 -9.53256,1.76865 V 224.556 l 4.87681,-2.88708 2.88708,-11.30122 21.51004,-9.54556 9.0904,6.43741 -1.56059,7.98498 8.42714,-0.22109 1.56059,-8.20606 11.30122,-3.55033 v -10.1958 l 8.42714,-6.6585 0.66325,-7.30872 3.77141,-3.32924 v 0 l 12.86179,0.44217 9.31149,15.74887 -0.66324,9.0904 16.62019,2.87407 7.32174,6.4374 v 0 l -8.64822,17.06237 -13.52506,12.64073 -15.5278,1.54757 -2.21082,3.55032 2.43191,13.96723 -23.05761,-2.43192 -9.07739,11.30122 v 0 l -2.22384,2.00276 v 0 l -10.41688,-9.0904 z"
     class="land"
     title="Şoldăneşti"
     id="MD-SD"
     inkscape:connector-curvature="0"
     style="fill:#cd80b6;fill-opacity:1;stroke:#ffffff;stroke-width:0.65024281;stroke-opacity:1" />
  <path
     d="m 390.15133,343.95358 0.72827,0.32513 v 0 l 6.87957,-2.00276 2.88708,-14.63045 h -16.63321 l -1.54758,-4.87683 11.08014,-7.98498 1.54758,-12.62771 10.20881,-5.55308 -16.63321,-20.6127 -1.3265,-3.77141 5.54006,-7.08764 -3.94045,-6.04725 v 0 l 1.06639,-0.46818 v 0 l 15.09863,-3.99249 9.72763,3.12117 0.98838,-4.99387 -4.73377,-4.23959 4.99387,-4.61672 -0.2601,-5.98223 -6.11229,-8.10203 -9.97472,9.1034 -10.09177,-5.74814 -2.30186,-4.98086 v 0 l 0.29911,-0.5072 v 0 l -2.14579,-2.79604 v 0 l 2.88707,-3.14717 v 0 l 9.09039,-7.95898 5.41003,5.96924 9.37649,-17.63459 v 0 -0.22109 0 l 39.5998,38.18227 41.45948,30.82151 v 0 l 3.32924,3.32924 v 0 l 1.54757,22.38135 -6.65847,5.99524 2.22382,15.5148 -5.98223,2.44491 -10.65098,-4.87682 -20.61269,0.22108 -5.31901,-4.21358 -6.43738,3.09516 -4.87684,7.32174 5.09792,24.3841 -2.39291,6.86657 v 0 l -18.66197,-3.31624 -5.55306,5.31899 -12.18554,-8.42716 -13.74614,3.10817 z"
     class="land"
     title="Sîngerei"
     id="MD-SI"
     inkscape:connector-curvature="0"
     style="fill:#cd80b6;fill-opacity:1;stroke:#ffffff;stroke-width:0.65024281;stroke-opacity:1" />
  <path
     d="m 719.53833,372.90241 3.10815,8.11504 -3.10815,3.42027 2.9651,13.408 8.71326,2.4059 11.22319,-2.24984 -0.2731,-17.99873 14.1883,-4.29159 3.25122,0.59822 2.36687,5.76115 3.9925,29.7161 -9.31149,4.57771 5.0589,37.11585 -17.51754,1.32651 11.56132,18.32383 4.73376,-6.50242 11.01511,1.04039 2.50993,13.51204 -5.83917,5.31898 0.15606,21.54905 -8.62222,2.84807 1.06639,2.49693 2.66599,3.26421 12.41965,-3.55031 3.42027,11.14515 13.43402,-3.16018 5.17594,5.50106 4.29161,14.60445 5.31898,2.50994 15.8139,-2.9521 1.62561,-4.57772 6.1643,1.44355 2.84806,8.58319 -2.65298,2.82205 5.61808,9.35051 7.98499,-6.98361 6.80154,4.34363 0.8193,2.37987 -4.12253,0.22109 -4.17456,5.6051 8.49216,17.54354 -0.76727,30.49639 -5.00688,4.55171 8.3101,23.39572 -2.66599,3.77141 -16.85429,2.49695 v 0 l -14.76051,-11.88644 -19.8064,-2.00276 -2.00275,-5.78716 7.34774,-6.45041 0.44218,-10.68999 -10.69,1.11841 -10.23483,-5.12391 v 0 l -1.71663,0.31213 v 0 l 8.83029,-17.01036 -7.56883,-16.46414 -0.66323,-10.91109 -9.57159,0.44218 -0.44216,-4.22658 -5.56608,-2.44492 -3.34225,13.79816 -2.90008,0.89733 -9.79265,-0.88434 -7.56883,-7.56882 v 0 l -1.78167,-0.44215 v 0 l -2.45792,-16.26908 v 0 l 2.22383,-4.43467 v 0 l -3.10816,-7.32173 v 0 l -1.32648,-4.87681 2.88707,-4.43467 v 0 l 0.66324,-4.65574 v 0 l -10.63797,-6.4244 v 0 l -14.1883,7.7639 -8.64823,-3.55033 -7.54282,-8.42714 v 0 l 0.88434,-7.98498 13.30397,2.66599 v 0 l 1.54757,-2.66599 v 0 l -2.66599,-5.0979 4.43465,-14.40939 -3.10815,-7.98497 -14.63047,-16.074 v 0 l -6.86656,-9.53257 -6.64549,-1.76865 v 0 l -0.22107,-4.87682 10.63797,-7.32174 4.43465,-9.75364 6.87958,-2.88708 3.99247,-7.7639 -4.21355,-0.66325 -15.07264,11.30123 -9.31148,1.1054 v 0 l -12.19856,-7.54281 v 0 l 0.22108,-5.0979 v 0 l -0.22108,-8.64824 4.87682,-7.98497 32.53815,-17.90769 v 0 l -0.48116,-2.4059 z m -181.67785,-265.27308 25.86666,9.75365 1.18345,5.76114 15.72287,-1.92473 4.86383,3.95349 6.32035,-3.2122 7.54281,3.55032 3.69338,6.06029 -3.39427,22.91456 17.1534,23.94194 10.63797,-4.43465 12.27659,11.97747 10.677,-0.31212 2.26284,-0.97536 -1.5996,-7.2177 4.48668,3.12116 -1.39152,-7.21769 8.70024,-0.10404 -0.88432,-3.86244 8.50517,1.70364 7.59483,35.24316 3.35526,-2.57496 11.82141,2.36687 -14.66947,20.80778 4.5777,8.42715 4.2526,-2.77003 4.94184,2.22382 -3.05614,15.09864 -7.50381,4.68176 -2.15881,6.94459 5.63111,11.41825 -5.44903,14.27934 5.86519,-0.2601 -5.01987,4.66875 1.50856,5.22794 -5.91721,12.97884 -15.17668,5.00688 7.84193,15.90494 7.03564,-1.26148 -0.28612,12.79679 -5.17592,5.54006 6.22932,-2.78303 -1.91171,11.09314 3.62835,0.83232 9.44154,-9.63661 1.32648,14.94259 5.54007,-6.30737 10.11778,-4.44766 3.73238,21.58806 -4.43464,5.07188 -31.0426,7.985 -8.42714,-12.64072 -10.71602,-8.3101 -0.80628,-3.65437 8.20605,-13.96721 -9.97471,-11.30123 -7.98498,1.10541 -3.32924,-4.65573 -1.32651,-21.9522 -7.98498,-7.10064 -0.88432,-59.4192 3.32924,-26.60794 -6.64549,-8.42715 -31.92693,-8.20605 0.66326,-9.09039 -9.31148,-15.73588 -12.86179,-0.44217 -14.40939,-17.07538 -11.97748,-2.88707 -7.76389,11.08013 -7.7639,-3.32924 -2.21083,-5.31898 12.41964,-10.19582 1.3265,-6.42439 4.65574,3.10816 7.10065,-4.65573 -3.10817,-5.76116 -12.64071,-1.32649 -5.98225,-8.42717 -9.19441,0.26009 2.34086,-4.17456 -1.76866,-5.76115 10.1958,-7.82892 z"
     class="land"
     title="Unitatea Teritorială din Stînga Nistrului"
     id="MD-SN"
     inkscape:connector-curvature="0"
     style="fill:#cd80b6;fill-opacity:1;stroke:#ffffff;stroke-width:0.65024281;stroke-opacity:1" />
  <path
     d="m 390.47646,55.531882 28.22053,2.548951 7.02262,3.199196 3.43328,7.841927 -1.32649,7.490797 -6.45041,8.180055 3.25121,6.060263 8.15404,-1.586592 10.62499,-11.418264 6.64546,2.366884 2.22384,11.522303 5.76114,3.849436 5.65713,-0.88433 13.92819,-11.457277 5.81318,2.887078 6.16429,-2.444914 3.55033,5.019875 v 13.16091 l -3.84943,7.54281 -7.82894,3.39426 1.32651,8.42715 10.05276,-1.18344 4.29159,-7.98498 9.89669,-1.76866 -0.19506,24.57921 7.73788,5.72213 4.59072,-0.33812 v 0 l 9.9097,8.27109 -1.70364,4.55169 -16.20406,11.08015 -7.67286,9.3895 -21.88717,-1.14443 -9.94872,-4.53869 -14.4874,7.67286 -16.20405,-4.83781 -25.86667,-0.2861 v 0 h -4.55168 v 0 l -4.26561,-9.66261 7.38676,-9.09039 h 6.54144 l 5.39703,-16.49016 -8.8043,-13.92823 -19.33822,-19.0391 -15.63182,-1.43053 -8.2841,-13.577075 v 0 l 2.02874,-0.923343 v 0 l 8.53119,-2.262845 7.39976,-8.245079 -17.06236,-10.807035 1.41752,-5.110908 11.28823,-8.908327 v 0 z"
     class="land"
     title="Soroca"
     id="MD-SO"
     inkscape:connector-curvature="0"
     style="fill:#cd80b6;fill-opacity:1;stroke:#ffffff;stroke-width:0.65024281;stroke-opacity:1" />
  <path
     d="m 581.5308,440.11149 2.57495,4.92885 v 0 l -0.88432,5.55306 -6.87957,4.65575 -0.88433,6.42439 v 0 l -2.653,5.54006 -12.41963,2.22384 -7.10066,4.65573 -2.65299,7.75091 2.87407,6.4374 v 0 l -1.32648,2.21081 v 0 l -6.64549,0.66327 v 9.54555 l -4.65574,1.32651 -16.19104,-15.29371 -2.21083,-6.87957 -4.43466,2.66599 v 0 l -5.31898,-1.11842 v 0 l -3.32924,-2.43191 -6.65849,4.21358 -5.31898,-2.44492 -6.64549,3.99249 -9.53255,-7.08764 -5.77417,-0.23409 v 0 l 1.56059,-2.32788 v 0 l -2.88707,-5.31897 -14.63048,-9.31148 -0.44216,-3.09515 5.54007,0.22108 1.76866,-7.54282 v 0 l 0.66326,-0.87132 v 0 l 15.52779,0.65024 15.73588,-7.54282 4.21356,-6.20332 6.87958,-0.66325 2.21082,-8.8693 -2.87407,-9.75365 -7.32173,-2.44492 0.88433,-2.43191 11.09315,-4.65573 5.09789,-7.10065 8.64822,-1.76866 2.43191,-7.32173 v 0 l 0.66326,-0.35113 v 0 l 5.0979,4.22656 9.98773,-0.66323 2.4319,12.19855 6.43741,4.87682 7.52981,13.08289 h 3.99249 l 3.77141,11.97747 11.97748,3.7584 v 0 z"
     class="land"
     title=" Străşeni"
     id="MD-ST"
     inkscape:connector-curvature="0"
     style="fill:#cd80b6;fill-opacity:1;stroke:#ffffff;stroke-width:0.65024281;stroke-opacity:1" />
  <path
     d="m 835.74972,646.19945 12.64073,11.24919 10.85904,0.88433 3.10816,10.63798 11.97747,15.52779 3.19921,0.55922 3.44629,-4.33063 9.53255,6.64549 7.32173,-1.32649 -0.66325,6.4244 -19.96244,12.19854 -23.2787,-1.1054 -7.54281,-3.32924 -7.30874,4.87681 -2.88708,8.42716 -4.43466,1.32649 -7.75089,-5.54008 -7.86793,-13.59007 -4.10954,-16.11301 -9.75364,-7.54282 1.54759,7.54282 -2.43191,5.98222 -15.65786,-1.85969 1.91172,18.93507 -7.32174,5.31899 h -9.53256 l -8.44015,-5.30598 -2.19782,-13.75914 -13.21293,-3.01711 -4.96786,-15.16368 -7.54282,-3.55032 v 0 l -10.48191,-11.96447 -0.66325,-6.00824 11.13216,-6.6845 -6.24233,-6.67149 12.47166,-9.79266 7.56883,2.88708 10.45589,-9.1164 11.57432,-0.22108 4.23959,-5.345 6.89258,-1.56059 2.22384,-6.90557 v 0 l 2.45791,-0.44217 v 0 l 10.23481,5.12391 10.67699,-1.11841 -0.44216,10.68999 -7.34775,6.45041 2.00275,5.78715 19.81941,2.00276 z"
     class="land"
     title="Ştefan Vodă"
     id="MD-SV"
     inkscape:connector-curvature="0"
     style="fill:#cd80b6;fill-opacity:1;stroke:#ffffff;stroke-width:0.65024281;stroke-opacity:1" />
  <path
     d="m 531.12396,832.49401 -1.32649,3.10817 -7.98498,-0.22108 v 0 l -3.32924,1.1054 0.88433,6.4244 12.19856,7.7639 4.87682,-0.22108 13.74613,-9.75365 13.52505,-0.66324 1.98974,-3.55033 -5.98222,-17.51755 v 0 l 1.32648,-4.43464 v 0 l 6.4244,-2.66601 5.76116,2.44493 v 0 l 2.66599,3.55032 v 0 l 9.29847,17.19242 -12.96584,6.74952 2.28885,23.49978 v 0 l -19.02611,2.21082 v 0 l -29.93717,6.87957 v 0 l -0.66325,5.0979 v 0 l 12.19857,12.41964 5.09789,-0.88433 v 0 l 14.40937,-6.20332 2.60099,1.80768 v 0 l -1.82069,10.05276 -5.31898,3.32924 -15.5148,1.54758 -1.54757,15.07262 -10.9761,0.41616 v 0 l 3.7714,-8.50518 -6.42439,-7.54282 v -6.86656 l -3.55033,-2.66599 -3.55033,4.21357 -6.86657,-9.31147 -11.53529,-2.21084 -2.43191,-3.10816 -2.666,-14.1883 13.52505,-1.32649 v 0 l 2.44492,8.42716 6.4244,-1.10543 v 0 l 2.88707,-2.21082 v 0 l 1.32649,-5.31898 -6.86656,-4.43466 v 0 l -7.98498,-9.75365 -2.4319,-23.49977 3.7714,-18.40188 12.73176,-5.09789 v 0 h 1.67762 v 0 l 5.09791,-1.98974 2.66598,6.87957 -3.10815,9.31147 -5.76115,5.31897 11.53531,3.55034 v 0 z m 98.99297,-19.96246 -1.76866,7.64686 -6.86656,5.31898 -15.42376,5.0719 -1.0924,-8.07601 v 0 l -1.54758,-7.98498 -6.20331,-0.88434 v 0 l 1.32648,-9.75363 10.85907,-7.98498 v 0 l 5.54005,-1.98975 -3.10815,-13.74613 v 0 l -0.44217,-6.4244 5.0979,-8.64823 v 0 l 15.86593,-15.57981 v 0 l 10.40389,5.9302 2.99112,6.07326 -0.76729,5.46206 -9.0904,8.08902 -2.90008,7.65984 -10.85906,7.52983 -1.54758,5.21494 z"
     class="land"
     title="Taraclia"
     id="MD-TA"
     inkscape:connector-curvature="0"
     style="fill:#cd80b6;fill-opacity:1;stroke:#ffffff;stroke-width:0.65024281;stroke-opacity:1" />
  <path
     d="m 566.95235,298.63167 -0.68926,0.85831 v 0 l -4.21357,8.64823 2.87407,13.52505 -14.40937,4.21358 -17.06238,11.5223 -5.11091,7.54282 1.78167,9.75364 -7.54282,5.09789 v 0 l -5.54006,1.78167 v 0 l -27.27119,6.20332 -32.14801,-7.10065 v 0 L 442.5869,353.3561 v 0 l 2.39291,-6.86657 -5.09792,-24.3841 4.87684,-7.32174 6.43738,-3.09516 5.31901,4.21358 20.61269,-0.22108 10.65098,4.87682 5.98223,-2.44491 -2.22382,-15.5148 6.65847,-5.99524 -1.54757,-22.38135 v 0 l -1.07941,-1.0794 v 0 l 6.06028,-5.13693 11.31422,3.99249 2.4319,-6.64547 6.20332,-3.32925 v 0 l 2.4189,-2.24983 v 0 l 12.44565,1.14442 10.41688,9.0904 v 0 l 0.16906,-0.15606 v 0 l -4.82479,8.34912 23.72086,18.18078 v 0 z"
     class="land"
     title="Teleneşti"
     id="MD-TE"
     inkscape:connector-curvature="0"
     style="fill:#cd80b6;fill-opacity:1;stroke:#ffffff;stroke-width:0.65024281;stroke-opacity:1" />
  <path
     d="m 417.73463,500.45403 -5.00687,-6.26835 -19.46827,-7.06163 -1.71664,-6.20332 -20.31358,-16.25607 0.20807,-5.77415 -8.76528,-3.62836 -1.28747,-12.83579 -17.11438,-37.21991 -6.61948,2.1328 -10.27384,-6.41139 -9.41552,-12.62772 -0.45517,-5.96921 8.63522,-1.40454 8.42715,-13.08289 17.51754,-8.42714 25.50253,-1.76866 3.53732,-15.08564 9.02537,1.45655 2.28886,6.08628 13.74614,-3.10817 12.18554,8.42715 9.54557,-5.31898 14.66946,3.31624 10.677,6.41138 -2.4059,19.97546 -16.63321,13.74613 -14.85154,23.51278 -21.05487,13.52505 3.31623,10.19582 -7.5298,10.85904 0.88433,9.53257 2.4319,7.32173 19.06512,17.29645 z"
     class="land"
     title="Ungheni"
     id="MD-UN"
     inkscape:connector-curvature="0"
     style="fill:#cd80b6;fill-opacity:1;stroke:#ffffff;stroke-width:0.65024281;stroke-opacity:1" />
  <g
     id="stadiums"
     data-country="moldova"
     data-circle-radius="6"
     data-circle-colors="#a149be,#bea149"
     transform="translate(0,231.12537)" />
</svg>
