<?xml version="1.0" encoding="UTF-8" standalone="no"?>
<?xml-stylesheet type="text/css" href="/styles/home.css"?><!-- https://www.amcharts.com/svg-maps -->

<svg
   version="1.1"
   id="map-monaco"
   viewBox="0 0 1000 1000"
   width="1000"
   height="1000"
   sodipodi:docname="monaco.svg"
   inkscape:version="1.3.1 (91b66b0783, 2023-11-16)"
   xmlns:inkscape="http://www.inkscape.org/namespaces/inkscape"
   xmlns:sodipodi="http://sodipodi.sourceforge.net/DTD/sodipodi-0.dtd"
   xmlns="http://www.w3.org/2000/svg"
   xmlns:svg="http://www.w3.org/2000/svg"
   xmlns:rdf="http://www.w3.org/1999/02/22-rdf-syntax-ns#"
   xmlns:cc="http://creativecommons.org/ns#"
   xmlns:dc="http://purl.org/dc/elements/1.1/">
  <metadata
     id="metadata8">
    <rdf:RDF>
      <cc:Work
         rdf:about="">
        <dc:format>image/svg+xml</dc:format>
        <dc:type
           rdf:resource="http://purl.org/dc/dcmitype/StillImage" />
      </cc:Work>
    </rdf:RDF>
  </metadata>
  <sodipodi:namedview
     pagecolor="#ffffff"
     bordercolor="#666666"
     borderopacity="1"
     objecttolerance="10"
     gridtolerance="10"
     guidetolerance="10"
     inkscape:pageopacity="0"
     inkscape:pageshadow="2"
     inkscape:window-width="1920"
     inkscape:window-height="1106"
     id="namedview6"
     showgrid="false"
     showguides="true"
     inkscape:guide-bbox="true"
     inkscape:zoom="0.24151491"
     inkscape:cx="-250.50213"
     inkscape:cy="722.52268"
     inkscape:window-x="-11"
     inkscape:window-y="-11"
     inkscape:window-maximized="1"
     inkscape:current-layer="map-monaco"
     inkscape:showpageshadow="2"
     inkscape:pagecheckerboard="0"
     inkscape:deskcolor="#d1d1d1">
    <sodipodi:guide
       position="500,422.33417"
       orientation="-1,0"
       id="guide815"
       inkscape:locked="false"
       inkscape:label=""
       inkscape:color="rgb(0,0,255)" />
    <sodipodi:guide
       position="91.173448,185.24881"
       orientation="1,0"
       id="guide1"
       inkscape:locked="false" />
  </sodipodi:namedview>
  <defs
     id="defs4">
    <style
       type="text/css"
       id="style2">
			.land
			{
				fill: #CCCCCC;
				fill-opacity: 1;
				stroke:white;
				stroke-opacity: 1;
				stroke-width:0.5;
			}
		</style>
    <!-- <amcharts:ammap
       projection="mercator"
       leftLongitude="7.3991049"
       topLatitude="43.7519029"
       rightLongitude="7.4398113"
       bottomLatitude="43.7247427" /> -->
    <!-- All areas are listed in the line below. You can use this list in your script. -->
    <!--{id:"MC"}-->
  </defs>
  <path
     style="fill:#cccccc;fill-opacity:1;stroke:#ffffff;stroke-width:0.511684;stroke-opacity:1"
     d="m 831.74969,0.65712308 18.20573,26.65874292 -42.94054,44.639325 -108.10862,41.374789 -33.67904,-5.7718 -49.19332,90.23038 -19.40306,96.5241 -57.93288,76.09766 -36.54448,37.30177 -40.65841,-31.11039 -19.90452,10.77606 -42.23441,63.16229 -211.77584,184.70774 6.53933,109.61298 -62.71201,21.50097 -40.30024,56.16245 252.25005,177.15527 144.92941,-117.81014 -42.2037,15.60637 -22.59598,-48.07785 -59.21208,6.93843 -1.26898,-16.24085 -16.23063,0.94151 -2.43561,-34.46705 14.41926,-4.86099 -41.9274,-5.90484 30.78292,-23.47608 44.12764,38.92894 34.9685,-10.35649 30.99782,62.54826 -0.64473,-34.79452 38.07954,-0.307 91.07978,-66.87711 15.7701,-57.89196 101.6,-132.31128 -81.1224,84.48927 -46.0925,-31.24342 10.48952,49.27519 -82.14576,23.85472 -1.33039,-28.23473 -13.90757,2.40491 12.8842,26.47453 -20.03756,5.72063 -31.02851,-46.66559 -1.82161,-17.63264 10.19274,17.74521 9.12846,-21.42933 7.57292,19.57703 -9.20007,-48.12901 -0.44005,20.99952 -15.87244,-16.4967 -3.57156,20.33433 -10.53045,-60.13312 76.86518,-22.5141 18.71741,1.39177 4.34932,21.90009 -3.55109,-26.02426 28.37799,-3.74553 17.10049,51.48566 -7.16358,-49.51056 52.94908,-15.00257 25.7684,40.35141 -17.88847,-43.73876 30.67035,-66.32449 -1.14617,-56.29549 79.22916,-143.65021 -17.91917,1.33038 5.23964,-33.45392 24.64272,-12.20878 9.26147,11.78921 -9.12844,-14.19412 24.83715,-26.19822 22.63691,0.78798 -6.24256,16.76279 11.57431,-0.63451 16.27154,-46.69628 35.65416,49.93014 51.09677,-10.27462 -13.37542,-91.24352 -25.93214,-17.786144 6.1709,-66.130062 z"
     class="land"
     title="Monaco"
     id="MC"
     inkscape:connector-curvature="0" />
</svg>
