<?xml version="1.0" encoding="UTF-8" standalone="no"?>
<?xml-stylesheet type="text/css" href="/styles/home.css"?><!-- https://www.amcharts.com/svg-maps -->

<svg
   xmlns:dc="http://purl.org/dc/elements/1.1/"
   xmlns:cc="http://creativecommons.org/ns#"
   xmlns:rdf="http://www.w3.org/1999/02/22-rdf-syntax-ns#"
   xmlns:svg="http://www.w3.org/2000/svg"
   xmlns="http://www.w3.org/2000/svg"
   xmlns:sodipodi="http://sodipodi.sourceforge.net/DTD/sodipodi-0.dtd"
   xmlns:inkscape="http://www.inkscape.org/namespaces/inkscape"
   version="1.1"
   id="map-montenegro"
   viewBox="0 0 1000 1000"
   width="1000"
   height="1000"
   class=""
   sodipodi:docname="montenegro.svg"
   inkscape:version="0.92.4 (5da689c313, 2019-01-14)">
  <metadata
     id="metadata31">
    <rdf:RDF>
      <cc:Work
         rdf:about="">
        <dc:format>image/svg+xml</dc:format>
        <dc:type
           rdf:resource="http://purl.org/dc/dcmitype/StillImage" />
        <dc:title></dc:title>
      </cc:Work>
    </rdf:RDF>
  </metadata>
  <sodipodi:namedview
     pagecolor="#ffffff"
     bordercolor="#666666"
     borderopacity="1"
     objecttolerance="10"
     gridtolerance="10"
     guidetolerance="10"
     inkscape:pageopacity="0"
     inkscape:pageshadow="2"
     inkscape:window-width="1920"
     inkscape:window-height="1017"
     id="namedview29"
     showgrid="false"
     showguides="true"
     inkscape:guide-bbox="true"
     inkscape:zoom="0.4538998"
     inkscape:cx="473.78741"
     inkscape:cy="778.7549"
     inkscape:window-x="-8"
     inkscape:window-y="-8"
     inkscape:window-maximized="1"
     inkscape:current-layer="map-montenegro">
    <sodipodi:guide
       position="500,579.42304"
       orientation="1,0"
       id="guide838"
       inkscape:locked="false"
       inkscape:label=""
       inkscape:color="rgb(0,0,255)" />
  </sodipodi:namedview>
  <defs
     id="defs4">
    <style
       type="text/css"
       id="style2">
			.land
			{
				fill: #fcbdab;
				fill-opacity: 1;
				stroke:white;
				stroke-opacity: 1;
				stroke-width:0.5;
			}
         .rectangle:hover {
         fill: #bdbdbd;
         cursor: pointer;
         }
		</style>
    <amcharts:ammap
       projection="mercator"
       leftLongitude="18.438452"
       topLatitude="43.565072"
       rightLongitude="20.376768"
       bottomLatitude="41.849068" />
    <!-- All areas are listed in the line below. You can use this list in your script. -->
    <!--{id:"ME-01"},{id:"ME-02"},{id:"ME-03"},{id:"ME-04"},{id:"ME-05"},{id:"ME-06"},{id:"ME-07"},{id:"ME-08"},{id:"ME-09"},{id:"ME-10"},{id:"ME-11"},{id:"ME-12"},{id:"ME-13"},{id:"ME-14"},{id:"ME-15"},{id:"ME-16"},{id:"ME-17"},{id:"ME-18"},{id:"ME-19"},{id:"ME-20"},{id:"ME-21"},{id:"ME-SLK"}-->
  </defs>
  <path
     d="m 714.75883,513.72271 -0.63891,0.31265 v 0 l -15.32046,5.8998 -18.86848,20.03756 -3.53444,9.43425 -1.76721,11.20145 -13.55322,3.53445 -4.75792,3.27616 v 0 l -2.36536,-2.43333 -2.10706,-5.23369 -3.09944,-2.14786 -1.27784,-7.50389 2.90912,-3.71117 -0.16312,-2.21582 -6.26685,-2.50128 -4.07819,-8.83612 -2.10708,-1.74004 -9.70612,3.24897 -2.31099,2.90912 0.0816,3.31695 -7.4631,8.65938 -2.14786,0.63891 -4.93462,-1.27783 -3.52085,4.09179 v 0 l -5.27449,-9.10799 -5.89979,-17.10125 v 0 l -2.85473,-3.95585 v 0 l 6.98731,-2.88195 4.11898,-5.88619 v -8.84969 l 5.89982,-2.94991 1.7672,-9.42065 -4.71711,-3.53445 -1.18269,-12.96867 3.53446,-7.08247 0.59814,-7.0689 -8.84972,-6.48434 -6.48433,-7.66702 -1.76722,-8.83612 7.66702,-8.25155 v 0 l 8.95845,-2.63724 v 0 l 56.71419,32.39452 10.60334,3.54804 12.38413,1.16909 5.30168,-4.71713 5.88619,0.59814 -0.58454,8.25157 -3.53444,5.30165 -7.06889,5.89981 v 7.06887 l 5.30168,7.06889 4.11897,8.25157 z"
     class="land"
     title="Andrijevica"
     id="ME-01"
     inkscape:connector-curvature="0"
     style="fill:#cccccc;fill-opacity:1;stroke:#ffffff;stroke-width:0.67970037;stroke-opacity:1" />
  <path
     d="m 364.60438,735.16909 -0.25829,0.27188 v 0 l 10.01878,11.78601 1.76722,6.48434 0.58455,11.78599 2.36536,8.25157 4.11898,4.71712 15.91858,2.9499 h 8.83611 l 4.13259,1.76722 4.11899,9.43424 6.48433,22.98747 7.66701,5.8998 4.13259,8.83612 17.6722,5.89978 11.20148,14.73591 11.3374,8.26515 v 0 l -0.13594,-0.0135 v 0 l -4.71713,7.06888 -5.8862,4.13259 -9.43424,-1.76723 -4.13259,1.76723 h -5.88621 l -7.66701,-5.30167 -2.9499,-5.8998 -4.71712,-2.9499 -7.65344,5.89981 v 5.88619 l 7.65344,2.36537 1.18267,2.35176 -4.71712,10.61692 -0.58453,5.30166 3.53443,2.9499 2.35177,4.71711 4.13258,1.16909 2.35177,11.7996 -2.35177,5.30167 -5.8998,2.35176 -6.48434,-1.16909 -19.45303,-10.01879 -13.43088,0.76128 v 0 l 0.12235,-1.97114 -3.26256,-1.78081 0.13594,-1.33221 1.88956,-0.57095 0.42142,-3.79272 -3.56164,-2.25662 1.07394,-1.44095 -0.51658,-5.4648 -21.96791,-16.53031 -2.40614,-2.25661 0.77486,-0.62531 -6.66106,-5.70951 -0.21751,-1.31861 2.40613,-0.17671 4.11898,1.67206 -0.6389,-2.31098 1.88957,0.6933 -0.85644,-2.41975 1.11471,0.40782 0.85643,-1.20987 0.12234,-2.31097 -2.78678,-6.97374 -7.29996,-6.10369 -2.82756,-0.63892 0.93798,-2.36536 -1.53612,-4.0918 -3.69756,-2.20223 -10.82084,0.87003 -2.01191,-2.7596 -4.25493,4.20055 -4.07821,-8.76815 0.85644,-4.83946 -2.43334,-3.42567 v 0 l 7.23202,-14.35528 5.30166,-5.30167 -3.53445,-9.43423 -5.30165,-7.06889 -15.33405,-13.55323 -2.94989,-11.20145 -5.88621,-14.15137 v 0 l 6.48434,-1.18269 v 0 l 14.73592,5.31526 3.53442,5.30167 11.20147,1.18267 7.65343,-3.54803 1.18267,-4.70352 -5.30166,-10.61692 2.35177,-4.71712 8.25157,-1.1827 7.08245,2.94992 z"
     class="land"
     title="Bar"
     id="ME-02"
     inkscape:connector-curvature="0"
     style="fill:#cccccc;fill-opacity:1;stroke:#ffffff;stroke-width:0.67970037;stroke-opacity:1" />
  <path
     d="m 714.75883,513.72271 -15.37482,-10.88881 -4.11897,-8.25157 -5.30168,-7.06889 v -7.06887 l 7.06889,-5.89981 3.53444,-5.30165 0.58454,-8.25157 -5.88619,-0.59814 -5.30168,4.71713 -12.38413,-1.16909 -10.60334,-3.54804 -56.71419,-32.39452 v 0 l 1.06033,-0.31266 v 0 l -5.30166,-17.10127 1.76722,-14.13776 v 0 l -1.22346,0.13594 v 0 l 11.82678,-11.3374 v 0 l 2.16145,-2.86834 v 0 l 10.45379,1.10112 11.79961,-3.54804 10.60331,-4.70353 12.38415,-13.56682 9.43425,-3.53443 5.30165,2.36535 3.53444,4.11899 6.48434,1.76723 8.83611,1.7672 10.01878,-1.7672 7.08248,-5.88622 27.70459,-9.43424 5.88621,-6.48434 5.89979,-2.36535 11.78602,-1.1691 8.25156,-4.13257 6.48433,-3.53444 6.74263,-9.27112 v 0 l 9.3255,4.41805 11.11988,11.81319 4.25494,2.92272 5.62792,-0.87002 6.1309,-4.10539 2.18862,-0.2311 v 0 l -1.18266,16.54391 -7.65343,11.20145 -2.36536,12.37055 -13.55324,12.96869 -1.18267,13.56682 -4.11898,13.55322 -10.61692,8.84972 -9.43425,11.78598 3.54805,18.8549 2.43332,4.60837 v 0 l -1.88957,3.35772 -1.15548,6.18527 -5.6687,8.79533 6.96012,18.86848 4.97541,2.20223 2.9499,3.37132 v 0 l -37.49228,5.36962 -28.88726,-1.18267 v 0 z"
     class="land"
     title="Berane"
     id="ME-03"
     inkscape:connector-curvature="0"
     style="fill:#cccccc;fill-opacity:1;stroke:#ffffff;stroke-width:0.67970037;stroke-opacity:1" />
  <path
     d="m 789.2404,324.09988 -6.74263,9.27112 -6.48433,3.53444 -8.25156,4.13257 -11.78602,1.1691 -5.89979,2.36535 -5.88621,6.48434 -27.70459,9.43424 -7.08248,5.88622 -10.01878,1.7672 -8.83611,-1.7672 -6.48434,-1.76723 -3.53444,-4.11899 -5.30165,-2.36535 -9.43425,3.53443 -12.38415,13.56682 -10.60331,4.70353 -11.79961,3.54804 -10.45379,-1.10112 v 0 l 1.3866,-1.84878 v 0 l -16.50313,-12.38415 -3.54805,-5.30165 6.48436,-12.37055 v -9.43425 l -7.06889,-9.43424 -10.01879,-6.48434 -24.17015,-2.35175 -10.01879,-2.9499 -18.27032,-11.79962 -12.38415,-1.16907 -10.60333,-4.71713 v 0 l -0.72048,0.21751 v 0 l 3.07224,-9.65174 -0.58454,-13.55324 4.70352,-7.08247 6.48435,-5.30166 h 10.03239 l 3.53443,-7.0689 0.58454,-8.84968 5.8998,-3.53444 3.53443,-4.11899 v -7.66702 l -3.53443,-5.89979 v -5.30168 l 7.06889,-4.11898 4.13257,-7.66703 5.30166,-2.94989 2.94989,-20.03758 -4.7171,-7.66701 1.12829,-5.6551 v 0 l 26.22285,15.91858 11.71803,22.59324 16.31281,10.6849 20.55413,5.62791 7.39516,4.63555 1.11469,-0.46219 1.67207,-8.98564 3.43929,-3.04506 2.65082,0.99236 4.73073,6.68825 0.4622,7.27281 5.15212,9.27111 2.58286,12.07147 14.80387,1.3458 5.49199,6.8514 5.32885,-4.21416 7.42232,5.39683 9.58378,1.3458 16.69344,-1.75362 7.16404,-7.91171 4.03743,-0.65253 8.19717,18.28395 3.48008,2.46052 3.69756,6.49794 17.60425,20.3774 9.99159,8.42831 z"
     class="land"
     title="Bijelo Polje"
     id="ME-04"
     inkscape:connector-curvature="0"
     style="fill:#cccccc;fill-opacity:1;stroke:#ffffff;stroke-width:0.67970037;stroke-opacity:1" />
  <path
     d="m 305.74233,743.42065 -1.52253,0.27188 v 0 l 5.88621,14.15137 2.94989,11.20145 15.33405,13.55323 5.30165,7.06889 3.53445,9.43423 -5.30166,5.30167 -7.23202,14.35528 v 0 l -2.62364,1.40018 -0.59813,-2.36536 -1.68566,0.46218 -0.24469,-1.95754 -7.21843,-4.62195 -0.73407,-2.18863 1.98472,-4.85307 -3.87427,-5.07056 -4.24133,-0.29907 -0.55737,-2.7052 -1.93035,0.0544 -2.58285,-3.05865 -5.83185,-0.51657 -0.87001,-3.30334 -2.09348,-0.2311 -5.19291,-4.0918 -1.25064,-6.75623 -4.03743,-4.15975 1.25065,-1.91678 -1.07392,-3.1674 0.6797,-2.0255 -2.0527,-3.52085 -0.51657,-6.36199 -2.32458,-3.64319 -2.18864,-0.28548 v -2.84114 l -5.83182,-0.16313 -2.18863,0.80204 -0.55737,1.74004 -3.65678,-5.08417 -2.90911,0.0544 -3.09943,1.72645 0.33983,2.66442 -4.02381,2.07988 -5.02978,-2.31098 -0.88361,-2.62365 v 0 -5.92698 l -1.76724,-1.76722 5.30168,-13.55323 -4.71713,-4.13257 -1.76721,-3.53444 -1.76722,-5.30168 2.35175,-4.13257 v 0 l 5.89981,-2.9499 v 0 l 5.30166,1.18267 5.30165,4.71713 22.98747,7.66702 12.38415,1.76722 z"
     class="land"
     title="Budva"
     id="ME-05"
     inkscape:connector-curvature="0"
     style="fill:#cccccc;fill-opacity:1;stroke:#ffffff;stroke-width:0.67970037;stroke-opacity:1" />
  <path
     d="m 393.81791,717.99985 v -1.42737 0 l -11.7996,-5.30166 -4.70353,2.9499 -7.08248,-2.35176 -4.71712,-4.71714 h -4.71712 l -2.9363,6.48435 7.65342,11.18787 1.18268,8.26516 v 0 l -2.09348,2.07989 v 0 l -3.2082,-2.67802 -7.08245,-2.94992 -8.25157,1.1827 -2.35177,4.71712 5.30166,10.61692 -1.18267,4.70352 -7.65343,3.54803 -11.20147,-1.18267 -3.53442,-5.30167 -14.73592,-5.31526 v 0 l -4.96181,0.91081 v 0 l -9.18955,-19.76569 -12.38415,-1.76722 -22.98747,-7.66702 -5.30165,-4.71713 -5.30166,-1.18267 v 0 l -4.25493,2.13426 v 0 l -1.64488,-20.10555 -10.60332,-11.20146 -3.54803,-6.48434 1.18267,-6.48434 4.71712,-5.89979 0.58455,-9.42066 -2.35178,-17.10126 -2.94989,-10.01877 -8.25156,-8.8361 -8.25156,-2.9499 -7.06888,-9.43425 -7.08249,-18.27035 -13.55323,-15.91858 v 0 l -5.49197,-16.46235 v 0 l 8.44188,-1.808 7.06888,-4.13258 v -24.17014 l 11.78601,-10.01879 0.59813,-12.37053 h 7.66702 l 17.67222,11.78598 21.81838,-0.58453 8.25156,5.30166 11.20147,13.55322 18.27033,10.61693 5.30167,5.8862 v 0 l 2.9499,11.7996 v 0 l -1.18267,10.01878 9.43422,2.35176 6.48435,4.71713 4.71713,11.20146 6.48433,2.94991 6.48435,6.48433 -1.76723,4.70353 -10.01877,5.31526 v 12.37055 0 l -11.20145,4.13257 v 0 l 0.58452,5.30166 17.10127,5.30167 7.65343,8.25157 3.53445,7.08247 10.03236,7.06888 5.30166,1.76722 7.66702,17.10126 5.88621,7.06889 18.27035,11.78601 5.89979,5.31525 3.53445,12.9551 z"
     class="land"
     title="Cetinje"
     id="ME-06"
     inkscape:connector-curvature="0"
     style="fill:#cccccc;fill-opacity:1;stroke:#ffffff;stroke-width:0.67970037;stroke-opacity:1" />
  <path
     d="m 323.07469,618.05669 0.59814,-0.21748 v 0 -12.37055 l 10.01877,-5.31526 1.76723,-4.70353 -6.48435,-6.48433 -6.48433,-2.94991 -4.71713,-11.20146 -6.48435,-4.71713 -9.43422,-2.35176 1.18267,-10.01878 v 0 l -0.7069,-2.81396 v 0 l 18.97725,0.4486 7.66701,-4.71713 -0.58453,-12.37054 1.16908,-14.7359 6.48434,-8.26515 17.10127,-11.18788 10.60331,0.58456 12.38414,4.71711 h 26.52192 l 12.96868,1.76721 6.48435,-4.7171 -8.83611,-8.83611 -4.71712,-8.25157 -0.59814,-5.8998 5.31526,-2.94991 4.11898,-4.11897 v 0 h 4.71713 v 0 l 8.25155,4.70354 5.30167,25.35282 13.56683,15.91858 v 0 l 2.35176,5.88621 v 0 l -14.73591,9.43423 -0.58454,12.96867 2.9499,7.66704 -2.36536,11.20146 -14.15136,7.06887 -3.53444,11.78602 2.9499,27.12004 -1.76723,7.06888 -8.25155,10.01879 -7.66702,5.31525 -17.08767,-8.8497 -5.89981,4.71712 -14.15136,-0.58454 -11.786,2.35177 -4.71713,-7.65343 -10.01878,-2.36536 z"
     class="land"
     title="Danilovgrad"
     id="ME-07"
     inkscape:connector-curvature="0"
     style="fill:#cccccc;fill-opacity:1;stroke:#ffffff;stroke-width:0.67970037;stroke-opacity:1" />
  <path
     d="m 172.38512,673.50667 0.97875,8.59141 5.30168,3.53445 2.28378,4.0646 v 0 l -2.9499,1.68565 v 3.35772 l 2.14786,2.25661 -2.70521,2.20223 v 3.23537 l -3.34413,-0.81564 -0.55735,-2.66442 -1.63127,-0.97877 -3.69758,0.28546 0.69329,2.89553 -1.07392,1.67207 -4.71712,-1.38658 -0.81565,-1.90317 -3.60241,2.2566 0.0816,-2.37894 -1.54974,-1.27783 -2.44692,0.69328 -0.25828,-1.74004 -4.45883,-2.71879 0.81564,-2.54208 -2.56928,0.4622 -1.15548,-2.37895 -3.14021,-0.51658 -2.70521,-3.53444 3.48007,-1.68566 -0.81565,-1.33222 1.54972,-1.27782 -9.2711,-3.35773 -0.55736,-3.99664 -4.15977,-0.87001 -0.43501,-4.74431 5.96776,-5.45119 3.43929,-0.87002 19.91522,5.55994 z m -55.34122,-100.56849 8.4147,0.40783 1.42737,-0.85641 v 0 l 9.33909,12.94149 4.71711,12.96868 3.53445,4.13259 7.06887,5.30166 21.22024,3.53442 9.43424,4.71713 2.20224,5.51918 v 0 l -7.73499,5.68229 -0.51657,1.61768 1.80801,1.22347 6.18527,0.40782 7.89812,3.94226 -5.32885,8.18359 -0.435,1.97113 1.11468,1.45457 -1.03312,1.50892 -6.30764,3.01788 -1.59049,1.97113 -2.88193,0.0544 -8.11562,5.39681 -13.09102,3.8879 -9.61099,-5.15214 -4.55397,-5.96777 -3.00428,-0.58454 -3.22179,2.14786 -7.59903,0.23109 -8.59143,-5.45119 -4.2957,3.53444 -0.73408,2.14786 3.181,5.79104 7.9389,7.99327 -3.04506,3.30334 -4.63555,-1.15549 -28.139602,-33.12859 -0.815641,-8.70016 3.860699,-5.04339 0.638918,-2.89551 -7.245606,-25.89659 0.475788,-4.52681 8.537038,-0.35344 9.352676,-2.09348 9.44784,-13.13181 z"
     class="land"
     title="Herceg-Novi"
     id="ME-08"
     inkscape:connector-curvature="0"
     style="fill:#cccccc;fill-opacity:1;stroke:#ffffff;stroke-width:0.67970037;stroke-opacity:1" />
  <path
     d="m 593.73139,522.51803 -4.81229,-6.64748 v 0 l -12.37054,-0.59813 -7.08249,-8.25157 -6.48433,-19.45302 -12.96869,-1.16909 -7.65342,1.16909 -5.30167,23.58559 -18.28393,3.53445 -1.16909,7.66703 -18.86848,7.65341 -7.06888,5.31527 -9.43425,-1.18268 -10.61691,-5.30166 -6.48435,1.76721 -7.65344,-4.71711 -6.38916,1.1283 v 0 l -1.86238,-4.66274 v 0 l -13.56683,-15.91858 -5.30167,-25.35282 -8.25155,-4.70354 v 0 h -2.7324 v 0 l -7.28638,-6.25325 -2.9499,-6.48434 1.18266,-14.15136 5.30167,-4.71713 3.53445,-7.06887 -1.76723,-6.48435 -4.71712,-7.66701 -7.65342,-7.06888 v 0 l -1.52254,0.10874 v 0 l -1.42735,-9.54299 9.43422,-10.60333 1.16909,-5.31526 12.96868,-1.76721 6.48436,1.76721 35.95614,-2.9363 8.25156,-6.48436 v 0 l 2.67802,-8.5778 v 0 l 9.12159,0.32626 6.48433,8.8361 10.0188,5.8998 11.78599,2.35176 9.43424,4.13259 20.62211,1.76721 5.89979,-3.53444 9.43425,-2.36536 9.43425,4.13259 10.01879,-1.18269 7.65341,4.71712 8.8497,-0.59814 v 0 l 10.01879,-1.16908 v 0 l -1.76722,14.13776 5.30166,17.10127 v 0 l -10.01878,2.9499 v 0 l -7.66702,8.25155 1.76722,8.83612 6.48433,7.66702 8.84972,6.48434 -0.59814,7.0689 -3.53446,7.08247 1.18269,12.96867 4.71711,3.53445 -1.7672,9.42065 -5.89982,2.94991 v 8.84969 l -4.11898,5.88619 z"
     class="land"
     title="Kolašin"
     id="ME-09"
     inkscape:connector-curvature="0"
     style="fill:#cccccc;fill-opacity:1;stroke:#ffffff;stroke-width:0.67970037;stroke-opacity:1" />
  <path
     d="m 184.40221,621.59115 -2.20224,-5.51917 -9.43424,-4.71712 -21.22024,-3.53444 -7.06887,-5.30166 -3.53445,-4.13257 -4.71711,-12.96869 -9.33909,-12.9279 v 0 l 2.13426,-1.87598 0.12235,-2.07987 -5.76387,-5.19292 v 0 l 14.61356,-2.0799 35.35802,-12.96867 8.25156,2.35175 v 0 l 5.89979,17.68582 v 0 l 13.55323,15.91858 7.08249,18.27035 7.06888,9.43425 8.25156,2.9499 8.25156,8.8361 2.94989,10.01877 2.35178,17.10126 -0.58455,9.42066 -4.71712,5.89979 -1.18267,6.48434 3.54803,6.48434 10.60332,11.20146 1.64488,20.10555 v 0 l -1.64488,0.81564 v 0 l -2.35175,4.13258 1.76722,5.30167 1.76721,3.53444 4.71713,4.13257 -5.30168,13.55323 1.76724,1.76722 v 5.92698 0 l -2.80037,-1.42736 -3.39851,2.43332 1.29143,4.21414 -8.33312,-5.49197 0.85641,7.17763 -2.86833,1.67206 -2.14784,-0.69329 -10.52177,-11.73163 -0.12234,-2.02551 -6.06294,-6.30761 -1.57689,0.0544 0.46219,-2.01192 -2.90912,-1.04672 -0.17672,-1.50894 -8.03406,-6.70185 3.35772,-3.35772 -2.74598,-3.18101 0.25828,-3.53443 -5.41043,-4.28211 -3.61599,-5.02978 0.435,-1.56333 h 1.808 l 5.49198,2.36537 -2.2566,-3.52085 v 0 l 3.27615,-0.73408 11.5821,-9.70612 4.10539,-5.424 1.31862,-10.26348 7.05529,-9.84206 v 0 l 0.76126,-4.92104 -2.62364,-5.4512 1.42738,-3.35771 -0.91081,-24.12936 -2.61004,-0.33986 -10.86161,3.88789 -9.23033,-0.12234 -4.29572,-1.33221 -3.99664,-3.1946 0.13595,-6.49794 1.97113,-4.051 -2.44692,-4.41806 -2.36536,0.93798 -2.78679,5.68231 z"
     class="land"
     title="Kotor"
     id="ME-10"
     inkscape:connector-curvature="0"
     style="fill:#cccccc;fill-opacity:1;stroke:#ffffff;stroke-width:0.67970037;stroke-opacity:1" />
  <path
     d="m 606.56413,396.58313 -8.79533,1.03314 v 0 l -8.8497,0.59814 -7.65341,-4.71712 -10.01879,1.18269 -9.43425,-4.13259 -9.43425,2.36536 -5.89979,3.53444 -20.62211,-1.76721 -9.43424,-4.13259 -11.78599,-2.35176 -10.0188,-5.8998 -6.48433,-8.8361 -9.12159,-0.32626 v 0 l 0.27189,-0.85642 v 0 l -4.71712,-9.43424 -9.43425,-1.18269 -3.53443,-8.25155 -2.35177,-11.20146 v 0 l -0.27188,-0.13595 v 0 l 2.62365,-2.80037 v -12.38412 l 25.93736,-3.53446 2.94989,-13.55323 5.8998,-4.71711 v 0 l -0.25829,-0.17673 v 0 l 10.27708,0.17673 v 0 l 9.43424,-2.94991 v 0 l 10.60333,4.71713 12.38415,1.16907 18.27032,11.79962 10.01879,2.9499 24.17015,2.35175 10.01879,6.48434 7.06889,9.43424 v 9.43425 l -6.48436,12.37055 3.54805,5.30165 16.50313,12.38415 v 0 l -3.54805,4.71712 v 0 z"
     class="land"
     title="Mojkovac"
     id="ME-11"
     inkscape:connector-curvature="0"
     style="fill:#cccccc;fill-opacity:1;stroke:#ffffff;stroke-width:0.67970037;stroke-opacity:1" />
  <path
     d="m 419.37464,476.37996 h -1.98473 v 0 l -4.11898,4.11897 -5.31526,2.94991 0.59814,5.8998 4.71712,8.25157 8.83611,8.83611 -6.48435,4.7171 -12.96868,-1.76721 h -26.52192 l -12.38414,-4.71711 -10.60331,-0.58456 -17.10127,11.18788 -6.48434,8.26515 -1.16908,14.7359 0.58453,12.37054 -7.66701,4.71713 -18.97725,-0.4486 v 0 l -2.243,-8.98564 v 0 l -5.30167,-5.8862 -18.27033,-10.61693 -11.20147,-13.55322 -8.25156,-5.30166 -21.81838,0.58453 -17.67222,-11.78598 h -7.66702 l -0.59813,12.37053 -11.78601,10.01879 v 24.17014 l -7.06888,4.13258 -8.44188,1.808 v 0 l -0.40782,-1.22347 v 0 l -8.25156,-2.35175 -35.35802,12.96867 -14.61356,2.0799 v 0 l -3.64319,-8.78174 5.07057,-13.79792 6.96013,-0.36703 10.26348,-3.01787 -4.554,-26.18206 4.59478,-11.351 -1.25065,-4.07819 -4.33648,-3.08585 -7.76219,2.67802 -10.00519,-1.1555 -3.08584,-3.79271 -0.0951,-2.85473 -6.42997,-10.12756 -6.70184,-1.45455 -1.97114,-2.03909 1.8352,-8.91769 -2.650839,-3.616 -0.394227,-5.58713 -1.753627,-1.80801 0.937987,-1.52252 4.037426,0.17671 3.95585,-1.50893 1.53613,-2.28379 0.13594,-2.85475 -5.07057,-14.69512 0.51657,-8.74094 4.45884,-8.41471 3.91507,-3.61599 -1.11471,-8.10203 5.01619,-3.15382 0.51658,-1.46815 -0.25829,-2.44692 -3.60241,-1.63128 -4.03742,-6.89215 0.17672,-9.05362 -3.48007,-5.61433 0.0816,-2.33816 6.09012,-4.60838 8.33312,-17.25079 5.96777,-18.1208 7.99327,-8.71377 4.97541,-0.65251 37.30196,7.43592 21.20665,-6.72903 -0.29908,-4.3229 -15.6467,-38.44385 v 0 l 17.0061,-2.82755 12.37056,4.11899 10.01878,8.25156 14.15135,42.44049 13.55324,26.5355 8.25156,7.65343 6.48434,3.53443 51.29018,0.59813 v 0 l 4.71714,9.42065 v 0 l 5.88621,2.36537 25.35281,15.91858 14.73591,6.48434 15.91858,15.32044 v 0 l 24.17015,-1.7672 v 0 l 7.65342,7.06888 4.71712,7.66701 1.76723,6.48435 -3.53445,7.06887 -5.30167,4.71713 -1.18266,14.15136 2.9499,6.48434 z"
     class="land"
     title="Nikšić"
     id="ME-12"
     inkscape:connector-curvature="0"
     style="fill:#cccccc;fill-opacity:1;stroke:#ffffff;stroke-width:0.67970037;stroke-opacity:1" />
  <path
     d="m 656.31819,567.41903 4.75792,-3.27616 13.55322,-3.53445 1.76721,-11.20145 3.53444,-9.43425 18.86848,-20.03756 15.32046,-5.8998 v 0 l 9.43424,-4.71712 v 0 l 28.88726,1.18267 37.49228,-5.36962 v 0 l 1.94395,1.93034 4.85306,0.76126 3.42567,1.91676 7.12327,11.40538 7.17764,5.46479 0.33985,1.5769 -14.54559,18.25675 -5.02978,2.67802 -4.41807,5.46479 -0.43499,9.76049 2.62365,8.94487 -6.52513,18.88208 -7.77577,-2.03912 -3.46648,4.98901 -13.60759,4.41806 -0.99237,2.02551 0.29907,5.4648 -4.59478,11.20145 -10.38582,-1.63128 -6.66106,1.40019 -4.93463,-0.87002 -3.94227,-3.24897 -4.68992,0.87001 -7.89813,5.22011 -3.20818,0.40782 -0.81563,8.11562 -3.00429,3.94226 -8.37389,-6.19887 -4.21417,8.11562 -5.83182,-0.81563 -2.32458,2.61004 -4.71712,0.12234 -0.29906,4.11899 -2.40614,3.24898 -5.23369,-1.80801 -11.55491,-7.47671 -5.41042,-8.34672 -6.42996,-3.37131 -2.10707,-11.20147 -7.00091,-13.34931 0.2175,-1.68566 2.40615,-1.15548 -0.13594,-3.48007 2.243,-4.64914 -2.44693,-5.87262 1.67208,-4.29572 8.49626,0.068 1.45454,-0.99237 -0.55735,-6.28043 z"
     class="land"
     title="Plav"
     id="ME-13"
     inkscape:connector-curvature="0"
     style="fill:#cccccc;fill-opacity:1;stroke:#ffffff;stroke-width:0.67970037;stroke-opacity:1" />
  <path
     d="m 564.70817,176.22427 -1.12829,5.6551 4.7171,7.66701 -2.94989,20.03758 -5.30166,2.94989 -4.13257,7.66703 -7.06889,4.11898 v 5.30168 l 3.53443,5.89979 v 7.66702 l -3.53443,4.11899 -5.8998,3.53444 -0.58454,8.84968 -3.53443,7.0689 h -10.03239 l -6.48435,5.30166 -4.70352,7.08247 0.58454,13.55324 -3.07224,9.65174 v 0 l -8.71376,2.7324 v 0 l -10.27708,-0.17673 v 0 l -9.77409,-6.90575 v 0 l -9.42064,-20.03757 -11.7996,-1.76723 -6.48434,-10.01878 -10.60332,-7.08247 -4.13258,-7.65343 -11.20148,-4.71712 -4.70351,-4.13257 -17.10128,-6.48434 -17.08765,-18.27035 h -16.50313 l -6.48434,7.66702 h -18.86848 l -4.13258,-6.48436 -7.06889,0.58456 -1.18267,-14.7359 -2.35177,-11.20147 1.18268,-7.65342 -1.59049,-2.22942 v 0 l 4.39086,-7.78937 4.77148,-5.2337 5.87263,-2.58286 13.52603,-1.41377 2.0255,-15.98655 -2.243,-7.58546 -8.71376,-16.23124 -13.25416,-16.17687 -7.2592,-17.006111 -1.33221,-5.247288 v -8.89048 l -2.78679,-4.771499 -0.13594,-4.662744 -3.08583,-0.992363 -2.4877,3.357721 -4.51321,-7.245606 -4.75791,-2.474109 -2.28377,-9.026422 0.21749,-4.594775 -2.01191,-5.070564 0.25828,-6.538719 2.31098,-5.260881 -0.77484,-3.656787 -2.18865,-2.705209 -1.93035,0.462199 -1.93034,1.780813 -3.56164,7.775772 -1.67207,-0.530165 -1.37299,-2.596455 -1.07392,-8.373911 1.07392,-2.175041 5.41042,-4.010231 7.28639,0.05438 2.44692,-1.18268 6.14449,-14.2873013 4.55399,-2.12066528 2.35177,0.82923458 1.808,4.2413304 1.97114,-3.7111642 2.32456,-0.8836104 5.0162,1.6448749 8.03406,-0.7068884 6.3484,7.0824786 6.82419,3.0178691 18.67817,14.151364 3.69756,-0.992363 12.09867,-11.745225 2.92272,-0.176721 5.49197,3.004274 5.4512,-2.705206 3.34412,3.357719 3.69757,-2.542079 3.38491,1.481747 2.75958,2.895524 1.63129,20.934772 3.00427,4.594775 10.29067,9.678934 16.53031,19.085987 15.19811,10.141129 19.53458,7.762178 10.48097,11.663658 8.45548,5.05697 12.35696,3.71116 3.99664,16.65267 6.04933,8.34671 5.75027,4.06461 14.77669,3.94227 3.60241,6.28042 4.85305,21.27463 z"
     class="land"
     title="Pljevlja"
     id="ME-14"
     inkscape:connector-curvature="0"
     style="fill:#cccccc;fill-opacity:1;stroke:#ffffff;stroke-width:0.67970037;stroke-opacity:1" />
  <path
     d="m 324.08065,181.93375 -3.95586,23.53122 1.18268,17.08768 -1.76722,13.55323 v 10.61691 l 14.15135,18.27035 v 0 11.20145 0 l -3.53443,-1.18266 -19.45303,5.89979 -8.84969,10.01879 -4.71713,18.27034 -6.48434,6.48434 1.18268,18.27034 4.71712,8.84971 22.98747,10.01878 4.7171,7.66702 -2.94988,5.88622 -6.67466,3.15379 v 0 l -0.39424,-0.78846 v 0 l -51.29018,-0.59813 -6.48434,-3.53443 -8.25156,-7.65343 -13.55324,-26.5355 -14.15135,-42.44049 -10.01878,-8.25156 -12.37056,-4.11899 -17.0061,2.82755 v 0 l -6.51152,-19.71131 2.243,-15.48357 5.05697,-10.78004 11.07912,-15.78266 8.89049,-9.7469 3.38489,-6.15808 -1.07391,-4.17336 -8.83611,-5.51918 -1.54972,-2.40613 -0.0816,-5.57354 2.22943,-2.82756 11.79959,-8.57782 29.71651,-19.33068 17.29158,-6.70185 9.48861,-0.8836 -2.10707,-7.46312 -4.58119,-5.99495 v -3.30335 l 15.79626,-4.5268 7.80295,1.06034 5.88621,-3.46648 2.27019,0.99236 5.70948,5.41042 7.25921,10.82082 6.14449,0.70689 0.93798,3.6568 -0.73407,3.75194 -2.74599,2.88193 -1.37299,5.41041 1.93034,6.75622 1.1147,1.71285 7.91172,2.40614 3.86071,2.63724 1.88955,4.52681 -1.808,5.11133 z"
     class="land"
     title="Plužine"
     id="ME-15"
     inkscape:connector-curvature="0"
     style="fill:#cccccc;fill-opacity:1;stroke:#ffffff;stroke-width:0.67970037;stroke-opacity:1" />
  <path
     d="m 607.7604,552.68312 -19.41225,26.64426 -0.72048,8.71376 1.57691,2.50129 1.16908,9.12159 -5.28806,3.18099 -0.55736,3.1946 -16.9925,9.7469 -1.84879,10.68489 -4.21416,4.86665 -4.11897,7.54469 -0.85642,4.22773 -3.68398,6.09011 -3.48007,2.78677 -1.16908,5.27449 -5.75027,2.48769 -2.86833,3.65678 -1.03315,5.02978 -2.52848,0.76128 -1.3322,5.91339 -6.40279,10.94317 -6.60669,4.40446 -5.23369,0.28548 -2.66442,1.3866 -5.19292,6.02213 -1.72644,3.48006 0.21751,6.00857 -3.8607,2.89551 1.1555,8.74095 2.32456,4.7443 -16.0953,18.62379 -1.16909,8.6186 -9.27111,11.14711 -3.6296,7.88451 v 0 l -6.04933,-0.66611 -5.31526,-2.94989 -10.60332,-8.8361 -15.91859,-4.13258 -9.43424,1.76721 -6.48434,2.9499 -15.32045,4.13258 -2.35176,-5.89981 -7.66703,-4.11897 -1.76722,-4.13258 -7.08247,-4.71712 -1.76722,-3.53444 -0.58455,-8.83609 2.35177,-6.49796 5.31526,-2.9363 v 0 -3.88789 0 l 4.11898,-7.02809 -3.53445,-12.9551 -5.89979,-5.31525 -18.27035,-11.78601 -5.88621,-7.06889 -7.66702,-17.10126 -5.30166,-1.76722 -10.03236,-7.06888 -3.53445,-7.08247 -7.65343,-8.25157 -17.10127,-5.30167 -0.58452,-5.30166 v 0 l 10.60331,-3.91509 v 0 l 17.6858,7.44953 10.01878,2.36536 4.71713,7.65343 11.786,-2.35177 14.15136,0.58454 5.89981,-4.71712 17.08767,8.8497 7.66702,-5.31525 8.25155,-10.01879 1.76723,-7.06888 -2.9499,-27.12004 3.53444,-11.78602 14.15136,-7.06887 2.36536,-11.20146 -2.9499,-7.66704 0.58454,-12.96867 14.73591,-9.43423 v 0 l -0.48938,-1.22347 v 0 l 6.38916,-1.1283 7.65344,4.71711 6.48435,-1.76721 10.61691,5.30166 9.43425,1.18268 7.06888,-5.31527 18.86848,-7.65341 1.16909,-7.66703 18.28393,-3.53445 5.30167,-23.58559 7.65342,-1.16909 12.96869,1.16909 6.48433,19.45302 7.08249,8.25157 12.37054,0.59813 v 0 l 7.66702,10.60333 v 0 l 5.89979,17.10125 z"
     class="land"
     title="Podgorica"
     id="ME-16"
     inkscape:connector-curvature="0"
     style="fill:#cccccc;fill-opacity:1;stroke:#ffffff;stroke-width:0.67970037;stroke-opacity:1" />
  <path
     d="m 783.76202,462.35094 -2.43332,-4.60837 -3.54805,-18.8549 9.43425,-11.78598 10.61692,-8.84972 4.11898,-13.55322 1.18267,-13.56682 13.55324,-12.96869 2.36536,-12.37055 7.65343,-11.20145 1.18266,-16.54391 v 0 l 6.62029,4.0918 9.35268,2.5149 2.2702,2.05269 14.77669,6.07652 10.42659,8.23797 19.57538,3.68397 2.06629,6.02215 -0.4758,2.03911 4.63557,3.73835 5.36962,0.29908 11.75883,8.29233 1.75363,2.44692 0.43499,4.14616 -1.45454,32.57125 -2.96349,4.60837 -2.3246,1.34581 -12.61523,-1.52253 -5.75027,5.83183 -8.29233,4.0782 -2.86834,2.746 -2.58286,4.60836 3.48007,10.78004 -14.72232,19.41225 -4.51321,2.09348 -17.72658,-2.90913 -18.54222,0.16315 -39.02841,-13.68918 z"
     class="land"
     title="Rožaje"
     id="ME-17"
     inkscape:connector-curvature="0"
     style="fill:#cccccc;fill-opacity:1;stroke:#ffffff;stroke-width:0.67970037;stroke-opacity:1" />
  <path
     d="m 333.6916,275.61006 10.01879,18.85489 14.15137,1.76722 3.53442,-5.8862 10.60335,0.58454 8.25156,11.20145 8.25156,7.66702 6.48434,0.58455 13.56682,-3.53444 8.8361,7.65342 6.48434,12.38416 8.25158,4.13257 7.08247,1.16908 10.01879,4.71712 v 0 l 10.01878,5.30167 v 0 l 2.35177,11.20146 3.53443,8.25155 9.43425,1.18269 4.71712,9.43424 v 0 l -2.94991,9.43422 v 0 l -8.25156,6.48436 -35.95614,2.9363 -6.48436,-1.76721 -12.96868,1.76721 -1.16909,5.31526 -9.43422,10.60333 1.42735,9.54299 v 0 l -22.64761,1.65846 v 0 l -15.91858,-15.32044 -14.73591,-6.48434 -25.35281,-15.91858 -5.88621,-2.36537 v 0 l -4.3229,-8.63219 v 0 l 6.67466,-3.15379 2.94988,-5.88622 -4.7171,-7.66702 -22.98747,-10.01878 -4.71712,-8.84971 -1.18268,-18.27034 6.48434,-6.48434 4.71713,-18.27034 8.84969,-10.01879 19.45303,-5.89979 3.53443,1.18266 v 0 z"
     class="land"
     title="Šavnik"
     id="ME-18"
     inkscape:connector-curvature="0"
     style="fill:#cccccc;fill-opacity:1;stroke:#ffffff;stroke-width:0.67970037;stroke-opacity:1" />
  <path
     d="m 225.36096,668.15063 -7.05529,9.84206 -1.31862,10.26348 -4.10539,5.424 -11.5821,9.70612 -3.27615,0.73408 v 0 l -1.48174,-4.17337 -4.03742,-3.00426 1.33222,-2.32459 -2.92273,-3.18099 0.13594,-1.97113 -1.03314,-0.17673 -0.42141,1.63129 -6.22606,-1.97113 -2.41974,0.74767 v 0 l -2.28378,-4.0646 -5.31526,-3.53445 -0.96517,-8.59141 v 0 l 12.221,4.73072 8.33314,0.51657 5.8862,5.55994 3.20818,1.22347 0.87001,-0.7069 0.50298,-2.4877 -2.74598,-2.77319 1.42737,-0.76125 -4.03743,-1.61769 4.97542,-0.28547 0.0816,-4.8123 -7.80295,-8.1156 -1.07393,-4.40446 -3.22178,-1.27784 0.59814,-2.43332 -3.08584,-6.60669 2.18863,-9.73331 2.65083,-3.77913 19.2763,7.0281 8.03407,10.19551 2.31098,12.80555 z"
     class="land"
     title="Tivat"
     id="ME-19"
     inkscape:connector-curvature="0"
     style="fill:#cccccc;fill-opacity:1;stroke:#ffffff;stroke-width:0.67970037;stroke-opacity:1" />
  <path
     d="m 493.84262,861.30788 -5.16573,8.72735 -1.11471,13.07745 -3.31694,7.31356 1.07394,18.88207 3.00427,4.66275 1.16907,5.87263 -2.243,7.53107 4.89384,5.53277 -2.18864,2.29737 -10.46738,0.97879 -3.26256,2.18861 -0.0408,8.90409 7.80296,6.55231 1.1283,3.57523 -3.05866,3.616 -7.85732,2.01192 -1.67207,2.63724 1.50894,3.34411 8.19718,2.69162 1.93036,5.51917 4.93461,1.83519 -2.31098,4.94823 -0.35343,8.03405 -1.79443,6.89215 -3.73835,0.6933 -3.73836,-5.11133 -5.53276,-3.16741 -3.86069,-6.30763 -5.66869,-5.11134 -21.72323,-11.14709 -11.50053,-3.50726 -2.2838,1.95755 -5.83182,-5.64153 -5.19292,-2.58284 -1.93034,0.17671 -0.0544,-1.78081 -1.49533,0.39421 -1.76724,-1.95753 -4.83945,-1.19627 -15.15733,-12.08507 -0.81564,-2.58286 6.09011,1.67205 1.20988,-1.26423 -6.10372,-7.31358 -3.30333,-2.01191 -2.01193,-3.79273 1.19627,-2.81396 3.39852,0.10875 1.07393,-1.31862 -0.73409,-2.41973 -3.60241,-2.01191 2.39255,-1.78082 -0.93798,-1.7944 0.63891,-2.01192 -1.93035,-2.9363 2.92271,-3.72476 v 0 l 13.43088,-0.76128 19.45303,10.01879 6.48434,1.16909 5.8998,-2.35176 2.35177,-5.30167 -2.35177,-11.7996 -4.13258,-1.16909 -2.35177,-4.71711 -3.53443,-2.9499 0.58453,-5.30166 4.71712,-10.61692 -1.18267,-2.35176 -7.65344,-2.36537 v -5.88619 l 7.65344,-5.89981 4.71712,2.9499 2.9499,5.8998 7.66701,5.30167 h 5.88621 l 4.13259,-1.76723 9.43424,1.76723 5.8862,-4.13259 4.71713,-7.06888 v 0 l 12.96868,1.18268 v 0 z"
     class="land"
     title="Ulcinj"
     id="ME-20"
     inkscape:connector-curvature="0"
     style="fill:#cccccc;fill-opacity:1;stroke:#ffffff;stroke-width:0.67970037;stroke-opacity:1" />
  <path
     d="m 336.81824,183.78254 1.59049,2.22942 -1.18268,7.65342 2.35177,11.20147 1.18267,14.7359 7.06889,-0.58456 4.13258,6.48436 h 18.86848 l 6.48434,-7.66702 h 16.50313 l 17.08765,18.27035 17.10128,6.48434 4.70351,4.13257 11.20148,4.71712 4.13258,7.65343 10.60332,7.08247 6.48434,10.01878 11.7996,1.76723 9.42064,20.03757 v 0 l 10.03238,7.08248 v 0 l -5.8998,4.71711 -2.94989,13.55323 -25.93736,3.53446 v 12.38412 l -2.62365,2.80037 v 0 l -9.7469,-5.16572 v 0 l -10.01879,-4.71712 -7.08247,-1.16908 -8.25158,-4.13257 -6.48434,-12.38416 -8.8361,-7.65342 -13.56682,3.53444 -6.48434,-0.58455 -8.25156,-7.66702 -8.25156,-11.20145 -10.60335,-0.58454 -3.53442,5.8862 -14.15137,-1.76722 -10.01879,-18.85489 v 0 -10.61692 0 l -14.15135,-18.27035 v -10.61691 l 1.76722,-13.55323 -1.18268,-17.08768 3.95586,-23.53122 v 0 l 1.37298,1.98472 4.47243,2.17505 1.15549,3.23537 z"
     class="land"
     title="Žabljak"
     id="ME-21"
     inkscape:connector-curvature="0"
     style="fill:#cccccc;fill-opacity:1;stroke:#ffffff;stroke-width:0.67970037;stroke-opacity:1" />
  <path
     d="m 476.49666,770.296 -1.30502,3.68398 -29.14556,35.27645 51.80677,43.5552 -4.01023,8.49625 v 0 l -6.30762,-0.8972 v 0 l -12.83274,-1.16909 v 0 l -11.3374,-8.26515 -11.20148,-14.73591 -17.6722,-5.89978 -4.13259,-8.83612 -7.66701,-5.8998 -6.48433,-22.98747 -4.11899,-9.43424 -4.13259,-1.76722 h -8.83611 l -15.91858,-2.9499 -4.11898,-4.71712 -2.36536,-8.25157 -0.58455,-11.78599 -1.76722,-6.48434 -10.01878,-11.78601 v 0 l 2.35177,-2.35177 v 0 l -1.18268,-8.26516 -7.65342,-11.18787 2.9363,-6.48435 h 4.71712 l 4.71712,4.71714 7.08248,2.35176 4.70353,-2.9499 11.7996,5.30166 v 0 5.31526 0 l -5.31526,2.9363 -2.35177,6.49796 0.58455,8.83609 1.76722,3.53444 7.08247,4.71712 1.76722,4.13258 7.66703,4.11897 2.35176,5.89981 15.32045,-4.13258 6.48434,-2.9499 9.43424,-1.76721 15.91859,4.13258 10.60332,8.8361 5.31526,2.94989 z"
     class="land"
     title="Skadar Lake"
     id="ME-SLK"
     inkscape:connector-curvature="0"
     style="fill:#cccccc;fill-opacity:1;stroke:#ffffff;stroke-width:0.67970037;stroke-opacity:1" />
  <g
     id="stadiums"
     data-country="montenegro"
     data-circle-radius="12"
     data-circle-colors="#a149be,#bea149"
     transform="matrix(1.3594008,0,0,1.3594008,2.6939324,0.42696406)" />
</svg>
