<?xml version="1.0" encoding="UTF-8" standalone="no"?>
<?xml-stylesheet type="text/css" href="/styles/home.css"?><!-- https://www.amcharts.com/svg-maps -->

<svg
   version="1.1"
   id="map-netherlands"
   viewBox="0 0 999.99999 999.99999"
   width="1000"
   height="1000"
   class=""
   sodipodi:docname="netherlands.svg"
   inkscape:version="1.3.1 (91b66b0783, 2023-11-16)"
   xmlns:inkscape="http://www.inkscape.org/namespaces/inkscape"
   xmlns:sodipodi="http://sodipodi.sourceforge.net/DTD/sodipodi-0.dtd"
   xmlns="http://www.w3.org/2000/svg"
   xmlns:svg="http://www.w3.org/2000/svg"
   xmlns:rdf="http://www.w3.org/1999/02/22-rdf-syntax-ns#"
   xmlns:cc="http://creativecommons.org/ns#"
   xmlns:dc="http://purl.org/dc/elements/1.1/">
  <metadata
     id="metadata21">
    <rdf:RDF>
      <cc:Work
         rdf:about="">
        <dc:format>image/svg+xml</dc:format>
        <dc:type
           rdf:resource="http://purl.org/dc/dcmitype/StillImage" />
        <dc:title />
      </cc:Work>
    </rdf:RDF>
  </metadata>
  <sodipodi:namedview
     pagecolor="#ffffff"
     bordercolor="#666666"
     borderopacity="1"
     objecttolerance="10"
     gridtolerance="10"
     guidetolerance="10"
     inkscape:pageopacity="0"
     inkscape:pageshadow="2"
     inkscape:window-width="1920"
     inkscape:window-height="1106"
     id="namedview19"
     showgrid="false"
     showguides="true"
     inkscape:guide-bbox="true"
     inkscape:zoom="20.872885"
     inkscape:cx="95.674365"
     inkscape:cy="811.55529"
     inkscape:window-x="-11"
     inkscape:window-y="-11"
     inkscape:window-maximized="1"
     inkscape:current-layer="map-netherlands"
     inkscape:showpageshadow="2"
     inkscape:pagecheckerboard="0"
     inkscape:deskcolor="#d1d1d1">
    <sodipodi:guide
       position="500,826.05215"
       orientation="1,0"
       id="guide831"
       inkscape:locked="false"
       inkscape:label=""
       inkscape:color="rgb(0,0,255)" />
    <sodipodi:guide
       position="76.750291,202.79347"
       orientation="1,0"
       id="guide1"
       inkscape:locked="false" />
  </sodipodi:namedview>
  <defs
     id="defs4">
    <style
       type="text/css"
       id="style2">
         .land {
            fill: #63bb4a;
            fill-opacity: 1;
            stroke: white;
            stroke-opacity: 1;
            stroke-width: 0.5;
         }

         .rectangle:hover {
            fill: #bdbdbd;
            cursor: pointer;
         }
      </style>
    <!-- <amcharts:ammap projection="mercator" leftLongitude="3.359304" topLatitude="53.560347" rightLongitude="7.227792" bottomLatitude="50.750938"></amcharts:ammap> -->
    <!-- All areas are listed in the line below. You can use this list in your script. -->
    <!--{id:"NL-DR"},{id:"NL-FL"},{id:"NL-FR"},{id:"NL-GE"},{id:"NL-GR"},{id:"NL-LI"},{id:"NL-NB"},{id:"NL-NH"},{id:"NL-OV"},{id:"NL-UT"},{id:"NL-ZE"},{id:"NL-ZH"}-->
  </defs>
  <path
     d="m 723.43262,171.19216 5.98886,2.21298 2.78006,-7.31666 1.61824,-0.49792 0.51175,-4.66109 3.72057,-11.35534 4.67491,-5.10369 0.67773,-3.52693 6.95705,-3.7897 1.93635,-1.85336 0.12448,-1.2863 7.39965,-1.92252 3.80355,-0.4426 7.46881,2.66941 1.3831,3.56843 0.82987,0.0276 3.23648,5.6569 1.57675,4.39828 3.30563,-1.12031 1.63207,5.67075 h 1.82571 l 4.89621,4.30148 1.46609,4.03868 2.40662,2.94603 0.0553,2.50343 12.79377,-5.13134 9.08704,0.48409 1.72889,1.16181 41.18905,44.16274 17.57934,25.7397 2.11616,1.83953 4.61959,1.23097 -6.21016,15.08974 5.20049,0.55325 0.67773,2.55875 0.81603,-0.0691 3.23648,4.74406 1.42461,1.43844 1.72889,-0.17981 -0.74688,3.76206 4.39829,-0.2213 v 0 l -4.5781,10.37334 -3.66524,60.16534 -3.04284,3.59608 -6.50063,-1.61823 -1.6874,-1.61825 -2.65556,0.1798 -3.7344,-1.90869 -4.68876,2.87688 -3.6929,0.35961 -4.08017,-1.21715 -0.62241,-2.19914 -4.05252,-1.39695 -3.45777,0.35961 -1.56292,-1.30012 -2.33746,1.43844 -2.48959,0.24896 -3.25032,-1.21714 -3.13966,1.57675 -8.14652,-1.79805 -2.89071,1.00967 -0.71922,1.14799 -1.99167,-0.71922 -3.59609,1.07882 -6.73575,6.98471 v 0 l -2.51726,-0.15213 2.10232,-7.93906 -20.78815,-8.9349 -13.96943,3.13966 -8.34016,6.40381 1.30012,13.52682 -3.0705,-2.87687 -6.21017,-0.4426 -2.08849,-2.33746 -1.54909,3.41629 -3.69291,0.51175 -2.047,-1.77038 -0.76071,-2.79388 -2.7109,3.41628 -1.97784,-1.00968 -0.69156,1.25864 -2.0885,-0.0691 -2.51727,1.97785 -1.85337,-2.15766 -0.55324,-3.74823 -2.46194,-5.28348 -8.07736,-5.83673 0.52558,-2.33747 -0.74688,-1.28629 -5.69842,1.4661 -1.52142,1.25863 -1.97785,-2.18531 -2.36512,1.21714 -1.85337,-1.72889 -1.56291,-0.11065 -2.44811,-2.91836 -3.72057,-0.99585 -2.19915,-2.06084 -2.91836,0.69156 -1.17564,1.61824 -3.33331,-0.94052 -1.68739,0.69156 -4.14933,-4.9377 -8.02205,-20.69135 1.4661,-2.06083 9.28067,-3.34713 0.2628,-1.74272 7.13685,-7.89757 -14.89611,-17.05375 -3.25031,-5.0207 v 0 l 18.40921,-13.0289 5.8229,-8.10504 5.3803,-5.17283 10.37333,0.76071 6.87406,7.05387 12.95975,-9.26684 7.63478,-14.45351 -14.3152,-22.24043 0.95434,-12.35119 -13.05656,-4.93771 z"
     class="land"
     title="Drenthe"
     id="NL-DR"
     inkscape:connector-curvature="0"
     style="fill:#63bb4a;fill-opacity:1;stroke:#ffffff;stroke-width:0.69155556;stroke-opacity:1" />
  <path
     d="m 528.74589,375.47768 -0.94051,-1.03733 3.83122,-10.12438 5.32498,-3.44395 0.41492,-1.54908 -2.51725,-7.75925 -12.14372,-19.55719 v 0 l 0.49792,-0.35961 v 0 l 12.24053,19.55718 2.58642,8.36783 -0.55325,1.75655 -5.40796,3.37479 -2.90453,7.0677 z m 62.29533,-111.35428 2.18532,0.42877 1.72888,1.70123 1.49376,-0.60858 -1.35544,-4.08018 4.38445,1.34163 7.92523,8.02204 1.35545,5.24199 0.81604,-0.47025 v 0 l 4.95153,6.74958 h 4.01103 l 4.96536,1.72888 14.13541,11.54899 4.55043,12.87676 1.53525,0.78837 2.84921,5.18666 -0.52558,2.19915 -3.98336,2.98752 -2.47578,2.80772 0.083,1.23096 8.03588,2.19915 3.48544,3.05668 3.56842,0.96818 3.15349,3.48544 -1.09265,1.8672 -4.92387,3.27797 -7.2475,1.57674 -5.36647,3.63759 -3.23649,0.4011 -2.84921,-1.8672 -12.89059,2.83538 -1.72889,1.43844 -12.97358,-0.0415 -0.083,9.48815 7.17835,0.29044 9.32217,9.94458 2.40661,11.92241 v 0 l -4.7994,16.59733 -2.55875,0.2213 -3.05668,5.83673 1.17565,2.22681 -2.86305,4.91004 -4.25997,4.19083 -10.85742,8.81042 -1.8672,-0.67773 0.23513,1.17565 -3.22266,2.93219 -4.24614,2.7524 -4.09402,0.56707 -5.97504,5.11752 -1.83954,-1.35546 -6.91555,3.78973 -1.75655,-1.35545 -3.72057,1.21713 -2.55876,3.96954 -9.51579,27.53774 -27.55158,8.20185 v 0 L 508.81526,460.3177 v 0 l -5.26965,-5.21434 -6.43147,-4.24615 -13.45767,-3.38862 -15.21422,2.60025 -3.08434,-2.86304 v 0 l 1.42461,-2.32363 -2.93219,-1.93635 0.91284,-1.71506 -0.37344,-6.92939 -2.25446,-4.28764 0.0415,-2.11617 7.48262,-4.50893 1.12033,-2.57259 9.93073,-5.8644 3.58226,-0.60856 2.01934,-2.82155 32.69675,-22.64152 3.56843,-1.1065 8.46464,-7.60711 0.41494,-1.36928 -0.82988,-2.90453 -1.35544,0.29046 0.19363,-1.9087 1.0235,0.31811 2.29597,-1.79804 3.37479,-6.38997 7.57945,-0.78838 7.41348,-7.08153 -0.6639,-1.32778 0.76071,-0.76072 0.71922,1.18949 6.19634,-6.36232 14.64714,-4.24614 4.85472,-3.9972 -6.91555,-11.14787 -3.91421,-2.87688 0.71922,-0.60856 -1.02351,-1.3278 -1.3831,0.24897 0.37344,-36.94289 14.61948,-23.78952 z"
     class="land"
     title="Flevoland"
     id="NL-FL"
     inkscape:connector-curvature="0"
     style="fill:#63bb4a;fill-opacity:1;stroke:#ffffff;stroke-width:0.69155556;stroke-opacity:1" />
  <path
     d="m 516.14575,177.47148 3.52693,2.32362 1.9087,4.91005 -4.21849,-0.29045 -1.9087,-3.3748 -0.48408,-3.23648 z m -7.6901,0.22129 0.083,1.52143 -7.93905,1.74271 -17.96662,15.83663 -0.11065,0.94051 -2.29596,1.09267 1.95019,-0.0415 -2.18532,0.29046 -7.77309,6.74958 v 0 l -0.89901,-1.20331 v 0 l 7.62093,-6.68043 -0.12448,-0.8022 1.00968,-0.53941 -0.67773,1.16181 20.45621,-18.0496 6.61127,-2.29597 z m -57.38527,-85.061303 5.79523,1.092658 0.56707,1.825707 -1.68739,1.576746 -0.982,-0.442595 0.41492,0.760714 -2.64174,-0.442598 -3.26414,0.912855 -4.38446,3.582256 -15.62915,6.45913 1.0235,4.30148 -2.03318,1.2033 0.0692,3.54077 -5.33881,2.18531 -2.97369,3.20883 -6.15484,0.73304 -4.01103,2.18532 -1.81187,-0.51176 -1.05116,-3.09816 12.39267,-7.84224 9.84775,-9.82009 12.86294,-8.76893 z m 15.39402,6.362312 -2.78005,2.669411 -2.7109,-0.0692 1.27247,-1.35545 -1.5076,-1.313961 5.58777,-5.698414 2.06083,-0.553244 0.49793,2.406612 z M 696.13,55.107663 l -5.10368,7.441138 1.2863,7.939057 2.32362,2.489601 8.16036,2.4896 2.37895,4.716408 4.094,-1.977848 7.63478,2.627911 -1.16181,10.124373 2.71089,1.687395 -3.19499,2.185316 -1.70122,4.674911 -2.03318,-0.26279 -1.61823,0.954345 0.23513,7.63478 -1.13415,0.55325 -0.98202,-0.69155 -1.77038,3.78971 -1.32778,0.51176 0.63622,0.91285 -1.12031,1.35545 0.2213,2.80771 -3.78973,0.6224 3.69291,6.74958 -0.29046,1.63207 -2.06083,3.85888 -2.21298,2.40662 -1.96401,0.58091 -0.30429,1.93636 -4.59193,7.71772 -0.96818,13.02891 6.68043,7.31666 7.20601,1.09266 6.04419,-0.24896 3.19499,1.71506 2.8907,3.59609 5.25583,2.10233 v 0 l -1.77038,4.86854 13.04272,4.93771 -0.94051,12.35119 14.3152,22.24042 -7.63477,14.45351 -12.95975,9.26685 -6.87406,-7.05388 -10.37333,-0.7607 -5.38031,5.17283 -5.8229,8.10504 -18.40921,13.01507 v 0 l -8.4508,5.5601 -3.83122,-0.13831 -2.47577,1.00968 0.29045,4.41212 -5.159,2.78005 -0.98201,-1.99168 -5.71225,1.54909 -2.8907,-1.36928 -2.97369,-7.44114 -3.9142,1.30012 -0.0276,1.9087 -2.03318,-0.82987 -3.3333,0.71922 -0.98201,1.18948 0.0276,2.82154 -5.8229,5.49095 -4.57809,2.17149 -8.11887,-2.17149 -1.3831,0.78838 -0.4841,-1.47993 -3.00134,-2.06083 -5.22816,3.65141 v 0 l -0.81604,0.47025 -1.35545,-5.24199 -7.92523,-8.02204 -4.38445,-1.34162 1.35544,4.08018 -1.49376,0.60857 -1.72888,-1.70123 -2.18532,-0.42876 v 0 l 0.15214,-1.54909 -2.01934,0.78837 -0.96818,-2.06083 -5.51861,-0.29045 0.15214,-1.36929 -1.27247,2.35129 -2.32361,-0.4011 -1.00968,-1.16181 0.41493,-2.8907 -2.44811,-1.81188 -5.85056,3.40246 -3.05667,-0.42877 -3.91421,0.89902 -1.46609,3.83122 -5.73991,2.17148 -20.55304,-7.88373 -7.51028,2.28213 -6.01654,-3.04284 -6.16868,-5.67076 -3.45777,-5.03452 3.85888,-4.70258 6.26549,-2.93219 1.20331,-1.70123 0.2213,-3.69291 -1.16182,-5.72608 -1.20331,-1.45226 2.47578,-1.18948 -0.82987,-0.5809 1.49375,0.0415 0.59474,-2.7109 -0.76071,-1.92253 -1.05116,0.0415 1.61824,-0.40111 0.2213,-1.67356 -2.37896,-7.4688 -0.78836,-6.12718 1.90869,-3.22264 0.0691,-3.73441 -1.92252,-0.53941 -0.34578,-1.99168 1.00967,-0.40111 0.15214,-1.52142 0.59474,0.42877 -0.29045,-5.44946 -0.76072,5.26965 -0.82986,0.58091 -1.50759,-3.48544 -2.14382,-2.36512 -0.34578,-2.14382 1.68739,-0.29046 1.13416,0.98202 v -0.94052 l 0.92668,-0.0692 0.67773,1.09266 1.00966,-0.13831 -2.44811,-4.75791 -0.41492,-4.32913 -2.36513,-4.50894 -8.20185,6.76341 -1.27246,-2.10232 2.86305,-1.02351 6.11334,-5.91972 0.70539,-4.7579 3.54077,-2.14382 1.8672,-2.43428 2.53109,-15.68448 -0.0691,-1.53525 -1.46611,-1.45226 2.62792,-2.43428 3.59609,-11.00954 2.22681,-3.56842 7.59328,-7.80075 9.87541,-6.16867 6.11335,-6.27933 1.32778,-3.72057 6.0857,-6.141019 6.16867,-3.181155 16.41752,-5.159005 16.0441,-9.723271 22.39256,-10.318008 4.5781,-2.641743 -2.21298,-3.734399 0.60858,0.843697 0.48409,-0.511751 1.35544,3.153494 6.30699,-0.04149 11.90859,-4.10784 0.59473,0.6224 3.26415,-0.580907 5.8229,-1.8672 11.5628,-1.50759 3.52693,0.954346 0.38728,-0.954346 0.44259,0.954346 0.92668,-1.424604 9.61263,2.019342 8.68593,-4.10784 1.4661,-0.110649 z m -145.58628,-13.056568 -2.78005,0.663893 7.09536,-0.262791 -0.15214,3.513102 -4.3983,2.24064 -2.86303,-0.179805 -6.38998,3.955698 -3.19499,-1.355449 0.40111,3.112 -5.07602,-2.019342 2.80771,2.669404 3.38863,1.286294 -1.65974,0.221298 -0.67772,1.313955 -13.98325,0.359609 -3.41629,0.885191 -8.46463,6.735751 -4.55044,2.088498 -2.58642,-0.954347 -0.52558,1.023502 -2.55876,0.677725 -0.82986,1.756551 -8.09121,-0.802205 -3.41628,3.001352 -1.0235,-0.774543 -3.60992,0.442596 -0.91286,1.2448 0.12449,2.627911 -2.48961,-0.553244 -4.77173,4.578098 -2.58642,-0.622401 -3.67908,-2.669404 -0.60856,-4.536605 4.70258,-4.605759 3.01518,-5.380303 0.38727,1.064996 0.91286,-3.070507 27.49625,-5.380301 1.72888,0.373439 21.29991,-6.929387 18.51986,-7.551786 4.31531,-0.802205 3.74823,0.733049 -0.45643,1.313956 z m 117.16335,-4.647254 0.37344,2.932196 -0.55325,-0.954347 -3.00135,2.572586 -1.2033,-0.580905 -0.45643,-2.047005 1.27246,-1.8672 z m -74.0656,-0.08299 26.48657,-2.157653 26.79086,0.06916 2.40662,1.175645 -1.2448,1.313955 -2.21298,0.470258 -11.68729,-0.290453 -4.094,2.268301 -18.45071,5.062187 -6.41764,-0.04149 -0.56706,1.756551 -0.0276,-2.351289 -10.60847,-1.134151 -4.57809,4.578098 -7.89757,2.12999 -0.67772,1.72889 -7.52412,-3.914205 -3.58226,-4.979199 0.87136,-6.818738 3.30563,-2.890702 14.43969,3.637582 z m 93.5398,-18.049601 1.96401,0.37344 2.14383,2.019343 6.23783,0.663894 24.92366,-3.042846 7.99439,-0.331946 0.4011,0.6224 -3.83122,2.710898 -11.99158,4.149333 -1.46609,1.839538 -5.47712,2.572587 -10.81593,1.576746 1.0235,1.728889 -1.54908,-1.535254 H 690.888 l -0.44258,1.466098 -0.2213,-1.396942 -1.49376,0.290453 -0.98202,1.217139 0.56708,0.774542 -2.44811,0.221297 0.78838,2.793885 -4.43979,-0.37344 -2.28214,2.199146 -0.94051,-0.663892 0.91285,-4.619592 2.29597,-5.573938 1.96402,-2.86304 5.36647,-4.259982 -8.56146,-2.420444 -1.61824,4.10784 -1.4246,-0.221298 0.15214,-1.327786 1.50759,-3.48544 z"
     class="land"
     title="Friesland"
     id="NL-FR"
     inkscape:connector-curvature="0"
     style="fill:#63bb4a;fill-opacity:1;stroke:#ffffff;stroke-width:0.69155556;stroke-opacity:1" />
  <path
     d="m 624.38803,378.27156 2.97368,-1.10649 3.40246,3.01518 4.43979,6.23784 2.97368,7.06769 1.65973,-0.7607 0.85754,0.78836 4.06635,-2.39278 1.89486,2.72473 9.52963,-9.86158 2.36512,-0.82986 1.53525,-1.82571 6.41764,4.16317 2.51726,5.08984 5.04836,2.90453 1.8672,2.25448 0.63623,9.03171 5.8229,7.19218 1.36927,4.91004 -2.72472,11.00956 -4.5781,2.18532 -4.34297,0.82987 -0.87136,1.20331 0.35961,2.11616 3.23648,2.14382 -3.96953,2.61408 -0.0139,7.10919 -1.25863,4.31531 2.17148,0.29045 0.87136,5.53245 3.74823,0.49792 0.45643,0.82986 1.75655,3.59609 0.17981,3.45777 3.92803,6.36232 -1.25863,3.20882 3.72057,1.45226 2.7109,-0.24896 -0.2628,1.96402 -1.99168,2.17148 0.59474,2.28214 3.34713,1.53525 0.99585,2.60025 0.44258,-1.065 -1.2033,-2.10233 0.85753,0.35961 0.22129,-1.6044 0.99585,1.06499 0.81603,-3.49927 5.71225,0.0415 3.19499,2.39279 6.98471,1.45226 5.00686,0.35961 0.11065,-1.03733 1.43844,0.49791 3.04284,-1.3831 1.67357,1.92252 4.52277,0.0415 3.67907,-0.58091 0.12448,-3.02901 2.76622,-2.06083 6.56979,-1.28629 7.63477,0.85752 -0.0692,1.78421 2.43427,4.74408 4.41213,4.61959 1.79805,3.63758 3.18115,0.99585 1.30013,4.67491 3.56843,2.69707 4.92387,-1.24481 8.69977,1.42461 8.02204,-1.96402 3.48544,3.07051 -0.55324,2.03317 1.83953,1.70123 3.66525,-3.27797 2.22681,1.85337 1.07882,-1.88104 0.91286,0.0692 4.50894,2.37894 1.00967,1.74272 -0.74688,1.89487 0.56708,5.54627 -2.32363,3.7344 11.74262,4.12168 9.86157,-0.0692 v 0 l -0.94051,7.35815 -0.76071,1.20331 -0.74688,-0.70539 -1.27247,1.20331 1.27247,2.91836 -2.7109,3.3748 -9.30834,1.56291 0.35961,1.99168 -2.21298,4.5781 0.30429,4.5366 h 5.97504 l 8.50613,4.08017 2.84921,3.34714 8.9349,6.69426 0.41494,1.77038 3.95569,0.60857 0.78837,9.1147 -0.63623,1.12032 -2.90453,0.11065 -3.37479,1.83954 -0.56708,7.55178 -5.26965,7.15069 -4.01102,1.65973 -0.4841,1.70123 -3.23647,1.13415 -1.05116,1.93635 -2.06084,0.99584 -3.62375,-2.86304 -2.61409,-3.96952 -3.20881,-0.34578 -8.7136,4.1355 -1.39694,1.45227 -1.8672,-0.31812 -10.12438,3.38862 -4.24615,3.36096 -1.60441,-1.27246 -1.65973,0.67773 -8.34016,5.61543 -1.6044,2.94602 -6.32083,2.29597 -4.3568,-4.21849 -3.8727,2.3098 -1.09267,-2.54493 -7.66243,-2.97369 -1.00967,4.02485 5.08985,3.67907 -1.67357,2.33746 0.96819,3.38863 -0.94053,0.0276 0.71923,2.44811 -0.89903,0.80221 -3.67908,-2.43428 -4.78556,-0.73306 -0.52558,-3.04284 -1.57675,-1.41077 -10.56696,-0.47026 -1.42461,-6.45912 -4.20466,-2.01934 -1.65973,-0.24897 -3.67908,2.19915 -9.57113,-0.15214 -5.76757,-4.73025 -0.15214,-1.41077 1.67356,-0.31811 -0.47025,-1.38311 -4.68875,-3.56843 -0.29046,0.6639 -2.60024,-1.63208 -4.99304,0.85753 -1.47993,1.13415 -1.61824,-1.27246 -2.93219,3.36096 3.38862,0.0691 3.84505,2.36513 1.34162,5.31114 4.25998,3.43012 0.4011,6.98471 -7.96671,-2.39278 -6.58362,-0.49792 -7.73158,-5.51862 -1.20332,2.22681 -1.4246,0.60857 0.30429,1.93635 -4.43979,3.15349 -0.71922,-0.74687 -2.58642,0.95434 -1.12031,2.22681 -2.57259,1.30012 -3.18116,0.35962 -5.53244,-2.04701 -3.54077,4.38447 2.90453,2.25447 -0.70538,0.91285 -1.74272,-0.41494 -0.26279,1.16182 3.72057,2.00551 3.05667,3.18116 -1.02349,3.13966 0.70538,1.45226 3.2503,0.77455 -1.43843,1.45226 -0.23513,1.8672 1.5076,1.72889 -0.11065,1.02351 -7.42731,5.18666 -0.47026,2.35129 v 0 l -4.05251,1.09266 -1.8672,-2.39279 -2.4896,-0.77453 -0.71922,-3.9557 -4.1355,-5.28349 -5.91972,0.34578 1.10649,5.15901 -1.23096,1.30012 v 0 l -3.27798,-0.59474 -15.17273,2.46194 -4.70258,-0.34578 -3.08433,-1.97785 -3.1535,-4.7579 -5.18667,-1.27246 -4.27381,-5.29731 -4.09401,-0.70539 -2.33746,-1.47993 -4.24614,-7.66244 -3.85888,-0.24896 -7.6901,-3.56843 -6.52828,0.81604 -2.60026,3.52694 -1.41077,0.42875 -4.55044,-1.13414 -3.36096,-3.34713 -2.17148,-0.70539 -2.13,0.91286 -2.04699,4.86854 -3.94187,1.52143 -4.46745,-0.0692 -2.18532,-0.91285 -2.71089,-3.31946 -1.79805,0.0276 -8.16036,12.32352 -2.4066,10.62229 -12.42035,7.01237 -6.38997,-1.2033 -4.63343,2.4066 -6.69425,-3.45777 -5.14517,1.12032 -7.17835,-0.94052 -7.73159,1.96402 -0.083,-2.57258 3.49927,-3.5546 -1.4246,-1.79804 0.59474,-4.30148 -4.99304,-2.43428 -3.30563,-2.86303 -2.60024,0.34578 -2.13,2.26829 -2.33746,-0.11065 -4.46744,-6.41763 -5.86439,-2.68324 -4.14934,-5.26965 v 0 l 3.27797,0.0691 1.4246,-6.88789 -4.70257,-0.63623 -1.31395,-2.18531 0.47025,-1.95019 -0.8022,-2.57259 0.56708,-0.59474 2.48959,2.18532 5.54628,-0.13831 2.11616,0.8437 4.01102,-2.57259 -1.50759,-0.92668 -0.20746,-2.40662 5.97503,-1.77038 2.3098,-4.38447 5.07601,0.60858 0.89903,-3.96953 3.02901,-5.61544 1.03734,0.4841 -0.13831,-2.22681 9.58496,-17.13675 v 0 l 3.00135,1.95019 3.98336,0.31811 4.42595,-6.26549 1.65973,-0.42876 6.72193,4.99302 6.32081,1.20332 3.38862,2.26829 1.8672,0.11065 2.66941,-1.35545 3.90037,-3.99719 7.12303,0.24896 6.87406,-2.6279 4.31531,-3.22266 5.97504,1.17565 5.11751,-0.11065 4.42595,3.12583 7.06769,2.61408 3.1535,3.76207 7.37199,2.18531 3.70673,2.4896 2.19914,-1.95019 1.25864,0.70539 -0.0968,-1.81187 1.30012,-0.31812 -0.982,-5.3803 0.8022,-2.37896 -2.21298,-2.61408 -1.4246,-4.37063 -3.12583,-1.90869 -1.4661,-3.83122 -3.34712,-2.51726 1.2033,-0.0277 0.29045,-6.21016 -4.16316,-1.56291 0.29045,-2.44811 -1.67356,-0.71923 1.71505,-10.42865 -0.35961,-2.78005 -1.32778,-0.88519 -0.17981,-2.55876 -0.82987,-0.56707 0.0415,-3.02902 -1.83954,0.99584 -0.56707,-0.66389 -1.95019,0.49792 1.83954,4.7579 -0.15214,0.70539 -1.77038,-0.52559 -0.70539,1.24481 1.45226,0.59473 -2.10233,2.24064 -3.76206,-0.24896 -0.56707,1.92253 -4.42596,0.67772 -5.18667,-3.59608 2.36513,-3.01519 3.15349,-1.99168 -0.29046,-3.6929 2.01935,-2.5311 -1.53526,-0.99584 4.52277,0.47026 -0.87135,-2.21298 -2.07467,-1.59058 0.80221,-1.89486 2.39277,-0.34578 1.065,-2.06083 -2.94603,-1.4661 0.26279,-2.60025 -4.02485,-0.8437 0.30429,-2.39277 -2.01935,-2.10234 -11.83942,-2.37895 -0.89903,-4.1355 3.48544,-0.99584 0.49792,-4.84088 -8.94873,-7.30283 2.51727,-10.82977 v 0 l 27.55157,-8.20184 9.52963,-27.53775 2.55876,-3.96953 3.72057,-1.21713 1.74272,1.36928 6.91555,-3.78973 1.83954,1.35545 5.97504,-5.11751 4.09401,-0.56707 4.24615,-2.7524 3.22265,-2.93219 -0.24896,-1.18948 1.8672,0.67773 10.85742,-8.79659 4.25998,-4.19083 2.87688,-4.91004 -1.18948,-2.22681 3.07051,-5.83673 2.55875,-0.20747 z"
     class="land"
     title="Gelderland"
     id="NL-GE"
     inkscape:connector-curvature="0"
     style="fill:#63bb4a;fill-opacity:1;stroke:#ffffff;stroke-width:0.69155556;stroke-opacity:1" />
  <path
     d="m 827.20744,38.164552 1.92252,0.470259 3.52694,-2.863041 3.80355,1.535254 0.45643,1.286293 -0.55324,1.798044 -3.80356,-0.774542 -0.15214,0.691555 3.41628,0.843699 -0.23513,0.995839 -1.99168,0.262792 6.01653,0.954346 0.15215,-0.733048 -2.13,-0.733049 0.92669,-3.513103 4.28764,1.355449 4.8409,4.619591 -1.83954,6.59744 -0.23513,5.131342 3.16732,4.578098 -0.59474,0.954347 1.07883,0.982008 -0.29045,3.845049 2.40661,10.940409 7.84224,5.670755 -1.28629,2.558756 14.01091,5.269654 3.07051,2.295964 8.38165,2.337457 6.47297,-0.152142 0.91284,-1.313956 3.90038,-1.38311 0.0415,0.954347 -3.22264,2.959857 -0.0692,5.850565 -1.75655,4.85472 1.6459,3.54077 3.38862,2.29596 7.56562,0.55324 2.2268,1.6459 2.58642,0.69156 1.50759,-0.58091 2.03318,1.53525 7.48263,2.29597 0.76071,-2.80771 1.85337,16.08558 -2.06083,3.60992 4.09401,3.7897 -5.22817,1.6044 -2.97369,6.48679 -0.083,3.49928 -2.14383,3.05667 0.87137,6.07186 3.94187,2.90453 -0.45643,12.10222 2.8492,24.01081 1.12033,2.86305 -1.77038,2.21297 -5.75375,21.10628 -16.79097,27.84203 -3.63758,4.66108 -0.48409,1.05117 1.09266,4.08017 v 0 l -4.3983,0.2213 0.74689,-3.76207 -1.72889,0.17981 -1.42461,-1.45227 -3.23648,-4.73023 -0.81603,0.0691 -0.67773,-2.57258 -5.21433,-0.53941 6.21017,-15.08975 -4.61959,-1.23096 -2.12999,-1.83954 -17.57934,-25.72587 -41.18905,-44.17657 -1.72889,-1.16181 -9.08704,-0.47026 -12.80761,5.13134 -0.0415,-2.50342 -2.40661,-2.94604 -1.46611,-4.03867 -4.89621,-4.28765 h -1.81187 l -1.6459,-5.68459 -3.30564,1.13415 -1.57674,-4.41212 -3.23649,-5.64307 -0.82986,-0.0415 -1.38311,-3.56843 -7.4688,-2.65557 -3.80356,0.44259 -7.39964,1.93636 -0.12448,1.27246 -1.92253,1.85337 -6.95704,3.7897 -0.67773,3.52693 -4.68874,5.10369 -3.72057,11.35533 -0.49793,4.66109 -1.61824,0.51175 -2.78005,7.30283 -6.0027,-2.21298 v 0 l -5.25582,-2.10233 -2.89071,-3.59609 -3.19498,-1.71505 -6.0442,0.24896 -7.20601,-1.09267 -6.68042,-7.31665 0.96817,-13.02891 4.59194,-7.71773 0.30428,-1.93635 1.96401,-0.58091 2.21298,-2.40662 2.06084,-3.85888 0.30428,-1.6459 -3.6929,-6.74958 3.78972,-0.6224 -0.2213,-2.80772 1.12032,-1.35544 -0.63623,-0.91286 1.32779,-0.51175 1.77038,-3.78972 0.98201,0.69155 1.13415,-0.55325 -0.23513,-7.63477 1.61824,-0.954345 2.03317,0.26279 1.70123,-4.674916 3.19498,-2.185317 -2.71089,-1.687395 1.16181,-10.124373 -7.63477,-2.627912 -4.094,1.97785 -2.37896,-4.71641 -8.16036,-2.489599 -2.32362,-2.4896 -1.2863,-7.939058 5.10369,-7.441137 v 0 l 1.92252,-0.553245 0.0692,1.396942 0.87135,0.04149 10.44249,-2.60025 9.01788,4.578098 3.26415,3.48544 5.67075,-4.204657 12.8491,-5.421796 36.4035,-4.647253 30.29013,-11.106382 12.24053,-1.217138 z m -83.91335,-23.180942 1.0235,0.179805 -0.11065,0.912853 -5.62926,-0.843697 1.61823,-0.733049 z m 39.07288,-2.12999 1.53526,0.26279 -0.91285,1.72889 -3.52694,-1.867201 1.65974,-0.774542 z m 6.50063,-6.2516633 -0.15214,0.733049 -3.08434,-0.4011018 1.09266,2.6832354 -4.48129,-2.1299914 -3.54076,0.3319472 -0.52558,-0.6915563 1.38311,-2.1299906 1.39694,-0.4011022 4.73025,0.5117511 z m -26.943,-0.8851907 3.54076,0.8022042 3.69291,3.6375818 -4.43979,-0.6638927 -1.39694,-1.355449 -0.45643,2.8630397 -3.26414,-0.359608 -1.17565,0.802203 0.67773,1.756552 -1.07883,0.733049 -1.92252,-0.553244 -0.98202,-0.802205 -0.48408,-2.9045327 -3.48545,-3.1949869 1.07884,-6.16867593 0.82986,0.1106489 0.94052,3.19498673 z"
     class="land"
     title="Groningen"
     id="NL-GR"
     inkscape:connector-curvature="0"
     style="fill:#63bb4a;fill-opacity:1;stroke:#ffffff;stroke-width:0.69155556;stroke-opacity:1" />
  <path
     d="m 624.83063,649.389 1.23096,-1.30012 -1.10648,-5.15901 5.91971,-0.34578 4.1355,5.28349 0.71922,3.9557 2.4896,0.77453 1.8672,2.39279 4.05251,-1.09266 v 0 l 0.38728,1.97785 8.34015,0.20746 7.13685,3.81739 1.96402,2.95986 1.97785,0.70538 -0.29045,1.57675 h -2.2268 l -1.35546,1.6874 1.39695,4.43979 -0.98201,2.50343 0.89902,4.89621 10.19353,4.64726 1.31395,-0.45643 0.49792,0.982 6.41763,1.12033 -2.47576,8.58912 -1.65973,3.96953 -0.82987,-0.38728 -0.59473,5.56011 6.56977,5.13134 1.36928,2.62792 5.91972,5.72608 5.159,10.26268 4.68875,3.67907 3.12583,5.47712 -0.0415,7.31666 2.22682,6.8464 -0.95436,8.78275 -1.14797,0.49793 -0.083,6.33465 -1.6459,9.62644 4.34296,-0.20746 -2.58641,4.82706 2.58641,8.92107 -7.77308,7.16451 0.53941,2.06084 -5.29732,1.14798 -3.16732,8.63062 -5.44945,7.53794 -1.38311,4.05252 -8.31251,9.17003 -2.90453,1.78421 3.09817,6.61128 -3.94187,1.43843 1.38312,12.75229 1.95018,3.78972 3.72057,0.55324 4.99304,-3.90037 9.36366,-4.52277 3.63758,2.82155 -9.26684,4.59192 7.70392,5.25582 -2.68323,1.85337 -0.11065,1.45227 -7.48263,1.12032 -4.68875,3.05667 -3.3333,0.59475 -1.21714,3.72057 -1.13414,-0.6639 -1.6874,2.50343 -3.41628,1.42461 -0.29046,1.77038 -2.7109,3.13966 -2.53109,1.93635 -2.43428,0.73306 -0.96818,-0.59475 -1.31395,0.98202 -3.45778,3.30563 -1.31395,2.62791 -2.03318,0.73305 0.35962,1.12032 -2.36513,2.87687 -0.4426,5.62927 -2.4481,1.13414 0.41493,1.95019 -4.88238,0.20747 -5.06218,-10.82976 -4.86856,4.50894 -5.7814,0.80221 0.38727,2.15765 2.61408,3.19498 -1.23097,2.42045 1.39694,3.54077 3.60992,2.71089 -0.0553,2.047 2.03317,0.89903 -0.30428,4.92387 -2.25448,2.50343 1.02351,2.00551 1.57675,0.0968 6.3623,-3.66525 4.31531,-0.96817 2.9322,3.08434 3.18116,-1.35545 9.48813,-0.31812 -2.18531,7.08153 -2.17148,2.14382 2.51725,1.56292 0.63624,6.37615 5.78141,2.07466 1.17564,-0.41493 0.95435,0.89901 -0.24896,1.70123 4.46744,-0.31811 3.11201,1.93635 1.28629,-1.41077 -2.82154,4.21849 -1.49377,5.67076 3.04285,6.81873 -2.62792,4.53661 -0.65005,4.66108 -3.56844,-1.79804 -0.44259,-1.45227 -8.04971,3.49927 -0.15214,4.79939 2.22681,4.14934 -1.16181,0.6224 0.37343,1.06499 -3.72057,4.177 -1.05116,0.27663 -4.09401,-2.58642 -2.15765,2.51726 -0.1798,2.07467 2.80771,0.82986 2.60026,3.27797 6.08568,3.7344 -2.17149,4.03869 0.94052,2.24061 -8.68593,0.58093 -1.88103,-2.65557 -2.33747,-0.55324 -9.75093,4.08025 -0.60856,-1.52147 -1.88104,0.2074 -0.96818,1.17577 -2.6694,-1.93644 -0.80221,-4.27381 -5.21432,2.68323 -2.29597,2.37895 -1.32778,-3.44394 -2.8907,1.8672 -5.07603,1.06499 -3.56842,-5.03452 -1.9087,0.78837 -1.85337,-4.89621 -2.19914,0.37344 -5.64309,7.31666 h -2.48963 l -1.83954,-1.27246 -1.16181,1.45226 -3.67908,1.57671 -3.26415,-0.88516 4.01103,-8.39548 -1.99168,-4.79939 1.43844,-3.41629 -1.24481,-1.96401 -2.93219,-0.24896 -0.34578,-1.38312 -4.81322,-1.27246 -0.17981,-1.59058 -1.39695,-0.80221 0.41494,-1.8257 -2.40661,-4.66108 0.27662,-6.2655 1.57675,-1.34162 -0.82987,-1.03733 0.56708,-0.76071 4.95153,-2.62791 h 1.83954 l 0.78838,-2.32363 2.68323,-2.83538 1.16181,-4.99303 1.65974,-0.34578 2.28213,1.31397 1.13415,-0.58091 1.31396,-5.75375 2.62791,-3.31946 1.23097,-3.87271 2.37895,-1.18948 -1.36928,-3.36096 -1.53526,-0.27662 -3.41628,1.95019 -1.49376,-0.80221 -0.19363,-1.77038 9.91691,-12.30969 0.0139,-4.19083 2.15764,-4.61958 -3.96953,-3.70674 2.9322,-5.93355 0.51176,-3.96953 3.84505,1.39694 1.86719,-0.98201 -0.73305,-3.9142 1.82571,-2.43428 -2.03317,-4.10784 2.94602,-1.65974 3.22266,1.2863 1.72888,-1.88103 0.30429,-1.97785 -0.89903,-1.32778 -4.32914,-1.03734 0.0415,-2.61407 3.112,-3.81739 3.65142,-0.73305 1.00966,-3.16733 2.14383,-1.49375 -4.08018,-3.16734 0.29045,-1.21713 -2.8492,-3.90037 -2.21298,3.02901 -2.11616,-1.18948 -5.90589,3.76207 -0.52559,-1.28629 0.87137,-2.50344 -1.72889,-0.73305 -0.23513,-1.03733 1.61824,-1.36928 -1.07882,-0.23513 0.55323,-1.88103 -2.03316,-2.0885 -4.64726,-1.67356 -1.06499,1.21713 -4.7994,0.24896 -1.70123,1.31397 -4.39829,-1.52143 -2.69707,0.78837 -1.13414,-1.03734 -2.93221,0.16598 -1.3831,-2.2268 -0.0415,-2.18532 -19.22524,-8.11887 v 0 l 6.38997,-1.95018 -0.0415,0.76071 5.5601,-2.79389 1.34162,-14.5365 9.7371,-13.85876 44.4532,-13.87261 12.8491,-11.00956 -13.26404,-22.61387 -2.57259,-14.61948 -1.67356,-4.27382 -3.22265,-22.21277 11.61814,2.28214 3.67907,2.91837 7.20601,-0.74688 14.39819,-5.32498 5.3803,5.50478 1.27246,-1.23096 2.25447,-0.20747 -1.57674,-3.01519 -0.0277,-5.90588 -2.94603,-4.99304 -0.87135,-8.0497 -5.50479,-5.3803 -5.44945,-3.65141 -0.34578,-1.75655 1.70122,-4.96538 -4.56426,-1.43843 1.63207,-3.87271 -1.99168,-10.31801 -3.99719,-2.11616 -6.05803,-0.81604 -3.66525,-1.47993 -1.52142,-1.93635 -1.47992,-7.82841 z"
     class="land"
     title="Limburg"
     id="NL-LI"
     inkscape:connector-curvature="0"
     style="fill:#63bb4a;fill-opacity:1;stroke:#ffffff;stroke-width:0.69155556;stroke-opacity:1" />
  <path
     d="m 435.82849,627.01026 4.16317,5.25582 5.86439,2.68324 4.46744,6.41763 2.33747,0.11065 2.12999,-2.25446 2.60024,-0.34578 3.30563,2.86303 4.99304,2.43428 -0.59474,4.30148 1.4246,1.79804 -3.49927,3.5546 0.083,2.57258 7.73159,-1.97785 7.17835,0.95435 5.14517,-1.13416 6.69426,3.45779 4.63342,-2.39278 6.38997,1.2033 12.40652,-7.01237 2.4066,-10.62229 8.16036,-12.32352 1.79805,-0.0415 2.71089,3.31946 2.18532,0.91285 4.46745,0.0691 3.94187,-1.52142 2.06083,-4.86854 2.12999,-0.91286 2.17148,0.70539 3.37479,3.36096 4.55044,1.13414 1.39694,-0.42875 2.60026,-3.52694 6.52828,-0.81604 7.70393,3.56843 3.85888,0.24896 4.24614,7.66244 2.33746,1.47993 4.09402,0.70539 4.25997,5.29731 5.18668,1.27246 3.15349,4.7579 3.08433,1.97785 4.70258,0.35961 15.17273,-2.47577 3.27798,0.59474 v 0 l 2.80771,2.64174 1.46609,7.82841 1.53526,1.93635 3.65141,1.47993 6.05803,0.81604 4.01102,2.11616 1.99168,10.31801 -1.6459,3.87271 4.5781,1.43843 -1.70123,4.96538 0.34578,1.75655 5.44946,3.65141 5.49095,5.3803 0.87135,8.0497 2.95987,4.99304 0.0276,5.90588 1.57674,3.01519 -2.25447,0.20747 -1.27246,1.23096 -5.3803,-5.51861 -14.39819,5.33881 -7.206,0.73305 -3.67908,-2.91837 -11.61814,-2.28214 3.22265,22.21277 1.6874,4.27381 2.55876,14.61949 13.26403,22.61387 -12.8491,11.00956 -44.45319,13.8726 -9.73711,13.85877 -1.32778,14.55033 -5.56011,2.79389 0.0415,-0.76071 -6.38996,1.95018 v 0 l -0.82988,-0.73304 -0.982,-6.80491 0.19363,-7.98055 -6.38997,-5.96121 -2.43428,-4.25999 -5.6016,-1.57674 -1.31395,-0.11065 -3.9557,5.24199 -5.32498,1.00968 -0.67772,2.06083 -1.23097,0.13831 -3.59609,4.78557 -15.64298,-4.19083 -2.17149,4.25998 -9.30834,0.48409 -6.61127,-1.67356 -6.09952,1.39694 -1.99168,-1.92253 2.95985,-13.15338 -8.56145,-5.54628 -5.71225,1.88103 -2.4481,1.92253 -6.16868,-1.88104 -0.56708,-11.4245 -13.18105,-15.94726 7.13686,-13.60982 -5.73991,-13.59598 -7.21984,-0.45643 -1.54908,-2.6694 0.11064,-2.30979 -0.98201,-0.41494 -5.51861,5.32498 -1.2448,9.52963 -8.60296,7.289 -7.67625,9.65412 -0.74689,-1.14799 0.41494,1.36929 -1.39694,0.63622 -1.57676,-0.45642 2.21298,-0.59474 -2.95985,-2.03317 -2.17149,-3.91421 -1.28629,0.77455 -1.77038,-1.18948 0.26279,-0.8437 -0.82987,0.66389 -1.90869,-0.48408 -1.95019,2.69706 -3.48544,-2.06084 -1.12032,0.94052 -1.61823,-0.73305 -10.33185,2.06084 -3.83122,-2.10233 -0.94051,-4.61959 1.28629,-1.30013 2.37895,-0.20746 0.56707,1.12032 8.71361,2.80771 1.70123,1.53526 1.77038,-0.0415 -0.70539,-0.77455 1.38311,-1.18947 h -3.74823 l -1.42461,-8.25718 2.32363,-4.02485 1.16181,0.91285 1.20332,-1.09265 -2.17149,-1.64591 1.17564,-6.23783 -4.35679,-1.05117 -1.17565,-3.95569 -9.57113,-3.19499 -4.38446,1.6459 -1.54909,3.49928 -3.52693,1.85337 -3.01519,5.32498 -2.6694,0.63622 -2.25447,5.32498 -5.67076,2.58642 0.52559,6.12719 -2.25447,0.73304 -1.61824,-0.59474 -2.62792,1.36929 -2.4066,-1.23098 -11.6458,-2.17148 -8.72743,3.25031 -1.17564,-9.10087 3.76205,-8.22951 -2.32362,-3.40246 -13.96943,1.6459 -2.18531,2.28214 -4.73024,0.8437 -12.82144,6.79108 -1.00967,1.25862 3.12583,0.38728 1.38311,3.70673 -1.27246,0.77454 0.48409,1.67357 -2.43428,2.35129 1.8672,4.5781 8.57529,11.30002 -1.20331,1.43843 1.13415,2.37896 -1.99168,-0.38728 -6.04419,3.04284 -3.74823,0.34578 -7.67627,-1.05117 -1.68739,-6.56977 -12.71079,0.38727 v 0 l -0.74689,-2.19915 -1.38311,-0.1798 -0.71922,-1.57675 0.91286,-3.15349 -1.12032,-6.86024 2.62791,-3.31946 -12.24053,-27.44092 -0.0415,-2.69707 3.6929,-11.1617 0.12448,-3.5131 -1.95018,-3.85889 -7.21984,-8.85191 -1.02351,-3.58225 1.85337,-6.56979 2.4896,-2.46193 6.01654,-2.64174 2.32362,-4.35681 v 0 l 5.93355,0.70539 12.55864,-3.48544 4.55044,-2.11616 3.85889,-3.12583 2.01934,-4.7579 3.37479,-4.12167 1.23096,-0.0415 0.60858,-1.59058 4.43978,-3.7344 16.43136,5.49095 4.81323,0.49792 16.41753,-4.50894 3.45778,-2.78006 13.78961,-3.94186 6.62511,-4.68875 7.62093,-7.37198 3.11201,-7.93905 3.38862,-4.02486 6.32081,-2.7524 10.94041,0.13832 4.68875,-2.95986 3.9557,-4.09401 5.159,-2.57259 6.05803,-0.56707 z m -14.57799,131.29873 -1.8672,2.72474 -0.19364,-2.28214 -0.70539,0.59474 v -1.30012 l -1.2033,0.73304 0.81604,0.98202 -0.37344,2.12999 -1.2448,0.63622 4.96537,2.17149 0.7607,-1.07882 -0.52557,-0.87137 1.35544,-0.94051 -1.96402,-0.52558 -0.26279,-1.12033 1.34162,0.13831 -0.85753,-1.53525 2.07467,-1.05116 0.30429,0.73304 1.35544,-1.6044 -0.48409,-0.8022 -1.0235,1.00966 -4.05251,0.0692 z m 3.45778,1.12033 -0.98201,-0.80221 -0.56708,0.59474 z m -12.57248,6.68042 -0.55325,0.73305 0.59474,-0.13831 z m 9.30834,5.11751 -2.21298,0.63624 0.81604,0.8022 -0.91286,0.77454 2.54493,-0.41493 z"
     class="land"
     title="Noord-Brabant"
     id="NL-NB"
     inkscape:connector-curvature="0"
     style="fill:#63bb4a;fill-opacity:1;stroke:#ffffff;stroke-width:0.69155556;stroke-opacity:1" />
  <path
     d="m 501.48477,315.97623 11.92243,5.29731 9.80625,10.37333 v 0 l -0.49792,0.35961 v 0 l -9.69561,-10.26269 -11.383,-4.96536 h -3.84505 z m -130.55185,-100.4277 -11.39683,1.41077 -2.33747,1.27246 1.12032,1.12032 -0.7607,0.76071 -1.92253,-0.13831 -1.2033,-1.85337 1.24479,-2.32363 5.71225,-3.37479 4.66108,0.65007 4.73025,1.70123 z m 76.63819,11.7841 -2.95987,2.39279 -0.52558,3.44394 2.03317,-0.35961 14.31521,28.00801 -2.10233,25.28327 1.6874,0.11065 0.92668,1.61823 1.20331,5.02069 6.12717,6.23784 1.61824,0.53942 2.44811,0.0415 1.95019,-1.30012 3.48544,-5.11751 6.16868,0.35961 4.68874,2.4481 4.89621,-0.96817 0.59474,0.69156 -2.14382,0.7607 2.97369,-0.1798 2.55875,1.70122 0.94052,9.87542 4.28764,2.62791 -1.65973,-0.13831 -0.30429,1.9087 -4.06634,2.30978 0.70539,1.79805 -8.00821,2.047 -2.28214,10.11055 -1.09265,1.61824 -5.10369,2.84921 -2.07467,2.98752 -5.42179,1.39694 -3.22265,3.41628 -6.98471,1.21714 -1.61824,-4.60576 -2.97368,0.2213 -3.63758,-3.84505 -3.04286,0.89902 -1.61823,1.65973 -0.29046,-0.94051 -1.88103,0.29046 0.15214,1.32778 -1.49376,-2.69707 -1.28629,0.0415 -1.6044,1.72889 -3.80356,1.7289 -0.60857,1.39694 1.12031,9.95839 -0.59473,1.39695 2.6694,7.44114 -0.34578,2.29596 2.64175,2.47577 2.64175,5.89206 -0.15215,2.11616 3.45778,7.13685 0.96817,0.0415 -0.23513,1.39694 1.49377,1.21714 0.91285,3.04284 -3.23648,4.88239 -1.53525,-0.11065 -0.65007,0.85752 0.11065,3.76207 1.60441,1.8672 -0.13831,1.53525 -3.76206,-0.1798 -2.64174,1.32779 -0.96818,-0.56708 1.81187,2.86304 1.09267,-1.4661 1.49375,0.35961 -1.12032,2.29596 0.0276,5.08985 6.61128,1.25863 2.28212,-0.56707 0.41494,-4.50895 2.01934,-2.65556 -1.75655,-10.67762 2.51727,7.27516 1.88103,2.29596 5.18666,0.38727 -5.18666,2.22682 -1.50759,1.57674 h -1.61825 l -0.65006,4.43979 -1.47992,2.29596 -0.96819,0.47026 -0.11065,-1.25863 -1.59057,1.43843 -2.07467,6.01654 -2.86304,-0.13831 -1.68739,2.47576 -3.04285,2.03318 -1.6874,4.71641 -2.95985,1.57675 0.59474,0.92668 -0.87136,2.57259 -2.51727,-1.75655 -3.9142,1.6459 -3.65141,-3.29181 -0.98201,1.14798 0.65006,1.71506 3.52694,1.82571 -1.6874,1.93635 -0.65007,-1.46609 -1.17564,0.99583 4.55043,2.9322 3.34713,4.03869 3.23649,0.65006 3.01518,-1.42461 1.54908,1.50759 -1.35545,1.89487 0.60858,1.32778 1.02349,-0.11065 -0.22129,-0.96817 1.96401,0.74688 5.56011,-0.29045 1.77038,-1.2863 3.15349,0.47026 4.13551,3.112 5.73991,1.4661 v 0 l 3.08434,2.86303 15.21422,-2.60024 13.45767,3.38862 6.43147,4.24615 5.26965,5.21433 v 0 l -6.54211,4.67491 -6.38998,-1.14797 -2.07467,1.89486 -1.28629,-0.56708 -3.49927,7.20601 -4.79939,4.27382 -0.67773,10.9819 -6.0442,12.07455 -14.96526,-0.81604 -0.38726,-1.56291 4.0525,-2.71089 1.16182,-2.06084 -2.75239,-5.49095 -2.62791,-1.4661 -0.67773,1.31396 -9.39132,0.24896 -7.2475,-2.95987 -0.87136,-3.02901 4.57809,-2.06083 -3.01517,-2.95986 -0.78838,-3.9557 -1.88103,0.78838 -2.07467,-6.4868 5.6016,-1.67356 0.23513,-1.57674 1.77038,-0.92669 1.65973,1.2863 -1.05116,-2.7524 -2.32363,0.17981 -1.70122,2.03317 -2.07467,-1.74272 -0.982,0.29046 -2.95987,3.70673 h -0.96817 l -1.88103,-4.42596 -1.35545,-0.56707 -3.38862,0.24896 -3.63758,3.63758 -6.15485,-1.28629 -1.65973,0.71922 0.29045,3.09817 -3.22265,2.35129 -1.61824,3.09816 -9.36367,0.17981 -7.66242,7.27516 -4.12168,1.89487 h -3.41628 v 0 l -2.28214,-0.49793 -2.14382,0.92669 -1.27246,1.85337 -6.58361,3.66525 -1.70123,2.14381 -1.27246,-0.96817 -0.33195,-7.7316 -4.2738,-0.67772 -3.67908,2.53109 -4.99304,0.38728 -7.09536,4.1355 -4.48127,0.31812 -6.36232,-1.67357 -2.32363,0.78837 -3.22264,-0.74688 -1.49376,-1.21714 -0.2213,-1.81187 1.92252,-2.91836 1.72889,-9.05938 -0.4011,-2.82155 4.32914,-4.38446 5.26965,-11.67346 -5.94738,-2.25447 -2.95985,0.81604 -1.38311,2.57258 -14.85462,-6.70809 v 0 l 14.61949,-37.98023 1.17564,-8.34016 1.12033,-1.53525 -0.82988,-2.36512 4.24616,-10.76061 5.6016,-31.23064 6.43146,-54.06582 1.96402,-9.26684 3.15349,-6.97088 3.69291,-12.53099 5.07602,-20.27641 1.13415,-5.24199 0.96817,-19.55718 2.32363,-6.19635 1.96402,-1.81187 9.65412,-0.87137 -0.17981,0.80221 1.38311,-0.0691 -1.09265,0.91286 1.6459,2.53108 1.60441,-0.42876 0.76071,-1.77039 -1.34162,-1.18947 2.12999,-0.42876 0.55325,2.82155 -2.73857,7.57945 3.59609,7.67626 14.92377,9.04554 7.10919,-1.88103 6.87407,-3.47161 3.34713,-4.23231 0.94051,-3.22266 2.07467,-1.85337 7.51029,-2.17147 2.54493,0.71921 3.41628,-1.12032 1.83954,1.30013 27.53774,-24.39809 v 0 l 0.89902,1.20332 v 0 z m -38.18771,-79.10012 1.77039,0.35961 4.20465,7.20601 -1.12031,2.32363 -0.4426,-1.20331 -0.1798,17.23356 -0.85753,2.61409 -5.32498,4.68874 -0.19363,3.74823 -2.33746,4.21849 -2.32363,1.2033 -1.77038,2.61409 -5.36647,1.30012 -5.89206,7.66244 0.98201,1.23096 -0.63623,0.91286 -8.9349,-2.83538 -0.56708,0.47026 0.82988,1.38311 2.54491,1.00967 1.99169,2.14382 -2.10233,-0.65006 -2.36512,1.38311 0.59474,0.80221 -4.01102,0.42876 -2.22681,1.52143 -3.72057,-5.54628 -0.76072,-3.9557 0.34578,-6.74959 2.51727,-10.92658 6.26549,-12.93207 15.93344,-25.10348 5.62927,-5.97503 2.01933,-0.76069 1.38312,0.58088 3.43011,5.4218 z"
     class="land"
     title="Noord-Holland"
     id="NL-NH"
     inkscape:connector-curvature="0"
     style="fill:#63bb4a;fill-opacity:1;stroke:#ffffff;stroke-width:0.69155556;stroke-opacity:1" />
  <path
     d="m 680.61149,257.80258 3.25031,5.0207 14.89611,17.05376 -7.13685,7.89756 -0.2628,1.74272 -9.28067,3.34713 -1.4661,2.06084 8.02205,20.69134 4.14933,4.93771 1.68739,-0.69156 3.33331,0.94052 1.17564,-1.61824 2.91836,-0.69156 2.19915,2.06084 3.72057,0.99584 2.44811,2.91836 1.56291,0.11065 1.85337,1.72889 2.36512,-1.21714 1.97785,2.18531 1.52142,-1.25863 5.69842,-1.46609 0.74688,1.28629 -0.52559,2.33746 8.07737,5.83673 2.46194,5.28348 0.55324,3.74823 1.85337,2.15766 2.51727,-1.97785 2.0885,0.0692 0.69156,-1.25864 1.97784,1.00967 2.7109,-3.41628 0.76071,2.79388 2.047,1.77038 3.69291,-0.51175 1.54909,-3.41628 2.08849,2.33746 6.21017,0.44259 3.0705,2.87687 -1.30012,-13.52682 8.34016,-6.40381 13.96943,-3.13966 20.78815,8.9349 -2.10232,7.93906 2.51726,0.15214 v 0 l 3.04285,4.06634 -1.49377,9.62646 10.37334,9.15619 -4.24616,1.18948 -4.81322,-1.07883 -2.3098,5.14517 -7.62094,-1.54908 5.44946,11.38301 -1.54909,12.36501 13.76195,8.92106 3.60992,1.07884 16.73565,-0.0277 -0.0139,3.36097 2.25447,-0.47026 17.09526,5.56011 4.56426,-3.5546 3.22265,-6.8049 2.43428,-1.71507 3.01517,6.62511 1.79805,7.48263 2.44811,2.22681 3.08433,7.80074 5.0207,0.56708 3.27798,9.336 -0.15215,7.62095 -3.67907,5.14517 -1.95019,4.74407 -0.37344,3.49927 -4.20465,8.82425 0.33194,5.85056 3.49927,6.48679 4.38446,4.89621 -0.96817,2.24064 -4.74408,3.07051 -4.3153,0.77454 -3.30564,-1.31396 -3.98335,0.96818 -1.21715,1.67357 -0.85752,4.95153 -5.36647,9.1562 -9.50198,1.83954 -0.6224,2.35129 -4.91004,4.56427 -2.07467,9.28067 -3.67908,3.55459 -20.77433,0.81604 v 0 l -9.86157,0.0692 -11.74262,-4.12168 2.32363,-3.7344 -0.56708,-5.54627 0.74688,-1.89487 -1.00967,-1.74272 -4.50894,-2.37894 -0.91286,-0.0692 -1.07882,1.88104 -2.22681,-1.85337 -3.66525,3.27797 -1.83953,-1.70123 0.55324,-2.03317 -3.48544,-3.07051 -8.02204,1.96402 -8.69977,-1.42461 -4.92387,1.24481 -3.56843,-2.69707 -1.30013,-4.67491 -3.18115,-0.99585 -1.79805,-3.63758 -4.41213,-4.61959 -2.43427,-4.74408 0.0692,-1.78421 -7.63477,-0.85752 -6.56979,1.28629 -2.76622,2.06083 -0.12448,3.02901 -3.67907,0.58091 -4.52277,-0.0415 -1.67357,-1.92252 -3.04284,1.3831 -1.43844,-0.49791 -0.11065,1.03733 -5.00686,-0.35961 -6.98471,-1.45226 -3.19499,-2.39279 -5.71225,-0.0415 -0.81603,3.49927 -0.99585,-1.06499 -0.22129,1.6044 -0.85753,-0.35961 1.2033,2.10233 -0.44258,1.065 -0.99585,-2.60025 -3.34713,-1.53525 -0.59474,-2.28214 1.99168,-2.17148 0.2628,-1.96402 -2.7109,0.24896 -3.72057,-1.45226 1.25863,-3.20882 -3.92803,-6.36232 -0.17981,-3.45777 -1.75655,-3.59609 -0.45643,-0.82986 -3.74823,-0.49792 -0.87136,-5.53245 -2.17148,-0.29045 1.25863,-4.31531 0.0139,-7.10919 3.96953,-2.61408 -3.23648,-2.14382 -0.35961,-2.11616 0.87136,-1.20331 4.34297,-0.82987 4.5781,-2.18532 2.72472,-11.00956 -1.36927,-4.91004 -5.8229,-7.19218 -0.63623,-9.03171 -1.8672,-2.25448 -5.04836,-2.90453 -2.51726,-5.08984 -6.41764,-4.16317 -1.53525,1.82571 -2.36512,0.82986 -9.52963,9.86158 -1.89486,-2.72473 -4.06635,2.39278 -0.85754,-0.78836 -1.65973,0.7607 -2.97368,-7.06769 -4.43979,-6.23784 -3.40246,-3.01518 -2.97368,1.10649 v 0 l -2.40662,-11.90858 -9.32217,-9.95841 -7.17834,-0.27661 0.083,-9.48815 12.98742,0.0277 1.72889,-1.43844 12.89059,-2.83538 2.84921,1.8672 3.23648,-0.40111 5.35264,-3.62375 7.24751,-1.59057 4.92387,-3.26414 1.09265,-1.88103 -3.15349,-3.48544 -3.55459,-0.96819 -3.48544,-3.05667 -8.03588,-2.19915 -0.0829,-1.23096 2.47576,-2.80771 3.98336,-2.98753 0.52559,-2.19915 -2.84921,-5.18666 -1.53526,-0.78837 -4.55043,-12.87677 -14.1354,-11.54898 -4.96537,-1.72889 h -4.01102 l -4.95153,-6.74957 v 0 l 5.24199,-3.65142 2.98751,2.06084 0.48409,1.47993 1.38311,-0.78838 8.11887,2.15765 4.57809,-2.15765 5.8229,-5.49095 -0.0276,-2.82154 0.98201,-1.18949 3.3333,-0.71921 2.03317,0.82986 0.0277,-1.92252 3.9142,-1.30012 2.97369,7.44113 2.8907,1.38311 5.71224,-1.56291 0.98202,1.99168 5.159,-2.78006 -0.27662,-4.41212 2.47577,-1.00967 3.83122,0.13831 z"
     class="land"
     title="Overijssel"
     id="NL-OV"
     inkscape:connector-curvature="0"
     style="fill:#63bb4a;fill-opacity:1;stroke:#ffffff;stroke-width:0.69155556;stroke-opacity:1" />
  <path
     d="m 390.58693,481.52081 h 3.41628 l 4.10785,-1.89487 7.66242,-7.27516 9.36367,-0.17981 1.61823,-3.09816 3.22266,-2.35129 -0.29045,-3.112 1.67356,-0.70539 6.14102,1.27246 3.63758,-3.63758 3.38862,-0.24896 1.35545,0.5809 1.88103,4.41213 h 0.96817 l 2.95986,-3.70674 0.98201,-0.27662 2.07467,1.74272 1.71505,-2.03317 2.3098,-0.17981 1.05116,2.7524 -1.65973,-1.2863 -1.77038,0.92669 -0.24896,1.56291 -5.6016,1.68739 2.08849,6.4868 1.88104,-0.78838 0.78837,3.9557 3.01518,2.95986 -4.57809,2.07466 0.88519,3.02902 7.23367,2.95986 9.39132,-0.24896 0.67773,-1.32779 2.62791,1.4661 2.76622,5.49095 -1.16182,2.06084 -4.0525,2.71089 0.38726,1.56291 14.97909,0.81604 6.0442,-12.07455 0.67773,-10.9819 4.78556,-4.27382 3.49927,-7.20601 1.30012,0.56708 2.07467,-1.88103 6.38998,1.13414 6.54211,-4.67491 v 0 l 15.36637,14.63332 v 0 l -2.51727,10.82976 8.94873,7.30283 -0.49792,4.84088 -3.48544,0.99584 0.89903,4.1355 11.83942,2.37895 2.01935,2.10234 -0.30429,2.39277 4.02485,0.8437 -0.26279,2.60026 2.94603,1.46609 -1.065,2.06084 -2.39277,0.34577 -0.80221,1.89486 2.07467,1.59059 0.87135,2.21297 -4.52277,-0.47025 1.53526,0.99583 -2.01935,2.5311 0.29046,3.69291 -3.15349,1.99168 -2.36513,3.01518 5.18667,3.59608 4.42596,-0.67772 0.56707,-1.92253 3.76206,0.24896 2.10233,-2.24064 -1.45226,-0.59473 0.70539,-1.24481 1.77038,0.52559 0.15214,-0.70538 -1.83954,-4.75791 1.95019,-0.49792 0.56707,0.66389 1.83954,-0.99583 -0.0415,3.02901 0.82987,0.56708 0.17981,2.55875 1.32778,0.88519 0.35961,2.78005 -1.71505,10.42866 1.67356,0.71922 -0.29045,2.44811 4.16316,1.56291 -0.29045,6.21017 -1.2033,0.0277 3.34712,2.51725 1.4661,3.83122 3.12583,1.90869 1.4246,4.37064 2.21298,2.61407 -0.8022,2.37896 0.982,5.3803 -1.30012,0.31812 0.0968,1.81187 -1.25864,-0.70539 -2.19914,1.95019 -3.70673,-2.4896 -7.37199,-2.18531 -3.1535,-3.76207 -7.06769,-2.61408 -4.42595,-3.12583 -5.11751,0.11065 -5.97504,-1.17565 -4.31531,3.22266 -6.87406,2.6279 -7.12303,-0.24896 -3.90037,3.99719 -2.66941,1.35545 -1.8672,-0.11065 -3.38862,-2.26829 -6.32081,-1.20332 -6.72193,-4.99302 -1.65973,0.42876 -4.42595,6.26549 -3.98336,-0.31811 -3.00135,-1.95019 v 0 l -6.8879,-2.51726 -2.14382,-7.01237 -5.03453,-2.48961 -4.16315,-0.66388 -6.50063,2.72472 -6.05803,5.73991 -1.70123,3.26414 -2.21297,0.24896 -3.3748,-2.65556 -2.53108,-0.15215 -6.0857,6.07185 -6.19633,-1.4246 -4.61959,7.15069 -8.57529,2.06083 -1.78421,-6.98471 -6.29316,-7.12302 -2.82155,-5.51861 -1.67356,-0.56708 -1.93636,-2.58641 8.76893,-2.17149 -1.59058,-3.90037 -8.82425,1.81187 -0.60857,-1.99168 v -1.27246 l 1.92253,-1.38312 -0.37345,-2.6694 4.3983,-5.5601 3.60992,-2.73857 4.57809,-1.67356 1.1065,-2.2683 -8.96257,0.60857 0.083,-1.89487 -1.61824,-3.22264 -0.24896,-8.63061 -7.48263,-5.3803 0.35961,-1.45228 2.68324,-1.2033 1.68739,-4.66108 1.75655,-0.74689 3.31947,-1.06499 0.51175,2.0885 1.21713,0.96817 5.85057,0.31812 1.09265,-0.85753 -0.81603,-5.58777 4.55043,-2.24063 -7.33049,-5.08986 -3.30563,-1.17564 -6.69426,-8.00822 -1.47992,0.0692 -0.31812,-5.3803 -1.54908,-2.55875 z"
     class="land"
     title="Utrecht"
     id="NL-UT"
     inkscape:connector-curvature="0"
     style="fill:#63bb4a;fill-opacity:1;stroke:#ffffff;stroke-width:0.69155556;stroke-opacity:1" />
  <path
     d="m 246.27312,787.97673 0.85752,-0.34578 1.00968,2.17148 -2.54493,0.4841 -3.37479,-1.96402 1.6459,-1.07882 z m -128.93361,-13.77578 4.06635,1.30012 -0.0276,1.00967 2.03317,0.0692 2.17149,2.55875 4.84088,0.87136 1.95019,1.67357 15.36637,3.15349 7.09536,7.41347 3.80355,-0.34578 5.36647,1.07884 -0.78837,2.69706 2.29596,1.21713 0.92668,-0.34577 -0.23512,-4.25998 4.21848,0.11065 2.37894,1.85337 2.10233,0.31811 -0.67772,1.32779 1.6044,3.11199 0.11065,-4.23231 0.82988,1.71506 1.13414,-1.6459 3.94187,2.30979 5.58777,-0.13832 1.95019,-3.18115 3.26414,-0.982 4.85471,-3.91421 8.90725,-2.9322 1.07882,0.8437 0.94051,-5.6016 1.20331,-1.30012 -0.70539,-4.25999 2.28214,-3.22264 9.54347,1.89486 -0.4426,0.73304 2.71089,1.99168 0.78838,4.34298 h 0.89903 l 2.95985,5.14517 9.08704,0.87136 11.2032,10.30418 -3.56842,-5.69842 3.74823,-0.98201 1.35544,1.89487 2.21298,0.69155 1.49376,2.40661 0.56708,-0.87136 -1.42461,-1.89487 3.43012,0.17981 -4.06635,-1.6459 6.6251,0.13831 -0.91285,-0.91285 -6.12718,-0.6224 -1.81188,-3.112 0.11065,-1.60441 2.33746,-0.13831 2.17148,-1.32779 0.59474,4.25998 4.70258,2.13 -4.24615,-3.45778 0.45643,-2.17149 0.82986,1.92253 1.12033,-3.98336 3.95569,0.59474 1.54909,1.18947 0.89902,2.97369 3.67907,4.82706 -14.3152,19.21141 -22.5862,16.19623 -0.74688,1.32779 -4.02485,0.94051 -1.31396,-1.46609 -2.54493,1.39694 -0.78837,-1.32779 -1.43844,0.0415 -5.90588,4.10784 -0.41493,-0.52559 -1.95019,3.23648 -3.12583,0.55325 -0.98201,2.68323 -4.96536,1.42461 -1.70123,-2.72473 -0.6639,1.12031 -1.27246,0.0692 -0.4011,2.68324 -1.4661,1.21713 -5.21432,1.77039 -1.70124,-2.54492 3.16733,-3.20882 -1.2863,-2.15765 -6.34847,4.14932 -1.53525,-0.94051 -2.06084,0.76072 -1.27246,-0.52559 -3.01519,1.53525 -3.91421,-1.4246 -0.12448,1.60441 -2.78003,-2.15766 -0.34578,-10.49781 1.34161,-3.6929 -3.95568,-2.72474 -0.98202,-0.41492 -1.31395,1.28629 -3.15349,-3.59609 -6.27933,-0.8437 -1.39694,0.55324 -4.8409,-1.39694 -1.28629,-1.81187 -2.32363,-0.0415 -4.61958,-3.31947 -3.78973,0.69155 -10.82976,-6.0442 -2.17148,2.58642 1.05117,1.88103 -0.85754,2.19915 -4.32914,-2.75239 -1.6874,1.67356 -2.47576,-0.31811 -1.12032,2.37895 -1.20331,0.1798 -1.6459,-1.6459 -2.14383,0.41494 2.65558,14.34286 -16.500513,1.63207 -5.324978,-1.25863 -0.982009,-3.7344 -1.576748,-1.49376 -1.576746,1.00967 -4.481281,-5.8229 -2.710897,-1.4661 1.313955,-1.07882 -0.04149,-1.99168 -2.323627,-1.95019 -0.857528,-2.17148 1.964017,-1.05116 -3.803555,-4.97921 5.518612,-6.25166 -0.401101,-3.13967 -1.881031,-2.4481 0.13831,-3.66524 -1.811875,-3.49927 2.973689,-2.90454 0.414934,0.52558 9.170027,-4.68874 1.811875,-0.27662 1.244801,1.39694 3.955698,-2.37896 6.417621,-1.50759 4.84089,-3.18115 7.09537,0.52559 z m 31.53494,-46.77683 0.74688,-1.39694 0.19364,0.91286 z m 15.71213,-3.58225 2.51727,0.56707 -5.21433,0.31812 0.37344,-1.32778 z m 3.23649,-0.81603 -1.2863,-0.95436 1.59059,0.27663 z m -1.89486,-0.98202 0.23513,1.16182 -2.9737,-0.8437 z m -18.4922,-0.31811 2.22681,2.25447 -1.09266,2.91837 -1.72889,-4.31531 z m -3.22264,-3.43012 0.56706,0.73305 -1.3831,-0.24896 z m 36.65243,-69.0864 1.81187,1.77038 6.26549,1.97785 2.22681,-0.42876 4.43978,-5.6431 7.56562,-3.09816 4.05252,0.56708 3.112,2.82154 8.35399,1.8672 1.49376,4.68875 3.60992,5.11751 0.33195,6.83257 2.6279,6.16867 11.2032,1.41078 4.13551,1.47992 7.33049,0.24896 17.16441,12.53099 4.094,1.34161 v 0 l -2.32362,4.35681 -6.01653,2.64174 -2.48961,2.46194 -1.85337,6.56978 1.02351,3.58226 7.21984,8.85191 1.95019,3.85888 -0.12448,3.5131 -3.69291,11.16171 0.0415,2.69706 12.24054,27.44092 -2.62791,3.31947 1.12032,6.86024 -0.91286,3.15349 0.71922,1.57674 1.38311,0.17981 0.74688,2.19915 v 0 l -7.88373,0.34578 0.55324,-2.65558 -2.69707,-4.48128 -3.98335,-1.8257 -1.43844,0.27661 -1.42461,-2.24063 -10.78826,3.88653 -15.62915,-4.34296 -5.97504,-4.50895 -1.07884,-2.10233 0.76072,-1.18947 -3.52693,-1.09265 -0.2213,-1.50759 -0.8022,0.41492 -5.49095,-2.76622 -6.27933,-6.26549 -8.97639,4.68875 -2.03318,-0.6639 0.23513,1.78422 -0.98201,0.20746 0.96818,3.40246 -5.49095,13.78962 -1.53525,0.73304 -4.88239,-1.46609 -2.95985,2.12999 -9.43282,2.2683 -8.86573,-7.27516 0.37344,-1.5076 -2.69707,-0.17981 -2.36511,-1.53525 -2.06084,1.14799 -2.78006,-0.31812 -1.27246,-1.05117 -1.16181,-4.06634 -1.09266,0.11065 -3.30563,-4.43979 -4.89621,-3.54076 -6.72193,-0.27662 -2.64174,2.97368 -5.7814,0.56708 -1.61824,-1.30012 -0.11065,-2.68324 -0.76072,0.11065 -0.13831,2.90454 -1.09265,-0.31812 v -1.14798 l -0.45643,0.94051 -0.45643,-1.23096 -0.29045,0.87135 2.25447,1.67356 -5.94737,0.11065 -2.47578,-3.15349 -1.28629,0.11065 -5.53245,-4.73024 -6.2655,-10.30418 -9.4743,-6.8049 -4.61959,-5.29732 1.286293,-5.54627 12.918247,-8.74126 16.0026,-9.10087 6.56979,0.0691 5.8229,2.14383 10.74677,-3.85888 1.34162,-7.13686 -1.17565,-1.43843 1.57675,-0.27662 5.22816,-5.83673 -0.33195,-0.66389 1.07882,-0.27662 1.3278,-2.91837 -0.70539,-0.88519 1.07883,-0.31812 0.0415,-3.98336 -3.23648,-1.0235 -2.51725,-2.07467 -3.07052,-5.80906 -0.23513,-4.55043 3.49928,-7.19218 2.54492,-1.93636 13.60982,-4.41213 11.42448,1.13416 0.94052,-4.37063 z m -6.91557,23.15329 -1.35544,-1.36929 -1.00966,0.17981 -0.98201,0.70539 -0.45643,2.43427 -6.47295,4.39829 -7.62095,2.98752 -0.0691,3.90037 1.09266,0.13832 -0.41494,1.47992 -1.20331,0.0415 -1.81188,4.39829 1.24481,-0.24896 -1.99168,2.18532 2.01934,1.05116 -2.18531,-0.63622 -0.85754,3.05667 -1.23096,-2.11616 -2.01935,1.75655 -1.68739,8.36783 0.33195,0.66388 1.16181,-0.84369 0.0415,0.70538 2.17149,-0.45642 3.65141,2.64174 2.54493,0.0415 7.74541,-2.6694 2.62792,0.56707 1.39694,-1.32778 4.96536,-1.18948 4.05251,0.77454 3.56842,-0.84369 0.85754,1.09265 4.21849,0.77455 2.33745,2.48959 3.60992,6.29316 0.71922,-0.63623 -0.67773,0.98201 2.28214,3.54077 -0.26279,1.09265 -5.18667,1.96402 -2.44811,3.30563 -1.75655,0.56708 -4.79939,-4.42596 -3.80356,0.87137 -2.58642,2.10233 -9.62643,-2.5311 -5.85056,3.40245 -6.69426,6.77725 -1.09266,-2.46194 0.60857,-2.10233 1.38311,2.62792 0.0692,-0.94052 -4.09401,-7.64861 2.62791,-3.44395 -3.3333,3.16733 -5.49095,-4.42595 -1.70122,-0.27663 -1.72889,-4.38446 0.40109,-1.82571 -4.20465,1.75655 0.38726,3.26415 3.63759,5.2005 5.15901,3.05667 3.26414,7.96672 3.78973,5.8644 0.34578,-0.63624 0.74687,1.36928 -0.48409,-1.25863 3.49928,-0.56708 -2.58642,-0.0691 -0.63624,-0.8437 4.95155,-2.4896 -0.74689,-1.43843 1.65974,-4.20466 2.44811,-1.57675 1.05116,0.0692 -0.59474,1.41077 0.94051,-1.0235 9.72328,0.49792 2.84919,-1.6874 5.03452,-0.87136 2.7524,1.12032 1.16181,1.89486 2.60025,0.52559 1.28629,-1.78422 0.81604,1.16181 3.45778,-0.95434 3.0705,0.59474 2.64175,-1.57675 3.11199,0.52558 3.27798,6.41764 3.38862,-1.47993 2.54493,0.45642 7.48263,2.69708 0.2213,2.83537 h 0.67771 l -0.23513,-2.80771 2.71091,1.12031 0.91284,1.85337 4.74408,3.65142 1.61824,-0.49793 1.79805,5.57394 -0.82988,2.35129 5.15902,7.74543 1.13414,0.0415 1.96402,4.27381 9.84776,5.04836 3.34712,-0.56708 6.19634,-3.60992 4.21849,0.73305 2.14382,1.32779 2.40662,-0.17981 -1.42461,-18.0081 -9.40516,-4.24615 -0.87136,-2.17149 1.23097,-2.53109 -2.10233,-2.42045 -3.30563,-0.56707 -1.61824,1.0235 -1.70123,-1.54908 -7.13685,0.49791 -6.09952,-1.12031 -0.23513,-1.32779 -1.61824,-0.73305 -0.78837,-3.54076 -2.28214,-1.43844 -0.12448,-1.6459 -5.10368,-1.47993 0.59474,-1.64591 -1.39694,-2.07466 -4.55043,-2.87687 -3.00136,-0.45643 -1.20331,-1.61824 1.49376,-3.96953 7.10919,-1.36928 6.69427,-4.32914 4.81322,-1.47993 5.6016,0.95436 1.35545,2.60024 2.37895,1.34162 -0.29045,-0.98201 6.16868,-0.73304 2.82154,0.70538 0.37344,-1.0235 2.54493,-0.38727 0.11065,-0.77455 -1.02351,-0.27662 1.43843,-0.8022 -0.083,-1.27246 -3.84505,0.95434 -6.47296,-0.1798 -2.11616,-4.25998 -3.43012,-2.18532 -0.1798,-3.65141 1.27246,-0.13831 v -1.12033 l 3.27798,-2.8907 6.21016,1.23097 9.47432,5.3803 -1.09266,-3.48544 -6.68043,-2.95985 0.2213,-1.93636 -1.49376,1.36928 -2.93219,-1.0235 -0.15215,-1.02351 4.55044,0.11065 -1.07883,-1.43843 -3.60992,0.70539 3.41629,-1.36929 0.982,0.49792 0.65007,-0.88518 -2.10233,-3.98336 -9.01789,2.00551 -3.00135,2.07467 2.36512,2.8492 -0.37343,1.05116 h -1.02351 l -0.82986,3.195 -3.00136,1.8672 -2.58641,3.41628 -2.60026,1.27246 -2.06083,-0.91285 -8.72743,4.64725 -8.51996,1.2033 -4.99304,-3.76206 -1.88103,-3.27797 -2.80771,2.21298 -6.12719,-1.50759 6.32082,-5.51861 -1.81187,0.45642 -6.0442,4.78556 0.11065,-3.34712 -1.39694,-4.67492 -1.92253,-2.36512 0.11065,-1.54908 -3.83122,-3.62375 -2.36512,0.27661 -5.40796,-2.78004 0.15214,-2.11617 -1.13415,-1.68739 -2.36512,-0.73305 -1.39694,0.1798 0.11065,0.8437 z"
     class="land"
     title="Zeeland"
     id="NL-ZE"
     inkscape:connector-curvature="0"
     style="fill:#63bb4a;fill-opacity:1;stroke:#ffffff;stroke-width:0.69155556;stroke-opacity:1" />
  <path
     d="m 291.8328,661.837 4.35679,3.23648 -5.49095,-0.20746 -1.50759,-1.65974 z m -16.37604,-10.99574 7.33049,1.41078 10.74677,4.41212 1.31396,1.75655 -5.06219,1.97785 -6.2655,-0.81603 -10.81592,-7.33049 1.09266,-1.54909 z m 49.14194,-204.327 14.85461,6.70809 1.38311,-2.57258 2.95986,-0.81604 5.94738,2.25447 -5.26966,11.67346 -4.32914,4.38446 0.40111,2.82155 -1.72889,9.05938 -1.92253,2.91836 0.2213,1.81187 1.49376,1.21715 3.22265,0.74687 2.32363,-0.78837 6.36231,1.67357 4.48128,-0.31812 7.09536,-4.1355 4.99303,-0.38728 3.67908,-2.53108 4.27381,0.67771 0.33194,7.7316 1.27246,0.96818 1.70123,-2.14382 6.58361,-3.66525 1.27246,-1.85337 2.14383,-0.92669 2.28213,0.49793 v 0 l 0.083,2.35129 1.54908,2.55875 0.30429,5.3803 1.49376,-0.0692 6.69425,8.00822 3.30564,1.17564 7.33048,5.08986 -4.55043,2.24063 0.81603,5.58777 -1.09265,0.85753 -5.85056,-0.31812 -1.23097,-0.95435 -0.49792,-2.10232 -3.3333,1.06499 -1.75655,0.74689 -1.68739,4.66108 -2.69707,1.2033 -0.34577,1.45228 7.48262,5.36647 0.23513,8.63061 1.61824,3.23647 -0.083,1.88104 8.9764,-0.60857 -1.12032,2.2683 -4.5781,1.67356 -3.60992,2.73857 -4.39829,5.57393 0.37344,2.65557 -1.92253,1.38312 v 1.27246 l 0.60857,1.99168 8.82425,-1.81187 1.59058,3.90037 -8.78276,2.15765 1.95019,2.58642 1.65973,0.56708 2.82155,5.53244 6.30699,7.12302 1.77038,6.97088 8.57529,-2.04701 4.61959,-7.15068 6.19633,1.4246 6.0857,-6.05802 2.54491,0.13832 3.3748,2.65556 2.21297,-0.24896 1.70123,-3.26414 6.05803,-5.73991 6.50063,-2.72472 4.16315,0.67771 5.03454,2.47578 2.14381,7.01237 6.8879,2.51726 v 0 l -9.58496,17.13674 0.13831,2.22682 -1.02351,-0.49793 -3.04284,5.62927 -0.89903,3.95569 -5.07601,-0.59474 -2.29597,4.38447 -5.97503,1.77038 0.19364,2.40662 1.50758,0.92668 -4.01102,2.58642 -2.11616,-0.8437 -5.53245,0.13831 -2.48959,-2.18532 -0.56708,0.59474 0.81603,2.58642 -0.48408,1.95019 1.31395,2.18531 4.70258,0.63623 -1.42461,6.88789 -3.27797,-0.0691 v 0 l -13.76195,-2.50343 -6.05803,0.56707 -5.159,2.57259 -3.9557,4.09401 -4.68875,2.95986 -10.94041,-0.13831 -6.32081,2.75239 -3.38862,4.02486 -3.11201,7.93905 -7.62093,7.37198 -6.62511,4.68875 -13.78962,3.94186 -3.45777,2.78006 -16.41753,4.50894 -4.81323,-0.49791 -16.43136,-5.49096 -4.43978,3.7344 -0.60858,1.59058 -1.23096,0.0415 -3.37479,4.12167 -2.01934,4.75791 -3.85889,3.12582 -4.55044,2.11617 -12.55864,3.48543 -5.93355,-0.70539 v 0 l -4.094,-1.34161 -17.16442,-12.53099 -7.33049,-0.24896 -4.1355,-1.47992 -11.2032,-1.41078 -2.62791,-6.16867 -0.33195,-6.83257 -3.60992,-5.11751 -1.49375,-4.68875 -8.354,-1.8672 -3.112,-2.82154 -4.05251,-0.56708 -7.56562,3.09816 -4.43978,5.6431 -2.22682,0.42876 -6.26548,-1.97785 -1.81188,-1.77038 v 0 l 4.01102,-2.57258 1.99168,-5.18667 0.44259,-2.57258 -2.29596,-7.62095 3.63758,-4.1355 9.58496,-2.18532 15.43553,-6.14101 4.50893,0.0692 2.18532,1.0235 0.94051,0.88519 -1.96402,-0.38727 -0.30427,1.54908 5.32497,3.84505 -0.41493,-1.83954 h 2.06083 l 2.06084,-3.31946 3.34713,-2.0885 -0.87137,-3.56843 -7.05386,-10.95424 0.34578,-2.68324 4.28765,-7.4273 -0.15215,-1.09266 -2.89071,-1.97785 -0.7607,2.86305 -3.1535,-1.45228 -4.02485,1.45228 -1.17565,-1.09266 3.37479,-12.95976 0.0692,-2.90453 -1.09266,0.13832 v -1.9087 l 1.34162,-3.11199 2.4896,-0.45643 2.14383,-2.51727 2.03317,0.92669 2.01934,-0.31812 5.53245,3.15349 11.99157,-10.1382 5.21433,-7.95289 21.64568,-26.12697 1.4661,0.63623 1.02351,-1.52142 -1.13415,0.88519 -0.52559,-1.03733 9.58497,-9.59879 16.30688,-22.12978 14.57799,-26.12696 z m -98.09024,177.81277 -0.56708,3.81739 1.38311,-0.95436 24.81302,14.23221 6.83257,2.43428 4.77173,5.21433 5.51861,4.30148 4.28765,5.78141 5.86439,3.98336 9.46047,4.43978 10.89892,0.95435 2.18532,-0.77455 2.47577,-6.65276 -18.42304,-10.04139 -15.00676,-4.55043 -4.02486,-4.6196 0.083,-3.2503 -3.33329,-3.70674 -3.12583,-1.72889 -3.90038,-0.0415 -5.90588,-6.63893 -6.6251,0.70538 -1.50759,-2.04701 -0.4426,1.45228 -0.82987,-1.06501 -5.21433,-1.83953 -3.27797,-4.13551 -4.21849,2.11616 z"
     class="land"
     title="Zuid-Holland"
     id="NL-ZH"
     inkscape:connector-curvature="0"
     style="fill:#63bb4a;fill-opacity:1;stroke:#ffffff;stroke-width:0.69155556;stroke-opacity:1" />
  <g
     id="stadiums"
     data-country="netherlands"
     data-circle-radius="6"
     data-circle-colors="#a149be,#bea149"
     transform="matrix(1.3831111,0,0,1.3831111,0.17855041,-0.07784727)" />
</svg>
