<?xml version="1.0" encoding="UTF-8" standalone="no"?>
<?xml-stylesheet type="text/css" href="/styles/home.css"?><!-- https://www.amcharts.com/svg-maps -->

<svg
   xmlns:dc="http://purl.org/dc/elements/1.1/"
   xmlns:cc="http://creativecommons.org/ns#"
   xmlns:rdf="http://www.w3.org/1999/02/22-rdf-syntax-ns#"
   xmlns:svg="http://www.w3.org/2000/svg"
   xmlns="http://www.w3.org/2000/svg"
   xmlns:sodipodi="http://sodipodi.sourceforge.net/DTD/sodipodi-0.dtd"
   xmlns:inkscape="http://www.inkscape.org/namespaces/inkscape"
   version="1.1"
   id="map-northernIreland"
   viewBox="0 0 999.99996 999.99996"
   width="1000"
   height="1000"
   class=""
   sodipodi:docname="northern_ireland.svg"
   inkscape:version="0.92.4 (5da689c313, 2019-01-14)">
  <metadata
     id="metadata10">
    <rdf:RDF>
      <cc:Work
         rdf:about="">
        <dc:format>image/svg+xml</dc:format>
        <dc:type
           rdf:resource="http://purl.org/dc/dcmitype/StillImage" />
        <dc:title></dc:title>
      </cc:Work>
    </rdf:RDF>
  </metadata>
  <sodipodi:namedview
     pagecolor="#ffffff"
     bordercolor="#666666"
     borderopacity="1"
     objecttolerance="10"
     gridtolerance="10"
     guidetolerance="10"
     inkscape:pageopacity="0"
     inkscape:pageshadow="2"
     inkscape:window-width="1920"
     inkscape:window-height="1017"
     id="namedview8"
     showgrid="false"
     showguides="true"
     inkscape:guide-bbox="true"
     inkscape:zoom="0.64681093"
     inkscape:cx="783.68837"
     inkscape:cy="404.85262"
     inkscape:window-x="-8"
     inkscape:window-y="-8"
     inkscape:window-maximized="1"
     inkscape:current-layer="map-northernIreland">
    <sodipodi:guide
       position="1589.3361,499.99998"
       orientation="0,1"
       id="guide817"
       inkscape:locked="false"
       inkscape:label=""
       inkscape:color="rgb(0,0,255)" />
  </sodipodi:namedview>
  <defs
     id="defs4">
    <style
       type="text/css"
       id="style2">
         .land {
            fill: #93c4a3;
            fill-opacity: 1;
            stroke: white;
            stroke-opacity: 1;
            stroke-width: 0.5;
         }

         .rectangle:hover {
            fill: #bdbdbd;
            cursor: pointer;
         }
      </style>
  </defs>
  <path
     id="GBDRY"
     class="land"
     d="m 705.81514,98.790955 -5.41346,0.77112 -3.87108,2.328675 -3.87107,2.32868 -4.64226,3.87107 8.51333,1.54239 9.28454,-0.77112 8.51334,0.77112 8.52843,6.97094 -1.55748,3.09988 v 2.31358 3.09988 l -0.77113,4.64227 2.32869,-3.87107 3.87107,-6.97095 2.31359,-8.51334 -0.77128,-6.18457 -3.87107,-2.32868 z m -87.47716,40.268195 -7.74215,0.77111 -7.74214,4.64227 -6.97095,6.19976 -3.09988,3.08478 -2.32868,4.65736 -6.18466,4.64227 -25.5551,1.54239 -41.02431,19.35536 -30.19738,1.55748 -17.04177,0.77112 -6.95586,-2.32868 -15.48428,-10.84202 h -6.19976 l -1.54239,9.29964 -2.32867,28.63989 -4.64227,6.19975 -3.87107,4.64226 -4.64227,10.07083 -2.32869,11.61322 v 8.51334 l -5.41346,3.87106 -7.74213,10.05573 -4.65738,3.09988 -12.3844,1.55749 -12.38441,-1.55734 -5.41346,-3.09987 -10.07083,-5.41347 -6.97095,-0.77112 -16.25548,5.41347 -5.41346,-0.77112 3.08478,-11.61321 -6.95585,2.32867 -3.09988,4.64227 -3.09988,3.87108 -3.09987,3.87107 -22.45524,3.09988 -4.64227,3.87107 -3.87107,3.87107 -10.05573,16.25548 1.54239,5.41346 -0.77112,0.77112 -2.32867,0.78629 -1.5424,4.64227 2.31359,16.25548 -0.77111,5.41346 -2.3136,3.87108 -0.78628,0.78629 -6.95585,3.08478 -3.09988,3.87106 -0.77112,7.74215 1.54239,15.48428 v 6.97096 l -3.87108,13.1707 -6.19974,11.61321 -26.31122,32.51097 -2.32868,8.51334 -0.77111,15.48428 1.54238,5.42857 1.55749,1.54238 v 1.54239 l -4.65767,2.32876 -3.87108,-0.77111 -6.18465,-3.09988 -10.84202,3.09988 -12.38441,-3.87108 -6.97095,3.87108 -12.38441,13.1556 -12.38441,6.97095 -12.39951,0.77111 -12.38441,-6.18465 -10.05572,-9.29963 h -4.65737 l -12.38441,12.3844 -18.58416,9.29964 6.199754,4.64226 2.328681,1.5424 -3.099877,9.29963 3.099877,6.18465 6.184655,3.87108 6.19975,2.32867 3.09988,1.5424 3.87107,7.74214 2.31358,3.09988 3.09988,0.77111 6.19976,-4.64227 2.31358,-0.77111 5.42856,3.09988 11.61322,10.05573 5.41346,2.32867 6.19975,-3.09987 5.41346,-3.87107 3.87107,0.77112 0.77112,12.3995 -14.71309,5.41347 -36.38204,34.83964 -13.9419,5.41347 -13.92679,-0.77113 -27.868698,-6.18465 -6.970948,8.51334 -7.742144,10.84201 -4.642267,9.28454 -1.557487,2.32868 -4.642267,3.87108 -8.513338,5.41346 -19.355358,5.41346 -6.9709487,3.87107 -1.5423899,0.78629 4.6422667,4.64227 0.7712723,4.64226 0.7711175,5.41347 3.8710711,4.65736 8.513338,10.05573 15.484288,21.68404 8.528435,9.28453 9.284534,4.64227 h 10.070825 l 7.742144,19.35536 4.642266,9.29963 6.184657,6.97095 3.871072,0.77112 2.328682,1.54238 14.713087,2.32869 5.41346,3.87106 2.32868,10.05574 0.77113,27.09757 5.41346,10.07083 6.97094,3.87108 19.35536,3.09987 21.68404,-1.55748 6.97095,0.78628 25.54002,20.12655 3.09988,3.87108 0.77111,5.41346 0.77112,5.42857 4.65736,3.08477 38.71072,9.29963 7.74214,-1.55748 14.698,-12.38442 9.29963,0.77112 -4.64227,5.42856 1.5427,0.77112 h 3.87107 l 3.09988,0.77112 2.31359,5.42855 0.78629,2.31359 1.54238,0.77111 5.41347,-1.54239 17.81296,6.19976 3.87108,-0.78629 h 1.54239 l -7.74214,-17.02668 v -4.64226 l 2.32867,-3.09973 10.84202,-6.19975 1.5424,1.55748 -0.77112,3.87108 -0.77111,6.18465 v 6.97096 5.42855 l 0.77111,2.31358 5.41346,-2.31358 3.09987,-3.87107 2.32869,-5.42856 1.54239,-6.18465 -1.54239,-6.19976 6.97095,-3.87108 -0.7863,-3.09987 -3.08477,-3.09988 -1.55749,-2.31358 1.55749,-6.19976 2.31358,-3.87107 3.09988,-3.09987 3.87107,-3.08478 20.12655,-5.42856 7.74215,-5.41346 -2.31359,-10.07082 5.41346,-6.97103 -13.1556,-10.82692 2.31358,-8.52844 -12.38449,-6.18465 -0.77119,-6.97096 h 1.54239 l 3.09988,0.77112 1.54238,-3.09988 0.7863,0.7863 2.31358,-6.19976 -0.77111,-1.54239 -1.54239,-3.09988 -0.7863,-3.87106 0.7863,-2.32869 0.77112,-0.77111 1.54238,-0.77112 6.19975,0.77112 h 3.09988 l 11.61322,-8.51335 17.79787,-28.65498 10.84202,-10.05573 10.84202,-0.77112 12.38441,6.18466 22.45524,18.58416 3.09987,4.64227 3.08479,10.07082 3.09988,1.54239 3.87106,0.77112 2.32869,2.32868 3.87107,10.07082 3.87107,11.61322 0.77112,8.51335 -3.09988,6.18465 -6.18466,3.87107 13.15569,6.19975 3.09987,3.87108 1.5424,5.41346 1.55748,6.19982 1.54239,6.19976 6.19976,10.05573 6.95584,7.74215 7.74215,6.97094 7.74214,4.64227 4.65737,0.77111 3.08477,-3.08477 2.32869,-3.87107 3.87106,-2.32861 h 4.64227 l 3.87107,2.32868 7.74215,6.95585 5.42856,6.19976 2.31359,3.09987 2.32867,11.61322 -3.09988,10.84202 -8.51333,10.82692 3.87107,6.97095 -0.77112,6.97095 -5.42856,14.7131 5.42856,4.64226 10.05573,11.61321 5.42856,3.09988 1.54239,-1.55749 2.32869,-3.08477 1.54238,-3.09988 2.32868,-1.55749 2.31359,-0.77111 5.42856,2.32867 h 3.08478 l 30.96857,-11.61321 h 10.07075 v 0.77112 l 1.54239,3.09987 2.32868,2.31359 2.32869,1.55748 h 2.31358 l 9.29963,-3.09987 8.51334,-1.54239 2.31359,-2.32868 1.55748,-4.64227 v -5.42855 l -0.77112,-4.64227 0.77112,-3.87107 4.64227,-8.51334 3.09988,0.77111 3.09987,3.87108 3.87107,3.09988 4.64227,-0.77113 5.41346,-3.09987 h 5.42856 l 5.41346,3.87107 2.32868,-3.87107 7.74215,3.09987 10.82692,0.77113 9.29963,3.87106 4.64226,10.84203 4.64227,0.77111 27.8687,10.07082 -3.08478,0.77112 -7.74214,3.87107 v 3.09988 l 6.95585,5.41347 5.42855,0.77111 13.9268,-1.54239 5.42857,-2.32868 14.71309,-11.61321 11.61321,-11.61322 15.48429,-7.74215 6.18466,-8.51333 3.87107,-10.07083 3.09987,-12.38441 2.32869,-12.38441 0.77111,-12.38441 v -2.32868 l -0.77111,-20.89775 2.31358,-7.74214 6.97095,-2.32869 6.97094,-1.54238 16.25549,-6.19983 15.48429,-1.5424 20.89775,2.31359 3.87107,4.65744 1.55749,4.64227 3.09988,0.77112 3.08477,-1.54239 2.32869,-1.55749 2.32867,-13.15569 1.5424,-0.77112 4.64227,1.5424 1.55748,-0.77113 11.61322,-12.3844 10.05573,-13.9419 3.87106,-17.81297 -3.09987,-23.99762 -10.82692,-11.61322 -15.48429,4.64227 -16.27058,10.07082 -14.69799,5.41347 3.87106,-6.95586 13.15561,-10.07059 3.09988,-6.19975 10.05573,-32.51096 -3.08479,-3.87108 2.31359,-3.87107 v -1.54239 l 0.77112,-3.09988 -4.64227,-1.55748 -2.31359,-5.41346 v -6.97095 l 1.5424,-7.74215 -10.84203,-6.18465 2.32869,-3.09988 7.74215,-1.55749 6.18465,-2.31358 -4.64227,-3.09988 -13.1556,-1.54238 -3.09988,-1.5575 -3.09987,-3.09988 -3.87108,-3.08477 h -5.41346 l 3.87107,-3.87108 3.09987,-5.42855 0.77112,-6.18466 -2.32852,-6.19976 v -3.87107 l 10.84202,0.77112 10.07083,5.42856 24.76882,23.99763 6.19975,10.84202 3.87107,13.9268 1.54239,20.12655 -1.54239,9.29964 -8.52844,10.84201 -2.31358,6.95585 0.77112,6.97095 2.32868,6.97095 3.87107,5.41346 3.87107,2.32868 3.87108,12.38442 3.87107,8.51333 3.87106,4.65737 5.41355,-0.78622 3.87106,-9.28454 5.41347,-3.09987 -4.64226,-6.18466 1.55748,-5.42856 4.64227,-3.87107 3.87107,-4.64227 0.77112,-10.84201 -2.32869,-10.05573 2.32869,-7.74215 6.97094,-10.84201 2.31359,-3.87108 v -3.09988 l -1.54231,-2.32867 v -3.87108 l 2.32868,-5.41346 -2.32868,-2.32868 -11.61322,-17.79787 -1.54239,-8.51334 -2.32868,-24.78392 -2.32868,-4.64227 -6.18466,-3.87106 -3.87107,-8.51334 -6.19976,-22.45524 -0.77111,-6.19976 v -5.41346 l -1.54239,-3.87106 -3.87107,-0.77113 -3.09988,-2.32868 -3.09987,-6.18473 -1.5424,-2.32868 -1.55748,-2.32869 -44.12418,6.97095 -7.74214,-0.77111 -5.42856,-3.87108 -6.18466,-2.32867 -7.74214,3.09987 -12.38442,10.07082 -12.3995,6.18466 -3.87108,3.87108 -7.74214,12.3995 v 0.77111 l -3.87107,3.87108 -2.31358,3.87107 -2.32869,3.09988 -4.64226,-0.7863 -1.54239,-3.08477 v -5.42856 l -1.55749,-5.41346 -4.64227,-3.09988 4.64227,-8.51334 8.51334,-16.25548 4.65736,-6.19976 2.31359,-3.09987 10.07082,-8.51334 9.28454,-5.41346 21.68404,-6.19976 10.84202,-5.41346 8.51334,-9.29963 4.64227,-13.9268 0.77111,-3.09988 0.77112,-14.71309 -4.64227,-19.35536 -6.97095,-10.84201 -10.82692,-10.05573 -10.84202,-3.09988 -6.19976,10.84202 23.22643,24.76882 6.19976,13.9419 h -1.55749 l -9.28438,-13.1707 -10.07082,-4.64227 -9.28454,-5.41346 -3.87107,-17.81297 -1.54239,-8.51334 -2.32868,-7.74215 -3.09988,-6.97094 -3.09987,-4.64227 -3.08478,-3.09988 -5.42857,-5.41346 -2.31358,-2.32868 -2.32868,-4.64227 -2.32868,-10.07082 -1.54239,-4.64227 -7.74214,-10.84202 -8.51334,-7.74214 -10.07083,-5.41346 -10.05572,-1.55749 -0.78629,-4.64226 6.19975,-23.22643 0.77111,-11.61323 -2.31358,-6.18465 -2.32861,-1.55748 -2.32867,-2.31359 -5.41347,-2.32868 -5.41346,-0.77113 -6.19975,0.77113 -6.97096,-0.77113 -3.09987,-6.19975 5.42856,-13.1556 2.31358,-10.84202 1.55749,-35.61084 -3.87107,-6.19975 -13.1707,-15.48429 -3.08478,-1.54239 -3.09988,-4.64227 -6.97095,-3.87107 -14.71309,-2.32868 -6.97094,1.54239 -13.92681,5.42855 -7.74214,1.5424 -6.19975,-1.5424 -34.83965,-20.12655 -9.28461,-2.32867 -13.9419,9.28453 -8.51334,-3.08478 z"
     inkscape:connector-curvature="0"
     style="fill:#93c4a3;fill-opacity:1;stroke:#ffffff;stroke-width:3.87107182;stroke-opacity:1" />
  <g
     id="stadiums"
     data-country="northern_ireland"
     data-circle-radius="2"
     data-circle-colors="#a149be,#bea149"
     transform="translate(0,871.00002)" />
</svg>
