<?xml version="1.0" encoding="UTF-8" standalone="no"?>
<!-- (c) ammap.com | SVG map of Portugal - Low -->

<svg
   version="1.1"
   id="svg28"
   sodipodi:docname="portugal.svg"
   width="1000"
   height="1000"
   inkscape:version="1.3.1 (91b66b0783, 2023-11-16)"
   xmlns:inkscape="http://www.inkscape.org/namespaces/inkscape"
   xmlns:sodipodi="http://sodipodi.sourceforge.net/DTD/sodipodi-0.dtd"
   xmlns="http://www.w3.org/2000/svg"
   xmlns:svg="http://www.w3.org/2000/svg"
   xmlns:rdf="http://www.w3.org/1999/02/22-rdf-syntax-ns#"
   xmlns:cc="http://creativecommons.org/ns#"
   xmlns:dc="http://purl.org/dc/elements/1.1/"
   xmlns:amcharts="http://amcharts.com/ammap">
  <metadata
     id="metadata32">
    <rdf:RDF>
      <cc:Work
         rdf:about="">
        <dc:format>image/svg+xml</dc:format>
        <dc:type
           rdf:resource="http://purl.org/dc/dcmitype/StillImage" />
        <dc:title />
      </cc:Work>
    </rdf:RDF>
  </metadata>
  <sodipodi:namedview
     pagecolor="#ffffff"
     bordercolor="#666666"
     borderopacity="1"
     objecttolerance="10"
     gridtolerance="10"
     guidetolerance="10"
     inkscape:pageopacity="0"
     inkscape:pageshadow="2"
     inkscape:window-width="1920"
     inkscape:window-height="1106"
     id="namedview30"
     showgrid="false"
     fit-margin-top="0"
     fit-margin-left="0"
     fit-margin-right="0"
     fit-margin-bottom="0"
     showguides="true"
     inkscape:guide-bbox="true"
     inkscape:zoom="0.35355339"
     inkscape:cx="978.63578"
     inkscape:cy="544.47222"
     inkscape:window-x="-11"
     inkscape:window-y="-11"
     inkscape:window-maximized="1"
     inkscape:current-layer="svg28"
     inkscape:showpageshadow="2"
     inkscape:pagecheckerboard="0"
     inkscape:deskcolor="#d1d1d1">
    <sodipodi:guide
       position="711.86441,500"
       orientation="0,1"
       id="guide861"
       inkscape:locked="false"
       inkscape:label=""
       inkscape:color="rgb(0,0,255)" />
    <sodipodi:guide
       position="692.0625,445.125"
       orientation="1,0"
       id="guide1"
       inkscape:locked="false" />
    <sodipodi:guide
       position="820.59742,845.49717"
       orientation="0,-1"
       id="guide2"
       inkscape:locked="false" />
  </sodipodi:namedview>
  <defs
     id="defs4">
    <style
       type="text/css"
       id="style2">
			.land
			{
				fill: #f9ee32;
				fill-opacity: 1;
				stroke:white;
				stroke-opacity: 1;
				stroke-width:0.5;
			}
		</style>
    <amcharts:ammap
       projection="mercator"
       leftLongitude="-31.270171"
       topLatitude="42.155925"
       rightLongitude="-6.187163"
       bottomLatitude="32.400528" />
    <!-- All areas are listed in the line below. You can use this list in your script. -->
    <!--{id:"PT-01"},{id:"PT-02"},{id:"PT-03"},{id:"PT-04"},{id:"PT-05"},{id:"PT-06"},{id:"PT-07"},{id:"PT-08"},{id:"PT-09"},{id:"PT-10"},{id:"PT-11"},{id:"PT-12"},{id:"PT-13"},{id:"PT-14"},{id:"PT-15"},{id:"PT-16"},{id:"PT-17"},{id:"PT-18"},{id:"PT-20"},{id:"PT-30"}-->
  </defs>
  <path
     style="fill:#f9ee32;fill-opacity:1;stroke:#ffffff;stroke-width:1.46989;stroke-opacity:1"
     inkscape:connector-curvature="0"
     d="m 770.71443,293.81326 8.14321,0.0587 2.6752,-3.05739 3.11618,3.70414 2.61641,-2.44002 -2.41063,-1.14652 0.58795,-1.61689 2.73401,1.26412 0.73495,-1.35231 5.5268,6.37935 -0.88195,-6.26176 4.76247,1.44051 4.93884,-4.85066 2.7928,1.76387 v 0 l 2.49882,0.99953 -0.35277,3.96871 3.41016,1.85207 -0.82314,1.96966 7.37886,1.88147 3.93932,-3.73355 0.17639,2.61643 -4.02751,4.85065 2.734,9.93648 -2.46943,2.20485 -3.49835,-2.11667 -2.14604,2.44004 -3.76293,-2.26364 -2.23424,1.08772 1.67568,3.73353 -3.32197,8.3784 -5.5268,2.08725 0.55857,3.49834 2.70461,2.20485 0.23517,7.08489 4.55668,2.29303 -5.85018,2.44003 2.17544,6.99669 3.23377,3.41016 -7.93743,3.05737 1.67568,5.43862 -3.46895,3.93931 -0.11758,5.05644 v 0 l -0.14699,2.41062 -4.38029,-0.55857 -0.41157,3.41017 -3.64534,0.76434 -0.52916,4.64488 -6.43814,-1.38171 -0.58796,-3.05738 4.17451,0.0294 0.35277,-8.52538 -2.17544,-4.43909 -6.29116,2.67522 -0.20578,-7.84924 -3.73354,-2.52822 -1.88146,7.20248 -2.58701,-0.26459 -11.25939,-11.17118 v 0 l 2.96919,-12.40591 -1.05833,-2.58701 7.58466,-25.25279 z"
     class="land"
     title="Aveiro"
     id="PT-01" />
  <path
     style="fill:#f9ee32;fill-opacity:1;stroke:#ffffff;stroke-width:1.46989;stroke-opacity:1"
     inkscape:connector-curvature="0"
     d="m 815.31101,617.74854 10.14227,-0.99953 4.23328,3.41016 2.61643,-2.20484 13.22904,7.81983 7.40827,0.61736 8.3196,5.43861 3.20436,-1.08773 12.7293,2.46943 0.17638,-2.14605 8.05501,-7.11429 0.23519,-3.67474 4.73306,-0.11758 1.73448,-2.52822 4.61546,-1.20531 3.99811,7.99622 5.02704,1.96966 -0.82314,2.64581 3.64533,7.55525 4.82126,-3.32195 v 0 l 2.17544,2.20484 13.7876,-5.96778 -3.08677,6.32055 1.5581,1.61688 -3.29257,5.93837 -1.3229,9.34853 -4.14511,0.97013 -4.82125,-3.46895 -2.7634,1.67569 0.70556,2.91039 -4.88006,1.38169 -2.67521,-1.23471 -5.61499,2.7634 1.3229,2.9398 -3.26317,10.05407 -3.79232,6.23235 -8.99576,6.64392 -2.05784,11.02421 -5.615,6.9673 -0.79374,9.17214 v 0 l -5.73259,-0.32337 -4.0863,4.32148 -5.32102,-1.61689 -8.31961,2.11666 -8.43719,5.85018 -3.29256,0.32338 -1.49929,3.52773 -6.9085,-0.29398 -2.29304,3.43955 1.49929,1.67568 -6.96729,5.11524 -11.40638,-2.64581 -8.02563,-5.26222 -0.23517,-4.43909 -3.93932,-1.58748 -0.85255,1.79328 -8.2608,0.47036 -3.05739,4.96824 -5.93836,-0.23518 -5.11523,-3.79234 -4.2627,1.08773 -2.17543,3.05738 -2.29305,-2.93978 -6.43813,0.64675 -1.4993,-4.26269 -4.32148,-1.29351 v 0 l 0.97013,-10.46565 -3.14558,-7.76104 3.11618,-13.37604 -2.46943,-4.0863 1.82268,-8.26082 v 0 l 1.55808,1.70509 3.79234,-1.14652 4.82124,7.17308 2.08726,-1.76387 4.0569,2.23424 2.79279,-0.88195 0.32338,-4.96823 3.20437,-1.94026 1.08773,-4.38028 9.55431,-2.05785 9.6425,2.79279 -0.41156,-2.26364 3.32195,-3.82172 0.52918,-11.0536 -2.35184,-3.85112 -4.1745,0.49976 -4.2333,-5.96777 1.94026,-4.96823 2.35184,1.3229 2.7634,-6.05598 3.93931,1.91087 0.61736,-5.5856 4.14511,0.85254 1.79327,-2.73401 8.40778,-2.52821 0.0294,-4.96824 z"
     class="land"
     title="Beja"
     id="PT-02" />
  <path
     style="fill:#f9ee32;fill-opacity:1;stroke:#ffffff;stroke-width:1.46989;stroke-opacity:1"
     inkscape:connector-curvature="0"
     d="m 825.83545,194.71301 -0.99954,7.29067 -5.3504,8.84876 7.64345,-1.4405 4.46847,1.96966 -0.76435,10.08348 10.75964,1.91087 2.82219,-3.35136 3.73352,5.17402 -4.70365,7.58465 -2.96919,-0.20579 -0.85253,2.99859 -3.29258,1.4111 -3.35134,12.67049 v 0 l -5.26223,6.93789 -3.20438,-2.99858 -1.96965,1.70508 -3.08677,-1.70508 -4.2627,-7.0555 -4.43907,-1.41108 -5.96777,5.23281 -0.88195,3.49834 -2.7046,-1.26409 -0.88193,-3.14558 -6.32055,1.85207 0.91133,-2.35183 -1.41109,-0.41157 -2.96918,2.61641 -2.26365,-1.55809 -4.23328,0.88194 -1.5875,2.7928 -8.55479,0.58794 v 0 l 0.0294,-6.20294 v 0 l 1.82267,-1.08772 -5.5268,-2.41062 -1.82267,-3.14558 -2.88099,0.38217 -6.90851,-3.58653 v 0 l -3.20436,-17.43295 v 0 l 4.90944,-0.26459 5.5856,-3.26316 4.23329,1.17591 0.73496,-2.88098 3.61593,2.49881 2.49883,-1.05833 1.3523,2.38123 2.05784,-0.94073 -0.61735,-3.96871 2.38123,-1.99906 1.85207,-7.32008 3.73352,0.76436 8.02562,-4.70367 6.34995,1.11712 1.14652,-2.44002 2.08726,1.20531 9.90708,-5.82077 v 0 l 6.61452,1.2641 z"
     class="land"
     title="Braga"
     id="PT-03" />
  <path
     style="fill:#f9ee32;fill-opacity:1;stroke:#ffffff;stroke-width:1.46989;stroke-opacity:1"
     inkscape:connector-curvature="0"
     d="m 941.98648,173.60531 2.91039,0.64677 1.67569,5.02703 2.23423,0.82314 9.7601,-0.35277 3.08679,-3.43956 3.58653,2.8516 -1.99906,7.58466 5.14463,1.4699 -4.93884,15.90425 2.52822,7.81983 3.90991,2.881 5.11523,-3.43956 13.19965,2.85159 10.495,10.78904 -6.37934,7.49646 0.64679,1.70506 -5.05642,6.23236 0.49977,2.58701 -3.08679,2.26364 1.44051,3.05738 -6.67333,0.11759 1.17592,3.11618 -3.55715,1.41109 -2.08724,5.26223 -4.55668,1.70507 0.79375,1.91086 -1.67569,1.20532 -2.44002,-1.17592 -4.52728,4.49788 -1.88146,-1.99905 -0.76434,1.44048 -4.49788,-0.49976 -5.6444,9.23094 -5.46799,4.64487 1.2935,3.76292 -5.08583,8.29022 -11.37699,0.88192 v 0 l -5.61499,0.52916 -10.20107,-6.79091 1.67568,-5.58559 -4.32149,-1.4405 1.20532,-5.11523 -4.32149,6.52634 -7.96683,-2.32244 -5.08584,0.67614 v 0 l -4.93883,-1.02891 -3.05739,-5.82079 -3.85112,-1.91087 v 0 l 1.64627,-4.61546 2.49883,0.47037 -0.38216,-5.08584 2.73399,-2.23423 -1.2347,-1.29351 5.64439,-2.9398 -4.35089,-3.26316 -0.35277,-9.31912 6.20295,-2.96918 1.3523,-6.32055 5.08584,-0.88194 -2.7634,-8.46659 4.64486,-14.96352 3.41015,-4.02751 0.0881,-3.11617 -3.64534,-5.46801 0.91133,-8.14321 v 0 l 2.52822,-4.90946 -1.11712,-6.61452 4.08631,-2.29303 4.99763,2.14605 1.44049,2.93978 6.11477,-0.0881 2.49883,-2.9104 3.23375,3.64534 4.85065,0.58796 6.55574,-0.76434 z"
     class="land"
     title="Bragança"
     id="PT-04" />
  <path
     style="fill:#f9ee32;fill-opacity:1;stroke:#ffffff;stroke-width:1.46989;stroke-opacity:1"
     inkscape:connector-curvature="0"
     d="m 850.79425,389.59157 11.72976,-5.32102 4.38028,-6.05596 6.64392,0.70555 4.64487,-9.34854 13.19965,1.5875 1.61688,-3.52774 3.20438,-0.64676 2.08724,0.99953 -0.29398,7.34947 -5.468,6.49693 1.2641,1.58748 7.32007,2.70462 2.55763,-3.35137 4.76244,2.11665 4.58609,-6.79091 2.6164,5.58561 6.46754,-1.41111 5.82078,3.96871 v 0 l -1.11712,2.32244 -4.58608,1.55808 -0.79374,9.87768 2.61642,3.79234 h 4.85065 l 7.14368,12.14133 -3.96872,10.64203 0.29398,6.40874 -7.76104,7.29068 0.97013,4.52727 -3.61593,12.25891 -12.61169,2.08725 -9.28973,-1.64628 -7.61406,3.11617 -19.31442,-2.734 v 0 l -8.90754,4.90945 -3.17498,-3.14558 -2.93978,1.49929 -1.76388,5.20344 -3.02799,0.58795 -6.49693,6.11476 v 0 l 1.3523,-3.96872 -5.02704,-8.14321 -4.64486,-3.64533 -3.99811,0.85253 v 0 l -1.14652,-10.08347 v 0 l -1.88145,2.02846 -4.35089,-2.32243 -1.61689,1.44049 -0.32338,7.67285 -1.76387,1.58748 2.02846,4.96824 -7.37887,0.73495 -9.43672,-4.05691 0.67615,-12.99387 -1.29351,-3.08677 -2.08725,1.20531 -1.82266,-3.14557 v 0 -0.0881 0 l 0.91132,-5.615 6.05597,-1.02892 2.20484,-3.67474 3.43955,-0.47036 2.8222,-5.87958 v 0 l 0.35277,-1.76387 2.99858,0.20578 -0.32337,-2.20483 4.93884,0.55855 0.14699,-2.91039 1.32292,1.64628 0.32337,-2.20484 4.67427,1.4699 0.97013,-3.05738 4.73305,-0.0294 -1.29351,-3.61594 4.79186,-3.05738 5.20343,2.70461 0.17638,-4.1745 v 0 l -1.02893,-0.76435 v 0 l 2.8222,-1.11712 1.26412,2.61641 3.85111,-5.05643 -7.17308,-9.17214 z"
     class="land"
     title="Castelo Branco"
     id="PT-05" />
  <path
     style="fill:#f9ee32;fill-opacity:1;stroke:#ffffff;stroke-width:1.46989;stroke-opacity:1"
     inkscape:connector-curvature="0"
     d="m 757.77935,354.31411 11.25939,11.1712 2.58701,0.26458 1.88147,-7.20247 3.70414,2.5282 0.23517,7.84923 6.26175,-2.6752 2.17544,4.43908 -0.32338,8.52538 -4.1745,-0.0294 0.58797,3.05737 6.40873,1.38171 0.52917,-4.64487 3.64533,-0.79374 0.41158,-3.41016 4.38028,0.55857 0.14699,-2.41063 v 0 l 5.26222,1.11711 4.52727,4.2333 5.37982,-2.44002 5.468,1.2347 14.87533,-8.73116 13.49363,-11.34759 v 0 l 2.93979,4.99764 -4.76246,3.46896 0.26459,1.79327 4.46847,1.08772 -0.73494,6.76151 4.35088,2.14604 -4.29209,2.91039 -1.99905,5.08584 4.0569,4.35088 v 0 l -2.49882,5.82078 7.17308,9.17215 -3.85111,5.05643 -1.26412,-2.61641 -2.8222,1.11712 v 0 l 1.02893,0.76435 v 0 l -0.17638,4.17449 -5.20343,-2.7046 -4.79186,3.05738 1.29351,3.61594 -4.73305,0.0294 -0.97013,3.05738 -4.67427,-1.4699 -0.32337,2.20485 -1.32292,-1.64628 -0.14699,2.91039 -4.93884,-0.55856 0.32337,2.20484 -2.99858,-0.20578 -0.35277,1.76386 v 0 l -1.26411,-0.70554 2.08725,-3.82174 -4.26269,-6.08535 1.11711,-6.14416 -3.26316,-2.02845 -2.85159,4.52727 -3.02799,-1.82267 -3.11617,2.64582 -2.05785,4.35088 2.55762,2.44002 -0.82314,3.58655 -3.20438,-3.52775 -5.5562,7.81984 -3.26316,-0.97013 2.7046,-2.85159 -4.29208,-8.5842 -0.0882,3.49835 -2.8222,-2.44002 -3.08677,3.82173 -2.93979,0.20579 -1.5287,4.29208 -2.14604,-9.55432 -2.7634,0.0587 -2.17544,4.26269 -2.58702,0.23519 0.17639,-2.49882 -3.20436,-2.29304 -8.4372,-1.3229 -3.17498,3.43954 -6.32054,-1.3229 -2.35182,-2.52821 v 0 l 2.99858,-11.25939 -4.43908,-6.05597 z"
     class="land"
     title="Coimbra"
     id="PT-06" />
  <path
     style="fill:#f9ee32;fill-opacity:1;stroke:#ffffff;stroke-width:1.46989;stroke-opacity:1"
     inkscape:connector-curvature="0"
     d="m 809.43143,538.72703 0.85254,1.08773 4.0569,-5.05644 6.58513,-0.23519 -1.52869,2.23424 1.61688,4.14511 3.02799,-5.55621 5.26222,4.08632 -0.79375,4.82124 9.05455,-4.02751 4.52728,7.87864 7.99622,1.49929 3.49835,-1.46989 1.79327,-3.67473 3.23377,3.17496 1.35229,-2.02845 4.26271,2.14604 3.08677,-5.02704 5.76199,-1.70508 -0.99953,-2.91039 1.82267,-1.88146 7.46706,5.23283 -1.23471,4.55666 4.0275,2.67522 1.70509,6.49693 -1.82267,0.0882 3.02799,5.5268 5.87957,-0.29399 0.23518,-2.52821 7.49646,-2.6752 3.46895,1.96966 -2.32243,5.76198 2.6752,3.70414 v 0 l -5.20342,3.29255 -1.17592,10.08347 2.67521,1.70509 -6.58512,13.02326 -0.64675,4.2039 1.96966,-0.52916 0.14698,1.55809 -3.43956,3.99811 5.20342,1.91086 11.99434,16.96258 3.96872,10.31865 v 0 l -4.82126,3.32196 -3.64533,-7.55525 0.82314,-2.64581 -5.02704,-1.96966 -3.99811,-7.99623 -4.61546,1.20532 -1.73448,2.52822 -4.73306,0.11758 -0.23519,3.67474 -8.05501,7.11429 -0.17638,2.14605 -12.7293,-2.46943 -3.20436,1.08773 -8.3196,-5.43861 -7.40827,-0.61736 -13.22904,-7.81983 -2.61643,2.20484 -4.23328,-3.41017 -10.14227,0.99954 v 0 l -3.08678,-2.67521 -6.64392,-1.29351 -0.73495,-2.11664 -4.2039,-0.0882 3.58654,-4.70367 -1.67568,-1.4405 1.67568,-0.1764 -3.64533,-1.29349 1.17591,-2.55762 -5.4386,-10.31866 -9.9365,3.43955 -2.6458,-3.64533 -1.4405,0.55855 1.29351,2.79281 -2.08725,0.94072 -4.32149,-4.35089 -5.93837,-0.17638 -1.32291,-7.40826 14.14038,-12.22953 -0.91133,-2.41062 1.85207,-3.02798 -5.17402,-0.26459 v 0 l 4.29208,-5.20341 2.79279,1.46989 3.73355,-4.64487 1.96965,1.32291 2.91039,-3.96872 3.35135,2.08725 1.88147,-2.41062 1.02893,1.70506 0.85255,-2.73399 4.64485,5.85018 2.64581,-1.29351 1.61688,3.58654 2.9104,-0.20578 -0.38218,1.49929 3.35137,1.82266 1.49929,-3.61593 -2.32243,-1.94026 -0.88195,1.55808 -2.5576,-3.64533 2.67519,-3.43955 -10.52443,-4.88005 z"
     class="land"
     title="Évora"
     id="PT-07" />
  <path
     style="fill:#f9ee32;fill-opacity:1;stroke:#ffffff;stroke-width:1.46989;stroke-opacity:1"
     inkscape:connector-curvature="0"
     d="m 846.79614,771.38189 1.61688,0.29398 -5.73258,4.52727 z m -10.87722,-0.2058 6.67332,4.93885 -5.08583,-0.67615 -4.93885,-3.64534 z m 11.52398,-1.85206 1.08772,1.05833 -4.73306,1.38169 z m -38.36425,-7.0555 -6.17355,1.26412 -6.26174,-3.41016 -6.61453,1.88147 -9.17214,-3.76293 -7.49646,-0.58796 -4.49788,1.88147 -0.26459,3.23376 -5.4974,-0.88193 -15.55147,5.11523 -4.96824,5.67379 -1.4699,-3.67474 -3.08678,0.32338 8.67237,-16.58041 -1.38169,-3.61594 5.37981,-8.40778 -1.64628,-6.05598 7.58465,-14.16977 v 0 l 4.32148,1.2935 1.4993,4.2627 6.43813,-0.64676 2.29304,2.93979 2.17545,-3.05739 4.26269,-1.08771 5.08582,3.79232 5.93839,0.26459 3.05737,-4.96825 8.26081,-0.47037 0.85254,-1.79326 3.90991,1.58748 0.26459,4.43908 8.02561,5.29162 11.37699,2.61641 6.9673,-5.11523 -1.4993,-1.67568 2.29304,-3.43955 6.9085,0.32338 1.4993,-3.52775 3.32196,-0.32338 8.43719,-5.87957 8.31959,-2.11665 5.29163,1.64628 4.1157,-4.35089 5.73259,0.32338 v 0 l 4.52728,4.55667 5.23282,36.68857 -4.82125,-0.64676 -9.40733,2.96919 -21.66625,15.84545 -2.99858,-1.41109 -4.08629,2.41062 -1.32291,2.93979 -5.23283,-3.32195 -3.90991,0.73493 -11.87675,-7.70223 -6.67332,-2.35184 z"
     class="land"
     title="Faro"
     id="PT-08" />
  <path
     style="fill:#f9ee32;fill-opacity:1;stroke:#ffffff;stroke-width:1.46989;stroke-opacity:1"
     inkscape:connector-curvature="0"
     d="m 884.63121,305.33723 3.61595,2.49883 -1.82268,2.58702 -2.96919,-1.73448 z m 10.52444,-26.69328 5.11524,-0.67614 7.93743,2.32244 4.32149,-6.52634 -1.17592,5.11523 4.29209,1.4405 -1.64627,5.61499 10.20106,6.79091 5.64439,-0.52916 v 0 l 12.02373,20.66672 v 1.85206 l -2.32244,0.64676 -0.38216,10.70083 3.43955,11.1712 -4.76245,11.61216 4.14509,1.91085 0.52918,4.73307 -5.05645,7.29067 1.41109,5.32101 4.96826,5.23284 -1.20532,4.38027 -6.23235,3.49835 -0.88194,4.49788 -7.46707,0.58796 v 0 l -5.82078,-3.93933 -6.46753,1.41111 -2.61641,-5.58559 -4.58607,6.79091 -4.73306,-2.11666 -2.55762,3.35136 -7.32007,-2.70459 -1.26411,-1.6169 5.46801,-6.49693 0.29398,-7.34947 -2.08725,-0.97013 -3.20437,0.64675 -1.61688,3.49835 -13.19965,-1.55808 -4.64487,9.34853 -6.64392,-0.70556 -4.38028,6.05597 -11.72975,5.29162 v 0 l -4.02751,-4.35088 1.99905,-5.05645 4.29208,-2.93978 -4.35088,-2.11665 0.73495,-6.76152 -4.46847,-1.08771 -0.29399,-1.79328 4.76246,-3.46895 -2.9104,-4.99765 v 0 l 15.11051,-7.43765 7.84924,-1.67568 4.2333,-14.22858 -5.17403,-2.88098 1.88147,-4.3215 -5.32102,-3.93932 6.20295,-11.083 4.38029,0.35277 5.61499,6.9673 4.67427,-8.0844 2.17544,1.2053 0.52916,-5.35041 3.52775,-2.64581 1.02893,-4.64487 -4.96825,-2.35184 -0.0294,-2.70459 3.85112,-0.1176 -0.76435,-3.93931 z"
     class="land"
     title="Guarda"
     id="PT-09" />
  <path
     style="fill:#f9ee32;fill-opacity:1;stroke:#ffffff;stroke-width:1.46989;stroke-opacity:1"
     inkscape:connector-curvature="0"
     d="m 766.8633,468.05452 1.41109,1.85208 -4.02751,5.11522 v 0 l -1.79327,-1.85206 v 0 l 0.41157,6.73211 v 0 l -16.16884,1.70507 -3.90992,8.96635 -4.20389,1.70509 -0.32337,9.55432 v 0 l -6.67332,-1.5581 -10.34806,11.72976 -2.26364,-4.32149 1.4405,-2.52822 -1.23471,-3.99811 -5.11523,-1.85207 -3.82173,4.0863 -4.1157,-0.99953 v 0 l -2.23424,-6.8203 -4.0863,-1.29351 5.82078,-0.44097 9.78949,-7.43767 2.734,2.23425 -1.05832,0.76434 3.67473,-0.11759 -4.08631,-4.1157 5.20343,-7.76104 3.17498,-0.44097 -0.76436,-2.05785 6.43815,-7.93744 -0.97013,-1.96965 3.35134,-13.90519 14.55196,-39.0698 v 0 l 2.35184,2.52822 6.32054,1.29351 3.14557,-3.41015 8.43719,1.2935 3.20438,2.29303 -0.14699,2.49882 2.58701,-0.23517 2.17544,-4.2627 2.76341,-0.0294 2.11665,9.55432 1.52868,-4.29208 2.93979,-0.17639 3.08678,-3.82173 2.8222,2.44002 0.0882,-3.49835 4.29209,8.58419 -2.67521,2.8516 3.26317,0.97012 5.5562,-7.81983 3.20436,3.52773 0.82314,-3.55713 -2.52821,-2.44004 2.05786,-4.35087 3.11617,-2.64581 3.02797,1.85206 2.8516,-4.55666 3.29256,2.05784 -1.14651,6.14415 4.2627,6.08537 -2.08726,3.82172 1.29351,0.70556 v 0 l -2.8222,5.87957 -3.43955,0.49976 -2.20485,3.67474 -6.05595,1.02893 -0.91134,5.61499 v 0 0 0 l -4.38029,-0.82314 0.32337,4.90945 -1.46989,-1.49929 -3.23376,2.7046 -2.23423,-0.99952 -4.52728,3.52774 -2.26363,-12.90567 -10.73024,7.37887 -3.90992,-1.55809 -3.85111,1.94025 -0.38218,3.26317 1.52869,2.61642 -1.38171,1.94025 4.20391,1.76388 -1.4405,4.02751 -4.90945,2.7046 v 0 z"
     class="land"
     title="Leiria"
     id="PT-10" />
  <path
     style="fill:#f9ee32;fill-opacity:1;stroke:#ffffff;stroke-width:1.46989;stroke-opacity:1"
     inkscape:connector-curvature="0"
     d="m 724.29515,572.24062 -12.61169,0.76435 -3.96871,3.02797 -6.34994,-3.41015 -3.20437,1.4993 -5.52679,-2.23424 1.3229,-4.93885 -2.64581,-3.64534 8.37839,-18.69704 -1.05832,-16.22765 7.08488,-15.31629 0.41158,-10.58323 v 0 l 4.1157,0.99952 3.85113,-4.08631 5.11523,1.85207 1.2641,3.99811 -1.41109,2.52822 2.26363,4.32149 10.37746,-11.72975 6.67332,1.55808 v 0 l 1.79327,1.14651 -0.55856,4.46849 6.46754,1.73447 3.38074,-1.88146 3.96872,3.29256 0.58797,4.43909 -8.02563,1.67567 10.67143,9.02516 1.49929,4.52726 -3.88052,3.61595 -3.41015,-0.0881 1.76387,1.4111 -3.32197,5.5856 2.46943,0.85254 -3.76293,2.17544 -1.85207,6.67332 -5.35041,7.34948 v 0 l -1.94026,-3.02799 -0.52916,-10.61263 -8.2902,14.40495 -1.67569,10.37747 z"
     class="land"
     title="Lisboa"
     id="PT-11" />
  <path
     style="fill:#f9ee32;fill-opacity:1;stroke:#ffffff;stroke-width:1.46989;stroke-opacity:1"
     inkscape:connector-curvature="0"
     d="m 873.54821,458.14743 3.49836,8.61358 6.43812,6.61453 3.67474,0.58796 0.79374,4.61546 8.14321,4.11571 -2.6458,9.02515 1.4111,5.40921 7.05549,6.9085 -0.91134,8.3784 9.90709,4.40968 -0.85254,7.46706 3.58654,1.11712 6.73212,-2.14604 6.79092,7.46706 0.79374,3.67474 -9.37793,13.8758 1.17591,5.02704 -15.2575,13.43483 v 0 l -2.6752,-3.70414 2.32243,-5.76198 -3.46895,-1.96965 -7.49646,2.67519 -0.23518,2.52823 -5.87957,0.29398 -3.02799,-5.52681 1.82267,-0.0882 -1.70509,-6.49693 -4.0275,-2.67522 1.23471,-4.55666 -7.46706,-5.23283 -1.82267,1.88147 0.99953,2.91038 -5.76199,1.70508 -3.08677,5.02704 -4.26271,-2.14604 -1.35229,2.02845 -3.23377,-3.17496 -1.79327,3.67473 -3.49835,1.4699 -7.99622,-1.4993 -4.52728,-7.87863 -9.05455,4.0275 0.79375,-4.82124 -5.26222,-4.08632 -3.02799,5.55621 -1.61688,-4.14511 1.52869,-2.23424 -6.58513,0.23519 -4.0569,5.05644 -0.85254,-1.08773 v 0 l -5.85018,-11.08299 -4.88005,-3.49836 4.1745,-6.34994 10.43625,-6.58512 4.70365,-8.14323 5.26224,1.02894 4.85065,-7.61405 -0.32338,-2.67521 5.70318,-2.23425 2.70461,-3.26316 -6.46753,-7.58464 4.96823,-10.93602 9.67191,6.43814 2.44002,-3.17497 v 0 l 6.49693,-6.11477 3.02799,-0.58795 1.76388,-5.20343 2.93978,-1.4993 3.17498,3.14558 8.90754,-4.90944 v 0 z"
     class="land"
     title="Portalegre"
     id="PT-12" />
  <path
     style="fill:#f9ee32;fill-opacity:1;stroke:#ffffff;stroke-width:1.46989;stroke-opacity:1"
     inkscape:connector-curvature="0"
     d="m 766.48112,274.99862 -2.46942,-4.2921 -2.05786,-15.78665 -4.40967,-10.20107 1.08772,-6.90849 v 0 l 6.90851,3.58653 2.85158,-0.38217 1.85207,3.17497 5.5268,2.41063 -1.82267,1.08771 v 0 l -0.0294,6.17355 v 0 l 8.55479,-0.55854 1.58747,-2.7928 4.26271,-0.88194 2.23422,1.55808 2.96921,-2.61641 1.41109,0.41157 -0.91133,2.35184 6.32054,-1.85206 0.88193,3.14557 2.70461,1.2641 0.88195,-3.49835 5.96776,-5.23281 4.40967,1.41109 4.2921,7.05549 3.08678,1.70509 1.96965,-1.70509 3.20438,2.99859 5.26221,-6.93791 v 0 l 2.49883,2.79281 -1.52868,2.8516 5.23281,3.32195 -0.79374,3.70413 3.76292,3.76293 -3.38075,15.02232 v 0 l -3.70413,-0.35277 -9.37793,4.0569 -14.08158,-0.52917 -5.52681,3.46897 v 0 l -2.79279,-1.73449 -4.93885,4.85066 -4.76246,-1.4405 0.88194,6.26175 -5.5268,-6.37935 -0.73495,1.35231 -2.734,-1.2641 -0.58796,1.61688 2.41063,1.14651 -2.61642,2.44002 -3.11617,-3.70413 -2.67521,3.05738 -8.14322,-0.0587 v 0 z"
     class="land"
     title="Porto"
     id="PT-13" />
  <path
     style="fill:#f9ee32;fill-opacity:1;stroke:#ffffff;stroke-width:1.46989;stroke-opacity:1"
     inkscape:connector-curvature="0"
     d="m 738.25916,501.8327 0.32337,-9.55432 4.20389,-1.70509 3.93933,-8.96635 16.16883,-1.70507 v 0 l -0.41157,-6.73211 v 0 l 1.79327,1.85206 v 0 l 3.99811,-5.02704 -1.38169,-1.94026 -1.4699,-7.11429 v 0 l 4.90944,-2.70459 1.4405,-4.02752 -4.2039,-1.76388 1.38171,-1.94025 -1.5287,-2.61641 0.38218,-3.26317 3.85112,-1.91086 3.93932,1.55808 10.73023,-7.37886 2.26363,12.90566 4.52728,-3.52773 2.23424,0.99952 3.23375,-2.70461 1.4699,1.4993 -0.29397,-4.90946 4.40968,0.82314 v 0 l 0.0294,0.1176 v 0 l 1.79328,3.14557 2.11664,-1.23471 1.29351,3.11617 -0.67615,12.99387 9.43672,4.05691 7.37886,-0.70555 -2.02845,-4.99764 1.76388,-1.55809 0.29398,-7.67284 1.61688,-1.44051 4.35088,2.32243 1.88147,-2.02844 v 0 l 1.14651,10.11287 v 0 l 3.99812,-0.85254 4.67427,3.64534 5.02704,8.14321 -1.35231,3.96871 v 0 l -2.44003,3.17498 -9.67189,-6.43814 -4.96826,10.93602 6.43815,7.58466 -2.70461,3.26316 -5.70319,2.23423 0.32337,2.7046 -4.85065,7.58466 -5.26222,-0.99952 -4.70366,8.11381 -10.40685,6.58513 -4.2039,6.34994 4.88005,3.52774 5.85018,11.08301 v 0 l -4.11571,9.5249 10.52445,4.88006 -2.67521,3.43955 2.55762,3.67473 0.88194,-1.58748 2.32243,1.94026 -1.49929,3.61594 -3.38076,-1.82267 0.41156,-1.4993 -2.91038,0.2058 -1.64628,-3.58654 -2.64581,1.3229 -4.64487,-5.85018 -0.85253,2.73401 -1.02893,-1.70508 -1.88147,2.41062 -3.35136,-2.08725 -2.93979,3.96872 -1.96965,-1.32291 -3.73354,4.67426 -2.79279,-1.46989 -4.32149,5.23282 v 0 l -6.14416,-2.32243 1.55809,-6.84971 -3.96872,3.73354 -6.37933,-4.26269 -4.2333,12.17072 -3.52775,1.02892 -4.40968,-3.26316 -6.37934,3.02799 -1.70508,-2.79282 v 0 l -1.76387,-2.17544 0.91133,-3.05737 -3.11617,-2.67521 v 0 l 5.35042,-7.34947 1.85206,-6.67332 3.76292,-2.14604 -2.46942,-0.85254 3.35137,-5.5856 -1.76387,-1.41111 3.41015,0.0882 3.88052,-3.61596 -1.49929,-4.52725 -10.67143,-9.02516 8.02562,-1.67568 -0.58797,-4.43908 -3.96871,-3.29257 -3.38076,1.88146 -6.46753,-1.73447 0.58796,-4.46848 z"
     class="land"
     title="Santarém"
     id="PT-14" />
  <path
     style="fill:#f9ee32;fill-opacity:1;stroke:#ffffff;stroke-width:1.46989;stroke-opacity:1"
     inkscape:connector-curvature="0"
     d="m 758.19092,605.7542 9.99528,0.32339 -4.61548,-2.64583 -1.94026,-14.02277 -1.94024,3.88051 -2.38124,-1.88146 0.64676,3.32197 -2.70462,0.64675 4.99765,0.47036 -2.08725,3.90993 -11.02421,-5.64441 -12.08252,8.78997 -18.02091,3.79233 3.82173,-10.84782 3.49834,-2.17545 -3.52774,0.91135 -2.734,-10.52445 -4.76247,-6.82031 10.84782,-3.02798 -0.0294,2.67521 4.29209,1.99905 -2.49881,-0.38217 1.96966,3.73354 -0.1176,-2.58702 2.26364,-0.23519 2.99859,4.79186 -1.38171,-5.29162 -2.41062,-1.29351 4.61547,-2.29304 0.32337,2.08726 1.61689,-1.05833 2.41063,2.26363 -1.35231,-3.73352 3.76292,-2.02845 -7.43765,1.20531 0.41156,-3.05739 11.02421,-5.23281 v 0 l 1.70508,2.79279 6.37934,-3.02798 4.40968,3.26316 3.52775,-1.02892 4.23329,-12.17072 6.37933,4.29209 3.99812,-3.73353 -1.55807,6.8497 6.14415,2.32243 v 0 l 5.17402,0.26459 -1.85206,3.02799 0.91133,2.41062 -14.14039,12.22952 1.3229,7.43766 5.93839,0.17639 4.32149,4.35089 2.08725,-0.94074 -1.29351,-2.7928 1.44049,-0.52917 2.64581,3.64534 9.90709,-3.41014 5.46801,10.31866 -1.17592,2.55762 3.64534,1.29349 -1.67568,0.1764 1.67568,1.44048 -3.61594,4.70367 4.2039,0.0881 0.76434,2.11665 6.64392,1.29351 3.08677,2.67521 v 0 l 3.23377,6.32055 v 4.99763 l -8.40778,2.52822 -1.79329,2.7046 -4.11569,-0.85254 -0.64676,5.5856 -3.93931,-1.88147 -2.7634,6.02657 -2.35184,-1.3229 -1.94026,4.96824 4.26269,5.96777 4.1745,-0.49976 2.35184,3.85111 -0.52917,11.05362 -3.32196,3.82172 0.41158,2.29303 -9.64251,-2.79279 -9.52492,2.05784 -1.08771,4.38029 -3.20437,1.94026 -0.29398,4.96825 -2.7928,0.85253 -4.0569,-2.20484 -2.08726,1.76387 -4.82126,-7.20248 -3.79232,1.14652 -1.55809,-1.70508 v 0 l -1.4111,-12.67048 -7.40826,-2.8516 4.64486,-8.11382 4.58608,-14.66953 0.35277,-22.51879 -3.85112,-9.90708 -7.49646,-8.4078 7.61405,5.6444 2.41063,6.55572 -0.76435,-6.26176 z"
     class="land"
     title="Setúbal"
     id="PT-15" />
  <path
     style="fill:#f9ee32;fill-opacity:1;stroke:#ffffff;stroke-width:1.46989;stroke-opacity:1"
     inkscape:connector-curvature="0"
     d="m 812.81219,154.49669 0.85254,9.67191 5.90897,-2.14604 2.02846,1.23472 1.29349,5.49739 -7.43765,5.67379 -4.99764,8.61359 1.55807,4.90944 2.8516,-0.32338 0.38218,7.23189 v 0 l -9.90708,5.82077 -2.08726,-1.20531 -1.14652,2.44002 -6.34994,-1.11712 -8.02563,4.70367 -3.73351,-0.76436 -1.85208,7.32008 -2.38123,1.99906 0.61735,3.96871 -2.05783,0.94073 -1.35232,-2.38123 -2.49881,1.05833 -3.61594,-2.49881 -0.73495,2.88098 -4.23329,-1.17591 -5.58561,3.26316 -4.90944,0.26459 v 0 l -6.55572,-17.05077 1.88146,-7.49647 -1.20531,-7.43766 10.84782,-7.81984 1.11712,-4.05691 7.61405,-4.55668 2.44003,-5.64439 8.34898,-0.79374 2.44003,-3.17497 17.43295,-0.52916 7.26126,-6.58512 2.76342,0.41156 2.35183,-2.61641 z"
     class="land"
     title="Viana do Castelo"
     id="PT-16" />
  <path
     style="fill:#f9ee32;fill-opacity:1;stroke:#ffffff;stroke-width:1.46989;stroke-opacity:1"
     inkscape:connector-curvature="0"
     d="m 839.32907,181.33696 1.96967,0.35278 -0.70555,8.05503 1.79327,1.79326 2.55762,-4.49788 13.40542,-3.29255 4.35089,3.29255 6.32055,-0.0882 -2.38124,6.55573 8.37841,-1.58749 1.76387,-3.41015 4.61548,0.52917 2.26362,7.17308 5.79138,-5.6444 4.70367,1.26411 10.64203,-4.58606 v 0 l -0.91133,8.14321 3.64534,5.46801 -0.0881,3.11617 -3.41015,4.02751 -4.64486,14.96352 2.7634,8.46659 -5.08584,0.88194 -1.3523,6.32055 -6.20295,2.96918 0.35277,9.31913 4.35089,3.26316 -5.64439,2.93979 1.2347,1.29351 -2.73399,2.23424 0.38216,5.08583 -2.49882,-0.47037 -1.64628,4.61547 v 0 l -6.58512,1.4111 -1.91087,2.41062 -2.26363,-1.05831 -3.90992,3.93931 -6.9379,-0.79374 -3.08678,2.61641 -9.20154,-2.49882 -1.55808,1.96966 -5.5856,-1.38171 -3.49834,4.55667 v 0 l 3.35135,-15.02231 -3.76293,-3.76292 0.79374,-3.67474 -5.23282,-3.32197 1.55808,-2.85159 -2.49881,-2.7634 v 0 l 3.35134,-12.67048 3.29258,-1.41111 0.85253,-2.99859 2.96919,0.2058 4.70365,-7.58465 -3.73352,-5.17403 -2.82219,3.35136 -10.75963,-1.91087 0.76434,-10.08347 -4.46847,-1.96967 -7.64344,1.4405 5.3504,-8.84876 0.99953,-7.29067 v 0 l 3.52775,-1.26412 3.58654,-5.67379 4.93884,-0.32338 z"
     class="land"
     title="Vila Real"
     id="PT-17" />
  <path
     style="fill:#f9ee32;fill-opacity:1;stroke:#ffffff;stroke-width:1.46989;stroke-opacity:1"
     inkscape:connector-curvature="0"
     d="m 883.30831,269.88338 3.85112,1.91087 3.05739,5.82079 4.90944,1.02891 v 0 l -3.82172,11.43579 0.76434,3.93931 -3.85112,0.11759 0.0294,2.70461 4.96825,2.35183 -0.99953,4.64486 -3.52775,2.64581 -0.52916,5.35042 -2.14605,-1.20532 -4.67426,8.08443 -5.615,-6.9673 -4.38028,-0.35277 -6.20296,11.08299 5.32101,3.93932 -1.88145,4.32149 5.20342,2.88099 -4.23329,14.22857 -7.84924,1.67569 -15.11051,7.43766 v 0 l -13.52303,11.34759 -14.87533,8.76056 -5.46801,-1.23471 -5.3798,2.44002 -4.52728,-4.23329 -5.26222,-1.08772 v 0 l 0.11759,-5.05644 3.46896,-3.93931 -1.67569,-5.43861 7.93742,-3.05739 -3.23376,-3.41015 -2.17544,-6.9673 5.85018,-2.44002 -4.55667,-2.29303 -0.23519,-7.0849 -2.7046,-2.20483 -0.55856,-3.49835 5.5268,-2.08726 3.32196,-8.37838 -1.67567,-3.73354 2.23422,-1.08773 3.76295,2.26365 2.14604,-2.44002 3.49834,2.11664 2.46943,-2.20485 -2.73401,-9.93648 4.02751,-4.85065 -0.17638,-2.61641 -3.93932,3.73353 -7.37887,-1.88147 0.82314,-1.96966 -3.41015,-1.85206 0.35277,-3.96872 -2.49881,-0.99953 v 0 l 5.5268,-3.46894 14.08158,0.52916 9.37792,-4.05691 3.70413,0.35277 v 0 l 3.52775,-4.55666 5.58561,1.3817 1.55807,-1.96967 9.20155,2.49883 3.08677,-2.61641 6.90851,0.79374 3.90991,-3.93932 2.26365,1.05833 1.91085,-2.44002 z m 4.93885,37.95268 -3.61595,-2.49883 -1.14652,3.35137 2.96919,1.73448 z"
     class="land"
     title="Viseu"
     id="PT-18" />
  <path
     style="fill:#f9ee32;fill-opacity:1;stroke:#ffffff;stroke-width:1.46989;stroke-opacity:1"
     inkscape:connector-curvature="0"
     d="m 576.39194,494.74443 0.35279,0.0882 0.29399,0.55855 0.70553,0.17638 0.85254,-0.11758 v -0.58797 l 0.20579,-0.0881 1.02893,0.61736 -0.17639,0.97012 0.29397,0.52917 -0.47035,0.67616 0.14698,0.58795 0.26458,0.23519 0.49976,0.17638 0.64676,0.29398 -0.0587,0.41157 1.14651,0.64675 -0.35277,0.2058 0.14699,0.55855 0.73495,-0.11759 0.23518,0.64675 0.38218,0.17638 -0.23518,0.79375 -0.11761,0.49976 0.52918,0.91134 -0.38219,0.82314 0.26459,0.49976 -0.26459,0.17639 -0.11758,-0.23518 -0.61735,0.0587 -0.55857,-0.0294 -1.3523,0.0587 -0.99953,-0.26459 -1.17591,0.23518 -1.11712,-1.14651 -0.11759,-0.61735 -0.79374,-0.58796 -1.02893,-0.26458 -0.91134,-0.0294 -0.88193,0.79374 -0.44097,-0.1764 -1.29351,0.85255 -0.58796,-0.79374 -0.41156,0.44097 -0.49977,0.29397 -0.97012,-0.58795 -0.41158,-0.73496 -0.17639,-1.99905 -1.02893,-1.88146 0.38218,-1.44051 0.70554,-0.0587 0.32338,-0.70556 0.55857,-0.26457 0.64675,0.17638 1.08772,-0.88194 -0.0587,0.58796 0.97012,0.61736 0.61735,-0.73495 1.05833,0.52916 0.67615,-0.32338 0.11759,-0.79375 0.55856,0.32339 0.47037,-0.44097 0.26458,0.20578 z m -32.45526,-94.24961 0.32338,-0.17638 0.0587,-0.52915 h 0.41158 l 0.20577,0.26457 -0.14699,0.64675 0.23518,0.26458 0.64676,-0.26458 1.4993,-0.26457 0.97012,-0.94074 0.76435,0.29399 1.3523,-0.76436 0.91133,-0.14699 0.73496,-0.67615 0.85252,-0.0587 1.32291,-0.76435 0.44097,-1.05832 0.70555,-0.49976 0.1764,0.64676 1.64628,0.73494 h 0.64675 l 1.14652,-0.61736 0.82314,0.14699 0.58794,-0.41157 0.49977,0.55856 1.58749,0.52916 0.97013,0.0294 3.35136,-0.70555 1.20531,0.29397 0.64675,-0.14698 2.32244,0.91133 0.88194,2.7634 0.17638,0.88194 0.32338,1.38169 -0.70555,0.85254 -0.17638,0.76435 0.44095,1.4405 -0.29396,1.2935 -0.70556,1.44051 -1.08771,1.2935 -0.85255,0.58796 -1.79327,0.0294 -0.88193,0.70555 -0.58797,0.11759 -1.08771,-0.17639 -2.32244,-1.05831 h -2.32243 l -1.88147,0.85252 -0.35277,0.29399 -1.11712,0.35278 -0.85254,0.32337 -0.52916,0.67615 -0.67616,-0.23518 -2.35183,0.26457 -1.52867,1.26412 -2.08726,-0.35278 -1.02893,0.20579 -0.82314,-0.20579 -0.64676,0.32338 -0.82313,-0.35277 -0.41156,0.38217 -1.14652,0.20578 -1.20532,-0.55856 -0.58797,0.0882 -0.82314,-0.0294 -0.99952,-0.29399 -0.38217,0.35277 -0.85253,0.14699 -0.44098,0.67615 -0.85254,0.2352 -0.73494,-0.82314 -1.14652,-0.26459 -0.76435,-0.99953 -2.23423,-1.58748 -0.41158,-0.67615 -1.64628,0.41157 -1.08772,-0.64677 -1.05832,0.2352 -0.91134,-0.76435 -1.26411,0.0294 -0.61735,0.82314 -1.02893,0.20578 -2.08724,0.49977 -1.32292,0.52916 -0.91133,-0.26457 -1.49929,-0.99953 -0.67615,-0.91134 -0.97013,-0.35277 -0.70555,-1.02894 -2.08724,-1.3229 -1.4993,-0.99953 -0.47038,-1.08772 -0.55855,-0.26458 -1.02892,-0.73494 -1.67569,-1.08772 -0.44095,-0.82315 -1.82268,-1.2641 -0.14698,-0.91134 -1.02893,-1.96966 -0.14699,-0.79374 0.73494,-0.61735 0.29398,-0.76436 0.35278,-0.76433 0.76435,-0.0294 0.67615,-0.88193 -0.14699,-0.70555 0.23517,-0.35278 0.2058,-0.67615 1.67567,0.47037 1.2347,-0.91134 0.26459,-0.58795 0.52917,-0.14699 1.67568,0.58795 1.17591,0.76435 1.26411,0.61735 0.32338,0.41158 1.41108,0.35277 0.94075,1.17591 0.41156,1.41111 0.52917,0.17638 0.52916,2.26364 0.41158,0.35277 0.58794,-0.14699 0.26458,0.70555 1.46991,0.55856 h 1.20531 l 0.99952,0.44097 1.17592,-0.26458 0.73495,0.29399 0.0882,-0.147 0.61736,0.67615 0.67615,0.29398 1.70508,0.85254 0.99952,-0.20578 0.70555,-0.26459 0.55857,0.35277 0.79374,-0.0587 2.52821,-0.94075 0.58796,-0.73493 1.64628,-1.02893 0.82314,-0.49976 0.23518,-0.49977 0.23519,-0.0294 0.49977,0.99953 0.32337,0.61735 0.23518,0.38217 0.47036,0.67615 0.64675,-0.17638 0.88195,0.44096 0.14699,-0.55855 0.32337,-0.0587 0.26458,0.47036 0.58796,0.17639 z m -276.36949,-86.60615 2.29304,0.35276 0.82313,0.64677 1.14652,0.20577 2.32244,1.41111 0.67615,0.11758 0.67615,0.26459 0.67615,0.55855 -0.0587,0.38218 0.47037,0.44097 h 0.61736 l 0.47037,0.52916 0.26458,0.91133 0.73495,0.76435 1.14651,-0.14699 1.14652,0.94073 1.14651,0.26459 1.32292,-0.29399 1.02892,1.4405 0.99953,0.38217 0.23519,0.38217 1.05831,0.0587 0.61737,0.52917 0.85252,1.55808 0.88195,-0.0881 0.97013,0.79373 2.44003,0.0294 0.35277,0.41157 0.82314,0.23519 4.82125,0.61735 0.64676,-0.14699 1.49929,0.44098 0.11759,0.58795 1.96965,1.17592 0.47037,0.76433 0.0587,1.17593 -1.3523,0.44097 h -0.94073 l -0.38217,0.41156 -0.44097,-0.0881 -0.41157,0.38217 -0.97012,-0.26458 -0.41157,0.52916 h -1.14653 l -2.23424,-0.76434 -2.96918,-0.26458 -0.58796,0.20578 -1.96966,-0.35277 -0.88193,0.32338 -0.0587,0.44096 -0.41158,0.20579 -0.44096,0.73495 -0.99953,0.11759 -1.91086,1.11711 -1.05832,0.29398 -1.02893,-0.61735 -0.47036,-0.29398 v -0.91133 l -0.0587,-0.76435 -1.49929,-0.97013 -2.91038,0.23518 -2.52823,-0.47036 -0.99952,0.17639 -0.94075,-0.35279 -1.46989,0.41158 -3.26316,-1.61688 -1.11711,-0.23518 -0.55856,0.14699 -0.47037,0.61734 -1.73448,0.14699 -1.82267,-1.46989 -1.44049,-0.32337 -3.41016,-1.96966 -0.41157,-1.52869 -0.73495,-0.61735 -1.02891,-1.91087 -0.147,-0.64675 0.23518,-0.73495 -0.23518,-1.3523 0.17639,-1.08773 0.47037,-1.79327 0.58795,-0.0294 -0.0587,-0.35278 0.76436,-0.23517 0.11759,-0.64675 1.23472,-0.88194 0.20577,0.11758 2.55763,-1.05831 2.6752,0.64675 0.55857,-0.47036 0.97013,0.20577 z m -27.8104,-9.73071 h 0.94073 l 2.881,1.05833 0.97013,0.52915 0.14699,0.44098 1.3523,1.20531 2.38123,0.58796 2.08725,2.02846 -0.49976,0.55856 -0.44097,1.1759 0.44097,1.17591 -0.73495,0.94074 0.85255,1.73448 -0.26459,0.35277 -1.35231,0.1176 -0.52916,0.64675 v 1.11712 l 0.26459,0.0587 0.14699,0.35276 -0.26459,0.20578 0.41157,0.44098 -0.32337,0.44097 -0.35278,-0.49977 -0.17639,0.14699 -0.32338,0.0882 0.11759,-0.38216 0.49977,-0.29398 -0.23518,-0.35277 -0.26459,0.23517 -0.76434,-0.11759 -1.02893,0.38218 -1.99905,-0.14699 -0.73494,0.35276 -2.05785,0.0294 -1.02894,0.35279 -1.14651,-0.0587 -1.61688,-0.73495 -0.91135,0.26458 -0.0587,-0.32337 h 0.49976 l 0.0882,-0.35278 -0.23517,-0.20577 -0.23519,-2.14605 -0.73495,-1.76388 -0.64675,-0.47036 -0.55856,0.35278 -0.29399,-0.2058 -0.41156,0.11759 -1.3817,-0.85253 -1.79327,-1.11712 -0.91133,-1.17592 -0.32338,0.0882 v -0.79375 l -0.55856,-0.20578 0.14699,-0.52916 1.26411,0.0294 0.58796,-0.58796 0.94072,-0.26458 2.38124,0.0587 0.85254,-0.32338 1.2641,0.26459 1.11712,-0.82314 1.38171,-2.23424 z m 36.86495,-13.31724 2.6752,0.47036 2.38123,0.85254 2.7928,1.67569 0.41158,-0.0882 4.79185,2.11665 2.96919,0.88194 0.88193,0.85253 0.73495,0.26459 0.55856,-0.17639 0.32337,0.64676 2.20485,0.44095 1.41109,0.97014 1.76388,0.55856 0.85254,-0.58796 -0.1176,0.55855 0.52916,0.49978 1.02894,0.23518 0.97013,-0.17639 1.76386,1.38171 1.23472,0.35277 1.3523,1.58748 1.20532,0.11759 0.32337,0.70556 1.67568,0.64675 0.70554,0.61734 0.61736,-0.17637 1.02894,1.41109 1.3229,0.17639 1.64628,0.67615 4.73305,2.64582 0.85254,0.41156 0.55857,0.38217 1.73447,0.67616 0.29398,-0.11759 0.26458,0.61735 1.55809,0.55856 2.38122,2.05786 -0.49977,0.23517 -0.35277,0.44097 -1.05831,0.79375 -0.79374,-0.23519 -4.4097,0.44096 -2.91037,-1.46989 -0.73496,-0.88192 -0.85254,-0.26459 -1.05833,-0.79374 -2.02844,-0.79375 -2.9692,-2.38122 -1.1759,-0.0587 -1.44051,-0.79374 -1.02892,0.35278 -2.52822,-0.94073 -0.55856,0.23518 -0.85253,-0.17639 -0.88195,-0.55856 -1.17591,-1.29351 -1.76387,-1.14652 -3.61594,-0.61735 -0.82313,-0.67615 -0.76436,-0.0587 -0.0587,-0.35276 -0.55857,-0.44098 -0.44096,0.0881 -1.49929,-0.67615 -1.79329,-1.23472 -2.08723,-0.82314 -0.91135,-1.55809 -0.85252,0.41158 -0.32339,-0.47037 -0.82314,0.1176 -0.1764,-0.29398 0.35279,-0.29398 0.14699,-0.64675 -0.94073,-0.11761 0.29397,-0.47036 -0.38217,-0.67615 -3.64533,-1.79327 -2.29304,-2.14604 -0.94073,-1.3523 -1.11712,-0.82314 z m 98.30653,-5.58559 0.61734,0.26457 0.38219,-0.11758 0.49976,0.55855 0.76433,-0.17639 0.76435,0.64676 0.88194,-0.0294 -0.0882,-0.47036 0.26458,-0.38218 0.49976,0.29398 0.79374,-0.32338 0.52916,0.38217 0.49977,0.41157 0.58796,-0.29398 0.49977,0.41158 1.2053,0.20578 1.3229,0.67615 1.29352,-0.20579 0.88193,0.49977 0.20579,0.20578 1.96965,-0.47036 3.82173,2.93978 0.26458,1.91087 0.49977,0.58795 0.94072,0.44098 -0.70554,0.61735 -0.82314,0.14699 -0.14699,1.70508 1.02892,0.73494 0.73496,0.67615 -0.147,0.47037 0.26459,0.41157 -0.64675,0.97013 -0.82314,0.38217 0.17638,0.82314 -1.08773,0.17639 -0.79374,0.58796 0.14699,0.99952 -0.0587,0.58797 -0.35277,0.97013 0.14699,0.67615 -1.11713,0.14699 -0.76434,-0.70555 -0.64675,0.52916 -1.17592,-0.49976 -1.3817,0.52916 -0.94073,-0.0882 -2.49882,-1.20532 -1.02893,0.26458 -0.58795,-0.26458 -0.76436,0.38217 -1.05831,-0.41157 -0.55856,0.47037 -0.76435,-0.32338 -0.14699,0.35278 0.47038,0.94073 -0.85254,0.44098 -0.67616,-0.55857 0.58795,-0.76435 -0.17638,-0.67615 -1.08772,-0.0587 -0.70555,-0.0587 -0.61735,0.29398 h -1.11713 l -0.85253,0.26458 -0.91134,-0.32337 -1.94026,-1.49929 -1.70507,-0.91135 -0.64676,-0.41156 -1.70508,-0.94073 -1.70508,-2.46943 -0.41157,-2.11664 -0.41156,-0.61735 -0.0882,-1.94027 0.73495,-1.52869 -0.55856,-0.88193 0.67615,0.17638 0.41157,-0.82314 -0.11759,-0.38217 0.44096,-0.64675 h 0.44098 l 2.32243,-1.5287 4.1745,-0.85254 1.58749,-0.14698 z m -71.61325,-34.86589 1.52869,0.49976 0.70554,0.70555 0.49976,-0.29398 0.55857,0.29398 -0.38217,0.26458 0.88193,0.49976 0.99953,1.76388 0.17639,0.76434 0.49976,0.0881 0.0587,0.44098 v 0.52916 l 1.29351,1.17591 0.38218,1.3817 -0.14701,0.29399 0.52917,0.47036 v 0.49977 l -0.38216,0.23517 0.26457,0.38217 h -0.82314 l -1.08773,0.49976 -1.94025,-0.61734 -0.35278,0.20577 -0.35277,-0.26458 -0.0587,-0.41156 -0.73495,-0.26459 -0.0294,-0.47036 -2.55761,0.17638 -1.05833,-1.2935 -0.97012,-2.49882 -0.91135,-0.82314 -0.0294,-0.55856 -0.49976,-0.0587 0.14699,-0.49977 1.61688,-1.49929 -0.11759,-0.58795 0.26458,-0.58797 0.20579,-0.17638 0.49976,-0.11759 0.58796,0.0587 0.26459,-0.23518 z M 8.2190673,199.35451 l 0.352776,0.1176 -0.2057878,0.58794 0.4997632,1.20532 1.7344803,1.20531 0.440964,-0.47036 0.411576,0.14699 -0.08819,0.26458 0.293976,0.14699 0.793741,-0.20579 0.411575,-0.55856 0.176388,0.17639 0.411564,0.64675 -0.146988,0.64676 0.587964,0.64675 -0.176388,0.17639 0.205787,1.26411 0.823141,0.55855 0.323376,0.79374 0.82314,-0.11759 0.264576,1.14652 -0.264576,0.70556 -1.028928,0.58796 -0.558564,0.85253 -0.02944,0.41157 0.705551,0.97013 -0.499763,-0.11758 -0.587964,0.29396 -0.176377,0.64676 0.235177,1.17592 -0.411565,1.08772 -0.617363,0.64675 -0.08819,0.97013 -0.999527,0.61736 0.176387,0.32337 -2.1754439,0.55857 -2.6164083,-0.35278 -0.3821759,0.44096 -0.7055398,0.11761 -0.6173636,-0.44098 -0.8525402,-0.0294 -0.2351767,-0.67615 -0.529164,-0.32338 0.2351877,-0.23517 -0.3527761,-0.29398 -0.1175993,-0.61736 0.2645875,-0.23517 -0.3233762,-0.47037 0.6761522,-0.47038 0.029438,-0.32337 -0.4703643,-0.32338 0.029438,-0.49976 -0.6173636,-0.73495 -0.1469882,-1.11712 0.4409756,-1.11711 -0.352775,-1.17593 -0.4703644,-0.52916 0.3821638,-0.47036 -0.1175873,-0.41156 h 0.529163 l 0.2645765,-0.55857 -0.029438,-3.02799 0.8231404,-0.70555 0.088183,-0.44096 0.5879637,-0.23519 0.7937406,-1.35229 -0.3233762,-1.08773 2.1754436,0.0587 z m 9.4661167,-24.22386 1.852068,0.82314 0.558564,1.46989 -0.02944,0.97015 -0.440965,1.52867 -1.499292,1.35231 -0.617364,0.26459 -0.235176,0.38216 -0.558563,0.0294 -0.352776,-0.14699 -0.146989,-0.47037 0.617352,-0.61735 -0.146987,-0.61737 -0.734941,-0.97013 -0.205788,-1.08771 0.88194,-1.96966 -0.176388,-0.82315 0.558552,0.147 z"
     class="land"
     title="Açores"
     id="PT-20" />
  <path
     style="fill:#f9ee32;fill-opacity:1;stroke:#ffffff;stroke-width:1.46989;stroke-opacity:1"
     inkscape:connector-curvature="0"
     d="m 387.36244,708.78448 0.97013,2.79279 1.4405,2.44002 -1.49929,-0.73493 -0.49976,-0.91134 -0.82314,-2.46942 z m -1.82267,-8.67237 1.4405,3.08676 0.17638,2.91041 -2.26363,-5.55621 -1.96965,-1.58749 -0.2646,-3.46894 1.73449,2.05785 z m -60.97122,-37.10013 1.4699,2.32243 2.26365,2.17544 1.79327,0.0881 1.14651,1.26412 3.88053,0.76433 3.29255,-0.76433 2.44002,-1.64628 2.41064,0.41156 5.5562,-1.20531 1.85206,1.17591 1.88146,2.14604 2.55762,2.20485 1.26411,2.08726 2.26364,0.61734 1.85206,0.52917 3.08678,0.23518 1.61688,0.44097 1.76388,-0.0587 0.88193,0.41158 -0.41156,1.02891 -2.46942,0.1176 -1.4699,0.35278 -0.94073,1.64628 -0.76435,0.32337 0.26458,1.02893 -1.11712,1.82267 -1.82266,0.61735 -0.94074,2.44002 -2.58701,2.46943 -1.73448,0.44096 -2.64581,-0.99952 -2.55761,-0.14699 -1.02892,0.55856 -2.70462,0.94074 -0.79374,-0.94074 -2.881,-1.05833 -2.82219,-0.11759 -6.43813,-2.96919 -1.73448,0.14699 -3.17497,-2.7634 -6.8791,-3.70413 -3.02798,-3.96871 0.17638,-0.94073 -0.76435,-2.20485 -1.3523,-1.44048 6.14417,-5.90899 z m 80.16804,-25.22339 0.82314,-0.11759 -0.49976,1.20532 0.91133,1.20531 -0.79374,0.70554 0.47036,1.05833 -1.82266,-0.41158 -1.38171,0.32339 -4.82126,4.0569 -0.44095,-0.76434 -0.82315,-0.14699 -0.44096,-0.94074 0.88192,-0.0587 0.91135,-1.4699 0.44096,-1.70507 -0.32337,-0.47036 0.67615,-0.88195 0.94072,-0.0587 0.58797,-1.08771 1.76387,-0.52917 1.17591,-1.05832 z"
     class="land"
     title="Madeira"
     id="PT-30" />
  <path
     style="fill:#f9ee32;fill-opacity:1;stroke:#f9ee32;stroke-width:3.44935;stroke-linecap:butt;stroke-linejoin:miter;stroke-miterlimit:4;stroke-dasharray:none;stroke-opacity:1"
     d="m 94.658025,549.14671 525.950325,-0.0435"
     id="path863"
     inkscape:connector-curvature="0"
     sodipodi:nodetypes="cc" />
  <path
     style="fill:none;stroke:#f9ee32;stroke-width:3.44935;stroke-linecap:butt;stroke-linejoin:miter;stroke-dasharray:none;stroke-opacity:1"
     d="m 620.2304,854.0309 -0.002,-707.78229"
     id="path1"
     sodipodi:nodetypes="cc" />
</svg>
