<?xml version="1.0" encoding="UTF-8" standalone="no"?>
<?xml-stylesheet type="text/css" href="/styles/home.css"?><!-- https://www.amcharts.com/svg-maps -->

<svg
   version="1.1"
   id="map-romania"
   viewBox="0 0 1000 1000"
   width="1000"
   height="1000"
   class=""
   sodipodi:docname="romania.svg"
   inkscape:version="1.3.1 (91b66b0783, 2023-11-16)"
   xmlns:inkscape="http://www.inkscape.org/namespaces/inkscape"
   xmlns:sodipodi="http://sodipodi.sourceforge.net/DTD/sodipodi-0.dtd"
   xmlns="http://www.w3.org/2000/svg"
   xmlns:svg="http://www.w3.org/2000/svg"
   xmlns:rdf="http://www.w3.org/1999/02/22-rdf-syntax-ns#"
   xmlns:cc="http://creativecommons.org/ns#"
   xmlns:dc="http://purl.org/dc/elements/1.1/">
  <metadata
     id="metadata51">
    <rdf:RDF>
      <cc:Work
         rdf:about="">
        <dc:format>image/svg+xml</dc:format>
        <dc:type
           rdf:resource="http://purl.org/dc/dcmitype/StillImage" />
      </cc:Work>
    </rdf:RDF>
  </metadata>
  <sodipodi:namedview
     pagecolor="#ffffff"
     bordercolor="#666666"
     borderopacity="1"
     objecttolerance="10"
     gridtolerance="10"
     guidetolerance="10"
     inkscape:pageopacity="0"
     inkscape:pageshadow="2"
     inkscape:window-width="1920"
     inkscape:window-height="1106"
     id="namedview49"
     showgrid="false"
     showguides="true"
     inkscape:guide-bbox="true"
     inkscape:zoom="0.38563353"
     inkscape:cx="64.828387"
     inkscape:cy="219.11995"
     inkscape:window-x="-11"
     inkscape:window-y="-11"
     inkscape:window-maximized="1"
     inkscape:current-layer="map-romania"
     inkscape:showpageshadow="2"
     inkscape:pagecheckerboard="0"
     inkscape:deskcolor="#d1d1d1">
    <sodipodi:guide
       position="746.96984,500"
       orientation="0,1"
       id="guide858"
       inkscape:locked="false"
       inkscape:label=""
       inkscape:color="rgb(0,0,255)" />
    <sodipodi:guide
       position="683.8342,851.49081"
       orientation="0,-1"
       id="guide1"
       inkscape:locked="false" />
  </sodipodi:namedview>
  <defs
     id="defs4">
    <style
       type="text/css"
       id="style2">
         .land {
            fill: #f48da0;
            fill-opacity: 1;
            stroke: white;
            stroke-opacity: 1;
            stroke-width: 0.5;
         }

         .rectangle:hover {
            fill: #bdbdbd;
            cursor: pointer;
         }
      </style>
    <!-- <amcharts:ammap projection="mercator" leftLongitude="20.262217" topLatitude="48.2623309" rightLongitude="29.713041" bottomLatitude="43.617249"></amcharts:ammap> -->
    <!-- All areas are listed in the line below. You can use this list in your script. -->
    <!--{id:"RO-AB"},{id:"RO-AG"},{id:"RO-AR"},{id:"RO-BC"},{id:"RO-BH"},{id:"RO-BN"},{id:"RO-BR"},{id:"RO-BT"},{id:"RO-B"},{id:"RO-BV"},{id:"RO-BZ"},{id:"RO-CJ"},{id:"RO-CL"},{id:"RO-CS"},{id:"RO-CT"},{id:"RO-CV"},{id:"RO-DB"},{id:"RO-DJ"},{id:"RO-GJ"},{id:"RO-GL"},{id:"RO-GR"},{id:"RO-HD"},{id:"RO-HR"},{id:"RO-IF"},{id:"RO-IL"},{id:"RO-IS"},{id:"RO-MH"},{id:"RO-MM"},{id:"RO-MS"},{id:"RO-NT"},{id:"RO-OT"},{id:"RO-PH"},{id:"RO-SB"},{id:"RO-SJ"},{id:"RO-SM"},{id:"RO-SV"},{id:"RO-TL"},{id:"RO-TM"},{id:"RO-TR"},{id:"RO-VL"},{id:"RO-VN"},{id:"RO-VS"}-->
  </defs>
  <path
     d="m 269.7326,413.07718 2.13867,2.7264 5.42014,1.43665 6.28541,-2.87332 7.70574,0.75098 2.12235,2.71008 0.70201,5.02833 1.81215,0.86526 -0.68567,3.98348 4.68548,0.0979 1.56727,-3.59167 5.71401,-2.54681 2.25295,-0.27753 0.55506,2.15499 5.17527,0.99586 10.48112,-5.68135 2.15499,-2.97128 2.93863,-0.40815 7.62412,4.60387 3.00394,4.09775 1.81217,-0.62037 3.23249,2.12234 6.20377,-1.89378 2.43255,3.36309 -3.15088,3.90185 -0.57139,4.08144 0.89791,1.50197 5.04465,1.42034 4.27735,-0.94689 -2.64477,-3.1672 2.51416,0.26121 -0.83262,-2.23663 3.15087,-2.3509 2.97128,0.62037 8.9465,-2.25294 1.94277,0.53875 0.73466,2.43252 2.6611,0.44081 10.84029,-2.15501 v 0 l 1.19177,3.52637 2.57947,0.11427 2.25295,-3.52636 2.00806,-0.22855 -1.66522,8.42408 -2.54681,2.69374 1.06117,2.38355 7.62412,5.50177 5.55074,0.0326 1.40401,5.6487 5.56708,2.9223 v 2.39988 l 2.28561,-0.32651 3.54268,3.05291 v 0 l -6.18745,3.68962 0.91424,1.37136 -1.76318,4.29367 2.87333,2.31825 -0.35917,1.42035 -6.49764,3.28147 -3.72227,0.27753 -2.74272,4.83243 -3.2978,2.15499 0.62037,1.43666 -2.87331,3.83655 0.73464,3.1019 -4.22836,2.56314 -0.0979,2.36723 -4.11409,-6.59561 -7.57514,-0.0163 -4.45693,4.86508 2.13867,1.404 -1.19177,3.15087 0.79996,2.95496 -3.06924,1.82848 -2.26928,3.80389 -8.75059,1.15913 0.99587,0.89792 -1.19179,2.3509 1.94277,1.58359 -2.18765,9.68117 -3.06924,-0.6367 -6.02419,3.39576 -1.27341,2.80801 4.62019,3.8039 -2.23662,0.70201 -1.53463,3.05292 -4.22837,1.68154 -1.12646,3.44474 0.27753,4.24469 6.07317,5.38748 -1.15912,3.62432 1.43666,1.94276 -2.93864,2.05705 -1.11015,3.46105 2.69374,2.41621 1.56728,4.21203 0.65303,7.19965 -2.90598,0.88159 v 0 l -3.8039,-0.6367 v 0 l -2.49783,-8.2445 -4.06512,-3.91817 -2.31825,0.17958 -1.17545,-4.17938 -7.98329,-1.61625 0.14694,-5.64871 -4.34264,-2.25295 3.51002,-5.04465 -5.97522,-5.68135 2.13868,-6.43234 -3.33045,-3.46106 -2.22029,-7.55881 0.29386,-8.8159 -2.74273,-4.81609 -4.34264,-2.56315 -5.5181,-12.26063 0.81628,-2.9876 -4.89772,1.09382 -3.37942,-2.95495 -2.56314,0.48977 -3.26516,-1.86113 -1.11015,-4.34265 1.25709,-2.20398 -3.28147,-6.64458 2.10602,-1.11015 2.2203,1.0122 -0.55508,-6.25275 -2.28561,-0.79996 -2.12234,-3.26515 -1.99173,1.24076 -5.33852,-3.06924 -3.8039,-6.53029 1.48564,-2.93864 -3.0529,-6.44866 -12.81571,0.40814 -3.39576,-3.75492 -2.66108,-0.27753 v 0 l -5.5181,-1.66524 -1.74687,-3.24881 v 0 l -1.46931,-7.02007 2.28561,-3.3631 -2.07337,-4.8814 0.35917,-5.7793 4.96302,-3.55901 -3.00394,-1.86114 0.0653,-1.97542 5.06098,-3.67328 z"
     title="Alba"
     id="RO-AB"
     class="land"
     inkscape:connector-curvature="0"
     style="fill:#f48da0;fill-opacity:1;stroke:#ffffff;stroke-width:0.816287;stroke-opacity:1" />
  <path
     d="m 468.53107,558.96394 13.9585,-0.81628 2.08969,2.44886 5.90992,-0.66935 4.31,1.7142 2.51416,-1.40401 4.96302,1.25707 2.95495,-1.40401 7.10169,2.00806 8.16288,7.85268 5.61606,1.91011 0.57139,5.97522 2.07337,3.08556 -0.22856,4.86508 3.41208,0.99587 1.69787,-1.02852 0.39182,5.02832 1.45299,1.33871 v 0 l 0.44081,3.95083 -2.22031,9.41995 -2.67742,3.34678 1.24075,6.80783 -4.89772,1.89377 0.52243,4.7508 -2.93864,1.27341 -2.44885,-1.63258 -4.73447,-7.55882 -2.08969,2.20398 0.0489,3.06924 2.25295,0.4408 -1.24075,7.60778 1.66521,0.76731 -0.52242,1.69788 2.155,3.33045 -1.42034,4.22837 -2.53048,-0.99587 -1.15913,3.26515 1.9101,3.10188 2.04073,-0.48977 1.04483,2.18766 1.53463,-0.0326 1.14281,3.59167 -2.53049,2.77537 -1.02853,5.76298 3.24882,13.02793 0.42446,9.17507 -2.22029,11.99941 4.88139,2.75905 -3.52635,5.33852 -2.93864,0.40814 3.99981,3.96716 -0.84893,2.90598 7.85266,8.3098 0.60406,3.8692 -1.74685,2.67741 2.10602,4.97936 -1.24076,1.46931 0.53875,3.39575 -1.27341,1.06117 -4.8814,-0.93057 v 0 l -14.98701,6.72621 -7.99962,-0.55507 -3.64064,3.62431 -11.18312,0.83261 -1.8448,-1.81215 -2.90599,1.04484 v 0 l -0.71834,-1.35504 -5.25688,0.0979 -2.26927,-3.19985 0.3265,-7.72207 -1.46932,-4.91404 1.28975,-5.12628 -0.47345,-6.20378 -1.46932,-2.15499 1.43666,-3.18352 -4.55487,-12.81571 1.99173,-2.3509 0.13062,-3.57534 -8.76693,0.39182 -3.26515,-3.44474 -0.53875,-6.41601 -1.51828,-0.44079 -3.15088,-8.48938 0.0326,-5.25688 -2.05705,-0.13061 -3.51002,6.53029 0.1306,3.8039 -6.74254,0.50609 1.30606,-2.97127 -1.25707,-1.17546 v 0 l 4.91404,-7.15068 -1.0775,-2.23662 2.26928,-5.48545 -2.12235,0.21224 3.91819,-7.19965 -1.15913,-1.89379 2.08969,-5.94257 -2.98762,-2.88965 2.61212,-2.41621 -0.71832,-1.7795 -1.5836,0.0489 0.0979,-2.23663 2.46518,0.14693 0.91424,-3.73859 -2.00806,-3.10188 1.66522,-1.09382 0.32651,-2.77539 -5.56707,-7.31392 3.37943,-9.99135 -0.93057,-4.48958 -1.91012,-0.35916 1.66524,-1.35505 0.53875,-4.66916 -2.69375,-1.51828 -3.31414,-13.41976 5.92625,-9.40361 -0.35916,-6.22012 v 0 l 1.66522,-1.69787 6.43234,0.86527 5.43647,-3.18352 5.90991,0.75097 z"
     title="Argeș"
     id="RO-AG"
     class="land"
     inkscape:connector-curvature="0"
     style="fill:#f48da0;fill-opacity:1;stroke:#ffffff;stroke-width:0.816287;stroke-opacity:1" />
  <path
     d="m 125.39676,399.10235 7.06905,-0.3755 0.57141,3.15088 1.32239,-0.751 1.40401,1.91013 1.3387,-1.15913 0.91424,1.04484 1.09382,-3.16719 5.10996,0.58774 2.64478,-2.88967 15.73801,1.28974 6.75884,-1.71421 2.02441,-2.12234 3.51002,2.90598 -2.97128,4.53856 7.49351,2.33457 4.7508,-1.33871 2.62843,-4.52223 1.42034,2.33459 1.91011,0.11428 0.0326,1.87745 5.82828,1.5183 0.4408,2.05703 5.77931,0.16327 -0.45712,4.79976 1.61625,6.12216 4.34264,7.10168 1.95908,-1.22442 2.18766,1.45299 11.31373,1.22442 0.6367,5.66503 6.04053,7.15068 4.35896,-0.0979 1.3877,2.28562 1.87745,-1.19179 0.81629,-3.05291 18.44807,3.3631 v 0 l 1.74687,3.24881 5.5181,1.66524 v 0 l -3.51004,3.19984 -4.55488,1.55095 -2.25295,13.68096 -9.82809,-0.0489 -0.91424,1.5183 -3.90185,0.78362 -2.69375,-3.90184 -5.73034,4.76711 1.66523,5.01201 4.31,3.51003 -3.608,1.68155 -0.21222,2.05704 -5.04466,4.50591 1.99174,1.66522 0.40814,11.90146 -4.16306,-0.0163 -0.97954,2.23663 -3.96716,-0.44079 -0.702,1.7142 2.61212,4.47325 6.38336,0.57139 0.63669,1.28974 -2.43252,3.95083 v 0 l -6.41601,-3.91818 -1.0775,-4.27735 -1.99175,0.11429 -1.86113,5.90992 -6.46499,-2.69376 -2.61211,5.35485 -4.57122,-1.89378 -4.34264,1.59991 -0.39181,-2.90597 -13.01162,-5.48546 -0.52242,-3.83653 -7.39556,1.71419 -1.28973,3.34678 -2.71007,2.00807 -2.36724,-1.69788 -2.51416,2.23663 -1.9101,-1.79584 -3.37944,4.39162 -2.3509,-0.32651 0.0163,-1.79583 -3.90185,-0.42447 -1.22444,-3.02026 -3.37942,4.81609 -0.17958,3.24883 -2.33458,1.2734 -0.86527,-4.55488 -2.9223,-1.59992 0.11429,-4.01613 -11.78719,-5.76299 0.42446,-4.79976 -2.67741,-3.83655 -7.13435,6.8568 -6.41602,3.00394 -1.50197,3.8039 -1.43666,0.0815 -1.46931,-3.78756 -4.45692,-2.56315 0.70199,1.97542 -3.47738,0.89792 -1.7795,4.6365 -5.991539,-2.51415 -2.922309,-4.16306 -1.648899,0.11427 -0.620378,2.79171 -3.346776,2.41621 -2.67742,-3.08557 -1.632573,-6.13848 -4.55488,1.46931 -4.522229,-2.13866 -4.277342,0.89791 -2.693746,-5.40381 -8.913852,-2.28562 -5.632378,-5.35484 -0.848938,-2.80802 -4.685486,-0.0326 -1.240756,-2.30192 -1.926437,-0.21224 v 0 l 1.844809,-1.06118 1.632572,-6.43234 3.232497,0.37551 -0.979545,-6.48133 2.726398,-4.24469 10.138281,-1.7795 4.603857,3.82022 0.865264,-2.07336 2.073368,-0.32653 0.718333,2.10603 7.57514,-0.35918 1.355036,2.56315 2.889655,0.86526 4.130412,-2.84067 1.240755,-5.77932 6.23643,0.19592 0.42447,-5.42015 2.416204,-2.17132 0.685682,-8.11389 1.7795,-1.74686 7.59147,1.04486 -0.57139,-1.30607 2.43252,-4.01613 -1.69787,-5.2079 -2.33458,-0.19592 -1.40401,-3.72227 1.55094,-6.22009 1.68156,-0.62038 3.03658,-5.55076 -1.82848,-1.33871 1.19178,-4.11408 5.61605,-3.02026 4.5712,2.26927 1.04485,-3.55901 z"
     title="Arad"
     id="RO-AR"
     class="land"
     inkscape:connector-curvature="0"
     style="fill:#f48da0;fill-opacity:1;stroke:#ffffff;stroke-width:0.816287;stroke-opacity:1" />
  <path
     d="m 604.89992,393.32304 2.20398,-1.87746 7.54249,-0.35917 0.8163,7.19965 2.36722,1.46932 4.17939,-1.74685 1.6489,2.62844 5.8936,-1.79583 2.56313,-5.71401 3.08557,-1.86113 3.21616,7.39555 5.46912,1.97542 9.15874,-5.68136 5.73033,-0.16325 1.87746,-2.20398 2.41621,0.32651 3.2978,3.70596 4.42427,-5.22425 7.33025,-4.5059 1.24077,-5.50178 5.22423,0.48978 0.79996,-2.41621 4.03245,7.93431 3.2325,-0.96322 1.02852,-4.40795 3.10189,-2.20397 0.52243,-3.68962 1.82848,-1.15913 0.0652,-3.21616 4.83242,1.61624 -0.78363,3.2978 -1.56728,0.17958 2.18765,0.5714 0.78364,2.82436 1.53462,-1.46932 1.12646,4.40795 10.30155,-2.43254 1.79583,1.95909 3.3631,-2.15499 2.48152,3.75492 2.97127,-0.58773 0.52242,2.71007 2.61213,-3.54268 2.155,-0.31019 v 0 l 12.53816,9.86074 -1.84481,3.55902 1.91011,3.19983 -4.09776,4.31 5.55075,5.97521 5.69768,11.23211 4.13041,13.30548 2.95496,3.75492 2.90598,10.97089 -1.86113,3.28148 1.15913,9.53422 1.74685,6.93843 2.13867,1.51831 -2.77538,6.44865 v 0 l -2.33457,-2.0407 -1.17545,-3.93451 -2.17132,-0.88159 -3.82023,0.0163 -2.2203,5.0773 -4.93037,-2.13867 -0.86526,-4.62019 -1.89379,0.97955 -3.77125,-1.11015 0.78364,2.93863 -1.89379,1.20811 -3.90184,-1.89379 -1.86113,2.87333 -2.54682,-1.68155 -0.17959,1.81216 -5.07731,3.44472 0.21225,1.79584 2.33457,0.44079 -0.91425,2.20397 0.97956,1.02853 -1.14281,1.02852 -5.15892,-1.82849 -0.79997,4.34265 -9.4526,-4.21203 -6.07317,7.57513 -6.33439,-2.93863 -5.77931,2.15499 -9.06078,-3.65696 -8.29347,2.43253 -9.37097,8.37511 -13.50139,-3.10189 v 0 l -1.30606,-3.64063 1.40402,-1.86114 -1.55094,-2.61212 -4.37531,0.11428 -4.71813,-3.78758 0.26122,-12.21164 -2.00807,-5.04465 -6.41601,-1.91011 v 0 l -0.83263,-3.88553 2.93863,-3.91818 0.50611,-5.43646 -2.74272,-1.11015 -5.33853,4.35897 -5.6487,0.0489 2.54682,-10.46481 -1.02852,-1.12646 1.66522,-2.23663 -13.12589,-0.65303 -7.91798,-4.73446 3.80391,-3.41209 -0.89793,-1.24075 1.33872,-1.92644 4.17938,-2.13867 0.55507,-2.00806 -0.99586,-4.11409 -6.93844,-10.54642 -0.52242,-2.43254 1.94275,-4.19571 z"
     title="Bacău"
     id="RO-BC"
     class="land"
     inkscape:connector-curvature="0"
     style="fill:#f48da0;fill-opacity:1;stroke:#ffffff;stroke-width:0.816287;stroke-opacity:1" />
  <path
     d="m 204.05417,250.71775 3.9998,1.91011 1.6489,4.53856 2.18765,0.71832 -0.5061,3.8039 3.60799,0.0815 -0.0163,5.09362 6.31805,2.93863 -1.51828,1.25709 2.51416,8.22818 5.10995,-1.0122 2.57948,2.13866 5.46911,-2.3509 3.65696,1.81216 1.35504,3.83655 3.19984,0.40815 0.97956,3.72226 3.88552,3.85288 v 0 l -0.0163,2.87332 -5.8283,2.43254 -0.75098,11.68922 -2.61212,1.61625 -0.91424,5.45279 -1.95908,1.77951 1.19177,1.5836 2.64477,0.0979 0.73466,4.47326 2.75905,2.74273 -1.24076,1.81215 2.53049,5.35483 3.42841,-0.81628 2.71007,4.47326 5.51809,0.71833 1.12648,1.91011 2.56314,-0.71833 0.37549,5.58339 v 0 l -4.5059,5.64872 -0.0163,4.65283 10.46479,6.98741 -5.84461,12.2443 -5.82829,2.25296 -1.32239,3.62431 5.92625,2.84067 -0.52243,2.80803 4.16307,7.6731 -3.16719,2.97128 -3.5427,-1.12648 -3.60798,2.20398 3.33045,2.62844 3.33045,-2.56314 3.52636,0.58772 3.99981,2.87334 0.31019,2.25295 2.02439,-0.63671 1.37136,4.47327 -1.1428,5.92623 v 0 l -6.80783,-4.70181 -5.06098,3.67328 -0.0653,1.97542 3.00394,1.86114 -4.96302,3.55901 -0.35917,5.7793 2.07337,4.8814 -2.28561,3.3631 1.46931,7.02007 v 0 l -18.44807,-3.3631 -0.81629,3.05291 -1.87745,1.19179 -1.3877,-2.28562 -4.35896,0.0979 -6.04053,-7.15068 -0.6367,-5.66503 -11.31373,-1.22442 -2.18766,-1.45299 -1.95908,1.22442 -4.34264,-7.10168 -1.61625,-6.12216 0.45712,-4.79976 -5.77931,-0.16327 -0.4408,-2.05703 -5.82828,-1.5183 -0.0326,-1.87745 -1.91011,-0.11428 -1.42034,-2.33459 -2.62843,4.52223 -4.7508,1.33871 -7.49351,-2.33457 2.97128,-4.53856 -3.51002,-2.90598 -2.02441,2.12234 -6.75884,1.71421 -15.73801,-1.28974 -2.64478,2.88967 -5.10996,-0.58774 -1.09382,3.16719 -0.91424,-1.04484 -1.3387,1.15913 -1.40401,-1.91013 -1.32239,0.751 -0.57141,-3.15088 -7.06905,0.3755 v 0 l 1.32239,-2.12235 -1.63257,-0.79996 -0.88159,-3.39575 4.24469,-0.22856 2.18766,1.45299 3.75491,-5.28954 -0.19591,-2.90598 -4.45693,-4.16306 3.75493,-5.42015 0.14693,-5.55074 8.44041,-4.21205 1.40401,-3.3631 -1.56728,-6.38336 3.9998,-0.93056 4.57122,-4.66917 -1.45299,-1.2734 2.23662,-4.5059 -4.21203,-6.0895 3.49369,-0.83261 4.68549,-8.11389 7.05272,-1.56728 2.57948,-9.82809 4.34264,-2.53049 -0.73466,-7.64043 3.85288,-5.64871 -0.91425,-2.2203 6.41601,-13.28915 7.37924,-0.53875 2.51416,-5.27322 -0.14693,-6.2854 -2.61212,-3.91817 1.43666,-6.25277 2.61212,-3.57533 1.68155,1.59992 0.97955,-1.25709 -1.5836,-1.9101 4.29367,-1.74686 3.49372,-5.76298 4.40794,0.84894 z"
     title="Bihor"
     id="RO-BH"
     class="land"
     inkscape:connector-curvature="0"
     style="fill:#f48da0;fill-opacity:1;stroke:#ffffff;stroke-width:0.816287;stroke-opacity:1" />
  <path
     d="m 398.0692,289.62198 1.19178,-2.05705 2.69374,-0.76731 1.5836,-4.73446 3.55901,-2.59579 2.155,-11.44435 7.46086,-1.09381 4.6365,1.12646 0.84895,-2.56313 2.88964,-1.63258 2.64477,-7.52617 5.69768,0.50611 3.11822,-5.24056 7.46087,1.56727 10.48111,4.93038 7.59146,-1.22445 4.84876,2.39988 5.25688,-2.87331 8.96282,0.39182 0.60406,-3.37944 3.54268,-1.6489 1.68156,1.84482 3.52636,-1.50197 5.51809,0.99586 v 0 l 2.0897,0.17959 6.10582,5.012 -1.06117,2.48151 2.90597,4.68549 5.07732,3.34677 -4.65284,4.04878 2.18765,2.0244 -0.79996,3.54268 -2.61212,0.94689 -1.7795,-1.48564 -1.19179,2.00806 -0.0489,2.18766 3.46106,4.66916 2.9876,1.24075 -0.68568,2.54682 1.6489,6.2854 -4.39162,3.68962 2.51416,4.39162 -2.10603,8.48939 2.05706,1.37136 0.97953,9.5832 v 0 l -4.89771,3.82023 -7.39556,-0.78364 -1.94277,2.41621 -5.50177,-0.19592 -6.51397,5.09364 -3.4284,4.48957 -2.08968,6.98742 -3.15088,3.05292 -1.82848,6.88945 2.31826,1.92644 -1.53462,0.29386 -0.24489,2.13867 -2.57947,0.57141 -5.1426,-1.94277 -3.2978,-6.13848 -0.32652,1.76319 -2.64476,0.0979 -1.19179,3.99981 -3.05291,0.16325 0.71834,1.61625 -2.85701,-0.24489 -0.91423,7.99961 -2.26928,0.19591 0.17958,2.00807 -3.72227,1.63257 -1.79584,9.48525 -3.10188,-1.45299 -5.81196,3.83655 -1.50197,-1.56727 -6.18745,1.27341 -12.1137,-7.62412 v 0 l 0.71834,-4.11409 2.30193,-1.28973 0.40814,-7.24863 2.7264,-0.65302 -4.73446,-4.37531 -0.0816,-2.13866 -3.47738,0.26121 -1.15913,-4.35898 -3.85288,-0.68567 -1.02852,-5.92625 1.3387,-2.77537 -1.87745,-1.32239 3.95083,-8.65263 -4.01614,-7.31394 -4.86507,0.89793 -2.07336,-2.18766 0.39182,-2.87333 -1.97542,-3.23249 -1.55094,0.32652 -0.0979,1.69787 -1.50198,-2.26928 -4.01613,-0.35916 -1.45298,-2.43254 -0.86527,-15.77066 2.23663,-2.04072 3.4284,2.22031 4.8814,-3.93451 z"
     title="Bistrița-Năsăud"
     id="RO-BN"
     class="land"
     inkscape:connector-curvature="0"
     style="fill:#f48da0;fill-opacity:1;stroke:#ffffff;stroke-width:0.816287;stroke-opacity:1" />
  <path
     d="m 771.48772,576.67736 1.09382,-1.17545 3.8039,1.12648 1.22443,3.31412 4.84875,-4.34265 0.32652,2.92231 3.0529,-1.404 -0.62038,2.82434 3.33045,0.32652 -0.63671,1.76318 2.17134,-0.55508 0.13061,1.43667 1.92643,-0.7673 -0.81629,4.99566 4.16307,-1.17545 0.34283,2.12235 3.19985,1.95909 5.30586,-0.32652 -0.71833,-0.81629 2.84068,-2.69375 10.46479,4.42428 0.99588,-1.50197 3.73859,-0.39182 v 0 l -0.19592,6.69355 -3.18352,10.62806 6.51397,5.0773 3.95084,0.73467 2.15499,-1.25709 1.56727,3.59165 -4.04878,6.61193 11.13415,8.04859 -2.93864,1.97542 0.63671,3.24882 -4.22836,0.0326 1.74685,9.74646 -2.56314,3.15087 2.39988,6.1548 -2.87333,8.93018 1.91012,3.36309 -4.34265,3.96716 -2.82435,9.15874 v 0 l -4.22837,5.86094 -3.80389,0.31018 -5.012,-2.93863 -7.6078,2.80803 v 0 l -0.40814,-1.89379 -4.55488,-0.65302 -12.65244,2.07336 -14.02381,-2.857 -6.04052,0.0816 -0.17958,1.69787 -2.07337,-0.14693 -7.37923,-1.14279 -0.29386,-1.27342 -3.75493,2.07337 -4.21203,-2.44886 0.55507,-1.6489 -4.45693,-0.32652 -5.04465,8.89753 -5.74666,-4.22836 -0.79996,-3.03659 v 0 l -2.26928,-2.3509 2.84069,-0.0979 1.53461,-6.7915 -2.18764,-1.69787 0.35915,-1.06118 2.67744,0.89791 2.46518,-8.8812 -2.36724,-0.78364 0.93056,-3.21616 3.46107,-0.16326 -0.27755,-5.5181 -3.33045,-0.34284 -0.39182,-4.42427 -4.44058,-0.45712 0.93056,-9.68116 -3.91819,-1.06117 -2.08968,-10.61173 -6.18746,3.72226 -2.22029,-2.43253 10.04032,-11.91778 12.48919,6.46498 3.9345,-3.72227 1.43667,1.22444 1.63256,-2.13868 -1.45299,-1.0775 1.17546,-1.9101 -1.66522,-0.84894 4.48958,-1.86113 -0.32652,-2.00806 2.00806,-0.8816 -1.04485,-6.2201 3.1019,-1.94276 -0.88159,-3.05292 4.26102,-1.94277 -0.68568,-2.77537 v 0 l -0.45714,-1.6489 6.30175,-2.93863 0.39182,-2.7917 z"
     title="Brăila"
     id="RO-BR"
     class="land"
     inkscape:connector-curvature="0"
     style="fill:#f48da0;fill-opacity:1;stroke:#ffffff;stroke-width:0.816287;stroke-opacity:1" />
  <path
     d="m 683.19815,150.57569 7.00374,0.94689 2.59579,-1.86113 2.44886,4.44061 2.155,-1.15913 3.57534,4.96302 2.38355,0.0326 -1.61624,1.5183 1.14279,1.71419 1.81217,-0.21224 -0.60406,-2.62843 3.08556,0.58773 -1.07749,4.7018 6.0242,2.2203 -1.22444,1.15913 -2.64477,-1.17545 0.47345,2.84068 4.37529,1.7795 1.89379,-2.5305 0.55508,2.17133 1.50197,-0.91424 0.11427,4.22838 -1.46931,2.23661 5.68136,5.66503 0.45711,2.5305 2.10602,0.44078 -1.25707,4.01613 3.2978,-1.14279 0.17958,3.39575 3.98347,-0.0815 -2.13866,4.29367 3.73859,3.34678 -2.85701,4.06511 5.15893,2.9876 1.14281,8.29347 4.11408,2.54681 -1.53462,1.453 -1.30606,-1.17545 -0.6367,2.18765 2.69375,0.35917 -0.9469,2.80802 1.7795,0.5714 0.40815,2.5958 1.32239,-0.29387 -0.13061,3.1019 1.59992,-0.70202 0.0163,2.33458 1.92644,0.0326 -1.82848,1.94277 1.09382,2.33458 -2.71007,-1.56728 -1.63258,1.97542 3.46105,3.03658 -1.04484,1.66524 2.41621,1.40401 -0.17959,2.75904 2.20398,3.26515 4.70181,3.44472 3.26515,4.73447 v 0 l -7.33025,1.63257 -3.59167,2.74274 -3.06923,-1.09384 -0.96323,1.0775 1.63258,4.03246 -4.14673,1.48565 -5.97522,0.14693 -0.3102,-2.57947 -2.46518,2.36722 -4.73447,-3.8692 -2.20397,7.46087 0.27754,5.99154 -1.68155,-0.60404 -2.38357,4.40795 -4.5712,-8.01594 -16.1135,-0.5714 -10.70967,-4.06511 -1.92644,1.35504 0.76731,3.18351 -3.6733,-0.0816 -1.9754,3.44474 v 0 l -9.24038,1.99174 -0.16325,-4.99567 -4.11409,-2.6611 5.3875,-2.04072 0.0815,-1.79582 -2.7917,-0.48978 -1.91012,-6.75885 -1.86113,-0.62038 -0.42446,-2.43253 1.53461,-1.66523 -1.81216,-4.60385 1.22444,-0.66936 -6.67723,-3.44472 0.29386,-2.95497 -2.20397,-0.9469 0.2612,-1.33871 -1.09382,0.78364 -1.09382,-3.9998 -3.15087,0.0652 0.14693,-1.2734 -2.46518,-1.11015 -0.60405,-1.76318 1.66522,-2.38355 -3.37943,-1.55095 -5.7793,-7.02008 0.62038,-2.61211 -2.44887,-0.66935 0.86527,-2.13867 -1.69788,-2.31826 -1.27342,1.07749 -1.15912,-3.29779 -4.45692,-3.67329 -3.15086,2.61213 -1.453,-1.38771 -0.16326,-4.37529 -6.08949,-2.04072 -4.50591,-8.27714 v 0 l 2.77539,0.79996 9.01179,-3.31412 2.04073,-8.04859 6.53028,-4.93038 2.5305,-8.16286 3.85287,-4.03246 -0.76731,-3.10188 2.0897,-1.82849 1.35502,0.81629 1.79583,-1.91011 0.8816,1.73052 1.45299,-0.24488 5.97522,-2.79171 1.45299,-2.25294 6.20377,1.69788 2.44887,-2.56315 2.155,0.89791 0.55507,-3.75491 4.5712,0.57139 -0.45712,-1.73052 1.46932,0.48977 0.42447,-1.68155 1.95909,1.51829 1.24075,-1.81215 0.29387,2.62844 3.78757,-2.97128 z"
     title="Botoșani"
     id="RO-BT"
     class="land"
     inkscape:connector-curvature="0"
     style="fill:#f48da0;fill-opacity:1;stroke:#ffffff;stroke-width:0.816287;stroke-opacity:1" />
  <path
     d="m 633.1108,734.05745 v 0 l -7.06905,-2.31825 2.23663,-3.47738 -7.33025,-1.14281 -1.17546,-7.95063 -6.02419,0.35916 -4.97935,2.18765 -0.40815,2.67741 -2.48151,1.14282 -0.2612,3.60798 3.82021,2.23663 0.34284,2.08969 -5.50177,0.26122 1.25708,5.14259 4.3753,0.73467 3.67329,3.8692 5.19159,2.39988 1.73052,-1.17545 3.03658,4.48958 2.95497,-1.09384 -2.54682,-4.83241 2.00807,-3.77124 4.86506,-0.91425 z"
     title="București"
     id="RO-B"
     class="land"
     inkscape:connector-curvature="0"
     style="fill:#f48da0;fill-opacity:1;stroke:#ffffff;stroke-width:0.816287;stroke-opacity:1" />
  <path
     d="m 519.69592,473.46607 1.81215,-0.52242 6.70988,4.70181 1.20811,-4.22836 3.85287,-2.2203 2.35091,1.64889 1.82848,-0.48977 3.08556,2.85701 0.26121,3.18352 6.54662,0.702 2.08969,2.155 v 0 l -0.91424,4.96302 5.14262,6.53029 6.13847,-1.86113 3.13454,3.85287 -2.23662,5.06098 -1.33871,-0.35916 -0.94691,8.06491 1.92644,3.31413 -0.57139,3.23249 5.38749,1.25709 -0.93057,1.8448 -3.55901,0.31019 1.50198,1.40401 -0.86527,2.23662 1.32238,3.67329 2.77538,0.0326 2.23662,3.10188 1.91011,-0.0163 -0.6367,1.02852 3.41208,2.30193 1.0122,3.99981 1.69787,-0.21224 0.70202,-2.17133 3.37942,-0.31018 1.74684,2.30193 3.8039,-0.11429 3.7386,2.00808 -0.16327,1.73053 4.57122,4.68548 4.71813,-0.35917 0.52242,1.37136 5.53443,1.87746 1.33872,3.08557 -1.92645,2.57947 6.0895,1.79582 -0.73466,3.06924 4.53857,-0.0163 3.93449,4.04879 -0.0326,11.2321 v 0 l -4.97935,5.56708 v 0 l -5.27321,-5.24056 -7.6731,-0.0815 -2.36724,2.57946 -1.38768,7.85268 -2.12234,3.15087 -4.01613,-1.11014 -1.81216,-5.04465 -2.39989,-1.9591 -6.39968,2.6611 -0.47344,-1.453 -8.26083,-2.33458 -4.19571,1.45299 -1.68155,2.25296 -9.33833,-0.66936 -4.03245,1.5836 -1.38768,2.13866 v 0 0 0 l -3.90187,1.99175 -0.79995,6.05685 -8.8159,0.89791 v 0 l -1.45299,-1.33871 -0.39182,-5.02832 -1.69787,1.02852 -3.41208,-0.99587 0.22856,-4.86508 -2.07337,-3.08556 -0.57139,-5.97522 -5.61606,-1.91011 -8.16288,-7.85268 -7.10169,-2.00806 -2.95495,1.40401 -4.96302,-1.25707 -2.51416,1.40401 -4.31,-1.7142 -5.90992,0.66935 -2.08969,-2.44886 -13.9585,0.81628 v 0 l -0.96322,-16.42369 -5.02832,-13.81158 6.13847,-4.8324 8.65265,-0.68568 0.47343,-3.39575 -6.08949,-5.22425 -1.74686,-6.49763 1.92644,-0.96323 3.75491,1.82849 1.68157,-6.25275 6.97107,-0.65304 -0.24488,-4.14673 3.26515,-0.702 2.61211,-5.2569 5.84461,-3.29779 -0.32651,-1.92644 v 0 l 1.22444,-4.48958 6.41601,-5.69767 4.63651,1.11014 4.13041,-1.76318 4.52222,1.99174 1.02853,-3.03659 z"
     title="Brașov"
     id="RO-BV"
     class="land"
     inkscape:connector-curvature="0"
     style="fill:#f48da0;fill-opacity:1;stroke:#ffffff;stroke-width:0.816287;stroke-opacity:1" />
  <path
     d="m 648.44066,529.00623 5.33852,3.65696 -0.60406,5.89359 4.06511,2.85701 -0.48977,2.43252 7.96696,10.79132 3.18351,-0.47346 2.22031,2.00807 4.60386,-1.74685 3.16718,7.02007 3.37944,-0.50611 4.91404,5.77932 4.79977,0.13061 4.42427,4.53856 6.48132,-0.62039 1.30605,-1.5836 4.04879,1.17546 2.71007,-0.94689 6.26908,11.49331 4.27734,1.30606 3.96716,-3.2978 1.55095,0.78363 -1.82849,3.68963 1.76318,-0.24489 3.96715,3.54269 4.45694,-3.46106 2.17132,2.07336 1.95908,-0.37549 3.85288,-3.57533 -1.42034,5.12628 0.71833,5.69768 3.18352,2.36724 0.71833,-1.27342 9.74646,-0.50609 3.47739,-2.51417 v 0 l 0.68568,2.77537 -4.26102,1.94277 0.88159,3.05292 -3.1019,1.94276 1.04485,6.2201 -2.00806,0.8816 0.32652,2.00806 -4.48958,1.86113 1.66522,0.84894 -1.17546,1.9101 1.45299,1.0775 -1.63256,2.13868 -1.43667,-1.22444 -3.9345,3.72227 -12.48919,-6.46498 -10.04032,11.91778 2.22029,2.43253 6.18746,-3.72226 2.08968,10.61173 3.91819,1.06117 -0.93056,9.68116 4.44058,0.45712 0.39182,4.42427 3.33045,0.34284 0.27755,5.5181 -3.46107,0.16326 -0.93056,3.21616 2.36724,0.78364 -2.46518,8.8812 -2.67744,-0.89791 -0.35915,1.06118 2.18764,1.69787 -1.53461,6.7915 -2.84069,0.0979 2.26928,2.3509 v 0 l -5.63237,0.93057 -0.52244,3.28147 4.86509,1.92644 -1.40402,3.15086 -4.42428,-1.7142 -0.47345,1.02852 -3.78756,-1.38768 1.32238,-5.22423 -9.68116,-5.27322 -2.57947,3.47738 0.39182,2.04072 -11.81983,-5.76299 -1.37137,2.56314 -3.44472,0.24489 -1.73053,2.33458 -3.64064,-1.37136 -2.2203,-3.33045 -14.75846,0.26122 -2.28561,-6.79152 v 0 l -9.77912,-9.06078 6.08951,-3.68961 0.16325,-4.16306 -1.63257,0.96321 -2.69375,-5.28953 -3.65695,1.7795 -4.1794,-12.55449 -1.40401,0.19591 1.97541,-4.16307 -1.50196,-1.48564 2.15499,-6.62825 -3.80389,-4.75078 -7.42821,3.72226 -2.25296,-5.12628 1.40402,-2.84068 -2.57947,-0.55507 -2.7264,2.49784 -4.52222,-0.39182 -4.14674,-10.82396 -1.66523,-0.31019 -0.17958,-2.74273 2.20397,-1.37136 0.14693,-2.31825 -3.86919,-4.66916 -5.28954,-1.68155 -3.77125,-6.61193 -6.30173,-4.14673 0.5714,-5.68135 -1.06117,-0.89792 v 0 l 4.97935,-5.56708 v 0 l 4.73446,-0.66936 4.5059,-7.64043 0.71834,-5.19159 2.90597,-2.00806 3.41209,0.21222 3.64063,5.04466 3.31412,-3.46105 1.89379,-3.19985 2.26927,-14.08911 3.8039,-1.89378 z"
     title="Buzău"
     id="RO-BZ"
     class="land"
     inkscape:connector-curvature="0"
     style="fill:#f48da0;fill-opacity:1;stroke:#ffffff;stroke-width:0.816287;stroke-opacity:1" />
  <path
     d="m 379.22929,293.62178 -1.11014,-1.97542 2.44885,-3.33045 3.00394,-0.0652 2.10603,2.43254 10.04033,-2.08969 2.3509,1.02852 v 0 l 0.5714,5.97521 -4.8814,3.93451 -3.42841,-2.22031 -2.23662,2.04072 0.86527,15.77066 1.45298,2.43254 4.01613,0.35916 1.50198,2.26928 0.0979,-1.69787 1.55094,-0.32652 1.97542,3.23249 -0.39182,2.87333 2.07336,2.18766 4.86507,-0.89793 4.01614,7.31394 -3.95083,8.65263 1.87745,1.32239 -1.3387,2.77537 1.02852,5.92625 3.85288,0.68567 1.15913,4.35898 3.47738,-0.26121 0.0815,2.13866 4.73447,4.37531 -2.7264,0.65302 -0.40814,7.24863 -2.30193,1.28973 -0.71834,4.11409 v 0 l 0.73466,1.56727 -13.06059,8.52204 1.45299,3.18352 4.57121,2.2856 -0.21224,1.87746 -1.82848,4.29366 -4.16306,0.52243 -4.40795,4.27733 v 1.99175 l 5.10995,1.50196 -4.08142,7.75473 -0.14694,3.41207 -4.09776,-1.24075 -3.36311,3.75492 0.45714,9.3873 v 0 l -10.8403,2.155 -2.66109,-0.44081 -0.73466,-2.43252 -1.94277,-0.53875 -8.9465,2.25294 -2.97128,-0.62037 -3.15087,2.3509 0.83262,2.23663 -2.51416,-0.26121 2.64477,3.1672 -4.27735,0.94689 -5.04465,-1.42034 -0.89791,-1.50197 0.57139,-4.08144 3.15088,-3.90185 -2.43255,-3.36309 -6.20377,1.89378 -3.23249,-2.12234 -1.81217,0.62038 -3.00394,-4.09776 -7.62412,-4.60387 -2.93863,0.40815 -2.15499,2.97128 -10.48112,5.68135 -5.17527,-0.99586 -0.55506,-2.15499 -2.25295,0.27753 -5.71401,2.54681 -1.56727,3.59167 -4.68549,-0.0979 0.68568,-3.98348 -1.81215,-0.86526 -0.70201,-5.02833 -2.12235,-2.71008 -7.70574,-0.75098 -6.28541,2.87332 -5.42014,-1.43665 -2.13867,-2.7264 v 0 l 1.1428,-5.92623 -1.37136,-4.47327 -2.02439,0.63671 -0.31019,-2.25295 -3.99981,-2.87334 -3.52636,-0.58772 -3.33045,2.56314 -3.33045,-2.62844 3.60798,-2.20398 3.5427,1.12648 3.16719,-2.97128 -4.16308,-7.6731 0.52244,-2.80803 -5.92625,-2.84067 1.32239,-3.62431 5.82829,-2.25296 5.8446,-12.2443 -10.46478,-6.98741 0.0163,-4.65283 4.5059,-5.64872 v 0 l 6.6609,0.91425 7.62412,-1.50196 2.13867,3.03659 3.34678,0.86526 -1.30605,1.76317 0.16325,4.73447 2.53049,1.12647 1.58359,3.51004 2.93864,1.86113 3.85287,-0.83261 1.12647,2.59579 1.95909,-1.9591 0.88159,3.26516 2.62845,-3.59166 2.7917,2.20397 -1.71421,4.58754 2.88965,1.14279 5.71402,-2.90598 4.35897,0.45713 2.2203,-3.46107 -0.79997,-9.19138 2.18766,-1.35503 3.37942,7.67309 2.13867,-0.37549 1.82849,1.69786 2.33457,-1.68154 1.30606,0.58773 4.91405,-5.68136 -1.25707,-2.57947 1.43665,-0.34284 -0.21223,-1.46931 3.10189,-1.19179 -1.33871,-0.2612 0.65303,-1.20811 4.17939,0.22856 3.11821,-3.64063 -0.45713,-1.48565 1.68156,-0.47345 -1.27341,-4.66915 -4.52223,-5.20791 5.77932,-0.14693 -0.48978,-2.88966 2.43254,-0.40815 0.17958,-1.58359 -1.6489,-4.81609 6.18746,-0.58772 1.50196,-3.8692 4.42427,2.54681 3.16719,-2.48151 -0.60404,-2.10603 2.69374,-4.13041 6.93844,-5.25688 0.78363,1.38768 1.84482,-0.89791 1.17544,-3.31412 6.84049,4.70181 -2.31826,-5.97522 z"
     title="Cluj"
     id="RO-CJ"
     class="land"
     inkscape:connector-curvature="0"
     style="fill:#f48da0;fill-opacity:1;stroke:#ffffff;stroke-width:0.816287;stroke-opacity:1" />
  <path
     d="m 651.08542,720.47444 5.33853,-4.03246 -3.21618,-0.40814 4.76712,-5.0773 3.57534,2.38354 3.18352,5.10997 4.89771,1.76317 7.37924,-11.1668 1.51829,0.94689 -0.76731,2.10602 3.78757,1.33871 -0.42446,3.68962 1.43666,1.50197 3.91817,0.99587 0.83262,-3.8039 1.89378,0.14693 -0.44079,4.65284 3.55901,1.40401 2.53049,-2.84068 1.46931,0.24489 -0.22856,1.46932 5.42015,-1.27341 0.11428,1.48564 6.54662,-2.10602 7.68942,-0.17958 -0.19592,3.4937 6.38337,-0.53874 0.0979,3.70594 4.75078,0.24489 0.60406,-2.67743 7.2976,2.44886 0.73466,-4.16305 1.79583,1.01219 -0.42447,2.15499 3.68961,0.76731 1.43667,-3.64063 1.68155,0.26121 -0.0489,2.97128 6.74253,0.73466 0.73465,-4.48958 3.41209,1.6489 -0.14693,1.3877 13.30547,-0.3102 0.76731,-6.85681 2.05704,0.24489 0.32652,-3.06923 1.28973,-0.0326 1.27341,0.66935 0.702,12.40757 7.59147,1.19179 0.55507,5.2732 7.80371,2.25296 4.09776,3.21616 -2.18765,1.73053 1.35503,2.20397 -1.09382,0.79997 2.62844,2.97128 1.63257,-1.53463 1.12649,1.81217 2.49782,0.35916 3.23251,-6.07317 17.02773,5.81197 v 0 l -2.36723,5.37115 -6.26908,7.82003 -13.69729,1.32239 -7.96696,6.48132 -9.28934,-1.04485 -4.32632,1.0775 -15.4768,10.82396 -10.31786,-0.5061 -4.4406,-1.74686 -4.22837,2.18765 v 0 l -7.44453,0.89792 -15.4768,-4.68549 -7.13435,2.25296 -9.43627,0.44079 -16.91346,8.34246 -5.19158,-0.16326 -9.84441,3.44473 -6.74254,-0.40816 -9.82809,2.71008 -8.09757,-0.60405 v 0 l -1.86114,-8.84854 7.16701,-4.21205 1.07749,-2.08968 -1.5836,-5.74667 -1.40401,-0.6367 1.56728,-2.05705 -1.50197,-3.10188 -3.90185,-0.22857 -0.68568,-2.64477 -5.27322,-1.6489 -2.26928,-4.21203 -3.44472,-2.25296 v 0 l 2.62844,-3.03658 -2.26928,-1.97541 7.06905,-4.42427 -0.9469,-0.16327 1.61625,-1.55094 -1.38768,-0.0979 -0.78364,-2.95495 2.64477,0.62037 -1.04484,-1.51829 2.3509,-0.11428 1.8448,-2.53049 4.2447,-0.26122 6.43234,-4.24469 -1.32238,-2.31825 -6.02421,0.66937 -3.29779,-4.06512 z"
     title="Călărași"
     id="RO-CL"
     class="land"
     inkscape:connector-curvature="0"
     style="fill:#f48da0;fill-opacity:1;stroke:#ffffff;stroke-width:0.816287;stroke-opacity:1" />
  <path
     d="m 229.37538,549.15218 2.88966,1.45299 7.54248,12.78305 5.99155,-1.5183 1.48565,3.18352 4.11407,-1.02852 -0.57139,5.12628 1.86113,-0.52242 4.44059,7.44454 2.18766,11.65656 -4.13042,9.69749 -8.19552,7.19965 1.20811,3.98348 -1.45299,4.29366 3.47739,-0.11426 2.64475,1.81214 v 0 l -2.0407,3.41209 -4.26102,1.87746 -2.84067,6.41601 1.73052,2.30193 7.68943,1.73052 1.07749,3.11823 v 0 l -10.95458,13.77891 -7.13433,6.02419 2.66109,1.91012 -2.67742,2.4815 0.0163,9.94238 -9.30567,14.59522 -14.13809,-0.6857 -6.13847,-4.96302 -1.68156,4.06512 0.83262,4.5059 -1.63258,2.43253 -3.06924,0.3755 -1.99174,11.39535 3.85287,3.28148 -1.61624,7.24862 -1.40402,1.02853 -1.25707,-2.39989 -2.72641,0.66935 -2.92231,-3.98347 -3.37942,3.59165 -3.83654,-2.26926 -0.53875,1.1428 v 0 l -1.66523,-4.27736 -7.50984,-2.17132 -12.19532,-1.01219 -1.48565,-1.35504 -7.37923,1.37137 -3.16719,-1.64891 -6.48132,0.42448 -4.99567,-14.41563 -5.30587,-1.94276 -14.18706,-0.65302 -1.94276,-4.70183 -2.67743,-2.106 -0.68568,-2.88966 h 1.06117 l 0.71834,-3.85287 8.63632,-1.06118 1.63258,1.28974 9.86073,-3.16719 -1.58359,-6.26909 -11.33006,-4.3753 -8.26082,-8.91385 10.10563,-2.84067 0.17958,-4.63651 2.74271,-3.00394 -1.27339,-2.13868 0.76731,-2.33457 5.28953,-2.87334 -1.33871,-4.47324 -2.36722,-0.26121 -0.99588,-2.62844 v 0 l 3.62431,-1.61626 -0.62037,-2.38355 2.48151,-6.90579 1.94276,-1.17545 0.11428,-3.33045 -3.28148,-3.51003 -1.04484,-3.72227 -3.42841,-1.68155 -2.92229,-4.14674 -0.84895,-4.62018 6.88946,-1.45299 -1.79583,-2.10602 -2.12235,0.55508 -1.17544,-6.51397 11.10149,-4.4406 3.2325,-9.37098 10.024,-1.89378 1.38768,2.80802 4.11409,1.19178 2.00807,3.55901 7.3629,-1.43666 4.13041,0.71833 0.1796,-3.64064 3.88551,-0.73465 -1.73052,4.17938 1.06117,1.25709 4.16306,-1.14281 1.38768,2.18765 -1.51828,3.49371 3.59166,1.55094 5.66502,-0.14693 2.88966,-3.82023 -1.04484,-8.84853 1.87745,-1.20811 1.09383,1.30606 3.31411,-3.05291 3.33045,-0.68568 2.71008,-4.99568 11.2321,6.97109 5.42015,-11.93412 2.5305,1.77951 5.01199,-1.82848 1.32238,1.73053 z"
     title="Caraș-Severin"
     id="RO-CS"
     class="land"
     inkscape:connector-curvature="0"
     style="fill:#f48da0;fill-opacity:1;stroke:#ffffff;stroke-width:0.816287;stroke-opacity:1" />
  <path
     d="m 918.66422,695.72462 1.99174,1.14281 -0.702,2.12235 -0.70201,-2.69375 -1.48565,1.79582 z m -13.30547,1.15913 -0.55507,2.17132 0.44078,-1.73053 -1.48564,-0.1306 3.24883,-2.13868 z m 15.44414,-1.92644 2.05705,1.73052 2.17131,-1.404 -7.96695,11.21578 5.74665,-8.73427 -3.52634,-3.2978 z m -10.59539,-2.2856 8.71793,1.92644 -6.49764,3.82022 -5.10996,5.53442 -0.55507,-1.42034 1.97542,-2.36723 6.61192,-4.78343 -3.95082,-2.48152 -4.73447,1.43667 z m -83.7347,-14.07278 4.34265,1.32239 4.09775,-1.04485 4.14675,2.87332 -1.27342,2.5305 2.15499,1.42033 2.05706,-1.73052 4.1304,0.11428 -0.17958,6.64457 7.47718,3.80389 1.06118,2.26928 6.85681,0.88159 -1.11016,3.26514 3.13455,0.73467 0.40815,-1.37137 2.90597,0.48977 0.31019,-1.51828 2.20398,-0.31019 1.35503,4.29366 5.35484,-1.15913 0.37549,-2.97127 17.09304,-0.47345 -0.21222,-3.11822 3.03659,-0.73466 2.15499,2.95496 2.39988,-0.53875 v 0 l 1.38769,5.48545 4.39162,-0.14693 0.73466,1.453 -5.86093,5.09362 1.69787,-3.98348 -3.83655,0.5714 0.0489,5.69768 3.10188,-0.0326 -2.90598,2.75904 -2.84067,-1.01219 -1.63257,3.21618 0.83261,1.48563 1.59991,-2.26927 3.39577,0.42446 -2.77538,7.95064 0.6367,4.9467 9.59953,-14.08911 6.05685,-2.62844 1.22443,-2.00807 -6.92211,12.89733 -10.85661,13.01161 -6.10583,9.97502 -2.98762,0.0815 -3.18351,3.10189 -0.94689,10.85661 4.45693,11.70556 -2.6611,2.12234 2.82435,1.66523 -2.05704,0.66935 2.02439,4.29368 -1.82848,-0.0652 0.66935,-1.38768 -1.25708,-1.11014 -0.3102,3.8202 -1.73052,0.42449 4.27736,0.47344 -2.75906,3.31412 3.03659,12.40756 -5.77931,13.43608 -0.55508,6.87313 -3.18352,7.06905 1.04484,1.86113 -0.88158,7.167 -14.05646,0.75098 -10.49745,-2.72639 -12.03206,-0.97955 -25.30489,-12.29328 -5.17526,-20.42349 -2.9223,-3.70594 -7.7384,6.0895 -11.29741,1.87746 -2.87333,-0.84895 -3.75492,-9.74646 -3.10189,-2.59578 -3.37942,5.22423 -14.74215,-1.42035 -7.62411,1.48564 -4.58754,-6.59559 -6.93843,-2.51416 -1.87746,-7.3629 v 0 l 4.21204,-2.18766 4.45692,1.74686 10.31788,0.52242 15.46046,-10.82396 4.34264,-1.09382 9.28935,1.04484 7.96696,-6.48131 13.69729,-1.30606 6.25275,-7.82003 2.36723,-5.37117 v 0 l 2.26927,-5.82828 7.39557,-9.55055 -1.84481,-6.70988 -4.34264,-4.01614 -3.91819,-8.66897 2.25296,-6.70987 -1.30606,-3.46105 -5.43647,-5.50178 h -3.31412 l -5.81196,-4.13041 -1.22443,-2.87333 0.73466,-5.12629 v 0 l 7.59146,-2.80801 5.02833,2.93863 3.8039,-0.31019 z"
     title="Constanța"
     id="RO-CT"
     class="land"
     inkscape:connector-curvature="0"
     style="fill:#f48da0;fill-opacity:1;stroke:#ffffff;stroke-width:0.816287;stroke-opacity:1" />
  <path
     d="m 549.4414,481.25345 3.33045,-1.37136 2.67743,-9.19139 6.41601,-3.78758 2.71008,-4.42427 7.60778,-3.13453 2.07337,-3.68962 2.82436,0.31018 2.71007,2.67743 -1.48565,2.15499 13.14222,19.73782 7.26496,-1.5836 10.31786,0.26121 1.81215,-5.15893 5.17526,0.79996 4.99568,-2.07337 4.03246,1.82848 1.06117,-3.23249 3.21617,0.48978 1.28974,-3.91819 3.95082,-1.91011 0.17959,-4.83241 v 0 l 6.41601,1.91011 2.00807,5.04465 -0.26122,12.21164 4.71813,3.78758 4.37531,-0.11428 1.55094,2.61212 -1.40402,1.86114 1.30606,3.64063 v 0 8.14654 l -5.02832,4.83241 0.31019,5.50178 -1.91011,2.82436 1.15913,3.88551 -1.46932,8.81591 1.92643,2.84068 v 0 l -0.4408,9.92604 -3.8039,1.89378 -2.26927,14.08911 -1.89379,3.19985 -3.31412,3.46105 -3.64063,-5.04466 -3.41209,-0.21222 -2.90597,2.00806 -0.71834,5.19159 -4.5059,7.64043 -4.73446,0.66936 v 0 l 0.0326,-11.2321 -3.93449,-4.04879 -4.53857,0.0163 0.73466,-3.06924 -6.0895,-1.79582 1.92645,-2.57947 -1.33872,-3.08557 -5.53443,-1.87746 -0.52242,-1.37136 -4.71813,0.35917 -4.57122,-4.68548 0.16327,-1.73053 -3.7386,-2.00808 -3.8039,0.11429 -1.74685,-2.30193 -3.37941,0.31018 -0.70202,2.17133 -1.69787,0.21224 -1.0122,-3.99981 -3.41208,-2.30193 0.6367,-1.02852 -1.91011,0.0163 -2.23662,-3.10188 -2.77538,-0.0326 -1.32238,-3.67329 0.86527,-2.23662 -1.50198,-1.40401 3.55901,-0.31019 0.93057,-1.8448 -5.38749,-1.25709 0.57139,-3.23249 -1.92644,-3.31413 0.94691,-8.06491 1.33871,0.35916 2.23662,-5.06098 -3.13454,-3.85287 -6.13847,1.86113 -5.14262,-6.53029 z"
     title="Covasna"
     id="RO-CV"
     class="land"
     inkscape:connector-curvature="0"
     style="fill:#f48da0;fill-opacity:1;stroke:#ffffff;stroke-width:0.816287;stroke-opacity:1" />
  <path
     d="m 549.00062,583.175 1.94275,2.13868 1.24077,5.32219 -1.64891,8.60367 6.74253,3.85287 2.43254,3.3631 0.29386,2.54681 -2.2203,1.84481 -1.28974,5.10995 0.93057,5.15893 3.3631,0.26122 0.39182,3.41208 3.34677,2.13867 1.97542,5.77931 6.5303,5.22423 0.57139,17.76241 1.82849,-1.37138 3.64065,0.57141 1.51828,2.5958 3.10189,-0.73466 4.48958,5.68135 -1.76318,1.74685 1.12647,3.47739 -2.6611,3.18351 4.97936,5.19158 3.9998,-1.59991 8.3751,12.04839 -4.26102,3.85287 1.91012,3.3631 2.49783,-3.31412 1.76319,0.0652 v 0 l 0.14693,2.85699 v 0 0 0 l 1.69788,0.97954 -1.84481,1.30606 0.96321,2.61213 -3.95083,1.40401 -0.45712,1.87746 5.53444,4.70182 -8.96285,7.59146 v 0 0 0 l -3.23249,-3.10188 -2.13866,7.16698 v 0 l -0.751,1.61625 -2.51416,-2.49784 -5.09362,1.81216 -6.43234,-2.17132 -3.60799,3.28148 -5.02833,-4.91405 -4.5059,4.71813 -2.62845,-1.89378 -7.70573,4.01613 -3.65698,5.77931 v 0 l -2.46518,-1.42034 1.91011,-2.88966 -1.7795,-1.15913 -1.94277,0.35917 -2.61212,-1.86113 -4.58753,0.45712 1.79583,6.15481 -7.23229,6.61191 0.47345,0.9469 -5.53443,1.69787 -3.98349,-5.19159 v 0 l 4.8814,0.93057 1.27341,-1.06117 -0.53875,-3.39575 1.24076,-1.46931 -2.10602,-4.97936 1.74686,-2.67741 -0.60407,-3.8692 -7.85266,-8.3098 0.84893,-2.90598 -3.99981,-3.96716 2.93864,-0.40814 3.52635,-5.33852 -4.88139,-2.75905 2.22029,-11.99941 -0.42446,-9.17507 -3.24882,-13.02793 1.02853,-5.76298 2.53049,-2.77537 -1.14281,-3.59167 -1.53463,0.0326 -1.04483,-2.18766 -2.04073,0.48977 -1.9101,-3.10188 1.15913,-3.26515 2.53048,0.99587 1.42034,-4.22837 -2.155,-3.33045 0.52242,-1.69788 -1.66521,-0.76731 1.24075,-7.60778 -2.25295,-0.4408 -0.0489,-3.06924 2.08969,-2.20398 4.73447,7.55882 2.44885,1.63258 2.93864,-1.27341 -0.52243,-4.7508 4.89772,-1.89377 -1.24075,-6.80783 2.67742,-3.34678 2.22031,-9.41995 -0.44081,-3.95083 v 0 l 8.8159,-0.89791 0.79995,-6.05685 z"
     title="Dâmbovița"
     id="RO-DB"
     class="land"
     inkscape:connector-curvature="0"
     style="fill:#f48da0;fill-opacity:1;stroke:#ffffff;stroke-width:0.816287;stroke-opacity:1" />
  <path
     d="m 338.07212,712.94828 4.04879,-0.9469 4.88139,-4.73446 5.19158,-0.702 2.04071,3.16718 8.97916,-1.48564 1.89379,2.53049 1.12647,-18.75827 1.74686,-1.04484 2.82435,1.33871 v 0 l 1.17545,3.00393 -0.96322,3.44473 1.5183,0.78363 0.84893,4.16307 1.2081,-2.69375 1.63258,1.69788 8.96284,2.2856 -0.70201,5.63238 2.10601,1.15913 1.61626,7.19964 v 0 l -3.90186,2.95496 1.15913,2.00807 -4.03246,4.08143 3.24882,1.48564 -0.81628,3.33045 5.14261,4.99568 1.74685,-1.94276 2.31825,1.01219 -1.43667,3.83655 8.73427,2.44887 -0.89791,2.15499 7.24863,8.58733 0.21223,2.87334 4.75079,1.69787 3.46106,4.22836 2.67742,-0.50609 1.06117,3.54268 1.09382,-0.0489 -1.56728,5.58339 2.31827,0.4408 -4.44061,22.17035 3.93451,3.78757 -0.9469,2.71007 1.04486,1.63257 -1.84481,-0.50609 -0.5714,1.46931 2.49783,2.25296 -1.06118,1.46931 1.0122,0.71833 -2.2856,10.12196 -8.52203,10.85662 -1.79584,10.6607 3.42841,3.03658 v 0 l -18.28482,-7.86901 -11.70555,-1.61625 -10.17094,-4.27733 -1.99173,-2.43254 -5.06098,-0.44078 -9.06078,1.89377 -5.68136,-1.92644 -4.7508,-4.35896 -9.24035,-2.41621 -16.39105,0.66935 -13.59933,5.68136 -8.26082,1.74685 -19.90107,-5.66503 -2.25296,-2.07337 -1.61624,-5.04465 4.27733,-14.10544 5.24058,-3.46105 8.3751,-1.40401 3.65695,-6.17112 -1.22442,-5.10996 -6.70988,-1.46932 v 0 l 1.1428,-3.54268 6.0895,-6.26909 6.64458,2.62845 1.92643,-12.34225 -3.96716,-2.07338 0.1796,-1.7142 2.66109,-0.76731 2.74272,-8.71794 4.8814,-1.09382 1.22442,-5.46912 5.32219,-0.78364 -0.27753,-2.00807 -9.17507,-5.04465 0.73467,-1.42034 2.74271,0.17958 1.22443,-5.6487 4.27734,-2.51416 0.0489,-1.56728 4.08142,-0.88159 -2.44885,-3.75491 8.96282,0.24488 1.73053,-1.95908 2.04072,1.2081 2.20397,-1.46932 2.155,1.92644 2.75905,-2.38356 z"
     title="Dolj"
     id="RO-DJ"
     class="land"
     inkscape:connector-curvature="0"
     style="fill:#f48da0;fill-opacity:1;stroke:#ffffff;stroke-width:0.816287;stroke-opacity:1" />
  <path
     d="m 352.38979,596.41518 3.47738,2.82436 v 0 l 1.95909,-2.51417 v 0 l 4.58754,3.05291 4.40794,0.66936 6.88946,-3.65698 5.71401,3.39577 -5.14261,10.35051 6.25276,16.76653 -4.31,2.88965 0.19591,8.19552 -3.47738,8.70162 -2.84068,1.59992 -0.19591,1.76317 1.55095,6.13848 -1.45299,11.95045 2.0897,0.22856 2.23662,5.40381 -2.30194,3.00394 0.751,9.76278 -1.97542,5.37118 v 0 l -2.82435,-1.33871 -1.74686,1.04484 -1.12647,18.75827 -1.89379,-2.53049 -8.97916,1.48564 -2.04071,-3.16718 -5.19158,0.702 -4.88139,4.73446 -4.04879,0.9469 v 0 l -5.66503,-3.21618 1.11015,-2.67742 -10.1546,-6.10583 -9.33832,-4.0651 -14.61154,-2.56313 -2.59579,-2.33459 -0.0815,-2.71007 -6.35071,-2.67741 -3.28148,-6.04053 -1.19176,-0.5714 -1.53463,1.81216 -1.7142,-1.19178 1.09382,-2.59581 -3.52636,-2.48149 -3.78757,-17.92567 2.71008,-3.23249 -0.53875,-1.84481 -1.84481,-2.20398 -2.30193,0.0816 -2.33458,-4.7018 -6.25276,-5.15894 -6.36703,-1.64889 -2.46519,-4.71814 -2.82435,-0.71833 v 0 l -1.07749,-3.11823 -7.68943,-1.73052 -1.73052,-2.30193 2.84067,-6.41601 4.26102,-1.87746 2.0407,-3.41209 v 0 l 3.39577,-2.67741 15.32986,-5.012 3.93451,3.06923 10.12195,-1.53461 2.53049,-2.62845 4.29367,9.4526 1.76317,0.32653 4.63651,-4.06512 0.62038,-5.74666 8.55469,2.77537 8.50571,-5.35483 6.93843,0.96321 1.91011,-4.21203 4.06511,-0.17959 0.42447,-1.40402 1.89378,3.18353 5.74666,3.55901 z"
     title="Gorj"
     id="RO-GJ"
     class="land"
     inkscape:connector-curvature="0"
     style="fill:#f48da0;fill-opacity:1;stroke:#ffffff;stroke-width:0.816287;stroke-opacity:1" />
  <path
     d="m 763.76565,478.72296 2.82435,0.16325 1.73052,2.43255 -0.50608,4.86506 1.46931,2.43254 -1.82848,1.87745 2.64477,4.91405 3.67328,2.62844 3.05292,-2.00806 0.0816,-5.43647 2.33458,-1.02853 -4.30999,-8.9465 1.46932,-0.35916 -1.68155,-1.73052 0.5714,-2.36724 8.21184,3.52636 2.33458,-1.87746 2.53049,1.38769 4.48958,-0.4408 2.02439,3.26515 5.77931,-1.14281 2.0897,-3.03658 -0.0979,-3.00394 2.72641,-1.32238 0.1306,3.65696 3.82022,-1.58359 2.97128,2.67742 2.77538,-0.83262 1.46931,4.83243 2.69375,-1.43667 1.51829,2.07336 6.07318,-1.9101 4.09775,0.93056 v 0 l 0.60406,1.09383 -2.07337,0.75098 0.5714,3.00393 -1.69788,-0.14693 0.86526,2.30194 -1.22443,0.83261 1.61625,2.25295 -2.00806,5.28954 2.36722,3.03658 -0.76731,1.53462 2.8407,8.4404 -1.32239,6.07318 2.10602,1.09383 -0.52243,2.0407 -2.36723,0.60407 0.27753,6.46498 1.53462,2.64477 -1.06116,0.93057 2.25294,2.13866 2.12235,-0.50609 -1.0775,3.21617 2.43254,3.78757 0.39181,4.03245 -1.15912,0.91424 1.22442,3.72227 -1.37135,4.22838 1.61624,0.86526 -1.77951,1.22443 0.11429,1.86114 -2.93863,0.7673 -1.6489,-1.12648 -2.71007,3.37943 3.46104,4.83242 1.79584,-0.78364 0.81628,1.69788 1.04486,-1.35504 -0.79997,2.00807 1.81217,2.49784 0.0163,3.90184 -1.17545,1.37138 3.41207,5.43646 3.16719,1.07751 v 0 l -2.22029,2.46517 -0.8163,5.48545 -5.46911,-3.46105 -4.40795,-0.60406 -7.11802,5.50177 v 0 l -3.73859,0.39182 -0.99588,1.50197 -10.46479,-4.42428 -2.84068,2.69375 0.71833,0.81629 -5.30586,0.32652 -3.19985,-1.95909 -0.34283,-2.12235 -4.16307,1.17545 0.81629,-4.99566 -1.92643,0.7673 -0.13061,-1.43667 -2.17134,0.55508 0.63671,-1.76318 -3.33045,-0.32652 0.62038,-2.82434 -3.0529,1.404 -0.32652,-2.92231 -4.84875,4.34265 -1.22443,-3.31412 -3.8039,-1.12648 -1.09382,1.17545 v 0 l -0.89792,-1.9754 -2.10601,0.0815 1.66523,-1.48564 -2.155,-2.71007 0.83261,-3.11822 -2.54681,-2.17132 0.50609,-2.2856 2.74272,-0.79996 -2.18764,-3.44473 -1.82848,-0.32651 1.64889,-2.04073 -2.4162,-0.50609 -0.53874,-2.56314 -2.12235,0.57139 -1.73054,-6.23642 -2.71007,1.28972 -6.46498,-8.97915 -0.48978,-5.92624 -3.00394,-3.90185 -3.06923,-11.91778 -5.55075,-11.26476 -2.0897,-7.77105 v -3.46105 l 5.73033,-3.1019 -0.29386,-2.4815 2.13867,-3.11823 13.22385,-1.73053 -0.58773,-6.75884 0.84894,-0.68569 4.86507,3.59166 z"
     title="Galați"
     id="RO-GL"
     class="land"
     inkscape:connector-curvature="0"
     style="fill:#f48da0;fill-opacity:1;stroke:#ffffff;stroke-width:0.816287;stroke-opacity:1" />
  <path
     d="m 549.98015,727.59246 3.65698,-5.77931 7.70573,-4.01613 2.62845,1.89378 4.5059,-4.71813 5.02833,4.91405 3.60799,-3.28148 6.43234,2.17132 5.09362,-1.81216 2.51416,2.49784 0.751,-1.61625 v 0 l 3.73859,-0.45711 1.84481,1.92643 1.50196,2.05704 -2.43253,4.62018 1.76318,0.58773 -2.02439,3.98349 -2.61212,-1.06118 -0.50611,-2.90598 -1.58358,1.24075 1.63257,7.75473 -4.31,3.83654 7.06905,5.01201 0.79997,2.3509 7.5588,1.79583 1.87746,1.81217 0.62038,2.00806 -2.36724,4.94669 3.60799,-4.6365 5.40382,5.10996 2.87334,-0.0979 0.17958,2.36723 v 0 0 0 l 5.58341,2.56314 2.12234,-0.5061 v 0 0 0 l 1.07749,-1.73053 v 0 0 0 l 1.01219,0.48978 2.25296,-3.31413 v 0 0 0 l 0.91424,0.99587 2.22031,-2.18765 v 0 0 0 l 2.07336,-2.85701 v 0 l 3.44472,2.25296 2.26928,4.21203 5.27322,1.6489 0.68568,2.64477 3.90185,0.22857 1.50197,3.10188 -1.56728,2.05705 1.40401,0.6367 1.5836,5.74667 -1.07749,2.08968 -7.16701,4.21205 1.86114,8.84854 v 0 l -6.26908,1.53462 -11.08518,5.95889 -5.56707,0.0163 -4.34264,2.69374 -5.40382,8.73427 -10.97089,6.74254 -7.91799,12.11369 -7.06905,4.73446 -3.02025,5.32219 -5.5181,2.93863 -6.33437,0.0815 v 0 l -2.02441,-19.11743 -3.4937,-1.28974 0.31018,-2.44886 -2.46517,-3.75492 1.94276,-1.50197 0.75098,-8.16286 -2.02439,-3.19985 1.32238,-0.76731 -1.37135,-1.68155 -0.94691,-9.74646 3.70594,-0.97955 -1.48564,-3.54268 2.54682,-4.13042 1.53462,0.751 0.42447,-2.75906 1.63257,3.05292 1.25709,-3.80389 2.82435,-0.93057 -6.1548,-5.37118 0.91424,-6.38336 3.21616,-6.70988 -2.64477,-2.07337 -0.1306,-3.41207 -1.28973,-0.40813 -0.84894,2.71006 -2.97129,-1.92644 0.93057,-2.08969 -3.98347,-1.92644 -1.95909,0.96323 -10.90559,-2.155 0.39182,-3.88553 2.28559,-2.97129 -0.99586,-1.25707 2.87332,-3.13455 -5.0773,-3.6733 1.76318,-3.75491 z"
     title="Giurgiu"
     id="RO-GR"
     class="land"
     inkscape:connector-curvature="0"
     style="fill:#f48da0;fill-opacity:1;stroke:#ffffff;stroke-width:0.816287;stroke-opacity:1" />
  <path
     d="m 264.00227,445.40214 2.66108,0.27753 3.39576,3.75492 12.81571,-0.40814 3.0529,6.44866 -1.48564,2.93864 3.8039,6.53029 5.33852,3.06924 1.99173,-1.24076 2.12234,3.26515 2.28561,0.79996 0.55508,6.25275 -2.2203,-1.0122 -2.10602,1.11015 3.28147,6.64458 -1.25709,2.20398 1.11015,4.34265 3.26516,1.86113 2.56314,-0.48977 3.37942,2.95495 4.89772,-1.09382 -0.81628,2.9876 5.5181,12.26063 4.34264,2.56315 2.74273,4.81609 -0.29386,8.8159 2.22029,7.55881 3.33045,3.46106 -2.13868,6.43234 5.97522,5.68135 -3.51002,5.04465 4.34264,2.25295 -0.14694,5.64871 7.98329,1.61625 1.17545,4.17938 2.31825,-0.17958 4.06512,3.91817 2.49783,8.2445 v 0 l -2.20397,6.56296 1.82848,0.68567 0.9469,5.06098 -1.24076,5.19158 v 0 l -14.85642,8.70162 -5.74666,-3.55901 -1.89378,-3.18353 -0.42447,1.40402 -4.06511,0.17959 -1.91011,4.21203 -6.93843,-0.96321 -8.50571,5.35483 -8.55469,-2.77537 -0.62038,5.74666 -4.63651,4.06512 -1.76317,-0.32653 -4.29367,-9.4526 -2.53049,2.62845 -10.12195,1.53461 -3.93451,-3.06923 -15.32986,5.012 -3.39577,2.67741 v 0 l -2.64475,-1.81214 -3.47739,0.11426 1.45299,-4.29366 -1.20811,-3.98348 8.19552,-7.19965 4.13042,-9.69749 -2.18766,-11.65656 -4.44059,-7.44454 -1.86113,0.52242 0.57139,-5.12628 -4.11407,1.02852 -1.48565,-3.18352 -5.99155,1.5183 -7.54248,-12.78305 -2.88966,-1.45299 v 0 l 4.17938,-5.56707 0.5061,-3.93452 4.97936,-1.32237 3.05292,-5.89359 -2.39989,-2.64478 -2.56315,1.77952 -2.00806,-0.60406 -0.48977,-7.26495 -4.26102,-2.95495 -2.31826,0.71832 -3.96715,-5.50177 3.18352,-2.67743 0.24489,-2.22029 v 0 l 2.43252,-3.95083 -0.63669,-1.28974 -6.38336,-0.57139 -2.61212,-4.47325 0.702,-1.7142 3.96716,0.44079 0.97954,-2.23663 4.16306,0.0163 -0.40814,-11.90146 -1.99174,-1.66522 5.04466,-4.50591 0.21222,-2.05704 3.608,-1.68155 -4.31,-3.51003 -1.66523,-5.01201 5.73034,-4.76711 2.69375,3.90184 3.90185,-0.78362 0.91424,-1.5183 9.82809,0.0489 2.25295,-13.68096 4.55488,-1.55095 z"
     title="Hunedoara"
     id="RO-HD"
     class="land"
     inkscape:connector-curvature="0"
     style="fill:#f48da0;fill-opacity:1;stroke:#ffffff;stroke-width:0.816287;stroke-opacity:1" />
  <path
     d="m 526.65069,331.88931 7.59146,-4.8161 9.09343,4.52222 2.18766,-5.2079 5.17525,-1.46932 6.70987,3.60799 0.57141,4.30999 7.10169,1.24076 2.28561,-2.92231 3.77124,0.97954 v 0 l 8.01593,2.61213 4.21205,6.44865 -0.57142,2.13869 3.57534,7.82002 1.71421,-1.84481 2.67742,0.1306 2.43254,3.2978 -2.25295,0.35917 -1.99174,4.52223 -2.64477,-0.55507 -4.29366,6.69355 2.0407,2.72639 -1.64888,3.82023 4.58751,2.857 0.89793,6.7262 v 4.19571 l -3.11823,4.06511 0.57142,1.5836 7.9996,9.59954 4.22836,-0.60407 -2.56314,-5.14259 0.83261,-1.68156 9.06078,1.42034 v 0 l 3.33045,6.70988 -1.94275,4.19571 0.52242,2.43254 6.93844,10.54642 0.99586,4.11409 -0.55507,2.00806 -4.17938,2.13867 -1.33872,1.92644 0.89793,1.24075 -3.80391,3.41209 7.91798,4.73446 13.12589,0.65303 -1.66522,2.23663 1.02852,1.12646 -2.54682,10.46481 5.6487,-0.0489 5.33853,-4.35897 2.74272,1.11015 -0.50611,5.43646 -2.93863,3.91818 0.83263,3.88553 v 0 l -0.17959,4.83241 -3.95082,1.91011 -1.28974,3.91819 -3.21617,-0.48978 -1.06117,3.23249 -4.03246,-1.82848 -4.99568,2.07337 -5.17526,-0.79996 -1.81215,5.15893 -10.31786,-0.26121 -7.26496,1.5836 -13.14222,-19.73782 1.48565,-2.15499 -2.71007,-2.67743 -2.82436,-0.31018 -2.07337,3.68962 -7.60778,3.13453 -2.71008,4.42427 -6.41601,3.78758 -2.67743,9.19139 -3.33045,1.37136 v 0 l -2.08969,-2.155 -6.54662,-0.702 -0.26121,-3.18352 -3.08556,-2.85701 -1.82848,0.48977 -2.35091,-1.64889 -3.85287,2.2203 -1.20811,4.22836 -6.70988,-4.70181 -1.81215,0.52242 v 0 l -4.60386,-3.33044 -2.59579,-6.77518 -2.74272,0.0326 -1.04486,-1.92644 -12.5708,-0.17958 -1.69788,-0.702 -0.55507,-3.52637 -3.64064,-2.33457 -2.12235,0.78364 -1.92644,-3.51005 2.85701,-3.82021 -2.49785,-0.40814 -1.94276,-5.55075 1.3877,-1.53462 4.14673,1.04484 1.43666,-0.99586 3.36311,2.31825 3.80389,-2.00807 -3.72226,-6.69355 6.90578,-4.75079 2.87333,-4.93037 -2.87333,-1.2081 -1.32239,3.42841 -1.22442,-2.54682 0.58772,-2.23663 2.857,-1.76318 1.04486,-3.73858 4.55487,-2.12235 2.18766,-3.2325 6.88945,0.1306 8.99548,-12.53816 6.05684,-4.39162 -0.97953,-3.67329 2.74272,-12.09738 -2.53049,-1.89377 -0.16327,-5.06098 -3.24881,-1.53463 3.10189,-14.49725 -1.22443,-14.74213 -4.13042,-4.48958 z"
     title="Harghita"
     id="RO-HR"
     class="land"
     inkscape:connector-curvature="0"
     style="fill:#f48da0;fill-opacity:1;stroke:#ffffff;stroke-width:0.816287;stroke-opacity:1" />
  <path
     d="m 649.82835,719.00512 -1.0122,1.92643 -0.66936,-2.25294 -2.62844,0.65302 -1.64889,-3.67329 3.2978,-4.52222 -0.84895,-1.17546 3.78758,-3.42841 2.18764,2.12236 2.71008,-1.94276 0.0326,-3.64065 -8.21184,2.18766 -3.99981,-7.98329 3.18352,-2.22031 0.0163,-2.54681 -2.13867,-4.17938 -4.81609,-4.42429 v 0 l -3.82022,1.50198 -1.33872,2.857 -7.21597,-3.15086 -1.30606,1.19178 -3.59166,-1.42034 -1.32238,1.37136 -3.52636,-2.20398 0.55507,3.67329 -2.74272,-1.7142 -2.38356,2.51417 -0.17958,-1.11015 -4.94669,0.75097 -1.94276,-1.06116 -2.0244,0.73466 0.84894,2.66109 v 0 l 0.14693,2.84068 1.69788,0.99587 -1.84481,1.30606 0.96321,2.61211 -3.95083,1.40402 -0.45711,1.86113 5.53442,4.70181 -8.97915,7.59147 -3.21617,-3.10189 -2.155,7.167 v 0 l 3.7386,-0.45712 1.84481,1.92644 1.51828,2.07336 -2.44885,4.62018 1.76317,0.5714 -2.02439,3.98348 -2.61212,-1.06117 -0.50609,-2.90598 -1.5836,1.24076 1.63258,7.75472 -4.31,3.83655 7.06905,5.01199 0.79995,2.35092 7.55883,1.79582 1.87745,1.81216 0.6367,2.00806 -2.36722,4.9467 3.59165,-4.63651 5.42015,5.10996 2.857,-0.0816 0.17959,2.36724 5.59973,2.56314 4.21203,-1.74686 2.25295,-3.31413 1.56727,0.68568 3.64064,-4.73446 v 0 l 2.62845,-3.03659 -2.26928,-1.97541 7.08537,-4.42427 -0.9469,-0.16326 1.59992,-1.55095 -1.37135,-0.0979 -0.78364,-2.95495 2.64477,0.63669 -1.04484,-1.51828 2.3509,-0.11428 1.8448,-2.53049 4.2447,-0.24489 6.43234,-4.24469 -1.32238,-2.31825 -6.02421,0.66936 -3.29779,-4.06512 5.53441,-5.10995 z m -18.48074,18.56235 -0.53874,1.0122 v 0 l -4.84874,0.91425 -2.00807,3.77124 2.54682,4.8161 -2.95497,1.09382 -3.03658,-4.47325 -1.73052,1.17545 -5.19159,-2.41621 -3.67329,-3.85287 -4.3753,-0.75098 -1.25708,-5.12628 5.50177,-0.26122 -0.34284,-2.08969 -3.83654,-2.23663 0.27753,-3.60798 2.48151,-1.14282 0.40815,-2.67741 4.96302,-2.20396 6.04052,-0.34285 1.15913,7.95063 7.33025,1.14281 -2.23662,3.47738 7.06904,2.31825 v 0 z"
     title="Ilfov"
     id="RO-IF"
     class="land"
     inkscape:connector-curvature="0"
     style="fill:#f48da0;fill-opacity:1;stroke:#ffffff;stroke-width:0.816287;stroke-opacity:1" />
  <path
     d="m 671.5579,670.19117 2.28561,6.79152 14.75846,-0.26122 2.2203,3.33045 3.64064,1.37136 1.73053,-2.33458 3.44472,-0.24488 1.37137,-2.56315 11.81983,5.76299 -0.39182,-2.04072 2.57947,-3.47738 9.68116,5.27322 -1.32238,5.22423 3.78756,1.38768 0.47345,-1.02852 4.42428,1.7142 1.40402,-3.15086 -4.86509,-1.92644 0.52244,-3.28147 5.63237,-0.93057 v 0 l 0.79996,3.03659 5.74666,4.22836 5.04465,-8.89753 4.45693,0.32652 -0.55507,1.6489 4.21203,2.44886 3.75493,-2.07337 0.29386,1.27342 7.37923,1.14279 2.07337,0.14693 0.17958,-1.69787 6.04052,-0.0816 14.02381,2.857 12.65244,-2.07336 4.55488,0.65302 0.40814,1.89379 v 0 l -0.71833,5.12629 1.22444,2.88964 5.81195,4.13041 h 3.31413 l 5.43646,5.50178 1.30607,3.46106 -2.25295,6.69355 3.91817,8.66896 4.34265,4.01613 1.8448,6.70987 -7.37924,9.55056 -2.26927,5.8283 v 0 l -17.02773,-5.81197 -3.23251,6.07317 -2.49782,-0.35916 -1.12649,-1.81217 -1.63257,1.53463 -2.62844,-2.97128 1.09382,-0.79997 -1.35503,-2.20397 2.18765,-1.73053 -4.09776,-3.21616 -7.80371,-2.25296 -0.55507,-5.2732 -7.59147,-1.19179 -0.702,-12.40757 -1.27341,-0.66935 -1.28973,0.0326 -0.32652,3.06923 -2.05704,-0.24489 -0.76731,6.85681 -13.30547,0.3102 0.14693,-1.3877 -3.41209,-1.6489 -0.73465,4.48958 -6.74253,-0.73466 0.0489,-2.97128 -1.68155,-0.26121 -1.43667,3.64063 -3.68961,-0.76731 0.42447,-2.15499 -1.79583,-1.01219 -0.73466,4.16305 -7.2976,-2.44886 -0.60406,2.67743 -4.75078,-0.24489 -0.0979,-3.70594 -6.38337,0.53874 0.19592,-3.4937 -7.68942,0.17958 -6.54662,2.10602 -0.11428,-1.48564 -5.42015,1.27341 0.22856,-1.46932 -1.46931,-0.24489 -2.53049,2.84068 -3.55901,-1.40401 0.44079,-4.65284 -1.89378,-0.14693 -0.83262,3.8039 -3.91817,-0.99587 -1.43666,-1.50197 0.42446,-3.68962 -3.78757,-1.33871 0.76731,-2.10602 -1.51829,-0.94689 -7.37924,11.1668 -4.89771,-1.76317 -3.18352,-5.10997 -3.57534,-2.38354 -4.76712,5.0773 3.21618,0.40814 -5.33853,4.03246 v 0 0 0 l -1.25707,-1.46932 -1.0122,1.92643 -0.68567,-2.25294 -2.62845,0.6367 -1.6489,-3.65697 3.2978,-4.52222 -0.84894,-1.19178 3.78757,-3.42841 2.18765,2.12235 2.71008,-1.94276 0.0326,-3.64064 -8.21185,2.18765 -3.99981,-7.98328 3.18352,-2.2203 0.0163,-2.54683 -2.13867,-4.17938 -4.81609,-4.42427 v 0 l 3.59165,-4.04878 0.32652,2.2203 2.74273,-0.55509 3.57534,2.13869 6.31805,-6.38337 3.8692,2.64476 3.26515,-2.93863 1.58359,1.04484 2.90598,-4.94669 z"
     title="Ialomița"
     id="RO-IL"
     class="land"
     inkscape:connector-curvature="0"
     style="fill:#f48da0;fill-opacity:1;stroke:#ffffff;stroke-width:0.816287;stroke-opacity:1" />
  <path
     d="m 755.53747,255.32161 2.62846,0.29386 -1.12648,2.39989 1.53461,0.47345 -0.1306,2.93863 2.67742,1.01219 -1.30605,0.86526 0.7673,1.48564 1.64891,-0.78364 -1.30606,2.93863 1.92643,3.36311 2.17133,-0.37549 1.30605,1.61625 1.0122,-1.94277 v 2.54682 l 2.26928,-0.66936 0.21223,-1.59992 2.25296,3.95083 1.37135,-0.17959 -2.12234,4.84875 3.39575,3.77124 -1.66523,5.30587 1.45299,-0.68568 -1.02851,1.40401 1.68155,0.68568 0.75097,-1.12648 -0.14693,3.78757 2.22031,1.24076 -3.52637,1.91011 1.87747,1.68156 0.60405,-1.79584 0.0816,1.81216 1.6489,-1.40402 2.57946,4.01613 0.70201,-1.28972 2.3509,1.27339 0.39182,-1.51828 0.71834,3.85287 2.13867,-0.71834 -0.1306,-1.63257 2.56314,0.78364 0.8326,2.90598 1.14281,-0.0816 -0.29386,1.92644 1.43665,1.12647 -1.55094,0.0489 1.42034,1.06117 -1.19178,1.32238 4.26102,3.57533 -0.91424,2.30194 1.33871,-0.5061 -0.39182,2.64476 1.68155,0.11429 -0.62038,2.93863 1.63258,1.0775 -2.84068,2.10602 1.61625,1.25708 -1.95909,0.11428 6.70987,0.89792 0.71834,1.64889 -1.15913,-0.91424 -1.02852,2.2203 3.11821,2.02439 1.40401,-0.71832 2.62845,5.30585 6.25275,2.46519 -1.32237,1.19178 5.24055,2.0897 0.17959,1.46931 5.37116,0.53875 0.55508,1.73053 -1.35503,-0.86527 -0.89793,1.32239 6.92212,4.81608 -1.95909,2.48152 2.10602,2.41621 -1.82848,1.56727 3.21617,2.44885 -3.02026,2.98762 3.11822,1.35503 0.47344,2.30194 -1.95909,1.17544 2.44886,2.05705 -0.75098,1.76317 v 0 l -10.62806,1.07751 -2.2856,-0.40815 -1.48564,-2.49783 -4.24469,-0.47345 -1.82848,1.09382 2.64476,4.78344 -1.79583,0.24489 -8.52203,-6.92212 -2.95495,-0.26121 -0.0816,-2.82435 -7.19965,-0.26121 -7.80371,-12.17899 -4.96303,-3.23251 -2.10601,4.11409 0.35917,6.04053 1.46931,-0.4408 1.68155,3.33045 -4.75078,1.76318 -7.90166,-1.35504 0.96321,2.97129 -4.94669,0.47344 -0.29386,2.7917 -1.94277,-2.3509 -6.0895,0.14694 -2.43253,-2.17133 -5.86094,1.43666 -0.0979,1.71421 -2.20396,1.07749 -1.3877,-2.12235 -7.82002,0.42447 -2.51416,-1.79582 v 0 l -1.32239,-4.47326 -6.84048,-5.50177 1.32238,-2.25295 1.94276,0.21224 -0.14693,-1.73053 3.52636,-4.29368 2.13867,1.91012 3.98348,-2.59579 -6.05684,-4.16306 -1.22443,-7.39557 -3.85288,0.4408 -1.94277,-1.76318 -6.23642,0.62038 -2.7264,6.90579 -3.23249,-0.3755 -2.84068,-5.59973 -1.28973,4.8161 -7.57514,2.75904 -7.31393,-1.43666 -1.453,-4.14673 -6.13847,-6.54662 -4.2447,2.30192 -2.64476,-3.21616 -4.68549,3.9998 -2.31825,-7.77104 1.32238,-1.15913 -1.81216,-7.91798 -9.0118,-9.41996 v 0 l 5.10996,-6.02419 -1.19178,-2.90598 -4.37529,-3.37943 -1.30607,0.53875 -2.04071,-9.19139 3.26514,-1.43666 1.6489,3.46105 3.24882,-0.14693 4.4406,3.60799 6.84049,-0.40814 -1.04485,-1.53463 1.17545,-1.7142 -3.59166,-3.33045 3.75492,-2.13867 -1.0775,-2.155 1.17546,-6.49764 v 0 l 1.9754,-3.44474 3.6733,0.0816 -0.76731,-3.18351 1.92644,-1.35504 10.70967,4.06511 16.1135,0.5714 4.5712,8.01594 2.38357,-4.40795 1.68155,0.60404 -0.27754,-5.99154 2.20397,-7.46087 4.73447,3.8692 2.46518,-2.36722 0.3102,2.57947 5.97522,-0.14693 4.14673,-1.48565 -1.63258,-4.03246 0.96323,-1.0775 3.06923,1.09384 3.59167,-2.74274 7.33025,-1.63257 v 0 z"
     title="Iași"
     id="RO-IS"
     class="land"
     inkscape:connector-curvature="0"
     style="fill:#f48da0;fill-opacity:1;stroke:#ffffff;stroke-width:0.816287;stroke-opacity:1" />
  <path
     d="m 185.18162,707.62609 0.53875,-1.1428 3.83654,2.26926 3.37942,-3.59165 2.92231,3.98347 2.72641,-0.66935 1.25707,2.39989 1.40402,-1.02853 1.61624,-7.24862 -3.85287,-3.28148 1.99174,-11.39535 3.06924,-0.3755 1.63258,-2.43253 -0.83262,-4.5059 1.68156,-4.06512 6.13847,4.96302 14.13809,0.6857 9.30567,-14.59522 -0.0163,-9.94238 2.67742,-2.4815 -2.66109,-1.91012 7.13433,-6.02419 10.95458,-13.77891 v 0 l 2.82435,0.71833 2.46519,4.71814 6.36703,1.64889 6.25276,5.15894 2.33458,4.7018 2.30193,-0.0816 1.84481,2.20398 0.53875,1.84481 -2.71008,3.23249 3.78757,17.92567 3.52636,2.48149 -1.09382,2.59581 1.7142,1.19178 1.53463,-1.81216 1.19176,0.5714 3.28148,6.04053 6.35071,2.67741 0.0815,2.71007 2.59579,2.33459 14.61154,2.56313 9.33832,4.0651 10.1546,6.10583 -1.11015,2.67742 5.66503,3.21618 v 0 l -1.33871,4.09775 -2.75905,2.38356 -2.155,-1.92644 -2.20397,1.46932 -2.04072,-1.2081 -1.73053,1.95908 -8.96282,-0.24488 2.44885,3.75491 -4.08142,0.88159 -0.0489,1.56728 -4.27734,2.51416 -1.22443,5.6487 -2.74271,-0.17958 -0.73467,1.42034 9.17507,5.04465 0.27753,2.00807 -5.32219,0.78364 -1.22442,5.46912 -4.8814,1.09382 -2.74272,8.71794 -2.66109,0.76731 -0.1796,1.7142 3.96716,2.07338 -1.92643,12.34225 -6.64458,-2.62845 -6.0895,6.26909 -1.1428,3.54268 v 0 l -5.22424,-0.94689 -11.95043,-7.57514 -6.54663,-6.20378 -7.03639,-2.0897 0.0979,-9.40363 -12.76673,-4.26101 -3.78756,-5.50177 -2.43254,-11.05253 -4.13041,-4.75078 0.55507,-3.78757 5.59973,0.97954 3.11822,-1.46931 1.74685,-7.82003 2.155,-2.28561 4.48957,0.0816 7.13435,4.86506 6.59559,-3.08556 -0.31018,-3.98347 -4.84874,-5.81196 -3.83655,-2.30193 -7.28128,-0.29387 -13.66463,-13.99115 -1.92644,-0.37549 -4.19571,1.76318 -2.75906,3.52636 -5.35484,0.52242 -2.84068,1.91011 -3.98348,5.82829 -9.56688,21.41936 -3.96715,1.453 -7.21597,-3.93451 -1.14281,-4.53855 -3.4284,-2.30193 -1.12648,-7.31393 z"
     title="Mehedinți"
     id="RO-MH"
     class="land"
     inkscape:connector-curvature="0"
     style="fill:#f48da0;fill-opacity:1;stroke:#ffffff;stroke-width:0.816287;stroke-opacity:1" />
  <path
     d="m 350.02256,188.89219 5.15893,-0.75099 5.48545,3.8039 11.83616,-1.68155 4.68548,2.61212 2.56314,5.92623 1.97541,1.24077 1.73054,-1.53463 6.26908,-0.81628 1.17545,-2.39988 5.89359,-0.68568 2.49783,2.80802 3.11822,-0.52242 3.47738,2.36724 1.82849,3.54268 8.45673,-0.5061 3.85287,3.26514 10.1546,-4.58753 2.64478,1.77951 3.39574,-1.82849 1.22444,-4.24469 4.40795,-2.57946 7.98328,2.97128 6.57928,-2.6611 2.82434,3.52637 2.97129,-0.62038 0.94689,3.98348 3.90185,4.47325 -0.19591,4.89772 3.23249,1.73053 0.34284,1.97541 3.19985,-0.35916 1.74686,2.07336 1.50196,-1.40401 1.81216,2.23662 4.68548,0.76732 -0.702,2.2203 1.51829,3.96716 4.34265,4.27733 0.73465,4.58753 6.39969,-0.81628 v 0 l 0.65303,4.35897 3.15087,1.06118 8.19553,7.60778 -0.6857,1.33871 -4.62017,0.99587 -6.35072,5.81196 v 0 l -5.51809,-0.99586 -3.52636,1.50197 -1.68156,-1.84482 -3.54268,1.6489 -0.60406,3.37944 -8.96282,-0.39182 -5.25688,2.87331 -4.84876,-2.39988 -7.59146,1.22445 -10.48111,-4.93038 -7.46087,-1.56727 -3.11822,5.24056 -5.69768,-0.50611 -2.64477,7.52617 -2.88964,1.63258 -0.84895,2.56313 -4.6365,-1.12646 -7.46086,1.09381 -2.155,11.44435 -3.55901,2.59579 -1.5836,4.73446 -2.69374,0.76731 -1.19178,2.05705 v 0 l -2.3509,-1.02852 -10.04033,2.08969 -2.10603,-2.43254 -3.00394,0.0652 -2.44885,3.33045 1.11014,1.97542 v 0 l -3.91817,-1.55094 -4.86507,2.02439 -5.15893,-0.11429 0.26121,-2.9223 -2.857,-0.22856 -1.40402,-3.51004 -2.62844,-1.45299 -9.04445,3.06924 -13.37078,-2.2856 -3.72227,-2.30192 -5.27321,-0.53875 -0.24489,-2.0897 -2.35091,0.16325 -1.25707,-2.33457 -9.76279,-1.63258 -0.13061,-1.56726 -4.26102,-1.53463 -8.70161,4.71815 v 0 l -2.20398,-2.72641 -6.33439,2.80803 -5.32218,-2.18765 -0.26122,-7.41188 3.26516,0.79995 1.56727,-1.69788 3.68961,0.44081 0.79996,-10.15461 9.48525,-10.95457 4.60386,6.56295 3.7386,1.01219 3.44472,3.31413 3.18352,-0.0979 1.28974,-13.92584 3.90185,-0.62038 6.20377,-5.68137 -1.04484,-1.09382 -1.32239,0.91424 -2.9223,-4.27733 -3.6733,-0.0652 -1.43666,-2.31826 -5.46912,0.60405 -0.75098,-4.13041 3.06924,-6.95476 2.08969,-0.5061 7.15066,3.13455 3.05292,-0.76731 7.70575,3.21616 2.97128,-3.10189 8.44041,-3.57533 3.67329,-6.93844 1.99174,0.63671 3.24881,-3.37942 -1.79582,-4.01615 -3.67329,-1.53461 -2.90598,-6.6609 -2.33459,0.14693 -4.60384,-3.98348 v 0 l 3.03658,-7.99961 z"
     title="Maramureș"
     id="RO-MM"
     class="land"
     inkscape:connector-curvature="0"
     style="fill:#f48da0;fill-opacity:1;stroke:#ffffff;stroke-width:0.816287;stroke-opacity:1" />
  <path
     d="m 508.70869,324.34681 2.93864,2.64477 4.83242,0.3755 3.3631,-1.8938 6.80784,6.41603 v 0 l -0.52244,4.5712 4.13042,4.48958 1.22443,14.74213 -3.10189,14.49725 3.24881,1.53463 0.16327,5.06098 2.53049,1.89377 -2.74272,12.09738 0.97953,3.67329 -6.05684,4.39162 -8.99548,12.53816 -6.88945,-0.1306 -2.18766,3.2325 -4.55487,2.12235 -1.04486,3.73858 -2.857,1.76318 -0.58772,2.23663 1.22442,2.54682 1.32239,-3.42841 2.87333,1.2081 -2.87333,4.93037 -6.90578,4.75079 3.72226,6.69355 -3.80389,2.00807 -3.36311,-2.31825 -1.43666,0.99586 -4.14673,-1.04484 -1.3877,1.53462 1.94276,5.55075 2.49785,0.40814 -2.85701,3.82021 1.92644,3.51005 2.12235,-0.78364 3.64064,2.33457 0.55507,3.52637 1.69788,0.702 12.5708,0.17958 1.04486,1.92644 2.74272,-0.0326 2.59579,6.77518 4.60386,3.33044 v 0 l -2.2856,1.37136 -1.02853,3.03659 -4.52222,-1.99174 -4.13041,1.76318 -4.63651,-1.11014 -6.41601,5.69767 -1.22444,4.48958 v 0 l -2.79169,-0.37549 -3.13455,-4.17939 -8.70162,2.54681 -2.95495,-1.37135 -0.94689,2.25295 -3.99981,-0.26121 -1.46932,1.63257 -3.18351,-1.5183 -1.3877,-2.25294 1.30607,-13.90954 -0.13061,-3.57534 -2.02439,-2.82434 1.33871,-1.84481 -0.88159,-5.22424 -2.80803,0.83261 -1.97542,3.72227 -2.71007,0.66936 -3.60798,-2.07337 -7.03639,2.80803 -1.11015,-2.17133 -6.51397,-0.73465 -4.89773,2.95496 -7.88532,-1.81216 -3.75491,0.13061 -1.48565,1.71419 v 0 l -3.54268,-3.05291 -2.28561,0.32651 v -2.39988 l -5.56708,-2.9223 -1.40401,-5.6487 -5.55074,-0.0326 -7.62412,-5.50177 -1.06117,-2.38355 2.54681,-2.69374 1.66522,-8.42408 -2.00806,0.22855 -2.25295,3.52636 -2.57947,-0.11427 -1.19177,-3.52636 v 0 l -0.45714,-9.3873 3.36311,-3.75492 4.09776,1.24075 0.14694,-3.41207 4.08142,-7.75473 -5.10995,-1.50196 v -1.99175 l 4.40796,-4.27733 4.16305,-0.52243 1.82848,-4.29366 0.21224,-1.87746 -4.57121,-2.2856 -1.45299,-3.18352 13.06059,-8.52204 -0.73466,-1.56727 v 0 l 12.1137,7.62412 6.18745,-1.27341 1.50197,1.56727 5.81196,-3.83655 3.10188,1.45299 1.79584,-9.48525 3.72227,-1.63257 -0.17958,-2.00807 2.26928,-0.19591 0.91423,-7.99961 2.85701,0.24489 -0.71834,-1.61625 3.05291,-0.16325 1.19179,-3.99981 2.64476,-0.0979 0.32652,-1.76319 3.2978,6.13848 5.1426,1.94277 2.57947,-0.57141 0.24489,-2.13867 1.53462,-0.29386 -2.31826,-1.92643 1.82848,-6.88946 3.15088,-3.05292 2.08968,-6.98742 3.4284,-4.48957 6.51397,-5.09364 5.50177,0.19592 1.94277,-2.41621 7.39556,0.78364 z"
     title="Mureș"
     id="RO-MS"
     class="land"
     inkscape:connector-curvature="0"
     style="fill:#f48da0;fill-opacity:1;stroke:#ffffff;stroke-width:0.816287;stroke-opacity:1" />
  <path
     d="m 571.13831,332.13418 0.78364,-4.68548 3.00392,-3.60798 0.34285,-4.03246 2.46518,-1.19178 -0.78363,-3.55901 2.31825,-2.75904 7.11802,-0.60407 2.74273,-4.83241 -6.85681,-10.28521 1.01219,-0.99587 6.57928,1.43666 6.33438,7.8037 1.74685,0.29387 2.17133,-2.54683 4.76711,-1.73052 9.5832,1.77951 4.89773,-2.84068 6.95476,0.75099 1.04485,-1.68155 6.35071,3.39575 1.91011,-3.00395 3.37944,0.52244 10.9219,-6.87314 3.70595,1.66522 1.32238,4.06511 8.11389,7.34658 v 0 l 9.0118,9.41996 1.81216,7.91798 -1.32238,1.15913 2.31825,7.77104 4.68549,-3.9998 2.64476,3.21616 4.2447,-2.30192 6.13847,6.54662 1.453,4.14673 7.31393,1.43666 7.57514,-2.75904 1.28973,-4.8161 2.84068,5.59973 3.23249,0.3755 2.7264,-6.90579 6.23642,-0.62038 1.94277,1.76318 3.85288,-0.4408 1.22443,7.39557 6.05684,4.16306 -3.98348,2.59579 -2.13867,-1.91012 -3.52636,4.29368 0.14693,1.73053 -1.94276,-0.21224 -1.32238,2.25295 6.84048,5.50177 1.32239,4.47326 v 0 l -1.12648,1.43667 3.10189,3.62431 0.39182,4.8814 -0.47344,7.34657 -2.12235,1.53462 v 0 l -2.155,0.31019 -2.61213,3.54268 -0.52242,-2.71007 -2.97127,0.58773 -2.48152,-3.75492 -3.3631,2.15499 -1.79583,-1.95909 -10.30155,2.43254 -1.12646,-4.40795 -1.53462,1.46932 -0.78364,-2.82436 -2.18765,-0.5714 1.56728,-0.17958 0.78363,-3.2978 -4.83242,-1.61624 -0.0652,3.21616 -1.82848,1.15913 -0.52243,3.68962 -3.10189,2.20397 -1.02852,4.40795 -3.2325,0.96322 -4.03245,-7.93431 -0.79996,2.41621 -5.22423,-0.48978 -1.24077,5.50178 -7.33025,4.5059 -4.42427,5.22425 -3.2978,-3.70596 -2.41621,-0.32651 -1.87746,2.20398 -5.73033,0.16325 -9.15874,5.68136 -5.46912,-1.97542 -3.21616,-7.39555 -3.08557,1.86113 -2.56313,5.71401 -5.8936,1.79583 -1.6489,-2.62844 -4.17939,1.74685 -2.36722,-1.46932 -0.8163,-7.19965 -7.54249,0.35917 -2.20398,1.87746 v 0 l -9.06078,-1.42034 -0.83261,1.68156 2.56314,5.14259 -4.22836,0.60407 -7.9996,-9.59954 -0.57142,-1.5836 3.11823,-4.06511 v -4.19571 l -0.89793,-6.7262 -4.58751,-2.857 1.64888,-3.82023 -2.0407,-2.72639 4.29366,-6.69355 2.64477,0.55507 1.99174,-4.52223 2.25295,-0.35917 -2.43254,-3.2978 -2.67742,-0.1306 -1.71421,1.84481 -3.57534,-7.82002 0.57142,-2.13869 -4.21205,-6.44865 z"
     title="Neamț"
     id="RO-NT"
     class="land"
     inkscape:connector-curvature="0"
     style="fill:#f48da0;fill-opacity:1;stroke:#ffffff;stroke-width:0.816287;stroke-opacity:1" />
  <path
     d="m 388.20846,718.98879 7.77104,-1.02851 2.87333,1.02851 -0.26121,1.73054 1.6489,-1.09383 -0.47345,2.41621 2.00806,2.07336 3.26515,0.0652 5.43648,-10.02399 3.83654,-0.79997 2.33458,2.00806 4.11409,-0.48977 0.52242,-3.05291 4.79976,-0.40815 -0.34284,-3.02026 4.79977,3.34678 -1.91011,-13.46873 -3.98348,-4.78344 0.70201,-7.95064 1.2081,-3.52635 2.33458,-0.29386 0.0816,-8.03227 2.97129,-2.39988 -0.8816,-2.80802 6.07318,-2.25295 1.55095,-1.9591 1.8448,1.17546 0.55508,6.12215 v 0 l 1.25707,1.17546 -1.30605,2.97127 6.74253,-0.50609 -0.1306,-3.8039 3.51002,-6.53029 2.05705,0.13061 -0.0326,5.25688 3.15088,8.48938 1.51828,0.44079 0.53875,6.41601 3.26515,3.44474 8.76693,-0.39182 -0.13062,3.57534 -1.99173,2.3509 4.55487,12.81571 -1.43666,3.18352 1.46932,2.15499 0.47345,6.20378 -1.28975,5.12628 1.46932,4.91404 -0.3265,7.72207 2.26927,3.19985 5.25688,-0.0979 0.71834,1.35504 v 0 l 2.12235,7.1017 1.92643,1.86113 -2.04072,1.30605 -0.32652,10.64439 -1.0775,0.73466 2.36724,0.97954 -4.62019,5.19159 0.97956,4.70181 4.1304,3.78757 1.09383,5.37116 -14.48093,5.15894 1.25709,2.93863 -6.8405,1.28973 -8.17918,4.04878 2.54681,5.35484 2.15499,0.53875 0.32653,2.64477 1.50196,0.53875 -1.5836,1.24076 2.61212,3.18352 0.34284,2.97128 6.69355,8.21184 -4.08143,2.05705 7.50983,0.37549 -3.36309,1.84481 v 2.61211 l -3.21617,0.73467 -0.97955,3.44472 -3.08556,0.99587 -0.42447,4.03245 v 0 l -6.2201,-3.88551 -9.56688,-1.6489 -10.31787,3.91817 -6.80783,5.66503 -16.32574,2.08969 -4.30999,-1.06117 v 0 l -3.42841,-3.03658 1.79584,-10.6607 8.52203,-10.85662 2.2856,-10.12196 -1.0122,-0.71833 1.06118,-1.46931 -2.49783,-2.25296 0.5714,-1.46931 1.84481,0.50609 -1.04486,-1.63257 0.9469,-2.71007 -3.93451,-3.78757 4.44061,-22.17035 -2.31827,-0.4408 1.56728,-5.58339 -1.09382,0.0489 -1.06117,-3.54268 -2.67742,0.50609 -3.46106,-4.22836 -4.75079,-1.69787 -0.21223,-2.87334 -7.24863,-8.58733 0.89791,-2.15499 -8.73427,-2.44888 1.43667,-3.83654 -2.31825,-1.01219 -1.74685,1.94276 -5.14261,-4.99568 0.81628,-3.33045 -3.24882,-1.48564 4.03246,-4.08143 -1.15913,-2.00807 z"
     title="Olt"
     id="RO-OT"
     class="land"
     inkscape:connector-curvature="0"
     style="fill:#f48da0;fill-opacity:1;stroke:#ffffff;stroke-width:0.816287;stroke-opacity:1" />
  <path
     d="m 549.00062,583.175 1.38768,-2.13866 4.03245,-1.5836 9.33833,0.66936 1.68155,-2.25296 4.19571,-1.45299 8.26083,2.33458 0.47344,1.453 6.39968,-2.6611 2.39989,1.95909 1.81216,5.04466 4.01613,1.11014 2.12234,-3.15087 1.38768,-7.85268 2.36724,-2.57946 7.6731,0.0815 5.27321,5.24056 v 0 l 1.06117,0.89792 -0.5714,5.68135 6.30173,4.14673 3.77125,6.61193 5.28954,1.68155 3.86919,4.66916 -0.14693,2.31825 -2.20397,1.37136 0.17958,2.74273 1.66523,0.31019 4.14674,10.82396 4.52222,0.39182 2.7264,-2.49784 2.57947,0.55507 -1.40402,2.84068 2.25296,5.12628 7.42821,-3.72226 3.80389,4.75078 -2.15499,6.62825 1.50196,1.48564 -1.97541,4.16307 1.40401,-0.19591 4.1794,12.55449 3.65695,-1.7795 2.69375,5.28953 1.63257,-0.96321 -0.16325,4.16306 -6.08951,3.68961 9.77912,9.06078 v 0 l -4.32632,2.87333 -2.90598,4.94669 -1.58359,-1.04484 -3.26515,2.93863 -3.8692,-2.64476 -6.31805,6.38337 -3.57534,-2.13869 -2.74273,0.55509 -0.32652,-2.2203 -3.59165,4.04878 v 0 l -3.82023,1.48564 -1.33871,2.87332 -7.21597,-3.15086 -1.28974,1.19178 -3.59166,-1.42034 -1.32238,1.35503 -3.52636,-2.18764 0.55507,3.65696 v 0 0 0 l -2.74272,-1.7142 -2.39988,2.49784 -0.17958,-1.11015 v 0 0 0 l -4.9467,0.75098 -1.92643,-1.06117 -2.0244,0.73466 0.86527,2.6611 v 0 l -1.76319,-0.0653 -2.49783,3.31412 -1.91012,-3.3631 4.26102,-3.85287 -8.3751,-12.04839 -3.9998,1.59991 -4.97936,-5.19158 2.6611,-3.18351 -1.12647,-3.47739 1.76318,-1.74685 -4.48958,-5.68135 -3.10189,0.73466 -1.51828,-2.5958 -3.64065,-0.57141 -1.82849,1.37138 -0.57139,-17.76241 -6.5303,-5.22423 -1.97542,-5.77931 -3.34677,-2.13867 -0.39182,-3.41208 -3.3631,-0.26122 -0.93057,-5.15893 1.28974,-5.10995 2.2203,-1.84481 -0.29386,-2.54681 -2.43254,-3.3631 -6.74253,-3.85287 1.64891,-8.60367 -1.24077,-5.32219 z"
     title="Prahova"
     id="RO-PH"
     class="land"
     inkscape:connector-curvature="0"
     style="fill:#f48da0;fill-opacity:1;stroke:#ffffff;stroke-width:0.816287;stroke-opacity:1" />
  <path
     d="m 422.70473,461.85847 1.48565,-1.71419 3.75491,-0.13061 7.88532,1.81216 4.89773,-2.95496 6.51397,0.73465 1.11015,2.17133 7.03639,-2.80803 3.60798,2.07337 2.71007,-0.66936 1.97542,-3.72227 2.80803,-0.83261 0.88159,5.22424 -1.33871,1.84481 2.02439,2.82434 0.13061,3.57534 -1.30607,13.90954 1.3877,2.25294 3.18351,1.5183 1.46932,-1.63257 3.99981,0.26121 0.94689,-2.25295 2.95495,1.37135 8.70162,-2.54681 3.13455,4.17939 2.79169,0.37549 v 0 l 0.32651,1.92644 -5.84461,3.29779 -2.61211,5.2569 -3.26515,0.702 0.24488,4.14673 -6.97107,0.65304 -1.68157,6.25275 -3.75491,-1.82849 -1.92644,0.96323 1.74686,6.49763 6.08949,5.22425 -0.47343,3.39575 -8.65265,0.68568 -6.13847,4.8324 5.02832,13.81158 0.96322,16.42369 v 0 l -1.64891,1.06117 -5.90991,-0.75097 -5.43647,3.18352 -6.43234,-0.86527 -1.66522,1.69787 v 0 l -4.4406,-2.23662 -1.50197,1.24075 -8.83223,-0.7673 -4.5059,2.6611 -1.97541,-0.52243 -2.90597,4.32631 -2.97129,0.0652 -2.90598,2.79169 -9.07711,0.21223 -3.57534,1.97541 -6.74253,-3.4284 -10.33419,-0.32651 -5.28953,1.61625 -2.13868,-1.74686 -5.92624,0.52243 -5.4528,4.30999 -4.01613,0.55507 -4.26102,5.15893 -3.70594,0.8816 -0.0163,-1.02853 v 0 l 2.90598,-0.88159 -0.65303,-7.19965 -1.56728,-4.21203 -2.69374,-2.41621 1.11015,-3.46105 2.93864,-2.05705 -1.43666,-1.94276 1.15912,-3.62432 -6.07317,-5.38748 -0.27753,-4.24469 1.12646,-3.44474 4.22837,-1.68154 1.53463,-3.05292 2.23662,-0.70201 -4.62019,-3.8039 1.27341,-2.80801 6.02419,-3.39576 3.06924,0.6367 2.18765,-9.68117 -1.94277,-1.58359 1.19179,-2.3509 -0.99587,-0.89792 8.75059,-1.15913 2.26928,-3.80389 3.06924,-1.82848 -0.79996,-2.95496 1.19177,-3.15087 -2.13867,-1.404 4.45693,-4.86508 7.57514,0.0163 4.11409,6.59561 0.0979,-2.36723 4.22836,-2.56314 -0.73464,-3.1019 2.87331,-3.83655 -0.62037,-1.43666 3.2978,-2.15499 2.74272,-4.83243 3.72227,-0.27753 6.49764,-3.28147 0.35917,-1.42035 -2.87333,-2.31825 1.76318,-4.29367 -0.91424,-1.37136 z"
     title="Sibiu"
     id="RO-SB"
     class="land"
     inkscape:connector-curvature="0"
     style="fill:#f48da0;fill-opacity:1;stroke:#ffffff;stroke-width:0.816287;stroke-opacity:1" />
  <path
     d="m 300.53926,279.53268 8.70161,-4.71815 4.26102,1.53463 0.13061,1.56726 9.76279,1.63258 1.25707,2.33457 2.35091,-0.16325 0.24489,2.0897 5.27321,0.53875 3.72227,2.30192 13.37078,2.2856 9.04445,-3.06924 2.62844,1.45299 1.40402,3.51004 2.857,0.22856 -0.26121,2.9223 5.15893,0.11429 4.86507,-2.02439 3.91817,1.55094 v 0 l -4.76711,8.48938 2.31826,5.97522 -6.84049,-4.70181 -1.17544,3.31412 -1.84482,0.89791 -0.78363,-1.38768 -6.93844,5.25688 -2.69374,4.13041 0.60404,2.10603 -3.16719,2.48151 -4.42427,-2.54681 -1.50196,3.8692 -6.18746,0.58772 1.6489,4.81609 -0.17958,1.58359 -2.43254,0.40815 0.48978,2.88966 -5.77932,0.14693 4.52223,5.20791 1.27341,4.66915 -1.68156,0.47345 0.45713,1.48565 -3.11821,3.64063 -4.17939,-0.22856 -0.65303,1.20811 1.33871,0.2612 -3.10189,1.19179 0.21223,1.46931 -1.43665,0.34284 1.25707,2.57947 -4.91405,5.68136 -1.30606,-0.58773 -2.33457,1.68154 -1.82849,-1.69786 -2.13867,0.37549 -3.37942,-7.67309 -2.18766,1.35503 0.79997,9.19138 -2.2203,3.46107 -4.35897,-0.45713 -5.71402,2.90598 -2.88965,-1.14279 1.71421,-4.58754 -2.7917,-2.20397 -2.62845,3.59166 -0.88159,-3.26516 -1.95909,1.9591 -1.12647,-2.59579 -3.85287,0.83261 -2.93864,-1.86113 -1.58359,-3.51004 -2.53049,-1.12647 -0.16325,-4.73447 1.30605,-1.76317 -3.34678,-0.86526 -2.13867,-3.03659 -7.62412,1.50196 -6.6609,-0.91425 v 0 l -0.37549,-5.58339 -2.56314,0.71833 -1.12648,-1.91011 -5.51809,-0.71833 -2.71007,-4.47326 -3.42841,0.81628 -2.53049,-5.35483 1.24076,-1.81215 -2.75905,-2.74273 -0.73466,-4.47326 -2.64477,-0.0979 -1.19177,-1.5836 1.95908,-1.7795 0.91424,-5.4528 2.61212,-1.61625 0.75098,-11.68922 5.8283,-2.43254 0.0163,-2.87332 v 0 l 1.68154,0.2612 2.33459,-4.32632 3.68962,-0.45712 3.4284,-4.24469 8.6853,-1.42034 2.08968,2.13867 3.52636,-3.60799 5.14261,2.90599 2.93863,-0.66936 -0.91424,3.15088 2.26928,0.0815 2.08968,4.17939 2.13868,1.15912 3.8692,-1.82848 4.52222,1.46932 5.77933,-6.80783 z"
     title="Sălaj"
     id="RO-SJ"
     class="land"
     inkscape:connector-curvature="0"
     style="fill:#f48da0;fill-opacity:1;stroke:#ffffff;stroke-width:0.816287;stroke-opacity:1" />
  <path
     d="m 307.88584,170.44411 2.57947,3.57534 5.73033,0.78363 2.155,-1.12647 2.59579,4.26102 -1.14281,2.82434 5.87727,2.71007 -0.3755,2.77538 7.1017,2.88966 1.61625,2.15499 2.05704,-0.24488 1.79584,2.13867 5.17526,1.17545 v 0 l 4.60384,3.98348 2.33459,-0.14693 2.90598,6.6609 3.67329,1.53461 1.79582,4.01615 -3.24881,3.37942 -1.99174,-0.63671 -3.67329,6.93844 -8.44041,3.57533 -2.97128,3.10189 -7.70575,-3.21616 -3.05292,0.76731 -7.15066,-3.13455 -2.08969,0.5061 -3.06924,6.95476 0.75098,4.13041 5.46912,-0.60405 1.43666,2.31826 3.6733,0.0652 2.9223,4.27733 1.32239,-0.91424 1.04484,1.09382 -6.20377,5.68137 -3.90185,0.62038 -1.28974,13.92584 -3.18352,0.0979 -3.44472,-3.31413 -3.7386,-1.01219 -4.60386,-6.56295 -9.48525,10.95457 -0.79996,10.15461 -3.68961,-0.44081 -1.56727,1.69788 -3.26516,-0.79995 0.26122,7.41188 5.32218,2.18765 6.33439,-2.80803 2.20398,2.72641 v 0 l 1.25709,4.14673 -5.77933,6.80783 -4.52222,-1.46932 -3.8692,1.82848 -2.13868,-1.15912 -2.08968,-4.17939 -2.26928,-0.0815 0.91424,-3.15088 -2.93863,0.66936 -5.14261,-2.90599 -3.52636,3.60799 -2.08968,-2.13867 -8.6853,1.42034 -3.4284,4.24469 -3.68962,0.45712 -2.33459,4.32632 -1.68154,-0.2612 v 0 l -3.88552,-3.85288 -0.97956,-3.72226 -3.19984,-0.40815 -1.35504,-3.83655 -3.65696,-1.81216 -5.46911,2.3509 -2.57948,-2.13866 -5.10995,1.0122 -2.51416,-8.22818 1.51828,-1.25709 -6.31805,-2.93863 0.0163,-5.09362 -3.60799,-0.0815 0.5061,-3.8039 -2.18765,-0.71832 -1.6489,-4.53856 -3.9998,-1.91011 v 0 l 4.26101,-12.68509 3.23249,-1.30606 0.63671,-4.96303 5.5181,-1.95909 0.0652,-3.75491 4.04877,2.75905 7.88534,1.30605 1.95908,-9.79543 3.54269,-1.09383 7.13433,6.00787 6.41604,0.0652 7.41187,-2.4815 3.34678,-7.39556 6.70988,-1.15913 -1.94277,-7.80369 3.68961,0.21222 5.48546,-2.74272 4.45691,-6.70987 6.87314,-2.53048 -1.0775,-4.93039 -1.95909,-1.30605 0.91425,-1.97541 4.62018,1.17544 4.55488,3.34678 1.89379,-2.20397 6.20378,-0.31019 1.68154,-4.68549 -0.31018,-4.8814 1.9101,-1.79582 -0.96321,-1.5183 z"
     title="Satu Mare"
     id="RO-SM"
     class="land"
     inkscape:connector-curvature="0"
     style="fill:#f48da0;fill-opacity:1;stroke:#ffffff;stroke-width:0.816287;stroke-opacity:1" />
  <path
     d="m 616.01775,191.92878 4.50591,8.27714 6.0895,2.04072 0.16325,4.37529 1.453,1.38771 3.15086,-2.61213 4.45692,3.67329 1.15912,3.29779 1.27342,-1.07749 1.69788,2.31826 -0.86527,2.13867 2.44887,0.66935 -0.62038,2.61211 5.7793,7.02008 3.37943,1.55095 -1.66522,2.38355 0.60405,1.76318 2.46518,1.11015 -0.14693,1.2734 3.15087,-0.0652 1.09382,3.9998 1.09382,-0.78364 -0.2612,1.33871 2.20397,0.9469 -0.29386,2.95497 6.67723,3.44472 -1.22444,0.66936 1.81216,4.60385 -1.53461,1.66523 0.42446,2.43253 1.86113,0.62038 1.91012,6.75885 2.7917,0.48978 -0.0815,1.79582 -5.3875,2.04072 4.11409,2.6611 0.16325,4.99567 9.24038,-1.99174 v 0 l -1.17546,6.49764 1.0775,2.155 -3.75492,2.13867 3.59166,3.33045 -1.17545,1.7142 1.04485,1.53463 -6.84049,0.40814 -4.4406,-3.60799 -3.24882,0.14693 -1.6489,-3.46105 -3.26514,1.43666 2.04071,9.19139 1.30607,-0.53875 4.37529,3.37943 1.19178,2.90598 -5.10996,6.02419 v 0 l -8.11389,-7.34658 -1.32238,-4.06511 -3.70595,-1.66522 -10.9219,6.87314 -3.37944,-0.52244 -1.91011,3.00395 -6.35071,-3.39575 -1.04485,1.68155 -6.95476,-0.75099 -4.89773,2.84068 -9.5832,-1.77951 -4.7671,1.73052 -2.17134,2.54683 -1.74685,-0.29387 -6.33438,-7.8037 -6.57928,-1.43666 -1.01219,0.99587 6.85681,10.28521 -2.74273,4.83241 -7.11802,0.60407 -2.31825,2.75904 0.78364,3.55901 -2.46519,1.19178 -0.34285,4.03246 -3.00392,3.60798 -0.78364,4.68548 v 0 l -3.77124,-0.97954 -2.28561,2.92231 -7.10169,-1.24076 -0.57141,-4.30999 -6.70987,-3.60799 -5.17525,1.46932 -2.18766,5.2079 -9.09343,-4.52222 -7.59146,4.8161 v 0 l -6.80784,-6.41603 -3.3631,1.8938 -4.83242,-0.3755 -2.93864,-2.64477 v 0 l -0.97953,-9.5832 -2.05706,-1.37136 2.10603,-8.48939 -2.51416,-4.39162 4.39162,-3.68962 -1.6489,-6.2854 0.68568,-2.54682 -2.9876,-1.24075 -3.46106,-4.66916 0.0489,-2.18766 1.19179,-2.00806 1.7795,1.48564 2.61212,-0.94689 0.79996,-3.54268 -2.18765,-2.0244 4.65284,-4.04878 -5.07732,-3.34677 -2.90597,-4.68549 1.06117,-2.48151 -6.10582,-5.012 -2.0897,-0.17959 v 0 l 6.35072,-5.81196 4.62017,-0.99587 0.6857,-1.33871 -8.19553,-7.60778 -3.15087,-1.06118 -0.65303,-4.35897 v 0 l 5.68136,0.55507 1.11015,-1.404 3.34678,1.404 1.59992,-3.39575 1.40401,0.81629 5.1426,-2.04072 1.71421,-3.90185 3.52636,-1.89379 0.14693,-2.77537 5.68135,-7.80369 1.07751,-5.17527 4.08143,-0.14693 4.57121,-3.3631 35.29623,-5.53443 13.46873,1.68155 9.04446,-4.79976 3.18352,1.45299 2.6611,-2.61211 3.88551,1.01218 11.78718,-2.75904 z"
     title="Suceava"
     id="RO-SV"
     class="land"
     inkscape:connector-curvature="0"
     style="fill:#f48da0;fill-opacity:1;stroke:#ffffff;stroke-width:0.816287;stroke-opacity:1" />
  <path
     d="m 982.93865,680.68862 -3.1019,0.86527 5.06097,-2.95496 z m 2.54681,-2.64477 3.33045,-5.53442 0.16325,-5.3875 0.17958,5.28954 z m -136.38519,-92.90975 -0.42447,4.35897 6.93844,11.47699 22.61114,10.80764 8.11388,0.79996 7.5425,2.857 8.55468,-2.67743 -4.27734,-6.04051 5.3875,-2.97128 -1.81217,-4.22837 3.60799,-0.75099 12.86469,8.34245 2.62843,-7.68942 19.67252,-8.61999 9.28934,-6.74252 5.24056,0.88159 3.64064,-3.18351 3.02026,1.69787 8.11389,-0.89792 12.65244,5.07731 5.24057,3.59166 6.10581,7.73839 2.20399,9.43629 -1.7795,4.04877 2.31825,5.09362 -5.5181,-0.81628 0.0489,-1.28973 0.13061,5.12628 1.91011,4.42427 3.23249,0.71834 3.37949,-1.27341 -3.42846,2.87333 -2.56314,7.06905 -3.82023,31.81885 -2.23663,-0.0489 0.8816,6.04052 -6.05685,3.41209 -21.61528,2.33458 -1.17545,-1.40402 -2.80802,0.89792 2.51416,0.702 -19.86842,4.5712 -6.85681,4.16307 -7.57514,8.27715 -2.46519,-2.92231 -1.45298,-5.37117 5.5181,-0.32651 10.70967,-5.4528 2.41621,-5.33851 -5.714,-7.75473 -0.91423,2.00807 1.56725,3.19985 -3.19984,1.97541 -2.69374,-4.14673 -0.53876,-11.70556 0.70201,-1.66522 5.69769,-2.07337 0.21223,-3.2325 -6.1548,-3.21617 -3.2978,-0.0326 -0.55508,-2.56314 -4.89771,0.58773 0.60405,3.10189 -1.68155,1.33871 -1.92644,0.0979 1.42034,-3.16719 -1.97541,1.94276 -0.52243,-1.53461 -0.3265,2.72638 -2.80803,-6.07317 1.76317,6.17113 -4.93037,3.59167 -0.97955,6.97109 0.84894,4.58752 9.68116,8.3098 -4.53855,3.10189 1.76318,0.50611 -1.28973,3.00393 2.9223,3.51003 -6.74253,1.32238 1.45299,-1.6489 -6.69355,4.4406 -4.65283,1.33872 2.41621,-1.77952 -2.31825,0.40816 -1.09382,2.88964 -3.64065,-0.83261 -2.7264,-2.71006 0.97954,3.08556 5.9589,0.86526 -1.2081,1.74685 4.03245,0.9469 -3.19985,1.91011 v 0 l -2.39988,0.53875 -2.15499,-2.95496 -3.03659,0.73465 0.21224,3.11823 -17.09305,0.47344 -0.3755,2.97129 -5.35484,1.15912 -1.35503,-4.29367 -2.20398,0.31019 -0.31019,1.5183 -2.90597,-0.48978 -0.40815,1.37136 -3.13453,-0.73465 1.11014,-3.26515 -6.8568,-0.88159 -1.06117,-2.26928 -7.4772,-3.80389 0.17959,-6.64458 -4.13041,-0.11428 -2.05705,1.73053 -2.15499,-1.42033 1.27341,-2.53049 -4.14673,-2.87334 -4.09776,1.04485 -4.34265,-1.32239 v 0 l 2.82434,-9.15873 4.34265,-3.96716 -1.92643,-3.3631 2.88965,-8.93017 -2.41621,-6.15481 2.56314,-3.16719 -1.76318,-9.74646 4.22837,-0.0326 -0.62038,-3.24883 2.9223,-1.9754 -11.11781,-8.03228 4.03245,-6.62824 -1.56727,-3.59166 -2.155,1.25708 -3.95083,-0.73466 -6.51397,-5.07731 3.16719,-10.62803 0.19591,-6.69357 v 0 l 7.11803,-5.50177 4.39162,0.60406 5.46912,3.46105 0.81629,-5.48545 2.23662,-2.46518 v 0 l 5.99154,2.00806 z"
     title="Tulcea"
     id="RO-TL"
     class="land"
     inkscape:connector-curvature="0"
     style="fill:#f48da0;fill-opacity:1;stroke:#ffffff;stroke-width:0.816287;stroke-opacity:1" />
  <path
     d="m 36.062353,476.04554 4.424273,3.41208 1.763179,-3.70594 2.220301,1.11014 2.040716,-2.26927 v 0 l 1.926437,0.21224 1.240756,2.30192 4.685486,0.0326 0.848938,2.80802 5.632378,5.35484 8.913852,2.28562 2.693746,5.40381 4.277342,-0.89791 4.522229,2.13866 4.55488,-1.46931 1.632573,6.13848 2.67742,3.08557 3.346776,-2.41621 0.620378,-2.79171 1.648899,-0.11427 2.922309,4.16306 5.991539,2.51415 1.7795,-4.6365 3.47738,-0.89792 -0.70199,-1.97542 4.45692,2.56315 1.46931,3.78756 1.43666,-0.0815 1.50197,-3.8039 6.41602,-3.00394 7.13435,-6.8568 2.67741,3.83655 -0.42446,4.79976 11.78719,5.76299 -0.11429,4.01613 2.9223,1.59992 0.86527,4.55488 2.33458,-1.2734 0.17958,-3.24883 3.37942,-4.81609 1.22444,3.02026 3.90185,0.42447 -0.0163,1.79583 2.3509,0.32651 3.37944,-4.39162 1.9101,1.79584 2.51416,-2.23663 2.36724,1.69788 2.71007,-2.00807 1.28973,-3.34678 7.39556,-1.7142 0.52242,3.83654 13.01162,5.48546 0.39181,2.90597 4.34264,-1.59991 4.57122,1.89378 2.61211,-5.35485 6.46499,2.69376 1.86113,-5.90992 1.99175,-0.11429 1.0775,4.27735 6.41601,3.91818 v 0 l -0.24489,2.2203 -3.18352,2.67742 3.96715,5.50177 2.31826,-0.71832 4.26102,2.95495 0.48977,7.26495 2.00806,0.60406 2.56315,-1.77952 2.39989,2.64478 -3.05292,5.89359 -4.97936,1.32237 -0.5061,3.93452 -4.17938,5.56707 v 0 l -2.48152,2.49784 -1.32238,-1.73053 -5.01199,1.82848 -2.5305,-1.77951 -5.42015,11.93412 -11.2321,-6.97109 -2.71008,4.99568 -3.33045,0.68568 -3.31411,3.05291 -1.09383,-1.30606 -1.87745,1.20811 1.04484,8.84853 -2.88966,3.82023 -5.66502,0.14693 -3.59166,-1.55094 1.51828,-3.49371 -1.38768,-2.18765 -4.16306,1.14281 -1.06117,-1.25709 1.73052,-4.17938 -3.88551,0.73465 -0.1796,3.64064 -4.13041,-0.71833 -7.3629,1.43666 -2.00807,-3.55901 -4.11409,-1.19178 -1.38768,-2.80802 -10.024,1.89378 -3.2325,9.37098 -11.10149,4.4406 1.17544,6.51397 2.12235,-0.55508 1.79583,2.10602 -6.88946,1.45299 0.84895,4.62018 2.92229,4.14674 3.42841,1.68155 1.04484,3.72227 3.28148,3.51003 -0.11428,3.33045 -1.94276,1.17545 -2.48151,6.90579 0.62037,2.38355 -3.62431,1.61626 v 0 l -5.04465,-2.10603 -3.02025,-3.67329 -1.37138,1.53462 -10.7913,-3.64064 -1.7795,1.89379 -5.9589,-3.13454 -4.554883,-11.13415 -1.452991,-0.0652 -1.665224,2.88966 -5.044653,1.37136 -1.665225,-3.16719 -2.073368,0.1306 0.146931,-2.26926 -4.767113,1.09381 -0.636704,-2.54681 -5.32219,-3.70595 -1.257081,-2.82434 -1.812157,-0.14693 -1.159127,-4.47326 -5.991545,-2.20398 1.861134,-2.05704 -1.452991,-2.7917 -3.624314,-2.2856 -6.595596,-0.0163 -0.22856,-2.98761 6.758854,-5.35484 -3.98348,-7.83635 -2.399882,0.79996 -0.68568,-4.47324 4.163061,-6.6609 -0.22856,-12.09738 2.171323,-5.77932 -4.195714,-1.64889 -0.979543,4.79977 -7.836354,0.57139 -1.697876,-7.08536 -2.203974,0.50609 -1.289734,-2.62844 1.012195,-2.64477 -5.158931,-5.28953 -3.199844,-0.81629 -1.289732,-6.23643 -5.665031,2.75904 -3.428404,-9.35464 -3.803896,-2.59578 -4.407948,0.7673 -6.2690817,-5.25688 1.0285207,-1.07751 -1.4693154,-6.41601 -8.17919358,-8.99549 1.86113378,-1.22442 -2.07336832,-0.79996 2.71007202,-3.83655 6.9710885,-3.62431 1.371362,2.93863 1.436665,-1.38768 8.799569,2.12235 3.281474,-3.72227 0.473445,-3.36311 z"
     title="Timiș"
     id="RO-TM"
     class="land"
     inkscape:connector-curvature="0"
     style="fill:#f48da0;fill-opacity:1;stroke:#ffffff;stroke-width:0.816287;stroke-opacity:1" />
  <path
     d="m 524.02223,731.29839 3.98349,5.19159 5.53443,-1.69787 -0.47345,-0.9469 7.23229,-6.61191 -1.79583,-6.15481 4.58753,-0.45712 2.61212,1.86113 1.94277,-0.35917 1.7795,1.15913 -1.91011,2.88966 2.46518,1.42034 v 0 l 2.28561,3.03658 -1.76318,3.75491 5.0773,3.6733 -2.87332,3.13455 0.99586,1.25707 -2.28559,2.97129 -0.39182,3.88553 10.90559,2.155 1.95909,-0.96323 3.98347,1.92644 -0.93057,2.08969 2.97129,1.92644 0.84894,-2.71006 1.28973,0.40813 0.1306,3.41207 2.64477,2.07337 -3.21616,6.70988 -0.91424,6.38336 6.1548,5.37118 -2.82435,0.93057 -1.25709,3.80389 -1.63257,-3.05292 -0.42447,2.75906 -1.53462,-0.751 -2.54682,4.13042 1.48564,3.54268 -3.70594,0.97955 0.94691,9.74646 1.37135,1.68155 -1.32238,0.76731 2.02439,3.19985 -0.75098,8.16286 -1.94276,1.50197 2.46517,3.75492 -0.31018,2.44886 3.4937,1.28974 2.02441,19.11743 v 0 l -11.88515,6.67722 -7.88533,0.13061 -10.6607,3.51004 -4.01614,-1.19178 -9.19138,-7.85268 -7.83636,-2.53048 -8.01593,2.10601 -4.66916,-0.94689 -7.23229,-5.42014 -5.99155,0.1306 -6.80784,3.26515 -7.18331,-0.79997 -7.39557,3.83655 -8.91385,-5.9589 v 0 l 0.42447,-4.03245 3.08556,-0.99587 0.97955,-3.44472 3.21617,-0.73467 v -2.61211 l 3.36309,-1.84481 -7.50983,-0.37549 4.08143,-2.05705 -6.69355,-8.21184 -0.34284,-2.97128 -2.61212,-3.18352 1.5836,-1.24076 -1.50196,-0.53875 -0.32653,-2.64477 -2.15499,-0.53875 -2.54681,-5.35484 8.17918,-4.04878 6.8405,-1.28973 -1.25709,-2.93863 14.48093,-5.15894 -1.09383,-5.37116 -4.1304,-3.78757 -0.97956,-4.70181 4.62019,-5.19159 -2.36724,-0.97954 1.0775,-0.73466 0.32652,-10.64439 2.04072,-1.30605 -1.92643,-1.86113 -2.12235,-7.1017 v 0 l 2.90599,-1.04484 1.8448,1.81215 11.18312,-0.83261 3.64064,-3.62431 7.99962,0.55507 z"
     title="Teleorman"
     id="RO-TR"
     class="land"
     inkscape:connector-curvature="0"
     style="fill:#f48da0;fill-opacity:1;stroke:#ffffff;stroke-width:0.816287;stroke-opacity:1" />
  <path
     d="m 356.86304,579.55069 0.0163,1.02853 3.70594,-0.8816 4.26102,-5.15893 4.01613,-0.55507 5.4528,-4.30999 5.92624,-0.52243 2.13868,1.74686 5.28953,-1.61625 10.33419,0.32651 6.74253,3.4284 3.57534,-1.97541 9.07711,-0.21223 2.90598,-2.79169 2.97129,-0.0653 2.90597,-4.32631 1.97541,0.52243 4.5059,-2.6611 8.83223,0.7673 1.50197,-1.24075 4.4406,2.23662 v 0 l 0.35916,6.22012 -5.92625,9.40361 3.31414,13.41976 2.69375,1.51828 -0.53875,4.66916 -1.66524,1.35505 1.91012,0.35916 0.93057,4.48958 -3.37943,9.99135 5.56707,7.31392 -0.32651,2.77539 -1.66522,1.09382 2.00806,3.10188 -0.91424,3.73859 -2.46518,-0.14693 -0.0979,2.23663 1.5836,-0.0489 0.71832,1.7795 -2.61212,2.41621 2.98762,2.88965 -2.08969,5.94257 1.15913,1.89379 -3.91819,7.19965 2.12235,-0.21224 -2.26928,5.48545 1.0775,2.23662 -4.91404,7.15068 v 0 l -0.55508,-6.12215 -1.8448,-1.17546 -1.55095,1.9591 -6.07318,2.25295 0.8816,2.80802 -2.97129,2.39988 -0.0816,8.03227 -2.33458,0.29386 -1.2081,3.52636 -0.70201,7.95063 3.98348,4.78344 1.91011,13.46873 -4.79977,-3.34678 0.34284,3.02026 -4.79976,0.40815 -0.52242,3.05291 -4.11409,0.48978 -2.33458,-2.00807 -3.83654,0.79997 -5.43648,10.02399 -3.26515,-0.0652 -2.00806,-2.07336 0.47345,-2.41621 -1.6489,1.09383 0.26121,-1.73054 -2.87333,-1.02851 -7.77104,1.02851 v 0 l -1.61626,-7.19964 -2.10601,-1.15913 0.70201,-5.63238 -8.96284,-2.2856 -1.63258,-1.69788 -1.2081,2.69375 -0.84893,-4.16307 -1.5183,-0.78363 0.96322,-3.44473 -1.17545,-3.00393 v 0 l 1.97542,-5.37118 -0.751,-9.76278 2.30194,-3.00394 -2.23662,-5.40381 -2.0897,-0.22856 1.45299,-11.95045 -1.55095,-6.13848 0.19591,-1.76317 2.84068,-1.59992 3.47738,-8.70162 -0.19591,-8.19552 4.31,-2.88965 -6.25276,-16.76653 5.14261,-10.35051 -5.71401,-3.39577 -6.88946,3.65698 -4.40794,-0.66936 -4.58754,-3.05291 v 0 l -1.95909,2.51417 v 0 l -3.47738,-2.82436 v 0 l 1.24076,-5.19158 -0.9469,-5.06098 -1.82848,-0.68567 2.20397,-6.56296 v 0 z"
     title="Vâlcea"
     id="RO-VL"
     class="land"
     inkscape:connector-curvature="0"
     style="fill:#f48da0;fill-opacity:1;stroke:#ffffff;stroke-width:0.816287;stroke-opacity:1" />
  <path
     d="m 653.45266,492.15904 13.50139,3.10189 9.37098,-8.37511 8.29346,-2.43253 9.06078,3.65696 5.77931,-2.15499 6.33439,2.93863 6.07317,-7.57513 9.4526,4.21203 0.79997,-4.34265 5.15892,1.82849 1.14281,-1.02852 -0.97956,-1.02853 0.91425,-2.20397 -2.33457,-0.44079 -0.21225,-1.79584 5.07731,-3.44472 0.17959,-1.81216 2.54682,1.68155 1.86113,-2.87333 3.90184,1.89379 1.89379,-1.20811 -0.78364,-2.93863 3.77125,1.11015 1.89379,-0.97955 0.86526,4.62019 4.93037,2.13867 2.2203,-5.0773 3.82023,-0.0163 2.17132,0.88159 1.17545,3.93451 2.33457,2.0407 v 0 l 0.0979,2.25296 v 0 l -0.86526,2.72639 -4.86507,-3.59165 -0.84894,0.68568 0.58773,6.75884 -13.22385,1.73053 -2.13867,3.11823 0.29386,2.4815 -5.73033,3.1019 v 3.46105 l 2.0897,7.77105 5.55075,11.26476 3.06923,11.91778 3.00394,3.90185 0.48978,5.92624 6.46498,8.97915 2.71007,-1.28972 1.73054,6.23642 2.12235,-0.57139 0.53874,2.56314 2.4162,0.50609 -1.64889,2.04073 1.82848,0.32651 2.18764,3.44473 -2.74272,0.79996 -0.50609,2.2856 2.54681,2.17132 -0.83261,3.11822 2.155,2.71007 -1.66523,1.48564 2.10601,-0.0815 0.89792,1.9754 v 0 l -6.46498,6.18746 -0.39182,2.7917 -6.30175,2.93863 0.45714,1.6489 v 0 l -3.47739,2.51417 -9.74646,0.50609 -0.71833,1.27342 -3.18352,-2.36724 -0.71833,-5.69768 1.42034,-5.12628 -3.85288,3.57533 -1.95908,0.37549 -2.17132,-2.07336 -4.45694,3.46106 -3.96715,-3.54269 -1.76318,0.24489 1.82849,-3.68963 -1.55095,-0.78363 -3.96716,3.2978 -4.27734,-1.30606 -6.26908,-11.49331 -2.71007,0.94689 -4.04879,-1.17546 -1.30605,1.5836 -6.48132,0.62039 -4.42427,-4.53856 -4.79977,-0.13061 -4.91404,-5.77932 -3.37944,0.50611 -3.16718,-7.02007 -4.60386,1.74685 -2.22031,-2.00807 -3.18351,0.47346 -7.96696,-10.79132 0.48977,-2.43252 -4.06511,-2.85701 0.60406,-5.89359 -5.33852,-3.65696 v 0 l -1.92643,-2.84068 1.46932,-8.81591 -1.15913,-3.88551 1.91011,-2.82436 -0.31019,-5.50178 5.02832,-4.83241 z"
     title="Vrancea"
     id="RO-VN"
     class="land"
     inkscape:connector-curvature="0"
     style="fill:#f48da0;fill-opacity:1;stroke:#ffffff;stroke-width:0.816287;stroke-opacity:1" />
  <path
     d="m 733.74263,363.75714 2.51416,1.79582 7.82002,-0.42447 1.3877,2.12235 2.20396,-1.07749 0.0979,-1.71421 5.86094,-1.43666 2.43253,2.17133 6.0895,-0.14694 1.94277,2.3509 0.29386,-2.7917 4.94669,-0.47344 -0.96321,-2.97129 7.90166,1.35504 4.75078,-1.76318 -1.68155,-3.33045 -1.46931,0.4408 -0.35917,-6.04053 2.10601,-4.11409 4.96303,3.23251 7.80371,12.17899 7.19965,0.26121 0.0816,2.82435 2.95495,0.26121 8.52203,6.92212 1.79583,-0.24489 -2.64476,-4.78344 1.82848,-1.09382 4.24469,0.47345 1.48564,2.49783 2.2856,0.40815 10.62806,-1.07751 v 0 l 0.0326,3.95083 0.93057,-0.40814 0.79996,2.97128 4.62018,3.7386 -1.53461,0.58773 2.49783,2.46517 -1.14279,1.37137 0.78364,2.41621 1.42032,0.0979 -0.86526,1.51829 2.39989,1.91011 -0.13061,3.8692 1.25708,-0.68568 0.96323,2.62845 0.65302,-1.09383 1.87747,10.5954 -2.07337,3.95083 0.93057,0.73465 -1.91012,0.29387 1.35504,4.11408 -2.0897,2.23663 1.56728,1.22444 -2.17132,3.65696 2.17132,1.74685 -0.63671,2.48151 1.84481,-0.0652 0.35916,2.43253 1.28974,0.14693 -1.82848,1.63257 2.13867,2.12235 -1.20811,3.42841 -2.08969,0.42446 0.86526,1.06118 -1.40401,0.94689 1.86113,0.75098 -2.6611,-0.0489 0.63671,1.17546 -2.57946,2.10602 0.89791,2.41621 -2.48152,0.68568 1.58361,1.24075 -1.3877,1.82848 2.48151,1.84481 -0.60405,1.53462 -2.61211,1.61626 0.11428,2.22029 -0.60405,-1.92643 -0.55508,2.31825 -2.05704,-1.50197 0.32652,2.02439 -1.50198,-0.78364 -1.2081,3.46107 2.02439,1.68155 -3.83654,1.12646 0.0815,6.04053 1.35504,-1.17545 -0.65304,2.857 1.92645,-0.40814 0.5714,1.82848 -1.02853,0.0979 1.32239,0.5714 -1.61625,0.0816 1.43666,2.04071 -1.73052,1.37136 0.91424,3.83655 -1.92644,2.93863 v 0 l -4.09775,-0.93056 -6.07318,1.9101 -1.51829,-2.07336 -2.69375,1.43667 -1.46931,-4.83243 -2.77538,0.83262 -2.97128,-2.67742 -3.82022,1.58359 -0.1306,-3.65696 -2.72641,1.32238 0.0979,3.00394 -2.0897,3.03658 -5.77931,1.14281 -2.02439,-3.26515 -4.48958,0.4408 -2.53049,-1.38769 -2.33458,1.87746 -8.21184,-3.52636 -0.5714,2.36724 1.68155,1.73052 -1.46932,0.35916 4.30999,8.9465 -2.33458,1.02853 -0.0816,5.43647 -3.05292,2.00806 -3.67328,-2.62844 -2.64477,-4.91405 1.82848,-1.87745 -1.46931,-2.43254 0.50608,-4.86507 -1.73052,-2.43254 -2.82435,-0.16325 v 0 l -0.0979,-2.25296 v 0 l 2.77538,-6.44865 -2.13867,-1.51831 -1.74685,-6.93843 -1.15913,-9.53422 1.86113,-3.28148 -2.90598,-10.97089 -2.95496,-3.75492 -4.13041,-13.30548 -5.69768,-11.23211 -5.55075,-5.97521 4.09776,-4.31 -1.91011,-3.19983 1.84481,-3.55902 -12.53816,-9.86074 v 0 l 2.12235,-1.53462 0.47344,-7.34657 -0.39182,-4.8814 -3.10189,-3.62431 z"
     title="Vaslui"
     id="RO-VS"
     class="land"
     inkscape:connector-curvature="0"
     style="fill:#f48da0;fill-opacity:1;stroke:#ffffff;stroke-width:0.816287;stroke-opacity:1" />
  <g
     id="stadiums"
     data-country="romania"
     data-circle-radius="6"
     data-circle-colors="#a149be,#bea149"
     transform="matrix(1.6325735,0,0,1.6325735,-0.41986601,0.09636955)" />
</svg>
