<?xml version="1.0" encoding="UTF-8" standalone="no"?>
<?xml-stylesheet type="text/css" href="/styles/home.css"?><!-- https://www.amcharts.com/svg-maps -->

<svg
   version="1.1"
   id="map-scotland"
   viewBox="0 0 1000 1000"
   width="1000"
   height="1000"
   class=""
   sodipodi:docname="scotland.svg"
   inkscape:version="1.3.1 (91b66b0783, 2023-11-16)"
   xmlns:inkscape="http://www.inkscape.org/namespaces/inkscape"
   xmlns:sodipodi="http://sodipodi.sourceforge.net/DTD/sodipodi-0.dtd"
   xmlns="http://www.w3.org/2000/svg"
   xmlns:svg="http://www.w3.org/2000/svg"
   xmlns:rdf="http://www.w3.org/1999/02/22-rdf-syntax-ns#"
   xmlns:cc="http://creativecommons.org/ns#"
   xmlns:dc="http://purl.org/dc/elements/1.1/">
  <metadata
     id="metadata12">
    <rdf:RDF>
      <cc:Work
         rdf:about="">
        <dc:format>image/svg+xml</dc:format>
        <dc:type
           rdf:resource="http://purl.org/dc/dcmitype/StillImage" />
      </cc:Work>
    </rdf:RDF>
  </metadata>
  <sodipodi:namedview
     pagecolor="#ffffff"
     bordercolor="#666666"
     borderopacity="1"
     objecttolerance="10"
     gridtolerance="10"
     guidetolerance="10"
     inkscape:pageopacity="0"
     inkscape:pageshadow="2"
     inkscape:window-width="1920"
     inkscape:window-height="1106"
     id="namedview10"
     showgrid="false"
     showguides="true"
     inkscape:guide-bbox="true"
     inkscape:zoom="0.70710678"
     inkscape:cx="435.57778"
     inkscape:cy="586.19152"
     inkscape:window-x="-11"
     inkscape:window-y="-11"
     inkscape:window-maximized="1"
     inkscape:current-layer="map-scotland"
     inkscape:showpageshadow="2"
     inkscape:pagecheckerboard="0"
     inkscape:deskcolor="#d1d1d1">
    <sodipodi:guide
       position="500,579.71308"
       orientation="1,0"
       id="guide822"
       inkscape:locked="false"
       inkscape:label=""
       inkscape:color="rgb(0,0,255)" />
    <sodipodi:guide
       position="-583.72473,690.1012"
       orientation="1,0"
       id="guide1"
       inkscape:locked="false" />
    <sodipodi:guide
       position="239.5,363.5"
       orientation="1,0"
       id="guide2"
       inkscape:locked="false" />
  </sodipodi:namedview>
  <defs
     id="defs4">
    <style
       type="text/css"
       id="style2">
         .land {
            fill: #84c6bf;
            fill-opacity: 1;
            stroke: white;
            stroke-opacity: 1;
            stroke-width: 0.5;
         }

         .rectangle:hover {
            fill: #bdbdbd;
            cursor: pointer;
         }
      </style>
  </defs>
  <path
     d="m 593.5619,258.05726 -1.15271,1.09473 -2.1444,3.4696 -1.31693,0.54558 -2.47284,-0.54558 h -1.48434 l 0.1642,1.64386 0.49585,0.18185 h 0.65684 l 0.82429,0.54558 0.66006,1.28014 0.1642,0.91288 0.16743,0.91286 1.15271,3.46961 0.49585,0.91286 0.49264,0.72744 0.82428,0.54915 h 0.49586 l 0.66006,-0.36372 0.49264,-1.46201 1.15592,1.27658 -0.66006,-1.82572 -0.49586,-0.54559 v -1.28015 l 2.14442,0.18543 2.14119,1.45843 3.79297,4.20063 -0.49587,0.91285 -0.32842,1.09473 -0.16418,1.09473 -0.1642,1.46201 1.81275,-2.73859 0.98851,-0.91288 h 1.48434 v -0.91285 l -0.66007,-1.28015 -0.82427,-0.18185 -0.82428,-0.18185 -0.82428,-0.54915 -0.49585,-1.09472 -1.31692,-4.19705 -1.15592,-0.731 -6.09838,-2.19301 v -1.09473 l 0.66006,0.18185 1.48435,-0.18185 -0.33164,-1.45845 0.1642,-0.91286 0.82428,-1.28015 h 0.16742 0.16421 l 0.16418,-0.18186 v -0.731 z m 42.86251,7.12105 -1.1527,1.45845 -1.64856,2.92046 -1.15591,0.3673 h -1.15271 l -1.32013,0.18183 -1.97698,2.55675 -2.47285,0.54557 -0.98848,0.91288 -0.1642,-0.5456 -0.33165,-0.18183 -0.49263,-0.18543 1.97698,-2.7386 1.15271,-1.27659 0.99171,-0.73101 v -1.27657 l -1.81599,0.18184 -3.12969,2.18945 h -1.81598 l 1.15591,1.82574 0.32844,0.54914 -0.32844,2.37488 -0.49585,0.54558 h -0.82428 l -0.98849,0.54915 -0.66007,0.91285 -1.15269,2.55674 -0.82429,1.09473 -0.98849,0.91286 -0.66006,0.36372 -0.49587,0.731 -0.49262,2.55674 0.16418,1.82574 0.32843,0.36372 0.49586,-1.09473 0.16419,-2.18944 1.32013,0.36372 1.64855,-1.82575 2.80127,-4.38245 0.66006,0.91286 0.49265,0.18184 1.48434,-1.09473 v 1.09473 l -0.16419,0.54914 -0.32842,1.82574 3.29711,-4.56434 1.31691,-0.18184 0.16421,3.65147 0.82428,-0.54916 0.49584,-0.91285 1.48434,-4.01519 0.82429,-0.91287 0.66007,-1.82573 1.48112,-0.731 3.62876,-0.18185 -0.16419,-1.64387 -0.82428,-3.65147 z m -28.35392,10.95441 -0.82427,1.09473 -0.33165,1.64386 0.16743,2.18947 v 1.09472 l 0.32843,2.92045 v 0.54914 l -0.82428,0.18184 -0.82428,0.54915 -0.82428,0.18185 -0.98849,-0.91288 v 3.46961 l 1.15271,0.36372 1.15592,0.91287 0.65684,1.64388 0.16743,2.18945 0.65686,0.54914 1.32013,-0.18184 2.30863,-0.91287 v -1.09473 l -1.32013,-0.18542 -0.49265,-1.27658 -0.16743,-2.18945 v -2.7386 l 0.33165,-0.73101 1.64856,-2.92047 0.49263,-1.462 -0.49263,-1.64389 -0.66007,-0.73098 -0.98849,-0.18185 -0.98849,0.18185 v -1.09473 h 0.65684 v -1.2766 z m -22.91559,9.31051 -2.14442,1.27659 -1.48113,2.19302 0.49264,3.10232 1.81277,2.55673 1.98021,1.64388 2.30861,0.72744 2.30541,0.18543 2.30863,-1.0983 0.16419,-2.18945 -0.32842,-2.7386 1.32014,-2.00759 0.32843,-0.18184 h 0.16418 l 0.1642,-0.18543 v -0.91287 l -1.1527,-0.72744 h -0.98849 l -3.29712,0.91286 h -0.49586 l -0.49263,-0.18542 -0.49586,-0.54558 -0.32842,-0.731 -0.16742,-0.54915 v -0.36373 z m 34.61972,5.84092 -3.1329,1.28015 0.82428,0.54559 2.47283,2.92045 0.49586,1.0983 -0.49586,1.82572 -0.82428,0.72745 -1.31692,0.18542 -1.15591,0.54559 -1.48434,3.10586 1.15592,1.2766 1.64856,-0.73101 -0.1642,-2.55672 1.31691,-1.27659 1.48435,0.36371 1.15271,1.82574 0.16742,3.83688 1.64856,-1.28015 3.46133,-0.54558 1.31692,-1.64387 -2.1412,-1.462 -0.49586,-1.09473 0.49586,-1.82575 0.1642,-0.36373 0.32842,0.18185 0.16743,-0.36727 -0.16743,-0.72745 -1.81277,1.09472 -0.98849,0.36373 -0.82429,-0.18185 -0.98849,-1.64386 0.1642,-1.45845 0.82427,-0.91286 0.9885,0.36372 -0.66007,-0.91287 -0.82427,-0.18185 h -2.1412 l 0.1642,-0.54913 0.32842,-0.5456 v -1.09828 z m -46.8197,2.37488 -3.62555,0.91286 -3.46133,2.55675 -1.98019,4.92804 0.33164,7.48479 -0.49586,1.09472 -1.1527,5.11348 0.9885,5.47719 2.30861,4.20061 2.63706,1.09473 v -0.91286 l 1.81276,-2.19302 0.66007,-1.45845 -0.33164,-2.193 -0.16419,-0.18185 v -1.27659 l -0.1642,-1.09473 -0.82428,-0.731 0.66007,-0.54915 0.66007,-0.18185 0.65685,0.18185 0.82428,0.54915 v -1.09473 l -0.49265,-1.09829 v -0.91287 l 0.66008,-0.91286 0.82428,-0.54559 0.16418,1.27659 0.32844,1.09473 0.49585,1.09829 0.49264,1.09473 v 1.09472 l -1.15271,2.18946 -0.9885,3.10587 -0.16418,3.65147 0.82428,3.65146 1.97696,2.18945 4.61727,-0.91285 1.81277,0.91285 0.49263,-1.82572 0.82429,-0.54558 2.47284,0.18184 -1.15272,-2.37487 0.9885,0.18183 0.82428,0.36729 0.66007,0.18184 0.82428,-0.731 1.32013,0.36727 1.31692,-1.28014 1.15592,-1.64387 0.82427,-0.18185 0.65686,0.91288 2.80447,6.75734 0.82428,1.45844 0.82429,0.91286 5.93416,2.7386 1.15271,0.18185 1.32013,-1.09472 1.64857,-3.83333 0.98848,-0.73101 2.96869,-0.73099 1.48435,-0.91287 0.65685,-1.09473 v -2.55674 -1.82573 l -0.49265,-1.45845 -1.15592,-0.54914 -1.1527,0.18184 -2.63705,2.01114 -1.48434,0.18185 0.49585,1.09473 1.1527,3.4696 -1.48434,0.54558 -1.31691,-0.54558 -1.15593,-1.462 -0.82428,-2.18946 1.15593,-1.28014 3.12969,-2.55319 0.49584,-1.64386 -0.49584,-1.09473 -0.65686,-0.36728 -1.81598,0.18184 -1.31691,0.73101 -1.32015,1.09473 -1.31691,0.91285 -1.64856,-0.36372 0.1642,-0.73101 0.32842,-2.00759 0.1642,-0.731 -1.31692,1.28014 -0.98849,-1.09828 -0.82428,-1.45845 -1.15592,-0.91286 -1.15271,0.54558 -0.98849,1.09828 -0.99171,0.36373 -2.96548,-2.92045 -1.32013,1.09473 -1.15271,2.00758 -1.15591,1.09473 -2.96547,-0.36373 -1.48435,-0.731 -1.15271,-1.09473 1.31692,-0.54914 1.81277,-1.82573 1.48435,-2.37131 0.66007,-2.7386 0.66005,0.36372 4.61404,-2.0076 -0.32842,-0.36372 -0.32843,-0.36728 -0.33163,-0.36373 0.16418,-0.731 0.33165,-0.18185 0.49263,-0.18183 -4.28561,-2.92403 -1.48433,-1.82572 0.49584,-0.18185 1.15271,-0.91286 -0.82429,-0.54559 -1.15269,-2.01116 -0.82429,-0.72743 h -0.82426 l -0.9885,0.54558 h -0.98851 l -2.80447,-2.92046 -1.97697,-0.91286 z m -9.06707,36.51464 -3.46133,1.45846 -1.64856,2.01113 -0.1642,0.5456 -1.15591,3.28773 0.16742,1.64387 0.65685,0.18184 0.82427,-0.18184 0.66007,0.72745 0.33165,0.18542 0.98849,-1.09829 0.49263,0.36728 0.49587,0.91287 -0.16421,0.73101 -0.33163,0.72743 v 0.91288 l 1.64855,3.4696 0.66007,0.73101 0.82428,0.731 0.82428,0.91287 0.33164,1.45845 1.48113,4.20059 0.33164,0.91288 h 7.25429 l 3.78976,-1.2766 1.98021,-3.28773 -2.14442,-0.36372 -4.61724,2.55318 -2.30541,0.18541 0.98849,-2.193 1.64856,-1.45847 1.81277,-0.73099 1.48434,-0.18185 v -1.09828 l -1.15591,-1.64032 -0.65686,-0.54914 h -0.99171 v -1.27659 l 1.15591,-1.09828 -4.12139,-6.93564 -1.48434,-1.09473 -1.64856,-0.54916 -2.63705,-2.92045 -1.15592,-0.91287 z m 30.66254,14.78771 -3.46133,0.73101 -2.96548,1.45845 v 1.09829 h 5.27411 v 1.09473 l -0.82428,0.731 -0.9885,0.36372 -0.98849,-0.36372 -0.99171,-0.731 2.47284,4.19705 0.82428,2.55673 -1.1527,1.28015 v 1.09472 l 3.79297,4.38248 1.64856,-1.28015 0.49264,-1.64388 -0.32843,-2.18945 -0.82428,-2.7386 0.98849,-1.09473 -0.16419,-0.91288 -0.33164,-1.09471 v -1.46201 l 0.49584,-0.731 2.14442,-1.45845 0.1642,-2.01116 -1.81277,-1.09472 z m -32.63952,26.83684 -1.15593,0.731 -1.81277,2.7386 0.82428,2.19302 1.32014,1.82573 1.31691,1.09472 1.32013,0.54559 -0.98849,3.28774 h -2.14441 l -4.28561,-2.18945 -4.2856,1.82573 -2.30863,0.18185 -1.81277,-2.00761 0.32842,-0.18542 0.66007,-0.91285 -1.64856,-0.91287 h -2.47284 l -4.94568,0.91287 -2.96868,1.64386 -5.27411,4.56434 -3.29712,1.64385 -6.59422,1.2766 -6.59424,-1.2766 -1.81277,0.36373 -0.33164,-0.36373 -1.48113,-3.10231 v -0.54913 l -0.16744,0.18183 -0.65684,0.18184 -0.82428,0.54914 -0.99172,2.7386 -0.65684,1.2766 -0.82428,0.54914 h -0.66007 l -1.64855,-0.54914 h -2.96869 l -0.82428,0.54914 -0.66007,2.18945 -0.65685,0.36729 -0.99171,-0.18184 -1.48113,-0.91288 -0.82428,0.18185 -0.49586,0.73101 -0.49585,0.91286 -0.32843,0.91288 -0.82428,0.72743 0.9885,1.28014 -1.64856,-0.54913 -2.30862,-2.55674 -1.64856,-0.54558 -0.65686,0.18185 -2.14441,1.09473 -2.96868,2.37486 -0.1642,0.36372 -3.13291,3.83332 -0.32843,0.18543 -0.32842,0.18185 v 0.73099 0.72746 0.73099 l -2.14442,3.28776 -1.32012,1.45845 -1.31692,0.731 1.31692,-3.4696 0.9917,-3.46606 1.1527,-2.92402 1.81278,-2.37131 -0.16419,-1.64387 0.16419,-0.18185 v -0.54912 -1.27661 l -3.78976,-3.10587 -3.13289,-1.64031 -3.29713,-0.73101 -1.98019,0.91287 -0.82429,2.37132 -0.32842,2.924 -0.9885,2.92047 -1.32012,1.45844 -1.64857,0.91287 -1.1527,1.0983 -0.49585,2.55318 -0.82427,0.54913 -4.61405,5.65907 -1.32012,0.18183 0.66006,-2.18945 1.48435,-3.10231 1.31692,-4.01875 2.80447,-3.10233 0.98849,-1.28015 0.1642,-1.09472 0.32842,-1.45845 v -1.28014 l -0.82428,-0.5456 -0.98849,-0.36729 -2.14121,-2.00758 -1.32011,-0.731 -2.30863,-3.46961 -1.48435,-1.27659 0.49585,2.7386 -0.49585,1.09473 -0.65685,1.09473 -0.33164,2.37488 v 1.64386 l -0.16419,1.64387 -0.49587,1.64031 -1.48112,1.28015 0.49264,-1.28015 0.33163,-1.27659 0.16421,-1.462 0.16419,-1.64032 h -0.32843 l -0.49585,-2.193 -0.32842,-2.55674 v -0.91287 l -1.32014,-1.82573 -1.81277,-1.45845 -10.05555,-2.37488 -1.32014,1.64387 -0.49586,2.92046 -0.16419,3.28775 -0.66007,3.46959 h 0.49585 l -0.82427,2.37131 -1.15271,1.46202 -4.1214,2.7386 -0.66006,0.73101 -0.16421,1.45845 v 2.92046 l 8.57123,8.4012 -2.30863,-1.82573 -1.97698,-1.09827 -4.28562,2.924 0.82429,0.72744 0.32843,0.3673 h 0.49584 v 1.27658 h -0.33163 -0.66007 v 1.09472 l 0.82428,0.18543 0.82428,-0.18543 0.82428,-0.36372 0.66006,-0.731 0.49586,1.09472 -0.1642,1.28015 0.65685,1.09473 2.14441,2.00761 -3.1329,0.18184 -4.61403,-3.46605 -0.49585,-0.18542 -0.9885,-0.72745 -0.49586,-0.18543 -0.32842,0.3673 v 0.91285 l 0.1642,1.09473 -0.1642,0.91288 -0.66007,1.64387 -0.66006,1.64386 v 1.64032 l 0.82428,1.82572 h -1.48435 l 0.16743,1.0983 0.16421,1.27657 0.66005,2.00761 0.16421,0.36727 1.48433,2.37133 0.1642,0.73099 0.82428,0.73101 2.30863,3.83333 0.98848,0.91287 0.98849,0.36373 1.48436,1.46199 0.82428,0.36373 0.82427,-0.18184 0.82429,-1.45845 0.66006,-0.54915 h 1.48114 l 4.94566,1.09472 -0.9885,0.91288 -2.3086,0.36728 -0.9885,0.91286 2.14441,1.82573 0.82427,1.09473 0.82428,1.64387 -5.2773,-4.56433 -1.31692,-0.36727 -3.79298,0.36727 -0.98849,-0.36727 -2.47284,-2.37132 -1.32013,-0.54915 -0.65685,0.36373 -1.15592,0.73099 -0.98849,1.09473 -0.49585,1.09829 -1.64856,-1.462 -1.64856,-0.18184 -1.64856,0.54557 -3.12969,2.37488 -1.32014,0.36373 -1.32013,-0.36373 -3.29711,-2.55673 -1.64856,-0.73101 -1.31692,0.36729 v 2.7386 l 3.46132,6.20819 0.82428,0.54558 h 0.9885 l -0.1642,0.731 -0.32842,1.82573 -0.16743,0.91287 0.82429,0.18185 0.66005,0.54915 0.66006,0.54558 0.49587,0.91286 -0.49587,0.91287 0.9885,0.91287 1.32014,0.36728 2.47284,-0.18185 v 1.2766 l -0.98849,0.731 -2.14442,0.54558 -1.1527,0.91287 1.64855,1.09829 v 1.09472 h -0.9917 l 0.49585,1.27659 0.32842,1.28014 v 1.45845 l -0.32842,1.46201 h 0.49585 l -1.81597,2.7386 -1.81278,-0.18185 -1.64856,-0.73099 -1.64856,1.64387 -1.81277,-4.38247 -2.96869,-0.91286 -1.48113,2.18946 2.63705,5.29533 v 1.09472 l -0.49586,0.54915 -0.1642,0.54557 -0.16419,0.54916 -0.33165,0.54914 3.29712,-0.18542 1.48435,0.54913 1.15592,1.82575 -0.33164,0.54913 -0.16419,0.18185 -0.16421,0.36372 1.97699,0.36727 3.29712,4.56434 2.14441,0.72743 1.15271,1.0983 2.47284,0.54559 0.98849,0.91286 0.66008,2.00759 0.16417,2.01116 -0.65684,1.09473 h -1.48435 v 1.09473 l 1.81277,0.54913 7.74694,7.66665 0.49586,1.09473 0.16419,1.09472 0.49585,1.46203 0.49265,1.462 0.49585,0.91287 -1.64855,-1.0983 -2.14442,-4.56433 -3.29712,-1.6403 -2.80126,-3.10587 -0.98849,-0.73102 -0.82428,-0.18183 -1.64856,-1.45845 -0.9885,-0.36729 -0.82428,0.18184 -1.48433,0.91287 h -0.9885 l -1.64856,-1.09472 -2.14441,-3.46961 -1.48435,-1.09473 -0.32842,2.00759 -0.66007,-0.18184 -0.49586,-0.73101 -0.49263,0.18542 -0.33165,1.09473 v 0.36372 l 0.16743,0.36729 0.16421,0.91286 0.49264,0.72745 5.11309,2.55674 3.29712,3.83332 2.30541,1.09828 0.82428,1.09473 1.15593,2.18946 -5.60574,-2.37132 -2.63706,-1.82573 -2.14442,-2.92402 -0.98849,-1.09472 -3.62553,-1.64388 h -0.99172 l -0.65684,1.64388 -0.99172,4.56433 -0.82428,1.462 0.49585,1.09473 -2.47284,-0.36372 -3.2971,-1.82574 -2.14441,-3.28773 0.49585,-4.38247 h -2.80126 l -0.82428,-0.73101 -1.15593,-1.45845 -0.66006,1.27659 -1.81278,2.73861 -0.66006,1.462 0.16743,0.54558 0.16419,0.3673 0.66007,0.18182 -0.82427,1.64387 0.98849,1.82573 2.96547,3.10233 1.15592,2.55675 -0.16419,2.00758 -0.33165,2.19302 0.49585,3.28418 -1.48434,-1.09473 -0.66007,-0.18184 h -0.98849 l 0.49586,2.0076 0.32842,0.731 0.66007,0.731 h -1.32014 l -1.1527,-0.54915 -0.98849,-1.27658 -0.82428,-1.64387 -0.49586,-2.37488 -0.49585,-3.28418 -0.32843,-3.10588 0.32843,-2.18946 -1.97699,-1.462 -1.97698,-0.54559 h -1.98019 l -1.97699,0.91286 -0.98849,0.91287 -0.82428,1.27659 -0.49586,1.64387 -0.32842,1.64387 v 2.0076 l 0.65686,3.28418 -0.16421,1.28015 0.16421,1.82572 -0.32844,4.19706 0.1642,1.82572 6.43002,1.64387 0.98849,0.54915 0.66007,1.09473 0.49585,1.09472 0.65686,0.73101 0.82427,0.36372 -0.65684,1.64388 -0.82429,1.28015 -0.99169,0.18184 -2.14122,-2.92046 -1.48434,0.18184 -2.96868,1.82572 v 1.09475 l 0.49585,1.46199 -1.64856,2.00761 -0.32843,1.82572 0.32843,2.00761 0.98849,0.73099 1.15591,0.18184 1.15272,0.54915 1.48433,2.55317 0.9885,3.10588 1.32014,2.55674 2.63704,0.54558 -0.66006,1.46202 -0.49586,0.54557 2.64027,3.46961 2.1412,-2.00759 3.46133,-0.54915 3.46454,0.91287 2.47284,2.19302 -0.33164,1.09472 h -1.81278 l -3.29711,-0.731 -5.44152,1.09473 0.16743,0.91286 0.16418,0.73101 0.16421,0.73101 0.49584,0.91286 -0.82427,-0.18185 -2.30862,-1.82573 -0.66007,-0.54915 -1.32014,-2.37131 -0.82428,0.54559 -1.1527,-1.09473 -4.2856,-4.7462 -1.32015,-0.91286 -1.31692,-0.36728 -1.32012,0.73101 0.16419,0.731 0.1642,1.82573 0.16743,0.73099 h -1.15592 l -0.32843,1.09473 v 2.00761 2.37487 l -0.33164,0.91287 -1.15271,2.7386 -0.16418,1.09473 0.16418,2.18945 0.66007,2.7386 0.1642,1.64386 0.49586,0.36729 2.47283,0.72745 0.82428,0.54913 -0.82428,1.09473 -0.33164,1.09472 v 2.19302 l 0.1642,0.36373 0.66007,1.28015 0.33163,0.54558 -0.16743,0.54915 -0.32841,0.36372 -0.32843,0.36728 -0.33165,-0.18543 1.32014,6.20821 1.81277,1.09473 4.12139,-0.72746 1.81277,-1.09828 5.27732,-7.66665 1.15271,-1.27658 0.32843,-0.18542 0.16743,1.09828 0.65684,2.0076 0.16743,1.27658 -0.66007,1.09473 -1.81277,1.46202 2.30541,0.36372 1.81598,0.91286 1.81277,0.36729 1.97699,-1.64387 3.46133,-5.65906 2.14441,-2.37488 1.32015,0.36728 -0.66008,4.56433 -3.46133,3.46605 -8.73865,4.56431 -1.64856,0.36729 -0.49585,-0.54915 -0.32842,-1.09472 -0.66007,-0.54914 -0.66007,0.73102 -0.65685,0.73098 -1.64856,1.27659 -0.66006,0.73102 -1.81278,4.74618 -0.33163,0.54915 0.66006,2.18945 1.64856,0.18542 3.29712,-1.28015 1.48435,0.36729 2.96547,1.64031 1.64856,0.18542 1.48435,-0.54914 2.80447,-2.18946 1.31692,-0.54914 0.82428,-0.91287 0.98849,-2.00759 1.32013,-1.28015 1.81278,0.91286 v 1.28015 l -1.81278,0.73101 -1.81277,2.18945 -0.98849,2.37488 0.65685,1.09473 0.82428,0.54558 0.66007,0.91287 1.15592,2.37486 0.65685,0.73101 3.29712,0.91287 v 1.09473 l -2.96548,0.91286 -2.63704,-2.18945 -2.47285,-3.10588 -2.47284,-2.18945 -2.64026,0.731 -3.29711,2.18946 -1.81278,3.10232 1.48435,2.55673 -1.15271,2.19302 -2.64026,4.37891 -0.49265,2.7386 0.9885,1.64386 6.43002,2.19302 0.82429,0.91286 1.97699,2.7386 0.49583,0.54559 1.15271,-0.18185 1.81278,-0.731 6.43002,-1.2766 1.48434,1.09474 v 1.09473 h -0.49585 l -0.49264,-0.18184 -1.32013,-0.54915 -1.31691,0.18542 -0.49587,1.09473 -0.49585,0.54558 -7.58272,-0.18185 -1.48435,-0.91285 -3.29711,-2.7386 -1.97699,-0.91288 -1.32014,0.91288 -0.82427,0.73099 -2.30541,-0.18184 h -0.99172 l -0.49263,0.73101 -0.82429,1.64031 -3.2971,4.74975 -1.15592,2.55318 0.82427,1.09828 0.82429,0.36372 1.32012,1.46201 0.82429,0.36372 0.82427,-0.18182 1.64856,-0.73102 0.66007,-0.18183 1.64855,1.45845 -0.16419,2.19301 -0.16741,2.00758 1.15591,0.73101 1.48434,0.731 1.64856,1.27659 1.64856,0.54914 1.81277,-1.46201 0.98849,0.73101 1.15271,-0.54915 1.32012,-0.73099 1.32014,-0.54559 v 1.09472 l -3.79297,2.18946 -4.1214,1.09829 -2.63705,-0.36729 -1.15592,-0.731 -1.15271,-0.91287 -0.82428,-1.27659 -1.48433,-3.10232 -0.82428,-1.09828 -1.97698,-0.36372 -2.30864,0.91288 -2.30861,1.82571 -1.31692,1.82573 -0.82429,3.10232 -0.66007,3.65147 -0.82428,3.28775 -1.48434,1.82573 1.64856,1.82572 0.66006,0.36373 v 1.09828 l -2.80447,0.36374 -2.63706,0.73099 3.62876,1.09473 7.25109,-1.82572 3.46454,0.73099 -2.96868,3.83333 -0.66006,1.46201 2.96868,0.91287 h 1.48434 l 1.31692,-2.55675 1.32013,-0.731 1.31692,-0.18185 0.99171,0.5456 -2.47284,2.73858 -3.13291,1.64388 -8.07858,1.28015 -0.98849,1.27659 v 1.64388 l 1.48436,2.00758 5.76994,3.10232 -1.48434,-0.36372 -1.98019,-0.731 -1.81278,0.731 -0.9885,1.64388 -0.82428,-0.91287 -0.98849,-0.36729 h -0.98849 -0.82427 v 1.28016 l 1.31692,0.18184 0.82427,1.09472 0.33165,1.64388 0.16418,1.82573 -0.82427,-0.54916 -3.95718,-2.18945 -1.15271,-0.91287 -0.82428,-1.09472 -0.66007,-0.91286 -1.32012,-0.36729 -1.15272,0.54914 -2.80447,2.37488 -0.82428,0.36372 -11.86834,1.46201 -0.98849,0.91287 -1.81276,3.10233 -0.49586,0.36372 -0.49586,-0.36372 h -0.49263 v 1.64387 0.91286 l 0.1642,0.91287 0.32842,0.91286 0.49584,0.91287 0.98849,1.09473 1.81279,1.09472 1.9802,0.36728 1.31691,-0.91287 1.48434,-1.64386 1.98021,-0.36728 5.76994,1.82573 5.27411,-0.36372 0.98849,0.18185 1.81278,1.46199 0.9917,0.36372 h 0.82428 l 2.80127,-0.91287 8.407,-5.29533 3.29712,1.09831 3.79297,2.73859 1.81278,0.36371 7.09007,-1.09473 -1.64855,1.09473 -2.30863,0.73101 -4.12139,0.36371 -1.81277,-0.54558 -4.94568,-2.7386 -1.81599,0.18185 -8.24279,6.20821 v 1.45845 l 0.82428,1.09472 1.816,1.64388 -0.49586,1.09472 -2.14442,-2.18945 -2.47284,-1.46202 -2.80126,-0.72744 -3.79298,0.36373 -1.1527,0.54914 -0.82426,1.09472 v 2.37132 l 0.49584,1.28016 11.53991,10.5871 4.61404,1.09828 2.80447,-4.38246 h 0.65685 l -0.16418,1.45845 -0.32844,1.28015 -1.15591,2.55673 0.99169,1.2766 1.31692,0.91285 1.48435,0.73101 1.15271,0.36372 0.82427,0.3673 0.99172,2.18945 0.65685,0.54913 0.49585,-0.36728 5.2741,-4.74618 5.11311,-6.7538 3.12968,-5.11347 0.82428,-1.09474 0.82428,-0.91284 0.99171,-0.18185 0.82429,-0.731 0.98849,-2.73861 0.82427,-0.731 1.64856,-0.36372 1.1527,-0.91287 2.14441,-3.10589 0.9885,-1.82571 0.49585,-0.91288 1.64856,-0.731 0.82428,-1.45845 0.65685,-0.18184 1.32013,-0.18543 1.15271,-0.54558 0.99171,-1.462 0.98849,-2.18946 0.32842,-1.28015 0.1642,-1.45845 0.16743,-1.09472 0.65685,-0.54916 0.82428,-0.18184 0.9917,-0.54914 0.82428,-0.91286 0.32843,-0.91287 0.66006,-1.27659 4.61404,-4.56432 -1.31692,2.92045 -1.48435,2.7386 -5.10988,6.2082 -0.49585,0.91286 -0.82428,2.18946 v 0.91286 l 6.10159,3.10589 12.69262,-3.10589 -1.32013,1.09473 -6.2626,1.64387 -2.96869,2.19301 -1.64856,0.54559 -3.29711,-1.09472 h -1.81278 l -2.30862,2.18945 -0.9885,0.18543 -1.97698,-0.3673 -1.64856,1.64388 -0.66007,0.54914 v 1.09473 l 1.48436,1.27657 -0.49587,0.91289 -0.49585,0.91286 -3.12968,3.28773 -0.66008,1.09473 -1.98018,4.20062 -0.32843,0.54558 -0.1642,1.46201 -0.33164,0.73101 -0.49264,0.54558 -0.33164,0.36727 -0.32843,0.54559 -0.1642,1.09473 0.9885,0.18541 1.32014,1.64033 0.82428,0.36727 0.98849,-0.18183 1.64856,-1.64388 0.82426,-0.36728 1.31693,-1.09473 0.33164,-0.18185 1.48434,0.18185 0.9885,-0.18185 2.47283,-1.82572 -0.82427,1.27659 -0.82429,0.91286 -1.98019,0.91287 -3.78975,3.28773 -1.32015,0.54915 -1.81276,0.18184 -1.81277,-0.91286 -1.9802,-2.00759 -0.32843,2.18945 -2.80126,7.48479 1.15269,0.91286 1.48436,-3.28418 0.82428,-1.46201 0.98849,-0.54916 1.32013,5.8445 1.31691,1.09473 2.14442,-2.18946 8.24279,2.18946 3.29712,-0.54915 0.82429,-0.91286 1.81276,-3.28419 3.13291,-3.28775 1.1527,-2.37131 0.82428,-2.73859 0.98849,-2.37488 1.64855,-0.91286 -1.48113,2.55674 -2.64025,6.20819 -4.77825,7.4848 -2.14441,2.00759 -2.63706,0.73101 -6.26581,-2.00761 -7.74693,0.72746 -2.47284,1.462 -1.98021,3.10232 0.33165,1.28016 -0.66007,0.73099 -0.98849,0.5456 -0.82428,0.54912 -0.66006,1.27661 -1.48435,5.11347 1.64856,0.36372 3.46133,-1.2766 h 1.81599 v 0.91288 l -3.95719,1.82572 -1.98019,0.18185 -1.48113,-0.91286 -1.48435,1.82572 -0.66007,2.0076 -0.98849,5.65905 -0.82428,3.28775 -0.16419,1.64387 0.32842,1.45845 0.82428,0.18543 0.66007,-0.91287 0.82427,-0.91288 0.66007,-0.54913 3.29711,-1.09474 0.98849,0.54559 0.49265,1.09828 -0.1642,1.09473 -0.82428,0.54559 -1.48435,0.36729 -1.81276,1.09472 -0.82429,1.64388 0.66007,2.00759 -1.48435,2.37488 -1.31692,3.1023 -0.99171,3.10232 -0.49262,3.10589 1.81276,-1.64388 1.48435,-2.55674 1.81277,-2.37131 2.30863,-0.91286 -0.49586,2.18945 -0.49264,1.46201 -2.47284,4.19705 -0.33164,1.09473 0.1642,1.28015 0.49585,2.37132 0.1642,0.36728 0.49586,0.36372 0.49264,0.54915 0.33164,0.91286 v 0.91287 h -0.66008 l -0.66006,-0.54915 -0.1642,-0.36372 v -0.18185 l -0.49585,-0.36728 -0.65685,-0.36372 h -0.49586 l -0.49585,0.18184 -0.16419,0.73101 -0.1642,0.731 -0.16421,0.54559 -5.76994,9.31052 -2.96869,6.39006 -0.32843,4.01873 -0.33164,0.91288 -0.1642,1.09473 0.33164,0.91286 0.65685,0.18184 0.33164,-0.36372 1.31692,-2.7386 v -3.4696 l 3.29712,-4.20059 0.49586,-2.92048 1.1527,-0.731 0.99172,-1.09473 0.98848,-0.54557 0.98849,0.36372 -0.32842,0.73101 -0.49586,0.54557 0.32843,0.731 -0.65685,2.0076 -8.41023,14.60586 0.16743,1.64387 0.32843,1.82573 0.66006,0.91287 h 0.66007 l 1.31692,-1.64387 2.14441,-1.09473 2.63706,-3.46961 1.64855,-1.09473 -1.1527,1.82574 -1.32014,1.46201 -1.1527,1.64387 -0.49585,2.0076 -0.49586,1.27658 -3.29712,5.47719 0.33165,1.09473 0.1642,4.2006 0.49584,2.00761 1.15272,1.462 0.98849,0.73101 2.14441,0.91287 -0.49585,2.0076 h 0.98848 l 0.99171,-0.54915 2.63705,-2.55674 7.58272,-9.31053 -1.48434,4.56434 -2.47284,4.01875 -2.63705,2.7386 -2.1444,1.09473 -1.15271,0.91284 -1.32014,2.18946 -1.1527,2.7386 -0.32842,2.00759 -0.66007,1.64388 -4.12141,4.01876 0.82429,2.18944 -0.33164,2.92046 -1.64856,5.29533 -1.81277,4.56433 -0.1642,1.64388 0.1642,1.09472 0.49585,1.09473 0.32842,1.09472 -0.98849,4.38248 v 3.4696 l 0.49586,3.46959 -0.16744,3.10234 -0.65684,1.462 -2.96869,3.83332 -2.14441,2.18946 -0.32842,2.92401 v 3.28419 l 0.98849,6.57192 0.82428,1.82574 1.32012,0.54914 h 2.30863 l 0.82428,-0.18184 1.81277,-1.46201 0.82427,-0.54558 0.82429,0.18184 1.48435,0.91286 0.82428,0.18185 1.81276,-0.54914 1.64855,-0.91288 1.64857,-1.27658 1.1527,-1.46201 2.63705,-4.01519 0.82428,-2.37487 -0.98849,-0.91287 v -0.72744 l -1.31692,-3.28775 -0.66006,-1.27659 -0.82429,-0.731 -0.66006,-0.36728 -0.9885,0.18542 v -0.91287 l 1.81279,-1.28014 1.15269,-2.0076 1.81599,-5.11347 0.32843,-0.36373 0.32842,0.18185 h 0.16743 l 0.1642,-1.27659 v -2.92046 -0.731 l 0.49264,-1.46201 1.64855,-3.65146 -0.49263,-2.73861 0.82428,-0.91286 1.31692,-0.5456 0.49585,-2.01113 -0.66006,-1.64031 -0.98849,-0.18543 -0.66007,-0.91287 0.16419,-3.46604 -0.16419,-0.54914 -0.32843,-0.54915 -0.1642,-0.72744 1.64856,-1.46201 0.16419,-1.27659 0.32844,-2.55674 0.16419,-1.28014 0.49586,-1.82573 0.66006,-1.82574 0.98849,-1.27659 3.46133,-4.56433 1.15592,-0.91286 2.63705,-0.91287 1.15271,-1.09473 0.49585,-2.00759 -0.66006,-3.83687 -1.97699,-3.65148 -4.28883,-5.29178 0.33165,-0.18541 0.32842,-0.54559 0.49586,-0.36728 -0.82428,-0.72745 -0.33165,-0.18542 v -1.09473 h 0.49586 v -0.91286 l -0.82428,-0.91286 -0.32843,-1.27659 v -1.46201 l -0.33164,-1.64388 -0.82427,-3.10231 -0.49265,-0.18184 -1.15591,-0.54916 -0.1642,-0.36372 0.49586,-8.21578 v -1.09472 -0.91287 l 0.32843,-0.73101 0.49585,-0.36729 0.16419,0.91288 v 1.28015 l 0.16419,0.73098 1.32014,0.54559 1.97699,0.18185 1.64855,-0.54559 0.66007,-1.82573 0.32842,0.18184 0.49586,-1.82573 0.32843,-2.18946 v -0.731 l 0.49585,-0.54914 h 1.48434 l 0.65685,-0.54557 6.43002,-10.95441 9.23129,-6.9392 0.66007,-1.09472 1.81277,-5.4772 0.82427,-1.82573 1.32014,-1.28016 1.15271,-0.54558 3.29711,-0.36728 1.15592,-0.72744 2.96548,-3.46961 1.32013,-1.09473 -1.48435,4.01519 -2.80126,2.37488 -2.80449,1.27659 -2.47282,1.82573 -1.15271,2.00759 -2.80126,7.12108 -0.66007,0.73098 -3.29712,2.92047 -4.45304,2.00759 -8.40699,16.4316 -1.97699,2.55673 0.9885,4.38248 0.16418,1.27658 -0.16418,1.28015 -0.82429,1.82572 -0.1642,1.09473 v 2.7386 1.45845 l 0.32843,1.09829 0.49585,0.72744 0.66007,0.36729 0.49264,0.54558 0.49585,3.83688 0.82428,1.2766 2.47283,1.09472 3.46133,2.19302 h 1.48434 l -0.66005,-2.7386 -0.66006,-2.37488 -1.977,-4.38247 2.30863,-3.65145 0.32843,-1.09474 0.16419,-1.64387 0.49586,-2.00759 0.66006,-2.00759 0.82428,-1.28015 v 3.28774 l 0.65685,2.00759 5.11311,4.56433 1.48113,0.54915 0.66007,-1.46202 -0.49265,-3.10232 -2.96868,-8.39765 -1.32014,-2.55674 1.32014,-1.09473 0.49585,1.27659 0.49263,2.00759 3.1329,4.56434 0.1642,3.10587 0.82428,4.37891 1.15592,3.83689 1.15271,1.64031 2.47284,0.731 0.98849,-0.18183 0.98849,-1.46202 0.82428,-1.45845 0.33165,-1.462 0.16419,-1.45845 0.32842,-1.82573 0.66007,-1.28015 0.98849,-1.2766 0.66006,-1.462 0.33165,-2.18945 -0.33165,-1.82574 -0.82426,-1.28015 -0.98849,-0.72744 -0.98849,-0.54915 v -0.91286 l 1.31691,0.36371 1.32012,0.73101 1.1527,0.54914 0.99171,-0.731 -0.33163,-1.64388 -0.16419,-2.18944 v -2.92046 l -0.32844,-3.10588 0.16421,-1.09473 0.98848,-0.54914 0.1642,-2.37132 -0.66007,-5.29534 -1.1527,-5.29533 -0.82429,-2.7386 0.98849,-1.45844 1.15593,0.36372 0.65686,1.64388 0.33163,2.00758 v 4.74619 l 0.49265,1.28015 1.64856,-0.18542 1.15592,-1.82574 4.44982,-10.22337 0.98849,-1.64387 0.82427,-0.72745 0.33165,0.54557 -0.33165,2.19303 -5.43831,9.85609 -2.96869,8.94682 -0.1642,1.28015 0.1642,5.8409 0.1642,2.7386 0.82428,2.18946 1.81599,0.731 1.97696,0.18184 1.32015,-0.36372 0.49263,-1.27658 -0.82427,-2.73861 -3.62554,-6.2082 -0.49586,-1.82572 v -1.64387 l 0.33165,-1.09473 1.1527,0.36372 v 0.73101 l 0.98849,4.56431 0.98849,2.00762 1.15592,2.00757 1.48435,1.64387 3.12969,1.28016 3.95717,5.65906 3.29713,2.37131 3.13291,0.73101 8.407,2.00759 -0.66007,0.36728 -1.31692,0.91286 -9.23129,-1.64386 -3.62876,-0.54914 -1.64855,-1.09473 -0.82428,0.36727 -1.31691,-0.18541 -4.94568,-2.55318 -0.99171,-0.18541 -1.48113,0.36727 -2.47283,1.09473 -1.64856,1.64387 -1.15593,2.73859 -0.49263,4.01519 0.32842,4.20061 v 0.18184 l 0.49586,6.57192 0.32842,1.64387 0.49586,1.27659 0.49263,1.82574 0.33165,5.11347 -1.15593,3.28775 -3.46133,4.01518 1.48435,2.37488 2.47284,2.55317 4.44982,3.28775 v 1.09472 l -0.49264,1.46201 0.65686,0.54559 2.47284,0.18541 4.28882,2.0076 2.30541,2.18945 1.64856,3.10588 0.33163,3.10232 v 0.18185 l -1.64855,2.7386 2.80126,1.09473 1.98019,2.7386 0.65686,3.4696 -0.65686,4.20059 -1.98019,2.92046 -5.1099,2.7386 -2.47283,2.55675 -0.66007,1.82573 -0.66005,3.46959 -0.49265,1.45845 -0.66007,0.91288 -1.32013,1.28014 -2.63705,3.46604 -0.32842,0.91287 -0.1642,1.46201 0.1642,3.28775 v 1.45844 l -0.33164,1.28015 -1.81278,5.10991 v 0.73101 1.64387 l -0.1642,0.54558 -0.82427,0.18543 -0.32842,0.36372 -5.11312,7.48478 -3.12968,2.37487 -1.48434,1.64387 -0.66007,2.7386 -0.16419,3.10233 -0.49587,2.0076 -1.48434,3.65145 -0.32843,1.28016 -0.16418,1.09472 v 3.28419 l 0.32842,1.64386 0.98849,3.10588 0.16742,0.18185 0.1642,1.27658 0.32842,1.28015 2.80448,6.20466 v 1.09827 l -0.33164,0.5456 -0.16419,0.54912 -1.32014,1.45845 -1.48113,-0.18183 -1.32013,-1.27659 -0.98849,-1.64387 -0.33165,-1.46201 0.16744,-3.46604 -0.16744,-1.64388 -0.32842,-1.64386 -0.49586,-1.46202 -1.15268,-2.00758 -0.32844,-0.91288 -0.82429,-1.64386 -0.66006,-0.72746 -0.33163,1.64032 -0.49264,0.54915 -0.82427,0.18183 -1.64857,-0.18183 -0.9885,1.27658 -0.49584,2.55674 -0.32843,5.4772 0.49263,5.84447 1.32014,5.29178 2.30861,4.56433 7.2511,9.85967 1.64855,0.731 0.66007,0.91285 0.49586,2.0076 0.32842,2.0076 0.33164,1.28015 0.49264,0.54558 0.66007,0.36728 1.48435,0.18185 -0.33165,1.09473 v 0.91287 l 0.33165,1.09472 0.49263,0.91287 -0.82428,1.28013 v 2.55675 l 0.33165,2.18945 0.82427,1.09469 1.64856,0.54918 3.29711,2.00756 1.64856,0.3638 -0.98849,-2.37136 -0.16742,-0.73105 0.16742,-1.27656 0.32843,-2.73859 v -1.28015 l -2.30862,-2.18943 -1.15271,-3.46961 -0.82428,-3.4696 -0.66006,-1.64388 -0.66007,-0.72744 -0.66007,-1.46201 -0.32842,-1.64387 -0.1642,-1.27659 v -1.09473 -0.73101 l 0.32843,-0.91286 0.66007,-1.28014 1.32012,-2.0076 1.48114,-1.82573 1.81599,-1.45845 1.81275,-0.91286 2.9655,-0.18543 1.64854,0.91287 1.32014,4.20062 1.64856,1.09472 3.46133,1.09472 9.23128,6.39006 2.47284,2.7386 4.45304,7.67022 0.66007,0.54558 h 2.80126 l 0.82428,0.36727 1.81277,1.64388 1.64855,0.72743 1.81278,0.36729 0.82428,-0.36729 0.49585,-0.72743 0.32842,-0.54914 0.49586,-0.36373 0.49586,-1.28014 -0.33165,-2.7386 -0.32842,-3.10232 0.98849,-2.19302 -1.15271,-2.18946 0.49264,-1.82573 0.66007,-1.64387 -0.32842,-1.82571 -0.82429,-1.45847 -0.9917,-0.73101 -1.15272,-0.36727 h -1.32012 l -0.49264,-1.09473 -0.49586,-2.18946 -0.82427,-3.4696 0.33164,-1.64387 0.49263,-1.82574 0.66007,-1.45845 0.32843,-0.73099 1.32012,0.36372 0.49587,1.09473 0.32842,1.64386 0.82428,2.19302 0.66007,0.91287 0.82427,0.91286 5.76997,3.10232 1.15269,0.18185 1.32014,-0.731 1.81276,-2.7386 1.15272,-0.72745 -0.65686,5.84091 2.80127,5.11347 3.95718,2.92047 2.96548,-0.731 -0.82428,-2.18947 0.33164,-2.55674 0.82428,-2.19301 1.1527,-1.09473 v 0.73101 l 1.15592,0.54914 0.16419,1.45845 -0.33162,2.00759 0.16742,1.46201 v 0.18186 l -0.33166,0.54914 -0.16417,0.36372 0.16417,0.36729 0.33166,0.18184 0.16419,0.18185 h 0.32843 v 1.09472 l 2.47284,0.36727 3.62876,-0.54915 6.09836,-5.29532 3.9572,-2.0076 0.82428,-0.54913 -2.63706,-3.10233 0.98849,-0.91287 0.49265,-0.18184 -0.16421,-0.54914 -0.32842,-1.45845 1.1527,-1.28014 0.98851,-1.64388 0.33163,0.36727 v 0.54561 l 0.1642,1.09827 -0.32842,-0.73101 -0.33166,-0.18183 -0.98849,1.82572 0.49586,0.91287 0.49263,0.54559 0.49586,0.18183 0.66007,-0.54557 -0.16742,-0.36729 h -0.16421 l -0.16419,-0.72744 5.44152,0.91286 1.64857,-3.10588 2.14119,-0.36373 7.09009,0.73101 1.31693,-0.73101 0.82426,-2.55672 0.16743,-2.37487 -0.16743,-3.10234 -0.32841,-2.92045 -0.66008,-1.64387 0.98849,-4.2006 2.30863,2.37487 1.15593,0.36373 1.31692,-0.5456 -0.16421,-0.73101 v -0.18183 l -0.32842,-0.18184 1.1527,-0.54915 1.15271,0.36373 1.15592,0.731 1.31692,0.54915 24.56415,2.00759 6.59424,-2.00759 0.33165,-2.7386 0.9885,-2.37488 0.16418,-0.54558 v -4.01876 l 0.32843,-0.731 0.49586,-0.18183 0.49586,0.18183 2.80124,1.64387 0.66008,0.18184 1.1527,-0.36372 0.49586,-0.36372 0.32842,-0.36729 1.15593,-3.28417 0.49262,-0.54915 2.47284,-1.27658 0.49587,-0.54915 0.66007,-0.73099 0.32842,-0.5456 1.64855,-2.7386 2.14442,-3.65145 0.98849,-0.91288 1.48434,-0.36727 3.29712,-1.82574 2.14119,-1.64387 1.64856,-1.82573 0.9885,-1.64032 1.81598,-3.28773 1.31692,-1.27659 0.98849,-0.36728 0.49586,-0.54559 0.32842,-0.731 0.16743,-1.09472 v -0.54915 -0.36372 l -0.16743,-0.36729 -0.1642,-0.54558 -0.16419,-0.54914 v -1.09473 l 0.16419,-0.73101 0.33164,-0.36372 0.9885,-0.91286 4.2856,-5.84447 6.75845,-6.93566 0.82428,-0.36727 1.98021,-0.54559 1.1527,0.36372 0.32842,0.18185 0.82429,0.54914 0.16743,0.54559 0.49263,0.18541 0.66007,-0.18541 1.64856,-1.09473 0.49584,-0.73101 0.49265,-0.72744 0.33164,-1.46201 0.32842,-0.73102 0.49585,-1.09473 0.49266,-0.54913 2.30861,-1.09473 0.66006,-1.09473 1.15271,-0.91286 2.14441,-0.54915 0.82428,-0.36372 1.64856,-1.27659 0.98849,-1.28015 0.82428,-1.09473 0.32843,-0.731 v -0.73102 -0.54557 -0.54914 l -0.1642,-0.36373 -0.32843,-0.36727 -1.81276,-2.92046 -0.16743,-0.54558 v -0.36729 -0.54558 -0.18542 -0.18186 -0.54557 l -0.16421,-0.36728 -0.66006,-1.82575 -0.9885,-1.82572 -1.31691,-2.55673 -1.32012,-3.83333 -0.1642,-1.09472 -0.1642,-0.54915 -0.16743,-0.54558 -0.1642,-0.36728 -0.82427,-1.09473 -0.32843,-0.36372 -0.1642,-0.54915 v -0.54558 l -0.16742,-0.54915 -0.32843,-0.36372 -1.15271,-0.731 -0.33163,-0.36729 -0.1642,-0.54558 -0.1642,-0.54915 v -0.54558 -0.91286 l 0.32843,-0.36729 0.49585,-0.36372 0.82428,-0.18185 3.1329,-0.18542 1.15272,-0.18183 0.66005,-0.36372 0.66007,-0.731 4.1214,-7.12108 0.49263,-1.09472 0.33165,-1.09473 0.32842,-0.73101 0.32843,-0.36372 0.66006,-0.54914 0.82428,-1.09473 0.49586,-0.36728 1.15269,-0.5456 0.33166,-0.36726 1.97698,-2.37133 0.32843,-0.73101 0.16742,-0.73099 0.32843,-2.37131 0.16419,-1.09829 0.49585,-0.54559 0.32843,-0.36729 3.46133,-1.45844 -4.28561,-9.6778 -1.64856,-1.82574 -1.64856,-0.91286 -0.49262,-0.36372 -0.16743,-1.09473 -0.16421,-1.46201 -0.49263,-1.27659 -0.66007,-0.36728 -12.36419,-2.73861 -3.29711,-2.00759 -0.82429,-0.73101 -4.12139,-3.83332 -2.9687,-1.09473 -3.1329,-2.55673 -1.1527,-1.27659 -0.49585,0.72745 -0.82429,0.731 -0.32843,0.73101 -1.15269,-1.09473 -1.98021,0.54558 -0.9885,-0.54558 0.32844,-0.731 0.66006,-2.55675 -1.31692,-0.91285 -2.14441,-3.46961 -1.48434,-0.72744 -13.02426,-1.0983 -1.64856,0.91286 -2.1412,2.92404 -1.48434,1.45845 0.32843,0.54914 0.33163,0.73101 0.32845,1.82572 -1.97701,0.36373 -1.32012,1.82573 -1.1527,2.37487 -1.81278,1.6403 -5.93738,2.92403 -3.46132,0.36372 -1.31693,0.18185 -0.99171,-0.18185 -0.49263,-0.54915 -1.32013,-2.18945 -0.49265,-0.54915 -14.18017,-1.27658 -1.1527,-1.27659 -0.82428,-1.09828 -0.82428,-0.18184 -1.32014,0.731 h -3.62554 l -3.46133,-1.09472 -4.28561,-1.28016 -5.60574,-1.82573 h -1.64855 l -4.45305,1.09829 -0.82426,-0.36728 -0.49266,-0.91287 -0.49584,-1.09473 -0.49265,-0.731 h -0.49584 l -1.48435,0.18184 -0.66006,-0.18184 -0.49265,-1.09473 -0.98849,-2.00759 -1.64855,-3.28775 -0.66007,-0.36372 -0.66007,-1.28014 -4.61725,-3.65146 v -0.91288 h 1.64856 l 0.9917,0.91288 1.64857,2.193 2.80125,3.10232 2.80127,2.19303 2.96869,1.09472 6.92267,-0.18184 12.36418,4.19704 3.1329,0.18184 2.9687,-0.54558 3.13289,-1.64387 2.63706,-2.00759 1.48434,-0.73101 5.43832,-0.36371 1.15592,-0.91288 0.82427,-2.19302 1.15272,-5.1099 0.82428,-1.64387 1.48434,-0.73101 1.31691,-0.731 4.28882,-5.47721 4.1214,-3.28417 0.49265,-1.462 0.82427,-1.09475 1.9802,-0.54912 h 3.62555 l 4.78146,2.7386 1.81277,0.36727 1.81277,-0.54915 4.94568,-3.65145 3.62874,-0.91287 1.81278,-0.91287 1.48435,-3.10231 4.1214,-4.56434 v -0.91286 l -2.80448,-2.7386 -0.66007,-0.36729 -2.63706,-2.73859 -1.64854,-1.09473 -7.08688,-0.54914 -0.49585,-1.09473 -0.66007,-0.36372 -0.66007,-0.18185 -0.82428,-0.36728 -0.1642,-0.54558 -0.32843,-2.19303 -0.33162,-0.36372 h -1.81278 l 1.15591,-1.64386 0.98849,-2.37489 0.66008,-2.73858 -0.16742,-2.92046 -0.98849,-1.82573 -2.63707,-0.36372 -1.48433,-1.46202 -1.31692,-0.91286 -1.816,0.36728 -1.64855,1.09473 -0.65685,1.45845 -0.82428,1.09829 -15.33288,8.76137 -3.13291,0.73101 -3.13289,2.18944 -1.64856,0.54916 h -0.82429 -2.47284 l -1.31691,-0.54916 -0.9885,-1.45845 3.29713,1.09473 3.2971,-1.462 8.07537,-9.12866 2.64027,-2.37131 2.96548,-1.46202 h 0.49584 l 18.13415,-3.10232 4.2856,-0.54914 0.9885,0.18184 0.49585,0.731 0.66007,0.3673 0.65685,-0.3673 1.48436,-4.19704 0.66005,-1.0983 2.96871,-1.6403 1.64854,-1.28015 1.31693,-3.28418 7.25429,-5.84448 1.15272,-1.64387 0.82427,-2.55317 1.32014,-1.82575 0.49585,-1.09828 v -0.72744 l -0.49585,-2.19302 v -1.27658 l 0.66006,-2.19301 1.1527,-1.64031 0.82428,-1.82574 0.9885,-6.93921 0.33164,-0.91286 0.66006,-1.64388 1.48114,-1.82573 1.32012,-1.27659 4.28561,-3.10586 1.15593,-1.64032 1.81277,-3.65146 2.14119,-3.28775 2.64026,-2.37488 1.15272,-1.82572 0.49584,-2.7386 0.32844,-0.91287 1.32012,-2.00759 0.49263,-0.91286 v -1.82574 l -0.49263,-1.27659 -0.33163,-0.91286 -0.32843,-1.28015 1.15269,-5.65906 2.30864,-5.65905 6.92266,-12.4164 v -0.18185 l 1.32013,-2.92047 -0.1642,-1.27658 -1.48434,-1.28015 -0.32842,-2.92046 0.49263,-3.28774 1.81278,-8.21579 4.94567,-14.60586 1.98019,-3.46603 8.07859,-8.40124 0.32843,-2.18945 1.32013,-2.92045 3.12968,-4.7462 1.81599,-1.82572 0.49265,-0.91287 -0.9885,-0.36728 -0.66006,-0.73101 -0.16421,-1.45845 0.49587,-1.09472 1.15269,-0.18543 -2.14441,-2.7386 -0.82428,-1.82572 0.33165,-2.00759 v -0.91287 l -1.32014,-2.55674 -0.32842,-2.7386 -0.33165,-2.92046 -0.65684,-2.7386 -6.59424,-8.21578 -0.82428,-2.18946 -0.49586,-0.54914 -0.9885,-0.18185 -1.32011,1.2766 h -0.9885 l -0.66007,-0.91288 -0.66007,-1.6403 -0.49263,-1.28015 v -0.54559 l -8.57445,-0.36729 -1.15269,0.36729 -4.61725,3.83332 -1.97698,0.5456 -1.64856,-0.72746 -3.29712,-2.37487 -1.64856,-0.18185 -0.66007,0.18185 -0.82428,0.731 -0.49264,0.91288 -0.33162,0.91285 -0.32844,0.73101 -0.98849,-0.36728 -1.48435,-0.91287 -0.66005,0.18184 -1.32015,1.46202 -0.82427,0.54913 -0.82429,-0.18541 -0.82428,-0.72744 -0.49263,-0.36729 -0.66007,1.28014 -3.62554,-2.01115 -1.32014,-0.18184 -0.98849,0.73101 -0.66006,1.09472 -0.49587,0.36729 -1.31691,-2.19302 h -2.47284 l -6.59423,-2.55674 -2.63705,1.46201 -0.66006,-0.91286 h -0.66007 l -0.66007,0.54915 -0.82428,0.36371 -0.82428,-0.36371 -0.82427,-1.46202 -0.49264,-0.36372 h -4.94567 -7.25431 l -1.32014,0.36372 -4.78145,4.0152 -3.12969,1.09828 -3.29711,-0.18543 -10.22299,-4.01518 -5.76996,-4.2006 -9.55971,-0.36373 -0.99171,0.18183 -1.97699,1.46202 -0.98849,0.54558 -0.98849,-0.36372 -0.82428,-0.36373 -0.66007,0.18185 -0.66006,1.64388 0.32843,1.82573 -0.65686,2.00759 -1.32013,1.64387 -0.9885,0.91285 -1.48433,0.36374 -1.64857,-0.18186 -2.80125,-1.09472 1.64854,4.19705 -1.15591,0.36729 -1.15271,0.54559 h -0.98849 l -0.99171,-0.91288 0.66007,-0.731 0.33164,-0.72745 0.65685,-1.82574 -4.61403,1.27661 -5.44154,4.56433 -6.43001,5.29532 -2.30541,0.73101 -7.41852,-0.73101 -7.09008,1.27659 -2.14442,-0.18184 2.80448,2.92046 0.9885,1.64388 -1.48435,0.731 -0.98849,0.36372 -1.32014,0.91286 -1.1527,1.28014 -1.32014,2.37134 -0.82427,0.36726 -1.81278,0.18185 v 0.54558 l -0.66006,1.09829 -1.15271,1.64031 -1.64856,0.91287 h -1.48434 l -2.63705,-0.91287 0.82429,-1.27658 0.82427,-1.64388 1.48434,-3.65145 -0.98849,-0.73101 -0.9917,-0.18185 h -2.30541 v -1.27658 h 4.2856 l 1.81277,0.73101 0.49586,-0.18544 -0.82428,-1.45845 1.31691,-2.00758 1.48435,-0.91287 3.62554,-0.36728 -0.32842,-0.36372 -0.1642,-0.54915 -0.33164,-0.54558 -0.1642,-0.73101 2.63706,-4.9316 2.30862,-2.0076 2.14441,-3.10232 1.64856,-3.28774 -0.33164,-2.0076 -1.1527,0.18184 -3.46133,2.37488 -0.9885,1.2766 -1.15592,1.09473 h -1.64856 l -3.95717,-0.91288 -0.98849,-1.45845 -0.9885,-0.36727 h -0.49585 l -3.29713,1.82572 -2.96547,3.4696 -3.62877,2.55675 -0.82426,1.462 -0.82428,1.45845 -1.15271,1.64387 -1.1527,1.27659 -2.30862,1.09829 -0.9885,0.91286 -0.49585,-0.18542 0.66007,-2.37132 0.66006,-1.64387 0.65685,-1.09473 5.1131,-5.65906 0.9885,-0.54914 1.3169,-0.91285 0.49586,-2.18947 0.49586,-2.01115 h 1.31692 l 1.48435,0.36729 4.94567,-1.64387 1.97699,-0.18185 0.99169,-0.36728 6.09839,-6.20465 2.63706,-1.09827 2.14441,2.37487 -0.98849,2.37488 0.32842,1.6403 1.1527,0.73101 1.64856,-0.36373 0.99171,-1.28015 1.97698,-3.46604 1.81278,-1.46201 10.55141,-15.51871 0.49586,-1.2766 0.16419,-2.73859 -0.49585,-1.462 -0.82428,-0.18186 -1.15271,1.45845 -2.30862,3.65147 -2.80126,2.92402 -2.80449,1.45844 -2.47282,-0.91286 0.98849,-2.0076 -1.31693,-2.00759 -2.47283,-0.731 -4.45305,3.83332 -2.63705,-0.731 -4.94568,-3.83332 0.49587,2.7386 h -1.32014 l -1.81276,-1.45846 -1.32014,-1.82572 -1.31691,-1.46202 -1.64856,0.36372 -3.13292,1.64388 -2.96869,-0.73101 -2.47284,-2.37132 -4.12139,-6.75734 1.64856,0.54914 1.48434,1.46202 2.47284,4.01518 1.64856,1.2766 6.26582,-1.82575 2.14119,0.73102 4.45304,2.55673 h 2.14119 l 0.66007,-0.54915 1.32013,-2.18945 0.66006,-0.54915 h 1.15272 l 2.30862,0.91287 1.31691,0.18542 -0.32842,-2.01114 0.32842,-1.64032 1.64857,-2.92402 -1.64857,-3.10232 -0.49263,-0.73099 -1.32013,-0.73101 h -2.30864 l -1.15269,-1.09474 -0.66008,-1.45844 -0.32842,-1.28015 0.49264,-0.54559 2.14442,1.45845 1.97697,0.18185 1.15593,0.731 -0.66006,0.91286 0.49585,0.36729 1.1527,0.91286 0.1642,-1.64387 0.1642,-1.462 0.49584,-0.91287 0.82428,-0.54559 4.94568,-3.83688 2.47284,-0.54558 1.81277,-1.28015 0.82428,-0.72745 0.33163,-1.28015 0.82428,-3.28418 0.65686,-1.64387 1.48433,-1.64386 5.60575,-3.28775 16.98145,-15.51873 3.29711,-4.01517 1.48113,-2.7386 0.49586,-2.73861 0.66005,-1.462 4.1214,-4.7462 2.80127,-1.82573 6.75845,-2.73859 3.13291,-2.00759 2.96868,-3.83333 4.12139,-6.57193 3.29713,-7.30293 0.82427,-5.84447 0.66008,-0.18185 0.82427,-0.91287 0.32843,-1.46201 -0.32843,-2.00759 -0.66006,-0.91286 -0.66007,0.18184 -0.82429,0.54914 -0.98848,0.18185 -1.64856,-1.09473 -0.82429,-2.00759 v -2.55674 l 0.82429,-3.28774 0.66007,-1.09472 1.97697,-2.18946 0.66007,-1.28015 1.15272,-3.10232 0.98849,-1.27659 0.33163,-2.37488 1.48434,-3.4696 0.49265,-2.92045 -2.63705,-1.2766 -5.10989,1.09472 h -2.63705 l -3.95719,-3.28772 -3.1329,0.36728 -5.10989,1.82572 h -2.30862 l -0.49585,-0.73099 -0.32843,-1.46201 -0.1642,-1.45845 -0.33163,-0.91288 z m -226.6768,158.11124 -0.33165,0.54559 -0.16419,0.18183 -0.66006,0.36728 -0.98849,-0.54914 -0.49265,1.09472 -0.49584,1.82574 -0.66007,2.01116 -0.49264,0.54558 -3.1329,2.37488 -0.49586,0.18184 -0.16419,0.54914 v 1.82573 l 0.32842,1.09472 0.66007,0.91286 0.49585,1.2766 -0.33165,2.19302 0.49587,0.54558 0.82428,0.54914 0.82427,0.18185 0.98849,-0.18185 -0.98849,3.28419 -0.9885,1.46201 -0.33163,1.64387 1.32013,3.28418 2.63706,3.65147 0.98849,2.01115 v 2.18945 l 0.33164,0.54915 0.32843,1.09472 0.49585,0.54559 v 0.91286 l -5.93417,-8.57951 -0.99172,-0.54915 -0.98849,3.10588 -1.64855,2.37131 -0.66007,-0.36372 1.64856,-4.74619 -1.31692,0.18184 -0.98849,0.54915 -0.99171,0.18184 -1.1527,-1.28015 -0.82429,-1.45845 -0.82426,-0.91286 -3.62555,-2.19302 -0.49585,-0.54558 -0.82428,-0.91288 -0.16421,-1.09471 -0.16418,-1.462 -0.33165,-1.2766 -1.64856,-1.28015 -0.82428,-1.45845 -1.1527,-1.28015 h -1.64855 v 1.28015 l 0.98849,1.2766 -0.1642,2.37487 -0.82428,2.37131 -0.98849,1.46201 1.81277,0.73101 2.47283,1.6403 1.81277,2.55675 0.82428,2.92045 -2.30862,-1.27659 -1.31692,-0.18184 -0.66005,0.91286 -0.1642,0.54559 -0.66007,0.18541 -0.1642,0.72745 0.1642,0.54915 0.66007,1.27658 0.1642,0.54915 0.16417,0.36372 1.32015,1.82574 -0.33165,0.18542 -0.32842,0.54558 -0.33165,0.18184 v 1.09828 l 0.49585,2.00761 -0.98848,-0.36729 -1.48435,-1.09472 -0.66005,-1.09473 -0.49264,-1.462 -4.12141,-6.7538 -0.66007,-0.36371 -0.82427,0.36371 -0.98849,1.64387 -0.66008,2.0076 0.16421,2.0076 0.66006,1.64386 1.15271,1.462 h -4.78147 l 0.82428,3.46606 3.29712,2.73859 0.66007,4.20061 0.49585,2.18945 1.48433,2.01116 1.81278,1.27659 7.08687,2.7386 1.32015,-1.2766 0.16419,-1.64386 -0.82428,-2.92046 0.1642,-1.82574 0.66006,-1.28015 0.82429,-0.36372 0.98849,-0.731 0.66007,-2.0076 0.66005,1.09473 0.32842,1.46201 -0.16418,1.45845 -0.32843,1.46201 0.9885,-0.731 1.48433,-2.18946 1.15271,-0.36728 -0.32843,1.82573 0.1642,1.28015 0.49585,0.72744 0.65685,0.54915 -0.16419,0.54914 -0.1642,0.18184 -0.66006,0.36373 1.48434,0.91286 0.66006,0.18183 v 1.0983 l -1.15591,0.91286 h 0.99171 l 1.64855,-0.73101 0.98849,-0.18184 0.82429,0.18184 0.49263,0.54559 0.99172,1.28015 4.94567,4.56434 0.98849,2.00759 -2.14441,-0.36373 -1.64856,-1.64386 -1.31692,-2.00759 -1.32013,-1.28015 -1.81278,-0.36373 -1.48434,0.731 -3.62553,2.92047 0.32842,1.09473 0.32843,0.54913 0.33164,0.36373 0.32843,0.54914 0.16418,0.72745 0.49585,1.46201 0.1642,0.54915 3.62876,5.47719 1.31692,0.36371 3.46133,-0.36371 -0.32842,1.27658 -0.66007,0.91288 -0.82428,0.54913 -0.82427,0.36372 1.15591,2.92047 1.48113,2.73859 1.32013,-1.09472 1.32013,-0.91287 1.31691,-0.36372 1.48436,0.18185 v 0.91285 l -2.47284,3.4696 -0.82428,0.91287 v 1.09472 l 10.87984,-3.10586 1.32014,-1.09473 -0.98849,-1.2766 v -0.91285 h 0.65684 l 0.66008,0.36372 0.66007,0.73101 0.66006,1.09472 0.49263,-0.91287 0.49587,-0.18184 0.49584,0.18184 0.49265,0.91287 0.16418,2.193 0.33165,3.28419 0.49262,2.73859 0.99172,1.28015 1.15271,-0.731 0.66006,-1.462 0.66007,-1.82574 0.98849,-1.2766 -0.66006,-1.09472 0.82428,-0.91287 0.49585,-1.09827 0.82428,-2.37133 -0.82428,-2.55672 -0.33164,-1.09473 -0.32843,-1.64387 0.82428,0.36372 0.9885,1.462 1.81277,3.4696 0.16419,0.91288 0.16742,1.09472 v 0.91288 l 0.49265,0.36372 h 6.59423 l 2.14441,-0.72745 2.1412,-1.28015 v 0.91286 l -7.41852,4.20061 -0.98849,1.09473 -0.66007,0.91286 -1.31691,3.10232 -0.66007,0.731 -0.16419,0.73102 -0.33164,1.462 -0.16419,0.36372 -0.49264,0.36373 v 1.09828 l 0.16418,1.45845 -1.98019,3.28774 -0.32842,2.73861 0.82428,2.00758 0.98849,0.54915 4.1214,-0.73101 1.48434,-1.28015 1.1527,-1.27659 4.61726,-7.12106 0.66005,-1.27659 0.66007,-0.731 1.64857,-1.09473 1.64856,-1.462 0.65685,-2.18946 0.16742,-3.4696 0.49265,-0.91286 3.1329,-0.36374 1.15269,-0.73099 2.80448,-2.7386 1.64857,-2.37488 0.49263,-1.2766 0.33164,-1.46201 -0.33164,-1.64387 v -1.09473 l 1.15592,-4.01518 h -5.60574 l -1.32012,-2.00759 h -2.30541 l -2.14442,0.91287 -2.14441,2.55317 -3.29713,-0.18185 -0.32842,0.54916 -0.49585,1.09472 -0.65685,0.731 -1.15592,-0.18184 -0.49264,-0.91287 -0.49585,-1.462 -0.82428,-1.46201 -1.15271,-0.54558 -1.98019,0.18184 h -0.98849 l -0.66007,-0.73101 -1.81277,-2.00759 -1.48436,0.36372 -1.81276,0.91287 -1.97699,0.18543 v -1.0983 l 1.97699,-0.91286 0.82428,-1.45845 -0.32843,-1.28015 -1.81599,-0.54558 -6.59423,0.91286 1.15592,-1.09473 2.47284,-1.82572 0.66006,-1.28015 -0.49585,-1.2766 -1.15271,-1.09473 -1.15592,-1.64386 -0.32842,-2.55673 0.32842,-1.09473 0.82428,-1.28015 0.49586,-1.45845 -0.66007,-1.64388 -1.15271,-0.36371 -1.32011,0.54558 -1.32015,0.91286 -0.98849,1.09472 0.82428,-1.45844 1.98019,-2.19301 0.32843,-1.27659 0.16419,-2.18947 0.82429,-3.46959 0.16419,-2.37488 -0.16419,-2.18946 -0.66007,-4.9316 -0.82428,-10.95439 -0.32842,-1.45846 -0.82429,-1.462 -1.48435,-2.18946 -3.46131,-3.28774 -0.1642,-0.73101 -1.98021,-3.46603 -0.65685,-1.09829 -1.81599,-1.82574 -0.65684,-0.91287 z m 26.86958,19.89763 -0.49264,0.18541 -0.49585,0.72745 -0.66008,0.91286 0.16744,0.54915 0.16419,0.18184 0.32842,0.54914 -0.98849,2.00761 -0.16419,2.00758 0.49263,1.64388 1.15593,0.731 v -2.55674 l 0.98848,-6.02634 z m -3.62554,10.59067 0.98849,2.18945 v 1.28016 l -1.48436,-1.09473 h -0.82427 l -0.82428,1.09473 0.66006,1.64386 0.33165,0.72745 0.49264,0.91287 v 0.91286 l -2.1412,0.36728 -1.32013,1.27659 -0.49586,2.7386 -0.65685,10.22339 0.1642,2.55672 0.82428,1.28015 -0.1642,0.72744 -0.16743,0.36729 -0.16419,1.2766 1.32013,0.91285 1.1527,-0.54558 1.32014,-1.09828 1.1527,-0.54559 1.32014,-1.09473 -0.33165,-2.55673 -1.1527,-2.73859 -0.66006,-1.09473 v -4.93162 l 1.15592,-5.47719 1.31692,-4.74619 0.16418,-2.37488 -0.32842,-0.91287 -0.49585,-0.54557 -0.49265,-0.54916 z m 1.48434,29.57543 -1.81277,1.28016 0.49264,2.18944 1.64856,2.0076 2.1444,0.91286 2.47284,-1.09473 -0.33165,-2.3713 -1.97698,-2.37488 z m -42.20245,39.80238 -1.48435,0.36372 -2.63705,1.82573 -1.32014,1.0983 1.97699,0.54557 2.47283,0.18185 2.64028,-0.54559 1.97697,-1.28014 -0.98849,-0.72745 -1.81276,-0.54914 z m 16.31814,2.18945 -2.96547,0.54915 -2.47283,2.18945 -4.61725,5.84448 1.48434,0.91286 2.30864,2.92046 1.15269,0.54915 1.15592,0.91287 1.31691,3.65146 1.32015,0.91287 2.96547,-0.36729 2.14442,-1.45844 1.48434,-3.28775 0.9885,-5.65905 h -1.977 v -1.09473 l 1.48113,-1.46202 -1.81277,-2.18946 z m -10.54819,57.51057 -2.14442,0.54913 -1.32012,0.36373 -2.30541,2.37487 -1.81599,0.731 -2.47283,2.18947 -0.82428,1.28015 -3.46134,6.39006 -2.14119,2.18945 -2.14442,0.36372 0.49586,1.64388 0.82428,1.82572 0.65685,0.91287 0.33164,-1.64387 0.32842,-1.45846 h 0.82428 l 1.98021,0.91287 1.31691,-0.54913 3.95718,-3.65147 2.80127,-4.38248 h 0.99171 l 0.82427,-0.54558 0.49264,-0.54914 0.66006,-0.91286 0.49586,-1.2766 1.1527,-3.10588 0.66008,-1.45845 0.49263,-1.64387 z m 26.54115,5.84448 -2.63706,0.36372 -2.96868,1.09472 -2.30863,2.01116 -0.1642,2.92045 -0.66006,0.73101 h -0.49264 l -0.82428,-0.73101 -0.66007,-1.09472 -1.15592,1.27659 -1.31692,0.54914 -2.80447,0.36372 0.49585,1.82573 1.48434,2.0076 0.66007,1.462 -3.62875,3.10232 0.98849,1.09473 1.32013,1.09829 1.48434,0.91287 7.2543,1.27658 1.64857,1.09473 0.82426,1.09473 0.8243,1.46201 1.15269,3.28775 0.8243,0.72744 0.66004,-0.36372 0.66007,-0.73101 0.49266,-0.36372 1.64855,-0.18184 4.94568,-2.92404 0.82427,0.91288 0.33165,1.28015 -0.16743,1.45845 -0.32843,1.64387 -0.98849,0.91286 -4.61725,2.37487 -2.63705,-0.36727 -0.82427,0.36727 -0.66007,0.91288 -0.32843,1.09472 -0.33164,1.09474 -0.98849,3.28774 -0.66008,0.731 -0.98849,0.18184 -0.82427,0.54558 -0.82428,1.09829 -0.32843,1.45844 0.32843,1.82574 1.48435,1.46202 1.97698,0.18183 3.79296,-1.09473 4.44982,-2.92046 1.64856,-0.36727 0.49586,0.731 -1.48435,1.64387 -3.46132,2.92046 -5.44153,1.27658 -1.31692,1.28016 -1.15592,0.731 -3.46133,-0.91286 -1.48436,0.72744 0.49587,0.36728 0.16419,0.18184 0.33164,0.36372 0.65685,0.18543 v 1.09473 l -1.48112,1.09472 -0.99172,-1.462 -0.98849,-2.18946 -1.31692,-1.64387 -1.48434,-0.36373 -1.98019,0.54558 -1.64856,1.28016 -0.65686,2.18945 0.49263,2.7386 0.98849,2.37488 1.48435,1.82572 2.14442,1.2766 1.48434,0.731 h 0.9885 l 0.82428,-0.54914 0.49263,-0.91287 0.33165,-1.09471 0.49263,-0.5456 h 7.09009 l 0.82428,-0.54914 1.97698,-1.27659 0.66007,-0.36728 0.98849,0.36728 0.99171,0.72744 0.82428,0.18544 0.98849,-0.73102 1.31692,-1.64386 6.10159,-3.46961 2.63706,-0.73101 0.66005,-0.54558 0.49265,-1.09473 0.49585,-1.09829 0.32842,-0.36371 1.98021,-0.73102 0.9885,-0.18184 0.66005,0.91287 -0.16419,1.27658 -0.66007,1.46202 -0.98849,0.91286 -0.49586,0.54915 2.47284,1.82573 3.13291,-0.91286 6.75845,-5.11348 1.48435,-1.82574 0.49264,-1.64386 -1.31693,-0.73101 -2.96868,0.36729 -1.31692,0.731 -1.15592,1.09472 v -1.28014 l 2.47284,-2.37131 0.98849,-1.82574 -0.32843,-2.00759 0.66007,-0.18543 0.49264,0.18543 0.49585,0.18184 0.32843,0.731 v 1.64032 l 0.9917,0.54913 h 2.63705 l 0.98849,-0.91285 -0.66006,-2.18945 -1.15271,-2.19302 -0.66007,-1.09473 1.48435,0.36372 0.66007,0.18543 0.65685,0.54558 0.33164,-3.10233 -0.82428,-0.54915 -1.15592,0.3673 -0.49264,-0.3673 -0.33163,-1.82573 -0.9885,-1.82572 -0.9885,-1.45845 -0.82427,-0.73101 -0.49585,-0.18185 -1.48112,0.36373 -0.82429,-0.18184 -0.66007,-0.731 -1.64855,-2.92046 -0.49586,-0.54915 -0.82428,-0.18184 -0.82427,0.18184 -1.15272,0.91287 -0.49585,-0.54558 -0.66007,-0.91287 -0.49264,-0.54915 h -7.75014 l -0.82429,-0.36372 -0.16419,-0.731 v -1.09473 l -0.32842,-1.09829 -3.13291,-8.39765 -1.81278,-3.10232 -2.47284,-0.18184 0.16421,-0.73101 0.16419,-1.64387 0.16419,-0.73101 -3.62554,-1.27659 z m -50.11683,16.43158 -3.95718,1.64387 -1.81277,0.54558 -2.80126,2.00759 -1.81599,0.73101 -5.10988,0.91287 -1.64856,1.09472 0.66007,2.55674 0.49584,2.37488 0.65685,1.82573 4.94568,2.55674 1.48435,-0.18543 -0.32843,-2.73859 1.31693,-2.7386 1.64855,-0.72744 1.81599,-0.36729 1.48113,-1.45844 0.16742,-2.55674 4.61403,-0.73101 1.15593,-2.00759 -0.99171,-2.7386 z m 41.54239,6.93564 -0.98849,0.54915 -0.82428,1.09473 -0.82427,1.46201 1.98019,2.00757 1.97699,0.36374 3.95718,-0.18184 -0.82428,-1.82574 -2.30862,-2.18945 -1.1527,-1.28016 z m 56.05099,12.78012 -0.65685,0.91287 -1.15592,0.18543 h -2.47283 l -1.15271,1.64031 -0.49584,1.09829 -0.32844,1.45845 h 1.97699 l 1.81277,-0.91287 1.32012,-1.64387 z m -6.26259,14.79128 -0.98848,0.54558 -1.81599,-0.36371 -0.9885,0.91286 -0.9885,2.92047 0.49586,2.55673 1.48114,1.09472 1.64855,-1.27657 -0.49264,-2.01117 0.49264,-1.27658 0.66007,-1.2766 z m -3.79297,9.49239 -0.9885,1.2766 -0.82427,3.65145 -0.82429,1.46201 1.48435,4.20061 0.82429,0.91286 0.66006,-4.93162 0.82428,-2.18945 0.65685,-2.19301 -0.1642,-2.18945 -0.49263,0.91286 h -0.33165 l -0.32842,-0.36372 z m -4.28561,9.49238 -2.63705,2.37487 -1.15591,1.46202 -0.82429,2.37131 1.81598,-0.18185 2.47284,-0.91286 1.48113,-1.64387 -0.49264,-2.37131 z m -2.14442,7.48835 -2.3054,1.82574 -3.95719,4.37891 -5.93417,6.57548 -2.30862,0.72744 -1.48434,1.46201 -2.47285,3.28775 -2.14441,3.83332 -0.98848,3.4696 1.15592,2.55318 2.63704,-0.18186 2.80126,-0.91285 1.98021,0.18184 -2.64027,2.37487 -5.93416,1.27659 -2.30863,2.19301 -1.31692,1.45845 -1.32013,0.73101 -1.15271,1.09473 -0.66006,2.37487 -0.1642,2.73859 0.66006,7.30294 1.15272,3.83332 2.80125,2.0076 2.9687,0.18542 1.97698,-1.46201 0.49585,-2.37488 0.82429,-5.84091 0.49584,-1.2766 1.31693,-0.731 1.98019,-2.55674 0.82428,0.18184 1.64857,-6.02276 6.4268,-14.42401 3.13291,-8.39765 1.48434,-1.82573 1.15271,-2.37488 1.32012,-1.27659 v -1.82572 l -0.16418,-2.19302 -0.33165,-1.45846 z m -33.4638,4.3789 -1.15592,0.54916 -1.31691,0.18183 0.16419,1.09473 0.16418,0.36728 0.33166,0.54559 -0.66007,0.731 -1.32014,-0.54557 -0.49263,0.36371 -0.49586,0.91286 -1.64856,2.37488 -0.66006,1.82574 -0.32843,2.18945 -0.66006,1.64387 -1.1527,1.09473 1.64855,0.91287 1.97698,0.18185 2.14442,-0.73102 1.64856,-1.2766 -0.33166,-2.73859 0.9885,-3.10232 2.47284,-4.74976 -0.32843,-1.82573 z m 0.82428,28.11699 -0.82428,0.91286 -0.9885,1.09473 -1.15591,0.73101 -0.98849,0.36729 -0.98849,0.54558 -1.98021,3.10587 -2.80126,1.82573 -2.47284,2.7386 -1.64856,3.28418 0.66007,3.10589 v 0.91287 l -0.9885,-0.18543 -0.66006,-1.09473 -0.49586,-2.7386 v -1.09472 l 0.98849,-4.2006 0.49586,-1.09473 -0.98849,-0.36373 -0.82427,0.731 -0.98851,1.09473 -4.12139,2.18945 -2.80448,2.19302 -0.66006,1.27659 -0.1642,1.82573 -0.1642,2.37488 -0.32842,1.45845 -0.49585,0.91287 -1.15271,1.09473 2.63705,2.01114 -3.46133,5.65906 -0.82428,2.55674 0.49265,0.18184 0.33163,0.73101 0.32842,0.18185 -0.98849,2.7386 -0.16418,2.55672 0.98849,1.2766 2.14119,-0.36372 0.99171,-1.28015 2.47284,-4.01519 2.47284,-2.00759 1.15269,-2.37488 1.81279,-5.29535 1.48433,-1.45843 2.30863,-0.3673 2.1412,0.3673 1.64856,0.91286 -3.46133,3.83333 -1.97698,2.7386 -0.33165,2.7386 h 0.66008 l 2.96868,1.82571 0.98849,1.27661 1.64855,5.29532 -4.12139,2.73861 -1.64856,2.18945 -0.49585,3.28774 1.15592,3.46962 1.81277,0.73098 1.97699,-0.91286 1.81598,-1.64387 0.82428,-0.91285 0.32842,-0.73102 0.49586,-3.10231 0.9885,-0.54916 3.29711,0.54916 2.30863,-0.73101 1.97698,-1.28015 1.81277,-1.82574 1.32014,-2.37131 0.49264,1.09472 0.33163,-1.27659 0.66006,-0.91285 0.82429,-0.54916 0.82428,-0.54914 v -0.91285 l -0.33165,-1.27661 -0.32843,-1.46199 v -1.82574 l 0.1642,-1.64031 -1.32013,-0.731 -0.49263,-0.54916 -0.33165,-0.91285 0.16743,-0.91287 0.32842,-1.2766 0.16421,-1.28015 -0.32843,-0.54558 -0.82429,-0.54915 -1.15592,-1.27657 -0.98849,-1.46202 -0.49263,-1.45844 -0.33163,-4.56433 -0.9885,-8.58308 -0.32843,-6.39006 -0.33165,-0.91287 -0.49263,-0.731 z m 75.17362,3.10589 -2.63705,1.45844 v 2.37487 l 0.82429,2.7386 0.66007,2.18945 0.49262,1.28016 2.63706,2.00759 0.16742,2.00759 0.98849,4.20062 0.82428,2.55317 4.94569,5.29533 0.98848,2.55674 0.66007,1.46201 h 0.98849 l 0.49585,-0.91287 -0.16742,-1.28016 -0.49263,-1.27657 -0.82429,-0.54915 0.82429,-2.18945 0.49263,-0.73101 v -0.91286 l -0.65686,-4.74619 -0.66006,-2.00759 -0.66007,-2.01116 -0.98848,-2.0076 -0.66007,-0.731 -0.66008,-0.36372 -0.49263,-0.73101 -0.49586,-3.46959 -0.49584,-0.36374 -0.65686,-0.18183 -0.82428,-0.54914 -2.30861,-2.92046 z m -8.07858,29.93915 -2.14119,0.18542 0.16419,0.54557 0.32843,1.09473 0.1642,0.54916 -2.63706,0.54914 -2.47284,2.37131 -1.81276,3.10589 -0.9885,3.28418 -0.49584,4.9316 0.66006,3.65148 1.48434,3.10231 1.97699,2.92047 -0.32844,0.731 -0.16419,0.54914 -0.16742,0.36373 -0.49265,0.36372 v 1.09828 l 0.32843,1.09472 0.82429,4.01519 v 1.09473 0.91287 l 3.13289,3.10588 3.13291,2.18945 3.62555,1.46202 4.12139,0.54558 3.62876,-0.72744 1.97698,-1.09829 0.98849,-1.27659 -0.1642,-2.55674 -0.82427,-2.37132 -0.1642,-2.01115 1.81277,-1.27658 -3.29711,-1.64389 -0.49586,-0.54557 -0.49263,-2.01115 0.66005,-0.5456 h 1.15272 l 0.82428,-0.54913 -0.1642,-3.28418 -3.46133,-3.83688 0.98849,-2.18946 -1.64856,-7.4848 -0.9885,-3.10587 -1.64855,-2.92046 -1.32013,-1.45845 -5.10989,-2.7386 z"
     id="GBSCB"
     class="land"
     inkscape:connector-curvature="0"
     style="fill:#84c6bf;fill-opacity:1;stroke:#ffffff;stroke-width:0.867442;stroke-opacity:1" />
  <path
     name="Eilean Siar"
     id="GBELS"
     class="land"
     d="m 251.48669,639.63454 0.49457,1.09544 0.16485,1.27801 0.32972,1.27801 0.65942,0.7303 -2.30798,-0.18258 -0.65943,0.54772 -0.65942,1.09544 -0.49457,0.7303 -0.65942,0.54772 -0.49456,0.36514 0.3297,1.46059 -0.65942,0.91287 -1.15399,0.73029 -1.15399,0.18257 -5.11052,-1.09544 -1.15401,-0.73029 v -1.46059 l 0.98913,-1.46058 1.15399,-0.7303 0.98914,-0.73029 0.32971,-1.64316 -0.16485,-1.82573 -0.82429,-1.09544 1.97828,-1.46058 1.81342,-0.54772 1.4837,-1.278 0.49456,-4.38177 h 0.49457 l 0.16487,0.36515 0.49456,0.73029 0.49457,0.18257 0.49457,0.18257 0.3297,0.36515 0.32972,0.36515 -1.15399,2.73861 -0.49457,0.54772 2.47284,1.46057 z m 11.70476,-49.65991 0.82429,1.09544 0.82427,1.27801 0.82428,0.91287 1.154,-0.18257 -0.32972,2.37345 -0.65942,0.73029 -0.98914,0.54772 -0.82427,1.27802 -0.49457,1.46058 -0.82428,3.28632 -0.49457,1.27802 -1.48371,0.73028 -6.09966,-1.82572 v 1.09544 l 5.11053,1.64315 1.31885,1.46058 0.65942,2.55602 0.32971,3.28632 -0.16485,3.10376 -0.82428,1.82573 -1.31885,-0.91288 -1.4837,-0.18256 h -2.9674 v 1.09544 l 1.31884,0.36515 2.80255,-0.36515 h 1.15399 l 1.31885,1.278 0.82428,1.64316 0.98913,1.27801 1.64856,0.18259 v 1.09543 l -1.81341,2.0083 -6.42939,-1.46058 -2.47283,1.64316 -2.14312,-2.92118 -0.65942,-1.64316 -1.97827,-8.39837 -0.32972,-2.55601 0.49457,-1.82574 v -1.09544 l -1.31885,-2.0083 -0.82427,-0.91286 -0.98914,-0.18257 0.82427,-1.27802 0.65943,-1.27801 0.98914,-2.92118 0.3297,-1.64315 0.16487,-1.46059 0.49457,-0.91287 0.98913,-0.36514 0.49457,-2.19088 -0.82429,-4.74691 -2.14312,-7.12035 1.64855,-1.27801 3.46199,-2.00831 h 0.65941 l 6.92394,5.47721 -0.65942,0.54772 h -0.49457 l -1.48369,-0.54772 v 1.09544 l 1.64855,0.36514 2.47284,2.55601 1.81341,0.18258 v 1.09544 l -2.14312,1.27801 -1.64856,-0.91287 -1.48371,-1.46058 -3.13224,-2.19087 -1.64857,-2.55602 -1.48371,-1.64317 -1.81341,1.09545 0.49457,0.54772 0.49457,0.54772 0.49456,0.91286 0.16486,0.7303 0.16485,1.278 0.65944,0.36515 0.65941,-0.18257 0.65943,0.18257 1.8134,0.91286 0.32973,0.36514 0.98913,2.00831 1.15398,0.54772 h 2.30799 z m -1.64856,-25.01252 v 0.54772 l -0.16485,0.18257 -0.32971,0.36515 0.65942,0.54772 h 0.65942 l 0.65943,-0.36515 0.65942,-0.18257 0.49457,0.18257 2.14313,1.82572 -0.49457,1.09544 -0.98914,-0.73029 -1.81341,1.82573 h -1.48371 l 0.49457,1.64316 0.65943,0.54772 h 1.81342 l 1.15398,0.54772 0.49457,1.09544 v 1.09544 l -6.75909,2.19088 -1.97826,-0.54772 -6.09967,-4.19919 -0.82429,-1.82573 0.32972,-2.92116 1.15399,-2.55603 1.4837,-1.46058 h 1.81342 l 0.82427,0.73029 0.98913,0.36515 0.98914,-0.18258 0.82429,-0.91286 0.49456,0.73029 0.65942,0.36515 h 0.65942 z m 10.38593,-27.20341 1.15397,0.18257 h 1.64857 l 1.48371,0.91287 0.65942,2.0083 -0.65942,0.91287 -1.31885,2.73859 -0.65942,0.54772 -0.98914,-0.18256 -0.82427,-1.09544 -0.49457,-1.27802 -0.49457,-0.54772 -0.98913,-0.36514 -1.64856,-2.00831 h -3.46198 v 1.27801 h 0.82428 l 0.49457,0.36515 0.16486,0.73029 -0.49457,0.91286 v 1.27802 l 2.30798,-0.18258 0.65943,0.7303 0.16485,2.19088 0.65943,1.46059 h 1.15399 l 2.47283,-0.91287 -1.4837,3.4689 -1.81341,1.46056 -4.61597,0.54772 -0.49457,0.18259 -1.15399,0.73029 h -0.49457 l -0.49457,-0.54772 -0.65942,-2.19087 -0.32971,-0.36517 -1.15399,0.1826 -3.13226,2.92116 v 1.278 h 5.44024 l 4.61597,-1.46057 1.4837,0.18257 1.31885,0.73028 0.49457,0.54772 0.32969,0.91288 -0.16484,1.09544 -1.64856,3.28632 -3.13226,-0.18258 -1.64855,0.18258 -1.31886,1.27801 -1.15399,-1.09544 -2.80255,0.18257 -1.31884,-0.36514 -0.82429,-0.54772 -0.16484,-0.36515 -0.98913,-1.82573 -0.16488,-0.91288 -0.49456,-0.91285 -0.49456,-0.73031 h 0.65943 l 1.4837,-1.278 -2.6377,-0.18257 -4.61597,-3.46891 -2.30797,-0.5477 -0.65944,0.91287 -0.49456,0.73027 -0.49456,0.36516 -0.65944,-0.18256 -0.98913,-0.54772 -1.15399,-0.73032 -3.46198,-2.73858 v -1.09544 l 1.64856,-1.46058 1.31885,-2.7386 0.98914,-3.10375 1.31885,-2.7386 1.64856,1.09544 5.27538,-1.09544 v 1.09544 l -0.65942,0.18257 -1.4837,0.91287 1.31885,2.19088 2.30798,-2.55603 2.47283,-4.01661 1.81342,-2.0083 v 1.09543 l -0.49456,0.54772 -0.32973,0.54772 -0.82428,2.00831 4.28626,2.00831 1.64856,0.18257 v -1.09544 h -0.65943 l -0.98913,-1.09544 1.64856,-0.73028 3.62683,-3.10375 2.14313,-0.36515 0.98913,1.46058 0.16486,1.46059 -0.49457,1.46058 -1.31885,0.91287 1.31885,0.91287 2.30798,-1.27802 z m -7.08881,-8.94608 3.13227,-4.01662 1.4837,-0.36514 0.82428,1.64316 -1.4837,1.82573 -2.14313,1.09544 z m -107.98057,-19.90049 1.15399,1.09544 2.80254,0.36516 1.31885,0.91285 -1.31885,1.82575 -1.64855,0.36513 -1.64856,-1.27801 z m 121.66361,-11.13697 -0.32972,1.82574 -0.49456,1.09544 -0.82428,0.54772 -0.98913,0.18257 0.16485,-1.46059 v -0.36514 h -0.16485 v -0.54772 l 3.13226,-3.46889 1.81341,-0.91286 1.31884,1.09544 v 3.46888 l -0.82427,0.54772 z m 13.18846,-50.75534 h 0.82429 0.3297 v -1.09545 l -0.98913,-0.54772 -0.82427,-1.64316 -0.32973,-1.82571 0.49457,-1.64316 1.48371,0.73028 2.47284,3.28631 0.82428,-0.54772 0.65943,0.73031 0.65941,0.91285 0.49457,1.27801 0.32972,1.4606 h -6.42939 z m -6.26451,76.31559 -1.4837,1.64317 -0.49457,-0.36515 -3.95654,-5.11206 -0.82429,-0.54772 -4.61596,-6.57263 -0.82428,-0.73029 -0.32971,-1.09544 -0.65942,-1.278 v -0.91288 l 1.31883,-0.36514 0.82429,0.18258 0.65943,0.73028 0.49456,1.27801 0.32972,2.00831 6.26451,-6.57264 0.98914,-1.82572 1.81342,-0.54772 3.62683,0.18256 -3.79169,-3.28631 v -1.09544 l 3.95653,-2.55602 2.308,-0.54772 2.30797,0.54772 1.4837,1.278 -0.65941,-0.73028 -0.82429,-0.73029 -0.49457,-0.54772 -0.3297,-0.54772 -0.16487,-0.54772 1.48371,-0.91287 0.49457,-0.18257 v -1.09544 h -4.45111 l -0.98912,-0.54772 -2.14314,-2.37345 -1.15398,-0.54772 -4.45112,0.18257 -1.97827,-0.73029 -0.65942,-2.55603 -0.98914,0.91287 h -0.65942 l -3.62683,-3.10375 1.31885,-1.27801 0.82428,-1.27802 0.98913,-1.09543 1.64856,0.18257 v -1.09543 l -0.32971,-0.36515 v -0.18257 l -0.16486,-0.54772 2.30799,-0.36515 2.47284,-1.09544 4.61597,-2.92116 -7.25368,2.19087 h -2.14312 l 0.32972,-1.46059 0.49456,-0.91287 0.82428,-0.18257 0.98913,0.36516 v -1.09544 h -2.14312 l 0.65942,-0.54772 0.49457,-0.73031 0.49456,-0.91285 0.49457,-1.09544 -3.46197,2.55601 -0.65942,0.18259 -2.14313,-5.29464 -0.65942,-0.91286 0.3297,-1.82574 -0.3297,-0.73029 -0.65943,-0.36515 -0.3297,-0.91285 0.16486,-2.00831 0.82427,-1.46058 v -1.64316 l 0.65942,-0.18258 0.32972,-0.36514 0.16485,-0.54772 0.32971,-0.91288 -0.49456,-0.36514 -0.49457,-0.54772 -0.49457,-0.36514 v -0.91288 l 5.76996,-0.54772 1.64855,-0.73028 -1.97827,-1.09544 -0.82427,-0.91288 -0.32972,-1.82572 0.16486,-2.00831 0.32971,-1.09543 1.48371,-2.0083 1.15398,0.91286 2.96741,1.82574 0.65942,0.18255 0.65943,-0.54772 4.1214,2.19089 v 1.09544 l -2.30799,-0.18257 0.49457,2.19088 1.64857,2.92117 0.98912,1.09544 -0.16486,2.55602 0.82429,3.46889 1.15398,2.92118 1.15399,1.64315 -0.16485,-1.46059 v -0.91287 l 0.16485,-2.00829 -0.65942,-1.09544 -1.15398,-2.92117 -0.32973,-1.4606 0.65943,-0.73028 0.32971,-1.09544 0.16486,-1.09544 0.16486,-0.54772 3.46198,-0.91288 0.65942,-0.73028 1.31884,-0.36516 1.97827,1.09544 1.97827,2.00832 0.82428,2.37344 2.14312,-3.46888 -1.97826,-1.27801 -0.65943,-0.91287 -0.32971,-1.09544 -0.3297,-2.37345 -0.32972,-0.91288 -0.49457,-0.18255 -1.15398,0.18255 h -0.49457 l -0.16486,-0.54772 -0.32971,-1.46057 v -0.36514 l -0.98913,-1.4606 -0.32972,-0.91286 -0.32972,-0.91286 0.32972,-0.36515 0.32972,-0.36515 0.3297,-0.18257 0.65943,-0.18257 -0.49457,-1.09544 -0.32972,-0.91287 -0.49456,-0.18257 h -0.82428 l 6.26452,-6.2075 1.64856,-2.73859 0.98913,0.73029 0.49457,-0.54772 0.49456,-0.73029 0.65943,-0.54772 h 2.63769 l 2.14313,-0.73029 4.78083,-2.92117 0.65942,-0.54772 1.97827,-2.92118 13.68303,-11.86724 3.79169,-5.65978 2.30797,-2.37346 1.81342,0.18258 1.64856,2.0083 1.31885,2.92118 0.98914,3.10374 0.3297,2.55604 1.4837,2.73858 0.16487,1.64316 -1.31885,0.7303 -0.65942,0.91286 -1.81343,6.75521 0.65943,1.09544 0.98913,0.7303 0.98914,0.54772 h 1.154 v 1.09543 l -1.64857,0.91287 -3.46197,2.92116 -1.31884,1.64316 0.49456,1.46059 -0.16486,1.09544 -0.65942,0.73029 -0.98914,0.18257 -0.82427,0.54773 -0.82427,2.19088 -2.30799,1.09544 -0.16485,1.09544 0.32971,1.46058 -0.16486,1.27802 -0.65943,0.73028 -0.82427,0.36516 -2.14314,0.18255 1.31886,2.55604 2.96741,0.91285 2.9674,-0.18256 2.14312,-1.09545 3.79168,-4.56431 1.154,-0.7303 1.4837,-0.54772 0.82428,0.18258 -0.82428,1.09544 v 1.09544 h 0.49457 l -0.32971,0.73028 -0.32972,1.09543 -0.3297,0.54772 0.16486,0.54772 0.3297,1.64317 -1.97826,1.09544 -0.65944,0.54772 -0.49456,0.73028 -0.82428,1.64316 -0.32972,0.36516 -1.31884,0.91287 -1.154,-0.18259 -2.14311,-1.82572 -1.31886,-0.54772 -3.46196,0.54772 -1.31885,-0.54772 -2.30799,-1.64316 h -1.15398 l 1.81341,5.84234 0.82427,1.82574 -0.65941,0.73028 -0.32972,0.7303 0.16486,0.7303 0.32971,1.27801 -1.48371,1.27801 -3.79168,0.91287 -2.63769,3.65145 -1.154,0.7303 h -0.82426 l -1.154,-0.91287 -0.65942,-0.18257 -2.14313,2.19088 -3.95654,1.27801 -1.31885,-0.18258 v 1.27803 h 2.96742 l 10.05619,-2.73861 2.30799,-1.64316 1.15399,-0.18257 0.98914,0.91286 0.65941,1.64316 0.49457,2.00832 -0.16485,2.19088 0.32971,0.18256 0.82427,0.91288 -0.65941,0.91285 -0.65942,0.7303 -0.65944,0.36514 -0.65941,0.18258 0.82428,0.73029 0.82427,0.36515 h 0.98913 0.98914 l -1.31884,1.82573 -1.154,1.82573 -1.15398,1.46058 -1.97827,0.54772 -7.0888,-1.46058 -1.64856,-0.73029 -0.49457,-0.18257 -0.49457,1.27802 0.65943,0.73027 1.64856,0.7303 1.31884,1.46058 2.63768,0.91287 1.154,1.64316 v 1.09544 l -0.82428,0.54772 -1.15399,2.55603 -0.65943,1.09544 -1.31883,1.27801 -0.98914,-0.18257 -0.98913,-0.54772 -1.48371,-0.54772 v 1.27801 l 0.32971,0.18257 0.32972,0.54772 0.49456,0.36515 v 1.09544 l -1.81341,1.09544 -1.4837,-0.36515 -1.154,-1.27801 -0.98913,-1.64316 -0.65943,-2.19088 -0.32971,-0.91288 -0.82428,-0.36513 -0.32971,0.91285 0.32971,1.82575 0.82428,1.82573 0.49457,1.09544 -0.49457,1.09544 -2.47284,-1.46059 -0.65941,-0.73029 -0.49457,-0.91287 -0.49457,-2.0083 -2.14314,-4.74691 -0.49456,-2.19088 -0.16486,-2.19088 1.15399,-4.38175 2.14314,-2.37345 2.80254,-0.91287 2.96741,-0.18256 v -1.09544 h -7.41852 v 1.09544 l -0.32969,1.82572 -1.81343,2.55603 -2.14313,2.37346 -1.64855,1.09542 1.15399,1.64316 1.4837,4.92948 0.82428,0.91287 1.154,0.54772 0.98914,1.46058 0.6594,1.46059 0.82429,1.09544 -0.49457,0.36515 -0.32972,0.36514 -0.32971,0.36515 h -0.65942 l 0.65942,1.09544 0.65943,0.54772 0.49457,0.18257 0.3297,0.36515 0.32972,1.09544 0.32972,3.46888 -6.42939,-1.82573 -2.63768,-1.82574 -0.65943,0.54772 -0.49457,0.91287 -0.32971,0.91287 -0.65943,1.27801 0.82428,0.54772 1.64856,0.91286 0.65943,0.54772 1.81341,3.65148 0.32971,0.91286 -0.32971,1.27802 -1.15399,0.73028 -1.31885,0.36516 -1.31884,-0.18259 v 1.09544 h 0.49457 v 0.91287 l -1.64857,-0.36515 -3.62683,-2.92117 -0.49457,1.27801 0.32971,0.36515 0.65943,1.09544 0.49457,0.54772 -0.82428,1.64317 -0.82428,0.91287 -1.97828,2.00828 0.32973,0.18258 0.3297,0.54772 0.32971,0.36514 -1.4837,1.82574 z m -520.12023,23.55195 h -0.16485 v -0.18257 h 0.16485 0.16486 v 0.18257 z"
     inkscape:connector-curvature="0"
     style="fill:#84c6bf;fill-opacity:1;stroke:#ffffff;stroke-width:0.867442;stroke-opacity:1" />
  <path
     name="Shetland Islands"
     id="GBZET"
     class="land"
     d="m 694.94892,229.94026 0.65942,-2.92116 1.48371,-1.64315 1.64856,-0.7303 h 1.4837 l 0.16486,0.7303 -0.16486,0.36514 h -0.16486 l -0.32971,0.18258 -0.98913,0.18256 -0.32971,0.7303 -0.16486,1.27801 h 0.98913 v 1.278 l -1.31883,0.91287 -1.31886,1.64316 -1.15399,0.36515 z m 66.93148,-186.224645 1.31885,0.182562 0.82428,1.095451 0.16485,1.460586 -0.32972,2.008295 -1.97826,2.008316 -2.14313,-0.730304 -2.30798,-1.460575 -2.14313,0.182563 v 1.278012 l 0.49457,0.54772 0.16485,0.547719 0.16486,0.54772 0.32971,0.54772 -2.14313,-0.54772 -1.64856,-2.738599 -2.63768,-6.024905 v -1.278024 h 9.06707 l 0.82428,0.365146 v 1.278014 1.095439 l 0.16485,0.730304 h 0.65943 l 0.49456,-0.365147 0.49457,-0.547731 z m -24.06896,34.50633 0.65943,-2.921171 1.15399,-2.008306 1.4837,-1.095439 h 1.48371 l -0.98914,3.103745 -5.44025,7.302929 -0.49457,1.278013 0.16485,1.278001 0.32972,0.365158 0.65942,-0.912877 0.82428,-1.643159 0.32972,-0.54772 0.98913,-0.730282 h 1.154 l 0.3297,1.825721 v 0.912878 l -0.16486,1.825721 -0.32971,1.825732 -0.82427,0.730305 -5.93481,0.730292 -1.15399,0.54772 1.48371,1.825721 3.95653,1.095439 1.97827,1.643159 -3.62684,4.199195 -0.82426,0.730283 -0.32972,0.365157 v 0.91286 0.91287 l 0.32972,0.73029 0.3297,0.36515 0.49456,-0.91287 h 0.49457 l 0.49457,0.36515 1.154,0.18257 0.3297,0.54772 -2.9674,3.46888 -1.4837,0.54772 -1.31884,-0.36514 -0.65942,-2.37345 -0.65943,-1.27801 h -0.82428 l -0.49456,0.91287 0.16485,1.09544 0.32971,1.09544 0.65943,0.54771 v 1.09544 h -0.82429 l -0.65942,0.18257 -1.15399,0.91286 v 1.09544 h 3.13227 l -0.49457,1.09544 -0.49457,1.27803 -0.65942,2.37344 1.4837,-2.19088 0.65942,-0.91287 1.15399,-0.36513 -2.30798,5.84233 -0.49457,2.55603 1.31884,-2.00831 1.64856,-0.91286 0.82428,0.91286 -0.98913,3.10375 2.63768,2.37344 v 1.09544 h -2.30796 v 1.27802 h 0.65941 v 1.09544 l -1.31884,-0.91287 -0.82428,0.73029 -0.82428,1.27802 h -1.31884 l 1.15399,1.27801 -0.32972,1.46059 -0.49457,0.73029 -0.49457,0.36515 h -0.82427 v 0.91285 l 0.49457,0.18259 1.64856,1.09544 -1.31886,1.82573 0.65943,2.37345 1.48371,1.64316 h 0.65942 l -0.32972,2.37344 -1.15398,1.27801 -1.48371,0.36515 -1.15399,-0.54772 0.32971,2.37345 1.64856,4.92948 -0.65943,1.82573 h -1.15398 l -2.30798,-1.82573 0.3297,3.46889 -0.16485,3.65148 -0.65942,3.10373 -1.154,2.37346 -0.32971,-0.7303 -0.16486,-0.36514 0.65943,2.0083 0.16486,1.82573 -0.16486,2.00831 -0.65943,2.37345 0.82429,1.09544 0.16484,1.46059 -0.3297,1.27801 -0.65943,0.91287 -0.3297,-0.91287 -1.31885,-2.55603 -0.49457,1.64316 -0.65942,-0.18257 -0.16487,-1.27801 0.82429,-1.46059 v -1.27801 l -1.15399,-1.09544 -2.30798,0.54772 -1.31884,-0.73029 -0.98914,-2.00831 1.4837,-2.19088 -0.49456,-2.7386 0.65942,-1.46057 0.65942,-0.73031 0.98914,-0.36513 0.82428,0.18255 v -0.91285 l -1.31885,-2.00831 -0.65942,-0.36515 v -1.27801 h 1.97827 l -0.32971,-2.92116 0.82427,-2.7386 1.15399,-2.92118 1.15398,-8.21579 1.154,-3.28633 0.65943,-3.46888 -0.32972,-4.56433 -0.32971,-0.7303 -0.49456,0.18258 -0.49457,-0.18258 -0.32971,-1.64316 0.16484,-0.73027 0.16487,-0.7303 1.15399,-3.65147 h -0.65942 l -1.15401,1.09544 -0.3297,0.54772 -0.82428,-0.18257 -0.32972,-0.54772 0.32972,-1.46059 0.98914,-4.56432 0.65941,-1.64316 0.65944,-1.4606 0.82427,-0.91287 v -1.09543 l -1.48371,-0.18258 -1.15398,1.82573 -2.14312,5.29463 -0.98913,-4.01661 -1.154,-2.7386 -1.64856,-1.82572 -2.47284,-0.73031 v 1.27802 l 1.4837,0.73029 1.154,1.64316 1.15399,2.0083 0.98914,2.55603 -0.65943,2.37345 -1.4837,-1.64316 -0.65943,-0.73029 h -0.98914 v 3.10375 l -0.49457,2.37345 -0.65941,0.36515 -0.49457,-2.37346 -0.82428,1.09544 -0.32971,1.64316 -0.32971,2.00831 -0.49457,1.278 h -0.82428 l -2.96741,-2.37344 -0.16485,-0.36515 -1.64856,-2.19088 -0.32972,0.18258 -0.32971,-1.64316 v -0.7303 l 0.32971,-1.27801 0.98914,-0.91287 2.30798,-0.73029 0.98914,-0.54772 -0.98914,-0.91287 -1.81341,-3.65146 -0.32971,1.46058 -0.49457,2.37347 -0.82428,1.64316 -0.98913,0.18256 -0.32971,-1.64316 -0.49457,-1.64316 -1.15399,0.36515 -2.30798,1.82573 -1.81342,0.36516 -0.65942,-0.36516 -0.49457,-0.54772 v -0.91287 l -0.16486,-0.73029 -0.65942,-0.36515 -1.4837,-0.36514 -0.65943,-0.91287 -0.82427,-4.56432 -0.82429,-3.28632 0.32972,-0.91286 1.15399,-1.643159 1.15399,-1.095439 1.31884,-0.912878 1.48372,-0.547719 1.31884,0.182574 1.154,1.095439 0.82427,1.460585 0.98913,1.09544 h 1.31885 l -0.65942,-2.373441 2.63768,1.095439 v -1.095439 h -0.49456 v -1.278023 l 3.62683,-0.54772 0.98913,1.460585 0.16486,5.112056 0.32971,-0.18257 0.98914,-0.73029 0.32971,-0.36515 -0.49457,-0.912873 -0.32971,-1.825733 -0.32971,-0.730282 h 1.64856 l -0.16486,-0.730304 -0.32971,-1.825733 1.64856,-0.912854 2.14313,0.730293 1.64856,2.37344 0.82428,3.834046 1.15399,-2.008313 0.98913,-1.460575 -2.14312,-2.556037 1.64856,-4.564319 0.49456,0.730281 0.49457,0.182585 1.15398,0.182573 -0.98912,-2.008317 1.31884,-0.547719 3.95654,0.182585 -1.97827,-1.460598 -2.30799,-0.547719 -1.8134,-1.460576 -0.32971,-3.651464 -1.48371,2.008305 -0.82429,0.54772 -0.98913,-0.182584 -0.82427,-1.278001 -0.16487,-1.643159 0.16487,-1.643159 0.82427,-1.278014 v -1.278012 h -2.30798 l -1.15399,-0.365147 -0.65942,-0.912876 0.16485,-2.190868 -0.16485,-2.921172 -0.49457,-5.477197 -1.15399,3.286318 -0.82428,1.825733 -0.65943,0.912865 -1.31884,-0.730292 -0.16486,-1.278013 0.49457,-1.64316 0.98913,-1.278012 h -1.64856 l -1.31884,0.547731 -1.154,-0.182584 -1.15398,-1.460586 -0.82428,2.008305 -0.98913,0.54772 -2.80255,-0.182574 -0.16486,-0.912865 0.32971,-2.008306 0.82429,-2.008306 0.65941,-0.912866 1.81342,0.182573 0.49457,-0.182573 0.49457,-1.278013 v -1.278012 -1.278001 l 0.16485,-0.912878 0.65943,-1.643159 0.98912,-1.460586 0.98914,-0.182573 0.98913,2.008317 0.98914,3.651453 2.47284,2.921172 2.96741,1.09544 2.47283,-1.64316 -0.82427,-0.912866 -1.154,-0.182573 -1.97827,-0.182574 -0.49456,-0.54772 -0.65943,-1.278012 -0.98913,-1.278001 -1.154,-0.365158 0.65943,-1.278001 0.98913,-3.103757 0.32972,-0.547719 0.98913,-0.182573 2.30798,-2.008306 -0.82428,-1.09544 -0.32971,-0.182572 0.65943,-1.278003 0.32971,-0.912876 -0.16486,-0.730283 -0.32971,-0.730292 1.97827,-1.09544 2.14312,0.365136 1.97828,1.460596 1.97826,1.825722 0.16485,-0.730282 0.32972,-0.54772 -1.31884,-1.825732 0.16486,-1.643159 1.64855,-3.834038 0.82428,3.46888 v 1.460597 l -0.32971,1.09544 0.32971,1.460575 -0.16487,1.095439 -0.49456,0.730293 -0.65942,0.365147 0.49457,4.01661 -0.49457,1.825732 -1.15398,1.278025 -0.98914,2.37344 h 1.64855 l -0.49455,0.730293 -0.32972,0.365147 -0.82428,0.182573 0.49457,0.365147 0.16486,0.365157 0.32971,0.182562 0.65941,0.182573 -1.64855,5.842344 0.82428,-0.182573 0.65942,-0.365147 0.65942,-0.730292 0.49457,-0.912867 0.49457,1.09544 -0.98914,2.556025 -0.32972,1.09544 0.32972,1.095439 v 1.278012 l -1.48369,0.730294 -1.81342,6.024917 -1.4837,1.460585 v 1.278013 l 0.98913,0.182573 0.98914,-0.182573 0.82428,-0.365147 0.82428,-0.912866 v -3.103756 l 1.97826,-1.825722 4.94567,-0.912865 -3.62683,-3.103745 -1.15398,-1.643159 0.82428,-1.278014 0.98913,-1.095439 0.82427,0.54772 0.16487,2.921172 0.65942,-1.095439 1.48371,-3.103746 0.3297,-1.095439 0.82429,-0.54772 1.31885,1.09544 0.98913,1.64317 -0.49457,2.008295 0.98914,0.547719 0.82427,0.730293 0.49457,1.460586 0.49457,2.008306 -0.49457,0.730293 -0.16485,0.365135 0.98914,1.09544 -0.82429,0.912876 -1.81341,-1.095439 -0.65943,0.912866 -0.65942,1.09544 -0.82428,0.912866 -0.82427,0.54772 0.3297,0.54772 0.98913,-0.365147 1.81343,-0.912867 -0.32972,0.365147 -0.82427,0.730293 v 1.278013 l 2.63769,-1.643159 0.98914,0.730293 v 3.286307 h 0.65941 l 0.32972,-1.825721 h 0.16485 l 0.49457,0.182562 0.65941,-0.730282 0.16488,-0.912866 0.32969,-1.460587 0.32971,-1.278012 0.65943,-1.278023 0.32971,0.547719 v 0.54772 z m 8.57251,-48.929615 -0.98914,2.008305 0.16486,1.643148 1.31884,3.468903 -0.49456,1.825732 -0.49457,1.825721 -2.6377,-3.286318 -1.15398,-1.278001 -1.64857,-0.182573 0.98914,1.278012 0.98913,2.190879 1.81342,4.929477 -0.98914,0.730293 -1.15398,0.365147 -0.98914,-0.182584 -1.154,-0.912856 0.32971,1.825732 0.98914,1.09544 1.15399,0.547719 1.31885,0.182563 -0.16485,0.54772 v 0.182573 l -0.49456,0.365147 1.31883,1.643159 v 2.190878 l -0.82427,1.64316 -1.4837,0.547719 1.15398,2.921172 0.32972,1.460597 0.16485,2.190868 -0.32971,2.008305 -0.49457,0.547719 -1.81341,-0.912865 h -1.97827 l -0.98913,-0.365147 -0.32972,-1.278012 h -0.32971 l -0.32972,0.730292 -0.16484,0.912867 0.82427,1.278012 v 1.09544 l -2.63769,-0.730293 -1.81342,-2.190879 -0.98912,-3.834027 -0.98914,-16.431602 0.65942,-3.651454 2.63769,-0.547719 v 1.095439 l -0.32971,2.008295 0.98913,2.190879 1.15401,1.095439 0.82426,-0.365136 -0.16486,-0.912877 -1.15397,-4.56432 -0.16488,-2.373451 0.16488,-1.09544 0.6594,-2.738598 -0.16483,-0.365158 -0.32973,-0.730282 -0.16484,-1.643159 0.16484,-1.643159 0.32973,-1.460597 0.82426,-1.825721 0.82429,-1.643159 0.98913,-0.182574 0.82427,3.103745 0.98914,-2.008306 1.4837,-0.54772 3.46198,0.365147 v 2.190879 l -0.16486,0.730293 -0.49457,0.547719 v 1.278014 l 0.32972,0.182562 0.32971,0.547719 z m 6.26451,2.373441 -2.30797,0.365158 -1.15398,-0.54772 -1.31886,-0.912878 0.49457,-1.825721 v -1.643159 l -0.16485,-1.460586 -0.32972,-1.278012 1.4837,1.278012 0.32972,-1.278012 -0.16486,-2.556026 -0.49457,-2.190879 1.31885,-0.547719 0.65942,-2.373452 v -2.738599 l -0.98913,-1.278013 V 11.21758 l 1.31885,-0.54772 1.31883,-1.8257318 1.154,-2.0083061 V 5.192663 l 0.65942,-1.8257324 h 0.82428 l 0.82428,1.2780127 0.32971,2.5560253 -0.32971,1.8257319 -0.82428,1.0954405 -0.82428,1.095439 -0.65942,1.460585 0.16485,0.365147 0.98914,-0.365147 0.98913,-1.095428 0.65943,-0.912877 1.64856,-6.390052 0.82428,-1.2780205 0.49456,0.7303008 0.49457,0.1825621 0.98914,0.1825732 0.98913,0.5477197 0.82428,0.7302929 0.65943,1.4605859 0.3297,2.1908784 h -0.65941 l -1.48371,1.0954405 1.48371,1.095439 h 0.65941 l -1.15398,1.643159 -1.64856,0.912866 -0.98914,1.278013 0.49457,2.190879 v 1.278012 h -1.4837 l 0.49456,0.365147 0.49457,0.365146 0.49457,0.365146 v 1.460575 l -3.13226,3.468903 -0.49457,1.095439 0.49457,2.190868 1.15399,1.825743 0.49457,1.825733 -1.154,1.460574 h -0.65942 l -0.65942,-0.365135 -0.65943,-0.547719 -0.65942,-0.365158 -1.4837,-0.182562 z M 720.99614,133.7242 h 0.49457 l 0.32971,1.27801 -0.49456,1.82573 -0.49457,1.64316 -0.82427,2.73859 -0.49457,1.09544 h -0.32971 v -1.278 l 0.32971,-1.64316 v -2.19088 -0.36515 l -0.16486,1.09544 -0.16485,0.91287 -1.15399,2.19088 -1.154,1.09543 -0.16485,-0.7303 0.98913,-1.46057 0.49457,-2.00831 0.32971,-2.37345 0.65943,-1.64316 -0.16486,-1.09544 -0.49457,-0.91288 0.16486,-0.73028 1.31885,-0.36516 0.49457,-0.73028 h 0.49455 v 1.46059 l -0.49455,2.37345 -0.16486,0.91287 z m -57.04012,-10.58926 0.32971,1.46059 0.16486,3.10375 -1.15399,2.00829 -1.97827,-0.91285 -1.31885,-1.64316 -0.65942,-0.91287 0.16485,-1.27801 0.65943,-0.91287 1.15399,-0.91287 1.81341,-0.18257 z m 76.49311,-1.46057 0.98914,-0.91287 v 1.09544 l -0.16486,2.55602 -0.49457,1.82573 -0.65941,1.46059 -0.49457,3.65145 -0.82429,0.54772 -2.14313,-2.00829 -0.82428,-1.09544 0.32972,-5.65978 -1.31884,-2.00829 v -2.00831 l 1.48369,-0.18257 1.48371,0.73029 0.65943,-0.36515 0.16485,-1.46058 0.49457,-0.36515 0.32971,1.09544 0.16486,1.64316 0.3297,1.46059 z m 11.21021,-38.340373 h 0.32971 l 0.16485,0.730281 -0.49456,0.912878 -0.98913,1.460585 -1.31886,2.190868 -2.14312,2.738598 -3.13226,1.09544 -1.31886,-1.09544 0.32973,-0.912854 0.3297,-0.730305 0.16486,-0.912854 0.49457,-1.278014 0.82427,-1.095439 0.82428,-0.54772 h 0.82428 l 0.65943,-0.730304 0.65942,-0.912855 2.6377,-0.182584 0.82428,-0.365136 z"
     inkscape:connector-curvature="0"
     style="fill:#84c6bf;fill-opacity:1;stroke:#ffffff;stroke-width:0.867442;stroke-opacity:1" />
  <g
     id="stadiums"
     data-country="scotland"
     data-circle-radius="6"
     data-circle-colors="#a149be,#bea149"
     transform="matrix(1.6485585,0,0,1.825732,2.1355446,2.2818174)" />
</svg>
