<?xml version="1.0" encoding="UTF-8" standalone="no"?>
<?xml-stylesheet type="text/css" href="/styles/home.css"?><!-- https://www.amcharts.com/svg-maps -->

<svg
   xmlns:dc="http://purl.org/dc/elements/1.1/"
   xmlns:cc="http://creativecommons.org/ns#"
   xmlns:rdf="http://www.w3.org/1999/02/22-rdf-syntax-ns#"
   xmlns:svg="http://www.w3.org/2000/svg"
   xmlns="http://www.w3.org/2000/svg"
   xmlns:sodipodi="http://sodipodi.sourceforge.net/DTD/sodipodi-0.dtd"
   xmlns:inkscape="http://www.inkscape.org/namespaces/inkscape"
   version="1.1"
   id="map-slovakia"
   viewBox="0 0 999.99999 999.99999"
   width="1000"
   height="1000"
   class=""
   sodipodi:docname="slovakia.svg"
   inkscape:version="0.92.4 (5da689c313, 2019-01-14)">
  <metadata
     id="metadata17">
    <rdf:RDF>
      <cc:Work
         rdf:about="">
        <dc:format>image/svg+xml</dc:format>
        <dc:type
           rdf:resource="http://purl.org/dc/dcmitype/StillImage" />
        <dc:title></dc:title>
      </cc:Work>
    </rdf:RDF>
  </metadata>
  <sodipodi:namedview
     pagecolor="#ffffff"
     bordercolor="#666666"
     borderopacity="1"
     objecttolerance="10"
     gridtolerance="10"
     guidetolerance="10"
     inkscape:pageopacity="0"
     inkscape:pageshadow="2"
     inkscape:window-width="1920"
     inkscape:window-height="1017"
     id="namedview15"
     showgrid="false"
     showguides="true"
     inkscape:guide-bbox="true"
     inkscape:zoom="0.77035907"
     inkscape:cx="657.95191"
     inkscape:cy="466.15286"
     inkscape:window-x="-8"
     inkscape:window-y="-8"
     inkscape:window-maximized="1"
     inkscape:current-layer="map-slovakia">
    <sodipodi:guide
       position="829.48331,500"
       orientation="0,1"
       id="guide824"
       inkscape:locked="false"
       inkscape:label=""
       inkscape:color="rgb(0,0,255)" />
  </sodipodi:namedview>
  <defs
     id="defs4">
    <style
       type="text/css"
       id="style2">
         .land {
            fill: #d49377;
            fill-opacity: 1;
            stroke: white;
            stroke-opacity: 1;
            stroke-width: 0.5;
         }

         .rectangle:hover {
            fill: #bdbdbd;
            cursor: pointer;
         }
      </style>
    <!-- <amcharts:ammap projection="mercator" leftLongitude="16.834461" topLatitude="49.614162" rightLongitude="22.568332" bottomLatitude="47.731105"></amcharts:ammap> -->
    <!-- All areas are listed in the line below. You can use this list in your script. -->
    <!--{id:"SK-BC"},{id:"SK-BL"},{id:"SK-KI"},{id:"SK-NI"},{id:"SK-PV"},{id:"SK-TA"},{id:"SK-TC"},{id:"SK-ZI"}-->
  </defs>
  <path
     d="m 347.02752,483.76568 8.76038,-7.3411 2.64279,2.85487 -0.11419,2.0392 3.00169,0.44046 1.82712,1.74555 3.99682,-1.69661 3.93157,1.06039 4.63305,-0.60361 4.07839,-4.79618 0.76674,-5.92183 -4.82881,-5.00826 1.25614,-4.99195 -1.37034,-6.03601 3.70318,-0.32628 2.20233,-2.78961 1.28877,-4.682 3.01801,-1.33771 4.55148,1.63136 14.38856,-0.42415 2.16971,-1.19089 2.30021,0.8483 3.21377,-3.11589 5.98708,-1.6803 3.32796,1.53348 1.02776,2.56123 0.11419,3.63792 -2.62648,2.21865 0.34258,0.99512 11.28899,-1.79449 3.39322,-7.35741 8.27097,-9.54344 h 10.99534 l 8.62987,-3.86631 5.04089,0.66886 2.46335,-1.69661 8.49937,2.80593 13.27923,9.96758 h 4.95932 l 7.79789,-2.85487 2.47966,2.93644 8.71144,-4.24152 3.85,0.14682 2.83856,2.10445 7.78157,-1.0767 13.23029,0.6036 4.14365,-2.33284 3.11589,3.23009 v 0 l 8.61356,0.79936 1.99025,2.49598 14.56801,2.12076 3.16483,-2.1697 2.49597,-4.22521 3.58899,3.36059 4.64936,0.30996 4.55148,5.02457 2.41441,0.76674 v 0 l -2.2839,1.04407 -1.77818,6.42754 -7.2269,6.63962 0.34258,5.98708 -1.4519,1.41928 1.37033,1.07669 0.99513,4.27415 -4.02945,2.61017 -0.21207,1.58242 0.45678,3.44216 1.38665,0.42415 0.27733,5.15509 3.37691,-0.4731 7.16165,6.11759 6.26441,11.1911 2.15339,1.76186 -1.66399,3.16483 1.48454,7.06378 v 0 l -0.86462,2.25127 v 0 l 3.26271,1.59873 3.7358,-0.79937 1.0767,2.41441 2.20233,0.3589 -0.97881,5.25296 -3.75212,7.39005 0.0163,3.00169 -3.63792,4.58411 -0.88093,4.74725 1.53347,2.34915 0.48941,4.42097 2.72436,-0.39152 0.45678,3.65424 5.90551,-0.16314 3.52373,-1.12564 3.96419,-5.00826 1.99026,-0.6036 1.06038,3.36059 5.38347,-1.51716 1.56611,2.38178 v 0 l 1.04406,2.26759 -3.70317,2.20233 -1.35403,3.03432 -4.2089,4.02945 0.13051,6.67224 -2.5286,3.42585 1.17457,4.06208 -7.35741,8.92351 0.9625,1.41928 -1.41928,2.34916 -4.94301,4.77987 -2.03919,6.9822 -3.23009,-0.1305 0.84831,2.1697 -4.58411,0.78305 -7.87945,-4.87775 -2.38178,0.83199 1.41928,1.48453 -1.22352,2.43072 -4.43729,0.34259 0.76674,2.49597 -5.23665,0.73411 -7.29217,-1.27246 0.832,2.65911 -1.20721,4.74725 -7.87945,7.50424 -1.64767,-0.24471 -1.41928,1.46822 1.37034,2.23496 -5.18771,3.93157 -2.92013,-2.39809 -4.64936,1.30508 -2.54492,2.36547 -2.23495,-0.7178 -1.94132,3.16483 -2.26758,0.39153 -2.5286,4.943 -6.50911,1.95763 2.43072,-5.72606 -2.51229,-4.79618 -6.70487,-1.14195 -0.832,-2.15339 -2.07182,4.11101 -3.78474,-1.97394 -2.44704,2.10445 -0.16313,1.63136 -2.12077,0.39152 -1.925,-2.72436 3.91526,-4.95932 -1.17458,-2.80594 -1.85974,0.42416 -4.82882,-5.36716 -2.5286,-0.65255 -1.82712,0.22839 -1.99025,3.23009 -5.1714,-0.3589 -2.62648,-2.44703 -1.72924,-6.78644 -3.83369,0.29364 -2.92012,-2.95276 -8.97246,8.49937 -9.44555,3.83369 0.34258,3.36059 -3.63792,4.53517 0.8483,5.51398 -3.05063,3.05064 0.53835,4.25784 -2.07183,4.01313 0.65255,2.05551 -3.40954,1.33771 -0.2447,2.93644 -2.46335,-1.76186 -0.0652,-2.59386 -1.97394,-0.2447 -3.6053,3.58898 -4.02945,1.14195 -2.51229,-2.30021 -2.23496,1.28877 -7.14534,-0.9625 -5.10614,0.70148 -4.35572,3.58899 -3.96419,1.09301 -2.21865,4.15995 -3.91525,-2.46334 -5.43242,1.14195 -9.3803,-3.70318 -2.47966,2.13707 -2.36546,0.17945 -4.24153,-1.89237 -3.91525,3.32797 -2.15339,-2.20233 -2.13708,0.63622 -3.4911,-3.1322 v 0 l -0.0326,-4.15996 1.77818,-0.83199 0.61992,-2.65911 3.60529,-2.57754 2.98538,-4.60042 -0.66885,-3.89895 -2.23496,-3.40953 3.54004,-5.67712 -1.23983,-1.30508 1.53348,-1.69661 -3.86632,-2.65911 -2.61017,3.16483 -2.15339,0.70148 -1.87606,-0.70148 -6.9822,2.96906 -1.58241,-1.46822 -2.12077,3.49111 -3.06695,-3.01801 -1.04406,2.92012 1.28877,3.81738 -7.25954,-0.40784 -10.9464,-4.35572 -1.37033,3.09957 -2.83856,-0.53834 -0.91356,-5.05721 5.64449,-5.10614 -3.45848,-5.28559 1.59873,-2.07183 -2.31652,-2.83856 1.12563,-3.1322 4.73094,-2.54491 -0.0979,-5.18772 1.82712,-4.89406 -1.06038,-3.6053 -2.13707,-0.26102 -1.19089,-2.00656 -2.70806,-10.78327 -4.68199,-1.69661 -6.52542,-10.2286 -2.5286,0.0816 -5.56293,5.82394 0.42416,0.94619 -2.43072,1.74555 0.22839,2.1697 -1.71293,0.63623 0.13051,3.47479 -1.19089,1.22351 -3.39322,2.25127 -0.53835,-1.37033 -3.00169,-0.66886 -5.64449,3.7358 -4.69831,-1.64766 -5.97076,8.51567 -0.84831,-0.65254 -3.27902,-7.65106 -0.22839,-10.50593 5.13877,-12.39831 -1.64767,-5.10614 -2.38178,-0.13051 4.02945,-6.08496 -2.02288,0.24471 1.19089,-6.10127 -1.20721,-2.20233 -4.86144,-0.4731 -1.50084,0.6036 -0.37522,1.74555 -1.925,-0.30995 0.7178,-3.42585 2.43072,-2.33284 -1.79449,-6.63962 v 0 l 0.81568,-5.95445 13.93178,1.15827 3.7358,-1.76187 0.55466,-4.68199 9.47818,-12.85509 10.96271,3.45848 -0.50572,-5.64449 4.66568,-3.78475 1.77818,-7.78157 1.97394,-1.61504 2.80593,0.92987 2.33284,-1.58241 z"
     class="land"
     title="Banskobystrický"
     id="SK-BC"
     inkscape:connector-curvature="0"
     style="fill:#d49377;fill-opacity:1;stroke:#ffffff;stroke-width:0.815678;stroke-opacity:1" />
  <path
     d="m 20.103783,538.49767 4.861441,0.0326 0.342585,-2.80593 5.367161,-0.6036 5.530296,-2.2839 2.903814,1.09301 -1.663983,-4.2089 6.443856,3.88263 3.360593,-1.89238 1.158263,2.30021 1.566102,0.42416 20.326695,-5.72606 0.848305,-2.95276 4.013135,-2.5286 11.142162,-16.47669 4.894067,3.21377 2.218645,4.38835 -0.277331,4.25783 -2.789619,1.6803 -2.120762,3.36059 -3.34428,0.26102 -1.207203,4.32309 -6.427543,4.42098 -0.538347,1.64767 5.481356,3.89894 0.73411,3.23008 3.540042,0.55467 0.114195,2.30021 3.164831,1.50084 -2.463348,5.74238 -3.11589,1.07669 -1.533474,4.60043 2.447034,2.85487 4.58411,0.21208 2.838559,3.08326 5.416102,0.0489 -0.864619,5.00826 2.773301,0.39153 -0.0816,2.1697 2.349146,1.04407 2.30022,8.07521 0.94619,1.2072 2.80593,-1.093 3.06695,2.90381 1.01144,3.96419 -2.54492,6.52543 -2.02288,0.89724 1.81081,1.84344 -0.9625,2.62648 1.8108,0.17945 3.81738,4.40466 2.59385,-1.14195 2.18602,2.49597 -5.67712,7.14534 -1.59873,6.10127 8.12415,3.55636 -2.07182,4.71462 2.23496,2.07182 0.16314,4.19259 -3.08327,1.2072 -0.55466,1.37034 -2.8875,0.11419 -3.1322,4.76356 -4.79619,1.71293 -3.11589,-2.10445 -2.708056,-0.13051 0.14682,-3.75212 -3.181141,-1.04407 -2.104449,1.87606 0.750423,2.80593 1.778178,0.99513 -1.810805,3.1322 -1.843432,-0.47309 -4.698305,3.68687 -3.719492,1.22351 -3.034322,-1.06038 -0.04894,4.82881 1.305084,2.47967 3.393221,1.37034 1.778178,-2.13708 1.941313,2.26758 -2.414407,0.48941 -0.799364,4.97564 -3.376907,0.4894 -2.528601,-1.35402 1.305084,4.60042 -4.404661,2.23496 -2.512288,3.39322 -1.598729,0.0652 0.179449,1.71293 -1.892373,1.99025 v 0 l -0.78305,-2.41441 -2.936441,1.53348 -4.290466,-0.88093 -6.949577,3.32796 -3.491101,-3.71949 -2.512289,-0.0816 -2.43072,-2.43072 -3.654237,2.61017 -3.784746,-2.7733 3.018008,-3.55636 -3.16483,-2.49597 3.018008,-2.75699 -2.251271,-1.37034 1.060382,-1.95763 -0.946187,-1.3214 3.246398,-2.20233 -0.04894,-2.05551 -5.432416,-5.74237 1.044068,-0.68517 -2.088135,-4.91038 -4.877755,0.53835 -9.184534,-8.00996 0.08157,-4.27415 -2.365466,-9.08666 -2.463348,-3.60529 1.712924,-7.19428 -1.729237,-1.59873 -4.013136,-0.57098 -2.610169,-4.04576 0.717796,-1.12564 -0.864618,0.42416 -2.202331,-4.9267 1.69661,-0.29364 -0.913559,-1.22352 1.451907,-2.85487 -6.2970341,-3.13221 0.097881,-2.75699 -3.5889831,0.17945 -1.6476695,-1.28877 -1.61504236,-7.42267 2.96906776,-0.57097 1.370339,-4.71462 -1.2724576,-2.65911 1.9902543,-2.08814 -2.1370763,-7.65106 2.2512712,-1.27245 0.065254,-3.05064 5.6444907,-5.10614 -0.293644,-2.85488 3.996822,-0.0979 -0.848305,-4.25784 1.549788,-0.32627 -0.212075,-1.6803 1.729237,-1.06038 2.20233,0.66886 z"
     class="land"
     title="Bratislavský"
     id="SK-BL"
     inkscape:connector-curvature="0"
     style="fill:#d49377;fill-opacity:1;stroke:#ffffff;stroke-width:0.815678;stroke-opacity:1" />
  <path
     d="m 597.42434,449.57246 2.90381,2.34915 2.43072,-0.66885 -0.53834,-5.22034 1.23983,-1.85975 0.0652,-6.70487 2.56123,-2.31653 -2.36547,-4.3394 5.85657,-6.08496 8.74407,-4.68199 2.61017,-3.31166 5.84025,2.41441 11.53369,8.59725 2.72437,0.0816 -5.62818,-7.17797 4.77987,-6.05233 6.63962,9.0214 4.02945,2.1697 5.98707,-1.51716 5.92183,9.41292 5.02457,2.96907 -0.0652,-5.36716 1.97394,-1.69661 0.73411,-3.16483 5.33453,-1.79449 2.83856,3.55635 3.55636,-2.69173 1.69661,2.67542 3.05064,-1.19089 -3.06695,-7.56949 0.88093,-0.7178 7.63474,4.12733 4.76356,-1.82712 -3.34428,3.39322 4.27416,2.47967 9.44555,-2.98539 3.85,1.02776 2.85487,2.08813 2.87119,4.63305 4.99195,-3.75211 3.93156,6.55805 2.56123,1.50084 0.7178,4.60043 17.17818,2.7733 2.26758,-2.21864 4.2089,2.13708 1.54979,4.01313 2.61017,2.43072 3.2464,-3.42585 4.35572,2.56123 0.47309,-1.53347 2.18602,0.0816 -0.0979,2.95275 3.55635,-1.53347 0.88093,2.87118 -2.65911,9.08665 6.08496,4.95933 3.2464,-1.45191 -0.16314,-2.98538 2.38178,-2.13708 9.57606,-0.89724 2.13708,-3.52373 -0.0816,-8.22204 2.75699,-0.70148 3.39322,3.11589 0.52204,-5.75869 1.925,5.8892 3.62161,0.65254 0.97881,-1.71292 5.05721,-2.6428 0.11419,4.74725 3.08326,1.66398 -1.68029,1.90869 0.26101,2.31652 4.5678,3.83369 1.45191,2.90381 -0.3589,2.92013 2.12076,3.63792 6.18284,1.61505 1.06038,2.75699 3.18115,-0.0979 3.68686,2.20233 6.88432,-2.12077 4.63305,4.99195 3.9642,-0.61991 6.86801,-3.76843 1.59873,0.16313 0.0163,1.22352 0.92987,-4.04577 6.55805,-3.85 0.32627,-2.82224 -1.82711,-2.74068 -1.12564,-16.26462 0.6036,-3.63792 1.79449,-1.27246 2.82225,0.34259 1.77818,3.27902 6.32966,-0.97881 8.80932,3.42584 4.63305,3.16484 3.03432,5.10614 5.98708,0.63623 1.22352,2.2839 13.0019,-1.63136 10.06547,0.17945 0.2447,-10.21229 4.55149,-2.74068 1.54978,-3.54004 5.04089,-5.12246 7.42267,2.02288 3.81738,13.39344 8.36885,-0.29365 3.58899,-1.4519 9.60868,2.56123 v 0 l -1.51716,7.79788 1.51716,3.29534 0.45678,5.9055 -6.81907,8.74407 -0.78305,4.24153 3.08327,2.44703 0.0652,3.37691 -1.79449,2.02288 -1.99026,9.69025 -6.32966,2.0392 -9.03771,7.68369 -1.19089,4.14364 -2.44703,2.44703 -2.72437,0.0816 -2.43072,3.14852 h -1.97394 l -4.61674,9.39661 -4.43728,36.68919 0.37521,6.26441 0.78305,1.925 1.63136,-0.0652 -0.66886,2.03919 -3.31165,1.19089 0.86462,2.72437 -6.1339,1.22351 -0.84831,-1.40296 -1.61504,2.39809 -1.79449,-3.7358 -3.55636,2.34915 -4.86144,-3.91526 -2.12076,2.12077 -5.28559,2.12076 -0.30996,-0.94619 -6.18284,0.34259 -3.58898,1.90868 0.76673,1.19089 -0.89724,1.3214 -3.14852,-1.84343 -1.63136,0.97881 -0.44046,-1.33771 -0.0816,1.94131 -0.88093,-0.11419 -0.53835,-1.87606 -1.04407,1.27246 0.83199,1.77818 -1.41928,-1.01144 -2.59385,2.21864 -1.28877,-2.80593 -3.26271,-0.0163 -0.76674,7.60212 -1.81081,0.9625 -3.99682,-2.51229 -5.75869,0.39153 -1.43559,-1.45191 -5.61186,-0.91356 -2.3981,-1.50084 0.34259,-2.96907 -2.25127,-1.0767 0.99512,-1.74555 -0.75042,-1.41928 -3.54004,-2.08813 -1.97394,0.42415 -1.58242,-2.0392 -0.22839,-5.31822 -6.88432,-13.58919 0.0652,-6.28072 -1.40296,-1.28877 -0.32627,-3.32797 -1.45191,0.58729 -2.07182,-1.63136 -2.38178,2.70805 -2.20233,-0.32627 -0.91356,-1.68029 -3.21377,0.94618 -4.74725,-8.25466 0.0489,-2.75699 -2.56123,-1.41928 -0.2447,-1.35402 -2.15339,0.40783 -1.02775,-1.66398 -5.44873,-2.62648 -1.84344,-2.78962 -2.83855,1.64767 -1.33772,5.33453 -2.74067,-1.25614 -3.78475,1.35402 -9.67394,0.21208 -0.22839,-0.88093 -0.78305,1.27246 1.76186,0.53834 -2.07182,0.75043 1.22352,1.23983 -0.75043,1.99025 -1.19089,-0.17945 0.97882,1.90869 -2.08814,1.37034 0.2447,1.17457 -6.70487,-0.73411 -4.84513,-3.58898 -1.22351,1.33771 -2.02288,-0.86462 -0.73411,1.4356 -1.37034,-0.39153 0.0326,1.63136 -3.86631,0.70148 -1.28877,1.64767 -1.23983,-1.14195 -3.89894,1.69661 -3.09958,5.92182 -1.925,0.50572 -3.62161,-1.71292 -1.10932,-4.94301 -4.91038,-2.4144 -2.21865,1.17457 -0.0163,-1.33771 -6.67225,-1.38665 -3.68686,1.54979 -1.95763,2.34915 -1.25614,-1.48454 -2.95276,0.13051 -0.21207,-2.80593 -2.46335,-0.50572 -0.2447,-1.77818 -1.15827,0.99513 -2.82224,-5.13877 -8.98877,1.63135 -3.29534,-3.21377 v -3.55635 l -1.50085,0.40784 1.14195,-2.0392 -6.94958,2.36547 -11.99046,1.33771 -0.76674,1.09301 -3.71949,-1.09301 -5.0572,2.41441 -4.58411,0.1305 -1.76187,2.08814 -0.63623,-0.66886 -4.60042,3.16483 -2.49598,-0.0163 -2.56123,2.1697 -6.63961,-2.57754 -1.74555,4.30678 -3.05064,-2.36546 -1.90869,0.68516 -1.23983,1.50085 1.50085,3.94788 -0.47309,6.29704 -2.21865,0.47309 -1.85974,3.81737 -3.4911,2.23496 v 0 l -1.56611,-2.38178 -5.38347,1.51716 -1.06038,-3.36059 -1.99026,0.6036 -3.96419,5.00826 -3.52373,1.12564 -5.90551,0.16314 -0.45678,-3.65424 -2.72436,0.39152 -0.48941,-4.42097 -1.53347,-2.34915 0.88093,-4.74725 3.63792,-4.58411 -0.0163,-3.00169 3.75212,-7.39005 0.97881,-5.25296 -2.20233,-0.3589 -1.0767,-2.41441 -3.7358,0.79937 -3.26271,-1.59873 v 0 l 0.86462,-2.25127 v 0 l -1.48454,-7.06378 1.66399,-3.16483 -2.15339,-1.76186 -6.26441,-11.1911 -7.16165,-6.11759 -3.37691,0.4731 -0.27733,-5.15509 -1.38665,-0.42415 -0.45678,-3.44216 0.21207,-1.58242 4.02945,-2.61017 -0.99513,-4.27415 -1.37033,-1.07669 1.4519,-1.41928 -0.34258,-5.98708 7.2269,-6.63962 1.77818,-6.42754 z"
     class="land"
     title="Košický"
     id="SK-KI"
     inkscape:connector-curvature="0"
     style="fill:#d49377;fill-opacity:1;stroke:#ffffff;stroke-width:0.815678;stroke-opacity:1" />
  <path
     d="m 199.25929,516.60488 3.27903,-2.41441 1.3214,0.26102 2.4144,-3.57267 -0.0816,-4.14365 -3.83369,-6.99851 -0.83199,-5.67712 2.33284,-2.3981 2.1697,-0.21207 1.95763,2.36546 8.10784,-0.17945 3.14851,1.81081 2.38178,-0.83199 5.79132,5.28559 2.23495,7.04746 2.70806,2.62648 2.31652,-1.27246 6.46017,2.05551 4.22521,9.3803 -0.50572,3.06695 -3.94788,3.81737 2.67542,2.20233 -1.41928,3.27903 5.70975,0.76674 1.90869,1.51716 5.79131,8.25466 1.94131,5.775 5.1714,1.5661 1.87606,-2.8875 2.75699,4.19258 0.73411,-2.54491 8.48305,-7.19428 4.66568,-2.18602 4.73094,-4.42097 3.18114,-0.16314 v 0 l 1.79449,6.63962 -2.43072,2.33284 -0.7178,3.42585 1.925,0.30995 0.37522,-1.74555 1.50084,-0.6036 4.86144,0.4731 1.20721,2.20233 -1.19089,6.10127 2.02288,-0.24471 -4.02945,6.08496 2.38178,0.13051 1.64767,5.10614 -5.13877,12.39831 0.22839,10.50593 3.27902,7.65106 0.84831,0.65254 5.97076,-8.51567 4.69831,1.64766 5.64449,-3.7358 3.00169,0.66886 0.53835,1.37033 3.39322,-2.25127 1.19089,-1.22351 -0.13051,-3.47479 1.71293,-0.63623 -0.22839,-2.1697 2.43072,-1.74555 -0.42416,-0.94619 5.56293,-5.82394 2.5286,-0.0816 6.52542,10.2286 4.68199,1.69661 2.70806,10.78327 1.19089,2.00656 2.13707,0.26102 1.06038,3.6053 -1.82712,4.89406 0.0979,5.18772 -4.73094,2.54491 -1.12563,3.1322 2.31652,2.83856 -1.59873,2.07183 3.45848,5.28559 -5.64449,5.10614 0.91356,5.05721 2.83856,0.53834 1.37033,-3.09957 10.9464,4.35572 7.25954,0.40784 -1.28877,-3.81738 1.04406,-2.92012 3.06695,3.01801 2.12077,-3.49111 1.58241,1.46822 6.9822,-2.96906 1.87606,0.70148 2.15339,-0.70148 2.61017,-3.16483 3.86632,2.65911 -1.53348,1.69661 1.23983,1.30508 -3.54004,5.67712 2.23496,3.40953 0.66885,3.89895 -2.98538,4.60042 -3.60529,2.57754 -0.61992,2.65911 -1.77818,0.83199 0.0326,4.15996 v 0 l -5.57924,5.39979 -8.02627,-0.88093 -5.08983,1.8108 -3.40953,-1.76186 -0.79937,2.51229 -4.92669,0.76673 -1.89238,-1.25614 -2.1697,1.22352 -1.51716,2.38178 1.04407,1.79449 -2.00657,2.26758 -0.11419,7.48793 -0.44047,-0.84831 -0.79937,1.17458 0.78306,0.2447 -2.0392,1.61504 -4.99195,-0.66885 -2.65911,3.55635 3.42585,5.46504 -1.5661,0.22839 1.14195,5.10615 -2.85488,3.34428 1.35403,2.72436 -0.94619,6.62331 0.3589,3.55635 4.99195,1.15827 5.26928,3.70317 1.46822,3.93157 3.40953,1.99026 -0.34258,2.57754 -9.60869,-1.41928 -9.57606,2.6428 -2.15339,6.32966 -10.71801,6.68856 -8.23834,1.27245 -8.61356,-2.07182 -4.63305,0.21208 -7.83051,3.19746 -7.66738,-3.19746 -6.2644,3.01801 -21.72966,5.57923 -11.3053,-2.75699 -9.34767,0.19577 -17.0803,-3.9642 -7.71631,-0.0326 -4.69831,2.6428 -5.4161,-2.92013 -4.46991,3.37691 -8.46674,1.3214 -6.75381,-1.72924 -12.70827,1.77818 -3.7521,-2.39809 -9.29874,-2.10445 -2.87118,-3.32797 v 0 l 3.09957,-2.93644 1.71293,-7.68369 3.14851,-0.0816 3.75213,2.02288 1.41927,-3.09958 4.71461,-3.09958 -0.0489,-7.06377 1.89238,-3.81737 3.83368,-1.28877 3.01801,-4.53517 4.95932,-2.87119 2.26759,-2.7733 -4.04576,-4.01314 1.925,-3.34428 -1.06039,-6.46017 1.23983,-6.47648 -2.07182,-3.86631 -0.27733,-5.12246 2.56123,-1.97394 -0.68517,-4.01314 -6.57436,-3.63792 1.87606,-2.49598 -1.17458,-2.00656 -4.46992,3.40953 -1.85974,-0.34259 -0.75043,-3.55635 2.07183,-5.12246 -0.24471,-3.4911 -4.8125,-5.56292 -6.47647,-4.02945 4.14363,-3.01801 2.31653,-0.0816 1.40297,2.05551 1.40296,0.0489 2.34915,-2.90381 -3.08326,-6.10128 5.38348,-0.1305 1.925,1.74555 0.76673,-1.74555 5.62818,-3.67055 -0.14682,-5.08984 -4.71462,-1.50084 -1.97394,-3.23009 0.57098,-1.77818 1.61504,0.9625 2.02288,-1.30508 -1.14195,-2.74068 2.70805,-4.35572 -0.99513,-2.2839 -3.76843,-0.39152 -1.2072,-2.43072 2.39809,-1.94132 0.47309,-6.78644 1.90869,-1.48453 -0.75042,-3.42585 2.65911,-2.05551 -0.73411,-1.10932 1.68029,-0.88093 4.91039,-8.67882 2.70805,-7.8305 1.84343,-2.95276 2.59385,-0.0489 -0.50572,-1.58241 2.07183,-3.09958 -9.83708,-10.89746 -7.25953,-2.49597 -1.925,-1.10932 -0.16314,-1.69661 3.01801,-2.38178 1.61504,-8.48306 3.16483,-3.80105 1.02776,-4.06208 4.71461,2.56123 4.86144,-0.39153 -0.45677,-1.77818 2.1697,-0.17945 2.18602,-2.00656 z"
     class="land"
     title="Nitriansky"
     id="SK-NI"
     inkscape:connector-curvature="0"
     style="fill:#d49377;fill-opacity:1;stroke:#ffffff;stroke-width:0.815678;stroke-opacity:1" />
  <path
     d="m 779.38578,296.50233 7.03115,-0.45678 4.43729,4.86144 5.39978,-0.29364 5.39979,5.54661 7.25954,-0.55466 3.08326,-4.11102 4.60042,3.09958 -0.11419,-2.10445 2.08813,-2.49598 3.57267,0.52204 2.44704,-2.16971 4.27415,2.05551 7.30847,-3.81737 1.99026,4.51885 2.59386,1.99026 0.0489,1.71292 3.99682,1.59873 3.14851,-2.10445 3.80106,1.76187 0.81568,3.68686 1.54979,-0.0652 4.87775,4.0947 0.78306,4.76356 1.5661,2.38178 2.1697,0.63623 -0.22839,-3.70318 1.51716,-2.69174 4.97564,-3.18114 2.70805,-0.17945 3.16483,5.88919 2.30021,-1.04406 1.95763,0.58729 3.44216,5.46504 2.51229,-0.88093 2.36546,1.97394 5.41611,-0.50572 3.93156,9.96758 8.33623,8.07521 -0.16313,4.43729 1.99025,1.99026 -1.64767,7.96101 2.69174,2.20233 16.50932,4.68199 0.30996,2.07183 7.73263,4.48623 3.58898,-2.67543 2.39809,0.39153 1.82712,3.40953 -1.45191,4.66568 3.91526,0.2447 12.18623,4.37204 2.67542,-2.757 5.85657,0.40784 3.7358,4.3231 0.32627,2.30021 5.48136,5.36716 6.03602,-1.12564 6.34597,4.51886 8.46674,-2.25127 4.0947,2.34915 -2.20233,2.2839 -0.37521,13.08347 -2.30021,1.94132 1.41928,3.81737 -4.30678,2.61017 -3.37691,-0.78305 -4.02945,1.95763 -0.79936,4.2089 -8.62987,12.44724 1.12563,2.25127 -1.82712,9.31505 -4.15996,2.38177 -2.12076,3.16484 v 0 l -9.60868,-2.56123 -3.58899,1.4519 -8.36885,0.29365 -3.81738,-13.39344 -7.42267,-2.02288 -5.04089,5.12246 -1.54978,3.54004 -4.55149,2.74068 -0.2447,10.21229 -10.06547,-0.17945 -13.0019,1.63136 -1.22352,-2.2839 -5.98708,-0.63623 -3.03432,-5.10614 -4.63305,-3.16484 -8.80932,-3.42584 -6.32966,0.97881 -1.77818,-3.27902 -2.82225,-0.34259 -1.79449,1.27246 -0.6036,3.63792 1.12564,16.26462 1.82711,2.74068 -0.32627,2.82224 -6.55805,3.85 -0.92987,4.04577 -0.0163,-1.22352 -1.59873,-0.16313 -6.86801,3.76843 -3.9642,0.61991 -4.63305,-4.99195 -6.88432,2.12077 -3.68686,-2.20233 -3.18115,0.0979 -1.06038,-2.75699 -6.18284,-1.61505 -2.12076,-3.63792 0.3589,-2.92013 -1.45191,-2.90381 -4.5678,-3.83369 -0.26101,-2.31652 1.68029,-1.90869 -3.08326,-1.66398 -0.11419,-4.74725 -5.05721,2.6428 -0.97881,1.71292 -3.62161,-0.65254 -1.925,-5.8892 -0.52204,5.75869 -3.39322,-3.11589 -2.75699,0.70148 0.0816,8.22204 -2.13708,3.52373 -9.57606,0.89724 -2.38178,2.13708 0.16314,2.98538 -3.2464,1.45191 -6.08496,-4.95933 2.65911,-9.08665 -0.88093,-2.87118 -3.55635,1.53347 0.0979,-2.95275 -2.18602,-0.0816 -0.47309,1.53347 -4.35572,-2.56123 -3.2464,3.42585 -2.61017,-2.43072 -1.54979,-4.01313 -4.2089,-2.13708 -2.26758,2.21864 -17.17818,-2.7733 -0.7178,-4.60043 -2.56123,-1.50084 -3.93156,-6.55805 -4.99195,3.75211 -2.87119,-4.63305 -2.85487,-2.08813 -3.85,-1.02776 -9.44555,2.98539 -4.27416,-2.47967 3.34428,-3.39322 -4.76356,1.82712 -7.63474,-4.12733 -0.88093,0.7178 3.06695,7.56949 -3.05064,1.19089 -1.69661,-2.67542 -3.55636,2.69173 -2.83856,-3.55635 -5.33453,1.79449 -0.73411,3.16483 -1.97394,1.69661 0.0652,5.36716 -5.02457,-2.96907 -5.92183,-9.41292 -5.98707,1.51716 -4.02945,-2.1697 -6.63962,-9.0214 -4.77987,6.05233 5.62818,7.17797 -2.72437,-0.0816 -11.53369,-8.59725 -5.84025,-2.41441 -2.61017,3.31166 -8.74407,4.68199 -5.85657,6.08496 2.36547,4.3394 -2.56123,2.31653 -0.0652,6.70487 -1.23983,1.85975 0.53834,5.22034 -2.43072,0.66885 -2.90381,-2.34915 v 0 l -2.41441,-0.76674 -4.55148,-5.02457 -4.64936,-0.30996 -3.58899,-3.36059 -2.49597,4.22521 -3.16483,2.1697 -14.56801,-2.12076 -1.99025,-2.49598 -8.61356,-0.79936 v 0 l 0.70148,-1.77818 5.35085,-1.04407 3.7358,-3.24639 -3.63792,-0.91356 -2.62649,-7.47161 0.84831,-2.20234 -2.36547,-1.5661 -1.87606,-4.48623 -5.95444,-4.25783 0.53834,-1.4356 3.01801,1.02776 5.33454,-2.33284 1.4519,-13.9481 2.59386,-10.00021 -2.30021,-1.40296 -2.18602,1.35402 -6.23178,-0.3589 -1.61504,-3.14851 -1.20721,2.38178 -2.70805,-4.27416 -2.7733,0.19577 -0.48941,-1.90869 -4.74725,1.15826 1.69662,-6.60699 -6.28073,-11.45212 v 0 l 4.99195,-4.6983 0.37522,-4.2089 3.47478,-1.53348 3.85,0.34259 6.96589,0.89724 3.94789,3.45848 -0.17945,1.5661 2.30021,2.74068 8.71144,5.79131 2.7733,0.0653 0.19577,-6.91695 2.57754,-4.25784 -1.02776,-3.88263 5.20403,-9.83708 0.6036,-5.75868 3.27903,-5.31822 2.2839,2.98538 2.57754,-2.51229 -0.7178,-3.4911 2.15339,-0.14682 1.64767,-3.6053 4.9267,-2.93644 1.69661,1.74555 1.94131,-1.37034 4.51886,0.99513 2.20233,-1.28877 5.88919,2.00657 1.17458,-1.38666 0.29364,-7.63474 1.35403,-3.19746 -2.75699,0.17945 1.22351,-3.27903 2.20233,-0.55466 4.63305,1.35403 1.97394,-2.47966 1.25615,4.19258 1.94131,0.34259 3.19746,-1.22352 1.25614,-3.06695 2.57755,2.80593 -0.26102,-5.49767 2.70805,1.46822 -0.0489,-0.91356 4.33941,-0.13051 5.85656,3.14852 0.84831,2.96907 11.48475,4.33941 0.9625,-1.71293 1.72923,0.29365 1.74555,-1.74555 2.82225,-7.96102 5.46504,4.5678 8.40149,-5.2856 5.26927,1.77818 2.41441,-0.52203 0.48941,3.40953 2.47966,1.17458 -1.63136,2.13707 2.10445,1.925 -0.0979,3.4911 4.35572,-0.92987 -0.2447,3.27903 2.87118,-0.24471 1.7945,1.33772 -0.63623,1.19089 -1.19089,-1.59873 -0.32627,4.19258 2.75699,-0.91356 2.36546,3.39322 1.71293,0.0816 3.11589,-3.39322 1.66398,-0.16314 3.36059,5.04089 -1.68029,2.21865 5.20402,-1.84343 1.40297,5.04089 3.11589,2.78961 5.67712,-3.00169 4.94301,0.13051 0.97881,-1.33771 -1.38665,-3.9642 3.29534,-1.6803 0.73411,-3.18114 5.28559,-4.79619 2.44703,0.75043 1.82712,-0.84831 1.33771,1.51716 3.26272,-1.46822 1.95762,-2.82224 -6.03601,-5.23665 0.0163,-1.6803 -2.70805,-0.9625 -0.99513,-3.06695 0.73411,-1.17458 7.66737,-2.30021 2.83856,1.63136 2.12077,-3.14852 4.64936,2.26758 4.77987,4.74725 0.21208,1.82712 4.8125,-0.0653 3.21377,-3.83368 -0.57097,-2.38178 1.69661,-3.03432 1.33771,0.66885 4.24153,-3.50741 1.04406,-3.26271 z"
     class="land"
     title="Prešovský"
     id="SK-PV"
     inkscape:connector-curvature="0"
     style="fill:#d49377;fill-opacity:1;stroke:#ffffff;stroke-width:0.815678;stroke-opacity:1" />
  <path
     d="m 63.644673,449.6214 13.899153,3.76843 4.943009,4.8125 2.691737,-0.75042 0.929873,2.30021 6.297034,5.775 2.479661,-1.40296 3.507415,1.27245 v 0 l -1.288771,5.5303 -6.248093,3.2464 -0.212077,1.61504 2.724365,2.18602 2.691737,-0.24471 5.856564,-4.58411 0.53836,3.2464 7.40635,2.83856 2.0392,3.94788 2.2839,0.76674 0.0979,5.13877 -2.46335,0.86462 -1.61504,4.76356 0.97881,4.60042 1.61504,0.26102 1.46822,5.66081 5.69344,10.32648 1.2072,-1.33771 1.81081,0.78305 0.45678,-1.85975 3.81737,-3.34428 3.1322,1.40297 7.39004,-1.46822 -1.15826,-3.0017 0.58729,-2.34915 1.27246,-0.0489 0.9625,1.79449 3.00169,0.22839 -0.19576,-1.43559 6.50911,-4.11102 1.25614,0.26102 1.30509,-1.77818 3.83368,3.00169 3.45848,5.26928 7.21059,3.47479 6.60699,-0.17945 0.3589,-3.7358 2.67542,0.26102 1.59873,5.07351 1.17458,-1.46822 0.35889,1.63136 0.88094,-1.71293 1.85974,2.52861 12.08835,1.90868 2.62648,2.31653 3.21377,-1.06038 v 0 l -0.30995,4.86144 -2.18602,2.00656 -2.1697,0.17945 0.45677,1.77818 -4.86144,0.39153 -4.71461,-2.56123 -1.02776,4.06208 -3.16483,3.80105 -1.61504,8.48306 -3.01801,2.38178 0.16314,1.69661 1.925,1.10932 7.25953,2.49597 9.83708,10.89746 -2.07183,3.09958 0.50572,1.58241 -2.59385,0.0489 -1.84343,2.95276 -2.70805,7.8305 -4.91039,8.67882 -1.68029,0.88093 0.73411,1.10932 -2.65911,2.05551 0.75042,3.42585 -1.90869,1.48453 -0.47309,6.78644 -2.39809,1.94132 1.2072,2.43072 3.76843,0.39152 0.99513,2.2839 -2.70805,4.35572 1.14195,2.74068 -2.02288,1.30508 -1.61504,-0.9625 -0.57098,1.77818 1.97394,3.23009 4.71462,1.50084 0.14682,5.08984 -5.62818,3.67055 -0.76673,1.74555 -1.925,-1.74555 -5.38348,0.1305 3.08326,6.10128 -2.34915,2.90381 -1.40296,-0.0489 -1.40297,-2.05551 -2.31653,0.0816 -4.14363,3.01801 6.47647,4.02945 4.8125,5.56292 0.24471,3.4911 -2.07183,5.12246 0.75043,3.55635 1.85974,0.34259 4.46992,-3.40953 1.17458,2.00656 -1.87606,2.49598 6.57436,3.63792 0.68517,4.01314 -2.56123,1.97394 0.27733,5.12246 2.07182,3.86631 -1.23983,6.47648 1.06039,6.46017 -1.925,3.34428 4.04576,4.01314 -2.26759,2.7733 -4.95932,2.87119 -3.01801,4.53517 -3.83368,1.28877 -1.89238,3.81737 0.0489,7.06377 -4.71461,3.09958 -1.41927,3.09958 -3.75213,-2.02288 -3.14851,0.0816 -1.71293,7.68369 -3.09957,2.93644 v 0 l -10.50594,-8.0589 -4.53517,-5.48135 -5.95444,1.76186 -1.72924,-0.66886 -3.89894,-8.77669 -3.16483,-3.80106 -4.38835,-0.39153 -7.40636,-4.11101 -5.0572,-10.91377 -16.280939,-17.56971 -11.09322,-0.39152 -3.001695,-1.27246 -0.995128,-3.2464 v 0 l 1.892373,-1.99025 -0.179449,-1.71293 1.598729,-0.0652 2.512288,-3.39322 4.404661,-2.23496 -1.305084,-4.60042 2.528601,1.35402 3.376907,-0.4894 0.799364,-4.97564 2.414407,-0.48941 -1.941313,-2.26758 -1.778178,2.13708 -3.393221,-1.37034 -1.305084,-2.47967 0.04894,-4.82881 3.034322,1.06038 3.719492,-1.22351 4.698305,-3.68687 1.843432,0.47309 1.810805,-3.1322 -1.778178,-0.99513 -0.750423,-2.80593 2.104449,-1.87606 3.181141,1.04407 -0.14682,3.75212 2.708056,0.13051 3.11589,2.10445 4.79619,-1.71293 3.1322,-4.76356 2.8875,-0.11419 0.55466,-1.37034 3.08327,-1.2072 -0.16314,-4.19259 -2.23496,-2.07182 2.07182,-4.71462 -8.12415,-3.55636 1.59873,-6.10127 5.67712,-7.14534 -2.18602,-2.49597 -2.59385,1.14195 -3.81738,-4.40466 -1.8108,-0.17945 0.9625,-2.62648 -1.81081,-1.84344 2.02288,-0.89724 2.54492,-6.52543 -1.01144,-3.96419 -3.06695,-2.90381 -2.80593,1.093 -0.94619,-1.2072 -2.30022,-8.07521 -2.349146,-1.04407 0.0816,-2.1697 -2.773301,-0.39153 0.864619,-5.00826 -5.416102,-0.0489 -2.838559,-3.08326 -4.58411,-0.21208 -2.447034,-2.85487 1.533474,-4.60043 3.11589,-1.07669 2.463348,-5.74238 -3.164831,-1.50084 -0.114195,-2.30021 -3.540042,-0.55467 -0.73411,-3.23008 -5.481356,-3.89894 0.538347,-1.64767 6.427543,-4.42098 1.207203,-4.32309 3.34428,-0.26102 2.120762,-3.36059 2.789619,-1.6803 0.277331,-4.25783 -2.218645,-4.38835 -4.894067,-3.21377 -11.142162,16.47669 -4.013135,2.5286 -0.848305,2.95276 -20.326695,5.72606 -1.566102,-0.42416 -1.158263,-2.30021 -3.360593,1.89238 -6.443856,-3.88263 1.663983,4.2089 -2.903814,-1.09301 -5.530296,2.2839 -5.367161,0.6036 -0.342585,2.80593 -4.861441,-0.0326 v 0 l -0.570975,-2.51228 1.517161,-0.86462 -2.871186,-6.19916 1.158263,-0.68517 -0.929873,-0.79936 -0.407839,-6.72119 1.158263,-1.10932 0.08157,-3.36059 2.414407,-1.46822 2.756992,-4.91038 -1.288771,-0.88094 1.843432,-0.34258 -0.995127,-1.09301 0.09788,-4.42097 6.96589,-6.96589 -1.990254,-2.34916 0.293644,-1.59873 2.349152,-2.34915 0.22839,-2.59385 4.502543,-6.21547 0.668855,-3.21377 7.87945,-5.39979 0.358898,-2.75699 2.495975,-2.65911 0.750423,-5.98708 7.602119,-3.93157 z"
     class="land"
     title="Trnavský"
     id="SK-TA"
     inkscape:connector-curvature="0"
     style="fill:#d49377;fill-opacity:1;stroke:#ffffff;stroke-width:0.815678;stroke-opacity:1" />
  <path
     d="m 260.27201,331.91907 8.72775,-0.17945 -0.11419,3.54004 8.92351,11.92521 -0.16313,2.82225 2.54491,2.69174 1.17458,7.01483 2.96907,2.15339 0.50572,3.71949 7.73262,6.19915 5.35085,2.16971 0.16314,2.67542 5.3019,1.8108 0.44047,4.53517 2.34915,2.23496 -1.38665,3.0017 -4.38835,4.17627 5.46504,1.85974 2.56123,4.06208 -1.27245,4.89407 0.55466,6.31335 -1.97394,1.12563 -3.68687,5.93814 -6.3786,1.58241 -3.65424,2.36547 -1.925,4.6983 -6.11758,1.82712 v 1.85975 l 2.30021,2.51229 8.51568,0.78305 2.4144,-2.21865 3.55636,-0.8483 2.41441,-5.15509 2.25127,-0.73411 -0.32627,1.74555 1.35402,1.76187 6.36229,-1.46822 7.43898,2.31652 3.9642,-0.91356 3.86631,4.91038 -4.11101,7.27585 2.7733,3.93157 -2.2839,4.61674 0.84831,1.06038 -0.50572,7.56949 5.72606,4.27415 3.45847,1.06038 0.27733,2.05551 4.60043,1.82712 -0.16314,5.44873 5.4161,5.69343 0.94619,2.92013 1.61504,0.47309 0.34259,3.93157 v 0 l -5.38348,10.89746 -2.33284,1.58241 -2.80593,-0.92987 -1.97394,1.61504 -1.77818,7.78157 -4.66568,3.78475 0.50572,5.64449 -10.96271,-3.45848 -9.47818,12.85509 -0.55466,4.68199 -3.7358,1.76187 -13.93178,-1.15827 -0.81568,5.95445 v 0 l -3.18114,0.16314 -4.73094,4.42097 -4.66568,2.18602 -8.48305,7.19428 -0.73411,2.54491 -2.75699,-4.19258 -1.87606,2.8875 -5.1714,-1.5661 -1.94131,-5.775 -5.79131,-8.25466 -1.90869,-1.51716 -5.70975,-0.76674 1.41928,-3.27903 -2.67542,-2.20233 3.94788,-3.81737 0.50572,-3.06695 -4.22521,-9.3803 -6.46017,-2.05551 -2.31652,1.27246 -2.70806,-2.62648 -2.23495,-7.04746 -5.79132,-5.28559 -2.38178,0.83199 -3.14851,-1.81081 -8.10784,0.17945 -1.95763,-2.36546 -2.1697,0.21207 -2.33284,2.3981 0.83199,5.67712 3.83369,6.99851 0.0816,4.14365 -2.4144,3.57267 -1.3214,-0.26102 -3.27903,2.41441 v 0 l -3.21377,1.06038 -2.62648,-2.31653 -12.08835,-1.90868 -1.85974,-2.52861 -0.88094,1.71293 -0.35889,-1.63136 -1.17458,1.46822 -1.59873,-5.07351 -2.67542,-0.26102 -0.3589,3.7358 -6.60699,0.17945 -7.21059,-3.47479 -3.45848,-5.26928 -3.83368,-3.00169 -1.30509,1.77818 -1.25614,-0.26102 -6.50911,4.11102 0.19576,1.43559 -3.00169,-0.22839 -0.9625,-1.79449 -1.27246,0.0489 -0.58729,2.34915 1.15826,3.0017 -7.39004,1.46822 -3.1322,-1.40297 -3.81737,3.34428 -0.45678,1.85975 -1.81081,-0.78305 -1.2072,1.33771 -5.69344,-10.32648 -1.46822,-5.66081 -1.61504,-0.26102 -0.97881,-4.60042 1.61504,-4.76356 2.46335,-0.86462 -0.0979,-5.13877 -2.2839,-0.76674 -2.0392,-3.94788 -7.40635,-2.83856 -0.53836,-3.2464 -5.856564,4.58411 -2.691737,0.24471 -2.724365,-2.18602 0.212077,-1.61504 6.248093,-3.2464 1.288771,-5.5303 v 0 l 3.491095,-3.45847 1.89239,0.27733 1.10932,-3.2464 1.54979,0.44047 1.69661,-2.26759 4.4536,1.48454 8.00996,7.03114 2.38178,-1.3214 1.72923,0.48941 2.51229,-2.00657 4.94301,-0.32627 1.38665,-3.63792 3.39322,-0.52204 2.44704,-3.54004 12.38199,-1.50085 5.775,-5.80763 3.54004,-5.87288 3.89893,-2.69173 0.55467,-2.56123 11.38686,-0.76674 3.37691,1.22352 2.70805,-1.38666 4.86144,-17.47182 0.19576,-4.29046 2.13708,-2.2839 1.72924,-1.20721 7.04745,0.27733 2.2839,-1.23983 6.3786,1.04407 7.96102,-3.89894 5.00826,-5.85657 -0.14682,-2.30021 3.21377,-6.90063 -0.81568,-5.67712 1.76187,-1.10933 -1.925,-4.06207 1.19089,-4.53517 3.16483,-2.69174 -0.86462,-6.94957 4.2089,-7.79789 0.11419,-3.14851 -1.69661,-0.83199 0.17945,-4.01314 6.7375,-6.52542 -0.0489,-4.12733 13.99704,-2.62649 z"
     class="land"
     title="Trenčiansky"
     id="SK-TC"
     inkscape:connector-curvature="0"
     style="fill:#d49377;fill-opacity:1;stroke:#ffffff;stroke-width:0.815678;stroke-opacity:1" />
  <path
     d="m 458.80803,252.1947 1.68029,2.38178 -0.94618,2.30021 1.37033,1.94132 9.10297,4.60042 -0.0979,9.15191 3.86631,7.78157 0.37522,4.95932 5.36716,9.3803 2.44703,-0.57098 2.6428,2.54492 4.94301,-2.62649 -0.53835,4.04577 1.95763,1.85974 -3.27903,7.2106 9.77182,1.46822 5.48136,4.35572 5.57924,-6.06865 3.05063,-1.10932 4.06208,1.01144 0.30995,7.99364 1.89238,3.34428 -1.35403,5.93814 2.2839,4.99195 -2.31652,6.78644 2.65911,1.54979 2.08813,4.64936 -5.38347,2.8875 -0.50572,4.11102 -3.88263,4.07839 0.42415,2.54492 -1.37034,3.06694 4.37204,3.93157 3.47478,-1.72924 2.12077,1.90869 1.63135,-0.8483 1.82712,1.33771 5.74237,0.0163 v 0 l 6.28073,11.45212 -1.69662,6.60699 4.74725,-1.15826 0.48941,1.90869 2.7733,-0.19577 2.70805,4.27416 1.20721,-2.38178 1.61504,3.14851 6.23178,0.3589 2.18602,-1.35402 2.30021,1.40296 -2.59386,10.00021 -1.4519,13.9481 -5.33454,2.33284 -3.01801,-1.02776 -0.53834,1.4356 5.95444,4.25783 1.87606,4.48623 2.36547,1.5661 -0.84831,2.20234 2.62649,7.47161 3.63792,0.91356 -3.7358,3.24639 -5.35085,1.04407 -0.70148,1.77818 v 0 l -3.11589,-3.23009 -4.14365,2.33284 -13.23029,-0.6036 -7.78157,1.0767 -2.83856,-2.10445 -3.85,-0.14682 -8.71144,4.24152 -2.47966,-2.93644 -7.79789,2.85487 h -4.95932 l -13.27923,-9.96758 -8.49937,-2.80593 -2.46335,1.69661 -5.04089,-0.66886 -8.62987,3.86631 h -10.99534 l -8.27097,9.54344 -3.39322,7.35741 -11.28899,1.79449 -0.34258,-0.99512 2.62648,-2.21865 -0.11419,-3.63792 -1.02776,-2.56123 -3.32796,-1.53348 -5.98708,1.6803 -3.21377,3.11589 -2.30021,-0.8483 -2.16971,1.19089 -14.38856,0.42415 -4.55148,-1.63136 -3.01801,1.33771 -1.28877,4.682 -2.20233,2.78961 -3.70318,0.32628 1.37034,6.03601 -1.25614,4.99195 4.82881,5.00826 -0.76674,5.92183 -4.07839,4.79618 -4.63305,0.60361 -3.93157,-1.06039 -3.99682,1.69661 -1.82712,-1.74555 -3.00169,-0.44046 0.11419,-2.0392 -2.64279,-2.85487 -8.76038,7.3411 v 0 l -0.34259,-3.93157 -1.61504,-0.47309 -0.94619,-2.92013 -5.4161,-5.69343 0.16314,-5.44873 -4.60043,-1.82712 -0.27733,-2.05551 -3.45847,-1.06038 -5.72606,-4.27415 0.50572,-7.56949 -0.84831,-1.06038 2.2839,-4.61674 -2.7733,-3.93157 4.11101,-7.27585 -3.86631,-4.91038 -3.9642,0.91356 -7.43898,-2.31652 -6.36229,1.46822 -1.35402,-1.76187 0.32627,-1.74555 -2.25127,0.73411 -2.41441,5.15509 -3.55636,0.8483 -2.4144,2.21865 -8.51568,-0.78305 -2.30021,-2.51229 v -1.85975 l 6.11758,-1.82712 1.925,-4.6983 3.65424,-2.36547 6.3786,-1.58241 3.68687,-5.93814 1.97394,-1.12563 -0.55466,-6.31335 1.27245,-4.89407 -2.56123,-4.06208 -5.46504,-1.85974 4.38835,-4.17627 1.38665,-3.0017 -2.34915,-2.23496 -0.44047,-4.53517 -5.3019,-1.8108 -0.16314,-2.67542 -5.35085,-2.16971 -7.73262,-6.19915 -0.50572,-3.71949 -2.96907,-2.15339 -1.17458,-7.01483 -2.54491,-2.69174 0.16313,-2.82225 -8.92351,-11.92521 0.11419,-3.54004 -8.72775,0.17945 v 0 l 6.90063,-2.10445 4.22521,-5.85657 2.38178,-1.30508 -0.83199,-1.4356 2.90382,-3.94788 -1.87606,-7.0964 1.14195,-0.92987 4.61673,2.33284 6.57437,-4.53517 2.75699,-7.19428 1.90869,-0.27733 0.53834,-1.77818 2.62649,-1.41928 0.44046,-2.00657 3.98051,-2.8875 -1.89237,-6.49279 1.97394,-2.54492 3.68686,-1.89237 4.99195,-0.53835 0.99513,3.23009 2.83856,0.4894 10.68538,-3.1322 1.79449,1.95763 3.67055,-0.37521 5.39979,3.26271 h 2.41441 l 4.86144,-4.68199 8.77669,-3.50742 11.10954,1.58242 7.48792,-1.25615 5.54661,4.60043 -1.77818,4.89406 1.12564,1.64767 -1.45191,6.01971 2.2839,0.75042 2.56123,5.46504 -0.65254,2.59386 -2.70805,2.47966 1.85974,4.60042 3.2464,-0.91356 6.41123,0.79937 2.02288,-1.79449 0.99513,-3.16483 3.16483,0.42415 0.61991,-1.22352 2.90382,0.34259 3.31165,3.19745 2.07182,0.27734 2.90382,-2.18602 2.1697,1.69661 4.30678,-2.39809 2.62648,0.8483 1.28877,-1.3214 -1.72923,-5.59555 3.21377,-3.99682 2.28389,0.58729 1.14195,-1.6803 0.48941,-2.33284 -1.50085,-2.67542 2.16971,-3.39322 -0.76674,-1.33771 1.28877,-1.10933 -0.0652,-4.2089 4.86144,-5.39978 8.15678,-1.22352 1.58241,1.8108 7.32479,-1.68029 0.65254,-4.55148 1.50085,-1.45191 -0.29364,-2.46335 5.08983,-1.89237 2.46334,-5.15509 4.87776,-1.27245 0.57097,-3.73581 z"
     class="land"
     title="Žilinský"
     id="SK-ZI"
     inkscape:connector-curvature="0"
     style="fill:#d49377;fill-opacity:1;stroke:#ffffff;stroke-width:0.815678;stroke-opacity:1" />
  <g
     id="stadiums"
     data-country="slovakia"
     data-circle-radius="6"
     data-circle-colors="#a149be,#bea149"
     transform="matrix(1.631356,0,0,1.631356,-0.75767716,-11.66629)" />
</svg>
