<?xml version="1.0" encoding="UTF-8" standalone="no"?>
<?xml-stylesheet type="text/css" href="/styles/home.css"?><!-- https://www.amcharts.com/svg-maps -->

<svg
   version="1.1"
   id="map-slovakia"
   viewBox="0 0 999.99999 999.99999"
   width="1000"
   height="1000"
   class=""
   sodipodi:docname="slovakia.svg"
   inkscape:version="1.3.1 (91b66b0783, 2023-11-16)"
   xmlns:inkscape="http://www.inkscape.org/namespaces/inkscape"
   xmlns:sodipodi="http://sodipodi.sourceforge.net/DTD/sodipodi-0.dtd"
   xmlns="http://www.w3.org/2000/svg"
   xmlns:svg="http://www.w3.org/2000/svg"
   xmlns:rdf="http://www.w3.org/1999/02/22-rdf-syntax-ns#"
   xmlns:cc="http://creativecommons.org/ns#"
   xmlns:dc="http://purl.org/dc/elements/1.1/">
  <metadata
     id="metadata17">
    <rdf:RDF>
      <cc:Work
         rdf:about="">
        <dc:format>image/svg+xml</dc:format>
        <dc:type
           rdf:resource="http://purl.org/dc/dcmitype/StillImage" />
        <dc:title />
      </cc:Work>
    </rdf:RDF>
  </metadata>
  <sodipodi:namedview
     pagecolor="#ffffff"
     bordercolor="#666666"
     borderopacity="1"
     objecttolerance="10"
     gridtolerance="10"
     guidetolerance="10"
     inkscape:pageopacity="0"
     inkscape:pageshadow="2"
     inkscape:window-width="1920"
     inkscape:window-height="1106"
     id="namedview15"
     showgrid="false"
     showguides="true"
     inkscape:guide-bbox="true"
     inkscape:zoom="0.25"
     inkscape:cx="340"
     inkscape:cy="-166"
     inkscape:window-x="-11"
     inkscape:window-y="-11"
     inkscape:window-maximized="1"
     inkscape:current-layer="map-slovakia"
     inkscape:showpageshadow="2"
     inkscape:pagecheckerboard="0"
     inkscape:deskcolor="#d1d1d1">
    <sodipodi:guide
       position="829.48331,500"
       orientation="0,1"
       id="guide824"
       inkscape:locked="false"
       inkscape:label=""
       inkscape:color="rgb(0,0,255)" />
    <sodipodi:guide
       position="459.83984,747.38281"
       orientation="0,-1"
       id="guide1"
       inkscape:locked="false" />
  </sodipodi:namedview>
  <defs
     id="defs4">
    <style
       type="text/css"
       id="style2">
         .land {
            fill: #d49377;
            fill-opacity: 1;
            stroke: white;
            stroke-opacity: 1;
            stroke-width: 0.5;
         }

         .rectangle:hover {
            fill: #bdbdbd;
            cursor: pointer;
         }
      </style>
    <!-- <amcharts:ammap projection="mercator" leftLongitude="16.834461" topLatitude="49.614162" rightLongitude="22.568332" bottomLatitude="47.731105"></amcharts:ammap> -->
    <!-- All areas are listed in the line below. You can use this list in your script. -->
    <!--{id:"SK-BC"},{id:"SK-BL"},{id:"SK-KI"},{id:"SK-NI"},{id:"SK-PV"},{id:"SK-TA"},{id:"SK-TC"},{id:"SK-ZI"}-->
  </defs>
  <path
     d="m 347.24715,484.03196 8.76447,-7.34452 2.64402,2.8562 -0.11424,2.04015 3.00309,0.44067 1.82797,1.74636 3.99868,-1.6974 3.9334,1.06088 4.63521,-0.60389 4.0803,-4.79841 0.76709,-5.9246 -4.83106,-5.01059 1.25673,-4.99428 -1.37098,-6.03882 3.70491,-0.32644 2.20335,-2.79091 1.28937,-4.68418 3.01942,-1.33833 4.5536,1.63212 14.39527,-0.42435 2.17072,-1.19145 2.30129,0.8487 3.21527,-3.11734 5.98987,-1.68109 3.32951,1.5342 1.02824,2.56242 0.11424,3.63962 -2.6277,2.21968 0.34274,0.99559 11.29425,-1.79533 3.3948,-7.36084 8.27483,-9.54789 h 11.00047 l 8.63389,-3.86811 5.04324,0.66917 2.4645,-1.6974 8.50333,2.80724 13.28543,9.97222 h 4.96163 l 7.80152,-2.8562 2.48082,2.93781 8.7155,-4.2435 3.8518,0.14689 2.83988,2.10543 7.7852,-1.0772 13.23646,0.60388 4.14558,-2.33392 3.11734,3.23159 v 0 l 8.61758,0.79973 1.99118,2.49715 14.5748,2.12175 3.16631,-2.17071 2.49713,-4.22718 3.59067,3.36215 4.65152,0.31011 4.55361,5.02691 2.41553,0.7671 v 0 l -2.28496,1.04455 -1.77901,6.43054 -7.23027,6.64272 0.34274,5.98987 -1.45258,1.41994 1.37097,1.07719 0.99559,4.27615 -4.03133,2.61138 -0.21216,1.58316 0.45699,3.44377 1.38729,0.42434 0.27746,5.1575 3.37849,-0.47332 7.16499,6.12044 6.26733,11.19632 2.15439,1.76268 -1.66476,3.16631 1.48523,7.06707 v 0 l -0.86502,2.25232 v 0 l 3.26423,1.59947 3.73754,-0.79974 1.0772,2.41554 2.20336,0.35906 -0.97927,5.25541 -3.75387,7.3935 0.0163,3.00309 -3.63962,4.58625 -0.88134,4.74946 1.53419,2.35025 0.48964,4.42303 2.72563,-0.3917 0.45699,3.65594 5.90826,-0.16322 3.52538,-1.12616 3.96604,-5.0106 1.99118,-0.60388 1.06088,3.36216 5.38598,-1.51787 1.56684,2.38289 v 0 l 1.04455,2.26865 -3.7049,2.20336 -1.35466,3.03573 -4.21087,4.03133 0.13058,6.67535 -2.52978,3.42745 1.17511,4.06397 -7.36084,8.92767 0.96295,1.41995 -1.41994,2.35025 -4.94531,4.7821 -2.04015,6.98546 -3.23159,-0.13056 0.8487,2.17071 -4.58624,0.78341 -7.88313,-4.88002 -2.38289,0.83238 1.41994,1.48522 -1.22409,2.43185 -4.43936,0.34275 0.7671,2.49713 -5.23909,0.73446 -7.29557,-1.27306 0.83239,2.66035 -1.20778,4.74947 -7.88312,7.50774 -1.64844,-0.24483 -1.41994,1.46891 1.37098,2.236 -5.19013,3.9334 -2.92149,-2.39921 -4.65153,1.30569 -2.54611,2.36658 -2.23599,-0.71814 -1.94222,3.16631 -2.26864,0.39171 -2.52978,4.9453 -6.51215,1.95855 2.43186,-5.72873 -2.51346,-4.79842 -6.708,-1.14248 -0.83239,-2.1544 -2.07278,4.11293 -3.78651,-1.97486 -2.44818,2.10543 -0.16321,1.63212 -2.12176,0.39171 -1.92589,-2.72564 3.91708,-4.96163 -1.17512,-2.80725 -1.86061,0.42436 -4.83107,-5.36966 -2.52978,-0.65286 -1.82797,0.2285 -1.99118,3.2316 -5.17381,-0.35907 -2.62771,-2.44817 -1.73005,-6.78961 -3.83547,0.29378 -2.92148,-2.95414 -8.97665,8.50334 -9.44995,3.83548 0.34274,3.36215 -3.63962,4.53729 0.8487,5.51655 -3.05206,3.05206 0.5386,4.25983 -2.07279,4.015 0.65285,2.05647 -3.41113,1.33833 -0.24481,2.93781 -2.4645,-1.76268 -0.0652,-2.59507 -1.97486,-0.24482 -3.60698,3.59066 -4.03133,1.14248 -2.51346,-2.30128 -2.236,1.28937 -7.14868,-0.96295 -5.10852,0.70181 -4.35775,3.59066 -3.96604,1.09352 -2.21968,4.16189 -3.91708,-2.46449 -5.43495,1.14248 -9.38467,-3.7049 -2.48082,2.13806 -2.36656,0.17954 -4.24351,-1.89326 -3.91708,3.32953 -2.15439,-2.20336 -2.13808,0.63652 -3.49273,-3.13366 v 0 l -0.0326,-4.1619 1.77901,-0.83238 0.62021,-2.66035 3.60697,-2.57874 2.98677,-4.60257 -0.66916,-3.90077 -2.236,-3.41112 3.54169,-5.67976 -1.24041,-1.30569 1.53419,-1.6974 -3.86812,-2.66035 -2.61139,3.1663 -2.15439,0.70181 -1.87693,-0.70181 -6.98546,2.97045 -1.58315,-1.46891 -2.12176,3.49274 -3.06838,-3.01942 -1.04454,2.92148 1.28937,3.81916 -7.26293,-0.40803 -10.9515,-4.35775 -1.37097,3.10102 -2.83989,-0.53859 -0.91398,-5.05957 5.64712,-5.10852 -3.46009,-5.28806 1.59947,-2.07279 -2.3176,-2.83989 1.12616,-3.13366 4.73314,-2.54609 -0.0979,-5.19014 1.82797,-4.89635 -1.06087,-3.60698 -2.13807,-0.26114 -1.19145,-2.00749 -2.70932,-10.7883 -4.68417,-1.6974 -6.52846,-10.23337 -2.52978,0.0816 -5.56553,5.82665 0.42436,0.94663 -2.43185,1.74637 0.22849,2.17071 -1.71373,0.63652 0.13058,3.47642 -1.19145,1.22408 -3.3948,2.25232 -0.5386,-1.37097 -3.00309,-0.66918 -5.64712,3.73755 -4.70051,-1.64843 -5.97354,8.51964 -0.84871,-0.65285 -3.28054,-7.65462 -0.2285,-10.51083 5.14117,-12.40409 -1.64844,-5.10852 -2.38289,-0.13058 4.03133,-6.08779 -2.02383,0.24482 1.19145,-6.10411 -1.20778,-2.20336 -4.8637,-0.47332 -1.50154,0.60388 -0.3754,1.74636 -1.92589,-0.31009 0.71813,-3.42745 2.43185,-2.33393 -1.79532,-6.64271 v 0 l 0.81606,-5.95723 13.93827,1.15881 3.73755,-1.76269 0.55491,-4.68417 9.4826,-12.86109 10.96783,3.4601 -0.50596,-5.64713 4.66786,-3.78651 1.779,-7.7852 1.97486,-1.61579 2.80724,0.9303 2.33393,-1.58315 z"
     class="land"
     title="Banskobystrický"
     id="SK-BC"
     inkscape:connector-curvature="0"
     style="fill:#d49377;fill-opacity:1;stroke:#ffffff;stroke-width:0.816058;stroke-opacity:1" />
  <path
     d="m 20.17097,538.78947 4.863708,0.0326 0.342744,-2.80724 5.369664,-0.60388 5.532875,-2.28497 2.905168,1.09352 -1.664759,-4.21086 6.446861,3.88444 3.36216,-1.89326 1.158803,2.30128 1.566832,0.42436 20.336174,-5.72873 0.8487,-2.95414 4.015006,-2.52978 11.147358,-16.48437 4.896349,3.21527 2.21968,4.39039 -0.277461,4.25982 -2.790919,1.68108 -2.121751,3.36216 -3.34584,0.26114 -1.207766,4.32511 -6.43054,4.42304 -0.538598,1.64844 5.483912,3.90076 0.734452,3.23158 3.541693,0.55493 0.114248,2.30128 3.166307,1.50154 -2.464497,5.74506 -3.117342,1.07719 -1.53419,4.60258 2.448175,2.8562 4.586248,0.21218 2.839883,3.0847 5.418627,0.0489 -0.865022,5.01059 2.774594,0.39172 -0.08164,2.17071 2.350244,1.04456 2.30129,8.07897 0.94663,1.20776 2.80724,-1.09351 3.06838,2.90517 1.01191,3.96604 -2.5461,6.52847 -2.02383,0.89766 1.81166,1.8443 -0.96295,2.6277 1.81164,0.17954 3.81916,4.40671 2.59506,-1.14248 2.18704,2.49713 -5.67976,7.14867 -1.59948,6.10412 8.12794,3.55802 -2.07279,4.71681 2.236,2.07279 0.16322,4.19455 -3.08471,1.20776 -0.55492,1.37098 -2.88884,0.11424 -3.13366,4.76578 -4.79843,1.71373 -3.11734,-2.10543 -2.709323,-0.13057 0.146893,-3.75387 -3.182629,-1.04456 -2.105431,1.87694 0.750773,2.80724 1.779007,0.99559 -1.811649,3.13366 -1.844291,-0.47331 -4.700496,3.68859 -3.721227,1.22408 -3.035737,-1.06088 -0.04896,4.83107 1.305692,2.48082 3.394803,1.37098 1.779008,-2.13807 1.942218,2.26863 -2.415533,0.48964 -0.799737,4.97796 -3.378481,0.48963 -2.529781,-1.35465 1.305693,4.60256 -4.406715,2.23601 -2.513459,3.3948 -1.599475,0.0652 0.179533,1.71373 -1.893256,1.99117 v 0 l -0.783415,-2.41553 -2.93781,1.53419 -4.292467,-0.88134 -6.952817,3.32951 -3.492729,-3.72122 -2.513461,-0.0816 -2.431853,-2.43185 -3.655941,2.61139 -3.786511,-2.7746 3.019415,-3.55802 -3.166305,-2.49713 3.019415,-2.75827 -2.252321,-1.37098 1.060877,-1.95855 -0.946629,-1.32201 3.247912,-2.20336 -0.04896,-2.05647 -5.434949,-5.74505 1.044555,-0.68549 -2.089109,-4.91267 -4.880029,0.53861 -9.188817,-8.0137 0.08161,-4.27614 -2.366569,-9.0909 -2.464496,-3.60697 1.713722,-7.19764 -1.730043,-1.59947 -4.015007,-0.57125 -2.611386,-4.04764 0.71813,-1.12617 -0.865021,0.42436 -2.203358,-4.929 1.697401,-0.29377 -0.913985,-1.2241 1.452584,-2.8562 -6.2999701,-3.13367 0.097927,-2.75827 -3.5906566,0.17953 -1.6484378,-1.28937 -1.61579547,-7.42613 2.97045227,-0.57124 1.370978,-4.71682 -1.273051,-2.66035 1.9911824,-2.08911 -2.1380729,-7.65463 2.252321,-1.27304 0.065284,-3.05206 5.6471232,-5.10852 -0.293781,-2.85622 3.998685,-0.0979 -0.8487,-4.25983 1.55051,-0.32642 -0.212173,-1.68108 1.730043,-1.06088 2.203357,0.66918 z"
     class="land"
     title="Bratislavský"
     id="SK-BL"
     inkscape:connector-curvature="0"
     style="fill:#d49377;fill-opacity:1;stroke:#ffffff;stroke-width:0.816058;stroke-opacity:1" />
  <path
     d="m 597.76073,449.8228 2.90517,2.35024 2.43185,-0.66916 -0.53859,-5.22277 1.24041,-1.86062 0.0652,-6.708 2.56242,-2.31761 -2.36657,-4.34142 5.8593,-6.0878 8.74815,-4.68417 2.61138,-3.31321 5.84298,2.41554 11.53906,8.60126 2.72564,0.0816 -5.6308,-7.18132 4.7821,-6.05515 6.64272,9.0256 4.03132,2.17072 5.98987,-1.51787 5.92459,9.41731 5.02691,2.97045 -0.0652,-5.36966 1.97486,-1.6974 0.73445,-3.16631 5.33702,-1.79532 2.83988,3.558 3.55802,-2.69298 1.6974,2.67667 3.05207,-1.19145 -3.06838,-7.57302 0.88134,-0.71813 7.6383,4.12925 4.76578,-1.82797 -3.34584,3.3948 4.27615,2.48083 9.44996,-2.98678 3.85179,1.02824 2.8562,2.0891 2.87253,4.63521 4.99428,-3.75386 3.93339,6.56111 2.56243,1.50154 0.71813,4.60257 17.18619,2.7746 2.26864,-2.21968 4.21086,2.13808 1.55051,4.015 2.61139,2.43185 3.24791,-3.42744 4.35776,2.56242 0.47331,-1.53419 2.18704,0.0816 -0.098,2.95413 3.55801,-1.53419 0.88134,2.87252 -2.66035,9.09089 6.0878,4.96164 3.24791,-1.45258 -0.16322,-2.98678 2.3829,-2.13807 9.58052,-0.89766 2.13808,-3.52537 -0.0816,-8.22588 2.75827,-0.70181 3.39481,3.11735 0.52228,-5.76138 1.9259,5.89195 3.6233,0.65284 0.97926,-1.71372 5.05957,-2.64403 0.11424,4.74947 3.0847,1.66475 -1.68107,1.90958 0.26113,2.3176 4.56993,3.83548 1.45259,2.90516 -0.35907,2.92149 2.12175,3.63962 6.18572,1.6158 1.06088,2.75828 3.18263,-0.098 3.68858,2.20336 6.88753,-2.12176 4.63521,4.99428 3.96605,-0.6202 6.87121,-3.77019 1.59948,0.16321 0.0163,1.22409 0.93031,-4.04766 6.56111,-3.85179 0.32642,-2.82356 -1.82796,-2.74196 -1.12617,-16.2722 0.60388,-3.63962 1.79533,-1.27305 2.82356,0.34275 1.77901,3.28055 6.33262,-0.97927 8.81342,3.42744 4.63521,3.16632 3.03574,5.10852 5.98987,0.63652 1.22409,2.28497 13.00796,-1.63212 10.07017,0.17953 0.24481,-10.21705 4.55361,-2.74196 1.55051,-3.54169 5.04324,-5.12485 7.42613,2.02383 3.81916,13.39968 8.37275,-0.29379 3.59066,-1.45257 9.61316,2.56242 v 0 l -1.51786,7.80152 1.51786,3.29687 0.457,5.90826 -6.82225,8.74815 -0.78342,4.2435 3.08471,2.44817 0.0652,3.37849 -1.79533,2.02382 -1.99118,9.69477 -6.33262,2.04015 -9.04192,7.68727 -1.19145,4.14558 -2.44817,2.44817 -2.72564,0.0816 -2.43185,3.14998 h -1.97486 l -4.61889,9.401 -4.43935,36.70629 0.37538,6.26733 0.78342,1.9259 1.63212,-0.0652 -0.66917,2.04014 -3.3132,1.19145 0.86503,2.72564 -6.13676,1.22408 -0.84871,-1.40361 -1.61579,2.3992 -1.79533,-3.73754 -3.55802,2.35025 -4.86371,-3.91709 -2.12174,2.12176 -5.28806,2.12175 -0.3101,-0.94663 -6.18573,0.34275 -3.59065,1.90957 0.76709,1.19144 -0.89766,1.32202 -3.14999,-1.84429 -1.63212,0.97927 -0.44067,-1.33834 -0.0816,1.94222 -0.88134,-0.11425 -0.5386,-1.87693 -1.04456,1.27305 0.83238,1.77901 -1.41995,-1.01191 -2.59506,2.21967 -1.28937,-2.80723 -3.26423,-0.0163 -0.7671,7.60566 -1.81165,0.96295 -3.99868,-2.51346 -5.76138,0.39171 -1.43626,-1.45258 -5.61447,-0.91399 -2.39922,-1.50154 0.34275,-2.97045 -2.25232,-1.07721 0.99558,-1.74636 -0.75077,-1.41994 -3.54169,-2.08911 -1.97486,0.42435 -1.58316,-2.04015 -0.22849,-5.3207 -6.88753,-13.59553 0.0652,-6.28364 -1.40362,-1.28937 -0.32642,-3.32953 -1.45259,0.58757 -2.07278,-1.63212 -2.38289,2.70931 -2.20336,-0.32642 -0.91399,-1.68108 -3.21527,0.94662 -4.74946,-8.2585 0.0489,-2.75828 -2.56242,-1.41994 -0.24481,-1.35465 -2.1544,0.40802 -1.02823,-1.66476 -5.45127,-2.6277 -1.8443,-2.79092 -2.83987,1.64843 -1.33835,5.33702 -2.74194,-1.25672 -3.78652,1.35465 -9.67845,0.21218 -0.2285,-0.88134 -0.78341,1.27305 1.76268,0.53859 -2.07279,0.75078 1.22409,1.24041 -0.75078,1.99118 -1.19144,-0.17954 0.97928,1.90958 -2.08912,1.37098 0.24482,1.17512 -6.708,-0.73445 -4.84739,-3.59066 -1.22408,1.33834 -2.02382,-0.86503 -0.73446,1.43627 -1.37097,-0.39171 0.0326,1.63212 -3.86811,0.70181 -1.28937,1.64844 -1.24041,-1.14249 -3.90076,1.69741 -3.10102,5.92458 -1.9259,0.50595 -3.6233,-1.71372 -1.10984,-4.94531 -4.91267,-2.41553 -2.21968,1.17512 -0.0163,-1.33833 -6.67536,-1.3873 -3.68858,1.55051 -1.95854,2.35025 -1.25673,-1.48523 -2.95414,0.13057 -0.21217,-2.80724 -2.46449,-0.50596 -0.24482,-1.77901 -1.15881,0.9956 -2.82355,-5.14117 -8.99297,1.63211 -3.29687,-3.21527 v -3.55801 l -1.50155,0.40804 1.14248,-2.04016 -6.95282,2.36658 -11.99605,1.33833 -0.7671,1.09352 -3.72122,-1.09352 -5.05956,2.41554 -4.58625,0.13056 -1.76269,2.08911 -0.63653,-0.66917 -4.60256,3.16631 -2.49715,-0.0163 -2.56242,2.17071 -6.64271,-2.57874 -1.74636,4.30879 -3.05206,-2.36657 -1.90958,0.68548 -1.24041,1.50155 1.50155,3.94972 -0.47331,6.29998 -2.21969,0.47331 -1.8606,3.81915 -3.49273,2.236 v 0 l -1.56684,-2.38289 -5.38598,1.51787 -1.06088,-3.36216 -1.99118,0.60388 -3.96604,5.0106 -3.52538,1.12616 -5.90826,0.16322 -0.45699,-3.65594 -2.72563,0.3917 -0.48964,-4.42303 -1.53419,-2.35025 0.88134,-4.74946 3.63962,-4.58625 -0.0163,-3.00309 3.75387,-7.3935 0.97927,-5.2554 -2.20336,-0.35907 -1.0772,-2.41554 -3.73754,0.79974 -3.26423,-1.59947 v 0 l 0.86502,-2.25232 v 0 l -1.48523,-7.06707 1.66476,-3.16631 -2.15439,-1.76268 -6.26733,-11.19632 -7.16499,-6.12044 -3.37849,0.47332 -0.27746,-5.1575 -1.38729,-0.42434 -0.45699,-3.44377 0.21216,-1.58316 4.03133,-2.61138 -0.99559,-4.27615 -1.37097,-1.07719 1.45258,-1.41994 -0.34274,-5.98987 7.23027,-6.64272 1.77901,-6.43054 z"
     class="land"
     title="Košický"
     id="SK-KI"
     inkscape:connector-curvature="0"
     style="fill:#d49377;fill-opacity:1;stroke:#ffffff;stroke-width:0.816058;stroke-opacity:1" />
  <path
     d="m 199.41002,516.88647 3.28056,-2.41553 1.32201,0.26114 2.41553,-3.57434 -0.0816,-4.14558 -3.83548,-7.00177 -0.83238,-5.67977 2.33393,-2.39922 2.17071,-0.21217 1.95855,2.36657 8.11162,-0.17954 3.14998,1.81166 2.38289,-0.83238 5.79402,5.28805 2.23599,7.05075 2.70932,2.62771 2.3176,-1.27306 6.46318,2.05647 4.22718,9.38467 -0.50595,3.06839 -3.94972,3.81915 2.67667,2.20335 -1.41995,3.28056 5.71242,0.7671 1.90958,1.51787 5.79401,8.25851 1.94221,5.77769 5.17381,1.56683 1.87694,-2.88885 2.75827,4.19454 0.73446,-2.5461 8.487,-7.19763 4.66786,-2.18704 4.73314,-4.42304 3.18263,-0.16321 v 0 l 1.79532,6.64271 -2.43185,2.33393 -0.71813,3.42745 1.92589,0.31009 0.3754,-1.74636 1.50154,-0.60388 4.8637,0.47332 1.20778,2.20336 -1.19145,6.10411 2.02383,-0.24482 -4.03133,6.08779 2.38289,0.13058 1.64844,5.10852 -5.14117,12.40409 0.2285,10.51083 3.28054,7.65462 0.84871,0.65285 5.97354,-8.51964 4.70051,1.64843 5.64712,-3.73755 3.00309,0.66918 0.5386,1.37097 3.3948,-2.25232 1.19145,-1.22408 -0.13058,-3.47642 1.71373,-0.63652 -0.22849,-2.17071 2.43185,-1.74637 -0.42436,-0.94663 5.56553,-5.82665 2.52978,-0.0816 6.52846,10.23337 4.68417,1.6974 2.70932,10.7883 1.19145,2.00749 2.13807,0.26114 1.06087,3.60698 -1.82797,4.89635 0.0979,5.19014 -4.73314,2.54609 -1.12616,3.13366 2.3176,2.83989 -1.59947,2.07279 3.46009,5.28806 -5.64712,5.10852 0.91398,5.05957 2.83989,0.53859 1.37097,-3.10102 10.9515,4.35775 7.26293,0.40803 -1.28937,-3.81916 1.04454,-2.92148 3.06838,3.01942 2.12176,-3.49274 1.58315,1.46891 6.98546,-2.97045 1.87693,0.70181 2.15439,-0.70181 2.61139,-3.1663 3.86812,2.66035 -1.53419,1.6974 1.24041,1.30569 -3.54169,5.67976 2.236,3.41112 0.66916,3.90077 -2.98677,4.60257 -3.60697,2.57874 -0.62021,2.66035 -1.77901,0.83238 0.0326,4.1619 v 0 l -5.58184,5.4023 -8.03001,-0.88134 -5.0922,1.81165 -3.41112,-1.76268 -0.79975,2.51346 -4.92898,0.76708 -1.89327,-1.25672 -2.17071,1.22409 -1.51786,2.38289 1.04455,1.79533 -2.0075,2.26863 -0.11425,7.49143 -0.44067,-0.84871 -0.79974,1.17513 0.78342,0.24481 -2.04015,1.61579 -4.99428,-0.66916 -2.66035,3.55801 3.42745,5.46759 -1.56683,0.2285 1.14248,5.10853 -2.85621,3.34584 1.35466,2.72563 -0.94663,6.6264 0.35907,3.558 4.99428,1.15881 5.27173,3.7049 1.46891,3.9334 3.41112,1.99119 -0.34274,2.57874 -9.61317,-1.41994 -9.58053,2.64403 -2.15439,6.33262 -10.72301,6.69167 -8.24218,1.27305 -8.61758,-2.07279 -4.63521,0.21218 -7.83416,3.19895 -7.67096,-3.19895 -6.26732,3.01942 -21.73979,5.58183 -11.31057,-2.75828 -9.35203,0.19587 -17.08826,-3.96605 -7.71991,-0.0326 -4.7005,2.64403 -5.41863,-2.92149 -4.47199,3.37849 -8.47069,1.32201 -6.75696,-1.73004 -12.7142,1.77901 -3.75385,-2.39921 -9.30307,-2.10543 -2.87252,-3.32953 v 0 l 3.10101,-2.9378 1.71373,-7.68728 3.14998,-0.0816 3.75388,2.02383 1.41993,-3.10103 4.71681,-3.10102 -0.0489,-7.06707 1.89326,-3.81915 3.83547,-1.28937 3.01942,-4.53728 4.96163,-2.87253 2.26865,-2.77459 -4.04765,-4.01502 1.9259,-3.34584 -1.06089,-6.46318 1.24041,-6.4795 -2.07279,-3.86811 -0.27745,-5.12485 2.56242,-1.97486 -0.68549,-4.01501 -6.57743,-3.63962 1.87694,-2.49714 -1.17513,-2.0075 -4.472,3.41112 -1.86061,-0.34275 -0.75078,-3.558 2.0728,-5.12485 -0.24483,-3.49273 -4.81474,-5.56552 -6.47949,-4.03132 4.14556,-3.01942 2.31761,-0.0816 1.40362,2.05647 1.40362,0.0489 2.35024,-2.90516 -3.08469,-6.10413 5.38599,-0.13056 1.92589,1.74637 0.76709,-1.74637 5.63081,-3.67226 -0.14689,-5.09221 -4.71682,-1.50154 -1.97486,-3.2316 0.57125,-1.77901 1.61579,0.96295 2.02382,-1.30569 -1.14248,-2.74196 2.70931,-4.35775 -0.99559,-2.28496 -3.77019,-0.3917 -1.20776,-2.43186 2.39921,-1.94222 0.47331,-6.78961 1.90958,-1.48522 -0.75077,-3.42745 2.66035,-2.05647 -0.73446,-1.10983 1.68108,-0.88134 4.91268,-8.68287 2.70931,-7.83415 1.84429,-2.95414 2.59506,-0.0489 -0.50596,-1.58315 2.0728,-3.10103 -9.84167,-10.90254 -7.26291,-2.49713 -1.9259,-1.10984 -0.16322,-1.6974 3.01942,-2.38289 1.61579,-8.48702 3.16631,-3.80282 1.02824,-4.06397 4.71681,2.56242 4.8637,-0.39171 -0.45698,-1.77901 2.17071,-0.17953 2.18704,-2.0075 z"
     class="land"
     title="Nitriansky"
     id="SK-NI"
     inkscape:connector-curvature="0"
     style="fill:#d49377;fill-opacity:1;stroke:#ffffff;stroke-width:0.816058;stroke-opacity:1" />
  <path
     d="m 779.80702,296.68129 7.03443,-0.45699 4.43936,4.8637 5.4023,-0.29377 5.4023,5.54919 7.26293,-0.55491 3.0847,-4.11294 4.60256,3.10102 -0.11424,-2.10543 2.0891,-2.49714 3.57434,0.52228 2.44818,-2.17072 4.27614,2.05647 7.31188,-3.81915 1.99119,4.52096 2.59507,1.99118 0.0489,1.71372 3.99868,1.59948 3.14998,-2.10543 3.80283,1.76269 0.81607,3.68858 1.55051,-0.0652 4.88002,4.09661 0.78343,4.76578 1.56683,2.38289 2.17071,0.63653 -0.2285,-3.70491 1.51787,-2.693 4.97796,-3.18262 2.70931,-0.17953 3.16631,5.89193 2.30128,-1.04454 1.95854,0.58756 3.44377,5.46759 2.51346,-0.88134 2.36656,1.97486 5.41864,-0.50596 3.93339,9.97223 8.34012,8.07897 -0.16321,4.43936 1.99118,1.99119 -1.64844,7.96472 2.693,2.20336 16.51702,4.68417 0.3101,2.0728 7.73624,4.48832 3.59065,-2.67668 2.39921,0.39172 1.82797,3.41112 -1.45259,4.66785 3.91709,0.24482 12.19191,4.37408 2.67667,-2.75829 5.8593,0.40803 3.73754,4.32512 0.32642,2.30128 5.48392,5.36966 6.03884,-1.12616 6.34892,4.52096 8.47069,-2.25232 4.09661,2.35025 -2.20336,2.28496 -0.37538,13.08957 -2.30128,1.94223 1.41994,3.81915 -4.30879,2.61139 -3.37848,-0.78342 -4.03133,1.95855 -0.79974,4.21086 -8.63389,12.45304 1.12616,2.25232 -1.82798,9.3194 -4.1619,2.38288 -2.12175,3.16631 v 0 l -9.61316,-2.56242 -3.59066,1.45257 -8.37275,0.29379 -3.81916,-13.39968 -7.42613,-2.02383 -5.04324,5.12485 -1.55051,3.54169 -4.55361,2.74196 -0.24481,10.21705 -10.07017,-0.17953 -13.00796,1.63212 -1.22409,-2.28497 -5.98987,-0.63652 -3.03574,-5.10852 -4.63521,-3.16632 -8.81342,-3.42744 -6.33262,0.97927 -1.77901,-3.28055 -2.82356,-0.34275 -1.79533,1.27305 -0.60388,3.63962 1.12617,16.2722 1.82796,2.74196 -0.32642,2.82356 -6.56111,3.85179 -0.93031,4.04766 -0.0163,-1.22409 -1.59948,-0.16321 -6.87121,3.77019 -3.96605,0.6202 -4.63521,-4.99428 -6.88753,2.12176 -3.68858,-2.20336 -3.18263,0.0979 -1.06088,-2.75828 -6.18572,-1.6158 -2.12175,-3.63962 0.35907,-2.92149 -1.45259,-2.90516 -4.56993,-3.83548 -0.26113,-2.3176 1.68107,-1.90958 -3.0847,-1.66475 -0.11424,-4.74947 -5.05957,2.64403 -0.97926,1.71372 -3.6233,-0.65284 -1.9259,-5.89195 -0.52228,5.76138 -3.39481,-3.11735 -2.75827,0.70181 0.0816,8.22588 -2.13808,3.52537 -9.58052,0.89766 -2.3829,2.13807 0.16322,2.98678 -3.24791,1.45258 -6.0878,-4.96164 2.66035,-9.09089 -0.88134,-2.87252 -3.55801,1.53419 0.0979,-2.95413 -2.18704,-0.0816 -0.47331,1.53419 -4.35776,-2.56242 -3.24791,3.42744 -2.61139,-2.43185 -1.55051,-4.015 -4.21086,-2.13808 -2.26864,2.21968 -17.18619,-2.7746 -0.71813,-4.60257 -2.56243,-1.50154 -3.93339,-6.56111 -4.99428,3.75386 -2.87253,-4.63521 -2.8562,-2.0891 -3.85179,-1.02824 -9.44996,2.98678 -4.27615,-2.48083 3.34584,-3.3948 -4.76578,1.82797 -7.6383,-4.12925 -0.88134,0.71813 3.06838,7.57302 -3.05207,1.19145 -1.6974,-2.67667 -3.55802,2.69298 -2.83988,-3.558 -5.33702,1.79532 -0.73445,3.16631 -1.97486,1.6974 0.0652,5.36966 -5.02691,-2.97045 -5.92459,-9.41731 -5.98987,1.51787 -4.03132,-2.17072 -6.64272,-9.0256 -4.7821,6.05515 5.6308,7.18132 -2.72564,-0.0816 -11.53906,-8.60126 -5.84298,-2.41554 -2.61138,3.31321 -8.74815,4.68417 -5.8593,6.0878 2.36657,4.34142 -2.56242,2.31761 -0.0652,6.708 -1.24041,1.86062 0.53859,5.22277 -2.43185,0.66916 -2.90517,-2.35024 v 0 l -2.41553,-0.7671 -4.55361,-5.02691 -4.65152,-0.31011 -3.59067,-3.36215 -2.49713,4.22718 -3.16631,2.17071 -14.5748,-2.12175 -1.99118,-2.49715 -8.61758,-0.79973 v 0 l 0.70181,-1.77901 5.35335,-1.04455 3.73754,-3.24791 -3.63962,-0.91398 -2.62771,-7.4751 0.8487,-2.20337 -2.36657,-1.56683 -1.87693,-4.48832 -5.95722,-4.25981 0.53859,-1.43627 3.01942,1.02824 5.33702,-2.33393 1.45258,-13.9546 2.59507,-10.00488 -2.30128,-1.40361 -2.18704,1.35465 -6.23469,-0.35907 -1.61579,-3.14998 -1.20777,2.38289 -2.70932,-4.27615 -2.77459,0.19586 -0.48964,-1.90958 -4.74946,1.1588 1.69741,-6.61007 -6.28366,-11.45746 v 0 l 4.99428,-4.70049 0.37539,-4.21086 3.4764,-1.5342 3.8518,0.34275 6.96914,0.89766 3.94973,3.46009 -0.17953,1.56683 2.30128,2.74196 8.7155,5.79401 2.77459,0.0653 0.19586,-6.92017 2.57875,-4.25983 -1.02824,-3.88444 5.20645,-9.84167 0.60389,-5.76136 3.28055,-5.3207 2.28497,2.98677 2.57874,-2.51346 -0.71813,-3.49273 2.15439,-0.14689 1.64844,-3.60698 4.929,-2.93781 1.6974,1.74637 1.94221,-1.37098 4.52097,0.99559 2.20336,-1.28937 5.89193,2.00751 1.17513,-1.38731 0.29378,-7.6383 1.35466,-3.19895 -2.75828,0.17953 1.22408,-3.28056 2.20336,-0.55491 4.63521,1.35466 1.97486,-2.48082 1.25674,4.19454 1.94221,0.34275 3.19895,-1.22409 1.25673,-3.06839 2.57875,2.80724 -0.26114,-5.50023 2.70931,1.4689 -0.0489,-0.91398 4.34143,-0.13057 5.85929,3.14999 0.84871,2.97045 11.4901,4.34143 0.96295,-1.71373 1.73004,0.29379 1.74636,-1.74636 2.82357,-7.96473 5.46759,4.56993 8.40541,-5.28807 5.27172,1.77901 2.41554,-0.52227 0.48964,3.41112 2.48081,1.17512 -1.63212,2.13807 2.10543,1.9259 -0.0979,3.49273 4.35775,-0.93031 -0.24481,3.28056 2.87251,-0.24482 1.79534,1.33834 -0.63653,1.19145 -1.19144,-1.59948 -0.32642,4.19454 2.75827,-0.91399 2.36657,3.3948 1.71372,0.0816 3.11735,-3.3948 1.66475,-0.16322 3.36216,5.04324 -1.68107,2.21969 5.20644,-1.84429 1.40363,5.04324 3.11734,2.79091 5.67977,-3.00309 4.94531,0.13057 0.97927,-1.33833 -1.3873,-3.96605 3.29688,-1.68109 0.73445,-3.18262 5.28806,-4.79843 2.44817,0.75078 1.82797,-0.8487 1.33833,1.51787 3.26424,-1.46891 1.95854,-2.82355 -6.03883,-5.2391 0.0163,-1.68108 -2.70931,-0.96295 -0.9956,-3.06838 0.73446,-1.17513 7.67094,-2.30128 2.83988,1.63212 2.12176,-3.14999 4.65153,2.26864 4.7821,4.74946 0.21218,1.82798 4.81474,-0.0653 3.21527,-3.83547 -0.57123,-2.38289 1.6974,-3.03574 1.33833,0.66917 4.24351,-3.50905 1.04454,-3.26423 z"
     class="land"
     title="Prešovský"
     id="SK-PV"
     inkscape:connector-curvature="0"
     style="fill:#d49377;fill-opacity:1;stroke:#ffffff;stroke-width:0.816058;stroke-opacity:1" />
  <path
     d="m 63.732163,449.87176 13.905634,3.77019 4.945314,4.81474 2.692992,-0.75077 0.930307,2.30128 6.29997,5.7777 2.480817,-1.40362 3.509051,1.27305 v 0 l -1.289372,5.53287 -6.251007,3.24792 -0.212176,1.61579 2.725636,2.18704 2.692992,-0.24482 5.859299,-4.58625 0.53861,3.24791 7.4098,2.83989 2.04015,3.94972 2.28497,0.7671 0.0979,5.14116 -2.4645,0.86502 -1.61579,4.76579 0.97927,4.60256 1.61579,0.26114 1.4689,5.66345 5.6961,10.3313 1.20776,-1.33834 1.81166,0.78342 0.45699,-1.86062 3.81915,-3.34584 3.13366,1.40363 7.39349,-1.46891 -1.1588,-3.0031 0.58756,-2.35024 1.27305,-0.0489 0.96295,1.79533 3.00309,0.2285 -0.19585,-1.43626 6.51215,-4.11294 1.25672,0.26114 1.3057,-1.77901 3.83547,3.00309 3.46009,5.27174 7.21395,3.47641 6.61007,-0.17953 0.35907,-3.73755 2.67667,0.26115 1.59947,5.07587 1.17513,-1.4689 0.35906,1.63212 0.88135,-1.71373 1.86061,2.52979 12.09398,1.90957 2.62771,2.31761 3.21527,-1.06088 v 0 l -0.3101,4.86371 -2.18704,2.0075 -2.17071,0.17953 0.45698,1.77901 -4.8637,0.39171 -4.71681,-2.56242 -1.02824,4.06397 -3.16631,3.80282 -1.61579,8.48702 -3.01942,2.38289 0.16322,1.6974 1.9259,1.10984 7.26291,2.49713 9.84167,10.90254 -2.0728,3.10103 0.50596,1.58315 -2.59506,0.0489 -1.84429,2.95414 -2.70931,7.83415 -4.91268,8.68287 -1.68108,0.88134 0.73446,1.10983 -2.66035,2.05647 0.75077,3.42745 -1.90958,1.48522 -0.47331,6.78961 -2.39921,1.94222 1.20776,2.43186 3.77019,0.3917 0.99559,2.28496 -2.70931,4.35775 1.14248,2.74196 -2.02382,1.30569 -1.61579,-0.96295 -0.57125,1.77901 1.97486,3.2316 4.71682,1.50154 0.14689,5.09221 -5.63081,3.67226 -0.76709,1.74637 -1.92589,-1.74637 -5.38599,0.13056 3.08469,6.10413 -2.35024,2.90516 -1.40362,-0.0489 -1.40362,-2.05647 -2.31761,0.0816 -4.14556,3.01942 6.47949,4.03132 4.81474,5.56552 0.24483,3.49273 -2.0728,5.12485 0.75078,3.558 1.86061,0.34275 4.472,-3.41112 1.17513,2.0075 -1.87694,2.49714 6.57743,3.63962 0.68549,4.01501 -2.56242,1.97486 0.27745,5.12485 2.07279,3.86811 -1.24041,6.4795 1.06089,6.46318 -1.9259,3.34584 4.04765,4.01502 -2.26865,2.77459 -4.96163,2.87253 -3.01942,4.53728 -3.83547,1.28937 -1.89326,3.81915 0.0489,7.06707 -4.71681,3.10102 -1.41993,3.10103 -3.75388,-2.02383 -3.14998,0.0816 -1.71373,7.68728 -3.10101,2.9378 v 0 l -10.51084,-8.06265 -4.53728,-5.48391 -5.95722,1.76268 -1.73005,-0.66917 -3.90076,-8.78078 -3.1663,-3.80283 -4.3904,-0.39172 -7.40981,-4.11292 -5.05956,-10.91886 -16.28853,-17.57791 -11.098393,-0.3917 -3.003095,-1.27305 -0.995592,-3.24792 v 0 l 1.893256,-1.99117 -0.179533,-1.71373 1.599475,-0.0652 2.513459,-3.3948 4.406715,-2.23601 -1.305693,-4.60256 2.529781,1.35465 3.378481,-0.48963 0.799737,-4.97796 2.415533,-0.48964 -1.942218,-2.26863 -1.779008,2.13807 -3.394803,-1.37098 -1.305692,-2.48082 0.04896,-4.83107 3.035737,1.06088 3.721227,-1.22408 4.700496,-3.68859 1.844291,0.47331 1.811649,-3.13366 -1.779007,-0.99559 -0.750773,-2.80724 2.105431,-1.87694 3.182629,1.04456 -0.146893,3.75387 2.709323,0.13057 3.11734,2.10543 4.79843,-1.71373 3.13366,-4.76578 2.88884,-0.11424 0.55492,-1.37098 3.08471,-1.20776 -0.16322,-4.19455 -2.236,-2.07279 2.07279,-4.71681 -8.12794,-3.55802 1.59948,-6.10412 5.67976,-7.14867 -2.18704,-2.49713 -2.59506,1.14248 -3.81916,-4.40671 -1.81164,-0.17954 0.96295,-2.6277 -1.81166,-1.8443 2.02383,-0.89766 2.5461,-6.52847 -1.01191,-3.96604 -3.06838,-2.90517 -2.80724,1.09351 -0.94663,-1.20776 -2.30129,-8.07897 -2.350244,-1.04456 0.08164,-2.17071 -2.774594,-0.39172 0.865022,-5.01059 -5.418627,-0.0489 -2.839883,-3.0847 -4.586247,-0.21218 -2.448176,-2.8562 1.53419,-4.60258 3.117342,-1.07719 2.464497,-5.74506 -3.166307,-1.50154 -0.114248,-2.30128 -3.541693,-0.55493 -0.734452,-3.23158 -5.483912,-3.90076 0.538598,-1.64844 6.43054,-4.42304 1.207766,-4.32511 3.34584,-0.26114 2.121751,-3.36216 2.790919,-1.68108 0.277461,-4.25982 -2.21968,-4.39039 -4.896349,-3.21527 -11.147358,16.48437 -4.015006,2.52978 -0.8487,2.95414 -20.336174,5.72873 -1.566832,-0.42436 -1.158803,-2.30128 -3.36216,1.89326 -6.446861,-3.88444 1.664759,4.21086 -2.905168,-1.09352 -5.532875,2.28497 -5.369664,0.60388 -0.342744,2.80724 -4.863708,-0.0326 v 0 l -0.571241,-2.51345 1.517868,-0.86502 -2.872525,-6.20205 1.158803,-0.68549 -0.930306,-0.79973 -0.40803,-6.72433 1.158804,-1.10984 0.08161,-3.36215 2.415532,-1.46891 2.758278,-4.91267 -1.289372,-0.88135 1.844292,-0.34274 -0.995591,-1.09352 0.09793,-4.42303 6.969138,-6.96914 -1.991182,-2.35025 0.293781,-1.59948 2.350248,-2.35024 0.228496,-2.59506 4.504643,-6.21837 0.669167,-3.21527 7.883124,-5.40231 0.359065,-2.75827 2.497139,-2.66035 0.750773,-5.98987 7.605664,-3.93341 z"
     class="land"
     title="Trnavský"
     id="SK-TA"
     inkscape:connector-curvature="0"
     style="fill:#d49377;fill-opacity:1;stroke:#ffffff;stroke-width:0.816058;stroke-opacity:1" />
  <path
     d="m 260.45119,332.11455 8.73182,-0.17954 -0.11425,3.54169 8.92767,11.93077 -0.1632,2.82357 2.5461,2.69299 1.17512,7.01811 2.97046,2.15439 0.50595,3.72122 7.73623,6.20204 5.35334,2.17073 0.16322,2.67666 5.30437,1.81165 0.44068,4.53728 2.35024,2.23601 -1.38729,3.00309 -4.3904,4.17822 5.46759,1.86061 2.56242,4.06397 -1.27304,4.89636 0.55492,6.31629 -1.97486,1.12615 -3.68859,5.94091 -6.38158,1.58315 -3.65594,2.36657 -1.9259,4.7005 -6.12043,1.82797 v 1.86061 l 2.30128,2.51347 8.51965,0.78341 2.41553,-2.21968 3.55802,-0.8487 2.41553,-5.15749 2.25232,-0.73446 -0.32642,1.74637 1.35465,1.76269 6.36526,-1.4689 7.44245,2.3176 3.96605,-0.91399 3.86811,4.91267 -4.11293,7.27924 2.7746,3.93341 -2.28497,4.61889 0.84871,1.06087 -0.50596,7.57302 5.72873,4.27615 3.46008,1.06087 0.27746,2.05647 4.60258,1.82797 -0.16322,5.45127 5.41863,5.69609 0.94663,2.92149 1.61579,0.47331 0.34275,3.9334 v 0 l -5.38599,10.90254 -2.33393,1.58315 -2.80724,-0.9303 -1.97486,1.61579 -1.779,7.7852 -4.66786,3.78651 0.50596,5.64713 -10.96783,-3.4601 -9.4826,12.86109 -0.55491,4.68417 -3.73755,1.76269 -13.93827,-1.15881 -0.81606,5.95723 v 0 l -3.18263,0.16321 -4.73314,4.42304 -4.66786,2.18704 -8.487,7.19763 -0.73446,2.5461 -2.75827,-4.19454 -1.87694,2.88885 -5.17381,-1.56683 -1.94221,-5.77769 -5.79401,-8.25851 -1.90958,-1.51787 -5.71242,-0.7671 1.41995,-3.28056 -2.67667,-2.20335 3.94972,-3.81915 0.50595,-3.06839 -4.22718,-9.38467 -6.46318,-2.05647 -2.3176,1.27306 -2.70932,-2.62771 -2.23599,-7.05075 -5.79402,-5.28805 -2.38289,0.83238 -3.14998,-1.81166 -8.11162,0.17954 -1.95855,-2.36657 -2.17071,0.21217 -2.33393,2.39922 0.83238,5.67977 3.83548,7.00177 0.0816,4.14558 -2.41553,3.57434 -1.32201,-0.26114 -3.28056,2.41553 v 0 l -3.21527,1.06088 -2.62771,-2.31761 -12.09398,-1.90957 -1.86061,-2.52979 -0.88135,1.71373 -0.35906,-1.63212 -1.17513,1.4689 -1.59947,-5.07587 -2.67667,-0.26115 -0.35907,3.73755 -6.61007,0.17953 -7.21395,-3.47641 -3.46009,-5.27174 -3.83547,-3.00309 -1.3057,1.77901 -1.25672,-0.26114 -6.51215,4.11294 0.19585,1.43626 -3.00309,-0.2285 -0.96295,-1.79533 -1.27305,0.0489 -0.58756,2.35024 1.1588,3.0031 -7.39349,1.46891 -3.13366,-1.40363 -3.81915,3.34584 -0.45699,1.86062 -1.81166,-0.78342 -1.20776,1.33834 -5.6961,-10.3313 -1.4689,-5.66345 -1.61579,-0.26114 -0.97927,-4.60256 1.61579,-4.76579 2.4645,-0.86502 -0.0979,-5.14116 -2.28497,-0.7671 -2.04015,-3.94972 -7.4098,-2.83989 -0.53861,-3.24791 -5.859299,4.58625 -2.692992,0.24482 -2.725636,-2.18704 0.212176,-1.61579 6.251007,-3.24792 1.289372,-5.53287 v 0 l 3.492722,-3.46009 1.89327,0.27746 1.10984,-3.24791 1.55051,0.44067 1.6974,-2.26864 4.45568,1.48523 8.0137,7.03442 2.38289,-1.32202 1.73003,0.48964 2.51346,-2.00751 4.94532,-0.32642 1.3873,-3.63961 3.3948,-0.52229 2.44818,-3.54169 12.38776,-1.50155 5.7777,-5.81034 3.54169,-5.87562 3.90074,-2.69298 0.55493,-2.56242 11.39217,-0.7671 3.37849,1.22409 2.70931,-1.38731 4.86371,-17.47997 0.19585,-4.29246 2.13808,-2.28496 1.73004,-1.20777 7.05074,0.27746 2.28496,-1.24041 6.38158,1.04455 7.96473,-3.90075 5.01059,-5.8593 -0.14688,-2.30129 3.21526,-6.90385 -0.81606,-5.67976 1.7627,-1.10985 -1.9259,-4.06396 1.19144,-4.53729 3.16631,-2.69299 -0.86502,-6.95281 4.21086,-7.80153 0.11424,-3.14998 -1.6974,-0.83238 0.17953,-4.01501 6.74065,-6.52846 -0.0489,-4.12926 14.00357,-2.62771 z"
     class="land"
     title="Trenčiansky"
     id="SK-TC"
     inkscape:connector-curvature="0"
     style="fill:#d49377;fill-opacity:1;stroke:#ffffff;stroke-width:0.816058;stroke-opacity:1" />
  <path
     d="m 459.07978,252.353 1.68108,2.38289 -0.94662,2.30128 1.37097,1.94223 9.10721,4.60256 -0.0979,9.15618 3.86812,7.7852 0.37539,4.96163 5.36967,9.38468 2.44817,-0.57125 2.64403,2.54611 4.94531,-2.62772 -0.5386,4.04766 1.95855,1.86061 -3.28056,7.21396 9.77637,1.4689 5.48392,4.35775 5.58184,-6.07148 3.05205,-1.10983 4.06398,1.01191 0.31009,7.99737 1.89326,3.34584 -1.35466,5.9409 2.28497,4.99428 -2.3176,6.78961 2.66035,1.55051 2.0891,4.65153 -5.38598,2.88884 -0.50595,4.11294 -3.88445,4.08029 0.42435,2.54611 -1.37098,3.06837 4.37408,3.9334 3.4764,-1.73004 2.12176,1.90958 1.63211,-0.8487 1.82797,1.33833 5.74505,0.0163 v 0 l 6.28366,11.45746 -1.69741,6.61007 4.74946,-1.1588 0.48964,1.90958 2.77459,-0.19586 2.70932,4.27615 1.20777,-2.38289 1.61579,3.14998 6.23469,0.35907 2.18704,-1.35465 2.30128,1.40361 -2.59507,10.00488 -1.45258,13.9546 -5.33702,2.33393 -3.01942,-1.02824 -0.53859,1.43627 5.95722,4.25981 1.87693,4.48832 2.36657,1.56683 -0.8487,2.20337 2.62771,7.4751 3.63962,0.91398 -3.73754,3.24791 -5.35335,1.04455 -0.70181,1.77901 v 0 l -3.11734,-3.23159 -4.14558,2.33392 -13.23646,-0.60388 -7.7852,1.0772 -2.83988,-2.10543 -3.8518,-0.14689 -8.7155,4.2435 -2.48082,-2.93781 -7.80152,2.8562 h -4.96163 l -13.28543,-9.97222 -8.50333,-2.80724 -2.4645,1.6974 -5.04324,-0.66917 -8.63389,3.86811 h -11.00047 l -8.27483,9.54789 -3.3948,7.36084 -11.29425,1.79533 -0.34274,-0.99559 2.6277,-2.21968 -0.11424,-3.63962 -1.02824,-2.56242 -3.32951,-1.5342 -5.98987,1.68109 -3.21527,3.11734 -2.30129,-0.8487 -2.17072,1.19145 -14.39527,0.42435 -4.5536,-1.63212 -3.01942,1.33833 -1.28937,4.68418 -2.20335,2.79091 -3.70491,0.32644 1.37098,6.03882 -1.25673,4.99428 4.83106,5.01059 -0.76709,5.9246 -4.0803,4.79841 -4.63521,0.60389 -3.9334,-1.06088 -3.99868,1.6974 -1.82797,-1.74636 -3.00309,-0.44067 0.11424,-2.04015 -2.64402,-2.8562 -8.76447,7.34452 v 0 l -0.34275,-3.9334 -1.61579,-0.47331 -0.94663,-2.92149 -5.41863,-5.69609 0.16322,-5.45127 -4.60258,-1.82797 -0.27746,-2.05647 -3.46008,-1.06087 -5.72873,-4.27615 0.50596,-7.57302 -0.84871,-1.06087 2.28497,-4.61889 -2.7746,-3.93341 4.11293,-7.27924 -3.86811,-4.91267 -3.96605,0.91399 -7.44245,-2.3176 -6.36526,1.4689 -1.35465,-1.76269 0.32642,-1.74637 -2.25232,0.73446 -2.41553,5.15749 -3.55802,0.8487 -2.41553,2.21968 -8.51965,-0.78341 -2.30128,-2.51347 v -1.86061 l 6.12043,-1.82797 1.9259,-4.7005 3.65594,-2.36657 6.38158,-1.58315 3.68859,-5.94091 1.97486,-1.12615 -0.55492,-6.31629 1.27304,-4.89636 -2.56242,-4.06397 -5.46759,-1.86061 4.3904,-4.17822 1.38729,-3.00309 -2.35024,-2.23601 -0.44068,-4.53728 -5.30437,-1.81165 -0.16322,-2.67666 -5.35334,-2.17073 -7.73623,-6.20204 -0.50595,-3.72122 -2.97046,-2.15439 -1.17512,-7.01811 -2.5461,-2.69299 0.1632,-2.82357 -8.92767,-11.93077 0.11425,-3.54169 -8.73182,0.17954 v 0 l 6.90384,-2.10544 4.22719,-5.8593 2.38289,-1.30569 -0.83238,-1.43626 2.90517,-3.94973 -1.87693,-7.0997 1.14248,-0.93031 4.61888,2.33393 6.57744,-4.53729 2.75827,-7.19763 1.90958,-0.27746 0.53859,-1.77901 2.62772,-1.41994 0.44066,-2.00751 3.98237,-2.88884 -1.89325,-6.49582 1.97486,-2.54611 3.68858,-1.89325 4.99428,-0.5386 0.99559,3.2316 2.83988,0.48962 10.69037,-3.13366 1.79532,1.95855 3.67226,-0.37539 5.40231,3.26423 h 2.41554 l 4.86371,-4.68417 8.78078,-3.50906 11.11472,1.58316 7.49141,-1.25673 5.5492,4.60257 -1.77901,4.89634 1.12616,1.64844 -1.45259,6.02252 2.28497,0.75077 2.56242,5.46759 -0.65284,2.59507 -2.70931,2.48081 1.8606,4.60257 3.24792,-0.91399 6.41422,0.79975 2.02382,-1.79533 0.99559,-3.16631 3.16631,0.42435 0.6202,-1.22409 2.90517,0.34275 3.3132,3.19894 2.07278,0.27747 2.90518,-2.18704 2.17071,1.6974 4.30879,-2.39921 2.6277,0.8487 1.28937,-1.32202 -1.73003,-5.59816 3.21527,-3.99868 2.28495,0.58756 1.14248,-1.68108 0.48964,-2.33393 -1.50155,-2.67667 2.17072,-3.3948 -0.76709,-1.33833 1.28937,-1.10985 -0.0652,-4.21086 4.8637,-5.4023 8.16059,-1.22409 1.58314,1.81164 7.32821,-1.68107 0.65284,-4.5536 1.50155,-1.45259 -0.29377,-2.4645 5.0922,-1.89325 2.46449,-5.15749 4.88003,-1.27305 0.57124,-3.73755 z"
     class="land"
     title="Žilinský"
     id="SK-ZI"
     inkscape:connector-curvature="0"
     style="fill:#d49377;fill-opacity:1;stroke:#ffffff;stroke-width:0.816058;stroke-opacity:1" />
  <g
     id="stadiums"
     data-country="slovakia"
     data-circle-radius="6"
     data-circle-colors="#a149be,#bea149"
     transform="matrix(1.6321167,0,0,1.6321167,-0.70021809,-11.631028)" />
</svg>
