<?xml version="1.0" encoding="UTF-8" standalone="no"?>
<?xml-stylesheet type="text/css" href="/styles/home.css"?><!-- https://www.amcharts.com/svg-maps -->

<svg
   version="1.1"
   id="map-slovenia"
   viewBox="0 0 1000 1000"
   width="1000"
   height="1000"
   class=""
   sodipodi:docname="slovenia.svg"
   inkscape:version="1.3.1 (91b66b0783, 2023-11-16)"
   xmlns:inkscape="http://www.inkscape.org/namespaces/inkscape"
   xmlns:sodipodi="http://sodipodi.sourceforge.net/DTD/sodipodi-0.dtd"
   xmlns="http://www.w3.org/2000/svg"
   xmlns:svg="http://www.w3.org/2000/svg"
   xmlns:rdf="http://www.w3.org/1999/02/22-rdf-syntax-ns#"
   xmlns:cc="http://creativecommons.org/ns#"
   xmlns:dc="http://purl.org/dc/elements/1.1/">
  <metadata
     id="metadata21">
    <rdf:RDF>
      <cc:Work
         rdf:about="">
        <dc:format>image/svg+xml</dc:format>
        <dc:type
           rdf:resource="http://purl.org/dc/dcmitype/StillImage" />
        <dc:title />
      </cc:Work>
    </rdf:RDF>
  </metadata>
  <sodipodi:namedview
     pagecolor="#ffffff"
     bordercolor="#666666"
     borderopacity="1"
     objecttolerance="10"
     gridtolerance="10"
     guidetolerance="10"
     inkscape:pageopacity="0"
     inkscape:pageshadow="2"
     inkscape:window-width="1920"
     inkscape:window-height="1106"
     id="namedview19"
     showgrid="false"
     showguides="true"
     inkscape:guide-bbox="true"
     inkscape:zoom="69.707514"
     inkscape:cx="891.52512"
     inkscape:cy="175.89926"
     inkscape:window-x="-11"
     inkscape:window-y="-11"
     inkscape:window-maximized="1"
     inkscape:current-layer="map-slovenia"
     inkscape:showpageshadow="2"
     inkscape:pagecheckerboard="0"
     inkscape:deskcolor="#d1d1d1">
    <sodipodi:guide
       position="1108.8511,500"
       orientation="0,1"
       id="guide831"
       inkscape:locked="false"
       inkscape:label=""
       inkscape:color="rgb(0,0,255)" />
    <sodipodi:guide
       position="890.46355,823.0033"
       orientation="0,-1"
       id="guide1"
       inkscape:locked="false" />
  </sodipodi:namedview>
  <defs
     id="defs4">
    <style
       type="text/css"
       id="style2">
         .land {
            fill: #f68026;
            fill-opacity: 1;
            stroke: white;
            stroke-opacity: 1;
            stroke-width: 0.5;
         }

         .rectangle:hover {
            fill: #bdbdbd;
            cursor: pointer;
         }
      </style>
    <!-- <amcharts:ammap projection="mercator" leftLongitude="13.372971" topLatitude="46.875889" rightLongitude="16.594476" bottomLatitude="45.422671"></amcharts:ammap> -->
    <!-- All areas are listed in the line below. You can use this list in your script. -->
    <!--{id:"SI-JP"},{id:"SI-NO"},{id:"SI-SP"},{id:"SI-GO"},{id:"SI-LJ"},{id:"SI-JS"},{id:"SI-ZS"},{id:"SI-SA"},{id:"SI-KO"},{id:"SI-PS"},{id:"SI-PD"},{id:"SI-PM"}-->
  </defs>
  <path
     d="m 68.794938,650.95204 16.742759,-0.79961 4.29176,1.72976 h 7.718641 l 2.545692,-8.3877 3.55742,-0.0326 4.06331,-3.50848 1.17493,-5.62987 -0.76697,-3.19842 9.23625,2.65991 5.71148,4.25912 1.58289,2.79047 5.41774,3.14946 6.73953,-0.39164 0.14686,-3.10052 1.37076,0.21215 1.28916,-1.63186 6.08679,2.87206 2.17036,4.38967 3.03523,1.25652 4.6834,0.2611 6.57635,-1.99086 -0.40796,2.07245 1.71344,0.1795 v 3.10052 l 1.48498,-0.0816 1.69713,3.28002 8.87724,7.27804 4.47127,2.25195 1.97454,-0.4406 0.52219,1.37075 1.74608,-0.13054 10.75387,6.87007 -0.9791,3.28002 3.28001,-1.55026 1.58289,-2.70886 4.37335,0.75065 5.23824,4.17753 v 0 l 2.26826,3.85116 6.88641,0.7996 4.30807,3.0026 -1.02806,1.82768 1.20757,2.4804 2.69255,-0.53851 -0.14687,1.72976 -2.10508,0.65274 2.6599,1.07702 0.65275,5.25455 -1.09334,1.72976 -4.61814,-0.62011 -0.66905,1.72976 -1.64817,0.049 0.31005,2.92101 -2.05612,2.921 -0.32637,3.23107 3.90012,2.562 -0.31006,4.91185 1.2402,1.72976 -2.07244,6.0868 3.06788,2.17036 0.55482,4.55285 -1.72976,3.01893 5.07505,3.21474 -1.20756,3.49215 5.15663,2.34986 -2.18667,16.20425 -2.21931,1.5829 -1.33812,9.41576 5.85833,1.19124 -3.68797,6.87008 -1.24021,6.67427 -4.03067,3.73692 8.89358,2.03982 0.6201,1.94189 2.30091,0.96279 0.76697,-2.33354 2.02348,-0.6201 -0.78328,3.21474 1.61553,6.18471 -1.58289,0.47323 0.0652,1.37075 v 0 l -4.71605,-2.203 -8.17556,0.2611 -5.3035,-1.22389 -7.84919,-6.39684 -2.44777,-0.17951 -8.99149,-8.59983 -3.91644,-0.17951 -0.62009,5.07506 -7.86551,-2.95366 -3.67165,4.35705 1.92558,3.49215 3.75324,1.63184 3.96539,4.45495 -1.45235,0.4406 1.27285,2.10509 -1.89294,3.83484 0.7996,5.56459 -4.76499,3.91645 -6.47844,-3.91645 -12.81001,2.203 -3.99803,6.20103 -2.79045,2.07244 -0.68538,3.31265 -2.48042,0.39165 -4.09593,-0.83225 -3.41056,0.83225 -0.96279,-2.77414 -2.88837,-1.06071 -8.40402,0.13055 -0.52219,-2.95364 -3.03524,-1.09334 1.38707,-4.71605 -1.63184,-2.25194 -4.47127,-2.41514 -6.67425,-0.359 -2.79047,-2.9047 -5.07504,0.65275 -3.63903,4.89554 -5.69515,0.9791 -8.90989,5.89098 -8.58352,-6.73953 -12.810007,-3.2637 -3.720613,-2.85573 -2.79046,-2.77415 2.300905,-3.83484 -2.333542,-4.86291 1.338115,-0.26109 0.21214,-1.84398 2.855735,0.0816 -1.484982,-0.21214 0.930153,-1.06071 -1.403389,-3.26369 -6.967991,-1.0607 -2.202994,-6.96799 5.091365,1.97454 6.625303,0.48954 2.268269,-1.58288 -0.930154,-1.55027 -1.028064,1.15862 0.195821,-3.28002 3.834843,-1.01174 9.529993,3.36161 3.75325,-1.15861 -0.09792,-3.39425 4.340716,1.28916 1.387071,-2.65992 3.19842,-1.40338 5.401427,-0.049 5.07505,2.1214 1.19125,-2.3825 4.42231,-1.55026 -1.89295,-0.47323 0.31005,-1.37075 4.16122,-0.35901 -3.96539,-0.52219 0.96279,-1.99086 2.79046,-0.4406 0.11423,-1.45234 -12.82633,-9.28522 0.45692,-1.6808 12.22254,-2.562 14.91509,7.86551 13.05479,-0.83225 8.64879,-7.29436 1.33812,-4.71604 9.85636,-5.53196 5.15664,-4.9445 -3.19843,-3.05156 -7.16381,-3.23105 -6.60899,-5.79307 -9.44839,-12.77736 -0.57115,-9.48104 -7.62073,-6.72322 -4.12858,-9.04043 -6.29893,-1.50131 -3.72061,-3.14946 -5.23824,0.58746 -3.31264,-2.17035 0.89752,-1.28917 -8.81199,-5.00977 -9.611594,-9.17098 -1.61553,0.83224 -1.631848,-3.59006 -8.714068,1.33811 0.391644,-1.99085 -6.070474,2.96996 -0.685376,-2.00717 -7.375954,-3.36161 z"
     class="land"
     title="Obalno-kraška"
     id="SI-JP"
     inkscape:connector-curvature="0"
     style="fill:#f68026;fill-opacity:1;stroke:#ffffff;stroke-width:0.81592393;stroke-opacity:1" />
  <path
     d="m 236.22255,626.68646 1.17492,-1.28916 3.13315,0.13055 1.99086,-1.95822 2.07245,2.18667 8.77934,-1.87662 6.47844,3.91644 2.03981,-0.22846 2.64359,3.91644 5.72778,-0.35901 -0.42427,1.8603 3.78588,2.31722 2.83941,-2.88837 -0.45691,1.7624 3.96539,-0.13054 2.13772,2.39881 7.22909,-15.30673 -0.27742,-2.13772 2.8231,-2.61096 2.69255,-0.58746 9.1873,3.24738 2.96997,7.27803 1.99085,-0.21214 1.20756,1.81135 2.79047,-2.75782 4.11225,3.63902 1.53394,3.86748 h 1.27284 l 1.56657,-3.81852 2.4641,-1.28916 2.38249,0.53851 5.76043,8.07764 2.70886,-1.64816 2.96997,-6.60899 3.81852,1.10966 7.55546,-5.18928 2.1214,3.99803 -0.37533,3.14947 -1.74607,1.0607 0.29373,2.30091 3.34529,4.22649 -0.71801,1.45233 5.7441,5.8257 2.31723,5.58092 5.33614,0.79961 0.96279,5.31983 3.34528,2.26826 0.99544,2.34986 v 0 l -5.98889,1.01175 2.54568,3.67166 4.71605,0.6201 -1.95822,9.66053 2.26826,1.38708 1.86031,6.72321 -6.13574,1.2402 -3.10052,-7.21276 -2.88837,1.1423 0.89752,4.87922 6.29894,13.7728 1.4197,15.02931 2.23564,0.27742 v 0 l -2.23564,9.80741 -7.65337,13.26692 -4.27543,4.37335 -8.35507,1.99085 0.96279,7.89815 -2.34987,6.0052 -1.06069,12.0104 -2.25195,4.01434 -14.42553,9.9706 -3.03525,3.6227 -4.6834,-1.19125 v 1.37075 l -4.56917,1.06071 -2.203,4.3244 -8.76302,3.68797 -6.33157,0.049 -5.79306,5.41773 -3.16579,-5.62987 h -4.19385 l -5.3035,-4.42232 -3.65534,0.40797 -3.4432,2.59463 -5.64619,-8.63247 -7.13118,2.3825 -5.27087,7.93078 -0.21214,5.41773 -7.327,-3.03523 -5.483,-0.75065 -10.26432,2.33354 v 0 l -0.0653,-1.37075 1.58289,-0.47323 -1.61553,-6.18471 0.78328,-3.21474 -2.02348,0.6201 -0.76697,2.33354 -2.30091,-0.96279 -0.6201,-1.94189 -8.89358,-2.03982 4.03067,-3.73692 1.24021,-6.67427 3.68797,-6.87008 -5.85833,-1.19124 1.33812,-9.41576 2.21931,-1.5829 2.18667,-16.20425 -5.15663,-2.34986 1.20756,-3.49215 -5.07505,-3.21474 1.72976,-3.01893 -0.55482,-4.55285 -3.06788,-2.17036 2.07244,-6.0868 -1.2402,-1.72976 0.31006,-4.91185 -3.90012,-2.562 0.32637,-3.23107 2.05612,-2.921 -0.31005,-2.92101 1.64817,-0.049 0.66905,-1.72976 4.61814,0.62011 1.09334,-1.72976 -0.65275,-5.25455 -2.6599,-1.07702 2.10508,-0.65274 0.14687,-1.72976 -2.69255,0.53851 -1.20757,-2.4804 1.02806,-1.82768 -4.30807,-3.0026 -6.88641,-0.7996 -2.26826,-3.85116 v 0 l 1.51762,-4.92818 2.26826,0.13054 0.86489,-12.53259 2.3009,-1.28916 0.97911,1.77872 0.71801,-5.41774 -5.89097,-11.79826 16.3348,-5.14032 -0.42429,-1.41971 2.88838,-4.04698 z"
     class="land"
     title="Notranjsko-kraška"
     id="SI-NO"
     inkscape:connector-curvature="0"
     style="fill:#f68026;fill-opacity:1;stroke:#ffffff;stroke-width:0.81592393;stroke-opacity:1" />
  <path
     d="m 87.153228,372.68933 0.620101,1.35443 8.469291,0.84856 v 0 l -0.783287,3.31265 1.240205,1.40339 17.379182,-6.28261 4.55286,5.64619 8.24083,2.41514 3.39425,3.32897 6.44579,2.28458 0.65275,9.72582 3.06787,3.41055 3.21474,-0.27741 0.53851,1.66449 -4.12857,7.0659 -4.65077,0.81592 -1.5829,1.56658 -3.96539,-0.40796 -3.41056,3.31265 -10.3296,3.3616 -1.14229,2.18668 1.24021,8.42034 -6.54372,5.59723 2.41514,2.13773 -0.52219,2.20299 2.20299,4.47127 3.18211,1.79503 2.75782,4.96081 3.70429,0.89752 8.11028,8.71407 12.66315,7.55545 6.8864,5.66252 16.40007,-1.46866 12.95687,-4.42231 14.70295,-3.03524 -0.1795,1.4197 3.11683,2.05614 0.40796,4.78131 -1.04438,3.4432 -2.51305,1.02806 -2.36618,5.04242 -0.7996,6.11942 1.38706,4.34072 3.68799,1.33812 4.32439,-2.00717 3.52479,1.4197 3.37793,-1.64817 11.11289,3.39425 -1.27285,6.56002 -4.19385,5.07506 0.50587,3.03523 -4.16121,5.04241 -0.58746,3.78589 -3.72062,2.59463 -2.69254,4.5855 -0.99544,5.40141 3.80222,6.10311 14.29498,9.84005 1.5013,4.63444 -0.96279,0.84857 2.34986,0.53851 -2.82309,4.40599 7.32699,-3.52479 0.96279,6.46212 1.63185,1.55025 -0.96279,2.54569 2.64359,0.57114 2.61096,2.67623 5.07505,0.26109 v 0 l 1.71344,0.97912 -1.30548,1.95821 0.75065,2.49673 -1.89294,0.049 -1.95822,5.2872 -5.61356,0.13054 0.0979,2.49673 -1.64816,0.75064 0.6201,3.11684 3.0026,-1.10966 -0.76697,2.57832 0.99543,5.02609 -2.17036,1.37076 -0.53851,5.25455 -4.11225,2.61095 1.10965,9.46472 5.64619,5.54828 2.79047,12.04304 v 0 l -6.16839,4.21017 -2.88838,4.04698 0.42429,1.41971 -16.3348,5.14032 5.89097,11.79826 -0.71801,5.41774 -0.97911,-1.77872 -2.3009,1.28916 -0.86489,12.53259 -2.26826,-0.13054 -1.51762,4.92818 v 0 l -5.23824,-4.17753 -4.37335,-0.75065 -1.58289,2.70886 -3.28001,1.55026 0.9791,-3.28002 -10.75387,-6.87007 -1.74608,0.13054 -0.52219,-1.37075 -1.97454,0.4406 -4.47127,-2.25195 -8.87724,-7.27804 -1.69713,-3.28002 -1.48498,0.0816 v -3.10052 l -1.71344,-0.1795 0.40796,-2.07245 -6.57635,1.99086 -4.6834,-0.2611 -3.03523,-1.25653 -2.17036,-4.38966 -6.08679,-2.87206 -1.28916,1.63186 -1.37076,-0.21215 -0.14686,3.10052 -6.73953,0.39164 -5.41774,-3.14946 -1.58289,-2.79047 -5.71148,-4.25912 -9.23625,-2.65991 0.76697,3.19842 -1.17493,5.62987 -4.06331,3.50848 -3.55742,0.0326 -2.545692,8.3877 h -7.718641 l -4.29176,-1.72976 -16.742759,0.79961 v 0 l -3.002601,-9.889 -3.263695,-1.6808 0.06527,-4.48758 5.205595,-9.41577 -1.354434,-3.72061 2.072447,-3.73693 4.340715,-3.41057 4.308079,-10.75388 4.405989,-5.64619 -1.272841,-6.96798 3.133148,-13.78913 -2.415135,-2.00717 -5.858335,3.11684 -7.506499,-3.42689 -4.438627,3.42689 -3.590066,5.59723 -4.193849,-0.4406 -2.03981,1.95822 -3.687976,-0.13054 -6.98431,-6.28262 -2.823096,-0.13054 -4.797633,-7.81657 -3.818524,-3.70428 3.133148,-3.60639 3.524791,-0.39165 2.823097,-5.07504 1.093338,-6.23366 -0.799606,-1.95822 -2.333542,-1.07702 0.244777,-4.48758 1.795033,-1.82767 7.914462,-2.67623 4.210168,-6.28261 8.90989,-3.7043 7.278042,-6.59267 2.202994,-3.88379 6.33157,-4.35703 6.413164,-7.00064 3.133148,-6.38052 -0.244778,-3.70429 2.268269,-2.36618 1.240204,-4.34072 -2.366179,-3.91643 -6.478437,-2.69255 -6.96799,3.4432 -0.930153,-0.71801 0.73433,-1.64817 -6.445799,0.13055 -0.685376,-1.10966 -5.58092,2.90469 -1.582892,-1.51762 0.179503,-3.00261 -2.464091,-4.40598 -8.90989,-3.98171 -0.799605,-2.41513 -3.818524,1.51761 -4.716041,-0.049 -1.860306,-2.62727 -3.165785,-1.38708 -5.793061,0.62011 -5.67883,-1.33812 -0.06527,5.67883 -7.310679,2.80678 -3.75325,-1.72976 -0.995428,-2.02349 1.958218,-3.65534 -1.17493,-1.79503 3.720612,-2.9047 -8.1266034,-9.51366 -3.3126514,-15.46993 -2.5456826,-0.1795 -1.02806432,-3.2637 8.58352042,-1.20756 4.0143463,-3.62271 0.146867,-3.08419 2.300905,-2.562 5.336143,-1.28916 2.69255,-5.05873 -3.606384,-8.95884 0.783287,-2.10509 4.340715,-1.25652 5.140321,0.84856 4.716041,-4.03066 3.475836,-0.31005 4.095938,-2.77414 1.648166,0.48955 0.310052,-2.6436 3.100511,-2.41513 2.594638,0.22846 9.578948,-5.25455 3.32897,-5.36878 1.827669,-8.87725 4.40599,-3.68798 16.400072,-3.76957 z"
     class="land"
     title="Goriška"
     id="SI-SP"
     inkscape:connector-curvature="0"
     style="fill:#f68026;fill-opacity:1;stroke:#ffffff;stroke-width:0.81592393;stroke-opacity:1" />
  <path
     d="m 113.94817,338.61634 9.85637,0.35901 7.13117,4.6834 5.40142,-0.32637 6.29893,-5.92361 1.89294,1.56658 4.5855,0.73433 9.02412,-3.68797 4.96081,1.61552 4.17754,-0.94647 12.56523,6.07048 5.54828,5.15663 1.8603,-0.71801 3.75326,2.20299 0.65274,2.51306 5.54828,2.79045 3.94907,0.0326 4.45495,-4.48758 4.99345,-0.58746 13.29957,3.63901 2.08876,2.51305 5.04241,0.86488 5.95624,9.05675 v 3.14947 l 4.91186,3.0026 1.69713,3.90011 3.59006,0.31006 6.95168,-4.03067 6.3642,1.33812 1.97454,-1.56657 2.95364,3.59006 3.06788,1.15861 14.67031,-4.87922 8.3061,5.9236 5.95625,-0.71801 4.0633,-2.87205 8.12661,-1.02806 3.47583,0.84855 5.14032,-2.96996 9.77477,-0.48955 2.03982,2.82309 -1.55027,0.45692 -0.24477,2.05614 2.93732,2.20299 1.74609,3.41056 h 6.20101 l 3.47584,1.07702 0.55483,2.28459 4.37336,0.62009 4.96081,-5.69515 3.99802,0.58748 5.76043,6.1847 v 2.33354 l 3.68798,4.92819 1.92558,8.46928 1.33811,1.20757 4.19385,-1.38707 v 0 l -0.0326,0.45692 v 0 l -1.40339,1.82767 -6.29893,1.74607 3.70428,5.33614 -3.75324,7.29437 4.89554,4.34071 -5.71147,6.6253 4.61813,7.96342 -1.41971,2.95365 4.65078,1.87662 -0.86489,2.33354 2.96996,3.21474 -5.36877,0.22846 -1.79503,2.59465 0.13054,1.28916 4.45494,1.43602 -0.86487,2.00717 2.44777,3.85117 -7.5881,6.02152 0.24478,2.87204 -2.34985,3.39424 -4.25913,3.9654 -4.1449,0.22846 -4.56917,6.20102 -12.20622,-2.03981 -0.75065,0.93015 2.82309,1.92558 -3.31265,2.08877 v 0 l -8.19188,0.35901 v 0 l -7.91445,-0.35901 1.89293,6.47843 3.23107,3.11684 -7.68601,4.37335 h -4.47126 l 0.40796,3.4432 -1.2402,1.82766 -1.30548,-0.5385 -0.13055,-2.21932 -3.52479,-0.32637 -0.0326,2.10509 -1.12597,0.66905 -1.48499,-1.15861 -2.44777,4.42231 -5.27086,2.31723 -0.83225,5.53196 2.90469,2.83941 0.31005,3.49216 -1.61553,3.50848 -3.99803,0.32637 -2.38249,-2.18669 -3.2637,0.8812 -12.54891,-1.95821 -3.60638,4.81395 -6.44581,-0.049 -3.65534,3.75326 -2.05612,4.40598 0.65273,7.88182 -2.87204,3.29634 -0.75065,4.2428 -7.44123,6.49476 -0.24478,3.06787 -4.96081,-0.1795 -0.19583,1.95822 -2.75782,0.84855 0.22846,2.75783 -3.32897,1.46866 v 0 l -5.07505,-0.26109 -2.61096,-2.67623 -2.64359,-0.57114 0.96279,-2.54569 -1.63185,-1.55025 -0.96279,-6.46212 -7.32699,3.52479 2.82309,-4.40599 -2.34986,-0.53851 0.96279,-0.84857 -1.5013,-4.63444 -14.29498,-9.84005 -3.80222,-6.10311 0.99544,-5.40141 2.69254,-4.5855 3.72062,-2.59463 0.58746,-3.78589 4.16121,-5.04241 -0.50587,-3.03523 4.19385,-5.07506 1.27285,-6.56002 -11.11289,-3.39425 -3.37793,1.64817 -3.52479,-1.4197 -4.32439,2.00717 -3.68799,-1.33812 -1.38706,-4.34072 0.7996,-6.11942 2.36618,-5.04242 2.51305,-1.02806 1.04438,-3.4432 -0.40796,-4.78131 -3.11683,-2.05613 0.1795,-1.41971 -14.70295,3.03524 -12.95687,4.42231 -16.40007,1.46866 -6.8864,-5.66252 -12.66315,-7.55545 -8.11028,-8.71407 -3.70429,-0.89752 -2.75782,-4.96081 -3.18211,-1.79503 -2.20299,-4.47127 0.52219,-2.20299 -2.41514,-2.13773 6.54372,-5.59723 -1.24021,-8.42034 1.14229,-2.18668 10.3296,-3.3616 3.41056,-3.31265 3.96539,0.40796 1.5829,-1.56658 4.65077,-0.81592 4.12857,-7.0659 -0.53851,-1.66449 -3.21474,0.27741 -3.06787,-3.41055 -0.65275,-9.72582 -6.44579,-2.28458 -3.39425,-3.32897 -8.24083,-2.41514 -4.55286,-5.64619 -17.379182,6.28261 -1.240205,-1.40339 0.783287,-3.31265 v 0 l 3.165783,-2.64359 1.892957,-6.91904 -1.615547,-3.8022 4.683417,-5.66252 -1.7624,-2.28458 0.94648,-3.32897 -1.07703,-3.45952 3.62271,-4.17754 -0.0816,-5.25455 2.21932,-1.38706 z"
     class="land"
     title="Gorenjska"
     id="SI-GO"
     inkscape:connector-curvature="0"
     style="fill:#f68026;fill-opacity:1;stroke:#ffffff;stroke-width:0.81592393;stroke-opacity:1" />
  <path
     d="m 373.37937,402.4216 7.5065,5.05872 1.66448,-1.84399 6.54371,0.45692 6.91903,-2.562 -0.37532,14.11549 5.51564,6.21734 3.81853,0.17951 1.2402,1.56657 -0.14686,11.01497 2.65992,0.97911 6.23365,-1.66449 0.21214,2.74151 -2.69255,5.14032 2.62728,3.80221 0.0326,3.13315 -2.48041,4.4223 2.26826,3.70429 h 7.44123 l 8.46929,2.8231 2.03982,-1.25652 4.16121,1.30548 7.26172,-2.33354 15.77996,1.20757 13.70753,9.30153 2.13772,-0.84856 1.92558,5.40141 3.83484,0.62011 -1.58289,2.00717 -1.8603,-0.57115 -1.20757,2.72519 v 0 l -2.72519,0.359 0.40797,8.30611 -3.65534,2.26826 -0.19582,2.85574 -5.67884,-1.4197 -6.20102,3.11682 -11.19448,0.4406 1.12598,1.79503 3.06787,0.62011 -0.21214,2.28459 5.10768,5.07504 -2.02348,4.42231 0.26109,3.47583 13.29956,-1.82766 2.13772,0.93015 1.51761,2.05613 -1.04438,4.60181 1.35444,4.17753 4.30808,4.55285 3.36161,0.40797 10.31327,-0.71802 6.11944,-7.57177 6.65793,-2.95365 3.60639,5.84202 -1.09334,2.00718 -4.37336,0.48954 2.13773,3.47585 0.0652,3.60638 2.13772,1.25652 -4.2428,1.55026 1.10965,2.36618 8.84462,4.6834 15.84525,-2.90469 v 0 l 1.58288,3.60639 3.83485,1.07701 v 0 l 0.47324,3.7043 6.23366,10.05218 v 0 l -5.09138,-0.049 0.7833,-1.32179 -2.67623,-0.89751 -2.87206,2.31722 -1.2402,3.55743 -5.0261,-1.95822 -1.30547,-1.77872 -8.68144,-0.359 -0.99542,2.18668 1.5829,0.75064 1.8603,5.48301 -0.96279,2.39882 -4.79763,2.44777 0.73433,2.80678 -1.38708,1.10966 -2.98627,-0.48956 -0.34269,1.24021 -1.51762,-0.049 -3.80221,-2.79046 -4.87923,0.4406 -2.23563,-2.57832 -4.03066,-0.6201 -2.87205,1.8603 -0.34269,5.12401 -4.74868,1.5013 -3.93275,0.22845 -2.61096,-2.36618 -3.06787,-4.48758 0.0652,-4.12857 h -2.70886 l -1.69713,-4.86291 -2.30091,-1.10965 -2.85573,1.77871 0.19583,3.47584 -2.13772,2.31722 -5.77675,-0.76697 -4.96081,1.02807 -1.27285,-2.00718 -1.8603,1.64817 -4.34072,-3.73693 -2.65991,2.93733 -2.95364,0.22845 -0.24478,2.83942 -4.06331,2.72518 -3.75324,-1.64817 -2.31723,3.42689 0.99543,1.64817 -1.92558,0.26109 -2.85573,3.86748 -0.13055,3.81853 -1.30548,-0.62011 -2.03981,1.90927 1.09333,2.23563 -1.53394,0.4406 -2.18667,5.15663 2.17036,2.65992 1.41971,-1.5013 1.41971,1.77871 0.71801,-1.07702 2.85573,1.15861 -1.64816,1.77872 2.02349,8.27347 4.65077,6.87007 -2.36618,1.07702 -0.3427,5.14032 1.71345,3.55744 3.5411,2.26826 2.59465,6.21734 -2.41514,0.79961 -1.0607,2.74151 -2.31722,1.64816 0.37532,9.8074 2.90469,-1.69711 1.48498,4.22648 4.40599,2.30091 -0.76696,5.49933 4.83026,1.37075 2.0235,2.1214 -1.64817,9.31786 3.4432,7.70232 5.36878,1.2402 1.48498,-3.49215 1.2402,0.13054 1.17493,3.1821 5.80938,-1.5013 3.93276,2.70887 -0.83224,15.76365 -3.81853,4.03067 -2.98629,-3.23106 -2.4804,0.47323 -2.44778,-1.6808 -20.21859,-18.94576 -1.48498,0.93016 -0.89751,-0.84856 -2.6436,-3.85117 -1.56657,-5.67882 -10.49279,-7.62073 -0.65274,-2.69255 -4.2428,-4.25913 -4.30808,-0.71801 -3.41056,4.52022 -3.60639,1.15862 -2.03981,2.57831 -15.94315,-1.64817 -1.17493,2.48042 -8.58352,-0.79961 -1.02806,2.00717 v 0 l -0.99544,-2.34986 -3.34528,-2.26826 -0.96279,-5.31983 -5.33614,-0.79961 -2.31722,-5.58092 -5.74411,-5.8257 0.71801,-1.45233 -3.34529,-4.22649 -0.29373,-2.30091 1.74607,-1.0607 0.37533,-3.14947 -2.1214,-3.99802 -7.55546,5.18928 -3.81852,-1.10967 -2.96997,6.60899 -2.70886,1.64816 -5.76043,-8.07764 -2.38249,-0.53851 -2.4641,1.28916 -1.56657,3.81852 h -1.27284 l -1.53394,-3.86748 -4.11225,-3.63902 -2.79047,2.75782 -1.20756,-1.81135 -1.99085,0.21214 -2.96997,-7.27803 -9.1873,-3.24738 -2.69255,0.58746 -2.8231,2.61096 0.27742,2.13772 -7.22909,15.30673 -2.13772,-2.39881 -3.96539,0.13054 0.45691,-1.7624 -2.83941,2.88837 -3.78588,-2.31722 0.42427,-1.8603 -5.72778,0.35901 -2.64359,-3.91644 -2.03981,0.22846 -6.47844,-3.91644 -8.77934,1.87662 -2.07245,-2.18667 -1.99086,1.95822 -3.13315,-0.13055 -1.17492,1.28916 v 0 l -2.79047,-12.04304 -5.64619,-5.54828 -1.10965,-9.46472 4.11225,-2.61095 0.53851,-5.25455 2.17036,-1.37076 -0.99543,-5.02609 0.76697,-2.57832 -3.0026,1.10966 -0.6201,-3.11684 1.64816,-0.75064 -0.0979,-2.49673 5.61356,-0.13054 1.95822,-5.2872 1.89294,-0.049 -0.75065,-2.49673 1.30548,-1.95821 -1.71344,-0.97912 v 0 l 3.32897,-1.46866 -0.22846,-2.75783 2.75782,-0.84855 0.19583,-1.95822 4.96081,0.1795 0.24478,-3.06787 7.44123,-6.49476 0.75065,-4.2428 2.87205,-3.29634 -0.65274,-7.88182 2.05612,-4.40598 3.65534,-3.75326 6.44581,0.049 3.60638,-4.81395 12.54891,1.95821 3.2637,-0.88119 2.38249,2.18668 3.99803,-0.32637 1.61553,-3.50848 -0.31005,-3.49216 -2.90469,-2.83941 0.83225,-5.53196 5.27086,-2.31723 2.44777,-4.42231 1.48499,1.15861 1.12597,-0.66905 0.0326,-2.10509 3.52479,0.32637 0.13055,2.21932 1.30548,0.5385 1.2402,-1.82766 -0.40796,-3.4432 h 4.47126 l 7.68601,-4.37335 -3.23107,-3.11684 -1.89293,-6.47843 7.91445,0.35901 v 0 l 8.19188,-0.35901 v 0 l 3.31265,-2.08877 -2.82309,-1.92558 0.75065,-0.93015 12.20622,2.03981 4.56917,-6.20102 4.1449,-0.22846 4.25913,-3.9654 2.34985,-3.39424 -0.24477,-2.87204 7.58809,-6.02152 -2.44777,-3.85117 0.86487,-2.00717 -4.45494,-1.43602 -0.13054,-1.28916 1.79503,-2.59465 5.36877,-0.22845 -2.96996,-3.21475 0.86489,-2.33354 -4.65078,-1.87662 1.41971,-2.95365 -4.61813,-7.96342 5.71147,-6.6253 -4.89554,-4.34071 3.75324,-7.29437 -3.70428,-5.33614 6.29893,-1.74607 z"
     class="land"
     title="Osrednjeslovenska"
     id="SI-LJ"
     inkscape:connector-curvature="0"
     style="fill:#f68026;fill-opacity:1;stroke:#ffffff;stroke-width:0.81592393;stroke-opacity:1" />
  <path
     d="m 370.491,662.17915 1.02806,-2.00717 8.58352,0.79961 1.17493,-2.48042 15.94315,1.64817 2.03981,-2.57831 3.60639,-1.15862 3.41056,-4.52022 4.30808,0.71801 4.2428,4.25913 0.65274,2.69255 10.49279,7.62073 1.56657,5.67882 2.6436,3.85117 0.89751,0.84856 1.48498,-0.93016 20.21859,18.94576 2.44778,1.6808 2.4804,-0.47323 2.98629,3.23106 3.81853,-4.03067 0.83224,-15.76365 -3.93276,-2.70887 -5.80938,1.5013 -1.17493,-3.1821 -1.2402,-0.13054 -1.48498,3.49215 -5.36878,-1.2402 -3.4432,-7.70232 1.64817,-9.31786 -2.0235,-2.1214 -4.83026,-1.37075 0.76696,-5.49933 -4.40599,-2.30091 -1.48498,-4.22648 -2.90469,1.69711 -0.37532,-9.8074 2.31722,-1.64816 1.0607,-2.74151 2.41514,-0.79961 -2.59465,-6.21734 -3.5411,-2.26826 -1.71345,-3.55744 0.3427,-5.14032 2.36618,-1.07702 -4.65077,-6.87007 -2.02349,-8.27347 1.64816,-1.77872 -2.85573,-1.15861 -0.71802,1.07702 -1.4197,-1.77871 -1.41971,1.5013 -2.17036,-2.65992 2.18667,-5.15663 1.53394,-0.4406 -1.09333,-2.23563 2.03981,-1.90927 1.30548,0.62011 0.13055,-3.81853 2.85573,-3.86748 1.92558,-0.26109 -0.99543,-1.64817 2.31723,-3.42689 3.75324,1.64817 4.06331,-2.72518 0.24478,-2.83942 2.95364,-0.22845 2.65991,-2.93733 4.34072,3.73693 1.8603,-1.64817 1.27285,2.00718 4.96081,-1.02807 5.77675,0.76697 2.13772,-2.31722 -0.19583,-3.47584 2.85573,-1.77871 2.30091,1.10965 1.69713,4.86291 h 2.70886 l -0.0653,4.12857 3.06787,4.48758 2.61096,2.36618 3.93275,-0.22845 4.74868,-1.5013 0.34269,-5.12401 2.87205,-1.8603 4.03066,0.6201 2.23563,2.57832 4.87923,-0.4406 3.80221,2.79046 1.51762,0.049 0.34269,-1.24021 2.98627,0.48956 1.38708,-1.10966 -0.73433,-2.80678 4.79763,-2.44777 0.96279,-2.39882 -1.8603,-5.48301 -1.5829,-0.75064 0.99542,-2.18668 8.68144,0.359 1.30547,1.77872 5.0261,1.95821 1.2402,-3.55742 2.87206,-2.31722 2.67623,0.89751 -0.7833,1.32179 5.09138,0.049 v 0 l 6.60898,2.13773 1.10965,3.47583 2.70888,-3.65534 7.89814,1.51761 -0.52219,5.12401 -3.75326,1.77871 -0.81591,4.53654 2.95364,1.5013 0.40796,4.37336 10.62333,8.9262 6.88639,2.85574 2.0235,0.0816 -0.19582,-2.30091 1.27284,-0.89751 2.61095,1.2402 0.34269,-2.52936 2.62728,-0.13055 0.4406,-4.63445 4.09594,1.02807 3.03523,5.46669 2.92101,-0.21214 0.1795,-2.75783 -2.54568,-2.88837 2.33354,-4.09594 4.21017,1.33812 3.60638,3.14947 -0.19582,-4.89555 4.87923,1.77872 3.83484,-0.31006 0.13055,5.6462 4.17753,1.28916 1.30548,2.23563 -2.3825,3.73694 1.27284,17.95032 -2.54568,6.65794 12.64682,6.11943 -1.01175,2.88837 1.24021,4.79763 3.90012,-0.049 -1.82767,3.24738 -7.03327,1.41971 -0.57115,1.72976 2.0235,1.59921 0.7996,3.99803 2.75782,3.67166 4.91187,16.36743 v 0 l -4.8466,5.05873 -6.41316,1.24021 -11.08025,6.56002 -7.62073,2.69255 -2.51304,3.14947 -3.88379,2.03981 -5.45038,6.95168 -7.19645,2.562 3.47584,2.562 4.74868,-0.62011 1.97453,4.43863 3.50847,-1.19125 1.37076,1.99086 0.21214,5.17296 3.06788,2.79045 0.86487,-4.60181 3.05156,-0.13055 -1.02806,4.2428 4.52021,6.59267 1.40339,-1.41971 -2.05613,-8.58352 3.85116,-2.61095 2.203,-5.09137 5.61355,-0.13054 -0.27741,6.23365 1.89295,0.45692 0.14686,1.81136 -0.83224,3.67165 -2.95364,0.7996 -0.48956,5.74411 1.48498,-0.31005 0.31005,-1.72976 1.92558,0.049 0.68538,-4.6834 1.86031,-1.20757 2.34986,5.93993 4.22649,4.32439 1.97453,6.82113 3.16579,1.81135 -3.50848,3.70429 -2.75782,1.02807 -3.83485,-1.41971 -1.09333,-2.203 -7.62073,-0.27741 -1.27285,1.55025 2.8231,1.37076 -0.31005,1.5013 -3.08419,1.46866 -4.73236,-0.4406 -7.29436,1.63185 1.51762,7.81655 -4.96082,0.6201 -4.42231,3.57375 6.69058,9.15467 0.83224,20.65919 1.27284,1.53393 2.75782,0.2611 -0.24477,3.28002 3.31265,1.53394 2.17036,4.2428 7.84918,4.71604 2.08877,2.85573 2.31722,-1.22388 4.8466,4.45495 -8.50193,5.23822 -3.9654,8.37139 -4.91185,1.6808 -18.0972,-5.69515 -8.97516,5.5646 -4.79764,6.82113 -1.55025,4.84658 -5.64619,0.13055 -3.34529,-4.27544 -3.7859,5.77674 -7.09853,-0.70169 -3.29633,-2.25195 -3.10051,-5.93993 -4.65077,-1.6808 -5.8257,-6.56003 -5.45037,-2.02349 -0.31005,-7.27805 -7.88183,-2.51304 -1.74607,-2.43145 -4.48759,3.05156 -4.21017,0.65273 -4.56917,-4.84659 -9.23625,-1.06069 -4.27545,-5.0261 -11.56981,-8.46929 -2.88837,0.4406 -2.75782,4.11226 0.40797,10.88442 -2.10508,7.49019 -10.05219,2.17035 -2.23563,2.46409 -15.87788,2.8231 -0.62011,-4.81395 -2.62727,-3.11684 -0.22846,-3.39424 -1.89295,-2.20299 1.06071,-1.81135 -1.89295,-3.36161 -2.82309,0.79961 -0.40796,-2.33355 -5.62988,-0.66905 0.0164,-2.15405 -3.24737,0.35901 -7.22909,-7.58809 -4.92818,-2.3825 -4.71605,-0.359 -1.04438,3.52479 -2.61096,0.2611 -2.10508,-3.57375 1.30548,-8.51825 2.10508,-1.04438 1.33811,-2.83942 -2.15403,-6.16838 -4.06331,-5.35247 -8.42033,-1.19124 -3.75325,-5.43406 -3.29633,-0.65274 -1.14229,-3.59006 -4.99346,-1.81135 -4.2428,-4.06331 3.55742,-14.36026 2.10509,-1.6808 -2.83942,-0.89751 -1.89294,-2.28459 -5.6462,1.71344 -0.68538,-1.94191 -0.58746,0.75066 -1.58288,-1.63185 v 0 l -2.23564,-0.27742 -1.4197,-15.02931 -6.29894,-13.7728 -0.89752,-4.87922 2.88837,-1.1423 3.10052,7.21276 6.13574,-1.2402 -1.86031,-6.72321 -2.26826,-1.38708 1.95822,-9.66053 -4.71605,-0.6201 -2.54568,-3.67166 z"
     class="land"
     title="Jugovzhodna Slovenija"
     id="SI-JS"
     inkscape:connector-curvature="0"
     style="fill:#f68026;fill-opacity:1;stroke:#ffffff;stroke-width:0.81592393;stroke-opacity:1" />
  <path
     d="m 477.03435,479.26532 v 3.78589 l 3.50847,2.00717 3.06788,4.21017 5.95624,0.26109 9.02411,-3.26369 9.13836,1.07702 0.50587,3.21474 1.51762,0.4406 7.29435,-4.55286 2.93733,1.15861 7.63706,-0.4406 7.89814,-5.22192 7.35963,6.69059 0.45692,2.95364 1.82766,0.1795 -0.52218,3.78589 6.65794,-0.6201 1.71344,7.27804 5.67883,4.01434 2.75783,6.15207 2.38249,2.08877 -3.96539,0.99543 -1.82767,3.24737 -9.95427,-4.37335 0.52219,1.92558 -1.30548,0.71801 -1.55025,5.124 7.19644,4.3244 -6.41316,2.26827 -9.12203,-3.11683 -0.75065,3.29633 -4.69972,0.84856 0.049,5.48302 -2.51304,-1.74608 -2.96997,2.26827 0.65275,3.16578 v 0 l -15.84525,2.90469 -8.84462,-4.6834 -1.10965,-2.36618 4.2428,-1.55026 -2.13772,-1.25652 -0.0653,-3.60638 -2.13773,-3.47585 4.37336,-0.48954 1.09334,-2.00718 -3.60639,-5.84202 -6.65793,2.95365 -6.11944,7.57177 -10.31327,0.71802 -3.36161,-0.40797 -4.30808,-4.55285 -1.35444,-4.17753 1.04438,-4.60181 -1.51761,-2.05613 -2.13772,-0.93015 -13.29956,1.82766 -0.26109,-3.47583 2.02348,-4.42231 -5.10768,-5.07504 0.21214,-2.28459 -3.06787,-0.62011 -1.12598,-1.79503 11.19448,-0.4406 6.20102,-3.11682 5.67884,1.4197 0.19582,-2.85574 3.65534,-2.26826 -0.40797,-8.30611 z"
     class="land"
     title="Zasavska"
     id="SI-ZS"
     inkscape:connector-curvature="0"
     style="fill:#f68026;fill-opacity:1;stroke:#ffffff;stroke-width:0.81592393;stroke-opacity:1" />
  <path
     d="m 598.55807,347.06931 2.36618,1.97454 3.41056,-0.66906 0.48955,4.43863 2.79046,3.28001 0.26109,4.43863 2.72519,0.48956 3.31266,-1.38708 2.85573,2.15404 0.45691,2.203 3.85116,1.92558 3.23107,-2.23564 6.1031,5.2056 -1.55025,2.77414 -0.47323,6.72322 h -2.34986 l -0.44061,1.22388 5.92361,4.69972 -1.55026,1.43603 0.96279,2.59464 -4.17752,0.81592 1.72975,1.82767 4.61813,1.02807 -0.1795,2.15403 1.51762,1.02807 6.3642,1.40339 -0.16318,2.18667 2.30091,1.25653 5.14032,-0.13055 2.51304,-1.35443 2.64359,1.89294 2.44778,-2.25195 1.69712,0.86488 1.6808,5.54828 7.89815,-2.28458 2.05613,1.79503 2.75782,17.33022 2.13772,2.54569 -1.69712,5.10768 2.28458,3.26369 -2.34985,2.4641 6.2663,1.69711 0.58746,6.0868 5.02609,1.69712 5.3851,-1.46866 2.67623,1.95822 6.07048,-1.33811 5.64619,2.15403 0.42428,2.36618 9.33417,1.51762 2.57831,1.51762 3.72063,-0.4406 -0.89752,2.62728 0.86487,1.20757 6.29893,-0.35901 v 0 l 5.40143,-0.39165 v 0 l 2.07244,-0.35901 3.31265,1.95822 1.61553,-0.84855 3.19842,6.26628 11.19448,-1.56657 v 0 l 0.75065,3.75326 -1.81135,1.20756 -2.48041,8.43665 -8.61616,4.38968 -2.82309,-1.48499 1.45234,-3.06786 -1.35444,-1.71345 -3.78588,-0.16319 -2.85573,2.49673 -0.55483,-2.90469 -9.23626,-0.22846 -5.33615,-2.00717 -9.64422,4.73236 -2.36618,4.21017 2.12141,1.69712 -0.84856,7.40859 -2.31723,0.53851 -1.77871,4.37335 -7.37595,3.96539 -1.1423,2.98629 3.0026,3.8838 -5.27086,2.59463 3.41056,3.21474 -0.65274,1.0607 1.71343,0.27742 -1.14228,4.50389 1.2402,0.39166 -1.46867,0.89751 0.62011,1.56657 -1.45235,2.03981 1.72976,3.88379 1.20757,-0.0816 -0.21214,3.06788 3.23106,1.20757 -0.75066,3.83484 3.29634,2.17036 4.58549,-1.59921 0.58746,2.13772 2.85574,0.79961 0.37533,4.6018 3.31265,-1.74607 1.30548,1.82767 1.82766,-0.71802 4.43863,4.11227 6.31525,1.46866 1.82767,2.83941 v 0 l -4.27544,-0.83224 -3.28001,2.17036 -8.19188,-0.79961 -2.96996,5.74411 -5.80938,2.39881 -4.03067,6.77217 -3.16578,2.80678 -7.65337,3.06787 -10.75388,1.15862 2.13773,-4.27545 6.28261,-3.99802 2.02349,-6.54371 -6.33156,-0.97912 -2.79047,1.50131 -4.86291,0.14686 -1.71344,-10.96601 -3.10051,-0.75066 -2.62727,-5.25455 -3.54111,-1.56657 -3.62271,2.67623 -2.05612,-3.11683 -5.23824,-2.75782 -6.96799,1.41971 -5.05872,-1.20757 -2.72519,1.43603 v 0 h -6.02152 v 0 l -5.85833,-1.12598 -2.54568,-2.34986 -6.34789,3.60639 -11.19448,0.26109 -5.27087,-1.64817 -3.13315,1.25653 -3.94907,-0.63642 -0.31006,5.89097 -2.44777,-1.87663 0.31006,-7.66968 -2.48041,-1.19125 0.0326,-3.52479 -1.79504,-2.31723 -1.14229,-0.0979 -1.77872,3.52479 -3.4432,0.71801 -3.68797,-0.53851 -3.75325,-3.06787 -3.80221,1.37076 -2.43145,-1.15862 -4.5855,1.82767 -0.58746,2.23563 4.5855,2.85573 -2.28459,5.87466 1.14229,2.13772 -1.74607,1.87663 4.43862,1.69711 -0.48956,6.75586 -8.43664,-4.765 -11.81459,-2.83942 -11.01497,3.11684 -4.09594,-0.84857 v 0 l -3.83485,-1.07701 -1.58288,-3.60639 v 0 l -0.65275,-3.16578 2.96997,-2.26827 2.51304,1.74608 -0.049,-5.48302 4.69972,-0.84856 0.75065,-3.29633 9.12203,3.11683 6.41316,-2.26827 -7.19644,-4.3244 1.55025,-5.124 1.30548,-0.71801 -0.52219,-1.92558 9.95427,4.37335 1.82767,-3.24737 3.96539,-0.99543 -2.38249,-2.08877 -2.75783,-6.15207 -5.67883,-4.01434 -1.71344,-7.27804 -6.65794,0.6201 0.52218,-3.78589 -1.82766,-0.1795 -0.45692,-2.95364 -7.35963,-6.69059 -7.89814,5.22192 -7.63706,0.4406 -2.93732,-1.15861 -7.29436,4.55286 -1.51762,-0.4406 -0.50587,-3.21474 -9.13836,-1.07702 -9.02411,3.26369 -5.95624,-0.26109 -3.06788,-4.21017 -3.50847,-2.00717 v -3.78589 0 l 1.20757,-2.72519 1.8603,0.57115 1.58289,-2.00717 -3.83484,-0.62011 -1.92558,-5.40141 -2.13772,0.84856 -13.70753,-9.30153 -15.77996,-1.20757 -7.26172,2.33354 -4.16121,-1.30548 -2.03982,1.25652 -8.46929,-2.8231 h -7.44123 l -2.26826,-3.70429 2.48041,-4.4223 -0.0326,-3.13315 -2.62728,-3.80221 2.69255,-5.14032 -0.21214,-2.74151 -6.23365,1.66449 -2.65992,-0.97911 0.14686,-11.01497 -1.2402,-1.56657 -3.81853,-0.17951 -5.51564,-6.21734 0.37532,-14.11549 -6.91903,2.562 -6.54371,-0.45692 -1.66448,1.84399 -7.5065,-5.05872 v 0 l 0.0326,-0.45692 v 0 l 3.24738,-8.11029 0.68538,-8.46929 -1.86031,-2.05613 0.89752,-5.25455 2.38249,-1.07702 0.99543,-2.05612 3.37792,-1.12598 7.19646,-0.0979 9.51367,-2.49673 1.27284,-2.02349 2.95364,-0.66906 0.76697,-2.33353 v 0 l 6.54371,1.56657 9.90532,-0.99544 0.7996,1.71345 4.12858,1.51762 3.80221,9.02412 3.16578,-1.30549 0.89751,-3.41056 2.08877,-0.58746 1.69713,1.5829 2.39881,-0.63643 2.28459,2.02349 3.78589,0.79961 8.58352,-1.10966 3.98171,2.72519 5.31982,-1.43602 7.78391,0.5385 5.40142,-5.46669 9.15467,0.27742 0.93015,-3.01892 4.61813,-1.38708 -2.17036,-5.07504 1.66449,0.049 14.88246,8.7467 6.64161,0.53851 12.56524,4.58549 7.13117,5.15664 -0.52219,-3.5411 1.20757,-1.40339 8.7467,3.59006 2.44777,6.33156 5.58092,2.95366 1.51762,-0.53852 0.99543,2.36618 2.41513,-0.13055 0.27742,-2.33353 2.69255,-1.51763 3.75324,-0.4406 0.50588,3.36162 -3.23106,3.03523 -0.0653,2.25195 6.20101,2.90468 13.21798,-6.13574 -0.65274,-2.7415 5.76042,-8.37139 0.16318,-6.95166 2.96996,-8.35507 7.09854,-4.03067 7.78392,-1.74607 1.58289,-3.01892 -4.65076,-5.05873 -0.96279,-5.35246 z"
     class="land"
     title="Savinjska"
     id="SI-SA"
     inkscape:connector-curvature="0"
     style="fill:#f68026;fill-opacity:1;stroke:#ffffff;stroke-width:0.81592393;stroke-opacity:1" />
  <path
     d="m 552.39308,275.12114 3.06788,0.13055 1.07702,1.30547 4.97714,-0.48955 3.10051,3.59007 12.89159,3.83484 7.71865,-2.34986 5.64619,0.22845 4.78132,-3.63901 4.48758,-0.22847 3.75324,2.25195 2.26828,-2.4804 4.5039,0.81592 v 0 l -1.40339,6.21734 0.48955,6.52739 -8.79566,0.35901 -1.17493,1.25652 0.0164,5.76042 -5.54828,5.61356 -2.65992,0.86488 -3.37793,18.65203 -3.06787,3.37792 -5.43405,3.05156 -1.27284,6.47843 -1.58289,-0.0979 -0.11424,1.74608 -1.22388,-0.0326 -1.28916,9.43209 2.87205,-0.14688 4.68341,-4.71603 5.84201,1.63184 4.69973,-2.61096 1.71343,1.48499 3.28002,-0.76697 1.24021,4.89554 v 0 l -0.89752,0.66906 0.96279,5.35246 4.65076,5.05873 -1.58289,3.01892 -7.78392,1.74607 -7.09854,4.03067 -2.96996,8.35507 -0.16318,6.95166 -5.76042,8.37139 0.65274,2.7415 -13.21798,6.13574 -6.20101,-2.90468 0.0652,-2.25195 3.23106,-3.03523 -0.50588,-3.36162 -3.75324,0.4406 -2.69255,1.51763 -0.27742,2.33353 -2.41513,0.13055 -0.99543,-2.36618 -1.51762,0.53852 -5.58092,-2.95366 -2.44777,-6.33156 -8.7467,-3.59006 -1.20757,1.40339 0.52219,3.5411 -7.13118,-5.15664 -12.56523,-4.58549 -6.64161,-0.53851 -14.88246,-8.7467 -1.66449,-0.049 2.17036,5.07504 -4.61813,1.38708 -0.93015,3.01892 -9.15467,-0.27742 -5.40142,5.46669 -7.78391,-0.5385 -5.31982,1.43602 -3.98171,-2.72519 -8.58352,1.10966 -3.78589,-0.79961 -2.28459,-2.02349 -2.39881,0.63643 -1.69713,-1.5829 -2.08877,0.58746 -0.89751,3.41056 -3.16578,1.30549 -3.80221,-9.02412 -4.12858,-1.51762 -0.7996,-1.71345 -9.90532,0.99544 -6.54371,-1.56657 v 0 l -0.42428,-2.79047 2.203,-2.562 2.96996,1.9419 2.44777,-0.81592 0.19582,-2.59464 -1.30547,-1.48498 1.4197,-2.562 2.72519,-0.44061 0.94647,-9.35048 3.0026,2.33353 1.38707,3.41057 4.01435,-7.21277 2.4804,3.4432 2.93733,-3.08419 5.23824,-0.0979 3.19842,2.07245 9.74213,-4.09594 v -5.92361 l 2.34986,-2.96996 -0.48955,-2.74151 2.59464,-1.84399 -2.75783,-1.74607 2.69255,-2.48042 2.08877,-4.84658 -1.24021,-2.562 2.34986,-0.81593 -0.58746,-3.05155 3.65533,-3.55743 1.15862,-3.94907 2.25195,-0.049 1.37075,-1.66449 -0.13055,-4.09594 4.74868,-3.19842 2.30091,-0.48955 7.27804,4.14489 0.55482,-1.30547 1.4034,2.20299 1.55025,-0.99542 -0.52219,-8.55089 2.90469,2.3825 6.98431,-5.79306 4.37335,3.91643 2.85573,7.686 5.30351,-4.6834 -0.29373,-3.99802 4.22649,-3.78589 2.4804,-4.63445 8.50193,-5.27087 7.21277,0.27741 4.71604,2.51306 7.71864,-5.98889 5.92361,2.39882 0.53851,1.61553 1.07701,-0.0979 0.65275,-2.64359 2.61095,-0.27741 0.45692,-1.17494 z"
     class="land"
     title="Koroška"
     id="SI-KO"
     inkscape:connector-curvature="0"
     style="fill:#f68026;fill-opacity:1;stroke:#ffffff;stroke-width:0.81592393;stroke-opacity:1" />
  <path
     d="m 532.59877,543.57644 4.09594,0.84857 11.01497,-3.11684 11.81459,2.83942 8.43664,4.765 0.48956,-6.75586 -4.43862,-1.69711 1.74607,-1.87663 -1.14229,-2.13772 2.28459,-5.87466 -4.5855,-2.85573 0.58746,-2.23563 4.5855,-1.82767 2.43145,1.15862 3.80221,-1.37076 3.75325,3.06787 3.68797,0.53851 3.4432,-0.71801 1.77872,-3.52479 1.14229,0.0979 1.79504,2.31723 -0.0326,3.52479 2.48041,1.19125 -0.31006,7.66968 2.44777,1.87663 0.31006,-5.89097 3.94907,0.63642 3.13315,-1.25653 5.27087,1.64817 11.19448,-0.26109 6.34789,-3.60639 2.54568,2.34986 5.85833,1.12598 v 0 h 6.02152 v 0 l 2.72518,-1.43603 5.05873,1.20757 6.96799,-1.41971 5.23824,2.75782 2.05612,3.11683 3.62271,-2.67623 3.54111,1.56657 2.62727,5.25455 3.10051,0.75066 1.71344,10.96601 4.86291,-0.14686 2.79047,-1.50131 6.33156,0.97912 -2.02349,6.54371 -6.28261,3.99802 -2.13773,4.27545 10.75388,-1.15862 7.65337,-3.06787 3.16578,-2.80678 4.03067,-6.77217 5.80938,-2.39881 2.96996,-5.74411 8.19188,0.79961 3.28001,-2.17036 4.27544,0.83224 v 0 l 3.41056,4.45494 -2.54568,0.66906 -2.31722,2.85573 0.71801,1.19126 -1.37075,4.63444 1.09334,0.89752 -3.37793,2.17036 1.9419,0.40796 -0.24477,4.3244 -3.24739,1.59921 -0.47323,1.95822 2.02349,2.61095 -1.87662,1.02807 1.40339,1.28916 1.48498,9.07307 -0.68538,18.84784 -8.45297,8.71408 2.44777,8.69774 -0.96279,2.39882 2.00717,4.07962 -2.03981,2.88837 2.54569,0.93015 4.4223,6.16839 -5.17296,1.90926 -7.81655,0.48956 -7.19644,9.21994 -4.24281,-5.62988 -5.40142,-3.5411 -9.41576,-2.83943 -2.57832,-2.57831 -3.85116,6.11942 -1.97454,-1.0607 -0.93015,-2.70886 -3.65533,-0.62011 -1.53394,8.3877 -2.69255,2.65991 -7.27805,0.66906 -0.6201,-2.75782 -2.8231,-1.55025 -4.43862,2.2193 -0.62011,2.75783 -2.75782,0.52219 2.28459,9.52999 -3.28001,1.46867 -13.36484,-0.62011 -6.72321,1.72976 v 0 l -4.91187,-16.36743 -2.75782,-3.67166 -0.7996,-3.99803 -2.0235,-1.59921 0.57115,-1.72976 7.03327,-1.41971 1.82767,-3.24738 -3.90012,0.049 -1.24021,-4.79763 1.01175,-2.88837 -12.64682,-6.11943 2.54568,-6.65794 -1.27284,-17.95032 2.3825,-3.73694 -1.30548,-2.23563 -4.17753,-1.28916 -0.13055,-5.6462 -3.83484,0.31006 -4.87923,-1.77872 0.19582,4.89555 -3.60638,-3.14947 -4.21017,-1.33812 -2.33354,4.09594 2.54568,2.88838 -0.1795,2.75782 -2.92101,0.21214 -3.03523,-5.46669 -4.09594,-1.02807 -0.4406,4.63445 -2.62728,0.13055 -0.34269,2.52936 -2.61095,-1.2402 -1.27284,0.89751 0.19582,2.30091 -2.0235,-0.0816 -6.88639,-2.85574 -10.62333,-8.9262 -0.40796,-4.37336 -2.95364,-1.5013 0.81591,-4.53654 3.75326,-1.77871 0.52219,-5.12401 -7.89814,-1.51761 -2.70888,3.65534 -1.10965,-3.47583 -6.60898,-2.13773 v 0 l -6.23366,-10.05218 z"
     class="land"
     title="Spodnjeposavska"
     id="SI-PS"
     inkscape:connector-curvature="0"
     style="fill:#f68026;fill-opacity:1;stroke:#ffffff;stroke-width:0.81592393;stroke-opacity:1" />
  <path
     d="m 749.145,252.04681 8.40401,12.35309 4.16122,-2.83942 3.06787,4.9445 -1.86031,2.83942 1.86031,1.76239 2.8231,0.0979 1.79503,3.41056 5.98888,2.07245 1.61552,-0.7996 0.93016,2.82309 2.25195,-1.74607 5.27087,1.20757 0.50587,2.57831 4.65077,0.6201 3.8022,5.09137 4.25913,2.25195 -0.19582,1.74607 -3.86749,2.39883 -0.31005,1.51761 -5.02608,2.02349 3.90011,9.59527 17.34655,2.562 -0.22846,8.89358 -2.17036,3.42687 0.89751,4.22649 9.02412,12.76105 0.2611,2.15404 -1.81135,1.87662 2.05613,1.7624 0.52219,3.31265 -1.79504,2.33355 8.50194,7.9471 0.86487,2.3009 -1.86031,10.08482 -4.27544,4.84659 0.24478,5.15663 1.48498,0.99544 3.19842,-0.63643 1.41972,-3.26369 1.61552,-0.22845 0.4406,7.08221 -1.43603,1.30547 5.33615,5.9073 -0.86488,1.38707 1.64817,4.40599 v 0 l -1.22389,-0.049 0.0326,1.92558 5.49933,9.67686 1.07702,6.21735 -0.93015,3.63901 -10.88443,1.07702 -5.72778,9.56263 -5.61356,1.79503 -2.26827,-1.59921 -1.8603,1.77872 -2.30091,-1.02807 -3.90012,6.0868 -7.16381,3.49215 -8.40402,1.56657 -1.48498,-1.79503 -1.71344,0.89752 -2.3825,-0.7996 -1.6808,2.13771 -7.31068,1.51763 -2.3825,4.83026 -3.78589,3.08419 -4.09594,-0.7996 -2.921,1.43602 -1.02806,2.59465 -10.03587,1.28916 1.82767,3.9817 v 0 l -11.19448,1.56657 -3.19842,-6.26628 -1.61553,0.84855 -3.31265,-1.95822 -2.07244,0.35901 v 0 l -5.40143,0.39165 v 0 l -6.29893,0.35901 -0.86487,-1.20757 0.89752,-2.62728 -3.72063,0.4406 -2.57831,-1.51762 -9.33417,-1.51762 -0.42428,-2.36618 -5.64619,-2.15403 -6.07048,1.33811 -2.67623,-1.95822 -5.3851,1.46866 -5.02609,-1.69712 -0.58746,-6.0868 -6.2663,-1.69711 2.34985,-2.4641 -2.28458,-3.26369 1.69712,-5.10768 -2.13772,-2.54569 -2.75782,-17.33022 -2.05613,-1.79503 -7.89815,2.28458 -1.6808,-5.54828 -1.69712,-0.86488 -2.44778,2.25195 -2.64359,-1.89294 -2.51304,1.35443 -5.14032,0.13055 -2.30091,-1.25653 0.16318,-2.18667 -6.3642,-1.40339 -1.51762,-1.02807 0.1795,-2.15403 -4.61813,-1.02807 -1.72975,-1.82767 4.17752,-0.81592 -0.96279,-2.59464 1.55026,-1.43603 -5.92361,-4.69972 0.44061,-1.22388 h 2.34986 l 0.47323,-6.72322 1.55025,-2.77414 -6.1031,-5.2056 -3.23107,2.23564 -3.85116,-1.92558 -0.45691,-2.203 -2.85573,-2.15404 -3.31266,1.38708 -2.72519,-0.48956 -0.26109,-4.43863 -2.79046,-3.28001 -0.48955,-4.43863 -3.41056,0.66906 -2.36618,-1.97454 v 0 l -1.24021,-4.89554 -3.28002,0.76697 -1.71343,-1.48499 -4.69973,2.61096 -5.84201,-1.63184 -4.68341,4.71603 -2.87205,0.14688 1.28916,-9.43209 1.22388,0.0326 0.11424,-1.74608 1.58289,0.0979 1.27284,-6.47843 5.43405,-3.05156 3.06787,-3.37792 3.37793,-18.65203 2.65992,-0.86488 5.54828,-5.61356 -0.0164,-5.76042 1.17493,-1.25652 8.79566,-0.35901 -0.48955,-6.52739 1.40339,-6.21734 v 0 l 3.73693,-1.63185 1.24021,1.71345 4.29176,0.40796 14.99668,-1.9419 0.57115,3.29633 2.87204,0.40796 3.0842,2.82309 2.28458,-1.07701 2.51305,1.45234 -0.16318,4.22649 2.33353,2.3009 0.4406,4.27545 3.68798,1.20757 4.45494,-3.68799 2.64361,0.84857 1.14228,2.02349 2.6436,-0.97911 0.27741,-2.61096 1.95822,0.4406 5.69514,-5.53196 0.9628,-0.4406 0.96279,1.79504 2.10508,-3.78589 -1.79503,-2.38251 2.82309,-1.76239 -2.17035,-9.59527 1.20756,-1.12597 2.41514,0.50587 3.36161,-3.88379 6.41317,-1.89295 2.20299,-2.74151 3.37792,0.99543 -1.09333,1.02807 -2.34987,-0.94648 -1.14229,3.60639 3.93276,2.65991 1.51761,-0.58746 -1.58289,-2.92101 1.37075,-1.09334 4.99346,1.63185 2.07244,-1.17494 1.68081,-4.01433 4.61813,-0.31006 1.33812,-6.49475 6.20101,-0.13056 6.78849,3.91645 6.47843,0.81591 5.48302,-1.76239 8.5672,0.27741 z"
     class="land"
     title="Podravska"
     id="SI-PD"
     inkscape:connector-curvature="0"
     style="fill:#f68026;fill-opacity:1;stroke:#ffffff;stroke-width:0.81592393;stroke-opacity:1" />
  <path
     d="m 896.32136,177.91195 9.82372,0.40797 2.6436,5.3851 8.14292,6.41316 3.01892,0.5385 3.13315,4.24282 -2.51305,6.51106 -0.78329,8.30611 -5.20559,1.09334 -2.75782,2.57832 0.0326,7.44122 4.765,-0.0979 0.50587,1.55025 -3.26369,8.97516 9.43208,9.69318 -0.24478,4.29176 2.51304,4.09594 3.96539,-3.47584 2.79047,3.16579 -0.16319,2.3825 -2.62728,2.75782 1.35443,1.35443 17.06914,2.61096 -3.13315,16.35112 -4.30808,-0.049 -4.16121,-2.20299 -0.31005,3.83484 -1.79503,1.48498 0.31005,3.37793 2.13772,1.79503 -0.37533,2.65991 5.05873,1.48498 4.52022,8.14292 7.04959,1.43603 7.44122,11.16184 1.27284,-0.58746 2.21932,2.43145 0.91383,6.60898 3.34529,1.92558 4.52022,-0.4406 3.01892,4.81395 -0.91384,5.2056 0.8812,2.61095 4.17753,1.84399 -2.17035,5.66252 2.36617,2.59464 -3.06787,4.04698 17.10177,9.15466 5.09133,6.38053 -2.57829,-0.049 -1.55025,1.48498 -3.13315,-3.00261 -1.28916,1.97454 -5.80938,-4.27544 -2.17036,-0.1795 -1.20757,-2.33355 -2.57832,1.97454 -2.203,-0.57115 -1.28916,-1.30547 1.51763,-3.50848 -9.15467,-3.85116 1.12598,-1.9419 -1.06071,-1.66449 -5.77674,-1.97452 -2.562,0.45691 -2.0235,-3.99803 -6.29893,1.48499 -2.75782,-5.89097 -3.0026,0.71801 -2.30091,-1.71344 -1.35443,2.1214 -3.54111,-3.01892 0.86488,-2.23563 -0.86488,-1.30548 -1.51762,-0.049 -1.17492,3.76957 -4.27545,2.02349 -3.10051,-5.124 -2.33354,2.34986 -3.85116,-1.76239 -1.66449,5.66251 -3.6227,-1.61553 -4.40599,1.84399 -1.5013,2.87205 -3.72062,2.3009 -8.73038,-0.049 -2.98629,8.3061 -2.57831,2.15405 v 2.82309 l 4.81395,10.7702 1.55025,14.05021 2.92101,4.69973 5.93993,4.84658 2.48041,4.43863 -0.32637,4.61813 -5.6462,7.39227 -4.78131,0.35901 -1.20756,-3.80222 -2.95365,-3.3616 -4.86291,3.6227 -4.96082,-1.61553 -4.89554,2.8231 -2.48041,-1.10965 -3.03523,1.02806 -4.43863,-7.08222 -9.77477,-6.41317 -2.65992,0.40797 -4.58548,3.67166 -3.72062,6.31525 -4.56918,-1.25652 -4.83026,2.15404 -4.03067,-0.58748 -3.03523,-2.13771 v 0 l -1.64817,-4.40599 0.86488,-1.38707 -5.33615,-5.9073 1.43603,-1.30547 -0.4406,-7.08221 -1.61552,0.22845 -1.41972,3.26369 -3.19842,0.63643 -1.48498,-0.99544 -0.24478,-5.15663 4.27544,-4.84659 1.86031,-10.08482 -0.86487,-2.3009 -8.50194,-7.9471 1.79504,-2.33355 -0.52219,-3.31265 -2.05613,-1.7624 1.81135,-1.87662 -0.2611,-2.15404 -9.02412,-12.76105 -0.89751,-4.22649 2.17036,-3.42687 0.22846,-8.89358 -17.34655,-2.562 -3.90011,-9.59527 5.02608,-2.02349 0.31005,-1.51761 3.86749,-2.39883 0.19582,-1.74607 -4.25913,-2.25195 -3.8022,-5.09137 -4.65077,-0.6201 -0.50587,-2.57831 -5.27087,-1.20757 -2.25195,1.74607 -0.93016,-2.82309 -1.61552,0.7996 -5.98888,-2.07245 -1.79503,-3.41056 -2.8231,-0.0979 -1.86031,-1.76239 1.86031,-2.83942 -3.06787,-4.9445 -4.16122,2.83942 -8.40401,-12.35309 v 0 l 3.65534,-2.3825 10.29695,-3.24738 12.04304,-0.0979 14.22971,6.4458 8.17556,7.21277 15.20882,4.19385 3.11683,2.7415 2.26828,4.96082 7.53913,4.45495 1.6808,-2.15405 0.35901,-10.36223 -3.76957,-7.49019 0.7017,-5.31982 -3.5248,-0.6201 -1.55025,-2.39882 -3.60638,0.049 0.58746,-2.17036 -4.14489,-3.73693 -1.55026,-3.91643 1.17493,-8.58352 -0.58746,-7.03327 2.23563,-6.23365 -1.02806,-6.82113 2.17035,-2.61096 -4.12858,-7.8655 3.72062,-3.60639 2.69255,2.1214 6.64162,-3.70429 1.55025,2.57832 2.98629,-3.2637 5.10769,0.86488 1.06069,-3.75325 3.31266,-2.98628 2.13771,0.27742 3.32897,-5.05873 1.41971,-0.32638 1.48499,1.71344 4.34071,-4.01434 0.4406,1.9419 2.13772,0.049 1.89294,2.88837 8.55089,1.45234 1.58289,-2.21931 4.22648,0.5385 3.90012,-3.70429 11.09656,-1.71344 4.25913,-2.52936 z"
     class="land"
     title="Pomurska"
     id="SI-PM"
     inkscape:connector-curvature="0"
     style="fill:#f68026;fill-opacity:1;stroke:#ffffff;stroke-width:0.81592393;stroke-opacity:1" />
  <g
     id="stadiums"
     data-country="slovenia"
     data-circle-radius="6"
     data-circle-colors="#a149be,#bea149"
     transform="matrix(1.6318479,0,0,1.6318479,0.41451988,-2.5045623)" />
</svg>
