<?xml version="1.0" encoding="UTF-8" standalone="no"?>
<?xml-stylesheet type="text/css" href="/styles/home.css"?><!-- https://www.amcharts.com/svg-maps -->

<svg
   xmlns:dc="http://purl.org/dc/elements/1.1/"
   xmlns:cc="http://creativecommons.org/ns#"
   xmlns:rdf="http://www.w3.org/1999/02/22-rdf-syntax-ns#"
   xmlns:svg="http://www.w3.org/2000/svg"
   xmlns="http://www.w3.org/2000/svg"
   xmlns:sodipodi="http://sodipodi.sourceforge.net/DTD/sodipodi-0.dtd"
   xmlns:inkscape="http://www.inkscape.org/namespaces/inkscape"
   version="1.1"
   id="map-sweden"
   viewBox="0 0 1000 1000"
   width="1000"
   height="1000"
   class=""
   sodipodi:docname="sweden.svg"
   inkscape:version="0.92.4 (5da689c313, 2019-01-14)">
  <metadata
     id="metadata30">
    <rdf:RDF>
      <cc:Work
         rdf:about="">
        <dc:format>image/svg+xml</dc:format>
        <dc:type
           rdf:resource="http://purl.org/dc/dcmitype/StillImage" />
        <dc:title></dc:title>
      </cc:Work>
    </rdf:RDF>
  </metadata>
  <sodipodi:namedview
     pagecolor="#ffffff"
     bordercolor="#666666"
     borderopacity="1"
     objecttolerance="10"
     gridtolerance="10"
     guidetolerance="10"
     inkscape:pageopacity="0"
     inkscape:pageshadow="2"
     inkscape:window-width="1920"
     inkscape:window-height="1017"
     id="namedview28"
     showgrid="false"
     showguides="true"
     inkscape:guide-bbox="true"
     inkscape:zoom="0.73798651"
     inkscape:cx="370.02784"
     inkscape:cy="538.15543"
     inkscape:window-x="-8"
     inkscape:window-y="-8"
     inkscape:window-maximized="1"
     inkscape:current-layer="map-sweden">
    <sodipodi:guide
       position="500,607.05716"
       orientation="1,0"
       id="guide840"
       inkscape:locked="false"
       inkscape:label=""
       inkscape:color="rgb(0,0,255)" />
  </sodipodi:namedview>
  <defs
     id="defs4">
    <style
       type="text/css"
       id="style2">
         .land {
            fill: #05adda;
            fill-opacity: 1;
            stroke: white;
            stroke-opacity: 1;
            stroke-width: 0.5;
         }

         .rectangle:hover {
            fill: #bdbdbd;
            cursor: pointer;
         }
      </style>
    <!-- <amcharts:ammap projection="mercator" leftLongitude="11.105169" topLatitude="69.061149" rightLongitude="24.170696" bottomLatitude="55.338154"></amcharts:ammap> -->
    <!-- All areas are listed in the line below. You can use this list in your script. -->
    <!--{id:"SE-M"},{id:"SE-O"},{id:"SE-K"},{id:"SE-C"},{id:"SE-AB"},{id:"SE-I"},{id:"SE-AC"},{id:"SE-Y"},{id:"SE-BD"},{id:"SE-Z"},{id:"SE-S"},{id:"SE-N"},{id:"SE-U"},{id:"SE-D"},{id:"SE-E"},{id:"SE-T"},{id:"SE-G"},{id:"SE-W"},{id:"SE-H"},{id:"SE-F"},{id:"SE-X"}-->
  </defs>
  <path
     d="m 339.82288,1000.8599 45.17694,-0.487 12.47597,-39.45369 -0.42621,-25.54971 -34.82089,3.2546 -19.78774,-3.0664 -15.39293,10.28962 20.21395,36.56995 z"
     class="land"
     title="Skåne"
     id="SE-M"
     inkscape:connector-curvature="0"
     style="fill:#05adda;fill-opacity:1;stroke:#ffffff;stroke-width:0.27675167;stroke-opacity:1" />
  <path
     d="m 304.4983,862.75541 -1.71032,0.55904 1.80996,0.95756 z m -4.14574,-2.86162 -0.85793,-1.79888 -0.63099,2.13099 z m -0.66421,-11.59035 -2.60699,1.15682 1.00184,1.31181 z m 3.48154,-10.92063 -8.07008,1.9262 3.24353,5.84499 z m 1.69372,-11.92799 -12.82467,7.32839 1.71032,3.73614 11.62911,-3.39851 z m -25.9261,-43.09023 -0.80257,2.96678 2.50183,-0.005 z m 42.07733,-19.00731 -15.4206,-2.6402 -6.68632,23.18072 -16.86524,-3.92435 3.77488,39.11055 22.17888,0.85793 -2.4797,1.95386 2.70664,5.44094 -4.36714,19.93166 -3.45387,3.94647 8.59591,16.09034 40.33378,26.46853 33.01648,-45.18801 20.46855,-53.03668 -13.41138,-19.6549 -11.8173,-2.12545 -9.58668,28.8984 -43.05148,15.25455 13.01286,-44.97214 z"
     class="land"
     title="Västra Götaland"
     id="SE-O"
     inkscape:connector-curvature="0"
     style="fill:#05adda;fill-opacity:1;stroke:#ffffff;stroke-width:0.27675167;stroke-opacity:1" />
  <path
     d="m 407.32261,964.124 0.24907,-0.76384 -0.69742,-0.27121 z m 31.45558,-1.8487 0.0831,1.14022 0.70849,-1.19557 z m -3.714,-5.3247 0.71955,2.7509 1.00738,-2.64574 z m -23.30248,-0.32103 -0.869,0.14944 0.66973,0.73062 z m 16.63831,1.48891 0.34317,-1.50552 -1.62177,0.81365 z m 2.83946,-0.33209 -0.91881,-1.3893 -0.6642,1.12915 z m 2.23062,0.16051 0.0332,-1.88744 -1.17342,1.47231 z m 4.39481,-1.80442 -1.48339,0.0554 1.39483,1.51659 z m -11.80068,-1.32287 -0.45387,-0.42067 v 0.82472 z m 6.38742,-20.91689 -7.85421,1.18449 -27.54786,0.28229 0.42621,25.54971 7.17893,1.40037 -2.86161,-5.19186 1.42803,-3.03873 21.46486,1.59962 1.28413,-2.32471 2.54611,1.67711 3.5701,-3.43172 8.0424,2.97785 -1.26752,3.18264 2.11438,1.20664 7.18448,-15.03869 z"
     class="land"
     title="Blekinge"
     id="SE-K"
     inkscape:connector-curvature="0"
     style="fill:#05adda;fill-opacity:1;stroke:#ffffff;stroke-width:0.27675167;stroke-opacity:1" />
  <path
     d="m 532.71324,696.56605 -0.94096,0.6808 2.13099,0.27676 z m -1.1845,1.39483 -0.1273,-1.14022 -2.55166,-1.01291 z m 2.78412,-5.44648 -0.83578,-0.73062 -0.42067,0.78597 z m -6.64203,-12.32098 -1.24539,5.81732 5.51843,4.22323 z m -0.96864,-3.87452 -0.37085,-1.2952 -1.28966,0.69187 z m -24.78587,0.57564 -9.84682,-8.16971 -5.04242,21.36522 -1.05719,27.70285 -13.64385,6.60883 5.99443,17.66782 16.01838,9.68077 37.18989,-48.96843 z"
     class="land"
     title="Uppsala"
     id="SE-C"
     inkscape:connector-curvature="0"
     style="fill:#05adda;fill-opacity:1;stroke:#ffffff;stroke-width:0.27675167;stroke-opacity:1" />
  <path
     d="m 508.52515,792.31658 -0.39853,-0.68635 0.3155,2.41328 z m -4.91511,-5.30257 -0.85794,-1.02951 0.72509,1.85977 z m 13.02947,-0.94648 0.93542,-2.18081 -1.53321,2.07564 z m -8.66233,0.38745 -0.0222,-2.97785 -1.88745,6.60883 z m 10.18446,-3.40404 1.9428,-2.23615 -1.36162,0.14944 z m 6.64757,-3.97416 -5.36898,3.64205 4.11253,-1.01844 z m -10.86526,1.68265 0.0221,-2.20295 -1.2786,2.8118 z m 6.26565,-5.39666 -3.7915,0.11624 -1.77121,4.01843 z m -1.23432,-1.71586 -0.6642,-0.43173 -0.56457,0.80258 z m 12.25457,-0.64759 -0.94096,0.32656 -0.238,1.65498 z m -28.74896,8.84498 -0.81918,-9.57561 -1.24539,7.49444 z m 30.72497,-10.04055 0.65313,-1.69372 -0.89114,0.66974 z m 4.54426,-0.79704 0.70849,-1.42251 -1.12362,0.94649 z m -9.52026,2.22507 0.78044,-3.88005 -4.62174,5.42987 z m 4.28412,-4.30071 0.41513,-0.47602 -0.869,0.37085 z m 2.56272,-4.25091 -0.57565,0.13837 -0.43726,0.95757 z m 2.60146,-0.62546 -1.57748,-0.72508 -1.04612,2.0867 z m -10.40586,-0.95756 -0.0775,-0.48155 -0.65866,-0.13837 z m 6.29887,-1.41697 -0.92435,0.53137 0.85793,0.12176 z m 5.46861,-1.71032 1.07933,-1.90959 -2.9557,1.76014 z m 5.02028,-0.90775 -0.33764,-1.17896 -0.61992,0.28782 z m -13.5719,-0.9631 -5.98338,-0.69741 8.96122,2.69002 z m 12.36526,-1.3284 0.28228,-0.11623 -1.31179,0.12176 z m 0.71955,-3.06087 -1.20663,0.17158 -0.47049,2.05903 z m -7.22875,-1.19003 -0.69187,4.86529 2.33024,-2.12545 z m 5.60699,-1.06273 -0.0166,-0.66421 -0.61993,0.26015 z m 2.77305,0.72508 -0.89667,-1.78781 -0.7417,0.34318 z m -18.21025,-2.11438 -1.42251,-0.5369 2.2915,1.74354 z m 20.70102,-0.43173 -0.0997,-0.16051 -0.10516,0.19372 z m -2.19741,-0.33763 -0.30997,1.85423 1.05166,-1.40036 z m -20.75638,0.0277 0.65313,-0.28782 -1.7712,-0.56457 z m 29.59582,-0.69741 -0.0277,-0.80812 -0.44834,0.0941 z m -10.45014,0.97416 0.0941,-1.93172 -1.71586,1.49445 z m 20.22501,-1.50553 -0.10516,-0.47601 -0.34317,0.14391 z m -26.03679,-1.16789 -3.11622,1.19557 2.31918,-0.0941 z m 3.0498,-1.21218 -0.38191,-0.39851 -3.59224,0.83025 z m 11.71766,-1.79334 -0.43726,0.30442 -0.0498,0.48709 z m -16.47779,-2.0535 -5.82838,3.43172 1.53873,4.0129 z m 12.29884,-2.96678 -1.00184,0.48155 1.8321,-0.2048 z m 3.17158,-0.29336 1.19556,-0.59778 -0.25461,-0.46494 z m 3.66419,-1.83209 -0.32103,0.20479 -0.16052,0.54797 z m -9.39295,-0.73063 -0.76383,-1.98154 -3.1439,3.7915 z m 2.5129,-1.55534 -0.50921,-0.56457 -0.49263,0.80811 z m -8.93354,4.78227 4.71585,-5.46862 -5.61805,5.3856 z m 12.43168,-5.11991 -0.32103,-0.62545 -0.71955,0.17158 z m -8.67892,-1.15682 -1.738,0.26014 1.46124,0.52583 z m 9.81914,0.68081 0.23247,-0.6476 -0.57564,-0.0886 z m -0.83025,-1.04612 -0.0443,-0.1107 -0.0388,0.072 z m 8.01473,-1.93173 0.18265,-0.37084 -0.44833,0.45387 z m -8.50735,-2.69556 -1.38375,-0.69187 0.29889,0.6808 z m 1.19557,-1.28966 0.47601,-1.31734 -1.38375,0.6476 z m -3.02767,-0.76384 0.33211,-0.98523 -0.8856,0.26569 z m -3.41511,-2.55718 -1.11807,-3.34316 -2.45756,4.64943 z m 4.54426,-2.09224 0.23801,-1.30627 -1.44464,2.12546 z m -13.00733,-16.98702 -6.21584,-1.5332 -37.18989,48.96843 -5.214,13.04054 9.96307,14.45197 2.43541,-13.30069 7.83761,20.03683 4.05164,-11.94461 13.74902,-6.46491 -4.45016,-11.7066 11.6457,0.49816 -21.10507,-6.13836 35.70096,-22.57739 -11.41324,-1.27306 6.37636,-5.56271 -1.2786,-5.18079 4.98153,6.33208 1.23985,-4.09039 z m -16.43905,48.65848 -1.98154,1.85976 -2.845,-2.57932 z m 17.91138,-53.8614 -2.40221,-2.44096 0.40959,3.81917 z"
     class="land"
     title="Stockholm"
     id="SE-AB"
     inkscape:connector-curvature="0"
     style="fill:#05adda;fill-opacity:1;stroke:#ffffff;stroke-width:0.27675167;stroke-opacity:1" />
  <path
     d="m 539.23351,851.2038 -21.98515,18.27114 0.34871,38.76737 26.39103,-29.07553 -5.4188,-14.61249 10.7435,-12.47596 z m 14.67337,-9.49813 -6.21584,5.36346 10.10697,-3.6808 z m 2.30811,-22.87629 1.35609,-1.107 -4.82102,-1.74907 z"
     class="land"
     title="Gotland"
     id="SE-I"
     inkscape:connector-curvature="0"
     style="fill:#05adda;fill-opacity:1;stroke:#ffffff;stroke-width:0.27675167;stroke-opacity:1" />
  <path
     d="m 560.28878,467.13894 -0.0886,-0.97417 -0.12731,1.22324 z m 3.48153,-0.64207 0.57564,0.39852 -1.49445,-1.89298 z m 12.75825,-2.88929 -0.26568,1.16789 0.39852,-0.0941 z m -0.58671,-3.73614 -0.14392,-1.97601 0.0111,2.6236 z m 30.18253,-4.82101 -0.0609,-1.20111 -0.99631,1.66052 z m -17.50731,-4.32287 0.55351,0.96863 0.18265,-0.42619 z m 19.58848,1.28966 0.869,-2.38006 -1.38375,1.70479 z m -8.82838,-6.75827 -0.60331,-0.35424 0.59778,1.23431 z m 11.03686,2.90036 1.32841,-6.00551 -2.89482,6.14942 z m 0.38745,-5.94463 -1.85977,-1.74907 -0.86346,2.21955 z m -7.33945,-2.20294 0.26568,-0.61439 -0.48155,0.94649 z m 10.37265,0.0332 0.14391,-0.89114 -0.52583,0.98523 z m 16.74901,-61.00713 -0.34871,-0.50922 0.0664,0.59778 z m -7.13466,-21.95194 -0.32103,-1.78782 -1.10147,-0.45387 z m -68.58459,-26.95008 -126.4755,-93.22655 -31.34489,19.08478 -6.96307,82.02365 80.82255,85.64357 5.25274,4.40036 51.09389,-1.76014 29.77848,39.74153 45.53672,-25.00174 31.00725,-50.13634 -18.85232,-30.5257 18.23793,-18.59217 z m 63.83,41.64005 -1.02952,-2.02028 2.78412,2.89482 z m -1.13468,38.29136 0.22694,0.57011 -0.60886,-0.5369 z m -18.54236,32.05891 0.47601,-1.46679 0.0222,1.01846 z"
     class="land"
     title="Västerbotten"
     id="SE-AC"
     inkscape:connector-curvature="0"
     style="fill:#05adda;fill-opacity:1;stroke:#ffffff;stroke-width:0.27675167;stroke-opacity:1" />
  <path
     d="m 503.25026,559.18099 1.26752,-2.21401 -1.97047,-0.15498 z m 6.17156,-23.39104 -0.2214,0.15498 0.0831,0.13284 z m 6.85238,-10.23981 -0.90222,-1.37823 -2.13099,0.76937 z m -0.21587,-6.95201 -2.90036,3.11623 5.19186,-2.45756 z m 3.85237,-0.5535 1.0406,-2.02028 -1.31734,1.23431 z m -6.74719,-0.28228 0.47047,-1.30073 -1.93172,-0.69188 z m -4.02951,-9.67524 0.43727,-1.03506 -0.76937,0.3155 z m 25.58293,-6.82469 0.34317,-2.38561 -1.33949,2.72324 z m -4.58855,-2.40775 1.83763,-2.50736 -1.98708,-0.25462 z m 3.59777,-2.80073 -0.0222,-1.85976 -0.38191,0.46494 z m 3.84685,-1.06826 -0.0997,-1.38375 -0.1882,1.16235 z m 1.15128,-4.26197 -0.24907,-0.30996 -0.0111,0.61992 z m 1.49447,-0.7583 -1.30074,-0.31549 0.54243,0.69187 z m -4.3284,0.27675 -0.39852,-1.35608 -0.49262,0.34871 z m 5.33577,-1.02951 0.70295,-0.86347 -1.14022,0.5369 z m 1.79335,-2.8118 0.16605,-0.75276 -0.78044,0.45941 z m 9.58114,-6.1771 -0.38745,-0.8524 -0.39853,0.15499 z m -76.44434,-52.16214 -5.25274,-4.40036 -27.89657,28.69914 35.26369,49.2618 -71.70634,28.90394 17.88922,21.91874 71.69528,9.65862 -5.25828,-25.28402 24.21577,-7.09592 -12.42061,-29.15855 4.59961,-0.45941 -0.70848,1.51106 2.3081,5.03135 1.43358,-0.34317 0.46494,7.25089 4.76013,-2.84501 2.30811,2.46309 -4.59961,2.04243 6.23798,1.23985 12.78592,-13.29515 -11.22504,-3.05534 13.83204,-8.41878 -3.01659,-4.76567 6.40403,1.52213 -1.8487,-5.07561 4.13467,0.45939 -1.69926,3.7749 4.69925,-3.21585 -5.4354,-3.52582 10.10144,5.99444 8.80623,-20.81172 -29.77848,-39.74153 z m 47.02564,83.87788 -0.072,0.48708 -0.0498,-0.90774 z"
     class="land"
     title="Västernorrland"
     id="SE-Y"
     inkscape:connector-curvature="0"
     style="fill:#05adda;fill-opacity:1;stroke:#ffffff;stroke-width:0.27675167;stroke-opacity:1" />
  <path
     d="m 633.81615,339.40145 -0.64206,-0.57011 -0.70848,1.56641 z m 4.0461,-2.24723 -0.64759,-1.48892 0.0831,1.51106 z m -1.16789,-0.32656 -0.85239,-1.738 -0.41513,0.29889 z m 8.61805,-4.49999 -1.0738,0.0222 1.06827,0.47602 z m -1.87084,-0.54243 -0.72509,-0.16605 1.22878,1.20664 z m -1.48339,-0.0277 -1.35609,-3.18817 -1.55533,0.0941 z m 3.2546,-6.321 -0.18819,-0.50923 -0.29335,-0.0664 z m -2.90035,1.25091 -3.68634,-2.21955 0.89114,2.23617 z m 17.16414,-4.35053 0.0609,-0.60886 -0.72509,0.072 z m -18.83572,-0.72509 -1.96494,-0.89114 0.43173,0.91328 z m 2.80626,-2.60147 -0.49815,0.69742 1.07379,0.38192 z m 19.23423,-0.14944 0.33211,-0.18265 -1.20664,0.35423 z m 0.32657,-1.89851 -0.53136,-0.99078 -0.38746,0.45941 z m -24.32093,-0.89668 -3.1273,0.21587 5.5461,3.08301 z m 2.87821,0.93542 -1.57195,-1.07934 0.44281,0.79152 z m 19.89845,1.40036 0.16052,-0.71402 -2.08118,-2.08671 z m -13.63279,-0.96863 -1.0904,-1.95386 -0.71956,0.71955 z m 16.63831,-1.98154 -0.0221,-1.00738 -1.00738,-0.22693 z m -15.53684,-0.072 0.34318,-0.75276 -1.12915,0.14944 z m 2.41327,-2.53504 -0.50368,-0.76937 -0.37084,1.107 z m 9.62543,-1.66051 -3.73062,-0.4428 -0.71401,1.92065 z m 6.97968,-0.0997 -0.3155,-0.9631 -0.66974,0.9631 z m 0.33763,-1.8321 0.53691,0.83026 v -0.80812 z m -13.50548,4.02951 -2.87268,-3.60884 0.21034,3.08855 z m 16.93721,-4.33394 0.0332,-1.23984 -1.05718,1.55535 z m -22.31172,-1.37268 -0.47048,0.18819 0.85239,0.81365 z m -1.45018,-0.88561 -1.39483,0.0997 0.73616,0.89668 z m 18.04974,2.50184 -0.80258,-2.76752 -1.41697,1.30627 z m 4.8819,-1.58856 -0.71955,-1.107 -0.79705,-0.0222 z m -20.90028,0.43727 0.87453,-1.56641 -1.22324,-0.41513 z m 21.22131,-2.33025 -0.26568,-1.04612 -0.5535,0.33764 z m 27.85228,-1.06272 -0.64759,0.43726 0.73616,0.41513 z m -31.51094,1.5332 -0.12176,-0.97971 -1.93173,-0.49261 z m -7.8376,-0.53136 -1.72693,-1.68266 1.17342,2.21955 z m 1.47232,-1.30627 -0.28229,-0.72509 -0.15498,0.50922 z m -4.05165,0.94096 -3.90219,-1.20111 5.73983,3.4594 z m 16.77115,-1.68266 -1.98708,-0.63099 1.9428,2.56272 z m -3.85238,-0.43173 -1.05165,-0.76383 -0.55905,1.32841 z m 3.97969,-0.14391 -0.27675,-1.20664 -1.00184,0.27675 z m -5.56825,-3.09408 -3.76382,1.04058 2.28597,1.80996 z m 37.50539,1.00737 -0.28228,-2.26936 -1.09594,2.28043 z m 2.06457,-2.28596 -0.30443,-0.43727 -0.0886,0.42619 z m -48.22675,-0.1882 -0.51475,0.58671 0.47601,0.45388 z m 7.41695,0.55904 -0.3155,-1.02951 -1.36162,0.61992 z m 53.42414,-0.45387 0.0443,-0.631 -0.22693,0.0775 z m -5.55164,0.0997 0.14391,-0.98524 -0.54244,1.09041 z m -52.80422,0.12731 -0.93542,-1.59962 -0.51475,0.22693 z m 12.02209,-2.07565 -0.2214,-0.37637 -0.0886,0.45941 z m -10.9981,-0.61438 -0.50923,-0.2989 0.63653,1.30627 z m 5.39665,0.0443 -0.0941,-0.72509 -1.07933,0.0664 z m 11.42984,-0.32656 -0.68634,-1.22879 -0.27122,0.27675 z m 27.32093,0.0665 -0.80812,-1.34502 -0.59779,0.98524 z m 7.85421,-0.95204 -0.21034,-0.56457 -0.13837,0.40406 z m -15.83573,-0.41512 -0.19926,-0.22693 -0.17159,0.17712 z m -38.4408,-0.0498 -0.67527,-0.58672 -0.0332,0.49816 z m 52.55514,-0.17712 -0.37085,-0.4096 -0.14945,0.43727 z m -5.13098,0.55903 -0.50923,-1.37269 0.072,1.08487 z m -35.11426,-1.4225 -0.73615,0.37085 1.09594,0.89667 z m 45.07178,0.17712 -0.76383,-0.76937 0.58671,1.04612 z m -37.38915,-0.77491 -0.85792,0.17713 1.06825,0.7749 z m 38.14745,0.69742 -0.0886,-0.6476 -0.37085,-0.0831 z m -56.88353,-0.83026 -0.25462,0.16052 0.76938,0.72509 z m 21.14936,0.43727 -1.46678,-0.21586 1.16789,1.15128 z m -12.28224,0.0388 -0.73062,-0.78043 -0.36532,0.61992 z m 5.39666,-0.84132 -0.26568,0.28783 0.87453,0.6642 z m -8.29148,2.00922 -0.44834,-2.43541 -0.80257,2.37452 z m 44.48505,-3.21032 0.45941,1.17342 0.83026,-0.64205 z m 4.92065,-0.66974 -0.7583,-0.0332 0.99631,0.61991 z m 1.59409,-0.79151 -1.05718,0.38746 1.69924,1.14021 z m -57.97393,1.19556 0.0277,-1.35607 -1.16236,0.76383 z m 4.27304,-1.56641 -0.50369,-0.48708 0.24908,0.70848 z m 21.32095,-0.24353 -0.0831,-0.44281 -0.25462,0.55351 z m -20.618,-0.47049 -0.22694,-0.37085 -0.30443,0.0775 z m 20.21948,0.12178 -0.47048,-0.53691 0.29335,0.79706 z m 12.79146,0.23247 -0.95203,-0.73062 1.15129,1.41143 z m -19.30619,1.95386 -3.30996,-3.02213 2.38007,5.41327 z m 17.78405,-1.13468 -0.93542,-2.14759 0.0166,1.64944 z m -8.21398,-2.49076 -1.98708,0.54243 3.13283,1.54428 z m 26.67885,0.32657 -0.0388,-0.89668 -0.50923,0.63099 z m -8.85605,-0.24355 -4.06271,1.79889 1.90404,2.03136 z m -12.56452,0.0388 -0.19373,-1.39483 -0.45387,0.92435 z m -6.26566,-0.97971 -1.80996,0.2989 0.83026,0.69188 z m 4.4723,-0.13837 0.0665,-0.47048 -0.19926,0.16606 z m 17.44089,0.29336 -0.17711,-0.80258 -0.12178,0.55351 z m -20.82279,0.22694 0.0166,-0.9631 -1.1236,0.18819 z m -26.46299,-1.20665 -0.0941,-0.39298 -0.2048,-0.005 z m 10.98704,4.18449 -2.54058,-4.26197 -0.0997,3.88559 z m -5.95016,-5.82839 -0.9631,1.07379 1.13468,-0.30995 z m 44.77841,0.29889 -0.29889,-0.49815 -0.28228,0.52583 z m -16.3837,-0.43727 0.0277,-0.52029 -0.57011,-0.24907 z m -8.03686,-0.0111 -0.94096,-0.78044 0.23801,0.84686 z m 30.79139,0.0222 -0.0498,-1.01292 -0.40406,-0.0388 z m -58.46655,-0.33764 -0.94096,-0.32657 1.26199,0.73063 z m 57.03851,0.13284 0.44833,-0.96863 -1.03504,1.01845 z m -45.45923,-0.26015 -0.57564,-1.2011 -0.68635,-0.18819 z m -9.23797,-0.3321 -0.72509,-1.32841 0.0831,1.07934 z m 9.6697,-0.81365 -0.54243,-0.71401 0.70295,1.6273 z M 600.84396,-0.08979356 583.38647,1.2386144 l 8.51841,20.2637496 -12.9077,41.584708 -60.28757,-16.837577 -8.40218,50.922314 -20.09217,-11.86712 -38.21941,54.005321 7.87083,38.47954 -31.47774,59.1197 126.4755,93.22655 78.09378,11.65125 -10.6328,-21.487 12.01103,7.68263 -5.82839,-9.33207 19.52205,-8.84498 -5.96676,-5.52396 11.71213,-1.10148 -14.70658,-14.51839 21.48146,15.0885 -6.56455,-17.81728 14.86709,-12.04975 50.59575,7.02395 -16.76562,-40.7932 11.43538,-41.16404 -14.16416,-29.80614 6.1605,-23.16412 -11.18631,-5.71769 7.73245,-41.086547 -36.75262,-43.820853 z"
     class="land"
     title="Norrbotten"
     id="SE-BD"
     inkscape:connector-curvature="0"
     style="fill:#05adda;fill-opacity:1;stroke:#ffffff;stroke-width:0.27675167;stroke-opacity:1" />
  <path
     d="m 470.90353,423.66125 -80.82255,-85.64357 -23.11983,41.867 15.84126,11.11434 -4.46124,32.50171 -33.50355,-3.00551 -27.21023,34.998 -5.96123,23.16965 10.81546,74.51815 72.58642,48.44261 29.38549,-49.17876 -17.88922,-21.91874 71.70634,-28.90394 -35.26369,-49.2618 z"
     class="land"
     title="Jämtland"
     id="SE-Z"
     inkscape:connector-curvature="0"
     style="fill:#05adda;fill-opacity:1;stroke:#ffffff;stroke-width:0.27675167;stroke-opacity:1" />
  <path
     d="m 394.04406,708.48297 -58.30603,-69.53662 -15.33204,3.82471 11.79515,39.89652 -5.31363,24.84122 -20.00361,11.96121 -1.28966,41.24707 15.4206,2.6402 16.94827,9.59222 14.88924,9.73613 -2.39113,-23.28036 15.94088,-6.24905 11.18631,20.61247 11.8173,2.12545 z"
     class="land"
     title="Värmland"
     id="SE-S"
     inkscape:connector-curvature="0"
     style="fill:#05adda;fill-opacity:1;stroke:#ffffff;stroke-width:0.27675167;stroke-opacity:1" />
  <path
     d="m 349.33206,893.77373 -40.33378,-26.46853 33.44267,68.2525 19.78774,3.0664 -6.03872,-24.8689 12.47596,-9.28779 z"
     class="land"
     title="Halland"
     id="SE-N"
     inkscape:connector-curvature="0"
     style="fill:#05adda;fill-opacity:1;stroke:#ffffff;stroke-width:0.27675167;stroke-opacity:1" />
  <path
     d="m 478.32047,742.06955 -5.99443,-17.66782 13.64385,-6.60883 1.05719,-27.70285 -17.0479,6.32655 -42.30426,22.32832 10.84867,44.75628 z"
     class="land"
     title="Västmanland"
     id="SE-U"
     inkscape:connector-curvature="0"
     style="fill:#05adda;fill-opacity:1;stroke:#ffffff;stroke-width:0.27675167;stroke-opacity:1" />
  <path
     d="m 495.70601,795.82026 -0.72509,-0.91882 -0.0332,1.38376 z m 0.36532,-2.99446 -2.34133,0.2214 0.81365,2.28044 z m 6.80809,-2.7177 -3.45387,-3.15497 1.96494,2.56272 z m -24.55895,-48.03855 -39.79688,21.43165 -1.84317,14.46304 6.45939,-0.28782 28.98143,22.93163 26.96668,-21.36522 -9.96307,-14.45197 5.214,-13.04054 z"
     class="land"
     title="Södermanland"
     id="SE-D"
     inkscape:connector-curvature="0"
     style="fill:#05adda;fill-opacity:1;stroke:#ffffff;stroke-width:0.27675167;stroke-opacity:1" />
  <path
     d="m 473.35002,834.8201 0.70294,0.0111 -1.89298,-0.41513 z m 3.58116,-6.54795 -0.49262,1.09594 1.22878,-0.072 z m 2.7177,-3.03873 1.12915,-0.92436 -0.74724,-0.072 z m -3.16051,0 0.60886,-0.9963 -0.28229,-0.23248 z m -1.45571,-1.45018 0.30443,-1.72693 -1.5,-0.28782 z m -0.28782,-8.14757 -2.4963,1.28967 4.48338,2.78965 z m 3.48153,-1.25645 0.50369,-0.65314 -0.97416,0.19927 z m 0.61439,-4.1236 0.48709,-0.44834 -1.40037,-0.45387 z m -1.12914,-1.45018 -1.87638,-1.28966 0.53137,0.9797 z m -34.57181,-31.13456 -6.45939,0.29336 -27.77479,19.63276 -9.94092,36.40391 13.46673,-2.66235 14.85049,27.90764 33.39839,-26.10322 8.27488,8.62359 3.76382,-21.23793 -12.95198,-9.83575 17.6789,-0.87454 -25.4999,-9.2103 h 20.1752 z"
     class="land"
     title="Östergötland"
     id="SE-E"
     inkscape:connector-curvature="0"
     style="fill:#05adda;fill-opacity:1;stroke:#ffffff;stroke-width:0.27675167;stroke-opacity:1" />
  <path
     d="m 427.67492,718.74492 -33.63086,-10.26195 -4.63835,67.41117 13.41138,19.6549 6.08854,2.04796 27.77479,-19.63276 1.84317,-14.46304 z"
     class="land"
     title="Orebro"
     id="SE-T"
     inkscape:connector-curvature="0"
     style="fill:#05adda;fill-opacity:1;stroke:#ffffff;stroke-width:0.27675167;stroke-opacity:1" />
  <path
     d="m 430.89078,890.40843 -62.22485,14.05898 -12.47596,9.28779 6.03872,24.8689 34.82089,-3.2546 27.54786,-0.28229 16.18998,-28.11243 z"
     class="land"
     title="Kronoberg"
     id="SE-G"
     inkscape:connector-curvature="0"
     style="fill:#05adda;fill-opacity:1;stroke:#ffffff;stroke-width:0.27675167;stroke-opacity:1" />
  <path
     d="m 395.06804,601.62363 -72.58642,-48.44261 -5.14204,39.03305 24.29879,25.54418 -5.90034,21.1881 58.30603,69.53662 33.63086,10.26195 42.30426,-22.32832 -17.2527,-24.69178 6.85237,-13.72689 -8.41325,-15.07189 z"
     class="land"
     title="Dalarna"
     id="SE-W"
     inkscape:connector-curvature="0"
     style="fill:#05adda;fill-opacity:1;stroke:#ffffff;stroke-width:0.27675167;stroke-opacity:1" />
  <path
     d="m 466.40908,896.63535 -1.01844,-0.54244 2.20847,1.3118 z m -1.62177,-4.06825 -1.22323,1.05165 h 1.37268 z m 7.92618,-4.39482 -0.27675,-0.57565 -0.2048,0.35425 z m 9.19368,-5.93355 -21.91319,46.56069 0.30443,22.2619 z m -11.85604,-9.8413 -1.28413,-1.40589 0.32657,0.90774 z m 0.24908,-6.34868 -0.80811,-1.27859 -1.7048,2.7011 z m -0.60332,-11.10881 -0.0221,-1.82102 -1.76015,0.25461 z m 0.66421,-4.61622 -0.97971,0.91328 2.90589,2.11439 z m -9.68078,-17.18074 -33.39839,26.10322 3.60885,31.16223 9.89664,16.56635 -16.18998,28.11243 7.85421,-1.18449 15.70843,10.03501 17.32465,-43.25627 -3.96309,-8.16972 0.98524,-4.05717 -0.84686,-2.00922 7.36713,-12.20475 -5.64573,-9.70291 6.5092,-4.73799 -9.89664,-12.06638 9.39848,9.49259 -8.02579,-9.49259 7.58853,-5.96675 z"
     class="land"
     title="Kalmar"
     id="SE-H"
     inkscape:connector-curvature="0"
     style="fill:#05adda;fill-opacity:1;stroke:#ffffff;stroke-width:0.27675167;stroke-opacity:1" />
  <path
     d="m 427.28193,859.2462 -14.85049,-27.90764 -13.46673,2.66235 -12.63095,27.57554 -3.98522,-12.99073 -33.01648,45.18801 19.33387,10.69368 62.22485,-14.05898 z"
     class="land"
     title="Jönköping"
     id="SE-F"
     inkscape:connector-curvature="0"
     style="fill:#05adda;fill-opacity:1;stroke:#ffffff;stroke-width:0.27675167;stroke-opacity:1" />
  <path
     d="m 491.18942,657.33927 -0.7915,-1.10147 -0.75277,0.10516 -0.005,1.36715 z m -3.40404,-16.26193 -0.36532,-1.83763 -1.05719,1.45572 z m 2.39113,-8.18631 0.0609,-1.93726 -0.64207,0.97416 z m 3.99076,-28.67147 -2.607,0.29889 3.32655,0.56457 z m -5.22507,0.15498 0.5203,-1.23431 -0.91882,-0.50923 z m 9.14387,-12.13279 -1.04612,-0.30443 -0.1273,0.67527 z m -2.27489,-15.76378 -0.28229,-0.92435 -0.14945,0.55904 z m 1.32841,-0.22694 0.0997,-0.62545 -1.28966,-0.24355 z m -6.05533,5.35238 5.06455,-19.49992 -71.69528,-9.65862 -29.38549,49.17876 56.09756,41.30241 8.41325,15.07189 -6.85237,13.72689 17.2527,24.69178 17.0479,-6.32655 5.04242,-21.36522 -6.3653,-4.6771 4.99261,-5.10884 -1.76568,-0.9797 -0.0277,-2.19741 -0.76936,-0.17158 0.76936,-1.74354 -1.20663,-3.92433 -2.95018,-3.47601 3.00553,-4.41142 -2.98892,-0.52029 -0.22694,-12.78039 2.03689,-2.16973 -3.86899,-5.96677 5.99445,0.47601 -7.36714,-18.79696 14.74533,-3.72508 z"
     class="land"
     title="Gävleborg"
     id="SE-X"
     inkscape:connector-curvature="0"
     style="fill:#05adda;fill-opacity:1;stroke:#ffffff;stroke-width:0.27675167;stroke-opacity:1" />
  <g
     id="stadiums"
     data-country="sweden"
     data-circle-radius="20"
     data-circle-colors="#a149be,#bea149"
     transform="matrix(0.55350328,0,0,0.55350328,-21.734657,-0.87189356)" />
</svg>
