<?xml version="1.0" encoding="UTF-8" standalone="no"?>
<?xml-stylesheet type="text/css" href="/styles/home.css"?><!-- https://www.amcharts.com/svg-maps -->

<svg
   xmlns:dc="http://purl.org/dc/elements/1.1/"
   xmlns:cc="http://creativecommons.org/ns#"
   xmlns:rdf="http://www.w3.org/1999/02/22-rdf-syntax-ns#"
   xmlns:svg="http://www.w3.org/2000/svg"
   xmlns="http://www.w3.org/2000/svg"
   xmlns:sodipodi="http://sodipodi.sourceforge.net/DTD/sodipodi-0.dtd"
   xmlns:inkscape="http://www.inkscape.org/namespaces/inkscape"
   version="1.1"
   id="map-ukraine"
   viewBox="0 0 1000 1000"
   width="1000"
   height="1000"
   class=""
   sodipodi:docname="ukraine2.svg"
   inkscape:version="0.92.4 (5da689c313, 2019-01-14)">
  <metadata
     id="metadata36">
    <rdf:RDF>
      <cc:Work
         rdf:about="">
        <dc:format>image/svg+xml</dc:format>
        <dc:type
           rdf:resource="http://purl.org/dc/dcmitype/StillImage" />
        <dc:title></dc:title>
      </cc:Work>
    </rdf:RDF>
  </metadata>
  <sodipodi:namedview
     pagecolor="#ffffff"
     bordercolor="#666666"
     borderopacity="1"
     objecttolerance="10"
     gridtolerance="10"
     guidetolerance="10"
     inkscape:pageopacity="0"
     inkscape:pageshadow="2"
     inkscape:window-width="1920"
     inkscape:window-height="1017"
     id="namedview34"
     showgrid="false"
     showguides="true"
     inkscape:guide-bbox="true"
     inkscape:zoom="0.088388347"
     inkscape:cx="-1243.9079"
     inkscape:cy="-395.93086"
     inkscape:window-x="-8"
     inkscape:window-y="-8"
     inkscape:window-maximized="1"
     inkscape:current-layer="map-ukraine"
     inkscape:showpageshadow="2"
     inkscape:pagecheckerboard="0"
     inkscape:deskcolor="#d1d1d1">
    <sodipodi:guide
       position="1117.5861,500"
       orientation="0,1"
       id="guide843"
       inkscape:locked="false"
       inkscape:label=""
       inkscape:color="rgb(0,0,255)" />
    <sodipodi:guide
       position="689.62799,837.46855"
       orientation="0,-1"
       id="guide1"
       inkscape:locked="false" />
  </sodipodi:namedview>
  <defs
     id="defs4">
    <style
       type="text/css"
       id="style2">
         .land {
            fill: #9373a4;
            fill-opacity: 1;
            stroke: white;
            stroke-opacity: 1;
            stroke-width: 0.5;
         }

         .rectangle:hover {
            fill: #bdbdbd;
            cursor: pointer;
         }
      </style>
    <!-- <amcharts:ammap projection="mercator" leftLongitude="22.138115" topLatitude="52.374337" rightLongitude="40.216930" bottomLatitude="44.387017"></amcharts:ammap> -->
    <!-- All areas are listed in the line below. You can use this list in your script. -->
    <!--{id:"UA-40"},{id:"UA-43"},{id:"UA-71"},{id:"UA-74"},{id:"UA-77"},{id:"UA-12"},{id:"UA-14"},{id:"UA-26"},{id:"UA-63"},{id:"UA-65"},{id:"UA-68"},{id:"UA-30"},{id:"UA-32"},{id:"UA-35"},{id:"UA-09"},{id:"UA-46"},{id:"UA-48"},{id:"UA-51"},{id:"UA-53"},{id:"UA-56"},{id:"UA-59"},{id:"UA-61"},{id:"UA-21"},{id:"UA-05"},{id:"UA-07"},{id:"UA-23"},{id:"UA-18"}-->
    <clipPath
       clipPathUnits="userSpaceOnUse"
       id="clipPath227">
      <rect
         style="display:inline;fill:#000000;fill-opacity:1;stroke:none;stroke-width:6.14400005;stroke-dasharray:2.13, 2.13;stroke-dashoffset:0;stroke-opacity:1"
         id="rect228"
         width="2199.2"
         height="1477.6"
         x="0"
         y="0" />
    </clipPath>
    <linearGradient
       id="a"
       gradientUnits="userSpaceOnUse">
      <stop
         stop-color="#d40000"
         offset="0"
         id="stop303" />
      <stop
         stop-color="#d40000"
         stop-opacity="0"
         offset="1"
         id="stop305" />
    </linearGradient>
  </defs>
  <path
     d="m 621.32628,374.99612 3.67623,6.02903 7.64657,2.22412 0.34924,2.35279 -3.23507,0.77201 0.2941,2.81232 3.41889,4.26443 1.28669,-1.8565 1.10286,0.8823 1.94841,6.52532 2.90423,1.89328 -0.71686,5.44081 1.26828,1.47051 -3.78651,1.32344 4.72397,7.49952 3.29022,-0.86393 0.80877,2.99615 2.46309,0.34922 1.13964,6.58048 8.34505,4.11738 -0.69849,5.29378 3.63947,2.62852 -0.386,4.94454 -4.55854,2.51823 -1.48886,5.86359 5.40406,8.08772 -12.42569,-2.62852 -1.98516,-2.48146 -2.61013,7.53629 8.97003,7.16867 6.58046,-0.38602 2.83069,2.44469 5.80845,-1.43372 v 0 l -6.10253,8.05095 8.30827,4.09903 -0.0185,2.07707 -4.77911,2.07705 0.91905,5.95551 2.64689,1.13965 -1.67268,1.70944 -6.87457,1.47049 -3.60271,-1.78296 0.16545,2.49984 -5.99227,0.69849 -2.64691,-1.52566 0.5147,2.51822 -1.63592,0.0735 -2.97777,-8.98837 -1.89326,-1.6727 -1.28669,2.15062 -2.57337,-0.36764 -1.9484,-4.46663 -4.099,-0.40439 -3.23507,2.46309 -0.93746,6.80102 -1.96678,-1.08448 -0.51469,2.29766 -2.68364,0.79038 0.64333,4.98131 -2.86745,0.88228 -4.44825,-2.73878 -6.89295,4.65044 0.0368,-2.29765 -6.92971,-3.98872 -3.54756,2.13221 -2.92261,-0.40437 -0.93744,3.23508 -4.06224,-0.77202 -2.59177,1.74622 0.2206,-2.44469 -1.37859,7.75686 -11.19415,9.53982 -3.2167,0.14705 -1.23154,-2.84908 -2.90425,0.84553 -2.79393,-1.93002 -6.34151,3.87843 -10.25669,-4.04386 -4.26444,2.29765 -4.41148,-2.15061 -0.51468,1.21316 -6.78266,-1.01096 -3.6027,1.54403 -1.74621,2.97773 -2.07708,-0.11021 2.13222,2.2609 -0.7904,3.10642 -4.11737,3.32697 2.49983,2.11386 -0.34924,3.52918 -10.01774,-0.64334 -0.99259,4.24605 -8.23477,2.26089 -1.54401,2.11382 -4.2093,-2.09543 -3.16157,4.9629 -4.02546,-2.75717 -5.01809,0.84554 v 0 l -0.0367,-1.6727 2.20573,-0.55142 -0.64334,-2.16898 1.72785,0.0552 -0.95584,-5.07321 -3.56594,-2.02193 2.86746,-3.71299 -8.198,-6.21284 1.4705,-3.06966 -1.12126,-2.81232 -6.15769,-2.00356 -0.60659,-5.77169 -2.81231,-4.54014 1.13963,-1.23153 -4.96292,-2.83071 2.70204,-5.9739 -0.68011,-2.11384 -2.62852,1.10288 -2.1506,-3.97033 0.55144,-1.15802 0.79039,1.26831 1.43375,-3.98872 2.2425,0.73524 -0.36762,-2.37117 3.23508,-0.95583 -1.87487,-9.68688 1.89325,-0.49629 v 0 l 1.30507,0.29409 -1.80137,1.81975 2.37119,2.6285 7.40761,-0.60658 -0.55143,-1.39697 5.01805,-5.22025 -0.51467,-5.53274 5.05484,-1.87488 2.83069,0.80879 2.02193,5.03644 2.44471,-6.01065 3.40049,0.56981 -0.73523,4.99967 10.77137,1.8749 0.71685,1.81973 2.61015,-8.76782 3.58432,-3.49243 2.83071,3.54757 5.51437,-3.95196 7.68332,3.60272 11.06546,-2.61012 1.45212,-2.11383 -0.66172,-3.34539 4.65045,-0.6801 2.07708,-4.46663 0.97417,1.3602 -0.2757,-1.58078 3.29024,-2.37117 1.19476,-5.55112 2.55498,-0.12867 -1.0661,-4.59529 5.23864,-8.43697 -1.30505,-0.73524 0.99259,-7.27896 -1.56241,-1.26829 1.23154,-5.99227 10.38535,-4.70559 -2.44469,-3.54757 0.73526,-1.28666 -3.69463,-0.64337 0.95582,-3.16155 8.45534,0.91906 -0.99258,7.70172 4.81587,5.47758 5.42245,-6.17607 1.39698,0.0918 0.29409,4.94453 6.15769,0.55143 6.30476,-11.17575 4.48501,0.31247 0.80877,2.07706 -0.0918,-7.48112 5.05481,-2.24249 -4.65044,-1.43375 0.22058,-4.35633 3.86006,-2.15061 -2.2609,-3.19833 1.78298,0.51469 1.80135,-4.79749 3.89682,1.28667 z"
     class="land"
     title="Cherkasy"
     id="UA-71"
     inkscape:connector-curvature="0"
     style="fill:#9373a4;fill-opacity:1;stroke:#ffffff;stroke-width:0.91905981;stroke-opacity:1" />
  <path
     d="m 688.67494,162.0685 6.63558,2.3344 5.44086,-2.02194 2.15059,2.57339 v 0 l -2.33441,2.84907 -1.32344,7.53628 -3.25346,2.88585 0.36761,7.83039 5.69818,1.30506 1.54401,3.76813 3.80489,-0.12867 -0.0367,4.9813 -4.54013,1.19477 -2.35281,-2.38953 -4.48498,1.91163 -0.75365,1.63594 4.37473,3.84166 -1.43373,4.81586 -2.40794,-0.71687 -8.4921,3.25349 -0.0552,1.96677 -3.36375,2.13223 1.50725,4.66882 -4.09901,4.20929 3.45568,5.12835 -0.44117,7.79362 3.87844,6.17608 1.9484,0.34925 -4.08062,1.72782 2.24252,5.64303 -3.84168,2.29764 0.0185,10.23832 -2.68367,-1.12125 1.47051,2.2425 -1.52565,0.23896 -3.01451,-2.26089 0.60658,-1.80136 -1.76459,1.2867 1.10286,4.92615 1.72783,-0.0367 0.8823,2.24248 -2.37116,2.95938 2.04029,0.45955 -0.31247,3.54755 -2.27927,2.55499 0.51467,2.2425 -4.00709,1.65432 -0.8823,2.62849 1.8565,1.80137 -2.941,5.05482 7.86717,2.35281 0.80876,3.12478 -2.57337,4.3931 2.20574,0.93746 2.46308,-2.37117 1.36021,4.87101 3.82329,-0.36765 0.40439,6.59886 -2.27926,0.71687 0.82715,3.82329 -1.91166,5.5695 2.18736,4.28281 3.10643,1.39696 -6.24961,2.13222 0.66175,5.34893 -1.96681,1.02934 0.33086,5.01807 -4.52177,5.25702 1.13964,2.00354 v 0 l -2.73881,1.80136 -0.66171,2.84908 -2.49984,-0.0918 -3.52918,6.39666 -7.86717,3.67623 0.0368,2.24249 -7.40761,-0.99258 0.0918,-1.2683 -9.22736,2.51823 -2.4447,-2.40794 0.38601,-2.86747 -6.06578,-0.75361 -1.70946,-2.00356 -2.70204,0.25734 -2.0403,4.35634 -2.29765,0.64335 -0.0367,2.55498 -6.74589,0.0552 v 0 l 0.69848,-2.84908 -4.41148,0.18381 0.88229,-3.93358 -3.08803,1.43375 -1.58078,-5.60627 -3.52919,-1.23153 1.12125,-2.53661 3.63948,0.18382 1.13963,-4.57693 v 0 l -6.85618,-0.31248 v 0 l -1.91163,-4.90777 -3.95198,-3.51082 -4.57691,2.57338 -0.23894,4.3931 -8.28992,0.55144 -0.99259,3.05127 -6.76428,-0.69849 -5.18348,2.79394 -4.33795,-3.25346 -2.57338,3.25346 -5.18349,-6.61722 -4.81587,-1.98517 0.0367,-1.94841 3.63949,-0.386 -1.69108,-2.95937 1.12125,-5.01806 -5.88198,-5.60627 0.12867,-2.33441 -10.86328,1.72784 -3.76815,-1.58079 -2.42631,2.84907 -1.28668,-1.13961 0.20221,-0.44115 -5.93714,-1.13963 -0.33087,-4.30121 1.80135,0.42278 1.10289,-2.07708 -0.75364,-4.28283 -5.01806,-2.68364 -2.6469,-9.48468 -2.66526,-2.59176 -6.17607,0.38602 0.45952,-5.07322 -1.47051,-2.0587 2.00356,-1.58077 -1.69106,-5.6614 3.05128,-1.21315 -2.18737,-4.63207 3.29024,-0.84554 -1.15802,-2.72041 v 0 l 4.65045,-2.33441 0.55143,-1.98516 -1.81975,-0.80879 3.54758,-2.51821 0.25733,-3.98872 -2.2425,-4.66884 -2.04031,-0.1838 -0.27574,-2.20573 2.55499,-1.58077 -3.3086,-4.4299 0.82716,-3.58432 -2.15062,0.53306 -1.158,-2.16899 1.58078,-1.61753 -2.77556,-1.7646 2.90422,-0.90067 -2.97774,-2.05869 1.65431,-2.97776 -1.12124,-1.26831 3.34537,0.75365 -0.4044,-4.41149 3.73138,-0.79039 1.5624,-4.61368 -2.20575,-0.79038 2.64691,-0.60659 -0.29412,-5.07321 2.70204,-1.19479 3.21672,-6.6172 3.38214,0.42275 1.39697,-2.33441 -0.91906,-2.75717 4.92615,-2.09545 0.7904,-3.54757 1.87487,1.01095 -1.0845,-2.73879 2.24253,-6.81941 2.27927,1.1764 9.63172,-2.46309 7.02162,6.02903 2.66526,-1.02935 1.69109,-5.31216 3.8049,-1.59915 -0.47792,-1.23156 4.57691,-0.80875 1.10287,2.20573 12.68301,0.45952 3.08805,1.93004 3.69462,-1.74623 2.18736,1.48889 3.14319,-1.19479 5.66138,3.29023 -2.66524,3.29025 3.47403,-0.86393 7.66495,1.91165 3.327,-3.63948 6.58046,-1.81973 7.07676,-5.88199 -2.51823,-0.56981 1.30507,-3.86005 -1.43374,-3.1248 1.32345,-2.22412 3.19832,-0.4779 -2.62851,-6.61723 0.79038,-2.27928 7.46277,2.26089 3.84167,-1.17639 9.42955,7.68332 3.40052,-1.81972 3.73137,0.69848 1.32345,-1.89326 2.83071,0.47791 1.4705,2.84908 5.45919,-2.72042 4.06224,-5.55112 0.51469,2.44472 4.06224,-4.22769 2.13222,0.47791 0.12865,-3.23509 z"
     class="land"
     title="Chernihiv"
     id="UA-74"
     inkscape:connector-curvature="0"
     style="fill:#9373a4;fill-opacity:1;stroke:#ffffff;stroke-width:0.91905981;stroke-opacity:1" />
  <path
     d="m 217.6755,523.46093 5.23862,1.02935 1.45213,2.75716 3.06966,-3.97031 4.35632,4.96291 -0.27571,2.33441 3.60273,0.97421 4.13576,-3.23509 2.84909,1.08448 1.8565,-3.47403 0.95581,3.84167 -1.3602,2.09544 3.12479,4.35635 2.00355,-1.39698 -1.9484,-4.37473 1.32344,-1.94839 3.17995,8.60239 6.23123,-1.08449 2.07707,2.90422 3.19832,0.11022 2.40793,-2.57335 3.19832,-0.25734 v 0 l 2.66527,-0.64334 4.15415,8.05095 2.95938,0.60658 1.6543,-0.95583 -0.93744,-4.20927 2.90424,2.0403 3.52917,-0.80878 -2.51822,-4.35634 -3.03289,0.45955 -0.33085,-1.74623 2.37116,-0.68009 4.31959,2.75717 0.0735,-5.25703 3.14318,3.9152 -0.0552,-4.63205 1.58077,-1.36022 4.65046,6.48856 6.89292,-4.42986 0.58821,1.65431 5.31216,1.2683 4.90777,-2.37117 5.07321,1.63592 1.1764,-1.6727 -1.1764,-3.71299 4.63205,2.16897 3.25348,-2.88584 v 0 l 4.94453,2.86747 1.65431,8.60239 3.36375,3.51081 v 0 l -3.82329,1.65431 -1.67268,3.84167 -3.56595,0.0185 -1.28668,-2.95937 -2.92261,-0.0185 -2.26089,6.654 -5.60626,-2.0587 -3.4189,1.83811 -3.47404,-5.6614 -4.15414,1.10288 2.0403,3.9152 -2.86746,0.0918 -0.56982,2.02193 -4.15414,-0.55143 -3.06966,-5.14675 -6.06578,0.0918 -1.54404,1.83812 -1.72784,-1.02934 2.35281,5.18349 3.54756,0.95582 -0.45952,4.66883 -4.54017,-1.78299 -3.49242,-3.91517 0.79041,2.53659 -4.83425,4.99969 0.0185,3.2167 -2.11385,-0.60659 -0.91906,2.48147 -6.35988,-0.0185 -1.98517,2.38954 -6.48854,0.95584 -3.62111,9.41115 -3.8049,2.8491 -1.80136,5.31216 -20.20091,2.31602 -5.33055,2.83071 -7.9223,-0.9926 -20.77073,3.25348 -5.09159,2.05868 -7.15027,12.68304 -3.84169,0.73524 -0.95582,1.98517 -7.33408,-0.14705 v 0 l 4.66881,-11.85587 -4.88941,-8.38181 -0.33085,-7.55468 5.05484,-5.53273 -0.53308,-2.68366 3.08807,0.40441 3.56595,-4.8159 -0.45954,-1.70943 3.23508,-0.0918 -1.85649,-3.9152 4.72396,-2.48145 9.42955,-11.69042 8.36345,-2.42633 9.02517,1.93003 -1.87489,-23.21543 z"
     class="land"
     title="Chernivtsi"
     id="UA-77"
     inkscape:connector-curvature="0"
     style="fill:#9373a4;fill-opacity:1;stroke:#ffffff;stroke-width:0.91905981;stroke-opacity:1" />
  <path
     d="m 731.87073,501.82627 7.83035,3.51082 3.08807,3.62109 3.2167,0.38601 0.6801,3.84166 9.65013,3.65786 0.51467,1.89326 2.75717,-5.8636 -2.55499,-0.0552 -0.22056,-3.32699 3.23508,-0.27573 -1.43372,-0.84554 1.56239,-2.11383 -2.86746,-3.97034 3.17994,-8.08771 -1.63594,-1.58079 5.55113,-5.20187 -0.86393,-3.78653 9.22739,3.71299 2.49983,-5.3489 10.8265,-2.86748 0.0367,-2.81232 5.82683,-1.61754 2.48147,1.28668 -2.09544,1.43373 2.02192,1.10287 3.27185,-4.17252 4.20929,4.13576 v 0 l 2.16898,-2.37116 1.96678,2.90422 2.35278,-2.07708 1.23154,1.47049 3.1432,-0.91906 2.22411,3.23511 -2.42631,1.52562 4.13577,-0.31247 14.17189,13.41825 1.4521,-1.34182 3.43731,1.26831 4.00709,-1.10288 0.14704,1.61757 3.27185,-0.2206 1.63593,1.89326 0.91906,-1.39696 3.95194,0.95583 1.10287,2.40793 4.94455,-4.46662 1.89326,0.45951 1.54403,-2.73878 6.45177,7.81199 -1.83812,2.70204 1.65432,1.37859 -1.23153,1.83812 3.4005,1.72782 -0.64333,2.49984 h 3.63948 l 3.8968,2.42632 -2.86745,1.65429 1.41534,1.61756 -1.15802,2.27926 8.71269,6.1577 -1.87489,3.6211 4.06224,3.03289 -2.9226,4.22768 1.59915,1.17639 1.70948,-2.20575 1.8565,1.96681 5.80843,-7.60982 -1.08447,-1.91164 3.25346,-2.59175 6.76427,5.75329 9.26411,-2.37116 v 0 l 0.42278,2.77557 3.76815,0.0185 0.2941,2.59175 5.53273,2.27926 0.31249,2.11382 -3.41892,0.6066 0.25735,2.6285 -1.4705,0.40439 1.2683,6.28635 -1.78297,0.29411 -0.86391,6.19446 -0.34149,1.7582 2.78356,0.28278 2.78066,0.49289 1.67928,10.06276 -2.98683,2.7149 0.71707,7.88558 -0.85102,2.83695 -2.25932,1.60414 c -1.6585,-0.49779 -4.54658,0.13769 -6.70464,-1.56378 -0.69793,-0.57295 -0.8039,-1.88323 -1.34825,-2.30485 -1.27794,-0.98977 -2.19153,-0.85925 -2.844,-1.14165 -2.46686,-1.06772 -1.31836,1.19939 -3.10242,0.43325 -1.6827,1.80385 1.38603,1.19341 -1.98227,1.68624 l 0.21787,9.35933 c 0.7797,-0.45417 2.15839,-0.0764 2.81497,-0.0826 -0.0877,0.39216 -0.48837,2.23263 0.84287,3.9684 0.52583,0.68562 -6.72018,0.93032 -6.03319,1.70032 0.70074,0.78542 -0.70297,2.11869 0.92671,1.76152 1.27607,-0.27967 0.47187,1.8837 1.61678,2.46982 0.26102,0.13363 6.6649,-1.60297 7.23591,-0.6212 1.53734,2.6431 1.18931,4.31473 1.40182,6.08658 l 0.75062,5.18448 -5.43162,-0.52157 -1.83063,-2.38427 -3.09597,1.3369 -2.97678,-1.23501 -1.73547,2.12069 c -0.77386,-0.0956 -1.27959,-1.43946 -2.34209,0.2942 1.20412,1.90765 -0.0604,2.39146 -0.0974,3.56043 l -3.48757,-0.65672 -5.33936,2.33189 -2.06226,2.41949 c 0.5482,0.84487 -0.0704,1.00229 -0.26522,1.66139 l -6.09062,0.68198 -0.54065,0.48029 0.0612,2.34854 c -15.8513,11.96476 -15.50053,5.72019 -19.10319,7.81936 l -1.16996,1.74577 -1.76612,0.34746 -0.60402,3.29771 -3.78987,-0.0559 -4.37769,2.02626 -5.26453,-5.00758 c -2.94885,-1.35003 -6.0911,1.16062 -13.45698,-0.85313 l -7.05942,3.84837 c -3.81053,-3.49068 -6.76361,-5.42131 -6.96827,-2.97697 l -2.79578,0.53795 -2.82523,-0.5773 -1.06199,-1.50461 c 0.24448,1.18686 0.29281,0.71614 -1.54058,0.25327 2.16731,-0.63155 0.34969,-4.07738 -4.27885,-0.65924 l -3.77552,3.30455 c -8.23003,2.82507 -12.16607,-4.76067 -17.78863,-6.0996 l -28.58275,7.90391 v 0 l -13.1671,0.39253 -4.20236,-3.04512 -13.54769,2.00925 -0.53306,-2.62852 -2.79394,0.93745 1.19477,-6.41503 -1.93001,-2.51823 -6.28635,1.2683 0.5698,3.93359 -9.8707,1.87486 1.45211,2.79395 -2.3344,0.99258 -1.72784,-5.44083 -4.3747,0.8823 1.12124,-4.09902 -8.76784,-0.22056 v 0 l 0.0918,-1.76459 -8.23477,0.44114 2.20574,-2.26088 -1.48888,-9.55821 6.13931,-1.58077 -1.28667,-3.95198 0.45952,-4.61367 1.45211,-0.42278 -0.11022,-7.68331 -4.65046,0.33086 -0.0552,-6.76429 v 0 l 1.04772,0.4044 1.28669,-4.81588 4.24605,-0.4963 -0.22055,-2.35279 2.38953,0.14705 0.55144,2.05868 -0.68009,-3.21669 5.22024,-1.43372 0.53304,-1.89328 -3.06964,0.7904 -0.22058,-1.26831 2.84909,-0.69849 -0.86394,-4.24605 3.63949,1.70946 1.15802,4.77912 1.59918,-1.61757 -1.48889,-2.79393 8.62076,-1.96679 -0.12866,-1.5808 3.16157,-0.58817 1.34184,-3.36377 2.75716,-0.79038 -2.00355,-3.67625 0.12868,-4.81586 -2.53661,0.12867 -0.93745,-2.37116 0.53306,-3.17995 1.81974,-0.51467 -1.5624,-14.22704 2.27926,-2.15061 7.02162,0.12868 -0.68011,-2.92262 2.95937,1.15803 5.16512,-2.90423 3.93357,-6.65398 -3.40053,0.56981 -4.1909,-3.86005 -4.0071,-0.53305 -2.04032,-2.42632 -0.1838,-4.0071 4.55854,0.36762 1.63592,-2.2425 3.27185,2.57335 4.66882,-1.28667 0.40438,2.68365 2.05871,0.23895 z"
     class="land"
     title="Dnipropetrovs'k"
     id="UA-12"
     inkscape:connector-curvature="0"
     style="fill:#9373a4;fill-opacity:1;stroke:#ffffff;stroke-width:0.91905981;stroke-opacity:1"
     sodipodi:nodetypes="ccccccccccccccccccccccccccccccccccccccccccccccccccccccccccccccccccccccccccccccccccccccccccccccssccccsssssccccccccccccccccccccccccccccccccccccccccccccccccccccccccccccccccccccccccccccccccccccccccccccccccccccccccccccccc" />
  <path
     d="m 88.308724,518.3142 1.8565,-5.25702 -1.507258,-3.80489 1.268303,-3.98872 2.095453,-0.97421 -2.904225,-3.14318 1.599163,-4.02549 -1.286684,-1.98517 3.639473,-4.90778 2.77556,-0.84552 1.305064,-5.79006 4.209297,-2.68366 8.93325,2.16897 4.22765,-3.62109 2.99614,2.15058 2.555,-2.94098 6.5437,1.93002 0.45951,-1.56238 3.63949,-0.0552 7.84877,-3.93359 4.68721,1.0845 1.08448,-5.3673 -6.35989,-0.25737 0.95581,-4.42984 -3.78652,-0.36762 -0.16543,-1.74623 0.0735,-1.3602 4.70558,0.45952 0.97421,-4.08061 2.62851,-2.35278 -2.90423,-1.36022 -1.12124,-3.51081 2.49984,-1.41535 -0.45954,-4.65043 2.73881,-1.15802 -0.62496,-2.88585 2.44469,-2.1506 2.92259,1.58078 -0.23894,1.69108 3.36376,-1.01098 4.08061,3.38214 5.23864,0.27573 v 0 l 3.49242,10.49565 2.2609,-0.12866 2.81232,3.6946 -2.00355,2.97775 1.13963,5.34894 5.2754,2.6285 -4.44825,6.8562 2.73878,3.16155 4.98132,1.10286 0.49629,4.46663 -4.63206,-1.10286 -0.73524,2.66528 3.84167,5.75329 3.19834,-1.67268 4.48501,2.81233 1.52563,-1.48888 -0.34924,3.01451 2.29764,1.8565 -1.76458,1.83812 1.34182,5.31217 1.81973,-0.11022 1.26831,-5.34892 2.77554,-0.45954 -1.59916,7.90392 2.31604,-1.91165 4.98131,2.55498 -5.22028,2.16897 0.75364,3.14318 1.69108,0.16544 2.09544,-3.47403 2.46309,1.17639 -0.56981,-4.83426 5.25701,1.43375 -0.12866,-2.3712 1.58077,0.0918 0.11022,3.38213 11.52501,7.75687 -1.91165,2.15059 2.64689,1.78298 -1.43373,3.25348 v 0 l -2.81232,4.02548 1.87488,23.21543 -9.02516,-1.93002 -8.36346,2.42632 -9.42953,11.69041 -4.72398,2.48147 1.85651,3.91519 -3.23508,0.0918 0.45954,1.70944 -3.56598,4.8159 -3.08804,-0.40442 0.53307,2.68365 -5.05483,5.53275 0.33085,7.55468 4.88941,8.38181 -4.66882,11.85585 v 0 l -2.38956,0.29411 -3.47404,-8.84134 -7.60982,-1.94842 -4.85262,-10.05451 -3.87843,-1.70945 v 0 l 0.73524,-4.85263 3.10644,-2.68366 -7.68335,-10.20155 2.70203,-5.56949 -3.76813,-2.48147 -0.0368,-3.43728 -7.44437,-6.21284 -1.65432,-3.56594 -3.27184,-0.6801 -1.87488,4.17252 -4.76072,-1.63594 -2.44469,-3.93355 -1.12128,-11.70882 -5.3489,3.0329 -2.37119,-0.44115 -1.78296,4.37471 -3.01451,-0.772 -0.97421,-8.78621 -3.47404,0.69849 -3.34537,-3.4189 -0.36763,-4.26444 -5.146731,-0.27572 -5.073205,-6.34149 z"
     class="land"
     title="Ivano-Frankivs'k"
     id="UA-26"
     inkscape:connector-curvature="0"
     style="fill:#9373a4;fill-opacity:1;stroke:#ffffff;stroke-width:0.91905981;stroke-opacity:1" />
  <path
     d="m 954.94475,352.68136 -0.86391,7.3157 1.23153,2.57337 5.60627,4.7791 3.87844,-0.31247 -1.39699,8.9884 1.74622,4.20929 7.02161,9.2825 2.59175,-0.49629 7.84877,4.46664 2.66526,5.73491 4.81587,4.41149 -0.6801,3.10642 v 0 l -4.18491,1.98845 -0.39441,-3.19437 -4.91341,-4.74542 -4.58921,1.84718 -5.24681,2.77116 -3.34897,3.82269 -3.36255,8.66598 -2.06745,3.74274 0.51725,4.61536 5.77718,-3.19117 8.79043,3.60146 -2.11329,2.44083 0.54701,2.15504 -1.30006,1.20113 0.0508,2.28631 -3.98364,1.53378 -2.21266,2.77364 -1.73808,2.59552 c 3.09585,0.76251 6.05534,-0.11123 9.06676,-0.36187 l 1.68972,1.67779 c -0.24037,1.77847 0.3399,3.81175 -1.92813,4.57638 l 4.96987,1.80999 c 1.23648,2.89946 -2.16171,4.51151 -5.59017,6.11517 4.10598,1.74444 9.56859,2.41294 6.31906,9.99107 l 2.1585,-0.12306 c 1.54605,0.41417 1.18079,-0.27081 1.17677,1.7567 -0.006,2.89962 -2.09769,1.48469 -2.04704,2.69771 0.38391,1.6876 2.79319,3.26157 1.67095,2.21285 l 0.26034,1.5365 -0.58051,3.25428 -2.42513,4.61824 0.51869,3.6407 1.0742,2.36425 -1.76043,1.5885 2.86704,2.13606 2.45286,-0.0195 2.92309,2.7793 3.80708,-0.59512 c 3.86922,2.25482 1.27798,3.90344 0.90367,5.1158 -0.13219,0.42815 2.53281,3.04093 3.48774,2.79829 2.47796,-0.62961 2.81968,1.50977 1.91347,1.69439 -11.65759,2.37499 -2.33619,3.91366 -0.14749,5.92275 l 0.17723,4.13836 -5.29973,3.51339 -8.07673,0.25749 c -1.24104,2.36041 -3.78542,3.09164 -6.50675,3.60168 -1.37742,2.75888 1.03265,4.00277 -5.34125,8.76023 -0.2895,1.29836 1.07247,4.11914 -0.71497,6.01207 -2.00274,2.12092 9.34212,7.38691 5.9225,9.9855 -3.72232,2.82863 -1.16372,2.49657 -7.89248,5.28986 -2.18448,0.90684 3.42429,6.5772 0.69168,7.68978 -3.52107,1.43362 -1.3291,1.03896 -6.07886,2.0963 -3.83657,0.85404 -10.09727,-4.35752 -14.80011,-3.28572 -8.75745,1.99586 -15.75907,10.50065 -17.33016,12.90501 -1.36486,2.08874 -1.54762,3.98043 -0.32784,5.41333 0.71368,0.83836 1.34521,0.80827 1.15598,1.52927 -0.20949,0.79819 -2.14575,2.38709 -1.24243,2.90966 1.26279,0.73054 2.26591,-3.7724 4.47667,0.0842 0.36831,0.64251 0.94488,1.01305 2.198,3.50208 0.59602,1.18383 -2.31733,1.53517 -1.5692,2.42742 1.9031,2.26973 0.58551,3.0475 3.84348,3.00807 1.19229,-0.0145 2.37782,-0.12532 1.3617,2.42174 -0.39437,0.98858 -4.15359,0.44031 -4.26952,1.41588 -0.135,1.13627 3.47563,-0.27169 3.26559,0.74531 -0.31892,1.54423 -1.8606,4.3828 -3.9894,5.50804 -1.27958,0.67635 -3.02484,-0.002 -3.91868,-1.39661 -0.71731,-1.11886 -0.97858,-2.07166 -2.39719,-1.49029 -1.24736,0.5112 -4.60559,1.28272 -6.91283,2.49439 -1.41572,0.74349 -4.38863,0.21585 -8.29529,-1.77752 -0.67558,2.11302 -2.11359,3.52226 -4.51345,4.04363 -1.14792,-0.0693 0.12328,2.87796 -0.003,3.82167 -0.0834,0.62374 6.04257,4.38276 5.89236,4.73558 -0.38243,0.8983 -7.10421,-0.53933 -8.99945,-0.79767 -0.47699,-0.065 -0.94878,-3.56223 -1.00205,-6.23223 -0.0468,-2.3427 -0.81046,-4.61225 -1.24963,-4.6615 -3.27375,-0.36718 -3.6598,-0.19153 -7.84466,0.27537 l -1.45089,-4.21666 5.17834,-1.46255 -0.65134,-4.01272 -2.81548,0.0826 -0.15123,-3.55665 -0.0396,-3.35333 0.81504,-2.58786 1.30539,-1.03013 2.48633,-0.98027 2.33569,0.81936 c 1.40049,0.36589 2.49225,1.66294 2.69875,2.95748 2.06101,-0.11134 4.12601,0.74246 6.31336,1.26286 l 1.57557,-2.19534 1.53479,-2.24575 -1.21461,-8.33337 2.32779,-1.52567 0.98482,-0.34768 -1.50753,-10.45652 -1.29551,-0.20908 -1.48515,-0.28381 -2.75213,0.22052 c -0.2309,-2.6842 0.14114,-5.35197 0.85302,-8.27185 l 1.40741,-0.67723 -0.77251,-6.27408 1.31738,-1.04885 -0.08,-2.03102 3.59545,-0.37288 -0.0354,-0.90578 -2.71506,-2.41048 -2.31916,-1.03816 -1.01703,-1.24916 -1.19116,-1.39396 -2.62956,-0.006 -0.42268,-2.77561 v 0 l -9.26411,2.37116 -6.76427,-5.7533 -3.25347,2.59175 1.08448,1.91165 -5.80844,7.60981 -1.85649,-1.9668 -1.70948,2.20573 -1.59915,-1.17638 2.92259,-4.22767 -4.06222,-3.0329 1.87488,-3.62109 -8.71268,-6.1577 1.15801,-2.27926 -1.41535,-1.61756 2.86746,-1.6543 -3.8968,-2.42631 h -3.63948 l 0.64333,-2.49984 -3.4005,-1.72783 1.23153,-1.83811 -1.65432,-1.37859 1.83813,-2.70204 -6.45178,-7.812 -1.54404,2.73879 -1.89325,-0.45952 -4.94455,4.46663 -1.10287,-2.40794 -3.95194,-0.95583 -0.91906,1.39696 -1.63592,-1.89325 -3.27187,0.2206 -0.14704,-1.61757 -4.00709,1.10287 -3.43731,-1.2683 -1.45209,1.34182 -14.17189,-13.41825 -4.13577,0.31247 2.4263,-1.52562 -2.22411,-3.23511 -3.1432,0.91906 -1.23153,-1.47049 -2.35278,2.07708 -1.96678,-2.90423 -2.16899,2.37117 v 0 l -2.29764,-9.35602 2.70203,-7.20543 4.09899,2.18735 9.31927,-0.0735 2.29763,2.48147 0.25735,-4.04385 5.882,-7.37086 -1.67271,-0.69848 0.80877,-4.09902 -2.88584,-0.99257 1.24992,-4.3931 9.0803,1.7462 0.20219,-2.8307 -3.47403,-1.23155 -1.48888,-2.6285 5.03645,-1.72783 -3.29024,-9.61337 -5.01806,0.75365 -6.8378,-2.83072 0.71687,-3.86004 -2.77557,-1.39697 0.45954,-7.83039 -4.57691,-2.68365 -4.63207,-0.0367 -0.90067,-2.57337 -2.81232,1.32344 -7.75688,-6.35987 -1.69105,-4.77911 6.59884,-8.71269 -1.81972,-2.48146 0.44112,-4.81588 v 0 l 1.91166,-0.6617 -0.68011,-2.48146 5.10997,1.87487 1.67268,-3.82329 4.96293,-3.63947 6.70912,0.75362 0.53307,-2.86745 3.9152,-1.01098 -2.02195,-1.37858 2.0587,-2.86745 3.16158,2.29763 -0.11022,-2.29763 2.81234,-1.34184 6.21283,4.08061 -0.44115,-2.49985 4.74235,-1.21314 3.93357,1.6543 1.50725,-2.88583 -1.12125,-1.02936 v 0 l 4.77911,-0.34923 5.88198,-7.46276 2.2609,0.95581 1.23153,-1.78298 10.97356,-0.93742 5.8636,1.93002 7.46274,8.93326 1.02936,4.50339 4.37472,0.42276 4.06225,-3.97033 5.90036,4.1909 3.65784,0.0367 -1.47047,3.40052 5.44082,2.95937 2.46309,-4.61367 10.71621,-6.32313 17.88491,-2.07709 8.76782,-4.37472 2.68365,-3.62109 4.92617,0.42277 z"
     class="land"
     title="Kharkiv"
     id="UA-63"
     inkscape:connector-curvature="0"
     style="fill:#9373a4;fill-opacity:1;stroke:#ffffff;stroke-width:0.91905981;stroke-opacity:1"
     sodipodi:nodetypes="cccccccccccccccccccccccccccccccccccccccsccccccccccccsssccccccsssssssssssssssssssssccssssscccccccccccccccccccccccccccccccccccccccccccccccccccccccccccccccccccccccccccccccccccccccccccccccccccccccccccccccccccccccccccccccccccccccccccccccccccccccccc" />
  <path
     d="m 254.49301,379.60979 4.19091,-0.0368 2.31603,-4.74236 4.46662,-3.38213 6.7459,0.16543 -0.77201,-1.69107 2.1322,-2.94099 4.66882,-5.53274 2.88586,0.31248 5.53274,-7.812 -0.0918,-3.2167 0.36762,1.56239 2.81234,-0.62497 -1.47051,-0.23893 0.23895,-1.8565 3.63949,-3.03291 1.85651,1.15803 2.8307,-3.56597 4.99965,2.15061 2.29767,-3.52918 3.23508,0.71685 0.16544,-2.31601 2.70202,-1.69108 0.93745,3.23509 3.95195,-0.1838 v 0 l 4.52178,6.9297 1.98517,-0.14705 -3.05129,9.5582 4.26444,2.57337 -0.14705,3.6211 4.19091,0.90069 2.18736,2.24249 -1.78296,0.86391 7.9958,6.12093 4.87101,-3.0145 1.65431,8.36344 2.48145,-2.13221 1.06611,3.36374 -3.01451,1.34183 0.60658,2.88584 -1.65429,2.73881 3.23509,0.91905 0.79038,3.9152 -2.4447,-0.0367 -1.91164,3.1248 -3.89681,-0.60658 1.59915,6.04741 -1.67267,4.35635 4.90778,1.13962 -0.23897,5.10996 2.2609,4.06224 4.33795,-0.4779 -1.58078,3.08803 5.38567,4.06226 2.77556,-1.93003 v 0 l -1.47049,4.39311 -2.92261,0.40438 2.99614,6.94809 -3.34538,4.54015 2.26089,2.13222 -0.1838,2.38954 -3.32701,0.12868 -0.0185,3.19831 2.88584,0.80878 -1.72782,2.27926 v 0 l -0.36764,2.22414 v 0 l 6.21283,0.9742 -2.18735,6.92971 2.79394,2.77557 -0.18381,8.58401 2.59174,4.72395 -2.70203,1.45212 -2.44469,-1.61755 -1.39697,1.12124 -0.90069,-1.78296 -2.40793,5.23863 -6.15769,-2.57336 -2.83071,1.02936 -1.04772,3.34537 -2.75717,-1.81975 0.16543,1.74622 -2.68366,-0.0367 0.386,4.8894 -3.80491,0.16542 -3.58432,5.73494 2.22411,3.58431 -1.5624,6.12096 2.20575,10.40373 -2.40793,2.77557 1.61753,6.52532 -2.62849,6.28636 v 0 l -3.25348,2.88585 -4.63206,-2.16898 1.17639,3.71299 -1.17639,1.67269 -5.0732,-1.63591 -4.90778,2.37116 -5.31215,-1.2683 -0.58821,-1.6543 -6.89294,4.42986 -4.65044,-6.48857 -1.58079,1.36022 0.0552,4.63205 -3.14317,-3.9152 -0.0736,5.25703 -4.31958,-2.75717 -2.37117,0.68009 0.33085,1.74623 3.0329,-0.45954 2.51822,4.35635 -3.52918,0.80878 -2.90423,-2.04032 0.93744,4.20929 -1.6543,0.95581 -2.95938,-0.60657 -4.15415,-8.05096 -2.66527,0.64334 v 0 l -3.74976,-2.42631 -1.41535,1.96679 -1.45211,-2.42634 1.3602,-1.70944 -4.08062,-3.34538 1.85649,-0.66171 -2.07706,-0.82716 1.19478,-1.54402 -2.33442,0.69849 0.29411,-2.13222 -3.30862,-1.70944 1.32344,-4.65045 -1.28669,-1.48888 1.36022,-0.11021 -2.31603,-4.09902 1.70946,0.68011 -0.58821,-2.16898 2.02193,-0.34924 -3.47404,-3.6946 1.24992,-5.07323 -2.38955,-0.82714 1.43373,-3.34538 -1.87489,-1.76459 2.18737,-1.04772 -2.13221,-1.19477 2.29764,-0.93746 -1.87488,-4.485 1.8565,-1.6727 -1.45211,-0.36761 -0.12867,-7.97743 1.32344,-0.2022 -1.6543,-3.327 1.17641,-4.48501 2.53659,0.0367 1.02935,-4.30121 -2.11384,-3.52918 1.04772,-4.06223 -3.03289,-5.84523 -0.16543,-4.83424 -3.05129,-2.92261 2.07708,-3.713 2.6469,-0.14706 -1.15802,-5.53272 4.59531,-4.42988 -5.16513,-5.29378 3.327,-3.38213 -0.34925,-2.79394 -3.82329,-6.87456 1.47051,-2.04031 -4.24607,-3.49243 1.93002,-1.56239 -0.99257,-5.33056 3.27185,-1.6543 0.64334,-2.29764 -2.09545,-0.79039 3.08802,-2.05869 -1.59914,-5.07323 4.52176,-0.31246 -4.0071,-5.01806 z"
     class="land"
     title="Khmel'nyts'kyy"
     id="UA-68"
     inkscape:connector-curvature="0"
     style="fill:#9373a4;fill-opacity:1;stroke:#ffffff;stroke-width:0.91905981;stroke-opacity:1" />
  <path
     d="m 536.12952,347.8471 0.3676,5.20187 3.06966,2.77558 v 0 l 0.34925,3.32699 -2.48147,3.34536 -3.54757,1.6543 -2.84909,-1.83809 -2.13221,0.91906 0.47791,12.02126 -1.6543,1.83813 -3.67624,-3.5108 -2.02193,-8.67591 -4.61367,-1.48887 -1.54404,-4.63207 -2.83071,-0.73524 -0.82713,-3.71299 -4.74235,0.3676 -2.95937,2.22413 1.54403,-8.52886 v 0 l 2.8307,-3.34538 v 0 l 2.26089,-0.73525 -2.49985,-4.09902 9.35602,0.36764 5.56949,5.9555 8.17964,-1.67267 4.50338,-4.09903 4.50339,2.24252 v 2.59173 l -4.04386,1.12127 v 0 z"
     class="land"
     title="Kyiv City"
     id="UA-30"
     inkscape:connector-curvature="0"
     style="fill:#9373a4;fill-opacity:1;stroke:#ffffff;stroke-width:0.91905981;stroke-opacity:1" />
  <path
     d="m 619.37787,360.89775 0.8823,-3.93358 -3.08804,1.43375 -1.58077,-5.62465 -3.54757,-1.21315 1.12124,-2.53661 3.63948,0.18382 1.13965,-4.59531 -6.85621,-0.2941 -1.91162,-4.92616 -3.95197,-3.49243 -4.5769,2.55501 -0.23897,4.39309 -8.30828,0.55143 -0.97422,3.05128 -6.76427,-0.69849 -5.1835,2.79395 -4.35634,-3.25347 -2.55499,3.27185 -5.18349,-6.61724 -4.81587,-1.98516 0.0367,-1.94841 3.63946,-0.386 -1.69106,-2.95938 1.12123,-4.99969 -5.90035,-5.62462 0.12868,-2.33442 -10.86327,1.72783 -3.76816,-1.58078 -2.4263,2.84908 -1.2867,-1.12125 0.1838,-0.44113 -5.93709,-1.13964 -0.33088,-4.30121 1.81975,0.44116 1.10286,-2.07707 -0.75361,-4.28282 -5.01808,-2.70203 -2.64689,-9.48469 -2.66527,-2.61014 -6.17608,0.38602 0.44115,-5.07322 -1.47049,-2.0587 2.00354,-1.56239 -1.69107,-5.66141 3.06967,-1.21316 -2.18736,-4.65043 3.29022,-0.82716 -1.12124,-2.73879 -2.00356,-1.85651 -3.32698,0.75364 0.55142,-3.30862 -3.67623,-0.27571 -4.35635,-4.3931 1.06613,-6.89296 -10.99196,-8.71266 -0.77201,2.20573 -2.18735,-1.81974 -0.51469,1.93002 -6.39664,-1.63591 -3.12481,3.30861 -4.37473,-1.32346 -1.08448,3.87843 -4.57691,-1.41533 -0.71688,1.76458 -3.01451,-1.58078 -0.0552,-5.69817 -1.74621,-1.4521 -2.941,2.70204 -2.24251,-0.20222 -3.10641,4.17255 -2.70204,-1.74622 -2.37118,8.10611 -5.60624,-1.34184 -3.21672,2.6469 2.20573,0.5698 0.27573,5.49598 -2.68366,4.98129 -5.44083,0.88232 1.69107,8.3818 1.47051,5.22026 1.89325,-3.10643 9.92584,9.7053 -2.8307,4.39308 0.77201,3.73138 -3.89682,-0.73524 -0.0918,3.56595 6.30474,6.9297 -0.84553,4.17254 3.05128,2.29763 -3.36375,-0.0552 0.99258,3.8233 3.87842,0.31248 1.59918,4.11736 -9.46631,10.73464 3.65785,4.46661 -2.72042,5.75332 2.79392,1.39697 0.25736,2.77555 -1.65431,1.23154 -1.70944,-1.08449 -0.42277,1.72784 3.16155,1.34182 -3.52919,2.20574 0.97421,1.52563 1.87488,-1.26828 4.61369,-0.79041 1.67268,2.44471 0.0735,2.11384 2.90422,0.56981 -0.73524,3.93358 4.20929,0.47789 -0.31248,4.33797 -1.43372,0.55144 2.26088,4.28282 -3.47405,4.66881 2.95937,2.81232 -2.72041,4.65045 2.9226,3.4189 -1.21315,3.58432 3.65786,8.4002 -3.93358,3.08803 1.45211,0.80879 -2.7204,3.84166 -6.92971,4.31958 -2.04032,-1.48887 -1.5624,3.08803 -2.84908,-0.22057 1.54401,4.13577 -1.47048,3.29021 0.55142,1.4889 2.92261,0.0367 0.64334,6.04743 1.7646,1.23156 -1.98518,4.02544 2.55499,7.04 2.72041,1.39699 -2.16898,3.1248 2.68366,2.15058 -5.80844,7.31571 2.40794,5.03643 5.01805,1.5992 -0.45953,4.0071 4.70558,2.4263 1.4705,-2.20574 1.39696,3.10642 1.32345,0.2941 -1.80135,1.81973 2.37116,2.62851 7.38925,-0.60657 -0.55144,-1.37857 5.01806,-5.22028 -0.49629,-5.53273 5.03645,-1.87489 2.83069,0.80878 2.02194,5.03644 2.42631,-6.01064 3.40053,0.56982 -0.71688,5.01805 10.78975,1.85649 0.71687,1.81975 2.61013,-8.76783 3.58434,-3.49241 2.8307,3.52919 5.51435,-3.95197 7.66496,3.60272 11.06546,-2.61014 1.45212,-2.11384 -0.66172,-3.34536 4.66881,-0.69849 2.07708,-4.46661 0.97421,1.37857 -0.29412,-1.59917 3.29026,-2.37116 1.19475,-5.55112 2.555,-0.11022 -1.0661,-4.5953 5.23863,-8.43696 -1.30506,-0.73525 0.99259,-7.27894 -1.56241,-1.26831 1.23155,-5.99227 10.38535,-4.70557 -2.44469,-3.54757 0.73525,-1.2867 -3.69462,-0.64332 0.95582,-3.17994 8.45534,0.93743 -0.99258,7.68334 4.81587,5.47758 5.42245,-6.15768 1.39697,0.0918 0.2941,4.94456 6.15768,0.55144 6.30477,-11.17577 4.50338,0.31248 0.80877,2.07708 -0.0918,-7.48114 5.05484,-2.24252 -4.66883,-1.43372 0.23897,-4.35634 3.86005,-2.1506 -2.2609,-3.19831 1.78297,0.51466 1.80137,-4.7975 3.89679,1.28669 3.713,-3.95196 -1.67267,-1.8565 0.58819,-3.69461 2.61013,-1.74621 0.22057,-4.13577 0.69848,-2.83071 z m -78.61632,-15.29316 -4.02547,1.12127 -0.58821,1.12124 0.34925,5.20187 3.08804,2.77558 0.34923,3.32699 -2.48146,3.32698 -3.54757,1.67268 -2.84909,-1.85649 -2.13219,0.91907 0.4779,12.02128 -1.6543,1.83813 -3.67624,-3.5108 -2.02193,-8.69429 -4.61368,-1.4889 -1.54403,-4.63204 -2.84909,-0.73526 -0.82713,-3.713 -4.74235,0.36763 -2.95937,2.22413 1.54403,-8.52889 2.84907,-3.34535 2.24252,-0.73527 -2.48148,-4.09899 9.35603,0.36762 5.5695,5.9555 8.17963,-1.67269 4.50338,-4.099 4.50339,2.22412 v 2.64688 z"
     class="land"
     title="Kyiv"
     id="UA-32"
     inkscape:connector-curvature="0"
     style="fill:#9373a4;fill-opacity:1;stroke:#ffffff;stroke-width:0.91905981;stroke-opacity:1" />
  <path
     d="m 667.33437,469.36511 4.57692,1.28667 2.70204,-1.17639 1.26831,3.9152 7.29731,1.89325 2.6469,4.15416 0.40439,5.42245 5.34893,0.4779 -0.18382,-8.16123 3.63948,4.22766 -2.27928,2.53661 3.47404,2.81233 0.64335,3.41889 -1.96679,2.13222 1.24992,5.05484 5.07322,2.07707 0.34923,-2.72044 3.95196,0.33086 0.23896,3.52921 3.91519,-1.41535 2.18736,1.78296 5.75332,-6.32312 3.05126,3.63947 6.32313,0.25733 4.87103,3.30861 v 0 l -2.72042,12.33379 -2.05871,-0.23895 -0.40438,-2.68366 -4.66881,1.28667 -3.27186,-2.57335 -1.63592,2.2425 -4.55853,-0.36762 0.1838,4.0071 2.04032,2.42632 4.0071,0.53305 4.1909,3.86004 3.40052,-0.5698 -3.93357,6.65397 -5.16511,2.90424 -2.95938,-1.15802 0.6801,2.9226 -7.02161,-0.12867 -2.27925,2.15061 1.56239,14.22704 -1.81973,0.51467 -0.53307,3.17994 0.93746,2.37117 2.5366,-0.12867 -0.12868,4.81586 2.00355,3.67625 -2.75717,0.79039 -1.34183,3.36376 -3.16157,0.58818 0.12867,1.58079 -8.62077,1.96679 1.48889,2.79393 -1.59919,1.61756 -1.158,-4.77911 -3.63949,-1.70946 0.86393,4.24605 -2.84909,0.69849 0.22058,1.26831 3.06964,-0.7904 -0.53304,1.89328 -5.22025,1.43371 0.6801,3.2167 -0.55144,-2.05868 -2.38954,-0.14705 0.22056,2.35279 -4.24605,0.4963 -1.28668,4.81587 -1.04772,-0.40439 v 0 l -0.77201,-5.64301 -7.57307,1.67268 1.36021,4.31958 -12.44405,0.31246 0.2941,3.27188 2.37118,-0.47792 0.58819,1.80136 -5.69818,1.04771 1.98518,4.24605 -1.83812,5.01808 -18.05032,2.66526 -3.97033,-3.17994 -3.89681,0.9742 -0.62496,4.99967 -5.51436,1.15804 -5.29377,-6.35992 -13.52856,2.97776 -0.55144,-3.0145 2.55499,-0.55144 -0.75363,-3.65786 1.67269,-0.0918 -0.42277,-4.98129 -1.50726,0.31247 -0.62496,-4.52176 -5.71653,1.72784 -1.30508,-7.49954 3.19832,-1.6543 -0.84553,-5.51435 -4.50339,0.82714 -0.62497,-2.38954 -2.73878,0.36763 -0.55144,-1.80138 -3.0329,0.56983 -1.0661,2.66528 -1.54401,-0.68011 0.4779,3.62108 -3.52919,1.56241 -1.26831,-1.2499 1.69108,-2.18738 -0.79039,-3.76815 -5.73494,1.93003 -0.73523,-2.18737 -3.58434,1.72784 -0.34924,-2.05869 -5.23864,1.70945 -0.99259,-4.9997 -2.48148,-0.84551 -0.97416,-3.62109 -7.00325,-1.17641 -4.46663,0.90068 0.64336,3.27186 -3.51082,0.23893 -2.0403,2.3528 -2.68367,-0.12867 -2.49985,-2.75716 -1.3602,2.09544 -0.56981,-2.15058 -4.26443,-0.53308 -4.3931,1.08451 -1.76461,2.75717 -4.08061,0.0552 -1.80135,-2.04029 -1.45211,1.81972 -8.2164,-1.80135 -4.099,2.92261 v 0 l -15.49534,-0.91906 -3.08805,-2.73881 -0.95581,-4.30119 -0.99259,1.24993 -2.66527,-1.43374 -2.59174,4.41148 -2.6469,-2.62852 -4.00709,0.40441 v 0 l -1.91164,-7.48115 3.84166,-5.51436 -1.50725,-1.98516 11.13898,-9.53983 v 0 l 5.01808,-0.84554 4.02547,2.75717 3.16156,-4.96291 4.2093,2.09544 1.54401,-2.11382 8.23477,-2.26089 0.99259,-4.24605 10.01775,0.64334 0.34924,-3.52918 -2.49984,-2.11385 4.11738,-3.32699 0.79039,-3.10641 -2.13221,-2.2609 2.07708,0.11022 1.74621,-2.97774 3.6027,-1.54403 6.78266,1.01096 0.51467,-1.21316 4.41149,2.1506 4.26442,-2.29764 10.25671,4.04386 6.34151,-3.87844 2.79393,1.93004 2.90425,-0.84555 1.23152,2.84909 3.21672,-0.14705 11.19415,-9.53982 1.37858,-7.75686 -0.22059,2.44469 2.59176,-1.74622 4.06224,0.77202 0.93745,-3.23509 2.9226,0.40438 3.54757,-2.13221 6.9297,3.98871 -0.0368,2.29766 6.89296,-4.65045 4.44825,2.73878 2.86745,-0.88227 -0.64333,-4.98131 2.68364,-0.79039 0.51468,-2.29765 1.96679,1.08448 0.93745,-6.80103 3.23507,-2.46308 4.099,0.40439 1.94841,4.46662 2.57337,0.36765 1.28668,-2.15062 1.89327,1.6727 2.97776,8.98837 1.63593,-0.0735 -0.5147,-2.51822 2.6469,1.52566 5.99227,-0.6985 -0.16544,-2.49984 3.60272,1.78297 6.87456,-1.47049 1.67268,-1.70944 -2.64689,-1.13965 -0.91905,-5.95551 4.7791,-2.07705 0.0185,-2.07707 -8.30826,-4.09903 z"
     class="land"
     title="Kirovohrad"
     id="UA-35"
     inkscape:connector-curvature="0"
     style="fill:#9373a4;fill-opacity:1;stroke:#ffffff;stroke-width:0.91905981;stroke-opacity:1" />
  <path
     d="m 121.836,332.75618 3.21671,-0.2022 6.52532,7.97743 4.35634,0.79038 0.86391,-2.22413 3.23508,-0.99257 1.61756,4.61366 2.57335,1.80137 4.92616,-1.0845 1.59917,5.73494 2.72041,-0.31249 -0.11022,8.25315 3.6027,0.31249 4.2093,3.19831 -0.51467,3.14319 9.70525,-1.43372 4.26446,1.41535 0.34922,-4.20929 6.8378,4.54013 0.36762,3.84168 3.41891,1.39696 v 0 l 5.82684,0.73525 -2.38957,5.99228 2.97777,3.67623 -1.19478,4.87102 9.44794,12.09481 v 0 l 3.17993,1.89327 1.50727,4.22765 -2.37117,0.79041 -0.88232,6.39665 -4.55853,1.19478 -0.66172,2.53661 -12.77491,0.0736 -0.44116,5.40406 2.55499,2.62851 -3.06967,3.14319 -2.88583,-2.46309 -2.05871,9.11706 -3.08802,2.94102 -13.80429,3.71299 0.386,7.13189 v 0 l -5.23863,-0.27572 -4.08062,-3.38214 -3.36375,1.01098 0.23894,-1.69108 -2.92259,-1.58079 -2.4447,2.1506 0.62496,2.88585 -2.7388,1.15802 0.45954,4.65043 -2.49985,1.41536 1.12125,3.5108 2.90423,1.36022 -2.62852,2.35278 -0.97421,4.08062 -4.70557,-0.45953 -0.0735,1.3602 0.16543,1.74623 3.78653,0.36762 -0.95582,4.42985 6.35989,0.25736 -1.08449,5.3673 -4.68721,-1.0845 -7.84876,3.93359 -3.63949,0.0552 -0.45951,1.5624 -6.54371,-1.93002 -2.55498,2.94099 -2.99615,-2.15059 -4.22765,3.6211 -8.93326,-2.16899 -4.209289,2.68366 -1.305064,5.79006 -2.775559,0.84552 -3.639474,4.90779 1.286685,1.98517 -1.599164,4.02548 2.904226,3.14318 -2.095454,0.97421 -1.268304,3.98873 1.507259,3.80489 -1.856499,5.25701 v 0 l -7.830384,-0.12865 -3.786524,-3.84168 -2.279266,1.48888 -2.499843,-2.02193 -5.201874,1.34182 -3.161564,-6.78266 -3.290231,-2.90423 -6.801039,2.75717 -1.415348,-4.08061 -4.46663,-2.84909 -1.286682,-3.08803 2.793939,-2.72041 -1.010963,-3.03289 2.224121,-1.54403 -3.529186,-1.98516 v 0 l -0.992585,-2.62852 1.525638,-2.83071 -3.73138,-1.45209 -2.49984,-4.35634 -3.124802,-0.0918 1.029346,-2.26087 -2.279266,1.70945 -0.716866,-0.9926 2.444695,-3.82329 -1.985167,-1.45209 1.544021,-1.61755 0.404385,-10.84488 -3.032895,-12.57275 -3.547569,-3.47404 39.684976,-55.07003 25.218983,-22.09419 2.518222,-5.44082 16.965815,-2.38958 5.3857,-12.71975 z"
     class="land"
     title="L'viv"
     id="UA-46"
     inkscape:connector-curvature="0"
     style="fill:#9373a4;fill-opacity:1;stroke:#ffffff;stroke-width:0.91905981;stroke-opacity:1" />
  <path
     d="m 587.85414,719.97417 10.97356,-0.84553 6.30477,2.73879 v 0 l -3.14319,3.40052 v 0 l -5.16511,-0.38601 -1.23154,4.09901 z m -79.36994,-147.19652 4.099,-2.90423 8.2164,1.78297 1.45211,-1.81972 1.78297,2.0403 4.08062,-0.0552 1.76459,-2.75716 4.39311,-1.08452 4.28281,0.53308 0.56981,2.15058 1.3602,-2.09544 2.48148,2.77555 2.70204,0.12867 2.0403,-2.3528 3.51082,-0.23895 -0.64336,-3.27186 4.46663,-0.90066 7.00325,1.17639 0.97416,3.60272 2.46311,0.84551 0.99258,4.9997 5.23862,-1.70944 0.33087,2.05869 3.58432,-1.72785 0.73527,2.18737 5.73493,-1.93003 0.79037,3.76815 -1.67266,2.18738 1.2683,1.26827 3.52917,-1.56239 -0.4779,-3.62108 1.544,0.6801 1.06613,-2.66527 3.0329,-0.56982 0.55143,1.80134 2.72041,-0.3676 0.64333,2.38953 4.50341,-0.80877 0.82715,5.51437 -3.19833,1.65431 1.30505,7.5179 5.71655,-1.72784 0.62497,4.52177 1.50725,-0.31248 0.42277,4.9813 -1.67267,0.0918 0.75361,3.65787 -2.5366,0.56982 0.53306,3.0145 13.54694,-2.97775 5.2754,6.37828 5.53271,-1.15802 0.60661,-5.01807 3.8968,-0.97421 3.97032,3.17995 18.05034,-2.66527 1.83811,-5.03644 -1.98516,-4.24606 5.69816,-1.04771 -0.60658,-1.80137 -2.37117,0.47792 -0.27573,-3.27185 12.44407,-0.31248 -1.36021,-4.33796 7.55468,-1.6727 0.77201,5.64303 v 0 l 0.0552,6.76428 4.65043,-0.33087 0.11021,7.68334 -1.45209,0.42276 -0.45953,4.63207 1.28666,3.95195 -6.12092,1.58079 1.48888,9.5582 -2.20575,2.27927 8.23478,-0.45954 -0.0918,1.78298 v 0 l 8.80464,0.14705 -1.12124,4.09903 4.37471,-0.8823 1.72783,5.44082 2.33441,-0.99257 -1.45211,-2.79395 9.47171,-1.82904 -0.17082,-3.97941 6.28635,-1.26831 1.93002,2.51823 -1.19477,6.41503 2.79394,-0.93744 2.00632,2.7149 12.14474,-1.70861 0.40311,2.05673 -1.57351,8.15694 -1.48491,5.94783 -0.95457,5.35746 -1.85944,4.01782 -2.04605,2.50159 -5.27702,2.40838 -0.8117,3.84327 -2.66588,3.0307 -3.80354,3.42007 -3.38402,6.78347 -4.96907,12.33604 -3.582,0.3146 -4.35868,0.49929 -3.52183,1.01389 -2.63529,3.22226 -5.44522,2.02134 -8.57781,1.37623 -5.3478,1.49006 -6.49519,1.53746 -4.78713,0.20458 -2.97979,4.06021 -1.7976,0.043 -4.20523,0.4103 -2.74709,0.29725 -3.10947,1.1408 -1.05361,2.3857 -1.72968,3.65911 -3.36431,3.34968 -2.98807,-2.08477 -1.17317,-0.34941 -2.14354,0.68963 -3.31993,1.94936 -2.21174,1.54912 -4.94067,-1.53783 -1.88707,3.25052 -2.08967,0.49755 c -0.90695,-0.0252 -1.68034,-0.65403 -2.51531,-1.00794 l -0.68592,-1.45773 c -4.02331,1.0864 -8.15838,-0.6024 -11.41931,-1.67615 -3.75137,-1.11045 -5.36332,-1.90683 -8.33106,-2.72343 l -5.64471,-0.85265 -4.94592,-0.46863 -6.31952,-0.42085 -2.62148,0.2308 -9.53402,-2.74972 v 0 l 1.19477,-2.97776 -3.08802,-7.2238 1.76458,-2.59174 -1.26831,-5.80846 -7.26055,-6.06578 -1.3786,-5.53276 4.42988,-2.07707 9.66848,-0.69847 -0.90066,-2.79395 3.82329,-0.16542 0.6801,-5.40407 -2.07708,-8.05097 -9.79718,1.41535 -0.0552,-3.05127 2.95936,0.6801 0.91908,-7.7017 -9.50308,2.44468 -1.98517,-2.57336 0.56982,-1.96679 -5.55111,1.12126 -2.27928,-5.12836 2.27928,-1.15803 -1.65431,-1.94838 0.23895,-5.36731 -2.27928,0.36763 1.41536,-11.12062 -6.10255,-0.47792 -1.5624,-2.00356 1.94841,-1.28666 0.60658,-5.99228 -4.98132,0.97421 0.68011,2.70204 -2.77554,0.75362 -0.71687,-3.0329 -11.80072,1.4705 -0.47792,-2.13221 -2.75718,0.49629 -1.98516,-10.90004 2.16897,-0.73527 0.71688,-3.58431 -0.84553,-1.91164 -5.73494,0.772 -1.43374,-10.71621 -3.78652,-3.41893 -1.13963,-4.41147 1.87489,-0.97419 -2.99615,-3.97034 6.59884,-3.62109 2.4631,0.31247 -2.62851,-1.24992 z"
     class="land"
     title="Mykolayiv"
     id="UA-48"
     inkscape:connector-curvature="0"
     style="fill:#9373a4;fill-opacity:1;stroke:#ffffff;stroke-width:0.91905981;stroke-opacity:1"
     sodipodi:nodetypes="cccccccccccccccccccccccccccccccccccccccccccccccccccccccccccccccccccccccccccccccccccccccccccccccccccccccccccccccccccccccccccccccccccccccccccccccccccccccccccccccccccccccccccccccccccccccccccccccccccccccc" />
  <path
     d="m 476.04141,566.82214 4.00709,-0.4044 2.6469,2.62853 2.59174,-4.41148 2.66527,1.43373 0.99259,-1.24992 0.97421,4.30119 3.06965,2.7388 15.51371,0.91906 v 0 l 0.64335,2.81232 2.62852,1.24992 -2.46308,-0.31249 -6.59886,3.6211 2.99614,3.97033 -1.87488,0.97421 1.13962,4.41149 3.78653,3.4189 1.43374,10.71622 5.73494,-0.77201 0.84552,1.91165 -0.71686,3.58433 -2.16899,0.73525 1.98516,10.90004 2.7572,-0.4963 0.4779,2.13221 11.80072,-1.47049 0.71687,3.0329 2.77555,-0.75363 -0.68011,-2.70203 4.98131,-0.9742 -0.60658,5.99227 -1.94841,1.28667 1.56241,2.00354 6.10255,0.47793 -1.41534,11.1206 2.27926,-0.36761 -0.23896,5.3673 1.65432,1.94842 -2.27928,1.15799 2.27928,5.12837 5.5511,-1.12127 -0.56982,1.96681 1.98517,2.57335 9.50308,-2.44468 -0.91907,7.70172 -2.95938,-0.68012 0.0552,3.05128 9.79718,-1.41536 2.07706,8.05096 -0.68011,5.40406 -3.82326,0.16545 0.90066,2.79393 -9.66849,0.69849 -4.42988,2.07707 1.37861,5.53272 7.26056,6.06579 1.26829,5.80846 -1.76459,2.59177 3.08804,7.22379 -1.19479,2.97776 v 0 l -26.54241,7.42599 -1.41535,3.19832 2.72041,5.95551 -1.3786,6.0658 -4.30119,4.61367 -12.53595,22.00227 -16.34089,19.28186 -36.33959,30.95391 -1.7646,3.01453 2.55498,2.49984 0.95584,-2.35279 0.97419,2.07707 5.47759,-0.71686 -1.45211,20.75235 -1.74622,1.43373 -2.40794,-0.16543 -0.49629,-8.45535 -4.31956,-6.70914 -10.64271,-5.12834 -11.65367,0.91905 -17.03936,9.04355 -1.54402,4.52178 -8.97002,-4.85263 0.18381,3.10641 -3.03288,1.50726 2.51821,3.54758 -4.57691,1.54401 -9.6685,-2.11385 -13.49179,-6.50693 -3.89681,-6.61723 -0.16544,-4.3012 -4.17252,-1.72782 2.02193,-3.52918 3.84166,-3.54758 7.44439,1.43374 0.31247,3.82329 5.07321,-1.24994 -1.41536,-6.23122 3.51081,-0.82714 -1.78297,-7.57307 -2.26088,-0.0367 2.07707,-4.44824 1.67268,-1.70946 3.10643,0.42276 -0.36763,-3.62106 7.66496,-0.84554 -0.56981,-3.17996 5.25701,-1.50725 -1.69107,-8.17963 1.08448,-4.09902 12.73816,-2.86745 1.61756,-3.98872 -3.45569,-4.35634 7.07677,-8.82297 -6.96646,-5.7717 2.70203,-6.45179 -4.00711,-11.34118 5.91875,-0.44115 -2.31601,-2.27927 10.75298,-2.40794 0.11021,-2.59173 4.46662,-1.32345 1.23155,6.59883 -2.18737,1.94842 1.54402,4.20928 -2.38955,2.88585 2.07707,0.71686 1.56241,-2.57334 3.65782,-0.79041 -0.80876,-4.61367 2.35279,-3.45568 3.0513,7.04 -0.55145,-1.9484 3.98872,-4.31958 3.19833,3.2167 -1.41536,1.76459 5.05484,2.04032 0.99257,4.99968 1.6543,0.5882 4.33796,-0.62496 -0.77199,-6.58045 4.50338,0.12867 0.38601,-3.43729 5.14672,6.70912 -0.88228,1.04772 4.77911,2.90425 -0.0918,-1.81974 3.23508,-2.57338 3.0329,1.67268 4.65044,-1.48886 1.98517,1.63591 4.28281,-2.84907 -0.2941,-1.48888 -1.39696,1.67269 -2.37119,-2.64689 -1.12123,1.4705 -0.82716,-1.69108 -2.53661,0.0367 -1.81973,-1.61755 1.76459,-0.82715 -2.0403,-0.88231 -0.14705,-2.73878 -3.08807,1.34182 -3.87841,-4.66882 4.5953,-1.13964 1.52564,-17.46212 -2.35279,-4.85264 2.57335,-0.97418 -0.60657,-1.45212 -3.87844,1.12124 -1.34182,-5.90036 -8.14286,2.29765 -1.9668,-6.34151 -4.485,0.80877 -0.5882,-2.97775 -4.099,1.15801 -0.95582,-1.50726 2.42632,-0.45951 0.34925,-6.80105 1.54402,-0.66172 -0.91907,-4.90779 -4.08063,0.34925 -0.95581,1.94841 -2.22413,-4.44823 5.31216,-1.32345 -1.81972,-10.36701 2.92259,-0.75361 -1.61753,-10.33023 -5.36731,1.45211 -0.22058,4.41149 -3.32699,1.54402 -1.9668,-1.02936 -0.53304,-7.26056 -3.25348,0.90068 -1.23154,-7.03999 -4.37472,2.97776 -0.31248,-4.13578 -3.2167,3.30861 0.0918,-4.00709 -2.07707,0.84553 1.81971,-1.54403 0.0737,-3.52918 -2.33442,0.45953 -2.31603,-4.26443 4.30121,-1.59917 3.05127,-6.34149 -1.61753,0.0737 1.50725,-3.93356 -1.52565,-3.40053 4.22767,-7.62819 -3.29023,0.64335 -1.26829,-2.83071 4.77911,-5.88198 -4.68721,0.53306 -1.67267,-9.96261 -5.14675,1.01097 0.38601,1.98517 -1.23156,-0.86391 -0.88227,2.51822 -6.19447,-3.45565 -2.66527,1.87487 -5.23863,-6.96648 0.58818,-4.35633 v 0 l 1.26831,1.08449 3.73139,-2.31602 1.12124,-5.73493 4.11738,0.66171 0.77202,3.01454 0.93745,-0.60659 1.85649,-6.56209 5.40408,4.099 -0.9007,0.86391 6.80106,-0.69849 0.56981,1.61755 -3.54758,1.06611 0.95582,1.43374 2.48147,-0.79038 1.45211,2.11382 5.62466,-0.12865 1.3602,-2.24252 4.63206,-0.82716 2.05868,1.96678 4.28282,0.4044 2.00355,-3.17995 3.89681,2.22413 -0.4963,-7.97744 z"
     class="land"
     title="Odessa"
     id="UA-51"
     inkscape:connector-curvature="0"
     style="fill:#9373a4;fill-opacity:1;stroke:#ffffff;stroke-width:0.91905981;stroke-opacity:1" />
  <path
     d="m 680.55046,346.59719 3.06965,1.41535 3.43727,-1.76459 2.95938,1.91164 3.52919,-4.76073 2.61012,3.10642 3.38215,0.0735 0.1838,2.18735 2.18737,-0.0918 1.36021,2.24252 1.80134,-1.56241 1.2683,1.43372 1.08451,-1.91162 1.47048,1.63591 2.97776,-1.43372 10.36699,3.56594 6.59884,-3.14318 -2.07708,-2.42632 3.87844,-1.65432 2.64689,1.65432 2.37116,-3.05127 4.44827,4.68719 2.3344,-1.59917 2.49982,0.99259 -0.25732,2.31604 1.28669,-2.73882 6.21282,-2.4263 1.78299,1.50726 0.68011,8.19801 7.94064,6.56209 1.54404,5.56949 6.1577,2.55498 0.45953,3.63949 3.36375,1.89324 -3.06965,4.46663 1.4705,4.59532 9.61335,2.16897 0.0185,-3.60272 2.04031,-1.24991 0.53305,1.54401 6.58047,-1.91164 5.79007,1.158 v 0 l -0.44114,4.81588 1.81973,2.48146 -6.59884,8.71268 1.69105,4.77911 7.75688,6.35988 2.81232,-1.32343 0.90067,2.57336 4.63207,0.0367 4.57691,2.68366 -0.45953,7.83039 2.77556,1.39697 -0.71687,3.86004 6.83779,2.83071 5.01807,-0.75363 3.29024,9.61336 -5.03645,1.72783 1.48888,2.6285 3.47403,1.23155 -0.20218,2.83071 -9.08031,-1.74621 -1.24991,4.3931 2.88584,0.99258 -0.80877,4.099 1.6727,0.69849 -5.882,7.37085 -0.25735,4.04387 -2.29763,-2.48148 -9.31927,0.0737 -4.09898,-2.18734 -2.70204,7.2054 2.29764,9.35605 v 0 l -4.20928,-4.13577 -3.27186,4.17252 -2.02192,-1.10287 2.09545,-1.43373 -2.48147,-1.28669 -5.82683,1.61756 -0.0367,2.81229 -10.82651,2.8675 -2.49984,5.3489 -9.22736,-3.71299 0.86391,3.78654 -5.55112,5.20187 1.63593,1.58078 -3.17994,8.08771 2.86747,3.97034 -1.5624,2.11383 1.43373,0.84553 -3.23509,0.27573 0.22058,3.327 2.55498,0.0552 -2.75717,5.8636 -0.51467,-1.89327 -9.65012,-3.65785 -0.68011,-3.84167 -3.21671,-0.386 -3.08805,-3.6211 -7.83037,-3.51081 v 0 l -4.87102,-3.30861 -6.32313,-0.25733 -3.05127,-3.63947 -5.75332,6.32312 -2.18736,-1.78297 -3.91518,1.41535 -0.23897,-3.5292 -3.95196,-0.33086 -0.34921,2.72043 -5.07323,-2.07706 -1.24991,-5.05484 1.96678,-2.13222 -0.64334,-3.41889 -3.47405,-2.81233 2.27928,-2.53661 -3.63949,-4.22766 0.18382,8.16123 -5.34892,-0.4779 -0.4044,-5.42245 -2.6469,-4.15416 -7.29731,-1.89325 -1.2683,-3.9152 -2.70204,1.17639 -4.57693,-1.28668 v 0 l -5.80843,1.43373 -2.8307,-2.44469 -6.58046,0.38602 -8.97004,-7.16867 2.61013,-7.5363 1.98517,2.48147 12.42569,2.62852 -5.40406,-8.08772 1.48887,-5.86359 4.55852,-2.51825 0.38602,-4.94452 -3.63948,-2.62852 0.69848,-5.29378 -8.34505,-4.11737 -1.13963,-6.58049 -2.46309,-0.34922 -0.80876,-2.99615 -3.29023,0.86393 -4.72397,-7.49952 3.78651,-1.32344 -1.26828,-1.47051 0.71685,-5.44082 -2.90421,-1.89327 -1.94842,-6.52532 -1.10286,-0.8823 -1.28669,1.85649 -3.4189,-4.26442 -0.2941,-2.81233 3.23508,-0.772 -0.34925,-2.35279 -7.64655,-2.22412 -3.67624,-6.02903 v 0 l -1.65431,-1.87489 0.5882,-3.67624 2.61012,-1.74621 0.22058,-4.13576 v 0 l 6.7459,-0.0552 0.0367,-2.55497 2.29765,-0.64335 2.0403,-4.35634 2.70203,-0.25734 1.70946,2.00356 6.0658,0.75361 -0.38602,2.86747 2.44471,2.40794 9.22735,-2.51823 -0.0918,1.2683 7.40763,0.99258 -0.0368,-2.24249 7.86716,-3.67623 3.52918,-6.39667 2.49984,0.0918 0.66172,-2.84908 z"
     class="land"
     title="Poltava"
     id="UA-53"
     inkscape:connector-curvature="0"
     style="fill:#9373a4;fill-opacity:1;stroke:#ffffff;stroke-width:0.91905981;stroke-opacity:1" />
  <path
     d="m 230.15632,207.56193 6.50694,0.95583 4.65043,-1.80138 11.23091,7.05838 12.7014,-1.30506 0.1838,4.06224 4.63207,3.58433 4.42988,0.16542 3.08801,-3.14317 6.12095,0.40438 3.713,2.18736 0.18382,2.62851 2.55498,2.02193 3.30861,-0.90068 6.21284,3.06966 2.86747,-3.32699 13.01386,-0.51467 0.42276,10.9368 4.04387,0.99258 -1.83811,5.12835 7.27895,-1.43374 4.04385,1.24993 1.63592,-1.61754 3.19833,3.36376 0.86391,-4.8894 6.43343,3.12481 6.30473,0.0918 -0.20218,3.97035 -3.47403,4.74233 v 0 l 0.38599,1.8565 -5.62465,2.00354 0.0918,4.85264 2.05869,2.7388 -1.93002,0.0185 -3.34537,-3.08803 0.27572,-1.96678 -1.74621,0.0552 -0.82716,7.49951 1.67269,0.79042 0.0367,2.59173 -1.63593,2.46307 -3.34537,0.69849 2.09544,7.2238 -6.17605,8.08773 -0.55145,5.80847 -2.64688,1.80133 0.31246,3.54758 -6.56208,1.23153 0.16544,2.18738 -1.6727,0.79038 2.4447,5.42246 -1.2499,2.66526 2.38954,2.11385 -1.32344,9.66849 2.55497,7.55465 -1.94841,4.57693 -2.61012,1.28668 -0.75362,3.713 2.4447,1.81975 0.0918,3.67623 -2.20575,0.45953 v 0 l -3.95195,0.18381 -0.93745,-3.23508 -2.70203,1.69108 -0.16543,2.31601 -3.23508,-0.71687 -2.29765,3.52918 -4.99967,-2.15059 -2.83071,3.56595 -1.8565,-1.158 -3.63949,3.03289 -0.23895,1.8565 1.47051,0.23894 -2.81234,0.62497 -0.36761,-1.5624 0.0918,3.2167 -5.53274,7.81201 -2.88586,-0.31249 -4.66882,5.53274 -2.1322,2.941 0.77201,1.69106 -6.7459,-0.16544 -4.46662,3.38214 -2.31603,4.74234 -4.19091,0.0368 v 0 l -2.51823,-1.70944 2.61014,-6.59885 -3.65785,3.6027 -6.28637,-2.64689 -3.17995,2.53663 -4.99968,-2.59176 -4.55853,6.4334 -8.03258,0.38601 -6.19446,3.40053 -3.21672,-2.16897 -1.3602,2.42629 -4.92615,-1.59916 -1.63593,3.69463 2.42632,2.42631 -2.24251,0.73526 -1.3602,4.02547 -4.15416,0.6985 -0.93743,4.02545 v 0 l -9.44793,-12.09479 1.19477,-4.87103 -2.97776,-3.67623 2.38956,-5.99228 -5.82683,-0.73524 v 0 l -0.14705,-2.29765 3.51081,-1.89326 -1.43374,-3.80492 1.50725,-0.95581 1.85652,1.61754 0.77199,-1.69107 -2.40792,-1.544 -0.84553,-3.36378 -1.26831,0.34925 0.77202,-2.46307 -3.93359,-2.26089 3.98873,0.62497 0.58819,-3.49244 -2.18736,-4.46661 10.71624,1.39697 1.72783,-2.79395 -0.4963,-1.70947 -1.32345,0.58823 -0.62495,-5.27542 7.20544,1.80137 -2.92263,-3.01452 2.37117,-2.29766 -0.58819,-2.0403 5.12835,2.55498 8.34505,-3.45565 -0.22056,-1.87489 5.90036,-1.01096 1.12124,5.23864 4.06223,-0.47792 3.74978,5.22025 4.61367,-20.38473 6.96648,1.10289 1.08449,-2.15061 -2.90424,-2.55497 0.69848,-6.81943 -2.4447,-1.96681 7.24219,-1.32342 1.54403,-3.36376 -1.06612,-4.72397 -4.37471,-2.92261 -4.90779,-0.34925 -0.34923,-3.29022 7.38924,-2.33441 0.62496,-3.89683 -3.86004,-4.26442 -3.40054,-0.77199 -0.45952,-3.97035 -6.85619,-6.10254 0.22058,-5.14674 -3.23509,1.26831 -1.19478,-2.59176 -2.02193,0.0185 -0.11022,2.04032 -1.67268,0.33087 -3.60271,-4.87101 0.0185,-5.58789 -2.2425,-2.38955 -3.19832,0.34923 2.51822,-2.09543 -1.70946,-1.67271 2.22413,-4.39308 -4.41148,-4.72397 2.79392,0.64333 1.78299,-1.6543 3.86004,-7.70172 1.02934,-3.62109 -3.19831,-4.77911 0.42275,-4.39309 4.11741,-4.94454 -4.6137,-0.66173 -2.49984,-2.38956 v 0 l 11.78234,0.27572 -0.0367,-2.81232 2.72041,0.71687 z"
     class="land"
     title="Rivne"
     id="UA-56"
     inkscape:connector-curvature="0"
     style="fill:#9373a4;fill-opacity:1;stroke:#ffffff;stroke-width:0.91905981;stroke-opacity:1" />
  <path
     d="m 728.3783,163.33679 0.23894,4.17254 4.90778,1.59915 1.26831,5.7717 3.67624,1.83811 0.66172,2.4447 2.62851,0.36761 0.386,3.49244 3.52919,2.55498 -1.06612,4.99969 -2.26088,2.07707 2.27928,2.97776 -0.0367,3.45566 2.48144,0.80875 0.34924,3.16158 2.79397,-0.0918 2.00354,4.92616 2.40793,0.95581 -0.64335,2.97775 3.12481,-0.71685 7.24219,6.15769 -0.45953,3.73139 2.02192,4.50336 -1.15802,2.13223 -7.03998,0.25735 -14.06161,5.33054 5.1835,2.27925 0.99258,4.65046 1.89327,-0.25734 0.25732,2.42631 1.21316,-0.95582 1.3786,5.1835 3.12479,1.47048 -5.55111,10.20156 7.35247,6.08417 -3.47405,2.04032 -3.14318,7.0216 4.94454,2.68366 4.66882,-3.43729 12.1132,3.86005 1.39699,-1.98516 3.6946,0.6985 0.51467,4.98128 2.97777,2.33441 4.35632,-1.17639 2.6469,1.47049 1.87487,-2.84907 4.70559,-0.58822 2.59175,-2.9226 3.84167,2.88585 1.96679,-2.6285 4.81587,0.80875 -1.50726,5.93714 2.92259,3.91519 0.0185,3.47405 -1.54402,0.56982 2.49984,2.97773 5.12837,-0.49628 2.1322,-2.02193 6.17607,2.84909 0.22059,2.27925 -2.27926,1.81975 -3.21672,-0.77202 2.02193,3.8233 -1.47048,3.2167 4.46661,2.86747 -1.08447,4.33796 2.24248,2.46308 -0.25732,4.44823 4.59528,2.33442 -2.09543,4.92614 2.48143,4.98132 -0.47788,2.11382 -1.54404,-1.02934 -3.9887,1.39698 1.69106,4.79747 -1.98517,2.27928 5.22025,8.82297 6.72752,3.71299 1.19476,8.06935 3.67625,1.41535 v 0 l 1.12125,1.02935 -1.50725,2.88583 -3.93358,-1.6543 -4.74235,1.21314 0.44115,2.49986 -6.21283,-4.08062 -2.81234,1.34182 0.11022,2.29765 -3.16158,-2.29765 -2.05868,2.86747 2.02193,1.37859 -3.9152,1.01098 -0.53307,2.86744 -6.70912,-0.75362 -4.96291,3.63947 -1.67269,3.82329 -5.10998,-1.87487 0.68011,2.48146 -1.91164,0.6617 v 0 l -5.79007,-1.158 -6.58047,1.91164 -0.53305,-1.544 -2.04032,1.24991 -0.0185,3.60271 -9.61335,-2.16897 -1.47051,-4.59532 3.06966,-4.46663 -3.36376,-1.89324 -0.45952,-3.63949 -6.15771,-2.55498 -1.54403,-5.56949 -7.94064,-6.56209 -0.68011,-8.19801 -1.783,-1.50726 -6.21282,2.42631 -1.28668,2.73881 0.25731,-2.31604 -2.49982,-0.99258 -2.33439,1.59917 -4.44827,-4.68719 -2.37116,3.05126 -2.64689,-1.65431 -3.87844,1.65431 2.07708,2.42632 -6.59884,3.14318 -10.367,-3.56595 -2.97775,1.43373 -1.47049,-1.63591 -1.0845,1.91163 -1.2683,-1.43373 -1.80135,1.56241 -1.3602,-2.24252 -2.18737,0.0918 -0.1838,-2.18735 -3.38216,-0.0735 -2.61011,-3.10642 -3.5292,4.76073 -2.95937,-1.91164 -3.43728,1.76459 -3.06964,-1.41535 v 0 l -1.13965,-2.00354 4.52178,-5.25703 -0.33088,-5.01806 1.96682,-1.02935 -0.66175,-5.34891 6.24961,-2.13224 -3.10643,-1.39695 -2.18736,-4.28282 1.91166,-5.56949 -0.82716,-3.82329 2.27927,-0.71688 -0.40439,-6.59885 -3.82328,0.36765 -1.36022,-4.87103 -2.46308,2.37118 -2.20575,-0.93745 2.57338,-4.3931 -0.80876,-3.1248 -7.86716,-2.35279 2.94099,-5.05481 -1.8565,-1.80138 0.8823,-2.62848 4.00709,-1.65433 -0.51466,-2.2425 2.27927,-2.55499 0.31246,-3.54755 -2.0403,-0.45955 2.37117,-2.95938 -0.8823,-2.24248 -1.72784,0.0367 -1.10286,-4.92615 1.7646,-1.28669 -0.60659,1.80136 3.01452,2.26089 1.52565,-0.23897 -1.4705,-2.2425 2.68365,1.12126 -0.0185,-10.23832 3.84168,-2.29764 -2.24253,-5.64304 4.08063,-1.72783 -1.94841,-0.34924 -3.87843,-6.17608 0.44116,-7.79361 -3.45567,-5.12835 4.09901,-4.20929 -1.50726,-4.66882 3.36375,-2.13223 0.0552,-1.96677 8.4921,-3.25348 2.40794,0.71686 1.43373,-4.81586 -4.37474,-3.84168 0.75365,-1.63592 4.48499,-1.91163 2.35279,2.38953 4.54015,-1.19477 0.0367,-4.9813 -3.80489,0.12866 -1.54401,-3.76812 -5.69819,-1.30506 -0.3676,-7.83039 3.25345,-2.88586 1.32345,-7.53627 2.33441,-2.84908 v 0 l 1.19478,0.36762 0.66171,-2.59176 3.5292,1.04774 -2.11384,4.41149 4.79749,1.23153 -0.75363,-2.20575 2.26088,1.1764 6.28637,-4.66883 z"
     class="land"
     title="Sumy"
     id="UA-59"
     inkscape:connector-curvature="0"
     style="fill:#9373a4;fill-opacity:1;stroke:#ffffff;stroke-width:0.91905981;stroke-opacity:1" />
  <path
     d="m 200.26852,396.68591 0.93743,-4.02548 4.15416,-0.69847 1.36021,-4.02548 2.24249,-0.73527 -2.42631,-2.4263 1.63593,-3.69462 4.92614,1.59916 1.36021,-2.42631 3.21672,2.16897 6.19446,-3.4005 8.03258,-0.38602 4.55853,-6.43342 4.99968,2.59176 3.17995,-2.53661 6.28636,2.64689 3.65786,-3.60272 -2.61014,6.59886 2.51823,1.70944 v 0 l -0.69849,2.62852 4.0071,5.01806 -4.52177,0.31247 1.59915,5.07323 -3.08803,2.05868 2.09546,0.7904 -0.64335,2.29763 -3.27184,1.6543 0.99258,5.33055 -1.93002,1.5624 4.24605,3.49243 -1.4705,2.04032 3.82329,6.87455 0.34924,2.79394 -3.32698,3.38213 5.16511,5.29379 -4.5953,4.42987 1.15801,5.53272 -2.64689,0.14705 -2.07708,3.71302 3.0513,2.9226 0.16541,4.83424 3.0329,5.84523 -1.04773,4.06224 2.11384,3.52918 -1.02935,4.30121 -2.53659,-0.0367 -1.1764,4.48501 1.6543,3.327 -1.32343,0.2022 0.12865,7.97743 1.45211,0.36761 -1.85649,1.6727 1.87487,4.48499 -2.29763,0.93748 2.1322,1.19476 -2.18736,1.04772 1.87488,1.7646 -1.43373,3.34537 2.38957,0.82714 -1.24994,5.07323 3.47404,3.69461 -2.02193,0.34923 0.58821,2.16898 -1.70945,-0.68011 2.31602,4.09903 -1.36021,0.11021 1.28669,1.48887 -1.32343,4.65046 3.3086,1.70943 -0.2941,2.13223 2.33441,-0.69849 -1.19476,1.54402 2.07704,0.82715 -1.85649,0.66172 4.08062,3.34537 -1.36019,1.70944 1.4521,2.42634 1.41535,-1.96678 3.74976,2.4263 v 0 l -3.19832,0.25735 -2.40793,2.57335 -3.19832,-0.11022 -2.07707,-2.90423 -6.23123,1.08448 -3.17995,-8.60238 -1.32344,1.94839 1.9484,4.37473 -2.00355,1.39698 -3.12479,-4.35635 1.3602,-2.09545 -0.95581,-3.84166 -1.8565,3.47404 -2.84909,-1.08449 -4.13576,3.23508 -3.60273,-0.9742 0.27571,-2.33441 -4.35632,-4.96292 -3.06966,3.97032 -1.45213,-2.75716 -5.23862,-1.02935 v 0 l 1.43373,-3.25348 -2.64689,-1.78297 1.91164,-2.1506 -11.525,-7.75686 -0.11022,-3.38213 -1.58077,-0.0918 0.12866,2.37121 -5.25701,-1.43375 0.56981,4.83426 -2.46308,-1.17639 -2.09544,3.47402 -1.6911,-0.16543 -0.75363,-3.14318 5.22028,-2.16897 -4.98131,-2.55498 -2.31604,1.91164 1.59917,-7.90391 -2.77556,0.45953 -1.2683,5.34893 -1.81974,0.11022 -1.34181,-5.31217 1.76458,-1.83812 -2.29764,-1.8565 0.34924,-3.01451 -1.52563,1.48888 -4.48502,-2.81233 -3.19832,1.67268 -3.84168,-5.7533 0.73524,-2.66527 4.63206,1.10286 -0.49629,-4.46663 -4.98132,-1.10287 -2.73878,-3.16154 4.44825,-6.85621 -5.2754,-2.62849 -1.13963,-5.34894 2.00355,-2.97775 -2.81232,-3.6946 -2.2609,0.12866 -3.49242,-10.49567 v 0 l -0.386,-7.13188 13.80428,-3.713 3.08802,-2.941 2.05871,-9.11706 2.88583,2.46309 3.06967,-3.14319 -2.55499,-2.62852 0.44116,-5.40406 12.77491,-0.0735 0.66173,-2.53661 4.55852,-1.19477 0.88232,-6.39666 2.37117,-0.7904 -1.50727,-4.22766 z"
     class="land"
     title="Ternopil'"
     id="UA-61"
     inkscape:connector-curvature="0"
     style="fill:#9373a4;fill-opacity:1;stroke:#ffffff;stroke-width:0.91905981;stroke-opacity:1" />
  <path
     d="m 32.815932,488.022 7.021611,-0.45951 4.79749,4.81587 2.683653,-0.55144 -0.551436,-2.90423 v 0 l 3.529186,1.98517 -2.224121,1.54402 1.010965,3.03289 -2.793942,2.72042 1.286684,3.08803 4.466629,2.84909 1.415349,4.0806 6.80104,-2.75716 3.29023,2.90422 3.161564,6.78266 5.201874,-1.34181 2.499843,2.02193 2.279264,-1.48888 3.786524,3.84167 7.830385,0.12866 v 0 l 4.723964,1.94841 5.073207,6.34151 5.146735,0.27571 0.36762,4.26444 3.34537,3.4189 3.47405,-0.69848 0.9742,8.7862 3.01451,0.77201 1.78297,-4.37472 2.37118,0.44114 5.34892,-3.03288 1.12126,11.70881 2.44469,3.93356 4.76072,1.63592 1.87488,-4.1725 3.27185,0.68008 1.65431,3.56596 7.44437,6.21284 0.0368,3.43728 3.76813,2.48145 -2.70203,5.56949 7.68335,10.20157 -3.10643,2.68365 -0.73525,4.85264 v 0 l -3.40052,1.58078 -4.6872,-1.76458 -5.33055,5.10995 -1.544,-1.04771 -5.9739,2.70203 -2.26088,-1.93006 -4.99969,0.29413 -6.41503,-4.81588 -8.8781,3.19834 -5.42246,-5.75332 -6.966463,0.97421 -8.547251,-3.29022 -2.113835,4.81585 -10.146413,-4.87101 0.220574,-1.63592 -3.455664,-1.58079 -0.845533,-4.17253 -4.65044,0.18383 -1.544021,-2.09548 -3.290229,3.0329 -1.360208,7.59143 -4.760726,1.4705 -5.404068,-2.66526 1.249919,4.85262 -3.235087,1.02934 -3.768143,-3.16157 2.793941,-5.91872 -3.455664,-5.93713 -5.569498,-0.31247 -4.117385,2.62851 -4.981301,-1.54404 -1.2683,-8.25314 -4.301198,-4.83425 -6.267983,-0.14705 -1.249921,1.34182 -4.227672,-8.3083 0.349242,-2.51822 -4.8158693,-3.03289 1.488876,-2.29764 -3.5659496,-1.54404 -3.8416674,2.16899 -0.4227672,-3.10642 2.7939401,-15.66077 9.7787904,-7.6098 1.378587,-4.63206 -0.992582,-2.68365 2.554984,-3.60271 -0.294099,-5.69818 2.371172,-2.35277 0.257336,-4.1174 3.363756,-5.95551 4.19091,-1.36022 1.672688,-8.14284 3.326992,1.15801 z"
     class="land"
     title="Transcarpathia"
     id="UA-21"
     inkscape:connector-curvature="0"
     style="fill:#9373a4;fill-opacity:1;stroke:#ffffff;stroke-width:0.91905981;stroke-opacity:1" />
  <path
     d="m 354.85425,421.50051 7.62822,-3.08804 7.16863,0.80877 9.55824,-1.54402 1.3418,-2.57337 8.16127,3.17996 2.77555,-4.09901 3.82329,1.41535 2.68364,-1.04773 2.66529,4.22767 3.23508,-3.71299 6.89296,1.50726 1.26828,-4.41147 5.64302,-1.67271 1.7646,-2.68364 4.94453,4.59528 0.97422,3.58433 -1.6543,2.04031 3.82328,4.37472 -3.47405,5.5695 3.97033,4.3012 -1.23153,3.56594 8.05095,1.24993 7.60981,-1.81973 1.98517,1.23155 0.27573,-3.67625 3.87842,1.32344 0.90069,-1.39697 1.54402,0.7904 1.6543,-3.56596 6.06579,0.84553 v 0 l 1.76459,1.24993 -1.98517,4.02548 2.57336,7.03999 2.70204,1.37859 -2.16897,3.14319 2.68364,2.15059 -5.80844,7.31572 2.40793,5.03643 5.01806,1.59916 -0.45952,4.0071 4.70558,2.42632 1.48887,-2.20573 1.39697,3.08803 v 0 l -1.89325,0.49629 1.87487,9.68687 -3.23508,0.95584 0.36762,2.37117 -2.24252,-0.73524 -1.43373,3.98872 -0.7904,-1.26831 -0.55143,1.15802 2.1506,3.97033 2.62852,-1.10288 0.6801,2.11383 -2.70203,5.9739 4.96291,2.83072 -1.13962,1.23153 2.81231,4.54014 0.60659,5.77169 6.15769,2.00355 1.12126,2.81233 -1.4705,3.06966 8.198,6.21284 -2.86746,3.71299 3.56594,2.02193 0.95584,5.07321 -1.72785,-0.0552 0.64334,2.16898 -2.20573,0.55142 0.0367,1.6727 v 0 l -11.13898,9.53983 1.50726,1.98516 -3.84167,5.51436 1.91165,7.48114 v 0 l -7.73849,1.41536 0.4963,7.97743 -3.89683,-2.20575 -2.00354,3.16157 -4.26443,-0.386 -2.05869,-1.96681 -4.63206,0.82717 -1.36022,2.22411 -5.643,0.12869 -1.43375,-2.11385 -2.48144,0.7904 -0.97422,-1.43374 3.54758,-1.0661 -0.56983,-1.61755 -6.80104,0.69849 0.90068,-0.84554 -5.40407,-4.11738 -1.8565,6.56208 -0.93743,0.60658 -0.77201,-3.01451 -4.09902,-0.66173 -1.12125,5.73492 -3.73137,2.29767 -1.2683,-1.08452 v 0 l -0.42276,-4.0806 -9.35603,-0.0918 -0.5882,-1.85649 -7.11351,-2.72043 -3.87844,2.26089 -0.25733,7.9223 -2.18736,-0.69849 -2.68366,-4.54015 0.42276,-4.59533 -2.88584,-0.20218 -1.89327,3.5292 -2.77554,-0.29411 3.78651,-5.82684 -0.93744,-4.15413 -9.09868,3.93357 -2.64689,-5.20188 -4.55852,2.49983 -0.77203,-7.57304 -7.95903,-1.45211 -3.51083,-2.88584 -1.47049,-4.09902 -5.38568,-3.93356 -8.93325,0.386 -3.14319,-1.80136 0.33086,-2.8123 -3.91519,2.05868 v 0 l -3.36375,-3.51081 -1.65431,-8.60239 -4.94454,-2.86747 v 0 l 2.6285,-6.28636 -1.61754,-6.52532 2.40794,-2.77556 -2.20575,-10.40375 1.5624,-6.12094 -2.22411,-3.58432 3.58432,-5.73493 3.80491,-0.16543 -0.386,-4.88939 2.68365,0.0367 -0.16542,-1.74622 2.75717,1.81975 1.04772,-3.34538 2.8307,-1.02935 6.1577,2.57337 2.40793,-5.23864 0.90068,1.78296 1.39698,-1.12123 2.44469,1.61753 2.70204,-1.45211 -2.59175,-4.72396 0.18381,-8.58401 -2.79393,-2.77557 2.18734,-6.9297 -6.21283,-0.9742 v 0 l 0.36763,-2.22413 v 0 l 1.72783,-2.27928 -2.88585,-0.80876 0.0185,-3.19833 3.32701,-0.12866 0.1838,-2.38955 -2.26089,-2.13222 3.34538,-4.54016 -2.99614,-6.94808 2.92261,-0.40438 z"
     class="land"
     title="Vinnytsya"
     id="UA-05"
     inkscape:connector-curvature="0"
     style="fill:#9373a4;fill-opacity:1;stroke:#ffffff;stroke-width:0.91905981;stroke-opacity:1" />
  <path
     d="m 192.67711,203.95919 2.15058,-0.77199 9.3744,4.81586 6.23122,-0.20219 1.10287,-1.80135 3.8049,1.47049 v 0 l 2.49984,2.38955 4.61369,0.66173 -4.1174,4.94453 -0.42275,4.39311 3.19832,4.77911 -1.02935,3.62109 -3.86005,7.70173 -1.78298,1.65429 -2.79392,-0.64334 4.41148,4.72398 -2.22413,4.39309 1.70946,1.67269 -2.51823,2.09545 3.19832,-0.34925 2.24252,2.38957 -0.0185,5.58788 3.60271,4.87101 1.67268,-0.33087 0.11022,-2.04032 2.02193,-0.0185 1.19477,2.59175 3.23509,-1.26831 -0.22057,5.14674 6.85618,6.10255 0.45952,3.97035 3.40053,0.77198 3.86005,4.26445 -0.62496,3.89681 -7.38924,2.33442 0.34923,3.29022 4.90779,0.34923 4.3747,2.92262 1.06613,4.72396 -1.54404,3.36378 -7.24218,1.32342 2.4447,1.96679 -0.69848,6.81944 2.90423,2.55496 -1.08449,2.15062 -6.96646,-1.10288 -4.61368,20.38472 -3.74978,-5.22025 -4.06223,0.47792 -1.12125,-5.23865 -5.90035,1.01096 0.22057,1.87489 -8.34506,3.45567 -5.12834,-2.555 0.58818,2.04031 -2.37118,2.29765 2.92263,3.01452 -7.20544,-1.80137 0.62496,5.27544 1.32345,-0.58823 0.4963,1.70946 -1.72783,2.79395 -10.71625,-1.39698 2.18737,4.46662 -0.5882,3.49244 -3.98871,-0.62496 3.93358,2.26089 -0.77202,2.46305 1.26831,-0.34924 0.84554,3.36377 2.40792,1.54401 -0.772,1.69107 -1.85652,-1.61754 -1.50725,0.95582 1.43374,3.8049 -3.51081,1.89327 0.14705,2.29764 v 0 l -3.41891,-1.39695 -0.36763,-3.84169 -6.83779,-4.54013 -0.34924,4.20928 -4.26445,-1.41535 -9.70524,1.43373 0.51467,-3.14318 -4.2093,-3.19832 -3.60271,-0.31249 0.11022,-8.25315 -2.72041,0.31249 -1.59917,-5.73494 -4.92616,1.0845 -2.57336,-1.80137 -1.61755,-4.61366 -3.23508,0.99257 -0.86391,2.22413 -4.35635,-0.79038 -6.52532,-7.97743 -3.2167,0.20219 v 0 l -1.50726,-1.65431 0.51467,-4.04388 -3.36375,-0.36762 0.34922,-4.11738 -3.43727,-0.91905 -0.386,-3.8233 2.59174,-2.68365 6.37828,0.16545 2.48146,-2.84909 -5.7717,-2.27928 -5.16512,-5.84522 -0.86391,-3.82329 -2.70203,-2.05868 1.34183,-0.36762 -1.5624,-5.84522 -3.23509,-2.55499 0.77201,-5.05481 -8.12448,-6.23124 -2.665273,-7.73847 h -3.17984 l -0.551436,-4.08061 2.94099,-3.52918 1.10287,-5.01808 -3.290233,-2.70202 1.249922,-3.63948 -3.10642,-1.41536 -0.128669,-1.48888 3.657855,0.60658 -2.463078,-4.59529 1.654308,-3.01452 -3.510808,-4.2093 4.393104,-2.95936 6.415038,-1.32344 0.71686,2.75717 7.44438,0.75364 -1.89327,4.06223 7.16867,1.04772 7.75685,-8.52886 12.18672,-8.32667 -1.41534,-5.25703 2.66527,-5.80847 3.03289,-2.24248 15.12773,-2.02192 7.99581,1.93001 4.15414,-2.95937 1.19477,1.59917 4.65045,-1.41535 2.88584,1.43372 8.14288,-5.47759 z"
     class="land"
     title="Volyn"
     id="UA-07"
     inkscape:connector-curvature="0"
     style="fill:#9373a4;fill-opacity:1;stroke:#ffffff;stroke-width:0.91905981;stroke-opacity:1" />
  <path
     d="m 381.26802,237.87249 1.5624,-0.22056 3.87844,4.88937 0.64335,3.51083 7.15026,-5.40408 5.34893,2.27927 6.32313,0.1838 -1.69107,0.80878 1.3786,-0.0185 1.83811,11.26766 3.34538,-1.87488 0.95581,5.07322 1.80136,-3.63947 -1.24992,-3.47406 3.86005,-7.27893 5.22024,-2.81234 5.62467,1.43373 6.74589,-7.68334 3.67624,-0.16543 2.77554,7.97745 2.61014,0.62497 -0.36764,7.03998 1.28669,3.4005 2.26089,0.71688 1.04773,7.53627 2.40794,-0.62494 v 0 l 2.20573,0.58819 0.27571,5.47759 -2.68364,4.98131 -5.44083,0.8823 1.69108,8.38182 1.45211,5.20186 1.89325,-3.10643 9.92584,9.7053 -2.84907,4.39308 0.79039,3.73138 -3.89683,-0.73524 -0.0918,3.56595 6.30475,6.9297 -0.84554,4.19091 3.05128,2.27926 -3.38213,-0.0552 1.01096,3.8233 3.86005,0.31248 1.61755,4.11736 -9.46631,10.73464 3.65785,4.46661 -2.72041,5.77168 2.79393,1.39698 0.25734,2.77557 -1.6543,1.23153 -1.72784,-1.08448 -0.42277,1.72782 3.14319,1.34183 -3.52919,2.22413 0.9742,1.52564 1.87489,-1.26831 v 0 l 4.2828,-0.80876 2.00355,2.46306 v 0 l 0.0737,2.11384 2.90423,0.56982 -0.73524,3.93358 4.20928,0.47791 -0.31247,4.33796 -1.43375,0.55142 2.26091,4.28283 -3.47407,4.66881 2.95938,2.81233 -2.7204,4.65044 2.92259,3.41889 -1.21315,3.58434 3.65784,8.4002 -3.93355,3.08805 1.4705,0.80875 -2.72043,3.84166 -6.92971,4.31959 -2.04033,-1.48888 -1.56238,3.08804 -2.84909,-0.2022 1.52565,4.13577 -1.45213,3.29024 0.55145,1.48888 2.9226,0.0367 0.64335,6.02901 v 0 l -6.06578,-0.84553 -1.65431,3.56596 -1.54402,-0.7904 -0.90068,1.39697 -3.87843,-1.32345 -0.27572,3.67625 -1.98517,-1.23154 -7.60982,1.81973 -8.05095,-1.24994 1.23153,-3.56594 -3.97032,-4.30119 3.47404,-5.56951 -3.82328,-4.37471 1.6543,-2.04032 -0.97421,-3.58433 -4.94453,-4.59527 -1.7646,2.68364 -5.64303,1.6727 -1.26828,4.41148 -6.89295,-1.50726 -3.23508,3.71299 -2.66529,-4.22767 -2.68365,1.04773 -3.82329,-1.41535 -2.77555,4.09901 -8.16126,-3.17996 -1.3418,2.57337 -9.55825,1.54402 -7.16864,-0.80877 -7.6282,3.08804 v 0 l -2.77556,1.93002 -5.38567,-4.06225 1.58078,-3.08803 -4.33795,0.4779 -2.2609,-4.06224 0.23897,-5.10996 -4.90779,-1.13962 1.67268,-4.35635 -1.59915,-6.04742 3.89681,0.60659 1.91164,-3.12481 2.4447,0.0367 -0.79039,-3.9152 -3.23509,-0.91906 1.6543,-2.7388 -0.60658,-2.88584 3.01451,-1.34183 -1.0661,-3.36374 -2.48146,2.13221 -1.65431,-8.36344 -4.87101,3.0145 -7.99581,-6.12093 1.78296,-0.86391 -2.18735,-2.24252 -4.19092,-0.90066 0.14705,-3.6211 -4.26443,-2.57337 3.05129,-9.5582 -1.98517,0.14705 -4.52178,-6.92971 v 0 l 2.20576,-0.45954 -0.0918,-3.67623 -2.4447,-1.81974 0.75362,-3.713 2.61012,-1.28667 1.94842,-4.57694 -2.55498,-7.55465 1.32344,-9.6685 -2.38954,-2.11383 1.2499,-2.66528 -2.4447,-5.42246 1.6727,-0.79039 -0.16544,-2.18735 6.56208,-1.23154 -0.31246,-3.54757 2.64687,-1.80135 0.55146,-5.80847 6.17606,-8.08771 -2.09545,-7.22382 3.34537,-0.69847 1.63593,-2.46308 -0.0367,-2.59174 -1.67268,-0.7904 0.82715,-7.49952 1.74622,-0.0552 -0.27572,1.96678 3.34537,3.08804 1.93002,-0.0185 -2.05869,-2.73881 -0.0918,-4.85263 5.62466,-2.00355 -0.386,-1.85649 v 0 l 6.01063,4.08065 2.46308,-5.60628 3.06966,-1.06611 -1.78297,-7.426 1.96678,-1.37859 3.8049,1.39697 0.44115,3.86005 3.52919,-1.61756 -2.24251,3.54757 9.90747,-1.93001 4.5769,-6.87457 5.27542,-3.58432 z"
     class="land"
     title="Zhytomyr"
     id="UA-18"
     inkscape:connector-curvature="0"
     style="fill:#9373a4;fill-opacity:1;stroke:#ffffff;stroke-width:0.91905981;stroke-opacity:1" />
  <g
     inkscape:groupmode="layer"
     id="layer1"
     inkscape:label="Layer 1"
     style="display:inline" />
</svg>
