<?xml version="1.0" encoding="UTF-8" standalone="no"?>
<?xml-stylesheet type="text/css" href="/styles/home.css"?><!-- https://www.amcharts.com/svg-maps -->

<svg
   version="1.1"
   id="map-ukraine"
   viewBox="0 0 1000 1000"
   width="1000"
   height="1000"
   class=""
   sodipodi:docname="ukraine.svg"
   inkscape:version="1.3.1 (91b66b0783, 2023-11-16)"
   xmlns:inkscape="http://www.inkscape.org/namespaces/inkscape"
   xmlns:sodipodi="http://sodipodi.sourceforge.net/DTD/sodipodi-0.dtd"
   xmlns="http://www.w3.org/2000/svg"
   xmlns:svg="http://www.w3.org/2000/svg"
   xmlns:rdf="http://www.w3.org/1999/02/22-rdf-syntax-ns#"
   xmlns:cc="http://creativecommons.org/ns#"
   xmlns:dc="http://purl.org/dc/elements/1.1/">
  <metadata
     id="metadata36">
    <rdf:RDF>
      <cc:Work
         rdf:about="">
        <dc:format>image/svg+xml</dc:format>
        <dc:type
           rdf:resource="http://purl.org/dc/dcmitype/StillImage" />
        <dc:title />
      </cc:Work>
    </rdf:RDF>
  </metadata>
  <sodipodi:namedview
     pagecolor="#ffffff"
     bordercolor="#666666"
     borderopacity="1"
     objecttolerance="10"
     gridtolerance="10"
     guidetolerance="10"
     inkscape:pageopacity="0"
     inkscape:pageshadow="2"
     inkscape:window-width="1920"
     inkscape:window-height="1106"
     id="namedview34"
     showgrid="false"
     showguides="true"
     inkscape:guide-bbox="true"
     inkscape:zoom="0.77063958"
     inkscape:cx="672.16895"
     inkscape:cy="448.32891"
     inkscape:window-x="-11"
     inkscape:window-y="-11"
     inkscape:window-maximized="1"
     inkscape:current-layer="map-ukraine"
     inkscape:showpageshadow="2"
     inkscape:pagecheckerboard="0"
     inkscape:deskcolor="#d1d1d1">
    <sodipodi:guide
       position="1117.5861,500"
       orientation="0,1"
       id="guide843"
       inkscape:locked="false"
       inkscape:label=""
       inkscape:color="rgb(0,0,255)" />
    <sodipodi:guide
       position="608.5043,831.75501"
       orientation="0,-1"
       id="guide1"
       inkscape:locked="false" />
  </sodipodi:namedview>
  <defs
     id="defs4">
    <style
       type="text/css"
       id="style2">
         .land {
            fill: #9373a4;
            fill-opacity: 1;
            stroke: white;
            stroke-opacity: 1;
            stroke-width: 0.5;
         }

         .rectangle:hover {
            fill: #bdbdbd;
            cursor: pointer;
         }
      </style>
    <!-- <amcharts:ammap projection="mercator" leftLongitude="22.138115" topLatitude="52.374337" rightLongitude="40.216930" bottomLatitude="44.387017"></amcharts:ammap> -->
    <!-- All areas are listed in the line below. You can use this list in your script. -->
    <!--{id:"UA-40"},{id:"UA-43"},{id:"UA-71"},{id:"UA-74"},{id:"UA-77"},{id:"UA-12"},{id:"UA-14"},{id:"UA-26"},{id:"UA-63"},{id:"UA-65"},{id:"UA-68"},{id:"UA-30"},{id:"UA-32"},{id:"UA-35"},{id:"UA-09"},{id:"UA-46"},{id:"UA-48"},{id:"UA-51"},{id:"UA-53"},{id:"UA-56"},{id:"UA-59"},{id:"UA-61"},{id:"UA-21"},{id:"UA-05"},{id:"UA-07"},{id:"UA-23"},{id:"UA-18"}-->
  </defs>
  <path
     d="m 631.29947,799.63544 7.24875,1.58362 0.53875,2.43257 -3.37948,1.11018 1.5673,2.54685 3.9509,-1.55097 2.7591,1.64892 -1.8122,6.41613 5.12637,3.1999 4.81618,10.59559 -2.59584,3.31418 v 0 l -7.88546,1.33874 -1.73057,-2.67748 -3.08561,-0.34284 -1.87749,-4.73455 -7.08549,-0.71834 -6.02431,-6.51408 3.05297,-1.58363 8.65279,-0.75099 -4.37537,-1.43669 1.99177,-3.23255 z"
     class="land"
     title="Sevastpol' City"
     id="UA-40"
     inkscape:connector-curvature="0"
     style="fill:#9373a4;fill-opacity:1;stroke:#ffffff;stroke-width:0.81630087;stroke-opacity:1" />
  <path
     d="m 802.23286,754.52664 -1.97545,3.10195 -7.18344,-0.53875 -0.35918,1.74687 2.00811,1.32241 -4.42435,2.69379 1.14282,1.53465 -1.97546,4.17946 2.92237,9.19155 -4.58761,3.06929 -6.28552,0.50611 -2.05708,1.92647 -10.88945,-1.79587 -10.70986,3.5101 -3.62439,-5.42024 -4.63658,-3.05296 -5.84472,-1.81219 -4.71822,0.99589 -6.23654,5.14269 0.11428,1.99177 1.99179,0.99589 -3.68969,1.89381 1.43669,3.11828 -6.8406,-1.27344 -1.2571,3.67337 -4.27743,1.66525 -1.64892,5.66512 -2.62849,2.39992 -2.80808,-2.85704 -3.55907,-0.83264 -3.93456,1.86117 -9.12625,0.34285 -6.66102,2.93868 -8.40789,4.91413 -5.99165,9.87724 -0.0979,2.67748 -2.28563,-0.3755 -3.10195,3.67335 -4.55496,0.94691 -2.22034,5.04474 -8.68544,2.69378 -5.04474,-0.93057 v 0 l 2.59584,-3.31418 -4.81618,-10.59559 -5.12637,-3.1999 1.8122,-6.41613 -2.7591,-1.64892 -3.9509,1.55097 -1.56729,-2.54685 3.37947,-1.11018 -0.53875,-2.43257 -7.24875,-1.58362 v 0 l 0.24489,-2.30198 2.90603,-2.22033 -0.11429,-10.02419 -2.26932,-6.87324 -6.23653,-7.10182 -3.49377,-1.66525 -7.06915,3.85294 -19.47694,-16.73418 -8.26097,-0.29386 -5.87737,3.99988 -8.66912,-2.54686 1.09384,-2.18769 -1.89382,-1.69791 5.97534,-6.67733 11.16698,-6.38348 1.97546,0.6857 1.04486,-1.77955 -1.22445,-1.01221 4.88148,-4.04886 12.57103,-6.10592 2.28565,-4.27742 3.2652,1.73057 6.12225,-2.64482 4.06519,-3.9509 1.30606,0.83262 2.02443,-2.39991 3.26521,1.50199 3.90192,-4.34271 3.82029,3.82027 -0.16326,-5.14269 4.44068,-1.68158 -0.79998,-1.77953 -7.10182,0.34284 -0.14693,-8.44055 1.55097,-2.39993 -1.50199,-4.11415 v 0 l 1.14281,-0.40816 -1.19179,-6.92222 1.61627,-0.27754 v 0 l 8.26097,8.70176 2.05708,-2.33462 -1.30609,-2.12238 2.05708,0.17959 1.15914,2.71011 -2.38359,2.84073 6.93855,3.85294 2.93869,-0.50611 -3.68968,-1.55097 0.66936,-0.96324 4.22844,-0.62038 3.33052,2.18768 0.58773,2.31831 5.208,3.51008 -2.46523,2.56318 -2.22034,-0.99588 2.71013,3.41214 3.82027,-1.24078 -1.8285,-5.48554 -1.22446,0.71834 -3.3305,-2.77542 0.40815,-1.58363 5.74676,1.76321 1.40403,4.17946 1.61629,-4.48964 0.62037,3.75498 2.22035,1.20812 0.76733,-2.18769 -1.20813,-0.91425 2.2693,-0.8163 2.93869,5.32229 4.42436,3.59172 -0.13061,4.09783 2.75909,-3.91824 2.67747,0.5061 -1.53465,-5.68146 4.62027,2.98767 -0.60406,5.01208 -4.09784,1.9428 -2.35094,4.50597 -2.75911,0.16327 0.70204,1.58362 4.03251,-0.84895 6.13859,-5.86103 5.27331,-2.23668 0.26121,2.54686 -1.33873,-1.09385 -3.33051,1.79587 -0.88161,4.42436 5.22433,-1.82851 1.68157,2.36726 -6.12226,5.69778 1.24079,1.15915 10.10581,-3.55908 -3.11827,2.53054 0.76732,1.95912 2.23666,-1.46934 1.11018,3.34683 3.88558,-1.30609 -0.29387,1.66527 3.55908,1.99177 3.33049,6.41613 1.30609,5.76308 -4.5223,3.68968 3.29786,6.26918 14.54647,5.92635 -1.04486,2.30197 1.2571,1.84485 1.0612,-1.95912 4.66923,-0.39184 0.19592,-2.82439 -2.56319,-0.3102 -6.1549,-6.93855 -16.55459,-22.97071 -3.54274,-8.22831 v 0 l 0.91426,-0.47346 v 0 l 6.12225,11.91799 13.04449,18.05657 5.55084,6.04064 6.28553,3.86926 11.08535,-3.93457 2.15503,-3.00399 -0.55508,-1.59995 5.56718,-6.36715 1.28975,0.57142 -1.50199,1.42036 1.22446,2.20401 5.89369,3.93457 4.50597,-1.55098 1.61629,-4.62025 11.06903,-2.54687 6.98754,2.71013 3.59172,-0.71835 4.26108,2.57951 2.30198,-1.17547 z"
     class="land"
     title="Crimea"
     id="UA-43"
     inkscape:connector-curvature="0"
     style="fill:#9373a4;fill-opacity:1;stroke:#ffffff;stroke-width:0.81630087;stroke-opacity:1" />
  <path
     d="m 552.13461,357.00446 3.2652,5.35493 6.79162,1.97545 0.31019,2.08973 -2.87337,0.6857 0.26122,2.49787 3.03663,3.78764 1.14283,-1.64893 0.97956,0.78364 1.73055,5.79575 2.57952,1.68158 -0.63671,4.83249 1.12648,1.30609 -3.36316,1.17547 4.1958,6.66102 2.92235,-0.76734 0.71834,2.66116 2.1877,0.31018 1.01221,5.84473 7.41201,3.65702 -0.62039,4.70189 3.23254,2.33462 -0.34283,4.3917 -4.04886,2.23667 -1.3224,5.208 4.79984,7.18344 -11.03639,-2.33462 -1.76321,-2.20401 -2.31829,6.69367 7.9671,6.36715 5.84471,-0.34285 2.5142,2.17135 5.15902,-1.27342 v 0 l -5.42022,7.15079 7.37934,3.64071 -0.0164,1.84484 -4.24477,1.84483 0.8163,5.28963 2.35094,1.01222 -1.48566,1.51832 -6.10593,1.30608 -3.19991,-1.58362 0.14695,2.22034 -5.32228,0.62039 -2.35096,-1.35507 0.45714,2.23666 -1.45301,0.0653 -2.64482,-7.98341 -1.68159,-1.48567 -1.14282,1.91015 -2.28564,-0.32652 -1.73056,-3.96723 -3.6407,-0.35917 -2.87337,2.18769 -0.83263,6.04061 -1.74689,-0.96323 -0.45713,2.04077 -2.3836,0.70201 0.57141,4.42435 -2.54685,0.78365 -3.9509,-2.43257 -6.12226,4.13048 0.0327,-2.04075 -6.15491,-3.54275 -3.15092,1.89381 -2.59584,-0.35916 -0.83262,2.87337 -3.60805,-0.6857 -2.30198,1.55098 0.19592,-2.17136 -1.22445,6.88959 -9.94255,8.47319 -2.85705,0.13061 -1.09384,-2.53053 -2.57952,0.75099 -2.48156,-1.71423 -5.63247,3.44479 -9.10991,-3.59172 -3.78764,2.04075 -3.91824,-1.91015 -0.45713,1.07752 -6.0243,-0.89793 -3.1999,1.37139 -1.55096,2.64481 -1.84485,-0.0979 1.89382,2.00811 -0.70203,2.7591 -3.65702,2.955 2.22034,1.8775 -0.31019,3.13459 -8.89769,-0.57141 -0.8816,3.77131 -7.31406,2.0081 -1.37138,1.87749 -3.73867,-1.86116 -2.80807,4.40802 -3.57539,-2.4489 -4.45701,0.751 v 0 l -0.0326,-1.48568 1.95912,-0.48977 -0.57141,-1.92647 1.53465,0.049 -0.84896,-4.50599 -3.16724,-1.79586 2.54685,-3.29785 -7.2814,-5.51819 1.30609,-2.72645 -0.99589,-2.49788 -5.46922,-1.77954 -0.53876,-5.12637 -2.49787,-4.03252 1.01221,-1.09384 -4.40803,-2.51421 2.39993,-5.30596 -0.60407,-1.8775 -2.33462,0.97957 -1.91015,-3.52642 0.48979,-1.02854 0.70202,1.1265 1.27343,-3.54275 1.99178,0.65304 -0.32652,-2.10605 2.87337,-0.84897 -1.66525,-8.6038 1.68158,-0.44081 v 0 l 1.15915,0.26122 -1.59996,1.61628 2.10607,2.33462 6.57938,-0.53876 -0.48978,-1.24078 4.45699,-4.63659 -0.45712,-4.91413 4.48966,-1.66525 2.5142,0.71835 1.79586,4.47333 2.17137,-5.33861 3.0203,0.50611 -0.65303,4.44066 9.56704,1.66527 0.63671,1.61627 2.3183,-7.78751 3.18357,-3.10195 2.51421,3.15093 4.89781,-3.5101 6.82428,3.1999 9.82825,-2.31829 1.28975,-1.87748 -0.58773,-2.97135 4.13049,-0.60406 1.84484,-3.96722 0.86527,1.20812 -0.24489,-1.40404 2.92237,-2.10605 1.06118,-4.93046 2.26931,-0.11428 -0.9469,-4.08151 4.65292,-7.49364 -1.15914,-0.65304 0.8816,-6.4651 -1.38771,-1.1265 1.09384,-5.32228 9.22419,-4.17946 -2.17136,-3.15092 0.65305,-1.14281 -3.28153,-0.57143 0.84895,-2.80807 7.50996,0.81631 -0.8816,6.8406 4.27742,4.86514 4.81617,-5.48554 1.24079,0.0816 0.26121,4.39169 5.46921,0.48978 5.59983,-9.92622 3.98355,0.27754 0.71834,1.84483 -0.0816,-6.64468 4.48965,-1.99176 -4.13049,-1.27344 0.19592,-3.86926 3.42847,-1.91015 -2.00811,-2.84073 1.58363,0.45714 1.59994,-4.2611 3.46112,1.14282 z"
     class="land"
     title="Cherkasy"
     id="UA-71"
     inkscape:connector-curvature="0"
     style="fill:#9373a4;fill-opacity:1;stroke:#ffffff;stroke-width:0.81630087;stroke-opacity:1" />
  <path
     d="m 611.95314,167.88388 5.89368,2.0734 4.83251,-1.79587 1.91014,2.28566 v 0 l -2.07341,2.53052 -1.17546,6.69367 -2.88971,2.56318 0.32652,6.95489 5.06107,1.15914 1.37138,3.34683 3.37948,-0.11428 -0.0326,4.42435 -4.03252,1.06119 -2.08974,-2.12237 -3.98353,1.6979 -0.66938,1.45302 3.8856,3.41213 -1.27343,4.27742 -2.13871,-0.63672 -7.54262,2.88971 -0.049,1.74688 -2.98766,1.89382 1.33873,4.14681 -3.64071,3.73866 3.0693,4.55496 -0.39184,6.92223 3.4448,5.48554 1.73055,0.3102 -3.62437,1.53464 1.99178,5.01209 -3.41214,2.04075 0.0164,9.09359 -2.38361,-0.99589 1.30609,1.99178 -1.35506,0.21223 -2.67747,-2.0081 0.53877,-1.59994 -1.56731,1.14282 0.97956,4.37537 1.53464,-0.0326 0.78365,1.99176 -2.10604,2.62849 1.81217,0.40816 -0.27753,3.15091 -2.02443,2.26932 0.45712,1.99177 -3.55907,1.46935 -0.78365,2.33461 1.64893,1.59996 -2.61216,4.48965 6.98754,2.08974 0.71834,2.77541 -2.28564,3.90192 1.95912,0.83263 2.18769,-2.10605 1.20813,4.32639 3.39581,-0.32653 0.35917,5.86104 -2.02442,0.63672 0.73467,3.39582 -1.69791,4.94678 1.94279,3.80396 2.7591,1.24077 -5.55085,1.89382 0.58775,4.75088 -1.7469,0.91425 0.29387,4.457 -4.0162,4.66925 1.01222,1.77953 v 0 l -2.43258,1.59995 -0.58774,2.53053 -2.22034,-0.0816 -3.13459,5.68145 -6.98754,3.2652 0.0327,1.99177 -6.57938,-0.88161 0.0816,-1.12649 -8.19567,2.23667 -2.17136,-2.13871 0.34285,-2.54686 -5.38758,-0.66936 -1.51832,-1.77954 -2.39993,0.22856 -1.81218,3.86927 -2.04076,0.57142 -0.0326,2.26931 -5.99165,0.049 v 0 l 0.62039,-2.53053 -3.91824,0.16326 0.78364,-3.49377 -2.74276,1.27344 -1.40404,-4.97944 -3.1346,-1.09384 0.99589,-2.25299 3.23255,0.16326 1.01221,-4.06519 v 0 l -6.0896,-0.27753 v 0 l -1.6979,-4.35905 -3.5101,-3.11827 -4.06518,2.28564 -0.21223,3.90192 -7.36304,0.48978 -0.88161,2.71012 -6.00797,-0.62039 -4.60394,2.48155 -3.85293,-2.8897 -2.28565,2.8897 -4.60393,-5.87736 -4.27742,-1.76321 0.0326,-1.73057 3.23256,-0.34284 -1.502,-2.62849 0.99589,-4.45699 -5.22434,-4.97945 0.11429,-2.0734 -9.64868,1.53465 -3.34683,-1.40404 -2.15503,2.53052 -1.14282,-1.0122 0.17959,-0.39183 -5.27331,-1.01221 -0.29387,-3.82029 1.59994,0.3755 0.97957,-1.84484 -0.66937,-3.80397 -4.457,-2.38359 -2.35095,-8.42422 -2.36727,-2.30197 -5.48554,0.34285 0.40815,-4.50598 -1.30609,-1.82853 1.77954,-1.40403 -1.50199,-5.02841 2.71012,-1.07751 -1.9428,-4.11416 2.92237,-0.751 -1.02855,-2.41625 v 0 l 4.13049,-2.0734 0.48978,-1.76321 -1.61629,-0.71836 3.15093,-2.23665 0.22857,-3.54275 -1.99178,-4.14682 -1.81219,-0.16325 -0.2449,-1.95912 2.26932,-1.40403 -2.93868,-3.93459 0.73468,-3.18356 -1.91016,0.47346 -1.02853,-1.92648 1.40404,-1.43669 -2.46523,-1.56729 2.57951,-0.79998 -2.64481,-1.82851 1.46934,-2.64482 -0.99588,-1.12649 2.97133,0.66937 -0.35918,-3.91825 3.31418,-0.70202 1.38771,-4.09783 -1.95912,-0.70201 2.35096,-0.53876 -0.26123,-4.50599 2.39993,-1.0612 2.85705,-5.87735 3.00399,0.37549 1.24078,-2.0734 -0.8163,-2.4489 4.37537,-1.86117 0.70202,-3.15091 1.66524,0.89792 -0.96323,-2.43258 1.99179,-6.05694 2.02443,1.04486 8.55482,-2.18769 6.23654,5.35493 2.36727,-0.91425 1.502,-4.71822 3.37948,-1.42036 -0.42448,-1.09385 4.06518,-0.71834 0.97956,1.95912 11.26495,0.40815 2.74278,1.71423 3.28153,-1.55098 1.94279,1.32242 2.79175,-1.0612 5.02841,2.92236 -2.36726,2.92237 3.08561,-0.76733 6.80794,1.6979 2.95502,-3.23255 5.84471,-1.61627 6.28552,-5.22433 -2.23667,-0.50611 1.15916,-3.42846 -1.27344,-2.77542 1.17547,-1.97545 2.84073,-0.42447 -2.33462,-5.87737 0.70201,-2.02443 6.62837,2.0081 3.41214,-1.04487 8.37525,6.82428 3.02031,-1.61627 3.31418,0.62038 1.17547,-1.68158 2.51421,0.42449 1.30609,2.53053 4.84881,-2.41626 3.60805,-4.93046 0.45714,2.17137 3.60805,-3.75499 1.89382,0.42448 0.11427,-2.87338 z"
     class="land"
     title="Chernihiv"
     id="UA-74"
     inkscape:connector-curvature="0"
     style="fill:#9373a4;fill-opacity:1;stroke:#ffffff;stroke-width:0.81630087;stroke-opacity:1" />
  <path
     d="m 193.61528,488.86969 4.6529,0.91426 1.28977,2.4489 2.72644,-3.52641 3.86926,4.40802 -0.24489,2.0734 3.19991,0.86529 3.67335,-2.87339 2.53054,0.96324 1.64892,-3.08561 0.84895,3.41214 -1.20812,1.86115 2.77541,3.86927 1.77954,-1.24078 -1.73055,-3.88559 1.17546,-1.73056 2.82441,7.64058 5.53453,-0.96324 1.84484,2.57951 2.84072,0.0979 2.13871,-2.28563 2.84072,-0.22858 v 0 l 2.36727,-0.5714 3.68968,7.15079 2.62849,0.53876 1.46934,-0.84896 -0.83262,-3.73865 2.57952,1.81219 3.13458,-0.71836 -2.23666,-3.86926 -2.69379,0.40816 -0.29386,-1.55098 2.10604,-0.60405 3.83663,2.44889 0.0653,-4.66924 2.79174,3.47744 -0.049,-4.11415 1.40403,-1.20813 4.13049,5.76308 6.12224,-3.93456 0.52245,1.46934 4.71821,1.12649 4.35905,-2.10605 4.50598,1.45302 1.04487,-1.48568 -1.04487,-3.29785 4.11415,1.92647 2.88971,-2.56319 v 0 l 4.3917,2.54686 1.46934,7.64058 2.98766,3.11827 v 0 l -3.39581,1.46934 -1.48566,3.41214 -3.16725,0.0164 -1.14283,-2.62849 -2.59583,-0.0164 -2.00811,5.91002 -4.97943,-1.82851 -3.03664,1.6326 -3.08562,-5.02842 -3.68967,0.97957 1.81218,3.47744 -2.54686,0.0816 -0.50611,1.79586 -3.68967,-0.48978 -2.72645,-4.57129 -5.38758,0.0816 -1.37139,1.6326 -1.53465,-0.91425 2.08974,4.60394 3.15092,0.84895 -0.40815,4.14681 -4.03254,-1.58363 -3.10194,-3.47743 0.70204,2.25298 -4.29375,4.44068 0.0164,2.85705 -1.87749,-0.53876 -0.81631,2.20402 -5.64879,-0.0164 -1.76321,2.12237 -5.76308,0.84897 -3.21623,8.35891 -3.37949,2.53054 -1.59995,4.71822 -17.94228,2.05707 -4.73455,2.51421 -7.03652,-0.88161 -18.4484,2.88971 -4.52231,1.82851 -6.35081,11.26496 -3.41215,0.65304 -0.84895,1.76321 -6.51408,-0.13061 v 0 l 4.1468,-10.53029 -4.34272,-7.44465 -0.29386,-6.71001 4.48965,-4.91412 -0.47346,-2.3836 2.74278,0.35918 3.16726,-4.27743 -0.40816,-1.51831 2.87338,-0.0816 -1.64893,-3.47745 4.19579,-2.20401 8.37524,-10.38334 7.42835,-2.15504 8.01608,1.71424 -1.66527,-20.61976 z"
     class="land"
     title="Chernivtsi"
     id="UA-77"
     inkscape:connector-curvature="0"
     style="fill:#9373a4;fill-opacity:1;stroke:#ffffff;stroke-width:0.81630087;stroke-opacity:1" />
  <path
     d="m 650.31928,469.65397 6.95487,3.11828 2.74278,3.21622 2.85705,0.34285 0.60406,3.41213 8.57117,3.24888 0.45713,1.68158 2.44889,-5.208 -2.26931,-0.049 -0.19591,-2.95501 2.87338,-0.2449 -1.27343,-0.751 1.38771,-1.87749 -2.54686,-3.52642 2.8244,-7.18344 -1.45302,-1.40404 4.93046,-4.62026 -0.76733,-3.36316 8.19568,3.29785 2.22033,-4.75086 9.61602,-2.54687 0.0326,-2.49788 5.17535,-1.43668 2.20401,1.14281 -1.86115,1.27343 1.79585,0.97956 2.90603,-3.706 3.73866,3.67335 v 0 l 1.92647,-2.10605 1.74688,2.57951 2.08973,-1.84484 1.09384,1.30608 2.79176,-0.81631 1.97544,2.87339 -2.15503,1.35505 3.67335,-0.27753 12.58736,11.91798 1.28975,-1.19179 3.05298,1.12649 3.55906,-0.97956 0.13061,1.4367 2.90603,-0.19592 1.45302,1.68158 0.8163,-1.24078 3.51008,0.84896 0.97957,2.13871 4.3917,-3.96722 1.68158,0.40814 1.37139,-2.43257 5.73042,6.93855 -1.6326,2.39993 1.46935,1.22445 -1.09385,1.6326 3.02031,1.53464 -0.5714,2.22034 h 3.23255 l 3.46111,2.15504 -2.54685,1.46933 1.2571,1.43669 -1.02855,2.02443 7.73855,5.46922 -1.66527,3.21623 3.60805,2.69379 -2.59583,3.75499 1.42036,1.04486 1.51833,-1.95913 1.64893,1.7469 5.15901,-6.75898 -0.96323,-1.6979 2.88971,-2.30197 6.00797,5.11003 8.22831,-2.10605 v 0 l 0.3755,2.46523 3.34684,0.0164 0.26121,2.30197 4.91413,2.02442 0.27755,1.87748 -3.03665,0.53878 0.22857,2.33461 -1.30608,0.35918 1.12649,5.58349 -1.58362,0.26122 -0.76732,5.50186 0.48977,2.87338 5.11004,0.26123 1.4367,9.61602 -3.55907,0.84895 1.25709,8.55482 -2.3346,3.8203 -5.84473,-1.56729 -1.64892,-2.72645 -3.55907,-1.15915 -4.06518,1.58363 0.32652,10.00785 2.38359,-0.27756 0.65305,3.3795 -5.38759,1.24077 2.3183,4.68557 v 0 l -6.88959,1.95912 -7.33038,-1.37138 0.049,1.59995 -2.84072,0.40815 -0.63672,-1.25711 -3.82029,-0.0164 -0.16326,-2.22034 -6.56306,0.96324 -0.19591,-1.48566 h 2.46523 l 0.70202,-3.11828 -1.07752,-3.10194 -1.33873,0.88161 -0.6204,-2.87338 -1.19179,0.40815 1.06119,-1.02854 -2.02443,-3.60805 1.74689,-0.66936 -0.70202,-2.85706 -4.24476,0.97956 -0.53876,-3.85294 -8.3426,2.13871 -0.45713,-2.59583 -3.52642,0.27753 -2.12238,-3.55907 -10.05682,5.15903 -0.21225,-1.50199 -12.53837,-4.13049 -10.53029,1.07752 -6.13858,3.42846 -4.13048,-0.049 0.0164,-3.29785 -3.24887,-0.16326 1.09385,6.41612 -1.95913,0.42447 0.37549,2.90604 1.11018,2.61216 2.02443,-0.14694 0.58773,4.13049 -6.28551,1.46934 0.83263,4.16314 2.39992,-1.11018 0.55507,2.22034 1.53465,-0.0653 -0.32651,7.54263 3.52641,-0.62039 -0.97956,7.41201 -1.81218,0.52242 2.72644,11.23231 -4.71822,1.12649 -14.98728,-3.54274 -25.38696,7.02019 v 0 l -7.82016,1.5673 -3.75498,-4.68559 -15.88522,2.54688 -0.47346,-2.33463 -2.48155,0.83263 1.06119,-5.69778 -1.71423,-2.23667 -5.58349,1.1265 0.5061,3.49378 -8.76707,1.66524 1.28975,2.48156 -2.0734,0.8816 -1.53465,-4.8325 -3.88558,0.78365 0.99588,-3.64071 -7.78752,-0.19591 v 0 l 0.0816,-1.56729 -7.31405,0.39182 1.95912,-2.0081 -1.32241,-8.48952 5.45288,-1.40404 -1.14281,-3.5101 0.40815,-4.09783 1.28975,-0.3755 -0.0979,-6.82427 -4.1305,0.29387 -0.049,-6.00798 v 0 l 0.93058,0.35918 1.14282,-4.27742 3.77131,-0.44081 -0.1959,-2.08973 2.12237,0.13061 0.48978,1.82851 -0.60405,-2.85704 4.63658,-1.27343 0.47345,-1.68159 -2.72644,0.70202 -0.19592,-1.1265 2.53054,-0.62038 -0.76733,-3.77131 3.23256,1.51832 1.02854,4.24477 1.42037,-1.4367 -1.32242,-2.48155 7.6569,-1.74689 -0.11428,-1.40404 2.80808,-0.52242 1.19181,-2.98767 2.44889,-0.70201 -1.77953,-3.26521 0.11428,-4.27742 -2.25299,0.11428 -0.83263,-2.10604 0.47345,-2.82441 1.61628,-0.45713 -1.38771,-12.63633 2.02442,-1.91015 6.23655,0.11429 -0.60407,-2.59585 2.62849,1.02855 4.58761,-2.57951 3.49377,-5.91002 -3.02032,0.50611 -3.72233,-3.42847 -3.55907,-0.47345 -1.81219,-2.15504 -0.16326,-3.55907 4.04886,0.32652 1.45301,-1.99178 2.90604,2.28564 4.1468,-1.14281 0.35917,2.3836 1.82852,0.21223 z"
     class="land"
     title="Dnipropetrovs'k"
     id="UA-12"
     inkscape:connector-curvature="0"
     style="fill:#9373a4;fill-opacity:1;stroke:#ffffff;stroke-width:0.81630087;stroke-opacity:1" />
  <path
     d="m 870.13277,441.67118 3.55907,3.82029 -2.31829,1.48567 0.8816,2.0081 7.0855,1.92647 0.40814,-2.02443 1.91015,0.34285 -1.53465,7.41201 2.61216,5.32229 -2.54685,0.84894 0.0164,1.69791 -1.33873,-0.73468 -1.28975,2.41627 5.86104,1.50198 6.23654,-0.50611 -0.0653,7.73854 4.9631,1.14282 -2.77541,6.18756 3.49376,2.71011 -1.15914,0.44081 0.57141,2.39993 -3.00399,1.55097 0.76732,10.23641 2.33462,2.77543 -1.30609,2.85705 1.0612,1.82851 3.77132,2.05708 2.82439,-1.32242 0.84896,5.79575 2.5142,1.06119 -3.24887,2.04075 -0.60407,4.39169 2.3183,1.22446 4.9631,-0.58773 2.00811,1.94279 0.94691,6.97121 11.73839,4.35904 0.97957,8.44056 11.15067,0.76732 0.0326,3.93456 2.8897,1.45303 -1.01222,5.69777 v 0 l -13.19141,0.60407 -0.39183,3.91825 -2.12238,0.0816 -0.96324,10.64457 -5.89368,-1.14283 0.11427,2.43258 -2.10606,0.0164 -0.65303,2.04076 -8.66912,0.0653 -0.21224,2.05708 -5.79573,0.16326 -0.0164,3.1999 -2.31829,0.0327 -0.26122,2.5795 -1.1918,0.0979 0.99588,12.47307 -4.47332,5.30597 0.11428,1.53464 6.3345,0.19591 -0.3102,3.37949 -5.48554,2.59584 0.26121,7.36302 -4.01619,5.94267 -1.6326,0.27755 -4.01621,-3.9509 -1.77954,1.82852 -7.57527,-1.73056 -5.66513,2.02443 -13.92608,0.39181 -13.24041,17.27293 1.07752,-3.52641 -4.57129,-3.16725 -9.46909,5.38759 v 0 l -2.31828,-3.67335 6.57938,-4.16314 -2.77542,-2.15503 1.89382,-2.67747 -7.72221,-3.13459 1.46934,-0.89794 -0.62039,-3.11828 -8.11403,-5.74675 6.0243,-0.17959 -2.02443,-9.48542 6.18756,1.38771 4.55497,-3.1509 -0.73468,-2.85707 1.59995,-0.40814 1.40404,3.15092 2.18768,-1.11017 2.26932,-9.20787 -3.52643,-1.30608 -1.30607,2.41624 -4.34272,-3.10194 -2.97134,-4.97944 -1.12649,1.20812 -3.11827,-2.95499 -2.87339,2.30196 -3.59171,-6.20389 -4.57129,1.24078 0.96324,-2.17137 -2.13871,0.34286 -0.35917,-2.26932 4.03252,-2.15503 -4.29374,0.45713 -2.3183,-9.38746 -4.57128,0.63672 1.06119,-4.5713 -1.28976,-0.53875 v 0 l -2.31829,-4.68556 5.38758,-1.24079 -0.65303,-3.37948 -2.3836,0.27754 -0.34285,-10.00785 4.08151,-1.58362 3.55907,1.15914 1.6326,2.72644 5.84472,1.56731 2.33461,-3.80396 -1.2571,-8.57117 3.55907,-0.84894 -1.43669,-9.61603 -5.11004,-0.26121 -0.50611,-2.87339 0.76733,-5.50187 1.58363,-0.26121 -1.1265,-5.5835 1.30607,-0.35917 -0.22856,-2.33463 3.05297,-0.53875 -0.27754,-1.87749 -4.91414,-2.02443 -0.26121,-2.30197 -3.34684,-0.0326 -0.35917,-2.46523 v 0 l -1.35506,-5.48554 1.15914,-1.06119 -2.59583,-5.77941 1.64893,-2.5142 5.66513,2.71011 1.86116,-2.41625 6.18757,0.6204 3.52641,3.68967 0.65305,-1.33873 -2.6285,-1.99177 1.53465,-2.28565 2.41625,0.34286 1.69791,-3.10195 5.15901,3.06928 0.0653,-5.40391 4.19578,-3.65702 3.24887,0.11428 -1.74687,-4.22844 2.64481,-2.80807 1.61627,0.91425 0.73468,-4.66924 5.20799,-0.60406 1.46934,-1.15915 -0.60405,-2.97133 7.7222,-3.15093 -7.36304,-3.88558 3.19991,-3.23256 15.78726,2.30197 z"
     class="land"
     title="Donets'k"
     id="UA-14"
     inkscape:connector-curvature="0"
     style="fill:#9373a4;fill-opacity:1;stroke:#ffffff;stroke-width:0.81630087;stroke-opacity:1" />
  <path
     d="m 78.712761,484.29841 1.648928,-4.66924 -1.338734,-3.37948 1.126496,-3.54275 1.861165,-0.86528 -2.57951,-2.79174 1.420364,-3.57541 -1.142822,-1.76321 3.232551,-4.35905 2.465229,-0.75099 1.159147,-5.14269 3.738658,-2.3836 7.934444,1.92647 3.754973,-3.21622 2.66115,1.91013 2.26932,-2.61216 5.81206,1.71423 0.40814,-1.3877 3.23256,-0.049 6.97121,-3.49377 4.16314,0.96323 0.96323,-4.76719 -5.64881,-0.22858 0.84896,-3.93456 -3.36316,-0.32652 -0.14694,-1.55098 0.0653,-1.20812 4.17945,0.40815 0.86528,-3.62437 2.33463,-2.08973 -2.57952,-1.20813 -0.99588,-3.11827 2.22034,-1.2571 -0.40815,-4.13048 2.43258,-1.02854 -0.55509,-2.56319 2.17136,-1.91014 2.59583,1.40404 -0.21223,1.502 2.98766,-0.89794 3.62437,3.00398 4.65292,0.2449 v 0 l 3.10194,9.32215 2.0081,-0.11427 2.49789,3.28151 -1.77954,2.64482 1.01221,4.75088 4.68557,2.33461 -3.9509,6.08962 2.43257,2.80807 4.42436,0.97955 0.4408,3.96722 -4.11416,-0.97955 -0.65303,2.36727 3.41213,5.11004 2.84074,-1.48566 3.98356,2.49788 1.35504,-1.32241 -0.31018,2.67747 2.04074,1.64892 -1.56729,1.6326 1.19179,4.71823 1.61628,-0.0979 1.1265,-4.75087 2.46522,-0.40815 -1.42037,7.02019 2.05709,-1.69791 4.42436,2.26932 -4.63661,1.92646 0.66937,2.79175 1.502,0.14694 1.86116,-3.08561 2.1877,1.04486 -0.50611,-4.29374 4.66924,1.27343 -0.11428,-2.10607 1.40404,0.0816 0.0979,3.00398 10.23641,6.88958 -1.6979,1.91014 2.35094,1.58363 -1.27342,2.88971 v 0 l -2.49789,3.5754 1.66526,20.61976 -8.01607,-1.71423 -7.42835,2.15503 -8.37524,10.38334 -4.1958,2.20402 1.64894,3.47744 -2.87338,0.0816 0.40816,1.51832 -3.16727,4.27743 -2.74277,-0.35919 0.47346,2.3836 -4.48965,4.91413 0.29386,6.71001 4.34272,7.44465 -4.1468,10.53028 v 0 l -2.12239,0.26122 -3.08562,-7.85281 -6.75897,-1.73057 -4.31006,-8.93033 -3.44479,-1.51832 v 0 l 0.65303,-4.31007 2.75911,-2.3836 -6.82428,-9.06093 2.39992,-4.94678 -3.34683,-2.20402 -0.0327,-3.05296 -6.61203,-5.5182 -1.46935,-3.16724 -2.90603,-0.60406 -1.66525,3.706 -4.22844,-1.45302 -2.17135,-3.49376 -0.9959,-10.39967 -4.75086,2.69379 -2.10606,-0.39183 -1.58362,3.88559 -2.677468,-0.68568 -0.865279,-7.80385 -3.085617,0.62039 -2.971335,-3.03663 -0.326521,-3.78764 -4.571284,-0.24489 -4.50598,-5.63247 z"
     class="land"
     title="Ivano-Frankivs'k"
     id="UA-26"
     inkscape:connector-curvature="0"
     style="fill:#9373a4;fill-opacity:1;stroke:#ffffff;stroke-width:0.81630087;stroke-opacity:1" />
  <path
     d="m 848.45182,337.18467 -0.76732,6.49775 1.09384,2.28564 4.97943,4.24477 3.4448,-0.27754 -1.24079,7.98342 1.55097,3.73866 6.23654,8.24464 2.30197,-0.4408 6.97122,3.96723 2.36726,5.0937 4.27742,3.91825 -0.60406,2.7591 v 0 l 3.26521,4.50598 -3.88561,0.96323 -0.60405,2.04075 2.41625,2.36728 -3.06928,2.72645 -1.20814,-1.20813 -1.30607,3.02032 1.2571,1.91014 2.13869,-0.40816 -0.70201,1.14282 2.41626,3.6407 -3.37949,0.93059 0.75099,1.64893 -2.92235,1.42036 0.3102,3.4448 -2.74278,-0.22858 -0.8163,1.84484 2.08973,1.09385 -4.06518,1.42036 -0.62038,2.28564 0.37549,4.09784 1.79587,-0.0164 1.04486,3.5754 -0.751,7.90179 3.52643,0.76732 0.55508,1.53465 -3.21623,1.22445 0.66937,0.88161 -2.25299,1.94279 v 0 l -1.40404,3.10194 -15.78726,-2.30197 -3.19989,3.24889 7.36303,3.88559 -7.70588,3.13459 0.58773,2.98767 -1.46934,1.14281 -5.19167,0.62039 -0.73467,4.66924 -1.61628,-0.91426 -2.64482,2.80809 1.76322,4.22843 -3.26521,-0.11428 -4.19579,3.65703 -0.0653,5.38759 -5.14269,-3.05299 -1.69792,3.08563 -2.41624,-0.34284 -1.53465,2.30196 2.62849,1.99178 -0.65304,1.35505 -3.54276,-3.70599 -6.18755,-0.6204 -1.86117,2.41626 -5.6488,-2.71013 -1.64893,2.53054 2.59584,5.77941 -1.15914,1.06119 1.35505,5.48554 v 0 l -8.22831,2.10605 -6.00797,-5.11004 -2.88971,2.30197 0.96323,1.69791 -5.15901,6.75897 -1.64893,-1.74689 -1.51833,1.95912 -1.42036,-1.04486 2.59583,-3.75498 -3.60804,-2.69379 1.66526,-3.21623 -7.73854,-5.46922 1.02854,-2.02443 -1.2571,-1.43669 2.54685,-1.46934 -3.46111,-2.15503 h -3.23255 l 0.5714,-2.22034 -3.0203,-1.53464 1.09384,-1.6326 -1.46935,-1.22445 1.63261,-2.39993 -5.73043,-6.93855 -1.37139,2.43257 -1.68158,-0.40815 -4.3917,3.96723 -0.97957,-2.13871 -3.51008,-0.84896 -0.8163,1.24077 -1.45301,-1.68157 -2.90604,0.19592 -0.13061,-1.4367 -3.55906,0.97956 -3.05298,-1.12649 -1.28975,1.19179 -12.58736,-11.91798 -3.67335,0.27753 2.15503,-1.35505 -1.97544,-2.87339 -2.79176,0.81631 -1.09384,-1.30608 -2.08973,1.84484 -1.74688,-2.57952 -1.92647,2.10606 v 0 l -2.04075,-8.30994 2.39992,-6.3998 3.6407,1.94279 8.27729,-0.0653 2.04075,2.20402 0.22857,-3.59172 5.22433,-6.54673 -1.48568,-0.62039 0.71835,-3.6407 -2.56319,-0.8816 1.11018,-3.90192 8.06504,1.55096 0.17959,-2.5142 -3.08561,-1.09385 -1.32242,-2.33462 4.47334,-1.53465 -2.92236,-8.5385 -4.457,0.66937 -6.07328,-2.51421 0.63672,-3.42846 -2.46524,-1.24078 0.40816,-6.95488 -4.06517,-2.3836 -4.11417,-0.0326 -0.79997,-2.28564 -2.49788,1.17546 -6.88959,-5.64879 -1.50198,-4.24477 5.86103,-7.73853 -1.61627,-2.20401 0.39182,-4.27742 v 0 l 1.69791,-0.58773 -0.60407,-2.20401 4.53864,1.66525 1.48566,-3.39581 4.40803,-3.23256 5.95899,0.66937 0.47347,-2.54685 3.47744,-0.89794 -1.79587,-1.22445 1.82851,-2.54685 2.80809,2.04074 -0.0979,-2.04074 2.49789,-1.19181 5.51819,3.62437 -0.39182,-2.22034 4.21211,-1.07751 3.49377,1.46934 1.33873,-2.56318 -0.99589,-0.91426 v 0 l 4.24477,-0.31018 5.22432,-6.62837 2.00811,0.84895 1.09384,-1.58363 9.74663,-0.83262 5.208,1.71423 6.62835,7.93445 0.91427,3.99987 3.88559,0.3755 3.60805,-3.52642 5.24065,3.72233 3.24887,0.0326 -1.30607,3.02032 4.8325,2.62849 2.18769,-4.09783 9.51806,-5.61616 15.88522,-1.84484 7.78751,-3.88559 2.38359,-3.21623 4.37539,0.37551 z"
     class="land"
     title="Kharkiv"
     id="UA-63"
     inkscape:connector-curvature="0"
     style="fill:#9373a4;fill-opacity:1;stroke:#ffffff;stroke-width:0.81630087;stroke-opacity:1" />
  <path
     d="m 587.8396,703.78539 5.69778,-2.35094 10.85681,3.64069 -10.56293,-0.049 z m 113.9556,-8.42422 2.07341,13.1261 5.24066,14.3016 v 0 l -0.89794,0.47346 v 0 l -2.48156,-5.91002 -2.57951,3.06928 -1.71423,-0.89792 1.0612,-9.79561 -1.51832,-6.53041 -2.05708,-0.91426 -0.8816,3.28153 -2.80808,-3.24887 0.11428,-2.53054 -2.12239,-0.84896 4.96312,-1.09383 1.502,2.66114 0.5061,-5.11005 z m -95.76842,-116.17595 7.78752,0.19591 -0.99588,3.64071 3.90192,-0.78365 1.53464,4.83249 2.07341,-0.88159 -1.30609,-2.46524 8.76708,-1.66525 -0.48979,-3.49376 5.5835,-1.1265 1.71423,2.25299 -1.04486,5.68145 2.46523,-0.83262 0.47345,2.33462 15.8852,-2.54686 3.755,4.70189 7.82015,-1.5673 v 0 l 5.66514,3.52642 3.59172,13.09347 1.25711,-1.28975 3.99986,0.24489 0.73468,-2.92237 5.5835,-1.09384 -2.02443,1.8775 0.55509,2.71012 2.02442,1.02853 0.19592,1.32241 -2.13871,0.39182 1.59995,11.42822 1.81218,-0.16326 0.78365,6.80795 1.24078,-0.16327 1.77953,4.11416 6.30185,0.84896 0.94691,6.62836 2.82439,-0.24488 0.66938,4.35903 -3.33052,0.50611 0.44081,3.46112 -1.56731,2.54686 -6.08959,1.91014 0.4408,2.97133 6.22022,0.34285 0.52242,4.58762 -2.35094,0.66936 2.39993,5.35493 7.39569,-1.17547 0.049,4.81618 2.93869,-0.44081 6.07328,2.36728 0.99589,14.59545 1.58363,-0.14692 v 0 l -3.67336,3.19988 -7.67324,1.63261 -3.49376,2.85705 -1.12649,3.42846 -7.05284,-1.81217 -3.1346,0.84894 0.86528,6.20388 -2.04076,5.11005 -3.41213,3.91825 -1.79587,-0.86529 -1.71423,3.0693 -0.049,-3.72233 -3.39582,-2.3836 0.86528,-1.27344 0.60407,-0.45712 -0.48979,-2.62849 1.79586,-3.18357 1.24079,2.88971 0.68569,-2.253 2.30196,-0.93058 1.33873,3.46111 1.14283,-6.25286 -2.53053,-2.56318 -1.35506,0.88161 0.91425,2.95499 -3.34682,0.6857 -5.37127,-4.65291 -1.61627,0.40815 -2.64482,-5.25698 0.0653,5.24066 2.15503,2.28563 -2.43258,4.84883 -0.17959,-4.29374 -6.74264,-10.66089 -1.6326,2.3183 0.39183,0.3755 3.23255,6.48142 -2.66115,2.8897 -0.55507,2.04075 -1.68159,-2.10604 -1.84484,1.24077 -1.30608,-2.79175 -1.07751,3.26521 -5.4529,-8.22832 -2.84072,0.21223 -0.84896,-1.3224 -2.25299,1.1265 -3.4611,-2.7591 -2.85707,1.14283 0.88161,3.3305 -5.59983,-3.2652 0.2449,0.96323 v 0 l -1.59995,0.27754 1.19179,6.9059 -1.14281,0.40816 v 0 l -1.84484,-1.89382 -2.41626,3.19991 1.32242,3.3958 -3.52643,0.0164 1.0612,3.64071 -3.15093,-1.48566 -2.02442,1.51831 -4.83251,-6.51407 -1.55096,2.84071 -1.38772,-0.22855 1.38772,-3.34684 -1.28976,-0.96323 -3.65702,0.049 -1.02856,1.87748 1.3714,-8.65279 -5.37126,7.41202 -5.30596,-2.56319 -1.01221,3.75499 -13.53427,-1.04486 -9.10992,1.91014 -3.10195,2.64481 -2.82439,-0.65304 -16.14644,-5.04474 1.91015,-0.78365 v -2.93868 l -2.49788,0.62039 -5.69777,-3.78764 -0.76733,-2.10605 -5.68146,-0.52244 -1.71423,-2.77543 -2.46523,-0.53875 -1.06118,2.22034 -5.46923,0.3755 -1.22445,-2.49789 1.8122,-2.0734 9.42011,-1.71423 5.56717,-3.49377 -2.64482,-5.11004 -3.31418,1.01221 -8.13035,-3.16725 v 0 l 2.79174,-3.02031 v 0 l 26.98692,4.34272 4.47332,-1.81218 -1.14283,-0.86528 -4.63658,1.82851 -1.91015,-1.2571 1.14282,-0.93059 -1.71423,-0.32652 2.02443,-0.13061 -1.01221,-5.4039 -2.71012,-1.38772 -5.97532,2.67747 -1.95912,-4.3917 -2.71012,-0.17959 -3.85294,-3.24888 v 0 l 5.6488,-2.41624 -1.55097,-4.78353 8.94665,-2.17136 -0.34284,-2.80807 2.02442,-1.02855 -1.35505,-2.35094 6.80794,4.3264 1.48567,-0.14694 -0.40815,-2.80807 5.35493,-0.88161 0.3755,1.99178 3.41214,-0.4408 -0.0653,-4.78353 2.92237,2.17136 5.82839,-0.42447 0.42447,3.18357 13.89344,-3.05296 -1.81219,-2.07341 -4.13048,0.27754 -0.16326,-1.42036 7.86914,-2.80808 -2.77543,-4.39169 1.11017,-0.99589 3.96723,2.18768 2.5142,-3.93456 -7.49363,-4.58762 -1.3714,-3.78764 2.74278,-5.19167 2.59584,-0.53876 1.81218,1.48568 1.5673,-3.34684 3.52642,1.30609 0.0979,-2.38361 2.6938,-0.40814 -4.19578,-3.52643 -0.0979,-3.36315 1.77953,-0.79998 -0.68569,-4.52231 -4.88149,0.0979 0.96324,-6.67734 1.09385,4.58762 3.64069,-0.55509 0.26122,-9.61602 -2.71011,1.01221 z"
     class="land"
     title="Kherson"
     id="UA-65"
     inkscape:connector-curvature="0"
     style="fill:#9373a4;fill-opacity:1;stroke:#ffffff;stroke-width:0.81630087;stroke-opacity:1" />
  <path
     d="m 226.31629,361.10229 3.72233,-0.0327 2.05708,-4.21213 3.96722,-3.00398 5.99165,0.14694 -0.6857,-1.502 1.89382,-2.61216 4.1468,-4.91413 2.5632,0.27754 4.91413,-6.93856 -0.0816,-2.85705 0.32652,1.38771 2.49789,-0.55509 -1.30609,-0.21222 0.21224,-1.64893 3.23256,-2.6938 1.64893,1.02854 2.51421,-3.16725 4.44066,1.91015 2.04076,-3.13459 2.87338,0.6367 0.14693,-2.05707 2.39992,-1.502 0.83263,2.87338 3.5101,-0.16325 v 0 l 4.0162,6.15491 1.76321,-0.13061 -2.71013,8.48952 3.78764,2.28564 -0.13061,3.21623 3.72234,0.79998 1.94279,1.99177 -1.58362,0.76732 7.10182,5.43656 4.32639,-2.67746 1.46934,7.42834 2.20401,-1.89381 0.94691,2.98765 -2.67747,1.1918 0.53876,2.56318 -1.46933,2.43259 2.87338,0.81629 0.70201,3.47745 -2.17136,-0.0326 -1.6979,2.77543 -3.46112,-0.53876 1.42036,5.37125 -1.48566,3.86928 4.35905,1.01221 -0.21225,4.53862 2.00811,3.60805 3.85294,-0.42447 -1.40404,2.74277 4.78351,3.60805 2.46523,-1.71423 v 0 l -1.30608,3.90193 -2.59583,0.35916 2.66114,6.17124 -2.97133,4.03252 2.0081,1.89382 -0.16326,2.12237 -2.95502,0.1143 -0.0164,2.84072 2.56318,0.71834 -1.53464,2.02442 v 0 l -0.32652,1.97546 v 0 l 5.51819,0.86528 -1.9428,6.15491 2.48156,2.46523 -0.16326,7.62425 2.30197,4.19578 -2.39993,1.28976 -2.17136,-1.43669 -1.24077,0.99588 -0.79998,-1.58362 -2.13871,4.65291 -5.46921,-2.28564 -2.51421,0.91427 -0.93058,2.97133 -2.4489,-1.61629 0.14693,1.55098 -2.3836,-0.0326 0.34285,4.34272 -3.37949,0.14693 -3.18357,5.09372 1.97544,3.18357 -1.38771,5.43657 1.95913,9.24052 -2.13871,2.46523 1.43668,5.79574 -2.33461,5.58349 v 0 l -2.88971,2.56319 -4.11416,-1.92647 1.04487,3.29785 -1.04487,1.48568 -4.50597,-1.45301 -4.35905,2.10604 -4.71821,-1.12649 -0.52245,-1.46934 -6.12225,3.93456 -4.13048,-5.76308 -1.40404,1.20813 0.049,4.11415 -2.79174,-3.47744 -0.0653,4.66924 -3.83662,-2.44889 -2.10605,0.60405 0.29386,1.55098 2.6938,-0.40816 2.23666,3.86927 -3.13459,0.71836 -2.57951,-1.8122 0.83262,3.73866 -1.46934,0.84895 -2.62849,-0.53876 -3.68968,-7.15079 -2.36727,0.5714 v 0 l -3.33051,-2.15502 -1.2571,1.74688 -1.28975,-2.15505 1.20812,-1.51831 -3.62438,-2.97133 1.64892,-0.58774 -1.84483,-0.73467 1.06119,-1.37138 -2.07341,0.62038 0.26122,-1.89382 -2.93868,-1.51831 1.17547,-4.13049 -1.14282,-1.3224 1.20813,-0.0979 -2.05708,-3.64071 1.51832,0.60407 -0.52243,-1.92647 1.79586,-0.31019 -3.08562,-3.28152 1.11017,-4.506 -2.12238,-0.73466 1.27343,-2.97133 -1.66526,-1.56731 1.9428,-0.93058 -1.89382,-1.06118 2.04076,-0.83264 -1.66526,-3.98354 1.64893,-1.48567 -1.28975,-0.32652 -0.11429,-7.08549 1.17547,-0.17959 -1.46934,-2.95501 1.04488,-3.98355 2.25298,0.0326 0.91426,-3.8203 -1.87749,-3.13459 0.93057,-3.60805 -2.69379,-5.19168 -0.14693,-4.29373 -2.71012,-2.59584 1.84484,-3.29786 2.35095,-0.13061 -1.02855,-4.91412 4.08152,-3.93458 -4.58762,-4.70189 2.95501,-3.00398 -0.3102,-2.48157 -3.39581,-6.10592 1.30609,-1.81219 -3.77132,-3.10195 1.71423,-1.3877 -0.8816,-4.73455 2.90603,-1.46934 0.57141,-2.04075 -1.86116,-0.70202 2.74276,-1.82851 -1.42035,-4.50599 4.01619,-0.27754 -3.55907,-4.457 z"
     class="land"
     title="Khmel'nyts'kyy"
     id="UA-68"
     inkscape:connector-curvature="0"
     style="fill:#9373a4;fill-opacity:1;stroke:#ffffff;stroke-width:0.81630087;stroke-opacity:1" />
  <path
     d="m 476.46353,332.89093 0.32651,4.62026 2.72645,2.46524 v 0 l 0.3102,2.955 -2.20402,2.97133 -3.15093,1.46934 -2.53053,-1.63259 -1.89382,0.8163 0.42448,10.6772 -1.46934,1.63261 -3.2652,-3.11827 -1.79586,-7.70588 -4.09783,-1.3224 -1.3714,-4.11416 -2.51421,-0.65304 -0.73466,-3.29785 -4.21211,0.32651 -2.62849,1.97545 1.37139,-7.57527 v 0 l 2.51421,-2.97134 v 0 l 2.0081,-0.65303 -2.22034,-3.64072 8.30993,0.32654 4.94679,5.28962 7.26508,-1.48566 3.99987,-3.64071 3.99988,1.99178 v 2.30196 l -3.59173,0.9959 v 0 z"
     class="land"
     title="Kyiv City"
     id="UA-30"
     inkscape:connector-curvature="0"
     style="fill:#9373a4;fill-opacity:1;stroke:#ffffff;stroke-width:0.81630087;stroke-opacity:1" />
  <path
     d="m 550.40405,344.4824 0.78365,-3.49377 -2.74277,1.27344 -1.40403,-4.99577 -3.15093,-1.07751 0.99589,-2.25299 3.23255,0.16326 1.01222,-4.08151 -6.08962,-0.26121 -1.69789,-4.37538 -3.51011,-3.10194 -4.06516,2.26932 -0.21225,3.90191 -7.37935,0.48978 -0.86529,2.71012 -6.00797,-0.62039 -4.60394,2.48156 -3.86927,-2.8897 -2.26932,2.90603 -4.60394,-5.87737 -4.27741,-1.76321 0.0326,-1.73057 3.23254,-0.34284 -1.50198,-2.62849 0.99587,-4.44068 -5.24064,-4.99575 0.11428,-2.07341 -9.64867,1.53465 -3.34684,-1.40404 -2.15503,2.53053 -1.14282,-0.99588 0.16325,-0.39182 -5.27329,-1.01222 -0.29388,-3.82029 1.61628,0.39183 0.97956,-1.84484 -0.66936,-3.80396 -4.45701,-2.39993 -2.35094,-8.42422 -2.36727,-2.3183 -5.48555,0.34285 0.39183,-4.50598 -1.30609,-1.82853 1.77953,-1.3877 -1.50198,-5.02841 2.72644,-1.07752 -1.94279,-4.13048 2.92235,-0.73467 -0.99588,-2.43258 -1.77954,-1.64893 -2.955,0.66937 0.48977,-2.93869 -3.2652,-0.24488 -3.86927,-3.90192 0.94692,-6.12226 -9.76297,-7.73853 -0.68569,1.95912 -1.94279,-1.61628 -0.45714,1.71423 -5.68144,-1.45301 -2.77543,2.93869 -3.8856,-1.17548 -0.96323,3.44479 -4.06518,-1.2571 -0.63671,1.5673 -2.67747,-1.40405 -0.049,-5.06106 -1.55097,-1.28975 -2.61217,2.39993 -1.99178,-0.1796 -2.75909,3.70602 -2.39992,-1.55098 -2.10606,7.19978 -4.97943,-1.19181 -2.85706,2.35095 1.95912,0.5061 0.24489,4.88148 -2.3836,4.42435 -4.8325,0.78366 1.502,7.44466 1.30609,4.63659 1.68157,-2.75911 8.81605,8.62016 -2.51421,3.9019 0.6857,3.31419 -3.46113,-0.65305 -0.0816,3.16725 5.59981,6.15491 -0.75099,3.70601 2.71012,2.04075 -2.98766,-0.049 0.88161,3.39582 3.44478,0.27754 1.42037,3.65702 -8.40789,9.53441 3.24887,3.96721 -2.41625,5.11004 2.48154,1.24078 0.22858,2.46523 -1.46934,1.09384 -1.51832,-0.96323 -0.3755,1.53465 2.80807,1.19179 -3.1346,1.95912 0.86528,1.35506 1.66526,-1.12648 4.09783,-0.70203 1.48566,2.17137 0.0653,1.87748 2.57951,0.50611 -0.65304,3.49378 3.73866,0.42446 -0.27755,3.85294 -1.27342,0.48979 2.0081,3.80396 -3.08562,4.14681 2.62849,2.49787 -2.41626,4.1305 2.59584,3.03663 -1.07751,3.18357 3.24887,7.46099 -3.49376,2.74276 1.28975,0.71836 -2.41624,3.41214 -6.15492,3.8366 -1.81218,-1.3224 -1.38771,2.74277 -2.53053,-0.19591 1.37138,3.67335 -1.30608,2.92235 0.48977,1.32242 2.59584,0.0326 0.57141,5.37127 1.5673,1.09385 -1.76322,3.57538 2.26932,6.25287 2.41625,1.24078 -1.92647,2.77543 2.38361,1.91013 -5.15902,6.49776 2.13871,4.47332 4.45699,1.42038 -0.40814,3.55907 4.17945,2.15503 1.30609,-1.95912 1.24077,2.7591 1.17548,0.26121 -1.59994,1.61627 2.10604,2.33462 6.56307,-0.53875 -0.48979,-1.22444 4.457,-4.63661 -0.4408,-4.91412 4.47333,-1.66526 2.5142,0.71835 1.79587,4.47332 2.15503,-5.3386 3.02032,0.50611 -0.63672,4.45699 9.58337,1.64893 0.63672,1.61628 2.31829,-7.78751 3.18358,-3.10194 2.51421,3.1346 4.8978,-3.5101 6.80795,3.1999 9.82826,-2.3183 1.28975,-1.87749 -0.58773,-2.97133 4.14681,-0.62039 1.84484,-3.96721 0.86528,1.22444 -0.26123,-1.42037 2.92238,-2.10605 1.06117,-4.93046 2.26932,-0.0979 -0.9469,-4.08151 4.65292,-7.49364 -1.15915,-0.65304 0.8816,-6.4651 -1.38771,-1.1265 1.09384,-5.32228 9.2242,-4.17946 -2.17136,-3.15092 0.65304,-1.14283 -3.28152,-0.5714 0.84894,-2.8244 7.50997,0.83262 -0.8816,6.82428 4.27742,4.86515 4.81617,-5.46921 1.24078,0.0816 0.26122,4.39171 5.4692,0.48978 5.59984,-9.92622 3.99986,0.27754 0.71835,1.84484 -0.0816,-6.64468 4.48966,-1.99179 -4.14682,-1.27342 0.21225,-3.86927 3.42846,-1.91014 -2.0081,-2.84072 1.58362,0.45712 1.59996,-4.26109 3.4611,1.14282 3.29785,-3.5101 -1.48565,-1.64893 0.52242,-3.28152 2.3183,-1.55097 0.19591,-3.67336 0.62039,-2.51421 z m -69.82637,-13.58325 -3.5754,0.9959 -0.52244,0.99588 0.3102,4.62026 2.74277,2.46524 0.31019,2.955 -2.20401,2.955 -3.15092,1.48567 -2.53054,-1.64893 -1.89381,0.81631 0.42447,10.67721 -1.46933,1.63261 -3.26521,-3.11827 -1.79586,-7.7222 -4.09783,-1.32242 -1.37139,-4.11414 -2.53054,-0.65306 -0.73466,-3.29785 -4.21211,0.32652 -2.62849,1.97546 1.37139,-7.57528 2.53052,-2.97133 1.99179,-0.65306 -2.20402,-3.64069 8.30994,0.32652 4.94679,5.28963 7.26507,-1.48567 3.99988,-3.64069 3.99987,1.97544 v 2.35094 z"
     class="land"
     title="Kyiv"
     id="UA-32"
     inkscape:connector-curvature="0"
     style="fill:#9373a4;fill-opacity:1;stroke:#ffffff;stroke-width:0.81630087;stroke-opacity:1" />
  <path
     d="m 592.99862,440.82223 4.06519,1.14281 2.39993,-1.04486 1.12649,3.47745 6.48142,1.68157 2.35095,3.68969 0.35917,4.81617 4.75088,0.42448 -0.16327,-7.24875 3.23256,3.75497 -2.02443,2.253 3.08561,2.49789 0.57142,3.03663 -1.74689,1.89382 1.11017,4.48966 4.50599,1.84484 0.31018,-2.41627 3.5101,0.29387 0.21224,3.13461 3.47744,-1.2571 1.9428,1.58362 5.11005,-5.61615 2.71011,3.23255 5.61615,0.22856 4.3264,2.93868 v 0 l -2.41625,10.95476 -1.82852,-0.21223 -0.35918,-2.3836 -4.14679,1.14281 -2.90604,-2.28564 -1.45301,1.99178 -4.04886,-0.32652 0.16326,3.55907 1.81219,2.15504 3.55907,0.47345 3.72233,3.42846 3.02032,-0.5061 -3.49377,5.91001 -4.58761,2.57952 -2.62849,-1.02855 0.60406,2.59584 -6.23654,-0.11428 -2.02442,1.91015 1.38771,12.63633 -1.61628,0.45713 -0.47346,2.8244 0.83264,2.10605 2.25299,-0.11428 -0.11429,4.27742 1.77954,3.26521 -2.4489,0.70201 -1.1918,2.98767 -2.80808,0.52242 0.11428,1.40404 -7.6569,1.74689 1.32241,2.48155 -1.42037,1.43669 -1.02853,-4.24476 -3.23256,-1.51832 0.76733,3.77131 -2.53054,0.62038 0.19592,1.1265 2.72643,-0.70202 -0.47344,1.68159 -4.63659,1.27342 0.60406,2.85705 -0.48978,-1.82851 -2.12238,-0.13061 0.19591,2.08973 -3.77131,0.44081 -1.14282,4.27741 -0.93058,-0.35917 v 0 l -0.68569,-5.01208 -6.72633,1.48566 1.20812,3.83662 -11.0527,0.27753 0.26121,2.90604 2.10606,-0.42447 0.52243,1.59995 -5.06107,0.93057 1.76321,3.77131 -1.6326,4.45701 -16.03214,2.36726 -3.52642,-2.82439 -3.46112,0.86527 -0.55508,4.44068 -4.89781,1.02855 -4.70189,-5.64882 -12.01595,2.64482 -0.48978,-2.67746 2.26932,-0.48978 -0.66937,-3.24888 1.48567,-0.0816 -0.3755,-4.42434 -1.33873,0.27754 -0.55509,-4.0162 -5.07738,1.53466 -1.15916,-6.66103 2.84072,-1.46934 -0.75099,-4.8978 -3.99987,0.73466 -0.55509,-2.12237 -2.43257,0.32652 -0.48978,-1.59996 -2.6938,0.50611 -0.9469,2.36728 -1.37138,-0.60407 0.42447,3.21622 -3.1346,1.38772 -1.1265,-1.11016 1.502,-1.94281 -0.70202,-3.34683 -5.09372,1.71423 -0.65304,-1.9428 -3.18357,1.53466 -0.31019,-1.82852 -4.65292,1.51832 -0.88161,-4.44069 -2.20402,-0.75098 -0.86526,-3.21623 -6.22022,-1.04487 -3.96722,0.79998 0.57142,2.90603 -3.11828,0.21223 -1.81218,2.08973 -2.38361,-0.11428 -2.22034,-2.44889 -1.20812,1.86116 -0.50611,-1.91014 -3.78763,-0.47347 -3.90192,0.96325 -1.56731,2.4489 -3.62436,0.049 -1.59995,-1.81218 -1.28976,1.61627 -7.29773,-1.59995 -3.6407,2.59584 v 0 l -13.76283,-0.8163 -2.74278,-2.43258 -0.84894,-3.82029 -0.88161,1.11018 -2.36728,-1.27344 -2.30196,3.91824 -2.35095,-2.33462 -3.55907,0.35918 v 0 l -1.6979,-6.64469 3.41213,-4.8978 -1.33873,-1.76321 9.89356,-8.4732 v 0 l 4.45701,-0.751 3.57539,2.4489 2.80807,-4.40803 3.73867,1.86117 1.37138,-1.87749 7.31405,-2.0081 0.88161,-3.77131 8.89769,0.57141 0.31019,-3.13459 -2.22034,-1.8775 3.65702,-2.95501 0.70202,-2.75909 -1.89381,-2.00811 1.84485,0.0979 1.55096,-2.64481 3.1999,-1.37139 6.0243,0.89793 0.45712,-1.07752 3.91825,1.91014 3.78763,-2.04074 9.10992,3.59172 5.63247,-3.4448 2.48156,1.71424 2.57952,-0.751 1.09383,2.53054 2.85706,-0.13061 9.94255,-8.47319 1.22445,-6.88959 -0.19592,2.17136 2.30198,-1.55098 3.60805,0.6857 0.83262,-2.87338 2.59584,0.35917 3.15092,-1.89381 6.15491,3.54274 -0.0327,2.04076 6.12226,-4.13049 3.9509,2.43257 2.54685,-0.78364 -0.57141,-4.42435 2.3836,-0.70202 0.45713,-2.04076 1.74689,0.96323 0.83263,-6.04062 2.87337,-2.18768 3.6407,0.35917 1.73056,3.96722 2.28564,0.32653 1.14282,-1.91015 1.68159,1.48567 2.64482,7.98341 1.45301,-0.0653 -0.45714,-2.23666 2.35096,1.35507 5.32228,-0.6204 -0.14695,-2.22034 3.19991,1.58363 6.10593,-1.30608 1.48566,-1.51832 -2.35094,-1.01222 -0.8163,-5.28963 4.24476,-1.84483 0.0164,-1.84484 -7.37934,-3.64071 z"
     class="land"
     title="Kirovohrad"
     id="UA-35"
     inkscape:connector-curvature="0"
     style="fill:#9373a4;fill-opacity:1;stroke:#ffffff;stroke-width:0.81630087;stroke-opacity:1" />
  <path
     d="m 895.58502,370.42445 1.1265,5.69777 3.54275,1.99178 0.89793,-1.45301 2.0081,0.39181 1.12649,2.59584 2.1224,0.66936 3.1509,-1.68157 3.47744,1.86116 2.253,-3.75497 1.33874,1.64892 -1.06119,3.98355 5.28963,4.68556 6.18755,0.81631 1.74689,6.2202 5.07739,-2.33462 2.35095,0.52245 6.28551,-6.15493 5.79573,11.26497 5.09373,1.46933 3.75498,-1.77953 8.94667,2.31829 -0.57142,2.12239 3.29785,7.99974 5.01209,1.53465 3.16725,3.33051 6.57938,-0.91425 1.77953,-2.39993 9.99153,-1.53465 1.71423,3.93458 -6.92223,4.09783 -0.53876,4.78351 2.59583,4.6366 6.12226,5.3386 -0.79997,4.52231 2.05711,4.11416 -4.26112,0.4408 -3.33051,4.42435 -2.51421,0.66936 -5.09371,10.3507 -7.18346,-0.39182 -2.12237,1.71423 -5.35494,-0.049 -0.42448,3.46113 4.75088,1.04486 2.08973,3.98355 -0.81631,1.22445 2.98767,3.3305 0.97956,-1.2571 4.13048,0.34285 3.98355,2.31828 2.31829,-4.11414 2.36728,3.93457 -5.53452,6.49775 -9.77929,-4.03252 -1.79586,6.30183 -1.66525,0.0653 -1.82851,3.706 0.9469,3.02032 -3.34683,6.18756 1.51832,1.92647 5.74676,-0.55508 3.13459,1.94279 0.94691,4.96311 -1.06119,3.08562 2.7591,2.04074 0.48978,4.66925 0.91425,1.30609 0.99589,-0.94692 0.27754,2.97134 -5.28962,1.46934 -0.4408,1.97544 3.26519,0.76734 0.93058,2.44889 3.80397,-3.78763 1.89381,5.22432 -0.66936,2.43258 -3.68969,-0.32652 -0.31019,3.91824 -1.50198,0.19592 -2.33463,8.13035 -1.71423,0.9959 2.64481,2.26931 -5.97532,0.0979 2.36727,4.78353 -1.42036,8.88135 -1.71423,0.3755 -1.43669,3.47744 -6.28551,-0.97956 -4.29375,1.09384 -3.82029,-2.97133 -3.46111,2.5142 -1.55098,-3.34683 -7.99974,0.32652 -5.24065,2.08973 -3.36315,-0.79998 -0.60407,-1.55097 v 0 l 1.01221,-5.68145 -2.88971,-1.45301 -0.0164,-3.93457 -11.15066,-0.76733 -0.97956,-8.44056 -11.73841,-4.35904 -0.9469,-6.97121 -2.0081,-1.92646 -4.96312,0.58773 -2.3183,-1.22446 0.60407,-4.40802 3.24888,-2.04075 -2.51421,-1.04486 -0.84895,-5.79575 -2.80808,1.32242 -3.77131,-2.05708 -1.07751,-1.82851 1.3224,-2.87339 -2.33462,-2.75909 -0.76732,-10.23641 3.02031,-1.55097 -0.5714,-2.39993 1.15914,-0.44081 -3.49377,-2.72644 2.77542,-6.17123 -4.96311,-1.15915 0.0653,-7.73853 -6.23654,0.5061 -5.86104,-1.50199 1.28976,-2.41625 1.33873,0.73467 -0.0164,-1.6979 2.54687,-0.84896 -2.61218,-5.32228 1.53465,-7.41201 -1.91014,-0.34284 -0.40815,2.02442 -7.06917,-1.92647 -0.88161,-1.99177 2.33463,-1.48567 -3.55907,-3.82029 v 0 l 2.25299,-1.94279 -0.66937,-0.88161 3.21623,-1.22445 -0.55509,-1.53465 -3.52642,-0.76732 0.751,-7.90179 -1.04486,-3.5754 -1.79588,0.0164 -0.37549,-4.09783 0.62039,-2.28565 4.06518,-1.42036 -2.08974,-1.09385 0.81631,-1.84484 2.74277,0.22858 -0.31019,-3.4448 2.92235,-1.42036 -0.75099,-1.64893 3.37948,-0.93059 -2.41625,-3.6407 0.70201,-1.14282 -2.1387,0.40816 -1.2571,-1.91014 1.30608,-3.02032 1.20813,1.20813 3.06929,-2.72645 -2.41625,-2.36728 0.60405,-2.04075 3.88561,-0.96323 -3.26522,-4.50598 v 0 l 5.01209,-3.47744 0.17959,1.71423 5.01209,-4.91414 -2.13871,-8.70176 5.11005,0.66937 2.33461,-1.33873 z"
     class="land"
     title="Luhans'k"
     id="UA-09"
     inkscape:connector-curvature="0"
     style="fill:#9373a4;fill-opacity:1;stroke:#ffffff;stroke-width:0.81630087;stroke-opacity:1" />
  <path
     d="m 108.49141,319.48728 2.85706,-0.17959 5.79574,7.08549 3.86926,0.70201 0.76732,-1.97544 2.87337,-0.88161 1.4367,4.09782 2.28564,1.59996 4.37537,-0.96323 1.42037,5.09372 2.41624,-0.27755 -0.0979,7.33038 3.19989,0.27755 3.73866,2.84072 -0.45713,2.79175 8.62013,-1.27342 3.78765,1.2571 0.31018,-3.73866 6.07328,4.03251 0.32652,3.41215 3.03665,1.24077 v 0 l 5.17535,0.65305 -2.12239,5.32229 2.64482,3.26519 -1.06119,4.3264 8.39158,10.74251 v 0 l 2.82439,1.68159 1.33874,3.75497 -2.10605,0.70203 -0.78366,5.68145 -4.04885,1.06119 -0.58774,2.253 -11.34658,0.0653 -0.39183,4.79985 2.26932,2.33462 -2.72645,2.79175 -2.56317,-2.18769 -1.82853,8.0977 -2.74276,2.61218 -12.26085,3.29785 0.34285,6.33449 v 0 l -4.65292,-0.2449 -3.62437,-3.00398 -2.98766,0.89794 0.21223,-1.502 -2.59583,-1.40404 -2.17136,1.91014 0.55509,2.56319 -2.43258,1.02854 0.40815,4.13048 -2.22034,1.2571 0.99588,3.11827 2.57952,1.20813 -2.33463,2.08973 -0.86528,3.62437 -4.17945,-0.40815 -0.0653,1.20812 0.14694,1.55098 3.36316,0.32652 -0.84896,3.93456 5.64881,0.22858 -0.96323,4.76719 -4.16314,-0.96323 -6.97121,3.49377 -3.23256,0.049 -0.40814,1.38771 -5.81206,-1.71423 -2.26932,2.61216 -2.66115,-1.91013 -3.754972,3.21622 -7.934444,-1.92647 -3.738659,2.3836 -1.159146,5.14269 -2.465229,0.75099 -3.232551,4.35905 1.142822,1.76321 -1.420364,3.57541 2.57951,2.79174 -1.861166,0.86528 -1.126496,3.54275 1.338735,3.37948 -1.648929,4.66924 v 0 l -6.954882,-0.11428 -3.36316,-3.41214 -2.024426,1.32241 -2.220339,-1.79586 -4.620262,1.19179 -2.808076,-6.0243 -2.922356,-2.57951 -6.040628,2.4489 -1.257101,-3.62437 -3.967223,-2.53053 -1.142822,-2.74277 2.481555,-2.41625 -0.89793,-2.69379 1.975447,-1.37139 -3.134595,-1.76321 v 0 l -0.881605,-2.33462 1.355059,-2.51421 -3.314181,-1.28975 -2.220338,-3.86926 -2.775423,-0.0816 0.914256,-2.00809 -2.024425,1.51831 -0.636715,-0.88161 2.171359,-3.39581 -1.763209,-1.28975 1.371386,-1.43669 0.359172,-9.63234 -2.693793,-11.16701 -3.150921,-3.08561 35.247871,-48.91275 22.399295,-19.62388 2.236665,-4.83249 15.068904,-2.1224 4.78353,-11.29759 z"
     class="land"
     title="L'viv"
     id="UA-46"
     inkscape:connector-curvature="0"
     style="fill:#9373a4;fill-opacity:1;stroke:#ffffff;stroke-width:0.81630087;stroke-opacity:1" />
  <path
     d="m 522.40493,663.41115 9.74663,-0.751 5.59983,2.43258 v 0 l -2.79175,3.02031 v 0 l -4.58761,-0.34285 -1.09384,3.64071 z m -70.49574,-130.73875 3.6407,-2.57951 7.29773,1.58362 1.28976,-1.61627 1.58362,1.81218 3.62438,-0.049 1.56729,-2.4489 3.90192,-0.96325 3.80396,0.47347 0.50611,1.91014 1.20812,-1.86116 2.20402,2.46523 2.39993,0.11427 1.81218,-2.08973 3.11828,-0.21224 -0.57142,-2.90603 3.96722,-0.79997 6.22022,1.04487 0.86526,3.1999 2.1877,0.75098 0.8816,4.44069 4.65291,-1.51831 0.29387,1.82851 3.18357,-1.53466 0.65305,1.9428 5.09372,-1.71423 0.70201,3.34683 -1.48566,1.94281 1.1265,1.12648 3.13459,-1.38771 -0.42447,-3.21622 1.37137,0.60406 0.94692,-2.36727 2.69379,-0.5061 0.48979,1.59994 2.41624,-0.32651 0.57141,2.12237 3.99988,-0.71834 0.73467,4.89781 -2.84073,1.46934 1.15914,6.67734 5.07739,-1.53465 0.55509,4.0162 1.33873,-0.27754 0.3755,4.42434 -1.48566,0.0816 0.66936,3.24889 -2.25299,0.50611 0.47346,2.67746 12.03228,-2.64482 4.68557,5.66514 4.91411,-1.02854 0.53878,-4.45701 3.46111,-0.86529 3.52641,2.82441 16.03216,-2.36727 1.6326,-4.47333 -1.76321,-3.77131 5.06106,-0.93057 -0.53876,-1.59996 -2.10606,0.42448 -0.24489,-2.90603 11.05272,-0.27754 -1.20813,-3.85294 6.71,-1.48568 0.68569,5.01209 v 0 l 0.049,6.00798 4.13048,-0.29387 0.0979,6.82428 -1.28975,0.37549 -0.40814,4.11416 1.14281,3.51009 -5.43656,1.40405 1.32241,8.48952 -1.95913,2.02442 7.31406,-0.40815 -0.0816,1.58362 v 0 l 0.0816,4.37539 2.71011,-1.01222 -0.26121,9.61602 -3.64071,0.55508 -1.09384,-4.5876 -0.96323,6.67733 4.88148,-0.0979 0.68569,4.5223 -1.77953,0.79998 0.0979,3.36315 4.19579,3.52642 -2.69379,0.40814 -0.0979,2.38361 -3.52642,-1.30607 -1.56729,3.34682 -1.8122,-1.48567 -2.59583,0.53876 -2.74278,5.19168 1.3714,3.78763 7.49364,4.58761 -2.51421,3.93457 -3.96722,-2.18767 -1.11017,0.99587 2.77542,4.39171 -7.86914,2.80807 0.16326,1.42036 4.13048,-0.27754 1.81219,2.0734 -13.89344,3.05296 -0.42447,-3.18357 -5.8284,0.42448 -2.92235,-2.17136 0.0654,4.78353 -3.41214,0.44079 -0.37549,-1.99176 -5.35493,0.8816 0.40814,2.80808 -1.48566,0.14692 -6.80795,-4.32638 1.35505,2.35094 -2.02442,1.02854 0.34285,2.80808 -8.94667,2.17135 1.55098,4.78353 -5.6488,2.41625 v 0 l -4.24478,-0.34286 -1.25709,2.04077 -4.8325,1.95912 -10.07316,-2.97133 -3.44478,3.70599 -3.5754,-2.0734 -6.56306,0.24489 -0.91425,1.79587 -9.55072,-2.15504 v 0 l 1.06118,-2.64481 -2.74276,-6.41613 1.56729,-2.30197 -1.1265,-5.15902 -6.44877,-5.38758 -1.22445,-4.91414 3.93457,-1.84484 8.58748,-0.62038 -0.79997,-2.48156 3.39581,-0.14693 0.60406,-4.79985 -1.84484,-7.1508 -8.70177,1.25711 -0.049,-2.71012 2.62848,0.60406 0.81631,-6.8406 -8.44055,2.17136 -1.76322,-2.28564 0.50611,-1.74689 -4.93045,0.99589 -2.02443,-4.55496 2.02443,-1.02855 -1.46934,-1.73054 0.21223,-4.7672 -2.02443,0.32652 1.25711,-9.87724 -5.42024,-0.42448 -1.38771,-1.77954 1.73056,-1.14281 0.53876,-5.32229 -4.42436,0.86528 0.60407,2.39993 -2.46522,0.66937 -0.63672,-2.6938 -10.48131,1.30608 -0.42448,-1.89382 -2.4489,0.44081 -1.76321,-9.68133 1.92647,-0.65305 0.63672,-3.18357 -0.751,-1.6979 -5.09372,0.68569 -1.27343,-9.51806 -3.36316,-3.03666 -1.01221,-3.91823 1.66527,-0.86527 -2.66116,-3.52643 5.86104,-3.21622 2.1877,0.27754 -2.33462,-1.11018 z"
     class="land"
     title="Mykolayiv"
     id="UA-48"
     inkscape:connector-curvature="0"
     style="fill:#9373a4;fill-opacity:1;stroke:#ffffff;stroke-width:0.81630087;stroke-opacity:1" />
  <path
     d="m 423.09377,527.38277 3.55907,-0.35918 2.35095,2.33463 2.30196,-3.91825 2.36728,1.27344 0.88161,-1.11018 0.86528,3.82029 2.72644,2.43258 13.77916,0.8163 v 0 l 0.57141,2.49788 2.33462,1.11017 -2.18768,-0.27755 -5.86105,3.21623 2.66114,3.52642 -1.66525,0.86528 1.01221,3.91825 3.36316,3.03664 1.27343,9.51806 5.09372,-0.6857 0.75099,1.69792 -0.6367,3.18358 -1.92648,0.65303 1.7632,9.68133 2.44891,-0.44081 0.42448,1.89382 10.4813,-1.30609 0.63671,2.6938 2.46523,-0.66937 -0.60406,-2.39992 4.42435,-0.86527 -0.53876,5.32228 -1.73056,1.14282 1.38772,1.77953 5.42024,0.42448 -1.2571,9.87724 2.02443,-0.32652 -0.21225,4.76719 1.46935,1.73057 -2.02443,1.02853 2.02443,4.55497 4.93044,-0.9959 -0.5061,1.7469 1.76321,2.28563 8.44055,-2.17135 -0.8163,6.8406 -2.6285,-0.60407 0.049,2.71012 8.70177,-1.25711 1.84483,7.1508 -0.60406,4.79985 -3.3958,0.14694 0.79997,2.48155 -8.58748,0.62039 -3.93458,1.84484 1.22446,4.91412 6.44878,5.38759 1.12648,5.15902 -1.56729,2.30198 2.74277,6.41612 -1.0612,2.64482 v 0 l -23.57476,6.5957 -1.2571,2.84073 2.41625,5.28963 -1.22446,5.38759 -3.82028,4.09783 -11.13434,19.54224 -14.51384,17.12599 -32.27653,27.49301 -1.5673,2.67748 2.26932,2.22033 0.84896,-2.08973 0.86527,1.84484 4.86515,-0.63671 -1.28975,18.43207 -1.55098,1.27343 -2.13871,-0.14694 -0.4408,-7.50997 -3.83661,-5.959 -9.45276,-4.55495 -10.35069,0.8163 -15.13423,8.0324 -1.37138,4.01621 -7.9671,-4.31007 0.16326,2.75909 -2.69378,1.33873 2.23665,3.15093 -4.06517,1.37138 -8.58749,-1.87749 -11.9833,-5.77941 -3.46111,-5.87737 -0.14694,-3.82029 -3.706,-1.53464 1.79586,-3.13459 3.41214,-3.15093 6.61204,1.27344 0.27753,3.39581 4.50599,-1.11018 -1.25711,-5.53452 3.11827,-0.73466 -1.58362,-6.72634 -2.0081,-0.0326 1.84484,-3.95089 1.48567,-1.51833 2.7591,0.3755 -0.32653,-3.21621 6.80796,-0.751 -0.50611,-2.82441 4.66924,-1.33873 -1.502,-7.26507 0.96324,-3.64072 11.31393,-2.54685 1.43669,-3.54274 -3.0693,-3.86927 6.28552,-7.83649 -6.18755,-5.12637 2.39992,-5.73043 -3.55908,-10.07315 5.25698,-0.39182 -2.05707,-2.02443 9.55072,-2.13871 0.0979,-2.30196 3.96721,-1.17548 1.09385,5.86104 -1.9428,1.73056 1.37139,3.73865 -2.12239,2.56319 1.84484,0.63671 1.38772,-2.28563 3.24886,-0.70203 -0.71834,-4.09783 2.08973,-3.0693 2.71013,6.25287 -0.48979,-1.73055 3.54275,-3.83662 2.84073,2.85705 -1.25711,1.5673 4.48966,1.81219 0.8816,4.44068 1.46934,0.52243 3.85294,-0.55509 -0.68568,-5.8447 3.99987,0.11428 0.34284,-3.05297 4.57129,5.95899 -0.78365,0.93058 4.24477,2.57952 -0.0816,-1.61628 2.87338,-2.28564 2.6938,1.48566 4.13047,-1.3224 1.76322,1.45301 3.80396,-2.53052 -0.26122,-1.32242 -1.24077,1.48568 -2.10607,-2.35096 -0.99587,1.30609 -0.73468,-1.502 -2.25299,0.0326 -1.61627,-1.43669 1.56729,-0.73467 -1.81218,-0.78366 -0.13061,-2.43257 -2.74278,1.1918 -3.44478,-4.14681 4.0815,-1.01221 1.35506,-15.50972 -2.08973,-4.31007 2.28564,-0.86527 -0.53875,-1.28976 -3.4448,0.99588 -1.19179,-5.24065 -7.23243,2.04076 -1.74689,-5.63248 -3.98355,0.71835 -0.52242,-2.64482 -3.64071,1.02853 -0.84895,-1.33873 2.15503,-0.40814 0.3102,-6.04063 1.37139,-0.58774 -0.8163,-4.35905 -3.62439,0.3102 -0.84894,1.73056 -1.97545,-3.95089 4.71821,-1.17548 -1.61626,-9.20788 2.59583,-0.66936 -1.43669,-9.17522 -4.7672,1.28975 -0.19591,3.91825 -2.95501,1.37138 -1.74689,-0.91426 -0.47345,-6.44877 -2.88971,0.79997 -1.09384,-6.25286 -3.88559,2.64482 -0.27754,-3.67336 -2.85705,2.93868 0.0816,-3.55907 -1.84484,0.75099 1.61626,-1.37138 0.0654,-3.13459 -2.0734,0.40814 -2.05708,-3.78763 3.82029,-1.42037 2.71012,-5.63247 -1.43668,0.0654 1.33873,-3.49376 -1.35507,-3.02031 3.75499,-6.7753 -2.92236,0.57141 -1.12649,-2.51421 4.24476,-5.22433 -4.16314,0.47347 -1.48565,-8.84871 -4.5713,0.89793 0.34286,1.76321 -1.09386,-0.76732 -0.78364,2.23666 -5.50187,-3.06928 -2.36727,1.66525 -4.65291,-6.18757 0.52242,-3.86926 v 0 l 1.1265,0.96323 3.31419,-2.05707 0.99587,-5.09372 3.65704,0.58773 0.68569,2.67748 0.83263,-0.53876 1.64892,-5.82839 4.79986,3.6407 -0.79998,0.76732 6.04063,-0.62039 0.50611,1.43669 -3.15093,0.94691 0.84895,1.27343 2.20401,-0.70201 1.28976,1.87748 4.99577,-0.11427 1.20812,-1.99179 4.11416,-0.73467 1.82851,1.74689 3.80396,0.35917 1.77954,-2.8244 3.46111,1.97545 -0.4408,-7.0855 z"
     class="land"
     title="Odessa"
     id="UA-51"
     inkscape:connector-curvature="0"
     style="fill:#9373a4;fill-opacity:1;stroke:#ffffff;stroke-width:0.81630087;stroke-opacity:1" />
  <path
     d="m 604.73704,331.78076 2.72644,1.2571 3.05296,-1.56729 2.62849,1.6979 3.1346,-4.22844 2.31829,2.7591 3.00399,0.0653 0.16325,1.94278 1.94281,-0.0816 1.20812,1.99178 1.59995,-1.38771 1.12649,1.27342 0.96325,-1.6979 1.30607,1.45301 2.64482,-1.27342 9.20788,3.16724 5.86103,-2.79174 -1.84484,-2.15504 3.4448,-1.46935 2.35095,1.46935 2.10604,-2.71012 3.95091,4.16313 2.07339,-1.42037 2.22033,0.88161 -0.22855,2.05708 1.14283,-2.43258 5.51818,-2.15503 1.58363,1.33873 0.60407,7.28141 7.05282,5.82839 1.37139,4.94678 5.46922,2.26931 0.40815,3.23256 2.98766,1.68157 -2.72644,3.96722 1.30609,4.08152 8.5385,1.92646 0.0164,-3.19989 1.81219,-1.11017 0.47345,1.37138 5.84472,-1.69791 5.1427,1.02854 v 0 l -0.39183,4.27742 1.61627,2.20401 -5.86103,7.73853 1.50198,4.24477 6.88959,5.64879 2.49788,-1.17546 0.79997,2.28564 4.11417,0.0326 4.06517,2.3836 -0.40815,6.95488 2.46523,1.24078 -0.63672,3.42846 6.07328,2.51421 4.457,-0.66937 2.92236,8.5385 -4.47334,1.53465 1.32242,2.33462 3.08561,1.09385 -0.17958,2.5142 -8.06505,-1.55096 -1.11017,3.90192 2.56318,0.8816 -0.71834,3.6407 1.48567,0.62039 -5.22433,6.54673 -0.22857,3.59172 -2.04075,-2.20402 -8.27729,0.0654 -3.64069,-1.94279 -2.39993,6.39979 2.04075,8.30995 v 0 l -3.73866,-3.67335 -2.90603,3.706 -1.79585,-0.97956 1.86115,-1.27343 -2.20401,-1.14282 -5.17535,1.43669 -0.0326,2.49787 -9.61602,2.54688 -2.22034,4.75086 -8.19566,-3.29785 0.76732,3.36316 -4.93046,4.62026 1.45302,1.40404 -2.8244,7.18344 2.54686,3.52642 -1.38771,1.87749 1.27343,0.751 -2.87338,0.24489 0.19592,2.95502 2.2693,0.049 -2.44889,5.208 -0.45713,-1.68159 -8.57116,-3.24887 -0.60407,-3.41214 -2.85705,-0.34284 -2.74277,-3.21623 -6.95488,-3.11827 v 0 l -4.3264,-2.93868 -5.61615,-0.22856 -2.71011,-3.23255 -5.11005,5.61615 -1.9428,-1.58363 -3.47744,1.2571 -0.21224,-3.1346 -3.5101,-0.29387 -0.31017,2.41627 -4.506,-1.84484 -1.11016,-4.48966 1.74688,-1.89382 -0.57141,-3.03663 -3.08562,-2.49789 2.02443,-2.253 -3.23256,-3.75497 0.16327,7.24875 -4.75087,-0.42448 -0.35918,-4.81617 -2.35095,-3.68969 -6.48142,-1.68157 -1.12649,-3.47745 -2.39993,1.04486 -4.06519,-1.14282 v 0 l -5.15901,1.27343 -2.5142,-2.17135 -5.84472,0.34285 -7.9671,-6.36715 2.31829,-6.69368 1.76321,2.20402 11.03639,2.33462 -4.79984,-7.18344 1.32241,-5.208 4.04885,-2.23668 0.34284,-4.39169 -3.23255,-2.33462 0.62039,-4.70189 -7.41201,-3.65702 -1.01221,-5.84473 -2.1877,-0.31018 -0.71833,-2.66116 -2.92236,0.76734 -4.19579,-6.66102 3.36315,-1.17547 -1.12648,-1.30609 0.63671,-4.8325 -2.57951,-1.68157 -1.73056,-5.79575 -0.97956,-0.78364 -1.14282,1.64892 -3.03664,-3.78763 -0.26122,-2.49788 2.87338,-0.68569 -0.3102,-2.08973 -6.79162,-1.97545 -3.2652,-5.35493 v 0 l -1.46934,-1.66527 0.52243,-3.2652 2.31829,-1.55097 0.19592,-3.67335 v 0 l 5.99165,-0.049 0.0326,-2.2693 2.04075,-0.57142 1.81219,-3.86927 2.39992,-0.22856 1.51832,1.77954 5.38759,0.66936 -0.34285,2.54686 2.17136,2.13871 8.19566,-2.23667 -0.0816,1.12649 6.57939,0.88161 -0.0327,-1.99177 6.98754,-3.2652 3.13459,-5.68146 2.22034,0.0816 0.58774,-2.53053 z"
     class="land"
     title="Poltava"
     id="UA-53"
     inkscape:connector-curvature="0"
     style="fill:#9373a4;fill-opacity:1;stroke:#ffffff;stroke-width:0.81630087;stroke-opacity:1" />
  <path
     d="m 204.70064,208.29077 5.77941,0.84896 4.13048,-1.59996 9.97519,6.26919 11.28129,-1.15914 0.16325,3.60805 4.11416,3.18357 3.93458,0.14693 2.74276,-2.79174 5.43656,0.35916 3.29786,1.9428 0.16327,2.33462 2.26932,1.79586 2.93867,-0.79997 5.5182,2.72644 2.54686,-2.955 11.55881,-0.45713 0.3755,9.71397 3.59172,0.88161 -1.6326,4.55496 6.46511,-1.27344 3.59172,1.11018 1.45301,-1.43669 2.84073,2.98766 0.76732,-4.34272 5.71412,2.77543 5.59981,0.0816 -0.17958,3.52643 -3.08561,4.21211 v 0 l 0.34284,1.64892 -4.99576,1.77954 0.0816,4.31007 1.82852,2.43258 -1.71424,0.0164 -2.97133,-2.74276 0.24489,-1.74688 -1.55096,0.049 -0.73468,6.66101 1.48567,0.70204 0.0326,2.30196 -1.45303,2.18768 -2.97133,0.62039 1.86116,6.41612 -5.48553,7.18345 -0.48978,5.15903 -2.35095,1.59994 0.27754,3.15092 -5.82839,1.09384 0.14694,1.94281 -1.48567,0.70201 2.17135,4.81618 -1.11015,2.36727 2.12237,1.8775 -1.17547,8.58748 2.26931,6.70998 -1.73056,4.06519 -2.31829,1.14282 -0.66936,3.29785 2.17136,1.61629 0.0816,3.2652 -1.95912,0.40815 v 0 l -3.51009,0.16325 -0.83264,-2.87337 -2.39992,1.502 -0.14693,2.05707 -2.87338,-0.63671 -2.04075,3.13459 -4.44067,-1.91014 -2.51421,3.16724 -1.64893,-1.02853 -3.23256,2.69379 -0.21224,1.64893 1.30609,0.21223 -2.49789,0.55509 -0.32651,-1.38771 0.0816,2.85704 -4.91413,6.93857 -2.5632,-0.27755 -4.1468,4.91413 -1.89382,2.61217 0.6857,1.50199 -5.99165,-0.14694 -3.96722,3.00399 -2.05708,4.21211 -3.72233,0.0327 v 0 l -2.23667,-1.51831 2.3183,-5.86105 -3.24887,3.1999 -5.58351,-2.35095 -2.8244,2.253 -4.44067,-2.30197 -4.04885,5.7141 -7.13448,0.34284 -5.50186,3.02032 -2.85706,-1.92646 -1.20813,2.15502 -4.37537,-1.42036 -1.45301,3.28153 2.15503,2.15503 -1.99177,0.65305 -1.20812,3.57539 -3.68969,0.6204 -0.83262,3.57538 v 0 l -8.39158,-10.7425 1.06119,-4.32641 -2.64482,-3.26519 2.12239,-5.32229 -5.17535,-0.65304 v 0 l -0.13061,-2.04075 3.11828,-1.68158 -1.27344,-3.37949 1.33873,-0.84895 1.64895,1.43669 0.68567,-1.502 -2.1387,-1.37137 -0.75099,-2.98768 -1.1265,0.3102 0.6857,-2.18768 -3.49378,-2.0081 3.54275,0.55509 0.52243,-3.10195 -1.94279,-3.96722 9.51807,1.24078 1.53465,-2.48156 -0.44081,-1.51833 -1.17548,0.52245 -0.55508,-4.68558 6.39981,1.59996 -2.59584,-2.67747 2.10605,-2.04076 -0.52243,-1.81218 4.55496,2.26931 7.41201,-3.06928 -0.19591,-1.66527 5.24065,-0.89792 0.99588,4.65292 3.60805,-0.42448 3.33051,4.63658 4.09783,-18.10555 6.18757,0.97957 0.96323,-1.91015 -2.57952,-2.26931 0.62039,-6.05695 -2.17136,-1.7469 6.43245,-1.17546 1.37139,-2.98767 -0.94691,-4.19578 -3.88559,-2.59584 -4.35905,-0.3102 -0.31019,-2.92235 6.56306,-2.07341 0.55508,-3.46112 -3.42846,-3.78763 -3.02032,-0.68568 -0.40814,-3.52643 -6.08961,-5.42023 0.19591,-4.57129 -2.87338,1.1265 -1.06119,-2.30197 -1.79586,0.0164 -0.0979,1.8122 -1.48567,0.29387 -3.1999,-4.3264 0.0164,-4.9631 -1.99178,-2.12239 -2.84072,0.31019 2.23666,-1.86115 -1.51832,-1.48568 1.97545,-3.90191 -3.91824,-4.19579 2.48155,0.57141 1.58362,-1.46934 3.42846,-6.84061 0.91426,-3.21622 -2.84072,-4.24477 0.37549,-3.90191 3.65704,-4.39169 -4.09784,-0.58775 -2.22034,-2.12238 v 0 l 10.46498,0.24489 -0.0326,-2.49788 2.41625,0.63671 z"
     class="land"
     title="Rivne"
     id="UA-56"
     inkscape:connector-curvature="0"
     style="fill:#9373a4;fill-opacity:1;stroke:#ffffff;stroke-width:0.81630087;stroke-opacity:1" />
  <path
     d="m 647.21734,169.01037 0.21223,3.70601 4.35904,1.42036 1.12651,5.12637 3.2652,1.6326 0.58774,2.17136 2.33462,0.32651 0.34284,3.10195 3.1346,2.26932 -0.94692,4.44068 -2.0081,1.84484 2.02443,2.64482 -0.0326,3.06929 2.204,0.71833 0.31019,2.80808 2.48157,-0.0816 1.77953,4.37538 2.13871,0.84894 -0.57142,2.64482 2.77542,-0.63671 6.43246,5.46921 -0.40814,3.31419 1.79585,3.99986 -1.02854,1.89383 -6.25286,0.22857 -12.48941,4.73454 4.60394,2.02442 0.88161,4.13049 1.68158,-0.22857 0.22855,2.15504 1.07752,-0.84896 1.22446,4.60394 2.77542,1.30608 -4.93045,9.06094 6.5304,5.40391 -3.08562,1.81219 -2.79175,6.23653 4.3917,2.3836 4.14681,-3.05296 10.75884,3.42846 1.24079,-1.76321 3.28152,0.6204 0.45713,4.42434 2.64482,2.07341 3.86926,-1.04487 2.35095,1.30608 1.66525,-2.53052 4.17947,-0.52244 2.30196,-2.59584 3.41214,2.56319 1.74689,-2.33462 4.27741,0.71833 -1.33873,5.27332 2.59583,3.47744 0.0164,3.08562 -1.37139,0.50611 2.22034,2.6448 4.55497,-0.4408 1.89381,-1.79586 5.48553,2.53054 0.19593,2.02442 -2.02443,1.61628 -2.85706,-0.6857 1.79586,3.39582 -1.30607,2.85705 3.96722,2.54686 -0.96323,3.85294 1.99176,2.18769 -0.22856,3.95088 4.0815,2.07342 -1.86115,4.37536 2.204,4.42436 -0.42447,1.87749 -1.37139,-0.91426 -3.54274,1.24078 1.50199,4.26108 -1.76321,2.02443 4.63658,7.83649 5.97533,3.29785 1.06118,7.16713 3.26521,1.2571 v 0 l 0.99589,0.91426 -1.33873,2.56318 -3.49377,-1.46934 -4.21211,1.07751 0.39182,2.22034 -5.51819,-3.62437 -2.49789,1.1918 0.0979,2.04075 -2.80809,-2.04075 -1.8285,2.54686 1.79586,1.22445 -3.47744,0.89794 -0.47347,2.54685 -5.95899,-0.66937 -4.40802,3.23256 -1.48567,3.39581 -4.53864,-1.66525 0.60407,2.20401 -1.6979,0.58773 v 0 l -5.1427,-1.02854 -5.84472,1.69791 -0.47345,-1.37138 -1.81219,1.11017 -0.0164,3.19989 -8.5385,-1.92646 -1.30609,-4.08152 2.72644,-3.96722 -2.98766,-1.68157 -0.40815,-3.23256 -5.46922,-2.26931 -1.37139,-4.94678 -7.05282,-5.82839 -0.60407,-7.28141 -1.58363,-1.33873 -5.51818,2.15503 -1.14283,2.43258 0.22855,-2.05708 -2.22033,-0.88161 -2.07339,1.42037 -3.95091,-4.16313 -2.10604,2.71012 -2.35095,-1.46935 -3.4448,1.46935 1.84484,2.15504 -5.86103,2.79174 -9.20788,-3.16725 -2.64482,1.27343 -1.30607,-1.45301 -0.96325,1.6979 -1.12649,-1.27342 -1.59995,1.38771 -1.20812,-1.99178 -1.94281,0.0816 -0.16325,-1.94278 -3.00399,-0.0653 -2.31829,-2.7591 -3.1346,4.22844 -2.62849,-1.6979 -3.05296,1.56729 -2.72644,-1.2571 v 0 l -1.01222,-1.77953 4.0162,-4.66925 -0.29387,-4.457 1.7469,-0.91426 -0.58775,-4.75086 5.55085,-1.89383 -2.7591,-1.24077 -1.9428,-3.80396 1.69792,-4.94678 -0.73468,-3.39582 2.02443,-0.63672 -0.35917,-5.86104 -3.39581,0.32653 -1.20814,-4.3264 -2.18768,2.10606 -1.95913,-0.83263 2.28565,-3.90192 -0.71834,-2.77542 -6.98754,-2.08973 2.61216,-4.48965 -1.64893,-1.59996 0.78365,-2.3346 3.55907,-1.46936 -0.45712,-1.99177 2.02443,-2.26932 0.27753,-3.15091 -1.81218,-0.40816 2.10605,-2.62849 -0.78365,-1.99176 -1.53465,0.0326 -0.97955,-4.37537 1.5673,-1.14283 -0.53877,1.59995 2.67747,2.0081 1.35507,-0.21224 -1.30609,-1.99177 2.3836,0.99589 -0.0164,-9.09359 3.41214,-2.04075 -1.99178,-5.01209 3.62437,-1.53465 -1.73056,-0.31019 -3.44479,-5.48554 0.39183,-6.92223 -3.06929,-4.55496 3.64071,-3.73866 -1.33873,-4.14681 2.98765,-1.89382 0.049,-1.74688 7.54262,-2.88971 2.13871,0.63672 1.27343,-4.27742 -3.88561,-3.41214 0.66938,-1.45301 3.98354,-1.6979 2.08973,2.12237 4.03253,-1.06119 0.0326,-4.42435 -3.37948,0.11428 -1.37138,-3.34683 -5.06108,-1.15914 -0.32651,-6.95489 2.8897,-2.56318 1.17547,-6.69367 2.07341,-2.53053 v 0 l 1.06119,0.32652 0.58773,-2.30197 3.1346,0.93058 -1.87749,3.91825 4.26109,1.09384 -0.66936,-1.95913 2.0081,1.04487 5.58349,-4.14681 z"
     class="land"
     title="Sumy"
     id="UA-59"
     inkscape:connector-curvature="0"
     style="fill:#9373a4;fill-opacity:1;stroke:#ffffff;stroke-width:0.81630087;stroke-opacity:1" />
  <path
     d="m 178.15454,376.26915 0.83262,-3.57539 3.68969,-0.62039 1.20812,-3.57539 1.99176,-0.65305 -2.15502,-2.15503 1.45301,-3.28153 4.37537,1.42036 1.20813,-2.15503 2.85706,1.92646 5.50186,-3.0203 7.13448,-0.34285 4.04885,-5.71411 4.44067,2.30197 2.8244,-2.25299 5.5835,2.35095 3.24888,-3.19991 -2.3183,5.86105 2.23667,1.51832 v 0 l -0.62039,2.33462 3.55907,4.457 -4.0162,0.27754 1.42036,4.50599 -2.74277,1.82851 1.86117,0.70202 -0.57142,2.04075 -2.90602,1.46933 0.8816,4.73455 -1.71423,1.38771 3.77131,3.10195 -1.30608,1.81219 3.39581,6.10592 0.31019,2.48157 -2.955,3.00398 4.58761,4.70189 -4.08151,3.93458 1.02854,4.91412 -2.35095,0.1306 -1.84484,3.29787 2.71013,2.59584 0.14692,4.29373 2.6938,5.19168 -0.93058,3.60805 1.87749,3.13459 -0.91426,3.8203 -2.25298,-0.0326 -1.04487,3.98355 1.46934,2.95501 -1.17547,0.17959 0.11428,7.08549 1.28975,0.32652 -1.64892,1.48567 1.66525,3.98353 -2.04075,0.83265 1.89381,1.06118 -1.94279,0.93058 1.66525,1.56731 -1.27343,2.97133 2.12239,0.73466 -1.11018,4.506 3.08562,3.28152 -1.79586,0.31019 0.52243,1.92647 -1.51832,-0.60407 2.05708,3.64071 -1.20813,0.0979 1.14283,1.3224 -1.17547,4.13049 2.93867,1.51831 -0.26121,1.89383 2.0734,-0.62039 -1.06118,1.37138 1.84482,0.73467 -1.64892,0.58774 3.62438,2.97133 -1.20812,1.51831 1.28975,2.15505 1.2571,-1.74688 3.33051,2.15502 v 0 l -2.84072,0.22858 -2.13871,2.28563 -2.84072,-0.0979 -1.84484,-2.57952 -5.53453,0.96324 -2.82441,-7.64057 -1.17546,1.73055 1.73055,3.8856 -1.77954,1.24077 -2.77541,-3.86927 1.20812,-1.86115 -0.84895,-3.41214 -1.64892,3.08562 -2.53054,-0.96324 -3.67335,2.87338 -3.19991,-0.86528 0.24489,-2.07341 -3.86926,-4.40802 -2.72644,3.52641 -1.28977,-2.44889 -4.6529,-0.91427 v 0 l 1.27342,-2.88971 -2.35094,-1.58362 1.6979,-1.91014 -10.23641,-6.88958 -0.0979,-3.00398 -1.40404,-0.0816 0.11428,2.10607 -4.66924,-1.27343 0.50611,4.29374 -2.18769,-1.04486 -1.86116,3.08561 -1.50201,-0.14694 -0.66937,-2.79175 4.63661,-1.92646 -4.42436,-2.26932 -2.05709,1.69791 1.42038,-7.02019 -2.46523,0.40815 -1.1265,4.75087 -1.61628,0.0979 -1.19179,-4.71823 1.56729,-1.6326 -2.04074,-1.64892 0.31018,-2.67747 -1.35504,1.32241 -3.98356,-2.49788 -2.84073,1.48566 -3.41214,-5.11004 0.65303,-2.36727 4.11416,0.97955 -0.4408,-3.96722 -4.42436,-0.97956 -2.43257,-2.80806 3.9509,-6.08962 -4.68557,-2.33461 -1.01221,-4.75088 1.77954,-2.64482 -2.49789,-3.28151 -2.0081,0.11427 -3.10194,-9.32216 v 0 l -0.34285,-6.33448 12.26085,-3.29786 2.74276,-2.61217 1.82853,-8.0977 2.56317,2.18769 2.72645,-2.79175 -2.26932,-2.33462 0.39183,-4.79985 11.34658,-0.0653 0.58774,-2.25299 4.04885,-1.06119 0.78366,-5.68145 2.10605,-0.70203 -1.33874,-3.75497 z"
     class="land"
     title="Ternopil'"
     id="UA-61"
     inkscape:connector-curvature="0"
     style="fill:#9373a4;fill-opacity:1;stroke:#ffffff;stroke-width:0.81630087;stroke-opacity:1" />
  <path
     d="m 29.424516,457.39313 6.236537,-0.40814 4.261091,4.27742 2.383599,-0.48979 -0.48978,-2.57951 v 0 l 3.134594,1.76321 -1.975447,1.37139 0.897931,2.69379 -2.481556,2.41625 1.142822,2.74277 3.967223,2.53053 1.257102,3.62437 6.040628,-2.4489 2.922356,2.57951 2.808075,6.0243 4.620262,-1.19179 2.22034,1.79586 2.024425,-1.32241 3.36316,3.41214 6.954883,0.11428 v 0 l 4.195787,1.73056 4.50598,5.63248 4.571284,0.24489 0.326521,3.78763 2.971335,3.03664 3.085617,-0.62039 0.86528,7.80384 2.677465,0.68569 1.58362,-3.88559 2.10606,0.39182 4.75087,-2.69378 0.99589,10.39966 2.17135,3.49377 4.22844,1.45301 1.66525,-3.70599 2.90603,0.60405 1.46935,3.16725 6.61203,5.5182 0.0327,3.05296 3.34683,2.20401 -2.39992,4.94678 6.82428,9.06094 -2.7591,2.3836 -0.65304,4.31007 v 0 l -3.02032,1.40404 -4.16313,-1.56729 -4.73455,4.53862 -1.37137,-0.93057 -5.30597,2.39992 -2.0081,-1.71425 -4.44067,0.26123 -5.69778,-4.27742 -7.885466,2.84074 -4.816174,-5.11005 -6.187561,0.86528 -7.591598,-2.92235 -1.877492,4.27741 -9.011961,-4.32639 0.195912,-1.45302 -3.069292,-1.40404 -0.750996,-3.706 -4.130483,0.16326 -1.371386,-1.86118 -2.922356,2.6938 -1.208125,6.74264 -4.228438,1.30609 -4.799849,-2.36727 1.110168,4.31006 -2.873378,0.91425 -3.346834,-2.80807 2.481555,-5.25697 -3.069292,-5.27331 -4.946783,-0.27753 -3.657028,2.33462 -4.42435,-1.3714 -1.126495,-7.33037 -3.820288,-4.29375 -5.567172,-0.13061 -1.110169,1.1918 -3.754984,-7.37936 0.310194,-2.23666 -4.2774157,-2.69379 1.3224074,-2.04076 -3.1672473,-1.37139 -3.4121377,1.92648 -0.37549838,-2.7591 2.48155478,-13.90977 8.6854419,-6.75897 1.22445,-4.11415 -0.881604,-2.38359 2.269316,-3.19991 -0.261216,-5.06107 2.106056,-2.08972 0.228564,-3.65704 2.98766,-5.28963 3.722333,-1.20813 1.485667,-7.23241 2.955008,1.02853 z"
     class="land"
     title="Transcarpathia"
     id="UA-21"
     inkscape:connector-curvature="0"
     style="fill:#9373a4;fill-opacity:1;stroke:#ffffff;stroke-width:0.81630087;stroke-opacity:1" />
  <path
     d="m 315.45633,398.30928 6.77531,-2.74277 6.36713,0.71834 8.48955,-1.37138 1.19178,-2.28565 7.24876,2.82441 2.46523,-3.64071 3.39581,1.25711 2.38359,-0.93059 2.36729,3.75499 2.87337,-3.29785 6.12226,1.33873 1.12649,-3.91824 5.01208,-1.48568 1.56731,-2.38359 4.39169,4.0815 0.86529,3.18358 -1.46934,1.81218 3.39582,3.8856 -3.08563,4.94677 3.52642,3.82029 -1.09385,3.16725 7.15079,1.11017 6.75898,-1.61627 1.76321,1.09385 0.24489,-3.26521 3.44479,1.17547 0.79998,-1.24078 1.37139,0.70202 1.46934,-3.16725 5.38758,0.751 v 0 l 1.5673,1.11017 -1.76321,3.5754 2.28563,6.25286 2.39993,1.22445 -1.92646,2.79175 2.38359,1.91015 -5.15902,6.49775 2.13871,4.47332 4.457,1.42037 -0.40814,3.55907 4.17946,2.15504 1.3224,-1.95912 1.24078,2.74276 v 0 l -1.68158,0.44081 1.66525,8.6038 -2.87337,0.84897 0.32652,2.10605 -1.99179,-0.65304 -1.27342,3.54275 -0.70203,-1.1265 -0.48978,1.02854 1.91015,3.52642 2.33462,-0.97957 0.60406,1.87749 -2.39992,5.30597 4.40802,2.51421 -1.0122,1.09384 2.49787,4.03252 0.53876,5.12637 5.46922,1.77953 0.99589,2.49789 -1.30609,2.72645 7.2814,5.51819 -2.54685,3.29785 3.16724,1.79586 0.84896,4.50599 -1.53465,-0.049 0.57141,1.92647 -1.95912,0.48977 0.0326,1.48568 v 0 l -9.89356,8.4732 1.33873,1.76321 -3.41213,4.8978 1.6979,6.64469 v 0 l -6.87326,1.25711 0.44081,7.08549 -3.46112,-1.95913 -1.77953,2.80808 -3.78764,-0.34285 -1.82851,-1.74689 -4.11416,0.73468 -1.20813,1.97544 -5.01208,0.11429 -1.27343,-1.87749 -2.20401,0.70202 -0.86529,-1.27344 3.15093,-0.9469 -0.50611,-1.43669 -6.04063,0.62039 0.79998,-0.751 -4.79985,-3.65702 -1.64893,5.82838 -0.83262,0.53876 -0.68569,-2.67747 -3.64072,-0.58773 -0.99588,5.09371 -3.31418,2.04076 -1.12649,-0.96325 v 0 l -0.3755,-3.62436 -8.30994,-0.0816 -0.52244,-1.64893 -6.31816,-2.41625 -3.44479,2.0081 -0.22856,7.03652 -1.94281,-0.6204 -2.3836,-4.03252 0.3755,-4.08152 -2.56318,-0.17958 -1.68159,3.1346 -2.46522,-0.26122 3.36316,-5.17535 -0.83263,-3.68967 -8.08137,3.49376 -2.35095,-4.62027 -4.04885,2.22034 -0.6857,-6.72631 -7.06915,-1.28976 -3.11829,-2.56318 -1.30607,-3.64071 -4.78352,-3.49376 -7.93444,0.34284 -2.79176,-1.59995 0.29387,-2.49787 -3.47744,1.82851 v 0 l -2.98766,-3.11827 -1.46934,-7.64058 -4.3917,-2.54686 v 0 l 2.33461,-5.58349 -1.43668,-5.79574 2.13871,-2.46523 -1.95913,-9.24053 1.38771,-5.43656 -1.97544,-3.18357 3.18357,-5.09372 3.37949,-0.14693 -0.34285,-4.34272 2.3836,0.0326 -0.14693,-1.55098 2.4489,1.61628 0.93058,-2.97133 2.51421,-0.91426 5.46921,2.28564 2.13871,-4.65291 0.79998,1.58362 1.24077,-0.99588 2.17136,1.43668 2.39993,-1.28975 -2.30197,-4.19579 0.16326,-7.62425 -2.48155,-2.46523 1.94279,-6.15491 -5.51819,-0.86527 v 0 l 0.32652,-1.97546 v 0 l 1.53464,-2.02443 -2.56318,-0.71833 0.0164,-2.84073 2.95502,-0.11429 0.16326,-2.12237 -2.0081,-1.89382 2.97133,-4.03253 -2.66114,-6.17123 2.59583,-0.35917 z"
     class="land"
     title="Vinnytsya"
     id="UA-05"
     inkscape:connector-curvature="0"
     style="fill:#9373a4;fill-opacity:1;stroke:#ffffff;stroke-width:0.81630087;stroke-opacity:1" />
  <path
     d="m 171.4119,205.09086 1.91013,-0.68568 8.32627,4.27741 5.53452,-0.17959 0.97956,-1.59995 3.37949,1.30609 v 0 l 2.22034,2.12237 4.09783,0.58775 -3.65703,4.39169 -0.37549,3.90192 2.84072,4.24477 -0.91426,3.21622 -3.42847,6.84061 -1.58362,1.46934 -2.48155,-0.57142 3.91825,4.1958 -1.97545,3.90191 1.51832,1.48567 -2.23667,1.86116 2.84072,-0.3102 1.99179,2.1224 -0.0164,4.9631 3.1999,4.3264 1.48566,-0.29387 0.0979,-1.8122 1.79586,-0.0164 1.06119,2.30197 2.87338,-1.1265 -0.19591,4.57129 6.0896,5.42024 0.40815,3.52643 3.02031,0.68567 3.42847,3.78765 -0.55508,3.46111 -6.56306,2.07341 0.31019,2.92235 4.35905,0.31019 3.88558,2.59584 0.94692,4.19578 -1.3714,2.98768 -6.43244,1.17546 2.17136,1.74689 -0.62039,6.05696 2.57951,2.2693 -0.96323,1.91016 -6.18756,-0.97957 -4.09783,18.10555 -3.33052,-4.63659 -3.60804,0.42448 -0.99589,-4.65292 -5.24064,0.89793 0.19591,1.66526 -7.41201,3.06929 -4.55496,-2.26932 0.52243,1.81219 -2.10606,2.04075 2.59584,2.67747 -6.39981,-1.59996 0.55509,4.68559 1.17548,-0.52245 0.4408,1.51833 -1.53464,2.48156 -9.51808,-1.24079 1.9428,3.96722 -0.52244,3.10195 -3.54274,-0.55508 3.49378,2.0081 -0.6857,2.18767 1.1265,-0.31019 0.75099,2.98767 2.1387,1.37138 -0.68568,1.502 -1.64894,-1.4367 -1.33873,0.84896 1.27343,3.37948 -3.11827,1.68159 0.13061,2.04074 v 0 l -3.03665,-1.24077 -0.32652,-3.41215 -6.07328,-4.03251 -0.31019,3.73865 -3.78764,-1.2571 -8.62013,1.27343 0.45713,-2.79175 -3.73866,-2.84072 -3.1999,-0.27755 0.0979,-7.33038 -2.41624,0.27755 -1.42037,-5.09372 -4.37537,0.96323 -2.28564,-1.59996 -1.4367,-4.09782 -2.87337,0.88161 -0.76732,1.97544 -3.86927,-0.70201 -5.79573,-7.08549 -2.85706,0.17959 v 0 l -1.33873,-1.46935 0.45713,-3.59173 -2.98766,-0.32652 0.31018,-3.65702 -3.05296,-0.8163 -0.34284,-3.39582 2.30196,-2.3836 5.66514,0.14695 2.20401,-2.53054 -5.12637,-2.02444 -4.58762,-5.19167 -0.76732,-3.39581 -2.399919,-1.82851 1.191799,-0.32651 -1.387711,-5.19168 -2.873379,-2.26932 0.685693,-4.48965 -7.216099,-5.53453 -2.367273,-6.87325 h -2.824308 l -0.48978,-3.62437 2.612162,-3.13459 0.979561,-4.45701 -2.922358,-2.39992 1.11017,-3.23255 -2.759096,-1.25711 -0.114283,-1.32241 3.248877,0.53877 -2.187686,-4.08151 1.469342,-2.67747 -3.11827,-3.73866 3.901919,-2.62849 5.697779,-1.17547 0.636714,2.4489 6.612037,0.66938 -1.681579,3.60804 6.367148,0.93058 6.88957,-7.57527 10.82415,-7.39568 -1.2571,-4.66925 2.36727,-5.15903 2.69379,-1.99176 13.43632,-1.79586 7.10182,1.71423 3.68967,-2.62849 1.06119,1.42037 4.13049,-1.2571 2.56318,1.27342 7.23244,-4.86516 z"
     class="land"
     title="Volyn"
     id="UA-07"
     inkscape:connector-curvature="0"
     style="fill:#9373a4;fill-opacity:1;stroke:#ffffff;stroke-width:0.81630087;stroke-opacity:1" />
  <path
     d="m 663.93517,587.42987 25.38696,-7.02019 14.98728,3.52641 4.70189,-1.12649 -2.71011,-11.23231 1.81219,-0.52242 0.97955,-7.41201 -3.52641,0.62038 0.31019,-7.54262 -1.53464,0.0653 -0.55509,-2.22034 -2.39993,1.11017 -0.83262,-4.16313 6.28552,-1.46934 -0.58774,-4.14681 -2.02443,0.14692 -1.11016,-2.61215 -0.39183,-2.90603 1.95912,-0.42448 -1.09384,-6.41613 3.24888,0.17959 -0.0164,3.29786 4.11417,0.0653 6.13858,-3.42846 10.53028,-1.07752 12.52205,4.13049 0.21224,1.48565 10.05684,-5.15901 2.12237,3.55906 3.52642,-0.27753 0.45713,2.61216 8.3426,-2.15503 0.53876,3.85294 4.24476,-0.97957 0.71834,2.85706 -1.74689,0.66936 2.02443,3.59173 -1.06118,1.02854 1.17546,-0.40815 0.62039,2.8897 1.33873,-0.88161 1.07753,3.10196 -0.6857,3.11826 h -2.48156 l 0.19592,1.48567 6.56306,-0.96324 0.16326,2.22034 3.82029,0.0164 0.63672,1.2571 2.84072,-0.40814 -0.049,-1.59995 7.33038,1.37139 6.88958,-1.95913 v 0 l 1.28977,0.53877 -1.0612,4.57127 4.57128,-0.6367 2.31829,9.38745 4.29375,-0.45713 -4.03253,2.15503 0.35917,2.26932 2.13871,-0.34284 -0.96323,2.17136 4.57128,-1.24077 3.59173,6.20389 2.87338,-2.30198 3.11827,2.95501 1.1265,-1.20812 2.97133,4.97943 4.34271,3.10195 1.30609,-2.41626 3.52642,1.30608 -2.26932,9.20787 -2.18769,1.11017 -1.40403,-3.15092 -1.59995,0.40815 0.73466,2.85705 -4.55496,3.15093 -6.18754,-1.38771 2.02441,9.48542 -6.0243,0.17958 8.11404,5.74676 0.62038,3.11827 -1.46934,0.89792 7.7222,3.1346 -1.89381,2.67746 2.77542,2.15504 -6.57939,4.16314 2.3183,3.67335 v 0 l -8.71809,5.45289 -7.73853,14.67708 -1.1265,-0.049 4.60394,-5.45289 -1.12649,-2.48155 -5.17536,-3.82029 -5.68145,0.19591 -13.10979,5.61615 -9.81194,14.92199 -4.55495,2.62848 7.78751,-8.52218 -1.38772,-4.57129 -2.56318,-1.51832 -8.97931,0.24489 -8.19565,1.87751 -8.06507,4.70188 -7.39568,7.99975 -7.93444,3.83661 -15.08524,23.37886 -10.43233,5.15902 2.253,-4.81618 10.15477,-3.68968 7.91812,-13.71385 -2.04075,2.0081 -3.03664,-1.79585 0.32652,-6.35083 -3.29786,-1.86116 -1.79586,-2.23668 0.55509,-1.55096 -1.56729,0.91425 2.66113,8.11404 -5.91001,7.39569 v 0 l -1.58362,0.14693 -0.99589,-14.59546 -6.07328,-2.36727 -2.93869,0.4408 -0.049,-4.81618 -7.39567,1.17547 -2.39993,-5.35493 2.35095,-0.66936 -0.52245,-4.58762 -6.2202,-0.34284 -0.44081,-2.97134 6.0896,-1.91014 1.56731,-2.54686 -0.44081,-3.46111 3.33052,-0.50611 -0.66937,-4.35904 -2.8244,0.24488 -0.94691,-6.62836 -6.30185,-0.84896 -1.77953,-4.11415 -1.24079,0.16326 -0.78364,-6.80796 -1.81219,0.16327 -1.59995,-11.42822 2.13871,-0.39181 -0.19591,-1.32242 -2.02443,-1.02853 -0.55508,-2.71012 2.02442,-1.8775 -5.58349,1.09384 -0.73468,2.92237 -3.99986,-0.24489 -1.25711,1.28975 -3.59173,-13.09347 z"
     class="land"
     title="Zaporizhzhya"
     id="UA-23"
     inkscape:connector-curvature="0"
     style="fill:#9373a4;fill-opacity:1;stroke:#ffffff;stroke-width:0.81630087;stroke-opacity:1" />
  <path
     d="m 338.91682,235.21237 1.38771,-0.19591 3.4448,4.34271 0.57141,3.11828 6.35081,-4.79985 4.75087,2.02443 5.61616,0.16325 -1.50199,0.71835 1.22445,-0.0164 1.63261,10.00784 2.97133,-1.66526 0.84894,4.50599 1.59995,-3.23254 -1.11016,-3.08563 3.42846,-6.46509 4.63658,-2.4979 4.99577,1.27344 5.99165,-6.82428 3.26521,-0.14694 2.46522,7.0855 2.3183,0.55509 -0.32653,6.25286 1.14282,3.0203 2.0081,0.63672 0.93059,6.69366 2.13871,-0.55507 v 0 l 1.95912,0.52243 0.24488,4.86515 -2.38359,4.42435 -4.83251,0.78365 1.50201,7.44467 1.28976,4.62026 1.68157,-2.75911 8.81605,8.62016 -2.53053,3.9019 0.70202,3.31419 -3.46113,-0.65305 -0.0816,3.16725 5.59982,6.15491 -0.751,3.72233 2.71012,2.02443 -3.00398,-0.049 0.89793,3.39582 3.42846,0.27754 1.43669,3.65702 -8.40789,9.53441 3.24887,3.96721 -2.41625,5.12636 2.48155,1.24079 0.22857,2.46523 -1.46934,1.09384 -1.53465,-0.96323 -0.3755,1.53463 2.79175,1.19181 -3.13459,1.97545 0.86527,1.35506 1.66526,-1.1265 v 0 l 3.80396,-0.71834 1.77953,2.18768 v 0 l 0.0654,1.87749 2.57951,0.50611 -0.65304,3.49377 3.73865,0.42448 -0.27753,3.85294 -1.27344,0.48978 2.00811,3.80396 -3.08563,4.1468 2.62849,2.49789 -2.41624,4.13048 2.59583,3.03663 -1.07751,3.18358 3.24887,7.461 -3.49376,2.74277 1.30608,0.71833 -2.41626,3.41214 -6.1549,3.83662 -1.8122,-1.32241 -1.3877,2.74276 -2.53054,-0.17958 1.35507,3.67336 -1.28977,2.92236 0.48979,1.32241 2.59584,0.0326 0.57141,5.35493 v 0 l -5.38758,-0.751 -1.46934,3.16725 -1.37139,-0.70202 -0.79998,1.24078 -3.44479,-1.17548 -0.24489,3.26521 -1.76321,-1.09384 -6.75898,1.61627 -7.15079,-1.11018 1.09385,-3.16724 -3.52642,-3.82029 3.08562,-4.94678 -3.39581,-3.88559 1.46933,-1.81219 -0.86528,-3.18358 -4.39169,-4.08149 -1.56731,2.38359 -5.01208,1.48568 -1.12649,3.91824 -6.12226,-1.33873 -2.87337,3.29785 -2.36729,-3.75499 -2.38359,0.93059 -3.39581,-1.25711 -2.46523,3.64071 -7.24876,-2.82441 -1.19178,2.28565 -8.48955,1.37138 -6.36714,-0.71834 -6.7753,2.74277 v 0 l -2.46523,1.71423 -4.78351,-3.60805 1.40404,-2.74277 -3.85294,0.42447 -2.00811,-3.60805 0.21225,-4.53862 -4.35905,-1.01221 1.48566,-3.86928 -1.42036,-5.37126 3.46112,0.53877 1.6979,-2.77543 2.17136,0.0326 -0.70201,-3.47745 -2.87338,-0.8163 1.46933,-2.43258 -0.53876,-2.56318 2.67747,-1.1918 -0.94691,-2.98765 -2.20401,1.89381 -1.46934,-7.42834 -4.32639,2.67746 -7.10182,-5.43656 1.58362,-0.76732 -1.94279,-1.99178 -3.72234,-0.79997 0.13061,-3.21623 -3.78764,-2.28564 2.71013,-8.48952 -1.76321,0.13061 -4.0162,-6.15492 v 0 l 1.95912,-0.40815 -0.0816,-3.2652 -2.17136,-1.61628 0.66936,-3.29785 2.31829,-1.14282 1.73056,-4.06519 -2.26931,-6.70999 1.17547,-8.58748 -2.12237,-1.87749 1.11015,-2.36728 -2.17135,-4.81618 1.48567,-0.70201 -0.14694,-1.9428 5.82839,-1.09384 -0.27754,-3.15092 2.35094,-1.59995 0.48979,-5.15903 5.48553,-7.18344 -1.86116,-6.41613 2.97133,-0.62038 1.45303,-2.18769 -0.0326,-2.30196 -1.48566,-0.70203 0.73467,-6.66101 1.55097,-0.049 -0.24489,1.74688 2.97133,2.74277 1.71423,-0.0164 -1.82851,-2.43258 -0.0816,-4.31007 4.99576,-1.77953 -0.34284,-1.64893 v 0 l 5.3386,3.62439 2.18769,-4.97944 2.72644,-0.94692 -1.58362,-6.5957 1.74688,-1.22446 3.37948,1.24078 0.39183,3.42846 3.1346,-1.43669 -1.99178,3.15092 8.79973,-1.71423 4.06517,-6.10593 4.68558,-3.18357 z"
     class="land"
     title="Zhytomyr"
     id="UA-18"
     inkscape:connector-curvature="0"
     style="fill:#9373a4;fill-opacity:1;stroke:#ffffff;stroke-width:0.81630087;stroke-opacity:1" />
  <g
     id="stadiums"
     data-country="ukraine"
     data-circle-radius="6"
     data-circle-colors="#a149be,#bea149"
     transform="matrix(1.6326018,0,0,1.6326018,0.2776524,-5.7634229)" />
</svg>
