<?xml version="1.0" encoding="UTF-8" standalone="no"?>
<svg
   viewBox="0 0 576 512"
   version="1.1"
   id="svg1"
   sodipodi:docname="arrow-down-short-wide-solid-grey.svg"
   inkscape:version="1.3.1 (91b66b0783, 2023-11-16)"
   xmlns:inkscape="http://www.inkscape.org/namespaces/inkscape"
   xmlns:sodipodi="http://sodipodi.sourceforge.net/DTD/sodipodi-0.dtd"
   xmlns="http://www.w3.org/2000/svg"
   xmlns:svg="http://www.w3.org/2000/svg">
  <defs
     id="defs1" />
  <sodipodi:namedview
     id="namedview1"
     pagecolor="#ffffff"
     bordercolor="#666666"
     borderopacity="1.0"
     inkscape:showpageshadow="2"
     inkscape:pageopacity="0.0"
     inkscape:pagecheckerboard="0"
     inkscape:deskcolor="#d1d1d1"
     inkscape:zoom="0.80957031"
     inkscape:cx="16.057901"
     inkscape:cy="138.96261"
     inkscape:window-width="1920"
     inkscape:window-height="1106"
     inkscape:window-x="-11"
     inkscape:window-y="-11"
     inkscape:window-maximized="1"
     inkscape:current-layer="svg1" />
  <!--!Font Awesome Free 6.7.2 by @fontawesome - https://fontawesome.com License - https://fontawesome.com/license/free Copyright 2025 Fonticons, Inc.-->
  <path
     d="M151.6 469.6C145.5 476.2 137 480 128 480s-17.5-3.8-23.6-10.4l-88-96c-11.9-13-11.1-33.3 2-45.2s33.3-11.1 45.2 2L96 365.7 96 64c0-17.7 14.3-32 32-32s32 14.3 32 32l0 301.7 32.4-35.4c11.9-13 32.2-13.9 45.2-2s13.9 32.2 2 45.2l-88 96zM320 32l32 0c17.7 0 32 14.3 32 32s-14.3 32-32 32l-32 0c-17.7 0-32-14.3-32-32s14.3-32 32-32zm0 128l96 0c17.7 0 32 14.3 32 32s-14.3 32-32 32l-96 0c-17.7 0-32-14.3-32-32s14.3-32 32-32zm0 128l160 0c17.7 0 32 14.3 32 32s-14.3 32-32 32l-160 0c-17.7 0-32-14.3-32-32s14.3-32 32-32zm0 128l224 0c17.7 0 32 14.3 32 32s-14.3 32-32 32l-224 0c-17.7 0-32-14.3-32-32s14.3-32 32-32z"
     id="path1"
     style="fill:#000000;fill-opacity:0.5" />
</svg>
