<?xml version="1.0" encoding="UTF-8" standalone="no"?>
<svg
   viewBox="0 0 512 512"
   version="1.1"
   id="svg1"
   sodipodi:docname="country.svg"
   width="512"
   height="512"
   inkscape:version="1.3.1 (91b66b0783, 2023-11-16)"
   xmlns:inkscape="http://www.inkscape.org/namespaces/inkscape"
   xmlns:sodipodi="http://sodipodi.sourceforge.net/DTD/sodipodi-0.dtd"
   xmlns="http://www.w3.org/2000/svg"
   xmlns:svg="http://www.w3.org/2000/svg">
  <defs
     id="defs1" />
  <sodipodi:namedview
     id="namedview1"
     pagecolor="#ffffff"
     bordercolor="#666666"
     borderopacity="1.0"
     inkscape:showpageshadow="2"
     inkscape:pageopacity="0.0"
     inkscape:pagecheckerboard="0"
     inkscape:deskcolor="#d1d1d1"
     inkscape:zoom="1.1316964"
     inkscape:cx="224"
     inkscape:cy="255.81065"
     inkscape:window-width="1920"
     inkscape:window-height="1106"
     inkscape:window-x="-11"
     inkscape:window-y="-11"
     inkscape:window-maximized="1"
     inkscape:current-layer="svg1" />
  <!--!Font Awesome Free 6.7.2 by @fontawesome - https://fontawesome.com License - https://fontawesome.com/license/free Copyright 2025 Fonticons, Inc.-->
  <path
     d="m 95.999999,31.999999 c 0,-17.7 -14.3,-31.999999405 -32,-31.999999405 -17.7,0 -32,14.299999405 -32,31.999999405 v 32 V 368 480 c 0,17.7 14.3,32 32,32 17.7,0 32,-14.3 32,-32 V 352 L 160.3,335.9 c 41.1,-10.3 84.6,-5.5 122.5,13.4 44.2,22.1 95.5,24.8 141.7,7.4 l 34.7,-13 C 471.7,339 480,327.1 480,313.7 V 65.999999 c 0,-23 -24.2,-38 -44.8,-27.7 l -9.6,4.8 c -46.3,23.2 -100.8,23.2 -147.1,0 -35.1,-17.6 -75.4,-22 -113.5,-12.5 l -69.000001,17.4 z"
     id="path1" />
</svg>
