<?xml version="1.0" encoding="UTF-8" standalone="no"?>
<svg
   viewBox="0 0 640 640"
   version="1.1"
   id="svg1"
   sodipodi:docname="futbol.svg"
   inkscape:version="1.4 (86a8ad7, 2024-10-11)"
   xmlns:inkscape="http://www.inkscape.org/namespaces/inkscape"
   xmlns:sodipodi="http://sodipodi.sourceforge.net/DTD/sodipodi-0.dtd"
   xmlns="http://www.w3.org/2000/svg"
   xmlns:svg="http://www.w3.org/2000/svg">
  <defs
     id="defs1" />
  <sodipodi:namedview
     id="namedview1"
     pagecolor="#ffffff"
     bordercolor="#666666"
     borderopacity="1.0"
     inkscape:showpageshadow="2"
     inkscape:pageopacity="0.0"
     inkscape:pagecheckerboard="0"
     inkscape:deskcolor="#d1d1d1"
     inkscape:zoom="1.3078125"
     inkscape:cx="411.37395"
     inkscape:cy="323.82318"
     inkscape:window-width="1920"
     inkscape:window-height="1017"
     inkscape:window-x="-8"
     inkscape:window-y="-8"
     inkscape:window-maximized="1"
     inkscape:current-layer="svg1" />
  <!--!Font Awesome Free 7.0.0 by @fontawesome - https://fontawesome.com License - https://fontawesome.com/license/free Copyright 2025 Fonticons, Inc.-->
  <path
     d="M451 292.3C446.6 289.5 443.4 285.3 441.8 280.4C440.2 275.5 440.4 270.2 442.3 265.4L475.6 182C455.7 159.6 431 141.5 403.2 129.3L334.1 186.9C330.1 190.2 325.1 192 320 192C314.9 192 309.8 190.2 305.9 186.9L236.8 129.3C209 141.5 184.3 159.6 164.4 182L197.8 265.4C199.7 270.2 199.9 275.5 198.3 280.4C196.7 285.3 193.4 289.5 189.1 292.3L113 340.2C116 371.1 125.7 399.9 140.6 425.4L230.3 419.4C235.5 419.1 240.6 420.5 244.8 423.6C249 426.7 252 431 253.2 436.1L275.2 523.3C289.6 526.5 304.6 528.1 320 528.1C335.4 528.1 350.3 526.4 364.8 523.3L386.8 436.1C388.1 431.1 391 426.7 395.2 423.6C399.4 420.5 404.5 419.1 409.7 419.4L499.4 425.4C514.4 400 524.1 371.1 527 340.3L451 292.3zM320 64C461.4 64 576 178.6 576 320C576 461.4 461.4 576 320 576C178.6 576 64 461.4 64 320C64 178.6 178.6 64 320 64zM382 285C390.4 291.1 393.9 301.9 390.7 311.8L372.4 368.1C369.2 378 360 384.7 349.6 384.7L290.4 384.7C280 384.7 270.8 378 267.6 368.1L249.3 311.8C246.1 301.9 249.6 291.1 258 285L305.9 250.2C314.3 244.1 325.7 244.1 334.1 250.2L382 285z"
     id="path1"
     style="fill:#ffffff" />
  <path
     style="fill:none;stroke-width:0.382318;stroke-linejoin:bevel"
     d="m 303.56033,527.10752 c -6.97652,-0.52193 -27.48447,-3.43143 -28.02933,-3.97657 -0.0661,-0.0661 -5.16036,-20.21421 -11.32066,-44.77356 -6.16028,-24.55936 -11.84051,-45.89269 -12.62272,-47.40741 -2.00273,-3.87823 -6.64787,-8.13149 -10.95803,-10.03359 -4.8972,-2.16116 -6.57884,-2.12449 -56.4384,1.23049 -23.01925,1.54894 -42.39235,2.60934 -43.05134,2.35647 -1.70105,-0.65276 -12.69959,-23.56209 -16.76545,-34.92151 -1.88159,-5.25687 -4.50769,-13.9847 -5.83579,-19.39518 -2.38205,-9.70416 -5.52999,-28.66814 -4.92207,-29.65177 0.17192,-0.27817 17.24248,-11.11984 37.93458,-24.09261 40.84063,-25.60473 44.53015,-28.38858 46.83964,-35.34181 2.74432,-8.26237 2.48135,-9.16458 -16.26632,-55.80655 -10.48195,-26.07788 -16.84237,-42.86893 -16.56714,-43.73611 0.70058,-2.20732 17.76474,-18.16659 27.44108,-25.6643 10.73628,-8.31899 21.5309,-15.13881 34.02146,-21.49406 8.23441,-4.1897 9.64194,-4.68567 10.7049,-3.77212 20.29669,17.44388 70.93572,58.64512 73.46288,59.77132 5.27169,2.34927 13.77105,2.09049 18.75264,-0.57096 2.10275,-1.12341 19.45802,-15.09986 38.56727,-31.05879 l 34.74409,-29.01622 4.25233,1.86514 c 11.35188,4.97914 31.04768,17.28662 42.73619,26.70493 8.17857,6.59008 23.63128,21.43514 24.20976,23.25774 0.27317,0.86071 -6.12664,17.75466 -16.563,43.72233 l -17.0082,42.31964 -0.0183,6.11709 c -0.0155,5.15544 0.29868,6.71811 1.99831,9.94026 1.10916,2.10275 2.99498,4.74494 4.19071,5.87153 1.19573,1.1266 19.20631,12.78224 40.02351,25.90144 20.8172,13.11919 38.25483,24.24044 38.75028,24.71389 2.21287,2.1146 -4.09859,32.45669 -10.47813,50.37323 -3.82984,10.75586 -14.73249,33.29099 -16.41963,33.93841 -0.65884,0.25282 -20.05279,-0.802 -43.09765,-2.34404 -23.04486,-1.54204 -44.34912,-2.81146 -47.3428,-2.82092 -8.70257,-0.0275 -15.32198,3.73271 -19.67485,11.17649 -1.17138,2.00317 -5.67079,18.53227 -13.03953,47.90225 l -11.25099,44.84372 -10.40794,1.63467 c -18.40976,2.89145 -33.10911,3.54194 -50.55131,2.23704 z M 356.9123,383.82747 c 4.70052,-1.3959 9.66432,-5.01889 12.60093,-9.19718 1.4265,-2.02966 5.50504,-13.28807 12.17934,-33.61989 9.33024,-28.42253 10.03986,-30.99775 10.10891,-36.68543 0.0631,-5.19366 -0.23824,-6.75338 -1.99587,-10.33213 -1.13857,-2.31828 -3.20309,-5.28654 -4.58781,-6.59615 -4.64419,-4.39223 -51.40455,-37.92579 -55.65985,-39.91571 -3.26024,-1.52458 -5.40856,-1.96662 -9.55795,-1.96662 -4.14939,0 -6.29771,0.44204 -9.55795,1.96662 -4.2553,1.98992 -51.01566,35.52348 -55.65985,39.91571 -1.38472,1.30961 -3.44924,4.27787 -4.58781,6.59615 -1.75763,3.57875 -2.05893,5.13847 -1.99587,10.33213 0.0691,5.68768 0.77867,8.2629 10.10891,36.68543 10.41255,31.71958 11.59777,34.40986 17.11811,38.85539 6.12492,4.93241 7.36672,5.07564 44.24452,5.10327 27.68809,0.0207 33.97741,-0.17203 37.24224,-1.14159 z"
     id="path2" />
</svg>
