<?xml version="1.0" encoding="UTF-8" standalone="no"?>
<svg
   viewBox="0 0 640 640"
   version="1.1"
   id="svg1"
   sodipodi:docname="home.svg"
   inkscape:version="1.4 (86a8ad7, 2024-10-11)"
   xmlns:inkscape="http://www.inkscape.org/namespaces/inkscape"
   xmlns:sodipodi="http://sodipodi.sourceforge.net/DTD/sodipodi-0.dtd"
   xmlns="http://www.w3.org/2000/svg"
   xmlns:svg="http://www.w3.org/2000/svg">
  <defs
     id="defs1" />
  <sodipodi:namedview
     id="namedview1"
     pagecolor="#ffffff"
     bordercolor="#666666"
     borderopacity="1.0"
     inkscape:showpageshadow="2"
     inkscape:pageopacity="0.0"
     inkscape:pagecheckerboard="0"
     inkscape:deskcolor="#d1d1d1"
     inkscape:zoom="0.92476309"
     inkscape:cx="313.59383"
     inkscape:cy="282.77513"
     inkscape:window-width="1920"
     inkscape:window-height="1017"
     inkscape:window-x="-8"
     inkscape:window-y="-8"
     inkscape:window-maximized="1"
     inkscape:current-layer="svg1" />
  <!--!Font Awesome Free 7.0.0 by @fontawesome - https://fontawesome.com License - https://fontawesome.com/license/free Copyright 2025 Fonticons, Inc.-->
  <path
     d="M341.8 72.6C329.5 61.2 310.5 61.2 298.3 72.6L74.3 280.6C64.7 289.6 61.5 303.5 66.3 315.7C71.1 327.9 82.8 336 96 336L112 336L112 512C112 547.3 140.7 576 176 576L464 576C499.3 576 528 547.3 528 512L528 336L544 336C557.2 336 569 327.9 573.8 315.7C578.6 303.5 575.4 289.5 565.8 280.6L341.8 72.6zM304 384L336 384C362.5 384 384 405.5 384 432L384 528L256 528L256 432C256 405.5 277.5 384 304 384z"
     id="path1"
     style="fill:#ffffff" />
  <path
     style="fill:none;stroke-width:0.540679;stroke-linejoin:bevel"
     d="m 256.82253,475.91144 c 0,-47.99382 0.13572,-51.68731 2.1357,-58.12299 5.0269,-16.17586 18.73732,-28.59426 35.49472,-32.14981 7.42565,-1.57556 43.83693,-1.57488 51.25806,9.5e-4 14.51182,3.08151 26.42106,12.66647 33.08958,26.6316 l 4.00016,8.37709 0.31799,53.25688 0.318,53.25688 h -63.30711 -63.3071 z"
     id="path2" />
</svg>
