<?xml version="1.0" encoding="UTF-8" standalone="no"?>
<svg
   viewBox="0 0 640 640"
   version="1.1"
   id="svg1"
   sodipodi:docname="right-from-bracket.svg"
   inkscape:version="1.4 (86a8ad7, 2024-10-11)"
   xmlns:inkscape="http://www.inkscape.org/namespaces/inkscape"
   xmlns:sodipodi="http://sodipodi.sourceforge.net/DTD/sodipodi-0.dtd"
   xmlns="http://www.w3.org/2000/svg"
   xmlns:svg="http://www.w3.org/2000/svg">
  <defs
     id="defs1" />
  <sodipodi:namedview
     id="namedview1"
     pagecolor="#ffffff"
     bordercolor="#666666"
     borderopacity="1.0"
     inkscape:showpageshadow="2"
     inkscape:pageopacity="0.0"
     inkscape:pagecheckerboard="0"
     inkscape:deskcolor="#d1d1d1"
     inkscape:zoom="1.3078125"
     inkscape:cx="320.38232"
     inkscape:cy="320"
     inkscape:window-width="1920"
     inkscape:window-height="1017"
     inkscape:window-x="-8"
     inkscape:window-y="-8"
     inkscape:window-maximized="1"
     inkscape:current-layer="svg1" />
  <!--!Font Awesome Free 7.0.0 by @fontawesome - https://fontawesome.com License - https://fontawesome.com/license/free Copyright 2025 Fonticons, Inc.-->
  <path
     d="M569 337C578.4 327.6 578.4 312.4 569 303.1L425 159C418.1 152.1 407.8 150.1 398.8 153.8C389.8 157.5 384 166.3 384 176L384 256L272 256C245.5 256 224 277.5 224 304L224 336C224 362.5 245.5 384 272 384L384 384L384 464C384 473.7 389.8 482.5 398.8 486.2C407.8 489.9 418.1 487.9 425 481L569 337zM224 160C241.7 160 256 145.7 256 128C256 110.3 241.7 96 224 96L160 96C107 96 64 139 64 192L64 448C64 501 107 544 160 544L224 544C241.7 544 256 529.7 256 512C256 494.3 241.7 480 224 480L160 480C142.3 480 128 465.7 128 448L128 192C128 174.3 142.3 160 160 160L224 160z"
     id="path1"
     style="fill:#ffffff" />
</svg>
