<svg width="300" height="300" viewBox="0 0 300 300" fill="none" xmlns="http://www.w3.org/2000/svg">
<g clip-path="url(#clip0_1444_13723)">
<path fill-rule="evenodd" clip-rule="evenodd" d="M21.0562 147.983V152.082C21.0562 177.945 30.3896 204.153 44.2801 223.89C55.4363 239.743 69.0628 252.104 85.7124 261.831C103.672 272.32 126.682 278.944 147.918 278.944C159.757 278.944 168.637 278.207 180.122 275.413C211.24 267.847 237.402 249.694 255.595 223.97C269.835 203.839 278.874 177.403 278.874 152.082C278.874 139.965 278.132 131.662 275.338 119.873C271.598 104.08 264.595 88.8851 255.65 76.175C252.966 72.3599 249.982 68.5549 246.949 65.0636C246.292 64.3066 245.684 63.7388 245.057 62.9967C239.972 56.9953 229.921 48.6679 223.895 44.3997C204.242 30.4744 177.806 21.1211 152.007 21.1211C146.275 21.1211 142.475 21.2008 136.722 21.7835L134.157 22.0823C128.604 22.8194 125.267 23.3225 119.799 24.6522C111.596 26.6444 103.184 29.4783 96.2411 32.7953C88.7106 36.3911 82.246 40.0169 76.1001 44.3449C63.4498 53.2549 53.2598 63.4649 44.3249 76.0953C30.3896 95.7979 21.0463 122.149 21.0463 147.983M166.082 48.2894C166.107 49.8981 165.21 50.954 167.188 51.3773C168.398 51.6363 169.598 51.8505 170.828 52.1144C172.432 52.4581 172.99 52.2738 173.353 50.7498C173.687 49.3552 173.951 48.1201 172.447 47.7665C167.407 46.5961 162.003 46.6658 162.451 40.3556C162.64 37.6711 163.577 35.3004 165.051 34.1001C166.983 32.5213 169.777 33.0692 172.288 33.5872C177.124 34.5882 181.974 35.0165 180.475 42.4225C179.818 42.542 176.237 41.9194 175.271 41.79C175.161 38.5925 176.964 39.3446 170.514 37.965C168.876 37.6114 168.388 37.7956 167.989 39.3645C166.774 44.1706 171.062 41.5359 176.008 44.0909C177.95 45.097 179.185 46.8351 178.897 49.8433C178.184 57.2393 174.449 57.6228 168.951 56.4723C162.929 55.2172 159.807 54.7491 160.887 47.5673L166.087 48.2894H166.082ZM105.171 39.8077C107.387 39.22 109.574 38.4481 111.745 37.7707C117.114 36.0973 123.121 33.1688 124.909 42.5868C125.372 45.0372 124.535 45.3858 125.128 46.0482C125.949 46.9696 126.288 47.2684 126.861 48.6929C128.345 52.3933 128.435 55.5858 124.918 57.6377C124.012 58.1657 112.945 61.7566 111.969 61.7815L105.171 39.8077ZM190.177 42.9305C190.416 42.2382 191.781 39.22 192.194 38.8067L208.465 46.6409L206.548 50.7448C204.7 50.2567 202.394 48.4837 200.656 48.0902L192.712 64.6502L187.981 62.3094L195.835 45.7992C195.526 45.4655 193.569 44.6089 192.966 44.32C192.214 43.9614 190.65 43.3488 190.172 42.9305H190.177ZM95.5986 44.7284L98.3976 49.8334C99.2393 51.4769 100.201 53.2948 101.112 54.8985L106.486 65.0188L101.829 67.4642L90.9767 47.1539L95.5986 44.7234V44.7284ZM133.634 55.2073C134.177 52.9362 134.974 50.5008 135.621 48.2596L139.661 34.2595C140.467 31.4107 140.074 31.8291 141.633 31.7643C143.092 31.7045 144.561 31.585 146.016 31.5651C146.364 32.7953 149.9 41.3019 150.518 42.9255C151.091 44.4346 154.881 53.5388 154.956 54.2162L149.701 54.4353L148.451 51.2428L139.87 51.6961L138.834 55.023L133.634 55.2073ZM231.555 63.6989C231.366 64.2269 227.695 68.5001 226.983 69.4016C226.236 70.3478 225.454 71.2991 224.702 72.1757C222.416 74.8402 219.886 79.0387 216.628 79.2379C213.645 79.4222 211.523 77.0017 209.989 75.8064C209.033 75.0643 207.997 74.2376 207.186 73.4158C206.428 72.6488 205.597 71.6627 205.343 70.2134C204.795 67.1105 207.28 64.8544 208.47 63.3204C209.198 62.3791 209.999 61.4229 210.747 60.5463L216.484 53.5787C216.838 53.1653 217.246 52.5975 217.649 52.2389C218.192 52.5676 221.445 55.2272 221.684 55.6804C221.22 56.0639 220.354 57.2194 219.955 57.7274L213.162 65.9551C212.624 66.6225 212.036 67.3546 211.504 67.9871C209.77 70.0291 210.657 70.3777 212.007 71.4535C214.88 73.7445 215.438 75.2187 217.346 72.7385C218.426 71.334 219.607 69.9594 220.732 68.6146L227.556 60.4318L231.55 63.694L231.555 63.6989ZM78.2218 68.4503C78.3214 67.1653 78.0126 64.7697 77.913 63.3902C77.7885 61.7068 77.669 60.0433 77.5544 58.3649C77.3701 55.7103 76.9916 56.6317 79.198 54.8039C79.8056 54.3008 81.5736 52.7718 82.2709 52.473L83.257 66.2888C84.0639 66.8316 85.5879 67.0558 86.6139 67.3546L96.3506 70.1735C96.7291 70.3478 96.5 70.2134 96.6893 70.4026C96.1514 70.7413 95.5787 71.2991 95.0159 71.7175C91.156 74.626 92.8145 74.4766 89.3631 73.4756C87.7643 73.0124 86.2802 72.604 84.7014 72.1259C83.3168 71.7075 81.5786 71.1447 80.1791 70.8409C81.1055 72.1856 86.0511 78.0576 86.3798 78.6204C86.0162 79.0686 82.6992 81.758 82.1514 81.9324C81.9173 81.4443 81.6434 81.1753 81.2848 80.742L78.6053 77.4101C77.395 75.9409 76.2396 74.4916 74.9995 72.9576C74.3918 72.2055 68.0667 64.5456 67.8326 63.9231C68.4103 63.6242 69.3516 62.7875 69.9194 62.3343C70.6366 61.7615 71.2093 61.2735 71.8618 60.7455C72.4495 61.2187 72.9724 62.0355 73.4555 62.6182C73.9934 63.2656 74.5263 63.938 75.0493 64.5755C76.0951 65.8455 77.1261 67.2998 78.2218 68.4503ZM66.4181 131.956C66.3833 129.884 69.3765 121.178 70.1784 119.161C71.7771 115.127 73.5601 111.367 75.5523 107.861C87.3012 87.1768 107.855 71.1597 133.604 66.0547C143.481 64.0974 154.253 63.9729 164.269 65.6762C178.807 68.1515 193.385 74.7306 204.282 83.9793C205.029 84.6168 205.796 85.2892 206.573 85.9217L208.719 87.874C209.521 88.7257 210.089 89.2337 210.836 89.9907C215.627 94.8317 219.891 100.275 223.482 106.307C242.636 138.465 238.572 178.334 214.322 206.334C197.777 225.434 171.989 237.377 143.874 235.375C138.889 235.021 134.087 234.244 129.476 233.099C126.647 232.397 119.39 230.295 117.089 228.98C117.418 228.776 119.759 228.527 120.411 228.402C121.487 228.193 122.448 227.919 123.444 227.61C126.174 226.769 127.578 225.529 128.992 225.932C133.146 227.102 137.489 227.909 141.991 228.372C160.031 230.23 176.506 225.922 191.368 216.987C195.795 214.328 202.733 208.864 206.294 204.999C206.902 204.337 207.554 203.749 208.167 203.047C218.491 191.238 225.494 178.035 227.899 161.291C234.01 118.778 204.914 80.0298 164.274 72.6139C155.025 70.9256 145.244 70.8658 136.005 72.5492C111.666 76.9918 93.2279 91.4898 81.8525 110.61C79.9998 113.728 78.1969 117.373 76.8024 120.994C74.5412 126.861 74.7604 127.404 73.1567 132.673L66.4231 131.961L66.4181 131.956ZM235.778 74.5015C236.919 73.8491 238.273 72.3998 239.444 71.842C240.32 72.6538 249.405 85.0501 249.524 85.3489L229.368 88.9697C229.548 89.4827 232.626 93.3874 233.303 94.3088C233.662 94.7969 234.299 95.5639 234.528 96.1217C233.607 96.6346 231.585 98.4923 230.838 98.7414C230.315 98.1836 230.011 97.6656 229.563 97.0729L220.787 85.2792C221.808 84.7613 239.927 82.1316 240.933 81.5887C240.395 80.3984 236.426 75.8811 235.773 74.4966L235.778 74.5015ZM49.9677 85.8271C50.2018 85.3091 50.7945 84.6467 51.168 84.1586C51.6212 83.5659 51.9151 83.1476 52.3932 82.5151L59.7842 72.7135C60.5562 73.0871 62.4537 74.7157 63.5046 75.398C63.2057 76.1949 57.8169 82.9135 56.8457 84.3429C57.1147 84.6865 60.0282 86.9377 60.4914 87.0722C61.3281 86.2255 65.5864 80.1344 66.2289 79.6264C67.4491 80.2739 68.7091 81.5289 69.8746 82.3059C69.3367 83.3269 65.3523 88.3273 64.2317 89.926C64.5405 90.3194 67.3843 92.4859 67.9073 92.6852C68.1962 92.0975 69.0976 91.0217 69.5757 90.3991L74.5662 83.8698C75.4078 84.2682 77.156 85.8619 78.2168 86.5393C78.0176 87.0821 73.9834 92.2867 73.3111 93.1782C72.7084 93.9751 68.6394 99.4635 68.2858 99.6976C67.2947 99.0352 50.4757 86.3749 49.9777 85.8271H49.9677ZM54.2061 201.672C54.2061 201.672 54.1513 201.617 54.1413 201.603L52.7717 199.142C49.4896 192.578 47.1338 186.512 45.0719 179.25C38.8663 157.396 39.9172 132.663 48.0851 111.536C48.7923 109.703 52.1342 101.53 52.9709 100.724C53.3544 100.918 54.8784 102.023 55.1125 102.357C54.4302 104.026 53.454 105.843 52.702 107.547C50.2964 113.015 48.3541 118.588 46.8898 124.555C41.2171 147.634 43.4832 173.747 53.8574 195.048C54.6444 196.662 55.6155 198.42 56.3327 200.034C56.0488 200.397 54.6294 201.458 54.2011 201.677L54.2061 201.672ZM254.928 179.031C253.793 183.135 252.428 187.199 250.874 190.959C249.848 193.45 247.064 199.74 245.754 201.777C245.371 201.622 243.901 200.517 243.573 200.163C243.792 199.336 245.54 196.124 246.073 195.038C246.924 193.31 247.691 191.502 248.399 189.719C256.995 168.134 258.449 145.453 252.627 122.921C251.113 117.064 249.345 112.428 247.024 107.069C246.656 106.222 246.302 105.495 245.908 104.638C245.605 103.976 244.952 102.85 244.793 102.218C245.092 101.884 246.611 100.748 246.964 100.599C250.032 105.878 253.847 116.631 255.322 122.403C260.118 141.19 260.113 160.315 254.928 179.031ZM76.8821 136.135C77.4349 131.946 79.2129 126.821 80.5825 123.136C83.3068 115.819 88.1279 107.885 93.0038 102.223L96.9383 97.825L101.202 93.8904C103.687 91.5994 107.806 88.6261 110.769 86.7933C122.682 79.4372 135.846 75.6221 150.647 75.6221C173.398 75.6221 191.637 86.5243 202.554 97.4415C224.089 118.987 230.818 151.803 217.644 180.959C215.164 186.452 210.776 193.514 206.872 197.922C206.538 198.301 206.164 198.724 205.791 199.167L203.585 201.608C200.766 204.651 195.97 208.69 192.448 211.095C174.16 223.591 152.157 227.67 130.686 221.908C128.046 221.201 129.002 221.071 126.761 222.177C125.526 222.789 124.465 223.282 123.126 223.731C117.084 225.768 110.415 225.962 104.319 223.95C102.511 223.352 98.9903 221.948 97.9045 220.927C98.3229 220.12 99.3588 218.984 99.9465 218.173C100.609 217.261 101.271 216.449 101.954 215.533L106.008 210.134L103.582 208.157C102.332 207.25 95.1404 210.388 84.1585 204.237L82.5548 203.236C80.6423 201.976 77.4449 199.262 76.1201 197.434C76.2346 197.285 85.9913 190.601 87.1766 190.118C87.092 189.774 85.2791 186.582 84.9554 186.362C84.3677 185.964 79.3773 185.501 73.1517 180.675C70.8557 178.897 69.2022 177.114 67.4043 174.678C66.5227 173.488 63.6689 168.781 63.4847 166.919L76.8621 164.219C76.8621 163.527 76.5982 162.456 76.4836 161.754C76.0404 159.015 76.5533 160.071 74.3371 158.452C73.7942 158.054 73.3459 157.655 72.818 157.237C70.9752 155.787 69.1275 153.636 67.6184 151.509C64.6252 147.291 62.4338 141.414 62.3491 134.87C62.5882 134.516 62.4338 134.616 63.1111 134.685C63.405 134.715 63.7088 134.76 64.0076 134.795C67.1403 135.138 74.7355 136.075 76.8821 136.135ZM53.6931 213.83C54.0118 213.401 65.7806 204.636 66.4082 204.382C67.22 205.736 72.7134 212.744 73.0123 213.461L70.5669 215.274C70.029 214.846 66.697 210.174 65.9649 209.218C65.1581 209.566 64.2915 210.552 63.4847 210.931C63.7685 211.812 66.9361 215.433 67.2399 216.29C66.8166 216.698 65.2726 217.864 64.7646 218.138L60.9596 212.978C59.7194 213.516 56.9403 216.126 55.755 216.648C55.0677 215.772 54.2708 214.716 53.6981 213.835L53.6931 213.83ZM228.86 210.762C230.594 208.451 232.377 204.636 236.157 206.603C238.752 207.953 238.876 209.228 239.359 209.676C239.359 209.676 246.626 211.723 244.111 216.589L239.13 223.492C238.881 223.785 239.09 223.621 238.762 223.84L229.289 216.883C228.357 216.16 226.893 215.289 226.151 214.512L228.86 210.762ZM220.717 220.249C221.036 219.612 221.479 219.378 221.967 218.89C222.411 218.446 222.715 218.048 223.153 217.669C223.711 217.884 224.512 218.944 224.971 219.423L230.076 224.702C234.11 228.432 232.964 230.23 229.822 233.303C226.305 236.74 224.592 237.143 221.151 233.358C220.02 232.113 219.084 231.256 217.719 229.822L214.791 226.744C214.517 226.465 214.591 226.589 214.397 226.261C214.711 225.668 216.28 224.323 216.907 223.805L224.637 231.645C224.981 232.013 225.538 232.73 226.286 232.232C226.619 232.013 227.277 231.291 227.63 230.967C229.373 229.364 229.403 229.269 228.238 228.044L220.722 220.244L220.717 220.249ZM74.9098 218.491C77.3353 217.684 79.3773 220.205 80.3634 221.141C85.0649 225.613 83.1026 227.068 79.0735 231.186C75.3282 235.021 73.7444 237.203 69.0827 232.282C68.0218 231.161 65.6512 229.478 66.5526 226.848C67.0507 225.399 69.3815 223.168 70.3328 222.301C71.8319 220.932 72.7583 219.198 74.9098 218.486V218.491ZM201.722 235.226C202.544 234.852 203.749 233.841 204.611 233.313L211.887 243.548L216.608 240.306C217.077 239.972 217.699 239.504 218.137 239.29C218.461 239.539 219.731 241.416 219.916 241.84C219.482 242.308 218.202 243.075 217.61 243.498L213.018 246.696C212.38 247.149 211.389 247.916 210.761 248.239C210.204 247.746 201.916 235.803 201.722 235.231V235.226ZM87.844 229.787C89.0592 229.408 90.2844 229.872 91.1809 230.409C91.9778 230.888 92.8593 231.54 93.6114 232.073C95.0557 233.094 97.1873 234.374 96.3905 237.148C96.0717 238.264 95.4193 239.001 94.8465 239.847C93.447 241.934 91.1311 245.894 89.2087 246.496C86.9027 247.218 84.7113 245.112 83.3766 244.22C78.2666 240.809 80.5626 238.543 83.785 233.98C84.9056 232.392 85.8369 230.409 87.844 229.782V229.787ZM101.595 237.412C102.183 237.512 112.423 242.308 112.906 242.676L111.556 245.495L107.577 243.712L102.242 255.068L98.9853 253.593L102.955 244.962C103.283 244.25 104.065 242.836 104.23 242.079L100.36 240.186L101.595 237.417V237.412ZM202.449 246.611C202.728 247.507 203.261 248.135 203.445 249.285C203.998 252.732 200.656 253.643 198.126 254.883C192.986 257.413 191.955 253.598 190.217 249.943C188.31 245.934 186.198 242.985 191.253 240.634C192.697 239.962 194.958 238.557 196.826 238.777C198.485 238.971 200.053 240.908 200.397 242.552L197.254 244.27C195.97 241.376 196.024 241.914 192.633 243.513C191.119 244.225 192 245.196 192.558 246.377C193.056 247.433 193.529 248.364 194.017 249.425C195.676 253.011 195.287 252.787 199.067 250.904C200.542 250.172 199.496 249.151 199.057 247.98C199.471 247.667 201.886 246.696 202.449 246.606V246.611ZM165.111 248.802C165.345 248.568 165.205 248.678 165.529 248.533C165.579 248.513 165.903 248.434 165.972 248.419C166.291 248.349 166.54 248.304 166.869 248.234C167.442 248.115 168.014 247.961 168.587 247.901L171.291 260.183L178.847 258.634C178.777 259.52 179.275 260.671 179.37 261.712L168.348 264.018L165.111 248.802ZM112.677 259.44C112.786 258.424 116.526 244.932 116.91 244.235C118.14 244.38 124.988 246.342 125.949 246.86C127.195 247.527 128.036 248.767 127.837 250.715C127.762 251.447 127.493 252.373 127.249 253.006C126.746 254.301 126.263 254.49 126.144 254.769C126.009 255.088 126.203 256.696 126.049 257.413C124.43 265.053 118.783 260.506 112.672 259.44H112.677ZM153.128 249.574C153.212 251.337 153.601 261.303 153.93 262.115C155.728 262.18 160.29 261.507 161.604 261.841C161.34 262.718 161.694 263.928 161.624 264.904L150.388 265.512L149.537 249.754L153.128 249.579V249.574ZM137.155 248.782L141.01 249.186L144.736 265.442L141.17 265.068L140.617 262.762L134.775 262.175L133.779 264.202C133.779 264.202 133.734 264.262 133.709 264.316L130.188 263.913L137.155 248.782Z" fill="#FF5311"/>
<path fill-rule="evenodd" clip-rule="evenodd" d="M82.4203 152.629C82.8586 163.153 85.3588 171.341 89.2186 179.633C91.425 184.38 94.4182 188.773 97.4663 192.563L100.435 196.014C102.063 197.832 106.028 201.458 108.045 203.022C112.941 206.822 118.016 209.954 124.027 212.445C142.455 220.085 161.739 219.123 179.564 210.781C183.225 209.068 187.304 206.543 190.098 204.376C191.178 203.54 193.818 201.537 194.774 200.586L202.942 191.95C206.862 186.79 209.726 182.348 212.365 175.968C219.602 158.506 219.338 137.379 210.707 120.431C208.386 115.874 204.815 109.992 201.458 106.316L199.486 104.055C199.142 103.672 198.798 103.418 198.455 103.044C197.763 102.292 197.085 101.739 196.413 100.987L194.192 98.9751C193.385 98.3426 192.732 97.7101 191.881 97.0527C186.94 93.2227 181.979 90.1498 175.893 87.6297C157.565 80.0345 138.092 80.931 120.361 89.2931C116.223 91.2455 108.642 96.0167 105.146 99.4881C104.723 99.9065 104.419 100.121 103.981 100.514C102.168 102.133 98.5271 106.122 96.9732 108.119C93.1632 113.03 90.0554 118.075 87.5502 124.101C84.0589 132.504 81.987 142.38 82.4154 152.634M133.33 94.946H174.3L174.29 105.554C173.498 105.908 172.427 106.68 171.6 107.188C170.285 107.99 164.244 111.914 163.422 112.213L163.397 105.823H144.218L144.148 113.618L133.335 113.603V94.946H133.33ZM186.791 177.761C187.104 178.015 186.84 177.676 186.98 178.065C187.179 178.612 187.01 188.773 186.99 188.997L112.931 188.972C112.736 186.198 112.901 182.796 112.901 179.952C112.901 170.464 112.721 118.015 113.02 117.338C114.255 117.044 120.471 117.273 122.234 117.273H184.938C185.306 117.273 185.675 117.258 186.039 117.258C187.144 117.258 186.875 117.293 186.98 117.522C187.144 119.973 186.995 123.046 186.995 125.581C186.995 127.941 187.324 127.493 186.088 128.783C184.569 130.372 176.536 138.59 176.118 138.764L176.078 128.195L144.203 128.205L144.263 145.473H169.409C169.14 146.095 167.701 147.36 167.198 147.863L160.429 154.617C158.736 156.31 159.064 156.37 157.62 156.355H144.208L144.213 178.08H176.113L176.157 167.028C176.621 167.267 178.413 169.194 178.837 169.648C179.703 170.584 180.59 171.416 181.496 172.317C182.238 173.059 186.581 177.333 186.786 177.756L186.791 177.761ZM133.39 192.737C133.933 192.538 143.152 192.548 144.208 192.677V205.118L133.33 205.069L133.395 192.732L133.39 192.737Z" fill="#FF5311"/>
<path fill-rule="evenodd" clip-rule="evenodd" d="M148.327 15.1994C147.833 15.3189 144.995 15.1695 144.223 15.1994L130.721 16.4545L125.202 17.3559C122.787 17.8191 120.58 18.3022 118.215 18.8401C117.587 18.9845 117.149 19.1539 116.596 19.2684C115.949 19.4029 115.51 19.5523 114.963 19.6868L111.66 20.6181C108.448 21.669 105.236 22.5804 102.148 23.8106L87.0023 30.6587C85.3538 31.4456 83.77 32.4417 82.1613 33.3332L76.9169 36.5605C76.5931 36.7548 76.6081 36.7647 76.3491 36.944C72.0061 39.9423 68.9631 42.059 64.7347 45.4108C64.3213 45.7395 64.0175 45.9935 63.6041 46.3272L54.4849 54.6944C52.2388 56.9555 49.5991 59.5802 47.6169 62.0355C46.9545 62.8523 46.3867 63.5546 45.6944 64.3465C43.7023 66.6275 41.9591 69.0829 40.1811 71.5382L36.8043 76.4938C34.9367 79.1434 31.9484 84.2284 30.534 87.1619C29.1693 89.9908 27.6104 92.8346 26.4052 95.7382C26.181 96.2761 25.9868 96.6347 25.7776 97.1626C23.5265 102.87 21.3351 108.389 19.7662 114.375C18.8747 117.782 16.4692 127.942 16.2202 131.866C16.1753 132.589 16.1056 132.997 16.001 133.699L15.4034 139.526C15.3137 140.682 15.3685 142.435 15.1992 143.555C14.9999 144.855 15.1643 146.345 15.1245 147.714C15.0896 148.919 14.8705 150.468 15.0647 151.728C15.2589 153.023 15.0796 154.443 15.1195 155.773L15.3735 159.752C15.5179 161.141 15.5727 162.287 15.6773 163.681L16.3696 169.275C17.0768 173.418 17.8239 177.706 18.7552 181.78L20.5332 188.335C21.5841 191.547 22.4955 194.759 23.7257 197.847C25.2945 201.792 26.9281 205.751 28.8257 209.546L33.2483 217.829C33.7513 218.73 34.2842 219.602 34.847 220.464C35.1459 220.917 35.355 221.305 35.619 221.744C35.8929 222.202 36.1718 222.57 36.4756 223.073C36.6699 223.397 36.6798 223.382 36.8641 223.641L38.154 225.628C38.7617 226.5 39.2995 227.237 39.9022 228.114C42.1932 231.43 44.7282 234.459 47.2533 237.561C49.1509 239.892 51.1978 242.054 53.3344 244.185L55.4462 246.307C56.1683 246.969 56.8058 247.652 57.4981 248.354L64.2665 254.291C69.745 259.077 80.5825 266.309 87.082 269.451C87.9834 269.885 88.9098 270.393 89.886 270.881L98.527 274.81C102.561 276.504 106.765 278.092 111.018 279.258C112.084 279.552 113.229 279.935 114.295 280.214C118.688 281.364 123.489 282.585 128.101 283.212C131.956 283.735 135.532 284.268 139.441 284.572C140.597 284.661 142.35 284.607 143.471 284.776C144.77 284.975 146.26 284.811 147.629 284.851C148.835 284.886 150.383 285.105 151.643 284.911C152.938 284.716 154.358 284.896 155.688 284.856L163.597 284.298C164.787 284.208 166.122 283.984 167.347 283.815L174.703 282.704C177.118 282.241 179.325 281.758 181.691 281.22C182.318 281.076 182.756 280.906 183.309 280.792L194.645 277.375L200.801 275.059C202.833 274.208 204.71 273.391 206.682 272.469C207.22 272.215 207.564 272.096 208.092 271.832L212.903 269.401C215.961 267.942 220.682 265.098 223.556 263.116L232.805 256.517C235.001 254.878 237.123 253.095 239.18 251.283C239.399 251.088 239.509 250.939 239.728 250.735C240.136 250.351 240.4 250.212 240.823 249.778C241.282 249.31 241.481 249.166 241.979 248.748C242.87 248 243.717 246.969 244.594 246.173C244.623 246.148 244.708 246.068 244.738 246.043C244.758 246.023 244.788 245.993 244.808 245.973L245.694 245.082C245.724 245.052 245.804 244.977 245.834 244.947C245.854 244.928 245.884 244.898 245.903 244.878L246.227 244.519C246.89 243.797 247.572 243.159 248.274 242.467L250.296 240.256C251.452 238.762 253.668 236.501 255.117 234.558L257.926 230.947C258.569 230.086 259.092 229.384 259.724 228.507C261.502 226.052 263.196 223.571 264.744 220.957C269.73 212.55 272.33 207.4 275.941 198.41C279.048 190.68 281.434 181.94 282.789 173.702C282.903 173.02 283.048 172.522 283.137 171.864C283.302 170.664 283.615 169.314 283.685 168.179C283.83 165.873 284.308 163.014 284.497 160.524C284.587 159.368 284.532 157.615 284.701 156.495C284.9 155.195 284.736 153.706 284.776 152.336C284.811 151.131 285.03 149.582 284.836 148.322C284.641 147.027 284.821 145.607 284.781 144.278C284.761 143.551 284.631 143.252 284.636 142.37C284.641 141.504 284.592 140.966 284.522 140.298C284.193 137.161 284.059 133.898 283.526 130.776L282.624 125.257C282.161 122.842 281.678 120.635 281.14 118.27L280.293 115.018C279.018 109.843 277.036 104.056 274.979 99.1598C273.938 96.6895 272.947 94.2391 271.752 91.8684L269.322 87.0573C269.162 86.7286 269.102 86.6439 268.933 86.3501C268.654 85.8719 268.49 85.4187 268.186 84.9107C267.13 83.1377 266.184 81.3099 265.048 79.5816L261.746 74.4169C261.139 73.5453 260.601 72.8082 259.998 71.9317C257.707 68.6147 255.172 65.5866 252.647 62.4838C251.98 61.662 251.377 61.0046 250.66 60.2326C250.276 59.8242 250.137 59.5602 249.704 59.1369C249.235 58.6787 249.091 58.4795 248.673 57.9814C247.926 57.09 246.895 56.2433 246.098 55.3667L240.186 49.6641C239.374 49.0366 238.712 48.3044 237.92 47.6918L233.278 43.8669C232.471 43.2493 231.724 42.6716 230.877 42.0341C228.462 40.2262 225.942 38.5975 223.481 36.8644C221.828 35.6989 219.99 34.658 218.257 33.6171L212.813 30.594C211.025 29.7323 209.018 28.5221 207.166 27.7701L201.368 25.235C200.312 24.7917 199.411 24.4581 198.345 24.0248C194.271 22.3862 189.873 20.9468 185.605 19.8262C183.349 19.2336 181.153 18.6658 178.782 18.1777L173.637 17.1766C172.955 17.0621 172.457 16.9177 171.799 16.828C167.945 16.3051 164.369 15.7722 160.459 15.4683C159.303 15.3787 157.55 15.4335 156.43 15.2642C155.13 15.0649 153.641 15.2293 152.271 15.1894C151.2 15.1596 149.651 14.801 148.506 15.1048C148.476 15.1147 148.431 15.1347 148.406 15.1446C148.381 15.1496 148.346 15.1795 148.312 15.1845M21.0562 147.983C21.0562 122.15 30.3995 95.798 44.3348 76.0953C53.2697 63.4649 63.4597 53.255 76.11 44.345C82.2559 40.017 88.7205 36.3912 96.251 32.7953C103.194 29.4783 111.606 26.6495 119.808 24.6523C125.277 23.3225 128.614 22.8245 134.167 22.0824L136.732 21.7836C142.479 21.2008 146.285 21.1212 152.017 21.1212C177.816 21.1212 204.247 30.4744 223.905 44.3998C229.931 48.668 239.982 56.9953 245.067 62.9968C245.694 63.7388 246.302 64.3066 246.959 65.0636C249.992 68.5549 252.971 72.36 255.66 76.175C264.605 88.8851 271.608 104.08 275.348 119.873C278.137 131.657 278.884 139.965 278.884 152.082C278.884 177.398 269.844 203.839 255.605 223.97C237.412 249.694 211.249 267.848 180.132 275.413C168.647 278.207 159.767 278.944 147.928 278.944C126.691 278.944 103.682 272.32 85.7223 261.831C69.0727 252.104 55.4462 239.748 44.29 223.89C30.3995 204.153 21.0661 177.945 21.0661 152.082V147.983H21.0562Z" fill="#090808"/>
<path fill-rule="evenodd" clip-rule="evenodd" d="M76.8821 136.135C74.7355 136.075 67.1403 135.133 64.0076 134.795C63.7138 134.765 63.405 134.715 63.1111 134.685C62.4338 134.615 62.5832 134.516 62.3491 134.869C62.4288 141.419 64.6252 147.291 67.6184 151.509C69.1275 153.641 70.9753 155.787 72.818 157.237C73.3459 157.655 73.7942 158.053 74.3371 158.452C76.5484 160.071 76.0404 159.015 76.4836 161.754C76.5982 162.456 76.8572 163.527 76.8621 164.219L63.4847 166.919C63.6689 168.781 66.5227 173.483 67.4043 174.678C69.2072 177.119 70.8557 178.897 73.1517 180.675C79.3773 185.496 84.3677 185.959 84.9554 186.362C85.2791 186.581 87.087 189.774 87.1767 190.118C85.9913 190.601 76.2346 197.284 76.1201 197.434C77.4399 199.262 80.6423 201.981 82.5548 203.236L84.1585 204.237C95.1404 210.388 102.332 207.25 103.582 208.157L106.008 210.134L101.954 215.533C101.271 216.449 100.609 217.261 99.9465 218.172C99.3588 218.984 98.3229 220.125 97.9045 220.927C98.9953 221.948 102.516 223.352 104.319 223.95C110.41 225.962 117.084 225.768 123.126 223.731C124.465 223.277 125.526 222.784 126.761 222.177C129.007 221.066 128.046 221.196 130.686 221.908C152.157 227.665 174.16 223.586 192.448 211.095C195.975 208.69 200.771 204.651 203.585 201.607L205.791 199.167C206.16 198.729 206.538 198.3 206.872 197.922C210.776 193.519 215.164 186.452 217.644 180.959C230.818 151.808 224.089 118.992 202.554 97.4414C191.637 86.5193 173.398 75.6221 150.647 75.6221C135.846 75.6221 122.682 79.4371 110.769 86.7932C107.801 88.626 103.687 91.5993 101.202 93.8903L96.9383 97.8249L93.0038 102.223C88.1229 107.885 83.3068 115.819 80.5825 123.136C79.2129 126.821 77.4349 131.941 76.8821 136.135ZM82.4203 152.63C81.992 142.375 84.0639 132.504 87.5552 124.097C90.0603 118.065 93.1681 113.025 96.9782 108.115C98.5321 106.112 102.173 102.128 103.986 100.509C104.424 100.121 104.728 99.9018 105.151 99.4834C108.647 96.012 116.228 91.2408 120.366 89.2884C138.102 80.9262 157.57 80.0298 175.898 87.625C181.979 90.1451 186.94 93.218 191.886 97.048C192.737 97.7104 193.39 98.3429 194.197 98.9704L196.418 100.983C197.09 101.735 197.767 102.287 198.46 103.039C198.803 103.413 199.147 103.667 199.491 104.05L201.463 106.312C204.815 109.987 208.391 115.869 210.712 120.426C219.348 137.375 219.607 158.497 212.37 175.963C209.726 182.343 206.862 186.791 202.947 191.945L194.779 200.581C193.823 201.533 191.183 203.535 190.103 204.372C187.309 206.538 183.225 209.063 179.569 210.776C161.744 219.119 142.46 220.08 124.032 212.44C118.021 209.945 112.945 206.817 108.05 203.017C106.038 201.453 102.068 197.832 100.44 196.009L97.4712 192.558C94.4232 188.773 91.43 184.38 89.2236 179.629C85.3687 171.336 82.8686 163.148 82.4253 152.625L82.4203 152.63Z" fill="#040404"/>
<path fill-rule="evenodd" clip-rule="evenodd" d="M186.791 177.761C186.586 177.338 182.243 173.064 181.501 172.322C180.595 171.421 179.713 170.594 178.842 169.653C178.419 169.199 176.626 167.272 176.162 167.033L176.118 178.085H144.218L144.213 156.365H157.625C159.069 156.375 158.741 156.315 160.434 154.622L167.203 147.868C167.706 147.365 169.145 146.1 169.414 145.483H144.268L144.208 128.205L176.083 128.195L176.123 138.764C176.541 138.585 184.574 130.367 186.093 128.783C187.329 127.493 187 127.941 187 125.581C187 123.046 187.149 119.973 186.985 117.522L113.065 117.502L113.155 188.862H186.875V183.234C186.875 181.875 187.03 178.931 186.796 177.766M123.853 128.195L133.326 128.205L133.316 178.085H123.813L123.848 128.195H123.853Z" fill="#040404"/>
<path fill-rule="evenodd" clip-rule="evenodd" d="M66.4181 131.956L73.1517 132.668C74.7554 127.404 74.5363 126.861 76.7974 120.989C78.1919 117.368 79.9948 113.717 81.8475 110.605C93.2229 91.4796 111.661 76.9865 136 72.5439C145.239 70.8556 155.02 70.9203 164.269 72.6087C204.909 80.0246 234.005 118.772 227.894 161.286C225.489 178.03 218.486 191.233 208.162 203.042C207.549 203.744 206.902 204.332 206.289 204.994C202.728 208.859 195.79 214.322 191.363 216.982C176.501 225.917 160.026 230.22 141.986 228.367C137.484 227.904 133.141 227.097 128.987 225.927C127.573 225.528 126.164 226.763 123.439 227.605C122.438 227.914 121.482 228.188 120.406 228.397C119.754 228.522 117.413 228.776 117.084 228.975C119.385 230.29 126.642 232.396 129.471 233.094C134.087 234.239 138.884 235.011 143.869 235.37C171.984 237.377 197.777 225.434 214.318 206.329C238.567 178.334 242.631 138.46 223.477 106.301C219.886 100.27 215.617 94.8314 210.831 89.9855C210.079 89.2284 209.511 88.7204 208.714 87.8688L206.568 85.9164C205.791 85.2839 205.024 84.6066 204.277 83.9741C193.38 74.7254 178.802 68.1462 164.264 65.6709C154.253 63.9676 143.476 64.0921 133.599 66.0494C107.85 71.1544 87.2962 87.1715 75.5473 107.855C73.5551 111.362 71.7721 115.122 70.1734 119.156C69.3715 121.178 66.3783 129.884 66.4131 131.951" fill="#040404"/>
<path fill-rule="evenodd" clip-rule="evenodd" d="M133.33 113.603L144.143 113.618L144.213 105.828H163.392L163.417 112.208C164.239 111.909 170.28 107.985 171.595 107.183C172.422 106.68 173.493 105.903 174.285 105.549L174.295 94.9409H133.325V113.598L133.33 113.603Z" fill="#040404"/>
<path fill-rule="evenodd" clip-rule="evenodd" d="M123.818 178.085H133.32L133.325 128.206L123.853 128.196L123.818 178.085Z" fill="#FF5311"/>
<path fill-rule="evenodd" clip-rule="evenodd" d="M105.171 39.8076L111.969 61.7813C112.945 61.7614 124.007 58.1705 124.918 57.6376C128.435 55.5856 128.34 52.3932 126.861 48.6927C126.288 47.2633 125.949 46.9645 125.128 46.0481C124.535 45.3807 125.377 45.0371 124.909 42.5867C123.121 33.1637 117.109 36.0922 111.745 37.7706C109.574 38.4479 107.387 39.2199 105.171 39.8076ZM111.596 42.6713C117.064 41.1125 118.464 39.5785 119.395 42.492C120.232 45.0968 119.4 45.0221 117.328 45.6746C116.287 46.0033 113.892 46.8848 112.906 47.0043L111.596 42.6713ZM114.39 51.5365C115.102 51.1032 117.732 50.4259 118.748 50.1022C120.909 49.4099 121.502 49.1957 122.194 51.4419C122.931 53.8475 122.115 53.8425 120.122 54.47C118.758 54.9033 117 55.5508 115.66 55.8197L114.395 51.5365H114.39Z" fill="#040404"/>
<path fill-rule="evenodd" clip-rule="evenodd" d="M166.082 48.2893L160.882 47.5671C159.797 54.7489 162.924 55.2121 168.946 56.4721C174.444 57.6176 178.179 57.2391 178.892 49.8432C179.18 46.835 177.945 45.0918 176.003 44.0907C171.062 41.5358 166.769 44.1754 167.984 39.3643C168.383 37.7955 168.871 37.6112 170.509 37.9648C176.959 39.3494 175.161 38.5923 175.266 41.7898C176.232 41.9242 179.813 42.5468 180.47 42.4223C181.97 35.0164 177.119 34.588 172.283 33.587C169.772 33.069 166.978 32.5212 165.046 34.1C163.572 35.3003 162.635 37.6709 162.446 40.3554C161.998 46.6607 167.407 46.5959 172.442 47.7663C173.951 48.1149 173.682 49.3501 173.348 50.7496C172.985 52.2736 172.427 52.4579 170.823 52.1142C169.593 51.8503 168.398 51.6361 167.183 51.3771C165.205 50.9538 166.102 49.8979 166.077 48.2893" fill="#040404"/>
<path fill-rule="evenodd" clip-rule="evenodd" d="M244.793 102.223C244.952 102.855 245.605 103.981 245.908 104.643C246.302 105.505 246.661 106.227 247.024 107.074C249.345 112.428 251.113 117.069 252.627 122.926C258.449 145.458 256.995 168.134 248.399 189.724C247.686 191.512 246.919 193.315 246.073 195.043C245.54 196.129 243.792 199.341 243.573 200.168C243.901 200.522 245.371 201.627 245.754 201.782C247.064 199.745 249.848 193.454 250.874 190.964C252.428 187.199 253.793 183.14 254.928 179.036C260.113 160.32 260.123 141.195 255.322 122.408C253.847 116.636 250.032 105.883 246.964 100.604C246.611 100.758 245.092 101.889 244.793 102.223Z" fill="#040404"/>
<path fill-rule="evenodd" clip-rule="evenodd" d="M54.2061 201.672C54.6294 201.453 56.0488 200.392 56.3377 200.028C55.6205 198.415 54.6493 196.657 53.8624 195.043C43.4881 173.742 41.222 147.629 46.8948 124.55C48.359 118.583 50.3014 113.01 52.7069 107.541C53.459 105.833 54.4352 104.02 55.1175 102.352C54.8834 102.018 53.3594 100.912 52.9759 100.718C52.1342 101.525 48.7973 109.698 48.0901 111.531C39.9221 132.658 38.8663 157.391 45.0769 179.245C47.1388 186.506 49.4945 192.573 52.7767 199.137L54.1463 201.597C54.1463 201.597 54.1911 201.647 54.211 201.667" fill="#040404"/>
<path fill-rule="evenodd" clip-rule="evenodd" d="M49.9677 85.8269C50.4658 86.3748 67.2847 99.035 68.2758 99.6974C68.6295 99.4634 72.6985 93.9749 73.3011 93.178C73.9735 92.2865 78.0027 87.087 78.2069 86.5391C77.146 85.8618 75.3979 84.268 74.5562 83.8696L69.5658 90.3989C69.0877 91.0215 68.1862 92.0973 67.8973 92.685C67.3794 92.4907 64.5306 90.3193 64.2218 89.9258C65.3424 88.3271 69.3267 83.3317 69.8646 82.3057C68.6992 81.5288 67.4441 80.2737 66.2189 79.6262C65.5764 80.1342 61.3182 86.2204 60.4814 87.072C60.0183 86.9425 57.1047 84.6914 56.8358 84.3427C57.8069 82.9133 63.1958 76.1947 63.4946 75.3978C62.4437 74.7155 60.5462 73.0869 59.7742 72.7134L52.3832 82.5149C51.9051 83.1424 51.6113 83.5658 51.158 84.1584C50.7795 84.6465 50.1918 85.3089 49.9578 85.8269" fill="#040404"/>
<path fill-rule="evenodd" clip-rule="evenodd" d="M231.555 63.6987L227.561 60.4365L220.737 68.6194C219.612 69.9691 218.426 71.3387 217.351 72.7432C215.443 75.2234 214.885 73.7492 212.012 71.4582C210.662 70.3824 209.775 70.0338 211.509 67.9918C212.041 67.3643 212.624 66.6272 213.167 65.9598L219.96 57.7321C220.359 57.2191 221.225 56.0686 221.689 55.6851C221.45 55.2319 218.197 52.5724 217.654 52.2437C217.251 52.6022 216.843 53.17 216.489 53.5834L210.752 60.551C210.004 61.4276 209.203 62.3888 208.475 63.3251C207.285 64.8591 204.8 67.1153 205.348 70.2181C205.602 71.6674 206.434 72.6535 207.191 73.4205C208.002 74.2423 209.038 75.0641 209.995 75.8111C211.529 77.0064 213.65 79.4269 216.633 79.2427C219.891 79.0434 222.421 74.8449 224.707 72.1804C225.459 71.3038 226.241 70.3526 226.988 69.4063C227.7 68.5048 231.371 64.2266 231.56 63.7037" fill="#040404"/>
<path fill-rule="evenodd" clip-rule="evenodd" d="M78.2219 68.4499C77.1262 67.2994 76.0952 65.8452 75.0493 64.5751C74.5264 63.9376 73.9885 63.2603 73.4556 62.6178C72.9725 62.0351 72.4495 61.2183 71.8618 60.7452C71.2094 61.2731 70.6366 61.7562 69.9194 62.3339C69.3567 62.7872 68.4104 63.6239 67.8326 63.9227C68.0667 64.5453 74.3969 72.2102 74.9995 72.9572C76.2396 74.4962 77.3951 75.9405 78.6053 77.4098L81.2848 80.7417C81.6434 81.18 81.9223 81.4489 82.1514 81.932C82.6993 81.7577 86.0163 79.0682 86.3798 78.62C86.0561 78.0572 81.1055 72.1853 80.1792 70.8405C81.5787 71.1444 83.3169 71.7071 84.7014 72.1255C86.2852 72.6036 87.7644 73.012 89.3631 73.4752C92.8146 74.4763 91.1561 74.6257 95.0159 71.7171C95.5737 71.2938 96.1465 70.736 96.6894 70.4023C96.5001 70.213 96.7292 70.3475 96.3507 70.1732L86.6139 67.3542C85.583 67.0554 84.0639 66.8313 83.2571 66.2884L82.271 52.4727C81.5737 52.7715 79.8106 54.2955 79.198 54.8035C76.9917 56.6313 77.3702 55.7099 77.5545 58.3645C77.674 60.0429 77.7886 61.7064 77.9131 63.3898C78.0127 64.7694 78.3215 67.165 78.2219 68.4499Z" fill="#040404"/>
<path fill-rule="evenodd" clip-rule="evenodd" d="M133.634 55.2071L138.834 55.0228L139.87 51.6959L148.451 51.2427L149.701 54.4352L154.956 54.216C154.881 53.5387 151.091 44.4344 150.518 42.9253C149.9 41.3017 146.364 32.7951 146.016 31.5649C144.561 31.5849 143.092 31.7094 141.633 31.7642C140.074 31.8239 140.467 31.4056 139.661 34.2594L135.621 48.2594C134.979 50.5056 134.177 52.941 133.634 55.2071ZM141.274 46.9545C141.464 45.814 142.714 41.8396 143.182 40.1164L143.545 39.19C143.904 39.7379 146.489 46.1278 146.504 46.6955L141.269 46.9545H141.274Z" fill="#040404"/>
<path fill-rule="evenodd" clip-rule="evenodd" d="M235.778 74.5013C236.426 75.8858 240.4 80.4031 240.938 81.5934C239.932 82.1313 221.813 84.761 220.792 85.2839L229.568 97.0776C230.016 97.6703 230.32 98.1883 230.843 98.7461C231.59 98.4971 233.607 96.6393 234.533 96.1264C234.304 95.5636 233.667 94.7966 233.308 94.3135C232.631 93.3971 229.553 89.4874 229.373 88.9744L249.529 85.3537C249.405 85.0548 240.325 72.6535 239.449 71.8467C238.278 72.4045 236.924 73.8538 235.783 74.5062" fill="#040404"/>
<path fill-rule="evenodd" clip-rule="evenodd" d="M190.177 42.9305C190.66 43.3538 192.219 43.9614 192.971 44.32C193.574 44.6089 195.531 45.4605 195.84 45.7992L187.986 62.3094L192.717 64.6502L200.661 48.0902C202.394 48.4837 204.705 50.2567 206.553 50.7448L208.47 46.6409L192.199 38.8066C191.786 39.22 190.421 42.2382 190.182 42.9305" fill="#040404"/>
<path fill-rule="evenodd" clip-rule="evenodd" d="M112.677 259.44C118.788 260.506 124.435 265.048 126.054 257.413C126.203 256.696 126.014 255.087 126.149 254.769C126.268 254.485 126.751 254.3 127.254 253.005C127.498 252.378 127.767 251.452 127.842 250.714C128.036 248.767 127.2 247.527 125.954 246.86C124.993 246.347 118.14 244.379 116.915 244.235C116.536 244.927 112.791 258.424 112.681 259.44M119.505 248.294C120.346 248.324 123.604 249.225 124.087 249.669C124.42 250.754 123.902 251.785 123.33 252.323C122.523 252.443 119.679 251.486 118.678 251.227L119.505 248.294ZM117.781 254.325C118.578 254.46 122.159 255.272 122.433 255.864C122.443 255.884 122.862 258.932 120.65 258.325C119.794 258.09 117.717 257.617 117.01 257.259L117.776 254.325H117.781Z" fill="#040404"/>
<path fill-rule="evenodd" clip-rule="evenodd" d="M226.156 214.512C226.898 215.284 228.362 216.155 229.294 216.883L238.767 223.84C239.095 223.616 238.886 223.785 239.135 223.492L244.115 216.589C246.631 211.723 239.364 209.681 239.364 209.676C238.876 209.228 238.752 207.953 236.162 206.603C232.382 204.636 230.599 208.451 228.865 210.762L226.156 214.512ZM230.872 213.536C231.131 212.918 232.177 211.638 232.651 210.991C233.363 210.015 233.716 209.158 235.111 210.244C236.72 211.504 235.913 211.857 233.781 214.711L233.278 215.289L230.872 213.536ZM235.982 217.246C236.167 216.733 237.437 215.139 237.8 214.641C238.602 213.541 238.757 212.958 240.221 214.014C241.645 215.04 241.092 215.418 240.206 216.639C239.683 217.361 239.016 218.481 238.358 219.019C237.83 218.72 236.416 217.674 235.987 217.251L235.982 217.246Z" fill="#040404"/>
<path fill-rule="evenodd" clip-rule="evenodd" d="M133.325 205.074L144.208 205.124V192.682C143.152 192.553 133.933 192.543 133.39 192.742L133.325 205.079V205.074Z" fill="#040404"/>
<path fill-rule="evenodd" clip-rule="evenodd" d="M87.8441 229.787C85.8369 230.414 84.9056 232.397 83.785 233.985C80.5627 238.543 78.2667 240.814 83.3766 244.225C84.7114 245.117 86.9077 247.223 89.2087 246.501C91.1312 245.899 93.4471 241.939 94.8466 239.852C95.4193 239.006 96.0668 238.264 96.3905 237.153C97.1874 234.374 95.0558 233.099 93.6114 232.078C92.8594 231.545 91.9729 230.893 91.181 230.414C90.2895 229.877 89.0593 229.413 87.8441 229.792M92.8644 235.504C92.9341 236.715 90.3492 239.937 89.388 241.361C88.7505 242.308 88.1778 243.747 86.7832 242.721C86.2453 242.328 84.2681 241.083 84.1287 240.694C83.8846 240.012 84.4424 239.464 84.7313 239.031L87.5701 234.902C88.9099 232.964 88.7854 232.252 92.8594 235.504H92.8644Z" fill="#040404"/>
<path fill-rule="evenodd" clip-rule="evenodd" d="M74.9098 218.491C72.7582 219.208 71.8319 220.936 70.3327 222.306C69.3865 223.173 67.0506 225.404 66.5526 226.853C65.6511 229.483 68.0218 231.161 69.0826 232.287C73.7493 237.208 75.3281 235.026 79.0734 231.191C83.0976 227.067 85.0649 225.613 80.3634 221.146C79.3772 220.204 77.3303 217.689 74.9098 218.496M75.9507 222.002C76.6679 221.703 78.1122 223.422 78.5953 223.87C80.3733 225.509 79.178 225.787 75.9905 229.055C75.5771 229.478 74.0382 231.256 73.5451 231.42C72.569 231.749 71.3736 229.956 70.8308 229.453C69.5159 228.228 69.8447 227.929 71.0798 226.734C72.0709 225.777 75.1887 222.326 75.9557 222.002H75.9507Z" fill="#040404"/>
<path fill-rule="evenodd" clip-rule="evenodd" d="M220.717 220.249L228.233 228.049C229.403 229.274 229.373 229.368 227.625 230.972C227.272 231.296 226.614 232.018 226.281 232.237C225.533 232.73 224.981 232.013 224.632 231.649L216.902 223.81C216.275 224.328 214.706 225.673 214.392 226.266C214.586 226.589 214.512 226.47 214.786 226.749L217.714 229.827C219.079 231.261 220.015 232.118 221.146 233.363C224.587 237.153 226.295 236.744 229.817 233.308C232.959 230.235 234.11 228.442 230.071 224.707L224.966 219.427C224.503 218.954 223.706 217.888 223.148 217.674C222.71 218.048 222.406 218.446 221.962 218.895C221.479 219.383 221.031 219.617 220.712 220.254" fill="#040404"/>
<path fill-rule="evenodd" clip-rule="evenodd" d="M130.188 263.913L133.709 264.316C133.734 264.261 133.769 264.182 133.779 264.202L134.775 262.175L140.617 262.762L141.17 265.068L144.736 265.442L141.01 249.186L137.155 248.782L130.188 263.913ZM136.329 259.127C136.349 258.594 138.191 254.734 138.6 254.047L139.835 259.475L136.329 259.132V259.127Z" fill="#040404"/>
<path fill-rule="evenodd" clip-rule="evenodd" d="M90.9767 47.1589L101.829 67.4691L106.486 65.0237L101.112 54.9035C100.2 53.2998 99.2392 51.4869 98.3975 49.8384L95.5985 44.7334L90.9767 47.1639V47.1589Z" fill="#040404"/>
<path fill-rule="evenodd" clip-rule="evenodd" d="M202.449 246.611C201.891 246.695 199.471 247.666 199.057 247.985C199.496 249.151 200.542 250.172 199.067 250.909C195.287 252.791 195.676 253.015 194.017 249.429C193.524 248.369 193.056 247.437 192.558 246.381C192 245.201 191.119 244.23 192.633 243.518C196.024 241.919 195.97 241.381 197.254 244.275L200.397 242.556C200.058 240.913 198.49 238.976 196.826 238.781C194.953 238.562 192.697 239.967 191.253 240.639C186.198 242.99 188.31 245.938 190.217 249.947C191.955 253.603 192.986 257.418 198.126 254.888C200.656 253.643 203.998 252.736 203.445 249.29C203.261 248.145 202.728 247.517 202.449 246.616" fill="#040404"/>
<path fill-rule="evenodd" clip-rule="evenodd" d="M53.6931 213.829C54.2658 214.716 55.0627 215.767 55.75 216.643C56.9354 216.125 59.7145 213.516 60.9546 212.973L64.7596 218.132C65.2677 217.859 66.8166 216.693 67.2349 216.285C66.9311 215.433 63.7636 211.807 63.4797 210.926C64.2865 210.542 65.1531 209.561 65.9599 209.212C66.6871 210.169 70.024 214.845 70.5619 215.269L73.0073 213.456C72.7084 212.734 67.215 205.731 66.4032 204.376C65.7757 204.635 54.0069 213.396 53.6881 213.824" fill="#040404"/>
<path fill-rule="evenodd" clip-rule="evenodd" d="M100.36 240.181L104.23 242.073C104.065 242.83 103.283 244.245 102.955 244.957L98.9854 253.588L102.243 255.062L107.577 243.707L111.556 245.49L112.906 242.671C112.423 242.308 102.183 237.506 101.595 237.407L100.36 240.176V240.181Z" fill="#040404"/>
<path fill-rule="evenodd" clip-rule="evenodd" d="M201.722 235.226C201.911 235.798 210.204 247.741 210.761 248.235C211.394 247.911 212.38 247.144 213.018 246.691L217.61 243.493C218.202 243.07 219.482 242.308 219.915 241.835C219.731 241.411 218.461 239.534 218.137 239.285C217.699 239.504 217.077 239.967 216.608 240.301L211.887 243.543L204.611 233.308C203.749 233.836 202.539 234.847 201.722 235.221" fill="#040404"/>
<path fill-rule="evenodd" clip-rule="evenodd" d="M165.111 248.802L168.348 264.018L179.37 261.712C179.275 260.671 178.777 259.525 178.847 258.634L171.291 260.183L168.587 247.901C168.014 247.956 167.442 248.11 166.869 248.235C166.54 248.304 166.291 248.349 165.972 248.419C165.898 248.434 165.574 248.513 165.529 248.533C165.2 248.673 165.345 248.568 165.111 248.802Z" fill="#040404"/>
<path fill-rule="evenodd" clip-rule="evenodd" d="M149.537 249.749L150.389 265.507L161.624 264.899C161.694 263.923 161.345 262.718 161.604 261.836C160.29 261.502 155.728 262.175 153.93 262.11C153.606 261.298 153.212 251.332 153.128 249.569L149.537 249.744V249.749Z" fill="#040404"/>
<path fill-rule="evenodd" clip-rule="evenodd" d="M75.9508 222.002C75.1838 222.326 72.066 225.778 71.0749 226.734C69.8447 227.924 69.511 228.228 70.8259 229.453C71.3687 229.956 72.569 231.749 73.5402 231.42C74.0333 231.256 75.5722 229.478 75.9856 229.055C79.1731 225.788 80.3684 225.509 78.5904 223.87C78.1073 223.427 76.663 221.704 75.9458 222.002" fill="#FF5311"/>
<path fill-rule="evenodd" clip-rule="evenodd" d="M92.8644 235.504C88.7903 232.252 88.9149 232.964 87.5751 234.902L84.7363 239.031C84.4474 239.459 83.8846 240.012 84.1336 240.694C84.2731 241.083 86.2503 242.328 86.7882 242.721C88.1827 243.747 88.7505 242.308 89.393 241.361C90.3542 239.937 92.9391 236.715 92.8693 235.504" fill="#FF5311"/>
<path fill-rule="evenodd" clip-rule="evenodd" d="M186.791 177.761C187.025 178.927 186.87 181.87 186.87 183.23V188.858H113.15L113.06 117.498L186.98 117.518C186.87 117.284 187.144 117.249 186.039 117.254C185.675 117.254 185.306 117.269 184.938 117.269H122.234C120.476 117.269 114.26 117.04 113.02 117.333C112.721 118.016 112.901 170.46 112.901 179.948C112.901 182.791 112.731 186.193 112.931 188.967L186.99 188.992C187.01 188.768 187.174 178.603 186.98 178.06C186.84 177.672 187.104 178.01 186.791 177.756" fill="#341305"/>
<path fill-rule="evenodd" clip-rule="evenodd" d="M111.596 42.6714L112.906 47.0044C113.892 46.8849 116.287 46.0033 117.328 45.6746C119.4 45.0222 120.232 45.0969 119.395 42.4921C118.459 39.5836 117.064 41.1125 111.596 42.6714Z" fill="#FF5311"/>
<path fill-rule="evenodd" clip-rule="evenodd" d="M114.39 51.5367L115.655 55.8199C116.995 55.546 118.753 54.9035 120.117 54.4702C122.105 53.8377 122.926 53.8476 122.189 51.4421C121.502 49.1959 120.909 49.4101 118.743 50.1023C117.727 50.4261 115.097 51.1034 114.385 51.5367" fill="#FF5311"/>
<path fill-rule="evenodd" clip-rule="evenodd" d="M141.274 46.9545L146.509 46.6955C146.489 46.1277 143.909 39.7378 143.55 39.1899L143.187 40.1163C142.714 41.8395 141.469 45.8139 141.279 46.9545" fill="#FF5311"/>
<path fill-rule="evenodd" clip-rule="evenodd" d="M117.015 257.259C117.722 257.617 119.799 258.09 120.655 258.324C122.867 258.937 122.448 255.889 122.438 255.864C122.159 255.271 118.583 254.46 117.786 254.325L117.02 257.259H117.015Z" fill="#FF5311"/>
<path fill-rule="evenodd" clip-rule="evenodd" d="M235.983 217.246C236.411 217.675 237.825 218.72 238.353 219.014C239.016 218.481 239.678 217.356 240.201 216.634C241.087 215.418 241.64 215.035 240.216 214.009C238.752 212.953 238.597 213.536 237.795 214.636C237.432 215.135 236.162 216.728 235.978 217.241" fill="#FF5311"/>
<path fill-rule="evenodd" clip-rule="evenodd" d="M118.673 251.227C119.674 251.481 122.523 252.443 123.325 252.323C123.897 251.79 124.415 250.759 124.082 249.669C123.599 249.22 120.341 248.324 119.5 248.294L118.673 251.227Z" fill="#FF5311"/>
<path fill-rule="evenodd" clip-rule="evenodd" d="M230.873 213.535L233.278 215.289L233.781 214.711C235.913 211.857 236.72 211.503 235.111 210.243C233.716 209.153 233.363 210.014 232.651 210.99C232.177 211.638 231.132 212.918 230.873 213.535Z" fill="#FF5311"/>
<path fill-rule="evenodd" clip-rule="evenodd" d="M136.329 259.127L139.835 259.47L138.6 254.042C138.191 254.734 136.349 258.589 136.329 259.122" fill="#FF5311"/>
</g>
<defs>
<clipPath id="clip0_1444_13723">
<rect width="269.935" height="270" fill="white" transform="translate(15 15)"/>
</clipPath>
</defs>
</svg>
